<svg xmlns="http://www.w3.org/2000/svg" viewBox="0 0 30.83 30.83"><title>iconsnew</title><g id="fd5266dd-9094-4d0c-98a0-276fb12ac01d" data-name="Layer 1"><path d="M30.45,15.59c0-.36,0-.7-.05-1.05,0-.09,0-.17,0-.26s0-.07,0-.1l-.06-.46C29.74,9.35,28.5,7.89,28,7.49A14.88,14.88,0,0,0,18.17,1a7.41,7.41,0,0,0-1-.15L17,.8l-.27,0h-.45c-.24,0-.48,0-.73,0H15.3l-1,.05-.26,0A13,13,0,0,0,8,2.82L7.76,3A15,15,0,0,0,2.5,8.56l0,.07a11.24,11.24,0,0,0-.89,2.07A14.75,14.75,0,0,0,3.93,24.78l0,0a8.86,8.86,0,0,0,2,2.08,14.79,14.79,0,0,0,20.76-1.5l0,0a12.43,12.43,0,0,0,2.9-5.05A14.74,14.74,0,0,0,30.45,15.59Zm-2.3,3.52-.12.45a13,13,0,0,1-2.37,4.34,1,1,0,0,1-.71-.11c-.27-.23-.36-.9-.23-1.8a1.09,1.09,0,0,0-1.11-1.28,4.17,4.17,0,0,0-1.28.31,8.21,8.21,0,0,1-1,.3,9.66,9.66,0,0,1-.1-2.39c0-.24,0-.45,0-.59a1.79,1.79,0,0,0-.79-1.41c-.36-.31-.53-.45-.39-1.17a1.17,1.17,0,0,1,1.22-.85,1.94,1.94,0,0,0,1.41-.36c.86-.58,1.37-1.8,1.53-3.6A2.07,2.07,0,0,1,25,9.36,2.84,2.84,0,0,1,26.82,9a13,13,0,0,1,1.68,4.76c0,.21.06.4.09.62s0,.24,0,.36a14.9,14.9,0,0,1-.39,4.19ZM25.6,7.22a4,4,0,0,0-1.69.68,3.8,3.8,0,0,0-1.48,2.88c-.18,2-.75,2.35-.83,2.36a.78.78,0,0,0-.22,0,2.94,2.94,0,0,0-3.08,2.31,2.67,2.67,0,0,0,1,2.88,1.07,1.07,0,0,1,.16.14c0,.11,0,.25,0,.41-.06,1.64-.16,3.88,1.35,4.23a4.09,4.09,0,0,0,2.09-.34,3,3,0,0,0,.95,2.44,2,2,0,0,0,.35.24,13,13,0,0,1-2,1.41c-1.48-3.93-5.54-6.19-7.65-7.28a3.7,3.7,0,0,0,.82-1.41A2,2,0,0,0,14.92,16a2.58,2.58,0,0,0-2.7-.09,4.4,4.4,0,0,1-.81.23,8.46,8.46,0,0,1,0-1.26l0-.57a7.63,7.63,0,0,0-.06-1,2.29,2.29,0,0,0,0-.25,6.85,6.85,0,0,0,2.09-1.53A10,10,0,0,1,15.85,9.7c.84-.26,4.27-2.49,4.52-3.85a4.15,4.15,0,0,0,.54-2.17A12.93,12.93,0,0,1,25.6,7.22ZM3.79,21.15A1.3,1.3,0,0,0,4.35,20c0-.3.05-.69.08-1.12s.07-1,.12-1.55A11.22,11.22,0,0,0,7.28,19.5l0,0a5.85,5.85,0,0,0-2.87,2.85Q4.09,21.78,3.79,21.15Zm1.91,3C6,23.12,7,20.73,9.63,21a.9.9,0,0,0,.62-1.61c-.71-.55-1.41-1-2-1.37a6.6,6.6,0,0,1-3-2.93A1.13,1.13,0,0,0,4,14.24c-.59.11-.87.53-1.05,1.57A11.46,11.46,0,0,1,3.3,11.2a12.68,12.68,0,0,1,.78-1.77A14.32,14.32,0,0,1,8.74,4.49a13,13,0,0,1,6.64-1.95l.83,0a14,14,0,0,1,1.6.17A1.78,1.78,0,0,1,19,3.45c.28.57-.21,1.51-.4,1.79a.87.87,0,0,0-.16.43A11.32,11.32,0,0,1,15.33,8a10,10,0,0,0-3.11,2.2,11.19,11.19,0,0,1-1.38,1.13,1.4,1.4,0,0,0-1,.47,2.1,2.1,0,0,0-.31,1.71,4.6,4.6,0,0,1,0,.77l0,.53c0,1.11-.07,2.06.53,2.67a1.54,1.54,0,0,0,1.17.47,4.51,4.51,0,0,0,1.53-.35,4.63,4.63,0,0,1,.87-.24,1.53,1.53,0,0,1-.24.71,1.18,1.18,0,0,1-.67.56,1,1,0,0,0-.89.8c-.12.74.44,1,1.48,1.56,1.79.92,5.87,3,7.17,6.57-1.52.53-6.64,1.24-9.7,0a14.15,14.15,0,0,1-3.79-2.14A13.13,13.13,0,0,1,5.7,24.1Z" style="fill:#7daca8"/></g></svg>