<svg xmlns="http://www.w3.org/2000/svg" viewBox="0 0 30.83 30.83"><title>iconsnew</title><g id="acb32331-c91c-44ee-93a1-3281f3e4e6df" data-name="Layer 1"><path d="M18,22.48a.78.78,0,0,0-.35-.21,1.44,1.44,0,0,0-.43-.06H17v2.61h.15a1.43,1.43,0,0,0,.43-.07.82.82,0,0,0,.35-.23,1.16,1.16,0,0,0,.22-.4,2.25,2.25,0,0,0,.08-.63,2.1,2.1,0,0,0-.08-.61A1.16,1.16,0,0,0,18,22.48Z" style="fill:#7daca8"/><path d="M28.35,20.28H26.47V3.67a.9.9,0,0,0-.9-.9H10.81a3.1,3.1,0,0,0-6.14,0H2.07a.9.9,0,0,0-.9.9V29.84a.9.9,0,0,0,.9.9h23.5a.9.9,0,0,0,.9-.9v-3.1h1.88a.42.42,0,0,0,.42-.41V20.7A.42.42,0,0,0,28.35,20.28ZM6.44,4.57H9V8A1.27,1.27,0,0,1,7.77,9.31H7.71A1.27,1.27,0,0,1,6.44,8ZM7.77,1.89A1.24,1.24,0,0,1,9,2.77H6.51A1.29,1.29,0,0,1,7.77,1.89Zm16.9,27.05H3V4.57H4.64V8a3.07,3.07,0,0,0,3.07,3.07h.06A3.06,3.06,0,0,0,10.84,8V4.57H24.67V20.28h-10a.41.41,0,0,0-.41.42v5.63a.41.41,0,0,0,.41.41h10Zm-2.21-5.88v.78H20.94v.95H22.8v.78H20V21.45h2.72v.79H20.94v.82Zm-3.26.43a2.78,2.78,0,0,1-.14.92,1.57,1.57,0,0,1-1,1,2.22,2.22,0,0,1-.79.13H16.08V21.45h1.14a2.55,2.55,0,0,1,.81.12,1.81,1.81,0,0,1,.63.37,1.79,1.79,0,0,1,.4.64A2.72,2.72,0,0,1,19.2,23.49Zm7.27-.6-.8,2.68H24.55l-1.24-4.12h1l.38,1.49.11.43c.07.23.12.45.17.66s.1.43.16.66h0c.06-.23.12-.45.17-.66s.1-.43.16-.66L26,21.45h.94Z" style="fill:#7daca8"/></g></svg>