<svg xmlns="http://www.w3.org/2000/svg" viewBox="0 0 30.83 30.83"><title>iconsnew</title><g id="a13fadfb-117c-433c-8585-0e55d516582b" data-name="Layer 1"><path d="M28.92,7.45,23.51.68a.91.91,0,0,0-.7-.34H2.62a.9.9,0,0,0-.9.9V29.59a.9.9,0,0,0,.9.9H28.21a.9.9,0,0,0,.9-.9V8A1,1,0,0,0,28.92,7.45ZM26,6.78l-3.3-.3.48-3.11ZM3.52,28.69V2.14h18l-.76,5a.89.89,0,0,0,.18.69.92.92,0,0,0,.63.35l5.7.52v20Z" style="fill:#7daca8"/><path d="M16.35,18.28c-.4.07-.8.12-1.2.16-.19,0-.39,0-.58,0-.45,0-.9,0-1.35,0h0l-.55-.07a5,5,0,0,1-.56-.08c-.32-.06-.63-.15-.94-.22a7.79,7.79,0,0,1-1.25-.46,5.9,5.9,0,0,1-.83-.5L9,17S8.9,17,8.89,17a1.78,1.78,0,0,0,1.06.12,1.42,1.42,0,0,0,1-.62,1.88,1.88,0,0,0,.3-1,2,2,0,0,0-.14-.83,1.42,1.42,0,0,0-.36-.54,1.47,1.47,0,0,0-.82-.39,1.86,1.86,0,0,0-.81,0l-.1,0,.08-.07c.17-.11.34-.23.52-.33a5.4,5.4,0,0,1,1.18-.51c.28-.09.57-.17.86-.24s.47-.1.7-.14.46-.05.69-.08a6.62,6.62,0,0,1,.77,0l.27,0h.19l.23,0a7.94,7.94,0,0,1,.85,0l.63.07c.29,0,.58.1.87.16a7.61,7.61,0,0,1,1,.31c.21.08.41.18.62.27a1.85,1.85,0,0,0,.29.13.1.1,0,0,0,0,0L18.35,13a7.14,7.14,0,0,0-1.89-.95,9.2,9.2,0,0,0-1.11-.31,11.48,11.48,0,0,0-1.15-.19l-.28,0a5.48,5.48,0,0,0-.57,0,11.81,11.81,0,0,0-1.19,0c-.15,0-.31,0-.46,0l-.66.09-.72.14a8.84,8.84,0,0,0-1.49.46,6.79,6.79,0,0,0-1.11.56,5.2,5.2,0,0,0-.65.48,4,4,0,0,0-.53.55,3,3,0,0,0-.46.79,2.44,2.44,0,0,0-.14.89,2.28,2.28,0,0,0,.13.69,3.1,3.1,0,0,0,.45.79,4.22,4.22,0,0,0,.92.87,7,7,0,0,0,1.2.66A8.47,8.47,0,0,0,10,19c.27.07.54.12.82.18l.43.07.49.05.6.05.12,0h1l.08,0,.41,0c.27,0,.54-.06.8-.1a7.07,7.07,0,0,0,1-.2,8.64,8.64,0,0,0,1.38-.47,6.92,6.92,0,0,0,1.55-.91l.17-.15a8.6,8.6,0,0,1-1.21.51A8.49,8.49,0,0,1,16.35,18.28ZM8.65,16.2a1.34,1.34,0,0,1-.17-.59l0-.2a1.68,1.68,0,0,1,.25-.89,1,1,0,0,1,.62-.42,1.2,1.2,0,0,1,.75.05,1,1,0,0,1,.49.43,1.74,1.74,0,0,1,.2.67,1.65,1.65,0,0,1-.16.88,1,1,0,0,1-.7.57,1.19,1.19,0,0,1-.7,0A1.1,1.1,0,0,1,8.65,16.2Z" style="fill:#7daca8"/><path d="M24.32,16.57a.3.3,0,0,0,0,.35.33.33,0,0,0,.36.11.52.52,0,0,0,.19-.17V16.6l-.08-.1A.31.31,0,0,0,24.32,16.57Zm.12,0v.36A.22.22,0,0,1,24.44,16.55Zm0,.36h.09s0-.08,0-.13.07.16.17.14A.24.24,0,0,1,24.44,16.91Zm.11-.24s0,0,0,0,.05,0,.07,0S24.57,16.7,24.55,16.67Zm.17.24a1.09,1.09,0,0,0,0-.17s.07-.06,0-.11a.14.14,0,0,0-.14-.08h-.14a.22.22,0,0,1,.22-.05.23.23,0,0,1,.16.17A.22.22,0,0,1,24.72,16.91Z" style="fill:#7daca8"/><path d="M21.07,15.26H19.76c-.06,0-.08,0-.08.08v.41c0,.06,0,.08.09.08h.64v0a.2.2,0,0,1,0,.07.63.63,0,0,1-.47.55,1,1,0,0,1-.54,0,.73.73,0,0,1-.46-.32,1.22,1.22,0,0,1-.2-.67,1.32,1.32,0,0,1,.09-.62.79.79,0,0,1,.59-.54,1.61,1.61,0,0,1,.31,0,.62.62,0,0,1,.42.18.62.62,0,0,1,.17.28c0,.08,0,.08.12.08h.62c0-.08,0-.15,0-.22a1.25,1.25,0,0,0-.92-.88,1.75,1.75,0,0,0-.85,0,1.44,1.44,0,0,0-.84.5,1.77,1.77,0,0,0-.4,1,2.07,2.07,0,0,0,.11.92A1.53,1.53,0,0,0,19,17a2.44,2.44,0,0,0,.47.09,1.27,1.27,0,0,0,.39,0,1,1,0,0,0,.6-.33l.07-.06,0,.08a.9.9,0,0,0,0,.16c0,.09,0,.11.12.11H21l.15,0c0-.32,0-1.67,0-1.76Z" style="fill:#7daca8"/><path d="M23.37,16.41H22.31V13.83a.07.07,0,0,0-.08-.07h-.66l0,.05v3.12a.17.17,0,0,0,0,.07h0c.15,0,2.25,0,2.34,0a2.37,2.37,0,0,0,0-.6Z" style="fill:#7daca8"/><path d="M13.1,15.05a.94.94,0,0,0-.65-.15.72.72,0,0,0-.54.28h0c0-.08,0-.15,0-.24h-.27c-.09,0-.1,0-.1.1v2.73s0,.06.06.06a1.74,1.74,0,0,0,.32,0v-1a1.53,1.53,0,0,0,.17.14,1,1,0,0,0,.77.12.87.87,0,0,0,.62-.53,1.38,1.38,0,0,0,0-1A1,1,0,0,0,13.1,15.05Zm.05,1.08a1.29,1.29,0,0,1-.12.38.52.52,0,0,1-.46.25h-.05a.62.62,0,0,1-.63-.53,1.14,1.14,0,0,1,0-.55.59.59,0,0,1,.61-.47.56.56,0,0,1,.55.35A.93.93,0,0,1,13.15,16.13Z" style="fill:#7daca8"/><path d="M15.65,16.1l0,0a1.13,1.13,0,0,0-.21-.82.79.79,0,0,0-.38-.3.94.94,0,0,0-.55,0,1,1,0,0,0-.77.72,1.28,1.28,0,0,0,0,.75.87.87,0,0,0,.74.66,1.32,1.32,0,0,0,.28,0,.84.84,0,0,0,.67-.29.64.64,0,0,0,.18-.42H15.4c-.09,0-.1,0-.13.09a.44.44,0,0,1-.3.29.85.85,0,0,1-.32,0,.58.58,0,0,1-.5-.35.54.54,0,0,1-.05-.31Zm-1.55-.32a.59.59,0,0,1,.63-.57.57.57,0,0,1,.56.57A11.79,11.79,0,0,1,14.1,15.78Z" style="fill:#7daca8"/><path d="M17.36,17h.33V15.68a2.46,2.46,0,0,0,0-.28.57.57,0,0,0-.32-.43,1.8,1.8,0,0,0-.22-.06.85.85,0,0,0-.66.13c-.08.06-.15.14-.23.21V15h-.32c0,.2,0,2,0,2.07a1.93,1.93,0,0,0,.34,0V15.91a1.22,1.22,0,0,1,0-.26.51.51,0,0,1,.33-.39l.18,0a.45.45,0,0,1,.32,0,.33.33,0,0,1,.18.23,1.36,1.36,0,0,1,0,.2v1.2S17.32,17,17.36,17Z" style="fill:#7daca8"/></g></svg>