<svg xmlns="http://www.w3.org/2000/svg" viewBox="0 0 30.83 30.83"><title>iconsnew</title><g id="aea3bed7-39c1-49da-ac11-5a9ddd76a77f" data-name="Layer 1"><path d="M28.34,2.84H2.49A2.21,2.21,0,0,0,.29,5.05V21.2a2.2,2.2,0,0,0,2.2,2.2H12v2.78H7.16V28H23.67v-1.8H18.82V23.4h9.52a2.2,2.2,0,0,0,2.2-2.2V5.05A2.21,2.21,0,0,0,28.34,2.84ZM17,26.18H13.81V23.4H17Zm.9-4.58H2.49a.4.4,0,0,1-.4-.4V19.06H28.74V21.2a.4.4,0,0,1-.4.4Zm10.82-4.34H2.09V5.05a.4.4,0,0,1,.4-.41H28.34a.4.4,0,0,1,.4.41Z" style="fill:#7daca8"/><circle cx="26.13" cy="20.23" r="0.58" style="fill:#7daca8"/></g></svg>