<svg xmlns="http://www.w3.org/2000/svg" viewBox="0 0 30.83 30.83"><title>iconsnew</title><g id="b7a70103-ba63-4086-8c5e-9a6372458898" data-name="Layer 1"><path d="M28.45,0H2.38a.9.9,0,0,0-.9.9v29a.9.9,0,0,0,.9.9H28.45a.9.9,0,0,0,.9-.9V.9A.9.9,0,0,0,28.45,0Zm-.9,29H3.28V1.8H27.55Z" style="fill:#7daca8"/><path d="M7.09,18.57a3.34,3.34,0,0,0,.84-.11V22a.91.91,0,0,0,.9.9H22a.91.91,0,0,0,.9-.9V18.46a3.34,3.34,0,0,0,.84.11,3.22,3.22,0,1,0,0-6.44,3.34,3.34,0,0,0-.84.11v-4a.9.9,0,0,0-.9-.9H8.83a.9.9,0,0,0-.9.9v4a3.34,3.34,0,0,0-.84-.11,3.22,3.22,0,0,0,0,6.44Zm0-4.64a1.4,1.4,0,0,1,1.07.49.9.9,0,0,0,1.57-.59V9.12H21.1v4.71a.9.9,0,0,0,1.57.59,1.4,1.4,0,0,1,1.07-.49,1.42,1.42,0,1,1,0,2.84,1.4,1.4,0,0,1-1.07-.49.9.9,0,0,0-1.57.59v4.18H9.73V16.87a.9.9,0,0,0-1.57-.59,1.4,1.4,0,0,1-1.07.49,1.42,1.42,0,1,1,0-2.84Z" style="fill:#7daca8"/></g></svg>