<?xml version="1.0" encoding="utf-8"?>
<!-- Generator: Adobe Illustrator 12.0.0, SVG Export Plug-In . SVG Version: 6.00 Build 51448)  -->
<!DOCTYPE svg PUBLIC "-//W3C//DTD SVG 1.1//EN" "http://www.w3.org/Graphics/SVG/1.1/DTD/svg11.dtd" [
	<!ENTITY ns_svg "http://www.w3.org/2000/svg">
	<!ENTITY ns_xlink "http://www.w3.org/1999/xlink">
]>
<svg  version="1.1" id="Ebene_1" xmlns="&ns_svg;" xmlns:xlink="&ns_xlink;" width="67.465" height="106.866"
	 viewBox="0 0 67.465 106.866" overflow="visible" enable-background="new 0 0 67.465 106.866" xml:space="preserve">
<g transform="rotate(10) scale (1) translate (15,-5)">
	<polygon fill="#F3CC99" points="19.56,4.536 23.244,1.701 28.063,0.283 33.449,0.85 38.268,2.834 42.236,5.386 44.221,3.118 
		46.771,1.984 50.174,3.118 51.874,7.37 51.023,13.606 46.488,25.228 43.938,29.764 43.654,31.748 42.803,33.732 39.969,35.433 
		39.402,37.984 43.938,57.827 44.504,70.583 35.717,96.378 37.701,100.63 36.283,106.016 23.528,106.016 21.26,103.748 
		18.992,98.646 17.292,98.646 15.024,104.031 1.134,104.031 0.567,101.764 1.417,99.779 3.402,96.378 4.536,90.425 1.134,72.283 
		1.134,68.599 1.984,61.228 2.551,50.173 7.37,35.433 12.189,25.795 9.071,21.26 8.504,19.275 6.803,18.425 4.536,13.323 
		4.819,9.354 5.103,5.953 8.504,2.834 11.339,1.417 15.024,1.417 17.575,2.834 	"/>
	<polygon fill="#E5B27F" points="40.252,21.827 38.551,20.409 39.118,22.677 37.701,21.543 37.701,23.244 36,21.543 36.283,23.527 
		35.15,22.11 35.434,24.094 33.732,22.677 33.732,24.945 35.434,27.496 35.434,26.646 36.283,27.779 36.283,26.079 37.135,27.212 
		37.418,25.795 38.268,26.929 38.551,25.795 39.118,26.929 39.402,26.079 39.969,27.212 40.535,26.079 40.819,23.527 	"/>
	<polygon fill="#EA8080" points="36,28.063 37.418,27.779 38.835,27.496 40.819,28.063 40.535,29.197 38.268,30.614 	"/>
	<polygon fill="#F3CC99" points="50.457,64.347 44.504,69.731 39.402,83.339 35.717,98.362 38.835,100.347 44.787,100.63 
		51.874,96.378 60.095,93.544 66.614,81.071 66.614,73.417 64.631,70.866 60.095,70.3 53.291,70.583 	"/>
	<g>
		<polygon fill="#9C826C" points="15.874,64.347 13.606,67.748 13.606,70.3 16.158,79.087 17.858,91.56 20.126,95.244 
			22.961,88.724 21.543,90.425 22.394,87.591 23.528,84.756 21.26,86.74 22.677,83.905 20.693,85.323 21.543,83.339 20.126,83.905 
			20.977,82.204 19.56,82.487 20.977,79.937 22.11,78.235 20.126,78.235 20.977,77.103 19.276,76.819 19.843,75.401 18.709,75.118 
			19.276,73.417 17.008,74.835 17.575,72.851 18.425,71.149 16.158,72.567 16.725,70.583 15.591,71.433 15.591,69.731 
			17.008,66.614 15.307,67.464 16.441,65.764 15.307,66.331 		"/>
		<polygon fill="#9C826C" points="20.977,102.331 22.394,103.748 22.961,103.748 24.095,102.048 25.229,102.331 26.079,104.315 
			27.213,105.165 28.63,104.882 30.614,101.764 31.181,104.599 32.032,105.165 32.882,104.599 34.016,100.913 34.583,102.331 
			34.866,104.599 35.717,104.599 36.567,103.464 37.418,100.63 38.268,101.764 36.851,106.016 36,106.3 26.646,106.583 
			23.812,106.016 21.543,104.599 		"/>
		<polygon fill="#9C826C" points="60.095,70.3 62.079,70.583 64.631,72.567 66.898,75.968 66.614,80.788 63.779,85.606 
			58.11,93.544 50.174,96.661 48.473,99.212 44.787,100.63 47.055,99.212 47.622,97.512 47.622,95.527 46.771,93.827 43.938,92.126 
			43.938,90.992 45.639,90.142 46.771,89.008 47.906,89.008 47.339,87.874 48.473,88.157 47.622,86.74 49.039,87.023 48.189,86.173 
			50.174,86.173 49.606,86.74 50.174,87.591 49.323,87.591 49.891,89.008 48.473,88.724 49.323,89.858 47.622,90.142 47.622,90.992 
			49.606,92.126 50.74,93.544 51.874,91.843 52.158,93.544 53.575,90.992 53.858,92.409 54.992,90.142 54.992,91.56 56.41,89.008 
			56.977,90.142 57.827,88.157 58.395,89.008 58.961,87.308 59.812,85.89 62.079,83.905 64.063,81.071 64.914,78.52 64.631,74.835 
			63.496,72.851 61.512,71.149 		"/>
		<polygon fill="#9C826C" points="42.803,57.544 42.803,66.897 42.236,70.866 39.969,75.401 36.283,79.37 34.299,84.756 
			36.851,84.472 35.717,88.157 33.449,91.275 32.882,94.96 34.016,97.512 37.701,99.212 37.701,95.812 38.835,93.827 41.103,92.692 
			44.221,92.126 43.37,89.858 43.37,81.921 44.504,76.252 48.189,72.851 50.457,77.952 54.709,70.3 49.323,60.661 		"/>
		<polygon fill="#9C826C" points="22.11,35.433 25.512,39.685 26.929,43.37 30.614,45.921 35.434,46.771 39.402,49.04 42.52,57.827 
			43.087,53.575 39.969,39.118 34.299,41.386 28.347,37.984 		"/>
		<polygon fill="#9C826C" points="5.953,15.874 9.921,17.292 10.772,18.708 9.071,18.992 11.906,20.409 11.339,21.827 13.323,22.11 
			15.307,22.96 12.756,26.079 9.638,22.394 9.071,20.126 6.803,18.142 		"/>
		<polygon fill="#9C826C" points="20.126,9.071 18.992,9.071 18.709,7.086 16.725,6.236 15.307,4.252 13.606,4.252 11.055,5.669 
			8.504,6.803 7.938,8.22 8.788,10.488 10.772,12.472 8.221,12.189 10.205,14.74 11.622,16.724 11.622,19.275 14.173,18.992 
			15.307,19.559 15.591,15.874 18.992,14.173 21.543,11.622 21.543,10.488 19.276,11.905 		"/>
		<polygon fill="#9C826C" points="39.402,20.409 39.969,22.96 40.535,24.662 40.819,28.914 41.953,28.914 43.938,29.48 
			43.654,23.811 44.504,21.26 43.938,19.842 42.52,21.26 40.819,21.26 		"/>
		<polygon fill="#9C826C" points="29.764,11.905 28.914,14.457 30.614,15.874 31.465,17.008 31.748,15.023 		"/>
		<polygon fill="#9C826C" points="39.969,13.04 39.969,14.74 40.819,15.874 39.402,17.008 38.835,18.142 38.551,16.157 
			38.835,14.173 		"/>
		<polygon fill="#9C826C" points="27.78,37.701 29.48,36.283 29.764,37.417 30.614,36.85 30.614,37.701 31.748,37.417 
			32.032,38.268 32.882,37.984 32.882,38.834 33.732,38.834 35.15,39.401 36.283,39.118 37.701,38.551 39.686,37.134 39.402,39.118 
			35.717,40.819 29.48,40.252 		"/>
		<polygon fill="#9C826C" points="27.496,32.315 29.197,33.166 29.197,32.315 31.465,32.882 32.882,32.598 34.583,31.748 36,29.764 
			38.268,30.897 40.252,29.764 39.969,31.748 41.103,32.882 42.236,33.732 41.103,34.866 39.686,34.583 36,33.732 32.032,34.866 
			28.347,34.583 		"/>
		<polygon fill="#9C826C" points="41.67,8.788 43.087,9.354 44.504,9.071 43.37,8.22 45.354,8.22 44.221,7.37 45.639,7.37 
			45.071,6.236 46.205,6.52 46.205,5.386 46.771,5.669 48.189,5.953 47.339,4.252 48.756,5.386 49.323,4.536 49.606,5.953 
			49.891,5.669 50.174,7.37 50.174,8.788 49.323,9.921 49.891,10.488 49.323,11.905 48.473,13.323 47.622,14.457 46.488,15.59 
			45.071,18.708 44.221,19.275 43.654,16.441 42.52,13.89 41.387,11.622 40.819,9.354 		"/>
		<polygon fill="#9C826C" points="24.095,19.842 25.229,20.409 26.362,20.693 28.347,20.976 29.764,20.693 28.914,21.827 
			26.646,21.827 24.945,20.976 		"/>
		<polygon fill="#9C826C" points="24.378,60.095 22.394,62.079 21.543,65.196 23.244,63.212 22.11,67.181 23.244,65.764 
			22.11,68.882 22.961,68.315 22.394,71.716 23.812,70.3 23.812,75.118 24.662,71.433 25.512,76.252 25.512,72.283 26.929,76.252 
			26.362,72 26.929,70.016 26.079,70.866 26.362,68.315 25.229,71.149 25.229,67.748 24.378,70.3 24.662,66.331 23.528,68.882 
			24.662,64.913 23.244,64.913 25.512,61.512 23.812,62.079 		"/>
	</g>
	<g>
		<polygon fill="#FECC80" points="26.362,18.708 27.213,19.842 28.347,20.126 30.047,19.842 30.614,18.142 29.764,17.292 
			28.347,17.008 		"/>
		<polygon fill="#FECC80" points="40.819,17.575 40.252,18.708 40.252,20.126 41.387,20.409 42.52,20.126 43.654,17.575 
			42.236,17.008 		"/>
	</g>
	<g>
		<polygon fill="#9C826C" points="16.158,25.228 11.906,30.897 14.74,29.197 11.622,32.598 15.024,31.181 13.04,33.449 
			15.024,32.315 14.173,34.583 16.158,33.166 15.591,35.433 17.292,34.016 17.008,36.283 18.992,35.149 18.709,37.417 20.126,36 
			20.41,37.984 21.827,36.283 21.543,38.268 22.677,37.134 23.244,38.551 24.378,37.701 27.213,37.701 26.646,36 24.378,34.583 
			23.528,32.598 21.827,34.299 22.394,32.598 20.693,33.449 21.26,31.181 19.276,32.315 20.126,30.897 18.425,31.748 19.56,29.764 
			17.858,30.614 19.276,28.346 17.292,29.764 18.709,27.212 17.292,28.63 17.858,26.929 16.158,27.496 		"/>
		<polygon fill="#9C826C" points="23.528,21.827 21.543,21.827 18.992,22.677 21.26,22.96 18.425,24.378 21.543,24.094 
			18.425,25.512 21.543,25.228 19.276,26.646 21.827,26.362 19.843,27.496 22.677,27.212 20.41,28.914 22.677,28.346 21.543,30.047 
			24.095,28.63 26.079,28.063 24.662,27.212 26.362,26.646 24.378,26.079 25.795,25.795 24.095,25.228 26.362,24.662 28.063,24.662 
			29.764,25.795 30.331,23.527 28.914,22.677 26.079,22.11 		"/>
		<polygon fill="#9C826C" points="30.898,21.26 31.465,22.96 30.898,24.662 32.032,26.079 33.166,24.945 33.166,22.394 
			32.315,21.543 		"/>
		<polygon fill="#9C826C" points="34.583,35.716 36,35.149 37.984,35.433 38.551,36 37.984,36.283 36.851,35.716 35.15,36 		"/>
		<polygon fill="#9C826C" points="22.11,7.086 23.244,8.504 22.677,8.788 23.244,9.638 22.11,9.921 23.244,10.771 22.11,11.338 
			22.961,12.472 21.543,12.756 22.11,13.323 20.977,13.606 23.244,14.173 24.662,13.606 23.528,13.04 25.795,12.472 24.378,12.189 
			25.795,11.338 24.945,10.771 26.079,9.921 24.378,9.071 25.512,8.22 24.378,7.653 25.229,6.803 		"/>
		<polygon fill="#9C826C" points="23.244,4.252 26.079,5.102 22.394,5.386 25.512,6.52 22.961,6.52 26.646,7.37 26.362,6.803 
			28.63,7.937 28.63,6.803 30.331,8.788 30.614,7.37 31.465,10.771 32.032,9.071 32.599,12.189 33.166,10.488 33.732,14.74 
			34.299,12.472 35.15,15.874 35.717,12.756 36.567,16.157 36.851,13.323 37.984,15.874 37.701,11.905 38.835,13.04 37.701,9.921 
			38.835,10.771 37.701,8.504 35.717,5.102 38.268,6.803 37.418,4.819 39.118,5.953 38.268,4.252 40.252,4.536 37.418,2.551 
			32.882,1.134 26.646,1.134 22.11,2.551 26.079,2.834 22.677,3.401 25.512,3.968 		"/>
		<polygon fill="#9C826C" points="40.252,65.764 37.418,63.779 35.15,62.646 32.599,61.796 31.181,63.212 33.449,62.929 36,64.347 
			38.268,66.331 34.583,65.764 32.599,66.614 32.032,68.031 34.299,66.897 39.402,68.315 34.299,68.882 31.465,71.433 
			26.929,71.433 28.914,68.599 29.48,66.048 31.181,64.347 28.347,64.913 29.48,62.929 32.032,60.661 34.583,60.378 37.418,60.944 
			39.969,62.929 41.103,64.63 42.236,67.464 		"/>
		<polygon fill="#9C826C" points="32.599,70.866 35.434,69.731 38.835,70.016 40.535,72.567 37.984,71.716 35.434,71.433 		"/>
		<polygon fill="#9C826C" points="32.315,59.527 36.851,59.812 39.686,61.512 41.67,63.212 40.819,60.095 38.835,58.677 
			36.283,58.11 		"/>
		<polygon fill="#9C826C" points="28.914,73.983 30.614,72.567 33.166,72.283 37.135,72.567 32.882,73.134 30.898,74.552 		"/>
		<polygon fill="#9C826C" points="14.457,67.748 9.921,62.929 11.339,66.897 6.52,62.929 8.788,68.031 5.386,67.181 7.938,69.448 
			4.819,69.165 7.087,70.3 10.488,71.433 11.055,73.983 12.473,76.252 13.323,82.771 13.606,89.292 14.457,92.409 17.008,98.929 
			17.008,90.992 15.024,73.7 13.323,69.165 		"/>
		<polygon fill="#9C826C" points="0.567,102.614 2.551,103.464 3.969,103.181 5.103,100.063 5.669,102.614 7.37,103.181 
			8.788,100.63 9.921,102.614 11.055,102.614 11.906,100.63 13.323,102.331 15.024,101.479 16.725,100.63 15.307,104.031 
			1.984,105.165 		"/>
		<polygon fill="#9C826C" points="1.984,98.362 5.386,97.228 7.087,95.527 5.103,96.095 6.52,93.827 7.938,91.843 6.52,91.843 
			7.654,90.142 6.52,89.008 7.087,87.591 5.669,83.905 4.252,77.952 3.402,74.268 2.551,70.016 2.835,62.646 0.851,69.731 
			1.417,73.417 4.252,86.456 4.819,91.843 3.118,96.661 		"/>
		<polygon fill="#9C826C" points="3.118,63.496 4.252,64.913 7.087,66.331 5.103,63.779 		"/>
		<polygon fill="#9C826C" points="3.686,60.095 5.386,60.944 9.071,63.779 6.52,60.095 4.536,58.394 4.252,53.292 6.803,41.386 
			8.788,33.732 6.803,38.268 3.969,47.622 2.268,53.008 		"/>
		<polygon fill="#9C826C" points="57.26,71.433 55.275,72.567 56.41,73.134 54.709,73.983 55.843,73.983 53.858,75.401 
			55.559,75.401 54.143,76.819 53.291,79.37 56.693,76.536 54.992,76.536 56.977,74.835 55.843,74.552 57.827,73.7 56.693,72.567 
			57.827,72 		"/>
	</g>
	<g>
		<polygon fill="#845534" points="42.803,59.812 46.771,59.527 50.74,63.212 53.575,69.165 53.008,73.7 50.74,77.386 49.891,73.983 
			50.174,69.448 48.473,65.479 46.205,64.63 46.771,70.583 44.504,74.268 41.387,83.905 41.103,90.425 37.701,91.843 40.535,80.22 
			43.654,73.134 43.37,67.464 		"/>
		<polygon fill="#845534" points="25.795,36.85 26.929,40.536 27.496,43.086 29.48,41.386 30.331,43.37 30.898,41.953 31.465,44.22 
			32.599,42.52 33.449,44.504 34.016,42.803 35.434,45.071 35.717,43.37 37.701,45.921 37.418,43.086 38.835,45.638 38.835,42.52 
			40.252,45.638 41.67,52.157 43.087,53.858 41.953,46.771 39.969,39.968 35.15,40.536 29.764,39.968 		"/>
	</g>
	<g>
		<polygon fill="#9C826C" points="8.788,15.59 6.52,14.173 7.37,13.89 5.669,11.905 6.52,11.338 5.953,9.638 6.236,7.653 
			7.087,5.953 6.803,8.504 8.504,11.622 7.37,11.055 8.504,13.606 7.37,13.04 		"/>
		<polygon fill="#9C826C" points="41.67,5.386 42.236,7.37 43.938,5.386 45.639,3.968 47.339,3.401 49.606,3.685 49.039,2.551 
			45.639,1.984 		"/>
		<polygon fill="#9C826C" points="51.307,10.488 49.606,13.89 47.906,15.59 48.473,17.858 46.771,18.708 46.771,20.693 
			45.354,20.976 45.922,25.228 48.473,19.559 51.023,13.89 		"/>
		<polygon fill="#9C826C" points="37.418,97.512 39.402,98.079 39.969,97.512 40.252,96.095 41.67,96.378 40.535,100.063 
			37.701,98.646 		"/>
		<polygon fill="#9C826C" points="41.387,100.063 42.803,99.212 43.938,98.079 44.504,96.661 45.354,98.362 42.803,100.347 
			41.67,100.63 		"/>
		<polygon fill="#9C826C" points="28.063,74.835 28.347,79.087 26.646,85.89 24.378,90.708 22.11,93.544 20.41,97.512 20.693,93.26 
			25.795,81.921 		"/>
		<polygon fill="#9C826C" points="5.669,97.796 9.071,96.378 12.756,95.812 15.307,97.228 12.756,98.646 11.906,99.496 
			10.772,98.646 8.788,99.496 8.221,100.347 6.52,98.646 5.386,99.496 4.252,98.362 		"/>
		<polygon fill="#9C826C" points="22.11,96.944 24.378,96.944 26.079,98.362 24.945,100.913 23.812,99.212 		"/>
		<polygon fill="#9C826C" points="26.362,97.796 29.48,96.944 33.166,97.228 35.15,99.779 34.299,100.63 32.882,98.929 
			31.748,98.929 30.614,100.063 28.914,98.929 		"/>
	</g>
	<g>
		<polygon fill="#010101" points="29.764,2.834 31.465,4.536 32.032,6.236 32.032,7.653 33.732,9.071 32.882,5.953 31.748,3.968 		
			"/>
		<polygon fill="#010101" points="34.583,7.086 35.434,9.071 36,11.622 36.283,9.071 35.434,7.653 		"/>
		<polygon fill="#010101" points="32.599,3.118 34.583,4.819 34.583,3.685 32.032,2.268 		"/>
	</g>
	<g>
		<polygon fill="#FEE4B2" points="32.882,48.189 30.331,51.023 27.78,54.142 27.78,51.307 25.512,55.843 25.229,53.008 
			23.812,58.11 24.945,57.827 24.662,60.378 26.929,57.827 26.362,61.512 25.795,64.63 27.78,60.661 27.496,63.496 29.48,60.095 
			31.748,58.677 29.48,58.394 32.032,56.692 35.717,56.126 39.402,58.11 37.418,55.56 40.252,56.976 37.984,53.858 40.252,54.708 
			37.984,52.441 39.686,51.874 36.851,50.74 38.551,49.606 35.717,49.606 35.434,47.905 32.882,50.457 		"/>
		<polygon fill="#FEE4B2" points="20.977,61.796 18.992,64.63 18.992,62.079 16.725,66.048 17.858,65.479 17.008,69.731 
			19.843,65.196 18.425,70.016 20.126,68.315 18.992,72 20.693,70.3 19.56,73.7 20.693,72.851 20.126,75.118 21.543,73.7 
			20.41,76.252 22.11,75.968 21.543,77.386 23.244,77.103 22.11,81.638 24.378,78.52 24.378,81.354 26.079,77.103 24.945,77.386 
			24.662,74.268 23.244,75.968 23.244,72.567 21.827,72.283 22.11,69.448 20.693,69.165 21.827,65.479 20.41,66.331 		"/>
		<polygon fill="#FEE4B2" points="37.701,64.63 41.67,68.031 41.953,70.3 41.103,71.433 39.118,69.448 36.567,69.165 40.252,68.882 
			39.118,67.748 36.283,66.614 38.835,66.897 		"/>
		<polygon fill="#FEE4B2" points="37.701,73.417 35.434,73.417 32.882,73.983 31.465,75.118 35.434,74.552 		"/>
		<polygon fill="#FEE4B2" points="34.299,76.252 30.898,76.819 29.197,78.52 28.063,85.89 26.079,89.008 24.095,92.126 
			23.528,94.394 25.229,95.812 27.496,96.095 26.646,94.677 28.63,94.677 27.213,93.26 29.197,92.976 27.496,92.126 30.614,91.56 
			28.063,90.708 30.898,90.425 28.347,89.575 31.181,89.292 29.764,88.44 31.181,87.874 30.331,87.308 32.032,86.74 29.764,86.173 
			32.315,85.323 29.764,84.756 32.599,83.905 30.331,83.056 32.599,82.771 30.614,82.487 33.166,81.921 30.898,81.354 
			33.166,80.504 30.898,80.504 33.449,79.653 31.748,79.087 33.449,78.52 32.315,78.235 33.732,77.669 32.599,77.103 		"/>
		<polygon fill="#FEE4B2" points="22.394,102.614 20.977,101.196 20.977,99.496 21.543,97.796 22.677,98.929 23.528,100.347 
			23.244,101.479 		"/>
		<polygon fill="#FEE4B2" points="25.795,102.331 26.362,100.347 27.496,99.496 29.197,100.063 29.764,101.479 29.197,103.181 
			28.063,104.599 26.646,103.748 		"/>
		<polygon fill="#FEE4B2" points="31.181,100.063 32.315,99.496 33.449,100.63 33.166,102.331 32.032,104.031 31.465,102.048 		"/>
		<polygon fill="#FEE4B2" points="35.717,99.779 34.866,100.913 35.15,103.464 35.717,104.031 36.567,101.764 36.567,100.63 		"/>
		<polygon fill="#FEE4B2" points="8.504,43.086 6.803,46.488 5.669,51.023 6.52,54.425 8.221,58.394 10.488,61.228 11.622,58.96 
			11.622,62.646 13.04,60.095 13.04,63.779 14.74,60.661 14.74,63.779 17.292,60.661 16.725,63.212 19.276,59.812 20.693,61.512 
			19.843,58.11 21.827,59.527 19.56,56.126 21.827,56.692 19.843,54.425 22.11,55.275 19.276,52.441 21.543,51.023 18.142,51.023 
			16.441,49.04 16.441,51.874 15.024,49.606 14.173,52.157 13.04,47.905 12.473,51.023 11.055,46.771 10.205,48.189 10.205,45.354 
			8.504,46.488 		"/>
		<polygon fill="#FEE4B2" points="12.473,36.283 11.622,38.268 12.756,37.984 12.189,41.953 13.606,39.685 13.606,43.937 
			15.024,41.953 14.74,45.921 17.008,43.653 17.292,47.338 18.142,46.205 18.709,49.04 19.843,46.771 20.977,49.323 21.827,47.055 
			22.677,51.307 24.095,48.189 25.512,51.023 26.362,48.756 27.78,50.74 28.063,48.472 29.48,49.04 29.764,47.338 32.315,47.055 
			28.914,45.638 26.929,43.937 26.646,46.488 25.512,43.086 24.662,45.354 23.244,41.669 21.26,44.504 20.41,41.386 19.276,43.37 
			18.992,39.968 17.575,41.386 17.575,38.551 16.441,40.536 15.874,37.134 14.74,39.685 14.74,35.716 13.89,37.417 13.323,34.866 		
			"/>
		<polygon fill="#FEE4B2" points="3.686,60.661 5.386,61.512 10.205,64.913 6.236,62.646 4.536,62.362 6.236,63.779 3.402,62.929 
			3.686,61.796 4.536,61.796 		"/>
		<polygon fill="#FEE4B2" points="2.835,64.913 3.969,66.331 7.087,67.181 7.654,66.614 5.386,65.764 		"/>
		<polygon fill="#FEE4B2" points="2.551,68.882 3.969,68.031 7.087,68.882 3.686,68.882 		"/>
		<polygon fill="#FEE4B2" points="9.354,71.716 7.37,71.149 5.103,71.433 7.087,72 5.103,72.567 7.654,73.134 5.103,73.983 
			7.654,74.552 5.386,75.118 8.221,75.968 5.953,76.536 8.221,77.669 5.953,78.235 8.504,79.087 6.236,79.653 8.788,80.788 
			6.803,81.071 9.071,82.204 6.52,82.487 9.638,83.905 7.37,84.188 10.488,85.323 9.071,85.89 11.055,87.023 9.354,87.023 
			11.055,88.44 9.638,88.44 11.339,89.575 9.638,89.292 11.339,90.425 9.638,90.425 11.622,91.843 9.354,91.843 11.339,92.976 
			9.354,93.544 11.055,93.827 9.354,94.96 11.906,94.96 15.307,96.095 13.89,94.96 14.74,94.394 13.323,92.976 14.173,92.976 
			12.756,91.56 13.89,91.56 12.756,90.425 13.606,90.425 12.756,89.008 13.04,86.173 12.756,80.504 12.189,77.103 10.205,73.417 		
			"/>
		<polygon fill="#FEE4B2" points="1.984,100.913 2.551,98.929 3.969,98.929 4.819,101.196 3.118,102.614 		"/>
		<polygon fill="#FEE4B2" points="12.473,99.779 13.89,98.929 14.74,100.063 13.89,101.764 		"/>
		<polygon fill="#FEE4B2" points="9.071,100.63 10.488,99.496 11.339,100.913 10.205,101.764 		"/>
		<polygon fill="#FEE4B2" points="39.402,94.11 41.103,92.976 43.654,92.976 44.787,94.11 43.654,96.095 43.087,98.079 
			41.103,98.646 42.236,95.812 41.67,94.677 39.969,95.527 39.402,97.228 38.551,96.378 38.551,95.527 		"/>
		<polygon fill="#FEE4B2" points="58.961,72.851 60.945,72.851 60.095,71.716 62.362,72.851 63.496,73.983 63.779,77.103 
			63.496,79.653 62.362,82.204 58.961,84.472 58.395,86.74 57.543,85.606 56.41,88.724 55.843,87.023 55.275,89.575 54.709,88.157 
			53.858,90.708 53.858,89.008 52.441,91.56 51.591,89.575 51.023,91.56 48.756,90.425 50.457,90.142 49.891,88.157 52.725,87.874 
			51.023,86.456 53.291,86.456 52.158,85.323 54.143,85.04 52.725,84.188 55.275,82.771 53.008,81.638 55.843,81.071 54.426,80.504 
			56.977,79.653 54.992,78.804 57.543,77.952 56.126,77.386 58.678,76.252 56.693,75.685 59.244,74.552 57.827,74.552 60.095,73.7 
					"/>
		<polygon fill="#FEE4B2" points="30.047,35.149 30.047,36.567 30.898,36.85 31.465,37.417 32.599,36.85 32.599,37.701 
			33.732,37.134 33.449,38.268 34.866,38.268 36.283,38.268 37.701,37.417 38.551,36.283 38.551,35.433 37.418,34.583 
			33.449,35.716 31.748,35.716 30.047,35.149 30.047,35.149 		"/>
		<polygon fill="#FEE4B2" points="30.331,31.748 28.63,30.614 27.78,28.346 29.764,26.929 31.465,27.212 33.732,28.346 
			34.299,30.047 33.449,31.181 32.032,32.031 		"/>
		<polygon fill="#FEE4B2" points="41.953,29.48 41.103,30.614 41.387,32.315 42.52,32.882 43.087,30.897 42.803,29.764 		"/>
		<polygon fill="#FEE4B2" points="22.677,15.023 19.843,14.173 21.26,15.874 17.858,15.59 20.41,16.724 16.158,16.724 
			18.992,18.142 16.158,18.425 17.575,18.992 15.307,19.559 17.292,20.126 15.307,21.26 17.858,21.543 15.024,23.527 17.008,23.244 
			15.874,24.945 19.56,23.244 17.858,22.677 21.26,20.976 19.843,20.693 21.827,19.842 20.41,19.559 22.11,18.992 20.41,18.142 
			22.961,18.425 22.11,17.575 23.244,17.292 22.677,16.441 24.378,17.008 		"/>
		<polygon fill="#FEE4B2" points="24.662,15.307 25.795,14.173 27.213,13.606 28.914,15.307 27.78,15.307 26.079,16.441 		"/>
		<polygon fill="#FEE4B2" points="24.095,18.708 25.229,20.126 27.78,20.976 30.047,20.409 27.213,20.126 25.795,19.275 		"/>
		<polygon fill="#FEE4B2" points="32.599,15.59 32.315,17.575 31.465,17.575 32.599,20.693 34.583,22.394 34.583,20.409 
			35.717,21.827 35.717,20.409 37.135,21.543 36.851,19.842 37.701,21.26 37.135,18.708 35.717,16.724 33.732,15.59 		"/>
		<polygon fill="#FEE4B2" points="41.103,13.04 40.535,14.457 41.67,16.157 42.803,16.157 42.52,15.023 		"/>
		<polygon fill="#FEE4B2" points="7.37,5.669 9.638,3.685 12.189,2.268 14.74,2.268 16.725,3.968 13.323,3.685 9.071,5.669 		"/>
		<polygon fill="#FEE4B2" points="45.354,4.819 43.087,6.803 42.236,9.071 43.654,8.788 43.087,7.937 44.504,7.937 43.938,6.803 
			44.787,7.086 44.504,5.953 45.639,5.953 		"/>
	</g>
	<g>
		<polygon fill="#010101" points="27.78,32.598 29.764,34.016 30.898,34.016 29.764,32.598 32.032,33.449 34.299,33.449 
			36.851,31.181 36.283,30.047 34.866,28.63 34.866,27.496 36.283,28.063 37.418,29.48 38.268,30.331 40.252,29.197 40.252,28.063 
			41.103,28.063 41.103,25.228 41.953,28.063 41.103,29.197 38.551,31.181 38.268,32.315 40.535,34.583 41.953,33.449 42.52,34.016 
			40.252,35.716 37.701,34.016 34.299,34.866 31.748,35.149 29.197,34.866 28.347,36 27.213,34.583 		"/>
		<polygon fill="#010101" points="41.387,32.882 43.087,32.882 43.087,32.031 42.236,32.031 		"/>
		<polygon fill="#010101" points="41.953,31.181 43.654,30.897 43.654,30.331 42.236,30.331 		"/>
		<polygon fill="#010101" points="30.047,31.181 30.614,32.031 32.315,32.315 33.449,31.748 		"/>
		<polygon fill="#010101" points="30.614,30.047 31.465,30.614 32.882,30.614 33.732,30.047 		"/>
		<polygon fill="#010101" points="30.047,28.914 30.898,29.197 33.166,29.48 32.599,28.914 		"/>
		<polygon fill="#010101" points="14.173,6.52 11.622,6.803 9.638,8.788 11.055,11.622 13.89,15.874 10.205,13.89 13.323,18.708 
			15.591,18.992 15.307,16.157 17.292,15.59 20.977,12.472 17.008,14.173 18.992,11.338 16.158,13.04 17.292,10.771 15.307,12.189 
			17.008,9.638 16.725,7.653 13.606,10.205 14.74,7.937 13.323,8.504 		"/>
		<polygon fill="#010101" points="41.67,9.071 43.087,11.055 43.938,13.323 45.639,14.457 44.504,12.756 46.488,12.756 
			44.787,11.622 47.622,11.905 45.071,10.771 46.488,9.921 47.906,9.921 46.488,8.788 47.906,9.071 46.771,7.37 48.189,7.937 
			48.189,6.52 49.039,7.653 49.606,7.086 49.891,8.504 49.039,9.638 49.606,10.488 48.756,11.338 48.756,12.472 47.622,13.323 
			48.189,15.023 45.922,15.59 44.787,17.292 43.938,15.874 43.37,13.606 42.236,12.472 		"/>
		<polygon fill="#010101" points="43.938,19.559 45.071,22.11 44.504,25.795 44.504,28.346 43.938,30.047 42.52,28.063 
			42.236,25.795 43.654,28.063 43.087,25.228 42.803,22.96 43.938,21.827 		"/>
		<polygon fill="#010101" points="31.748,21.543 32.599,22.394 32.315,25.228 31.748,24.094 32.032,22.677 		"/>
		<polygon fill="#010101" points="22.11,7.37 18.142,4.252 16.441,2.551 13.323,1.984 10.205,2.268 7.938,3.968 5.953,6.803 
			5.103,11.055 5.669,13.89 6.52,16.724 9.354,17.858 7.938,18.708 10.488,20.409 10.205,22.394 12.189,24.094 13.606,24.945 
			12.189,27.779 11.339,27.212 11.055,24.945 8.788,22.11 8.504,19.842 6.236,19.559 4.819,16.724 3.969,12.472 4.536,7.37 
			6.52,4.252 9.354,1.984 12.756,1.134 15.307,1.134 18.425,2.834 		"/>
		<polygon fill="#010101" points="18.992,4.536 21.543,1.984 24.662,0.85 28.63,0 33.449,0.283 38.268,1.701 42.236,5.102 
			42.236,6.803 40.819,4.819 37.418,2.834 34.299,1.984 29.764,1.417 25.229,1.701 21.543,3.401 19.843,5.102 		"/>
		<polygon fill="#010101" points="15.874,27.212 13.606,29.48 15.874,28.63 13.323,31.181 15.874,30.614 14.74,32.031 
			16.158,31.464 14.74,33.732 17.575,32.031 16.441,34.299 18.425,33.166 17.858,34.866 19.56,33.732 19.276,35.433 20.977,34.866 
			20.977,36 22.394,35.716 23.528,36.85 26.646,37.701 26.362,36 24.095,35.433 22.961,34.016 21.543,35.149 21.26,33.732 
			20.126,34.583 20.126,32.598 18.709,33.732 18.709,32.598 17.575,32.598 18.142,31.181 17.008,31.464 17.008,30.614 
			16.158,30.897 17.292,29.197 16.158,29.764 17.008,28.063 15.591,28.346 		"/>
		<polygon fill="#010101" points="28.63,36.85 29.197,38.551 30.047,37.417 30.047,38.834 31.748,37.984 31.465,39.685 
			32.599,38.834 32.315,39.968 33.732,39.685 35.434,40.536 37.135,39.685 38.268,38.551 39.686,37.417 39.686,36 40.535,37.701 
			41.103,41.669 42.52,47.905 42.236,51.59 41.103,46.205 39.969,41.953 38.551,41.102 37.418,42.236 37.135,41.669 35.717,42.52 
			35.434,41.953 34.299,42.52 33.166,41.386 31.465,42.52 31.181,41.386 29.764,41.669 29.48,40.536 27.78,41.953 27.213,38.551 
			26.646,36.85 26.646,36.283 27.78,36.85 		"/>
		<polygon fill="#010101" points="11.622,26.079 9.071,30.614 6.52,36.85 3.402,45.638 1.701,53.292 1.984,60.944 1.417,66.331 
			0.851,69.448 2.551,64.63 3.402,59.244 3.402,51.874 5.103,44.788 7.37,37.417 9.921,30.614 12.189,27.496 		"/>
		<polygon fill="#010101" points="9.071,69.165 11.622,70.3 14.173,72.283 14.74,75.118 15.024,83.056 15.024,90.992 16.725,98.646 
			15.307,102.331 14.457,102.897 12.473,103.181 11.906,101.479 11.339,104.882 15.307,104.882 16.725,103.181 17.575,99.496 
			20.126,99.212 21.26,94.394 20.693,92.976 18.709,89.575 19.276,85.04 18.142,82.771 18.992,81.071 17.858,80.504 17.858,78.52 
			16.725,77.386 16.441,75.118 15.874,73.7 14.173,69.448 11.906,66.048 12.473,69.165 9.071,66.331 9.921,68.599 		"/>
		<polygon fill="#010101" points="37.984,91.275 41.387,90.142 45.071,90.708 49.039,92.126 50.74,94.96 50.74,98.362 
			48.756,100.063 44.787,100.63 48.189,98.646 49.323,96.661 48.189,93.827 46.205,92.409 43.087,91.843 37.984,92.692 		"/>
		<polygon fill="#010101" points="49.039,95.527 51.874,94.11 52.158,95.244 54.143,92.692 54.992,93.544 56.41,90.992 57.26,91.56 
			58.395,89.575 59.244,90.142 60.379,87.023 62.646,85.323 64.631,83.339 65.764,81.354 66.331,78.52 66.047,75.685 65.197,73.7 
			63.779,72 62.079,71.149 58.961,70.866 56.126,70.866 59.527,70.016 63.213,70.3 65.764,72.283 67.182,74.552 67.465,77.952 
			67.465,81.921 65.764,85.89 62.646,90.992 61.795,94.394 60.095,96.378 56.693,98.362 50.457,98.079 		"/>
		<polygon fill="#010101" points="46.771,83.339 44.787,84.756 44.221,87.308 44.221,90.992 45.922,91.275 45.071,89.575 
			45.922,86.74 45.922,85.606 		"/>
		<polygon fill="#010101" points="28.063,70.866 29.764,68.599 30.331,65.764 32.599,64.063 34.299,64.063 37.135,66.048 
			34.583,65.479 32.032,66.048 30.898,69.165 34.299,67.181 37.701,68.315 34.299,68.315 31.181,70.583 		"/>
		<polygon fill="#010101" points="33.166,70.866 35.15,69.448 37.984,70.016 38.551,71.149 35.717,70.866 		"/>
		<polygon fill="#010101" points="33.166,61.228 37.418,62.929 40.819,65.479 39.686,63.212 37.418,61.512 33.166,61.228 
			33.166,61.228 		"/>
		<polygon fill="#010101" points="34.583,59.527 37.984,60.095 40.535,62.079 39.969,59.812 37.418,58.96 		"/>
		<polygon fill="#010101" points="19.56,99.212 19.843,102.331 21.543,105.165 24.378,106.583 27.496,106.866 30.614,106.866 
			34.016,106.3 36.283,106.583 37.418,105.165 38.268,101.764 37.701,100.913 37.418,103.181 36,105.731 34.299,105.448 
			34.299,102.048 33.732,103.464 33.166,105.448 31.181,106.016 31.181,102.048 30.331,100.63 30.047,104.599 29.48,105.731 
			27.496,106.016 25.512,105.731 25.512,103.748 24.378,102.048 23.528,102.614 24.378,104.031 24.095,105.165 22.11,104.315 
			20.693,102.048 20.126,98.929 		"/>
		<polygon fill="#010101" points="28.347,101.479 27.213,102.331 28.063,104.031 28.914,102.614 		"/>
		<polygon fill="#010101" points="32.599,101.479 31.748,102.331 32.315,104.031 33.166,102.614 		"/>
		<polygon fill="#010101" points="36,102.048 35.434,102.614 35.717,104.031 36.283,102.897 		"/>
		<polygon fill="#010101" points="1.417,71.716 1.984,77.669 3.118,85.606 4.252,90.142 3.686,94.11 1.701,98.079 0.567,99.496 
			0,102.331 1.417,104.882 3.402,105.448 7.087,104.882 10.772,104.882 12.473,104.031 11.906,103.464 10.205,103.748 
			8.788,104.031 8.504,101.479 7.654,103.748 5.669,104.315 4.536,101.764 4.252,103.748 2.835,104.031 0.851,103.181 
			0.851,101.196 1.701,99.212 3.118,98.079 4.819,93.26 5.386,89.008 3.402,81.921 2.551,77.103 		"/>
		<polygon fill="#010101" points="2.835,100.913 1.984,102.048 2.835,103.181 3.118,102.048 		"/>
		<polygon fill="#010101" points="7.087,100.63 6.236,101.479 6.803,103.181 7.654,101.479 		"/>
		<polygon fill="#010101" points="10.488,100.63 9.638,101.764 10.205,102.897 10.772,101.764 		"/>
		<polygon fill="#010101" points="13.89,100.347 13.04,101.196 13.323,102.614 14.173,101.479 		"/>
		<polygon fill="#010101" points="36.851,28.063 37.418,28.346 38.268,28.063 39.402,28.346 40.535,28.63 40.252,28.063 
			38.835,27.779 37.701,27.779 		"/>
		<polygon fill="#010101" points="30.047,13.04 29.764,14.173 30.614,15.307 30.898,14.173 		"/>
		<polygon fill="#010101" points="39.402,14.173 39.402,15.307 39.686,16.441 40.252,15.874 39.969,15.307 		"/>
		<polygon fill="#010101" points="7.087,98.362 8.221,98.929 8.504,100.063 9.354,98.646 10.488,98.079 11.906,98.929 
			12.756,97.796 13.89,97.228 12.473,96.661 10.205,97.228 		"/>
		<polygon fill="#010101" points="27.78,97.796 29.764,98.929 30.331,99.779 30.898,98.362 32.599,98.362 34.016,99.496 
			33.449,98.362 32.032,97.512 29.48,97.512 		"/>
		<polygon fill="#010101" points="23.528,98.079 24.662,99.212 24.662,100.63 25.229,98.929 24.662,98.079 		"/>
		<polygon fill="#010101" points="43.938,29.764 46.205,29.764 48.189,29.764 52.725,30.047 49.606,30.331 43.938,30.331 		"/>
		<polygon fill="#010101" points="43.37,31.748 45.922,31.464 49.606,31.181 54.426,31.748 49.039,31.748 43.654,32.031 		"/>
		<polygon fill="#010101" points="43.087,32.882 46.488,33.449 51.023,34.299 55.843,36 47.906,34.299 42.803,33.449 		"/>
		<polygon fill="#010101" points="19.276,30.331 24.662,29.48 30.331,29.48 30.047,30.047 24.945,30.047 		"/>
		<polygon fill="#010101" points="29.764,30.897 26.929,31.181 22.394,31.748 20.126,32.315 24.095,32.031 28.914,31.464 		"/>
		<polygon fill="#010101" points="30.614,28.063 27.78,27.496 24.662,27.496 22.11,27.496 26.362,27.779 29.764,28.346 		"/>
		<polygon fill="#010101" points="24.095,17.292 25.795,17.292 27.496,16.441 29.48,16.441 30.614,17.008 31.465,18.992 
			31.748,20.693 31.181,20.409 30.614,19.559 29.197,20.126 30.047,18.992 29.764,17.858 29.197,17.575 29.197,18.425 
			28.914,19.275 28.063,19.275 27.496,18.142 26.646,18.425 27.496,19.842 24.945,18.425 23.812,18.142 		"/>
		<polygon fill="#010101" points="39.686,20.409 39.969,18.142 40.819,16.724 42.52,16.724 44.221,17.008 43.37,19.275 
			42.52,20.126 43.087,17.858 42.52,17.858 42.803,18.708 42.236,19.559 41.387,19.559 40.819,18.142 40.535,19.275 40.535,20.409 
					"/>
		<polygon fill="#010101" points="41.387,5.102 44.221,2.551 46.205,1.984 48.756,1.984 50.457,3.401 51.591,4.536 52.158,8.504 
			51.591,11.338 51.591,14.173 50.174,15.874 49.891,18.425 48.473,20.976 46.771,24.945 44.504,29.197 45.354,25.512 
			46.488,23.527 47.622,21.543 47.339,20.126 49.039,18.142 48.756,17.008 49.606,16.157 49.323,15.023 50.174,14.457 
			51.023,12.472 51.307,7.653 50.74,5.386 49.039,3.118 47.055,2.551 45.071,3.118 43.37,4.536 41.953,5.953 		"/>
		<polygon fill="#010101" points="42.52,52.441 41.953,59.244 42.52,65.479 43.37,69.448 41.953,75.118 38.268,79.653 
			35.434,84.188 38.551,82.204 37.135,88.157 34.583,92.409 34.583,97.228 36.567,99.212 37.701,101.196 37.701,103.464 
			38.835,101.196 41.953,100.347 39.686,98.646 37.135,97.796 36.567,95.812 37.418,93.544 39.686,92.409 38.835,90.708 
			39.686,85.606 43.654,74.552 44.504,68.599 43.938,62.646 45.639,61.796 49.606,64.347 52.725,69.448 52.441,73.134 
			49.891,77.386 50.457,80.788 52.441,77.952 53.291,73.417 55.559,71.149 53.575,66.331 49.323,59.812 		"/>
		<polygon fill="#010101" points="41.67,95.244 40.252,96.095 40.535,97.228 39.969,99.779 41.67,96.661 		"/>
		<polygon fill="#010101" points="44.504,96.378 44.221,98.362 42.52,100.347 44.504,99.496 46.205,97.512 45.922,96.378 		"/>
		<polygon fill="#010101" points="28.063,74.552 27.213,79.937 26.079,84.188 20.693,95.527 20.693,93.827 24.662,84.472 		"/>
	</g>
</g>
</svg>
