<?xml version="1.0" encoding="utf-8"?>
<!-- Generator: Adobe Illustrator 12.0.0, SVG Export Plug-In . SVG Version: 6.00 Build 51448)  -->
<!DOCTYPE svg PUBLIC "-//W3C//DTD SVG 1.1//EN" "http://www.w3.org/Graphics/SVG/1.1/DTD/svg11.dtd" [
	<!ENTITY ns_svg "http://www.w3.org/2000/svg">
	<!ENTITY ns_xlink "http://www.w3.org/1999/xlink">
]>
<svg  version="1.1" id="Ebene_1" xmlns="&ns_svg;" xmlns:xlink="&ns_xlink;" width="494.446" height="510.555"
	 viewBox="0 0 494.446 510.555" overflow="visible" enable-background="new 0 0 494.446 510.555" xml:space="preserve">
<g>
	<path fill="#FFFFFF" stroke="#010101" stroke-width="0.172" d="M61.694,228.713c0,0,0.101,1.894-0.723,1.875
		c-0.824-0.019-17.278-48.094-37.807-45.851C23.165,184.737,40.948,177.384,61.694,228.713z"/>
</g>
<g>
	<path fill="#FFFFFF" stroke="#010101" stroke-width="0.172" d="M65.224,225.69c0,0-0.549,1.816-1.318,1.517
		c-0.768-0.298,0.115-51.104-19.951-55.978C43.955,171.229,63.178,170.365,65.224,225.69z"/>
</g>
<g>
	<path fill="#FFFFFF" stroke="#010101" stroke-width="0.172" d="M92.713,268.018c0,0,1.637,0.96,1.166,1.637
		c-0.471,0.678-49.645-12.125-59.1,6.232C34.78,275.887,38.458,257,92.713,268.018z"/>
</g>
<g>
	<path fill="#FFFFFF" stroke="#010101" stroke-width="0.172" d="M89.905,278.229c0,0,1.856,0.396,1.622,1.188
		c-0.233,0.791-50.937,4.133-54.126,24.533C37.401,303.95,34.943,284.866,89.905,278.229z"/>
</g>
<g>
	<path fill="#FFFFFF" stroke="#010101" stroke-width="0.172" d="M85.694,272.704c0,0,1.778,0.664,1.432,1.412
		c-0.346,0.748-50.994-3.342-57.126,16.377C30,290.493,30.352,271.253,85.694,272.704z"/>
</g>
<g>
	<path fill="#FFFFFF" stroke="#010101" stroke-width="0.172" d="M74.989,254.5c0,0,1.308,1.373,0.669,1.895
		s-44.382-25.333-58.529-10.291C17.128,246.104,25.87,228.961,74.989,254.5z"/>
</g>
<g>
	<path fill="#FFFFFF" stroke="#010101" stroke-width="0.172" d="M67.444,258.692c0,0,1.456,1.217,0.88,1.807
		c-0.576,0.591-46.964-20.148-59.318-3.602C9.005,256.897,15.75,238.875,67.444,258.692z"/>
</g>
<g>
	<path fill="#FFFFFF" stroke="#010101" stroke-width="0.172" d="M64.844,262.763c0,0,1.607,1.008,1.117,1.671
		c-0.489,0.663-49.271-13.561-59.255,4.516C6.707,268.95,10.932,250.177,64.844,262.763z"/>
</g>
<g>
	<path fill="#FFFFFF" stroke="#010101" stroke-width="0.172" d="M75.578,263.377c0,0,1.122,1.531,0.421,1.966
		s-40.77-30.813-56.728-17.708C19.271,247.635,30.136,231.754,75.578,263.377z"/>
</g>
<g>
	<path fill="#FFFFFF" stroke="#010101" stroke-width="0.172" d="M55.797,234.428c0,0,0.601,1.8-0.199,2
		c-0.801,0.2-29.4-41.8-48.602-34.2C6.997,202.228,22.198,190.428,55.797,234.428z"/>
</g>
<g>
	<path fill="#FFFFFF" stroke="#010101" stroke-width="0.172" d="M56.493,241.407c0,0,0.976,1.629,0.236,1.996
		c-0.738,0.368-37.724-34.476-54.832-22.914C1.897,220.489,14.194,205.689,56.493,241.407z"/>
</g>
<g>
	<path fill="#FFFFFF" stroke="#010101" stroke-width="0.172" d="M56.377,245.778c0,0,1.122,1.53,0.421,1.965
		c-0.7,0.435-40.77-30.813-56.728-17.708C0.071,230.035,10.936,214.154,56.377,245.778z"/>
</g>
<g>
	<path fill="#FFFFFF" stroke="#010101" d="M54.167,247.493c0.503,6.049,1.491,12.617,3.23,15.736c0,0-3.601,12.4,5.2,25.6
		c0,0-0.4,7.201,1.199,10.4c0,0,4,8.4,8.801,9.2c3.884,0.647,12.606,3.716,22.468,5.12c0,0,17.132,14.08,13.932,26.88
		c0,0-0.399,16.399-4,18c0,0,11.601-11.2,2,5.601l-4.399,18.799c0,0,25.6-21.6,10-3.199l-10,26c0,0,19.6-18.4,12.399-10l-3.2,8.8
		c0,0,43.2-27.2,12.4,2.399c0,0,8-3.6,12.4-0.799c0,0,6.8-1.201,6,0.399c0,0-20.801,10.399-24.4,28.8c0,0,8.4-10,5.2,0.801
		l0.399,11.6c0,0,4-21.6,3.601,16c0,0,19.2-18,7.6,2.8v16.8c0,0,15.2-16.4,8.8-3.6c0,0,10-8.801,6,6.4c0,0-0.8,10.399,3.601-0.801
		c0,0,16-30.6,10-4.4c0,0-0.8,19.201,4,4.4c0,0,0.399,10.4,9.6,17.6c0,0-1.2-50.799,11.601-14.799l4,16.399
		c0,0,2.8-9.2,2.399-14.399c0,0,14.8-16.4,8,8c0,0,15.2-22.801,12-9.601c0,0-7.6,16-6,20.8c0,0,16.8-34.8,18-36.4
		c0,0-2,42.401,8.8,6.4c0,0,5.601,12,2.801,16.4c0,0,8-8,7.199-11.2c0,0,4.601-8.2,7.4,5.399c0,0,1.8,9.4,3.4,6.201
		c0,0,4,24,5.199,1.199c0,0,1.601-13.6-5.6-25.199c0,0,0.8-3.201-2-7.201c0,0,13.6,21.601,6.4-7.199c0,0,11.2,8,12.4,8
		c0,0-13.601-23.2-4.801-18.4c0,0-5.2-10.4,12.801,1.6c0,0-16.001-16,1.601-6.399c0,0,8,6.399,0.399-3.601c0,0-14.4-16,7.601,2
		c0,0,11.6,16.4,12.399,19.201c0,0-10-29.201-14.399-32c0,0,8.399-36.4,49.6-20.801c0,0,6.8,17.2,11.2-1.199c0,0,12.8-6.4,24,21.199
		c0,0,4-13.6,3.2-16.4c0,0,6.8,1.201,6,0c0,0,13.199,4.4,14.399,3.601c0,0,6.8,6.8,7.2,3.2c0,0,9.2,2.8,7.2-0.801
		c0,0,8.8,15.601,9.2,19.201l2.399-14l2,2.799c0,0,1.601-7.6,0.8-8.799c-0.8-1.201,20,6.799,24.801,27.6l2,8.4
		c0,0,6-14.801,4.399-18.801c0,0,5.2,0.801,5.601,5.2c0,0,4-23.2-0.801-29.2c0,0,4.4-0.8,5.601,2.801v-7.201c0,0,7.2,0.801,7.2-1.6
		c0,0,4.399-4,6.399,0.801c0,0-12.399-35.201,6.001-16c0,0,7.199,10.799,3.6-8c-3.6-18.801-7.601-20.4-2.8-20.801
		c0,0,0.8-3.6-1.2-5.199c-2-1.601,1.2,0,1.2,0s4.8,4-0.4-18c0,0,6.4,1.6-5.601-27.601c0,0,2.801-2.399-1.199-10.8
		c0,0,8,4.4,10.8,2.8c0,0-0.399-1.601-3.6-5.601c0,0-21.601-54.8-1.2-32.799c0,0,11.85,13.549,5.45-9.25
		c0,0-9.111-24.011-8.335-28.307L54.167,247.493z"/>
</g>
<g>
	<path fill="#CC7328" stroke="#010101" d="M483.714,224.673c0.629,0.181,2.835,1.305,4.085,2.955c0,0,6.8,10.8,1.6-7.6
		c0,0-9.2-28.8-0.399-17.6c0,0,6,7.2,2.8-6.4c-3.865-16.427-6.4-22.8-6.4-22.8s11.601,4.8-15.2-34.8l8.8,3.6
		c0,0-19.6-39.6-41.2-44.8l-8-6c0,0,38.4-38,25.601-74.8c0,0-6.8-5.2-16.4,4c0,0-6.399,4.8-12.399,3.2c0,0-30.801,1.2-32.801,1.2
		s-36.8-37.2-102.399-19.6c0,0-5.2,2-9.601,0.8c0,0-18.4-16-67.2,6.8c0,0-10,2-11.601,2c-1.6,0-4.399,0-12.399,6.4
		c-8,6.4-8.4,7.2-10.4,8.8c0,0-16.4,11.2-21.2,12c0,0-11.6,6.4-16,16.4l-3.6,1.2c0,0-1.601,7.2-2,8.4c0,0-4.8,3.6-5.601,9.2
		c0,0-8.8,6-8.399,10.4c0,0-1.601,5.2-2.4,10c0,0-7.2,4.8-6.399,7.6c0,0-7.601,14-6.4,20.8c0,0-6.4-0.4-9.2,2c0,0-0.8,4.8-2.399,5.2
		c0,0-2.801,1.2-0.4,5.2c0,0-1.6,2.8-2,4.4c0,0,0.8,2.8-3.6,8.4c0,0-6.4,18.8-4.4,24c0,0,0.4,4.8-2.4,6.4c0,0-3.6-0.4,4.801,11.6
		c0,0,0.8,1.2-2.4,3.6c0,0-17.2,3.6-19.6,20c0,0-13.601,14.8-13.601,20c0,2.305,0.271,5.452,0.971,10.065
		c0,0-0.57,8.336,27.029,9.137C108.598,256.829,483.714,224.673,483.714,224.673z"/>
</g>
<g>
	<path fill="#CC7328" d="M68.398,247.028c-25-39.399-10.601,17.002-10.601,17.002c8.801,34.399,138.4-3.201,138.4-3.201
		s168.801-30.4,180.001-34.4s106.4,2.4,106.4,2.4l-5.601-16.8c-64.8-46.4-84-23.2-97.6-27.2c-13.601-4-11.2,5.6-14.4,6.4
		c-3.2,0.8-42.399-24-48.8-23.2c-6.4,0.8-31.742-22.951-16.8,8.8c16,34-58.401,39.2-75.201,28c-16.8-11.2,7.2,18.4,7.2,18.4
		c18.399,20-16,3.2-16,3.2c-34.4-12.8-58.4,12.8-61.601,13.6c-3.199,0.8-8,4-8.8-2.4c-0.8-6.4-8.31-23.101-40,3.2
		c-20,16.601-33.8-5.4-33.8-5.4L68.398,247.028z"/>
</g>
<g>
	<path fill="#E87F3A" d="M317.507,169.774c-6.399,0.8-31.767-22.939-16.8,8.8c16.601,35.2-58.399,39.2-75.2,28s7.2,18.4,7.2,18.4
		c18.4,20-16.001,3.2-16.001,3.2c-34.399-12.8-58.399,12.8-61.6,13.6c-3.2,0.8-8,4-8.8-2.4c-0.801-6.4-8.18-22.934-40,3.2
		c-21.236,17.346-34.728-4.109-34.728-4.109l-3.2,10.109c-25-39.8-9.928,18.509-9.928,18.509
		c8.801,34.401,139.055-4.509,139.055-4.509s168.802-30.4,180.001-34.4c11.2-4,105.528,2.327,105.528,2.327l-5.527-17.309
		c-64.801-46.4-83.2-22.618-96.801-26.618c-13.6-4-11.2,5.6-14.399,6.4C363.108,193.774,323.908,168.974,317.507,169.774z"/>
</g>
<g>
	<path fill="#EA8C4D" d="M318.817,171.519c-6.4,0.8-31.134-23.229-16.8,8.8c16.2,36.201-58.4,39.201-75.2,28.001
		c-16.8-11.2,7.2,18.4,7.2,18.4c18.399,20-16,3.2-16,3.2c-34.4-12.8-58.401,12.8-61.602,13.6c-3.2,0.8-8,4-8.8-2.4
		s-8.048-22.767-40,3.2c-22.473,18.09-35.654-2.818-35.654-2.818l-3.6,8.617c-23.8-39-9.255,20.019-9.255,20.019
		c8.8,34.399,139.71-5.817,139.71-5.817s168.8-30.4,180-34.4s104.655,2.254,104.655,2.254l-5.454-17.818
		c-64.801-46.4-82.401-22.037-96.001-26.037c-13.601-4-11.2,5.6-14.4,6.401C364.417,195.52,325.217,170.719,318.817,171.519z"/>
</g>
<g>
	<path fill="#ED9962" d="M320.125,173.265c-6.399,0.8-31.129-23.232-16.8,8.8c16.8,37.556-58.934,38.845-75.2,28
		c-16.8-11.2,7.2,18.4,7.2,18.4c18.4,20-16,3.2-16,3.2c-34.399-12.8-58.399,12.8-61.6,13.6s-8,4-8.8-2.4
		c-0.801-6.4-7.917-22.598-40.001,3.2c-23.71,18.838-36.582-1.527-36.582-1.527l-4,7.126c-21.801-36.799-8.581,21.529-8.581,21.529
		c8.8,34.399,140.363-7.129,140.363-7.129s168.801-30.4,180.001-34.4s103.782,2.182,103.782,2.182l-5.382-18.327
		c-64.8-46.401-81.6-21.455-95.2-25.455s-11.201,5.6-14.4,6.4C365.726,197.265,326.526,172.465,320.125,173.265z"/>
</g>
<g>
	<path fill="#EEA576" d="M321.436,175.011c-6.401,0.8-30.624-23.454-16.801,8.8c16.801,39.2-58.4,39.2-75.2,28
		c-16.8-11.2,7.2,18.4,7.2,18.4c18.399,20-16,3.2-16,3.2c-34.4-12.8-58.4,12.8-61.601,13.6s-8,4-8.8-2.4s-7.785-22.431-40,3.2
		c-24.946,19.582-37.51-0.236-37.51-0.236l-4.4,5.637c-19.8-34.801-7.909,23.035-7.909,23.035c8.8,34.401,141.02-8.436,141.02-8.436
		s168.801-30.4,180.001-34.4s102.909,2.109,102.909,2.109l-5.31-18.837c-64.8-46.4-80.8-20.872-94.399-24.872
		c-13.601-4-11.2,5.6-14.4,6.4C367.036,199.011,327.835,174.211,321.436,175.011z"/>
</g>
<g>
	<path fill="#F0B288" d="M322.745,176.756c-6.399,0.8-32.364-22.651-16.8,8.8c19.2,38.8-58.401,39.2-75.201,28s7.2,18.4,7.2,18.4
		c18.4,20-16,3.2-16,3.2c-34.4-12.8-58.4,12.799-61.6,13.6c-3.2,0.8-8,4-8.801-2.4c-0.8-6.4-7.653-22.263-40,3.2
		c-26.182,20.328-38.437,1.056-38.437,1.056l-4.8,4.145c-18-33.2-7.236,24.546-7.236,24.546c8.8,34.399,141.673-9.746,141.673-9.746
		s168.801-30.4,180.001-34.4s102.036,2.036,102.036,2.036l-5.236-19.345c-64.8-46.4-80-20.291-93.6-24.291s-11.2,5.6-14.4,6.4
		C368.345,200.756,329.145,175.956,322.745,176.756z"/>
</g>
<g>
	<path fill="#F2BE9C" d="M324.054,178.501c-6.401,0.8-32.743-22.46-16.802,8.8c20.401,40.001-58.399,39.201-75.199,28.001
		c-16.801-11.2,7.199,18.4,7.199,18.4c18.4,20-16,3.2-16,3.2c-34.399-12.8-58.399,12.799-61.6,13.6c-3.2,0.8-8,4-8.8-2.4
		c-0.8-6.4-7.523-22.096-40,3.2c-27.419,21.073-39.364,2.345-39.364,2.345l-5.2,2.655c-16-30.2-6.563,26.056-6.563,26.056
		c8.8,34.399,142.328-11.056,142.328-11.056s168.801-30.4,180.001-34.4c11.199-4,101.164,1.963,101.164,1.963l-5.164-19.854
		c-64.801-46.4-79.2-19.709-92.801-23.709c-13.6-4.001-11.199,5.6-14.399,6.4C369.654,202.502,330.454,177.701,324.054,178.501z"/>
</g>
<g>
	<path fill="#F5CCB0" d="M325.363,180.247c-6.4,0.8-33.842-21.875-16.8,8.8c22,39.6-58.401,39.2-75.201,28
		c-16.8-11.2,7.2,18.4,7.2,18.4c18.399,20-16,3.2-16,3.2c-34.4-12.8-58.4,12.801-61.601,13.6c-3.199,0.801-8,4-8.8-2.399
		c-0.8-6.4-7.391-21.927-40,3.2c-28.655,21.818-40.291,3.637-40.291,3.637l-5.6,1.163c-14.401-28.4-5.892,27.563-5.892,27.563
		c8.801,34.401,142.982-12.363,142.982-12.363s168.801-30.4,180.001-34.4s100.291,1.891,100.291,1.891l-5.091-20.364
		c-64.8-46.4-78.4-19.127-92-23.127c-13.601-4-11.2,5.6-14.4,6.4C370.962,204.247,331.763,179.447,325.363,180.247z"/>
</g>
<g>
	<path fill="#F7D8C4" d="M326.671,181.993c-6.399,0.8-33.842-21.876-16.8,8.8c22,39.6-58.399,39.2-75.2,28
		c-16.8-11.2,7.2,18.4,7.2,18.4c18.4,20-16,3.2-16,3.2c-34.4-12.8-58.4,12.801-61.601,13.6c-3.2,0.801-8,4-8.8-2.399
		c-0.801-6.399-7.26-21.76-40,3.2c-29.892,22.564-41.219,4.928-41.219,4.928l-6-0.328c-13.601-26.401-5.218,29.073-5.218,29.073
		c8.8,34.399,143.636-13.673,143.636-13.673s168.802-30.4,180.001-34.4c11.2-4,99.42,1.818,99.42,1.818l-5.019-20.873
		c-64.801-46.4-77.601-18.545-91.201-22.545c-13.6-4-11.2,5.6-14.399,6.4C372.272,205.993,333.072,181.193,326.671,181.993z"/>
</g>
<g>
	<path fill="#F9E4D6" d="M327.981,183.738c-6.4,0.8-33.454-22.087-16.8,8.8c22,40.8-58.4,39.2-75.2,28c-16.8-11.2,7.2,18.4,7.2,18.4
		c18.399,20-16,3.2-16,3.2c-34.4-12.8-58.4,12.8-61.601,13.601c-3.201,0.799-8.001,4-8.801-2.4s-7.128-21.592-40,3.199
		c-31.127,23.311-42.145,6.22-42.145,6.22l-6.401-1.819c-13-24-4.545,30.583-4.545,30.583c8.8,34.4,144.292-14.983,144.292-14.983
		s168.8-30.399,180-34.399s98.546,1.746,98.546,1.746l-4.946-21.382c-64.8-46.401-76.8-17.964-90.399-21.964
		c-13.601-4-11.2,5.6-14.4,6.4C373.581,207.738,334.38,182.938,327.981,183.738z"/>
</g>
<g>
	<path fill="#FDF3EC" d="M329.29,185.483c-6.399,0.8-32.375-22.644-16.8,8.8c21.2,42.801-58.4,39.201-75.2,28.001
		c-16.8-11.2,7.2,18.4,7.2,18.4c18.4,20-16,3.2-16,3.2c-34.4-12.8-58.4,12.8-61.6,13.601c-3.2,0.799-8,4-8.801-2.4
		c-0.8-6.4-6.996-21.424-40,3.199c-32.364,24.056-43.073,7.51-43.073,7.51l-6.801-3.309c-12.8-23.201-3.871,32.09-3.871,32.09
		c8.8,34.4,144.945-16.291,144.945-16.291s168.801-30.399,180.001-34.399s97.673,1.672,97.673,1.672l-4.873-21.891
		c-64.801-46.4-76-17.381-89.6-21.381c-13.6-4.001-11.2,5.6-14.4,6.4C374.89,209.484,335.69,184.683,329.29,185.483z"/>
</g>
<g>
	<path fill="#FFFFFF" d="M68.198,264.03c-12.8-22.001-3.2,33.6-3.2,33.6c8.8,34.4,145.601-17.6,145.601-17.6
		s168.801-30.401,180.001-34.401c11.199-4,96.8,1.6,96.8,1.6l-4.8-22.4c-64.801-46.4-75.2-16.8-88.801-20.8
		c-13.6-4-11.199,5.6-14.399,6.4s-42.4-24-48.8-23.2c-6.4,0.8-31.62-23.007-16.801,8.8c22.228,47.707-60.76,37.627-75.2,28
		c-16.801-11.2,7.199,18.4,7.199,18.4c18.4,20.001-16,3.2-16,3.2c-34.399-12.8-58.399,12.801-61.6,13.601c-3.2,0.801-8,4-8.8-2.4
		s-6.865-21.256-40,3.201c-33.601,24.799-44,8.799-44,8.799L68.198,264.03z"/>
</g>
<g>
	<path fill="#010101" d="M109.797,294.03c0,0-7.199,11.6,13.601,24.799c0,0,1.399,1.4-16.601-2.799c0,0-6.199-2-7.8-12.4
		c0,0-4.8-4.4-9.6-10S109.797,294.03,109.797,294.03z"/>
</g>
<g>
	<path fill="#CCCCCC" d="M249.797,246.428c0,0,17.698,26.82,17.101,31.602c-1.3,10.399-1.5,20,1.7,24s12.001,37.199,12.001,37.199
		s-0.4,1.2,12-36.8c0,0,11.6-16-8.4-34.399C284.199,268.03,248.998,239.228,249.797,246.428z"/>
</g>
<g>
	<path fill="#010101" d="M129.797,320.829c0,0,11.2,7.201-3.199,38.4l6.399-2.4c0,0-0.8,11.201-4,13.601l7.2-3.2
		c0,0,4.8,8,0.8,12.801c0,0,16.8,8,16,14.399c0,0,6.4-8,2.4-14.399c-4-6.4-11.2-2.4-10.4-20.801l-8.8,3.2c0,0,5.6-8.8,5.6-15.2
		l-8,2.4c0,0,15.47-26.578,4.801-28C132.598,320.829,129.797,320.829,129.797,320.829z"/>
</g>
<g>
	<path fill="#CCCCCC" d="M162.198,337.629c0,0,2.8-4.4,0-3.6c-2.8,0.799-34,15.6-40,25.199
		C122.198,359.229,156.598,334.829,162.198,337.629z"/>
</g>
<g>
	<path fill="#CCCCCC" d="M172.598,345.629c0,0,2.8-4.4,0-3.6c-2.801,0.799-34,15.6-40,25.199
		C132.598,367.229,166.998,342.829,172.598,345.629z"/>
</g>
<g>
	<path fill="#CCCCCC" d="M185.797,330.429c0,0,2.801-4.399,0-3.601c-2.8,0.801-34,15.601-40,25.201
		C145.797,352.03,180.198,327.629,185.797,330.429z"/>
</g>
<g>
	<path fill="#CCCCCC" d="M162.598,374.03c0,0,0-6-2.801-5.201c-2.8,0.801-38.8,18.4-44.8,28
		C114.998,396.829,156.998,371.229,162.598,374.03z"/>
</g>
<g>
	<path fill="#CCCCCC" d="M163.797,363.229c0,0,1.2-4.8-1.6-4c-2,0-28.4,11.6-34.4,21.2
		C127.797,380.429,157.398,358.829,163.797,363.229z"/>
</g>
<g>
	<path fill="#CCCCCC" d="M149.398,410.829l-10,7.601c0,0,10.399-7.601,14-6.399c0,0-6.8,11.199-7.601,16.399
		c0,0,10.4-12.8,16-12.399c0,0,7.601,0.399,7.601,11.199c0,0,5.6-10.4,8.8-10c0,0,1.2,6.4,0,13.2c0,0,4-7.601,8-6
		c0,0,6.4-2,5.6,9.601c0,0,0,10.399-0.8,13.199c0,0,5.601-26.4,8-26.8c0,0,8-1.2,12.8,7.601c0,0-4-7.601,0.801-5.601
		c0,0,10.8,1.601,14,8.399c0,0-6.801-12-1.2-8.799c0,0,6.8,0,8,6.399c0,0,8.399,21.2,10.399,22.8c0,0-7.6-21.6-6-21.6
		c0,0-2-12,3.2,2.8c0,0-3.2-14,2.4-13.2c5.6,0.801,10,10.801,18.399,8.4c0,0,9.602,5.6,11.602-63.6L149.398,410.829z"/>
</g>
<g>
	<path fill="#010101" d="M154.198,318.03c0,0,14.8-6,54.8,0c0,0,7.2,0.399,14-8.4c6.8-8.801,33.601-16,40-14l9.602,6.4l0.8,1.199
		c0,0,12.399,10.4,12.8,18s-14.4,55.6-24.001,71.6c-9.6,16-19.2,28.4-38.4,26c0,0-20.8-4-46.399,0c0,0-29.2-1.6-32-9.6
		s11.2-23.199,11.2-23.199s4.399-8.4,3.199-22.801C158.598,348.829,158.998,320.829,154.198,318.03z"/>
</g>
<g>
	<path fill="#E5678C" d="M176.198,320.03c8.4,18.399-21.2,83.6-21.2,83.6c-2,1.6,12.66,7.645,22.8,5.199
		c10.946-2.637,51.2,1.601,51.2,1.601c23.601-15.601,36.4-60,36.4-60s10.4-24-7.2-27.2
		C240.598,320.03,176.198,320.03,176.198,320.03z"/>
</g>
<g>
	<path fill="#B3335A" d="M174.167,350.925c3.326-12.79,4.91-24.591,2.031-30.896c0,0,62.4,6.399,73.6-14.4
		c4.241-7.875,19.001,22.8,18.601,32.4c0,0-63,14.399-77.8,3.199L174.167,350.925z"/>
</g>
<g>
	<path fill="#A6274D" d="M178.598,367.229c0,0,2,7.2-0.4,11.2c0,0-1.6,0.8-2.8,1.2c0,0,1.2,3.6,7.2,5.199c0,0,2,4.4,4.399,4.801
		c2.4,0.4,7.2,6,11.2,4.8s15.2-5.2,15.2-5.2s5.6-3.199,14.399,0.4c0,0,2.375-0.803,2.801-4.801c0.5-4.699,3.6-8.399,5.6-10.399
		s11.6-14.8,10.4-15.2C245.398,358.829,178.598,367.229,178.598,367.229z"/>
</g>
<g>
	<path fill="#F2727F" stroke="#010101" d="M174.198,318.829c0,0-2.8,22.4,0.4,30.801c3.199,8.4,2.399,10.4,1.6,14.4s3.6,14,9.2,20
		l12,1.6c0,0,15.2-3.6,24.399-0.801c0,0,8.994,1.344,12.4-13.6c0,0,4.8-6.4,12-9.199c7.2-2.801,14.4-44.4,10.4-52.4
		s-18.4-12.4-34.4,3.199C206.198,328.429,204.198,311.629,174.198,318.829z"/>
</g>
<g>
	<path fill="#FDF9CE" stroke="#010101" stroke-width="0.5" d="M175.797,393.629c0,0-0.8-2-5.199-2.4c0,0-22.4-3.6-30.801-16
		c0,0-6.8-5.6-2.399,6c0,0,10.399,20.4,17.2,23.2C154.598,404.429,170.998,408.429,175.797,393.629z"/>
</g>
<g>
	<path fill="#CC404D" d="M255.74,329.657c0.659-7.905,2.612-16.52,0.858-20.027c-6.446-12.895-23.419-7.506-34.4,3.199
		c-16,15.601-18-1.199-48,6c0,0-1.745,13.964-0.905,23.976c0,0,37.306-11.575,38.105-5.976c0,0,1.6-3.199,10.8-3.199
		S254.14,332.458,255.74,329.657z"/>
</g>
<g>
	<path fill="#010101" stroke="#A51E27" stroke-width="2" d="M212.598,319.629c0,0,4.8,4.8,1.199,14.4c0,0-14.399,16-12.399,30"/>
</g>
<g>
	<path fill="#FDF9CE" stroke="#010101" stroke-width="0.5" d="M164.598,404.429c0,0-4.4-12.8,4.399-6c0,0,4.8,2,3.601,3.601
		C171.398,403.629,165.797,407.629,164.598,404.429z"/>
</g>
<g>
	<path fill="#FDF9CE" stroke="#010101" stroke-width="0.5" d="M169.638,405.629c0,0-3.521-10.24,3.52-4.801
		c0,0,4.421,2.449,2.88,2.881C171.478,404.989,176.038,407.549,169.638,405.629z"/>
</g>
<g>
	<path fill="#FDF9CE" stroke="#010101" stroke-width="0.5" d="M174.438,405.629c0,0-3.521-10.24,3.52-4.801
		c0,0,4.375,2.311,2.88,2.881C177.478,404.989,180.837,407.549,174.438,405.629z"/>
</g>
<g>
	<path fill="#FDF9CE" stroke="#010101" stroke-width="0.5" d="M181.038,405.829c0,0-3.52-10.239,3.521-4.799
		c0,0,4.383,2.332,2.881,2.879C184.478,404.989,187.439,407.75,181.038,405.829z"/>
</g>
<g>
	<path fill="#FDF9CE" stroke="#010101" stroke-width="0.5" d="M187.518,405.75c0,0-3.521-10.24,3.521-4.8c0,0,3.84,1.6,2.88,2.879
		C192.958,405.11,193.918,407.669,187.518,405.75z"/>
</g>
<g>
	<path fill="#FDF9CE" stroke="#010101" stroke-width="0.5" d="M194.198,406.429c0,0-4.8-12.399,4.4-6c0,0,4.8,2,3.6,3.601
		C200.998,405.629,202.198,408.829,194.198,406.429z"/>
</g>
<g>
	<path fill="#010101" stroke="#A6274D" stroke-width="2" d="M165.797,389.229c0,0,13.2-2.8,19.2,0.4c0,0,6,1.199,7.2,0.8
		s4.4-0.8,4.4-0.8"/>
</g>
<g>
	<path fill="#010101" stroke="#A6274D" stroke-width="2" d="M199.797,398.03c0,0,12-13.601,24-9.201c7.017,2.574,6-0.799,6.801-3.6
		c0.8-2.8,1-7,6-10"/>
</g>
<g>
	<path fill="#FDF9CE" stroke="#010101" stroke-width="0.5" d="M216.998,382.03c0,0-4-10.801-6.8,2c-2.8,12.799-6,16.399-7.6,19.199
		c0,0,0,5.2,8.399,4.801c0,0,10.8-0.4,11.2-3.201C222.598,402.03,220.998,390.429,216.998,382.03z"/>
</g>
<g>
	<path fill="#010101" stroke="#A6274D" stroke-width="2" d="M230.998,389.229c0,0,3.601-2.4,6-1.199"/>
</g>
<g>
	<path fill="#010101" stroke="#A6274D" stroke-width="2" d="M237.498,372.829c0,0,2.9-4.899,7.7-5.699"/>
</g>
<g>
	<path fill="#B3B2B2" d="M158.198,409.629c0,0,18,3.199,22.4,1.6c0,0,8.8,0,0.399,2c0,0-12.8,0-20.8-1.199
		C160.198,412.03,148.598,406.429,158.198,409.629z"/>
</g>
<g>
	<path fill="#FDF9CE" stroke="#010101" stroke-width="0.5" d="M172.198,316.429c0,0,17.6,0,19.6,0.8c0,0,7.2,30.801,3.601,38.4
		c0,0-1.2,2.8-4-2.801c0,0-18.4-32.799-21.601-34.799C166.598,316.03,170.998,316.429,172.198,316.429z"/>
</g>
<g>
	<path fill="#FDF9CE" stroke="#010101" stroke-width="0.5" d="M95.098,313.729c0,0,8.899,1.7,21.5,4.301c0,0,4.8,22.399,8,27.199
		c3.199,4.801-0.4,4.801-4,2c-3.601-2.8-18.4-16.8-20.4-21.199C98.198,321.629,95.098,313.729,95.098,313.729z"/>
</g>
<g>
	<path fill="#FDF9CE" stroke="#010101" stroke-width="0.5" d="M116.958,318.247c0,0,5.801,1.548,6.81,3.763
		c1.008,2.214-1.202,5.511-1.202,5.511s-1,3.305-2.202,1.143S116.29,318.84,116.958,318.247z"/>
</g>
<g>
	<path fill="#010101" d="M116.998,318.03c0,0,3.601,5.199,7.2,5.199s3.982-0.412,6.8,0.2c4.601,1,4.2-1,10.8,0.2
		c2.641,0.48,5.2-0.4,8,0.8c2.801,1.2,6,0.399,7.2-1.601s6-6.199,6-6.199s-12.8,1.8-15.6,2.6
		C147.398,319.229,124.998,320.429,116.998,318.03z"/>
</g>
<g>
	<path fill="#FDF9CE" stroke="#010101" stroke-width="0.5" d="M161.598,318.229c0,0-6.45,3.5-6.851,5.9
		c-0.399,2.4,5.25,6.1,5.25,6.1s2.75,4.6,3.351,2.2C163.948,330.03,162.398,318.629,161.598,318.229z"/>
</g>
<g>
	<path fill="#FDF9CE" stroke="#010101" stroke-width="0.5" d="M124.113,323.694c0,0,7.007,11.188,7.224-0.023
		c0,0,0.558-1.258-1.202-1.28C124.059,322.314,125.58,318.212,124.113,323.694z"/>
</g>
<g>
	<path fill="#FDF9CE" stroke="#010101" stroke-width="0.5" d="M131.291,323.942c0,0,7.921,11.188,7.285-0.093
		c0,0,0.007-0.332-1.746-0.485C132.083,322.95,132.428,318.432,131.291,323.942z"/>
</g>
<g>
	<path fill="#FDF9CE" stroke="#010101" stroke-width="0.5" d="M138.503,323.95c0,0,7.96,10.629,7.291,0.963
		c0,0,0.119-1.233-1.534-1.534C140.368,322.672,140.157,319.423,138.503,323.95z"/>
</g>
<g>
	<path fill="#FDF9CE" stroke="#010101" stroke-width="0.5" d="M145.379,324.03c0,0,7.9,11.562,8.248,1.78c0,0,1.645-1.378-0.102-1.6
		C147.708,323.47,148.505,319.016,145.379,324.03z"/>
</g>
<g>
	<path fill="#E4E5B2" d="M109.206,327.56l-7.658-1.53c-2.6-5-4.699-11.15-4.699-11.15s6.35,1,18.85,3.8c0,0,0.876,3.317,2.348,9.113
		L109.206,327.56z"/>
</g>
<g>
	<path fill="#E4E5B2" d="M174.274,322.898c-1.666-2.506-2.983-4.264-3.633-4.67c-3.014-1.883,1.13-1.506,2.259-1.506
		c0,0,16.571,0,18.454,0.753c0,0,0.523,2.242,1.208,5.633C192.562,323.108,182.474,321.098,174.274,322.898z"/>
</g>
<g>
	<path fill="#CC7328" d="M227.877,184.749c27.722,3.96,53.241-31.68,55.001-41.361c1.761-9.68-8.359-21.56-8.359-21.56
		c1.319-3.08-3.521-17.16-8.8-26.4c-5.28-9.24-21.182-8.266-38.722-9.24c-15.84-0.88-34.319,22.44-35.64,24.2
		s4.84,40.041,6.16,45.761c1.319,5.72-1.32,32.12-1.32,32.12C230.438,179.169,200.158,180.789,227.877,184.749z"/>
</g>
<g>
	<path fill="#EA8E52" d="M192.085,111.036c-1.296,1.728,4.752,39.313,6.049,44.929c1.296,5.616-1.297,31.536-1.297,31.536
		c32.673-8.88,3.889-7.344,31.104-3.456c27.217,3.888,52.272-31.104,54.001-40.609c1.728-9.504-8.208-21.168-8.208-21.168
		c1.296-3.024-3.456-16.848-8.64-25.92c-5.185-9.072-20.796-8.115-38.018-9.072C211.526,86.412,193.381,109.308,192.085,111.036z"/>
</g>
<g>
	<path fill="#EFAA7C" d="M192.814,111.684c-1.272,1.696,4.664,38.585,5.936,44.097c1.272,5.512-1.271,30.952-1.271,30.952
		c31.403-9.16,3.815-7.208,30.527-3.392c26.714,3.816,51.306-30.528,53.001-39.857c1.696-9.328-8.056-20.776-8.056-20.776
		c1.272-2.968-3.392-16.536-8.479-25.44c-5.089-8.904-20.41-7.965-37.313-8.904C211.894,87.516,194.085,109.988,192.814,111.684z"/>
</g>
<g>
	<path fill="#F3C6A8" d="M193.542,112.332c-1.248,1.664,4.576,37.857,5.824,43.265s-1.248,30.368-1.248,30.368
		c29.437-9.04,3.744-7.072,29.952-3.328c26.209,3.744,50.337-29.952,52.001-39.104c1.664-9.153-7.904-20.385-7.904-20.385
		c1.248-2.912-3.328-16.224-8.319-24.96c-4.992-8.736-20.025-7.815-36.609-8.736C212.262,88.62,194.79,110.668,193.542,112.332z"/>
</g>
<g>
	<path fill="#F8E2D3" d="M194.27,112.98c-1.225,1.632,4.487,37.129,5.712,42.433c1.224,5.304-1.225,29.784-1.225,29.784
		c27.868-8.92,3.673-6.936,29.377-3.264s49.368-29.376,51.001-38.353c1.632-8.976-7.753-19.992-7.753-19.992
		c1.225-2.856-3.264-15.912-8.159-24.48c-4.896-8.568-19.641-7.665-35.905-8.568C212.629,89.724,195.494,111.348,194.27,112.98z"/>
</g>
<g>
	<path fill="#FFFFFF" d="M228.198,181.228c25.2,3.6,48.401-28.8,50.001-37.6c1.6-8.8-7.6-19.6-7.6-19.6
		c1.199-2.8-3.201-15.6-8.001-24c-4.801-8.4-19.254-7.514-35.2-8.4c-14.4-0.8-31.2,20.4-32.4,22c-1.2,1.6,4.4,36.4,5.601,41.6
		c1.199,5.2-1.2,29.2-1.2,29.2C224.898,175.828,202.998,177.628,228.198,181.228z"/>
</g>
<g>
	<path fill="#CCCCCC" d="M274.599,147.228c0,0-27.802,7.6-39.401,6c0,0-15.8-6.6-24.6,15.2c0,0-3.601,7.2-5.601,9.2
		S274.599,147.228,274.599,147.228z"/>
</g>
<g>
	<path fill="#010101" d="M278.399,145.028c0,0-29.001,12.2-39.001,11.8c0,0-16.4-4.6-24.8,10c0,0-8.4,9.2-11.601,10.8
		c0,0-0.399,1.6,6-2.4l10.4,5.2c0,0,14.8,9.6,24.399-6.4c0,0,4-11.2,4-13.2s21.2-7.6,22.802-8
		C272.199,152.428,278.798,148.228,278.399,145.028z"/>
</g>
<g>
	<path fill="#99CA3C" d="M230.998,180.942c-6.872,0-15.245-3.865-15.245-10.114c0-6.248,8.373-12.513,15.245-12.513
		c6.874,0,12.446,5.065,12.446,11.313C243.444,175.877,237.872,180.942,230.998,180.942z"/>
</g>
<g>
	<path fill="#659A41" d="M227.375,164.258c-4.846,0.722-9.935,2.225-9.862,2.009c1.54-4.619,7.9-7.952,13.485-7.952
		c4.296,0,8.084,1.978,10.32,4.988C241.318,163.303,236.001,162.973,227.375,164.258z"/>
</g>
<g>
	<path fill="#FFFFFF" d="M239.398,164.028c0,0-4.4-3.2-4.4-1C234.998,163.028,238.598,167.428,239.398,164.028z"/>
</g>
<g>
	<path fill="#010101" d="M229.398,172.154c-2.499,0-4.525-2.026-4.525-4.526c0-2.499,2.026-4.525,4.525-4.525
		c2.5,0,4.525,2.026,4.525,4.525C233.923,170.128,231.898,172.154,229.398,172.154z"/>
</g>
<g>
	<path fill="#CC7328" d="M125.398,158.828c0,0-3.2-21.2-0.8-25.6c0,0,10.8-10,10.399-13.6c0,0-0.399-18-1.6-18.8
		c-1.2-0.8-8.8-6.8-14.8-0.4c0,0-10.4,18-9.601,24.4v2c0,0-7.6-0.4-9.2,1.6c0,0-1.199,5.2-2.399,5.6c0,0-2.8,2.4-0.8,5.2
		c0,0-2,2.4-1.601,6.4l7.601,4c0,0,2,14.4,12.8,19.6C120.234,171.557,123.398,164.828,125.398,158.828z"/>
</g>
<g>
	<path fill="#FFFFFF" d="M124.398,156.988c0,0-2.88-19.08-0.72-23.04c0,0,9.72-9,9.359-12.24c0,0-0.359-16.2-1.439-16.92
		c-1.08-0.72-7.92-6.12-13.32-0.36c0,0-9.36,16.2-8.64,21.96v1.8c0,0-6.841-0.36-8.28,1.44c0,0-1.08,4.68-2.16,5.04
		c0,0-2.52,2.16-0.72,4.68c0,0-1.8,2.16-1.44,5.76l6.84,3.6c0,0,1.801,12.96,11.521,17.64
		C119.75,168.443,122.598,162.388,124.398,156.988z"/>
</g>
<g>
	<path fill="#EC965D" d="M132.948,101.818c-1.09-0.86-8.58-6.63-14.43-0.39c0,0-10.141,17.55-9.36,23.79v1.95
		c0,0-7.41-0.39-8.97,1.56c0,0-1.17,5.07-2.34,5.46c0,0-2.73,2.34-0.78,5.07c0,0-1.95,2.34-1.561,6.24l7.41,3.9
		c0,0,1.95,14.04,12.48,19.11c4.714,2.27,7.8-4.29,9.75-10.14c0,0-3.12-20.67-0.78-24.96c0,0,10.53-9.75,10.14-13.26
		C134.507,120.148,134.118,102.598,132.948,101.818z"/>
</g>
<g>
	<path fill="#F2B892" d="M132.498,102.808c-0.979-0.92-8.359-6.46-14.06-0.38c0,0-9.88,17.1-9.12,23.18v1.9c0,0-7.22-0.38-8.74,1.52
		c0,0-1.14,4.94-2.28,5.32c0,0-2.659,2.28-0.76,4.94c0,0-1.899,2.28-1.52,6.08l7.22,3.8c0,0,1.9,13.68,12.16,18.62
		c4.594,2.212,7.6-4.18,9.5-9.88c0,0-3.04-20.14-0.76-24.32c0,0,10.26-9.5,9.88-12.92
		C134.018,120.668,133.638,103.568,132.498,102.808z"/>
</g>
<g>
	<path fill="#F7DBC8" d="M132.047,103.798c-0.869-0.98-8.14-6.29-13.689-0.37c0,0-9.62,16.65-8.88,22.57v1.85
		c0,0-7.03-0.37-8.51,1.48c0,0-1.11,4.81-2.221,5.18c0,0-2.59,2.22-0.74,4.81c0,0-1.85,2.22-1.479,5.92l7.03,3.7
		c0,0,1.85,13.32,11.84,18.13c4.473,2.154,7.399-4.07,9.25-9.62c0,0-2.96-19.61-0.74-23.68c0,0,9.99-9.25,9.62-12.58
		C133.528,121.188,133.158,104.538,132.047,103.798z"/>
</g>
<g>
	<path fill="#FFFFFF" d="M124.398,156.888c0,0-2.88-18.98-0.72-22.94c0,0,9.72-9,9.359-12.24c0,0-0.359-16.2-1.439-16.92
		c-0.761-1.04-7.92-6.12-13.32-0.36c0,0-9.36,16.2-8.64,21.96v1.8c0,0-6.841-0.36-8.28,1.44c0,0-1.08,4.68-2.16,5.04
		c0,0-2.52,2.16-0.72,4.68c0,0-1.8,2.16-1.44,5.76l6.84,3.6c0,0,1.801,12.96,11.521,17.64
		C119.75,168.443,122.598,162.288,124.398,156.888z"/>
</g>
<g>
	<path fill="#CCCCCC" d="M121.297,150.628c0,0-21.6-10.2-22.5-11c0,0,9.101,8.2,9.9,8.2S121.297,150.628,121.297,150.628z"/>
</g>
<g>
	<path fill="#010101" d="M104.198,144.428c0,0,18.4,3.6,18.4,8c0,2.912-0.243,16.331-5.601,14.8
		C108.598,164.828,112.198,150.428,104.198,144.428z"/>
</g>
<g>
	<path fill="#99CA3C" d="M112.598,148.228c0,0,8.978,1.474,10,4.2c0.6,1.6,1.263,9.908-4.2,11
		C113.846,164.339,111.616,154.118,112.598,148.228z"/>
</g>
<g>
	<path fill="#010101" d="M198.593,190.777c-0.497-1.742,0.813-1.611,2.604-2.149c2-0.6,14.2-4.4,15-7c0.8-2.6,14,1.8,14,1.8
		c1.8,0.8,6.2,3.4,6.2,3.4c4.8,1.2,11.399,1.6,11.399,1.6c2.4,1,5.801,3.8,5.801,3.8c14.6,10.2,27.001,3,27.001,3
		c20-6.6,14-23.8,14-23.8c-3-9,0.199-12.4,0.199-12.4c0.2-3.8,7.4,2.6,7.4,2.6c2.6,4.2,3.4,9.2,3.4,9.2c8,11.2,4.6-6.6,4.6-6.6
		c0.2-1-2.6-4.6-2.6-5.8s-1.801-4.6-1.801-4.6c-3-3.4-0.6-10.4-0.6-10.4c1.8-13.8-0.4-12-0.4-12c-1.199-1.8-10.399,8.2-10.399,8.2
		c-2.2,3.4-8.2,5-8.2,5c-2.8,1.8-6.2,0.4-6.2,0.4c-2.6-0.4-8.2,6.6-8.2,6.6c2.801-0.2,5.2,4.2,7.601,4.4c2.399,0.2,4.2-2.4,5.8-3
		s4.4,5.2,4.4,5.2c0.399,2.6-5.2,7.4-5.2,7.4c-0.4,4.6-2,3-2,3c-3-0.6-4.2,3.2-5.2,7.8s-5.2,5-5.2,5c-1.6,7.4-2.801,4.4-2.801,4.4
		c-0.2-5.6-6.2,0.2-6.2,0.2c-1.2,2-5.8-0.2-5.8-0.2c-6.8-2-4.4-4-4.4-4c1.801-2.2,13,0,13,0c2.2-1.6-5.8-5.6-5.8-5.6
		c-0.6-1.8,0.4-6.2,0.4-6.2c1.2-3.2,8-8.8,8-8.8c9.4-1.2,6.601-2.8,6.601-2.8c-6.2-5.2-12.001,2.4-12.001,2.4
		c-2.2,6.2-19.6,21.2-19.6,21.2c-4.8,3.4-2.2-3.4-6.2,0s-24.6-5.6-24.6-5.6c-11.563-1.193-14.294,14.549-17.823,11.429
		C194.775,187.857,200.193,196.377,198.593,190.777z"/>
</g>
<g>
	<path fill="#010101" d="M393.399,24.428c0,0-25.601,8-28.4,26.8c0,0-2.399,22.8,18,40.4c0,0,0.4,6.4,2.4,9.6
		c0,0-1.601,4.8,17.2-2.8l27.199-8.4c0,0,6.4-2.4,11.601-11.2c5.2-8.8,20.399-27.6,16.8-52.8c0,0,1.2-11.2-4.8-11.6
		c0,0-8.4-1.6-15.601,6c0,0-6.8,3.2-9.199,2.8L393.399,24.428z"/>
</g>
<g>
	<path fill="#010101" d="M448.02,23.438c0,0,2.1-8.93-2.74-4.09c0,0-7.04,5.72-14.521,5.72c0,0-14.521,2.2-18.921,15.4
		c0,0-3.96,26.84,3.96,32.56c0,0,4.841,7.48,11.881,0.88C434.72,67.308,450.22,37.078,448.02,23.438z"/>
</g>
<g>
	<path fill="#333332" d="M447.646,23.796c0,0,2.09-8.744-2.662-3.992c0,0-6.912,5.616-14.257,5.616c0,0-14.256,2.16-18.576,15.12
		c0,0-3.888,26.352,3.888,31.968c0,0,4.752,7.344,11.664,0.864C434.616,66.892,449.806,37.188,447.646,23.796z"/>
</g>
<g>
	<path fill="#676767" d="M447.272,24.154c0,0,2.08-8.558-2.584-3.894c0,0-6.784,5.512-13.993,5.512c0,0-13.992,2.12-18.232,14.84
		c0,0-3.815,25.864,3.816,31.376c0,0,4.664,7.208,11.448,0.848C434.512,66.476,449.392,37.298,447.272,24.154z"/>
</g>
<g>
	<path fill="#989898" d="M446.898,24.512c0,0,2.07-8.372-2.506-3.796c0,0-6.656,5.408-13.729,5.408c0,0-13.728,2.08-17.888,14.56
		c0,0-3.744,25.376,3.744,30.784c0,0,4.576,7.072,11.231,0.832C434.408,66.06,448.978,37.408,446.898,24.512z"/>
</g>
<g>
	<path fill="#CCCCCC" d="M446.524,24.87c0,0,2.06-8.186-2.428-3.698c0,0-6.529,5.304-13.466,5.304c0,0-13.464,2.04-17.544,14.28
		c0,0-3.672,24.888,3.673,30.192c0,0,4.487,6.936,11.016,0.816S448.564,37.518,446.524,24.87z"/>
</g>
<g>
	<path fill="#FFFFFF" d="M446.149,25.228c0,0,2.05-8-2.351-3.6c0,0-6.399,5.2-13.199,5.2c0,0-13.2,2-17.2,14
		c0,0-3.601,24.4,3.6,29.6c0,0,4.4,6.8,10.8,0.8C434.199,65.228,448.149,37.628,446.149,25.228z"/>
</g>
<g>
	<path fill="#982B1F" d="M234.598,228.428c0,0-20.4-19.2-28.4-20c0,0-34.4-4-49.2,14c0,0,17.601-20.4,45.2-14.8c0,0-21.6-4.4-34-1.2
		c0,0-16.8,0-26.4,14l-2.8,4.8c0,0,4-14.8,22.4-20.8c0,0,22.8-4.8,33.6,0c0,0-21.6-6.8-31.6-4.8c0,0-30.4-2.4-43.2,24
		c0,0,4-14.4,18.8-21.6c0,0,13.601-8.8,34-6c0,0,14.4,3.2,19.601,5.6c5.199,2.4,4-0.4-4.4-5.2c0,0-5.6-10-19.6-9.6
		c0,0-42.801,3.6-53.2,15.6c0,0,13.6-11.2,24-14c0,0,22.399-8,30.8-7.2c0,0,24.8,1,32.4-3c0,0-11.2,5-8,8.2c3.199,3.2,10,10.8,10,12
		s24.199,23.3,27.8,27.7L234.598,228.428z"/>
</g>
<g>
	<path fill="#CCCCCC" d="M372.998,422.428c0,0-15.5-36.5-28-46c0,0,26,16,29.5,34C374.498,410.428,374.498,420.428,372.998,422.428z
		"/>
</g>
<g>
	<path fill="#CCCCCC" d="M419.998,429.928c0,0-26.5-55-45-79c0,0,43.5,37.5,48.5,64l0.5,5.5l-3-2.5
		C420.998,417.928,420.498,426.928,419.998,429.928z"/>
</g>
<g>
	<path fill="#CCCCCC" d="M476.498,381.428c0,0-62.5-59.5-64-62c0,0,60.5,66,63.5,73.5
		C475.998,392.928,473.998,383.928,476.498,381.428z"/>
</g>
<g>
	<path fill="#CCCCCC" d="M287.998,424.928c0,0,19.5-52,38.5-29.5c0,0,15,10,14.5,13c0,0-4-6.5-22-6
		C318.998,402.428,299.998,399.428,287.998,424.928z"/>
</g>
<g>
	<path fill="#CCCCCC" d="M478.498,297.428c0,0-45-28.5-52.5-30c-11.807-2.361,49.5,29,54.5,39.5
		C480.498,306.928,482.498,304.428,478.498,297.428z"/>
</g>
<g>
	<path fill="#010101" d="M327.798,404.03c0,0,20.4-2,27.2-8.801l4.4,3.6l17.6-38.399l3.601,5.2c0,0,14.399-14.801,13.6-22.801
		s12.8,6,12.8,6s-0.8-11.6,6.4-4.799c0,0-2.4-15.601,6-7.601c0,0-10.537-30.157,12-4.399c5.6,6.399,1.2-0.4,1.2-0.4s-26-48-4.4-33.6
		c0,0,2-22.801,0.8-27.201c-1.2-4.399-3.2-26.8-8-32c-4.8-5.2,0.4-6.8,6-1.6c0,0-11.2-24,2-12c0,0-3.6-15.2-8-18
		c0,0-5.6-17.2,9.601-6.4c0,0-4.4-12.4-7.601-15.6c0,0-11.6-27.6-4.399-22.8l4.399,3.6c0,0-6.8-14-0.399-9.6
		c6.399,4.4,6.399,4,6.399,4s-21.2-33.2-0.8-15.6c0,0-8.159-13.918-11.6-20.8c0,0-18.801-20.4-4.4-14l4.8,1.6c0,0-8.8-10-16.8-11.6
		s2.4-8,8.8-6c6.4,2,22,9.6,22,9.6s12.8,18.8,16.8,19.2c0,0-20-7.6-14,0.4c0,0,14.4,14,7.2,13.6c0,0-6,7.2-1.2,16
		c0,0-18.459-18.391-3.6,7.2l6.8,16.4c0,0-24.399-24.8-13.2-2.8c0,0,17.2,23.6,19.2,24c2,0.4,6.4,9.2,6.4,9.2l-4.4-2l5.2,8.8
		c0,0-11.2-12-5.2,1.2l5.601,14.4c0,0-20.4-22-6.801,7.6c0,0-16.399-5.2-7.6,12c0,0-1.6,16-1.2,21.201
		c0.4,5.199,1.601,33.6-2.8,41.6s6,27.199,8,31.199s5.6,14.801-3.2,5.601s-4.399-3.601-2.399,5.2c2,8.8,8,24.4,7.199,30
		c0,0-1.199,1.199-4.399-2.4c0,0-14.8-22.8-13.2-8.4c0,0-1.2,8-4.4,16.801c0,0-3.199,10.8-3.199,2c0,0-3.2-16.801-6-9.2
		c-2.801,7.601-6.4,13.601-9.2,16s-8-20.399-9.2-10c0,0-12-12.399-16.8,4l-11.601,16.399c0,0-0.399-12.399-1.6-6.399
		C368.199,402.429,338.199,408.429,327.798,404.03z"/>
</g>
<g>
	<path fill="#010101" d="M293.399,47.228c0,0-11.601-8-15.601-7.6c-4,0.4,27.601-8.8,68.801,18.8c0,0,4.8,2.8,8.399,2.4
		c0,0,3.2,2.4,0.4,6c0,0-8.8,9.6,2.399,20.8c0,0,18.4,6.8,12.801-2c0,0,10.8,4,13.199,8c2.4,4,1.2,0,1.2,0s-6.399-7.2-12.399-12.4
		c0,0-5.2-2-8-10.4c-2.801-8.4-5.2-18.4-0.801-21.6c0,0-4,4.4-3.199,0.4c0.8-4,4.399-7.6,6-8c1.6-0.4,18-16.2,24.8-16.6
		c0,0-9.2,1.4-12.2,0.4s-29.6-12.4-35.6-13.6c0,0-16.801-6.6-4.801-4.6c0,0,35.801,3.8,54,17c0,0-7.199-8.4-25.6-15.4
		c0,0-22.2-12.6-57.4-7.6c0,0-17.8,3.2-25.6,5c0,0-2.6-0.6-3.2-1c-0.6-0.4-12.4-9.4-40.001-2.4c0,0-17,4.6-25.6,9.4
		c0,0-15.2,1.2-18.8,4.4c0,0-18.601,14.6-20.601,15.4c-2,0.8-13.399,8.4-14.2,8.8c0,0,24.601-6.6,27-9c2.4-2.4,19.801-5,22.2-3.6
		c2.4,1.4,10.8,0.8,1.2,1.4c0,0,75.601,14.8,76.401,16.8C289.399,48.428,293.399,47.228,293.399,47.228z"/>
</g>
<g>
	<path fill="#CC7328" d="M364.798,38.028c0,0-10.199-7.4-12.199-7.4s-14.4-10.2-18.601-9.8s-16.399-9.6-43.8-1.4c0,0-0.6-2,3-2.8
		c0,0,6.4-2.2,6.8-2.8c0,0,20.2-4.2,27.4-0.6c0,0,9.2,2.6,15.399,8.8c0,0,11.2,3.2,14.4,2.2c0,0,8.8,2.2,9.2,4c0,0,5.8,3,4,5.6
		C370.399,33.828,370.798,35.428,364.798,38.028z"/>
</g>
<g>
	<path fill="#CC7328" d="M352.328,35.919c0.808,0.632,1.826,0.73,2.432,1.539c0.233,0.313-0.056,0.64-0.37,0.737
		c-1.043,0.317-2.1-0.253-3.241,0.335c-0.402,0.207-1.044,0.025-1.597-0.124c-1.633-0.441-3.462-0.466-5.152,0.222
		c-1.985-1.129-4.345-0.545-6.426-1.546c-0.059-0.027-0.28,0.319-0.354,0.292c-3.046-1.145-6.789-0.862-9.22-3.146
		c-2.428-0.412-4.785-0.874-7.213-1.554c-1.818-0.509-3.228-1.498-4.848-2.33c-1.377-0.708-2.834-1.23-4.367-1.602
		c-1.863-0.452-3.694-0.34-5.587-0.86c-0.094-0.025-0.285,0.319-0.367,0.292c-0.324-0.108-0.614-0.691-0.785-0.638
		c-1.681,0.522-3.169-0.45-4.833-0.108c-1.178-1.224-2.906-0.979-4.452-1.421c-2.964-0.848-6.118,0.422-9.148-0.579
		c4.113-1.842,8.801-0.61,12.862-2.679c2.328-1.186,4.99-0.084,7.561-0.844c0.486-0.144,1.178-0.346,1.577,0.323
		c0.135-0.135,0.316-0.374,0.374-0.346c2.45,1.157,4.766,2.431,7.247,3.497c0.342,0.146,0.873-0.086,1.125,0.116
		c1.521,1.216,3.463,1.113,4.854,2.333c1.698-0.502,3.491-0.122,5.22-0.746c0.077-0.027,0.312,0.314,0.344,0.292
		c1.131-0.748,2.285-0.477,3.178-0.173c0.338,0.115,1.001,0.362,1.306,0.436c1.126,0.276,1.982,0.756,3.161,0.939
		c0.114,0.018,0.299-0.322,0.371-0.294c1.123,0.438,2.165,0.382,2.82,1.546c0.136-0.135,0.301-0.373,0.383-0.346
		c1.026,0.338,1.676,1.093,2.776,1.334c0.485,0.106,1.098,0.732,1.673,0.908c2.393,0.731,4.235,2.26,6.43,3.155
		C350.819,35.189,351.695,35.423,352.328,35.919z"/>
</g>
<g>
	<path fill="#CC7328" d="M275.694,21.689c-2.518-1.725-4.886-2.831-7.328-4.617c-0.181-0.133-0.541,0.037-0.743-0.085
		c-1.007-0.609-1.895-1.19-2.877-1.886c-0.539-0.382-1.359-0.371-1.868-0.629c-2.544-1.292-5.173-1.85-7.68-3.044
		c0.682-0.638,1.804-0.394,2.4-1.2c0.194,0.28,0.433,0.564,0.786,0.373c1.678-0.904,3.527-1.057,5.203-0.967
		c1.704,0.092,3.425,0.397,5.199,0.669c0.308,0.047,0.506,0.57,0.829,0.667c2.229,0.663,4.617,0.138,6.736,0.976
		c1.591,0.629,3.161,1.452,4.399,2.727c0.252,0.26-0.072,0.561-0.353,0.755c0.388-0.109,0.661,0.097,0.771,0.41
		c0.084,0.239,0.084,0.541,0,0.78c-0.111,0.312-0.391,0.413-0.765,0.464c-1.407,0.19,0.365-1.19-0.335-0.742
		c-1.273,0.814-0.527,2.22-1.272,3.488c-0.279-0.194-0.51-0.412-0.399-0.8c0.233,0.522-0.368,0.812-0.536,1.128
		C277.478,20.881,276.579,22.296,275.694,21.689z"/>
</g>
<g>
	<path fill="#CC7328" d="M243.196,29.037c-3.154-0.794-6.204-0.679-9.22-1.955c-0.067-0.028-0.29,0.319-0.354,0.292
		c-1.366-0.594-2.284-1.56-3.359-2.606c-0.913-0.888-2.571-0.501-3.846-0.988c-0.323-0.124-0.526-0.636-0.828-0.675
		c-1.219-0.157-2.146-1.106-3.19-1.677c2.336-0.795,4.747-0.764,7.209-1.148c0.113-0.018,0.258,0.303,0.391,0.303
		c0.137,0,0.267-0.221,0.4-0.355c0.195,0.28,0.497,0.606,0.754,0.352c0.548-0.54,1.104-0.35,1.644-0.31
		c0.145,0.01,0.27,0.313,0.402,0.313c0.136,0,0.267-0.312,0.4-0.312c0.136,0.001,0.267,0.312,0.399,0.312
		c0.137,0,0.267-0.221,0.4-0.355c0.691,0.782,1.577,0.228,2.398,0.407c1.038,0.227,1.306,1.375,2.38,1.673
		c4.715,1.304,8.852,3.449,13.215,5.536c0.307,0.147,0.517,0.395,0.406,0.784c0.268,0,0.58-0.088,0.771,0.044
		c1.058,0.732,2.099,1.28,2.796,2.378c0.216,0.339-0.113,0.746-0.346,0.694C251.588,30.749,247.583,30.141,243.196,29.037z"/>
</g>
<g>
	<path fill="#CC7328" d="M229.335,73.249c-1.592-1.219-2.176-3.25-3.304-5.042c-0.214-0.34,0.061-0.654,0.377-0.743
		c0.561-0.159,1.104,0.319,1.512,0.521c1.745,0.862,3.28,2.104,5.277,2.243c1.99,2.234,6.25,2.619,6.257,6
		c0.001,0.859-1.427-0.059-1.856,0.8c-2.451-1.003-4.841-0.9-7.221-2.367C229.761,74.28,230.09,73.827,229.335,73.249z"/>
</g>
<g>
	<path fill="#CC7328" d="M201.797,20.672c0.136,0.001,7.166,0.234,7.149,0.348c-0.045,0.309-7.775,1.358-8.139,1.188
		c-0.164-0.076-7.677,2.354-7.811,2.22C193.266,24.293,201.532,20.672,201.797,20.672z"/>
</g>
<g>
	<path fill="#010101" d="M217.198,30.428c0,0-14.8,1.8-19.2,3c-4.399,1.2-23,8.8-26,10.8c0,0-13.399,5.4-30.399,25.4
		c0,0,7.6-3.4,9.8-6.2c0,0,13.6-12.6,13.399-10c0,0,12.2-8.6,11.601-6.4c0,0,24.399-11.2,22.399-8c0,0,21.601-4.6,20.601-2.6
		c0,0,18.8,4.4,16,4.6c0,0-5.8,1.2,0.6,4.8c0,0-3.399,4.4-8.8,0.4s-2.4-1.8-7.4-0.8c0,0-2.6,0.8-7.199-3.2c0,0-5.601-4.6-14.4-1
		c0,0-30.6,12.6-32.6,13.2c0,0-3.601,2.8-6,6.4c0,0-5.801,4.4-8.801,5.8c0,0-12.8,11.6-14,13c0,0-3.399,5.2-4.199,5.6
		c0,0,6.399-3.8,8.399-5.8c0,0,14-10,19.4-10.8c0,0,4.399-3,5.2-4.4c0,0,14.399-9.2,18.6-9.2c0,0,9.2,5.2,11.6-1.8
		c0,0,5.801-1.8,11.4-0.6c0,0,3.2-2.6,2.4-4.8c0,0,1.6-1.8,2.6,2c0,0,3.4,3.6,8.2,1.6c0,0,4-0.2,2,2.2c0,0-4.4,3.8-16.2,4
		c0,0-12.4,0.6-28.8,8.2c0,0-29.8,10.4-39,20.8c0,0-6.4,8.8-11.8,10c0,0-5.801,0.8-11.801,8.2c0,0,9.801-5.8,18.801-5.8
		c0,0,4-2.4,0.199,1.2c0,0-3.6,7.6-2,13c0,0-0.6,5.2-1.399,6.8c0,0-7.8,12.8-7.8,15.2c0,2.4,1.199,12.2,1.6,12.8s-1-1.6,2.8,0.8
		s6.601,4,7.4,6.8c0.8,2.8-2-5.4-2.2-7.2s-4.4-9-3.6-11.4c0,0,1,1,1.8,2.4c0,0-0.601-0.6,0-4.2c0,0,0.8-5.2,2.2-8.4
		c1.399-3.2,3.399-7,3.8-7.8c0.399-0.8,0.399-6.6,1.8-4l3.4,2.6c0,0-2.801-2.6-0.601-4.8c0,0-1-5.6,0.8-8.2c0,0,7-8.4,8.601-9.4
		c1.6-1,0.2-0.6,0.2-0.6s6-4.2,0.199-2.6c0,0-4,1.6-7,1.6c0,0-7.6,2-3.6-2.2s14-9.6,17.8-9.4l0.8,1.6l11.2-2.4l-1.2,0.8
		c0,0-0.199-0.2,4-0.6c4.2-0.4,10,1,11.4-0.8c1.4-1.8,4.8-2.8,4.4-1.4c-0.4,1.4-0.601,3.4-0.601,3.4s5-5.8,4.4-3.6
		c-0.601,2.2-8.8,7.4-10.2,13.6l10.4-8.2l3.6-3c0,0,3.6,2.2,3.8,0.6s4.8-7.4,6-7.2c1.2,0.2,3.2-2.6,3,0s7.4,8,7.4,8s3.2-1.8,4.6-0.4
		c1.4,1.4,5.601-19.8,5.601-19.8l25-10.6l43.601-3.4l-17-6.8L217.198,30.428z"/>
</g>
<g>
	<path fill="#010101" stroke="#471212" stroke-width="2" d="M235.398,229.428c0,0-15-16.8-23.4-19.4c0,0-13.399-6.8-38,1"/>
</g>
<g>
	<path fill="#010101" stroke="#471212" stroke-width="2" d="M208.797,208.628c0,0-25.199-8-40.6-3.8c0,0-18.4,2-26.8,15.8"/>
</g>
<g>
	<path fill="#010101" stroke="#471212" stroke-width="2" d="M205.198,207.428c0,0-17-7.2-31.8-9.4c0,0-16.601-2.6-33.2,4.6
		c0,0-12.2,6-17.6,16.2"/>
</g>
<g>
	<path fill="#010101" stroke="#471212" stroke-width="2" d="M206.198,207.828c0,0-15.4-11-16.4-12.4c0,0-7-11-20-11.4
		c0,0-21.399,0.8-38.6,8.8"/>
</g>
<g>
	<path fill="#010101" d="M204.893,198.835c1.542,1.463,28.505,30.393,28.505,30.393c35.2,36.601,7.2,2.4,7.2,2.4
		c-7.601-4.8-16.801-23.6-16.801-23.6c-1.199-2.8,14,7.2,14,7.2c4,0.8,17.601,20,17.601,20c-6.8-2.4-2,4.8-2,4.8
		c2.8,2,23.201,17.601,23.201,17.601c3.6,4,7.6,5.6,7.6,5.6c14-5.199,7.6,8,7.6,8c2.4,6.801,8-4.8,8-4.8
		c11.2-16.801-5.199-14.399-5.199-14.399c-30.001,2.799-36.802-13.202-36.802-13.202c-2.399-2.4,6.4,0,6.4,0
		c8.401,2-7.2-12.4-7.2-12.4c2.4,0,11.601,6.8,11.601,6.8c10.4,9.2,12.4,7.2,12.4,7.2c18-8.8,28.4-1.2,28.4-1.2
		c2,1.6-3.601,8.4-2,13.601c1.6,5.201,6.399,17.601,6.399,17.601c-2.399,1.601-2,12.399-2,12.399
		c16.801,23.201,7.2,21.201,7.2,21.201c-15.6-0.4-0.8,7.199-0.8,7.199c3.2,2,12,9.2,12,9.2c-2.8-1.2-4.4,4-4.4,4
		c4.801,4,2,8.8,2,8.8c-6,1.2-7.199,5.2-7.199,5.2c6.8,8-3.2,8.399-3.2,8.399c3.6,4.4-1.2,16.4-1.2,16.4c-4.8,0-11.2,5.6-11.2,5.6
		c2.4,4.801-8,10.4-8,10.4c-8.399,1.6-5.6,8.4-5.6,8.4c-8,6-10.4,22-10.4,22c-0.8,10.4-3.2,13.6,2,11.6s4.4-14.4,4.4-14.4
		c-4.8-15.6,38-31.6,38-31.6c4-1.6,4.8-6.8,4.8-6.8c2,0.399,10.8,8,10.8,8c7.601,11.2,8,2,8,2c1.2-3.601-0.399-9.601-0.399-9.601
		c6-21.6-8-28-8-28c-10-33.6,4-25.199,4-25.199c2.8,5.6,13.6,10.8,13.6,10.8l3.6-2.399c-1.6-4.801,6.801-10.801,6.801-10.801
		c2.8,6.4,8.8-1.6,8.8-1.6c3.6-24.4,16-10,16-10c4,1.199,5.2-5.6,5.2-5.6c3.6-10.4,0-24,0-24c3.6-0.4,13.199,5.6,13.199,5.6
		c2.801-3.6-6.399-20.4-2.399-18s8.399,4,8.399,4c0.801-2-9.199-14.4-9.199-14.4c-4.4-2.801-9.601-23.201-9.601-23.201
		c7.2,3.6-2.8-11.6-2.8-11.6c0-3.2,6-14.4,6-14.4c-0.8-6.8,0-6.4,0-6.4c2.8,1.2,10.8,2.8,4-3.6s0.8-11.2,0.8-11.2
		c4.4-2.8-9.2-2.4-9.2-2.4c-5.199-4.4-4.8-8.4-4.8-8.4c8,2-6.399-12.4-8.8-16s7.2-8.8,7.2-8.8c13.2-3.6,1.6-6.8,1.6-6.8
		c-19.6,0.4-8.8-10.4-8.8-10.4c6,0.4,4.4-2,4.4-2c-5.2-1.2-14.801-7.6-14.801-7.6c-4-3.6-0.399-2.8-0.399-2.8c16.8,1.2-12-10-12-10
		c8,0-10-10.4-10-10.4c-2-1.6-5.2-9.2-5.2-9.2c-6-5.2-10.8-12-10.8-12c-0.4-4.4-5.2-9.2-5.2-9.2c-11.6-13.6-17.2-13.2-17.2-13.2
		c-14.8-3.6-20-2.8-20-2.8l-52.801,4.4c-26.4,12.8-18.6,33.8-18.6,33.8c6.399,8.4,15.6,4.6,15.6,4.6c4.6-6.2,16.2-4,16.2-4
		c20.4,3.2,17.801-0.4,17.801-0.4c-2.4-4.6-18.601-10.8-18.801-11.4s-9-4-9-4c-3-1.2-7.4-10.4-7.4-10.4
		c-3.2-3.4,12.601,2.4,12.601,2.4c-1.2,1,6.199,5,6.199,5c17.401-1,28.001,9.8,28.001,9.8c10.801,16.6,11,8.4,11,8.4
		c2.801-9.4-9-30.6-9-30.6c0.4-2,8.601,4.6,8.601,4.6c1.399-2,2.2,3.8,2.2,3.8c0.199,2.4,4,10.4,4,10.4c2.8,13,6.399,5.6,6.399,5.6
		l4.601,9.4c1.399,2.6-4.601,10.2-4.601,10.2c-0.2,2.8,0.601,2.6-5,10.2c-5.6,7.6-2.2,12-2.2,12c-1.399,6.6,7.4,6.2,7.4,6.2
		c2.6,2.2,6,2.2,6,2.2c1.8,2,4.2,1.4,4.2,1.4c1.6-3.8,7.8-1.8,7.8-1.8c1.4-2.4,9.6-2.8,9.6-2.8c1-2.6,1.4-4.2,4.801-4.8
		c3.399-0.6-21.2-43.6-21.2-43.6c6.399-0.8-1.8-13.2-1.8-13.2c-2.2-6.6,9.199,8,11.399,9.4c2.2,1.4,3.2,3.6,1.601,3.4
		c-1.601-0.2-3.4,2-2,2.2c1.399,0.2,14.399,15.2,17.8,25.4c3.399,10.2,9.399,14.2,15.6,20.2s5.4,30.2,5.4,30.2
		c-0.4,8.8,5.6,19.4,5.6,19.4c2,3.8-2.2,22-2.2,22c-2,2.2-0.6,3-0.6,3c1,1.2,7.8,14.4,7.8,14.4c-1.8-0.2,1.8,3.4,1.8,3.4
		c5.2,6-1.199,3-1.199,3c-6-1.6,1,8.2,1,8.2c1.199,1.8-7.801-2.8-7.801-2.8c-9.199-0.6,2.4,6.6,2.4,6.6c8.6,7.2-2.8,2.8-2.8,2.8
		c-4.601-1.8-1.4,5-1.4,5c3.2,1.6,20.4,8.6,20.4,8.6c0.399,3.801-2.601,8.801-2.601,8.801c0.4,4-1.8,7.399-1.8,7.399
		c-1.2,8.201-1.8,9-1.8,9c-4.2,0.201-11.6,14-11.6,14c-1.801,2.601-12,14.601-12,14.601c-2,7-20-0.2-20-0.2
		c-6.601,3.4-4.601,0-4.601,0c-0.399-2.199,4.4-8.199,4.4-8.199c7-2.601,4.399-13.4,4.399-13.4c4-1.4-7.199-4.2-7-5.4
		c0.2-1.199,6-2.6,6-2.6c8-2,3.601-4.4,3.601-4.4c-0.601-4,2.399-9.6,2.399-9.6c11.601-0.801,0-17.001,0-17.001
		c-10.8-7.6-11.8-13.4-11.8-13.4c12.601-8.2,4.4-20.6,4.601-24.2c0.199-3.6,1.399-25.2,1.399-25.2c-2-6.2-5-19.8-5-19.8
		c2.2-5.2,9.601-17.8,9.601-17.8c2.8-4.2,11.6-9,9.399-12s-10-1.2-10-1.2c-7.8-1.4-7.2,3.8-7.2,3.8c-1.6,1-2.399,6-2.399,6
		c-0.721,7.933-9.601,14.2-9.601,14.2c-11.199,6.2-2,10.2-2,10.2c6,6.6-3.8,6.8-3.8,6.8c-11-1.8-2.8,8.4-2.8,8.4
		c10.8,12.8,7.8,15.6,7.8,15.6c-10.2,1,2.4,10.2,2.4,10.2s-0.8-2-0.601-0.2c0.2,1.8,3.2,6,4,8c0.801,2-3.199,2.2-3.199,2.2
		c0.6,9.6-14.801,5.4-14.801,5.4s0,0-1.6,0.2c-1.6,0.2-12.8-0.6-18.6-2.8c-5.801-2.2-12.601-2.2-12.601-2.2s-4,1.8-11.601,1.6
		s-15.601,2.6-15.601,2.6c-4.399-0.4,4.2-4.8,4.4-4.6s5.8-5.4-2.2-4.8c-21.797,1.635-32.6-8.6-32.6-8.6c-2-1.4-4.601-4.2-4.601-4.2
		c-10-2,1.4,12.4,1.4,12.4c1.2,1.4-0.2,2.4-0.2,2.4c-0.8-1.6-8.6-7-8.6-7C208.586,202.655,207.224,201.321,204.893,198.835z"/>
</g>
<g>
	<path fill="#471212" d="M180.998,187.228c0,0,11.601,5.6,14.2,8.4c2.6,2.8,16.6,14.2,16.6,14.2s-5.399-2-8-3.8
		c-2.6-1.8-13.399-10-13.399-10S186.598,190.028,180.998,187.228z"/>
</g>
<g>
	<path fill="#99CA3C" d="M122.989,156.031c0.337-0.148-0.187-2.86-0.391-3.403c-1.022-2.726-10-4.2-10-4.2
		c-0.228,1.365-0.282,2.961-0.177,4.599C112.421,153.027,117.29,158.546,122.989,156.031z"/>
</g>
<g>
	<path fill="#659A41" d="M122.989,155.831c-0.449,0.158-0.015-2.734-0.191-3.203c-1.021-2.726-10.199-4.3-10.199-4.3
		c-0.228,1.365-0.282,2.961-0.177,4.599C112.421,152.927,116.69,158.046,122.989,155.831z"/>
</g>
<g>
	<path fill="#010101" d="M118.598,155.974c-0.625,0-1.131-1.14-1.131-2.546c0-1.405,0.506-2.545,1.131-2.545s1.132,1.14,1.132,2.545
		C119.73,154.834,119.223,155.974,118.598,155.974z"/>
</g>
<g>
	<path fill="#010101" d="M118.598,153.428"/>
</g>
<g>
	<path fill="#010101" d="M72.998,254.03c0,0-5.6,10,19.2,4c0,0,14-1.201,16.4-3.601c1.199,0.8,9.565,3.733,12.399,4.399
		c6.8,1.601,15.2-8.4,15.2-8.4s4.6-10.5,7.4-10.5c2.8,0-0.4,1.6-0.4,1.6s-6.6,10.101-6.2,11.701c0,0-5.2,20-21.2,20.801
		c0,0-16.149,0.949-14.8,6.799c0,0,8.8-2.399,11.2,0c0,0,10.8-0.399,2.8,6l-6.8,11.601c0,0,0.14,3.918-10,0.399
		c-9.8-3.399-20.1-16.299-20.1-16.299S62.148,267.979,72.998,254.03z"/>
</g>
<g>
	<path fill="#E5999A" d="M71.797,258.03c0,0-2,9.6,34.801-0.801c0,0,4.399,0,6.8,0.801c2.399,0.799,14.399,3.6,16.399,2.399
		c0,0-7.199,13.601-18.8,12c0,0-13.2,1.601-12.8,6.399c0,0,4,7.201,8.8,9.601c0,0,2.8,2.399,2.4,5.601c-0.4,3.199-3.2,4.799-5.2,5.6
		c-2,0.8-5.2-2.4-6.8-2.4c-1.601,0-10-6.4-14.4-11.199c-4.399-4.801-12.8-16.801-12.399-19.601
		C70.998,263.629,71.797,258.03,71.797,258.03z"/>
</g>
<g>
	<path fill="#B26666" d="M74.998,275.479c2.601,3.95,5.8,8.15,8,10.551c4.4,4.799,12.8,11.199,14.4,11.199c1.6,0,4.8,3.2,6.8,2.4
		c2-0.801,4.8-2.4,5.2-5.6c0.399-3.201-2.4-5.601-2.4-5.601c-3.065-1.533-5.806-5.024-7.385-7.349c0,0,0.185,2.549-5.015,1.748
		c-5.2-0.799-10.4-3.6-12-6.799c-1.601-3.201-4-5.601-2.4-2c1.6,3.6,4,7.199,5.6,7.6c1.601,0.4,1.2,1.6-1.199,1.199
		c-2.4-0.399-5.2-0.799-9.601-6V275.479z"/>
</g>
<g>
	<path fill="#982B1F" d="M72.398,254.429c0,0,1.8-13.601,3-17.601c0,0-0.8-6.8,1.6-11c2.4-4.2,4.4-10.4,7.4-15.8s3.2-9.4,7.2-11
		s10-10.2,12.8-11.2s2.6-0.2,2.6-0.2s6.8-14.8,20.4-10.8c0,0-16.2-2.8-0.4-12.2c0,0-4.8,1.1-1.5-5.9c2.201-4.668,1.7,2.1-9.3,13.9
		c0,0-5,8.6-10.2,11.6s-17.2,10-18.399,13.8c-1.2,3.8-4.4,9.6-6.4,11.2c-2,1.6-4.8,5.8-5.2,9.2c0,0-1.2,4-2.6,5.2
		c-1.4,1.2-1.601,4.4-1.601,6.4s-2,4.8-1.8,7.2c0,0,0.8,19.001,0.4,21.001L72.398,254.429z"/>
</g>
<g>
	<path fill="#FFFFFF" d="M63.797,259.03c0,0-2-1.4-6.399,4.6c0,0,7.3,33,7.3,34.4c0,0,1.1-2.101-0.2-9.301
		c-1.3-7.199-2.2-19.9-2.2-19.9L63.797,259.03z"/>
</g>
<g>
	<path fill="#982B1F" d="M85.398,198.428c0,0-17.601,3.2-17.2,32.4l-0.8,24.801c0,0-1.2-25.601-2.4-27.201s2.8-12.8-0.399-6.8
		c0,0-14,14-6,35.2c0,0,1.5,3.301-1.5-1.299c0,0-4.601-12.602-3.5-19.001c0,0,0.199-2.2,2.1-5c0,0,8.6-11.7,11.3-14
		c0,0,1.8-14.4,17.2-19.6C84.198,197.928,89.898,195.628,85.398,198.428z"/>
</g>
<g>
	<path fill="#010101" d="M224.797,132.228c0.66-0.354,0.651-1.324,1.231-1.497c1.149-0.344,1.313-1.411,1.831-2.195
		c0.873-1.319,1.066-2.852,1.647-4.343c0.272-0.7,0.3-1.655-0.014-2.315c-1.174-2.481-1.876-4.93-3.317-7.356
		c-0.269-0.45-0.53-1.244-0.731-1.842c-0.463-1.384-1.72-2.375-2.58-3.695c-0.288-0.441,0.237-1.366-0.479-1.45
		c-0.897-0.105-2.347-0.685-2.579,0.341c-0.588,2.587,0.423,5.11,1.391,7.552c-0.782,0.692-0.448,1.613-0.296,2.38
		c0.71,3.606-0.488,6.958-1.249,10.432c-0.023,0.104,0.319,0.302,0.291,0.364c-1.222,2.686-2.674,5.131-4.493,7.512
		c-0.758,0.992-1.63,1.908-2.127,2.971c-0.368,0.787-0.776,1.753-0.526,2.741c-3.435,2.78-5.685,6.625-8.296,10.471
		c-0.462,0.68-0.171,1.889,0.38,2.158c0.813,0.398,1.77-0.626,2.239-1.472c0.39-0.698,0.742-1.348,1.233-1.991
		c0.133-0.175-0.046-0.594,0.089-0.715c2.633-2.347,4.302-5.283,6.755-7.651c1.95-0.329,3.487-1.327,5.235-2.34
		c0.308-0.179,0.832,0.07,1.122-0.125c1.753-1.177,1.751-3.213,1.856-5.123C223.461,134.156,223.658,132.839,224.797,132.228z"/>
</g>
<g>
	<path fill="#010101" d="M215.957,127.762c0.124-0.077-0.03-0.5,0.078-0.716c0.162-0.324,0.565-0.512,0.728-0.836
		c0.108-0.216-0.055-0.596,0.082-0.738c2.333-2.447,2.59-5.471,1.554-8.444c1.023-0.62,1.085-1.882,0.66-2.729
		c-0.854-1.7-1.046-3.626-2.021-5.169c-0.802-1.269-2.38-2.513-3.751-1.21c-0.421,0.4-0.742,1.187-0.464,1.899
		c0.064,0.163,0.349,0.309,0.322,0.391c-0.107,0.324-0.653,0.548-0.659,0.82c-0.03,1.496-0.984,3.007-0.354,4.336
		c0.772,1.629,1.592,3.486,2.268,5.262c-1.234,2.116-0.201,4.565-1.954,6.442c-0.136,0.146-0.127,0.532-0.005,0.734
		c0.292,0.486,0.698,0.892,1.184,1.184c0.202,0.121,0.55,0.123,0.75-0.001C214.951,128.625,215.349,128.138,215.957,127.762z"/>
</g>
<g>
	<path fill="#010101" d="M278.769,117.451c1.389,1.792,1.679,4.587-0.37,5.977c0.55,3.309,3.901,1.33,6,0.8
		c-0.109-0.388,0.118-0.732,0.401-0.737c1.057-0.015,1.736-1.047,2.799-0.863c0.434-1.557,2.071-2.259,2.716-3.639
		c1.726-3.695,1.135-7.968-1.449-11.214c-0.202-0.254,0.015-0.771-0.109-1.133c-0.756-2.211-2.823-2.526-4.758-3.214
		c-1.177-3.875-1.838-7.906-3.6-11.6c-1.614-0.25-2.313-1.989-3.649-2.709c-1.333-0.719-1.9,0.86-1.859,1.906
		c0.007,0.205,0.459,0.429,0.289,0.794c-0.076,0.164-0.336,0.275-0.336,0.409c0.001,0.135,0.222,0.266,0.355,0.4
		c-0.918,0.82-2.341,1.297-2.636,2.442c-0.954,3.71,1.619,6.835,3.287,10.036c0.591,1.135-0.146,2.406-0.905,3.614
		c-0.438,0.695-0.33,1.822-0.054,2.678C275.643,113.729,277.234,115.468,278.769,117.451z"/>
</g>
<g>
	<path fill="#010101" d="M241.609,135.837c-1.487,1.851-4.899,4.42-1.982,6.348c0.194,0.129,0.564,0.133,0.737-0.001
		c2.021-1.565,4.024-2.468,6.46-3.05c0.124-0.029,0.398,0.438,0.767,0.277c1.613-0.703,3.623-0.645,4.808-1.983
		c3.767,0.224,7.332-0.892,10.723-2.2c1.161-0.448,2.432-1.007,3.632-1.509c1.376-0.576,2.58-1.504,3.692-2.645
		c0.133-0.136,0.487-0.046,0.754-0.046c-0.04-0.863,0.922-0.99,1.169-1.612c0.092-0.232-0.058-0.628,0.075-0.73
		c2.138-1.63,3.058-3.648,1.889-6.025c-0.285-0.578-0.534-1.196-1.1-1.672c-1.085-0.911-2.188-0.057-3.234-0.361
		c-0.159,0.628-0.888,0.456-1.273,0.654c-0.859,0.439-2.192-0.146-3.052,0.292c-1.361,0.695-2.603,0.864-4.024,1.241
		c-0.313,0.082-1.09-0.014-1.25,0.613c-0.134-0.134-0.282-0.368-0.388-0.346c-1.908,0.396-3.168,0.61-4.47,2.302
		c-0.103,0.133-0.545-0.046-0.704,0.089c-0.957,0.808-1.361,2.042-2.463,2.714c-0.201,0.123-0.553-0.045-0.747,0.084
		c-0.646,0.431-1.013,1.072-1.654,1.519c-0.329,0.229-0.729-0.096-0.697-0.352c0.245-1.947,0.897-3.734,0.323-5.61
		c2.077-2.52,4.594-4.469,6.399-7.2c0.016-2.166,0.707-4.312,0.595-6.389c-0.011-0.193-0.299-0.926-0.425-1.273
		c-0.312-0.854,0.595-1.92-0.25-2.644c-1.403-1.203-2.695-0.327-3.52,1.106c-1.838,0.39-3.904,1.083-5.482-0.151
		c-1.007-0.787-1.585-1.693-2.384-2.749c-0.985-1.302-0.65-2.738-0.58-4.302c0.006-0.128-0.309-0.264-0.309-0.398
		c0.001-0.135,0.221-0.266,0.354-0.4c-0.706-0.626-0.98-1.684-2-2c0.306-1.092-0.371-1.976-1.242-2.278
		c-1.994-0.691-3.672,1.221-5.563,1.294c-0.514,0.019-0.981-1.019-1.63-1.344c-0.433-0.216-1.136-0.249-1.498,0.017
		c-0.688,0.504-1.277,0.618-2.035,0.823c-1.617,0.436-2.895,1.53-4.375,2.385c-1.485,0.857-2.44,2.294-3.52,3.614
		c-0.941,1.152-1.077,3.566,0.343,4.066c1.843,0.65,3.146-2.053,5.112-1.727c0.313,0.051,0.519,0.362,0.408,0.75
		c0.39,0.109,0.607-0.12,0.8-0.4c0.858,1.019,2.022,1.356,2.96,2.229c0.971,0.904,2.717,0.486,3.731,1.483
		c1.529,1.502,0.97,4.183,2.909,5.488c-0.586,1.313-1.193,2.59-1.528,4.017c-0.282,1.206,0.712,2.403,1.923,2.312
		c1.259-0.094,1.521-0.853,2.005-1.929c0.268,0.267,0.736,0.564,0.695,0.78c-0.457,2.387-1.483,4.38-1.941,6.811
		c-0.06,0.317-0.364,0.519-0.754,0.409c-0.468,4.149-4.52,6.543-7.064,9.708c-0.403,0.502-0.407,1.751,0.002,2.154
		c1.403,1.387,3.363-0.159,5.063-0.662c0.214-1.206,1.072-2.148,2.404-2.092c0.256,0.01,0.491-0.532,0.815-0.662
		c0.348-0.138,0.85,0.086,1.136-0.112c1.729-1.195,3.137-2.301,4.875-3.49c0.192-0.131,0.536,0.028,0.752-0.08
		c0.325-0.162,0.512-0.549,0.835-0.734c0.348-0.2,0.59,0.09,0.783,0.37c-0.646,0.349-0.65,1.306-1.232,1.508
		c-0.774,0.268-1.336,0.781-2.01,1.228c-0.292,0.193-0.951-0.055-1.055,0.124C243.502,134.516,242.319,134.954,241.609,135.837z"/>
</g>
<g>
	<path fill="#010101" d="M186.198,86.428c0,0-9.238-2.872-20.4,22.8c0,0-2.399,5.2-4.8,7.2c-2.399,2-13.6,5.6-15.6,9.6l-10.4,16
		c0,0,14.8-16,18-18.4c0,0,8-8.4,4.8-1.6c0,0-14,10.8-12.8,20c0,0-5.6,14.4-6.399,16.4c0,0,16-32,18.399-33.2
		c2.4-1.2,3.601-1.2,2.4,2.4c-1.2,3.6-1.601,20-4.4,22c0,0,8-20.4,7.2-23.6c0,0,3.2-3.6,5.6,1.6l-1.199,16l4.399,12
		c0,0-2.399-11.2-0.8-26.8c0,0-2-10.4,2-4.8s13.6,11.6,13.6,16.4c0,0-5.199-17.6-14.399-22.4l-4,6l-1.2-2c0,0-3.6-0.8,0.8-7.6
		c4.4-6.8,4-7.6,4-7.6s6.4,7.2,8,7.2c0,0,13.2-7.6,14.4,16.8c0,0,6.8-14.4-2.4-21.2c0,0-14.8-2-13.6-7.2l7.2-12.4
		c3.6-5.2,2-2.4,2-2.4L186.198,86.428z"/>
</g>
<g>
	<path fill="#010101" d="M166.198,102.828c0,0-12.8,0-16,5.2l-7.2,9.6c0,0,17.2-10,21.2-11.2S166.198,102.828,166.198,102.828z"/>
</g>
<g>
	<path fill="#010101" d="M126.198,109.228c0,0-2,1.2-2.4,4c-0.399,2.8-2.8,3.2-2,6c0.801,2.8,2.801,5.2,2.801,1.2s1.6-6,2.399-7.2
		C127.797,112.028,129.398,107.628,126.198,109.228z"/>
</g>
<g>
	<path fill="#010101" d="M117.398,170.428c0,0-8.4-4-11.601-7.6c-3.199-3.6-2.747,1.566-7.6,1.2c-5.847-0.441-4.8-16.4-4.8-16.4
		l-4,7.6c0,0-1.2,14.4,6.8,12c3.907-1.172,5.2,0.4,3.6,1.2c-1.6,0.8,5.601,1.2,2.801,2.8c-2.801,1.6,11.6-3.6,9.199,6.8
		L117.398,170.428z"/>
</g>
<g>
	<path fill="#010101" d="M104.797,184.828c0,0-15.399,4.4-19-5.2c0,0-4.8,2.4-2.6,5.4s3.4,3.4,3.4,3.4s5.399,1.2,4.8,2
		c-0.601,0.8-3,4.2-3,4.2S98.598,188.628,104.797,184.828z"/>
</g>
<g>
	<path fill="#FFFFFF" d="M333.199,263.03c-0.427,2.133-2.098,2.935-4,3.6c-1.917-0.958-4.515-4.064-6.4-2
		c-0.474-0.48-1.253-0.54-1.597-1.202c-0.465-0.897-0.192-1.944-0.535-2.742c-0.545-1.272-1.254-2.638-1.067-4.056
		c1.806-0.712,2.4-2.618,1.927-4.381c-0.069-0.258-0.498-0.454-0.298-0.803c0.186-0.324,0.504-0.551,0.771-0.817
		c-0.135,0.135-0.279,0.368-0.391,0.348c-0.61-0.106-0.486-0.743-0.356-1.13c0.585-1.746,2.6-2.01,3.947-0.818
		c0.256-0.564,0.765-0.371,1.2-0.399c-0.05-0.579,0.357-1.106,0.556-1.526c0.519-1.098,2.147,0.008,2.944-0.604
		c1.076-0.825,2.139-1.524,3.217-0.922c1.81,1.014,3.519,2.226,4.717,3.967c0.575,0.834,0.815,2.115,0.757,3.072
		c-0.037,0.647-1.419,0.295-1.762,1.225c-0.645,1.748,1.187,2.268,1.942,3.605c0.198,0.349-0.066,0.652-0.381,0.75
		c-0.411,0.129-1.195-0.061-1.058,0.393C338.304,261.782,335.547,262.459,333.199,263.03z"/>
</g>
<g>
	<path fill="#FFFFFF" d="M323.598,282.629c-0.008-1.738-1.608-3.494-0.399-5.2c0.135,0.134,0.266,0.354,0.4,0.354
		s0.266-0.221,0.399-0.354c1.495,2.216,5.147,3.144,5.005,5.99c-0.021,0.446-1.108,1.364-0.205,2.01
		c-1.813,1.349-1.867,3.718-2.8,5.601c-1.237-0.287-2.45-0.649-3.6-1.201c0.352-1.485,0.235-3.17,1.055-4.489
		C323.888,284.641,323.601,283.562,323.598,282.629z"/>
</g>
<g>
	<path fill="#CCCCCC" d="M157.398,273.629c0,0-16.858,10.136-2.8-5.2c8.8-9.601,18.8-15.2,18.8-15.2s10.399-4.4,14-5.601
		c3.6-1.2,18.8-6.4,22-6.8s12.8-4.4,19.6-0.4s14.8,8.4,14.8,8.4s-16.399-8.4-20-6c-3.6,2.4-10.8,2-16.8,5.2c0,0-14.8,4.401-18,6.401
		s-13.6,13.601-15.2,12.8c-1.6-0.8,0.4-1.199,1.601-4c1.2-2.8-0.8-4.4-8.8,2S157.398,273.629,157.398,273.629z"/>
</g>
<g>
	<path fill="#010101" d="M164.803,267.663c0,0,1.409-13.041,9.888-11.375c0,0,8.226-4.17,10.948-6.139c0,0,8.139-1.701,9.448-2.318
		c18.479-8.7,33.198-4.181,33.745-5.301c0.546-1.119,20.171,5.999,23.78,10.084c0.391,0.442-10.231-5.598-19.929-7.488
		c-8.273-1.614-29.875,0.246-40.781,5.783c-2.973,1.509-11.918,7.293-14.449,7.182C174.922,257.978,164.803,267.663,164.803,267.663
		z"/>
</g>
<g>
	<path fill="#CCCCCC" d="M160.998,293.229c0,0-15.2-2.4,1.601-4c0,0,18-2,22-7.199c0,0,13.6-9.201,16.399-9.601s32.8-7.601,33.2-10
		s6-2.399,7.6-1.601c1.601,0.801,0.801,2-2,2.801c-2.8,0.8-34,17.199-40.399,18.4c-6.4,1.199-18,8.799-22.8,10
		C171.797,293.229,160.998,293.229,160.998,293.229z"/>
</g>
<g>
	<path fill="#010101" d="M180.518,285.831c0,0-8.582-0.828,0.019-1.647c0,0,8.816-3.424,10.864-6.087c0,0,6.964-4.711,8.396-4.915
		c1.435-0.205,15.395-3.892,15.6-5.12s34.271-13.81,38.69-10.619c2.911,2.101-6.989,0.424-16.624,4.834
		c-1.354,0.619-35.208,15.207-38.484,15.82c-3.277,0.615-9.216,4.506-11.674,5.12C184.848,283.831,180.518,285.831,180.518,285.831z
		"/>
</g>
<g>
	<path fill="#010101" d="M172.598,288.03c0,0,5.199-0.4,4,1.199c-1.2,1.6-3.601,0.801-3.601,0.801L172.598,288.03z"/>
</g>
<g>
	<path fill="#010101" d="M165.398,289.629c0,0,5.2-0.4,4,1.199c-1.2,1.601-3.601,0.801-3.601,0.801L165.398,289.629z"/>
</g>
<g>
	<path fill="#010101" d="M154.998,291.229c0,0,5.2-0.4,4,1.2s-3.6,0.8-3.6,0.8L154.998,291.229z"/>
</g>
<g>
	<path fill="#010101" d="M147.398,292.03c0,0,5.2-0.4,4,1.199s-3.601,0.801-3.601,0.801L147.398,292.03z"/>
</g>
<g>
	<path fill="#010101" d="M185.797,252.429c0,0,4.4,0,3.2,1.601c-1.2,1.6-4.399,1.199-4.399,1.199L185.797,252.429z"/>
</g>
<g>
	<path fill="#010101" d="M175.797,258.03c0,0,6.507-2.142,4,1.199c-1.199,1.6-3.6,0.801-3.6,0.801L175.797,258.03z"/>
</g>
<g>
	<path fill="#010101" d="M164.598,262.829c0,0,5.199-0.399,4,1.201c-1.2,1.6-3.601,0.799-3.601,0.799L164.598,262.829z"/>
</g>
<g>
	<path fill="#010101" d="M156.998,268.829c0,0,5.2-0.399,4,1.201c-1.2,1.6-3.6,0.799-3.6,0.799L156.998,268.829z"/>
</g>
<g>
	<path fill="#010101" d="M150.198,273.629c0,0,5.2-0.4,4,1.199c-1.2,1.601-3.6,0.801-3.6,0.801L150.198,273.629z"/>
</g>
<g>
	<path fill="#010101" d="M189.28,280.026c0,0,6.921-0.531,5.324,1.598c-1.598,2.13-4.792,1.064-4.792,1.064L189.28,280.026z"/>
</g>
<g>
	<path fill="#010101" d="M199.68,275.226c0,0,6.921-0.532,5.323,1.597c-1.597,2.131-4.792,1.065-4.792,1.065L199.68,275.226z"/>
</g>
<g>
	<path fill="#010101" d="M210.48,270.827c0,0,6.921-0.532,5.324,1.597c-1.598,2.13-4.792,1.065-4.792,1.065L210.48,270.827z"/>
</g>
<g>
	<path fill="#010101" d="M220.879,266.026c0,0,6.922-0.531,5.324,1.598c-1.597,2.13-4.792,1.064-4.792,1.064L220.879,266.026z"/>
</g>
<g>
	<path fill="#010101" d="M193.28,248.026c0,0,6.921-0.531,5.324,1.598c-1.598,2.13-5.592,1.865-5.592,1.865L193.28,248.026z"/>
</g>
<g>
	<path fill="#010101" d="M203.28,244.826c0,0,6.921-0.532,5.324,1.597c-1.598,2.13-5.992,1.864-5.992,1.864L203.28,244.826z"/>
</g>
<g>
	<path fill="#010101" d="M180.598,284.829c0,0,5.199-0.399,4,1.201c-1.2,1.6-3.601,0.799-3.601,0.799L180.598,284.829z"/>
</g>
<g>
	<path fill="#982B1F" d="M107.398,185.628c0,0-4.4,8.8-4.8,12c0,0,0.8-8.8,2-10.8C105.797,184.828,107.398,185.628,107.398,185.628z
		"/>
</g>
<g>
	<path fill="#982B1F" d="M88.998,199.628c0,0-3.2,14.4-2.8,17.2c0,0-1.2-11.6-0.8-12.8
		C85.797,202.828,88.998,199.628,88.998,199.628z"/>
</g>
<g>
	<path fill="#CCCCCC" d="M109.797,125.028l-0.199,3.2l-2.2,0.2c0,0,14.2,12.6,14.8,20.2
		C122.198,148.628,122.998,140.428,109.797,125.028z"/>
</g>
<g>
	<path fill="#010101" d="M113.782,126.293c-0.431-0.416-0.212-1.161-0.62-1.421c-0.809-0.516,1.298-0.573,1.07-1.289
		c-0.383-1.206-0.196-1.228-0.318-2.503c-0.057-0.598,0.531-2.138,0.916-2.578c1.446-1.652,0.122-4.584,1.763-6.135
		c0.304-0.289,0.68-0.841,0.965-1.259c0.658-0.963,1.843-1.451,2.793-2.279c0.317-0.276,0.117-1.103,0.686-1.011
		c0.714,0.115,1.955-0.015,1.91,0.826c-0.113,2.12-1.442,3.84-2.722,5.508c0.451,0.704-0.007,1.339-0.291,1.896
		c-1.335,2.62-1.146,5.461-1.32,8.301c-0.005,0.085-0.312,0.163-0.304,0.216c0.353,2.335,0.937,4.534,1.815,6.763
		c0.366,0.93,0.837,1.825,0.987,2.752c0.111,0.686,0.214,1.519-0.194,2.224c2.035,2.89,0.727,5.541,1.896,9.072
		c0.207,0.625,1.898,2.539,1.436,2.378c-2.513-0.871-2.625-1.269-2.802-2.022c-0.146-0.623-0.476-2-0.713-2.602
		c-0.064-0.164-0.235-2.048-0.313-2.17c-1.513-2.382-0.154-2.206-1.524-4.564c-1.428-0.68-2.395-1.784-3.518-2.946
		c-0.197-0.204,0.945-0.928,0.765-1.141c-1.092-1.289-2.245-2.056-1.909-3.549C114.389,128.07,114.526,127.013,113.782,126.293z"/>
</g>
<g>
	<path fill="#010101" d="M110.198,128.028c0,0,0.4,6.8,2.8,8.4c2.4,1.6,1.2,0.8-2-0.4c-3.2-1.2-2-2-2-2s-2.8,0.4-0.399,2.4
		c2.399,2,6,4.4,4.399,4.4c-1.6,0-9.2-4-9.2-6.8c0-2.8-1-6.9-1-6.9s1.101-0.8,5.9-0.7
		C108.698,126.428,110.098,127.128,110.198,128.028z"/>
</g>
<g>
	<path fill="#FFFFFF" stroke="#010101" stroke-width="0.1" d="M109.398,146.628c0,0-8.521-2.791-27,0.6c0,0,9.031-2.078,27.8,0.2
		C120.498,148.678,109.398,146.628,109.398,146.628z"/>
</g>
<g>
	<path fill="#FFFFFF" stroke="#010101" stroke-width="0.1" d="M111.496,146.557c0,0-8.246-3.518-26.951-1.737
		c0,0,9.179-1.289,27.68,2.603C122.377,149.559,111.496,146.557,111.496,146.557z"/>
</g>
<g>
	<path fill="#FFFFFF" stroke="#010101" stroke-width="0.1" d="M113.284,146.65c0,0-7.962-4.121-26.747-3.736
		c0,0,9.248-0.604,27.409,4.654C123.912,150.453,113.284,146.65,113.284,146.65z"/>
</g>
<g>
	<path fill="#FFFFFF" stroke="#010101" stroke-width="0.1" d="M114.554,146.873c0,0-6.824-4.307-23.698-5.405
		c0,0,8.339,0.17,24.22,6.279C123.792,151.1,114.554,146.873,114.554,146.873z"/>
</g>
<g>
	<path fill="#FFFFFF" stroke="#010101" stroke-width="0.1" d="M229.837,157.389c0,0-0.93,0.644-0.716-0.537
		c0.215-1.181,28.423-14.351,32.037-14.101C261.159,142.751,230.911,155.957,229.837,157.389z"/>
</g>
<g>
	<path fill="#FFFFFF" stroke="#010101" stroke-width="0.1" d="M226.444,158.028c0,0-0.876,0.715-0.755-0.479
		c0.121-1.194,27.208-16.539,30.83-16.573C256.519,140.976,227.402,156.517,226.444,158.028z"/>
</g>
<g>
	<path fill="#FFFFFF" stroke="#010101" stroke-width="0.1" d="M223.158,159.403c0,0-0.828,0.772-0.786-0.428
		c0.042-1.199,19.859-16.696,29.671-18.57C252.042,140.405,234.013,148.532,223.158,159.403z"/>
</g>
<g>
	<path fill="#FFFFFF" stroke="#010101" stroke-width="0.1" d="M220.282,161.266c0,0-0.745,0.694-0.707-0.385
		c0.038-1.08,17.872-15.027,26.703-16.713C246.278,144.168,230.052,151.482,220.282,161.266z"/>
</g>
<g>
	<path fill="#CCCCCC" d="M188.598,309.229c0,0-15.2-2.4,1.6-4c0,0,18-2,22-7.199c0,0,13.6-9.201,16.4-9.601
		c2.8-0.399,19.199-4,19.6-6.399c0.4-2.4,6.4-4.801,8-4c1.6,0.799,1.6,10-1.2,10.799c-2.8,0.801-21.6,8-28,9.201
		c-6.399,1.199-18,8.799-22.8,10C199.398,309.229,188.598,309.229,188.598,309.229z"/>
</g>
<g>
	<path fill="#010101" d="M261.598,271.829c0,0-3,1.601-4.2,4.201c0,0-6.4,10.6-20.601,13.799c0,0-23,9-30.8,11
		c0,0-13.399,5-20.8,4.201c0,0-7,0.199-0.8,1.799c0,0,20.2-2,23.6-3.799c0,0,15.601-5.201,18.601-7.801s21.199-7.6,23.399-9.6
		S261.998,275.229,261.598,271.829z"/>
</g>
<g>
	<path fill="#010101" d="M202.879,303.339c0,0,5.229-0.226,4.076,1.323c-1.152,1.55-3.601,0.676-3.601,0.676L202.879,303.339z"/>
</g>
<g>
	<path fill="#010101" d="M195.678,304.692c0,0,5.228-0.227,4.075,1.322c-1.152,1.55-3.601,0.678-3.601,0.678L195.678,304.692z"/>
</g>
<g>
	<path fill="#010101" d="M185.249,305.939c0,0,5.229-0.227,4.076,1.323c-1.153,1.549-3.601,0.676-3.601,0.676L185.249,305.939z"/>
</g>
<g>
	<path fill="#010101" d="M177.615,306.483c0,0,5.229-0.226,4.076,1.323c-1.153,1.55-3.602,0.677-3.602,0.677L177.615,306.483z"/>
</g>
<g>
	<path fill="#010101" d="M219.413,295.942c0,0,6.96-0.302,5.425,1.76c-1.533,2.063-4.793,0.9-4.793,0.9L219.413,295.942z"/>
</g>
<g>
	<path fill="#010101" d="M229.728,291.516c0,0,5.959-3.301,5.425,1.762c-0.271,2.556-4.793,0.899-4.793,0.899L229.728,291.516z"/>
</g>
<g>
	<path fill="#010101" d="M238.86,288.702c0,0,7.159-3.7,5.425,1.762c-0.778,2.449-4.794,0.9-4.794,0.9L238.86,288.702z"/>
</g>
<g>
	<path fill="#010101" d="M248.374,283.877c0,0,4.359-4.901,5.425,1.761c0.406,2.538-4.793,0.899-4.793,0.899L248.374,283.877z"/>
</g>
<g>
	<path fill="#010101" d="M210.832,300.425c0,0,5.229-0.228,4.076,1.323c-1.153,1.549-3.602,0.676-3.602,0.676L210.832,300.425z"/>
</g>
<g>
	<path fill="#FFFFFF" stroke="#010101" stroke-width="0.1" d="M246.432,179.031c0,0-0.727,0.665-0.728-0.406
		c0-1.07,17.484-14.334,26.327-15.718C272.032,162.907,255.933,169.636,246.432,179.031z"/>
</g>
<g>
	<path fill="#010101" d="M249.398,242.828c0,0,22.001,22.401,31.201,26c0,0,9.199,11.201,5.199,37.201c0,0-3.199,7.6-6.399-13.201
		c0,0,3.2-25.199-8-9.199c0,0-8.401-9.9-2.001-9.6c0,0,3.201,2,3.601,0.399c0.4-1.601-7.601-15.2-24.801-29.601
		C230.998,230.428,249.398,242.828,249.398,242.828z"/>
</g>
<g>
	<path fill="#FFFFFF" stroke="#010101" stroke-width="0.1" d="M190.998,281.629c0,0-0.2-1.801,1.601-1c1.8,0.8,96.001,7,127.601,31
		C320.199,311.629,274.999,288.429,190.998,281.629z"/>
</g>
<g>
	<path fill="#FFFFFF" stroke="#010101" stroke-width="0.1" d="M201.398,277.229c0,0-0.2-1.8,1.6-1
		c1.8,0.801,138.401-0.199,162.001,32.2C364.999,308.429,342.999,283.229,201.398,277.229z"/>
</g>
<g>
	<path fill="#FFFFFF" stroke="#010101" stroke-width="0.1" d="M212.998,273.229c0,0-0.2-1.8,1.601-1
		c1.8,0.801,175.2-12.199,198.801,20.2C413.399,292.429,403.798,266.829,212.998,273.229z"/>
</g>
<g>
	<path fill="#FFFFFF" stroke="#010101" stroke-width="0.1" d="M222.998,268.429c0,0-0.2-1.8,1.601-1
		c1.8,0.8,124.001-37.801,147.601-5.399C372.199,262.03,358.798,237.428,222.998,268.429z"/>
</g>
<g>
	<path fill="#FFFFFF" stroke="#010101" stroke-width="0.1" d="M164.998,291.229c0,0-0.2-1.8,1.601-1c1.8,0.801,19.6,3,21.6,41.801
		C188.198,332.03,180.998,290.03,164.998,291.229z"/>
</g>
<g>
	<path fill="#FFFFFF" stroke="#010101" stroke-width="0.1" d="M156.198,292.829c0,0-0.2-1.799,1.6-1c1.801,0.801,16-3.799,13.2,35
		C170.998,326.829,172.198,291.629,156.198,292.829z"/>
</g>
<g>
	<path fill="#FFFFFF" stroke="#010101" stroke-width="0.1" d="M148.198,293.229c0,0-0.2-1.8,1.6-1
		c1.801,0.801,17.2,1.4,4.801,23.801C154.598,316.03,164.198,292.03,148.198,293.229z"/>
</g>
<g>
	<path fill="#FFFFFF" stroke="#010101" stroke-width="0.1" d="M195.524,248.893c0,0-0.444,1.999,1.104,0.782
		c16.068-12.625,48.511-71.527,104.195-77.161C300.824,172.514,262.516,160.404,195.524,248.893z"/>
</g>
<g>
	<path fill="#FFFFFF" stroke="#010101" stroke-width="0.1" d="M206.724,247.093c0,0-1.363-1.192,0.505-1.817
		c1.868-0.625,114.31-73.128,153.595-65.162C360.824,180.114,333.717,172.604,206.724,247.093z"/>
</g>
<g>
	<path fill="#FFFFFF" stroke="#010101" stroke-width="0.1" d="M185.882,253.196c0,0-0.509,1.599,1.202,0.623
		c8.976-5.121,12.59-62.332,56.167-63.586C243.251,190.232,210.84,175.518,185.882,253.196z"/>
</g>
<g>
	<path fill="#FFFFFF" stroke="#010101" stroke-width="0.1" d="M165.959,264.221c0,0-1.077,1.286,0.876,1.032
		c10.246-1.332,31.651-42.603,76.091-37.524C242.926,227.729,210.959,213.383,165.959,264.221z"/>
</g>
<g>
	<path fill="#FFFFFF" stroke="#010101" stroke-width="0.1" d="M177.198,258.095c0,0-0.811,1.469,1.058,0.844
		c9.8-3.274,22.884-47.886,67.472-51.433C245.727,207.506,211.601,199.563,177.198,258.095z"/>
</g>
<g>
	<path fill="#FFFFFF" stroke="#010101" stroke-width="0.1" d="M158.919,269.34c0,0-0.873,1.042,0.709,0.836
		c8.3-1.079,25.638-34.508,61.634-30.394C221.262,239.782,195.369,228.162,158.919,269.34z"/>
</g>
<g>
	<path fill="#FFFFFF" stroke="#010101" stroke-width="0.1" d="M151.321,275.249c0,0-1.005,1.046,0.586,0.928
		c4.168-0.309,34.806-33.388,53.274-17.887C205.181,258.29,193.166,239.567,151.321,275.249z"/>
</g>
<g>
	<path fill="#FFFFFF" stroke="#010101" stroke-width="0.1" d="M220.853,243.326c0,0-1.201-1.355,0.73-1.74
		c1.933-0.384,122.636-58.097,160.599-45.231C382.182,196.355,356.241,185.481,220.853,243.326z"/>
</g>
<g>
	<path fill="#FFFFFF" stroke="#010101" stroke-width="0.1" d="M187.398,307.629c0,0-0.2-1.801,1.6-1c1.8,0.8,17.2,1.4,4.8,23.8
		C193.797,330.429,203.398,306.429,187.398,307.629z"/>
</g>
<g>
	<path fill="#FFFFFF" stroke="#010101" stroke-width="0.1" d="M197.797,306.03c0,0-0.199-1.801,1.601-1
		c1.8,0.799,19.6,3,21.6,41.799C220.998,346.829,213.797,304.829,197.797,306.03z"/>
</g>
<g>
	<path fill="#FFFFFF" stroke="#010101" stroke-width="0.1" d="M204.598,304.429c0,0-0.2-1.8,1.6-1s26.4,4.2,50,36.601
		C256.198,340.03,220.598,303.229,204.598,304.429z"/>
</g>
<g>
	<path fill="#FFFFFF" stroke="#010101" stroke-width="0.1" d="M212.223,302.401c0,0-0.438-1.759,1.453-1.205
		c1.89,0.555,22.323-1.345,60.421,32.832C274.097,334.028,227.921,299.084,212.223,302.401z"/>
</g>
<g>
	<path fill="#FFFFFF" stroke="#010101" stroke-width="0.1" d="M222.623,298c0,0-0.437-1.758,1.453-1.204s36.725,5.055,88.421,40.03
		C312.497,336.827,238.322,294.684,222.623,298z"/>
</g>
<g>
	<path fill="#FFFFFF" stroke="#010101" stroke-width="0.1" d="M182.198,286.429c0,0-0.2-1.8,1.6-1c1.801,0.8,55.2,3.399,85.601,30.2
		C269.398,315.629,234.497,290.854,182.198,286.429z"/>
</g>
<g>
	<path fill="#FFFFFF" stroke="#010101" stroke-width="0.1" d="M172.198,290.429c0,0-0.2-1.8,1.6-1c1.801,0.8,26.4,4.2,50,36.601
		C223.797,326.03,188.198,289.229,172.198,290.429z"/>
</g>
<g>
	<path fill="#FFFFFF" stroke="#010101" stroke-width="0.1" d="M233.5,293.39c0,0-0.564-1.721,1.361-1.307
		c1.926,0.413,36.996,2.349,91.117,33.442C325.979,325.526,248.315,291.132,233.5,293.39z"/>
</g>
<g>
	<path fill="#FFFFFF" stroke="#010101" stroke-width="0.1" d="M241.901,290.991c0,0-0.565-1.722,1.361-1.308
		c1.926,0.413,36.995,2.349,91.116,33.443C334.378,323.126,257.315,288.333,241.901,290.991z"/>
</g>
<g>
	<path fill="#FFFFFF" stroke="#010101" stroke-width="0.1" d="M251.5,285.991c0,0-0.564-1.722,1.361-1.308
		c1.926,0.413,44.996,4.749,134.718,39.043C387.58,323.726,266.915,283.333,251.5,285.991z"/>
</g>
<g>
	<path fill="#010101" d="M140.198,292.829c0,0,5.2-0.399,4,1.201c-1.2,1.6-3.6,0.799-3.6,0.799L140.198,292.829z"/>
</g>
<g>
	<path fill="#010101" d="M170.998,306.829c0,0,5.2-0.399,4,1.201c-1.2,1.6-3.6,0.799-3.6,0.799L170.998,306.829z"/>
</g>
<g>
	<path fill="#010101" d="M162.198,306.429c0,0,5.2-0.399,4,1.2s-3.6,0.8-3.6,0.8L162.198,306.429z"/>
</g>
<g>
	<path fill="#010101" d="M66.829,294.61c0,0,5.045,1.323,3.387,2.442c-1.656,1.12-3.663-0.422-3.663-0.422L66.829,294.61z"/>
</g>
<g>
	<path fill="#010101" d="M68.829,285.01c0,0,5.045,1.323,3.387,2.441c-1.656,1.121-3.663-0.422-3.663-0.422L68.829,285.01z"/>
</g>
<g>
	<path fill="#010101" d="M61.628,280.61c0,0,5.045,1.323,3.388,2.442c-1.657,1.12-3.664-0.422-3.664-0.422L61.628,280.61z"/>
</g>
<g>
	<path fill="#CCCCCC" d="M141.398,355.629c0,0-1.601,0-5.601,2c-2,0-13.199,3.6-18.8,13.6
		C116.998,371.229,129.398,361.629,141.398,355.629z"/>
</g>
<g>
	<path fill="#CCCCCC" d="M229.114,448.276c0.141,0.258,0.196,0.678,0.488,0.694c0.658,0.04,1.891,0.341,1.766-0.295
		c-0.848-4.306-1.722-9.243-5.854-11.05c-0.64-0.279-2.081,0.134-2.155,1.018c-0.127,1.524-0.244,2.873,0.064,4.339
		c0.301,1.421,2.458,1.431,3.375,0.048C227.734,444.702,228.166,446.544,229.114,448.276z"/>
</g>
<g>
	<path fill="#CCCCCC" d="M218.036,453.009c0.748,1.413,0.621,3.272,2.036,3.835c0.74,0.294,2.59-0.682,2.172-1.755
		c-0.802-2.062-1.189-4.3-2.579-6.111c-0.2-0.262,0.04-0.795-0.12-1.123c-0.594-1.22-1.738-1.954-3.146-1.626
		c-1.115,2.203,0.033,4.332,1.555,6.041C218.088,452.422,217.922,452.798,218.036,453.009z"/>
</g>
<g>
	<path fill="#CCCCCC" d="M178.434,447.819c-0.108-0.377-0.146-0.84,0.019-1.16c0.531-1.033,1.324-2.155,0.987-3.178
		c-0.348-1.056-1.464-0.874-2.114-0.305c-1.135,0.994-1.184,2.82-1.875,4.179c-0.196,0.386-0.145,0.959-0.586,1.351
		c-0.474,0.421-0.914,1.945-0.818,2.516c0.054,0.313-0.13,10.221,0.093,9.958c0.618-0.733,3.669-10.467,3.737-11.358
		C177.934,449.089,178.666,448.625,178.434,447.819z"/>
</g>
<g>
	<path fill="#CCCCCC" d="M152.795,441.028c2.635-2.5,5.425-5.461,4.982-9.173c-0.116-0.976-1.891-0.448-2.078,0.397
		c-0.802,3.625-2.841,6.285-5.409,8.678c-2.195,2.047-4.058,8.391-4.293,8.898C149.695,444.573,151.952,441.827,152.795,441.028z"/>
</g>
<g>
	<path fill="#CCCCCC" d="M139.222,435.063c0.522-0.369,0.221-0.861,0.438-1.193c0.953-1.457,2.254-2.703,2.272-4.441
		c0.003-0.277-0.375-0.586-0.71-0.361c-0.277,0.184-0.619,0.313-0.728,0.443c-2.03,2.449-3.43,5.12-4.873,7.932
		c-0.183,0.357-1.327,4.848-1.014,4.959c0.239,0.086,1.959-4.096,2.169-4.209C138.04,437.505,138.052,435.89,139.222,435.063z"/>
</g>
<g>
	<path fill="#CCCCCC" d="M155.955,454.607c0.444-0.868,2.021-2.071,1.907-2.96c-0.118-0.928,0.35-2.371-0.563-1.683
		c-1.257,0.948-4.705,2.297-4.976,8.104C152.297,458.64,155.272,455.948,155.955,454.607z"/>
</g>
<g>
	<path fill="#CCCCCC" d="M170.398,437.429c0.399-0.668,1.107-0.194,1.566-0.458c0.648-0.372,1.26-0.93,1.552-1.579
		c0.97-2.149,2.738-3.969,2.882-6.362c-1.491-1.405-2.17,0.635-2.8,1.6c-1.323-1.647-2.322,0.227-3.622,0.746
		c-0.07,0.027-0.283-0.319-0.358-0.292c-1.177,0.439-1.856,1.521-2.854,2.302c-0.171,0.134-0.576-0.046-0.724,0.09
		c-0.651,0.604-1.625,0.928-1.904,1.61c-1.11,2.707-4.25,4.802-6.138,12.344c0.381,0.909,4.513-6.642,4.999-7.34
		c0.836-1.196,0.954,1.661,2.23,0.995c0.051-0.027,0.236,0.211,0.371,0.345c0.193-0.28,0.412-0.509,0.8-0.399
		c0-0.4-0.134-0.957,0.066-1.115c1.237-0.978,1.153-2.045,1.934-3.285C168.856,437.418,169.917,436.7,170.398,437.429z"/>
</g>
<g>
	<path fill="#CCCCCC" d="M230.198,491.829c0,0,7.4-20.399,3-31.6c0,0,11.4,21.6,6.8,32.801c0,0-0.399-10.4-4.399-15.4
		C235.598,477.629,231.598,490.429,230.198,491.829z"/>
</g>
<g>
	<path fill="#CCCCCC" d="M215.398,489.229c0,0,5.399-8.8-2.601-27.199c0,0-0.8,20.399-7.6,31.399
		C205.198,493.429,219.398,473.229,215.398,489.229z"/>
</g>
<g>
	<path fill="#CCCCCC" d="M205.398,487.229c0,0-0.2-20,0.2-23c0,0-3.801,16.6-14,26.2
		C191.598,490.429,205.998,478.429,205.398,487.229z"/>
</g>
<g>
	<path fill="#CCCCCC" d="M195.797,455.229c0,0,6,13.6-4,32c0,0,6.4-12.199,1.601-19.199
		C193.398,468.03,195.998,464.629,195.797,455.229z"/>
</g>
<g>
	<path fill="#CCCCCC" d="M176.598,486.829c0,0-1-15.6,0.8-17.799c0,0,0.2-6.4-0.2-7.4c0,0,4-6.2,4.2,1.199c0,0,1.399,7.801,4.2,12.4
		c0,0,3.6,5.4,3.399,11.801C188.998,487.03,178.998,456.829,176.598,486.829z"/>
</g>
<g>
	<path fill="#CCCCCC" d="M172.998,459.229c0,0-6.6,10.801-8.399,29.801c0,0-1.4-6.201,2.399-20.601
		C166.998,468.429,171.198,453.03,172.998,459.229z"/>
</g>
<g>
	<path fill="#CCCCCC" d="M151.198,479.03c0,0,5-5.4,6.4-10.4c0,0,3.6-15.801-2.801-7.2c0,0,0.2,8-8,15.399
		C146.797,476.829,151.598,474.429,151.198,479.03z"/>
</g>
<g>
	<path fill="#CCCCCC" d="M145.398,474.03c0,0,3.399-17.4,4.2-18.201c0,0,1.8-3.399-1-0.199c0,0-8.801,19.199-12.801,25.8
		C135.797,481.429,143.797,472.229,145.398,474.03z"/>
</g>
<g>
	<path fill="#CCCCCC" d="M139.598,457.429c0,0,11.6-22.399-10.2,3.399C129.398,460.829,140.398,451.03,139.598,457.429z"/>
</g>
<g>
	<path fill="#CCCCCC" d="M124.198,442.829c0,0,4.8-18.799,7.4-18.6c0,0,8.199-9,1.6,1.6c0,0-6,9.601-5.4,19.4
		C127.797,445.229,127.198,435.629,124.198,442.829z"/>
</g>
<g>
	<path fill="#CCCCCC" d="M454.498,431.428c0,0-12-10-14.5-13.5c0,0,13.5,18.5,13.5,25.5
		C453.498,443.428,455.998,435.928,454.498,431.428z"/>
</g>
<g>
	<path fill="#CCCCCC" d="M459.998,409.428c0,0-21-15-24.5-22.5c0,0,26.5,29.5,26.5,34
		C461.998,420.928,462.498,411.928,459.998,409.428z"/>
</g>
<g>
	<path fill="#CCCCCC" d="M476.998,255.428c0,0-12-8-13.5-6c0,0,10.5,6.5,13,15C476.498,264.428,474.998,255.428,476.998,255.428z"/>
</g>
<g>
	<path fill="#CCCCCC" d="M485.498,335.928l-17.5-12c0,0,19,17,19.5,21L485.498,335.928z"/>
</g>
<g>
	<path fill="#010101" stroke="#010101" d="M94.748,313.428l22,4.75"/>
</g>
<g>
	<path fill="#010101" stroke="#010101" d="M144.998,475.428c0,0-0.5-3.5-9.5,7"/>
</g>
<g>
	<path fill="#010101" stroke="#010101" d="M150.498,480.428c0,0,2-6.5-4.5-2"/>
</g>
<g>
	<path fill="#010101" stroke="#010101" d="M204.498,488.928c0,0,1.5-11-10,2"/>
</g>
</svg>
