<?xml version="1.0" encoding="utf-8"?>
<!-- Generator: Adobe Illustrator 24.1.2, SVG Export Plug-In . SVG Version: 6.00 Build 0)  -->
<svg version="1.1" xmlns="http://www.w3.org/2000/svg" xmlns:xlink="http://www.w3.org/1999/xlink" x="0px" y="0px"
	 viewBox="0 0 8000 8000" style="enable-background:new 0 0 8000 8000;" xml:space="preserve">
<style type="text/css">
	.st0{fill:#F32735;}
	.st1{fill:#9E0F20;}
	.st2{display:none;fill:none;stroke:#000000;stroke-width:10;stroke-miterlimit:10;}
	.st3{fill:#FFFFFF;}
</style>
<g id="Camada_1">
	<g>
		<circle class="st0" cx="4000" cy="4000" r="3989.82"/>
		<path class="st1" d="M6821.36,1178.9L1178.91,6821.36c0.12,0.12,0.23,0.24,0.35,0.35c1558.29,1557.96,4084.5,1557.68,5642.46-0.61
			C8379.58,5262.9,8379.39,2736.88,6821.36,1178.9z"/>
	</g>
</g>
<g id="Camada_2">
	<g>
		<circle class="st2" cx="4000" cy="4000" r="3499.84"/>
		<path class="st3" d="M4879.13,5849.76c-276.04,124.08-580.89,186-914.32,186c-390.94,0-746.33-88.53-1066.17-265.7
			c-319.84-177.06-567.18-421.03-742.15-731.69s-262.45-666.4-262.45-1067.1c0-574.97,197.5-1058.73,592.51-1451.18
			s880.86-588.67,1457.69-588.67c560.63,0,1075.36,193.53,1544.06,580.6l796.49-796.49c-262.5-236.91-556.8-429.52-882.98-577.84
			c-460.76-209.35-939.88-314.15-1437.47-314.15c-585.07,0-1131.23,141.85-1638.46,425.44
			c-507.23,283.71-896.78,658.61-1168.87,1124.95S749,3373.43,749,3973.37c0,927.22,298.69,1687.37,896.08,2280.58
			s1365.09,889.69,2302.88,889.69c508.51,0,961.02-84.23,1357.42-252.46c309.8-131.47,634.71-344.56,974.63-639.13l-797.75-797.75
			C5268.47,5633.39,5067.42,5765.21,4879.13,5849.76z"/>
	</g>
</g>
</svg>
