<?xml version="1.0" encoding="utf-8"?>
<svg version="1.1" x="0px" y="0px" viewBox="0 0 8000 8000" style="enable-background:new 0 0 8000 8000;" xmlns="http://www.w3.org/2000/svg">
  <style type="text/css">
	.st0{display:none;fill:#FFFFFF;stroke:#C1272D;stroke-width:20;stroke-miterlimit:10;}
	.st1{fill:#F32735;}
	.st2{fill:#9E0F20;}
	.st3{fill:#FFFFFF;}
</style>
  <g id="Camada_1">
    <g>
      <g>
        <circle cx="4000" cy="3999.99" r="3989.83" fill="#F32735"/>
        <path class="st2" d="M6809.98,1167.54L1190.29,6832.7c0.12,0.12,0.24,0.24,0.35,0.35 c1564.56,1551.67,4090.76,1541.21,5642.42-23.35C8384.64,5245.24,8374.28,2719.23,6809.98,1167.54z" fill="#9E0F20"/>
      </g>
      <g>
        <path class="st3" d="M 3418.55 4663.88 C 3522.07 4594.59 3624.19 4523.2 3727.03 4452.89 C 4140.66 4170.12 4554.35 3887.43 4968.03 3604.73 L 5428.89 3288.46 C 5404.95 3266.46 5383.98 3246.07 5361.81 3227.12 C 5230.98 3115.31 5090.63 3017.48 4938.4 2936.66 C 4700.77 2810.51 4449.37 2729.12 4180.39 2711.34 C 4041.77 2702.18 3902.62 2709.54 3765 2733.14 C 3558.08 2768.62 3361.74 2834.83 3176.46 2933.94 C 2902.75 3080.34 2676.29 3280.31 2496.85 3533.29 C 2290.06 3824.84 2175.32 4150.3 2145.91 4505.62 C 2134.12 4648.07 2140.75 4790.77 2162.88 4932.11 C 2191.21 5113.12 2242.41 5287.62 2319.58 5454.1 C 2405.3 5639.02 2517.79 5806.05 2656.99 5954.85 C 2690.82 5991.01 2727.46 6024.53 2763.77 6060.2 C 2817.39 5985.65 2890.25 5945 2970.89 5916.33 C 3115.41 5864.96 3266.52 5855.8 3417.66 5852.42 C 3501.78 5850.54 3586.31 5856.38 3670.31 5862.99 C 3765.61 5870.49 3860.58 5882.33 3955.6 5893.12 C 4000.64 5898.23 4045.46 5905.29 4094.68 5912.06 C 3955.31 5619.42 3818.11 5331.33 3680.95 5043.32 C 3609.84 5057.35 3542.57 5070.62 3473.72 5084.2 C 3471.14 5077.22 3468.89 5072.88 3467.93 5068.27 C 3443.78 4952.61 3421.16 4836.6 3394.77 4721.46 C 3388.14 4692.56 3395.56 4679.27 3418.55 4663.88 Z M 3226.93 3228.81 C 2927.75 3477.48 2688.3 3769.68 2564.45 4145.19 C 2529.93 4249.84 2510.2 4357.26 2500.53 4467.18 C 2474.02 4768.45 2542.53 5050.48 2673.82 5318.67 C 2722.12 5417.34 2782.15 5510.27 2836.83 5605.82 C 2840.5 5612.23 2844.1 5618.67 2850.05 5629.2 C 2809.29 5649.96 2770.59 5670.63 2730.96 5689.31 C 2717.43 5695.68 2703.71 5698.24 2692.68 5678.93 C 2577.94 5477.92 2483.6 5268.42 2426.36 5043.46 C 2386.56 4887.02 2364.04 4727.85 2370.15 4566.44 C 2380.37 4296.56 2456.03 4045.66 2598.72 3815.35 C 2723.34 3614.2 2882.25 3444.45 3066.36 3297.08 C 3223.33 3171.43 3392.08 3064.88 3574.56 2980.28 C 3582.92 2976.41 3591.49 2973 3599.96 2969.38 C 3467.86 3045.96 3343.53 3131.9 3226.93 3228.81 Z" fill="#ffffff"/>
        <path class="st3" d="M3810.15,5126.95c71.34-13.78,141.09-27.73,211.14-40.03c7.06-1.24,17.53,5.85,23.62,11.9 c101.26,100.62,199.06,204.95,303.9,301.65c87.91,81.1,183.82,153.54,276.37,229.59c131.92,108.4,247.22,232.56,346.44,371.17 c173.4,242.26,298.75,507.36,368.36,797.5c6.12,25.51-1.66,56.9-10.53,82.99c-30.12,88.64-94.02,152.58-164.66,209.75 c-98.96,80.09-209.83,139.92-327.3,188.41c-24.42,10.08-33.29,5.25-44.22-18.67c-120.95-264.59-243.44-528.48-365.36-792.63 c-165.29-358.1-330.43-716.27-495.67-1074.39c-38.48-83.39-77.09-166.71-115.57-250.1 C3814.33,5139.04,3812.68,5133.66,3810.15,5126.95z" fill="#ffffff"/>
        <path class="st3" d="M 4081.5 6038.59 C 4077.63 6030.26 4065.59 6021.46 4056.5 6020.44 C 3877.95 6000.38 3699.53 5978.39 3520.53 5963.31 C 3395.27 5952.76 3269.4 5960.32 3144.79 5977.98 C 3056.57 5990.48 2970.21 6011.44 2891.1 6054.82 C 2844.64 6080.3 2810.02 6114.49 2788.97 6166.08 C 2727.85 6315.91 2662.5 6464.02 2598.74 6612.77 C 2565.64 6689.99 2532.4 6767.16 2497.13 6849.23 C 2505.43 6846.75 2508.68 6845.87 2511.87 6844.8 C 2685.37 6786.58 2865.17 6769.89 3046.4 6769.72 C 3154.48 6769.62 3262.77 6777.31 3370.59 6786.11 C 3476.27 6794.74 3581.91 6806.29 3686.78 6821.85 C 3823.25 6842.09 3958.95 6867.56 4097.98 6891.29 C 4163.34 6773.54 4230.38 6653.11 4296.7 6532.28 C 4300.12 6526.05 4300.05 6515.17 4297.03 6508.53 C 4225.77 6351.62 4154.09 6194.89 4081.5 6038.59 Z M 3060.07 6162.36 C 3045.94 6166.69 3031.07 6177.41 3022.39 6189.4 C 2926.42 6321.97 2831.59 6455.36 2736.61 6588.64 C 2734.02 6592.27 2733.28 6597.22 2731.67 6601.55 C 2729.19 6599.41 2726.71 6597.28 2724.23 6595.14 C 2740.71 6560.03 2756.95 6524.81 2773.72 6489.84 C 2829.13 6374.26 2884.41 6258.62 2940.81 6143.52 C 2945.95 6133.04 2957.44 6121.86 2968.27 6118.58 C 3082.71 6083.93 3199.57 6062.84 3318.94 6052.57 C 3407.4 6044.96 3494.47 6047.51 3581.33 6064.57 C 3590.46 6066.36 3599.34 6069.44 3608.33 6071.93 C 3417.33 6058.15 3238.21 6107.79 3060.07 6162.36 Z" fill="#ffffff"/>
        <path class="st3" d="M 5827.13 4252.21 C 5805.6 4119.77 5783.84 3987.37 5762.57 3854.89 C 5743.66 3737.14 5725.54 3619.27 5706.57 3501.53 C 5692.11 3411.76 5677.01 3322.06 5661.67 3229.54 L 3491.78 4718.67 C 3484.37 4725.39 3477.14 4738.07 3478.95 4745.17 C 3496.71 4814.93 3516.91 4884.06 3536.27 4952.98 C 3541.17 4953.23 3544.13 4953.97 3546.85 4953.43 C 3718.71 4919.31 3890.46 4884.65 4062.4 4850.98 C 4391.43 4786.55 4720.62 4722.95 5049.63 4658.49 C 5313.27 4606.83 5576.68 4554 5840.45 4503 C 5863.63 4498.52 5865.82 4488.93 5862.63 4469.95 C 5850.44 4397.44 5838.93 4324.8 5827.13 4252.21 Z" fill="#ffffff"/>
        <g>
          <path class="st3" d="M4581.5,2438.32c-51.59,74.74-103.23,149.45-154.09,223.08c284.02,48.7,508.95,165.56,630.93,236.08 c18.8,8.58,30.36,7.04,45.52-5.97c95.28-81.78,191.04-163.01,287.18-243.8c190.04-159.7,380.58-318.82,570.63-478.51 c199.81-167.88,399.34-336.08,598.92-504.23c-326.39-232.07-695.2-407.31-1092.21-511.3 c-91.91,133.75-184.44,267.08-276.66,400.62C4988.26,1848.93,4784.91,2143.65,4581.5,2438.32z" fill="#ffffff"/>
          <path class="st3" d="M3524.19,2467.48c-21.49,79.87-44.67,165.97-66.98,250.27c46.56-10.37,323.17-115.2,718.88-88.82 c19.08,1.16,28.97-5.68,37.86-22.32c85.3-159.66,166.56-311.85,252.4-471.22c124.04-230.28,247.99-460.62,371.99-690.93 c66.42-123.36,132.88-246.71,201.16-373.46c-137.35-17.23-277.22-26.16-419.13-26.16c-252.51,0-498.61,28.17-735.43,81.45 c-6.84,28.63-14.95,56.97-22.6,85.41C3749.63,1630.3,3636.83,2048.87,3524.19,2467.48z" fill="#ffffff"/>
          <path class="st3" d="M2545.86,1836.53c6.63,78.14,13.34,156.27,19.88,234.42c6.3,75.3,12.22,150.63,18.7,225.91 c6.56,76.18,13.88,152.29,20.34,228.48c6.62,78.2,12.58,156.47,18.86,234.7c6.05,75.39,11.98,150.79,18.28,226.16 c5.69,68.08,11.43,139.61,17.71,211.68c77.38-75.63,317.01-289.31,612.48-411.98c13.75-5.71,27.38-8.82,30.84-30.91 c18.46-117.67,36.52-215.22,57.03-332.58c28.68-164.11,57.33-328.23,85.9-492.37c35.77-205.54,71.52-411.09,107.06-616.67 c5.59-32.33,10.49-64.82,15.86-99.36c-375.71,124.54-722.52,313.9-1027.32,554.95c-0.14,0.6-0.31,1.21-0.32,1.8 C2540.65,1792.65,2543.99,1814.61,2545.86,1836.53z" fill="#ffffff"/>
          <path class="st3" d="M2151.69,3602.03c28.95,58.26,62.61,126.45,92.44,186.35c62.88-139.38,194.26-347.57,318.13-488.72 c6.41-7.31,10.14-21.49,8.12-30.98c-20.81-97.89-43.14-189.66-65.05-287.32c-57.91-258.1-115.86-516.2-173.82-774.29 c-15.21-67.73-30.56-135.42-47.53-210.59c-22.74,24.23-40.47,42.85-57.9,61.74c-72.83,78.96-151.57,153.39-216.96,238.1 c-88.09,114.1-168.83,233.86-251.92,351.85c-14.06,22.66-27.86,45.51-41.4,68.52c0.01,6.6,2.26,13.25,6.04,20.84 C1865.41,3025.56,2008.48,3313.82,2151.69,3602.03z" fill="#ffffff"/>
          <path class="st3" d="M1463.39,3773.25c166.75,147.24,333.58,294.4,500.43,441.53c38,33.51,78.9,69.38,120.26,105.61 c15.83-124.87,58.2-279.76,105.96-401.87c9.16-23.43-0.04-37.32-12.31-53.78c-168.78-226.42-339.26-452.55-507.93-679.06 c-37.99-51.02-76.32-101.8-115.94-154.62c-4.47,8.41-7.33,13.18-9.63,18.2c-5.97,13.06-11.84,26.15-17.63,39.27 c-78.19,180.23-141.29,368.58-187.77,563.37c1.54,6.68,5.02,13.54,9.12,17.41C1385.6,3704.84,1424.57,3738.97,1463.39,3773.25z" fill="#ffffff"/>
          <path class="st3" d="M1937.2,4872.06c44.65,15.45,94.49,32.94,140.29,48.94c-26.82-165.76-14.78-400.9-11.87-451.56 c1.19-20.64-5.68-32.28-23.85-43.49c-189.08-116.57-381.36-235.03-569.95-352.4c-62.5-38.89-125.13-77.62-190.93-118.42 c-23.27,161.02-35.39,325.64-35.39,493.07c0,62.38,1.72,124.35,5.03,185.91c2.88,1.62,6.25,3.08,10.22,4.44 C1486.44,4715.81,1711.78,4794.03,1937.2,4872.06z" fill="#ffffff"/>
          <path class="st3" d="M2252.92,5507.54c-11.18-19.62-22.95-22.74-43.15-17.88c-190.58,45.82-386.45,92.18-577.15,137.54 c-54.15,12.88-108.33,25.91-163.62,39.18c62.3,163.36,136.73,320.69,222.21,470.86c234.84-125.41,470.34-250.82,705.49-376.44 C2305.68,5620.1,2296.99,5584.9,2252.92,5507.54z" fill="#ffffff"/>
          <path class="st3" d="M1747.15,5373.51c104.59-0.89,209.2-0.18,313.8-0.18c43.56,0,87.13,0,133.63,0 c-2.68-10.32-65.65-190.27-85.44-283.48c-1.26-8.85-15.9-20.52-26.07-22.69c-231.85-49.45-461.9-96.87-693.98-145.24 c-37.34-7.78-74.93-14.84-113.97-22.4c21.62,163.84,54.78,324.05,98.74,479.73c0.8,0,1.58,0.01,2.41-0.01 C1499.88,5376.5,1623.51,5374.56,1747.15,5373.51z" fill="#ffffff"/>
        </g>
      </g>
    </g>
    <g>
      <ellipse class="st0" cx="7356.18" cy="801.01" rx="124.6" ry="125.71"/>
    </g>
  </g>
</svg>