<?xml version="1.0" encoding="utf-8"?>
<!-- Generator: Adobe Illustrator 24.1.2, SVG Export Plug-In . SVG Version: 6.00 Build 0)  -->
<svg version="1.1" xmlns="http://www.w3.org/2000/svg" xmlns:xlink="http://www.w3.org/1999/xlink" x="0px" y="0px"
	 viewBox="0 0 8000 8000" style="enable-background:new 0 0 8000 8000;" xml:space="preserve">
<style type="text/css">
	.st0{fill:#F32735;}
	.st1{fill:#9E0F20;}
	.st2{display:none;fill:#A13429;}
	.st3{fill:#FFFFFF;stroke:#FFFFFF;stroke-width:0.2315;}
	.st4{fill:#FFFFFF;}
</style>
<g id="Circle">
	<g>
		<circle class="st0" cx="4000" cy="4000" r="3994.82"/>
		<path class="st1" d="M6824.9,1175.37L1175.37,6824.89c0.12,0.12,0.23,0.24,0.35,0.35
			c1560.24,1559.91,4089.62,1559.63,5649.53-0.61C8385.07,5264.48,8384.88,2735.3,6824.9,1175.37z"/>
	</g>
</g>
<g id="Icon">
	<polygon class="st2" points="4277.35,2836.05 4277.35,2836.05 4277.35,2842.07 	"/>
	<g>
		<path class="st3" d="M3579.24,3775.05c51.15-41.81,90.6-366.56-149.62-540.35c-240.14-173.6-561.09-131.8-789.43-189.68
			c-228.44-57.88-761.04-293.18-986.38-371.39c-513.88-178.63-1082.81-217.09-1082.81-217.09s641.89,80.36,1029.6,231.57
			c387.91,151.08,864.3,347.29,1074.95,593.31c210.66,246.04,13.86,786.29,171.36,1249.39
			c157.44,463.19,610.26,964.87,1122.11,1085.53c0,0-408.4-189.63-525.66-371.51c-194.85-302.32-135.8-498.44-88.57-762.17
			c47.26-263.8-135.84-550.03-135.84-550.03s147.68,9.65,271.67,226.77c52.37-340.21-277.56-490.53-389.72-530.71
			c-112.25-40.14-246.42-202.7-165.47-323.22C3067.4,3109.37,3618.64,3311.97,3579.24,3775.05z"/>
		<path class="st4" d="M4040.15,5189.71c0,0-270.89-228.44-202.11-660.88c99.98-628.86,843.86-891.75,627.99-944.4
			c-269.51-65.83-692.38,588.34-756.95,366.97c-129.65-444.15,756.66-1009.93,1182.02-1212.11
			c609.25-289.41,2327.55-923.64,2311.8-872.83c-103.54,333.08-626.85,375.43-1542.98,693.13
			c-271.37,94.23-891.54,340.9-917.1,369.84c-25.53,28.79,553.96-216.39,924.18-344.58c511.12-177.07,1016.14-333.71,997.67-281.15
			c-91.77,261.25-567.92,365.27-1237.81,547.07c-206.13,56.1-647.76,172.68-668.4,197.01c-20.73,24.37,469.45-120.66,665.66-174.01
			c536.47-146.02,863.15-241.27,831.42-154.56c-100.62,275.12-525.16,304.11-1077.47,420.82
			c-127.91,27.02-383.78,75.66-401.45,99.14c-17.88,23.58,251.73-43.53,408.65-74.58c270.06-53.26,533.02-94.07,434.07,35.34
			c-155.73,204.11-239.82,256.29-500.81,352.83c-1074.54,397.09-1198.34,770.16-1245.61,1004.97
			C3799.07,4924.73,4040.15,5189.71,4040.15,5189.71z"/>
		<path class="st4" d="M3245.41,3435.02c0,50.52-41.01,91.5-91.51,91.5c-50.55,0-91.52-40.98-91.52-91.5
			c0-50.59,40.97-91.51,91.52-91.51C3204.41,3343.51,3245.41,3384.43,3245.41,3435.02z"/>
		<path class="st4" d="M3815.99,5012.84c0,0,25.78,339.96,264.99,648.2c179.23,230.88,345.86,239.73,543.35,473.18
			c197.88,233.44,227.55,478.21,227.55,478.21c10.63-178.52-73.88-487.44-239.43-744.66c-137.67-214.2-287.18-287.69-287.18-287.69
			c123.98-27.73,263.71,69.26,263.71,69.26s-17.01-133.33-241.13-237.29C4105.34,5299.45,3980.42,5336.8,3815.99,5012.84z"/>
	</g>
	<g id="Camada_2">
	</g>
</g>
</svg>
