<?xml version="1.0" encoding="utf-8"?>
<!-- Generator: Adobe Illustrator 24.1.2, SVG Export Plug-In . SVG Version: 6.00 Build 0)  -->
<svg version="1.1" xmlns="http://www.w3.org/2000/svg" xmlns:xlink="http://www.w3.org/1999/xlink" x="0px" y="0px"
	 viewBox="0 0 8000 8000" style="enable-background:new 0 0 8000 8000;" xml:space="preserve">
<style type="text/css">
	.st0{fill:#F32735;}
	.st1{fill:#9E0F20;}
	.st2{fill:#FFFFFF;}
	.st3{display:none;}
	.st4{display:inline;fill:none;stroke:#0000FF;stroke-width:160;stroke-miterlimit:10;}
	.st5{display:inline;fill:none;stroke:#0000FF;stroke-width:150;stroke-miterlimit:10;}
	.st6{display:inline;fill:none;stroke:#0000FF;stroke-width:140;stroke-miterlimit:10;}
	.st7{display:inline;fill:none;stroke:#0000FF;stroke-width:130;stroke-miterlimit:10;}
	.st8{display:inline;fill:none;stroke:#0000FF;stroke-width:120;stroke-miterlimit:10;}
	.st9{display:inline;fill:none;stroke:#0000FF;stroke-width:110;stroke-miterlimit:10;}
	.st10{display:inline;fill:none;stroke:#0000FF;stroke-width:100;stroke-miterlimit:10;}
	.st11{display:inline;fill:none;stroke:#0000FF;stroke-width:90;stroke-miterlimit:10;}
	.st12{display:inline;}
	.st13{fill:none;stroke:#00FF00;stroke-width:120;stroke-miterlimit:10;}
	.st14{fill:none;stroke:#00FF00;stroke-width:110;stroke-miterlimit:10;}
	.st15{fill:none;stroke:#00FF00;stroke-width:100;stroke-miterlimit:10;}
	.st16{fill:none;stroke:#00FF00;stroke-width:90;stroke-miterlimit:10;}
	.st17{fill:none;stroke:#00FF00;stroke-width:80;stroke-miterlimit:10;}
	.st18{fill:none;stroke:#00FF00;stroke-width:70;stroke-miterlimit:10;}
	.st19{display:inline;fill:none;stroke:#3FA9F5;stroke-width:119;stroke-miterlimit:10;}
	.st20{display:inline;fill:none;stroke:#FF00FF;stroke-width:119;stroke-miterlimit:10;}
</style>
<g id="Circle">
	<g>
		<circle class="st0" cx="4000" cy="4000" r="3989.82"/>
		<path class="st1" d="M6821.36,1178.9L1178.91,6821.36c0.12,0.12,0.23,0.24,0.35,0.35c1558.29,1557.96,4084.5,1557.68,5642.46-0.61
			C8379.58,5262.9,8379.39,2736.88,6821.36,1178.9z"/>
	</g>
</g>
<g id="Camada_2">
	<g>
		<g>
			<path class="st2" d="M6956.76,5203.83c-23.7-50.82-69.03-73.68-111.34-68.6c-173.34,20.82-264.05-80.2-337.89-253.54
				c-74.58-175.09-121.72-365.63-175.32-547.93c-105.85-360.04-162.82-752.55-474.73-999.46
				c-299.69-237.24-729.91-290.99-1094.82-356.38c-202-36.2-406.73-57.92-606.08-107.78c-193.71-48.45-370.85-135.59-558.1-200.16
				c-24.09-8.31-48.47,11.48-45.48,36.79c71.18,603.56,768.94,661.93,984.39,698.97c453.61,77.99,986.12,119.3,1232.9,568.08
				c200.44,364.51,196.02,772.23,392.04,1140.62c90.79,170.64,208.12,385.58,403.33,421.08c101.46,18.45,249.11-35.73,368.22-112.23
				C7026.52,5363.79,6970.41,5233.11,6956.76,5203.83z"/>
			<path class="st2" d="M1578.96,3101.83c461.46,372.7,1597.14,452.56,2066.72,553.51c69.5,14.94,106.57-27.64,81.98-94.34
				c-39.01-105.85-92.63-212.66-121.77-321.92c-27.88-104.53-76.57-240.46-150.79-323.52c-216.21-241.97-1576-521.8-2096.42-1182.99
				c-56.35-71.59-174.12-33.9-174.28,57.21C1184.36,1810.3,1016.15,2647.27,1578.96,3101.83z"/>
			<path class="st2" d="M3967.64,4327.56c34.51,2.89,58.59-30.92,47.55-63.74c-112.2-333.42-98.79-379.83-292.27-430.8
				c-664.49-175.04-1942.48-214.13-2335.06-695.08c-48.51-59.43-73.67-14.12-86.93,71.93c-15.71,101.97,34.83,225.61,78.43,317.24
				c117.16,246.27,348.39,542.13,916.01,637.3C2994.19,4281.58,3532.08,4291.04,3967.64,4327.56z"/>
			<path class="st2" d="M3552.19,5081.63c240.58-30.35,513.37-59.85,751.53-101.99c22.19-3.93,68.05-43.04,56.96-62.66
				c-107.13-189.39-160.17-290.14-208.15-375.13c-26.06-46.17-25.21-46.91-97.17-53.12c-550.67-47.5-1458.5-51.02-2077.79-262.14
				c-58.83-20.05-62.04,47.12-66.86,109.08C1873.78,4810.69,2680.89,5191.56,3552.19,5081.63z"/>
			<path class="st2" d="M4893.42,3592.35c-336.77-69.12-704.49-95.5-1016.33-252.45c-41.89-21.09-89.07,17.05-77.09,62.39
				c196.32,743.06,1081.04,700.77,1290.26,708.91c126.2,4.91,478,4.15,566.85-17.59c13.24-3.24,20.41-17.61,15.12-30.18
				C5536.36,3740.32,5205.78,3656.46,4893.42,3592.35z"/>
			<path class="st2" d="M4740.43,5440.51c30.02-8.71,37.22-45.54,15.7-68.21c-93.31-98.26-182.91-193.67-246.2-272.14
				c-39.62-49.13-116.45-9.49-184.17-0.63c-99.3,12.99-513.02,151.63-1398.24,134.52c-39.26-0.76-51.35,44.05-40.33,81.74
				C3114.26,6092.39,4411.64,5535.9,4740.43,5440.51z"/>
			<path class="st2" d="M5763.62,4258.7c-49.78-79.06-232.47-34.73-307.47-29.28c-917,66.67-1295.55-187.24-1341.14-199.12
				c-21.32-5.55-48.34,18.06-41.95,39.14c225.38,742.97,1131.97,546.42,1707.71,369.53c14.74-4.53,24.43-18.38,21.2-33.46
				C5789.6,4347.48,5791.77,4288.05,5763.62,4258.7z"/>
			<path class="st2" d="M5847.19,4588.03c-10.4-29.96-57.71-37.15-88.18-28.34c-824.07,238.3-1143.2,145.92-1327.96,76.63
				c-30.42-11.41-60.5,33.17-50.39,64.04c162.71,496.54,867.46,311.02,1429.79,106.03c55.7-20.3,76.74-49.77,74.53-70.33
				C5880.91,4698.05,5866.67,4644.17,5847.19,4588.03z"/>
			<path class="st2" d="M5128.69,5768.37c30.38-23.42,3.43-41.91-11.39-55.69c-81.64-75.95-145.57-139.87-197.46-184.81
				c-35.63-30.85-82.65-6.75-128.47,11.99c-68.92,28.19-549.61,199.29-724.91,235.49c-69.7,14.39-107.53,45.61-50.41,126.01
				C4357.46,6381.96,4978.99,5883.75,5128.69,5768.37z"/>
			<path class="st2" d="M5944.82,4919.75c-23.1-49.34-86.87-22.15-138.57-3.15c-452.71,166.4-791.43,217.27-1030.34,189.64
				c-40.91-4.73-63.08,42.27-39.37,75.95c257.19,365.32,600.48,251.24,1139-30.44c79.25-41.45,136.38-79.97,113.38-125.97
				C5973.48,4994.93,5979.03,4992.84,5944.82,4919.75z"/>
			<path class="st2" d="M6077.09,5217.89c-18.2-30.87-46.47-48.66-97.63-21c-558.96,302.26-636.96,256.07-815.37,301.08
				c-30.97,7.81-58.65,49.2-37.04,72.73c280.32,305.2,505.07,114.45,691.14,17.43c89.54-46.69,210.08-132.57,279.89-206.48
				C6150.7,5325.94,6135.88,5317.62,6077.09,5217.89z"/>
			<path class="st2" d="M5271.74,5840.13c-36.47-15.9-69.81,22.11-122.62,52.38c-96.74,55.45-413.45,247.53-482.09,286.38
				c-57.6,32.6-42.91,69.28,15.21,107.59c309.79,204.17,605.13-107.71,807.1-294.92c14.92-13.83,12.12-16.68-6.19-25.54
				C5363.21,5907.98,5346.05,5872.52,5271.74,5840.13z"/>
			<path class="st2" d="M5632.46,6026.92c-19.93,4.11-43.55,28.22-69.4,47.8c-44.74,33.89-242.31,226.94-357.74,295.07
				c-53.85,31.78-9.78,82.93,30.32,94.69c312.5,91.62,462.09-172.8,625.29-361.6c11.11-12.86,14.11-21.71-2.25-26.32
				C5802.62,6060.77,5648.22,6023.67,5632.46,6026.92z"/>
			<path class="st2" d="M6154.36,5446.16c-189.21,151.29-353.05,261.8-562.04,345.15c-32.1,12.8-31.83,45.81-9.95,72.57
				c193.13,236.25,649.3-224.8,712.03-278.57c46.68-40.01-20.55-86.13-62.54-133.37C6213.92,5431.76,6175.44,5429.3,6154.36,5446.16
				z"/>
			<path class="st2" d="M5941.58,6158.56c-37.14,47.98-244.69,261.23-274.62,306.82c-13.21,20.12,15.34,48.52,59.47,56.46
				c209.9,37.78,359.47-154.17,465.14-353.16c19.63-36.96,47.54-64.56,5.7-64.56c-63.92,0-157.72-6.86-187.34-5.7
				C5986.75,6099.35,5966.25,6132.87,5941.58,6158.56z"/>
			<path class="st2" d="M6503.76,5643.27c-51.98-15.4-92.38-51.27-140.03-21.43c-12.75,7.98-32.96,26.27-42.84,33.69
				c-46.66,35.05-55.65,45.1-93.84,78.69c-88.32,77.67-148.68,113.77-248.9,178.17c-19.09,12.27-16.15,39.23,4.85,47.82
				c146.72,59.99,325.45-30.82,532.78-277.96C6518.33,5679.22,6528.3,5650.54,6503.76,5643.27z"/>
			<path class="st2" d="M6168.68,6359.43c-11.2,21.02,23.12,40.29,46.53,35.92c180.4-33.69,312.93-207.25,360.74-348.45
				c4.55-13.44,0.03-26.26-15.19-21.52c-193.03,60.13-210.12,56.96-225.31,70.25c-3.01,2.63-26.62,38.77-38.61,55.69
				C6256.19,6208.72,6203.09,6294.86,6168.68,6359.43z"/>
			<path class="st2" d="M6381.24,5923.29c-14.23,16.4-11.96,29.63,8.49,36.93c75.57,26.95,336.44-140.55,428.38-280.61
				c9.26-14.1,22.85-30.52,23.84-47.46c0.66-11.27-5.96-28.75-16.98-24.14c-62.45,26.15-153.46,51.33-181.24,56.72
				c-11.49,2.23-35.1,15.9-43.35,25.82C6446.84,5875.37,6428.78,5868.5,6381.24,5923.29z"/>
		</g>
	</g>
</g>
<g id="Camada_3" class="st3">
	<g>
		<path class="st4" d="M1069.58,1964.76c0,0-184.86,1236.13,1199.79,1512.77c319.84,63.9,1472.02,279.11,1472.02,279.11"/>
		<path class="st5" d="M1223.33,3191.49c0,0-23.67,795.95,1035.63,1044.5c317.54,74.51,1911.47,183.45,1911.47,183.45"/>
		<path class="st6" d="M1842.79,4331.93c0,0-146.57,488.17,898.7,790.32c578.06,167.1,1761.28-130.97,1761.28-130.97"/>
		<path class="st7" d="M2186.91,5140.45c0,0-80.11,503.36,996.14,663.31c595.19,88.46,1728.04-364.85,1728.04-364.85"/>
		<path class="st8" d="M2551.52,6051.22c0,0,31.92,508.7,1117.09,429.38c600.13-43.86,1606.41-733.96,1606.41-733.96"/>
		<path class="st9" d="M3033.37,6611.89c0,0,108.11,498.1,1168.99,256.39c586.69-133.67,1477.67-967.33,1477.67-967.33"/>
		<path class="st10" d="M3536.73,7025.77c0,0,176.7,478.09,1193.35,90.41c562.23-214.4,1327.88-1164.46,1327.88-1164.46"/>
		<path class="st11" d="M4086.17,7352.43c0,0,249.52,444.44,1192.76-97.95c521.63-299.96,1128.73-1358.39,1128.73-1358.39"/>
	</g>
	<g class="st12">
		<path class="st13" d="M3719.71,2894.14c0,0-166.91,860.9,585.65,1156.66c539.07,211.85,1469.98,93.7,1469.98,93.7"/>
		<path class="st14" d="M3937.22,3607.35c0,0-14.67,866.93,666.21,1024.8c487.73,113.08,1258.75-162.8,1258.75-162.8"/>
		<path class="st15" d="M3939.33,3962.95c0,0,108.83,923.14,752.56,1080.52c461.12,112.74,1296.2-254.94,1296.2-254.94"/>
		<path class="st16" d="M4319.48,4503.45c0,0,184.86,853.71,726.52,940.69c388,62.31,1031.17-360,1031.17-360"/>
		<path class="st17" d="M4548.85,4999.27c0,0,301.2,787.78,814.4,793.99c367.62,4.45,896.59-489.32,896.59-489.32"/>
		<path class="st18" d="M4792.14,5286.67c0,0,388.84,748.41,899.42,696.21c365.74-37.39,835.12-588.12,835.12-588.12"/>
		<path class="st18" d="M5151.43,5534.57c0,0,560.87,629.88,1042.95,453.78c345.33-126.14,664.95-775.34,664.95-775.34"/>
	</g>
	<path class="st19" d="M3659.93,3174.4c0,0,231.77,109.43,398.63,174.61c421.69,164.72,965.27,120.25,1388.61,365.68
		c333.02,193.07,431.57,744.55,431.57,744.55c2.87,7.85,246.88,1263.61,823.61,1129.68c75.92-17.63,251.59-105.56,251.59-105.56"/>
	<path class="st20" d="M3521.53,2817.96c0,0,174.58,538.18,393.77,1059.36c223.7,531.92,493.73,1048.75,657.97,1219.41
		c221.97,230.64,658.97,718.25,955.62,838.49c996.16,403.77,1357.23-251.63,1357.23-251.63"/>
</g>
</svg>
