<?xml version="1.0" encoding="utf-8"?>
<!-- Generator: Adobe Illustrator 24.1.2, SVG Export Plug-In . SVG Version: 6.00 Build 0)  -->
<svg version="1.1" xmlns="http://www.w3.org/2000/svg" xmlns:xlink="http://www.w3.org/1999/xlink" x="0px" y="0px"
	 viewBox="0 0 8000 8000" style="enable-background:new 0 0 8000 8000;" xml:space="preserve">
<style type="text/css">
	.st0{fill:#F32735;}
	.st1{fill:#9E0F20;}
	.st2{fill:#FFFFFF;}
	.st3{display:none;fill:#A13429;}
</style>
<g id="Circle">
	<g>
		<circle class="st0" cx="4000" cy="4000" r="3994.82"/>
		<path class="st1" d="M6824.9,1175.37L1175.37,6824.89c0.12,0.12,0.23,0.24,0.35,0.35
			c1560.24,1559.91,4089.62,1559.63,5649.53-0.61C8385.07,5264.48,8384.88,2735.3,6824.9,1175.37z"/>
	</g>
	<g>
		<path class="st2" d="M1880.15,5308.49l-513.98-929.88H958.12v929.88H401V2691.51h1226.39c136.22,0,258.76,20.97,367.52,62.78
			c108.76,41.9,201.07,100.74,277.1,176.57c76.02,75.87,134.31,165.44,174.97,268.75c40.57,103.35,60.94,215.17,60.94,335.47
			c0,115.12-16.5,217.14-49.43,306.02c-32.91,88.97-76.99,165.44-132.28,229.51c-55.31,64.15-117.21,116.44-185.71,156.97
			c-68.47,40.57-138.23,68.64-209.35,84.35l588.53,996.56H1880.15z M1542.72,3888.18c112.44,0,205.99-31.37,280.54-94.15
			c74.55-62.78,111.82-149.1,111.82-258.95c0-109.85-37.27-196.17-111.82-258.95s-168.1-94.19-280.54-94.19h-584.6v706.24H1542.72z"
			/>
		<path class="st2" d="M4663.84,5308.49l-160.87-443.35H3380.85l-164.78,443.35h-635.61l1012.26-2616.98h698.37l1008.33,2616.98
			H4663.84z M3941.91,3248.65l-408.05,1126.06h816.09L3941.91,3248.65z"/>
		<path class="st2" d="M5390.3,5308.49V2691.51h1033.53c204.32,0,392.28,31.41,563.93,94.19
			c171.58,62.78,318.29,151.02,440.16,264.81c121.81,113.79,216.78,251.8,284.88,413.95c68.11,162.19,102.19,341.33,102.19,537.5
			s-34.09,374.67-102.19,535.53c-68.11,160.87-163.07,298.19-284.88,411.98c-121.88,113.79-268.58,202.03-440.16,264.81
			c-171.65,62.78-359.6,94.19-563.93,94.19H5390.3z M6422.16,4818.06c128.13,0,243.27-21.61,345.27-64.75
			c102.02-43.18,188.34-102.02,258.95-176.57c70.63-74.55,124.21-161.46,160.87-260.92c36.59-99.37,54.93-204,54.93-313.86
			c0-115.07-17.65-222.96-52.96-323.7c-35.33-100.65-87-187.65-154.98-260.92c-68.04-73.18-153.7-130.74-256.98-172.63
			c-103.37-41.81-221.68-62.78-355.09-62.78h-474.74v1636.12H6422.16z"/>
	</g>
</g>
<g id="Icon">
	<polygon class="st3" points="4277.35,2836.05 4277.35,2836.05 4277.35,2842.07 	"/>
	<g id="Camada_2">
	</g>
</g>
</svg>
