<?xml version="1.0" encoding="UTF-8" standalone="no"?>
<svg
   xmlns:dc="http://purl.org/dc/elements/1.1/"
   xmlns:cc="http://creativecommons.org/ns#"
   xmlns:rdf="http://www.w3.org/1999/02/22-rdf-syntax-ns#"
   xmlns:svg="http://www.w3.org/2000/svg"
   xmlns="http://www.w3.org/2000/svg"
   xmlns:sodipodi="http://sodipodi.sourceforge.net/DTD/sodipodi-0.dtd"
   xmlns:inkscape="http://www.inkscape.org/namespaces/inkscape"
   width="192"
   height="192"
   version="1"
   id="svg22"
   sodipodi:docname="apps_folder_player.svg"
   inkscape:version="0.92.3 (2405546, 2018-03-11)">
  <metadata
     id="metadata28">
    <rdf:RDF>
      <cc:Work
         rdf:about="">
        <dc:format>image/svg+xml</dc:format>
        <dc:type
           rdf:resource="http://purl.org/dc/dcmitype/StillImage" />
      </cc:Work>
    </rdf:RDF>
  </metadata>
  <defs
     id="defs26">
    <filter
       inkscape:collect="always"
       style="color-interpolation-filters:sRGB"
       id="filter870"
       x="-0.045600094"
       width="1.0912002"
       y="-0.05066655"
       height="1.1013331">
      <feGaussianBlur
         inkscape:collect="always"
         stdDeviation="3.0400063"
         id="feGaussianBlur872" />
    </filter>
    <filter
       inkscape:collect="always"
       style="color-interpolation-filters:sRGB"
       id="filter898"
       x="-0.051428572"
       width="1.1028571"
       y="-0.045"
       height="1.09">
      <feGaussianBlur
         inkscape:collect="always"
         stdDeviation="1.2"
         id="feGaussianBlur900" />
    </filter>
    <filter
       inkscape:collect="always"
       style="color-interpolation-filters:sRGB"
       id="filter914"
       x="-0.0396"
       width="1.0792"
       y="-0.060923077"
       height="1.1218462">
      <feGaussianBlur
         inkscape:collect="always"
         stdDeviation="2.64"
         id="feGaussianBlur916" />
    </filter>
  </defs>
  <sodipodi:namedview
     pagecolor="#ffffff"
     bordercolor="#666666"
     borderopacity="1"
     objecttolerance="10"
     gridtolerance="10"
     guidetolerance="10"
     inkscape:pageopacity="0"
     inkscape:pageshadow="2"
     inkscape:window-width="1920"
     inkscape:window-height="1018"
     id="namedview24"
     showgrid="false"
     showguides="false"
     inkscape:zoom="1"
     inkscape:cx="96"
     inkscape:cy="96"
     inkscape:window-x="0"
     inkscape:window-y="32"
     inkscape:window-maximized="1"
     inkscape:current-layer="svg22" />
  <path
     style="opacity:0.2;fill:#000000;stroke-width:3.99934673;filter:url(#filter870)"
     d="M 23.183594,28 C 19.15922,28.058576 16,31.883414 16,36.037109 v 39.667969 72.296872 16.00196 C 16,168.43425 19.568,172 24,172 h 144 c 4.432,0 8,-3.56575 8,-7.99609 V 148.00195 76.037109 52.033203 c 0,-7.997488 -7.58984,-7.998047 -7.58984,-7.998047 H 84 c 0,-9.589563 -1e-4,-15.99414 -8,-15.99414 H 24 C 23.724703,28.010425 23.451885,27.996095 23.183594,28 Z"
     id="path849"
     inkscape:connector-curvature="0" />
  <path
     inkscape:connector-curvature="0"
     id="path2"
     d="M 16,144.00251 V 32.037688 c 0,-4.430608 3.595155,-8.486934 7.9999,-7.997488 h 51.99935 c 7.9999,0 7.9999,6.405412 7.9999,15.994975 h 84.41094 c 0,0 7.58991,0 7.58991,7.997488 V 144.00251 C 176,148.43312 172.43204,152 168.0001,152 H 24.0019 c -4.431945,0 -7.9999,-3.56688 -7.9999,-7.99749 z"
     style="fill:#505050;stroke-width:3.99934673" />
  <path
     inkscape:connector-curvature="0"
     id="path4"
     d="M 176,156.0042 V 68.037198 c 0,-4.430338 -3.59512,-8.486416 -8,-7.997 H 104 88 24 c -8,0 -8,7.663925 -8,7.663925 V 156.003 c 0,4.43034 3.568,7.997 8,7.997 h 144 c 4.432,0 8,-3.56666 8,-7.997 z"
     style="opacity:0.2;stroke-width:3.99924994;filter:url(#filter914)" />
  <rect
     id="rect6"
     ry="8"
     rx="8"
     y="52"
     x="24"
     height="64"
     width="144"
     style="fill:#dcdcdc;stroke-width:4" />
  <path
     inkscape:connector-curvature="0"
     id="path8"
     d="M 176,160.0042 V 72.037198 c 0,-4.430338 -3.59512,-8.486416 -8,-7.997 H 104 88 24 c -8,0 -8,7.663925 -8,7.663925 V 160.003 c 0,4.43034 3.568,7.997 8,7.997 h 144 c 4.432,0 8,-3.56666 8,-7.997 z"
     style="fill:#4f4f4f;stroke-width:3.99924994" />
  <path
     inkscape:connector-curvature="0"
     id="path14"
     d="m 128,120 -28,16 -27.999999,16 V 120 88 L 100,104 Z"
     style="opacity:0.2;stroke-width:3.97943377;filter:url(#filter898)" />
  <path
     inkscape:connector-curvature="0"
     id="path16"
     d="m 128,116 -28,16 -27.999999,16 V 116 84 L 100,99.999997 Z"
     style="fill:#f9d357;stroke-width:3.97943377" />
  <path
     style="opacity:0.2;fill:#ffffff;stroke-width:4"
     d="M 72 84 L 72 85 L 127.125 116.5 L 128 116 L 72 84 z "
     id="path18" />
  <path
     style="fill:#ffffff;stroke-width:3.99934673;opacity:0.1"
     d="M 23.183594 24 C 19.15922 24.058576 16 27.883414 16 32.037109 L 16 33.037109 C 16 28.606501 19.595255 24.55157 24 25.041016 L 76 25.041016 C 83.9999 25.041016 84 31.445593 84 41.035156 L 168.41016 41.035156 C 168.41016 41.035156 176 41.035715 176 49.033203 L 176 48.033203 C 176 40.035715 168.41016 40.035156 168.41016 40.035156 L 84 40.035156 C 84 30.445593 83.9999 24.041016 76 24.041016 L 24 24.041016 C 23.724703 24.010425 23.451885 23.996095 23.183594 24 z "
     id="path918" />
</svg>
