<?xml version="1.0" encoding="UTF-8" standalone="no"?>
<svg
   xmlns:dc="http://purl.org/dc/elements/1.1/"
   xmlns:cc="http://creativecommons.org/ns#"
   xmlns:rdf="http://www.w3.org/1999/02/22-rdf-syntax-ns#"
   xmlns:svg="http://www.w3.org/2000/svg"
   xmlns="http://www.w3.org/2000/svg"
   xmlns:sodipodi="http://sodipodi.sourceforge.net/DTD/sodipodi-0.dtd"
   xmlns:inkscape="http://www.inkscape.org/namespaces/inkscape"
   width="192"
   height="192"
   version="1"
   id="svg18"
   sodipodi:docname="apps_freeoffice_planmaker.svg"
   inkscape:version="0.92.3 (2405546, 2018-03-11)">
  <metadata
     id="metadata24">
    <rdf:RDF>
      <cc:Work
         rdf:about="">
        <dc:format>image/svg+xml</dc:format>
        <dc:type
           rdf:resource="http://purl.org/dc/dcmitype/StillImage" />
        <dc:title></dc:title>
      </cc:Work>
    </rdf:RDF>
  </metadata>
  <defs
     id="defs22">
    <filter
       inkscape:collect="always"
       style="color-interpolation-filters:sRGB"
       id="filter870"
       x="-0.048"
       width="1.096"
       y="-0.048"
       height="1.096">
      <feGaussianBlur
         inkscape:collect="always"
         stdDeviation="3.2"
         id="feGaussianBlur872" />
    </filter>
    <filter
       inkscape:collect="always"
       style="color-interpolation-filters:sRGB"
       id="filter886"
       x="-0.056929298"
       width="1.1138586"
       y="-0.041314404"
       height="1.0826288">
      <feGaussianBlur
         inkscape:collect="always"
         stdDeviation="0.41314404"
         id="feGaussianBlur888" />
    </filter>
  </defs>
  <sodipodi:namedview
     pagecolor="#ffffff"
     bordercolor="#666666"
     borderopacity="1"
     objecttolerance="10"
     gridtolerance="10"
     guidetolerance="10"
     inkscape:pageopacity="0"
     inkscape:pageshadow="2"
     inkscape:window-width="1920"
     inkscape:window-height="1018"
     id="namedview20"
     showgrid="false"
     inkscape:zoom="2.82"
     inkscape:cx="24"
     inkscape:cy="80.737589"
     inkscape:window-x="0"
     inkscape:window-y="32"
     inkscape:window-maximized="1"
     inkscape:current-layer="svg18" />
  <rect
     id="rect852"
     ry="8"
     rx="8"
     y="20"
     x="16"
     height="160"
     width="160"
     style="opacity:0.2;fill:#000000;stroke-width:4;filter:url(#filter870)" />
  <rect
     style="fill:#569a40;stroke-width:4"
     width="160"
     height="160"
     x="16"
     y="16"
     rx="8"
     ry="8"
     id="rect2" />
  <path
     style="opacity:0.2;fill:#ffffff;stroke-width:4"
     d="M 24 16 C 19.568 16 16 19.568 16 24 L 16 25 C 16 20.568 19.568 17 24 17 L 168 17 C 172.432 17 176 20.568 176 25 L 176 24 C 176 19.568 172.432 16 168 16 L 24 16 z "
     id="path4" />
  <path
     inkscape:connector-curvature="0"
     style="opacity:0.5;fill:#ffffff;stroke-width:4"
     d="M 24,24 V 144 H 36 V 36 H 156 V 156 H 48 v 12 H 168 V 24 Z m 0,128 v 16 h 16 v -16 z"
     id="path8" />
  <g
     style="font-size:34.2857132px;line-height:1.25;letter-spacing:0px;word-spacing:0px;opacity:0.2;filter:url(#filter886)"
     transform="matrix(4.1338584,0,0,4,-137.46104,-68.055344)"
     id="g12">
    <path
       inkscape:connector-curvature="0"
       transform="matrix(0.96761902,0,0,1,33.25248,17.513836)"
       d="M 21.945312,12 C 20.88232,12 19.713091,12.04529 18.4375,12.136719 17.185532,12.20529 16.039371,12.35346 15,12.582031 V 15 36 H 19.464844 20 v -7.96564 h 1.697266 c 1.795275,0 3.389502,-0.14817 4.783203,-0.445313 1.3937,-0.297143 2.574464,-0.755904 3.542969,-1.373047 0.968503,-0.64 1.701202,-1.450736 2.197265,-2.433594 C 32.740388,22.776693 33,21.577082 33,20.182797 33,17.508511 32.044245,15.141908 30.130859,13.884766 28.241096,12.627623 25.512242,12 21.945312,12 Z m 0.31836,3.736328 c 0.850394,0 1.642716,0.06989 2.375,0.207031 0.755906,0.114286 1.403959,0.320045 1.947266,0.617188 0.543307,0.297143 0.968304,0.708661 1.27539,1.234375 0.307087,0.525715 0.460938,1.575576 0.460938,2.352719 0,1.622857 -0.578848,2.731886 -1.736328,3.326172 -1.157481,0.571428 -2.809379,0.857422 -4.958985,0.857422 H 20 v -8.524594 c 0.642915,-0.04232 1.372925,-0.07031 2.263672,-0.07031 z"
       id="path10" />
  </g>
  <g
     style="font-size:34.2857132px;line-height:1.25;letter-spacing:0px;word-spacing:0px"
     transform="matrix(4.1338584,0,0,4,-137.46104,-70.055344)"
     id="g16">
    <path
       inkscape:connector-curvature="0"
       style="fill:#ffffff"
       transform="matrix(0.96761902,0,0,1,33.25248,17.513836)"
       d="M 21.945312,12 C 20.88232,12 19.713091,12.04529 18.4375,12.136719 17.185532,12.20529 16.039371,12.35346 15,12.582031 V 15 36 H 19.464844 20 v -7.96564 h 1.697266 c 1.795275,0 3.389502,-0.14817 4.783203,-0.445313 1.3937,-0.297143 2.574464,-0.755904 3.542969,-1.373047 0.968503,-0.64 1.701202,-1.450736 2.197265,-2.433594 C 32.740388,22.776693 33,21.577082 33,20.182797 33,17.508511 32.044245,15.141908 30.130859,13.884766 28.241096,12.627623 25.512242,12 21.945312,12 Z m 0.31836,3.736328 c 0.850394,0 1.642716,0.06989 2.375,0.207031 0.755906,0.114286 1.403959,0.320045 1.947266,0.617188 0.543307,0.297143 0.968304,0.708661 1.27539,1.234375 0.307087,0.525715 0.460938,1.575576 0.460938,2.352719 0,1.622857 -0.578848,2.731886 -1.736328,3.326172 -1.157481,0.571428 -2.809379,0.857422 -4.958985,0.857422 H 20 v -8.524594 c 0.642915,-0.04232 1.372925,-0.07031 2.263672,-0.07031 z"
       id="path14" />
  </g>
</svg>
