<?xml version="1.0" encoding="UTF-8" standalone="no"?>
<svg
   xmlns:dc="http://purl.org/dc/elements/1.1/"
   xmlns:cc="http://creativecommons.org/ns#"
   xmlns:rdf="http://www.w3.org/1999/02/22-rdf-syntax-ns#"
   xmlns:svg="http://www.w3.org/2000/svg"
   xmlns="http://www.w3.org/2000/svg"
   xmlns:sodipodi="http://sodipodi.sourceforge.net/DTD/sodipodi-0.dtd"
   xmlns:inkscape="http://www.inkscape.org/namespaces/inkscape"
   width="192"
   height="192"
   version="1"
   id="svg12"
   sodipodi:docname="apps_bitwarden.svg"
   inkscape:version="0.92.3 (2405546, 2018-03-11)">
  <metadata
     id="metadata18">
    <rdf:RDF>
      <cc:Work
         rdf:about="">
        <dc:format>image/svg+xml</dc:format>
        <dc:type
           rdf:resource="http://purl.org/dc/dcmitype/StillImage" />
        <dc:title></dc:title>
      </cc:Work>
    </rdf:RDF>
  </metadata>
  <defs
     id="defs16">
    <filter
       inkscape:collect="always"
       style="color-interpolation-filters:sRGB"
       id="filter860"
       x="-0.048"
       width="1.096"
       y="-0.048"
       height="1.096">
      <feGaussianBlur
         inkscape:collect="always"
         stdDeviation="3.2"
         id="feGaussianBlur862" />
    </filter>
    <filter
       inkscape:collect="always"
       style="color-interpolation-filters:sRGB"
       id="filter891"
       x="-0.05199954"
       width="1.1039991"
       y="-0.044571766"
       height="1.0891435">
      <feGaussianBlur
         inkscape:collect="always"
         stdDeviation="2.0800279"
         id="feGaussianBlur893" />
    </filter>
  </defs>
  <sodipodi:namedview
     pagecolor="#ffffff"
     bordercolor="#666666"
     borderopacity="1"
     objecttolerance="10"
     gridtolerance="10"
     guidetolerance="10"
     inkscape:pageopacity="0"
     inkscape:pageshadow="2"
     inkscape:window-width="1920"
     inkscape:window-height="1018"
     id="namedview14"
     showgrid="false"
     inkscape:zoom="1"
     inkscape:cx="69.817322"
     inkscape:cy="79.49073"
     inkscape:window-x="0"
     inkscape:window-y="32"
     inkscape:window-maximized="1"
     inkscape:current-layer="svg12" />
  <rect
     style="opacity:0.2;stroke-width:4;filter:url(#filter860)"
     width="160"
     height="160"
     x="16"
     y="20"
     rx="8"
     ry="8"
     id="rect2" />
  <rect
     style="fill:#2f91c9;stroke-width:4"
     width="160"
     height="160"
     x="16"
     y="16"
     rx="8"
     ry="8"
     id="rect4" />
  <path
     inkscape:connector-curvature="0"
     style="opacity:0.2;fill:#ffffff;stroke-width:4"
     d="m 24,16 c -4.432,0 -8,3.568 -8,8 v 1 c 0,-4.432 3.568,-8 8,-8 h 144 c 4.432,0 8,3.568 8,8 v -1 c 0,-4.432 -3.568,-8 -8,-8 z"
     id="path6" />
  <path
     inkscape:connector-curvature="0"
     style="opacity:0.2;stroke-width:4;filter:url(#filter891)"
     d="M 96,41.99928 C 52.523164,42.000732 51.413996,42.02114 50.281248,42.694592 47.876608,44.124544 48,42.363208 48,75.702404 c 0,33.831846 -0.04604,33.149946 2.578124,39.710936 3.018584,7.54738 7.877972,13.92764 15.859376,20.85937 6.6969,5.81616 14.643912,11.076 23.5,15.54688 2.996132,1.51255 4.541012,2.20468 6.0625,2.17969 1.521492,0.0248 3.066368,-0.66714 6.0625,-2.17969 8.85609,-4.47088 16.8031,-9.73072 23.5,-15.54688 7.9814,-6.93173 12.84079,-13.31199 15.85938,-20.85937 C 144.04602,108.85235 144,109.53425 144,75.702404 144,42.363184 144.12339,44.124544 141.71875,42.694592 140.586,42.021144 139.47684,42.000732 96,41.99928 Z m 0,16 c 17.99488,6e-4 25.53967,0.028 31.86719,0.07812 0.0548,4.449044 0.1328,6.876724 0.1328,17.625 0,16.923188 -0.0344,25.36132 -0.27344,29.04687 -0.23908,3.68556 0.20696,1.29084 -1.16407,4.71876 -1.97543,4.93918 -4.75577,8.87608 -11.49218,14.72656 -5.2521,4.5614 -11.82302,8.8092 -19.0703,12.58594 z"
     id="path8" />
  <path
     inkscape:connector-curvature="0"
     style="fill:#ffffff;stroke-width:4"
     d="M 96,40 C 52.523164,40.001452 51.413996,40.022 50.281248,40.695312 47.876608,42.125264 48,40.363928 48,73.703124 c 0,33.831846 -0.04604,33.149946 2.578124,39.710936 3.018584,7.54738 7.877972,13.92764 15.859376,20.85938 6.6969,5.81616 14.643912,11.076 23.5,15.54687 2.996132,1.51255 4.541012,2.20468 6.0625,2.17969 1.521492,0.0248 3.066368,-0.66714 6.0625,-2.17969 8.85609,-4.47087 16.8031,-9.73071 23.5,-15.54687 7.9814,-6.93174 12.84079,-13.312 15.85938,-20.85938 C 144.04602,106.85307 144,107.53497 144,73.703124 144,40.363904 144.12339,42.125264 141.71875,40.695312 140.586,40.021864 139.47684,40.001452 96,40 Z m 0,16 c 17.99488,6e-4 25.53967,0.028 31.86719,0.07812 0.0548,4.449044 0.1328,6.876724 0.1328,17.625 0,16.923188 -0.0344,25.36132 -0.27344,29.04688 -0.23908,3.68555 0.20696,1.29084 -1.16407,4.71875 -1.97543,4.93918 -4.75577,8.87608 -11.49218,14.72656 -5.2521,4.56141 -11.82302,8.8092 -19.0703,12.58594 z"
     id="path10" />
</svg>
