<?xml version="1.0" encoding="UTF-8" standalone="no"?>
<svg
   xmlns:dc="http://purl.org/dc/elements/1.1/"
   xmlns:cc="http://creativecommons.org/ns#"
   xmlns:rdf="http://www.w3.org/1999/02/22-rdf-syntax-ns#"
   xmlns:svg="http://www.w3.org/2000/svg"
   xmlns="http://www.w3.org/2000/svg"
   xmlns:sodipodi="http://sodipodi.sourceforge.net/DTD/sodipodi-0.dtd"
   xmlns:inkscape="http://www.inkscape.org/namespaces/inkscape"
   width="192"
   height="192"
   version="1.1"
   id="svg26"
   sodipodi:docname="apps_bisq_notifications.svg"
   inkscape:version="0.92.3 (2405546, 2018-03-11)">
  <metadata
     id="metadata32">
    <rdf:RDF>
      <cc:Work
         rdf:about="">
        <dc:format>image/svg+xml</dc:format>
        <dc:type
           rdf:resource="http://purl.org/dc/dcmitype/StillImage" />
        <dc:title></dc:title>
      </cc:Work>
    </rdf:RDF>
  </metadata>
  <defs
     id="defs30">
    <filter
       inkscape:collect="always"
       style="color-interpolation-filters:sRGB"
       id="filter892"
       x="-0.045670605"
       width="1.0913412"
       y="-0.050579784"
       height="1.1011596">
      <feGaussianBlur
         inkscape:collect="always"
         stdDeviation="3.1978209"
         id="feGaussianBlur894" />
    </filter>
    <filter
       inkscape:collect="always"
       style="color-interpolation-filters:sRGB"
       id="filter915"
       x="-0.048000162"
       width="1.0960003"
       y="-0.047999838"
       height="1.0959997">
      <feGaussianBlur
         inkscape:collect="always"
         stdDeviation="0.96000298"
         id="feGaussianBlur917" />
    </filter>
  </defs>
  <sodipodi:namedview
     pagecolor="#ffffff"
     bordercolor="#666666"
     borderopacity="1"
     objecttolerance="10"
     gridtolerance="10"
     guidetolerance="10"
     inkscape:pageopacity="0"
     inkscape:pageshadow="2"
     inkscape:window-width="1920"
     inkscape:window-height="1018"
     id="namedview28"
     showgrid="false"
     inkscape:zoom="1"
     inkscape:cx="24"
     inkscape:cy="84.836502"
     inkscape:window-x="0"
     inkscape:window-y="32"
     inkscape:window-maximized="1"
     inkscape:current-layer="svg26" />
  <path
     id="path2"
     d="m 36.742188,24.2656 c -1.403075,0.04 -2.775511,0.168 -4.117188,0.384 -10.733416,1.7088 -18.793226,9.9752 -20.429688,20.4688 -1.155984,7.4124 1.833638,15.8576 8.726563,22.7732 5.181952,5.1996 13.100002,8.808 22.750001,8.43 -0.35288,0.968 -1.81556,5.102 -3.687501,10.406 -3.106879,8.8028 -3.648437,10.9484 -3.648437,14.5236 0,4.038 0.186572,4.5636 4.882814,13.8672 2.683876,5.3168 5.71252,10.8108 6.72656,12.2108 2.45972,3.3956 6.176696,4.8672 11.484376,4.8672 6.939704,0 11.197852,-4.0408 6.875,-12.0236 -0.660184,-1.0952 -1.489992,-2.4648 -2.539064,-4.242 -3.157308,-5.3492 -3.971568,-6.3792 -3.281248,-7.2108 1.18444,-1.4272 5.258356,-0.7756 10.148436,1.6248 2.91356,1.4304 5.472592,3.4132 8.945312,6.9376 7.6186,7.7316 12.55524,15.7772 16.5,29.672 2.09428,7.3768 3.40316,9.8632 6.148436,11.6716 4.4976,2.9628 10.281,2.4372 12.625,-1.1404 1.03133,-1.574 1.60928,-7.368 1.14844,-12.8284 -0.34776,-4.1192 0.26912,-4.9608 9.46094,-4.6328 8.26828,0.292 11.16327,-0.8256 14.19531,2.0472 0.95164,0.9016 4.99232,6.2116 8.97656,11.8044 8.29304,11.6408 13.44199,19.0404 17.11719,20.8596 3.0582,1.5144 8.76419,1.7044 11.32031,0.384 1.99436,-1.0316 3.38659,-3.93 2.78907,-5.8128 -0.2298,-0.7236 -2.32919,-3.2712 -4.66407,-5.664 -4.82604,-4.946 -6.84663,-5.2268 -16.39843,-26.242 -3.64508,-8.0196 -7.36055,-12.9612 -8.26563,-13.914 -4.69464,-4.9408 -8.14355,-4.6464 -16.34375,1.3984 -7.0792,5.2188 -8.449,5.4068 -11.92188,5.8828 -3.75276,0.5144 -7.05671,-0.6008 -12.29687,-4.1408 -11.215522,-7.7056 -15.081722,-42.1992 0.41406,-30.3748 2.98916,4.072 2.34627,-2.0792 5.21875,-1.2188 1.99772,0.5984 3.85823,2.6736 6.49219,1.8124 l 1.70313,2.6796 c 9.83009,15.56 20.10981,3.3092 2.14062,-1.6716 l 0.28124,-3.3048 c 4.03961,5.0076 11.09697,7.708 17.51562,9.9532 -0.1882,-1.4088 -0.47827,-2.902 -0.85937,-4.4924 -2.92735,-12.2144 -5.35953,-16.0244 -8.26563,-15.9844 -1.48909,0 -3.1057,0.052 -4.96875,2.5472 l -4.73437,5.992 -8.25782,-8.672 C 103.64066,70.1008 95.965636,63.5496 92.281236,61.3616 c -5.974,-3.548 -10.9538,-5.016 -17.72656,-5.336 -7.33832,-0.348 -8.695308,0.5468 -16.367188,3.9768 -3.037644,1.358 -5.544096,2.3384 -7.867188,3.0704 a 6.0006,6.0006 0 0 0 -0.07812,0.04 C 39.477934,66.418 33.571364,63.6044 29.421867,59.4408 25.27237,55.2776 23.811066,48.5 24.046867,46.988 24.992682,40.9232 28.254828,37.5068 34.507804,36.5112 40.76078,35.516 50.614412,37.8096 62.351556,46.808 a 6.0006,6.0006 0 0 0 2.968748,1.1876 6.0006,6.0006 0 0 0 0.5625,0.048 6.0006,6.0006 0 0 0 0.1172,0 6.0006,6.0006 0 0 0 1.968752,-11.6872 c -9.497504,-6.93 -18.670932,-11.0652 -26.929688,-11.8988 -1.46009,-0.148 -2.893802,-0.208 -4.296876,-0.172 z"
     style="opacity:0.2;stroke-width:4;filter:url(#filter892)"
     inkscape:connector-curvature="0" />
  <path
     id="path4"
     d="m 165.75115,170.71 c -3.6752,-1.8192 -8.82888,-9.2168 -17.12192,-20.8576 -3.98424,-5.5928 -8.02272,-10.906 -8.97436,-11.8076 -3.03204,-2.8728 -5.9222,-1.7508 -14.19048,-2.0448 -9.1918,-0.328 -9.81215,0.5116 -9.46439,4.6308 0.46084,5.4604 -0.121,11.2596 -1.15233,12.8336 -2.344,3.5776 -8.12256,4.0964 -12.62016,1.1336 -2.745278,-1.8084 -4.054958,-4.294 -6.149238,-11.6708 -3.94476,-13.8948 -8.88524,-21.934 -16.50384,-29.6656 -3.47272,-3.5244 -6.02856,-5.5072 -8.94212,-6.9376 -4.89008,-2.4004 -8.96056,-3.0528 -10.145,-1.6256 -0.69032,0.8316 0.12072,1.8572 3.278028,7.2064 1.049072,1.7772 1.882328,3.1448 2.542512,4.24 4.322852,7.9828 0.06,12.0352 -6.879704,12.0272 -5.30768,0 -9.026388,-1.4744 -11.486108,-4.87 -1.01404,-1.4 -4.0396,-6.8952 -6.72348,-12.212 -4.69624,-9.3036 -4.87972,-9.8248 -4.87972,-13.8628 0,-3.5752 0.53964,-5.7248 3.64652,-14.5276 2.0056,-5.6828 3.78536,-10.6964 3.955,-11.1424 0.2436,-0.64 -1.00016,-0.8232 -5.92584,-0.8728 -1.537896,-3.6528 0.935085,-9.6976 4.883552,-10.0404 4.73684,-0.5356 8.87904,-1.8004 15.29268,-4.668 7.67188,-3.43 9.021768,-4.3228 16.360088,-3.976 6.77276,0.32 11.75596,1.79 17.72996,5.338 3.6844,2.188 11.3578,8.734 24.36556,22.526 l 9.61801,10.102 -0.32436,3.8616 c 17.96919,4.9808 7.68916,17.2324 -2.14093,1.6724 l -1.70375,-2.6812 c -2.63396,0.8612 -4.49436,-1.2092 -6.49208,-1.8076 -2.87248,-0.8604 -2.23272,5.2888 -5.22188,1.2168 -15.495782,-11.8244 -11.624274,22.6696 -0.40875,30.3752 5.24016,3.54 8.5436,4.6516 12.29636,4.1372 3.47288,-0.476 4.84308,-0.664 11.92228,-5.8828 8.2002,-6.0448 11.64176,-6.3392 16.3364,-1.3984 0.90508,0.9528 4.628,5.8944 8.27308,13.914 9.5518,21.0152 11.57036,21.2972 16.3964,26.2432 2.33488,2.3928 4.43324,4.9432 4.66304,5.6668 0.59752,1.8828 -0.79272,4.7828 -2.78708,5.8144 -2.55612,1.3216 -8.26376,1.1264 -11.32196,-0.388 z"
     style="fill:#4f4f4f;stroke-width:4"
     inkscape:connector-curvature="0" />
  <path
     id="path6"
     d="M 52,64.8 C 27.017897,72.4704 16.728214,50.9392 18.12,42.0148 20.702276,25.4568 40.767844,18.6548 66,38 v 0 0"
     style="fill:none;stroke:#4e4e4e;stroke-width:12;stroke-linecap:round;stroke-linejoin:round"
     inkscape:connector-curvature="0" />
  <path
     style="opacity:0.1;fill:#ffffff;stroke-width:4"
     d="M 36.742188,20.242188 C 35.339112,20.278688 33.966677,20.411 32.625,20.625 21.891584,22.3338 13.831774,30.600144 12.195312,41.09375 c -0.17535,1.124384 -0.236503,2.274403 -0.214843,3.4375 0.02287,-0.822486 0.08985,-1.636021 0.214843,-2.4375 C 13.831774,31.600144 21.891584,23.3338 32.625,21.625 c 1.341677,-0.214 2.714112,-0.346312 4.117188,-0.382812 1.403074,-0.0365 2.836781,0.02388 4.296874,0.171874 8.258757,0.8336 17.432184,4.968434 26.929688,11.898438 2.258902,0.767572 3.848517,2.800408 4.048828,5.177734 C 72.24538,35.745901 70.576009,33.198761 67.96875,32.3125 58.471246,25.382496 49.297819,21.247662 41.039062,20.414062 39.578969,20.266063 38.145262,20.205688 36.742188,20.242188 Z M 24.359375,45.515625 c -0.11502,0.479568 -0.231704,0.950674 -0.3125,1.46875 -0.03303,0.211773 -0.02456,0.546633 0.01172,0.943359 0.08029,-0.494721 0.190191,-0.951013 0.300781,-1.412109 0.59865,2.772612 2.133231,6.943872 5.0625,9.882813 4.149497,4.163599 10.056061,6.976911 20.820313,3.671874 0.02599,-0.008 0.05203,-0.0158 0.07812,-0.02344 2.323093,-0.7319 4.829544,-1.712153 7.867188,-3.070313 7.67188,-3.43 9.028868,-4.323362 16.367188,-3.976562 6.772759,0.32 11.752562,1.787937 17.726562,5.335938 3.6844,2.187999 11.359433,8.739249 24.367193,22.53125 l 8.25781,8.671874 4.73437,-5.992187 C 131.50369,81.052079 133.12027,81 134.60938,81 c 2.90609,-0.04 5.33827,3.769979 8.26562,15.984375 0.28797,1.201663 0.50614,2.331383 0.68555,3.427735 0.0578,0.0214 0.11657,0.0444 0.17383,0.0645 C 143.54602,99.067503 143.2561,97.574639 142.875,95.984375 139.94765,83.769979 137.51547,79.96 134.60938,80 c -1.48911,0 -3.10569,0.05208 -4.96876,2.546875 l -4.73437,5.992187 -8.25781,-8.671874 C 103.64068,66.075187 95.96565,59.523938 92.28125,57.335938 86.30725,53.787938 81.327447,52.32 74.554688,52 67.216368,51.6532 65.85938,52.546562 58.1875,55.976562 c -3.037644,1.35816 -5.544095,2.338413 -7.867188,3.070313 -0.02609,0.0076 -0.05214,0.01545 -0.07812,0.02344 C 39.47794,62.375352 33.571376,59.56204 29.421879,55.398441 26.49261,52.4595 24.958029,48.28824 24.359379,45.515628 Z M 42.25,76.304688 c -0.678692,1.912632 -1.114732,3.137413 -2.265625,6.398437 -3.106879,8.8028 -3.648437,10.948238 -3.648437,14.523437 0,0.207836 0.0067,0.37582 0.0098,0.564454 0.04727,-3.32235 0.663011,-5.656873 3.638672,-14.087891 1.150893,-3.261024 1.586933,-4.485805 2.265625,-6.398437 0.357479,6.01e-4 0.711132,0.01022 1.068359,0.01172 0.05351,-0.148963 0.319732,-0.90342 0.353516,-0.996094 -0.484632,0.0188 -0.946107,-0.01482 -1.421875,-0.01562 z M 61.5625,108.125 c -0.455868,0.12152 -0.839633,0.30636 -1.078125,0.59375 -0.251266,0.30269 -0.297213,0.63741 -0.109375,1.19141 0.03401,-0.0644 0.05904,-0.13077 0.109375,-0.19141 0.238492,-0.28739 0.622257,-0.47223 1.078125,-0.59375 0.568064,0.99618 1.076157,1.87191 2.203125,3.78125 1.049072,1.7772 1.878878,3.14699 2.539063,4.24219 1.067024,1.9704 1.590073,3.68597 1.6875,5.16601 0.120537,-1.68909 -0.371132,-3.73516 -1.6875,-6.16601 -0.660185,-1.0952 -1.489991,-2.46499 -2.539063,-4.24219 -1.126968,-1.90934 -1.635061,-2.78507 -2.203125,-3.78125 z m 83.01758,7.89844 c -0.29709,-0.0164 -0.59895,-0.0108 -0.9082,0.0156 -0.59853,0.0512 -1.2224,0.19344 -1.88282,0.40625 0,0 1.88282,0.59375 0,1 0.66042,-0.21281 1.28429,-0.35505 1.88282,-0.40625 2.47407,-0.21161 4.51205,0.95148 6.85937,3.42188 0.90508,0.9528 4.62054,5.89446 8.26563,13.91406 9.5518,21.0152 11.57239,21.29619 16.39843,26.24219 2.33488,2.3928 4.43426,4.94046 4.66407,5.66406 0.042,0.13233 0.0732,0.27089 0.0957,0.41211 0.0559,-0.49915 0.0404,-0.98331 -0.0957,-1.41211 -0.22981,-0.7236 -2.32919,-3.27126 -4.66407,-5.66406 -4.82604,-4.946 -6.84663,-5.22699 -16.39843,-26.24219 -3.64509,-8.0196 -7.36055,-12.96126 -8.26563,-13.91406 -2.0539,-2.1616 -3.87156,-3.32287 -5.95117,-3.4375 z m -28.52539,26.08594 c -0.11313,0.45427 -0.1218,1.02812 -0.0977,1.6621 0.019,-0.23614 0.0473,-0.45994 0.0977,-0.6621 0.0316,0.62327 0.0415,1.23006 0.0488,1.83398 0.009,-0.92445 3.7e-4,-1.86332 -0.0488,-2.83398 z"
     id="path8"
     inkscape:connector-curvature="0"
     sodipodi:nodetypes="scccccscccccscscccccccccccccccccccccccccccccscccccccccccccccccccccccccccccccccccccccc" />
  <path
     id="path10"
     d="m 105.38972,82 c -2.9061,-0.04 -5.34529,3.77 -8.27264,15.9844 -0.764772,3.1912 -1.153152,5.988 -1.11708,8.5076 0.10528,7.35 5.06647,13.5176 13.77992,19.3048 4.24348,2.8184 7.24665,4.0548 10.21778,4.2032 2.97112,-0.148 5.97429,-1.3848 10.21777,-4.2032 8.71345,-5.7872 13.67465,-11.9548 13.77992,-19.3048 0.036,-2.5196 -0.35232,-5.3164 -1.11708,-8.5076 C 139.95096,85.77 137.51177,81.96 134.60567,82 c -1.48909,0 -3.10522,0.052 -4.96827,2.5468 -3.04406,4.0764 -6.03483,8.1624 -8.96008,9.0236 -0.25116,0.072 -0.45628,0.104 -0.67962,0.156 -0.22332,-0.052 -0.42846,-0.084 -0.67962,-0.156 -2.92526,-0.8612 -5.91603,-4.9472 -8.96008,-9.0236 -1.86306,-2.4952 -3.47918,-2.5292 -4.96828,-2.5468 z"
     style="opacity:0.2;stroke-width:4;filter:url(#filter915)"
     inkscape:connector-curvature="0" />
  <path
     id="path12"
     d="m 105.38972,80 c -2.9061,-0.04 -5.34529,3.77 -8.27264,15.9844 -0.764772,3.1912 -1.153152,5.988 -1.11708,8.5076 0.10528,7.35 5.06647,13.5176 13.77992,19.3048 4.24348,2.8184 7.24665,4.0548 10.21778,4.2032 2.97112,-0.148 5.97429,-1.3848 10.21777,-4.2032 8.71345,-5.7872 13.67465,-11.9548 13.77992,-19.3048 0.0196,-1.3704 -0.0864,-2.8228 -0.31016,-4.3764 -0.18764,-1.3024 -1.67811,-2.2944 -2.0269,-3.75 -2.92735,-12.2144 -4.60406,-14.4232 -7.51015,-14.3832 -1.4891,0 -1.88525,-0.4056 -3.7483,2.0892 -1.5278,2.046 -3.80466,2.5696 -5.30406,4.2112 -1.48808,1.6296 -2.96142,2.8588 -4.4185,3.2876 -0.25116,0.072 -0.45629,0.104 -0.67963,0.156 -0.22332,-0.052 -0.42845,-0.084 -0.67962,-0.156 -2.92525,-0.8612 -5.91602,-4.9472 -8.96008,-9.0236 -1.86305,-2.4952 -3.47918,-2.5292 -4.96827,-2.5468 z"
     style="fill:#ffffff;stroke-width:4"
     inkscape:connector-curvature="0" />
  <path
     id="path14"
     d="m 124.85938,88.601564 c 3.63812,6.285924 11.67364,9.356304 18.875,11.874996 C 143.54616,99.06768 143.2561,97.57464 142.875,95.984376 139.94765,83.769976 137.51547,79.96 134.60938,80 c -1.4891,0 -3.1057,0.05208 -4.96876,2.546876 z"
     style="fill:#4f4f4f;stroke-width:4"
     inkscape:connector-curvature="0" />
  <path
     id="path16"
     d="m 107.26498,104.0028 c 2.98993,-0.08 4.73391,1.5276 4.73391,4.5652 0,3.4212 -0.43974,3.8196 -3.56997,3.1752 -2.95446,-0.6084 -4.76225,-1.6276 -5.60102,-3.1456 -1.33309,-2.412 -1.10835,-3.2344 1.05459,-3.9404 1.25384,-0.4088 2.38584,-0.628 3.38249,-0.6544 z"
     style="fill:#4f4f4f;stroke-width:4"
     inkscape:connector-curvature="0" />
  <path
     id="path18"
     d="m 132.73392,104.0024 c 0.99665,0.04 2.12865,0.244 3.38249,0.6544 2.16294,0.706 2.38767,1.5288 1.05458,3.9408 -0.83877,1.5176 -2.64656,2.5368 -5.60102,3.1452 -3.13023,0.6444 -3.56997,0.248 -3.56997,-3.1752 0,-3.0372 1.74398,-4.6448 4.73392,-4.5652 z"
     style="fill:#4f4f4f;stroke-width:4"
     inkscape:connector-curvature="0" />
  <path
     id="path20"
     d="m 120,116.0008 c 3.30924,0.048 6,0.176 6,0.372 0,0.22 -1.59968,2.4612 -3.55276,4.4556 L 120,124 117.55276,120.8284 C 115.59968,118.834 114,116.5956 114,116.3728 c 0,-0.196 2.69077,-0.34 6,-0.372 z"
     style="fill:#4f4f4f;stroke-width:4"
     inkscape:connector-curvature="0" />
  <path
     style="opacity:0.1;fill:#ffffff;stroke-width:4"
     d="M 105.39062 80 C 102.48453 79.96 100.04454 83.769975 97.117188 95.984375 C 96.352416 99.175575 95.963928 101.97259 96 104.49219 C 96.001285 104.58334 96.014121 104.67152 96.019531 104.76172 C 96.058756 102.43071 96.42428 99.875705 97.117188 96.984375 C 100.04454 84.769975 102.48453 80.96 105.39062 81 C 106.87973 81.0176 108.49631 81.051675 110.35938 83.546875 C 113.40342 87.623275 116.39506 91.709113 119.32031 92.570312 C 119.57148 92.642313 119.77668 92.674562 120 92.726562 C 120.22334 92.674562 120.42853 92.642313 120.67969 92.570312 C 123.60494 91.709113 126.59658 87.623275 129.64062 83.546875 C 131.50369 81.052079 133.12027 81 134.60938 81 C 137.51546 80.96 139.94766 84.769975 142.875 96.984375 C 143.56789 99.875705 143.93339 102.43071 143.97266 104.76172 C 143.97808 104.67152 143.99088 104.58334 143.99219 104.49219 C 144.02819 101.97259 143.63975 99.175575 142.875 95.984375 C 139.94766 83.769975 137.51546 79.96 134.60938 80 C 133.12027 80 131.50369 80.052079 129.64062 82.546875 C 126.59658 86.623275 123.60494 90.709113 120.67969 91.570312 C 120.42853 91.642313 120.22334 91.674562 120 91.726562 C 119.77668 91.674562 119.57148 91.642313 119.32031 91.570312 C 116.39506 90.709113 113.40342 86.623275 110.35938 82.546875 C 108.49632 80.051675 106.87973 80.0176 105.39062 80 z "
     id="path22" />
</svg>
