<?xml version="1.0" encoding="UTF-8" standalone="no"?>
<svg
   xmlns:dc="http://purl.org/dc/elements/1.1/"
   xmlns:cc="http://creativecommons.org/ns#"
   xmlns:rdf="http://www.w3.org/1999/02/22-rdf-syntax-ns#"
   xmlns:svg="http://www.w3.org/2000/svg"
   xmlns="http://www.w3.org/2000/svg"
   xmlns:sodipodi="http://sodipodi.sourceforge.net/DTD/sodipodi-0.dtd"
   xmlns:inkscape="http://www.inkscape.org/namespaces/inkscape"
   width="192"
   height="192"
   version="1"
   id="svg14"
   sodipodi:docname="apps_skype_business.svg"
   inkscape:version="0.92.3 (2405546, 2018-03-11)">
  <metadata
     id="metadata20">
    <rdf:RDF>
      <cc:Work
         rdf:about="">
        <dc:format>image/svg+xml</dc:format>
        <dc:type
           rdf:resource="http://purl.org/dc/dcmitype/StillImage" />
        <dc:title />
      </cc:Work>
    </rdf:RDF>
  </metadata>
  <defs
     id="defs18">
    <filter
       inkscape:collect="always"
       style="color-interpolation-filters:sRGB"
       id="filter860"
       x="-0.048"
       width="1.096"
       y="-0.048"
       height="1.096">
      <feGaussianBlur
         inkscape:collect="always"
         stdDeviation="3.2"
         id="feGaussianBlur862" />
    </filter>
    <filter
       inkscape:collect="always"
       style="color-interpolation-filters:sRGB"
       id="filter843"
       x="-0.053052632"
       width="1.1061053"
       y="-0.043826087"
       height="1.0876522">
      <feGaussianBlur
         inkscape:collect="always"
         stdDeviation="1.68"
         id="feGaussianBlur845" />
    </filter>
    <filter
       inkscape:collect="always"
       style="color-interpolation-filters:sRGB"
       id="filter871"
       x="-0.048"
       width="1.096"
       y="-0.048"
       height="1.096">
      <feGaussianBlur
         inkscape:collect="always"
         stdDeviation="2.88"
         id="feGaussianBlur873" />
    </filter>
  </defs>
  <sodipodi:namedview
     pagecolor="#ffffff"
     bordercolor="#666666"
     borderopacity="1"
     objecttolerance="10"
     gridtolerance="10"
     guidetolerance="10"
     inkscape:pageopacity="0"
     inkscape:pageshadow="2"
     inkscape:window-width="1920"
     inkscape:window-height="1018"
     id="namedview16"
     showgrid="false"
     inkscape:zoom="1"
     inkscape:cx="36.532968"
     inkscape:cy="89.795062"
     inkscape:window-x="0"
     inkscape:window-y="32"
     inkscape:window-maximized="1"
     inkscape:current-layer="svg14">
    <inkscape:grid
       type="xygrid"
       id="grid838" />
  </sodipodi:namedview>
  <path
     d="m 59.407093,20.001264 c -23.999166,0 -43.407092,19.425207 -43.407092,43.393557 0,7.40461 1.877844,14.5688 5.14704,20.674887 -1.083599,5.170091 -1.680788,10.432812 -1.680788,15.917006 0,42.239876 34.268823,76.505036 76.578211,76.505036 5.461146,0 10.749666,-0.57856 15.896706,-1.66184 C 118.07349,178.14746 125.1473,180 132.59712,180 156.59334,180.00421 176,160.5769 176,136.61065 c 0,-7.45387 -1.87785,-14.5688 -5.17188,-20.69931 1.0836,-5.14567 1.66234,-10.43281 1.66234,-15.89216 0,-42.218826 -34.26882,-76.505042 -76.527682,-76.505042 -5.485571,0 -10.774508,0.553935 -15.921548,1.661848 C 73.927437,21.90189 66.760993,20.000001 59.354545,20.000001"
     id="path840"
     inkscape:connector-curvature="0"
     style="opacity:0.2;fill:#000000;stroke-width:4.21055794;filter:url(#filter860)" />
  <path
     style="fill:#2d9cf2;stroke-width:4.21055794"
     inkscape:connector-curvature="0"
     id="path2"
     d="m 59.407093,16.001265 c -23.999166,0 -43.407092,19.425207 -43.407092,43.393557 0,7.40461 1.877844,14.5688 5.14704,20.674887 -1.083599,5.170091 -1.680788,10.432812 -1.680788,15.917006 0,42.239875 34.268823,76.505035 76.578211,76.505035 5.461146,0 10.749666,-0.57856 15.896706,-1.66184 C 118.07349,174.14746 125.1473,176 132.59712,176 156.59334,176.00421 176,156.5769 176,132.61065 c 0,-7.45387 -1.87785,-14.5688 -5.17188,-20.69931 1.0836,-5.14567 1.66234,-10.43281 1.66234,-15.892161 0,-42.218824 -34.26882,-76.50504 -76.527682,-76.50504 -5.485571,0 -10.774508,0.553935 -15.921548,1.661848 -6.113793,-3.274096 -13.280237,-5.175985 -20.686685,-5.175985" />
  <path
     d="m 94.56213,52 c 23.07516,0 34.98387,11.990164 34.98387,19.026942 0,7.060196 -3.4348,8.116528 -9.098,8.116528 -11.00558,0 -6.50133,-13.046496 -27.115798,-13.046496 -6.822228,0 -15.343891,3.069427 -15.343891,10.910414 0,6.303283 7.54718,8.621276 20.870329,11.85509 C 118.9352,94.156685 134,99.429982 134,117.56661 134,135.17215 119.42497,144 96.346431,144 73.27127,144 58.533685,130.42534 58.533685,123.38856 c 0,-7.03677 2.715762,-8.80318 8.378955,-8.80318 11.023315,0 9.537946,14.80705 30.152409,14.80705 6.845871,0 16.948341,-3.06943 16.948341,-10.93383 0,-6.27987 -0.53484,-8.45693 -15.159395,-12.33643 C 83.231859,104.03963 58,99.038144 58,79.872783 58,62.267247 71.506813,52.017564 94.581129,52.017564"
     id="path829"
     inkscape:connector-curvature="0"
     style="opacity:0.2;fill:#000000;stroke-width:4.20196962;filter:url(#filter843)" />
  <path
     style="fill:#ffffff;stroke-width:4.20196962"
     inkscape:connector-curvature="0"
     id="path6"
     d="m 94.56213,50 c 23.07516,0 34.98387,11.990164 34.98387,19.026942 0,7.060196 -3.4348,8.116528 -9.098,8.116528 -11.00558,0 -6.50133,-13.046496 -27.115798,-13.046496 -6.822228,0 -15.343891,3.069427 -15.343891,10.910414 0,6.303283 7.54718,8.621276 20.870329,11.85509 C 118.9352,92.156685 134,97.429982 134,115.56661 134,133.17215 119.42497,142 96.346431,142 73.27127,142 58.533685,128.42534 58.533685,121.38856 c 0,-7.03677 2.715762,-8.80318 8.378955,-8.80318 11.023315,0 9.537946,14.80705 30.152409,14.80705 6.845871,0 16.948341,-3.06943 16.948341,-10.93383 0,-6.27987 -0.53484,-8.45693 -15.159395,-12.33643 C 83.231859,102.03963 58,97.038144 58,77.872783 58,60.267247 71.506813,50.017564 94.581129,50.017564" />
  <path
     inkscape:connector-curvature="0"
     style="opacity:0.2;fill:#ffffff;stroke-width:4.21055794"
     d="M 59.40625,16.001953 C 35.407084,16.001953 16,35.426181 16,59.394531 c 0,0.14848 0.01217,0.295079 0.01367,0.44336 0.299197,-23.710449 19.58041,-42.835938 43.392578,-42.835938 7.388329,0.0087 14.535018,1.907254 20.634766,5.173828 5.14704,-1.107913 10.436304,-1.662109 15.921875,-1.662109 42.088241,0 76.246301,34.011963 76.521491,75.996094 0.001,-0.163755 0.006,-0.32617 0.006,-0.490235 0,-42.218824 -34.26848,-76.505859 -76.527341,-76.505859 -5.485571,0 -10.774835,0.554196 -15.921875,1.662109 C 73.941268,17.909207 66.794579,16.010669 59.40625,16.001953 Z M 21.011719,80.798828 c -0.989364,4.936933 -1.544922,9.959672 -1.544922,15.1875 0,0.170382 0.0047,0.339645 0.0059,0.509766 0.03459,-5.30726 0.62267,-10.41047 1.673828,-15.425782 -0.04746,-0.08864 -0.0879,-0.182402 -0.134765,-0.271484 z M 170.96875,112.19531 c -0.0479,0.23851 -0.0905,0.4789 -0.14063,0.7168 3.22806,6.00773 5.08468,12.96288 5.15821,20.25391 0.002,-0.18554 0.0137,-0.36861 0.0137,-0.55469 0,-7.34137 -1.82915,-14.34891 -5.03125,-20.41602 z"
     id="path884" />
  <path
     style="color:#000000;font-style:normal;font-variant:normal;font-weight:normal;font-stretch:normal;font-size:medium;line-height:normal;font-family:sans-serif;font-variant-ligatures:normal;font-variant-position:normal;font-variant-caps:normal;font-variant-numeric:normal;font-variant-alternates:normal;font-feature-settings:normal;text-indent:0;text-align:start;text-decoration:none;text-decoration-line:none;text-decoration-style:solid;text-decoration-color:#000000;letter-spacing:normal;word-spacing:normal;text-transform:none;writing-mode:lr-tb;direction:ltr;text-orientation:mixed;dominant-baseline:auto;baseline-shift:baseline;text-anchor:start;white-space:normal;shape-padding:0;clip-rule:nonzero;display:inline;overflow:visible;visibility:visible;opacity:0.2;isolation:auto;mix-blend-mode:normal;color-interpolation:sRGB;color-interpolation-filters:linearRGB;solid-color:#000000;solid-opacity:1;vector-effect:none;fill:#000000;fill-opacity:1;fill-rule:nonzero;stroke:none;stroke-width:7.99964809;stroke-linecap:butt;stroke-linejoin:miter;stroke-miterlimit:4;stroke-dasharray:none;stroke-dashoffset:0;stroke-opacity:1;color-rendering:auto;image-rendering:auto;shape-rendering:auto;text-rendering:auto;enable-background:accumulate;filter:url(#filter871)"
     d="M 60.443359,25.999999 C 40.250999,26.004581 24,42.276848 24,62.439452 c 0,6.240449 1.589873,12.279436 4.324219,17.386719 l 0.980469,1.833984 -0.427735,2.035156 c -0.978934,4.670772 -1.509766,9.382082 -1.509765,14.291016 0,37.927433 30.676192,68.605473 68.675781,68.605473 4.899711,0 9.638071,-0.51627 14.265621,-1.49024 l 2.05274,-0.43359 1.84375,0.99805 C 119.32707,168.43701 125.26444,170 131.55273,170 151.74513,170.00335 168,153.72791 168,133.56445 c 0,-6.2852 -1.58577,-12.27132 -4.34375,-17.40429 l -0.98828,-1.83789 0.42969,-2.04297 h 0.002 c 0.97425,-4.62645 1.49023,-9.36409 1.49023,-14.261723 0,-37.906426 -30.67878,-68.605469 -68.624996,-68.605469 -4.941881,0 -9.66989,0.497489 -14.263672,1.486329 l -2.052734,0.441406 -1.84961,-0.990235 C 72.686596,27.611852 66.662432,26.008203 60.449219,25.999999 h -0.0039 z m -0.0039,8 h 0.0059 c 4.819621,0.0074 9.646343,1.296754 13.578126,3.402344 l 4.439453,2.376953 4.921875,-1.060547 c 4.031883,-0.867887 8.172192,-1.308594 12.580078,-1.308594 33.648079,0 60.626959,27.000941 60.626959,60.607422 0,4.336203 -0.45482,8.503273 -1.32032,12.613283 l -1.03515,4.90234 2.375,4.41407 h -0.002 C 158.74183,123.91605 160,128.63076 160,133.56445 160,149.4764 147.49546,162.00265 131.55469,162 h -0.002 c -4.96477,0 -9.58612,-1.22955 -13.54101,-3.36914 l -4.42578,-2.39453 -4.92578,1.03711 c -4.11207,0.86547 -8.27886,1.31836 -12.617191,1.31836 -33.711899,0 -60.675782,-26.97383 -60.675781,-60.605473 0,-4.3358 0.462503,-8.462397 1.339843,-12.648437 L 37.732422,80.451171 35.375,76.05078 C 33.281392,72.140283 32,67.300497 32,62.439452 32,46.529488 44.498716,34.006747 60.439453,33.999999 Z"
     id="path851"
     inkscape:connector-curvature="0" />
  <path
     style="fill:none;stroke:#ffffff;stroke-width:7.99964809;stroke-miterlimit:4;stroke-dasharray:none;stroke-opacity:1"
     d="m 60.444091,27.999845 c -18.067976,0.0041 -32.444266,14.401746 -32.444266,32.439025 0,5.550747 1.435698,10.990578 3.849675,15.499468 l 1.669644,3.117351 -0.726674,3.460769 c -0.928137,4.428406 -1.424891,8.846935 -1.424891,13.469302 0,35.77954 28.820286,64.60674 64.67603,64.60674 4.619021,0 9.070841,-0.48622 13.440651,-1.40594 l 3.4892,-0.73428 3.13437,1.69625 c 4.53844,2.45529 9.81769,3.85163 15.44422,3.85163 h 0.002 c 18.06658,0.003 32.44613,-14.39755 32.44613,-32.43525 0,-5.60945 -1.42154,-10.95998 -3.86676,-15.51086 l -1.68102,-3.12683 0.73236,-3.47215 c 0.91987,-4.36823 1.40591,-8.82014 1.40591,-13.437055 0,-35.756454 -28.82954,-64.606731 -64.626688,-64.606731 -4.674883,0 -9.108849,0.468089 -13.421682,1.396452 l -3.487314,0.751349 -3.143869,-1.682949 C 71.388314,29.454037 65.96148,28.00713 60.444091,27.999845 Z"
     id="path825"
     inkscape:connector-curvature="0" />
</svg>
