<?xml version="1.0" encoding="UTF-8" standalone="no"?>
<svg
   xmlns:dc="http://purl.org/dc/elements/1.1/"
   xmlns:cc="http://creativecommons.org/ns#"
   xmlns:rdf="http://www.w3.org/1999/02/22-rdf-syntax-ns#"
   xmlns:svg="http://www.w3.org/2000/svg"
   xmlns="http://www.w3.org/2000/svg"
   xmlns:sodipodi="http://sodipodi.sourceforge.net/DTD/sodipodi-0.dtd"
   xmlns:inkscape="http://www.inkscape.org/namespaces/inkscape"
   width="192"
   height="192"
   version="1"
   id="svg30"
   sodipodi:docname="apps_figma.svg"
   inkscape:version="0.92.3 (2405546, 2018-03-11)">
  <metadata
     id="metadata36">
    <rdf:RDF>
      <cc:Work
         rdf:about="">
        <dc:format>image/svg+xml</dc:format>
        <dc:type
           rdf:resource="http://purl.org/dc/dcmitype/StillImage" />
        <dc:title></dc:title>
      </cc:Work>
    </rdf:RDF>
  </metadata>
  <defs
     id="defs34">
    <filter
       inkscape:collect="always"
       style="color-interpolation-filters:sRGB"
       id="filter889"
       x="-0.048"
       width="1.096"
       y="-0.048"
       height="1.096">
      <feGaussianBlur
         inkscape:collect="always"
         stdDeviation="3.2"
         id="feGaussianBlur891" />
    </filter>
    <filter
       inkscape:collect="always"
       style="color-interpolation-filters:sRGB"
       id="filter947"
       x="-0.072"
       width="1.144"
       y="-0.072"
       height="1.144">
      <feGaussianBlur
         inkscape:collect="always"
         stdDeviation="1.2"
         id="feGaussianBlur949" />
    </filter>
    <filter
       inkscape:collect="always"
       style="color-interpolation-filters:sRGB"
       id="filter951"
       x="-0.072"
       width="1.144"
       y="-0.072"
       height="1.144">
      <feGaussianBlur
         inkscape:collect="always"
         stdDeviation="1.2"
         id="feGaussianBlur953" />
    </filter>
    <filter
       inkscape:collect="always"
       style="color-interpolation-filters:sRGB"
       id="filter1003"
       x="-0.072"
       width="1.144"
       y="-0.072"
       height="1.144">
      <feGaussianBlur
         inkscape:collect="always"
         stdDeviation="1.2"
         id="feGaussianBlur1005" />
    </filter>
    <filter
       inkscape:collect="always"
       style="color-interpolation-filters:sRGB"
       id="filter1007"
       x="-0.072"
       width="1.144"
       y="-0.072"
       height="1.144">
      <feGaussianBlur
         inkscape:collect="always"
         stdDeviation="1.2"
         id="feGaussianBlur1009" />
    </filter>
    <filter
       inkscape:collect="always"
       style="color-interpolation-filters:sRGB"
       id="filter1027"
       x="-0.048"
       width="1.096"
       y="-0.048"
       height="1.096">
      <feGaussianBlur
         inkscape:collect="always"
         stdDeviation="0.8"
         id="feGaussianBlur1029" />
    </filter>
  </defs>
  <sodipodi:namedview
     pagecolor="#ffffff"
     bordercolor="#666666"
     borderopacity="1"
     objecttolerance="10"
     gridtolerance="10"
     guidetolerance="10"
     inkscape:pageopacity="0"
     inkscape:pageshadow="2"
     inkscape:window-width="1920"
     inkscape:window-height="1018"
     id="namedview32"
     showgrid="false"
     inkscape:zoom="1"
     inkscape:cx="24"
     inkscape:cy="77.763441"
     inkscape:window-x="0"
     inkscape:window-y="32"
     inkscape:window-maximized="1"
     inkscape:current-layer="svg30" />
  <rect
     style="opacity:0.2;stroke-width:4;filter:url(#filter889)"
     width="160"
     height="160"
     x="16"
     y="20"
     rx="48"
     ry="48"
     id="rect2" />
  <rect
     style="fill:#424652;stroke-width:4"
     width="160"
     height="160"
     x="16"
     y="16"
     rx="48"
     ry="48"
     id="rect4" />
  <path
     style="opacity:0.1;fill:#ffffff;stroke-width:4"
     d="M 64 16 C 37.408 16 16 37.408 16 64 L 16 65 C 16 38.408 37.408 17 64 17 L 128 17 C 154.592 17 176 38.408 176 65 L 176 64 C 176 37.408 154.592 16 128 16 L 64 16 z "
     id="path6" />
  <path
     inkscape:connector-curvature="0"
     style="opacity:0.2;stroke-width:4;filter:url(#filter1027)"
     d="m 76,118 a 20,20 0 0 0 -20,20 20,20 0 0 0 20,20 20,20 0 0 0 20,-20 v -20 z"
     id="path8" />
  <path
     inkscape:connector-curvature="0"
     style="fill:#09c37b;stroke-width:4"
     d="m 76,116 a 20,20 0 0 0 -20,20 20,20 0 0 0 20,20 20,20 0 0 0 20,-20 v -20 z"
     id="path10" />
  <path
     inkscape:connector-curvature="0"
     style="opacity:0.2;stroke-width:4;filter:url(#filter1003)"
     d="m 76,78 h 20 v 40 H 76 C 64.92,118 56,109.08 56,98 56,86.92 64.92,78 76,78 Z"
     id="path12" />
  <circle
     style="opacity:0.2;stroke-width:4;filter:url(#filter1007)"
     cx="116"
     cy="98"
     r="20"
     id="circle14" />
  <path
     inkscape:connector-curvature="0"
     style="fill:#9154dd;stroke-width:4"
     d="m 76,76 h 20 v 40 H 76 C 64.92,116 56,107.08 56,96 56,84.92 64.92,76 76,76 Z"
     id="path16" />
  <circle
     style="fill:#01b1f8;stroke-width:4"
     cx="116"
     cy="96"
     r="20"
     id="circle18" />
  <path
     inkscape:connector-curvature="0"
     style="opacity:0.2;stroke-width:4;filter:url(#filter951)"
     d="m 76,38 c -11.08,0 -20,8.92 -20,20 0,11.08 8.92,20 20,20 H 96 V 38 Z"
     id="path20" />
  <path
     inkscape:connector-curvature="0"
     style="fill:#f24e1e;stroke-width:4"
     d="m 76,36 c -11.08,0 -20,8.92 -20,20 0,11.08 8.92,20 20,20 H 96 V 36 Z"
     id="path22" />
  <path
     inkscape:connector-curvature="0"
     style="opacity:0.2;stroke-width:4;filter:url(#filter947)"
     d="m 96,38 h 20 c 11.08,0 20,8.92 20,20 0,11.08 -8.92,20 -20,20 H 96 Z"
     id="path24" />
  <path
     inkscape:connector-curvature="0"
     style="fill:#ff7262;stroke-width:4"
     d="m 96,36 h 20 c 11.08,0 20,8.92 20,20 0,11.08 -8.92,20 -20,20 H 96 Z"
     id="path26" />
  <path
     style="opacity:0.2;fill:#ffffff;stroke-width:4"
     d="M 76 36 C 64.92 36 56 44.92 56 56 C 56 56.166207 56.00744 56.329323 56.011719 56.494141 C 56.279424 45.650749 65.08984 37 76 37 L 96 37 L 116 37 C 126.90359 37 135.7085 45.640391 135.98633 56.474609 C 135.99029 56.316244 136 56.159651 136 56 C 136 44.92 127.08 36 116 36 L 96 36 L 76 36 z "
     id="path28" />
</svg>
