<?xml version="1.0" encoding="UTF-8" standalone="no"?>
<svg
   xmlns:dc="http://purl.org/dc/elements/1.1/"
   xmlns:cc="http://creativecommons.org/ns#"
   xmlns:rdf="http://www.w3.org/1999/02/22-rdf-syntax-ns#"
   xmlns:svg="http://www.w3.org/2000/svg"
   xmlns="http://www.w3.org/2000/svg"
   xmlns:sodipodi="http://sodipodi.sourceforge.net/DTD/sodipodi-0.dtd"
   xmlns:inkscape="http://www.inkscape.org/namespaces/inkscape"
   width="192"
   height="192"
   version="1"
   id="svg14"
   sodipodi:docname="apps_uc_browser.svg"
   inkscape:version="0.92.3 (2405546, 2018-03-11)">
  <metadata
     id="metadata20">
    <rdf:RDF>
      <cc:Work
         rdf:about="">
        <dc:format>image/svg+xml</dc:format>
        <dc:type
           rdf:resource="http://purl.org/dc/dcmitype/StillImage" />
      </cc:Work>
    </rdf:RDF>
  </metadata>
  <defs
     id="defs18">
    <filter
       inkscape:collect="always"
       style="color-interpolation-filters:sRGB"
       id="filter850"
       x="-0.048"
       width="1.096"
       y="-0.048"
       height="1.096">
      <feGaussianBlur
         inkscape:collect="always"
         stdDeviation="3.2"
         id="feGaussianBlur852" />
    </filter>
    <filter
       inkscape:collect="always"
       style="color-interpolation-filters:sRGB"
       id="filter871"
       x="-0.047950897"
       width="1.0959018"
       y="-0.048049203"
       height="1.0960984">
      <feGaussianBlur
         inkscape:collect="always"
         stdDeviation="2.2423529"
         id="feGaussianBlur873" />
    </filter>
  </defs>
  <sodipodi:namedview
     pagecolor="#ffffff"
     bordercolor="#666666"
     borderopacity="1"
     objecttolerance="10"
     gridtolerance="10"
     guidetolerance="10"
     inkscape:pageopacity="0"
     inkscape:pageshadow="2"
     inkscape:window-width="1920"
     inkscape:window-height="1018"
     id="namedview16"
     showgrid="false"
     inkscape:zoom="1"
     inkscape:cx="96"
     inkscape:cy="96"
     inkscape:window-x="0"
     inkscape:window-y="32"
     inkscape:window-maximized="1"
     inkscape:current-layer="svg14" />
  <path
     style="opacity:0.2;fill:#000000;stroke-width:4.00043249;filter:url(#filter850)"
     d="m 70.290974,20.041982 c -5.181972,0.200075 -10.67042,1.324294 -15.284834,2.851511 -12.353091,4.088471 -22.353729,11.122675 -30.366501,21.374608 -1.292413,1.653577 -2.453782,3.249596 -3.657108,5.10147 -0.601663,0.925935 -1.175625,1.785655 -2.070798,3.554623 -0.447587,0.884484 -1.00698,1.822835 -1.789483,4.48429 -0.391251,1.330731 -0.956868,3.053016 -1.000234,6.609255 -0.04337,3.556243 0.441545,10.737319 7.064157,17.351246 1.894673,1.892389 3.7865,2.620016 5.688835,3.632745 -5.607209,8.037477 -9.695702,16.09972 -11.40802,24.20268 -1.92033,9.08708 -1.890483,13.9064 -0.289132,22.78865 2.059559,11.42426 7.048209,21.32296 14.822884,29.54633 9.501711,10.05003 22.860562,15.98696 36.344465,17.8278 2.868065,0.39175 5.073643,0.57237 7.392359,0.6328 0.226613,0 32.234126,0 48.544376,1e-5 6.87414,0 12.79903,-1.81738 16.90066,-3.54679 2.61835,-1.12194 6.71748,-3.32263 10.21334,-8.09359 3.49586,-4.77097 4.89312,-11.48011 4.6886,-15.64815 -0.22826,-4.6512 -0.87573,-6.84139 -1.50036,-8.1561 2.94728,-0.35075 7.4327,-1.44556 11.71369,-4.66399 4.40703,-3.31314 7.38093,-8.29402 8.40041,-11.64821 1.28937,-4.24215 1.28937,-8.08583 1.28937,-8.08583 V 99.97802 c 0.41201,-16.316745 -9.5511,-31.405705 -19.87185,-39.053973 -2.46234,-1.82469 -3.81177,-2.474634 -5.43096,-3.414001 -2.20524,-3.957316 -4.71038,-7.220608 -6.94694,-9.679511 -7.20124,-7.910269 -18.76898,-10.102169 -28.36604,-5.3749 -3.34638,-5.018542 -7.36851,-9.740299 -12.68266,-13.554439 -0.29484,-0.2125 -0.59447,-0.418278 -0.89865,-0.617177 -7.409156,-4.824945 -17.733915,-7.895015 -26.474957,-8.226411 -1.535241,-0.05824 -3.190485,-0.08654 -5.024619,-0.01564 z"
     id="path832"
     inkscape:connector-curvature="0" />
  <path
     inkscape:connector-curvature="0"
     id="path4"
     d="m 70.290974,16.041992 c -5.181972,0.200075 -10.67042,1.324294 -15.284834,2.851511 -12.353091,4.088471 -22.353729,11.122675 -30.366501,21.374608 -1.292413,1.653577 -2.453782,3.249596 -3.657108,5.10147 -0.601663,0.925935 -1.175625,1.785655 -2.070798,3.554623 -0.447587,0.884484 -1.00698,1.822835 -1.789483,4.48429 -0.391251,1.330731 -0.956868,3.053016 -1.000234,6.609255 -0.04337,3.556243 0.441545,10.737319 7.064157,17.351246 1.894673,1.892389 3.7865,2.620016 5.688835,3.632745 -5.607209,8.037477 -9.695702,16.099725 -11.40802,24.20268 -1.92033,9.08708 -1.890483,13.9064 -0.289132,22.78865 2.059559,11.42426 7.048209,21.32296 14.822884,29.54633 9.501711,10.05003 22.860562,15.98696 36.344465,17.8278 2.868065,0.39175 5.073643,0.57237 7.392359,0.6328 0.226613,0 32.234126,0 48.544376,1e-5 6.87414,0 12.79903,-1.81738 16.90066,-3.54679 2.61835,-1.12194 6.71748,-3.32263 10.21334,-8.09359 3.49586,-4.77097 4.89312,-11.48011 4.6886,-15.64815 -0.22826,-4.6512 -0.87573,-6.84139 -1.50036,-8.1561 2.94728,-0.35075 7.4327,-1.44556 11.71369,-4.66399 4.40703,-3.31314 7.38093,-8.29402 8.40041,-11.64821 1.28937,-4.24215 1.28937,-8.08583 1.28937,-8.08583 V 95.97803 c 0.41201,-16.316745 -9.5511,-31.405705 -19.87185,-39.053973 -2.46234,-1.82469 -3.81177,-2.474634 -5.43096,-3.414001 -2.20524,-3.957316 -4.71038,-7.220608 -6.94694,-9.679511 -7.20124,-7.910269 -18.76898,-10.102169 -28.36604,-5.3749 -3.34638,-5.018542 -7.36851,-9.740299 -12.68266,-13.554439 -0.29484,-0.2125 -0.59447,-0.418278 -0.89865,-0.617177 -7.409156,-4.824945 -17.733915,-7.895015 -26.474957,-8.226411 -1.535241,-0.05824 -3.190485,-0.08654 -5.024619,-0.01564 z"
     style="fill:#ff9b1b;stroke-width:4.00043249" />
  <path
     inkscape:connector-curvature="0"
     id="path6"
     d="m 71.257812,44.020772 c -3.004712,0.11604 -5.580636,0.625084 -8.671876,1.64844 -7.08868,2.346716 -14.391044,7.488772 -18.984372,13.367188 -1.714228,2.193824 -3.666131,5.091148 -3.406252,5.350752 0.084,0.08392 0.54986,-0.14892 1.031252,-0.515628 3.226724,-2.45814 8.081796,-4.497428 11.953124,-3.846188 C 59.187304,61.03594 64.0112,67.273816 64,73.489524 c -0.01,5.45224 -2.511272,8.997984 -9.679688,17.1875 -9.137056,10.438566 -11.996064,15.330306 -13.718748,23.484376 -0.731018,3.46008 -0.806056,9.96506 -0.15624,13.57031 1.104892,6.13033 4.355128,12.35653 9.046876,17.32031 5.4651,5.78194 12.762224,9.25057 22.140624,10.53125 2.72578,0.3724 7.492968,0.49667 7.492188,0.19532 -1.68e-4,-0.0615 -0.782224,-0.3284 -1.3125,-0.53125 -0.0056,-0.002 -0.01,0.002 -0.0156,0 -3.896944,-1.02476 -7.7364,-3.36034 -10.726564,-6.35937 -3.006936,-3.01581 -5.314024,-7.0301 -6.359412,-11.13282 -3.067808,-13.75781 1.667256,-23.20631 7.984376,-30.69531 4.608852,-4.63898 11.47628,-10.038304 18.14844,-14.10938 6.525152,-4.993956 13.325378,-14.598056 13.062496,-24.343748 9.08e-4,-6.674632 -3.2727,-14.5366 -11.187496,-20.218752 -4.467124,-2.909788 -8.48582,-4.13208 -14.27344,-4.35156 -1.131228,-0.04292 -2.185928,-0.05432 -3.1875,-0.0156 z M 126,63.9739 c -4.8444,2.784044 -4.97772,7.53092 -5.74778,12.117188 -0.0888,1.419556 -0.305,2.78842 -0.47656,3.03906 -1.58892,2.319404 -8.39069,7.548004 -17.2366,11.156252 -2.0493,0.836384 -2.902224,1.421612 -2.0625,1.421872 1.77886,7.52e-4 6.6439,0.636024 9.16406,1.195312 6.41654,1.424008 11.66448,2.581544 18.19532,6.218752 6.68547,3.723334 9.08504,4.375554 12.5625,4.773434 3.53328,0.40423 8.72539,-0.16828 10.8125,-1.1875 l 0.94531,-0.46093 0.0703,-2.882816 c 0.21072,-8.347056 -3.80121,-14.285484 -10.38281,-19.164064 -2.0891,-1.548492 -6.6761,-3.523632 -8.64844,-4.093748 -0.98244,-0.28396 -1.12459,-0.431632 -1.36719,-1.375 C 131.06739,70.44184 128.72035,66.965424 126,63.9739 Z M 94.632812,95.997336 c -4.418752,0.13592 -6.885784,1.009836 -9.445312,2.140624 -1.676916,0.740804 -1.491592,1.105292 0.460936,0.906252 3.772824,-0.3844 11.07378,0.783788 15.281254,2.453128 7.90863,3.13776 15.08542,10.92382 19.77343,18.63281 0.89076,1.72434 1.42227,2.88335 3.64844,3.53906 0.78001,0.22656 2.18041,0.303 4.25782,0.23436 3.47762,-0.11512 4.63347,-0.40665 8.94531,-2.28906 1.50656,-0.6577 2.86813,-0.82896 4.39062,-1.22656 1.52249,-0.3976 5.81983,-0.56203 7.94531,-0.008 2.09988,0.54769 2.10938,0.54691 2.10938,-0.22637 0,-1.70519 -1.58783,-5.97006 -3.65625,-7.21093 -1.68965,-1.01366 -3.47092,-1.47292 -7.84375,-2.02344 -6.62307,-0.83379 -10.11158,-2.13483 -17.20312,-6.42187 -5.99295,-3.62293 -9.55982,-5.1398 -15.60157,-6.617192 -5.18221,-1.267208 -8.247162,-2.030772 -13.062498,-1.882812 z m -5.875,7.984374 c -6.608072,0.31016 -13.05528,2.65486 -18.265624,8.0625 0.710656,-0.44536 1.390536,-0.89054 2.226564,-1.32812 3.547548,-1.85676 7.342412,-2.72555 11.320312,-2.71875 3.759508,0.008 7.672508,0.95014 10.984372,2.67968 12.475434,6.51485 16.745044,22.66018 9.070314,34.46094 -2.93537,4.51347 -7.046822,7.82312 -12.039062,9.57031 -0.19368,0.0792 -0.39432,0.20308 -0.585936,0.27344 -0.817264,0.30008 -1.492188,0.66654 -1.492188,0.8125 0,0.53345 24.945576,-0.0446 37.349256,-0.88281 5.0858,-0.34368 5.21199,-0.39792 4.48437,-1.92188 -1.61881,-3.39054 -7.65813,-5.84738 -13.48988,-6.57812 -2.9285,-0.36692 -2.74606,0.0328 -1.77343,-3.73438 2.33196,-9.03236 0.33268,-19.81482 -4.95313,-26.66406 -4.60106,-5.96198 -11.776522,-11.61878 -19.359374,-12.01562 -1.160296,-0.0607 -2.31892,-0.07 -3.476564,-0.0156 z m -4.734376,12.01563 c -2.603028,-0.004 -5.409836,0.66164 -7.593748,1.80468 -2.203376,1.15327 -5.580832,4.61098 -6.64844,6.80469 -1.778224,3.65392 -2.241984,7.55454 -1.320312,11.17187 0.82452,3.23591 1.863036,5.04338 4.27344,7.46094 2.40962,2.41677 4.261088,3.52854 7.093748,4.27344 2.254508,0.59287 5.74678,0.6489 7.96094,0.125 3.68186,-0.87116 7.462232,-3.56992 9.60156,-6.85938 5.186596,-7.97497 2.382124,-18.59383 -6.070312,-23.00781 -2.401588,-1.25417 -4.511416,-1.76743 -7.296876,-1.77343 z m 0.04688,8 c 3.120752,0.0236 5.57298,1.464 7.078124,4.15624 0.742764,1.32866 0.85156,1.80809 0.85156,3.80469 0,1.99658 -0.10876,2.48389 -0.851564,3.8125 -0.909252,1.62639 -2.358872,2.93773 -4,3.61719 h -0.008 c -4.043308,1.67393 -8.74636,-0.21848 -10.60156,-4.26562 -0.724528,-1.58223 -0.722104,-4.75108 0.008,-6.34376 1.374956,-3.00027 4.218876,-4.80684 7.52344,-4.78124 z"
     style="opacity:0.2;stroke-width:4;filter:url(#filter871)" />
  <path
     inkscape:connector-curvature="0"
     id="path8"
     d="m 71.257812,40.023436 c -3.004712,0.11604 -5.580636,0.625084 -8.671876,1.64844 -7.08868,2.346716 -14.391044,7.488772 -18.984372,13.367188 -1.714228,2.193824 -3.666131,5.091148 -3.406252,5.350752 0.084,0.08392 0.54986,-0.14892 1.031252,-0.515628 C 44.453288,57.416048 49.30836,55.37676 53.179688,56.028 59.187304,57.038604 64.0112,63.27648 64,69.492188 c -0.01,5.45224 -2.511272,8.997984 -9.679688,17.1875 -9.137056,10.438568 -11.996064,15.330302 -13.718748,23.484372 -0.731018,3.46008 -0.806056,9.96506 -0.15624,13.57032 1.104892,6.13033 4.355128,12.35653 9.046876,17.32031 5.4651,5.78194 12.762224,9.25057 22.140624,10.53125 2.72578,0.3724 7.492968,0.49666 7.492188,0.19532 -1.68e-4,-0.0615 -0.782224,-0.3284 -1.3125,-0.53125 -0.0056,-0.002 -0.01,0.002 -0.0156,0 -3.896944,-1.02477 -7.7364,-3.36035 -10.726564,-6.35938 -3.006936,-3.01581 -5.314024,-7.03009 -6.359412,-11.13282 -3.067808,-13.75781 1.667256,-23.2063 7.984376,-30.69531 4.608852,-4.638976 11.47628,-10.0383 18.14844,-14.109376 6.525152,-4.993956 13.325378,-14.598056 13.062496,-24.343748 9.08e-4,-6.674632 -3.2727,-14.5366 -11.187496,-20.218752 -4.467124,-2.909788 -8.48582,-4.13208 -14.27344,-4.35156 -1.131228,-0.04292 -2.185928,-0.05434 -3.1875,-0.0156 z M 126,59.976564 c -4.8444,2.784044 -4.97772,7.53092 -5.74778,12.117188 -0.0888,1.419556 -0.305,2.78842 -0.47656,3.03906 -1.58892,2.319404 -8.39069,7.548004 -17.2366,11.156252 -2.0493,0.836384 -2.902224,1.421612 -2.0625,1.421872 1.77886,7.52e-4 6.6439,0.636024 9.16406,1.195312 6.41654,1.424008 11.66448,2.581544 18.19532,6.218752 6.68547,3.723332 9.08504,4.375556 12.5625,4.773436 3.53328,0.404234 8.72539,-0.16828 10.8125,-1.1875 l 0.94531,-0.460936 0.0703,-2.882812 c 0.21072,-8.347056 -3.80121,-14.285484 -10.38281,-19.164064 -2.0891,-1.548492 -6.6761,-3.523632 -8.64844,-4.093748 -0.98244,-0.28396 -1.12459,-0.431632 -1.36719,-1.375 C 131.06739,66.444504 128.72035,62.968088 126,59.976564 Z M 94.632812,92 c -4.418752,0.13592 -6.885784,1.009836 -9.445312,2.140624 -1.676916,0.740804 -1.491592,1.105292 0.460936,0.906252 3.772824,-0.3844 11.07378,0.783788 15.281254,2.453124 7.90863,3.13777 15.08542,10.92382 19.77343,18.63281 0.89076,1.72434 1.42227,2.88336 3.64844,3.53907 0.78001,0.22656 2.18041,0.303 4.25782,0.23436 3.47762,-0.11512 4.63347,-0.40666 8.94531,-2.28906 1.50656,-0.65771 2.86813,-0.82897 4.39062,-1.22657 1.52249,-0.3976 5.81983,-0.56202 7.94531,-0.008 2.09988,0.54769 2.10938,0.54692 2.10938,-0.22636 0,-1.70519 -1.58783,-5.97006 -3.65625,-7.21094 -1.68965,-1.01366 -3.47092,-1.47291 -7.84375,-2.02343 -6.62307,-0.8338 -10.11158,-2.13484 -17.20312,-6.42188 -5.99295,-3.622928 -9.55982,-5.139796 -15.60157,-6.617188 C 102.5131,92.615604 99.448148,91.85204 94.632812,92 Z m -5.875,7.984376 c -6.608072,0.310164 -13.05528,2.654854 -18.265624,8.062504 0.710656,-0.44536 1.390536,-0.89055 2.226564,-1.32813 3.547548,-1.85676 7.342412,-2.72555 11.320312,-2.71875 3.759508,0.008 7.672508,0.95014 10.984372,2.67969 12.475434,6.51485 16.745044,22.66017 9.070314,34.46093 -2.93537,4.51347 -7.046822,7.82313 -12.039062,9.57032 -0.19368,0.0792 -0.39432,0.20308 -0.585936,0.27344 -0.817264,0.30008 -1.492188,0.66654 -1.492188,0.8125 0,0.53344 24.945576,-0.0446 37.349256,-0.88282 5.0858,-0.34368 5.21199,-0.39792 4.48437,-1.92187 -1.61881,-3.39054 -7.65813,-5.84739 -13.48988,-6.57813 -2.9285,-0.36692 -2.74606,0.0328 -1.77343,-3.73437 2.33196,-9.03237 0.33268,-19.81483 -4.95313,-26.66407 C 106.99269,106.05365 99.817228,100.39684 92.234376,100 91.07408,99.93928 89.915456,99.93004 88.757812,99.9844 Z M 84.023436,112 c -2.603028,-0.004 -5.409836,0.66165 -7.593748,1.80469 -2.203376,1.15327 -5.580832,4.61097 -6.64844,6.80469 -1.778224,3.65392 -2.241984,7.55454 -1.320312,11.17187 0.82452,3.23591 1.863036,5.04337 4.27344,7.46094 2.40962,2.41676 4.261088,3.52854 7.093748,4.27343 2.254508,0.59287 5.74678,0.64891 7.96094,0.125 3.68186,-0.87116 7.462232,-3.56991 9.60156,-6.85937 5.186596,-7.97497 2.382124,-18.59383 -6.070312,-23.00781 C 88.918724,112.51927 86.808896,112.006 84.023436,112 Z m 0.04688,8 c 3.120752,0.0236 5.57298,1.464 7.078124,4.15625 0.742764,1.32865 0.85156,1.80809 0.85156,3.80469 0,1.99657 -0.10876,2.48388 -0.851564,3.8125 -0.909252,1.62638 -2.358872,2.93773 -4,3.61718 h -0.008 c -4.043308,1.67394 -8.74636,-0.21848 -10.60156,-4.26562 -0.724528,-1.58222 -0.722104,-4.75108 0.008,-6.34375 1.374956,-3.00027 4.218876,-4.80685 7.52344,-4.78125 z"
     style="fill:#ffffff;stroke-width:4" />
  <path
     style="fill:#ffffff;stroke-width:4.00043249;opacity:0.2"
     d="M 72.916016 16.001953 C 72.081033 15.996461 71.208083 16.005566 70.291016 16.041016 C 65.109044 16.241091 59.620273 17.365361 55.005859 18.892578 C 42.652768 22.981049 32.651444 30.015645 24.638672 40.267578 C 23.346259 41.921155 22.185748 43.517267 20.982422 45.369141 C 20.380759 46.295076 19.807282 47.15486 18.912109 48.923828 C 18.464522 49.808312 17.90555 50.746748 17.123047 53.408203 C 16.731796 54.738934 16.16446 56.461339 16.121094 60.017578 C 16.118503 60.229979 16.128486 60.495052 16.130859 60.732422 C 16.201375 57.378071 16.742953 55.700986 17.123047 54.408203 C 17.90555 51.746748 18.464522 50.808312 18.912109 49.923828 C 19.807282 48.15486 20.380759 47.295076 20.982422 46.369141 C 22.185748 44.517267 23.346259 42.921155 24.638672 41.267578 C 32.651444 31.015645 42.652768 23.981049 55.005859 19.892578 C 59.620273 18.365361 65.109044 17.241091 70.291016 17.041016 C 72.12515 16.970116 73.781165 16.998401 75.316406 17.056641 C 84.057448 17.388037 94.38186 20.458258 101.79102 25.283203 C 102.0952 25.482102 102.39461 25.687891 102.68945 25.900391 C 108.0036 29.714531 112.02471 34.436536 115.37109 39.455078 C 124.96815 34.727809 136.53704 36.919809 143.73828 44.830078 C 145.97484 47.288981 148.48031 50.55245 150.68555 54.509766 C 152.30474 55.449133 153.65289 56.099138 156.11523 57.923828 C 166.08524 65.312174 175.72015 79.643678 175.99219 95.318359 C 176.12395 79.255844 166.29658 64.46879 156.11523 56.923828 C 153.65289 55.099138 152.30474 54.449133 150.68555 53.509766 C 148.48031 49.55245 145.97484 46.288981 143.73828 43.830078 C 136.53704 35.919809 124.96815 33.727809 115.37109 38.455078 C 112.02471 33.436536 108.0036 28.714531 102.68945 24.900391 C 102.39461 24.687891 102.0952 24.482102 101.79102 24.283203 C 94.38186 19.458258 84.057448 16.38999 75.316406 16.058594 C 74.548786 16.029474 73.750998 16.007446 72.916016 16.001953 z M 28.375 81.746094 C 23.032215 89.537264 19.126323 97.351943 17.466797 105.20508 C 16.446217 110.0345 15.991391 113.66098 16.015625 117.33008 C 16.075205 113.99063 16.538432 110.59814 17.466797 106.20508 C 19.179115 98.102123 23.267791 90.03943 28.875 82.001953 C 28.708169 81.913139 28.541679 81.831501 28.375 81.746094 z M 154.95898 141.5 C 154.83645 141.51647 154.70172 141.54068 154.58398 141.55469 C 155.20861 142.8694 155.85572 145.05974 156.08398 149.71094 C 156.09448 149.92493 156.082 150.17165 156.08398 150.39844 C 156.11002 149.80194 156.10974 149.23579 156.08398 148.71094 C 155.9016 144.99451 155.45115 142.88283 154.95898 141.5 z "
     id="path854" />
</svg>
