<?xml version="1.0" encoding="UTF-8" standalone="no"?>
<svg
   xmlns:dc="http://purl.org/dc/elements/1.1/"
   xmlns:cc="http://creativecommons.org/ns#"
   xmlns:rdf="http://www.w3.org/1999/02/22-rdf-syntax-ns#"
   xmlns:svg="http://www.w3.org/2000/svg"
   xmlns="http://www.w3.org/2000/svg"
   xmlns:sodipodi="http://sodipodi.sourceforge.net/DTD/sodipodi-0.dtd"
   xmlns:inkscape="http://www.inkscape.org/namespaces/inkscape"
   width="192"
   height="192"
   version="1.1"
   id="svg12"
   sodipodi:docname="apps_deltachat.svg"
   inkscape:version="0.92.3 (2405546, 2018-03-11)">
  <metadata
     id="metadata18">
    <rdf:RDF>
      <cc:Work
         rdf:about="">
        <dc:format>image/svg+xml</dc:format>
        <dc:type
           rdf:resource="http://purl.org/dc/dcmitype/StillImage" />
        <dc:title></dc:title>
      </cc:Work>
    </rdf:RDF>
  </metadata>
  <defs
     id="defs16">
    <filter
       inkscape:collect="always"
       style="color-interpolation-filters:sRGB"
       id="filter852"
       x="-0.048000001"
       width="1.096"
       y="-0.047999999"
       height="1.096">
      <feGaussianBlur
         inkscape:collect="always"
         stdDeviation="3.1999997"
         id="feGaussianBlur854" />
    </filter>
    <filter
       inkscape:collect="always"
       style="color-interpolation-filters:sRGB"
       id="filter868"
       x="-0.057602376"
       width="1.1152048"
       y="-0.041141645"
       height="1.0822833">
      <feGaussianBlur
         inkscape:collect="always"
         stdDeviation="1.9199727"
         id="feGaussianBlur870" />
    </filter>
  </defs>
  <sodipodi:namedview
     pagecolor="#ffffff"
     bordercolor="#666666"
     borderopacity="1"
     objecttolerance="10"
     gridtolerance="10"
     guidetolerance="10"
     inkscape:pageopacity="0"
     inkscape:pageshadow="2"
     inkscape:window-width="1920"
     inkscape:window-height="1018"
     id="namedview14"
     showgrid="false"
     inkscape:zoom="2.45"
     inkscape:cx="24"
     inkscape:cy="24"
     inkscape:window-x="0"
     inkscape:window-y="32"
     inkscape:window-maximized="1"
     inkscape:current-layer="svg12" />
  <path
     inkscape:connector-curvature="0"
     style="opacity:0.2;stroke-width:3.99999952;filter:url(#filter852)"
     d="M 81.186475,178.72103 C 44.897876,172.18135 18.426227,142.53886 16.154417,105.89928 13.172414,57.80576 53.797611,17.15943 101.85332,20.155798 c 18.8268,1.173885 36.11091,8.548988 49.43685,21.094616 16.15395,15.208054 24.66456,34.571047 24.70956,56.218185 0.0216,10.379181 -1.35994,16.816081 -6.16433,28.721521 -1.97416,4.89202 -4.11713,10.82175 -4.76218,13.17719 -2.47913,9.05288 -0.95786,18.38811 4.87141,29.8934 1.88581,3.72202 3.23869,6.95647 3.00641,7.18765 -0.23224,0.23116 -4.01413,-0.94169 -8.40411,-2.6064 -16.40217,-6.2198 -22.73751,-6.26384 -37.4646,-0.2604 -15.16637,6.18248 -30.549493,7.90511 -45.895855,5.1395 z"
     id="path2" />
  <path
     inkscape:connector-curvature="0"
     style="fill:#465c66;stroke-width:3.99999952"
     d="M 81.186475,174.72104 C 44.897876,168.18136 18.426227,138.53887 16.154417,101.89929 13.172414,53.805764 53.797611,13.159434 101.85332,16.155802 c 18.8268,1.173885 36.11091,8.548988 49.43685,21.094615 16.15395,15.208055 24.66456,34.571049 24.70956,56.218186 0.0216,10.379187 -1.35994,16.816077 -6.16433,28.721517 -1.97416,4.89202 -4.11713,10.82175 -4.76218,13.17719 -2.47913,9.05288 -0.95786,18.38812 4.87141,29.8934 1.88581,3.72202 3.23869,6.95648 3.00641,7.18766 -0.23224,0.23116 -4.01413,-0.94169 -8.40411,-2.6064 -16.40217,-6.2198 -22.73751,-6.26385 -37.4646,-0.2604 -15.16637,6.18248 -30.549493,7.90511 -45.895855,5.13949 z"
     id="path4" />
  <path
     inkscape:connector-curvature="0"
     style="opacity:0.2;stroke-width:3.99999952;filter:url(#filter868)"
     d="m 94.218026,42.002003 c -4.855808,0.04048 -8.541955,0.414424 -11.512723,1.156248 -9.944331,2.483176 -15.038626,7.152575 -14.890622,13.632814 0.1286,5.629992 2.901272,9.292295 15.849374,18.749998 6.414311,4.685211 11.522879,8.911171 11.359371,9.390623 -0.16348,0.479452 -3.09568,1.565156 -6.515624,2.414064 -13.512882,3.354167 -24.7361,11.24495 -29.51562,20.73437 -4.025171,9.39787 -3.936031,19.34401 -0.0312,27.14844 6.373123,12.65341 20.41721,19.74152 36.953123,18.66405 3.443044,-0.22436 8.690965,-1.13603 11.656245,-2.03124 6.59882,-1.99216 13.29537,-6.19978 18.50781,-11.3125 9.76388,-9.40722 12.48487,-26.09577 7.42969,-36.91406 C 129.40095,95.369189 121.12763,88.186942 105.08598,78.962935 82.457375,65.9514 79.593852,63.891785 76.822544,60.806689 c -1.459492,-1.624744 -2.64844,-3.838588 -2.64844,-4.914063 0,-7.3991 14.426278,-11.546667 24.520537,-6.898436 2.360839,1.087124 6.805899,3.960272 9.874999,6.390624 9.01678,7.140231 13.31388,8.095791 17.82031,3.984375 5.12918,-4.679571 0.48183,-11.702358 -9.91406,-14.992186 -5.01729,-1.587716 -14.16485,-2.442476 -22.257864,-2.375 z m 6.133524,47.999994 c 1.92978,0.0048 2.95892,0.933904 6.9375,4.593752 9.18596,8.450001 13.60462,18.664461 12.5625,29.062491 -1.42458,11.80129 -9.57108,22.03787 -23.359373,22.34375 -14.337762,0.12072 -24.410081,-14.21962 -24.492185,-26.35937 -0.05192,-10.39659 1.650904,-15.22257 7.320312,-20.74219 4.345647,-4.230845 11.834606,-7.708133 18.664061,-8.664057 0.984868,-0.13784 1.723924,-0.23604 2.367185,-0.23436 z"
     id="path6" />
  <path
     inkscape:connector-curvature="0"
     style="fill:#ffffff;stroke-width:3.99999952"
     d="m 94.218026,40.000018 c -4.855808,0.04048 -8.541955,0.414424 -11.512723,1.156248 -9.944331,2.483175 -15.038626,7.152575 -14.890622,13.632814 0.1286,5.629991 2.901272,9.292295 15.849374,18.749998 6.414311,4.685211 11.522879,8.91117 11.359371,9.390622 -0.16348,0.479452 -3.09568,1.565156 -6.515624,2.414064 -13.512882,3.354168 -24.7361,11.244947 -29.51562,20.734366 -4.025171,9.39788 -3.936031,19.34402 -0.0312,27.14844 6.373123,12.65341 20.41721,19.74152 36.953123,18.66406 3.443044,-0.22436 8.690965,-1.13603 11.656245,-2.03125 6.59882,-1.99216 13.29537,-6.19977 18.50781,-11.3125 9.76388,-9.40722 12.48487,-26.09576 7.42969,-36.91406 C 129.40095,93.367203 121.12763,86.184956 105.08598,76.960949 82.457375,63.949415 79.593852,61.889799 76.822544,58.804703 c -1.459492,-1.624743 -2.64844,-3.838587 -2.64844,-4.914063 0,-7.399099 14.426278,-11.546667 24.520537,-6.898435 2.360839,1.087124 6.805899,3.960271 9.874999,6.390623 9.01678,7.140231 13.31388,8.095791 17.82031,3.984376 5.12918,-4.679572 0.48183,-11.702359 -9.91406,-14.992187 -5.01729,-1.587715 -14.16485,-2.442477 -22.257864,-2.374999 z m 6.133524,47.999994 c 1.92978,0.0048 2.95892,0.933904 6.9375,4.593751 9.18596,8.450007 13.60462,18.664457 12.5625,29.062497 -1.42458,11.80129 -9.57108,22.03787 -23.359373,22.34374 -14.337762,0.12072 -24.410081,-14.21961 -24.492185,-26.35937 -0.05192,-10.39659 1.650904,-15.22256 7.320312,-20.742183 4.345647,-4.230848 11.834606,-7.708135 18.664061,-8.664059 0.984868,-0.13784 1.723924,-0.23604 2.367185,-0.23436 z"
     id="path8" />
  <path
     style="opacity:0.1;fill:#ffffff;stroke-width:3.99999952"
     d="M 97.367188 16 C 52.804276 15.715089 15.795716 52.766956 16.035156 97.357422 C 16.349326 53.21438 53.137816 16.717221 97.367188 17 C 98.853312 17.009501 100.34982 17.06261 101.85156 17.15625 C 120.67837 18.330135 137.96312 25.704373 151.28906 38.25 C 167.29578 53.319439 175.78691 72.472425 175.98438 93.880859 C 175.9896 93.743058 176.0003 93.617359 176 93.46875 C 175.955 71.821609 167.44301 52.458054 151.28906 37.25 C 137.96312 24.704373 120.67837 17.330135 101.85156 16.15625 C 100.34982 16.06261 98.853312 16.009501 97.367188 16 z M 164 145.92969 C 163.95559 146.67795 163.94289 147.43283 163.95117 148.19141 C 163.95955 147.76938 163.97514 147.34862 164 146.92969 C 164.37723 152.84127 166.33345 159.12903 169.94531 166.25781 C 171.27386 168.87996 172.30429 171.20047 172.73633 172.45898 C 172.84733 172.46936 172.92901 172.46931 172.95312 172.44531 C 173.18541 172.21411 171.83112 168.97983 169.94531 165.25781 C 166.33345 158.12903 164.37723 151.84127 164 145.92969 z "
     id="path10" />
</svg>
