<?xml version="1.0" encoding="UTF-8" standalone="no"?>
<svg
   xmlns:dc="http://purl.org/dc/elements/1.1/"
   xmlns:cc="http://creativecommons.org/ns#"
   xmlns:rdf="http://www.w3.org/1999/02/22-rdf-syntax-ns#"
   xmlns:svg="http://www.w3.org/2000/svg"
   xmlns="http://www.w3.org/2000/svg"
   xmlns:sodipodi="http://sodipodi.sourceforge.net/DTD/sodipodi-0.dtd"
   xmlns:inkscape="http://www.inkscape.org/namespaces/inkscape"
   width="192"
   height="192"
   version="1"
   id="svg62"
   sodipodi:docname="apps_browser_puls.svg"
   inkscape:version="0.92.3 (2405546, 2018-03-11)">
  <metadata
     id="metadata68">
    <rdf:RDF>
      <cc:Work
         rdf:about="">
        <dc:format>image/svg+xml</dc:format>
        <dc:type
           rdf:resource="http://purl.org/dc/dcmitype/StillImage" />
      </cc:Work>
    </rdf:RDF>
  </metadata>
  <defs
     id="defs66">
    <filter
       inkscape:collect="always"
       style="color-interpolation-filters:sRGB"
       id="filter920"
       x="-0.067699975"
       width="1.1353999"
       y="-0.037180786"
       height="1.0743616">
      <feGaussianBlur
         inkscape:collect="always"
         stdDeviation="1.2428958"
         id="feGaussianBlur922" />
    </filter>
    <filter
       inkscape:collect="always"
       style="color-interpolation-filters:sRGB"
       id="filter936"
       x="-0.067698215"
       width="1.1353964"
       y="-0.037181316"
       height="1.0743626">
      <feGaussianBlur
         inkscape:collect="always"
         stdDeviation="1.2428155"
         id="feGaussianBlur938" />
    </filter>
    <filter
       inkscape:collect="always"
       style="color-interpolation-filters:sRGB"
       id="filter964"
       x="-0.042937081"
       width="1.0858742"
       y="-0.054416515"
       height="1.108833">
      <feGaussianBlur
         inkscape:collect="always"
         stdDeviation="1.3632828"
         id="feGaussianBlur966" />
    </filter>
    <filter
       inkscape:collect="always"
       style="color-interpolation-filters:sRGB"
       id="filter988"
       x="-0.042936715"
       width="1.0858734"
       y="-0.054417103"
       height="1.1088342">
      <feGaussianBlur
         inkscape:collect="always"
         stdDeviation="1.363359"
         id="feGaussianBlur990" />
    </filter>
    <filter
       inkscape:collect="always"
       style="color-interpolation-filters:sRGB"
       id="filter1012"
       x="-0.048000845"
       width="1.0960017"
       y="-0.047999155"
       height="1.0959983">
      <feGaussianBlur
         inkscape:collect="always"
         stdDeviation="1.367874"
         id="feGaussianBlur1014" />
    </filter>
    <filter
       inkscape:collect="always"
       style="color-interpolation-filters:sRGB"
       id="filter1040"
       x="-0.048000836"
       width="1.0960017"
       y="-0.047999164"
       height="1.0959983">
      <feGaussianBlur
         inkscape:collect="always"
         stdDeviation="1.3678915"
         id="feGaussianBlur1042" />
    </filter>
    <filter
       inkscape:collect="always"
       style="color-interpolation-filters:sRGB"
       id="filter1068"
       x="-0.033546573"
       width="1.0670931"
       y="-0.084335786"
       height="1.1686716">
      <feGaussianBlur
         inkscape:collect="always"
         stdDeviation="1.1245896"
         id="feGaussianBlur1070" />
    </filter>
    <filter
       inkscape:collect="always"
       style="color-interpolation-filters:sRGB"
       id="filter1096"
       x="-0.033546573"
       width="1.0670931"
       y="-0.084335786"
       height="1.1686716">
      <feGaussianBlur
         inkscape:collect="always"
         stdDeviation="1.1245896"
         id="feGaussianBlur1098" />
    </filter>
    <filter
       inkscape:collect="always"
       style="color-interpolation-filters:sRGB"
       id="filter1128"
       x="-0.059173866"
       width="1.1183477"
       y="-0.040375794"
       height="1.0807516">
      <feGaussianBlur
         inkscape:collect="always"
         stdDeviation="1.2889164"
         id="feGaussianBlur1130" />
    </filter>
    <filter
       inkscape:collect="always"
       style="color-interpolation-filters:sRGB"
       id="filter1148"
       x="-0.059149033"
       width="1.1182981"
       y="-0.040387364"
       height="1.0807747">
      <feGaussianBlur
         inkscape:collect="always"
         stdDeviation="1.2868309"
         id="feGaussianBlur1150" />
    </filter>
  </defs>
  <sodipodi:namedview
     pagecolor="#ffffff"
     bordercolor="#666666"
     borderopacity="1"
     objecttolerance="10"
     gridtolerance="10"
     guidetolerance="10"
     inkscape:pageopacity="0"
     inkscape:pageshadow="2"
     inkscape:window-width="1920"
     inkscape:window-height="1018"
     id="namedview64"
     showgrid="false"
     inkscape:zoom="1"
     inkscape:cx="96"
     inkscape:cy="61.895001"
     inkscape:window-x="0"
     inkscape:window-y="32"
     inkscape:window-maximized="1"
     inkscape:current-layer="svg62" />
  <path
     inkscape:connector-curvature="0"
     id="path2"
     d="m 96.015624,119.87083 a 16.0016,16.0016 0 0 0 -8.609376,2.625 l -44,28 a 16.003205,16.003205 0 1 0 17.187504,27 l 43.999998,-28 a 16.0016,16.0016 0 0 0 -8.578126,-29.625 z"
     style="opacity:0.2;stroke-width:4;filter:url(#filter988)" />
  <path
     inkscape:connector-curvature="0"
     id="path4"
     d="m 96.015624,115.875 c -3.061838,0.0332 -6.04985,0.94429 -8.609376,2.625 l -44,28 c -7.455849,4.7462 -5.737269,11.21213 -0.991071,18.66797 4.746198,7.45585 10.722726,13.07823 18.178575,8.33203 l 43.999998,-28 c 6.12394,-3.77201 8.97872,-11.16643 6.97828,-18.07504 -2.00043,-6.90861 -8.36449,-11.63365 -15.556406,-11.54996 z"
     style="fill:#691241;stroke-width:4"
     sodipodi:nodetypes="cccsccsc" />
  <path
     inkscape:connector-curvature="0"
     id="path6"
     d="m 95.5,119.87864 a 16.0016,16.0016 0 0 0 -8.093752,29.61719 l 44.000002,28 a 16.003205,16.003205 0 1 0 17.1875,-27 l -44,-28 A 16.0016,16.0016 0 0 0 95.5,119.87864 Z"
     style="opacity:0.2;stroke-width:4;filter:url(#filter964)" />
  <path
     inkscape:connector-curvature="0"
     id="path8"
     d="M 95.5,115.88281 C 79.538141,116.18991 73.819006,137.11775 87.406248,145.5 l 44.000002,28 c 7.45603,4.74998 12.29399,-0.0557 17.04136,-7.51337 4.74737,-7.45768 7.60549,-14.74186 0.14614,-19.48663 l -44,-28 c -2.69808,-1.76924 -5.867966,-2.68154 -9.09375,-2.61719 z"
     style="fill:#a41e48;stroke-width:4"
     sodipodi:nodetypes="cccsccc" />
  <path
     inkscape:connector-curvature="0"
     id="path12"
     d="m 128.58594,99.784892 a 16.0016,16.0016 0 0 0 -16.10938,20.093748 l 12,48 a 16.001669,16.001669 0 1 0 31.04688,-7.76562 l -12,-48 a 16.0016,16.0016 0 0 0 -14.9375,-12.328128 z"
     style="opacity:0.2;stroke-width:4;filter:url(#filter920)" />
  <path
     inkscape:connector-curvature="0"
     id="path14"
     d="m 128.58594,95.789064 a 16.0016,16.0016 0 0 0 -16.10938,20.093746 l 12,48 a 16.001669,16.001669 0 1 0 31.04688,-7.76562 l -12,-48 a 16.0016,16.0016 0 0 0 -14.9375,-12.328126 z"
     style="fill:#de345e;stroke-width:4" />
  <path
     inkscape:connector-curvature="0"
     id="path16"
     d="m 128.58594,95.789064 a 16.0016,16.0016 0 0 0 -16.50782,17.945316 16.0016,16.0016 0 0 1 16.50782,-13.953132 16.0016,16.0016 0 0 1 14.9375,12.328132 l 12,48 a 16.001665,16.001665 0 0 1 0.33594,1.89062 16.001665,16.001665 0 0 0 -0.33594,-5.88281 l -12,-48 a 16.0016,16.0016 0 0 0 -14.9375,-12.328126 z"
     style="opacity:0.1;fill:#ffffff;stroke-width:4" />
  <path
     inkscape:connector-curvature="0"
     id="path18"
     d="m 163.6875,63.83958 a 16.0016,16.0016 0 0 0 -11,4.843748 l -36,36.000002 a 16.0016,16.0016 0 1 0 22.625,22.625 l 36,-36.000002 A 16.0016,16.0016 0 0 0 163.6875,63.83958 Z"
     style="opacity:0.2;stroke-width:4;filter:url(#filter1012)" />
  <path
     inkscape:connector-curvature="0"
     id="path20"
     d="m 163.6875,60.344 c -4.15678,0.123858 -8.10205,1.360875 -11,4.3435 l -36,36 c -6.46667,6.20885 -6.5715,16.51836 -0.23243,22.85743 6.33907,6.33907 16.64858,6.23424 22.85743,-0.23243 l 36,-36 c 10.46565,-10.173047 2.96389,-27.398739 -11.625,-26.9685 z"
     style="fill:#f37d3d;stroke-width:4"
     sodipodi:nodetypes="cccsccc" />
  <path
     inkscape:connector-curvature="0"
     id="path22"
     d="M 64.531248,99.784892 A 16.0016,16.0016 0 0 0 48.476564,112.11302 l -12.000002,48 a 16.001666,16.001666 0 1 0 31.046874,7.76562 l 12,-48 A 16.0016,16.0016 0 0 0 64.531248,99.784892 Z"
     style="opacity:0.2;stroke-width:4;filter:url(#filter936)" />
  <path
     inkscape:connector-curvature="0"
     id="path24"
     d="M 64.531248,95.789064 A 16.0016,16.0016 0 0 0 48.476564,108.11719 l -12.000002,48 a 16.001666,16.001666 0 1 0 31.046874,7.76562 l 12,-48 A 16.0016,16.0016 0 0 0 64.531248,95.789064 Z"
     style="fill:#a41e48;stroke-width:4" />
  <path
     inkscape:connector-curvature="0"
     id="path26"
     d="M 64.531248,95.789064 A 16.0016,16.0016 0 0 0 48.476564,108.11719 l -12.000002,48 a 16.001666,16.001666 0 0 0 -0.343748,5.85937 16.001666,16.001666 0 0 1 0.343748,-1.86718 l 12.000002,-48 A 16.0016,16.0016 0 0 1 64.531248,99.781248 16.0016,16.0016 0 0 1 79.914064,113.73438 16.0016,16.0016 0 0 0 64.531248,95.789064 Z"
     style="opacity:0.1;fill:#ffffff;stroke-width:4" />
  <path
     inkscape:connector-curvature="0"
     id="path28"
     d="M 27.835938,63.831764 A 16.0016,16.0016 0 0 0 16.6875,91.308328 l 36,36.000002 a 16.0016,16.0016 0 1 0 22.625,-22.625 l -36,-36.000002 A 16.0016,16.0016 0 0 0 27.835938,63.831764 Z"
     style="opacity:0.2;stroke-width:4;filter:url(#filter1040)" />
  <path
     inkscape:connector-curvature="0"
     id="path30"
     d="M 27.835938,63.831764 C 13.471729,63.835335 6.3867302,77.301273 16.6875,87.3125 l 36,36 c 6.208852,6.46667 16.518363,6.5715 22.857432,0.23243 6.339069,-6.33907 6.234242,-16.64858 -0.232432,-22.85743 l -36,-36 C 36.299585,61.586159 32.159822,63.831957 27.835938,63.831764 Z"
     style="fill:#dd396a;stroke-width:4"
     sodipodi:nodetypes="cccsccc" />
  <path
     inkscape:connector-curvature="0"
     id="path34"
     d="m 28,63.995828 a 16.0016,16.0016 0 1 0 0,32 h 48 a 16.0016,16.0016 0 1 0 0,-32 z"
     style="opacity:0.2;stroke-width:4;filter:url(#filter1068)" />
  <path
     inkscape:connector-curvature="0"
     id="path36"
     d="m 28,60 a 16.0016,16.0016 0 1 0 0,32 h 48 a 16.0016,16.0016 0 1 0 0,-32 z"
     style="fill:#ff8534;stroke-width:4" />
  <path
     style="opacity:0.2;fill:#ffffff;stroke-width:4"
     d="M 76.101562 59.998047 A 16.0016 16.0016 0 0 0 76 60 L 28 60 A 16.0016 16.0016 0 0 0 11.806641 76.597656 A 16.0016 16.0016 0 0 1 28 61 L 76 61 A 16.0016 16.0016 0 0 1 92.189453 76.628906 A 16.0016 16.0016 0 0 0 76.101562 59.998047 z "
     id="path38" />
  <path
     inkscape:connector-curvature="0"
     id="path40"
     d="m 96.679688,19.792704 a 16.0016,16.0016 0 0 0 -14.843752,9.585937 l -20,43.999999 a 16.0016,16.0016 0 1 0 29.132816,13.234376 l 19.999998,-44 A 16.0016,16.0016 0 0 0 96.679688,19.792704 Z"
     style="opacity:0.2;stroke-width:4;filter:url(#filter1148)" />
  <path
     inkscape:connector-curvature="0"
     id="path42"
     d="m 97.24787,17.643466 c -6.423525,-0.07393 -12.836748,1.854148 -15.411934,7.739346 l -20,44 c -3.848823,8.080945 -0.320816,17.747495 7.828422,21.449508 8.149238,3.702014 17.750395,-2.55e-4 21.304394,-8.215132 L 98.140563,66.839202 108.769,38.617188 c 4.96586,-10.54043 0.12971,-20.83793 -11.52113,-20.973722 z"
     style="fill:#ffaf00;stroke-width:4"
     sodipodi:nodetypes="cccscccc" />
  <path
     inkscape:connector-curvature="0"
     id="path46"
     d="m 116,63.995828 a 16.0016,16.0016 0 1 0 0,32 h 48 a 16.0016,16.0016 0 1 0 0,-32 z"
     style="opacity:0.2;stroke-width:4;filter:url(#filter1096)" />
  <path
     inkscape:connector-curvature="0"
     id="path48"
     d="m 116,60 a 16.0016,16.0016 0 1 0 0,32 h 48 a 16.0016,16.0016 0 1 0 0,-32 z"
     style="fill:#ffaf00;stroke-width:4" />
  <path
     style="opacity:0.2;fill:#ffffff;stroke-width:4"
     d="M 164.10156 59.998047 A 16.0016 16.0016 0 0 0 164 60 L 116 60 A 16.0016 16.0016 0 0 0 99.806641 76.597656 A 16.0016 16.0016 0 0 1 116 61 L 164 61 A 16.0016 16.0016 0 0 1 180.18945 76.628906 A 16.0016 16.0016 0 0 0 164.10156 59.998047 z "
     id="path50" />
  <path
     inkscape:connector-curvature="0"
     id="path52"
     d="M 95.242188,19.800516 A 16.0016,16.0016 0 0 0 81.4375,42.613016 l 20,44 a 16.0016,16.0016 0 1 0 29.125,-13.234376 l -20,-44 A 16.0016,16.0016 0 0 0 95.242188,19.800516 Z"
     style="opacity:0.2;stroke-width:4;filter:url(#filter1128)" />
  <path
     inkscape:connector-curvature="0"
     id="path54"
     d="M 95.242188,15.804688 A 16.0016,16.0016 0 0 0 81.4375,38.617188 l 20,44 a 16.0016,16.0016 0 1 0 29.125,-13.234376 l -20,-44 A 16.0016,16.0016 0 0 0 95.242188,15.804688 Z"
     style="fill:#f4d73e;stroke-width:4" />
  <path
     style="opacity:0.2;fill:#ffffff;stroke-width:4"
     d="M 96.679688 15.796875 A 16.0016 16.0016 0 0 0 81.835938 25.382812 L 61.835938 69.382812 A 16.0016 16.0016 0 0 0 60.318359 76.482422 A 16.0016 16.0016 0 0 1 61.835938 70.382812 L 81.835938 26.382812 A 16.0016 16.0016 0 0 1 96.679688 16.796875 A 16.0016 16.0016 0 0 1 112.45703 32.455078 A 16.0016 16.0016 0 0 0 96.679688 15.796875 z "
     id="path56" />
  <path
     style="opacity:0.2;fill:#ffffff;stroke-width:4"
     d="M 95.242188 15.804688 A 16.0016 16.0016 0 0 0 79.957031 32.130859 A 16.0016 16.0016 0 0 1 95.242188 16.804688 A 16.0016 16.0016 0 0 1 110.5625 26.382812 L 130.5625 70.382812 A 16.0016 16.0016 0 0 1 132.1543 77.054688 A 16.0016 16.0016 0 0 0 130.5625 69.382812 L 110.5625 25.382812 A 16.0016 16.0016 0 0 0 95.242188 15.804688 z "
     id="path58" />
</svg>
