<?xml version="1.0" encoding="UTF-8" standalone="no"?>
<svg
   xmlns:dc="http://purl.org/dc/elements/1.1/"
   xmlns:cc="http://creativecommons.org/ns#"
   xmlns:rdf="http://www.w3.org/1999/02/22-rdf-syntax-ns#"
   xmlns:svg="http://www.w3.org/2000/svg"
   xmlns="http://www.w3.org/2000/svg"
   xmlns:sodipodi="http://sodipodi.sourceforge.net/DTD/sodipodi-0.dtd"
   xmlns:inkscape="http://www.inkscape.org/namespaces/inkscape"
   width="192"
   height="192"
   version="1"
   id="svg26"
   sodipodi:docname="apps_n7player.svg"
   inkscape:version="0.92.3 (2405546, 2018-03-11)">
  <metadata
     id="metadata32">
    <rdf:RDF>
      <cc:Work
         rdf:about="">
        <dc:format>image/svg+xml</dc:format>
        <dc:type
           rdf:resource="http://purl.org/dc/dcmitype/StillImage" />
      </cc:Work>
    </rdf:RDF>
  </metadata>
  <defs
     id="defs30">
    <filter
       inkscape:collect="always"
       style="color-interpolation-filters:sRGB"
       id="filter871"
       x="-0.048"
       width="1.096"
       y="-0.048"
       height="1.096">
      <feGaussianBlur
         inkscape:collect="always"
         stdDeviation="3.2"
         id="feGaussianBlur873" />
    </filter>
    <filter
       inkscape:collect="always"
       style="color-interpolation-filters:sRGB"
       id="filter892"
       x="-0.055199999"
       width="1.1104"
       y="-0.042461539"
       height="1.0849231">
      <feGaussianBlur
         inkscape:collect="always"
         stdDeviation="1.84"
         id="feGaussianBlur894" />
    </filter>
    <filter
       inkscape:collect="always"
       style="color-interpolation-filters:sRGB"
       id="filter916"
       x="-0.058262942"
       width="1.1165259"
       y="-0.040811166"
       height="1.0816223">
      <feGaussianBlur
         inkscape:collect="always"
         stdDeviation="0.68018606"
         id="feGaussianBlur918" />
    </filter>
    <filter
       inkscape:collect="always"
       style="color-interpolation-filters:sRGB"
       id="filter936"
       x="-0.061701455"
       width="1.1234029"
       y="-0.039277925"
       height="1.0785558">
      <feGaussianBlur
         inkscape:collect="always"
         stdDeviation="1.1025207"
         id="feGaussianBlur938" />
    </filter>
  </defs>
  <sodipodi:namedview
     pagecolor="#ffffff"
     bordercolor="#666666"
     borderopacity="1"
     objecttolerance="10"
     gridtolerance="10"
     guidetolerance="10"
     inkscape:pageopacity="0"
     inkscape:pageshadow="2"
     inkscape:window-width="1920"
     inkscape:window-height="1018"
     id="namedview28"
     showgrid="false"
     inkscape:zoom="1"
     inkscape:cx="96"
     inkscape:cy="96"
     inkscape:window-x="0"
     inkscape:window-y="32"
     inkscape:window-maximized="1"
     inkscape:current-layer="svg26" />
  <rect
     id="rect8"
     transform="matrix(0,-1,-1,0,0,0)"
     ry="68"
     rx="68"
     y="-164"
     x="-164"
     height="136"
     width="136"
     style="fill:#393939;stroke-width:4" />
  <path
     id="path853"
     d="m 96,20 c -44.32,0 -80,35.68 -80,80 0,44.32 35.68,80 80,80 44.32,0 80,-35.68 80,-80 0,-44.32 -35.68,-80 -80,-80 z m 0,14 c 36.564,0 66,29.436 66,66 0,36.564 -29.436,66 -66,66 C 59.436,166 30,136.564 30,100 30,63.436 59.436,34 96,34 Z"
     style="opacity:0.2;fill:#000000;stroke-width:4;filter:url(#filter871)"
     inkscape:connector-curvature="0" />
  <path
     style="fill:#489fe8;stroke-width:4"
     d="M 96 16 C 51.68 16 16 51.68 16 96 C 16 140.32 51.68 176 96 176 C 140.32 176 176 140.32 176 96 C 176 51.68 140.32 16 96 16 z M 96 30 C 132.564 30 162 59.436 162 96 C 162 132.564 132.564 162 96 162 C 59.436 162 30 132.564 30 96 C 30 59.436 59.436 30 96 30 z "
     id="rect2" />
  <path
     inkscape:connector-curvature="0"
     id="path10"
     d="M 76.026708,48.001224 A 3.9348858,4.489394 0 0 0 72,52.490176 v 95.027684 a 3.9348858,4.489394 0 0 0 5.90174,3.88106 l 36.06618,-23.754 36.06618,-23.75399 a 3.9348858,4.489394 0 0 0 0,-7.773826 L 113.96792,72.35142 77.90174,48.597416 a 3.9348858,4.489394 0 0 0 -1.875032,-0.596192 z"
     style="opacity:0.2;fill:#000000;stroke-width:4;filter:url(#filter892)" />
  <path
     inkscape:connector-curvature="0"
     id="path12"
     d="M 76.026708,44.001224 A 3.9348858,4.489394 0 0 0 72,48.490176 v 95.027684 a 3.9348858,4.489394 0 0 0 5.90174,3.88106 l 36.06618,-23.754 36.06618,-23.753988 a 3.9348858,4.489394 0 0 0 0,-7.773828 L 113.96792,68.35142 77.90174,44.597416 a 3.9348858,4.489394 0 0 0 -1.875032,-0.596192 z"
     style="fill:#489fe8;stroke-width:4" />
  <path
     inkscape:connector-curvature="0"
     id="path14"
     d="M 64,78.000604 V 118.0006 h 8 V 86.14904 c 2.692784,0.13508 4.977844,0.3622 6.375,0.796876 2.055836,0.639596 2.7262,1.2024 3.546876,2.843752 C 83.563224,93.072368 84,102.0006 84,118.0006 h 8 c 0,-16 0.436776,-25.07176 -2.921876,-31.78906 C 87.3988,82.852892 84.319164,80.415696 80.75,79.305292 78.206304,78.51392 75.24952,78.255448 72,78.133416 v -0.1328 h -4 z"
     style="opacity:0.2;stroke-width:4;filter:url(#filter916)" />
  <path
     inkscape:connector-curvature="0"
     id="path16"
     d="m 64,76 v 40 h 8 V 84.148436 c 2.692784,0.13508 4.977844,0.3622 6.375,0.796876 2.055836,0.639596 2.7262,1.2024 3.546876,2.843752 C 83.563224,91.071764 84,100 84,116 h 8 C 92,100 92.436776,90.928236 89.078124,84.210936 87.3988,80.852288 84.319164,78.415092 80.75,77.304688 78.206304,76.513316 75.24952,76.254844 72,76.132812 V 76 h -4 z"
     style="fill:#ffffff;stroke-width:4" />
  <path
     inkscape:connector-curvature="0"
     id="path18"
     d="m 88,70.000604 v 8 h 30.91406 c -7.78161,8.233912 -13.339,16.618576 -16.21094,25.234376 -3.692744,11.07824 -4.678052,22.2871 -6.648432,34.10937 l 0.125,0.0236 8.875002,-5.85156 c 1.38983,-9.22626 2.61785,-17.87699 5.24219,-25.75 3.02785,-9.083554 10.97085,-20.299026 20.58784,-29.017338 l -16.91597,-6.39672 -0.53125,-0.35156 z"
     style="opacity:0.2;stroke-width:4;filter:url(#filter936)" />
  <path
     inkscape:connector-curvature="0"
     id="path20"
     d="m 88,68 v 8 h 30.91406 c -7.78161,8.233912 -13.339,16.618576 -16.21094,25.23438 -3.692744,11.07824 -4.678052,22.2871 -6.648432,34.10937 l 0.125,0.0236 8.875002,-5.85156 c 1.38983,-9.22626 2.61785,-17.87699 5.24219,-25.75 3.02785,-9.083558 7.92207,-17.555126 17.53906,-26.273438 L 113.96875,68.351564 113.4375,68 Z"
     style="fill:#ffffff;stroke-width:4" />
  <path
     style="opacity:0.2;fill:#ffffff;stroke-width:4"
     d="M 76.023438 44 A 3.9348858 4.489394 0 0 0 72 48.492188 L 72 49.492188 A 3.9348858 4.489394 0 0 1 76.023438 45 A 3.9348858 4.489394 0 0 1 77.898438 45.59375 L 113.96875 69.351562 L 150.03125 93.117188 A 3.9348858 4.489394 0 0 1 151.9707 96.503906 A 3.9348858 4.489394 0 0 0 150.03125 92.117188 L 113.96875 68.351562 L 77.898438 44.59375 A 3.9348858 4.489394 0 0 0 76.023438 44 z "
     id="path22" />
  <path
     style="fill:#ffffff;stroke-width:4;opacity:0.2"
     d="M 96 16 C 51.68 16 16 51.68 16 96 C 16 96.167244 16.004845 96.333003 16.005859 96.5 C 16.273741 52.412589 51.847244 17 96 17 C 140.15276 17 175.72626 52.412589 175.99414 96.5 C 175.99516 96.333003 176 96.167244 176 96 C 176 51.68 140.32 16 96 16 z M 30.011719 96.5 C 30.010482 96.667415 30 96.832283 30 97 C 30 133.564 59.436 163 96 163 C 132.564 163 162 133.564 162 97 C 162 96.832283 161.98952 96.667415 161.98828 96.5 C 161.71994 132.83072 132.39628 162 96 162 C 59.603717 162 30.280056 132.83072 30.011719 96.5 z "
     id="path875" />
</svg>
