<?xml version="1.0" encoding="UTF-8" standalone="no"?>
<svg
   xmlns:dc="http://purl.org/dc/elements/1.1/"
   xmlns:cc="http://creativecommons.org/ns#"
   xmlns:rdf="http://www.w3.org/1999/02/22-rdf-syntax-ns#"
   xmlns:svg="http://www.w3.org/2000/svg"
   xmlns="http://www.w3.org/2000/svg"
   xmlns:sodipodi="http://sodipodi.sourceforge.net/DTD/sodipodi-0.dtd"
   xmlns:inkscape="http://www.inkscape.org/namespaces/inkscape"
   width="192"
   height="192"
   version="1"
   viewBox="0 0 192 192"
   xml:space="preserve"
   id="svg48"
   sodipodi:docname="apps_emule.svg"
   inkscape:version="0.92.3 (2405546, 2018-03-11)"><metadata
   id="metadata54"><rdf:RDF><cc:Work
       rdf:about=""><dc:format>image/svg+xml</dc:format><dc:type
         rdf:resource="http://purl.org/dc/dcmitype/StillImage" /><dc:title></dc:title></cc:Work></rdf:RDF></metadata><defs
   id="defs52"><filter
     inkscape:collect="always"
     style="color-interpolation-filters:sRGB"
     id="filter932"
     x="-0.062773204"
     width="1.1255464"
     y="-0.03885562"
     height="1.0777112"><feGaussianBlur
       inkscape:collect="always"
       stdDeviation="2.7198864"
       id="feGaussianBlur934" /></filter><filter
     inkscape:collect="always"
     style="color-interpolation-filters:sRGB"
     id="filter987"
     x="-0.091200034"
     width="1.1824001"
     y="-0.076000014"
     height="1.152"><feGaussianBlur
       inkscape:collect="always"
       stdDeviation="0.75999804"
       id="feGaussianBlur989" /></filter><filter
     inkscape:collect="always"
     style="color-interpolation-filters:sRGB"
     id="filter991"
     x="-0.091199987"
     width="1.1824"
     y="-0.065142849"
     height="1.1302857"><feGaussianBlur
       inkscape:collect="always"
       stdDeviation="0.75999804"
       id="feGaussianBlur993" /></filter></defs><sodipodi:namedview
   pagecolor="#ffffff"
   bordercolor="#666666"
   borderopacity="1"
   objecttolerance="10"
   gridtolerance="10"
   guidetolerance="10"
   inkscape:pageopacity="0"
   inkscape:pageshadow="2"
   inkscape:window-width="1920"
   inkscape:window-height="1018"
   id="namedview50"
   showgrid="false"
   inkscape:zoom="3.47"
   inkscape:cx="24"
   inkscape:cy="93.164265"
   inkscape:window-x="0"
   inkscape:window-y="32"
   inkscape:window-maximized="1"
   inkscape:current-layer="svg48" />
 
 
 
 
 
 
 
 
 
 
 
 
 
 
 
 
 
 
 
 
 
 
 <circle
   style="fill:#ff4e4e;stroke-width:4.48248625"
   cx="132.00038"
   cy="172.00038"
   r="11.999616"
   id="circle2" /><path
   inkscape:connector-curvature="0"
   style="opacity:0.2;stroke-width:4.48248625;filter:url(#filter932)"
   d="m 130.45294,16.000092 c -1.69479,-0.02221 -4.46313,3.65902 -6.66404,6.953109 -5.01722,7.509228 -9.69734,15.724213 -14.8281,26.070249 -5.10232,10.288698 -5.32743,9.435363 -4.71873,31.00774 -1.1009,-0.04487 -2.22,-0.03631 -3.33594,0.02331 -2.333623,0.125689 -4.676004,0.479079 -6.960916,1.07031 -0.782763,0.202653 -1.547489,0.460553 -2.312492,0.718749 C 82.452133,68.195481 67.402764,55.693343 49.023445,45.226457 c -12.678325,-7.220057 2.16397,19.48147 6.132799,25.617129 3.14991,4.869347 10.970715,13.74475 17.226522,20.460886 1.340514,1.439076 2.537257,2.687448 3.671869,3.86718 -0.140482,0.311354 -0.309785,0.600577 -0.437491,0.921873 -0.194271,0.48912 -0.375408,0.987823 -0.539064,1.499996 -0.765487,2.396226 -1.179683,5.052199 -1.179683,7.960919 0,10.06105 3.109483,17.8327 2.218746,28.05462 -1.207833,13.86239 -11.501042,22.23043 -6.914047,34.76555 0.09194,0.29597 0.119324,0.56585 0.226545,0.86718 0.942595,2.64855 2.817471,5.39246 5.45311,8.45311 0.426778,0.49555 0.934124,0.92688 1.453124,1.35155 2.071025,1.72986 4.804261,2.92828 7.953105,3.70312 2.153431,0.52991 4.488582,0.87808 6.89842,1.08593 0.820452,0.0707 1.64986,0.12264 2.484374,0.16406 l 0.710931,-0.0937 c 8.457115,0.33417 17.318325,-0.62412 22.499945,-0.90624 1.23771,-0.0674 2.48009,-0.20588 3.71874,-0.40625 3.82627,-0.61932 7.60494,-1.85875 11.08591,-3.59375 h 0.0233 c 0.18733,-0.0954 0.35349,-0.22174 0.53907,-0.32031 1.30622,-0.67873 2.58932,-1.39674 3.78905,-2.21094 3.89491,-2.64284 7.15435,-5.96411 9.28123,-9.74997 1.81503,-3.2307 2.7958,-6.79972 2.65624,-10.57029 -0.0493,-3.89714 -1.23434,-8.01214 -3.92186,-12.2031 -8.76768,-13.67174 -18.27932,-30.45828 -18.7734,-48.734259 -0.2655,-2.662601 -1.19958,-4.987581 -2.64062,-6.968733 -1.12621,-1.548649 -2.56034,-2.888249 -4.22655,-4.007799 -0.21319,-0.143216 -0.46692,-0.246716 -0.6875,-0.382805 0.51918,-0.89517 1.02809,-1.81867 1.50781,-2.781243 7.52984,-15.113353 10.29624,-38.127895 12.44529,-56.382682 0.75531,-6.415485 0.0916,-8.670204 -1.22656,-8.687479 z"
   id="path4" /><path
   inkscape:connector-curvature="0"
   style="fill:#895c33;stroke-width:3.9999907"
   d="m 130.45294,12.000101 c -1.69479,-0.0222 -4.46313,3.65902 -6.66404,6.953108 -5.01721,7.509229 -9.69734,15.724215 -14.82809,26.07025 -5.10233,10.2887 -5.56962,9.804117 -4.96093,31.376491 3.81224,0.211359 10.16777,2.218146 13.72652,3.99999 0.51918,-0.89517 1.02809,-2.367126 1.50781,-3.3297 7.52985,-15.113313 10.29625,-38.127873 12.44529,-56.38266 0.75532,-6.415486 0.0916,-8.670204 -1.22656,-8.687479 z M 45.484394,40.000035 c -5.598321,0.357839 6.19913,21.474986 9.67185,26.843689 3.149908,4.869345 10.970714,13.744752 17.226523,20.460888 1.340513,1.439073 2.537258,2.687446 3.671868,3.867179 0,0 0.730314,1.006877 1.207473,0.575202 2.697865,-2.440694 11.467733,-11.915628 14.814037,-13.204652 L 91.63271,77.843702 C 82.452132,64.195618 67.402763,51.69348 49.023446,41.226596 47.438658,40.324086 46.284153,39.948914 45.484394,40.000035 Z"
   id="path6" /><path
   style="opacity:0.1;fill:#ffffff;stroke-width:3.9999907"
   d="M 130.45312 12 C 128.75833 11.9778 125.98997 15.659037 123.78906 18.953125 C 118.77185 26.462354 114.09169 34.677404 108.96094 45.023438 C 104.85081 53.311391 103.80674 55.165615 103.85156 66.632812 C 103.85403 66.537193 103.86053 66.465051 103.86328 66.371094 C 103.90832 56.094063 105.01784 53.974576 108.96094 46.023438 C 114.09169 35.677405 118.77185 27.462354 123.78906 19.953125 C 125.98997 16.659037 128.75833 12.9778 130.45312 13 C 131.34203 13.011649 131.88907 14.176703 131.93359 16.859375 C 132.02185 13.445288 131.44709 12.013026 130.45312 12 z M 45.484375 40 C 44.325782 40.074053 43.966328 41.094379 44.095703 42.650391 C 44.188341 41.674574 44.59939 41.056565 45.484375 41 C 46.284134 40.948879 47.438649 41.324052 49.023438 42.226562 C 67.378944 52.679886 82.411836 65.16358 91.595703 78.791016 C 91.758232 78.703761 91.937728 78.593144 92.078125 78.539062 L 91.632812 77.84375 C 82.452235 64.195666 67.402754 51.693446 49.023438 41.226562 C 47.438649 40.324053 46.284134 39.948879 45.484375 40 z "
   id="path8" /><path
   inkscape:connector-curvature="0"
   style="fill:#c37e3f;stroke-width:4.48248625"
   d="m 100.89067,75.999951 c -12.59104,1.184883 -20.917661,7.94804 -25.842224,17.546836 -0.765904,2.397484 -1.180328,5.058472 -1.180328,7.968723 0,10.06636 3.111186,17.84293 2.21996,28.07025 -1.207738,13.86101 -11.493569,22.22921 -6.925651,34.75773 0.09476,0.30642 0.123358,0.58628 0.234523,0.89844 0.943111,2.64855 2.819018,5.39246 5.456096,8.4531 0.427002,0.49556 0.934634,0.92689 1.453917,1.35156 2.072163,1.73009 4.806897,2.92787 7.957471,3.70312 2.15461,0.53018 4.491038,0.87797 6.902199,1.08593 0.820896,0.0707 1.650756,0.1226 2.485731,0.16406 l 0.711322,-0.0938 c 8.461744,0.33417 17.327814,-0.62412 22.512274,-0.90625 1.23839,-0.0674 2.48145,-0.20588 3.72078,-0.40625 3.82836,-0.61931 7.6091,-1.85875 11.09199,-3.59374 h 0.0233 c 0.1685,-0.0858 0.31754,-0.20055 0.48464,-0.28908 1.32705,-0.6864 2.62823,-1.41629 3.84585,-2.24218 3.89705,-2.64284 7.15827,-5.96412 9.28631,-9.74997 1.81603,-3.2307 2.79734,-6.79972 2.6577,-10.57029 -0.0463,-3.90483 -1.23138,-8.0277 -3.92401,-12.22654 -8.77248,-13.67893 -18.28933,-30.47207 -18.78368,-48.757693 -0.26568,-2.664004 -1.20024,-4.986541 -2.64207,-6.968733 -4.95253,-6.139715 -14.83901,-8.16262 -21.74623,-8.195293 z"
   id="path10" /><path
   style="opacity:0.2;fill:#ffffff;stroke-width:3.9999907"
   d="M 100.89062 76 C 88.299593 77.184882 79.971435 83.948078 75.046875 93.546875 C 74.280969 95.944358 73.867188 98.605376 73.867188 101.51562 C 73.867188 101.68793 73.881698 101.84946 73.884766 102.01953 C 73.929816 99.305504 74.325425 96.8052 75.046875 94.546875 C 79.971435 84.948078 88.299593 78.184882 100.89062 77 C 107.79785 77.032672 117.6881 79.055599 122.64062 85.195312 C 124.08245 87.177505 125.01557 89.500056 125.28125 92.164062 C 125.7756 110.44968 135.29002 127.24294 144.0625 140.92188 C 146.75512 145.1207 147.93807 149.24361 147.98438 153.14844 C 147.9896 152.81593 147.99681 152.48406 147.98438 152.14844 C 147.93807 148.24361 146.75512 144.12071 144.0625 139.92188 C 135.29002 126.24294 125.7756 109.44968 125.28125 91.164062 C 125.01557 88.500056 124.08245 86.177504 122.64062 84.195312 C 117.6881 78.055599 107.79785 76.032672 100.89062 76 z M 76.171875 127.69531 C 76.145875 128.32543 76.142257 128.93731 76.085938 129.58594 C 75.070967 141.23461 67.663666 149.00554 68.03125 158.625 C 68.184282 149.45944 75.106413 141.8278 76.085938 130.58594 C 76.142257 129.93731 76.145875 129.32543 76.171875 128.69531 C 76.206425 129.4518 76.214398 130.22184 76.216797 130.99609 C 76.239006 129.87394 76.221265 128.77673 76.171875 127.69531 z "
   id="path12" /><path
   inkscape:connector-curvature="0"
   style="fill:none;stroke-width:4.48248625"
   d="m 125.27948,91.199394 c -2.22339,-22.27277 -51.384915,-21.080335 -51.384915,10.327226 0,10.05119 3.114117,17.81915 2.22338,28.03105 -1.482255,16.99445 -16.700533,25.70772 -1.235212,44.01366 7.810428,9.24514 31.896637,5.97029 41.997287,5.40951 19.36897,-1.07557 39.91756,-19.24411 27.17471,-39.09594 -8.76768,-13.65835 -18.28117,-30.42744 -18.77525,-48.685506 z"
   id="path14" /><path
   inkscape:connector-curvature="0"
   style="fill:#8e8e8e;stroke-width:4.48248625"
   d="m 119.18054,128.01846 c 4.55202,0 8.7605,-0.0973 11.90366,1.01066 3.39239,1.19548 5.54301,3.79502 5.54301,9.43599 0,5.15882 -7.93817,12.72506 -10.29866,19.79817 0.79422,6.07647 2.72653,12.09316 5.3859,16.73233 1.50631,-0.75205 2.95546,-1.59742 4.32559,-2.52726 3.89492,-2.64285 7.15301,-5.96547 9.27989,-9.75133 3.58789,-6.38632 3.95706,-14.09071 -1.2652,-22.07231 -12.65705,-24.93142 -62.593119,-7.09297 -72.084739,3.44895 -0.489895,3.35008 -6.287538,10.6218 -2.54031,21.15093 0.942595,2.64855 2.817413,5.38786 5.453052,8.4485 2.130315,2.47359 5.470861,4.03381 9.408555,4.98347 2.153431,0.51936 4.485189,0.85604 6.895028,1.05976 0.820452,0.0692 1.649658,0.12318 2.484167,0.16379 -0.0054,-3.89351 0.272042,-7.7727 0.188936,-11.47713 -0.0072,-0.32207 -0.01748,-0.64287 -0.03048,-0.96217 -0.828265,-8.50219 -16.289835,-10.13559 -16.289835,-22.08481 0,-2.47786 0.811088,-4.61264 2.221197,-6.44976 7.00809,-9.12949 28.813129,-10.90775 39.420359,-10.90775 v 0 z"
   id="path16" /><path
   inkscape:connector-curvature="0"
   style="fill:none;stroke-width:4.48248625"
   d="m 112.14139,121.65646 c 2.72227,1.91104 15.82319,4.24934 15.85492,-0.22811 0.0314,-4.4091 -0.14205,-8.1536 -0.77653,-10.6324 -0.63451,-2.47881 -1.92643,-7.17581 -4.53025,-9.19834 -1.63618,-1.27086 -5.92331,-2.000677 -8.34649,-1.3628 -2.42319,0.63787 -6.3389,10.47638 -6.34315,13.6942 -0.006,4.20423 1.41922,5.81644 4.1415,7.72748 z"
   id="path18" /><path
   inkscape:connector-curvature="0"
   style="opacity:0.2;stroke-width:4.48248625;filter:url(#filter987)"
   d="m 114.34304,102.23496 c -2.42319,0.63786 -6.3389,10.47637 -6.34315,13.69419 -0.006,4.20423 1.41922,5.81645 4.1415,7.72748 2.72227,1.91104 15.82319,4.24934 15.85492,-0.22811 0.0314,-4.4091 -0.14205,-8.1536 -0.77653,-10.6324 -0.63451,-2.47881 -1.92643,-7.17581 -4.53025,-9.19833 -1.63618,-1.27087 -5.92331,-2.00069 -8.34649,-1.36281 z"
   id="path20" /><path
   inkscape:connector-curvature="0"
   style="fill:#ffffff;stroke-width:4.48248625"
   d="m 114.34304,100.23479 c -2.42319,0.63786 -6.3389,10.47637 -6.34315,13.69419 -0.006,4.20423 1.41922,5.81645 4.1415,7.72748 2.72227,1.91104 15.82319,4.24934 15.85492,-0.22811 0.0314,-4.4091 -0.14205,-8.1536 -0.77653,-10.6324 -0.63451,-2.47881 -1.92643,-7.17581 -4.53025,-9.19834 -1.63618,-1.27086 -5.92331,-2.000677 -8.34649,-1.3628 z"
   id="path22" /><circle
   style="fill:#3f3f3f;stroke-width:4.48248625"
   cx="115.9979"
   cy="116.00068"
   r="3.9983778"
   id="circle24" /><path
   inkscape:connector-curvature="0"
   style="fill:none;stroke-width:4.48248625"
   d="m 93.670483,179.90009 c -0.0121,-8.08468 1.198984,-16.10715 -2.141244,-22.63101 -3.348663,-6.54032 -7.05368,-12.1999 -11.76905,-18.34286"
   id="path26" /><path
   inkscape:connector-curvature="0"
   style="fill:none;stroke-width:4.48248625"
   d="m 131.71445,174.99561 c -3.53511,-6.16705 -5.78567,-14.76865 -5.78567,-22.70878 0,-6.15667 2.28304,-16.97172 5.15542,-23.258"
   id="path28" /><path
   inkscape:connector-curvature="0"
   style="fill:none;stroke-width:4.48248625"
   d="m 93.859437,168.42295 c 0.293917,-9.35852 -16.320441,-10.66042 -16.320441,-23.04697 0,-14.79152 28.899944,-17.35752 41.641544,-17.35752 9.46509,0 17.44667,-0.42023 17.44667,10.44665 0,5.15882 -7.93817,12.72506 -10.29866,19.79817"
   id="path30" /><path
   inkscape:connector-curvature="0"
   style="fill:none;stroke-width:4.48248625"
   d="m 89.566305,127.59906 c 6.306508,-2.92511 11.468085,-6.16802 10.255901,-15.04512 -0.472059,-3.45895 -5.103705,-9.31034 -8.031732,-11.16629 -7.395138,-4.687605 -12.356498,3.45449 -11.738676,10.22598 0.458885,5.03249 3.207998,18.91054 9.514507,15.98543 z"
   id="path32" /><path
   inkscape:connector-curvature="0"
   style="opacity:0.2;stroke-width:4.48248625;filter:url(#filter991)"
   d="m 99.822206,114.55411 c -0.472059,-3.45894 -5.103705,-9.31034 -8.031732,-11.16629 -7.395138,-4.687596 -12.356498,3.45449 -11.738676,10.22598 0.458885,5.03249 3.207998,18.91054 9.514507,15.98543 6.306508,-2.92511 11.468085,-6.16802 10.255901,-15.04512 z"
   id="path34" /><path
   inkscape:connector-curvature="0"
   style="fill:#ffffff;stroke-width:4.48248625"
   d="m 99.822206,112.55394 c -0.472059,-3.45895 -5.103705,-9.31034 -8.031732,-11.16629 -7.395138,-4.687605 -12.356498,3.45449 -11.738676,10.22598 0.458885,5.03249 3.207998,18.91054 9.514507,15.98543 6.306508,-2.92511 11.468085,-6.16802 10.255901,-15.04512 z"
   id="path36" /><circle
   style="fill:#3f3f3f;stroke-width:4.48248625"
   cx="91.998672"
   cy="116.00068"
   r="3.9983778"
   id="circle38" /><path
   inkscape:connector-curvature="0"
   style="fill:#e4e4e4;stroke-width:4.48248625"
   d="m 119.18054,128.01846 c -10.60722,0 -32.412261,1.77827 -39.420351,10.90776 4.71537,6.14296 8.420387,11.80254 11.76905,18.34286 1.591565,3.10884 2.149993,6.55771 2.299587,10.1917 0.03048,0.31136 0.04034,0.63159 0.03048,0.96217 0.08306,3.70444 -0.194629,7.58363 -0.188892,11.47714 8.667106,0.42091 17.882956,-0.60994 23.209526,-0.89996 1.23771,-0.0674 2.48043,-0.20341 3.71908,-0.40378 3.83431,-0.62061 7.62834,-1.86 11.11536,-3.60075 -2.65938,-4.63917 -4.59168,-10.65586 -5.3859,-16.73233 -0.26173,-2.0015 -0.39979,-4.0091 -0.39979,-5.97644 0,-6.15667 2.28303,-16.97173 5.15542,-23.25801 -3.14316,-1.10765 -7.35164,-1.01037 -11.90366,-1.01037 v 0 z"
   id="path40" /><path
   inkscape:connector-curvature="0"
   style="fill:#3f3f3f;stroke-width:4.48248625"
   d="m 91.529239,157.26908 c -3.348663,-6.54032 -7.05368,-12.1999 -11.76905,-18.34286 -1.410109,1.83712 -2.221193,3.97189 -2.221193,6.44976 0,11.94922 15.461566,13.58262 16.28983,22.0848 -0.14958,-3.63399 -0.708022,-7.08286 -2.299587,-10.1917 z"
   id="path42" /><path
   inkscape:connector-curvature="0"
   style="fill:#3f3f3f;stroke-width:4.48248625"
   d="m 131.0842,129.02883 c -2.87238,6.28628 -5.15542,17.10133 -5.15542,23.258 0,1.96735 0.13806,3.97495 0.39979,5.97645 2.36049,-7.07311 10.29866,-14.63935 10.29866,-19.79817 0,-5.64097 -2.15062,-8.24051 -5.543,-9.43628 z"
   id="path44" /><path
   style="opacity:0.2;fill:#ffffff;stroke-width:3.9999907"
   d="M 119.17969 128.01562 C 108.57247 128.01562 86.765903 129.8002 79.757812 138.92969 C 79.895778 139.10942 80.019453 139.28182 80.152344 139.45898 C 87.54115 130.74273 108.75927 129.01562 119.17969 129.01562 C 123.56671 129.01562 127.62756 128.94047 130.73047 129.92578 C 130.84838 129.62541 130.96206 129.30237 131.08594 129.03125 C 127.94279 127.92361 123.73171 128.01562 119.17969 128.01562 z M 126.07031 154.39844 C 126.03591 155.00855 125.92969 155.74529 125.92969 156.28906 C 125.92969 156.54827 125.93864 156.80981 125.94336 157.07031 C 125.96337 156.55467 126.03999 155.93616 126.07031 155.39844 C 126.13219 156.68608 126.15877 157.97054 126.32812 159.26562 C 127.07803 165.00307 128.84837 170.66648 131.28125 175.1875 C 131.42365 175.12094 131.57033 175.06238 131.71094 174.99219 C 129.05156 170.35302 127.12235 164.34209 126.32812 158.26562 C 126.15877 156.97054 126.13219 155.68608 126.07031 154.39844 z M 93.828125 171.46094 C 93.781285 174.23306 93.667675 177.04802 93.671875 179.89844 C 93.676393 179.8986 93.681001 179.89841 93.685547 179.89844 C 93.704052 177.39097 93.786798 174.90678 93.828125 172.46094 C 93.858059 172.76724 93.868549 173.08143 93.859375 173.40625 C 93.856619 173.08026 93.866618 172.74493 93.859375 172.42188 C 93.869375 172.09132 93.858553 171.7723 93.828125 171.46094 z "
   id="path46" />
</svg>