<?xml version="1.0" encoding="UTF-8" standalone="no"?>
<svg
   xmlns:dc="http://purl.org/dc/elements/1.1/"
   xmlns:cc="http://creativecommons.org/ns#"
   xmlns:rdf="http://www.w3.org/1999/02/22-rdf-syntax-ns#"
   xmlns:svg="http://www.w3.org/2000/svg"
   xmlns="http://www.w3.org/2000/svg"
   xmlns:sodipodi="http://sodipodi.sourceforge.net/DTD/sodipodi-0.dtd"
   xmlns:inkscape="http://www.inkscape.org/namespaces/inkscape"
   width="192"
   height="192"
   version="1"
   id="svg14"
   sodipodi:docname="apps_antennapod.svg"
   inkscape:version="0.92.3 (2405546, 2018-03-11)">
  <metadata
     id="metadata20">
    <rdf:RDF>
      <cc:Work
         rdf:about="">
        <dc:format>image/svg+xml</dc:format>
        <dc:type
           rdf:resource="http://purl.org/dc/dcmitype/StillImage" />
        <dc:title />
      </cc:Work>
    </rdf:RDF>
  </metadata>
  <defs
     id="defs18">
    <filter
       inkscape:collect="always"
       style="color-interpolation-filters:sRGB"
       id="filter907"
       x="-0.049609337"
       width="1.0992187"
       y="-0.046491797"
       height="1.0929836">
      <feGaussianBlur
         inkscape:collect="always"
         stdDeviation="1.8820931"
         id="feGaussianBlur909" />
    </filter>
    <filter
       inkscape:collect="always"
       style="color-interpolation-filters:sRGB"
       id="filter857"
       x="-0.048000002"
       width="1.096"
       y="-0.047999998"
       height="1.096">
      <feGaussianBlur
         inkscape:collect="always"
         stdDeviation="3.2000002"
         id="feGaussianBlur859" />
    </filter>
    <filter
       inkscape:collect="always"
       style="color-interpolation-filters:sRGB"
       id="filter882"
       x="-0.047172414"
       width="1.0943448"
       y="-0.048857143"
       height="1.0977143">
      <feGaussianBlur
         inkscape:collect="always"
         stdDeviation="1.71"
         id="feGaussianBlur884" />
    </filter>
  </defs>
  <sodipodi:namedview
     pagecolor="#ffffff"
     bordercolor="#666666"
     borderopacity="1"
     objecttolerance="10"
     gridtolerance="10"
     guidetolerance="10"
     inkscape:pageopacity="0"
     inkscape:pageshadow="2"
     inkscape:window-width="1920"
     inkscape:window-height="1018"
     id="namedview16"
     showgrid="false"
     inkscape:zoom="1"
     inkscape:cx="87.935185"
     inkscape:cy="96"
     inkscape:window-x="0"
     inkscape:window-y="32"
     inkscape:window-maximized="1"
     inkscape:current-layer="svg14"
     showguides="false" />
  <ellipse
     ry="80.000008"
     rx="80"
     cy="99.999992"
     cx="96"
     id="ellipse839"
     style="opacity:0.2;fill:#000000;fill-opacity:1;stroke:none;stroke-width:1.93091476;stroke-linecap:round;stroke-linejoin:round;stroke-miterlimit:4;stroke-dasharray:none;stroke-opacity:1;filter:url(#filter857)" />
  <ellipse
     style="opacity:1;fill:#0089b7;fill-opacity:1;stroke:none;stroke-width:1.93091476;stroke-linecap:round;stroke-linejoin:round;stroke-miterlimit:4;stroke-dasharray:none;stroke-opacity:1"
     id="path821"
     cx="96"
     cy="95.999992"
     rx="80"
     ry="80.000008" />
  <path
     style="fill:none;stroke:#16508d;stroke-width:4;stroke-linecap:round;stroke-linejoin:round;stroke-miterlimit:4;stroke-dasharray:none;stroke-opacity:1"
     d="M 113.98039,115.85621 84.895425,129.9085 129.99346,143.96078 71.496732,157.68627 137.8366,168.14379"
     id="path855"
     inkscape:connector-curvature="0" />
  <path
     style="color:#000000;font-style:normal;font-variant:normal;font-weight:normal;font-stretch:normal;font-size:medium;line-height:normal;font-family:sans-serif;font-variant-ligatures:normal;font-variant-position:normal;font-variant-caps:normal;font-variant-numeric:normal;font-variant-alternates:normal;font-feature-settings:normal;text-indent:0;text-align:start;text-decoration:none;text-decoration-line:none;text-decoration-style:solid;text-decoration-color:#000000;letter-spacing:normal;word-spacing:normal;text-transform:none;writing-mode:lr-tb;direction:ltr;text-orientation:mixed;dominant-baseline:auto;baseline-shift:baseline;text-anchor:start;white-space:normal;shape-padding:0;clip-rule:nonzero;display:inline;overflow:visible;visibility:visible;opacity:0.2;isolation:auto;mix-blend-mode:normal;color-interpolation:sRGB;color-interpolation-filters:linearRGB;solid-color:#000000;solid-opacity:1;vector-effect:none;fill:#000000;fill-opacity:1;fill-rule:nonzero;stroke:none;stroke-width:14;stroke-linecap:round;stroke-linejoin:miter;stroke-miterlimit:4;stroke-dasharray:none;stroke-dashoffset:0;stroke-opacity:1;filter:url(#filter907);color-rendering:auto;image-rendering:auto;shape-rendering:auto;text-rendering:auto;enable-background:accumulate"
     d="m 103.21094,80.842574 a 7.0007,7.0007 0 0 0 -0.22852,0.0059 7.0007,7.0007 0 0 0 -0.4707,0.01172 7.0007,7.0007 0 0 0 -6.236329,4.919921 L 57.664062,167.9539 a 7.0007,7.0007 0 1 0 12.671876,5.95312 l 32.582032,-69.33984 31.7168,69.27734 a 7.0007,7.0007 0 1 0 12.73046,-5.82812 l -37.625,-82.181638 a 7.0007,7.0007 0 0 0 -6.33007,-4.978516 7.0007,7.0007 0 0 0 -0.0937,-0.0059 7.0007,7.0007 0 0 0 -0.10547,-0.0078 z"
     id="path879"
     inkscape:connector-curvature="0" />
  <path
     id="path833"
     style="fill:none;stroke:#0055b7;stroke-width:14;stroke-linecap:round;stroke-linejoin:miter;stroke-miterlimit:4;stroke-dasharray:none;stroke-opacity:1"
     d="M 141,169 103,86 m -39,83 39,-83"
     inkscape:connector-curvature="0"
     sodipodi:nodetypes="cccc" />
  <path
     id="path868"
     d="m 98,18 c -3.5,0 -7,3.5 -7,7 0,3.499999 3.5,7 7,7 34.79385,-3.4e-5 64,28.206156 64,63 0,3.5 3.17428,7 7,7 3.5,0 7,-3.5 7,-7 0,-42.524992 -35.47395,-77 -78,-77 z m 0,28 c -3.5,0 -7,3.500001 -7,7 0,3.5 3.5,7 7,7 19.33014,-2e-5 35,15.669854 35,35 0,3.5 3.49999,7 7,7 3.49999,0 7,-3.5 7,-7 0,-27.061993 -21.93801,-49 -49,-49 z m 5,28 c -7.731849,0 -14,6.268151 -14,14 0,7.731499 6.268502,14 14,14 7.73185,0 14,-6.268151 14,-14 0,-7.731849 -6.26815,-14 -14,-14 z"
     style="opacity:0.2;fill:#000000;fill-opacity:1;stroke-width:3.49999952;filter:url(#filter882)"
     inkscape:connector-curvature="0" />
  <path
     style="opacity:1;fill:#ffffff;fill-opacity:1;stroke-width:3.49999952"
     d="M 98 16 C 94.5 16 91 19.5 91 23 C 91 26.499999 94.5 30 98 30 C 132.79385 29.999966 162 58.206156 162 93 C 162 96.5 165.17428 100 169 100 C 172.5 100 176 96.5 176 93 C 176 50.475008 140.52605 16 98 16 z M 98 44 C 94.5 44 91 47.500001 91 51 C 91 54.5 94.5 58 98 58 C 117.33014 57.99998 133 73.669854 133 93 C 133 96.5 136.49999 100 140 100 C 143.49999 100 147 96.5 147 93 C 147 65.938007 125.06199 44 98 44 z M 103 72 C 95.268151 72 89 78.268151 89 86 C 89 93.731499 95.268502 100 103 100 C 110.73185 100 117 93.731849 117 86 C 117 78.268151 110.73185 72 103 72 z "
     id="path865" />
</svg>
