<?xml version="1.0" encoding="UTF-8" standalone="no"?>
<svg
   xmlns:dc="http://purl.org/dc/elements/1.1/"
   xmlns:cc="http://creativecommons.org/ns#"
   xmlns:rdf="http://www.w3.org/1999/02/22-rdf-syntax-ns#"
   xmlns:svg="http://www.w3.org/2000/svg"
   xmlns="http://www.w3.org/2000/svg"
   xmlns:sodipodi="http://sodipodi.sourceforge.net/DTD/sodipodi-0.dtd"
   xmlns:inkscape="http://www.inkscape.org/namespaces/inkscape"
   width="192"
   height="192"
   version="1"
   id="svg24"
   sodipodi:docname="apps_jrtstudio_music.svg"
   inkscape:version="0.92.3 (2405546, 2018-03-11)">
  <metadata
     id="metadata30">
    <rdf:RDF>
      <cc:Work
         rdf:about="">
        <dc:format>image/svg+xml</dc:format>
        <dc:type
           rdf:resource="http://purl.org/dc/dcmitype/StillImage" />
      </cc:Work>
    </rdf:RDF>
  </metadata>
  <defs
     id="defs28">
    <filter
       inkscape:collect="always"
       style="color-interpolation-filters:sRGB"
       id="filter868"
       x="-0.048"
       width="1.096"
       y="-0.048"
       height="1.096">
      <feGaussianBlur
         inkscape:collect="always"
         stdDeviation="3.2"
         id="feGaussianBlur870" />
    </filter>
    <filter
       inkscape:collect="always"
       style="color-interpolation-filters:sRGB"
       id="filter884"
       x="-0.048"
       width="1.096"
       y="-0.048"
       height="1.096">
      <feGaussianBlur
         inkscape:collect="always"
         stdDeviation="2.72"
         id="feGaussianBlur886" />
    </filter>
    <filter
       inkscape:collect="always"
       style="color-interpolation-filters:sRGB"
       id="filter912"
       x="-0.051432857"
       width="1.1028657"
       y="-0.044996719"
       height="1.0899934">
      <feGaussianBlur
         inkscape:collect="always"
         stdDeviation="0.300025"
         id="feGaussianBlur914" />
    </filter>
  </defs>
  <sodipodi:namedview
     pagecolor="#ffffff"
     bordercolor="#666666"
     borderopacity="1"
     objecttolerance="10"
     gridtolerance="10"
     guidetolerance="10"
     inkscape:pageopacity="0"
     inkscape:pageshadow="2"
     inkscape:window-width="1920"
     inkscape:window-height="1018"
     id="namedview26"
     showgrid="false"
     inkscape:zoom="1"
     inkscape:cx="-120"
     inkscape:cy="96"
     inkscape:window-x="0"
     inkscape:window-y="32"
     inkscape:window-maximized="1"
     inkscape:current-layer="svg24" />
  <rect
     style="opacity:0.2;fill:#000000;stroke-width:4;filter:url(#filter868)"
     width="160"
     height="160"
     x="-180"
     y="-176"
     rx="80"
     ry="80"
     transform="matrix(0,-1,-1,0,0,0)"
     id="rect850" />
  <rect
     id="rect2"
     transform="matrix(0,-1,-1,0,0,0)"
     ry="80"
     rx="80"
     y="-176"
     x="-176"
     height="160"
     width="160"
     style="fill:#4f4f4f;stroke-width:4" />
  <path
     inkscape:connector-curvature="0"
     id="path4"
     d="M 104.85156,28.648438 A 8,8 0 0 0 100,36 a 8,8 0 0 0 8,8 8,8 0 0 0 8,-8 8,8 0 0 0 -2.25781,-5.5625 68,68 0 0 0 -8.89063,-1.789062 z m -17.695312,0.01564 A 68,68 0 0 0 78.335936,30.359375 8,8 0 0 0 76,36 a 8,8 0 0 0 8,8 8,8 0 0 0 8,-8 8,8 0 0 0 -4.843752,-7.335938 z M 124.21094,34.20314 A 8,8 0 0 0 124,36 a 8,8 0 0 0 8,8 8,8 0 0 0 5.24219,-1.960936 68,68 0 0 0 -13.03125,-7.835939 z M 48,48 A 8,8 0 0 0 47.89064,48.008 68,68 0 0 0 40.109392,57.289252 8,8 0 0 0 48,64 8,8 0 0 0 56,56 8,8 0 0 0 48,48 Z m 24,0 a 8,8 0 0 0 -8,8 8,8 0 0 0 8,8 8,8 0 0 0 8,-8 8,8 0 0 0 -8,-8 z m 24,0 a 8,8 0 0 0 -8,8 8,8 0 0 0 8,8 8,8 0 0 0 8,-8 8,8 0 0 0 -8,-8 z m 24,0 a 8,8 0 0 0 -8,8 8,8 0 0 0 8,8 8,8 0 0 0 8,-8 8,8 0 0 0 -8,-8 z m 24,0 a 8,8 0 0 0 -8,8 8,8 0 0 0 8,8 8,8 0 0 0 7.875,-6.617188 68,68 0 0 0 -7.75781,-9.375 A 8,8 0 0 0 144,48 Z M 36,68 A 8,8 0 0 0 33.96875,68.273436 68,68 0 0 0 29.75,80.976564 8,8 0 0 0 36,84 8,8 0 0 0 44,76 8,8 0 0 0 36,68 Z m 24,0 a 8,8 0 0 0 -8,8 8,8 0 0 0 8,8 8,8 0 0 0 8,-8 8,8 0 0 0 -8,-8 z m 24,0 a 8,8 0 0 0 -8,8 8,8 0 0 0 8,8 8,8 0 0 0 8,-8 8,8 0 0 0 -8,-8 z m 24,0 a 8,8 0 0 0 -8,8 8,8 0 0 0 8,8 8,8 0 0 0 8,-8 8,8 0 0 0 -8,-8 z m 24,0 a 8,8 0 0 0 -8,8 8,8 0 0 0 8,8 8,8 0 0 0 8,-8 8,8 0 0 0 -8,-8 z m 24,0 a 8,8 0 0 0 -8,8 8,8 0 0 0 8,8 8,8 0 0 0 6.24219,-2.992188 68,68 0 0 0 -4.25781,-12.75 A 8,8 0 0 0 156,68 Z M 48,88 a 8,8 0 0 0 -8,8 8,8 0 0 0 8,8 8,8 0 0 0 8,-8 8,8 0 0 0 -8,-8 z m 24,0 a 8,8 0 0 0 -8,8 8,8 0 0 0 8,8 8,8 0 0 0 8,-8 8,8 0 0 0 -8,-8 z m 24,0 a 8,8 0 0 0 -8,8 8,8 0 0 0 8,8 8,8 0 0 0 8,-8 8,8 0 0 0 -8,-8 z m 24,0 a 8,8 0 0 0 -8,8 8,8 0 0 0 8,8 8,8 0 0 0 8,-8 8,8 0 0 0 -8,-8 z m 24,0 a 8,8 0 0 0 -8,8 8,8 0 0 0 8,8 8,8 0 0 0 8,-8 8,8 0 0 0 -8,-8 z M 36,108 a 8,8 0 0 0 -6.242188,2.99219 68,68 0 0 0 4.257813,12.75 A 8,8 0 0 0 36,124 a 8,8 0 0 0 8,-8 8,8 0 0 0 -8,-8 z m 24,0 a 8,8 0 0 0 -8,8 8,8 0 0 0 8,8 8,8 0 0 0 8,-8 8,8 0 0 0 -8,-8 z m 24,0 a 8,8 0 0 0 -8,8 8,8 0 0 0 8,8 8,8 0 0 0 8,-8 8,8 0 0 0 -8,-8 z m 24,0 a 8,8 0 0 0 -8,8 8,8 0 0 0 8,8 8,8 0 0 0 8,-8 8,8 0 0 0 -8,-8 z m 24,0 a 8,8 0 0 0 -8,8 8,8 0 0 0 8,8 8,8 0 0 0 8,-8 8,8 0 0 0 -8,-8 z m 24,0 a 8,8 0 0 0 -8,8 8,8 0 0 0 8,8 8,8 0 0 0 2.03125,-0.27344 A 68,68 0 0 0 162.25,111.02344 8,8 0 0 0 156,108 Z M 48,128 a 8,8 0 0 0 -7.875,6.61719 68,68 0 0 0 7.757812,9.375 A 8,8 0 0 0 48,144 a 8,8 0 0 0 8,-8 8,8 0 0 0 -8,-8 z m 24,0 a 8,8 0 0 0 -8,8 8,8 0 0 0 8,8 8,8 0 0 0 8,-8 8,8 0 0 0 -8,-8 z m 24,0 a 8,8 0 0 0 -8,8 8,8 0 0 0 8,8 8,8 0 0 0 8,-8 8,8 0 0 0 -8,-8 z m 24,0 a 8,8 0 0 0 -8,8 8,8 0 0 0 8,8 8,8 0 0 0 8,-8 8,8 0 0 0 -8,-8 z m 24,0 a 8,8 0 0 0 -8,8 8,8 0 0 0 8,8 8,8 0 0 0 0.10936,-0.008 68,68 0 0 0 7.78125,-9.28125 A 8,8 0 0 0 144,128 Z m -84,20 a 8,8 0 0 0 -5.242188,1.96094 68,68 0 0 0 13.031252,7.83594 A 8,8 0 0 0 68,156 8,8 0 0 0 60,148 Z m 24,0 a 8,8 0 0 0 -8,8 8,8 0 0 0 2.257812,5.5625 68,68 0 0 0 8.890624,1.78906 A 8,8 0 0 0 92,156 8,8 0 0 0 84,148 Z m 24,0 a 8,8 0 0 0 -8,8 8,8 0 0 0 4.84375,7.33594 68,68 0 0 0 8.82031,-1.69532 A 8,8 0 0 0 116,156 a 8,8 0 0 0 -8,-8 z m 24,0 a 8,8 0 0 0 -8,8 8,8 0 0 0 0.20312,1.78125 68,68 0 0 0 13.05469,-7.79687 A 8,8 0 0 0 132,148 Z"
     style="opacity:0.2;stroke-width:4" />
  <path
     style="opacity:0.1;fill:#ffffff;stroke-width:4"
     d="M 96 16 C 51.684 16 16.007812 51.68 16.007812 96 C 16.007812 96.33544 16.009812 96.667215 16.007812 97 C 16.007812 52.68 51.684 17 96 17 C 140.316 17 175.99219 52.68 175.99219 97 C 175.99019 96.667215 175.99219 96.33544 175.99219 96 C 175.99219 51.68 140.316 16 96 16 z "
     id="path6" />
  <path
     inkscape:connector-curvature="0"
     id="path10"
     d="m 96,32 c -37.672,0 -68,30.328 -68,68 0,37.672 30.328,68 68,68 37.672,0 68,-30.328 68,-68 0,-37.672 -30.328,-68 -68,-68 z m 0,12 c 31.024,0 56,24.976 56,56 0,31.024 -24.976,56 -56,56 C 64.976,156 40,131.024 40,100 40,68.976 64.976,44 96,44 Z"
     style="opacity:0.2;stroke-width:4;filter:url(#filter884)" />
  <path
     inkscape:connector-curvature="0"
     id="path12"
     d="m 96,28 c -37.672,0 -68,30.328 -68,68 0,37.672 30.328,68 68,68 37.672,0 68,-30.328 68,-68 0,-37.672 -30.328,-68 -68,-68 z m 0,12 c 31.024,0 56,24.976 56,56 0,31.024 -24.976,56 -56,56 C 64.976,152 40,127.024 40,96 40,64.976 64.976,40 96,40 Z"
     style="fill:#ff2764;stroke-width:4;fill-opacity:1" />
  <g
     id="g16"
     transform="matrix(4,0,0,4,-1876,-655.99)"
     style="opacity:0.2;enable-background:new;filter:url(#filter912)">
    <path
       inkscape:connector-curvature="0"
       id="path14"
       d="m 489,183 v 8.1875 c -0.32,-0.12 -0.64,-0.19 -1,-0.19 -1.6568,0 -3,1.3432 -3,3 0,1.6568 1.3432,3 3,3 1.6568,0 3,-1.3432 3,-3 v -7.7995 l 6,-1.2005 v 4.1875 c -0.32,-0.12 -0.64,-0.19 -1,-0.19 -1.6568,0 -3,1.3432 -3,3 0,1.6568 1.3432,3 3,3 1.6568,0 3,-1.3432 3,-3 v -11 z" />
  </g>
  <g
     id="g20"
     transform="matrix(4,0,0,4,-1876,-659.985)"
     style="fill:#2be2e4;enable-background:new">
    <path
       inkscape:connector-curvature="0"
       id="path18"
       d="m 489,183 v 8.1875 c -0.32,-0.12 -0.64,-0.19 -1,-0.19 -1.6568,0 -3,1.3432 -3,3 0,1.6568 1.3432,3 3,3 1.6568,0 3,-1.3432 3,-3 v -7.7995 l 6,-1.2005 v 4.1875 c -0.32,-0.12 -0.64,-0.19 -1,-0.19 -1.6568,0 -3,1.3432 -3,3 0,1.6568 1.3432,3 3,3 1.6568,0 3,-1.3432 3,-3 v -11 z"
       style="fill:#ff2764;fill-opacity:1" />
  </g>
  <path
     style="fill:#ffffff;stroke-width:4;opacity:0.2"
     d="M 96 28 C 58.328 28 28 58.328 28 96 C 28 96.167704 28.010519 96.332589 28.011719 96.5 C 28.280085 59.061253 58.495704 29 96 29 C 133.5043 29 163.71992 59.061253 163.98828 96.5 C 163.98948 96.332589 164 96.167704 164 96 C 164 58.328 133.672 28 96 28 z M 40.011719 96.5 C 40.010262 96.667334 40 96.832309 40 97 C 40 128.024 64.976 153 96 153 C 127.024 153 152 128.024 152 97 C 152 96.832309 151.98974 96.667334 151.98828 96.5 C 151.72029 127.29073 126.85631 152 96 152 C 65.143691 152 40.27971 127.29073 40.011719 96.5 z "
     id="path919" />
  <g
     style="fill:#ffffff;enable-background:new;opacity:0.2"
     transform="matrix(4,0,0,4,-1876,-659.985)"
     id="g926">
    <path
       style="fill:#ffffff;stroke-width:4"
       d="M 120 63.994141 L 80 72.015625 L 80 73.015625 L 120 64.994141 L 120 63.994141 z M 108 95.994141 C 101.3728 95.994141 96 101.36694 96 107.99414 C 96 108.16272 96.018506 108.32726 96.025391 108.49414 C 96.289581 102.10068 101.54164 96.994141 108 96.994141 C 109.44 96.994141 110.72 97.275859 112 97.755859 L 112 96.755859 C 110.72 96.275859 109.44 95.994141 108 95.994141 z M 76 104.00586 C 69.3728 104.00586 64 109.37866 64 116.00586 C 64 116.1747 64.018484 116.33871 64.025391 116.50586 C 64.289177 110.11203 69.541377 105.00586 76 105.00586 C 77.44 105.00586 78.72 105.28562 80 105.76562 L 80 104.76562 C 78.72 104.28562 77.44 104.00586 76 104.00586 z "
       transform="matrix(0.25,0,0,0.25,469,164.99625)"
       id="path924" />
  </g>
  <g
     id="g930"
     transform="matrix(4,0,0,4,-1876,-658.985)"
     style="opacity:0.2;fill:#ffffff;enable-background:new" />
</svg>
