<?xml version="1.0" encoding="UTF-8" standalone="no"?>
<svg
   xmlns:dc="http://purl.org/dc/elements/1.1/"
   xmlns:cc="http://creativecommons.org/ns#"
   xmlns:rdf="http://www.w3.org/1999/02/22-rdf-syntax-ns#"
   xmlns:svg="http://www.w3.org/2000/svg"
   xmlns="http://www.w3.org/2000/svg"
   xmlns:sodipodi="http://sodipodi.sourceforge.net/DTD/sodipodi-0.dtd"
   xmlns:inkscape="http://www.inkscape.org/namespaces/inkscape"
   width="192"
   height="192"
   version="1"
   id="svg14"
   sodipodi:docname="apps_sputnik_browser.svg"
   inkscape:version="0.92.3 (2405546, 2018-03-11)">
  <metadata
     id="metadata20">
    <rdf:RDF>
      <cc:Work
         rdf:about="">
        <dc:format>image/svg+xml</dc:format>
        <dc:type
           rdf:resource="http://purl.org/dc/dcmitype/StillImage" />
      </cc:Work>
    </rdf:RDF>
  </metadata>
  <defs
     id="defs18">
    <filter
       inkscape:collect="always"
       style="color-interpolation-filters:sRGB"
       id="filter848"
       x="-0.048"
       width="1.096"
       y="-0.048"
       height="1.096">
      <feGaussianBlur
         inkscape:collect="always"
         stdDeviation="3.2"
         id="feGaussianBlur850" />
    </filter>
    <filter
       inkscape:collect="always"
       style="color-interpolation-filters:sRGB"
       id="filter864"
       x="-0.048"
       width="1.096"
       y="-0.048"
       height="1.096">
      <feGaussianBlur
         inkscape:collect="always"
         stdDeviation="2.08"
         id="feGaussianBlur866" />
    </filter>
  </defs>
  <sodipodi:namedview
     pagecolor="#ffffff"
     bordercolor="#666666"
     borderopacity="1"
     objecttolerance="10"
     gridtolerance="10"
     guidetolerance="10"
     inkscape:pageopacity="0"
     inkscape:pageshadow="2"
     inkscape:window-width="1920"
     inkscape:window-height="1018"
     id="namedview16"
     showgrid="false"
     inkscape:zoom="1"
     inkscape:cx="96"
     inkscape:cy="96"
     inkscape:window-x="0"
     inkscape:window-y="32"
     inkscape:window-maximized="1"
     inkscape:current-layer="svg14" />
  <rect
     id="rect2"
     transform="matrix(0,-1,-1,0,0,0)"
     ry="80"
     rx="80"
     y="-176"
     x="-180"
     height="160"
     width="160"
     style="opacity:0.2;stroke-width:4;filter:url(#filter848)" />
  <rect
     id="rect4"
     transform="matrix(0,-1,-1,0,0,0)"
     ry="80"
     rx="80"
     y="-176"
     x="-176"
     height="160"
     width="160"
     style="fill:#49a2e2;stroke-width:4" />
  <path
     style="opacity:0.2;fill:#ffffff;stroke-width:4"
     d="M 96 16 C 51.68 16 16 51.68 16 96 C 16 96.115411 16.006233 96.228869 16.007812 96.34375 C 16.358834 52.329079 51.899508 17 96 17 C 140.10049 17 175.64117 52.329079 175.99219 96.34375 C 175.99377 96.228869 176 96.115411 176 96 C 176 51.68 140.32 16 96 16 z "
     id="path6" />
  <path
     inkscape:connector-curvature="0"
     id="path8"
     d="M 96,48 A 52,52 0 0 0 44.843752,90.929688 l 43.78906,-13.757812 0.07032,-0.008 A 24,24 0 0 1 96,76 a 24,24 0 0 1 24,24 24,24 0 0 1 -7.60938,17.50781 l -0.0312,0.0547 -33.773436,31.375 A 52,52 0 0 0 96,152 52,52 0 0 0 148,100 52,52 0 0 0 96,48 Z M 74.164064,90.109376 44.023436,99.578124 A 52,52 0 0 0 44,100 a 52,52 0 0 0 5.4375,23.10156 l 24.351564,-14.0625 A 24,24 0 0 1 72,100 24,24 0 0 1 74.164064,90.109376 Z m 3.85156,25.734374 -24.445312,14.10937 a 52,52 0 0 0 17.093752,15.42969 l 23.132812,-21.49219 a 24,24 0 0 1 -15.781252,-8.04687 z"
     style="opacity:0.2;stroke-width:4;filter:url(#filter864)" />
  <path
     inkscape:connector-curvature="0"
     id="path10"
     d="M 96,44 A 52,52 0 0 0 44.843752,86.929688 l 43.78906,-13.757812 0.07032,-0.008 A 24,24 0 0 1 96,72 a 24,24 0 0 1 24,24 24,24 0 0 1 -7.60938,17.50781 l -0.0312,0.0547 -33.773436,31.375 A 52,52 0 0 0 96,148 52,52 0 0 0 148,96 52,52 0 0 0 96,44 Z M 74.164064,86.109376 44.023436,95.578124 A 52,52 0 0 0 44,96 a 52,52 0 0 0 5.4375,23.10156 l 24.351564,-14.0625 A 24,24 0 0 1 72,96 24,24 0 0 1 74.164064,86.109376 Z m 3.85156,25.734374 -24.445312,14.10937 a 52,52 0 0 0 17.093752,15.42969 l 23.132812,-21.49219 a 24,24 0 0 1 -15.781252,-8.04687 z"
     style="fill:#ffffff;stroke-width:4" />
</svg>
