<?xml version="1.0" encoding="UTF-8" standalone="no"?>
<svg
   xmlns:dc="http://purl.org/dc/elements/1.1/"
   xmlns:cc="http://creativecommons.org/ns#"
   xmlns:rdf="http://www.w3.org/1999/02/22-rdf-syntax-ns#"
   xmlns:svg="http://www.w3.org/2000/svg"
   xmlns="http://www.w3.org/2000/svg"
   xmlns:sodipodi="http://sodipodi.sourceforge.net/DTD/sodipodi-0.dtd"
   xmlns:inkscape="http://www.inkscape.org/namespaces/inkscape"
   width="192"
   height="192"
   version="1"
   id="svg14"
   sodipodi:docname="apps_maple_player.svg"
   inkscape:version="0.92.3 (2405546, 2018-03-11)">
  <metadata
     id="metadata20">
    <rdf:RDF>
      <cc:Work
         rdf:about="">
        <dc:format>image/svg+xml</dc:format>
        <dc:type
           rdf:resource="http://purl.org/dc/dcmitype/StillImage" />
      </cc:Work>
    </rdf:RDF>
  </metadata>
  <defs
     id="defs18">
    <filter
       inkscape:collect="always"
       style="color-interpolation-filters:sRGB"
       id="filter852"
       x="-0.050632021"
       width="1.101264"
       y="-0.045628099"
       height="1.0912562">
      <feGaussianBlur
         inkscape:collect="always"
         stdDeviation="3.0418733"
         id="feGaussianBlur854" />
    </filter>
    <filter
       inkscape:collect="always"
       style="color-interpolation-filters:sRGB"
       id="filter880"
       x="-0.053999998"
       width="1.108"
       y="-0.043200001"
       height="1.0864">
      <feGaussianBlur
         inkscape:collect="always"
         stdDeviation="0.72000004"
         id="feGaussianBlur882" />
    </filter>
  </defs>
  <sodipodi:namedview
     pagecolor="#ffffff"
     bordercolor="#666666"
     borderopacity="1"
     objecttolerance="10"
     gridtolerance="10"
     guidetolerance="10"
     inkscape:pageopacity="0"
     inkscape:pageshadow="2"
     inkscape:window-width="1920"
     inkscape:window-height="1018"
     id="namedview16"
     showgrid="false"
     inkscape:zoom="1"
     inkscape:cx="96"
     inkscape:cy="138.03152"
     inkscape:window-x="0"
     inkscape:window-y="32"
     inkscape:window-maximized="1"
     inkscape:current-layer="svg14" />
  <path
     inkscape:connector-curvature="0"
     id="path2"
     d="m 96,20 c 0,-2.76e-4 -3.472788,5.451621 -6.9375,12.015625 -4.136892,7.837465 -6.852388,11.098739 -7.906252,11.585939 -1.316804,0.60876 -2.789732,0.943392 -7.210936,-1.304688 -2.963448,-1.50684 -5.615104,-2.513976 -5.890624,-2.234376 -0.27552,0.27956 1.27538,9.522356 3.179688,20.046876 3.624124,20.0294 3.656344,21.297436 0.523436,21.773436 -1.08162,0.16432 -3.55256,-2.156656 -9.78906,-9.210936 -4.586696,-5.18816 -8.657556,-8.928476 -9.046876,-8.796876 -0.38932,0.13164 -1.311948,2.248244 -2.054688,4.703124 -1.035208,3.42152 -1.724536,2.96264 -2.945312,3.27344 -0.875884,0.22304 -4.163624,-1.629348 -8.773438,-2.640628 -9.838347,-2.1582 -11.109376,-1.038092 -11.109376,0.515628 0,0.63584 1.288392,7.146068 2.859376,12.992188 1.570943,5.84616 1.318786,11.097712 1.101562,11.671872 -0.217144,0.5742 -1.982292,1.914244 -4.117188,2.976564 C 25.747956,98.429548 24,99.5859 24,99.9375 c 0,0.35172 5.990194,5.59465 13.3125,11.65625 20.693832,17.13099 22.6967,18.53575 22.6875,20.74219 -0.0044,1.05612 -2.395008,3.50804 -2.976564,5.45312 -1.741864,5.82556 -1.572504,6.34994 1.953128,5.83594 14.050148,-2.04848 32.677836,-4.05708 33.578124,-3.375 0.880848,0.66736 0.87174,3.79568 -0.0312,19.10156 C 92.22398,164.43823 92,172.00496 92,178.384 c -0.0038,1.61614 3.411116,1.616 4,1.616 0.74966,0 4,0 4,-1.616 0,-6.37904 -0.04436,-13.94577 -0.34376,-19.03244 -0.90304,-15.30588 -0.90412,-18.4342 -0.0236,-19.10156 0.90029,-0.68208 19.52016,1.32652 33.57031,3.375 3.52563,0.514 3.70281,-0.0104 1.96094,-5.83594 -0.58155,-1.94508 -2.97234,-4.397 -2.97656,-5.45312 -0.009,-2.20644 1.98585,-3.6112 22.67969,-20.74219 7.3223,-6.0616 13.32031,-11.30453 13.32031,-11.65625 0,-0.3516 -1.74796,-1.507952 -3.88281,-2.570312 -2.1349,-1.06232 -3.90005,-2.402364 -4.11719,-2.976564 -0.21724,-0.57416 -0.46938,-5.825712 1.10156,-11.671872 1.57099,-5.84612 2.85156,-12.356348 2.85156,-12.992188 0,-1.55372 -1.27103,-2.673828 -11.10937,-0.515628 -4.60982,1.01128 -7.88974,2.863668 -8.76563,2.640628 -1.22077,-0.3108 -1.9101,0.14808 -2.94531,-3.27344 -0.74274,-2.45488 -1.67318,-4.571484 -2.0625,-4.703124 -0.38932,-0.1316 -4.46018,3.608716 -9.04688,8.796876 -6.2365,7.05428 -8.69962,9.375256 -9.78124,9.210936 -3.13291,-0.476 -3.10069,-1.744036 0.52343,-21.773436 1.90431,-10.52452 3.44741,-19.767316 3.17188,-20.046876 -0.27552,-0.2796 -2.91937,0.727536 -5.88281,2.234376 -4.42085,2.24808 -5.89396,1.913448 -7.21077,1.304688 -1.05386,-0.4872 -3.76936,-3.748475 -7.90625,-11.585939 C 99.660288,25.451621 96.1875,19.999724 96.1875,20 Z"
     style="opacity:0.2;fill:#000000;stroke-width:4;filter:url(#filter852)" />
  <path
     inkscape:connector-curvature="0"
     id="path4"
     d="m 96,16 c 0,-2.76e-4 -3.472788,5.451621 -6.9375,12.015625 -4.136892,7.837465 -6.852388,11.098737 -7.906252,11.585937 -1.316804,0.608762 -2.789732,0.943394 -7.210936,-1.304687 -2.963448,-1.50684 -5.615104,-2.513975 -5.890624,-2.234375 -0.27552,0.27956 1.27538,9.522356 3.179688,20.046876 3.624124,20.0294 3.656344,21.297436 0.523436,21.773436 -1.08162,0.16432 -3.55256,-2.156656 -9.78906,-9.210936 -4.586696,-5.18816 -8.657556,-8.928476 -9.046876,-8.796876 -0.38932,0.13164 -1.311948,2.248244 -2.054688,4.703124 -1.035208,3.42152 -1.724536,2.96264 -2.945312,3.27344 -0.875884,0.22304 -4.163624,-1.629348 -8.773438,-2.640628 -9.838347,-2.1582 -11.109376,-1.038092 -11.109376,0.515628 0,0.63584 1.288392,7.146068 2.859376,12.992188 1.570943,5.84616 1.318786,11.097712 1.101562,11.671872 -0.217144,0.5742 -1.982292,1.914244 -4.117188,2.976564 C 25.747956,94.429548 24,95.5859 24,95.9375 c 0,0.35172 5.990194,5.59465 13.3125,11.65625 20.693832,17.13099 22.6967,18.53575 22.6875,20.74219 -0.0044,1.05612 -2.395008,3.50804 -2.976564,5.45312 -1.741864,5.82556 -1.572504,6.34994 1.953128,5.83594 14.050148,-2.04848 32.677836,-4.05708 33.578124,-3.375 0.880848,0.66736 0.87174,3.79568 -0.0312,19.10156 C 92.22398,160.43823 92,168.00496 92,174.384 c -0.0038,1.61614 3.411116,1.616 4,1.616 0.74966,0 4,0 4,-1.616 0,-6.37904 -0.04436,-13.94577 -0.34376,-19.03244 -0.90304,-15.30588 -0.90412,-18.4342 -0.0236,-19.10156 0.90029,-0.68208 19.52016,1.32652 33.57031,3.375 3.52563,0.514 3.70281,-0.0104 1.96094,-5.83594 -0.58155,-1.94508 -2.97234,-4.397 -2.97656,-5.45312 -0.009,-2.20644 1.98585,-3.6112 22.67969,-20.74219 7.3223,-6.0616 13.32031,-11.30453 13.32031,-11.65625 0,-0.3516 -1.74796,-1.507952 -3.88281,-2.570312 -2.1349,-1.06232 -3.90005,-2.402364 -4.11719,-2.976564 -0.21724,-0.57416 -0.46938,-5.825712 1.10156,-11.671872 1.57099,-5.84612 2.85156,-12.356348 2.85156,-12.992188 0,-1.55372 -1.27103,-2.673828 -11.10937,-0.515628 -4.60982,1.01128 -7.88974,2.863668 -8.76563,2.640628 -1.22077,-0.3108 -1.9101,0.14808 -2.94531,-3.27344 -0.74274,-2.45488 -1.67318,-4.571484 -2.0625,-4.703124 -0.38932,-0.1316 -4.46018,3.608716 -9.04688,8.796876 -6.2365,7.05428 -8.69962,9.375256 -9.78124,9.210936 -3.13291,-0.476 -3.10069,-1.744036 0.52343,-21.773436 1.90431,-10.52452 3.44741,-19.767316 3.17188,-20.046876 -0.27552,-0.2796 -2.91937,0.727534 -5.88281,2.234375 -4.42085,2.248081 -5.89396,1.913449 -7.21077,1.304687 -1.05386,-0.4872 -3.76936,-3.748473 -7.90625,-11.585937 C 99.660288,21.451621 96.1875,15.999724 96.1875,16 Z"
     style="fill:#ed6548;stroke-width:4" />
  <path
     inkscape:connector-curvature="0"
     id="path8"
     d="M 88.040164,78.001265 A 3.9456424,4.4165912 0 0 0 84,82.415493 v 31.173047 a 3.9456424,4.4165912 0 0 0 5.915348,3.82176 l 12.063682,-7.78675 12.05799,-7.79978 a 3.9456424,4.4165912 0 0 0 0,-7.637005 L 101.97903,86.386997 89.915348,78.600245 a 3.9456424,4.4165912 0 0 0 -1.875184,-0.59898 z"
     style="opacity:0.1;stroke-width:4;filter:url(#filter880)" />
  <path
     inkscape:connector-curvature="0"
     id="path10"
     d="M 88.040164,76.001268 A 3.9456424,4.4165912 0 0 0 84,80.415496 v 31.173044 a 3.9456424,4.4165912 0 0 0 5.915348,3.82176 l 12.063682,-7.78675 12.05799,-7.799778 a 3.9456424,4.4165912 0 0 0 0,-7.637004 L 101.97903,84.387 89.915348,76.600248 a 3.9456424,4.4165912 0 0 0 -1.875184,-0.59898 z"
     style="fill:#ffffff;stroke-width:4" />
  <path
     style="fill:#ffffff;stroke-width:4;opacity:0.2"
     d="M 96 16 C 96 15.999724 92.527212 21.451621 89.0625 28.015625 C 84.925608 35.85309 82.210114 39.114362 81.15625 39.601562 C 79.839446 40.210324 78.366517 40.544956 73.945312 38.296875 C 70.981865 36.790035 68.330208 35.7829 68.054688 36.0625 C 68.007008 36.110878 68.029907 36.511232 68.083984 37.056641 C 68.434835 36.825341 71.033071 37.816072 73.945312 39.296875 C 78.366517 41.544956 79.839446 41.210324 81.15625 40.601562 C 82.210114 40.114362 84.925608 36.85309 89.0625 29.015625 C 92.527212 22.451621 96 16.999724 96 17 L 96.1875 17 C 96.1875 16.999724 99.660288 22.451621 103.125 29.015625 C 107.26189 36.853089 109.97739 40.114362 111.03125 40.601562 C 112.34806 41.210324 113.82134 41.544956 118.24219 39.296875 C 121.15442 37.816071 123.74511 36.825341 124.0957 37.056641 C 124.1494 36.511186 124.17268 36.11088 124.125 36.0625 C 123.84948 35.7829 121.20563 36.790034 118.24219 38.296875 C 113.82134 40.544956 112.34806 40.210324 111.03125 39.601562 C 109.97739 39.114362 107.26189 35.853089 103.125 28.015625 C 99.660288 21.451621 96.1875 15.999724 96.1875 16 L 96 16 z M 52.921875 59.875 C 52.532555 60.00664 51.609927 62.123245 50.867188 64.578125 C 49.83198 67.999645 49.142651 67.540762 47.921875 67.851562 C 47.045991 68.074602 43.758252 66.222217 39.148438 65.210938 C 29.310091 63.052737 28.039062 64.172842 28.039062 65.726562 C 28.039062 65.776621 28.095848 66.071719 28.111328 66.191406 C 28.472909 64.95232 30.492682 64.312158 39.148438 66.210938 C 43.758252 67.222217 47.045991 69.074602 47.921875 68.851562 C 49.142651 68.540762 49.83198 68.999645 50.867188 65.578125 C 51.609927 63.123245 52.532555 61.00664 52.921875 60.875 C 53.311195 60.7434 57.382054 64.483715 61.96875 69.671875 C 68.20525 76.726155 70.676192 79.047133 71.757812 78.882812 C 73.358075 78.639676 74.125806 78.172293 74.017578 75.121094 C 73.92556 77.280006 73.16431 77.669116 71.757812 77.882812 C 70.676192 78.047133 68.20525 75.726155 61.96875 68.671875 C 57.382054 63.483715 53.311195 59.7434 52.921875 59.875 z M 139.25781 59.875 C 138.86849 59.7434 134.79764 63.483715 130.21094 68.671875 C 123.97444 75.726155 121.51131 78.047133 120.42969 77.882812 C 119.02791 77.669834 118.26421 77.284248 118.16797 75.144531 C 118.06422 78.176004 118.83326 78.640258 120.42969 78.882812 C 121.51131 79.047133 123.97444 76.726155 130.21094 69.671875 C 134.79764 64.483715 138.86849 60.7434 139.25781 60.875 C 139.64713 61.00664 140.57757 63.123245 141.32031 65.578125 C 142.35552 68.999645 143.04486 68.540762 144.26562 68.851562 C 145.14151 69.074603 148.42143 67.222217 153.03125 66.210938 C 161.6918 64.311104 163.71038 64.952919 164.07031 66.193359 C 164.08581 66.072988 164.14062 65.776805 164.14062 65.726562 C 164.14062 64.172843 162.86959 63.052737 153.03125 65.210938 C 148.42143 66.222217 145.14151 68.074603 144.26562 67.851562 C 143.04486 67.540762 142.35552 67.999645 141.32031 64.578125 C 140.57757 62.123245 139.64713 60.00664 139.25781 59.875 z M 160.03711 88.601562 C 160.01114 90.1161 160.09885 91.156336 160.1875 91.390625 C 160.40464 91.964825 162.16979 93.304868 164.30469 94.367188 C 165.82694 95.124704 167.12243 95.918052 167.75781 96.445312 C 168.01288 96.185337 168.1875 95.990358 168.1875 95.9375 C 168.1875 95.5859 166.43954 94.429547 164.30469 93.367188 C 162.16979 92.304868 160.40464 90.964825 160.1875 90.390625 C 160.12044 90.213375 160.05616 89.550229 160.03711 88.601562 z M 32.150391 88.613281 C 32.130999 89.555424 32.066786 90.214099 32 90.390625 C 31.782856 90.964825 30.017709 92.304868 27.882812 93.367188 C 25.747956 94.429547 24 95.5859 24 95.9375 C 24 95.99037 24.174809 96.185239 24.429688 96.445312 C 25.065073 95.918052 26.360552 95.124704 27.882812 94.367188 C 30.017709 93.304868 31.782856 91.964825 32 91.390625 C 32.08842 91.156916 32.175704 90.121595 32.150391 88.613281 z M 59.917969 128.68945 C 59.532516 129.87123 57.548748 132.0321 57.023438 133.78906 C 56.194303 136.56205 55.805239 138.12461 55.998047 138.95508 C 56.101839 138.03359 56.444728 136.72452 57.023438 134.78906 C 57.604994 132.84398 59.9956 130.39206 60 129.33594 C 60.000906 129.11864 59.972022 128.90698 59.917969 128.68945 z M 132.26953 128.68945 C 132.2156 128.90698 132.18661 129.11864 132.1875 129.33594 C 132.19172 130.39206 134.58251 132.84398 135.16406 134.78906 C 135.74196 136.72181 136.08231 138.02977 136.18555 138.95117 C 136.37821 138.11975 135.99199 136.55799 135.16406 133.78906 C 134.63876 132.0321 132.65488 129.87123 132.26953 128.68945 z M 93.199219 140.84766 C 93.17133 143.66716 92.950137 148.11852 92.523438 155.35156 C 92.223929 160.43823 92 168.00573 92 174.38477 C 91.999952 174.40499 92.006802 174.42169 92.007812 174.44141 C 92.027813 168.26639 92.238196 161.19594 92.523438 156.35156 C 93.004596 148.19538 93.2251 143.55824 93.199219 140.84766 z M 98.986328 140.86914 C 98.959903 143.58332 99.176416 148.21872 99.65625 156.35156 C 99.941355 161.19537 99.98965 168.25518 99.994141 174.42969 C 99.994774 174.41398 100 174.40079 100 174.38477 C 100 168.00573 99.95565 160.43823 99.65625 155.35156 C 99.230495 148.13532 99.013237 143.68995 98.986328 140.86914 z "
     id="path884" />
</svg>
