<?xml version="1.0" encoding="UTF-8" standalone="no"?>
<svg
   xmlns:dc="http://purl.org/dc/elements/1.1/"
   xmlns:cc="http://creativecommons.org/ns#"
   xmlns:rdf="http://www.w3.org/1999/02/22-rdf-syntax-ns#"
   xmlns:svg="http://www.w3.org/2000/svg"
   xmlns="http://www.w3.org/2000/svg"
   xmlns:sodipodi="http://sodipodi.sourceforge.net/DTD/sodipodi-0.dtd"
   xmlns:inkscape="http://www.inkscape.org/namespaces/inkscape"
   width="192"
   height="192"
   x="0"
   y="0"
   version="1.1"
   xml:space="preserve"
   id="svg32"
   sodipodi:docname="apps_microscope.svg"
   inkscape:version="0.92.3 (2405546, 2018-03-11)"><metadata
   id="metadata38"><rdf:RDF><cc:Work
       rdf:about=""><dc:format>image/svg+xml</dc:format><dc:type
         rdf:resource="http://purl.org/dc/dcmitype/StillImage" /><dc:title></dc:title></cc:Work></rdf:RDF></metadata><defs
   id="defs36"><filter
     inkscape:collect="always"
     style="color-interpolation-filters:sRGB"
     id="filter893"
     x="-0.0288"
     width="1.0576"
     y="-0.14400001"
     height="1.288"><feGaussianBlur
       inkscape:collect="always"
       stdDeviation="1.4399695"
       id="feGaussianBlur895" /></filter><filter
     inkscape:collect="always"
     style="color-interpolation-filters:sRGB"
     id="filter909"
     x="-0.073516054"
     width="1.1470321"
     y="-0.035632591"
     height="1.0712652"><feGaussianBlur
       inkscape:collect="always"
       stdDeviation="1.6185484"
       id="feGaussianBlur911" /></filter><filter
     inkscape:collect="always"
     style="color-interpolation-filters:sRGB"
     id="filter937"
     x="-0.048"
     width="1.096"
     y="-0.048"
     height="1.096"><feGaussianBlur
       inkscape:collect="always"
       stdDeviation="0.7999831"
       id="feGaussianBlur939" /></filter><filter
     inkscape:collect="always"
     style="color-interpolation-filters:sRGB"
     id="filter965"
     x="-0.0528"
     width="1.1056"
     y="-0.044"
     height="1.088"><feGaussianBlur
       inkscape:collect="always"
       stdDeviation="1.7599627"
       id="feGaussianBlur967" /></filter><filter
     inkscape:collect="always"
     style="color-interpolation-filters:sRGB"
     id="filter993"
     x="-0.048"
     width="1.096"
     y="-0.048"
     height="1.096"><feGaussianBlur
       inkscape:collect="always"
       stdDeviation="0.95997966"
       id="feGaussianBlur995" /></filter><filter
     inkscape:collect="always"
     style="color-interpolation-filters:sRGB"
     id="filter1017"
     x="-0.048"
     width="1.096"
     y="-0.048"
     height="1.096"><feGaussianBlur
       inkscape:collect="always"
       stdDeviation="0.47998982"
       id="feGaussianBlur1019" /></filter></defs><sodipodi:namedview
   pagecolor="#ffffff"
   bordercolor="#666666"
   borderopacity="1"
   objecttolerance="10"
   gridtolerance="10"
   guidetolerance="10"
   inkscape:pageopacity="0"
   inkscape:pageshadow="2"
   inkscape:window-width="1920"
   inkscape:window-height="1018"
   id="namedview34"
   showgrid="false"
   inkscape:zoom="3.47"
   inkscape:cx="24"
   inkscape:cy="81.636888"
   inkscape:window-x="0"
   inkscape:window-y="32"
   inkscape:window-maximized="1"
   inkscape:current-layer="svg32" />
 
 
 
 
 
 
 
 
 
 
 
 
 
 
 <path
   inkscape:connector-curvature="0"
   style="opacity:0.2;stroke-width:3.99991536;filter:url(#filter893)"
   d="m 50.514923,154.00058 h 43.457996 16.622561 38.89121 c 5.80589,0 10.51285,5.37269 10.51285,11.99975 0,6.62706 -4.70696,11.99974 -10.51285,11.99974 H 110.59548 86.032915 50.514923 c -5.805893,0 -10.512845,-5.37268 -10.512845,-11.99974 0,-6.62746 4.7066,-11.99975 10.512845,-11.99975 z"
   id="path2" /><path
   inkscape:connector-curvature="0"
   style="opacity:0.2;stroke-width:3.99991536;filter:url(#filter937)"
   d="m 92.173245,104.30554 c 0.357553,-1.35313 1.24571,-2.5112 2.469656,-3.2194 L 112.55032,90.727466 c 2.54816,-1.474041 5.82891,-0.634395 7.32619,1.876112 l 11.3859,19.095002 c 1.49656,2.51085 0.64408,5.74115 -1.90479,7.21589 l -17.90742,10.35867 c -1.1037,0.63826 -2.34405,0.84281 -3.51768,0.66603 -1.5369,-0.232 -2.9596,-1.11836 -3.8085,-2.54214 l -11.385903,-19.095 c -0.719029,-1.20552 -0.922068,-2.64335 -0.564872,-3.99649 z"
   id="path4" /><path
   inkscape:connector-curvature="0"
   style="opacity:0.2;stroke-width:3.99991536;filter:url(#filter909)"
   d="m 74.876339,40.986687 c -2.607516,-0.05776 -5.239381,0.88249 -7.273282,2.828064 L 50.173739,60.486274 C 26.682148,82.959387 25.856579,120.35229 48.330026,143.84389 L 54.220529,150 H 82.423056 L 63.056278,129.75043 C 48.352545,114.38017 48.896926,89.916591 64.267188,75.212523 L 81.696507,58.541004 c 4.067118,-3.890806 4.203643,-10.338489 0.312513,-14.405947 -1.94557,-2.033561 -4.525144,-3.090619 -7.132661,-3.14837 z"
   id="path6" /><rect
   style="fill:#e4e4e4;stroke-width:3.99991536"
   width="39.999153"
   height="7.9998307"
   x="-147.99979"
   y="144.00076"
   transform="scale(-1,1)"
   id="rect8" /><path
   inkscape:connector-curvature="0"
   style="fill:#3f3f3f;stroke-width:3.99991536"
   d="m 85.359441,174.00013 h 61.514669 c 5.62847,0 10.19158,-2.56315 10.19158,-8.19162 0,-5.62847 -4.56311,-10.19158 -10.19158,-10.19158 H 89.713625 L 63.05891,127.75417 C 48.355177,112.38391 48.89737,87.91699 64.267632,73.212921 L 81.692851,56.543234 C 85.759969,52.652429 85.902994,46.201161 82.011844,42.133703 78.120699,38.066582 71.670111,37.92356 67.60231,41.81471 L 50.17709,58.484393 C 26.685501,80.957505 25.856926,118.35313 48.330374,141.84471 l 29.664627,31.0089 c 1.922816,2.00977 4.583159,1.14652 7.36444,1.14652 z"
   id="path10" /><path
   inkscape:connector-curvature="0"
   style="fill:#4f4f4f;stroke-width:3.99991536"
   d="m 92.173245,102.30665 c 0.357553,-1.35314 1.24571,-2.511208 2.469656,-3.219409 L 112.55032,88.728569 c 2.54816,-1.474041 5.82891,-0.634395 7.32619,1.876112 l 11.3859,19.094999 c 1.49656,2.51085 0.64408,5.74115 -1.90479,7.21589 l -17.90742,10.35867 c -1.1037,0.63826 -2.34405,0.84281 -3.51768,0.66603 -1.5369,-0.23199 -2.9596,-1.11836 -3.8085,-2.54214 L 92.738117,106.30314 c -0.719029,-1.20552 -0.922068,-2.64336 -0.564872,-3.99649 z"
   id="path12" /><path
   inkscape:connector-curvature="0"
   style="opacity:0.2;stroke-width:3.99991536;filter:url(#filter965)"
   d="m 48.556149,39.004825 c 1.142864,-4.478689 3.928853,-8.236002 7.845102,-10.579632 L 69.83161,20.38762 c 3.360905,-2.010998 7.330233,-2.787814 11.177148,-2.187455 5.083324,0.793379 9.491547,3.837766 12.094088,8.352964 l 34.211844,59.358775 c 0.6688,1.159815 0.85756,2.542402 0.52516,3.843855 -0.33208,1.301448 -1.15779,2.415292 -2.29601,3.096442 L 91.373458,113.30124 c -1.026086,0.61389 -2.17923,0.81062 -3.270335,0.64059 -1.428829,-0.22312 -2.751493,-1.07564 -3.540717,-2.44504 L 50.350559,52.138347 c -2.299987,-3.990899 -2.93727,-8.654833 -1.79441,-13.133522 z"
   id="path14" /><path
   inkscape:connector-curvature="0"
   style="fill:#ff9b32;stroke-width:3.99991536"
   d="m 48.556149,37.005928 c 1.142864,-4.47869 3.928853,-8.236002 7.845102,-10.579632 L 69.83161,18.388723 c 3.360905,-2.010999 7.330233,-2.787814 11.177148,-2.187455 5.083324,0.793379 9.491547,3.837766 12.094088,8.352963 l 34.211844,59.358776 c 0.6688,1.159815 0.85756,2.542402 0.52516,3.843854 -0.33208,1.301449 -1.15779,2.415293 -2.29601,3.096443 L 91.373458,111.30235 c -1.026086,0.61388 -2.17923,0.81062 -3.270335,0.64058 -1.428829,-0.22311 -2.751493,-1.07564 -3.540717,-2.44504 L 50.350559,50.13945 c -2.299987,-3.9909 -2.93727,-8.654833 -1.79441,-13.133522 z"
   id="path16" /><path
   inkscape:connector-curvature="0"
   style="fill:#ff9b32;stroke-width:3.99991536"
   d="m 50.514923,152.00059 h 43.457996 16.622561 38.89121 c 5.80589,0 10.51285,5.37269 10.51285,11.99975 0,6.62706 -4.70696,11.99974 -10.51285,11.99974 H 110.59548 86.032915 50.514923 c -5.805893,0 -10.512845,-5.37268 -10.512845,-11.99974 0,-6.62746 4.7066,-11.99975 10.512845,-11.99975 z"
   id="path18" /><path
   inkscape:connector-curvature="0"
   style="opacity:0.2;stroke-width:3.99991536;filter:url(#filter993)"
   d="m 60.001654,90.000845 c 13.233364,0 23.999492,-10.766128 23.999492,-23.999491 0,-13.233364 -10.766128,-23.999492 -23.999492,-23.999492 -13.233363,0 -23.999491,10.766128 -23.999491,23.999492 0,13.233363 10.766128,23.999491 23.999491,23.999491 z"
   id="path20" /><path
   inkscape:connector-curvature="0"
   style="fill:#4f4f4f;stroke-width:3.99991536"
   d="m 60.001654,88.001948 c 13.233364,0 23.999492,-10.766128 23.999492,-23.999492 0,-13.233363 -10.766128,-23.999492 -23.999492,-23.999492 -13.233363,0 -23.999491,10.766129 -23.999491,23.999492 0,13.233364 10.766128,23.999492 23.999491,23.999492 z"
   id="path22" /><path
   inkscape:connector-curvature="0"
   style="opacity:0.2;stroke-width:3.99991536;filter:url(#filter1017)"
   d="m 60.001654,54.001608 c 6.616704,0 11.999746,5.383042 11.999746,11.999746 0,6.616703 -5.383042,11.999745 -11.999746,11.999745 -6.616703,0 -11.999745,-5.383042 -11.999745,-11.999745 0,-6.616704 5.383042,-11.999746 11.999745,-11.999746 z"
   id="path24" /><path
   inkscape:connector-curvature="0"
   style="fill:#e4e4e4;stroke-width:3.99991536"
   d="m 60.001654,52.00271 c 6.616704,0 11.999746,5.383042 11.999746,11.999746 0,6.616704 -5.383042,11.999746 -11.999746,11.999746 -6.616703,0 -11.999745,-5.383042 -11.999745,-11.999746 0,-6.616704 5.383042,-11.999746 11.999745,-11.999746 z"
   id="path26" /><path
   style="opacity:0.2;fill:#ffffff;stroke-width:3.99991536"
   d="M 78.111328 16.003906 C 75.214493 16.063376 72.350757 16.87847 69.830078 18.386719 L 56.400391 26.425781 C 52.484142 28.769412 49.699505 32.525216 48.556641 37.003906 C 48.128545 38.681546 47.966683 40.382239 48.037109 42.066406 C 48.056686 40.710549 48.213156 39.348017 48.556641 38.001953 C 49.699505 33.523263 52.484142 29.769412 56.400391 27.425781 L 69.830078 19.386719 C 72.350757 17.87847 75.214493 17.063376 78.111328 17.003906 C 79.07694 16.984083 80.048038 17.049129 81.009766 17.199219 C 86.09309 17.992598 90.499021 21.043397 93.101562 25.558594 L 127.3125 84.916016 C 127.67927 85.552083 127.88626 86.25667 127.95703 86.976562 C 128.05933 85.917303 127.84851 84.845585 127.3125 83.916016 L 93.101562 24.558594 C 90.499021 20.043397 86.09309 16.992598 81.009766 16.199219 C 80.048038 16.049129 79.07694 15.984083 78.111328 16.003906 z "
   id="path28" /><path
   style="opacity:0.2;fill:#ffffff;stroke-width:3.99991536"
   d="M 50.517578 152 C 44.711333 152 40.001953 157.37254 40.001953 164 C 40.001953 164.15911 40.017903 164.31371 40.025391 164.4707 C 40.269997 158.09078 44.867929 153 50.517578 153 L 93.96875 153 L 110.59375 153 L 149.48438 153 C 155.13368 153 159.73194 158.09113 159.97656 164.4707 C 159.98405 164.31371 160 164.15911 160 164 C 160 157.37294 155.29026 152 149.48438 152 L 110.59375 152 L 93.96875 152 L 50.517578 152 z "
   id="path30" />
</svg>