<?xml version="1.0" encoding="UTF-8" standalone="no"?>
<svg
   xmlns:dc="http://purl.org/dc/elements/1.1/"
   xmlns:cc="http://creativecommons.org/ns#"
   xmlns:rdf="http://www.w3.org/1999/02/22-rdf-syntax-ns#"
   xmlns:svg="http://www.w3.org/2000/svg"
   xmlns="http://www.w3.org/2000/svg"
   xmlns:sodipodi="http://sodipodi.sourceforge.net/DTD/sodipodi-0.dtd"
   xmlns:inkscape="http://www.inkscape.org/namespaces/inkscape"
   width="192"
   height="192"
   version="1"
   id="svg14"
   sodipodi:docname="apps_telegram.svg"
   inkscape:version="0.92.3 (2405546, 2018-03-11)">
  <metadata
     id="metadata20">
    <rdf:RDF>
      <cc:Work
         rdf:about="">
        <dc:format>image/svg+xml</dc:format>
        <dc:type
           rdf:resource="http://purl.org/dc/dcmitype/StillImage" />
      </cc:Work>
    </rdf:RDF>
  </metadata>
  <defs
     id="defs18">
    <filter
       inkscape:collect="always"
       style="color-interpolation-filters:sRGB"
       id="filter848"
       x="-0.048"
       width="1.096"
       y="-0.048"
       height="1.096">
      <feGaussianBlur
         inkscape:collect="always"
         stdDeviation="3.2"
         id="feGaussianBlur850" />
    </filter>
    <filter
       inkscape:collect="always"
       style="color-interpolation-filters:sRGB"
       id="filter868"
       x="-0.044000364"
       width="1.0880007"
       y="-0.052799476"
       height="1.105599">
      <feGaussianBlur
         inkscape:collect="always"
         stdDeviation="1.7600119"
         id="feGaussianBlur870" />
    </filter>
  </defs>
  <sodipodi:namedview
     pagecolor="#ffffff"
     bordercolor="#666666"
     borderopacity="1"
     objecttolerance="10"
     gridtolerance="10"
     guidetolerance="10"
     inkscape:pageopacity="0"
     inkscape:pageshadow="2"
     inkscape:window-width="1920"
     inkscape:window-height="1018"
     id="namedview16"
     showgrid="false"
     inkscape:zoom="1"
     inkscape:cx="96"
     inkscape:cy="96"
     inkscape:window-x="0"
     inkscape:window-y="32"
     inkscape:window-maximized="1"
     inkscape:current-layer="svg14" />
  <circle
     id="circle2"
     r="80"
     cy="100"
     cx="96"
     style="opacity:0.2;stroke-width:4;filter:url(#filter848)" />
  <circle
     style="fill:#28a4e2;stroke-width:4"
     id="circle4"
     r="80"
     cy="96"
     cx="96" />
  <path
     style="opacity:0.2;fill:#ffffff;stroke-width:4"
     d="M 96 16 C 51.684 16 16.007812 51.68 16.007812 96 C 16.007812 96.33544 16.009812 96.667215 16.007812 97 C 16.007812 52.68 51.684 17 96 17 C 140.316 17 175.99219 52.68 175.99219 97 C 175.99019 96.667215 175.99219 96.33544 175.99219 96 C 175.99219 51.68 140.316 16 96 16 z "
     id="path6" />
  <path
     inkscape:connector-curvature="0"
     id="path8"
     d="m 124.316,136.52 c 1.52,-2.952 10.264,-53.408 11.516,-66.448 1.352,-12.928 -5.7,-10.524 -12.188,-8.34 -15.916,5.376 -66.248,27.164 -80.024,34.352 -3.388,1.408 -4.856,3.792 -2.388,5.86 2.124,1.748 9.9,4.156 16.168,5.376 5.348,1.616 9.5,0.068 13.332,-2.096 9.208,-5.46 36.652,-22.828 38.132,-23.796 1.476,-0.968 3.092,0.832 2.268,1.7 -0.828,0.868 -20.264,18.3 -26.648,26.18 -3.38,4.332 -3.276,6.648 0.196,9.38 7.792,6.108 28.608,20.036 31.704,20.88 3.952,1.072 6.264,0.184 7.932,-3.048 z"
     style="opacity:0.2;stroke-width:4;filter:url(#filter868)" />
  <path
     inkscape:connector-curvature="0"
     id="path10"
     d="m 124.316,132.52 c 1.52,-2.952 10.264,-53.408 11.516,-66.448 1.352,-12.928 -5.7,-10.524 -12.188,-8.34 -15.916,5.376 -66.248,27.164 -80.024,34.352 -3.388,1.408 -4.856,3.792 -2.388,5.86 2.124,1.748 9.9,4.156 16.168,5.376 5.348,1.616 9.5,0.068 13.332,-2.096 9.208,-5.46 36.652,-22.828 38.132,-23.796 1.476,-0.968 3.092,0.832 2.268,1.7 -0.828,0.868 -20.264,18.3 -26.648,26.18 -3.38,4.332 -3.276,6.648 0.196,9.38 7.792,6.108 28.608,20.036 31.704,20.88 3.952,1.072 6.264,0.184 7.932,-3.048 z"
     style="fill:#ffffff;stroke-width:4" />
</svg>
