<?xml version="1.0" encoding="UTF-8" standalone="no"?>
<svg
   xmlns:dc="http://purl.org/dc/elements/1.1/"
   xmlns:cc="http://creativecommons.org/ns#"
   xmlns:rdf="http://www.w3.org/1999/02/22-rdf-syntax-ns#"
   xmlns:svg="http://www.w3.org/2000/svg"
   xmlns="http://www.w3.org/2000/svg"
   xmlns:sodipodi="http://sodipodi.sourceforge.net/DTD/sodipodi-0.dtd"
   xmlns:inkscape="http://www.inkscape.org/namespaces/inkscape"
   width="192"
   height="192"
   version="1.1"
   id="svg32"
   sodipodi:docname="apps_wechat.svg"
   inkscape:version="0.92.3 (2405546, 2018-03-11)">
  <metadata
     id="metadata38">
    <rdf:RDF>
      <cc:Work
         rdf:about="">
        <dc:format>image/svg+xml</dc:format>
        <dc:type
           rdf:resource="http://purl.org/dc/dcmitype/StillImage" />
      </cc:Work>
    </rdf:RDF>
  </metadata>
  <defs
     id="defs36">
    <filter
       inkscape:collect="always"
       style="color-interpolation-filters:sRGB"
       id="filter875"
       x="-0.048"
       width="1.096"
       y="-0.048"
       height="1.096">
      <feGaussianBlur
         inkscape:collect="always"
         stdDeviation="2.24"
         id="feGaussianBlur877" />
    </filter>
    <filter
       inkscape:collect="always"
       style="color-interpolation-filters:sRGB"
       id="filter903"
       x="-0.048000156"
       width="1.0960003"
       y="-0.047999844"
       height="1.0959997">
      <feGaussianBlur
         inkscape:collect="always"
         stdDeviation="3.1999992"
         id="feGaussianBlur905" />
    </filter>
    <filter
       inkscape:collect="always"
       style="color-interpolation-filters:sRGB"
       id="filter919"
       x="-0.048"
       width="1.096"
       y="-0.048"
       height="1.096">
      <feGaussianBlur
         inkscape:collect="always"
         stdDeviation="0.48"
         id="feGaussianBlur921" />
    </filter>
    <filter
       inkscape:collect="always"
       style="color-interpolation-filters:sRGB"
       id="filter935"
       x="-0.048"
       width="1.096"
       y="-0.048"
       height="1.096">
      <feGaussianBlur
         inkscape:collect="always"
         stdDeviation="0.48"
         id="feGaussianBlur937" />
    </filter>
    <filter
       inkscape:collect="always"
       style="color-interpolation-filters:sRGB"
       id="filter963"
       x="-0.104"
       width="1.208"
       y="-0.104"
       height="1.208">
      <feGaussianBlur
         inkscape:collect="always"
         stdDeviation="1.04"
         id="feGaussianBlur965" />
    </filter>
    <filter
       inkscape:collect="always"
       style="color-interpolation-filters:sRGB"
       id="filter967"
       x="-0.104"
       width="1.208"
       y="-0.104"
       height="1.208">
      <feGaussianBlur
         inkscape:collect="always"
         stdDeviation="1.04"
         id="feGaussianBlur969" />
    </filter>
  </defs>
  <sodipodi:namedview
     pagecolor="#ffffff"
     bordercolor="#666666"
     borderopacity="1"
     objecttolerance="10"
     gridtolerance="10"
     guidetolerance="10"
     inkscape:pageopacity="0"
     inkscape:pageshadow="2"
     inkscape:window-width="1920"
     inkscape:window-height="1018"
     id="namedview34"
     showgrid="false"
     inkscape:zoom="1"
     inkscape:cx="96"
     inkscape:cy="106.46593"
     inkscape:window-x="0"
     inkscape:window-y="32"
     inkscape:window-maximized="1"
     inkscape:current-layer="svg32" />
  <path
     style="opacity:0.2;fill:#000000;stroke-width:4;filter:url(#filter875)"
     d="m 132.002,75.000005 a 56,52 0 0 1 56,51.999995 56,52 0 0 1 -20,39.828 V 187 l -14.884,-11.868 a 56,52 0 0 1 -21.116,3.868 56,52 0 0 1 -56,-52 56,52 0 0 1 56,-51.999995 z"
     id="path861"
     inkscape:connector-curvature="0" />
  <path
     style="opacity:0.2;fill:#000000;stroke-width:4;filter:url(#filter903)"
     d="m 95.976,7.000205 c -2.27992,0.01688 -4.558,0.126364 -6.828,0.328124 -1.6456,0.13036 -3.25972,0.340608 -4.8752,0.56248 -0.8562,0.109244 -1.71048,0.231656 -2.56248,0.367188 -2.30172,0.387836 -4.5612,0.87788 -6.7892,1.44532 -0.14592,0.03608 -0.29176,0.07252 -0.43752,0.109376 -33.768,8.794 -58.484,37.6876 -58.484,71.984 4.04e-4,0.24864 0.0204,0.49384 0.02344,0.7422 -0.0084,0.152 -0.0164,0.308 -0.0236,0.46 0.03952,23.547997 12.356,45.639997 32,59.999997 v 24 l 21.2188,-12.4844 c 8.592,2.936 17.648,4.452 26.78,4.484 42.556,-0.048 77.624,-31.74 79.796,-72.115997 0.0636,-0.88452 0.11016,-1.77144 0.14064,-2.66408 0.024,-0.408 0.048,-0.812 0.064,-1.22 -0.004,-0.164 -0.008,-0.328 -0.016,-0.492 0.004,-0.24 0.016,-0.472 0.016,-0.712 0,-38.736 -31.508,-70.664 -72.016,-74.412 -2.212,-0.1956 -4.432,-0.3028 -6.656,-0.3216 -0.448,-0.0068 -0.884,-0.0624 -1.336,-0.0624 z"
     id="path859"
     inkscape:connector-curvature="0" />
  <path
     inkscape:connector-curvature="0"
     id="path2"
     d="m 95.976,3.000205 c -2.27992,0.01688 -4.558,0.126364 -6.828,0.328124 -1.6456,0.13036 -3.25972,0.340608 -4.8752,0.56248 -0.8562,0.109244 -1.71048,0.231656 -2.56248,0.367188 -2.30172,0.387836 -4.5612,0.87788 -6.7892,1.44532 -0.14592,0.03608 -0.29176,0.07252 -0.43752,0.109376 -33.768,8.794 -58.484,37.6876 -58.484,71.984 4.04e-4,0.24864 0.0204,0.49384 0.02344,0.7422 -0.0084,0.152 -0.0164,0.308 -0.0236,0.46 0.03952,23.547997 12.356,45.639997 32,59.999997 v 24 l 21.2188,-12.4844 c 8.592,2.936 17.648,4.452 26.78,4.484 42.556,-0.048 77.624,-31.74 79.796,-72.115997 0.0636,-0.88452 0.11016,-1.77144 0.14064,-2.66408 0.024,-0.408 0.048,-0.812 0.064,-1.22 -0.004,-0.164 -0.008,-0.328 -0.016,-0.492 0.004,-0.24 0.016,-0.472 0.016,-0.712 0,-38.736 -31.508,-70.664 -72.016,-74.412 -2.212,-0.1956 -4.432,-0.3028 -6.656,-0.3216 -0.448,-0.0068 -0.884,-0.0624 -1.336,-0.0624 z"
     style="fill:#50bcff;stroke-width:4" />
  <circle
     id="circle4"
     r="12"
     cy="65"
     cx="136"
     style="opacity:0.1;stroke-width:4;filter:url(#filter935)" />
  <circle
     id="circle6"
     r="12"
     cy="63.000004"
     cx="136"
     style="fill:#3f3f3f;stroke-width:4" />
  <path
     style="opacity:0.2;fill:#ffffff;stroke-width:4"
     d="M 95.974609 3 A 80 76 0 0 0 89.148438 3.328125 C 87.504437 3.458525 85.887484 3.668625 84.271484 3.890625 A 80 76 0 0 0 81.712891 4.2578125 C 79.408891 4.6454125 77.147922 5.135525 74.919922 5.703125 A 80 76 0 0 0 74.484375 5.8125 C 40.716375 14.6065 16 43.500475 16 77.796875 C 16.000225 77.936177 16.00753 78.075542 16.013672 78.214844 C 16.292611 44.17499 40.90836 15.556503 74.484375 6.8125 A 80 76 0 0 1 74.919922 6.703125 C 77.147922 6.135525 79.408891 5.6454125 81.712891 5.2578125 A 80 76 0 0 1 84.271484 4.890625 C 85.887484 4.668625 87.504437 4.458525 89.148438 4.328125 A 80 76 0 0 1 95.976562 4 L 95.974609 3.9980469 L 95.990234 3.9980469 C 96.442234 3.9980469 96.878172 4.0537469 97.326172 4.0605469 A 80 76 0 0 1 103.98242 4.3828125 C 144.32817 8.1157998 175.73529 39.805852 175.98633 78.332031 C 175.9914 78.153449 175.99805 77.975743 175.99805 77.794922 C 175.99805 39.058922 144.49042 7.1308125 103.98242 3.3828125 A 80 76 0 0 0 97.326172 3.0625 C 96.878172 3.0557 96.442234 3 95.990234 3 L 95.976562 3 L 95.974609 3 z M 175.99609 78.916016 C 175.99497 78.99223 175.99247 79.068875 175.99023 79.144531 A 80 76 0 0 0 175.99805 79 A 80 76 0 0 0 175.99609 78.916016 z M 16.003906 78.921875 A 80 76 0 0 0 16 79 A 80 76 0 0 0 16.015625 79.269531 C 16.010666 79.15366 16.00669 79.037747 16.003906 78.921875 z "
     id="path8" />
  <circle
     id="circle12"
     r="12"
     cy="65"
     cx="56"
     style="opacity:0.1;stroke-width:4;filter:url(#filter919)" />
  <circle
     id="circle14"
     r="12"
     cy="63.000004"
     cx="56"
     style="fill:#3f3f3f;stroke-width:4" />
  <path
     inkscape:connector-curvature="0"
     id="path16"
     d="m 132.002,71.000005 a 56,52 0 0 1 56,51.999995 56,52 0 0 1 -20,39.828 V 183 l -14.884,-11.868 a 56,52 0 0 1 -21.116,3.868 56,52 0 0 1 -56,-52 56,52 0 0 1 56,-51.999995 z"
     style="fill:#ffffff;stroke-width:4" />
  <path
     inkscape:connector-curvature="0"
     id="path18"
     d="M 132.002,71.000005 A 56,52 0 0 1 188.002,123 56,52 0 0 1 187.916,124.656 56,52 0 0 0 132.004,75.000005 56,52 0 0 0 76.088,125.344 56,52 0 0 1 76.004,123 a 56,52 0 0 1 56,-51.999995 z"
     style="opacity:0.2;fill:#ffffff;stroke-width:4" />
  <circle
     id="circle22"
     r="12"
     cy="121"
     cx="104"
     style="opacity:0.1;stroke-width:4;filter:url(#filter967)" />
  <circle
     id="circle24"
     r="12"
     cy="119.00001"
     cx="104"
     style="fill:#3f3f3f;stroke-width:4" />
  <circle
     id="circle26"
     r="12"
     cy="121"
     cx="160"
     style="opacity:0.1;stroke-width:4;filter:url(#filter963)" />
  <circle
     id="circle28"
     r="12"
     cy="119.00001"
     cx="160"
     style="fill:#3f3f3f;stroke-width:4" />
</svg>
