<?xml version="1.0" encoding="UTF-8" standalone="no"?>
<svg
   xmlns:dc="http://purl.org/dc/elements/1.1/"
   xmlns:cc="http://creativecommons.org/ns#"
   xmlns:rdf="http://www.w3.org/1999/02/22-rdf-syntax-ns#"
   xmlns:svg="http://www.w3.org/2000/svg"
   xmlns="http://www.w3.org/2000/svg"
   xmlns:sodipodi="http://sodipodi.sourceforge.net/DTD/sodipodi-0.dtd"
   xmlns:inkscape="http://www.inkscape.org/namespaces/inkscape"
   width="192"
   height="192"
   version="1"
   id="svg12"
   sodipodi:docname="apps_uc_browser_turbo.svg"
   inkscape:version="0.92.3 (2405546, 2018-03-11)">
  <metadata
     id="metadata18">
    <rdf:RDF>
      <cc:Work
         rdf:about="">
        <dc:format>image/svg+xml</dc:format>
        <dc:type
           rdf:resource="http://purl.org/dc/dcmitype/StillImage" />
        <dc:title></dc:title>
      </cc:Work>
    </rdf:RDF>
  </metadata>
  <defs
     id="defs16">
    <filter
       inkscape:collect="always"
       style="color-interpolation-filters:sRGB"
       id="filter860"
       x="-0.048"
       width="1.096"
       y="-0.048"
       height="1.096">
      <feGaussianBlur
         inkscape:collect="always"
         stdDeviation="3.2"
         id="feGaussianBlur862" />
    </filter>
    <filter
       inkscape:collect="always"
       style="color-interpolation-filters:sRGB"
       id="filter871"
       x="-0.047950897"
       width="1.0959018"
       y="-0.048049204"
       height="1.0960984">
      <feGaussianBlur
         inkscape:collect="always"
         stdDeviation="2.2423529"
         id="feGaussianBlur873" />
    </filter>
  </defs>
  <sodipodi:namedview
     pagecolor="#ffffff"
     bordercolor="#666666"
     borderopacity="1"
     objecttolerance="10"
     gridtolerance="10"
     guidetolerance="10"
     inkscape:pageopacity="0"
     inkscape:pageshadow="2"
     inkscape:window-width="1920"
     inkscape:window-height="1018"
     id="namedview14"
     showgrid="false"
     inkscape:zoom="1"
     inkscape:cx="-223.77632"
     inkscape:cy="80.737589"
     inkscape:window-x="0"
     inkscape:window-y="32"
     inkscape:window-maximized="1"
     inkscape:current-layer="svg12" />
  <rect
     style="opacity:0.2;stroke-width:4;filter:url(#filter860)"
     width="160"
     height="160"
     x="16"
     y="20"
     rx="48"
     ry="48"
     id="rect2" />
  <rect
     style="fill:#9938d5;fill-opacity:1;stroke-width:4"
     width="160"
     height="160"
     x="16"
     y="16"
     rx="48"
     ry="48"
     id="rect4" />
  <path
     inkscape:connector-curvature="0"
     style="opacity:0.2;fill:#ffffff;stroke-width:4"
     d="M 64,16 C 37.408,16 16,37.408 16,64 v 1 C 16,38.408 37.408,17 64,17 h 64 c 26.592,0 48,21.408 48,48 V 64 C 176,37.408 154.592,16 128,16 Z"
     id="path10" />
  <path
     inkscape:connector-curvature="0"
     id="path6"
     d="m 71.257454,44.021128 c -3.004712,0.11604 -5.580636,0.625084 -8.671876,1.64844 -7.08868,2.346716 -14.391044,7.488772 -18.984372,13.367188 -1.714228,2.193824 -3.666131,5.091148 -3.406252,5.350752 0.084,0.08392 0.54986,-0.14892 1.031252,-0.515628 3.226724,-2.45814 8.081796,-4.497428 11.953124,-3.846188 6.007616,1.010604 10.831512,7.24848 10.820312,13.464188 -0.01,5.45224 -2.511272,8.997984 -9.679688,17.1875 -9.137056,10.43857 -11.996064,15.33031 -13.718748,23.48438 -0.731018,3.46008 -0.806056,9.96506 -0.15624,13.57031 1.104892,6.13033 4.355128,12.35653 9.046876,17.32031 5.4651,5.78194 12.762224,9.25057 22.140624,10.53125 2.72578,0.3724 7.492968,0.49667 7.492188,0.19532 -1.68e-4,-0.0615 -0.782224,-0.3284 -1.3125,-0.53125 -0.0056,-0.002 -0.01,0.002 -0.0156,0 -3.896944,-1.02476 -7.7364,-3.36034 -10.726564,-6.35937 -3.006936,-3.01581 -5.314024,-7.0301 -6.359412,-11.13282 -3.067808,-13.75781 1.667256,-23.20631 7.984376,-30.69531 4.608852,-4.63898 11.47628,-10.038308 18.14844,-14.109384 6.525152,-4.993956 13.325376,-14.598056 13.062496,-24.343748 9.08e-4,-6.674632 -3.2727,-14.5366 -11.187496,-20.218752 -4.467124,-2.909788 -8.48582,-4.13208 -14.27344,-4.35156 -1.131228,-0.04292 -2.185928,-0.05432 -3.1875,-0.0156 z m 54.742186,19.953128 c -4.8444,2.784044 -4.97772,7.53092 -5.74778,12.117188 -0.0888,1.419556 -0.305,2.78842 -0.47656,3.03906 -1.58892,2.319404 -8.39069,7.548004 -17.2366,11.156252 -2.0493,0.836384 -2.902222,1.421612 -2.0625,1.421872 1.77886,7.52e-4 6.6439,0.636024 9.16406,1.195312 6.41654,1.424008 11.66448,2.581544 18.19532,6.218752 6.68547,3.723338 9.08504,4.375558 12.5625,4.773438 3.53328,0.40423 8.72539,-0.16828 10.8125,-1.1875 l 0.94531,-0.46093 0.0703,-2.88282 c 0.21072,-8.347056 -3.80121,-14.285484 -10.38281,-19.164064 -2.0891,-1.548492 -6.6761,-3.523632 -8.64844,-4.093748 -0.98244,-0.28396 -1.12459,-0.431632 -1.36719,-1.375 -0.76072,-4.289872 -3.10776,-7.766288 -5.82811,-10.757812 z M 94.632454,95.997692 c -4.418752,0.13592 -6.885784,1.009836 -9.445312,2.140624 -1.676916,0.740804 -1.491592,1.105292 0.460936,0.906252 3.772824,-0.3844 11.07378,0.783788 15.281252,2.453132 7.90863,3.13776 15.08542,10.92382 19.77343,18.63281 0.89076,1.72434 1.42227,2.88335 3.64844,3.53906 0.78001,0.22656 2.18041,0.303 4.25782,0.23436 3.47762,-0.11512 4.63347,-0.40665 8.94531,-2.28906 1.50656,-0.6577 2.86813,-0.82896 4.39062,-1.22656 1.52249,-0.3976 5.81983,-0.56203 7.94531,-0.008 2.09988,0.54769 2.10938,0.54691 2.10938,-0.22637 0,-1.70519 -1.58783,-5.97006 -3.65625,-7.21093 -1.68965,-1.01366 -3.47092,-1.47292 -7.84375,-2.02344 -6.62307,-0.83379 -10.11158,-2.13483 -17.20312,-6.42187 -5.99295,-3.62293 -9.55982,-5.139804 -15.60157,-6.617196 -5.18221,-1.267208 -8.24716,-2.030772 -13.062496,-1.882812 z m -5.875,7.984378 c -6.608072,0.31016 -13.05528,2.65486 -18.265624,8.0625 0.710656,-0.44536 1.390536,-0.89054 2.226564,-1.32812 3.547548,-1.85676 7.342412,-2.72555 11.320312,-2.71875 3.759508,0.008 7.672508,0.95014 10.984372,2.67968 12.475432,6.51485 16.745042,22.66018 9.070312,34.46094 -2.93537,4.51347 -7.04682,7.82312 -12.03906,9.57031 -0.19368,0.0792 -0.39432,0.20308 -0.585936,0.27344 -0.817264,0.30008 -1.492188,0.66654 -1.492188,0.8125 0,0.53345 24.945574,-0.0446 37.349254,-0.88281 5.0858,-0.34368 5.21199,-0.39792 4.48437,-1.92188 -1.61881,-3.39054 -7.65813,-5.84738 -13.48988,-6.57812 -2.9285,-0.36692 -2.74606,0.0328 -1.77343,-3.73438 2.33196,-9.03236 0.33268,-19.81482 -4.95313,-26.66406 -4.60106,-5.96198 -11.77652,-11.61878 -19.359372,-12.01562 -1.160296,-0.0607 -2.31892,-0.07 -3.476564,-0.0156 z m -4.734376,12.01563 c -2.603028,-0.004 -5.409836,0.66164 -7.593748,1.80468 -2.203376,1.15327 -5.580832,4.61098 -6.64844,6.80469 -1.778224,3.65392 -2.241984,7.55454 -1.320312,11.17187 0.82452,3.23591 1.863036,5.04338 4.27344,7.46094 2.40962,2.41677 4.261088,3.52854 7.093748,4.27344 2.254508,0.59287 5.74678,0.6489 7.96094,0.125 3.68186,-0.87116 7.462232,-3.56992 9.60156,-6.85938 5.186594,-7.97497 2.382124,-18.59383 -6.070312,-23.00781 -2.401588,-1.25417 -4.511416,-1.76743 -7.296876,-1.77343 z m 0.04688,8 c 3.120752,0.0236 5.57298,1.464 7.078124,4.15624 0.742764,1.32866 0.85156,1.80809 0.85156,3.80469 0,1.99658 -0.10876,2.48389 -0.851564,3.8125 -0.909252,1.62639 -2.358872,2.93773 -4,3.61719 h -0.008 c -4.043308,1.67393 -8.74636,-0.21848 -10.60156,-4.26562 -0.724528,-1.58223 -0.722104,-4.75108 0.008,-6.34376 1.374956,-3.00027 4.218876,-4.80684 7.52344,-4.78124 z"
     style="opacity:0.2;stroke-width:4;filter:url(#filter871)" />
  <path
     inkscape:connector-curvature="0"
     id="path8"
     d="m 71.257454,40.023792 c -3.004712,0.11604 -5.580636,0.625084 -8.671876,1.64844 -7.08868,2.346716 -14.391044,7.488772 -18.984372,13.367188 -1.714228,2.193824 -3.666131,5.091148 -3.406252,5.350752 0.084,0.08392 0.54986,-0.14892 1.031252,-0.515628 3.226724,-2.45814 8.081796,-4.497428 11.953124,-3.846188 6.007616,1.010604 10.831512,7.24848 10.820312,13.464188 -0.01,5.45224 -2.511272,8.997984 -9.679688,17.1875 -9.137056,10.438568 -11.996064,15.330306 -13.718748,23.484376 -0.731018,3.46008 -0.806056,9.96506 -0.15624,13.57032 1.104892,6.13033 4.355128,12.35653 9.046876,17.32031 5.4651,5.78194 12.762224,9.25057 22.140624,10.53125 2.72578,0.3724 7.492968,0.49666 7.492188,0.19532 -1.68e-4,-0.0615 -0.782224,-0.3284 -1.3125,-0.53125 -0.0056,-0.002 -0.01,0.002 -0.0156,0 -3.896944,-1.02477 -7.7364,-3.36035 -10.726564,-6.35938 -3.006936,-3.01581 -5.314024,-7.03009 -6.359412,-11.13282 -3.067808,-13.75781 1.667256,-23.2063 7.984376,-30.69531 4.608852,-4.63898 11.47628,-10.038304 18.14844,-14.10938 C 93.368546,83.959524 100.16877,74.355424 99.90589,64.609732 99.906798,57.9351 96.63319,50.073132 88.718394,44.39098 84.25127,41.481192 80.232574,40.2589 74.444954,40.03942 73.313726,39.9965 72.259026,39.98508 71.257454,40.02382 Z M 125.99964,59.97692 c -4.8444,2.784044 -4.97772,7.53092 -5.74778,12.117188 -0.0888,1.419556 -0.305,2.78842 -0.47656,3.03906 -1.58892,2.319404 -8.39069,7.548004 -17.2366,11.156252 -2.0493,0.836384 -2.902222,1.421612 -2.0625,1.421872 1.77886,7.52e-4 6.6439,0.636024 9.16406,1.195312 6.41654,1.424008 11.66448,2.581544 18.19532,6.218752 6.68547,3.723332 9.08504,4.375556 12.5625,4.773436 3.53328,0.404238 8.72539,-0.16828 10.8125,-1.1875 l 0.94531,-0.460936 0.0703,-2.882812 c 0.21072,-8.347056 -3.80121,-14.285484 -10.38281,-19.164064 -2.0891,-1.548492 -6.6761,-3.523632 -8.64844,-4.093748 -0.98244,-0.28396 -1.12459,-0.431632 -1.36719,-1.375 -0.76072,-4.289872 -3.10776,-7.766288 -5.82811,-10.757812 z M 94.632454,92.000356 c -4.418752,0.13592 -6.885784,1.009836 -9.445312,2.140624 -1.676916,0.740804 -1.491592,1.105292 0.460936,0.906252 3.772824,-0.3844 11.07378,0.783788 15.281252,2.453124 7.90863,3.137774 15.08542,10.923824 19.77343,18.632814 0.89076,1.72434 1.42227,2.88336 3.64844,3.53907 0.78001,0.22656 2.18041,0.303 4.25782,0.23436 3.47762,-0.11512 4.63347,-0.40666 8.94531,-2.28906 1.50656,-0.65771 2.86813,-0.82897 4.39062,-1.22657 1.52249,-0.3976 5.81983,-0.56202 7.94531,-0.008 2.09988,0.54769 2.10938,0.54692 2.10938,-0.22636 0,-1.70519 -1.58783,-5.97006 -3.65625,-7.21094 -1.68965,-1.01366 -3.47092,-1.47291 -7.84375,-2.02343 -6.62307,-0.8338 -10.11158,-2.13484 -17.20312,-6.42188 -5.99295,-3.622932 -9.55982,-5.1398 -15.60157,-6.617192 -5.18221,-1.267208 -8.24716,-2.030772 -13.062496,-1.882812 z m -5.875,7.984376 c -6.608072,0.310168 -13.05528,2.654858 -18.265624,8.062508 0.710656,-0.44536 1.390536,-0.89055 2.226564,-1.32813 3.547548,-1.85676 7.342412,-2.72555 11.320312,-2.71875 3.759508,0.008 7.672508,0.95014 10.984372,2.67969 12.475432,6.51485 16.745042,22.66017 9.070312,34.46093 -2.93537,4.51347 -7.04682,7.82313 -12.03906,9.57032 -0.19368,0.0792 -0.39432,0.20308 -0.585936,0.27344 -0.817264,0.30008 -1.492188,0.66654 -1.492188,0.8125 0,0.53344 24.945574,-0.0446 37.349254,-0.88282 5.0858,-0.34368 5.21199,-0.39792 4.48437,-1.92187 -1.61881,-3.39054 -7.65813,-5.84739 -13.48988,-6.57813 -2.9285,-0.36692 -2.74606,0.0328 -1.77343,-3.73437 2.33196,-9.03237 0.33268,-19.81483 -4.95313,-26.66407 -4.60106,-5.96197 -11.77652,-11.61878 -19.359372,-12.01562 -1.160296,-0.06072 -2.31892,-0.06996 -3.476564,-0.0156 z m -4.734376,12.015628 c -2.603028,-0.004 -5.409836,0.66165 -7.593748,1.80469 -2.203376,1.15327 -5.580832,4.61097 -6.64844,6.80469 -1.778224,3.65392 -2.241984,7.55454 -1.320312,11.17187 0.82452,3.23591 1.863036,5.04337 4.27344,7.46094 2.40962,2.41676 4.261088,3.52854 7.093748,4.27343 2.254508,0.59287 5.74678,0.64891 7.96094,0.125 3.68186,-0.87116 7.462232,-3.56991 9.60156,-6.85937 5.186594,-7.97497 2.382124,-18.59383 -6.070312,-23.00781 -2.401588,-1.25417 -4.511416,-1.76744 -7.296876,-1.77344 z m 0.04688,8 c 3.120752,0.0236 5.57298,1.464 7.078124,4.15625 0.742764,1.32865 0.85156,1.80809 0.85156,3.80469 0,1.99657 -0.10876,2.48388 -0.851564,3.8125 -0.909252,1.62638 -2.358872,2.93773 -4,3.61718 h -0.008 c -4.043308,1.67394 -8.74636,-0.21848 -10.60156,-4.26562 -0.724528,-1.58222 -0.722104,-4.75108 0.008,-6.34375 1.374956,-3.00027 4.218876,-4.80685 7.52344,-4.78125 z"
     style="fill:#ffffff;stroke-width:4" />
</svg>
