<?xml version="1.0" encoding="UTF-8" standalone="no"?>
<svg
   xmlns:dc="http://purl.org/dc/elements/1.1/"
   xmlns:cc="http://creativecommons.org/ns#"
   xmlns:rdf="http://www.w3.org/1999/02/22-rdf-syntax-ns#"
   xmlns:svg="http://www.w3.org/2000/svg"
   xmlns="http://www.w3.org/2000/svg"
   xmlns:sodipodi="http://sodipodi.sourceforge.net/DTD/sodipodi-0.dtd"
   xmlns:inkscape="http://www.inkscape.org/namespaces/inkscape"
   width="192"
   height="192"
   version="1"
   id="svg28"
   sodipodi:docname="apps_aliexpress.svg"
   inkscape:version="0.92.3 (2405546, 2018-03-11)">
  <metadata
     id="metadata34">
    <rdf:RDF>
      <cc:Work
         rdf:about="">
        <dc:format>image/svg+xml</dc:format>
        <dc:type
           rdf:resource="http://purl.org/dc/dcmitype/StillImage" />
        <dc:title></dc:title>
      </cc:Work>
    </rdf:RDF>
  </metadata>
  <defs
     id="defs32">
    <filter
       inkscape:collect="always"
       style="color-interpolation-filters:sRGB"
       id="filter864"
       x="-0.04575"
       width="1.0915"
       y="-0.050482759"
       height="1.1009655">
      <feGaussianBlur
         inkscape:collect="always"
         stdDeviation="3.05"
         id="feGaussianBlur866" />
    </filter>
    <filter
       inkscape:collect="always"
       style="color-interpolation-filters:sRGB"
       id="filter889"
       x="-0.037764085"
       width="1.0755282"
       y="-0.065848041"
       height="1.1316961">
      <feGaussianBlur
         inkscape:collect="always"
         stdDeviation="1.3217472"
         id="feGaussianBlur891" />
    </filter>
  </defs>
  <sodipodi:namedview
     pagecolor="#ffffff"
     bordercolor="#666666"
     borderopacity="1"
     objecttolerance="10"
     gridtolerance="10"
     guidetolerance="10"
     inkscape:pageopacity="0"
     inkscape:pageshadow="2"
     inkscape:window-width="1920"
     inkscape:window-height="1018"
     id="namedview30"
     showgrid="false"
     inkscape:zoom="1.75"
     inkscape:cx="43.057306"
     inkscape:cy="80.926865"
     inkscape:window-x="0"
     inkscape:window-y="32"
     inkscape:window-maximized="1"
     inkscape:current-layer="svg28">
    <inkscape:grid
       type="xygrid"
       id="grid841" />
  </sodipodi:namedview>
  <rect
     style="fill:#ffad04;fill-opacity:1;stroke-width:3.3499999"
     width="134"
     height="134"
     x="-150"
     y="-163"
     rx="6.7000003"
     ry="6.7000003"
     transform="matrix(0,-1,-1,0,0,0)"
     id="rect838" />
  <rect
     style="opacity:0.2;fill:#000000;fill-opacity:1;stroke-width:3.80788636;filter:url(#filter864)"
     width="145"
     height="160"
     x="-180"
     y="-176"
     rx="8"
     ry="8"
     transform="matrix(0,-1,-1,0,0,0)"
     id="rect846" />
  <rect
     id="rect2"
     transform="matrix(0,-1,-1,0,0,0)"
     ry="8"
     rx="8"
     y="-176"
     x="-176"
     height="160"
     width="145"
     style="fill:#f63e16;fill-opacity:1;stroke-width:3.80788636" />
  <circle
     style="opacity:0.2;fill:#000000;fill-opacity:1;stroke:none;stroke-width:7.66747427;stroke-linecap:round;stroke-linejoin:round;stroke-miterlimit:4;stroke-dasharray:none;stroke-opacity:1"
     id="path842"
     cx="58"
     cy="64"
     r="8" />
  <circle
     r="8"
     cy="64"
     cx="134"
     id="circle844"
     style="opacity:0.2;fill:#000000;fill-opacity:1;stroke:none;stroke-width:7.66747427;stroke-linecap:round;stroke-linejoin:round;stroke-miterlimit:4;stroke-dasharray:none;stroke-opacity:1" />
  <path
     style="color:#000000;font-style:normal;font-variant:normal;font-weight:normal;font-stretch:normal;font-size:medium;line-height:normal;font-family:sans-serif;font-variant-ligatures:normal;font-variant-position:normal;font-variant-caps:normal;font-variant-numeric:normal;font-variant-alternates:normal;font-feature-settings:normal;text-indent:0;text-align:start;text-decoration:none;text-decoration-line:none;text-decoration-style:solid;text-decoration-color:#000000;letter-spacing:normal;word-spacing:normal;text-transform:none;writing-mode:lr-tb;direction:ltr;text-orientation:mixed;dominant-baseline:auto;baseline-shift:baseline;text-anchor:start;white-space:normal;shape-padding:0;clip-rule:nonzero;display:inline;overflow:visible;visibility:visible;opacity:0.2;isolation:auto;mix-blend-mode:normal;color-interpolation:sRGB;color-interpolation-filters:linearRGB;solid-color:#000000;solid-opacity:1;vector-effect:none;fill:#000000;fill-opacity:1;fill-rule:nonzero;stroke:none;stroke-width:8;stroke-linecap:round;stroke-linejoin:round;stroke-miterlimit:4;stroke-dasharray:none;stroke-dashoffset:0;stroke-opacity:1;filter:url(#filter889);color-rendering:auto;image-rendering:auto;shape-rendering:auto;text-rendering:auto;enable-background:accumulate"
     d="m 134.05469,61.827251 a 4.0004,4.0004 0 0 0 -4.10742,4.277343 c 0.703,12.574196 -5.58925,24.490547 -16.36915,31.001954 -10.77989,6.511402 -24.252122,6.534282 -35.054682,0.06055 C 67.720877,90.693357 61.387765,78.800308 62.046875,66.223735 a 4.0005793,4.0005793 0 1 0 -7.990234,-0.417969 c -0.813308,15.518837 7.023716,30.2344 20.353515,38.222654 13.329799,7.98826 30.002854,7.96052 43.304684,-0.0742 13.30184,-8.034733 21.08623,-22.779014 20.21875,-38.294918 a 4.0004,4.0004 0 0 0 -3.8789,-3.832031 z"
     id="path873"
     inkscape:connector-curvature="0" />
  <path
     style="opacity:1;fill:none;fill-opacity:1;stroke:#ffffff;stroke-width:8;stroke-linecap:round;stroke-linejoin:round;stroke-miterlimit:4;stroke-dasharray:none;stroke-opacity:1"
     id="path840"
     sodipodi:type="arc"
     sodipodi:cx="96"
     sodipodi:cy="66"
     sodipodi:rx="38"
     sodipodi:ry="38"
     sodipodi:start="6.2273348"
     sodipodi:end="3.1939525"
     d="M 133.94075,63.878784 A 38,38 0 0 1 115.64719,98.526725 38,38 0 0 1 76.466466,98.595108 38,38 0 0 1 58.052078,64.011235"
     sodipodi:open="true" />
  <path
     inkscape:connector-curvature="0"
     style="opacity:0.2;fill:#ffffff;fill-opacity:1;stroke-width:3.3499999"
     d="M 35.699219,16 C 31.987419,16 29,18.987419 29,22.699219 v 1 C 29,19.987419 31.987419,17 35.699219,17 H 156.30078 C 160.01258,17 163,19.987419 163,23.699219 v -1 C 163,18.987419 160.01258,16 156.30078,16 Z"
     id="rect868" />
</svg>
