<?xml version="1.0" encoding="UTF-8" standalone="no"?>
<svg
   xmlns:dc="http://purl.org/dc/elements/1.1/"
   xmlns:cc="http://creativecommons.org/ns#"
   xmlns:rdf="http://www.w3.org/1999/02/22-rdf-syntax-ns#"
   xmlns:svg="http://www.w3.org/2000/svg"
   xmlns="http://www.w3.org/2000/svg"
   xmlns:sodipodi="http://sodipodi.sourceforge.net/DTD/sodipodi-0.dtd"
   xmlns:inkscape="http://www.inkscape.org/namespaces/inkscape"
   width="192"
   height="192"
   version="1"
   id="svg14"
   sodipodi:docname="apps_soundcloud_pulse.svg"
   inkscape:version="0.92.3 (2405546, 2018-03-11)">
  <metadata
     id="metadata20">
    <rdf:RDF>
      <cc:Work
         rdf:about="">
        <dc:format>image/svg+xml</dc:format>
        <dc:type
           rdf:resource="http://purl.org/dc/dcmitype/StillImage" />
        <dc:title></dc:title>
      </cc:Work>
    </rdf:RDF>
  </metadata>
  <defs
     id="defs18">
    <filter
       inkscape:collect="always"
       style="color-interpolation-filters:sRGB"
       id="filter906"
       x="-0.047999775"
       width="1.0959996"
       y="-0.048000225"
       height="1.0960004">
      <feGaussianBlur
         inkscape:collect="always"
         stdDeviation="2.5200331"
         id="feGaussianBlur908" />
    </filter>
    <filter
       inkscape:collect="always"
       style="color-interpolation-filters:sRGB"
       id="filter928"
       x="-0.048"
       width="1.096"
       y="-0.048"
       height="1.096">
      <feGaussianBlur
         inkscape:collect="always"
         stdDeviation="3.2"
         id="feGaussianBlur930" />
    </filter>
  </defs>
  <sodipodi:namedview
     pagecolor="#ffffff"
     bordercolor="#666666"
     borderopacity="1"
     objecttolerance="10"
     gridtolerance="10"
     guidetolerance="10"
     inkscape:pageopacity="0"
     inkscape:pageshadow="2"
     inkscape:window-width="1920"
     inkscape:window-height="1018"
     id="namedview16"
     showgrid="false"
     inkscape:zoom="1"
     inkscape:cx="24.430512"
     inkscape:cy="96"
     inkscape:window-x="0"
     inkscape:window-y="32"
     inkscape:window-maximized="1"
     inkscape:current-layer="svg14">
    <inkscape:grid
       type="xygrid"
       id="grid838" />
  </sodipodi:namedview>
  <circle
     r="80"
     cy="100"
     cx="96"
     id="circle910"
     style="opacity:0.2;fill:#000000;fill-opacity:1;stroke:none;stroke-width:17.17688942;stroke-linecap:round;stroke-linejoin:round;stroke-miterlimit:4;stroke-dasharray:none;stroke-opacity:1;filter:url(#filter928)" />
  <circle
     style="opacity:1;fill:#ff8833;fill-opacity:1;stroke:none;stroke-width:17.17688942;stroke-linecap:round;stroke-linejoin:round;stroke-miterlimit:4;stroke-dasharray:none;stroke-opacity:1"
     id="path831"
     cx="96"
     cy="96"
     r="80" />
  <path
     style="opacity:0.2;fill:#000000;stroke-width:2.00082207;filter:url(#filter906)"
     d="M 98.972656,35.07019 A 63,63 0 0 0 64.5,43.439331 63,63 0 0 0 41.439453,129.49988 63,63 0 0 0 127.5,152.56043 63,63 0 0 0 150.56055,66.499878 63,63 0 0 0 98.972656,35.07019 Z m -4.318359,5.945313 A 57,57 0 0 1 145.36328,69.499878 57,57 0 0 1 124.5,147.36316 57,57 0 0 1 46.636719,126.49988 57,57 0 0 1 67.5,48.636597 57,57 0 0 1 94.654297,41.015503 Z m 3.751953,6.041016 A 51,51 0 0 0 70.5,53.831909 51,51 0 0 0 51.832031,123.49988 51,51 0 0 0 121.5,142.16785 51,51 0 0 0 140.16797,72.499878 51,51 0 0 0 98.40625,47.056519 Z M 94.9375,53.011597 A 45,45 0 0 1 134.9707,75.499878 45,45 0 0 1 118.5,136.97058 45,45 0 0 1 57.029297,120.49988 45,45 0 0 1 73.5,59.029175 45,45 0 0 1 94.9375,53.011597 Z m 8.31445,30.988281 c -1.7758,0 -3.508289,0.351685 -5.037106,0.947266 -0.593967,0.231568 -0.752295,0.471138 -0.757813,0.933593 v 25.167973 c 0.0061,0.48531 0.381469,0.88971 0.851563,0.9375 0.01997,0.006 21.678356,0.0137 21.818356,0.0137 4.34727,0 7.87305,-3.54974 7.87305,-7.92969 0,-4.379741 -3.52384,-7.93164 -7.87109,-7.93164 v -0.002 c -1.07856,0 -2.10753,0.221333 -3.04493,0.617187 -0.62633,-7.14678 -6.57454,-12.753906 -13.83203,-12.753906 z M 95.849609,85.8573 v 0.002 c -0.472867,0 -0.862261,0.390626 -0.86914,0.871094 l -0.353516,17.863286 0.355469,6.48437 c 0.0061,0.47356 0.39432,0.86329 0.867187,0.86329 0.471465,0 0.858356,-0.39064 0.865235,-0.8711 l 0.386718,-6.47851 -0.386718,-17.865243 c -0.0061,-0.479067 -0.39377,-0.86914 -0.865235,-0.86914 z m -2.689453,1.541016 c -0.441186,0 -0.805621,0.364488 -0.8125,0.814453 l -0.304687,16.373051 c 0,0.01 0.304687,6.58398 0.304687,6.58398 0.0061,0.4451 0.37199,0.81055 0.8125,0.81055 0.440499,0 0.80424,-0.36518 0.8125,-0.81445 l 0.34375,-6.57422 -0.34375,-16.378911 c -0.0061,-0.448563 -0.372001,-0.814453 -0.8125,-0.814453 z m -8.037109,1.876953 c -0.353784,0 -0.638798,0.285735 -0.648438,0.65039 l -0.402343,14.658201 0.404296,6.72852 c 0.01,0.36056 0.29338,0.64648 0.646485,0.64648 0.352424,0 0.636737,-0.28573 0.648437,-0.64843 l 0.453125,-6.72461 -0.453125,-14.660161 c -0.01196,-0.363995 -0.296716,-0.65039 -0.648437,-0.65039 z m 2.658203,0.326171 c -0.386127,0 -0.694886,0.307926 -0.703125,0.703126 l -0.371094,14.285154 0.371094,6.66602 c 0.0081,0.39097 0.318967,0.69922 0.705078,0.69922 0.383386,0 0.690855,-0.30984 0.701172,-0.70508 l 0.417969,-6.66016 -0.417969,-14.285154 c -0.01,-0.395201 -0.319748,-0.703125 -0.703125,-0.703126 z m -5.294922,0.210938 c -0.322807,0 -0.583433,0.260922 -0.59375,0.59375 0,8.91e-4 -0.435547,14.181642 -0.435547,14.181642 l 0.435547,6.76953 c 0.01,0.33007 0.271631,0.5918 0.59375,0.5918 0.320049,0 0.578714,-0.26096 0.591797,-0.59375 l 0.492187,-6.76758 -0.490234,-14.181642 c -0.01399,-0.332791 -0.273709,-0.59375 -0.59375,-0.59375 z m 7.97461,0.253906 c -0.416423,0 -0.749552,0.33268 -0.757813,0.759766 l -0.339844,13.76367 0.339844,6.62305 c 0.0081,0.42158 0.340713,0.75586 0.757813,0.75586 0.415746,0 0.748148,-0.33271 0.757812,-0.75977 l 0.378906,-6.61718 -0.378906,-13.76563 c -0.01008,-0.425704 -0.342065,-0.757813 -0.757812,-0.757813 z m -10.591797,0.892578 c -0.290461,0 -0.528617,0.235506 -0.541016,0.53711 0,8.91e-4 -0.466797,13.089848 -0.466797,13.089848 l 0.46875,6.84179 c 0.012,0.29882 0.248602,0.53516 0.539063,0.53516 0.287707,0 0.52333,-0.23745 0.537109,-0.53906 l 0.529297,-6.83789 -0.529297,-13.089848 c -0.01399,-0.302304 -0.249402,-0.53711 -0.537109,-0.53711 z m -2.597657,2.490235 c -0.258124,0 -0.471975,0.212047 -0.484375,0.482422 l -0.501953,10.652341 0.501953,6.88477 c 0.014,0.26904 0.226251,0.48047 0.484375,0.48047 0.256722,0 0.469215,-0.21268 0.484375,-0.48242 l 0.566407,-6.87891 -0.566407,-10.652345 c -0.016,-0.270407 -0.227653,-0.482422 -0.484375,-0.482422 z m -5.130859,3.701172 c -0.198202,0 -0.361115,0.16025 -0.376953,0.373047 l -0.564453,7.058594 0.564453,6.82813 c 0.016,0.2115 0.17873,0.37109 0.376953,0.37109 0.196203,0 0.3578,-0.15967 0.375,-0.37109 l 0.640625,-6.82813 -0.640625,-7.060548 c -0.01801,-0.21147 -0.178897,-0.371093 -0.375,-0.371093 z m -2.535156,0.24414 c -0.168602,0 -0.305066,0.133358 -0.322266,0.316407 0,8.1e-4 -0.597656,6.869144 -0.597656,6.869144 l 0.597656,6.61914 c 0.01601,0.18376 0.152925,0.3164 0.322266,0.3164 0.166602,0 0.301053,-0.13346 0.320312,-0.3164 l 0.677735,-6.61914 -0.677735,-6.869144 c -0.01999,-0.183746 -0.15369,-0.316407 -0.320312,-0.316407 z m 5.089843,0.212891 c -0.231241,0 -0.415247,0.184404 -0.429687,0.427734 l -0.533203,6.546876 0.533203,6.88477 c 0.01601,0.24264 0.198525,0.42578 0.429687,0.42578 0.227845,0 0.412468,-0.18389 0.429688,-0.42578 L 75.728516,104.58191 75.125,98.031128 C 75.10899,97.789166 74.923836,97.6073 74.695312,97.6073 Z m -7.605468,0.921875 c -0.135601,0 -0.247024,0.109239 -0.265625,0.259765 0,8.1e-4 -0.628907,5.79102 -0.628907,5.79102 l 0.628907,5.66015 c 0.01801,0.15191 0.129264,0.26172 0.265625,0.26172 0.134202,0 0.243625,-0.10651 0.265625,-0.25976 l 0.716797,-5.66211 -0.714844,-5.79102 c -0.022,-0.153925 -0.132617,-0.259765 -0.267578,-0.259765 z m -2.365235,2.216795 c -0.133602,0 -0.238638,0.10348 -0.255859,0.25195 L 64,104.57996 l 0.46875,3.51953 c 0.018,0.14833 0.122298,0.25195 0.255859,0.25195 0.129402,0 0.23522,-0.10433 0.25586,-0.25195 l 0.554687,-3.51953 -0.554687,-3.58204 c -0.02,-0.14771 -0.127139,-0.25195 -0.25586,-0.25195 z"
     id="path879"
     inkscape:connector-curvature="0" />
  <path
     style="fill:#ffffff;stroke-width:2.00082207"
     inkscape:connector-curvature="0"
     id="path10"
     d="m 64.724789,98.746073 c -0.133602,0 -0.239542,0.103882 -0.256763,0.252361 L 64,102.57954 l 0.468026,3.51944 c 0.018,0.14833 0.123202,0.25169 0.256763,0.25169 0.129402,0 0.234683,-0.10269 0.255323,-0.25031 l 0.554787,-3.52084 -0.554787,-3.581702 c -0.02,-0.147718 -0.126602,-0.251704 -0.255323,-0.251704 z m 2.632031,-1.956541 c -0.022,-0.153925 -0.131401,-0.260016 -0.266362,-0.260016 -0.135601,0 -0.247763,0.10949 -0.266364,0.260016 0,8.09e-4 -0.629087,5.789878 -0.629087,5.789878 l 0.629087,5.66179 c 0.01801,0.15191 0.130003,0.26133 0.266364,0.26133 0.134202,0 0.243683,-0.10668 0.265683,-0.25993 l 0.715829,-5.66319 z m 9.914123,-5.340722 c -0.258124,0 -0.471487,0.212853 -0.483887,0.483228 l -0.501065,10.652222 0.501065,6.88397 c 0.014,0.26904 0.225763,0.48117 0.483887,0.48117 0.256722,0 0.469405,-0.21277 0.484565,-0.48251 v 0.006 l 0.566448,-6.88517 -0.566448,-10.652211 c -0.016,-0.270407 -0.227843,-0.483236 -0.484565,-0.483236 z m -5.131264,3.702397 c -0.198202,0 -0.359985,0.159525 -0.375823,0.372322 l -0.564408,7.058111 0.564408,6.82872 c 0.016,0.2115 0.1776,0.37094 0.375823,0.37094 0.196203,0 0.357905,-0.15952 0.375105,-0.37094 l 0.641488,-6.82872 -0.641488,-7.059519 c -0.01801,-0.21147 -0.179002,-0.370937 -0.375105,-0.370937 z m 10.345722,14.797773 c 0.320049,0 0.58023,-0.25997 0.593313,-0.59276 l 0.491422,-6.76828 -0.490726,-14.182074 c -0.01399,-0.332791 -0.27328,-0.59278 -0.593321,-0.59278 -0.322807,0 -0.583674,0.260671 -0.593991,0.593499 0,8.91e-4 -0.435687,14.180675 -0.435687,14.180675 l 0.435687,6.77108 c 0.01,0.33007 0.271184,0.59077 0.593303,0.59077 z m 10.675336,0.0314 c 0.440499,0 0.803928,-0.36541 0.812188,-0.81468 v 0.006 -0.006 l 0.342762,-6.57411 -0.342762,-16.379258 c -0.0061,-0.448563 -0.371689,-0.814619 -0.812188,-0.814619 -0.441186,0 -0.80529,0.365375 -0.812169,0.81534 L 92.04227,102.58589 c 0,0.01 0.306298,6.58393 0.306298,6.58393 0.0061,0.4451 0.371659,0.81051 0.812169,0.81051 z m -5.378265,-0.0254 c 0.383386,0 0.692431,-0.30993 0.702748,-0.70517 v 0.006 L 88.902324,102.5899 88.48454,88.305337 c -0.01,-0.3952 -0.319369,-0.70443 -0.702746,-0.70443 -0.386127,0 -0.695196,0.30923 -0.703435,0.70443 l -0.370998,14.285363 0.371676,6.66439 c 0.0081,0.39097 0.317324,0.70093 0.703435,0.70093 z m -13.087162,-0.0623 c 0.227844,0 0.412286,-0.18374 0.429506,-0.42563 l 0.604307,-6.88537 -0.604307,-6.549906 c -0.01601,-0.241962 -0.200983,-0.424307 -0.429506,-0.424307 -0.231242,0 -0.415725,0.183753 -0.430165,0.427083 l -0.532047,6.5471 0.532047,6.88477 c 0.01601,0.24264 0.199003,0.42633 0.430165,0.42633 z m -5.090662,-0.37711 c 0.166602,0 0.301485,-0.13251 0.320744,-0.31545 l 0.678669,-6.61995 -0.677988,-6.869558 c -0.01999,-0.183745 -0.154803,-0.316153 -0.321425,-0.316153 -0.168602,0 -0.303543,0.133104 -0.320743,0.316153 0,8.1e-4 -0.597427,6.869558 -0.597427,6.869558 l 0.597427,6.61863 c 0.01601,0.18376 0.151402,0.31685 0.320743,0.31685 z M 90.460901,88.066248 c -0.416423,0 -0.750247,0.33351 -0.758508,0.760596 l -0.338646,13.763336 0.338646,6.62275 c 0.0081,0.42158 0.341409,0.75502 0.758508,0.75502 0.415747,0 0.747473,-0.33279 0.757137,-0.75985 v 0.006 l 0.379919,-6.62276 -0.379919,-13.764739 c -0.01008,-0.425704 -0.34139,-0.759175 -0.757137,-0.759175 z M 79.868174,109.96196 c 0.287707,0 0.525165,-0.2364 0.538944,-0.53801 l 0.528609,-6.83833 -0.528609,-13.088594 c -0.01399,-0.302304 -0.251237,-0.538015 -0.538944,-0.538015 -0.290461,0 -0.527227,0.236411 -0.539626,0.538015 0,8.91e-4 -0.468026,13.088594 -0.468026,13.088594 l 0.468745,6.84114 c 0.012,0.29882 0.248446,0.53522 0.538907,0.53522 z m 5.902869,-0.64541 v -0.006 L 86.22531,102.5852 85.771043,87.925538 c -0.01196,-0.363995 -0.295961,-0.649645 -0.647682,-0.649645 -0.353784,0 -0.638731,0.28499 -0.648371,0.649645 l -0.403349,14.659062 0.404046,6.72884 c 0.01,0.36056 0.294569,0.64548 0.647674,0.64548 0.352424,0 0.635982,-0.28492 0.647682,-0.64762 v 0.006 z M 120.12947,94.137458 c -1.07856,0 -2.10764,0.219805 -3.04504,0.615659 -0.62633,-7.14678 -6.57588,-12.753118 -13.83337,-12.753118 -1.7758,0 -3.506845,0.352186 -5.035662,0.947767 -0.593967,0.231568 -0.752295,0.470101 -0.757813,0.932556 v 25.168368 c 0.0061,0.48531 0.37996,0.88949 0.850054,0.93728 0.01997,0.006 21.680261,0.014 21.820261,0.014 4.34727,0 7.8721,-3.55047 7.8721,-7.93042 0,-4.379742 -3.52405,-7.931015 -7.8713,-7.931015 z M 95.849164,83.858747 c -0.472867,0 -0.861068,0.391036 -0.867947,0.871504 l -0.355157,17.863659 0.355843,6.48324 c 0.0061,0.47355 0.394394,0.8639 0.867261,0.8639 0.471465,0 0.859677,-0.39038 0.866556,-0.87084 v 0.006 l 0.386123,-6.48405 -0.386123,-17.865055 c -0.0061,-0.479067 -0.395091,-0.870103 -0.866556,-0.870103 z" />
  <path
     inkscape:connector-curvature="0"
     style="opacity:1;fill:#ffc499;fill-opacity:1;stroke:none;stroke-width:14.50021553;stroke-linecap:round;stroke-linejoin:round;stroke-miterlimit:4;stroke-dasharray:none;stroke-opacity:1"
     d="M 150.5596,64.5 A 63,63 0 0 0 64.5,41.4404 l 3,5.196152 A 57,57 0 0 1 145.36345,67.5 57,57 0 0 1 124.5,145.36345 l 3,5.19615 A 63,63 0 0 0 150.5596,64.5 Z"
     id="path833" />
  <path
     inkscape:connector-curvature="0"
     style="opacity:1;fill:#ffc499;fill-opacity:1;stroke:none;stroke-width:16.35638809;stroke-linecap:round;stroke-linejoin:round;stroke-miterlimit:4;stroke-dasharray:none;stroke-opacity:1"
     d="M 140.1673,70.5 A 51,51 0 0 0 70.5,51.832704 51,51 0 0 0 51.832704,121.5 51,51 0 0 0 121.5,140.1673 51,51 0 0 0 140.1673,70.5 Z m -5.19616,3 A 45,45 0 0 1 118.5,134.97114 45,45 0 0 1 57.028857,118.5 45,45 0 0 1 73.5,57.028857 45,45 0 0 1 134.97114,73.5 Z"
     id="path848" />
  <path
     inkscape:connector-curvature="0"
     style="opacity:1;fill:#ffffff;fill-opacity:1;stroke:none;stroke-width:14.50021553;stroke-linecap:round;stroke-linejoin:round;stroke-miterlimit:4;stroke-dasharray:none;stroke-opacity:1"
     d="M 64.5,41.4404 A 63,63 0 0 0 41.4404,127.5 63,63 0 0 0 127.5,150.5596 l -3,-5.19615 A 57,57 0 0 1 46.636552,124.5 57,57 0 0 1 67.5,46.636552 Z"
     id="path853" />
  <path
     inkscape:connector-curvature="0"
     style="opacity:1;fill:#ffffff;fill-opacity:1;stroke:none;stroke-width:16.35638809;stroke-linecap:round;stroke-linejoin:round;stroke-miterlimit:4;stroke-dasharray:none;stroke-opacity:1"
     d="M 140.1673,70.5 A 51,51 0 0 0 70.5,51.832704 l 3,5.196153 A 45,45 0 0 1 134.97114,73.5 45,45 0 0 1 118.5,134.97114 l 3,5.19616 A 51,51 0 0 0 140.1673,70.5 Z"
     id="path863" />
  <path
     inkscape:connector-curvature="0"
     style="opacity:0.2;fill:#ffffff;fill-opacity:1;stroke:none;stroke-width:17.17688942;stroke-linecap:round;stroke-linejoin:round;stroke-miterlimit:4;stroke-dasharray:none;stroke-opacity:1"
     d="M 96,16 A 80,80 0 0 0 16,96 80,80 0 0 0 16.021484,96.585938 80,80 0 0 1 96,17 80,80 0 0 1 175.97852,96.414062 80,80 0 0 0 176,96 80,80 0 0 0 96,16 Z"
     id="circle932" />
</svg>
