<?xml version="1.0" encoding="UTF-8" standalone="no"?>
<svg
   xmlns:dc="http://purl.org/dc/elements/1.1/"
   xmlns:cc="http://creativecommons.org/ns#"
   xmlns:rdf="http://www.w3.org/1999/02/22-rdf-syntax-ns#"
   xmlns:svg="http://www.w3.org/2000/svg"
   xmlns="http://www.w3.org/2000/svg"
   xmlns:sodipodi="http://sodipodi.sourceforge.net/DTD/sodipodi-0.dtd"
   xmlns:inkscape="http://www.inkscape.org/namespaces/inkscape"
   width="192"
   height="192"
   version="1"
   id="svg22"
   sodipodi:docname="apps_secret_codes.svg"
   inkscape:version="0.92.3 (2405546, 2018-03-11)">
  <metadata
     id="metadata28">
    <rdf:RDF>
      <cc:Work
         rdf:about="">
        <dc:format>image/svg+xml</dc:format>
        <dc:type
           rdf:resource="http://purl.org/dc/dcmitype/StillImage" />
      </cc:Work>
    </rdf:RDF>
  </metadata>
  <defs
     id="defs26">
    <filter
       inkscape:collect="always"
       style="color-interpolation-filters:sRGB"
       id="filter860"
       x="-0.047999793"
       width="1.0959996"
       y="-0.048000207"
       height="1.0960004">
      <feGaussianBlur
         inkscape:collect="always"
         stdDeviation="2.5589222"
         id="feGaussianBlur862" />
    </filter>
    <filter
       inkscape:collect="always"
       style="color-interpolation-filters:sRGB"
       id="filter880"
       x="-0.048000139"
       width="1.0960003"
       y="-0.047999861"
       height="1.0959997">
      <feGaussianBlur
         inkscape:collect="always"
         stdDeviation="2.2400064"
         id="feGaussianBlur882" />
    </filter>
    <filter
       inkscape:collect="always"
       style="color-interpolation-filters:sRGB"
       id="filter900"
       x="-0.048002223"
       width="1.0960044"
       y="-0.047997777"
       height="1.0959956">
      <feGaussianBlur
         inkscape:collect="always"
         stdDeviation="1.6878906"
         id="feGaussianBlur902" />
    </filter>
  </defs>
  <sodipodi:namedview
     pagecolor="#ffffff"
     bordercolor="#666666"
     borderopacity="1"
     objecttolerance="10"
     gridtolerance="10"
     guidetolerance="10"
     inkscape:pageopacity="0"
     inkscape:pageshadow="2"
     inkscape:window-width="1920"
     inkscape:window-height="1018"
     id="namedview24"
     showgrid="false"
     inkscape:zoom="1"
     inkscape:cx="166.48373"
     inkscape:cy="75.24405"
     inkscape:window-x="0"
     inkscape:window-y="32"
     inkscape:window-maximized="1"
     inkscape:current-layer="svg22">
    <inkscape:grid
       type="xygrid"
       id="grid844" />
  </sodipodi:namedview>
  <path
     style="color:#000000;font-style:normal;font-variant:normal;font-weight:normal;font-stretch:normal;font-size:medium;line-height:normal;font-family:sans-serif;font-variant-ligatures:normal;font-variant-position:normal;font-variant-caps:normal;font-variant-numeric:normal;font-variant-alternates:normal;font-feature-settings:normal;text-indent:0;text-align:start;text-decoration:none;text-decoration-line:none;text-decoration-style:solid;text-decoration-color:#000000;letter-spacing:normal;word-spacing:normal;text-transform:none;writing-mode:lr-tb;direction:ltr;text-orientation:mixed;dominant-baseline:auto;baseline-shift:baseline;text-anchor:start;white-space:normal;shape-padding:0;clip-rule:nonzero;display:inline;overflow:visible;visibility:visible;opacity:0.2;isolation:auto;mix-blend-mode:normal;color-interpolation:sRGB;color-interpolation-filters:linearRGB;solid-color:#000000;solid-opacity:1;vector-effect:none;fill:#000000;fill-opacity:1;fill-rule:nonzero;stroke:none;stroke-width:24;stroke-linecap:round;stroke-linejoin:round;stroke-miterlimit:4;stroke-dasharray:none;stroke-dashoffset:0;stroke-opacity:1;color-rendering:auto;image-rendering:auto;shape-rendering:auto;text-rendering:auto;enable-background:accumulate;filter:url(#filter860)"
     d="M 60.195312,52.080078 A 12.0012,12.0012 0 0 0 51.835938,72.685547 L 155.51562,176.36328 a 12.0012,12.0012 0 1 0 16.96876,-16.9707 L 68.806641,55.714844 a 12.0012,12.0012 0 0 0 -8.611329,-3.634766 z"
     id="path2"
     inkscape:connector-curvature="0" />
  <path
     inkscape:connector-curvature="0"
     id="path4"
     d="M 164,163.88 60.321608,60.201605"
     style="fill:none;stroke:#2975df;stroke-width:24;stroke-linecap:round;stroke-linejoin:round" />
  <path
     style="opacity:0.1;fill:#ffffff;stroke-width:4"
     d="M 60.195312 48.083984 A 12.0012 12.0012 0 0 0 48.238281 60.716797 A 12.0012 12.0012 0 0 1 60.195312 49.083984 A 12.0012 12.0012 0 0 1 68.804688 52.716797 L 172.48438 156.39648 A 12.0012 12.0012 0 0 1 176.14648 164.52344 A 12.0012 12.0012 0 0 0 172.48438 155.39648 L 68.804688 51.716797 A 12.0012 12.0012 0 0 0 60.195312 48.083984 z "
     id="path6" />
  <path
     inkscape:connector-curvature="0"
     id="path8"
     d="m 56.627204,20.497804 a 10.708114,10.708114 0 0 0 -7.3515,8.573041 L 46.0319,50.038344 25.063643,53.282508 A 10.708114,10.708114 0 0 0 19.99481,72.205976 L 36.532128,85.498868 28.856834,105.2795 a 10.708114,10.708114 0 0 0 13.853278,13.86053 l 19.781124,-7.67461 13.292968,16.53647 a 10.708114,10.708114 0 0 0 18.92704,-5.07147 l 3.243804,-20.9675 20.968262,-3.24416 a 10.708114,10.708114 0 0 0 5.07376,-18.932004 l -16.53732,-13.292892 7.6753,-19.780632 A 10.708114,10.708114 0 0 0 101.27684,32.861234 L 81.495712,40.535838 68.20276,23.999372 A 10.708114,10.708114 0 0 0 56.627204,20.497804 Z"
     style="opacity:0.2;stroke-width:4;filter:url(#filter880)" />
  <path
     inkscape:connector-curvature="0"
     id="path10"
     d="m 56.627204,16.497808 a 10.708114,10.708114 0 0 0 -7.3515,8.573042 L 46.0319,46.038344 25.063643,49.282508 A 10.708114,10.708114 0 0 0 19.99481,68.205976 L 36.532128,81.498868 28.856834,101.2795 a 10.708114,10.708114 0 0 0 13.853278,13.86053 l 19.781124,-7.67461 13.292968,16.53647 a 10.708114,10.708114 0 0 0 18.92704,-5.07147 L 97.955048,97.962924 118.92331,94.71876 a 10.708114,10.708114 0 0 0 5.07376,-18.932004 l -16.53732,-13.292892 7.6753,-19.780632 A 10.708114,10.708114 0 0 0 101.27684,28.861238 L 81.495712,36.535843 68.20276,19.999377 A 10.708114,10.708114 0 0 0 56.627204,16.497808 Z"
     style="fill:#ff8208;stroke-width:4" />
  <path
     inkscape:connector-curvature="0"
     id="path12"
     d="M 60.6875,31.79687 57.890624,49.875 A 12.0012,12.0012 0 0 1 47.867188,59.898436 l -18.0625,2.796876 14.242188,11.453124 a 12.0012,12.0012 0 0 1 3.671876,13.6875 l -6.617188,17.054684 17.046872,-6.609372 a 12.0012,12.0012 0 0 1 13.695316,3.664062 l 11.453124,14.25 L 86.093752,98.125 A 12.0012,12.0012 0 0 1 96.117188,88.101564 L 114.19531,85.304688 99.945312,73.843752 A 12.0012,12.0012 0 0 1 96.273436,60.156248 L 102.88281,43.109376 85.835936,49.726564 A 12.0012,12.0012 0 0 1 72.140624,46.054688 Z"
     style="opacity:0.2;stroke-width:4;filter:url(#filter900)" />
  <path
     inkscape:connector-curvature="0"
     id="path14"
     d="M 60.6875,29.796875 57.890624,47.875 A 12.0012,12.0012 0 0 1 47.867188,57.898436 l -18.0625,2.796876 14.242188,11.453124 a 12.0012,12.0012 0 0 1 3.671876,13.6875 l -6.617188,17.054684 17.046872,-6.609372 a 12.0012,12.0012 0 0 1 13.695316,3.664064 L 83.296876,114.19531 86.093752,96.125 A 12.0012,12.0012 0 0 1 96.117188,86.101564 L 114.19531,83.304688 99.945312,71.843752 A 12.0012,12.0012 0 0 1 96.273436,58.156248 L 102.88281,41.109376 85.835936,47.726564 A 12.0012,12.0012 0 0 1 72.140624,44.054688 Z"
     style="fill:#ffc64d;stroke-width:4" />
  <path
     style="opacity:0.2;fill:#ffffff;stroke-width:4"
     d="M 59.789062 16 A 10.708114 10.708114 0 0 0 56.625 16.5 A 10.708114 10.708114 0 0 0 49.273438 25.070312 L 46.03125 46.039062 L 25.0625 49.28125 A 10.708114 10.708114 0 0 0 16.03125 60.345703 A 10.708114 10.708114 0 0 1 25.0625 50.28125 L 46.03125 47.039062 L 49.273438 26.070312 A 10.708114 10.708114 0 0 1 56.625 17.5 A 10.708114 10.708114 0 0 1 59.789062 17 A 10.708114 10.708114 0 0 1 68.203125 21 L 81.492188 37.539062 L 101.27344 29.859375 A 10.708114 10.708114 0 0 1 115.82031 39.34375 A 10.708114 10.708114 0 0 0 101.27344 28.859375 L 81.492188 36.539062 L 68.203125 20 A 10.708114 10.708114 0 0 0 59.789062 16 z M 108.05469 62.96875 L 107.46094 64.492188 L 107.75781 64.730469 L 108.05469 63.96875 L 124 76.789062 A 10.708114 10.708114 0 0 1 127.9668 84.621094 A 10.708114 10.708114 0 0 0 124 75.789062 L 108.05469 62.96875 z M 35.9375 83.023438 L 28.859375 101.28125 A 10.708114 10.708114 0 0 0 28.158203 105.69922 A 10.708114 10.708114 0 0 1 28.859375 102.28125 L 35.9375 84.023438 L 36.236328 84.261719 L 36.53125 83.5 L 35.9375 83.023438 z "
     id="path16" />
  <path
     style="opacity:0.2;fill:#ffffff;stroke-width:4"
     d="M 60.6875 29.796875 L 57.890625 47.875 A 12.0012 12.0012 0 0 1 47.867188 57.898438 L 29.804688 60.695312 L 30.845703 61.533203 L 47.867188 58.898438 A 12.0012 12.0012 0 0 0 57.890625 48.875 L 60.6875 30.796875 L 72.140625 45.054688 A 12.0012 12.0012 0 0 0 85.835938 48.726562 L 102.42578 42.287109 L 102.88281 41.109375 L 85.835938 47.726562 A 12.0012 12.0012 0 0 1 72.140625 44.054688 L 60.6875 29.796875 z M 95.515625 63.539062 A 12.0012 12.0012 0 0 0 95.5 65.044922 A 12.0012 12.0012 0 0 1 95.515625 64.539062 A 12.0012 12.0012 0 0 0 99.945312 72.84375 L 113.15039 83.464844 L 114.19531 83.304688 L 99.945312 71.84375 A 12.0012 12.0012 0 0 1 95.515625 63.539062 z M 48.476562 82.453125 A 12.0012 12.0012 0 0 1 47.71875 85.835938 L 41.101562 102.89062 L 41.558594 102.71484 L 47.71875 86.835938 A 12.0012 12.0012 0 0 0 48.476562 83.453125 A 12.0012 12.0012 0 0 1 48.503906 83.90625 A 12.0012 12.0012 0 0 0 48.476562 82.453125 z "
     id="path18" />
</svg>
