<?xml version="1.0" encoding="UTF-8" standalone="no"?>
<svg
   xmlns:dc="http://purl.org/dc/elements/1.1/"
   xmlns:cc="http://creativecommons.org/ns#"
   xmlns:rdf="http://www.w3.org/1999/02/22-rdf-syntax-ns#"
   xmlns:svg="http://www.w3.org/2000/svg"
   xmlns="http://www.w3.org/2000/svg"
   xmlns:sodipodi="http://sodipodi.sourceforge.net/DTD/sodipodi-0.dtd"
   xmlns:inkscape="http://www.inkscape.org/namespaces/inkscape"
   width="192"
   height="192"
   version="1.1"
   id="svg28"
   sodipodi:docname="apps_gimp.svg"
   inkscape:version="0.92.3 (2405546, 2018-03-11)">
  <metadata
     id="metadata34">
    <rdf:RDF>
      <cc:Work
         rdf:about="">
        <dc:format>image/svg+xml</dc:format>
        <dc:type
           rdf:resource="http://purl.org/dc/dcmitype/StillImage" />
        <dc:title></dc:title>
      </cc:Work>
    </rdf:RDF>
  </metadata>
  <defs
     id="defs32">
    <filter
       inkscape:collect="always"
       style="color-interpolation-filters:sRGB"
       id="filter889"
       x="-0.044994574"
       width="1.0899891"
       y="-0.051435661"
       height="1.1028713">
      <feGaussianBlur
         inkscape:collect="always"
         stdDeviation="2.9837633"
         id="feGaussianBlur891" />
    </filter>
    <filter
       inkscape:collect="always"
       style="color-interpolation-filters:sRGB"
       id="filter919"
       x="-0.049920002"
       width="1.09984"
       y="-0.046222221"
       height="1.0924444">
      <feGaussianBlur
         inkscape:collect="always"
         stdDeviation="1.04"
         id="feGaussianBlur921" />
    </filter>
    <filter
       inkscape:collect="always"
       style="color-interpolation-filters:sRGB"
       id="filter951"
       x="-0.048000002"
       width="1.096"
       y="-0.047999998"
       height="1.096">
      <feGaussianBlur
         inkscape:collect="always"
         stdDeviation="0.92000004"
         id="feGaussianBlur953" />
    </filter>
    <filter
       inkscape:collect="always"
       style="color-interpolation-filters:sRGB"
       id="filter991"
       x="-0.048000003"
       width="1.096"
       y="-0.047999997"
       height="1.096">
      <feGaussianBlur
         inkscape:collect="always"
         stdDeviation="0.92000003"
         id="feGaussianBlur993" />
    </filter>
  </defs>
  <sodipodi:namedview
     pagecolor="#ffffff"
     bordercolor="#666666"
     borderopacity="1"
     objecttolerance="10"
     gridtolerance="10"
     guidetolerance="10"
     inkscape:pageopacity="0"
     inkscape:pageshadow="2"
     inkscape:window-width="1920"
     inkscape:window-height="1018"
     id="namedview30"
     showgrid="true"
     inkscape:zoom="2.82"
     inkscape:cx="161.52099"
     inkscape:cy="100.15615"
     inkscape:window-x="0"
     inkscape:window-y="32"
     inkscape:window-maximized="1"
     inkscape:current-layer="svg28">
    <inkscape:grid
       type="xygrid"
       id="grid857" />
  </sodipodi:namedview>
  <path
     sodipodi:nodetypes="ccccccsccccccccsccccccc"
     id="path859"
     d="m 176.28953,28.81553 c -1.4238,-0.226316 -2.70294,0.577105 -3.47192,1.491873 -0.76897,0.915221 -1.30253,2.049063 -1.76719,3.478021 -0.80358,2.472727 -3.75472,11.651193 -14.39639,20.72283 -10.64166,9.0721 -28.99282,22.578139 -60.798617,23.396498 C 76.515371,78.131055 62.445187,68.182988 54.733222,52.922516 52.808583,49.114072 50.004675,42.01681 50.004675,46.532716 v 6.982295 l -0.0982,36.136749 0.196366,0.475715 c 0,0 1.732597,3.848725 -0.09816,9.034075 -1.830784,5.1858 -9.05089,12.75328 -25.185425,17.59599 l -1.972479,0.58616 0.374857,2.07712 c 0.894937,5.03191 4.462206,10.18919 9.728494,15.46914 5.266287,5.2795 12.317378,10.621 20.528016,15.45013 16.421272,9.65825 38.186032,17.29052 58.621176,17.6472 20.43514,0.35759 40.42906,-6.78857 53.65845,-26.58079 13.22939,-19.79177 19.6813,-57.564545 14.39638,-106.760623 h -0.009 c -0.168,-1.350653 -0.4659,-2.503957 -0.99953,-3.514684 -0.53363,-1.010274 -1.43228,-2.05359 -2.85607,-2.279 z"
     style="opacity:0.2;fill:#000000;fill-rule:evenodd;stroke-width:4.09523821;filter:url(#filter889)"
     inkscape:connector-curvature="0" />
  <path
     inkscape:connector-curvature="0"
     style="fill:#6c5a42;fill-rule:evenodd;stroke-width:4.10664845"
     d="m 176.28953,24.038841 c -1.4238,-0.227579 -2.70294,0.580325 -3.47192,1.500198 -0.76897,0.920328 -1.30253,2.060497 -1.76719,3.497429 -0.80358,2.486526 -3.75472,11.71621 -14.39639,20.83847 C 146.01237,58.997663 127.66121,73.878916 95.855413,74.701841 76.515371,74.929407 62.445187,64.925827 54.733222,49.580197 52.808583,45.750501 50.004675,38.613634 50.004675,43.15474 v 7.021258 l -0.0982,36.338403 0.196366,0.47837 c 0,0 1.732597,3.870202 -0.09816,9.084488 -1.830784,5.214741 -9.05089,11.524601 -25.185425,16.394331 l -1.972479,0.58943 0.374857,2.08871 c 0.894937,5.05999 4.462206,10.24605 9.728494,15.55547 5.266287,5.30896 12.317378,10.68026 20.528016,15.53634 16.421272,9.71215 38.186032,17.38701 58.621176,17.74568 20.43514,0.35958 40.42906,-6.82645 53.65845,-26.72912 13.22939,-19.90221 19.6813,-57.88577 14.39638,-107.356377 h -0.009 c -0.168,-1.35819 -0.4659,-2.51793 -0.99953,-3.534297 -0.53363,-1.015912 -1.43228,-2.06505 -2.85607,-2.291718 z"
     id="path4"
     sodipodi:nodetypes="ccccccsccccccccsccccccc" />
  <path
     style="fill:#ffffff;fill-rule:evenodd;stroke-width:4.10664845;opacity:0.1"
     d="M 175.76367 24 C 174.55449 24.014754 173.49122 24.734174 172.81836 25.539062 C 172.04939 26.459391 171.51544 27.600177 171.05078 29.037109 C 170.2472 31.523635 167.29597 40.75274 156.6543 49.875 C 146.01264 58.997725 127.66127 73.878247 95.855469 74.701172 C 76.515427 74.928738 62.444387 64.925708 54.732422 49.580078 C 52.807783 45.750382 50.003906 38.613191 50.003906 43.154297 L 50.003906 44.154297 C 50.003906 39.613191 52.807783 46.750382 54.732422 50.580078 C 62.444387 65.925708 76.515427 75.928738 95.855469 75.701172 C 127.66127 74.878247 146.01264 59.997725 156.6543 50.875 C 167.29597 41.75274 170.2472 32.523635 171.05078 30.037109 C 171.51544 28.600177 172.04939 27.459391 172.81836 26.539062 C 173.58734 25.61919 174.86526 24.811484 176.28906 25.039062 L 176.28906 25.076172 C 177.71285 25.30284 178.61285 26.351275 179.14648 27.367188 C 179.68011 28.383555 179.97653 29.544154 180.14453 30.902344 L 180.1543 30.902344 C 181.31037 41.724039 181.9055 51.995114 181.99023 61.648438 C 181.93924 51.703438 181.35066 41.101137 180.1543 29.902344 L 180.14453 29.902344 C 179.97653 28.544154 179.68011 27.383555 179.14648 26.367188 C 178.61285 25.351275 177.71285 24.30284 176.28906 24.076172 L 176.28906 24.039062 C 176.11109 24.010615 175.93641 23.997892 175.76367 24 z M 50.003906 50.175781 L 49.90625 86.513672 L 49.908203 86.519531 L 50.003906 51.175781 L 50.003906 50.175781 z M 50.818359 91.623047 C 50.786064 92.926887 50.585264 94.422325 50.003906 96.078125 C 48.173122 101.29287 40.952894 107.60097 24.818359 112.4707 L 22.847656 113.06055 L 23.017578 114.00977 L 24.818359 113.4707 C 40.952894 108.60097 48.173122 102.29287 50.003906 97.078125 C 50.7401 94.981329 50.890216 93.120891 50.818359 91.623047 z "
     id="path999" />
  <path
     id="path893"
     d="m 69.852881,71.999996 c -5.689962,0 -11.408515,1.88094 -15.762177,5.75092 -4.353665,3.869975 -7.233562,9.767635 -7.233562,17.25322 0,7.485584 2.879897,13.374964 7.233562,17.244934 C 58.444366,116.11906 64.162919,118 69.852881,118 c 5.689965,0 11.408518,-1.88094 15.762183,-5.75093 4.353666,-3.86997 7.242077,-9.75935 7.242077,-17.244934 0,-7.485585 -2.888411,-13.383245 -7.242077,-17.25322 -4.353665,-3.86998 -10.072218,-5.75092 -15.762183,-5.75092 z"
     style="opacity:0.2;fill:#000000;fill-rule:evenodd;stroke-width:4.18181801;filter:url(#filter991)"
     inkscape:connector-curvature="0" />
  <path
     id="path897"
     d="m 106.99574,69.999996 c -5.68996,0 -11.408516,1.88094 -15.762178,5.75092 C 86.879897,79.620891 84,85.518551 84,93.004136 84,100.48971 86.879897,106.3791 91.233562,110.24907 95.587224,114.11906 101.30578,116 106.99574,116 c 5.68996,0 11.40851,-1.88094 15.76218,-5.75093 C 127.11158,106.3791 130,100.48971 130,93.004136 c 0,-7.485585 -2.88842,-13.383245 -7.24208,-17.25322 -4.35367,-3.86998 -10.07222,-5.75092 -15.76218,-5.75092 z"
     style="opacity:0.2;fill:#000000;fill-rule:evenodd;stroke-width:4.18181801;filter:url(#filter951)"
     inkscape:connector-curvature="0" />
  <path
     inkscape:connector-curvature="0"
     style="fill:#ffffff;fill-rule:evenodd;stroke-width:4.18181801"
     d="m 69.852881,70 c -5.689962,0 -11.408515,1.88094 -15.762177,5.75092 -4.353665,3.869975 -7.233562,9.767635 -7.233562,17.25322 0,7.48558 2.879897,13.37496 7.233562,17.24493 C 58.444366,114.11906 64.162919,116 69.852881,116 c 5.689965,0 11.408518,-1.88094 15.762183,-5.75093 4.353666,-3.86997 7.242077,-9.75935 7.242077,-17.24493 0,-7.485585 -2.888411,-13.383245 -7.242077,-17.25322 C 81.261399,71.88094 75.542846,70 69.852881,70 Z"
     id="path12" />
  <path
     inkscape:connector-curvature="0"
     style="fill:#3f3f3f;fill-rule:evenodd;stroke-width:3.99999976"
     d="m 74,88.000006 c -2.450364,0 -4.927552,0.81 -6.83594,2.506399 C 65.25568,92.202806 64,94.815605 64,98.000006 c 0,3.184404 1.25568,5.797204 3.16406,7.493604 C 69.072448,107.19001 71.549636,108 74,108 c 2.450364,0 4.927552,-0.80999 6.835936,-2.50639 C 82.74432,103.79721 84,101.18441 84,98.000006 84,94.815605 82.74432,92.202806 80.835936,90.506405 78.927552,88.810006 76.450364,88.000006 74,88.000006 Z"
     id="path14" />
  <path
     inkscape:connector-curvature="0"
     style="opacity:0.3;fill-rule:evenodd;stroke-width:4.09523821"
     d="m 79.61905,135.9959 c 8.775502,0 16.77589,0.44373 24.03255,0.004 12.05485,-0.74378 22.65117,-2.24956 28.00841,-6.36715 -2.26607,-2.9133 -2.8981,-6.10904 -2.8981,-6.10904 0,0 6.81642,2.78149 10.35726,7.33093 3.53069,4.53676 -1.24277,7.33176 -2.16678,13.13626 -2.05705,-5.09797 -3.34284,-7.01002 -3.86266,-9.03586 -3.7386,5.14463 -10.17811,8.83446 -18.83931,9.03586 -9.21924,0.21283 -20.955674,-3.1804 -34.631366,-7.98691 z"
     id="path16"
     sodipodi:nodetypes="cccccccccc" />
  <path
     id="path895"
     d="m 28.641535,84 c -1.10931,0 -2.197152,0.0675 -3.254588,0.233987 -2.819824,0.441001 -5.430638,1.497603 -7.681523,3.100502 -9.0035419,6.412055 -11.3747132,20.943921 -0.253721,36.161131 11.120998,15.21765 25.834533,17.57925 34.838073,11.1672 9.003543,-6.41206 11.383469,-20.94391 0.262459,-36.161127 C 45.254089,88.515286 36.406693,84.067937 28.641533,84.000886 Z"
     style="opacity:0.2;fill:#000000;fill-rule:evenodd;stroke-width:4.16025162;filter:url(#filter919)"
     inkscape:connector-curvature="0" />
  <path
     inkscape:connector-curvature="0"
     style="fill:#3f3f3f;fill-rule:evenodd;stroke-width:4.16025162"
     d="m 28.641535,82.000004 c -1.10931,0 -2.197152,0.0675 -3.254588,0.233987 -2.819824,0.441001 -5.430638,1.497603 -7.681523,3.100502 -9.0035419,6.412055 -11.3747132,20.943917 -0.253721,36.161127 11.120998,15.21765 25.834533,17.57925 34.838073,11.1672 9.003543,-6.41206 11.383469,-20.94391 0.262459,-36.161123 C 45.254089,86.51529 36.406693,82.067941 28.641533,82.00089 Z"
     id="path20" />
  <path
     inkscape:connector-curvature="0"
     style="fill:#ffffff;fill-rule:evenodd;stroke-width:4.18181801"
     d="M 106.99574,68 C 101.30578,68 95.587224,69.88094 91.233562,73.75092 86.879897,77.620895 84,83.518555 84,91.00414 c 0,7.485579 2.879897,13.37496 7.233562,17.24493 C 95.587224,112.11906 101.30578,114 106.99574,114 c 5.68996,0 11.40851,-1.88094 15.76218,-5.75093 C 127.11158,104.3791 130,98.489719 130,91.00414 130,83.518555 127.11158,77.620895 122.75792,73.75092 118.40425,69.88094 112.6857,68 106.99574,68 Z"
     id="path22" />
  <path
     inkscape:connector-curvature="0"
     style="fill:#3f3f3f;fill-rule:evenodd;stroke-width:4.00000095"
     d="m 110.00001,86 c -2.45037,0 -4.92756,0.81 -6.83594,2.5064 C 101.25568,90.202801 100,92.815601 100,96.000003 c 0,3.184401 1.25568,5.797207 3.16407,7.493607 1.90838,1.6964 4.38557,2.50639 6.83594,2.50639 2.45036,0 4.92755,-0.80999 6.83593,-2.50639 C 118.74433,101.79721 120,99.184404 120,96.000003 120,92.815601 118.74433,90.202801 116.83594,88.5064 114.92756,86.81 112.45037,86 110.00001,86 Z"
     id="path24" />
  <path
     style="fill:#ffffff;fill-rule:evenodd;stroke-width:4.16025162;opacity:0.1"
     d="M 28.640625 82 C 27.531315 82 26.444155 82.067888 25.386719 82.234375 C 22.566895 82.675376 19.955963 83.731085 17.705078 85.333984 C 12.802137 88.825714 9.8733557 94.729024 10.011719 101.83594 C 10.154613 95.176516 13.034029 89.660567 17.705078 86.333984 C 19.955963 84.731085 22.566895 83.675376 25.386719 83.234375 C 26.444155 83.067888 27.531315 83 28.640625 83 C 36.405785 83.067051 45.254588 87.515546 52.552734 97.501953 C 57.608851 104.42039 59.867214 111.19441 59.988281 117.13086 C 60.114729 110.96122 57.895109 103.81208 52.552734 96.501953 C 45.254588 86.515546 36.405785 82.067051 28.640625 82 z "
     id="path1004" />
</svg>
