<?xml version="1.0" encoding="UTF-8" standalone="no"?>
<svg
   xmlns:dc="http://purl.org/dc/elements/1.1/"
   xmlns:cc="http://creativecommons.org/ns#"
   xmlns:rdf="http://www.w3.org/1999/02/22-rdf-syntax-ns#"
   xmlns:svg="http://www.w3.org/2000/svg"
   xmlns="http://www.w3.org/2000/svg"
   xmlns:sodipodi="http://sodipodi.sourceforge.net/DTD/sodipodi-0.dtd"
   xmlns:inkscape="http://www.inkscape.org/namespaces/inkscape"
   width="192"
   height="192"
   version="1"
   id="svg20"
   sodipodi:docname="apps_jetaudio.svg"
   inkscape:version="0.92.3 (2405546, 2018-03-11)">
  <metadata
     id="metadata26">
    <rdf:RDF>
      <cc:Work
         rdf:about="">
        <dc:format>image/svg+xml</dc:format>
        <dc:type
           rdf:resource="http://purl.org/dc/dcmitype/StillImage" />
      </cc:Work>
    </rdf:RDF>
  </metadata>
  <defs
     id="defs24">
    <filter
       inkscape:collect="always"
       style="color-interpolation-filters:sRGB"
       id="filter860"
       x="-0.048"
       width="1.096"
       y="-0.048"
       height="1.096">
      <feGaussianBlur
         inkscape:collect="always"
         stdDeviation="3.2"
         id="feGaussianBlur862" />
    </filter>
    <filter
       inkscape:collect="always"
       style="color-interpolation-filters:sRGB"
       id="filter891"
       x="-0.044525003"
       width="1.08905"
       y="-0.051944121"
       height="1.1038882">
      <feGaussianBlur
         inkscape:collect="always"
         stdDeviation="1.0410934"
         id="feGaussianBlur893" />
    </filter>
    <filter
       inkscape:collect="always"
       style="color-interpolation-filters:sRGB"
       id="filter907"
       x="-0.041"
       width="1.082"
       y="-0.057882354"
       height="1.1157647">
      <feGaussianBlur
         inkscape:collect="always"
         stdDeviation="1.64"
         id="feGaussianBlur909" />
    </filter>
  </defs>
  <sodipodi:namedview
     pagecolor="#ffffff"
     bordercolor="#666666"
     borderopacity="1"
     objecttolerance="10"
     gridtolerance="10"
     guidetolerance="10"
     inkscape:pageopacity="0"
     inkscape:pageshadow="2"
     inkscape:window-width="1920"
     inkscape:window-height="1018"
     id="namedview22"
     showgrid="false"
     inkscape:zoom="1"
     inkscape:cx="96"
     inkscape:cy="96"
     inkscape:window-x="0"
     inkscape:window-y="32"
     inkscape:window-maximized="1"
     inkscape:current-layer="svg20" />
  <rect
     style="opacity:0.2;fill:#000000;stroke-width:4;filter:url(#filter860)"
     width="160"
     height="160"
     x="-180"
     y="-176"
     rx="80"
     ry="80"
     transform="matrix(0,-1,-1,0,0,0)"
     id="rect842" />
  <rect
     id="rect2"
     transform="matrix(0,-1,-1,0,0,0)"
     ry="80"
     rx="80"
     y="-176"
     x="-176"
     height="160"
     width="160"
     style="fill:#4f4f4f;stroke-width:4" />
  <path
     style="opacity:0.1;fill:#ffffff;stroke-width:4"
     d="M 96 16 C 51.684 16 16.007812 51.68 16.007812 96 C 16.007812 96.33544 16.009812 96.667215 16.007812 97 C 16.007812 52.68 51.684 17 96 17 C 140.316 17 175.99219 52.68 175.99219 97 C 175.99019 96.667215 175.99219 96.33544 175.99219 96 C 175.99219 51.68 140.316 16 96 16 z "
     id="path4" />
  <path
     inkscape:connector-curvature="0"
     id="path8"
     d="m 111.48103,56.023172 c -6.09834,0.16392 -12.602082,1.19838 -19.214434,3.195312 -19.11516,5.772792 -33.911284,17.993948 -39.128024,30.781024 -4.653072,12.423392 5.87292,17.423042 14.993548,22.347212 9.25928,10.33257 17.593592,15.15952 38.70496,8.78387 26.4494,-7.98773 44.62962,-28.321454 40.60498,-45.417386 C 144.42358,62.891248 129.77605,55.531376 111.48103,56.023172 Z M 123.0273,82.36428 c 0.84295,1.454192 1.175,3.15854 1.0814,5.035112 -0.48276,9.677932 -13.08674,23.936478 -24.521312,32.085148 1.307582,-4.6281 4.206642,-8.21633 2.369212,-11.6455 -5.226884,-9.711616 -30.922584,-3.19527 -30.922584,-3.19527 l -4.282508,-2.43112 c -1.594196,-0.90501 -2.300656,-2.01855 -2.329524,-3.260854 -0.14128,-6.0792 17.141364,-15.241652 24.827212,-18.138068 5.507264,-2.075416 12.813494,-4.331432 19.352754,-4.458016 5.68198,-0.11 11.58476,1.387724 14.42535,6.008556 z"
     style="opacity:0.2;stroke-width:4;filter:url(#filter907)" />
  <path
     inkscape:connector-curvature="0"
     id="path10"
     d="m 111.48103,52.023176 c -6.09834,0.16392 -12.602082,1.19838 -19.214434,3.195312 -19.11516,5.772792 -33.911284,17.993948 -39.128024,30.781024 -4.653072,12.423396 5.87292,17.423038 14.993548,22.347208 9.25928,10.33257 17.593592,15.15952 38.70496,8.78388 26.4494,-7.98774 44.62962,-28.32146 40.60498,-45.417392 C 144.42358,58.891252 129.77605,51.53138 111.48103,52.023176 Z m 11.54627,26.341108 c 0.84295,1.454192 1.175,3.15854 1.0814,5.035112 -0.48276,9.677932 -13.08674,23.936474 -24.521312,32.085144 1.307582,-4.62809 4.206642,-8.21633 2.369212,-11.6455 -5.226884,-9.711612 -30.922584,-3.19526 -30.922584,-3.19526 L 66.751508,98.212652 C 65.157312,97.307648 64.450852,96.194104 64.421984,94.9518 64.280704,88.8726 81.563348,79.710148 89.249196,76.813732 94.75646,74.738316 102.06269,72.4823 108.60195,72.355716 c 5.68198,-0.11 11.58476,1.387724 14.42535,6.008556 z"
     style="fill:#f5821a;stroke-width:4;fill-opacity:1" />
  <path
     style="fill:#ffffff;stroke-width:4;opacity:0.1"
     d="M 114.86719 52.021484 C 113.75419 51.991464 112.62391 51.9927 111.48047 52.023438 C 105.38213 52.187357 98.877977 53.221818 92.265625 55.21875 C 73.150465 60.991542 58.355412 73.212924 53.138672 86 C 52.274915 88.306175 51.937401 90.355718 52.013672 92.197266 C 52.075134 90.619665 52.427822 88.897922 53.138672 87 C 58.355412 74.212924 73.150465 61.991542 92.265625 56.21875 C 98.877977 54.221818 105.38213 53.187357 111.48047 53.023438 C 129.77549 52.531642 144.42293 59.890935 147.44141 72.712891 C 147.77993 74.150897 147.94785 75.613342 147.98047 77.087891 C 148.0223 75.273616 147.85633 73.475414 147.44141 71.712891 C 144.61158 59.692307 131.5621 52.471792 114.86719 52.021484 z M 124.10156 83.488281 C 123.55378 93.042532 111.30445 106.99313 100.02148 115.16406 C 99.869033 115.59773 99.715806 116.03163 99.587891 116.48438 C 111.02246 108.33571 123.62662 94.076369 124.10938 84.398438 C 124.12489 84.087455 124.10982 83.78945 124.10156 83.488281 z M 64.460938 95.365234 C 64.431334 95.563599 64.417402 95.758693 64.421875 95.951172 C 64.450743 97.193476 65.157757 98.307887 66.751953 99.212891 L 71.033203 101.64453 C 71.033203 101.64453 96.730147 95.128235 101.95703 104.83984 C 102.28788 105.45729 102.46082 106.07998 102.52148 106.71289 C 102.59902 105.73135 102.46046 104.77938 101.95703 103.83984 C 96.730147 94.128232 71.033203 100.64453 71.033203 100.64453 L 66.751953 98.212891 C 65.336785 97.409518 64.624012 96.441463 64.460938 95.365234 z "
     id="path914" />
  <ellipse
     transform="matrix(0.84899574,-0.52839969,0.47212719,0.88153044,0,0)"
     ry="19.856001"
     rx="31.076"
     cy="142.34"
     cx="10.364"
     style="opacity:0.2;stroke-width:4;filter:url(#filter891)"
     id="ellipse14" />
  <ellipse
     transform="matrix(0.84899574,-0.52839969,0.47212719,0.88153044,0,0)"
     ry="19.856001"
     rx="31.076"
     cy="138.936"
     cx="12.256"
     style="fill:#ffc925;stroke-width:4;fill-opacity:1"
     id="ellipse16" />
  <path
     style="opacity:0.2;fill:#ffffff;stroke-width:4"
     d="M 88.398438 92.023438 A 19.784466 31.121936 55.562126 0 0 66.625 98.5 A 19.784466 31.121936 55.562126 0 0 48.066406 125.74414 A 19.784466 31.121936 55.562126 0 1 66.625 99.5 A 19.784466 31.121936 55.562126 0 1 88.398438 93.023438 A 19.784466 31.121936 55.562126 0 1 102.38281 100.57812 A 19.784466 31.121936 55.562126 0 1 103.94531 106.78906 A 19.784466 31.121936 55.562126 0 0 102.38281 99.578125 A 19.784466 31.121936 55.562126 0 0 88.398438 92.023438 z "
     id="path16" />
</svg>
