<?xml version="1.0" encoding="UTF-8" standalone="no"?>
<svg
   xmlns:dc="http://purl.org/dc/elements/1.1/"
   xmlns:cc="http://creativecommons.org/ns#"
   xmlns:rdf="http://www.w3.org/1999/02/22-rdf-syntax-ns#"
   xmlns:svg="http://www.w3.org/2000/svg"
   xmlns="http://www.w3.org/2000/svg"
   xmlns:sodipodi="http://sodipodi.sourceforge.net/DTD/sodipodi-0.dtd"
   xmlns:inkscape="http://www.inkscape.org/namespaces/inkscape"
   width="192"
   height="192"
   version="1.1"
   id="svg52"
   sodipodi:docname="apps_deflemask.svg"
   inkscape:version="0.92.3 (2405546, 2018-03-11)">
  <metadata
     id="metadata58">
    <rdf:RDF>
      <cc:Work
         rdf:about="">
        <dc:format>image/svg+xml</dc:format>
        <dc:type
           rdf:resource="http://purl.org/dc/dcmitype/StillImage" />
        <dc:title></dc:title>
      </cc:Work>
    </rdf:RDF>
  </metadata>
  <defs
     id="defs56">
    <filter
       inkscape:collect="always"
       style="color-interpolation-filters:sRGB"
       id="filter936"
       x="-0.052235024"
       width="1.10447"
       y="-0.044400195"
       height="1.0888004">
      <feGaussianBlur
         inkscape:collect="always"
         stdDeviation="2.9599713"
         id="feGaussianBlur938" />
    </filter>
    <filter
       inkscape:collect="always"
       style="color-interpolation-filters:sRGB"
       id="filter952"
       x="-0.037334027"
       width="1.0746681"
       y="-0.067197754"
       height="1.1343955">
      <feGaussianBlur
         inkscape:collect="always"
         stdDeviation="0.55997883"
         id="feGaussianBlur954" />
    </filter>
    <filter
       inkscape:collect="always"
       style="color-interpolation-filters:sRGB"
       id="filter968"
       x="-0.03085716"
       width="1.0617143"
       y="-0.10799979"
       height="1.2159996">
      <feGaussianBlur
         inkscape:collect="always"
         stdDeviation="0.35999858"
         id="feGaussianBlur970" />
    </filter>
    <filter
       inkscape:collect="always"
       style="color-interpolation-filters:sRGB"
       id="filter996"
       x="-0.048000018"
       width="1.096"
       y="-0.047999982"
       height="1.096">
      <feGaussianBlur
         inkscape:collect="always"
         stdDeviation="0.31999866"
         id="feGaussianBlur998" />
    </filter>
    <filter
       inkscape:collect="always"
       style="color-interpolation-filters:sRGB"
       id="filter1020"
       x="-0.037333334"
       width="1.0746667"
       y="-0.067199997"
       height="1.1344">
      <feGaussianBlur
         inkscape:collect="always"
         stdDeviation="0.55999746"
         id="feGaussianBlur1022" />
    </filter>
  </defs>
  <sodipodi:namedview
     pagecolor="#ffffff"
     bordercolor="#666666"
     borderopacity="1"
     objecttolerance="10"
     gridtolerance="10"
     guidetolerance="10"
     inkscape:pageopacity="0"
     inkscape:pageshadow="2"
     inkscape:window-width="1920"
     inkscape:window-height="1018"
     id="namedview54"
     showgrid="false"
     inkscape:zoom="2.82"
     inkscape:cx="24"
     inkscape:cy="66.553191"
     inkscape:window-x="0"
     inkscape:window-y="32"
     inkscape:window-maximized="1"
     inkscape:current-layer="svg52" />
  <path
     inkscape:connector-curvature="0"
     style="opacity:0.2;stroke-width:3.99998188;filter:url(#filter936)"
     d="M 93.751894,20.026459 C 83.582868,20.241938 73.36299,21.8796 64.48205,24.776438 c -9.088615,2.964578 -17.441817,7.239153 -25.418344,13.007753 -3.262692,2.359566 -5.777169,5.167993 -7.036542,7.859337 -1.117479,2.388129 -2.771584,12.753798 -3.487273,21.828029 -2.239023,28.388064 2.594187,57.257033 12.600677,75.241843 1.246486,2.24032 6.097192,9.95606 7.958736,12.6562 7.274643,10.55179 17.025043,17.972 28.456143,21.65615 4.686071,1.51028 9.085923,2.34456 15.429246,2.92967 1.459554,0.13464 6.966677,-0.0548 9.113407,-0.31252 16.3109,-1.95759 28.73216,-8.76903 38.41425,-21.07021 1.77904,-2.26029 2.89747,-3.89841 6.26934,-9.19528 4.4389,-6.97305 6.28994,-10.52651 8.64844,-16.59367 8.40953,-21.63319 10.8458,-52.035475 6.34684,-79.218392 -1.12015,-6.767969 -1.47918,-7.87808 -3.37878,-10.460888 -1.90851,-2.594913 -3.77092,-4.2082 -8.57095,-7.437467 C 136.42076,26.64763 121.3345,21.601998 103.84949,20.292063 100.52095,20.042696 97.141567,19.954612 93.751894,20.02644 Z"
     id="path2" />
  <path
     inkscape:connector-curvature="0"
     style="fill:#e4e4e4;stroke-width:3.99998188"
     d="m 93.750166,16.02418 c -10.169026,0.215479 -20.384552,1.85314 -29.265492,4.749978 -9.088615,2.964578 -17.445233,7.239153 -25.421761,13.007754 -3.262692,2.359563 -5.779657,5.167996 -7.03903,7.859338 -1.117479,2.388129 -2.76867,12.753794 -3.48436,21.828029 -2.239022,28.38806 2.595016,57.257041 12.601505,75.241841 1.246486,2.24032 6.09936,9.95606 7.960904,12.6562 7.274643,10.55179 17.021895,17.972 28.452995,21.65615 4.686071,1.51028 9.086295,2.34456 15.429618,2.92967 0.51217,0.0472 1.826724,0.0136 3.015611,-0.008 V 16.031992 c -0.750645,1.77e-4 -1.497889,-0.02376 -2.24999,-0.0078 z m 2.24999,0.0078 c 2.632464,-6.21e-4 5.261524,0.06378 7.851524,0.257811 -2.59,-0.194037 -5.21906,-0.258432 -7.851524,-0.257811 z m 0,159.91334 c 2.19913,-0.04 4.708114,-0.13744 6.101534,-0.30468 -1.39342,0.16724 -3.902404,0.26468 -6.101534,0.30468 z M 159.57018,40.87563 c 0.95381,1.719088 1.36301,3.611483 2.20311,8.68746 -0.8401,-5.075977 -1.24823,-6.968372 -2.20311,-8.68746 z m 3.5703,19.007726 c 0.69521,6.950108 0.96174,14.006388 0.8203,20.984281 0.1418,-6.977893 -0.12528,-14.034173 -0.8203,-20.984281 z M 134.78123,160.80477 c -2.02925,1.94216 -4.12716,3.75728 -6.37497,5.32029 2.24932,-1.56403 4.3445,-3.37661 6.37497,-5.32029 z"
     id="path4" />
  <path
     inkscape:connector-curvature="0"
     style="fill:#9c9c9c;stroke-width:3.99998188"
     d="M 96.000156,16.031992 V 175.94533 c 2.19913,-0.04 4.708114,-0.13744 6.101534,-0.30468 16.3109,-1.95759 28.7318,-8.76903 38.41389,-21.07021 1.77904,-2.26029 2.89373,-3.89841 6.26559,-9.19528 4.4389,-6.97305 6.2899,-10.52651 8.6484,-16.59367 8.40953,-21.63319 10.84268,-52.035475 6.34372,-79.218392 -1.12014,-6.767969 -1.47538,-7.87808 -3.37498,-10.46089 -1.90851,-2.59492 -3.77025,-4.208208 -8.57027,-7.437474 -13.40649,-9.019363 -28.49135,-14.064995 -45.97636,-15.374931 -2.59,-0.194037 -5.21906,-0.258432 -7.851524,-0.257811 z"
     id="path6" />
  <path
     inkscape:connector-curvature="0"
     style="opacity:0.1;stroke-width:3.99998188;filter:url(#filter968)"
     d="m 93.396748,157.8062 c -2.444181,-0.31832 -5.324316,-1.35314 -7.877745,-2.83045 -1.394394,-0.80674 -1.68588,-1.20046 -1.440385,-1.94558 0.140719,-0.42714 0.251759,-0.48375 0.948711,-0.48375 0.43413,0 2.476465,0.21624 4.53852,0.48046 7.688773,0.98533 10.932111,0.58698 19.567861,-2.40332 2.27742,-0.7886 2.67313,-0.81184 2.85913,-0.16788 0.1922,0.66536 -3.47979,3.91363 -6.23788,5.51807 -2.85661,1.66175 -7.912565,2.41146 -12.358212,1.83249 z"
     id="path8" />
  <rect
     style="opacity:0.1;stroke-width:3.99998188;filter:url(#filter1020)"
     width="35.999836"
     height="19.99991"
     x="108.0001"
     y="86.000328"
     rx="5.9999728"
     ry="5.9999728"
     id="rect10" />
  <path
     inkscape:connector-curvature="0"
     style="fill:#3f3f3f;stroke-width:3.99998188"
     d="m 93.396748,155.80631 c -2.444181,-0.31832 -5.324316,-1.35314 -7.877745,-2.83045 -1.394394,-0.80674 -1.68588,-1.20046 -1.440385,-1.94558 0.140719,-0.42714 0.251759,-0.48375 0.948711,-0.48375 0.43413,0 2.476465,0.21624 4.53852,0.48046 7.688773,0.98532 10.932111,0.58698 19.567861,-2.40332 2.27742,-0.7886 2.67313,-0.81184 2.85913,-0.16788 0.1922,0.66536 -3.47979,3.91362 -6.23788,5.51806 -2.85661,1.66176 -7.912565,2.41146 -12.358212,1.8325 z"
     id="path12" />
  <path
     inkscape:connector-curvature="0"
     style="opacity:0.1;stroke-width:3.99998188;filter:url(#filter996)"
     d="m 92.897326,122.02258 c -0.1478,-0.0611 -0.243759,0.007 -0.41423,0.15215 -1.259883,1.07381 -4.151874,6.26135 -4.41586,7.92068 -0.281639,1.77023 0.346558,3.99683 1.461529,5.14965 0.54425,0.56273 3.817751,2.22507 5.009857,2.54679 0.525434,0.1418 0.994176,0.20048 1.46153,0.20824 0.467358,-0.008 0.9361,-0.0664 1.461533,-0.20824 1.192107,-0.32172 4.465605,-1.98406 5.009855,-2.54679 1.11499,-1.15282 1.74317,-3.37942 1.46153,-5.14965 -0.264,-1.65933 -3.15598,-6.84687 -4.415858,-7.92068 -0.170479,-0.14519 -0.266439,-0.21327 -0.41423,-0.15215 -0.1478,0.0611 -0.348199,0.24431 -0.726861,0.61668 -0.777012,0.76402 -1.438873,1.03518 -2.375969,0.98507 -0.937092,0.0501 -1.598953,-0.22104 -2.375966,-0.98507 -0.378678,-0.37236 -0.579061,-0.55557 -0.72686,-0.61668 z"
     id="path14" />
  <path
     inkscape:connector-curvature="0"
     style="fill:#3f3f3f;stroke-width:3.99998188"
     d="m 92.897326,120.02268 c -0.1478,-0.0611 -0.243759,0.007 -0.41423,0.15216 -1.259883,1.07381 -4.151874,6.26135 -4.41586,7.92068 -0.281639,1.77023 0.346558,3.99683 1.461529,5.14965 0.54425,0.56272 3.817751,2.22506 5.009857,2.54679 0.525434,0.1418 0.994176,0.20048 1.46153,0.20824 0.467358,-0.008 0.9361,-0.0664 1.461533,-0.20824 1.192107,-0.32172 4.465605,-1.98407 5.009855,-2.54679 1.11499,-1.15282 1.74317,-3.37942 1.46153,-5.14965 -0.264,-1.65933 -3.15598,-6.84687 -4.415858,-7.92068 -0.170479,-0.1452 -0.266439,-0.21328 -0.41423,-0.15216 -0.1478,0.0611 -0.348199,0.24432 -0.726861,0.61668 -0.777012,0.76403 -1.438873,1.03519 -2.375969,0.98508 -0.937092,0.0501 -1.598953,-0.22104 -2.375966,-0.98508 -0.378678,-0.37235 -0.579061,-0.55556 -0.72686,-0.61668 z"
     id="path16" />
  <path
     inkscape:connector-curvature="0"
     style="opacity:0.1;stroke-width:3.99998188;filter:url(#filter952)"
     d="m 56.703458,86.009414 c -2.72964,0.06976 -4.882318,0.549766 -6.24216,1.612425 -0.875724,0.684345 -1.494821,1.858936 -2.062491,3.922758 -0.693673,2.521829 -0.49891,4.409272 0.734373,6.963093 1.891291,3.91646 6.160616,6.71583 11.249949,7.38827 0.144959,0.0192 0.377918,0.074 0.523434,0.10428 H 83.04709 c 0.52565,-0.15168 0.753349,-0.38548 0.89062,-0.81023 0.233359,-0.72209 -0.191479,-2.05511 -1.398429,-4.39605 -1.553793,-3.013643 -3.050827,-5.186009 -5.281228,-7.63695 -3.619872,-3.97779 -6.507755,-5.65345 -10.874951,-6.321339 -3.650088,-0.558214 -6.950001,-0.896036 -9.679644,-0.826265 z"
     id="path18" />
  <path
     inkscape:connector-curvature="0"
     style="fill:#3f3f3f;stroke-width:3.99998188"
     d="m 56.703458,84.009514 c -2.72964,0.06976 -4.882318,0.549766 -6.24216,1.612425 -0.875724,0.684345 -1.494821,1.858936 -2.062491,3.922758 -0.693673,2.521829 -0.49891,4.409272 0.734373,6.963097 1.891291,3.916456 6.160616,6.715826 11.249949,7.388266 0.144959,0.0192 0.377918,0.074 0.523434,0.10428 H 83.04709 c 0.52565,-0.15168 0.753349,-0.38548 0.89062,-0.81023 0.233359,-0.72209 -0.191479,-2.05511 -1.398429,-4.396054 -1.553793,-3.013639 -3.050827,-5.186005 -5.281228,-7.636946 -3.619872,-3.97779 -6.507755,-5.65345 -10.874951,-6.321339 -3.650088,-0.558214 -6.950001,-0.896036 -9.679644,-0.826265 z"
     id="path20" />
  <path
     inkscape:connector-curvature="0"
     style="opacity:0.3;stroke-width:3.99998188"
     d="m 112.00008,80.000453 v 27.999877 h 3.99999 V 80.000453 Z m 7.99997,0 v 27.999877 h 3.99998 V 80.000453 Z m 7.99996,0 v 27.999877 h 3.99998 V 80.000453 Z m 7.99996,0 v 27.999877 h 3.99999 V 80.000453 Z"
     id="path22" />
  <rect
     style="fill:#3f3f3f;stroke-width:3.99998188"
     width="35.999836"
     height="19.99991"
     x="108.0001"
     y="84.000435"
     rx="5.9999728"
     ry="5.9999728"
     id="rect24" />
  <path
     inkscape:connector-curvature="0"
     style="fill:#ffffff;stroke-width:3.99998188"
     d="m 120.00005,88.000416 v 11.999944 h 11.99994 V 88.000416 Z m 1.99999,1.999991 H 130 v 7.999964 h -7.99996 z"
     id="path26" />
  <rect
     style="fill:#ffffff;stroke-width:3.99998188"
     width="3.9999819"
     height="1.9999909"
     x="113.20007"
     y="88.800415"
     id="rect28" />
  <rect
     style="fill:#ffffff;stroke-width:3.99998188"
     width="2.7999873"
     height="1.9999909"
     x="116.00007"
     y="90.800407"
     id="rect30" />
  <rect
     style="fill:#ffffff;stroke-width:3.99998188"
     width="3.9999819"
     height="1.9999909"
     x="113.20007"
     y="96.800377"
     id="rect32" />
  <rect
     style="fill:#ffffff;stroke-width:3.99998188"
     width="2.7999873"
     height="1.9999909"
     x="116.00007"
     y="94.800392"
     id="rect34" />
  <rect
     style="fill:#ffffff;stroke-width:3.99998188"
     width="3.9999819"
     height="1.9999909"
     x="-138.79997"
     y="88.800415"
     transform="scale(-1,1)"
     id="rect36" />
  <rect
     style="fill:#ffffff;stroke-width:3.99998188"
     width="2.7999873"
     height="1.9999909"
     x="-135.99997"
     y="90.800407"
     transform="scale(-1,1)"
     id="rect38" />
  <rect
     style="fill:#ffffff;stroke-width:3.99998188"
     width="3.9999819"
     height="1.9999909"
     x="-138.79997"
     y="96.800377"
     transform="scale(-1,1)"
     id="rect40" />
  <rect
     style="fill:#ffffff;stroke-width:3.99998188"
     width="2.7999873"
     height="1.9999909"
     x="-135.99997"
     y="94.800392"
     transform="scale(-1,1)"
     id="rect42" />
  <rect
     style="fill:#ffffff;stroke-width:3.99998188"
     width="5.5999746"
     height="1.9999909"
     x="123.20003"
     y="91.000404"
     id="rect44" />
  <rect
     style="fill:#ffffff;stroke-width:3.99998188"
     width="5.5999746"
     height="1.9999909"
     x="123.20003"
     y="95.000381"
     id="rect46" />
  <rect
     style="fill:#ffffff;stroke-width:3.99998188"
     width="3.9999819"
     height="1.9999909"
     x="91.8004"
     y="-127.00002"
     transform="rotate(90)"
     id="rect48" />
  <path
     style="opacity:0.2;fill:#ffffff;stroke-width:3.99998188"
     d="M 96.291016 16 C 95.445149 15.997947 94.597418 16.005481 93.75 16.023438 C 83.580974 16.238916 73.365315 17.8766 64.484375 20.773438 C 55.39576 23.738015 47.039028 28.012649 39.0625 33.78125 C 35.799808 36.140813 33.28281 38.949283 32.023438 41.640625 C 30.905959 44.028754 29.254752 54.394515 28.539062 63.46875 C 28.174249 68.094157 28.067836 72.71853 28.070312 77.320312 C 28.072 77.244239 28.076368 77.167883 28.078125 77.091797 C 28.094583 72.895582 28.206678 68.682995 28.539062 64.46875 C 29.254752 55.394515 30.905959 45.028754 32.023438 42.640625 C 33.28281 39.949283 35.799808 37.140813 39.0625 34.78125 C 47.039028 29.012649 55.39576 24.738015 64.484375 21.773438 C 73.365315 18.876599 83.580974 17.238916 93.75 17.023438 C 97.139673 16.951609 100.52303 17.039696 103.85156 17.289062 C 121.33657 18.598998 136.42164 23.6447 149.82812 32.664062 C 154.62814 35.893329 156.48993 37.506651 158.39844 40.101562 C 160.29804 42.684374 160.6533 43.794531 161.77344 50.5625 C 163.24821 59.473122 163.95985 68.725451 163.97461 77.904297 C 164.01216 68.397993 163.3018 58.796891 161.77344 49.5625 C 160.6533 42.794531 160.29804 41.684374 158.39844 39.101562 C 156.48993 36.506652 154.62815 34.893328 149.82812 31.664062 C 136.42164 22.6447 121.33657 17.598999 103.85156 16.289062 C 101.35516 16.102037 98.828615 16.00616 96.291016 16 z "
     id="path50" />
</svg>
