<?xml version="1.0" encoding="UTF-8" standalone="no"?>
<svg
   xmlns:dc="http://purl.org/dc/elements/1.1/"
   xmlns:cc="http://creativecommons.org/ns#"
   xmlns:rdf="http://www.w3.org/1999/02/22-rdf-syntax-ns#"
   xmlns:svg="http://www.w3.org/2000/svg"
   xmlns="http://www.w3.org/2000/svg"
   xmlns:sodipodi="http://sodipodi.sourceforge.net/DTD/sodipodi-0.dtd"
   xmlns:inkscape="http://www.inkscape.org/namespaces/inkscape"
   width="192"
   height="192"
   version="1"
   id="svg12"
   sodipodi:docname="apps_opera_beta.svg"
   inkscape:version="0.92.3 (2405546, 2018-03-11)">
  <metadata
     id="metadata18">
    <rdf:RDF>
      <cc:Work
         rdf:about="">
        <dc:format>image/svg+xml</dc:format>
        <dc:type
           rdf:resource="http://purl.org/dc/dcmitype/StillImage" />
      </cc:Work>
    </rdf:RDF>
  </metadata>
  <defs
     id="defs16">
    <filter
       inkscape:collect="always"
       style="color-interpolation-filters:sRGB"
       id="filter853"
       x="-0.048"
       width="1.096"
       y="-0.048"
       height="1.096">
      <feGaussianBlur
         inkscape:collect="always"
         stdDeviation="3.2"
         id="feGaussianBlur855" />
    </filter>
  </defs>
  <sodipodi:namedview
     pagecolor="#ffffff"
     bordercolor="#666666"
     borderopacity="1"
     objecttolerance="10"
     gridtolerance="10"
     guidetolerance="10"
     inkscape:pageopacity="0"
     inkscape:pageshadow="2"
     inkscape:window-width="1920"
     inkscape:window-height="1018"
     id="namedview14"
     showgrid="false"
     inkscape:zoom="1"
     inkscape:cx="96"
     inkscape:cy="96"
     inkscape:window-x="0"
     inkscape:window-y="32"
     inkscape:window-maximized="1"
     inkscape:current-layer="svg12" />
  <path
     style="opacity:0.2;fill:#000000;stroke-width:4;filter:url(#filter853)"
     d="M 96 20 A 16 16 0 0 0 94.625 20.070312 A 80 80 0 0 0 16 100 A 80 80 0 0 0 94.869141 179.95898 A 80 80 0 0 0 96 180 A 80 80 0 0 0 97.132812 179.96094 A 16 16 0 0 0 97.148438 179.96094 A 80 80 0 0 0 176 100 A 80 80 0 0 0 97.130859 20.041016 A 16 16 0 0 0 96 20 z M 96 52 A 36 48 0 0 1 132 100 A 36 48 0 0 1 96 148 A 16 16 0 0 0 94.646484 148.06836 A 16 16 0 0 1 96 148 A 36 48 0 0 1 60 100 A 36 48 0 0 1 96 52 z M 93.833984 148.16602 A 16 16 0 0 0 93.056641 148.2832 A 16 16 0 0 1 93.833984 148.16602 z M 92.248047 148.46484 A 16 16 0 0 0 91.511719 148.6543 A 16 16 0 0 1 92.248047 148.46484 z M 90.722656 148.91602 A 16 16 0 0 0 89.990234 149.18359 A 16 16 0 0 1 90.722656 148.91602 z M 89.28125 149.5 A 16 16 0 0 0 88.527344 149.86328 A 16 16 0 0 1 89.28125 149.5 z M 87.849609 150.25195 A 16 16 0 0 0 87.173828 150.66797 A 16 16 0 0 1 87.849609 150.25195 z M 86.496094 151.15039 A 16 16 0 0 0 85.882812 151.61719 A 16 16 0 0 1 86.496094 151.15039 z M 85.277344 152.15039 A 16 16 0 0 0 84.693359 152.69336 A 16 16 0 0 1 85.277344 152.15039 z M 84.150391 153.27734 A 16 16 0 0 0 83.617188 153.88281 A 16 16 0 0 1 84.150391 153.27734 z M 83.150391 154.49609 A 16 16 0 0 0 82.667969 155.17383 A 16 16 0 0 1 83.150391 154.49609 z M 82.251953 155.84961 A 16 16 0 0 0 81.863281 156.52734 A 16 16 0 0 1 82.251953 155.84961 z M 81.5 157.28125 A 16 16 0 0 0 81.183594 157.99023 A 16 16 0 0 1 81.5 157.28125 z M 80.916016 158.72266 A 16 16 0 0 0 80.654297 159.51172 A 16 16 0 0 1 80.916016 158.72266 z M 80.464844 160.24805 A 16 16 0 0 0 80.283203 161.05664 A 16 16 0 0 1 80.464844 160.24805 z M 80.166016 161.83398 A 16 16 0 0 0 80.068359 162.64648 A 16 16 0 0 1 80.166016 161.83398 z M 80 164 A 16 16 0 0 0 80.068359 165.35352 A 16 16 0 0 1 80 164 z M 80.166016 166.16602 A 16 16 0 0 0 80.283203 166.94336 A 16 16 0 0 1 80.166016 166.16602 z M 80.464844 167.75195 A 16 16 0 0 0 80.654297 168.48828 A 16 16 0 0 1 80.464844 167.75195 z M 80.916016 169.27734 A 16 16 0 0 0 81.183594 170.00977 A 16 16 0 0 1 80.916016 169.27734 z M 81.5 170.71875 A 16 16 0 0 0 81.863281 171.47266 A 16 16 0 0 1 81.5 170.71875 z M 82.251953 172.15039 A 16 16 0 0 0 82.667969 172.82617 A 16 16 0 0 1 82.251953 172.15039 z M 83.150391 173.50391 A 16 16 0 0 0 83.617188 174.11719 A 16 16 0 0 1 83.150391 173.50391 z M 84.150391 174.72266 A 16 16 0 0 0 84.693359 175.30664 A 16 16 0 0 1 84.150391 174.72266 z M 85.277344 175.84961 A 16 16 0 0 0 85.882812 176.38281 A 16 16 0 0 1 85.277344 175.84961 z M 86.496094 176.84961 A 16 16 0 0 0 87.173828 177.33203 A 16 16 0 0 1 86.496094 176.84961 z M 87.849609 177.74805 A 16 16 0 0 0 88.527344 178.13672 A 16 16 0 0 1 87.849609 177.74805 z M 89.28125 178.5 A 16 16 0 0 0 89.990234 178.81641 A 16 16 0 0 1 89.28125 178.5 z M 90.722656 179.08398 A 16 16 0 0 0 91.511719 179.3457 A 16 16 0 0 1 90.722656 179.08398 z M 92.248047 179.53516 A 16 16 0 0 0 93.056641 179.7168 A 16 16 0 0 1 92.248047 179.53516 z M 93.833984 179.83398 A 16 16 0 0 0 94.646484 179.93164 A 16 16 0 0 1 93.833984 179.83398 z "
     id="path834" />
  <path
     inkscape:connector-curvature="0"
     id="path2"
     d="m 96,16 v 32 a 36,48 0 0 1 36,48 36,48 0 0 1 -36,48 16,16 0 0 0 -16,16 16,16 0 0 0 16,16 80,80 0 0 0 1.132812,-0.0392 16,16 0 0 0 0.0156,0 A 80,80 0 0 0 176,96 80,80 0 0 0 96,16 Z"
     style="fill:#e4e4e4;stroke-width:4" />
  <path
     inkscape:connector-curvature="0"
     id="path4"
     d="M 96,16 A 16,16 0 0 0 94.625,16.070312 80,80 0 0 0 16,96 80,80 0 0 0 96,176 16,16 0 0 1 80,160 16,16 0 0 1 96,144 36,48 0 0 1 60,96 36,48 0 0 1 96,48 16,16 0 0 0 112,32 16,16 0 0 0 96,16 Z"
     style="fill:#e74c3c;stroke-width:4" />
  <path
     style="opacity:0.2;fill:#ffffff;stroke-width:4"
     d="M 95.998047 16 A 80 80 0 0 0 16 96 A 80 80 0 0 0 16.021484 96.408203 A 80 80 0 0 1 95.998047 17 L 96 17 A 80 80 0 0 1 175.97656 96.582031 A 80 80 0 0 0 175.99805 96 A 80 80 0 0 0 96 16 L 95.998047 16 z M 131.93555 97.695312 A 36 48 0 0 1 96 144 A 36 48 0 0 1 60.064453 98.304688 A 36 48 0 0 0 60 100 A 36 48 0 0 0 60.019531 100.50391 A 36 48 0 0 1 60.064453 99.304688 A 36 48 0 0 0 96 145 A 36 48 0 0 0 131.93555 98.695312 A 36 48 0 0 1 131.98633 100.51367 A 36 48 0 0 0 132 100 A 36 48 0 0 0 131.93555 97.695312 z "
     id="path6" />
</svg>
