<?xml version="1.0" encoding="UTF-8" standalone="no"?>
<svg
   xmlns:dc="http://purl.org/dc/elements/1.1/"
   xmlns:cc="http://creativecommons.org/ns#"
   xmlns:rdf="http://www.w3.org/1999/02/22-rdf-syntax-ns#"
   xmlns:svg="http://www.w3.org/2000/svg"
   xmlns="http://www.w3.org/2000/svg"
   xmlns:sodipodi="http://sodipodi.sourceforge.net/DTD/sodipodi-0.dtd"
   xmlns:inkscape="http://www.inkscape.org/namespaces/inkscape"
   width="192"
   height="192"
   version="1"
   id="svg16"
   sodipodi:docname="apps_freeoffice_textmaker_hd.svg"
   inkscape:version="0.92.3 (2405546, 2018-03-11)">
  <metadata
     id="metadata22">
    <rdf:RDF>
      <cc:Work
         rdf:about="">
        <dc:format>image/svg+xml</dc:format>
        <dc:type
           rdf:resource="http://purl.org/dc/dcmitype/StillImage" />
        <dc:title />
      </cc:Work>
    </rdf:RDF>
  </metadata>
  <defs
     id="defs20">
    <filter
       inkscape:collect="always"
       style="color-interpolation-filters:sRGB"
       id="filter843"
       x="-0.048"
       width="1.096"
       y="-0.048"
       height="1.096">
      <feGaussianBlur
         inkscape:collect="always"
         stdDeviation="3.2"
         id="feGaussianBlur845" />
    </filter>
    <filter
       inkscape:collect="always"
       style="color-interpolation-filters:sRGB"
       id="filter839"
       x="-0.056470588"
       width="1.1129412"
       y="-0.04173913"
       height="1.0834783">
      <feGaussianBlur
         inkscape:collect="always"
         stdDeviation="1.6"
         id="feGaussianBlur841" />
    </filter>
  </defs>
  <sodipodi:namedview
     pagecolor="#ffffff"
     bordercolor="#666666"
     borderopacity="1"
     objecttolerance="10"
     gridtolerance="10"
     guidetolerance="10"
     inkscape:pageopacity="0"
     inkscape:pageshadow="2"
     inkscape:window-width="1920"
     inkscape:window-height="1018"
     id="namedview18"
     showgrid="false"
     inkscape:zoom="2.82"
     inkscape:cx="71.109023"
     inkscape:cy="100.04563"
     inkscape:window-x="0"
     inkscape:window-y="32"
     inkscape:window-maximized="1"
     inkscape:current-layer="svg16" />
  <circle
     r="80"
     cy="100.00001"
     cx="96"
     id="circle825"
     style="opacity:0.2;fill:#000000;fill-opacity:1;stroke:none;stroke-width:3.36725807;stroke-linecap:round;stroke-linejoin:round;stroke-miterlimit:4;stroke-dasharray:none;stroke-opacity:1;filter:url(#filter843)" />
  <circle
     style="opacity:1;fill:#dd2525;fill-opacity:1;stroke:none;stroke-width:3.36725807;stroke-linecap:round;stroke-linejoin:round;stroke-miterlimit:4;stroke-dasharray:none;stroke-opacity:1"
     id="path823"
     cx="96"
     cy="96.000008"
     r="80" />
  <path
     style="opacity:0.5;fill:#ffffff;fill-opacity:1;stroke:none;stroke-width:3.03053236;stroke-linecap:round;stroke-linejoin:round;stroke-miterlimit:4;stroke-dasharray:none;stroke-opacity:1"
     d="m 96.000004,24.000007 a 72,72 0 0 0 -72,72 72,72 0 0 0 72,72.000003 A 72,72 0 0 0 168,96.000007 a 72,72 0 0 0 -71.999996,-72 z m 0,12 a 60,60 0 0 1 59.999996,60 60,60 0 0 1 -59.999996,60.000003 60,60 0 0 1 -60,-60.000003 60,60 0 0 1 60,-60 z"
     id="circle852"
     inkscape:connector-curvature="0" />
  <path
     style="opacity:0.2;fill:#ffffff;fill-opacity:1;stroke:none;stroke-width:3.36725807;stroke-linecap:round;stroke-linejoin:round;stroke-miterlimit:4;stroke-dasharray:none;stroke-opacity:1"
     d="m 96.000004,16.000007 a 80,80 0 0 0 -80,80 80,80 0 0 0 0.02148,0.585938 80,80 0 0 1 79.978516,-79.585938 80,80 0 0 1 79.978516,79.414062 80,80 0 0 0 0.0215,-0.414062 80,80 0 0 0 -79.999996,-80 z"
     id="circle847"
     inkscape:connector-curvature="0" />
  <path
     sodipodi:nodetypes="ccccccccc"
     inkscape:connector-curvature="0"
     style="font-size:medium;line-height:1.25;letter-spacing:0px;word-spacing:0px;opacity:0.2;fill:#000000;stroke-width:3.35747433;filter:url(#filter839)"
     d="m 130,56 v 16 h -26 v 76 H 88 V 72 H 62 V 56 Z"
     id="path821" />
  <path
     id="path10"
     d="m 130,54 v 16 h -26 v 76 H 88 V 70 H 62 V 54 Z"
     style="font-size:medium;line-height:1.25;letter-spacing:0px;word-spacing:0px;fill:#ffffff;stroke-width:3.35747433"
     inkscape:connector-curvature="0"
     sodipodi:nodetypes="ccccccccc" />
</svg>
