<?xml version="1.0" encoding="UTF-8" standalone="no"?>
<svg
   xmlns:dc="http://purl.org/dc/elements/1.1/"
   xmlns:cc="http://creativecommons.org/ns#"
   xmlns:rdf="http://www.w3.org/1999/02/22-rdf-syntax-ns#"
   xmlns:svg="http://www.w3.org/2000/svg"
   xmlns="http://www.w3.org/2000/svg"
   xmlns:sodipodi="http://sodipodi.sourceforge.net/DTD/sodipodi-0.dtd"
   xmlns:inkscape="http://www.inkscape.org/namespaces/inkscape"
   width="192"
   height="192"
   version="1"
   id="svg16"
   sodipodi:docname="apps_aimp.svg"
   inkscape:version="0.92.3 (2405546, 2018-03-11)">
  <metadata
     id="metadata22">
    <rdf:RDF>
      <cc:Work
         rdf:about="">
        <dc:format>image/svg+xml</dc:format>
        <dc:type
           rdf:resource="http://purl.org/dc/dcmitype/StillImage" />
      </cc:Work>
    </rdf:RDF>
  </metadata>
  <defs
     id="defs20">
    <filter
       inkscape:collect="always"
       style="color-interpolation-filters:sRGB"
       id="filter862"
       x="-0.048"
       width="1.096"
       y="-0.048"
       height="1.096">
      <feGaussianBlur
         inkscape:collect="always"
         stdDeviation="2.4"
         id="feGaussianBlur864" />
    </filter>
    <filter
       inkscape:collect="always"
       style="color-interpolation-filters:sRGB"
       id="filter884"
       x="-0.048"
       width="1.096"
       y="-0.048"
       height="1.096">
      <feGaussianBlur
         inkscape:collect="always"
         stdDeviation="3.2"
         id="feGaussianBlur886" />
    </filter>
  </defs>
  <sodipodi:namedview
     pagecolor="#ffffff"
     bordercolor="#666666"
     borderopacity="1"
     objecttolerance="10"
     gridtolerance="10"
     guidetolerance="10"
     inkscape:pageopacity="0"
     inkscape:pageshadow="2"
     inkscape:window-width="1920"
     inkscape:window-height="1018"
     id="namedview18"
     showgrid="false"
     inkscape:zoom="4.3299648"
     inkscape:cx="96"
     inkscape:cy="96"
     inkscape:window-x="0"
     inkscape:window-y="32"
     inkscape:window-maximized="1"
     inkscape:current-layer="svg16" />
  <rect
     style="opacity:0.2;fill:#000000;stroke-width:4;filter:url(#filter884)"
     width="160"
     height="160"
     x="-180"
     y="-176"
     rx="80"
     ry="80"
     transform="matrix(0,-1,-1,0,0,0)"
     id="rect866" />
  <rect
     id="rect2"
     transform="matrix(0,-1,-1,0,0,0)"
     ry="80"
     rx="80"
     y="-176"
     x="-176"
     height="160"
     width="160"
     style="fill:#454545;stroke-width:4" />
  <path
     style="opacity:0.1;fill:#ffffff;stroke-width:4"
     d="M 96 16 C 51.684 16 16.007812 51.68 16.007812 96 C 16.007812 96.33544 16.009812 96.667215 16.007812 97 C 16.007812 52.68 51.684 17 96 17 C 140.316 17 175.99219 52.68 175.99219 97 C 175.99019 96.667215 175.99219 96.33544 175.99219 96 C 175.99219 51.68 140.316 16 96 16 z "
     id="path4" />
  <path
     id="path836"
     d="m 96,40 c -33.24,0 -60,26.76 -60,60 0,33.24 26.76,60 60,60 33.24,0 60,-26.76 60,-60 0,-33.24 -26.76,-60 -60,-60 z m 0,16 40,72 H 121.25 L 110.53125,109.4375 104,98 96,84 80,112 h 16 6.78125 l 9.23437,16 H 96 56 Z"
     style="fill:#000000;stroke-width:4;opacity:0.2;filter:url(#filter862)"
     inkscape:connector-curvature="0" />
  <path
     style="fill:#faa841;stroke-width:4"
     d="M 96 36 C 62.76 36 36 62.76 36 96 C 36 129.24 62.76 156 96 156 C 129.24 156 156 129.24 156 96 C 156 62.76 129.24 36 96 36 z M 96 52 L 136 124 L 121.25 124 L 110.53125 105.4375 L 104 94 L 96 80 L 80 108 L 96 108 L 102.78125 108 L 112.01562 124 L 96 124 L 56 124 L 96 52 z "
     id="rect10" />
  <path
     style="fill:#ffffff;stroke-width:4;opacity:0.2"
     d="M 96 36 C 62.76 36 36 62.76 36 96 C 36 96.167765 36.010358 96.332567 36.011719 96.5 C 36.279962 63.493359 62.927765 37 96 37 C 129.07223 37 155.72004 63.493359 155.98828 96.5 C 155.98964 96.332567 156 96.167765 156 96 C 156 62.76 129.24 36 96 36 z M 96 80 L 80 108 L 80.572266 108 L 96 81 L 104 95 L 110.53125 106.4375 L 121.25 125 L 136 125 L 135.44531 124 L 121.25 124 L 110.53125 105.4375 L 104 94 L 96 80 z M 56.554688 124 L 56 125 L 96 125 L 112.01562 125 L 111.4375 124 L 96 124 L 56.554688 124 z "
     id="path891" />
</svg>
