<?xml version="1.0" encoding="UTF-8" standalone="no"?>
<svg
   xmlns:dc="http://purl.org/dc/elements/1.1/"
   xmlns:cc="http://creativecommons.org/ns#"
   xmlns:rdf="http://www.w3.org/1999/02/22-rdf-syntax-ns#"
   xmlns:svg="http://www.w3.org/2000/svg"
   xmlns="http://www.w3.org/2000/svg"
   xmlns:sodipodi="http://sodipodi.sourceforge.net/DTD/sodipodi-0.dtd"
   xmlns:inkscape="http://www.inkscape.org/namespaces/inkscape"
   width="192"
   height="192"
   version="1"
   id="svg14"
   sodipodi:docname="apps_cm_browser.svg"
   inkscape:version="0.92.3 (2405546, 2018-03-11)">
  <metadata
     id="metadata20">
    <rdf:RDF>
      <cc:Work
         rdf:about="">
        <dc:format>image/svg+xml</dc:format>
        <dc:type
           rdf:resource="http://purl.org/dc/dcmitype/StillImage" />
      </cc:Work>
    </rdf:RDF>
  </metadata>
  <defs
     id="defs18">
    <filter
       inkscape:collect="always"
       style="color-interpolation-filters:sRGB"
       id="filter850"
       x="-0.048"
       width="1.096"
       y="-0.048"
       height="1.096">
      <feGaussianBlur
         inkscape:collect="always"
         stdDeviation="3.2"
         id="feGaussianBlur852" />
    </filter>
    <filter
       inkscape:collect="always"
       style="color-interpolation-filters:sRGB"
       id="filter866"
       x="-0.050656094"
       width="1.1013122"
       y="-0.045608568"
       height="1.0912171">
      <feGaussianBlur
         inkscape:collect="always"
         stdDeviation="3.0393835"
         id="feGaussianBlur868" />
    </filter>
  </defs>
  <sodipodi:namedview
     pagecolor="#ffffff"
     bordercolor="#666666"
     borderopacity="1"
     objecttolerance="10"
     gridtolerance="10"
     guidetolerance="10"
     inkscape:pageopacity="0"
     inkscape:pageshadow="2"
     inkscape:window-width="1920"
     inkscape:window-height="1018"
     id="namedview16"
     showgrid="false"
     inkscape:zoom="1"
     inkscape:cx="96"
     inkscape:cy="96"
     inkscape:window-x="0"
     inkscape:window-y="32"
     inkscape:window-maximized="1"
     inkscape:current-layer="svg14" />
  <rect
     style="opacity:0.2;fill:#000000;stroke-width:4;filter:url(#filter850)"
     width="160"
     height="160"
     x="-180"
     y="-176"
     rx="8"
     ry="8"
     transform="matrix(0,-1,-1,0,0,0)"
     id="rect832" />
  <path
     transform="matrix(0,-1,-1,0,0,0)"
     style="fill:#fd8320;stroke-width:4"
     d="m -168,-170.75524 142.251748,0.34965 C -21.316265,-170.3947 -16,-172.432 -16,-168 v 144 c 0,4.432 -3.568,8 -8,8 h -144 c -4.432,0 -8,-3.568 -8,-8 v -122.85315 l 2.44755,-15.90209 c 0.67421,-4.38042 1.12046,-8.0109 5.55245,-8 z"
     id="rect2"
     inkscape:connector-curvature="0"
     sodipodi:nodetypes="ssssssscss" />
  <path
     style="opacity:0.2;fill:#ffffff;stroke-width:4"
     d="M 24 16 C 19.568 16 16 19.568 16 24 L 16 25 C 16 20.568 19.568 17 24 17 L 168 17 C 172.432 17 176 20.568 176 25 L 176 24 C 176 19.568 172.432 16 168 16 L 24 16 z "
     id="path4" />
  <path
     inkscape:connector-curvature="0"
     id="path8"
     d="m 168.64062,20.0625 c -3.91188,0.05529 -7.7149,0.185944 -10.5,0.492188 C 146.93066,21.78732 135.37661,24.212896 126.25,27.25 l -4.27344,1.421875 -3.5,-1.0625 c -5.08889,-1.546976 -6.33113,-3.479395 -11.38281,-3.296875 -5.0922,0.183988 -6.96875,0.729426 -6.96875,2.023438 0,1.216424 3.30964,7.710936 3.92969,7.710937 0.443,0 0.49282,-0.290888 0.30468,-1.773437 -0.12388,-0.976172 -0.29852,-3.244912 -0.39064,-3.570313 -0.2608,-0.921948 0.84137,-0.744103 3.46875,0.570313 4.02845,2.015352 5.66792,8.402226 6.85937,12.976562 0.58108,2.230876 0.6969,4.53626 0.20312,4.031248 -0.17268,-0.17664 -1.16631,-2.423956 -2.20312,-4.499996 -3.41345,-6.834934 -4.39412,-7.021576 -13.140602,-2.539064 -23.493024,12.040024 -39.65612,25.920508 -43.781248,36.91406 -1.427024,3.803096 -1.07198,8.069176 0.859376,10.27344 0.716412,0.817652 0.34436,1.471064 -1.320312,2.320312 -7.039412,3.591244 -21.380769,13.88326 -22.429689,16.09375 -1.117679,2.35533 -0.652861,3.20558 5.15625,9.58594 1.26419,1.3885 2.361475,2.54055 3.304687,3.5 C 43.58786,109.63394 51.29354,104.0008 60,104 c 11.045696,0 20,8.9543 20,20 8.68e-4,9.73512 -7.00802,18.05673 -16.601564,19.71094 1.481876,1.57393 3.464292,3.70198 4.89844,5.27344 1.654476,1.81286 3.13474,3.29687 3.28906,3.29687 0.15432,0 0.8014,-1.02618 1.4375,-2.28125 5.605124,-11.05916 16.838196,-19.14535 30.671874,-22.07812 12.39936,-2.7795 20.19287,-9.96163 23.4375,-21.13282 1.03221,-3.59193 1.11079,-10.911136 0.15624,-14.515624 -1.28175,-4.018208 -3.15472,-8.576148 -4.52344,-12.281248 0.42834,-0.33052 2.32397,1.075028 4.04688,3.492188 4.30281,6.03688 5.66406,15.07274 5.66406,22.140624 v 2.61719 l 4.73437,0.23436 c 16.61685,1.25707 28.19224,10.20194 30.42188,24.02343 0.4885,3.02815 0.2592,9.21369 -0.48438,13.01563 -2.21715,11.33622 -9.40364,22.20373 -19.98437,31.35937 L 143.54688,180 l 19.1875,-0.0236 c 2.27502,-0.003 3.87444,-0.0332 5.92968,-0.0469 C 172.77753,179.58899 176,176.20441 176,172 V 28 c 0,-4.212627 -3.23434,-7.608066 -7.35938,-7.9375 z M 87.968752,68.007812 c 0.28464,0.262 -1.576188,3.117668 -6.296876,9.625 -2.50658,3.455256 -4.805192,6.315248 -5.101564,6.359376 -0.29636,0.04408 -0.935764,-0.2174 -1.429688,-0.58594 -0.493924,-0.36852 -1.493732,-0.958756 -2.218748,-1.312496 -1.311336,-0.64002 -1.333484,-0.6398 -3,0.0392 -0.921356,0.3752 -1.774492,0.570108 -1.906252,0.445312 -0.31568,-0.29896 4.239244,-4.223164 8.742188,-7.53906 3.843736,-2.830468 10.937388,-7.283044 11.21094,-7.031252 z"
     style="opacity:0.2;fill:#000000;stroke-width:4;filter:url(#filter866)" />
  <path
     inkscape:connector-curvature="0"
     id="path10"
     d="m 168.64062,16.0625 c -3.91188,0.05529 -7.7149,0.185944 -10.5,0.492188 C 146.93066,17.78732 135.37661,20.212896 126.25,23.25 l -4.27344,1.421875 -3.5,-1.0625 c -5.08889,-1.546976 -6.33113,-3.479395 -11.38281,-3.296875 -5.0922,0.183988 -6.96875,0.729426 -6.96875,2.023438 0,1.216424 3.30964,7.710936 3.92969,7.710937 0.443,0 0.49282,-0.290888 0.30468,-1.773437 -0.12388,-0.976172 -0.29852,-3.244912 -0.39064,-3.570313 -0.2608,-0.921948 0.84137,-0.744103 3.46875,0.570313 4.02845,2.015352 5.66792,8.402226 6.85937,12.976562 0.58108,2.230876 0.6969,4.53626 0.20312,4.031248 -0.17266,-0.176632 -1.16629,-2.423958 -2.20309,-4.499998 -3.41348,-6.834932 -4.39415,-7.021574 -13.140632,-2.539062 -23.493024,12.040024 -39.65612,25.920508 -43.781248,36.91406 -1.427024,3.803096 -1.07198,8.069176 0.859376,10.27344 0.716412,0.817652 0.34436,1.471064 -1.320312,2.320312 -7.039412,3.591244 -21.380769,13.883264 -22.429689,16.09375 -1.117679,2.35533 -0.652861,3.20558 5.15625,9.58594 1.26419,1.3885 2.361475,2.54055 3.304687,3.5 C 43.58786,105.63394 51.29354,100.0008 60,100 c 11.045696,0 20,8.9543 20,20 8.68e-4,9.73512 -7.00802,18.05673 -16.601564,19.71094 1.481876,1.57393 3.464292,3.70198 4.89844,5.27344 1.654476,1.81286 3.13474,3.29687 3.28906,3.29687 0.15432,0 0.8014,-1.02618 1.4375,-2.28125 5.605124,-11.05916 16.838196,-19.14535 30.671874,-22.07812 12.39936,-2.7795 20.19287,-9.96163 23.4375,-21.13282 1.03221,-3.591932 1.11079,-10.911136 0.15624,-14.515624 -1.28175,-4.018208 -3.15472,-8.576148 -4.52344,-12.281248 0.42834,-0.33052 2.32397,1.075028 4.04688,3.492188 4.30281,6.03688 5.66406,15.07274 5.66406,22.140624 v 2.61719 l 4.73437,0.23436 c 16.61685,1.25707 28.19224,10.20194 30.42188,24.02343 0.4885,3.02815 0.2592,9.21369 -0.48438,13.01563 -2.21715,11.33622 -9.40364,22.20373 -19.98437,31.35937 L 143.54688,176 l 19.1875,-0.0236 c 2.27502,-0.003 3.87444,-0.0332 5.92968,-0.0469 C 172.77753,175.58899 176,172.20441 176,168 V 24 c 0,-4.212627 -3.23434,-7.608066 -7.35938,-7.9375 z M 87.968752,64.007812 c 0.28464,0.262 -1.576188,3.117668 -6.296876,9.625 -2.50658,3.455256 -4.805192,6.315248 -5.101564,6.359376 -0.29636,0.04408 -0.935764,-0.2174 -1.429688,-0.58594 -0.493924,-0.36852 -1.493732,-0.958756 -2.218748,-1.312496 -1.311336,-0.64002 -1.333484,-0.6398 -3,0.0392 -0.921356,0.3752 -1.774492,0.570108 -1.906252,0.445312 -0.31568,-0.29896 4.239244,-4.223164 8.742188,-7.53906 3.843736,-2.830468 10.937388,-7.283044 11.21094,-7.031252 z"
     style="fill:#fedfc1;stroke-width:4" />
</svg>
