<?xml version="1.0" encoding="UTF-8" standalone="no"?>
<svg
   xmlns:dc="http://purl.org/dc/elements/1.1/"
   xmlns:cc="http://creativecommons.org/ns#"
   xmlns:rdf="http://www.w3.org/1999/02/22-rdf-syntax-ns#"
   xmlns:svg="http://www.w3.org/2000/svg"
   xmlns="http://www.w3.org/2000/svg"
   xmlns:sodipodi="http://sodipodi.sourceforge.net/DTD/sodipodi-0.dtd"
   xmlns:inkscape="http://www.inkscape.org/namespaces/inkscape"
   width="192"
   height="192"
   version="1"
   id="svg44"
   sodipodi:docname="apps_pinmnemonic.svg"
   inkscape:version="0.92.3 (2405546, 2018-03-11)">
  <metadata
     id="metadata50">
    <rdf:RDF>
      <cc:Work
         rdf:about="">
        <dc:format>image/svg+xml</dc:format>
        <dc:type
           rdf:resource="http://purl.org/dc/dcmitype/StillImage" />
      </cc:Work>
    </rdf:RDF>
  </metadata>
  <defs
     id="defs48">
    <filter
       inkscape:collect="always"
       style="color-interpolation-filters:sRGB"
       id="filter898"
       x="-0.048"
       width="1.096"
       y="-0.048"
       height="1.096">
      <feGaussianBlur
         inkscape:collect="always"
         stdDeviation="3.2"
         id="feGaussianBlur900" />
    </filter>
    <filter
       inkscape:collect="always"
       style="color-interpolation-filters:sRGB"
       id="filter917"
       x="-0.048"
       width="1.096"
       y="-0.048"
       height="1.096">
      <feGaussianBlur
         inkscape:collect="always"
         stdDeviation="2.24"
         id="feGaussianBlur919" />
    </filter>
  </defs>
  <sodipodi:namedview
     pagecolor="#ffffff"
     bordercolor="#666666"
     borderopacity="1"
     objecttolerance="10"
     gridtolerance="10"
     guidetolerance="10"
     inkscape:pageopacity="0"
     inkscape:pageshadow="2"
     inkscape:window-width="1920"
     inkscape:window-height="1018"
     id="namedview46"
     showgrid="false"
     inkscape:zoom="2.32"
     inkscape:cx="96"
     inkscape:cy="96"
     inkscape:window-x="0"
     inkscape:window-y="32"
     inkscape:window-maximized="1"
     inkscape:current-layer="svg44" />
  <rect
     style="opacity:0.2;fill:#000000;stroke-width:4;filter:url(#filter898)"
     width="160"
     height="160"
     x="-180"
     y="-176"
     rx="8"
     ry="8"
     transform="matrix(0,-1,-1,0,0,0)"
     id="rect880" />
  <rect
     id="rect4"
     transform="matrix(0,-1,-1,0,0,0)"
     ry="8"
     rx="8"
     y="-176"
     x="-176"
     height="160"
     width="160"
     style="fill:#3175ab;stroke-width:4" />
  <path
     style="opacity:0.2;fill:#ffffff;stroke-width:4"
     d="M 24 16 C 19.568 16 16 19.568 16 24 L 16 25 C 16 20.568 19.568 17 24 17 L 168 17 C 172.432 17 176 20.568 176 25 L 176 24 C 176 19.568 172.432 16 168 16 L 24 16 z "
     id="path6" />
  <path
     inkscape:connector-curvature="0"
     id="path8"
     d="m 48,42 c -4.432,0 -8,3.568 -8,8 0,4.432 3.568,8 8,8 h 16 c 4.432,0 8,-3.568 8,-8 0,-4.432 -3.568,-8 -8,-8 z m 40,0 c -4.432,0 -8,3.568 -8,8 0,4.432 3.568,8 8,8 h 16 c 4.432,0 8,-3.568 8,-8 0,-4.432 -3.568,-8 -8,-8 z m 40,0 c -4.432,0 -8,3.568 -8,8 0,4.432 3.568,8 8,8 h 16 c 4.432,0 8,-3.568 8,-8 0,-4.432 -3.568,-8 -8,-8 z M 48,66 c -4.432,0 -8,3.568 -8,8 0,4.432 3.568,8 8,8 h 16 c 4.432,0 8,-3.568 8,-8 0,-4.432 -3.568,-8 -8,-8 z m 40,0 c -4.432,0 -8,3.568 -8,8 0,4.432 3.568,8 8,8 h 16 c 4.432,0 8,-3.568 8,-8 0,-4.432 -3.568,-8 -8,-8 z m 40,0 c -4.432,0 -8,3.568 -8,8 0,4.432 3.568,8 8,8 h 16 c 4.432,0 8,-3.568 8,-8 0,-4.432 -3.568,-8 -8,-8 z M 48,90 c -4.432,0 -8,3.568 -8,8 0,4.432 3.568,8 8,8 h 16 c 4.432,0 8,-3.568 8,-8 0,-4.432 -3.568,-8 -8,-8 z m 40,0 c -4.432,0 -8,3.568 -8,8 0,4.432 3.568,8 8,8 h 16 c 4.432,0 8,-3.568 8,-8 0,-4.432 -3.568,-8 -8,-8 z m 40,0 c -4.432,0 -8,3.568 -8,8 0,4.432 3.568,8 8,8 h 16 c 4.432,0 8,-3.568 8,-8 0,-4.432 -3.568,-8 -8,-8 z m -80,24 c -4.432,0 -8,3.568 -8,8 0,4.432 3.568,8 8,8 h 16 c 4.432,0 8,-3.568 8,-8 0,-4.432 -3.568,-8 -8,-8 z m 40,0 c -4.432,0 -8,3.568 -8,8 0,4.432 3.568,8 8,8 h 16 c 4.432,0 8,-3.568 8,-8 0,-4.432 -3.568,-8 -8,-8 z m 40,0 c -4.432,0 -8,3.568 -8,8 0,4.432 3.568,8 8,8 h 16 c 4.432,0 8,-3.568 8,-8 0,-4.432 -3.568,-8 -8,-8 z m -80,24 c -4.432,0 -8,3.568 -8,8 0,4.432 3.568,8 8,8 h 16 c 4.432,0 8,-3.568 8,-8 0,-4.432 -3.568,-8 -8,-8 z m 40,0 c -4.432,0 -8,3.568 -8,8 0,4.432 3.568,8 8,8 h 16 c 4.432,0 8,-3.568 8,-8 0,-4.432 -3.568,-8 -8,-8 z m 40,0 c -4.432,0 -8,3.568 -8,8 0,4.432 3.568,8 8,8 h 16 c 4.432,0 8,-3.568 8,-8 0,-4.432 -3.568,-8 -8,-8 z"
     style="opacity:0.2;stroke-width:4;filter:url(#filter917)" />
  <g
     id="g40"
     transform="scale(4)">
    <rect
       id="rect10"
       ry="2"
       rx="2"
       y="22"
       x="20"
       height="4"
       width="8"
       style="fill:#ffffff" />
    <rect
       id="rect12"
       ry="2"
       rx="2"
       y="22"
       x="10"
       height="4"
       width="8"
       style="fill:#ffffff" />
    <rect
       id="rect14"
       ry="2"
       rx="2"
       y="22"
       x="30"
       height="4"
       width="8"
       style="fill:#ffffff" />
    <rect
       id="rect16"
       ry="2"
       rx="2"
       y="16"
       x="20"
       height="4"
       width="8"
       style="fill:#ffffff" />
    <rect
       id="rect18"
       ry="2"
       rx="2"
       y="16"
       x="10"
       height="4"
       width="8"
       style="fill:#ffffff" />
    <rect
       id="rect20"
       ry="2"
       rx="2"
       y="16"
       x="30"
       height="4"
       width="8"
       style="fill:#ffffff" />
    <rect
       id="rect22"
       ry="2"
       rx="2"
       y="10"
       x="20"
       height="4"
       width="8"
       style="fill:#ffffff" />
    <rect
       id="rect24"
       ry="2"
       rx="2"
       y="10"
       x="10"
       height="4"
       width="8"
       style="fill:#ffffff" />
    <rect
       id="rect26"
       ry="2"
       rx="2"
       y="10"
       x="30"
       height="4"
       width="8"
       style="fill:#ffffff" />
    <rect
       id="rect28"
       ry="2"
       rx="2"
       y="34"
       x="20"
       height="4"
       width="8"
       style="fill:#ffff00" />
    <rect
       id="rect30"
       ry="2"
       rx="2"
       y="34"
       x="10"
       height="4"
       width="8"
       style="fill:#fc5b5b;fill-opacity:1" />
    <rect
       id="rect32"
       ry="2"
       rx="2"
       y="34"
       x="30"
       height="4"
       width="8"
       style="fill:#51dc49" />
    <rect
       id="rect34"
       ry="2"
       rx="2"
       y="28"
       x="20"
       height="4"
       width="8"
       style="fill:#ffffff" />
    <rect
       id="rect36"
       ry="2"
       rx="2"
       y="28"
       x="10"
       height="4"
       width="8"
       style="fill:#ffffff" />
    <rect
       id="rect38"
       ry="2"
       rx="2"
       y="28"
       x="30"
       height="4"
       width="8"
       style="fill:#ffffff" />
  </g>
</svg>
