<?xml version="1.0" encoding="UTF-8" standalone="no"?>
<svg
   xmlns:dc="http://purl.org/dc/elements/1.1/"
   xmlns:cc="http://creativecommons.org/ns#"
   xmlns:rdf="http://www.w3.org/1999/02/22-rdf-syntax-ns#"
   xmlns:svg="http://www.w3.org/2000/svg"
   xmlns="http://www.w3.org/2000/svg"
   xmlns:sodipodi="http://sodipodi.sourceforge.net/DTD/sodipodi-0.dtd"
   xmlns:inkscape="http://www.inkscape.org/namespaces/inkscape"
   width="192"
   height="192"
   version="1"
   id="svg32"
   sodipodi:docname="apps_passcard.svg"
   inkscape:version="0.92.3 (2405546, 2018-03-11)">
  <metadata
     id="metadata38">
    <rdf:RDF>
      <cc:Work
         rdf:about="">
        <dc:format>image/svg+xml</dc:format>
        <dc:type
           rdf:resource="http://purl.org/dc/dcmitype/StillImage" />
      </cc:Work>
    </rdf:RDF>
  </metadata>
  <defs
     id="defs36">
    <filter
       inkscape:collect="always"
       style="color-interpolation-filters:sRGB"
       id="filter871"
       x="-0.0492"
       width="1.0984"
       y="-0.046857143"
       height="1.0937143">
      <feGaussianBlur
         inkscape:collect="always"
         stdDeviation="3.28"
         id="feGaussianBlur873" />
    </filter>
    <filter
       inkscape:collect="always"
       style="color-interpolation-filters:sRGB"
       id="filter879"
       x="-0.01215"
       width="1.0243"
       y="-0.972"
       height="2.944">
      <feGaussianBlur
         inkscape:collect="always"
         stdDeviation="0.81"
         id="feGaussianBlur881" />
    </filter>
    <filter
       inkscape:collect="always"
       style="color-interpolation-filters:sRGB"
       id="filter887"
       x="-0.01215"
       width="1.0243"
       y="-0.972"
       height="2.944">
      <feGaussianBlur
         inkscape:collect="always"
         stdDeviation="0.81"
         id="feGaussianBlur889" />
    </filter>
    <filter
       inkscape:collect="always"
       style="color-interpolation-filters:sRGB"
       id="filter895"
       x="-0.01215"
       width="1.0243"
       y="-0.972"
       height="2.944">
      <feGaussianBlur
         inkscape:collect="always"
         stdDeviation="0.81"
         id="feGaussianBlur897" />
    </filter>
    <filter
       inkscape:collect="always"
       style="color-interpolation-filters:sRGB"
       id="filter903"
       x="-0.01215"
       width="1.0243"
       y="-0.972"
       height="2.944">
      <feGaussianBlur
         inkscape:collect="always"
         stdDeviation="0.81"
         id="feGaussianBlur905" />
    </filter>
    <filter
       inkscape:collect="always"
       style="color-interpolation-filters:sRGB"
       id="filter911"
       x="-0.01215"
       width="1.0243"
       y="-0.972"
       height="2.944">
      <feGaussianBlur
         inkscape:collect="always"
         stdDeviation="0.81"
         id="feGaussianBlur913" />
    </filter>
  </defs>
  <sodipodi:namedview
     pagecolor="#ffffff"
     bordercolor="#666666"
     borderopacity="1"
     objecttolerance="10"
     gridtolerance="10"
     guidetolerance="10"
     inkscape:pageopacity="0"
     inkscape:pageshadow="2"
     inkscape:window-width="1920"
     inkscape:window-height="1018"
     id="namedview34"
     showgrid="false"
     inkscape:zoom="1"
     inkscape:cx="96"
     inkscape:cy="81.989492"
     inkscape:window-x="0"
     inkscape:window-y="32"
     inkscape:window-maximized="1"
     inkscape:current-layer="svg32" />
  <rect
     id="rect2"
     transform="matrix(0,-1,-1,0,0,0)"
     ry="8"
     rx="8.3999996"
     y="-176"
     x="-184"
     height="160"
     width="168"
     style="opacity:0.2;stroke-width:4;filter:url(#filter871)" />
  <path
     inkscape:connector-curvature="0"
     id="path4"
     d="m 16,152 v 19.60156 C 16,176.25516 19.568,180 24,180 h 144 c 4.432,0 8,-3.74484 8,-8.39844 V 152 Z"
     style="fill:#6767cf;stroke-width:4" />
  <path
     inkscape:connector-curvature="0"
     id="path6"
     d="m 24,12 c -4.432,0 -8,3.744838 -8,8.398438 V 40 H 176 V 20.398438 C 176,15.744838 172.432,12 168,12 Z"
     style="fill:#e4e4e4;stroke-width:4" />
  <rect
     id="rect8"
     y="124"
     x="16"
     height="28"
     width="160"
     style="fill:#ffea00;stroke-width:4" />
  <rect
     id="rect10"
     y="96"
     x="16"
     height="28"
     width="160"
     style="fill:#4c872e;stroke-width:4" />
  <rect
     id="rect12"
     y="68"
     x="16"
     height="28"
     width="160"
     style="fill:#ec5454;stroke-width:4" />
  <rect
     id="rect14"
     y="40"
     x="16"
     height="28"
     width="160"
     style="fill:#4f4f4f;stroke-width:4" />
  <rect
     id="rect16"
     y="40"
     x="16"
     height="2"
     width="160"
     style="opacity:0.1;stroke-width:4;filter:url(#filter879)" />
  <rect
     id="rect18"
     y="68"
     x="16"
     height="2"
     width="160"
     style="opacity:0.1;stroke-width:4;filter:url(#filter887)" />
  <rect
     id="rect20"
     y="96"
     x="16"
     height="2"
     width="160"
     style="opacity:0.1;stroke-width:4;filter:url(#filter895)" />
  <rect
     id="rect22"
     y="124"
     x="16"
     height="2"
     width="160"
     style="opacity:0.1;stroke-width:4;filter:url(#filter903)" />
  <rect
     id="rect24"
     y="152"
     x="16"
     height="2"
     width="160"
     style="opacity:0.1;stroke-width:4;filter:url(#filter911)" />
  <path
     style="opacity:0.2;fill:#ffffff;stroke-width:4"
     d="M 24 12 C 19.568 12 16 15.744837 16 20.398438 L 16 21.398438 C 16 16.744837 19.568 13 24 13 L 168 13 C 172.432 13 176 16.744837 176 21.398438 L 176 20.398438 C 176 15.744838 172.432 12 168 12 L 24 12 z "
     id="path26" />
  <path
     inkscape:connector-curvature="0"
     id="path28"
     d="M 48,12 V 40 H 80 V 12 Z m 32,28 v 28 h 32 V 40 Z m 32,0 h 32 V 12 h -32 z m 32,0 v 28 h 32 V 40 Z m 0,28 h -32 v 28 h 32 z m 0,28 v 28 h 32 V 96 Z m 0,28 h -32 v 28 h 32 z m 0,28 v 28 h 24 c 4.432,0 8,-3.74484 8,-8.39844 V 152 Z m -32,0 H 80 v 28 h 32 z m -32,0 V 124 H 48 v 28 z m -32,0 H 16 v 19.60156 C 16,176.25516 19.568,180 24,180 h 24 z m 0,-28 V 96 H 16 v 28 z M 48,96 H 80 V 68 H 48 Z M 48,68 V 40 H 16 v 28 z m 32,28 v 28 h 32 V 96 Z"
     style="opacity:0.1;stroke-width:4" />
</svg>
