<?xml version="1.0" encoding="UTF-8" standalone="no"?>
<svg
   xmlns:dc="http://purl.org/dc/elements/1.1/"
   xmlns:cc="http://creativecommons.org/ns#"
   xmlns:rdf="http://www.w3.org/1999/02/22-rdf-syntax-ns#"
   xmlns:svg="http://www.w3.org/2000/svg"
   xmlns="http://www.w3.org/2000/svg"
   xmlns:sodipodi="http://sodipodi.sourceforge.net/DTD/sodipodi-0.dtd"
   xmlns:inkscape="http://www.inkscape.org/namespaces/inkscape"
   width="192"
   height="192"
   version="1.1"
   id="svg18"
   sodipodi:docname="apps_ooniprobe.svg"
   inkscape:version="0.92.3 (2405546, 2018-03-11)">
  <metadata
     id="metadata24">
    <rdf:RDF>
      <cc:Work
         rdf:about="">
        <dc:format>image/svg+xml</dc:format>
        <dc:type
           rdf:resource="http://purl.org/dc/dcmitype/StillImage" />
      </cc:Work>
    </rdf:RDF>
  </metadata>
  <defs
     id="defs22">
    <filter
       inkscape:collect="always"
       style="color-interpolation-filters:sRGB"
       id="filter859"
       x="-0.052235263"
       width="1.1044705"
       y="-0.044400023"
       height="1.0888">
      <feGaussianBlur
         inkscape:collect="always"
         stdDeviation="2.9599984"
         id="feGaussianBlur861" />
    </filter>
    <filter
       inkscape:collect="always"
       style="color-interpolation-filters:sRGB"
       id="filter884"
       x="-0.048"
       width="1.096"
       y="-0.048"
       height="1.096">
      <feGaussianBlur
         inkscape:collect="always"
         stdDeviation="0.72"
         id="feGaussianBlur886" />
    </filter>
  </defs>
  <sodipodi:namedview
     pagecolor="#ffffff"
     bordercolor="#666666"
     borderopacity="1"
     objecttolerance="10"
     gridtolerance="10"
     guidetolerance="10"
     inkscape:pageopacity="0"
     inkscape:pageshadow="2"
     inkscape:window-width="1920"
     inkscape:window-height="1018"
     id="namedview20"
     showgrid="false"
     inkscape:zoom="1"
     inkscape:cx="96"
     inkscape:cy="96"
     inkscape:window-x="0"
     inkscape:window-y="32"
     inkscape:window-maximized="1"
     inkscape:current-layer="svg18" />
  <path
     style="opacity:0.2;stroke-width:4;filter:url(#filter859)"
     d="m 95.835144,20.017769 c -0.1146,4e-4 -0.2292,0 -0.3438,0 -0.887184,0 -1.773352,0.072 -2.656684,0.156 -0.67742,0.06 -1.349744,0.144 -2.023764,0.24 -0.52536,0.076 -1.049012,0.16 -1.570568,0.26 -0.72088,0.136 -1.43572,0.3 -2.148788,0.4844 -0.492476,0.124 -0.982248,0.26 -1.468988,0.406 -0.666896,0.2 -1.328168,0.4224 -1.9847,0.664 -0.592172,0.22 -1.178408,0.4588 -1.758096,0.7112 -0.507836,0.22 -1.0166,0.4276 -1.515872,0.6716 -0.84552,0.4156 -1.674416,0.8636 -2.484776,1.344 -0.21232,0.124 -0.4305,0.236 -0.640728,0.368 -10.687748,6.5344 -17.210076,18.154 -17.221536,30.68 -1.784,18.0256 17.632664,24.746 16.002596,37.9612 -0.915816,7.424801 -9.15268,10.039201 -20.425192,10.039201 -11.293472,-0.5392 -17.72401,-3.53 -17.115422,-13.792801 0.654878,-2.516 2.070958,-4.9348 4.201658,-6.9492 3.6976,-3.4956 6.551768,-3.948 10.165716,-1.6172 3.107824,2.004 3.252356,4.2144 1.8184,9 -1.141344,3.8088 -0.0244,4.5008 3.430248,2.1092 3.09666,-2.1436 5.499324,-6.6332 6.172872,-11.5468 0.3444,-2.5124 0.1726,-3.392 -0.929836,-4.8832 -0.7398,-1.0008 -1.767908,-3.2396 -2.289436,-4.4872 -0.663104,-1.5868 -1.509172,-2.4068 -2.80514,-2.7268 -1.019168,-0.252 -2.605512,-1.2824 -3.531824,-2.2888 -1.493884,-1.6236 -2.016596,-1.792 -4.617936,-1.5 -1.802292,0.204 -3.10852,0.044 -3.383364,-0.4 -1.22268,-1.978 -3.556064,-0.5672 -9.9313,5.9844 -9.870482,10.144 -9.623336,16.7724 -7.775076,26.2536 5.415775,14.405201 14.504964,22.105201 29.247124,22.844001 5.76656,0.288 14.020824,-3.6948 17.096524,-5.586 1.320892,-0.812 3.649628,-2.6248 5.172716,-4.0232 2.990484,-2.7444 3.98806,-2.7124 3.0083,0.092 -0.675268,1.9336 -2.801192,3.4392 -13.963204,9.8748 -8.924648,5.1456 -14.310616,9.9176 -15.908836,14.1016 -1.753484,4.5912 -1.506364,8.9068 0.750124,13.0396 2.293892,4.2012 4.469568,6.0584 11.853488,10.1408 7.75982,4.29 9.68746,5.822 10.18134,8.0704 0.943636,4.296 -4.052992,8.2768 -10.145184,9.3828 -3.08382,0.5596 -3.006656,1.988 0.19536,3.7032 4.243212,2.2728 9.24398,1.3088 15.247752,-2.7888 2.08902,-1.4256 3.965108,-2.856 4.16474,-3.18 0.8495,-1.374 2.242552,-8.0188 2.242552,-10.7032 0,-3.4256 -1.979608,-8.4936 -4.055344,-9.5412 -0.801292,-0.4044 -2.232892,-1.6444 -3.180204,-2.7576 -1.663872,-1.954 -0.27968,-2.024 -4.688444,-1.844 -4.413956,0.18 -4.644376,0.12 -7.01676,-2.0544 -2.065816,-1.8928 -2.453524,-1.87 -2.453524,-4.0844 0,-3.6268 2.498304,-6.1196 7.938788,-7.93 6.27126,-2.0864 13.619888,-6.6292 17.526284,-10.828 l 3.445872,-3.6952 1.742468,2.2576 c 4.13667,5.3596 7.32408,8.2652 13.40843,12.2268 11.53035,7.5088 15.14881,11.1256 13.34591,16.5876 -1.20555,3.652 -3.39422,5.2032 -7.79814,5.5232 -7.23689,0.5232 -12.32627,-2.212 -12.86927,-8.7592 -0.25596,-3.0856 -0.12788,-3.502 1.38303,-4.492 0.99417,-0.6688 2.19903,-0.916 2.99268,-0.664 3.73521,1.1852 5.37252,-2.3216 2.23474,-4.7892 -1.48865,-1.1708 -2.28557,-1.2852 -6.64952,-0.9452 -8.333996,0.6512 -10.46954,3.3796 -11.240588,11.2032 -0.710192,7.2064 0.748172,11.3848 5.579036,15.992 3.754972,3.58 3.117552,3.6684 6.044422,3.3364 2.00853,-0.224 3.70976,0.001 5.14927,0.6876 3.05414,1.456 13.2127,0.256 18.0967,-2.1328 4.72536,-2.312 8.99747,-7.1736 10.00943,-11.3912 1.93232,-8.0536 -1.73834,-14.8388 -13.14275,-24.2736 -11.35001,-9.3892 -12.29307,-10.2416 -13.51783,-12.25 -1.23916,-2.0316 -1.66723,-4.93 -0.72668,-4.93 5.85026,5.8148 13.98439,9.6608 21.36285,11.1408 1.20098,0.172 2.13788,0.3 2.95586,0.364 14.00782,-0.08 23.72562,-7.5044 27.95074,-15.8228 1.75156,-3.558 2.05578,-4.87 2.02377,-8.844401 -0.0485,-6.28 -1.57821,-10.29 -7.46997,-19.6328 -7.2799,-11.5436 -7.2508,-11.4736 -7.2668,-17.7736 -0.0192,-6.8152 2.16684,-9.636 7.28375,-14.6088 1.94327,-1.8888 3.53182,-3.9444 3.53182,-4.5708 0,-1.7928 -3.59519,-3.3028 -6.72765,-2.828 -1.46957,0.224 -3.92209,0.5696 -5.45402,0.7736 -2.0789,0.276 -3.05807,0.8052 -3.86,2.0856 -0.59098,0.9436 -2.98345,2.5464 -4.33795,4.054 -1.63315,1.818 -2.46134,3.37 -2.46134,4.5944 0,1.1316 -0.63203,2.434 -1.62527,3.3672 -1.25032,1.174 -1.61744,2.1716 -1.61744,4.3592 0,1.5604 -0.44654,3.7028 -0.99235,4.758 -1.14239,2.2088 -0.79068,3.1992 2.60979,7.414 5.0353,8.6788 14.94893,16.2096 14.46329,26.3048 -0.38772,8.059601 -7.87157,10.332001 -13.89603,10.289601 -10.33564,-0.056 -20.58079,-6.3404 -20.15172,-16.633201 0.56512,-13.5564 15.76384,-22.5108 16.0026,-35.3676 -0.0164,-8.5768 -3.09483,-16.8664 -8.6811,-23.3752 -0.0622,-0.076 -0.1248,-0.144 -0.18752,-0.22 -0.7021,-0.8088 -1.43993,-1.5856 -2.21129,-2.3284 -0.32364,-0.316 -0.65095,-0.6216 -0.98454,-0.9216 -0.53075,-0.472 -1.07535,-0.928 -1.63307,-1.3672 -0.50089,-0.4 -1.00497,-0.788 -1.52369,-1.1564 -0.44886,-0.312 -0.90478,-0.6144 -1.36741,-0.9064 -0.59838,-0.384 -1.19538,-0.7636 -1.81279,-1.1092 -0.46854,-0.256 -0.94269,-0.5 -1.42211,-0.7344 -0.631,-0.316 -1.26002,-0.636 -1.90656,-0.914 -0.52128,-0.216 -1.04756,-0.4188 -1.57838,-0.6096 -0.61406,-0.232 -1.21956,-0.4756 -1.84405,-0.6716 -0.65379,-0.196 -1.31302,-0.372 -1.97689,-0.5312 -0.53877,-0.136 -1.07345,-0.296 -1.61744,-0.4064 -1.19561,-0.248 -2.4031,-0.4364 -3.61778,-0.5624 -1.209792,-0.124 -2.425092,-0.188 -3.641216,-0.188 -0.0364,0.0024 -0.07292,0 -0.10936,0 -0.026,4e-4 -0.05196,0 -0.07812,0 z"
     id="path2"
     inkscape:connector-curvature="0" />
  <path
     style="fill:#1590cf;stroke-width:4"
     d="m 95.835144,16.0176 c -0.1146,4e-4 -0.2292,0 -0.3438,0 -0.887184,0 -1.773352,0.072 -2.656684,0.156 -0.67742,0.06 -1.349744,0.144 -2.023764,0.24 -0.52536,0.076 -1.049012,0.16 -1.570568,0.26 -0.72088,0.136 -1.43572,0.3 -2.148788,0.4844 -0.492476,0.124 -0.982248,0.26 -1.468988,0.406 -0.666896,0.2 -1.328168,0.4224 -1.9847,0.664 -0.592172,0.22 -1.178408,0.4588 -1.758096,0.7112 -0.507836,0.22 -1.0166,0.4276 -1.515872,0.6716 -0.84552,0.4156 -1.674416,0.8636 -2.484776,1.344 -0.21232,0.124 -0.4305,0.236 -0.640728,0.368 -10.687748,6.5344 -17.210076,18.154 -17.221536,30.68 -1.784,18.0256 17.632664,24.746 16.002596,37.9612 -0.915816,7.4248 -9.15268,10.0392 -20.425192,10.0392 -11.293472,-0.5392 -17.72401,-3.53 -17.115422,-13.7928 0.654878,-2.516 2.070958,-4.9348 4.201658,-6.9492 3.6976,-3.4956 6.551768,-3.948 10.165716,-1.6172 3.107824,2.004 3.252356,4.2144 1.8184,9 -1.141344,3.8088 -0.0244,4.5008 3.430248,2.1092 3.09666,-2.1436 5.499324,-6.6332 6.172872,-11.5468 0.3444,-2.5124 0.1726,-3.392 -0.929836,-4.8832 -0.7398,-1.0008 -1.767908,-3.2396 -2.289436,-4.4872 -0.663104,-1.5868 -1.509172,-2.4068 -2.80514,-2.7268 -1.019168,-0.252 -2.605512,-1.2824 -3.531824,-2.2888 -1.493884,-1.6236 -2.016596,-1.792 -4.617936,-1.5 -1.802292,0.204 -3.10852,0.044 -3.383364,-0.4 -1.22268,-1.978 -3.556064,-0.5672 -9.9313,5.9844 -9.870482,10.144 -9.623336,16.7724 -7.775076,26.2536 5.415775,14.4052 14.504964,22.1052 29.247124,22.844 5.76656,0.288 14.020824,-3.6948 17.096524,-5.586 1.320892,-0.812 3.649628,-2.6248 5.172716,-4.0232 2.990484,-2.7444 3.98806,-2.7124 3.0083,0.092 -0.675268,1.9336 -2.801192,3.4392 -13.963204,9.8748 -8.924648,5.1456 -14.310616,9.9176 -15.908836,14.1016 -1.753484,4.5912 -1.506364,8.9068 0.750124,13.0396 2.293892,4.2012 4.469568,6.0584 11.853488,10.1408 7.75982,4.29 9.68746,5.822 10.18134,8.0704 0.943636,4.296 -4.052992,8.2768 -10.145184,9.3828 -3.08382,0.5596 -3.006656,1.988 0.19536,3.7032 4.243212,2.2728 9.24398,1.3088 15.247752,-2.7888 2.08902,-1.4256 3.965108,-2.856 4.16474,-3.18 0.8495,-1.374 2.242552,-8.0188 2.242552,-10.7032 0,-3.4256 -1.979608,-8.4936 -4.055344,-9.5412 -0.801292,-0.4044 -2.232892,-1.6444 -3.180204,-2.7576 -1.663872,-1.954 -0.27968,-2.024 -4.688444,-1.844 -4.413956,0.18 -4.644376,0.12 -7.01676,-2.0544 -2.065816,-1.8928 -2.453524,-1.87 -2.453524,-4.0844 0,-3.6268 2.498304,-6.1196 7.938788,-7.93 6.27126,-2.0864 13.619888,-6.6292 17.526284,-10.828 l 3.445872,-3.6952 1.742468,2.2576 c 4.13667,5.3596 7.32408,8.2652 13.40843,12.2268 11.53035,7.5088 15.14881,11.1256 13.34591,16.5876 -1.20555,3.652 -3.39422,5.2032 -7.79814,5.5232 -7.23689,0.5232 -12.32627,-2.212 -12.86927,-8.7592 -0.25596,-3.0856 -0.12788,-3.502 1.38303,-4.492 0.99417,-0.6688 2.19903,-0.916 2.99268,-0.664 3.73521,1.1852 5.37252,-2.3216 2.23474,-4.7892 -1.48865,-1.1708 -2.28557,-1.2852 -6.64952,-0.9452 -8.333996,0.6512 -10.46954,3.3796 -11.240588,11.2032 -0.710192,7.2064 0.748172,11.3848 5.579036,15.992 3.754972,3.58 3.117552,3.6684 6.044422,3.3364 2.00853,-0.224 3.70976,0.001 5.14927,0.6876 3.05414,1.456 13.2127,0.256 18.0967,-2.1328 4.72536,-2.312 8.99747,-7.1736 10.00943,-11.3912 1.93232,-8.0536 -1.73834,-14.8388 -13.14275,-24.2736 -11.35001,-9.3892 -12.29307,-10.2416 -13.51783,-12.25 -1.23916,-2.0316 -1.66723,-4.93 -0.72668,-4.93 5.85026,5.8148 13.98439,9.6608 21.36285,11.1408 1.20098,0.172 2.13788,0.3 2.95586,0.364 14.00782,-0.08 23.72562,-7.5044 27.95074,-15.8228 1.75156,-3.558 2.05578,-4.87 2.02377,-8.8444 -0.0485,-6.28 -1.57821,-10.29 -7.46997,-19.6328 -7.2799,-11.5436 -7.2508,-11.4736 -7.2668,-17.7736 -0.0192,-6.8152 2.16684,-9.636 7.28375,-14.6088 1.94327,-1.8888 3.53182,-3.9444 3.53182,-4.5708 0,-1.7928 -3.59519,-3.3028 -6.72765,-2.828 -1.46957,0.224 -3.92209,0.5696 -5.45402,0.7736 -2.0789,0.276 -3.05807,0.8052 -3.86,2.0856 -0.59098,0.9436 -2.98345,2.5464 -4.33795,4.054 -1.63315,1.818 -2.46134,3.37 -2.46134,4.5944 0,1.1316 -0.63203,2.434 -1.62527,3.3672 -1.25032,1.174 -1.61744,2.1716 -1.61744,4.3592 0,1.5604 -0.44654,3.7028 -0.99235,4.758 -1.14239,2.2088 -0.79068,3.1992 2.60979,7.414 5.0353,8.6788 14.94893,16.2096 14.46329,26.3048 -0.38772,8.0596 -7.87157,10.332 -13.89603,10.2896 -10.33564,-0.056 -20.58079,-6.3404 -20.15172,-16.6332 0.56512,-13.5564 15.76384,-22.5108 16.0026,-35.3676 -0.0164,-8.5768 -3.09483,-16.8664 -8.6811,-23.3752 -0.0622,-0.076 -0.1248,-0.144 -0.18752,-0.22 -0.7021,-0.8088 -1.43993,-1.5856 -2.21129,-2.3284 -0.32364,-0.316 -0.65095,-0.6216 -0.98454,-0.9216 -0.53075,-0.472 -1.07535,-0.928 -1.63307,-1.3672 -0.50089,-0.4 -1.00497,-0.788 -1.52369,-1.1564 -0.44886,-0.312 -0.90478,-0.6144 -1.36741,-0.9064 -0.59838,-0.384 -1.19538,-0.7636 -1.81279,-1.1092 -0.46854,-0.256 -0.94269,-0.5 -1.42211,-0.7344 -0.631,-0.316 -1.26002,-0.636 -1.90656,-0.914 -0.52128,-0.216 -1.04756,-0.4188 -1.57838,-0.6096 -0.61406,-0.232 -1.21956,-0.4756 -1.84405,-0.6716 -0.65379,-0.196 -1.31302,-0.372 -1.97689,-0.5312 -0.53877,-0.136 -1.07345,-0.296 -1.61744,-0.4064 -1.19561,-0.248 -2.4031,-0.4364 -3.61778,-0.5624 C 98.454128,16.064 97.238828,16 96.022704,16 c -0.0364,0.0024 -0.07292,0 -0.10936,0 -0.026,4e-4 -0.05196,0 -0.07812,0 z"
     id="path4"
     inkscape:connector-curvature="0" />
  <circle
     style="opacity:0.1;stroke-width:4;filter:url(#filter884)"
     cx="90"
     cy="55.999199"
     r="18"
     id="circle6" />
  <circle
     style="fill:#ffffff;stroke-width:4"
     cx="90"
     cy="53.999199"
     r="18"
     id="circle8" />
  <circle
     style="fill:#3f3f3f;stroke-width:4"
     cx="88"
     cy="55.999199"
     r="4"
     id="circle10" />
  <path
     style="fill:#ffffff;stroke-width:4;opacity:0.2"
     d="M 95.835938 16 L 95.835938 16.017578 C 95.721338 16.017978 95.606788 16.017578 95.492188 16.017578 C 94.605003 16.017578 93.717316 16.089828 92.833984 16.173828 C 92.156564 16.233828 91.484567 16.318062 90.810547 16.414062 C 90.285187 16.490063 89.76179 16.573828 89.240234 16.673828 C 88.519354 16.809828 87.804865 16.973803 87.091797 17.158203 C 86.599321 17.282203 86.109787 17.418453 85.623047 17.564453 C 84.956151 17.764453 84.295204 17.986916 83.638672 18.228516 C 83.0465 18.448516 82.458594 18.687053 81.878906 18.939453 C 81.37107 19.159453 80.862553 19.367328 80.363281 19.611328 C 79.517761 20.026928 78.689266 20.474678 77.878906 20.955078 C 77.666586 21.079078 77.448509 21.190266 77.238281 21.322266 C 66.550533 27.856666 60.029038 39.475953 60.017578 52.001953 C 59.929854 52.888323 59.906238 53.740404 59.916016 54.574219 C 59.93275 54.059538 59.964721 53.537972 60.017578 53.003906 C 60.029038 40.477906 66.550533 28.856666 77.238281 22.322266 C 77.448509 22.190266 77.666586 22.079078 77.878906 21.955078 C 78.689266 21.474678 79.517761 21.026928 80.363281 20.611328 C 80.862553 20.367328 81.37107 20.159453 81.878906 19.939453 C 82.458594 19.687053 83.0465 19.448516 83.638672 19.228516 C 84.295204 18.986916 84.956151 18.764453 85.623047 18.564453 C 86.109787 18.418453 86.599321 18.282203 87.091797 18.158203 C 87.804865 17.973803 88.519354 17.809828 89.240234 17.673828 C 89.76179 17.573828 90.285187 17.490063 90.810547 17.414062 C 91.484567 17.318062 92.156564 17.233828 92.833984 17.173828 C 93.717316 17.089828 94.605003 17.017578 95.492188 17.017578 C 95.606788 17.017578 95.721338 17.017978 95.835938 17.017578 L 95.835938 17 C 95.862098 17 95.888063 17.0004 95.914062 17 C 95.950503 17 95.987037 17.0024 96.023438 17 C 97.239561 17 98.454271 17.0635 99.664062 17.1875 C 100.87874 17.3135 102.08564 17.502 103.28125 17.75 C 103.82524 17.8604 104.35967 18.02025 104.89844 18.15625 C 105.56231 18.31545 106.22316 18.4915 106.87695 18.6875 C 107.50144 18.8835 108.10664 19.127375 108.7207 19.359375 C 109.25152 19.550175 109.77755 19.75275 110.29883 19.96875 C 110.94537 20.24675 111.57408 20.566813 112.20508 20.882812 C 112.6845 21.117213 113.15841 21.361187 113.62695 21.617188 C 114.24436 21.962788 114.84107 22.342562 115.43945 22.726562 C 115.90208 23.018562 116.35778 23.320812 116.80664 23.632812 C 117.32536 24.001213 117.82919 24.389063 118.33008 24.789062 C 118.8878 25.228263 119.43409 25.68425 119.96484 26.15625 C 120.29843 26.45625 120.62558 26.762125 120.94922 27.078125 C 121.72058 27.820925 122.45806 28.59745 123.16016 29.40625 C 123.22288 29.48225 123.28546 29.550953 123.34766 29.626953 C 128.78253 35.959354 131.83468 43.978499 132.01172 52.306641 C 132.01551 52.204541 132.02739 52.104546 132.0293 52.001953 C 132.0129 43.425153 128.93393 35.135753 123.34766 28.626953 C 123.28546 28.550953 123.22288 28.48225 123.16016 28.40625 C 122.45806 27.59745 121.72058 26.820925 120.94922 26.078125 C 120.62558 25.762125 120.29843 25.45625 119.96484 25.15625 C 119.43409 24.68425 118.8878 24.228263 118.33008 23.789062 C 117.82919 23.389063 117.32536 23.001212 116.80664 22.632812 C 116.35778 22.320812 115.90208 22.018563 115.43945 21.726562 C 114.84107 21.342562 114.24436 20.962788 113.62695 20.617188 C 113.15841 20.361187 112.6845 20.117213 112.20508 19.882812 C 111.57408 19.566813 110.94537 19.24675 110.29883 18.96875 C 109.77755 18.75275 109.25152 18.550175 108.7207 18.359375 C 108.10664 18.127375 107.50144 17.8835 106.87695 17.6875 C 106.22316 17.4915 105.56231 17.31545 104.89844 17.15625 C 104.35967 17.02025 103.82524 16.8604 103.28125 16.75 C 102.08564 16.502 100.87874 16.3135 99.664062 16.1875 C 98.45427 16.0635 97.239561 16 96.023438 16 C 95.987037 16.0024 95.950503 16 95.914062 16 C 95.888063 16.0004 95.862098 16 95.835938 16 z M 154.53711 35.914062 C 154.13902 35.914712 153.74117 35.942603 153.34961 36.001953 C 151.88004 36.225953 149.42646 36.571391 147.89453 36.775391 C 145.81563 37.051391 144.83709 37.580928 144.03516 38.861328 C 143.44418 39.804928 141.05177 41.408416 139.69727 42.916016 C 138.06412 44.734016 137.23633 46.285366 137.23633 47.509766 C 137.23633 48.641366 136.60457 49.943753 135.61133 50.876953 C 134.36101 52.050953 133.99219 53.048728 133.99219 55.236328 C 133.99219 56.796728 133.54581 58.938941 133 59.994141 C 132.53329 60.896519 132.33657 61.601784 132.47461 62.400391 C 132.5584 61.96008 132.73271 61.510945 133 60.994141 C 133.54581 59.938941 133.99219 57.796728 133.99219 56.236328 C 133.99219 54.048728 134.36101 53.050953 135.61133 51.876953 C 136.60457 50.943753 137.23633 49.641366 137.23633 48.509766 C 137.23633 47.285366 138.06412 45.734016 139.69727 43.916016 C 141.05177 42.408416 143.44418 40.804928 144.03516 39.861328 C 144.83709 38.580928 145.81563 38.051391 147.89453 37.775391 C 149.42646 37.571391 151.88004 37.225953 153.34961 37.001953 C 156.13558 36.579672 159.28015 37.729668 159.94336 39.25 C 160.02114 39.080827 160.07617 38.93132 160.07617 38.830078 C 160.07617 37.261378 157.32375 35.909518 154.53711 35.914062 z M 149.26758 58.685547 C 149.2667 58.795472 149.2614 58.897708 149.26172 59.009766 C 149.27772 65.309766 149.24744 65.239603 156.52734 76.783203 C 162.3886 86.077636 163.93056 90.097956 163.99414 96.322266 C 163.99669 96.028227 164.00068 95.743452 163.99805 95.416016 C 163.94955 89.136016 162.4191 85.126003 156.52734 75.783203 C 149.54033 64.704033 149.29088 64.268077 149.26758 58.685547 z M 45.539062 60.099609 C 44.068141 59.969034 41.560724 61.990597 36.779297 66.904297 C 29.799986 74.077009 27.888629 79.495608 28.015625 85.404297 C 28.123646 79.87603 30.195091 74.670955 36.779297 67.904297 C 43.154533 61.352697 45.488258 59.941922 46.710938 61.919922 C 46.985781 62.363922 48.291458 62.524313 50.09375 62.320312 C 52.69509 62.028312 53.217053 62.196712 54.710938 63.820312 C 55.637249 64.826713 57.224973 65.857375 58.244141 66.109375 C 59.540109 66.429375 60.385724 67.249138 61.048828 68.835938 C 61.570356 70.083537 62.598091 72.323419 63.337891 73.324219 C 63.995668 74.213955 64.317197 74.891254 64.400391 75.822266 C 64.481891 74.31823 64.203751 73.493463 63.337891 72.322266 C 62.598091 71.321466 61.570356 69.083538 61.048828 67.835938 C 60.385724 66.249138 59.540109 65.429375 58.244141 65.109375 C 57.224973 64.857375 55.637249 63.826712 54.710938 62.820312 C 53.217053 61.196712 52.69509 61.028312 50.09375 61.320312 C 48.291458 61.524313 46.985781 61.363922 46.710938 60.919922 C 46.405268 60.425422 46.02937 60.143134 45.539062 60.099609 z M 55.509766 82.533203 C 55.447184 83.667655 55.158208 84.9954 54.664062 86.644531 C 54.281101 87.92252 54.158576 88.840531 54.287109 89.417969 C 54.342006 88.92329 54.450478 88.35729 54.664062 87.644531 C 55.309549 85.490322 55.630287 83.859853 55.509766 82.533203 z M 38.460938 88.232422 C 38.342505 97.657535 44.692164 100.48342 55.59375 101.00391 C 66.866262 101.00391 75.103715 98.389644 76.019531 90.964844 C 76.104459 90.276325 76.119062 89.608901 76.095703 88.953125 C 76.080987 89.286997 76.06175 89.622568 76.019531 89.964844 C 75.103715 97.389644 66.866262 100.00391 55.59375 100.00391 C 45.082618 99.502059 38.792481 96.868089 38.460938 88.232422 z M 116.02539 88.453125 C 115.65604 98.695555 125.87055 104.94806 136.17773 105.00391 C 142.20219 105.04631 149.6865 102.77249 150.07422 94.712891 C 150.09373 94.307384 150.09119 93.907238 150.07812 93.509766 C 150.07579 93.577746 150.0775 93.644677 150.07422 93.712891 C 149.6865 101.77249 142.20219 104.04435 136.17773 104.00195 C 126.21056 103.94795 116.33258 98.100658 116.02539 88.453125 z M 83.806641 105.5293 C 83.74623 105.80234 83.658248 106.11527 83.529297 106.48438 C 82.854029 108.41797 80.726465 109.92378 69.564453 116.35938 C 60.639805 121.50498 55.25447 126.27694 53.65625 130.46094 C 52.864776 132.53328 52.502818 134.54705 52.527344 136.51562 C 52.621768 134.86654 52.998694 133.18264 53.65625 131.46094 C 55.25447 127.27694 60.639805 122.50498 69.564453 117.35938 C 80.726465 110.92378 82.854029 109.41993 83.529297 107.48633 C 83.886144 106.46491 83.975154 105.81497 83.806641 105.5293 z M 109.24023 110.15234 C 109.06421 111.09505 109.5275 113.02743 110.43164 114.50977 C 111.6564 116.51817 112.59921 117.37057 123.94922 126.75977 C 133.12744 134.35286 137.28988 140.23047 137.56055 146.43359 C 137.712 139.85523 133.61904 133.75955 123.94922 125.75977 C 112.59921 116.37057 111.6564 115.51817 110.43164 113.50977 C 109.78261 112.44568 109.36414 111.151 109.24023 110.15234 z M 106.125 132.17773 C 105.41335 132.19653 104.54411 132.25289 103.45312 132.33789 C 95.119129 132.98909 92.983939 135.71742 92.212891 143.54102 C 92.086799 144.82048 92.033419 145.99951 92.050781 147.10742 C 92.069436 146.2945 92.124117 145.44182 92.212891 144.54102 C 92.983939 136.71742 95.119129 133.98909 103.45312 133.33789 C 107.81707 132.99789 108.61487 133.1124 110.10352 134.2832 C 111.04777 135.02578 111.55077 135.86015 111.70312 136.63477 C 111.93213 135.63784 111.47459 134.36144 110.10352 133.2832 C 108.98703 132.4051 108.25996 132.12135 106.125 132.17773 z M 66.769531 138.44531 C 66.762495 138.57803 66.751953 138.70983 66.751953 138.8457 C 66.751953 141.0601 67.139262 141.03689 69.205078 142.92969 C 71.577462 145.10409 71.8087 145.16438 76.222656 144.98438 C 80.63142 144.80437 79.246284 144.87412 80.910156 146.82812 C 81.857468 147.94132 83.290505 149.18154 84.091797 149.58594 C 86.083541 150.59115 87.966424 155.28383 88.117188 158.68945 C 88.126768 158.50222 88.146484 158.28775 88.146484 158.12695 C 88.146484 154.70135 86.167533 149.63354 84.091797 148.58594 C 83.290505 148.18154 81.857468 146.94132 80.910156 145.82812 C 79.246284 143.87412 80.63142 143.80437 76.222656 143.98438 C 71.8087 144.16438 71.577462 144.10409 69.205078 141.92969 C 67.350664 140.23058 66.852892 140.06112 66.769531 138.44531 z M 103.41406 141.82617 C 103.36483 142.39277 103.40186 143.13956 103.49219 144.22852 C 104.03519 150.77572 109.12444 153.50953 116.36133 152.98633 C 120.76525 152.66633 122.95461 151.11489 124.16016 147.46289 C 124.50509 146.41788 124.64752 145.44229 124.57812 144.49219 C 124.52692 145.12789 124.3853 145.78081 124.16016 146.46289 C 122.95461 150.11489 120.76525 151.66633 116.36133 151.98633 C 109.12444 152.50953 104.03519 149.77572 103.49219 143.22852 C 103.44408 142.64855 103.4284 142.23908 103.41406 141.82617 z M 76.523438 163.3125 C 76.108939 166.96339 71.62274 170.12883 66.296875 171.0957 C 64.378271 171.44386 63.683368 172.12723 64.203125 173.00781 C 64.497498 172.61033 65.190621 172.29645 66.296875 172.0957 C 72.103951 171.04146 76.903036 167.37398 76.523438 163.3125 z "
     id="path863" />
</svg>
