<?xml version="1.0" encoding="UTF-8" standalone="no"?>
<svg
   xmlns:dc="http://purl.org/dc/elements/1.1/"
   xmlns:cc="http://creativecommons.org/ns#"
   xmlns:rdf="http://www.w3.org/1999/02/22-rdf-syntax-ns#"
   xmlns:svg="http://www.w3.org/2000/svg"
   xmlns="http://www.w3.org/2000/svg"
   xmlns:sodipodi="http://sodipodi.sourceforge.net/DTD/sodipodi-0.dtd"
   xmlns:inkscape="http://www.inkscape.org/namespaces/inkscape"
   width="192"
   height="192"
   version="1"
   id="svg18"
   sodipodi:docname="miui_scanner.svg"
   inkscape:version="0.92.3 (2405546, 2018-03-11)">
  <metadata
     id="metadata24">
    <rdf:RDF>
      <cc:Work
         rdf:about="">
        <dc:format>image/svg+xml</dc:format>
        <dc:type
           rdf:resource="http://purl.org/dc/dcmitype/StillImage" />
        <dc:title></dc:title>
      </cc:Work>
    </rdf:RDF>
  </metadata>
  <defs
     id="defs22">
    <filter
       inkscape:collect="always"
       style="color-interpolation-filters:sRGB"
       id="filter892"
       x="-0.054"
       width="1.108"
       y="-0.0432"
       height="1.0864">
      <feGaussianBlur
         inkscape:collect="always"
         stdDeviation="2.88"
         id="feGaussianBlur894" />
    </filter>
    <filter
       inkscape:collect="always"
       style="color-interpolation-filters:sRGB"
       id="filter908"
       x="-0.0264"
       width="1.0528"
       y="-0.264"
       height="1.528">
      <feGaussianBlur
         inkscape:collect="always"
         stdDeviation="1.76"
         id="feGaussianBlur910" />
    </filter>
    <filter
       inkscape:collect="always"
       style="color-interpolation-filters:sRGB"
       id="filter926"
       x="-0.056727273"
       width="1.1134545"
       y="-0.0416"
       height="1.0832">
      <feGaussianBlur
         inkscape:collect="always"
         stdDeviation="2.08"
         id="feGaussianBlur928" />
    </filter>
  </defs>
  <sodipodi:namedview
     pagecolor="#ffffff"
     bordercolor="#666666"
     borderopacity="1"
     objecttolerance="10"
     gridtolerance="10"
     guidetolerance="10"
     inkscape:pageopacity="0"
     inkscape:pageshadow="2"
     inkscape:window-width="1920"
     inkscape:window-height="1018"
     id="namedview20"
     showgrid="false"
     inkscape:zoom="2.82"
     inkscape:cx="24"
     inkscape:cy="94.921986"
     inkscape:window-x="0"
     inkscape:window-y="32"
     inkscape:window-maximized="1"
     inkscape:current-layer="svg18" />
  <rect
     style="opacity:0.2;stroke-width:4;filter:url(#filter892)"
     width="160"
     height="128"
     x="-180"
     y="-160"
     rx="8"
     ry="8"
     transform="matrix(0,-1,-1,0,0,0)"
     id="rect2" />
  <rect
     style="fill:#4f4f4f;stroke-width:4"
     width="160"
     height="128"
     x="-176"
     y="-160"
     rx="8"
     ry="8"
     transform="matrix(0,-1,-1,0,0,0)"
     id="rect4" />
  <rect
     id="rect912"
     transform="matrix(0,-1,-1,0,0,0)"
     ry="0"
     rx="0"
     y="-140"
     x="-160"
     height="88"
     width="120"
     style="opacity:0.2;fill:#000000;stroke-width:4;filter:url(#filter926)" />
  <rect
     style="fill:#e4e4e4;stroke-width:4"
     width="120"
     height="88"
     x="-156"
     y="-140"
     rx="0"
     ry="0"
     transform="matrix(0,-1,-1,0,0,0)"
     id="rect6" />
  <path
     style="opacity:0.1;fill:#ffffff;stroke-width:4"
     d="M 40 16 C 35.568 16 32 19.568 32 24 L 32 25 C 32 20.568 35.568 17 40 17 L 152 17 C 156.432 17 160 20.568 160 25 L 160 24 C 160 19.568 156.432 16 152 16 L 40 16 z "
     id="path8" />
  <rect
     style="opacity:0.2;stroke-width:4;filter:url(#filter908)"
     width="160"
     height="16"
     x="16"
     y="66"
     rx="4"
     ry="4"
     id="rect10" />
  <rect
     style="fill:#f34235;stroke-width:4"
     width="160"
     height="16"
     x="16"
     y="64"
     rx="4"
     ry="4"
     id="rect12" />
  <rect
     style="opacity:0.2;fill:#ffffff;stroke-width:2"
     width="1"
     height="88"
     x="-37.000008"
     y="-140"
     rx="0"
     ry="0"
     transform="matrix(0,-1,-1,0,0,0)"
     id="rect16" />
</svg>
