<?xml version="1.0" encoding="UTF-8" standalone="no"?>
<svg
   xmlns:dc="http://purl.org/dc/elements/1.1/"
   xmlns:cc="http://creativecommons.org/ns#"
   xmlns:rdf="http://www.w3.org/1999/02/22-rdf-syntax-ns#"
   xmlns:svg="http://www.w3.org/2000/svg"
   xmlns="http://www.w3.org/2000/svg"
   xmlns:sodipodi="http://sodipodi.sourceforge.net/DTD/sodipodi-0.dtd"
   xmlns:inkscape="http://www.inkscape.org/namespaces/inkscape"
   width="192"
   height="192"
   version="1"
   id="svg81"
   sodipodi:docname="apps_birthdaydroid.svg"
   inkscape:version="0.92.3 (2405546, 2018-03-11)">
  <metadata
     id="metadata87">
    <rdf:RDF>
      <cc:Work
         rdf:about="">
        <dc:format>image/svg+xml</dc:format>
        <dc:type
           rdf:resource="http://purl.org/dc/dcmitype/StillImage" />
      </cc:Work>
    </rdf:RDF>
  </metadata>
  <defs
     id="defs85">
    <filter
       inkscape:collect="always"
       style="color-interpolation-filters:sRGB"
       id="filter946"
       x="-0.0342"
       width="1.0684"
       y="-0.080470588"
       height="1.1609412">
      <feGaussianBlur
         inkscape:collect="always"
         stdDeviation="2.28"
         id="feGaussianBlur948" />
    </filter>
    <filter
       inkscape:collect="always"
       style="color-interpolation-filters:sRGB"
       id="filter962"
       x="-0.029504224"
       width="1.0590084"
       y="-0.12864691"
       height="1.2572938">
      <feGaussianBlur
         inkscape:collect="always"
         stdDeviation="1.5691406"
         id="feGaussianBlur964" />
    </filter>
    <filter
       inkscape:collect="always"
       style="color-interpolation-filters:sRGB"
       id="filter1004"
       x="-0.029516602"
       width="1.0590332"
       y="-0.12841209"
       height="1.2568242">
      <feGaussianBlur
         inkscape:collect="always"
         stdDeviation="1.5742188"
         id="feGaussianBlur1006" />
    </filter>
    <filter
       inkscape:collect="always"
       style="color-interpolation-filters:sRGB"
       id="filter1036"
       x="-0.029516602"
       width="1.0590332"
       y="-0.12841209"
       height="1.2568242">
      <feGaussianBlur
         inkscape:collect="always"
         stdDeviation="1.5742188"
         id="feGaussianBlur1038" />
    </filter>
    <filter
       inkscape:collect="always"
       style="color-interpolation-filters:sRGB"
       id="filter1068"
       x="-0.0345"
       width="1.069"
       y="-0.078857143"
       height="1.1577143">
      <feGaussianBlur
         inkscape:collect="always"
         stdDeviation="1.84"
         id="feGaussianBlur1070" />
    </filter>
    <filter
       inkscape:collect="always"
       style="color-interpolation-filters:sRGB"
       id="filter1084"
       x="-0.0345"
       width="1.069"
       y="-0.078857143"
       height="1.1577143">
      <feGaussianBlur
         inkscape:collect="always"
         stdDeviation="1.84"
         id="feGaussianBlur1086" />
    </filter>
    <filter
       inkscape:collect="always"
       style="color-interpolation-filters:sRGB"
       id="filter1104"
       x="-0.033428571"
       width="1.0668571"
       y="-0.085090909"
       height="1.1701818">
      <feGaussianBlur
         inkscape:collect="always"
         stdDeviation="1.56"
         id="feGaussianBlur1106" />
    </filter>
    <filter
       inkscape:collect="always"
       style="color-interpolation-filters:sRGB"
       id="filter1120"
       x="-0.037714286"
       width="1.0754286"
       y="-0.066"
       height="1.132">
      <feGaussianBlur
         inkscape:collect="always"
         stdDeviation="0.44"
         id="feGaussianBlur1122" />
    </filter>
  </defs>
  <sodipodi:namedview
     pagecolor="#ffffff"
     bordercolor="#666666"
     borderopacity="1"
     objecttolerance="10"
     gridtolerance="10"
     guidetolerance="10"
     inkscape:pageopacity="0"
     inkscape:pageshadow="2"
     inkscape:window-width="1920"
     inkscape:window-height="1018"
     id="namedview83"
     showgrid="false"
     inkscape:zoom="1"
     inkscape:cx="96"
     inkscape:cy="142.18975"
     inkscape:window-x="0"
     inkscape:window-y="32"
     inkscape:window-maximized="1"
     inkscape:current-layer="svg81" />
  <ellipse
     ry="34"
     rx="80"
     cy="146"
     cx="96"
     style="opacity:0.2;stroke-width:4;filter:url(#filter946)"
     id="ellipse1068" />
  <ellipse
     id="ellipse3"
     ry="34"
     rx="80"
     cy="142"
     cx="96"
     style="fill:#1c58a6;stroke-width:4" />
  <path
     inkscape:connector-curvature="0"
     id="path5"
     d="M 159.85156,138.72656 A 72,32 0 0 1 96,156 72,32 0 0 1 32.210938,138.76562 64,34 0 0 0 52.875,161.58594 72,32 0 0 0 96,168 a 72,32 0 0 0 43.15625,-6.42969 64,34 0 0 0 20.69531,-22.84375 z"
     style="opacity:0.2;stroke-width:4;filter:url(#filter962)" />
  <path
     inkscape:connector-curvature="0"
     id="path7"
     d="M 159.85156,134.72656 A 72,32 0 0 1 96,152 72,32 0 0 1 32.210938,134.76562 64,34 0 0 0 52.875,157.58594 72,32 0 0 0 96,164 a 72,32 0 0 0 43.15625,-6.42969 64,34 0 0 0 20.69531,-22.84375 z"
     style="fill:#bb7e54;stroke-width:4" />
  <path
     style="opacity:0.2;fill:#000000;stroke-width:4;filter:url(#filter1004)"
     d="M 160,126.57812 A 72,32 0 0 1 96,144 72,32 0 0 1 32,126.60156 V 136 h 0.04688 A 64,34 0 0 0 32,136.51562 64,34 0 0 0 32.21875,138.78906 72,32 0 0 0 96,156 72,32 0 0 0 159.84375,138.75781 64,34 0 0 0 160,136.51562 64,34 0 0 0 159.96875,136 H 160 Z"
     id="path966"
     inkscape:connector-curvature="0" />
  <path
     inkscape:connector-curvature="0"
     id="path11"
     d="M 160,74.578124 A 72,32 0 0 1 96,92 72,32 0 0 1 32,74.601564 V 86.593752 A 72,32 0 0 0 96,104 72,32 0 0 0 160,86.640624 Z"
     style="fill:#ffdd7d;stroke-width:4" />
  <path
     inkscape:connector-curvature="0"
     id="path13"
     d="M 160,122.57812 A 72,32 0 0 1 96,140 72,32 0 0 1 32,122.60156 V 132 h 0.04688 A 64,34 0 0 0 32,132.51562 64,34 0 0 0 32.21875,134.78906 72,32 0 0 0 96,152 72,32 0 0 0 159.84375,134.75781 64,34 0 0 0 160,132.51562 64,34 0 0 0 159.96875,132 H 160 Z"
     style="fill:#ffdd7d;stroke-width:4" />
  <path
     inkscape:connector-curvature="0"
     id="path15"
     d="M 160,110.57812 A 72,32 0 0 1 96,128 72,32 0 0 1 32,110.60156 v 11.99219 A 72,32 0 0 0 96,140 72,32 0 0 0 160,122.64062 Z"
     style="fill:#bb7e54;stroke-width:4" />
  <path
     style="opacity:0.2;fill:#000000;stroke-width:4;filter:url(#filter1036)"
     d="M 160,102.57812 A 72,32 0 0 1 96,120 72,32 0 0 1 32,102.60156 v 11.99219 A 72,32 0 0 0 96,132 72,32 0 0 0 160,114.64062 Z"
     id="path1010"
     inkscape:connector-curvature="0" />
  <path
     inkscape:connector-curvature="0"
     id="path19"
     d="M 160,98.578124 A 72,32 0 0 1 96,116 72,32 0 0 1 32,98.601564 V 110.59375 A 72,32 0 0 0 96,128 72,32 0 0 0 160,110.64062 Z"
     style="fill:#ffdd7d;stroke-width:4" />
  <path
     inkscape:connector-curvature="0"
     id="path21"
     d="M 160,86.578124 A 72,32 0 0 1 96,104 72,32 0 0 1 32,86.601564 V 98.593752 A 72,32 0 0 0 96,116 72,32 0 0 0 160,98.640624 Z"
     style="fill:#bb7e54;stroke-width:4" />
  <path
     inkscape:connector-curvature="0"
     id="path23"
     d="m 32,80 v 1.101564 53.796876 c 1.180005,0.6844 2.53228,1.10156 4,1.10156 4.432,0 8,-3.568 8,-8 v -8 -6 c 0,-3.324 2.676,-6 6,-6 3.324,0 6,2.676 6,6 v 6 8 c 0,4.432 3.568,8 8,8 4.432,0 8,-3.568 8,-8 v -8 -6 c 0,-3.324 2.676,-6 6,-6 3.324,0 6,2.676 6,6 v 6 4 c 0,2.216 1.784,4 4,4 2.216,0 4,-1.784 4,-4 v -4 -2 c 0,-3.324 2.676,-6 6,-6 3.324,0 6,2.676 6,6 v 2 8 c 0,4.432 3.568,8 8,8 4.432,0 8,-3.568 8,-8 v -8 -6 c 0,-3.324 2.676,-6 6,-6 3.324,0 6,2.676 6,6 v 6 4 c 0,2.216 1.784,4 4,4 2.216,0 4,-1.784 4,-4 v -4 -2 c 0,-1.108 0.892,-2 2,-2 1.108,0 2,0.892 2,2 v 2 8 c 0,4.432 3.568,8 8,8 4.432,0 8,-3.568 8,-8 V 120 88 80 H 152 136 112 88 64 36 Z"
     style="opacity:0.1;stroke-width:4;filter:url(#filter1068)" />
  <path
     inkscape:connector-curvature="0"
     id="path25"
     d="m 32,76 v 1.101564 53.796876 c 1.180005,0.6844 2.53228,1.10156 4,1.10156 4.432,0 8,-3.568 8,-8 v -8 -6 c 0,-3.324 2.676,-6 6,-6 3.324,0 6,2.676 6,6 v 6 8 c 0,4.432 3.568,8 8,8 4.432,0 8,-3.568 8,-8 v -8 -6 c 0,-3.324 2.676,-6 6,-6 3.324,0 6,2.676 6,6 v 6 4 c 0,2.216 1.784,4 4,4 2.216,0 4,-1.784 4,-4 v -4 -2 c 0,-3.324 2.676,-6 6,-6 3.324,0 6,2.676 6,6 v 2 8 c 0,4.432 3.568,8 8,8 4.432,0 8,-3.568 8,-8 v -8 -6 c 0,-3.324 2.676,-6 6,-6 3.324,0 6,2.676 6,6 v 6 4 c 0,2.216 1.784,4 4,4 2.216,0 4,-1.784 4,-4 v -4 -2 c 0,-1.108 0.892,-2 2,-2 1.108,0 2,0.892 2,2 v 2 8 c 0,4.432 3.568,8 8,8 4.432,0 8,-3.568 8,-8 V 116 84 76 H 152 136 112 88 64 36 Z"
     style="fill:#b42152;stroke-width:4" />
  <ellipse
     ry="28"
     rx="64"
     cy="80"
     cx="96"
     style="opacity:0.2;stroke-width:4;filter:url(#filter1084)"
     id="ellipse981" />
  <ellipse
     ry="28"
     rx="64"
     cy="76"
     cx="96"
     style="fill:#e43c74;stroke-width:4"
     id="ellipse839" />
  <g
     id="g39"
     transform="matrix(4,0,0,4,0,4)"
     style="opacity:0.2;filter:url(#filter1120)">
    <rect
       id="rect29"
       ry="1.3"
       rx="1.3"
       y="14"
       x="16"
       height="10"
       width="3" />
    <rect
       id="rect31"
       ry="1.3"
       rx="1.3"
       y="10"
       x="10"
       height="10"
       width="3" />
    <rect
       id="rect33"
       ry="1.3"
       rx="1.3"
       y="8"
       x="23"
       height="10"
       width="3" />
    <rect
       id="rect35"
       ry="1.3"
       rx="1.3"
       y="14"
       x="29"
       height="10"
       width="3" />
    <rect
       id="rect37"
       ry="1.3"
       rx="1.3"
       y="10"
       x="35"
       height="10"
       width="3" />
  </g>
  <g
     id="g53"
     style="fill:#e4e4e4"
     transform="scale(4)">
    <g
       id="g51"
       style="fill:#e4e4e4">
      <rect
         id="rect41"
         ry="1.3"
         rx="1.3"
         y="14"
         x="16"
         height="10"
         width="3"
         style="fill:#e4e4e4" />
      <rect
         id="rect43"
         ry="1.3"
         rx="1.3"
         y="10"
         x="10"
         height="10"
         width="3"
         style="fill:#e4e4e4" />
      <rect
         id="rect45"
         ry="1.3"
         rx="1.3"
         y="8"
         x="23"
         height="10"
         width="3"
         style="fill:#e4e4e4" />
      <rect
         id="rect47"
         ry="1.3"
         rx="1.3"
         y="14"
         x="29"
         height="10"
         width="3"
         style="fill:#e4e4e4" />
      <rect
         id="rect49"
         ry="1.3"
         rx="1.3"
         y="10"
         x="35"
         height="10"
         width="3"
         style="fill:#e4e4e4" />
    </g>
  </g>
  <path
     inkscape:connector-curvature="0"
     id="path55"
     d="m 98,16 c -3.313708,0 -6,10.686292 -6,14 0,3.313708 2.686292,6 6,6 3.31371,0 6,-2.686292 6,-6 0,-3.313708 -2.68629,-14 -6,-14 z m -52,8 c -3.313708,0 -6,10.686292 -6,14 0,3.313708 2.686292,6 6,6 3.313708,0 6,-2.686292 6,-6 0,-3.313708 -2.686292,-14 -6,-14 z m 100,0 c -3.31371,0 -6,10.686292 -6,14 0,3.313708 2.68629,6 6,6 3.31371,0 6,-2.686292 6,-6 0,-3.313708 -2.68629,-14 -6,-14 z M 70,40 c -3.313708,0 -6,10.686292 -6,14 0,3.313712 2.686292,6 6,6 3.313708,0 6,-2.686288 6,-6 0,-3.313708 -2.686292,-14 -6,-14 z m 52,0 c -3.31371,0 -6,10.686292 -6,14 0,3.313712 2.68629,6 6,6 3.31371,0 6,-2.686288 6,-6 0,-3.313708 -2.68629,-14 -6,-14 z"
     style="opacity:0.1;stroke-width:4;filter:url(#filter1104)" />
  <path
     inkscape:connector-curvature="0"
     id="path57"
     d="m 52,34 c 0,3.313708 -2.686292,6 -6,6 -3.313708,0 -6,-2.686292 -6,-6 0,-3.313708 2.686292,-14 6,-14 3.313708,0 6,10.686292 6,14 z"
     style="fill:#ff3f3f;stroke-width:4" />
  <path
     inkscape:connector-curvature="0"
     id="path59"
     d="M 46,28.001062 42,34 c 0,2.232828 1.767172,4 4,4 2.232828,0 4,-1.767172 4,-4 z"
     style="fill:#ffc557;stroke-width:4" />
  <path
     inkscape:connector-curvature="0"
     id="path61"
     d="m 76,49.998936 c 0,3.313712 -2.686292,6 -6,6 -3.313708,0 -6,-2.686288 -6,-6 0,-3.313708 2.686292,-13.999998 6,-13.999998 3.313708,0 6,10.68629 6,13.999998 z"
     style="fill:#ff3f3f;stroke-width:4" />
  <path
     inkscape:connector-curvature="0"
     id="path63"
     d="m 70,44 -4,5.998936 c 0,2.232828 1.767172,4 4,4 2.232828,0 4,-1.767172 4,-4 z"
     style="fill:#ffc557;stroke-width:4" />
  <path
     inkscape:connector-curvature="0"
     id="path65"
     d="m 104,25.998938 c 0,3.313708 -2.68629,6 -6,6 -3.313708,0 -6,-2.686292 -6,-6 0,-3.313709 2.686292,-14 6,-14 3.31371,0 6,10.686291 6,14 z"
     style="fill:#ff3f3f;stroke-width:4" />
  <path
     inkscape:connector-curvature="0"
     id="path67"
     d="m 98,20 -4,5.998938 c 0,2.232828 1.767172,4 4,4 2.23283,0 4,-1.767172 4,-4 z"
     style="fill:#ffc557;stroke-width:4" />
  <path
     inkscape:connector-curvature="0"
     id="path69"
     d="m 128,49.998936 c 0,3.313712 -2.68629,6 -6,6 -3.31371,0 -6,-2.686288 -6,-6 0,-3.313708 2.68629,-13.999998 6,-13.999998 3.31371,0 6,10.68629 6,13.999998 z"
     style="fill:#ff3f3f;stroke-width:4" />
  <path
     inkscape:connector-curvature="0"
     id="path71"
     d="m 122,44 -4,5.998936 c 0,2.232828 1.76717,4 4,4 2.23283,0 4,-1.767172 4,-4 z"
     style="fill:#ffc557;stroke-width:4" />
  <path
     inkscape:connector-curvature="0"
     id="path73"
     d="m 152,33.998938 c 0,3.313708 -2.68629,6 -6,6 -3.31371,0 -6,-2.686292 -6,-6 0,-3.313709 2.68629,-14 6,-14 3.31371,0 6,10.686291 6,14 z"
     style="fill:#ff3f3f;stroke-width:4" />
  <path
     inkscape:connector-curvature="0"
     id="path75"
     d="m 146,28 -4,5.998938 c 0,2.232828 1.76717,4 4,4 2.23283,0 4,-1.767172 4,-4 z"
     style="fill:#ffc557;stroke-width:4" />
  <path
     style="opacity:0.2;fill:#ffffff;stroke-width:4"
     d="M 98 12 C 94.686292 12 92 22.686292 92 26 C 92 26.191106 92.012443 26.380181 92.033203 26.566406 C 92.211751 22.892911 94.801947 13 98 13 C 101.19806 13 103.78825 22.892911 103.9668 26.566406 C 103.98755 26.38018 104 26.191105 104 26 C 104 22.686292 101.31371 12 98 12 z M 46 20 C 42.686292 20 40 30.686292 40 34 C 40 34.191106 40.012443 34.380181 40.033203 34.566406 C 40.211751 30.892911 42.801947 21 46 21 C 49.198053 21 51.788249 30.892911 51.966797 34.566406 C 51.987554 34.38018 52 34.191105 52 34 C 52 30.686292 49.313708 20 46 20 z M 146 20 C 142.68629 20 140 30.686292 140 34 C 140 34.191106 140.01244 34.380181 140.0332 34.566406 C 140.21175 30.892911 142.80194 21 146 21 C 149.19806 21 151.78825 30.892911 151.9668 34.566406 C 151.98755 34.38018 152 34.191105 152 34 C 152 30.686292 149.31371 20 146 20 z M 70 36 C 66.686292 36 64 46.686292 64 50 C 64 50.1911 64.012443 50.380179 64.033203 50.566406 C 64.211751 46.892911 66.801947 37 70 37 C 73.198053 37 75.788249 46.892911 75.966797 50.566406 C 75.987554 50.38018 76 50.191106 76 50 C 76 46.686292 73.313708 36 70 36 z M 122 36 C 118.68629 36 116 46.686292 116 50 C 116 50.1911 116.01244 50.380179 116.0332 50.566406 C 116.21175 46.892911 118.80194 37 122 37 C 125.19806 37 127.78825 46.892911 127.9668 50.566406 C 127.98755 50.38018 128 50.191106 128 50 C 128 46.686292 125.31371 36 122 36 z "
     id="path77" />
</svg>
