<?xml version="1.0" encoding="UTF-8" standalone="no"?>
<svg
   xmlns:dc="http://purl.org/dc/elements/1.1/"
   xmlns:cc="http://creativecommons.org/ns#"
   xmlns:rdf="http://www.w3.org/1999/02/22-rdf-syntax-ns#"
   xmlns:svg="http://www.w3.org/2000/svg"
   xmlns="http://www.w3.org/2000/svg"
   xmlns:sodipodi="http://sodipodi.sourceforge.net/DTD/sodipodi-0.dtd"
   xmlns:inkscape="http://www.inkscape.org/namespaces/inkscape"
   width="192"
   height="192"
   version="1"
   id="svg28"
   sodipodi:docname="apps_4g_browser.svg"
   inkscape:version="0.92.3 (2405546, 2018-03-11)">
  <metadata
     id="metadata34">
    <rdf:RDF>
      <cc:Work
         rdf:about="">
        <dc:format>image/svg+xml</dc:format>
        <dc:type
           rdf:resource="http://purl.org/dc/dcmitype/StillImage" />
      </cc:Work>
    </rdf:RDF>
  </metadata>
  <defs
     id="defs32">
    <filter
       inkscape:collect="always"
       style="color-interpolation-filters:sRGB"
       id="filter869"
       x="-0.048"
       width="1.096"
       y="-0.048"
       height="1.096">
      <feGaussianBlur
         inkscape:collect="always"
         stdDeviation="3.2"
         id="feGaussianBlur871" />
    </filter>
    <filter
       inkscape:collect="always"
       style="color-interpolation-filters:sRGB"
       id="filter913"
       x="-0.039776624"
       width="1.0795532"
       y="-0.060509713"
       height="1.1210194">
      <feGaussianBlur
         inkscape:collect="always"
         stdDeviation="2.017089"
         id="feGaussianBlur915" />
    </filter>
  </defs>
  <sodipodi:namedview
     pagecolor="#ffffff"
     bordercolor="#666666"
     borderopacity="1"
     objecttolerance="10"
     gridtolerance="10"
     guidetolerance="10"
     inkscape:pageopacity="0"
     inkscape:pageshadow="2"
     inkscape:window-width="1920"
     inkscape:window-height="1018"
     id="namedview30"
     showgrid="false"
     inkscape:zoom="1"
     inkscape:cx="43.727273"
     inkscape:cy="80.926865"
     inkscape:window-x="0"
     inkscape:window-y="32"
     inkscape:window-maximized="1"
     inkscape:current-layer="svg28">
    <inkscape:grid
       type="xygrid"
       id="grid841" />
  </sodipodi:namedview>
  <rect
     style="opacity:0.2;fill:#000000;stroke-width:4;filter:url(#filter869)"
     width="160"
     height="160"
     x="-180"
     y="-176"
     rx="8"
     ry="8"
     transform="matrix(0,-1,-1,0,0,0)"
     id="rect891" />
  <rect
     id="rect2"
     transform="matrix(0,-1,-1,0,0,0)"
     ry="8"
     rx="8"
     y="-176"
     x="-176"
     height="160"
     width="160"
     style="fill:#4f4f4f;stroke-width:4" />
  <path
     style="opacity:0.1;fill:#ffffff;stroke-width:4"
     d="M 24 16 C 19.568 16 16 19.568 16 24 L 16 25 C 16 20.568 19.568 17 24 17 L 168 17 C 172.432 17 176 20.568 176 25 L 176 24 C 176 19.568 172.432 16 168 16 L 24 16 z "
     id="path4" />
  <path
     style="opacity:0.2;stroke-width:1.99930382;filter:url(#filter913)"
     d="M 80,59.996091 50.800781,60.167966 48.568359,65.185544 32,105.02734 v 10.98047 h 31.984375 v 23.87891 h 16.001953 v -23.87891 h 8.001953 V 100.00586 H 79.986328 V 67.87695 Z m 46.8125,0.02344 c -14.10627,0 -20.03485,4.689469 -24.37891,11.808594 -4.344062,7.119125 -6.419918,16.492672 -6.419918,28.181645 0,10.8245 -0.432367,19.31173 2.976562,27.25195 1.704466,3.97011 4.872686,7.72184 9.007816,9.87305 4.13512,2.15121 16.78483,2.86523 22.01172,2.86523 10.91255,-0.10179 16.68003,-3.40422 21.99609,-12 v -19.99219 l -0.004,-8.011716 -15.99414,0.0098 h -8 v 16.00195 h 7.9961 v 7.26367 c -1.17649,0.51434 -2.55716,0.72657 -5.99414,0.72657 -3.66987,0 -13.72011,-0.58683 -14.62696,-1.0586 -0.90684,-0.47176 -1.12162,-0.66502 -1.6914,-1.99218 -1.13957,-2.65432 -1.67578,-10.16244 -1.67579,-20.9375 0,-9.694331 1.92446,-16.314271 4.07813,-19.84375 2.15368,-3.529481 8.54963,-4.144532 10.71875,-4.144532 8.35737,-0.190574 9.95243,2.506696 11.37109,9.697266 l 15.52149,-3.878906 -1.9375,-7.761719 c 0,0 -1.19,-4.303279 -4.60352,-7.716797 -3.41352,-3.413517 -6.24529,-6.341797 -20.35156,-6.341797 z m -62.828125,16.00195 v 23.984379 h -12.15625 l 9.611328,-23.937504 z"
     id="path8"
     inkscape:connector-curvature="0" />
  <path
     style="fill:#4ea5fe;stroke-width:1.99930382"
     d="M 80 55.998047 L 50.800781 56.169922 L 48.568359 61.1875 L 32 101.0293 L 32 112.00977 L 63.984375 112.00977 L 63.984375 135.88867 L 79.986328 135.88867 L 79.986328 112.00977 L 87.988281 112.00977 L 87.988281 96.007812 L 79.986328 96.007812 L 79.986328 63.878906 L 80 55.998047 z M 126.8125 56.021484 C 112.70623 56.021484 106.77765 60.710953 102.43359 67.830078 C 98.089528 74.949203 96.013672 84.322751 96.013672 96.011719 C 96.013672 106.83623 95.581305 115.32345 98.990234 123.26367 C 100.6947 127.23378 103.86292 130.98551 107.99805 133.13672 C 112.13317 135.28793 124.78288 136.00195 130.00977 136.00195 C 140.92232 135.90017 146.6898 132.59773 152.00586 124.00195 L 152.00586 104.00977 L 152.00195 95.998047 L 136.00781 96.007812 L 128.00781 96.007812 L 128.00781 112.00977 L 136.00391 112.00977 L 136.00391 119.27344 C 134.82742 119.78778 133.44675 120 130.00977 120 C 126.3399 120 116.28966 119.41317 115.38281 118.94141 C 114.47597 118.46964 114.26119 118.27638 113.69141 116.94922 C 112.55184 114.29491 112.01563 106.78678 112.01562 96.011719 C 112.01562 86.317384 113.94008 79.697448 116.09375 76.167969 C 118.24743 72.638488 124.64338 72.023438 126.8125 72.023438 C 135.16987 71.832864 136.76493 74.530133 138.18359 81.720703 L 153.70508 77.841797 L 151.76758 70.080078 C 151.76758 70.080078 150.57758 65.776799 147.16406 62.363281 C 143.75054 58.949764 140.91877 56.021484 126.8125 56.021484 z M 63.984375 72.023438 L 63.984375 96.007812 L 51.828125 96.007812 L 61.439453 72.070312 L 63.984375 72.023438 z "
     id="path14" />
  <path
     style="fill:#ffffff;stroke-width:1.99930382;opacity:0.2"
     d="M 80 55.998047 L 50.800781 56.169922 L 48.568359 61.1875 L 32 101.0293 L 32 102.0293 L 48.568359 62.1875 L 50.800781 57.169922 L 79.998047 56.998047 L 80 55.998047 z M 126.8125 56.021484 C 112.70623 56.021484 106.77765 60.710953 102.43359 67.830078 C 98.089532 74.949203 96.013672 84.322751 96.013672 96.011719 C 96.013672 98.756275 95.987884 101.34905 96.001953 103.82227 C 95.998091 101.64026 96.013672 99.402463 96.013672 97.011719 C 96.013672 85.322751 98.089532 75.949203 102.43359 68.830078 C 106.77765 61.710953 112.70623 57.021484 126.8125 57.021484 C 140.91877 57.021484 143.75054 59.949764 147.16406 63.363281 C 150.57758 66.776799 151.76758 71.080078 151.76758 71.080078 L 153.4707 77.900391 L 153.70508 77.841797 L 151.76758 70.080078 C 151.76758 70.080078 150.57758 65.776799 147.16406 62.363281 C 143.75054 58.949764 140.91877 56.021484 126.8125 56.021484 z M 152.00195 95.998047 L 136.00781 96.007812 L 128.00781 96.007812 L 128.00781 97.007812 L 136.00781 97.007812 L 152.00195 96.998047 L 152.00195 95.998047 z M 52.230469 96.007812 L 51.828125 97.007812 L 63.984375 97.007812 L 63.984375 96.007812 L 52.230469 96.007812 z M 79.986328 96.007812 L 79.986328 97.007812 L 87.988281 97.007812 L 87.988281 96.007812 L 79.986328 96.007812 z M 112.02148 96.802734 C 112.02127 96.874954 112.01562 96.939154 112.01562 97.011719 C 112.01563 107.78678 112.55184 115.29491 113.69141 117.94922 C 114.26119 119.27638 114.47597 119.46964 115.38281 119.94141 C 116.28966 120.41317 126.3399 121 130.00977 121 C 133.44675 121 134.82742 120.78778 136.00391 120.27344 L 136.00391 119.27344 C 134.82742 119.78778 133.44675 120 130.00977 120 C 126.3399 120 116.28966 119.41317 115.38281 118.94141 C 114.47597 118.46964 114.26119 118.27638 113.69141 116.94922 C 112.58084 114.36247 112.04814 107.14047 112.02148 96.802734 z "
     id="path886" />
</svg>
