<?xml version="1.0" encoding="UTF-8" standalone="no"?>
<svg
   xmlns:dc="http://purl.org/dc/elements/1.1/"
   xmlns:cc="http://creativecommons.org/ns#"
   xmlns:rdf="http://www.w3.org/1999/02/22-rdf-syntax-ns#"
   xmlns:svg="http://www.w3.org/2000/svg"
   xmlns="http://www.w3.org/2000/svg"
   xmlns:sodipodi="http://sodipodi.sourceforge.net/DTD/sodipodi-0.dtd"
   xmlns:inkscape="http://www.inkscape.org/namespaces/inkscape"
   width="192"
   height="192"
   version="1"
   id="svg14"
   sodipodi:docname="apps_asus_browser.svg"
   inkscape:version="0.92.3 (2405546, 2018-03-11)">
  <metadata
     id="metadata20">
    <rdf:RDF>
      <cc:Work
         rdf:about="">
        <dc:format>image/svg+xml</dc:format>
        <dc:type
           rdf:resource="http://purl.org/dc/dcmitype/StillImage" />
      </cc:Work>
    </rdf:RDF>
  </metadata>
  <defs
     id="defs18">
    <filter
       inkscape:collect="always"
       style="color-interpolation-filters:sRGB"
       id="filter850"
       x="-0.048"
       width="1.096"
       y="-0.048"
       height="1.096">
      <feGaussianBlur
         inkscape:collect="always"
         stdDeviation="3.2"
         id="feGaussianBlur852" />
    </filter>
    <filter
       inkscape:collect="always"
       style="color-interpolation-filters:sRGB"
       id="filter866"
       x="-0.048"
       width="1.096"
       y="-0.048"
       height="1.096">
      <feGaussianBlur
         inkscape:collect="always"
         stdDeviation="2.24"
         id="feGaussianBlur868" />
    </filter>
  </defs>
  <sodipodi:namedview
     pagecolor="#ffffff"
     bordercolor="#666666"
     borderopacity="1"
     objecttolerance="10"
     gridtolerance="10"
     guidetolerance="10"
     inkscape:pageopacity="0"
     inkscape:pageshadow="2"
     inkscape:window-width="1920"
     inkscape:window-height="1018"
     id="namedview16"
     showgrid="false"
     inkscape:zoom="1"
     inkscape:cx="96"
     inkscape:cy="96"
     inkscape:window-x="0"
     inkscape:window-y="32"
     inkscape:window-maximized="1"
     inkscape:current-layer="svg14" />
  <rect
     width="160"
     height="160"
     x="-180"
     y="-176"
     rx="80"
     ry="80"
     transform="matrix(0,-1,-1,0,0,0)"
     id="rect832"
     style="opacity:0.2;fill:#000000;stroke-width:4;filter:url(#filter850)" />
  <rect
     style="fill:#02a8f3;stroke-width:4"
     id="rect2"
     transform="matrix(0,-1,-1,0,0,0)"
     ry="80"
     rx="80"
     y="-176"
     x="-176"
     height="160"
     width="160" />
  <path
     style="opacity:0.2;fill:#ffffff;stroke-width:4"
     d="M 95.998047 16 C 51.678955 16.001052 16 51.680653 16 96 C 16 96.115498 16.006242 96.228859 16.007812 96.34375 C 16.358829 52.329731 51.898462 17.001046 95.998047 17 L 96 17 C 140.09959 17.001046 175.63922 52.32973 175.99023 96.34375 C 175.99188 96.228859 175.99805 96.115498 175.99805 96 C 175.99805 51.680653 140.31909 16.001051 96 16 L 95.998047 16 z "
     id="path4" />
  <path
     inkscape:connector-curvature="0"
     id="path8"
     d="m 96,44 c -30.928,0 -56,25.072 -56,56 0,30.928 25.072,56 56,56 30.928,0 56,-25.072 56,-56 0,-30.928 -25.072,-56 -56,-56 z m -5.609376,10.703128 c 0.65288,-0.068 1.481904,0.0392 2.140624,0 0.0784,0.31232 -0.47408,1.420712 -1.218752,3.046872 -4.741544,10.358352 -5.00996,22.500408 -0.60936,28.984376 0.79632,1.175584 1.515624,2.292056 1.515624,2.437496 0,0.14536 -0.857088,0.29688 -1.828128,0.29688 -2.279536,0 -4.436232,-1.38484 -8.843752,-4.875 -1.957976,-1.55044 -4.498216,-2.84976 -5.484376,-3.04688 -1.548584,-0.30936 -1.965392,-0.17544 -3.968744,1.828128 -1.863944,1.863608 -2.437504,2.87204 -2.437504,4.578128 0,6.469728 7.676288,11.598688 21.953128,14.625002 19.388476,4.10928 24.168326,7.80482 24.703116,18 0.67144,12.78446 -6.1388,22.42781 -21.046868,29.89062 -1.779376,0.89103 -2.909688,1.22771 -3.656248,1.51563 -0.3308,-0.0296 -0.5764,0.0296 -0.906248,0 -0.12688,-0.39528 -0.31248,-1.30936 -0.31248,-3.04688 0,-6.79021 -2.67016,-13.77896 -6.70312,-17.6875 -1.082584,-1.0493 -4.123016,-3.26816 -6.718752,-4.875 -2.59564,-1.60674 -5.21328,-3.4693 -5.79688,-4.26562 -0.96712,-1.32149 -1.039912,-2.13688 -0.29688,-4.57813 1.354176,-4.45866 2.960288,-6.94845 6.093752,-9.76563 1.642752,-1.47694 3.292328,-2.70477 3.656248,-2.73437 0.364,-0.0296 -2.086432,-0.77544 -5.781248,-1.53125 -3.694608,-0.75728 -9.111912,-2.34804 -11.906248,-3.35938 C 57.82784,98.291752 50.942616,94.418448 48.31252,91.609376 48.20124,91.490336 48.09668,91.402336 48.00004,91.296896 51.768336,76.286368 62.340416,63.9912 76.359416,58.06252 c 2.933304,-1.24068 5.964232,-2.09712 9.156248,-2.75 1.58996,-0.32496 3.23332,-0.44248 4.875,-0.60936 z m 45.749996,22.875 c 1.14621,0.70848 5.46772,10.073352 6.70313,14.640624 1.59503,5.896376 1.47958,16.095678 0,21.953118 -0.56312,2.22938 -1.27554,4.31853 -1.51562,4.57813 -0.24008,0.2596 -1.11651,-1.23197 -2.14063,-3.04687 -1.02423,-1.81462 -4.29684,-5.67819 -7.01563,-8.54688 -7.84771,-8.280922 -9.08414,-12.594234 -5.79687,-19.203122 1.65778,-3.33264 8.87852,-10.92252 9.76562,-10.375 z"
     style="opacity:0.2;stroke-width:4;filter:url(#filter866)" />
  <path
     inkscape:connector-curvature="0"
     id="path10"
     d="m 96,40 c -30.928,0 -56,25.072 -56,56 0,30.928 25.072,56 56,56 30.928,0 56,-25.072 56,-56 0,-30.928 -25.072,-56 -56,-56 z m -5.609376,10.703128 c 0.65288,-0.068 1.481904,0.0392 2.140624,0 0.0784,0.31232 -0.47408,1.420712 -1.218752,3.046872 -4.741544,10.358352 -5.00996,22.500408 -0.60936,28.984376 0.79632,1.175584 1.515624,2.292056 1.515624,2.437496 0,0.14536 -0.857088,0.29688 -1.828128,0.29688 -2.279536,0 -4.436232,-1.38484 -8.843752,-4.875 -1.957976,-1.55044 -4.498216,-2.84976 -5.484376,-3.04688 -1.548584,-0.30936 -1.965392,-0.17544 -3.968744,1.828128 -1.863944,1.863608 -2.437504,2.87204 -2.437504,4.578128 0,6.469728 7.676288,11.598688 21.953128,14.625 19.388476,4.109282 24.168326,7.804822 24.703116,18.000002 0.67144,12.78446 -6.1388,22.42781 -21.046868,29.89062 -1.779376,0.89103 -2.909688,1.22771 -3.656248,1.51563 -0.3308,-0.0296 -0.5764,0.0296 -0.906248,0 -0.12688,-0.39528 -0.31248,-1.30936 -0.31248,-3.04688 0,-6.79021 -2.67016,-13.77896 -6.70312,-17.6875 -1.082584,-1.0493 -4.123016,-3.26816 -6.718752,-4.875 -2.59564,-1.60674 -5.21328,-3.4693 -5.79688,-4.26562 -0.96712,-1.32149 -1.039912,-2.13688 -0.29688,-4.57813 1.354176,-4.45866 2.960288,-6.94845 6.093752,-9.76563 1.642752,-1.47694 3.292328,-2.70477 3.656248,-2.73437 0.364,-0.0296 -2.086432,-0.77544 -5.781248,-1.53125 C 71.149168,98.74272 65.731864,97.15196 62.937528,96.140624 57.82784,94.291752 50.942616,90.418448 48.31252,87.609376 48.20124,87.490336 48.09668,87.402336 48.00004,87.296896 51.768336,72.286368 62.340416,59.9912 76.359416,54.06252 c 2.933304,-1.24068 5.964232,-2.09712 9.156248,-2.75 1.58996,-0.32496 3.23332,-0.44248 4.875,-0.60936 z m 45.749996,22.875 c 1.14621,0.70848 5.46772,10.073352 6.70313,14.640624 1.59503,5.896376 1.47958,16.095678 0,21.953118 -0.56312,2.22938 -1.27554,4.31853 -1.51562,4.57813 -0.24008,0.2596 -1.11651,-1.23197 -2.14063,-3.04687 -1.02423,-1.81462 -4.29684,-5.67819 -7.01563,-8.54688 -7.84771,-8.280922 -9.08414,-12.594234 -5.79687,-19.203122 1.65778,-3.33264 8.87852,-10.92252 9.76562,-10.375 z"
     style="fill:#ffffff;stroke-width:4" />
</svg>
