<?xml version="1.0" encoding="UTF-8" standalone="no"?>
<svg
   xmlns:dc="http://purl.org/dc/elements/1.1/"
   xmlns:cc="http://creativecommons.org/ns#"
   xmlns:rdf="http://www.w3.org/1999/02/22-rdf-syntax-ns#"
   xmlns:svg="http://www.w3.org/2000/svg"
   xmlns="http://www.w3.org/2000/svg"
   xmlns:sodipodi="http://sodipodi.sourceforge.net/DTD/sodipodi-0.dtd"
   xmlns:inkscape="http://www.inkscape.org/namespaces/inkscape"
   width="192"
   height="192"
   version="1"
   id="svg14"
   sodipodi:docname="apps_lastfm.svg"
   inkscape:version="0.92.3 (2405546, 2018-03-11)">
  <metadata
     id="metadata20">
    <rdf:RDF>
      <cc:Work
         rdf:about="">
        <dc:format>image/svg+xml</dc:format>
        <dc:type
           rdf:resource="http://purl.org/dc/dcmitype/StillImage" />
      </cc:Work>
    </rdf:RDF>
  </metadata>
  <defs
     id="defs18">
    <filter
       inkscape:collect="always"
       style="color-interpolation-filters:sRGB"
       id="filter852"
       x="-0.048"
       width="1.096"
       y="-0.048"
       height="1.096">
      <feGaussianBlur
         inkscape:collect="always"
         stdDeviation="3.2"
         id="feGaussianBlur854" />
    </filter>
    <filter
       inkscape:collect="always"
       style="color-interpolation-filters:sRGB"
       id="filter890"
       x="-0.038769231"
       width="1.0775385"
       y="-0.063"
       height="1.126">
      <feGaussianBlur
         inkscape:collect="always"
         stdDeviation="1.6800001"
         id="feGaussianBlur892" />
    </filter>
  </defs>
  <sodipodi:namedview
     pagecolor="#ffffff"
     bordercolor="#666666"
     borderopacity="1"
     objecttolerance="10"
     gridtolerance="10"
     guidetolerance="10"
     inkscape:pageopacity="0"
     inkscape:pageshadow="2"
     inkscape:window-width="1920"
     inkscape:window-height="1018"
     id="namedview16"
     showgrid="false"
     inkscape:zoom="1"
     inkscape:cx="96"
     inkscape:cy="96"
     inkscape:window-x="0"
     inkscape:window-y="32"
     inkscape:window-maximized="1"
     inkscape:current-layer="svg14">
    <inkscape:grid
       type="xygrid"
       id="grid862" />
  </sodipodi:namedview>
  <rect
     style="opacity:0.2;fill:#000000;stroke-width:4.00020027;filter:url(#filter852)"
     width="160"
     height="160"
     x="-180"
     y="-176"
     rx="80"
     ry="80"
     transform="matrix(0,-1,-1,0,0,0)"
     id="rect834" />
  <rect
     id="rect2"
     transform="matrix(0,-1,-1,0,0,0)"
     ry="80"
     rx="80"
     y="-176"
     x="-176"
     height="160"
     width="160"
     style="fill:#c2352a;stroke-width:4.00020027" />
  <path
     sodipodi:nodetypes="ccccccssccccsccsscccscccsccccscc"
     style="opacity:0.2;fill:#000000;stroke-width:3.99998593;filter:url(#filter890)"
     d="M 70.349119,131.69712 C 68.268326,131.41711 64.56691,130.2123 62.097968,129.02389 46.011836,121.3158 39.433332,101.90197 47.356351,85.549379 56.407798,66.851963 81.105219,62.085508 95.966886,76.168871 c 4.297634,4.066047 6.206374,7.335527 12.676834,22.719304 6.75458,16.088185 8.00305,18.617815 10.19189,20.762645 2.34489,2.28122 4.51772,3.04963 8.67531,3.04963 6.8306,0 11.70846,-4.22205 11.70846,-10.11331 0,-4.98646 -2.05271,-6.58328 -10.99213,-9.75692 -13.61317,-4.910456 -18.02285,-9.648709 -18.03886,-18.561612 0,-4.754454 1.20446,-7.924091 4.26563,-11.209729 4.39367,-4.690054 11.97256,-6.238872 18.6791,-3.910045 2.8611,1.016812 8.84738,6.315273 8.84738,7.83209 0,0.736409 -3.46932,2.985635 -5.39405,3.518041 -1.01639,0.264003 -1.89273,-0.08 -3.06518,-1.204814 -2.3769,-2.281226 -3.98551,-2.985634 -6.8306,-2.985634 -4.90987,0 -7.95503,2.953634 -7.95503,7.724089 0,4.754455 1.93673,6.663475 11.61242,9.929112 13.33309,4.502453 17.57063,8.568502 17.65066,17.977412 0.08,8.12809 -3.58136,13.99096 -10.86414,17.4606 -3.31326,1.56482 -4.43769,1.76522 -9.84775,1.76522 -7.72295,0 -11.19227,-1.43682 -15.52192,-6.31527 -2.90911,-3.28164 -5.86223,-9.24075 -15.31784,-31.724213 C 92.525574,83.808559 87.491656,79.242106 79.096452,77.445286 63.509689,75.030979 51.815925,88.985951 53.232932,101.89305 c 1.540491,14.03187 10.972779,20.64343 21.797972,20.66356 7.842896,0.16767 14.777372,-3.69943 19.055265,-10.42532 l 0.96837,-1.58082 1.908729,4.36205 c 1.064404,2.40923 1.920732,4.67446 1.920732,5.08246 0,1.20482 -4.313644,5.14286 -8.267154,7.59609 -6.002288,3.70604 -12.896916,5.09446 -20.259723,4.09405"
     id="path864"
     inkscape:connector-curvature="0" />
  <path
     inkscape:connector-curvature="0"
     id="path10"
     d="M 70.349119,127.69713 C 68.268326,127.41712 64.56691,126.21231 62.097968,125.0239 46.011836,117.31581 39.433332,97.901974 47.356351,81.549385 56.407798,62.851969 81.105219,58.085514 95.966886,72.168877 c 4.297634,4.066047 6.206374,7.335527 12.676834,22.719304 6.75458,16.088189 8.00305,18.617819 10.19189,20.762649 2.34489,2.28122 4.51772,3.04963 8.67531,3.04963 6.8306,0 11.70846,-4.22205 11.70846,-10.11331 0,-4.98646 -2.05271,-6.58328 -10.99213,-9.756923 -13.61317,-4.910457 -18.02285,-9.64871 -18.03886,-18.561613 0,-4.754454 1.20446,-7.924091 4.26563,-11.209729 4.39367,-4.690054 11.97256,-6.238872 18.6791,-3.910045 2.8611,1.016812 8.84738,6.315273 8.84738,7.83209 0,0.736409 -3.46932,2.985635 -5.39405,3.518041 -1.01639,0.264003 -1.89273,-0.08 -3.06518,-1.204814 -2.3769,-2.281226 -3.98551,-2.985634 -6.8306,-2.985634 -4.90987,0 -7.95503,2.953634 -7.95503,7.724089 0,4.754455 1.93673,6.663475 11.61242,9.929112 13.33309,4.502453 17.57063,8.568499 17.65066,17.977416 0.08,8.12809 -3.58136,13.99096 -10.86414,17.4606 -3.31326,1.56482 -4.43769,1.76522 -9.84775,1.76522 -7.72295,0 -11.19227,-1.43682 -15.52192,-6.31527 -2.90911,-3.28164 -5.86223,-9.24075 -15.31784,-31.724217 C 92.525574,79.808565 87.491656,75.242112 79.096452,73.445292 63.509689,71.030985 51.815925,84.985957 53.232932,97.893059 c 1.540491,14.031871 10.972779,20.643431 21.797972,20.663561 7.842896,0.16767 14.777372,-3.69943 19.055265,-10.42532 l 0.96837,-1.58082 1.908729,4.36205 c 1.064404,2.40923 1.920732,4.67446 1.920732,5.08246 0,1.20482 -4.313644,5.14286 -8.267154,7.59609 -6.002288,3.70604 -12.896916,5.09446 -20.259723,4.09405"
     style="fill:#ffffff;stroke-width:3.99998593"
     sodipodi:nodetypes="ccccccssccccsccsscccscccsccccscc" />
  <path
     style="fill:#ffffff;stroke-width:4.00020027;opacity:0.2"
     d="M 96 16 C 51.68 16 16 51.68 16 96 C 16 96.167244 16.004845 96.333003 16.005859 96.5 C 16.273741 52.412589 51.847244 17 96 17 C 140.15276 17 175.72626 52.412589 175.99414 96.5 C 175.99516 96.333003 176 96.167244 176 96 C 176 51.68 140.32 16 96 16 z "
     id="rect856" />
</svg>
