<?xml version="1.0" encoding="UTF-8" standalone="no"?>
<svg
   xmlns:dc="http://purl.org/dc/elements/1.1/"
   xmlns:cc="http://creativecommons.org/ns#"
   xmlns:rdf="http://www.w3.org/1999/02/22-rdf-syntax-ns#"
   xmlns:svg="http://www.w3.org/2000/svg"
   xmlns="http://www.w3.org/2000/svg"
   xmlns:sodipodi="http://sodipodi.sourceforge.net/DTD/sodipodi-0.dtd"
   xmlns:inkscape="http://www.inkscape.org/namespaces/inkscape"
   width="192"
   height="192"
   version="1"
   id="svg14"
   sodipodi:docname="apps_mediamonkey.svg"
   inkscape:version="0.92.3 (2405546, 2018-03-11)">
  <metadata
     id="metadata20">
    <rdf:RDF>
      <cc:Work
         rdf:about="">
        <dc:format>image/svg+xml</dc:format>
        <dc:type
           rdf:resource="http://purl.org/dc/dcmitype/StillImage" />
      </cc:Work>
    </rdf:RDF>
  </metadata>
  <defs
     id="defs18">
    <filter
       inkscape:collect="always"
       style="color-interpolation-filters:sRGB"
       id="filter850"
       x="-0.048"
       width="1.096"
       y="-0.048"
       height="1.096">
      <feGaussianBlur
         inkscape:collect="always"
         stdDeviation="3.2"
         id="feGaussianBlur852" />
    </filter>
    <filter
       inkscape:collect="always"
       style="color-interpolation-filters:sRGB"
       id="filter869"
       x="-0.040909091"
       width="1.0818182"
       y="-0.058064515"
       height="1.116129">
      <feGaussianBlur
         inkscape:collect="always"
         stdDeviation="3"
         id="feGaussianBlur871" />
    </filter>
  </defs>
  <sodipodi:namedview
     pagecolor="#ffffff"
     bordercolor="#666666"
     borderopacity="1"
     objecttolerance="10"
     gridtolerance="10"
     guidetolerance="10"
     inkscape:pageopacity="0"
     inkscape:pageshadow="2"
     inkscape:window-width="1920"
     inkscape:window-height="1018"
     id="namedview16"
     showgrid="false"
     inkscape:zoom="1"
     inkscape:cx="96"
     inkscape:cy="96"
     inkscape:window-x="0"
     inkscape:window-y="32"
     inkscape:window-maximized="1"
     inkscape:current-layer="svg14" />
  <rect
     style="opacity:0.2;fill:#000000;stroke-width:4;filter:url(#filter850)"
     width="160"
     height="160"
     x="-180"
     y="-176"
     rx="80"
     ry="80"
     transform="matrix(0,-1,-1,0,0,0)"
     id="rect832" />
  <rect
     id="rect2"
     transform="matrix(0,-1,-1,0,0,0)"
     ry="80"
     rx="80"
     y="-176"
     x="-176"
     height="160"
     width="160"
     style="fill:#fbcf46;stroke-width:4" />
  <path
     style="opacity:0.2;fill:#ffffff;stroke-width:4"
     d="M 95.998047 16 C 51.678955 16.001052 16 51.680653 16 96 C 16 96.115498 16.006172 96.228859 16.007812 96.34375 C 16.358829 52.329731 51.898462 17.001046 95.998047 17 L 96 17 C 140.10547 17.001047 175.64856 52.339122 175.99023 96.361328 C 175.99198 96.240601 175.99805 96.121307 175.99805 96 C 175.99805 51.680653 140.31909 16.001052 96 16 L 95.998047 16 z "
     id="path4" />
  <path
     inkscape:connector-curvature="0"
     id="path8"
     d="m 98.876868,171.18017 c -2.362312,-0.9723 -3.89114,-1.21712 -8.502232,-5.41531 -4.456604,-4.05752 -5.943604,-5.11515 -6.214636,-8.35036 -0.32164,-3.8396 1.064364,-4.95929 6.128968,-10.20342 4.589372,-4.75202 6.433424,-5.88028 5.824628,-8.08665 -0.9306,-3.37267 -7.091048,-6.14369 -12.663356,-5.69608 -4.084708,0.32804 -5.502892,1.81089 -6.103368,6.38137 -0.19972,1.52008 -0.605624,4.629 -0.902036,5.43972 -1.062216,2.9054 -4.90638,5.30478 -9.71092,6.0612 -1.148736,0.18088 -2.959592,0.47962 -4.024124,0.66392 -4.906832,0.84954 -9.357176,0.0866 -11.87848,-2.03638 -2.574592,-2.16784 -3.87072,-7.03513 -2.535248,-8.37148 0.618068,-0.6185 4.7965,-2.65354 7.22034,-3.51657 2.359676,-0.84017 3.582192,-2.58676 4.361464,-4.01087 0.607984,-1.11114 0.644776,-1.66688 0.415132,-6.27008 -0.33288,-6.67252 -0.24336,-8.21143 0.57056,-9.80792 0.923836,-1.81208 2.45014,-2.73963 7.978572,-4.84863 6.73458,-2.5691 10.597524,-4.04273 10.597524,-5.19866 0,-0.89002 -1.433628,-1.7417 -2.931816,-1.7417 -1.23442,0 -1.837852,0.23916 -3.045896,1.20699 -4.421176,3.54218 -9.064188,3.13132 -17.766568,4.08474 C 38.899832,113.50814 24.243442,112.55314 14.334644,98.494308 9.1622296,89.873112 7.3595784,83.077864 8.1960092,74.661792 8.4715492,71.399712 10.111211,66.65902 11.811266,63.726928 16.473776,55.410372 27.999999,48 32.083254,54.137076 c 0.345836,1.844812 -2.558234,4.17572 -3.617621,6.37856 -2.659733,5.530524 -6.386043,10.972932 -6.83937,17.093012 -0.325324,4.392008 0.459497,9.292364 3.04732,12.855892 1.875357,2.58244 5.03255,4.429924 8.175818,4.982916 13.261863,2.333156 29.666927,-1.40638 39.598895,-7.988292 3.583332,-2.374664 3.61486,-3.040732 0.35228,-7.445564 -4.4027,-5.944156 -5.448128,-12.001096 -3.12662,-18.114916 C 72.691716,53.951228 82.0901,48 91.623216,48 c 8.493874,0 16.047084,4.2458 19.275564,10.83516 1.02486,2.091736 1.33643,3.244196 1.65792,6.132392 0.52864,4.749016 1.53058,7.224864 3.52148,6.687608 0.43035,-0.1162 2.68537,-1.739748 5.01116,-3.608028 5.30808,-4.2639 9.5657,-6.913712 14.13399,-8.796568 8.26897,-4.039724 19.39684,-3.802852 26.89061,-1.489728 6.76602,2.12684 12.67833,6.44534 16.50288,12.05412 1.57162,2.304824 3.69106,6.133672 4.35333,8.70862 1.96734,7.64932 1.05986,18.158084 -2.24233,24.790664 -1.67035,3.35491 -5.01856,7.50108 -6.70366,8.30124 -2.69626,1.28032 -6.04333,0.33104 -7.1809,-2.03664 -0.91614,-1.90673 0.48022,-7.11017 2.99544,-11.16232 4.88732,-7.180308 4.49424,-16.97722 -1.48163,-23.07606 -1.94081,-1.887536 -3.9032,-2.843948 -7.22697,-3.522224 -8.85509,-1.111872 -19.28093,2.8343 -26.05742,7.621924 -5.41839,3.898324 -17.15972,13.593956 -18.55642,16.211056 -0.93317,1.748548 -1.06464,4.613434 -0.54846,11.951954 0.71019,10.09663 0.37232,12.16334 -2.78806,17.05499 -2.29352,3.54993 -2.01059,4.14444 -1.37351,9.05808 0.3008,2.32025 0.5439,6.20284 0.54016,8.62798 -0.006,4.27674 -0.74136,11.47057 -1.26048,12.34077 -0.92757,1.55491 -2.31692,2.89543 -4.1283,3.98327 -2.72004,2.54917 -2.80165,4.88024 -2.80271,7.08287 0,2.23457 -0.17196,4.55654 -0.38216,5.15988 -0.33544,0.96301 -0.5374,1.09599 -1.65347,1.08872 -0.69925,-0.005 -2.158318,-0.37336 -3.242414,-0.81955 z"
     style="opacity:0.2;stroke-width:4;filter:url(#filter869)" />
  <path
     inkscape:connector-curvature="0"
     id="path10"
     d="m 98.876868,167.18017 c -2.362312,-0.9723 -3.89114,-1.21712 -8.502232,-5.41531 -4.456604,-4.05752 -5.943604,-5.11515 -6.214636,-8.35036 -0.32164,-3.8396 1.064364,-4.95929 6.128968,-10.20342 4.589372,-4.75202 6.433424,-5.88028 5.824628,-8.08665 -0.9306,-3.37267 -7.091048,-6.14369 -12.663356,-5.69608 -4.084708,0.32804 -5.502892,1.81089 -6.103368,6.38137 -0.19972,1.52008 -0.605624,4.629 -0.902036,5.43972 -1.062216,2.9054 -4.90638,5.30478 -9.71092,6.0612 -1.148736,0.18088 -2.959592,0.47962 -4.024124,0.66392 -4.906832,0.84954 -9.357176,0.0866 -11.87848,-2.03638 -2.574592,-2.16784 -3.87072,-7.03513 -2.535248,-8.37148 0.618068,-0.6185 4.7965,-2.65354 7.22034,-3.51657 2.359676,-0.84017 3.582192,-2.58676 4.361464,-4.01087 0.607984,-1.11114 0.644776,-1.66688 0.415132,-6.27008 -0.33288,-6.67252 -0.24336,-8.21143 0.57056,-9.80792 0.923836,-1.81208 2.45014,-2.73963 7.978572,-4.84863 6.73458,-2.5691 10.597524,-4.04273 10.597524,-5.19866 0,-0.89002 -1.433628,-1.7417 -2.931816,-1.7417 -1.23442,0 -1.837852,0.23916 -3.045896,1.20699 -4.421176,3.54218 -9.064188,3.13132 -17.766568,4.08474 C 38.899832,109.50814 24.243442,108.55314 14.334644,94.494308 9.1622296,85.873112 7.3595784,79.077864 8.1960092,70.661792 8.4715492,67.399712 10.111211,62.65902 11.811266,59.726928 16.473776,51.410372 27.999999,44 32.083254,50.137076 c 0.345836,1.844812 -2.558234,4.17572 -3.617621,6.37856 -2.659733,5.530524 -6.386043,10.972932 -6.83937,17.093012 -0.325324,4.392008 0.459497,9.292364 3.04732,12.855892 1.875357,2.58244 5.03255,4.429924 8.175818,4.982916 13.261863,2.333156 29.666927,-1.40638 39.598895,-7.988292 3.583332,-2.374664 3.61486,-3.040732 0.35228,-7.445564 -4.4027,-5.944156 -5.448128,-12.001096 -3.12662,-18.114916 C 72.691716,49.951228 82.0901,44 91.623216,44 c 8.493874,0 16.047084,4.2458 19.275564,10.83516 1.02486,2.091736 1.33643,3.244196 1.65792,6.132392 0.52864,4.749016 1.53058,7.224864 3.52148,6.687608 0.43035,-0.1162 2.68537,-1.739748 5.01116,-3.608028 5.30808,-4.2639 9.5657,-6.913712 14.13399,-8.796568 8.26897,-4.039724 19.39684,-3.802852 26.89061,-1.489728 6.76602,2.12684 12.67833,6.44534 16.50288,12.05412 1.57162,2.304824 3.69106,6.133672 4.35333,8.70862 1.96734,7.64932 1.05986,18.158084 -2.24233,24.790664 -1.67035,3.35491 -5.01856,7.50108 -6.70366,8.30124 -2.69626,1.28032 -6.04333,0.33104 -7.1809,-2.03664 -0.91614,-1.90673 0.48022,-7.110172 2.99544,-11.16232 4.88732,-7.180308 4.49424,-16.97722 -1.48163,-23.07606 -1.94081,-1.887536 -3.9032,-2.843948 -7.22697,-3.522224 -8.85509,-1.111872 -19.28093,2.8343 -26.05742,7.621924 -5.41839,3.898324 -17.15972,13.593956 -18.55642,16.211056 -0.93317,1.748548 -1.06464,4.613432 -0.54846,11.951954 0.71019,10.09663 0.37232,12.16334 -2.78806,17.05499 -2.29352,3.54993 -2.01059,4.14444 -1.37351,9.05808 0.3008,2.32025 0.5439,6.20284 0.54016,8.62798 -0.006,4.27674 -0.74136,11.47057 -1.26048,12.34077 -0.92757,1.55491 -2.31692,2.89543 -4.1283,3.98327 -2.72004,2.54917 -2.80165,4.88024 -2.80271,7.08287 0,2.23457 -0.17196,4.55654 -0.38216,5.15988 -0.33544,0.96301 -0.5374,1.09599 -1.65347,1.08872 -0.69925,-0.005 -2.158318,-0.37336 -3.242414,-0.81955 z"
     style="fill:#3f3f3f;stroke-width:4" />
</svg>
