<?xml version="1.0" encoding="UTF-8" standalone="no"?>
<svg
   xmlns:dc="http://purl.org/dc/elements/1.1/"
   xmlns:cc="http://creativecommons.org/ns#"
   xmlns:rdf="http://www.w3.org/1999/02/22-rdf-syntax-ns#"
   xmlns:svg="http://www.w3.org/2000/svg"
   xmlns="http://www.w3.org/2000/svg"
   xmlns:sodipodi="http://sodipodi.sourceforge.net/DTD/sodipodi-0.dtd"
   xmlns:inkscape="http://www.inkscape.org/namespaces/inkscape"
   width="192"
   height="192"
   version="1.1"
   id="svg22"
   sodipodi:docname="apps_icq.svg"
   inkscape:version="0.92.3 (2405546, 2018-03-11)">
  <metadata
     id="metadata28">
    <rdf:RDF>
      <cc:Work
         rdf:about="">
        <dc:format>image/svg+xml</dc:format>
        <dc:type
           rdf:resource="http://purl.org/dc/dcmitype/StillImage" />
      </cc:Work>
    </rdf:RDF>
  </metadata>
  <defs
     id="defs26">
    <filter
       inkscape:collect="always"
       style="color-interpolation-filters:sRGB"
       id="filter915"
       x="-0.049263211"
       width="1.0985264"
       y="-0.046799952"
       height="1.0935999">
      <feGaussianBlur
         inkscape:collect="always"
         stdDeviation="3.1199903"
         id="feGaussianBlur917" />
    </filter>
    <filter
       inkscape:collect="always"
       style="color-interpolation-filters:sRGB"
       id="filter942"
       x="-0.048"
       width="1.096"
       y="-0.048"
       height="1.096">
      <feGaussianBlur
         inkscape:collect="always"
         stdDeviation="0.96"
         id="feGaussianBlur944" />
    </filter>
  </defs>
  <sodipodi:namedview
     pagecolor="#ffffff"
     bordercolor="#666666"
     borderopacity="1"
     objecttolerance="10"
     gridtolerance="10"
     guidetolerance="10"
     inkscape:pageopacity="0"
     inkscape:pageshadow="2"
     inkscape:window-width="1920"
     inkscape:window-height="1018"
     id="namedview24"
     showgrid="false"
     inkscape:zoom="4.04"
     inkscape:cx="36.63658"
     inkscape:cy="96"
     inkscape:window-x="0"
     inkscape:window-y="32"
     inkscape:window-maximized="1"
     inkscape:current-layer="svg22" />
  <path
     style="opacity:0.2;fill:#000000;stroke-width:3.99997973;filter:url(#filter915)"
     d="m 119.20117,20.002298 c -4.90679,-0.06295 -9.78194,1.384417 -13.99219,4.242188 -2.8208,1.91478 -5.957409,5.64465 -7.371089,8.767578 -1.38392,3.057169 -1.868757,5.530974 -2.160157,11.011719 -0.29572,5.562343 0.01825,14.245706 1.042969,28.818359 0.17512,2.490575 0.345353,4.552031 0.376953,4.582031 0.03168,0.02992 0.86151,0.174475 1.84375,0.320313 4.354804,0.646794 9.151864,2.999519 11.765624,5.769531 0.36856,0.390596 0.80007,0.708984 0.95703,0.708984 0.3724,0 12.26145,-12.011162 15.40821,-15.566406 8.3692,-9.455504 11.92702,-14.924853 13.3125,-20.466797 2.9204,-11.682282 -3.58761,-23.841923 -14.53321,-27.15625 -2.18462,-0.661531 -4.42003,-1.002638 -6.65039,-1.03125 z m -46.804686,5.314453 c -2.277873,-0.076 -4.582781,0.276602 -6.941406,1.058594 -5.3608,1.777182 -9.020094,4.901063 -11.177734,9.541016 -1.13476,2.440375 -1.459486,3.897934 -1.566406,7.027343 -0.10672,3.123168 0.139721,4.932523 1.044921,7.677735 1.978,5.99874 5.993735,11.091524 19.677735,24.958984 4.130148,4.1856 7.618165,7.611328 7.751953,7.611328 0.1338,0 0.755179,-0.414007 1.380859,-0.919922 3.0492,-2.465495 6.662443,-4.027903 10.601563,-4.585937 0.69728,-0.0988 1.316233,-0.236448 1.376953,-0.304688 0.11652,-0.130799 -0.525761,-5.954611 -1.806641,-16.378906 C 91.381401,49.95961 90.321023,42.854108 89.595703,39.945657 88.579703,35.871699 86.08272,31.844899 83,29.312845 c -1.6936,-1.391306 -4.561431,-2.883089 -6.525391,-3.396484 -1.3536,-0.353817 -2.711401,-0.554008 -4.078125,-0.59961 z M 40.013672,60.221048 c -1.712365,-0.01411 -3.400823,0.09459 -4.476563,0.332031 -5.842,1.287987 -10.260143,4.756665 -13.027343,10.22461 -4.0816,8.059918 -3.125794,16.923011 2.441406,22.626953 3.4012,3.483965 8.438759,5.660881 14.568359,6.296875 1.7564,0.181398 9.037472,0.08775 13.138672,-0.167969 5.5244,-0.344436 18.094436,-1.428657 21.035156,-1.814453 L 74.472656,97.617533 74.75,95.894876 c 0.51504,-3.183568 1.950771,-6.813575 3.587891,-9.070312 0.38492,-0.530595 0.833853,-1.170598 0.996093,-1.421875 l 0.294922,-0.457032 -3.103515,-2.705078 C 70.242991,76.764234 58.34217,67.326405 54.65625,64.896829 c -3.0092,-1.98342 -6.628631,-3.523705 -10.025391,-4.267578 -1.1688,-0.255958 -2.904822,-0.394093 -4.617187,-0.408203 z m 112.537108,1.498047 c -3.67605,-0.117804 -7.67683,0.868665 -11.83203,2.964844 -2.696,1.359987 -4.88029,2.800348 -8.64453,5.693359 -5.488,4.217957 -18.64782,15.14905 -18.83594,15.646485 -0.0486,0.128557 0.21291,0.68748 0.58203,1.240234 1.421,2.127979 2.58938,4.996937 3.17578,7.798828 0.14852,0.709513 0.31349,2.35355 0.36719,3.654297 l 0.0977,2.365238 h 0.4707 c 0.6708,0 9.80527,-0.80619 13.71875,-1.210941 8.3216,-0.860711 18.59406,-2.269914 21.4043,-2.935547 8.1632,-1.933181 13.50781,-6.7922 15.24609,-13.861328 0.56232,-2.286777 0.52092,-6.023196 -0.0918,-8.394531 -0.9292,-3.596763 -3.14448,-7.16609 -5.77148,-9.298829 -2.8586,-2.320876 -6.21067,-3.544305 -9.88672,-3.662109 z M 74.083984,100.04722 c -1.695102,-0.0108 -13.153672,1.73827 -19.138672,2.94531 -10.600799,2.13797 -15.42717,4.11622 -19.33789,7.92578 -2.45976,2.39598 -3.946786,5.06429 -4.572266,8.20898 -0.3776,1.89998 -0.264306,5.18279 0.246094,7.13477 1.918,7.32792 8.358238,13.40378 15.023438,14.17578 h 0.002 c 0.743,0.0859 1.465628,0.16613 1.605468,0.17773 0.8188,0.0679 3.507026,-0.40417 4.822266,-0.84765 1.55616,-0.52475 3.691748,-1.66635 4.923828,-2.63086 1.0544,-0.82519 5.191143,-4.45944 7.539063,-6.62305 2.4444,-2.25278 13.829691,-13.80578 14.826172,-15.04492 0.468199,-0.58216 0.619572,-0.89785 0.507812,-1.05273 -0.08768,-0.12156 -0.632497,-0.79077 -1.210938,-1.48829 -2.54884,-3.07317 -4.376242,-7.48564 -4.726562,-11.40819 -0.0638,-0.71404 -0.200928,-1.36388 -0.304688,-1.44532 -0.0217,-0.017 -0.09207,-0.0266 -0.205078,-0.0273 z m 42.996096,3.11719 -0.17969,0.7207 c -0.98552,3.93355 -2.43918,6.86202 -4.76758,9.60351 -0.45284,0.53315 -0.82422,1.03654 -0.82422,1.11914 0,0.15959 6.10979,6.34649 9.24219,9.35938 3.7192,3.57757 11.55693,10.6901 14.23633,12.91992 4.6548,3.87392 9.96498,6.19622 15.42578,6.74609 1.3072,0.1316 4.42176,-0.09 6.08984,-0.43164 4.0084,-0.82079 7.38162,-2.69976 10.18946,-5.67969 1.54576,-1.6407 2.23222,-2.62719 3.19922,-4.58789 3.01128,-6.10594 3.07954,-12.69671 0.18554,-18.03906 -2.522,-4.65555 -7.21308,-8.21937 -13.05468,-9.91992 -4.79,-1.39438 -6.95892,-1.51609 -31.22852,-1.73437 z m -34.763674,13.05273 c -0.2868,0 -9.581762,11.179 -14.726562,17.71093 -8.48264,10.76949 -10.97373,15.01769 -12.15625,20.73243 -0.445748,2.15358 -0.44548,6.94315 0,9.02929 1.3224,6.19114 4.97554,11.08221 10.36914,13.88086 2.5012,1.29775 4.802872,1.97666 7.957032,2.34766 2.7164,0.31947 6.396297,-0.31545 9.279296,-1.60156 4.216001,-1.88078 7.870267,-5.50381 10.060547,-9.97657 1.525,-3.11437 2.53452,-7.04027 2.75,-10.69531 0.22888,-3.88196 -0.229215,-13.1666 -1.416015,-28.68164 -0.32856,-4.2948 -0.636874,-7.87252 -0.683594,-7.94922 -0.04676,-0.0768 -0.368484,-0.18549 -0.714844,-0.24219 -3.43,-0.56115 -6.558305,-1.79193 -9.197265,-3.61523 -0.74848,-0.51715 -1.433805,-0.93945 -1.521485,-0.93945 z m 27.158204,0 c -0.0504,0 -0.6509,0.39194 -1.33399,0.87109 -0.68308,0.47912 -2.02355,1.24935 -2.97851,1.71094 -2.6336,1.27311 -4.26811,1.69531 -8.41211,2.17578 l -0.742188,0.0859 0.115235,1.28125 c 0.4876,5.45914 4.056253,27.40109 5.189453,31.90625 2.4396,9.6975 7.71533,15.7819 14.82812,17.10156 4.7464,0.88063 10.63892,-0.7231 14.625,-3.98047 2.14392,-1.75198 3.61632,-3.91895 4.44532,-6.54492 1.784,-5.65074 0.24752,-12.95267 -4.08008,-19.4082 -1.4936,-2.22798 -5.84205,-7.51509 -11.24805,-13.67383 -3.484,-3.96916 -10.30768,-11.52539 -10.4082,-11.52539 z"
     id="path894"
     inkscape:connector-curvature="0" />
  <path
     style="fill:#37b648;stroke-width:3.99997973"
     inkscape:connector-curvature="0"
     id="path2"
     d="m 73.76,175.91806 c -3.15416,-0.371 -5.4564,-1.05039 -7.9576,-2.34814 -5.3936,-2.79865 -9.0468,-7.68952 -10.3692,-13.88066 -0.44548,-2.08614 -0.44524,-6.87633 5.08e-4,-9.02991 1.18252,-5.71474 3.67296,-9.9623 12.1556,-20.73179 5.1448,-6.53193 14.4408,-17.71062 14.7276,-17.71062 0.08768,0 0.77184,0.42312 1.52032,0.94027 2.63896,1.8233 5.7684,3.05293 9.1984,3.61408 0.34636,0.0567 0.66796,0.1658 0.71472,0.24256 0.04672,0.0767 0.35376,3.65352 0.68232,7.94832 1.1868,15.51504 1.64536,24.80015 1.41648,28.68211 -0.21548,3.65504 -1.22484,7.58072 -2.74984,10.69509 -2.19028,4.47276 -5.8444,8.09632 -10.0604,9.9771 -2.883,1.28611 -6.5628,1.92134 -9.2792,1.60187 z m 42.38,-8.56792 c -7.1128,-1.31966 -12.388,-7.40432 -14.8276,-17.10182 -1.1332,-4.50516 -4.702,-26.44654 -5.1896,-31.90568 l -0.11448,-1.28187 0.74256,-0.0861 c 4.144,-0.48047 5.778,-0.90311 8.4116,-2.17622 0.95496,-0.46159 2.29516,-1.23126 2.97824,-1.71038 0.68308,-0.47915 1.28324,-0.87115 1.33368,-0.87115 0.10052,0 6.9244,7.55592 10.4084,11.52508 5.406,6.15874 9.7552,11.44549 11.2488,13.67347 4.3276,6.45553 5.8624,13.75826 4.0784,19.409 -0.829,2.62597 -2.30088,4.79355 -4.4448,6.54553 -3.98608,3.25737 -9.8788,4.86115 -14.6252,3.98052 z m 34.072,-27.71772 c -5.4608,-0.54987 -10.7708,-2.87201 -15.4256,-6.74593 -2.6794,-2.22982 -10.5168,-9.3427 -14.236,-12.92027 -3.1324,-3.01289 -9.2412,-9.19951 -9.2412,-9.3591 0,-0.0826 0.37048,-0.58632 0.82332,-1.11947 2.3284,-2.74149 3.78168,-5.66875 4.7672,-9.602306 l 0.1806,-0.720872 8.514,0.07656 c 24.2696,0.218278 26.4388,0.338676 31.2288,1.733058 5.8416,1.70055 10.532,5.26475 13.054,9.9203 2.894,5.34235 2.82644,11.93388 -0.18484,18.03982 -0.967,1.9607 -1.65456,2.94605 -3.20032,4.58675 -2.80784,2.97993 -6.18,4.86036 -10.1884,5.68115 -1.66808,0.34167 -4.784,0.56163 -6.0912,0.43003 z M 117.364,94.716877 c -0.0537,-1.300747 -0.21916,-2.945531 -0.36768,-3.655044 -0.5864,-2.801891 -1.7548,-5.671142 -3.1758,-7.799121 -0.36912,-0.552754 -0.63136,-1.110229 -0.58276,-1.238787 0.18812,-0.497435 13.3484,-11.429885 18.8364,-15.647842 3.76424,-2.893011 5.9492,-4.331556 8.6452,-5.691543 8.3104,-4.192357 16.0008,-3.94584 21.718,0.695913 2.627,2.132739 4.8428,5.702343 5.772,9.299106 0.61272,2.371336 0.65312,6.107939 0.0908,8.394716 -1.73828,7.069128 -7.0816,11.927879 -15.2448,13.86106 -2.81024,0.665633 -13.0836,2.074179 -21.4052,2.93489 -3.91348,0.404756 -13.0484,1.211348 -13.7192,1.211348 h -0.46976 l -0.0977,-2.365016 z M 39.52,95.700867 C 33.3904,95.064873 28.3524,92.888895 24.9512,89.40493 19.384,83.700988 18.4276,74.837077 22.5092,66.777159 c 2.7672,-5.467945 7.1856,-8.93591 13.0276,-10.223897 2.15148,-0.474875 6.7564,-0.436956 9.094,0.07496 3.39676,0.743873 7.0164,2.284937 10.0256,4.268357 3.68592,2.429576 15.5868,11.86828 21.8692,17.344625 l 3.10268,2.704613 -0.29496,0.456875 c -0.16224,0.251277 -0.60992,0.891031 -0.99484,1.421626 -1.63712,2.256737 -3.07288,5.88634 -3.58792,9.069908 l -0.27868,1.722703 -0.77876,0.102159 c -2.94072,0.385796 -15.5112,1.470185 -21.0356,1.814621 -4.1012,0.255718 -11.3808,0.348117 -13.1372,0.166719 z M 110.708,79.51303 c -2.61376,-2.770012 -7.4124,-5.122748 -11.7672,-5.769542 -0.98224,-0.145838 -1.8118,-0.289677 -1.84348,-0.319596 -0.0316,-0.03 -0.20088,-2.092179 -0.376,-4.582754 -1.02472,-14.572653 -1.33908,-23.254965 -1.04336,-28.817309 0.2914,-5.480745 0.77692,-7.95512 2.16084,-11.012289 1.41368,-3.122928 4.5496,-6.853531 7.3704,-8.768311 6.124,-4.156758 13.6524,-5.327546 20.6432,-3.210648 10.9456,3.314327 17.4528,15.473844 14.5324,27.156126 -1.38548,5.541944 -4.944,11.012689 -13.3132,20.468193 -3.14676,3.555244 -15.036,15.566243 -15.4084,15.566243 -0.15696,0 -0.58692,-0.319557 -0.95548,-0.710153 z M 73.4328,71.57991 C 59.7488,57.71245 55.734,52.620102 53.756,46.621362 52.8508,43.87615 52.60448,42.065808 52.7112,38.94264 c 0.10692,-3.129409 0.43172,-4.586354 1.56648,-7.026729 2.15764,-4.639953 5.8172,-7.763922 11.178,-9.541104 3.7738,-1.251187 7.4088,-1.402666 11.0184,-0.459155 1.96396,0.513395 4.8316,2.0065 6.5252,3.397806 3.08272,2.532054 5.5808,6.558333 6.5968,10.632292 0.72532,2.908451 1.78584,10.014299 3.14272,21.056987 1.28088,10.424295 1.92328,16.247436 1.80676,16.378235 -0.06072,0.06824 -0.68088,0.204838 -1.37816,0.303637 -3.93912,0.558034 -7.5512,2.120859 -10.6004,4.586354 -0.62568,0.505915 -1.24708,0.91987 -1.38088,0.91987 -0.1338,0 -3.62296,-3.425005 -7.7536,-7.611123 z" />
  <path
     style="fill:#ffffff;stroke-width:3.99997973;opacity:0.2"
     d="M 119.20117 16.001953 C 114.29438 15.939007 109.41923 17.38637 105.20898 20.244141 C 102.38818 22.158921 99.251571 25.888791 97.837891 29.011719 C 96.453971 32.068888 95.969134 34.542693 95.677734 40.023438 C 95.59834 41.516808 95.56767 43.258986 95.578125 45.255859 C 95.582501 43.680695 95.612003 42.259806 95.677734 41.023438 C 95.969134 35.542693 96.453971 33.068888 97.837891 30.011719 C 99.251571 26.888791 102.38818 23.158921 105.20898 21.244141 C 109.41923 18.38637 114.29438 16.939003 119.20117 17.001953 C 121.43153 17.030565 123.66694 17.371672 125.85156 18.033203 C 134.86913 20.763723 140.86934 29.498709 141.07227 39.023438 C 141.28483 29.115858 135.18376 19.858993 125.85156 17.033203 C 123.66694 16.371672 121.43153 16.030565 119.20117 16.001953 z M 72.396484 21.316406 C 70.118611 21.240403 67.813703 21.593008 65.455078 22.375 C 60.094278 24.152182 56.434984 27.276063 54.277344 31.916016 C 53.142584 34.356391 52.817858 35.81395 52.710938 38.943359 C 52.683497 39.746398 52.680627 40.459391 52.705078 41.126953 C 52.705459 40.737903 52.696118 40.377054 52.710938 39.943359 C 52.817857 36.81395 53.142584 35.356391 54.277344 32.916016 C 56.434984 28.276063 60.094278 25.152182 65.455078 23.375 C 67.813703 22.593008 70.118611 22.240406 72.396484 22.316406 C 73.763208 22.362008 75.121009 22.562199 76.474609 22.916016 C 78.438569 23.429411 81.3064 24.921194 83 26.3125 C 86.08272 28.844554 88.579703 32.871355 89.595703 36.945312 C 90.321023 39.853763 91.381401 46.959265 92.738281 58.001953 C 93.744147 66.188077 94.339974 71.411591 94.5 73.394531 C 94.505746 73.390796 94.541893 73.384263 94.544922 73.380859 C 94.661442 73.25006 94.019161 67.426248 92.738281 57.001953 C 91.381401 45.959265 90.321023 38.853763 89.595703 35.945312 C 88.579703 31.871354 86.08272 27.844554 83 25.3125 C 81.3064 23.921194 78.438569 22.429411 76.474609 21.916016 C 75.121009 21.562199 73.763208 21.362008 72.396484 21.316406 z M 40.013672 56.220703 C 38.301307 56.206593 36.612849 56.315297 35.537109 56.552734 C 29.695109 57.840721 25.276966 61.309399 22.509766 66.777344 C 20.706647 70.337954 19.891239 74.055398 20.017578 77.587891 C 20.064172 74.357854 20.875677 71.004172 22.509766 67.777344 C 25.276966 62.309399 29.695109 58.840721 35.537109 57.552734 C 36.612849 57.315293 38.301307 57.206593 40.013672 57.220703 C 41.726037 57.234813 43.462059 57.372948 44.630859 57.628906 C 48.027619 58.372779 51.64705 59.913064 54.65625 61.896484 C 58.34217 64.32606 70.242991 73.763889 76.525391 79.240234 L 79.208984 81.580078 C 79.237585 81.537426 79.313678 81.433794 79.333984 81.402344 L 79.628906 80.945312 L 76.525391 78.240234 C 70.242991 72.763889 58.34217 63.32606 54.65625 60.896484 C 51.64705 58.913064 48.027619 57.372779 44.630859 56.628906 C 43.462059 56.372948 41.726037 56.234813 40.013672 56.220703 z M 152.55078 57.71875 C 148.87473 57.600946 144.87395 58.587415 140.71875 60.683594 C 138.02275 62.043581 135.83846 63.483942 132.07422 66.376953 C 126.58622 70.59491 113.4264 81.526002 113.23828 82.023438 C 113.20601 82.108807 113.3376 82.403135 113.51953 82.740234 C 114.98813 81.233474 126.88844 71.362633 132.07422 67.376953 C 135.83846 64.483942 138.02275 63.043581 140.71875 61.683594 C 144.87395 59.587415 148.87473 58.600946 152.55078 58.71875 C 156.22683 58.836554 159.5789 60.059983 162.4375 62.380859 C 165.0645 64.513598 167.27978 68.082925 168.20898 71.679688 C 168.49606 72.79074 168.65264 74.202163 168.68555 75.623047 C 168.72014 73.881089 168.56376 72.052727 168.20898 70.679688 C 167.27978 67.082925 165.0645 63.513598 162.4375 61.380859 C 159.5789 59.059983 156.22683 57.836554 152.55078 57.71875 z M 74.083984 96.046875 C 72.388882 96.036075 60.930313 97.78515 54.945312 98.992188 C 44.344513 101.13016 39.518142 103.10841 35.607422 106.91797 C 33.147662 109.31395 31.660636 111.98226 31.035156 115.12695 C 30.841635 116.1007 30.782254 117.43661 30.833984 118.77148 C 30.840387 117.79507 30.891138 116.85161 31.035156 116.12695 C 31.660636 112.98226 33.147662 110.31395 35.607422 107.91797 C 39.518142 104.10841 44.344513 102.13015 54.945312 99.992188 C 60.930313 98.78515 72.388882 97.036075 74.083984 97.046875 C 74.196992 97.047595 74.267363 97.057189 74.289062 97.074219 C 74.392822 97.155659 74.52995 97.805498 74.59375 98.519531 C 74.94407 102.44209 76.771473 106.85456 79.320312 109.92773 C 79.776536 110.47788 80.068789 110.84145 80.275391 111.10156 C 80.497199 110.77381 80.613144 110.52951 80.53125 110.41602 C 80.44357 110.29446 79.898753 109.62525 79.320312 108.92773 C 76.771473 105.85456 74.94407 101.44209 74.59375 97.519531 C 74.52995 96.805498 74.392822 96.155659 74.289062 96.074219 C 74.267364 96.057191 74.196991 96.047595 74.083984 96.046875 z M 117.08008 99.164062 L 116.90039 99.884766 C 115.91487 103.81832 114.46121 106.74679 112.13281 109.48828 C 111.67997 110.02143 111.30859 110.52482 111.30859 110.60742 C 111.30859 110.62286 111.5911 110.91519 111.69727 111.03516 C 111.82886 110.86426 111.96305 110.68815 112.13281 110.48828 C 114.46121 107.74679 115.91487 104.81832 116.90039 100.88477 L 117.08008 100.16406 L 125.59375 100.24023 C 149.86335 100.45851 152.03227 100.58023 156.82227 101.97461 C 162.66387 103.67516 167.35495 107.23898 169.87695 111.89453 C 171.2177 114.36957 171.91527 117.11453 171.98633 119.95312 C 172.07286 116.75955 171.3748 113.65957 169.87695 110.89453 C 167.35495 106.23898 162.66387 102.67516 156.82227 100.97461 C 152.03227 99.580226 149.86335 99.458512 125.59375 99.240234 L 117.08008 99.164062 z M 82.316406 112.2168 C 82.029606 112.2168 72.734644 123.3958 67.589844 129.92773 C 59.107204 140.69722 56.616114 144.94542 55.433594 150.66016 C 55.188449 151.84455 55.092662 153.80843 55.117188 155.69922 C 55.13717 154.14867 55.232956 152.62951 55.433594 151.66016 C 56.616114 145.94542 59.107204 141.69722 67.589844 130.92773 C 72.734644 124.3958 82.029606 113.2168 82.316406 113.2168 C 82.404086 113.2168 83.089411 113.6391 83.837891 114.15625 C 86.476851 115.97955 89.605156 117.21033 93.035156 117.77148 C 93.381516 117.82818 93.70324 117.93687 93.75 118.01367 C 93.79672 118.09037 94.105034 121.66809 94.433594 125.96289 C 95.413745 138.77641 95.88884 147.27799 95.898438 152.05859 C 95.959552 147.50968 95.482882 138.68024 94.433594 124.96289 C 94.105034 120.66809 93.79672 117.09037 93.75 117.01367 C 93.70324 116.93691 93.381516 116.82818 93.035156 116.77148 C 89.605156 116.21033 86.476851 114.97955 83.837891 113.15625 C 83.089411 112.6391 82.404086 112.2168 82.316406 112.2168 z M 109.47461 112.2168 C 109.42417 112.2168 108.82371 112.60874 108.14062 113.08789 C 107.45754 113.56701 106.11707 114.33724 105.16211 114.79883 C 102.52851 116.07194 100.894 116.49414 96.75 116.97461 L 96.007812 117.06055 L 96.097656 118.05078 L 96.75 117.97461 C 100.894 117.49414 102.52851 117.07194 105.16211 115.79883 C 106.11707 115.33724 107.45754 114.56701 108.14062 114.08789 C 108.82372 113.60874 109.42421 113.2168 109.47461 113.2168 C 109.57513 113.2168 116.39881 120.77303 119.88281 124.74219 C 125.28881 130.90093 129.63726 136.18804 131.13086 138.41602 C 134.17359 142.9549 135.83052 147.91036 135.92969 152.41797 C 136.07427 147.65202 134.4 142.29263 131.13086 137.41602 C 129.63726 135.18804 125.28881 129.90093 119.88281 123.74219 C 116.39881 119.77303 109.57513 112.2168 109.47461 112.2168 z "
     id="path919" />
  <path
     style="fill:#f15b43;stroke-width:3.99997973"
     inkscape:connector-curvature="0"
     id="path8"
     d="m 46.304,136.43846 c -6.6652,-0.772 -13.1044,-6.84794 -15.0224,-14.17586 -0.5104,-1.95198 -0.6236,-5.23595 -0.246,-7.13593 0.62548,-3.14469 2.11144,-5.81354 4.5712,-8.20952 3.91072,-3.80956 8.738,-5.78794 19.3388,-7.925917 6.384,-1.287507 18.9964,-3.189567 19.3436,-2.91713 0.10376,0.08144 0.2408,0.732272 0.3046,1.446305 0.35032,3.922562 2.17836,8.333912 4.7272,11.407082 0.57844,0.69752 1.12348,1.36763 1.21116,1.48919 0.11176,0.15488 -0.04036,0.46951 -0.50856,1.05167 -0.99648,1.23914 -12.3816,12.79227 -14.826,15.04505 -2.34792,2.16361 -6.4852,5.79834 -7.5396,6.62353 -1.23208,0.96451 -3.36744,2.10498 -4.9236,2.62973 -1.31524,0.44348 -4.0044,0.91671 -4.8232,0.84879 -0.13984,-0.0116 -0.86212,-0.0914 -1.60512,-0.17727 z" />
  <circle
     style="opacity:0.1;stroke-width:4;filter:url(#filter942)"
     id="circle14"
     r="24"
     cy="100"
     cx="96" />
  <circle
     style="fill:#ffca2b;stroke-width:4"
     id="circle16"
     r="24"
     cy="96"
     cx="96" />
  <path
     style="opacity:0.2;fill:#ffffff;stroke-width:4"
     d="M 96 72 A 24 24 0 0 0 72 96 A 24 24 0 0 0 72.021484 96.412109 A 24 24 0 0 1 96 73 A 24 24 0 0 1 119.97461 96.496094 A 24 24 0 0 0 120 96 A 24 24 0 0 0 96 72 z "
     id="path18" />
</svg>
