<?xml version="1.0" encoding="UTF-8" standalone="no"?>
<svg
   xmlns:dc="http://purl.org/dc/elements/1.1/"
   xmlns:cc="http://creativecommons.org/ns#"
   xmlns:rdf="http://www.w3.org/1999/02/22-rdf-syntax-ns#"
   xmlns:svg="http://www.w3.org/2000/svg"
   xmlns="http://www.w3.org/2000/svg"
   xmlns:sodipodi="http://sodipodi.sourceforge.net/DTD/sodipodi-0.dtd"
   xmlns:inkscape="http://www.inkscape.org/namespaces/inkscape"
   width="192"
   height="192"
   version="1"
   id="svg14"
   sodipodi:docname="apps_difm_radio.svg"
   inkscape:version="0.92.3 (2405546, 2018-03-11)">
  <metadata
     id="metadata20">
    <rdf:RDF>
      <cc:Work
         rdf:about="">
        <dc:format>image/svg+xml</dc:format>
        <dc:type
           rdf:resource="http://purl.org/dc/dcmitype/StillImage" />
        <dc:title></dc:title>
      </cc:Work>
    </rdf:RDF>
  </metadata>
  <defs
     id="defs18">
    <filter
       inkscape:collect="always"
       style="color-interpolation-filters:sRGB"
       id="filter848"
       x="-0.048"
       width="1.096"
       y="-0.048"
       height="1.096">
      <feGaussianBlur
         inkscape:collect="always"
         stdDeviation="3.2"
         id="feGaussianBlur850" />
    </filter>
    <filter
       inkscape:collect="always"
       style="color-interpolation-filters:sRGB"
       id="filter871"
       x="-0.020625"
       width="1.04125"
       y="-0.028695652"
       height="1.0573913">
      <feGaussianBlur
         inkscape:collect="always"
         stdDeviation="1.375"
         id="feGaussianBlur873" />
    </filter>
    <filter
       inkscape:collect="always"
       style="color-interpolation-filters:sRGB"
       id="filter900"
       x="-0.048"
       width="1.096"
       y="-0.048000001"
       height="1.096">
      <feGaussianBlur
         inkscape:collect="always"
         stdDeviation="1.92"
         id="feGaussianBlur902" />
    </filter>
  </defs>
  <sodipodi:namedview
     pagecolor="#ffffff"
     bordercolor="#666666"
     borderopacity="1"
     objecttolerance="10"
     gridtolerance="10"
     guidetolerance="10"
     inkscape:pageopacity="0"
     inkscape:pageshadow="2"
     inkscape:window-width="1920"
     inkscape:window-height="1018"
     id="namedview16"
     showgrid="false"
     inkscape:zoom="1.75"
     inkscape:cx="67.415842"
     inkscape:cy="29.380462"
     inkscape:window-x="0"
     inkscape:window-y="32"
     inkscape:window-maximized="1"
     inkscape:current-layer="svg14" />
  <rect
     id="rect2"
     transform="matrix(0,-1,-1,0,0,0)"
     ry="8"
     rx="8"
     y="-176"
     x="-180"
     height="160"
     width="160"
     style="opacity:0.2;stroke-width:4;filter:url(#filter848)" />
  <rect
     id="rect4"
     transform="matrix(0,-1,-1,0,0,0)"
     ry="8"
     rx="8"
     y="-176"
     x="-176"
     height="160"
     width="160"
     style="fill:#284361;fill-opacity:1;stroke-width:4" />
  <path
     inkscape:connector-curvature="0"
     style="opacity:0.1;fill:#ffffff;stroke-width:4"
     d="m 24,16 c -4.432,0 -8,3.568 -8,8 v 1 c 0,-4.432 3.568,-8 8,-8 h 144 c 4.432,0 8,3.568 8,8 v -1 c 0,-4.432 -3.568,-8 -8,-8 z"
     id="path6" />
  <path
     inkscape:connector-curvature="0"
     style="opacity:0.2;fill:#000000;fill-opacity:1;stroke:none;stroke-width:12.8668766;stroke-linecap:round;stroke-linejoin:round;stroke-miterlimit:4;stroke-dasharray:none;stroke-opacity:1;filter:url(#filter871)"
     d="m 65,61 v 9 h 30 v -9 z m 0,12 v 9 H 95 V 73 Z M 32,85 v 9 h 30 v -9 z m 33,0 v 9 h 30 v -9 z m 99,0 v 9 h 12 V 85 Z M 16,97 v 9 h 13 v -9 z m 16,0 v 9 h 30 v -9 z m 33,0 v 9 h 30 v -9 z m 66,0 v 9 h 30 v -9 z m 33,0 v 9 h 12 V 97 Z M 16,109 v 9 h 13 v -9 z m 16,0 v 9 h 30 v -9 z m 33,0 v 9 h 30 v -9 z m 33,0 v 9 h 30 v -9 z m 33,0 v 9 h 30 v -9 z m 33,0 v 9 h 12 v -9 z M 16,121 v 9 h 13 v -9 z m 16,0 v 9 h 30 v -9 z m 33,0 v 9 h 30 v -9 z m 33,0 v 9 h 30 v -9 z m 33,0 v 9 h 30 v -9 z m 33,0 v 9 h 12 v -9 z M 16,133 v 9 h 13 v -9 z m 16,0 v 9 h 30 v -9 z m 33,0 v 9 h 30 v -9 z m 33,0 v 9 h 30 v -9 z m 33,0 v 9 h 30 v -9 z m 33,0 v 9 h 12 v -9 z M 16,145 v 9 h 13 v -9 z m 16,0 v 9 h 30 v -9 z m 33,0 v 9 h 30 v -9 z m 33,0 v 9 h 30 v -9 z m 33,0 v 9 h 30 v -9 z m 33,0 v 9 h 12 v -9 z M 16,157 v 9 h 13 v -9 z m 16,0 v 9 h 30 v -9 z m 33,0 v 9 h 30 v -9 z m 33,0 v 9 h 30 v -9 z m 33,0 v 9 h 30 v -9 z m 33,0 v 9 h 12 v -9 z M 16.068359,169 c 0.49006,3.95567 3.839104,7 7.931641,7 h 5 v -7 z M 32,169 v 7 h 30 v -7 z m 33,0 v 7 h 30 v -7 z m 33,0 v 7 h 30 v -7 z m 33,0 v 7 h 30 v -7 z m 33,0 v 7 h 4 c 4.09254,0 7.44158,-3.04433 7.93164,-7 z"
     id="path862" />
  <path
     inkscape:connector-curvature="0"
     style="opacity:1;fill:#288cfb;fill-opacity:1;stroke:none;stroke-width:12.8668766;stroke-linecap:round;stroke-linejoin:round;stroke-miterlimit:4;stroke-dasharray:none;stroke-opacity:1"
     d="m 65,59 v 9 h 30 v -9 z m 0,12 v 9 H 95 V 71 Z M 32,83 v 9 h 30 v -9 z m 33,0 v 9 h 30 v -9 z m 99,0 v 9 h 12 V 83 Z M 16,95 v 9 h 13 v -9 z m 16,0 v 9 h 30 v -9 z m 33,0 v 9 h 30 v -9 z m 66,0 v 9 h 30 v -9 z m 33,0 v 9 h 12 V 95 Z M 16,107 v 9 h 13 v -9 z m 16,0 v 9 h 30 v -9 z m 33,0 v 9 h 30 v -9 z m 33,0 v 9 h 30 v -9 z m 33,0 v 9 h 30 v -9 z m 33,0 v 9 h 12 v -9 z M 16,119 v 9 h 13 v -9 z m 16,0 v 9 h 30 v -9 z m 33,0 v 9 h 30 v -9 z m 33,0 v 9 h 30 v -9 z m 33,0 v 9 h 30 v -9 z m 33,0 v 9 h 12 v -9 z M 16,131 v 9 h 13 v -9 z m 16,0 v 9 h 30 v -9 z m 33,0 v 9 h 30 v -9 z m 33,0 v 9 h 30 v -9 z m 33,0 v 9 h 30 v -9 z m 33,0 v 9 h 12 v -9 z M 16,143 v 9 h 13 v -9 z m 16,0 v 9 h 30 v -9 z m 33,0 v 9 h 30 v -9 z m 33,0 v 9 h 30 v -9 z m 33,0 v 9 h 30 v -9 z m 33,0 v 9 h 12 v -9 z M 16,155 v 9 h 13 v -9 z m 16,0 v 9 h 30 v -9 z m 33,0 v 9 h 30 v -9 z m 33,0 v 9 h 30 v -9 z m 33,0 v 9 h 30 v -9 z m 33,0 v 9 h 12 v -9 z M 16,167 v 1 c 0,4.432 3.568,8 8,8 h 5 v -9 z m 16,0 v 9 h 30 v -9 z m 33,0 v 9 h 30 v -9 z m 33,0 v 9 h 30 v -9 z m 33,0 v 9 h 30 v -9 z m 33,0 v 9 h 4 c 4.432,0 8,-3.568 8,-8 v -1 z"
     id="rect831" />
  <path
     inkscape:connector-curvature="0"
     style="opacity:0.2;fill:#ffffff;fill-opacity:1;stroke:none;stroke-width:12.8668766;stroke-linecap:round;stroke-linejoin:round;stroke-miterlimit:4;stroke-dasharray:none;stroke-opacity:1"
     d="m 65,59 v 1 h 30 v -1 z m 0,12 v 1 H 95 V 71 Z M 32,83 v 1 h 30 v -1 z m 33,0 v 1 h 30 v -1 z m 99,0 v 1 h 12 V 83 Z M 16,95 v 1 h 13 v -1 z m 16,0 v 1 h 30 v -1 z m 33,0 v 1 h 30 v -1 z m 66,0 v 1 h 30 v -1 z m 33,0 v 1 h 12 V 95 Z M 16,107 v 1 h 13 v -1 z m 16,0 v 1 h 30 v -1 z m 33,0 v 1 h 30 v -1 z m 33,0 v 1 h 30 v -1 z m 33,0 v 1 h 30 v -1 z m 33,0 v 1 h 12 v -1 z M 16,119 v 1 h 13 v -1 z m 16,0 v 1 h 30 v -1 z m 33,0 v 1 h 30 v -1 z m 33,0 v 1 h 30 v -1 z m 33,0 v 1 h 30 v -1 z m 33,0 v 1 h 12 v -1 z M 16,131 v 1 h 13 v -1 z m 16,0 v 1 h 30 v -1 z m 33,0 v 1 h 30 v -1 z m 33,0 v 1 h 30 v -1 z m 33,0 v 1 h 30 v -1 z m 33,0 v 1 h 12 v -1 z M 16,143 v 1 h 13 v -1 z m 16,0 v 1 h 30 v -1 z m 33,0 v 1 h 30 v -1 z m 33,0 v 1 h 30 v -1 z m 33,0 v 1 h 30 v -1 z m 33,0 v 1 h 12 v -1 z M 16,155 v 1 h 13 v -1 z m 16,0 v 1 h 30 v -1 z m 33,0 v 1 h 30 v -1 z m 33,0 v 1 h 30 v -1 z m 33,0 v 1 h 30 v -1 z m 33,0 v 1 h 12 v -1 z M 16,167 v 1 h 13 v -1 z m 16,0 v 1 h 30 v -1 z m 33,0 v 1 h 30 v -1 z m 33,0 v 1 h 30 v -1 z m 33,0 v 1 h 30 v -1 z m 33,0 v 1 h 12 v -1 z"
     id="path875" />
  <path
     id="path886"
     d="M 95.999997,50 C 69.440001,50 47.999998,71.440001 47.999998,98.000002 v 32.000008 c 0,0 0,15.99999 16.000003,15.99999 H 80.000006 V 106 H 64.000001 V 98.000002 C 64.000001,80.240001 78.239995,66 95.999997,66 113.76,66 128.00001,80.240001 128.00001,98.000002 V 106 H 112 v 40 h 16.00001 c 0,0 15.99999,0 15.99999,-15.99999 V 98.000002 C 144,71.440001 122.56,50 95.999997,50 Z"
     style="opacity:0.2;fill:#000000;stroke-width:8.00000095;filter:url(#filter900)"
     inkscape:connector-curvature="0" />
  <path
     inkscape:connector-curvature="0"
     style="fill:#ffffff;stroke-width:8.00000095"
     d="M 95.999997,48 C 69.440001,48 47.999998,69.440001 47.999998,96.000002 v 32.000008 c 0,0 0,15.99999 16.000003,15.99999 H 80.000006 V 104 H 64.000001 V 96.000002 C 64.000001,78.240001 78.239995,64 95.999997,64 113.76,64 128.00001,78.240001 128.00001,96.000002 V 104 H 112 v 40 h 16.00001 c 0,0 15.99999,0 15.99999,-15.99999 V 96.000002 C 144,69.440001 122.56,48 95.999997,48 Z"
     id="path2" />
</svg>
