<?xml version="1.0" encoding="UTF-8" standalone="no"?>
<svg
   xmlns:dc="http://purl.org/dc/elements/1.1/"
   xmlns:cc="http://creativecommons.org/ns#"
   xmlns:rdf="http://www.w3.org/1999/02/22-rdf-syntax-ns#"
   xmlns:svg="http://www.w3.org/2000/svg"
   xmlns="http://www.w3.org/2000/svg"
   xmlns:sodipodi="http://sodipodi.sourceforge.net/DTD/sodipodi-0.dtd"
   xmlns:inkscape="http://www.inkscape.org/namespaces/inkscape"
   width="192"
   height="192"
   version="1"
   id="svg14"
   sodipodi:docname="apps_audio_beats.svg"
   inkscape:version="0.92.3 (2405546, 2018-03-11)">
  <metadata
     id="metadata20">
    <rdf:RDF>
      <cc:Work
         rdf:about="">
        <dc:format>image/svg+xml</dc:format>
        <dc:type
           rdf:resource="http://purl.org/dc/dcmitype/StillImage" />
      </cc:Work>
    </rdf:RDF>
  </metadata>
  <defs
     id="defs18">
    <filter
       inkscape:collect="always"
       style="color-interpolation-filters:sRGB"
       id="filter850"
       x="-0.048"
       width="1.096"
       y="-0.048"
       height="1.096">
      <feGaussianBlur
         inkscape:collect="always"
         stdDeviation="3.2"
         id="feGaussianBlur852" />
    </filter>
    <filter
       inkscape:collect="always"
       style="color-interpolation-filters:sRGB"
       id="filter866"
       x="-0.0528"
       width="1.1056"
       y="-0.044"
       height="1.088">
      <feGaussianBlur
         inkscape:collect="always"
         stdDeviation="1.76"
         id="feGaussianBlur868" />
    </filter>
  </defs>
  <sodipodi:namedview
     pagecolor="#ffffff"
     bordercolor="#666666"
     borderopacity="1"
     objecttolerance="10"
     gridtolerance="10"
     guidetolerance="10"
     inkscape:pageopacity="0"
     inkscape:pageshadow="2"
     inkscape:window-width="1920"
     inkscape:window-height="1018"
     id="namedview16"
     showgrid="false"
     inkscape:zoom="1"
     inkscape:cx="96"
     inkscape:cy="96"
     inkscape:window-x="0"
     inkscape:window-y="32"
     inkscape:window-maximized="1"
     inkscape:current-layer="svg14" />
  <rect
     style="opacity:0.2;fill:#000000;stroke-width:4;filter:url(#filter850)"
     width="160"
     height="160"
     x="-180"
     y="-176"
     rx="80"
     ry="80"
     transform="matrix(0,-1,-1,0,0,0)"
     id="rect832" />
  <rect
     id="rect2"
     transform="matrix(0,-1,-1,0,0,0)"
     ry="80"
     rx="80"
     y="-176"
     x="-176"
     height="160"
     width="160"
     style="fill:#f5466a;stroke-width:4" />
  <path
     inkscape:connector-curvature="0"
     id="path8"
     d="m 108,52 c -2.216,0 -4,1.784 -4,4 v 88 c 0,2.216 1.784,4 4,4 2.216,0 4,-1.784 4,-4 V 56 c 0,-2.216 -1.784,-4 -4,-4 z M 96,64 c -2.216,0 -4,1.784 -4,4 v 64 c 0,2.216 1.784,4 4,4 2.216,0 4,-1.784 4,-4 V 68 c 0,-2.216 -1.784,-4 -4,-4 z m -24,8 c -2.216,0 -4,1.784 -4,4 v 48 c 0,2.216 1.784,4 4,4 2.216,0 4,-1.784 4,-4 V 76 c 0,-2.216 -1.784,-4 -4,-4 z m 48,0 c -2.216,0 -4,1.784 -4,4 v 48 c 0,2.216 1.784,4 4,4 2.216,0 4,-1.784 4,-4 V 76 c 0,-2.216 -1.784,-4 -4,-4 z m -36,4 c -2.216,0 -4,1.784 -4,4 v 40 c 0,2.216 1.784,4 4,4 2.216,0 4,-1.784 4,-4 V 80 c 0,-2.216 -1.784,-4 -4,-4 z m -24,8 c -2.216,0 -4,1.784 -4,4 v 24 c 0,2.216 1.784,4 4,4 2.216,0 4,-1.784 4,-4 V 88 c 0,-2.216 -1.784,-4 -4,-4 z m 72,4 c -2.216,0 -4,1.784 -4,4 v 16 c 0,2.216 1.784,4 4,4 2.216,0 4,-1.784 4,-4 V 92 c 0,-2.216 -1.784,-4 -4,-4 z"
     style="opacity:0.2;stroke-width:4;filter:url(#filter866)" />
  <path
     style="opacity:0.2;fill:#ffffff;stroke-width:4"
     d="M 96 16 C 51.684 16 16.007812 51.68 16.007812 96 C 16.007812 96.33544 16.009812 96.667215 16.007812 97 C 16.007812 52.68 51.684 17 96 17 C 140.316 17 175.99219 52.68 175.99219 97 C 175.99019 96.667215 175.99219 96.33544 175.99219 96 C 175.99219 51.68 140.316 16 96 16 z "
     id="path4" />
  <path
     inkscape:connector-curvature="0"
     id="path10"
     d="m 108,48 c -2.216,0 -4,1.784 -4,4 v 88 c 0,2.216 1.784,4 4,4 2.216,0 4,-1.784 4,-4 V 52 c 0,-2.216 -1.784,-4 -4,-4 z M 96,60 c -2.216,0 -4,1.784 -4,4 v 64 c 0,2.216 1.784,4 4,4 2.216,0 4,-1.784 4,-4 V 64 c 0,-2.216 -1.784,-4 -4,-4 z m -24,8 c -2.216,0 -4,1.784 -4,4 v 48 c 0,2.216 1.784,4 4,4 2.216,0 4,-1.784 4,-4 V 72 c 0,-2.216 -1.784,-4 -4,-4 z m 48,0 c -2.216,0 -4,1.784 -4,4 v 48 c 0,2.216 1.784,4 4,4 2.216,0 4,-1.784 4,-4 V 72 c 0,-2.216 -1.784,-4 -4,-4 z m -36,4 c -2.216,0 -4,1.784 -4,4 v 40 c 0,2.216 1.784,4 4,4 2.216,0 4,-1.784 4,-4 V 76 c 0,-2.216 -1.784,-4 -4,-4 z m -24,8 c -2.216,0 -4,1.784 -4,4 v 24 c 0,2.216 1.784,4 4,4 2.216,0 4,-1.784 4,-4 V 84 c 0,-2.216 -1.784,-4 -4,-4 z m 72,4 c -2.216,0 -4,1.784 -4,4 v 16 c 0,2.216 1.784,4 4,4 2.216,0 4,-1.784 4,-4 V 88 c 0,-2.216 -1.784,-4 -4,-4 z"
     style="fill:#ffffff;stroke-width:4" />
</svg>
