<?xml version="1.0" encoding="UTF-8" standalone="no"?>
<svg
   xmlns:dc="http://purl.org/dc/elements/1.1/"
   xmlns:cc="http://creativecommons.org/ns#"
   xmlns:rdf="http://www.w3.org/1999/02/22-rdf-syntax-ns#"
   xmlns:svg="http://www.w3.org/2000/svg"
   xmlns="http://www.w3.org/2000/svg"
   xmlns:sodipodi="http://sodipodi.sourceforge.net/DTD/sodipodi-0.dtd"
   xmlns:inkscape="http://www.inkscape.org/namespaces/inkscape"
   width="192"
   height="192"
   version="1"
   id="svg10"
   sodipodi:docname="apps_ankidroid.svg"
   inkscape:version="0.92.3 (2405546, 2018-03-11)">
  <metadata
     id="metadata16">
    <rdf:RDF>
      <cc:Work
         rdf:about="">
        <dc:format>image/svg+xml</dc:format>
        <dc:type
           rdf:resource="http://purl.org/dc/dcmitype/StillImage" />
        <dc:title></dc:title>
      </cc:Work>
    </rdf:RDF>
  </metadata>
  <defs
     id="defs14">
    <filter
       inkscape:collect="always"
       style="color-interpolation-filters:sRGB"
       id="filter922"
       x="-0.04799868"
       width="1.0959974"
       y="-0.04800132"
       height="1.0960026">
      <feGaussianBlur
         inkscape:collect="always"
         stdDeviation="3.2000215"
         id="feGaussianBlur924" />
    </filter>
  </defs>
  <sodipodi:namedview
     pagecolor="#ffffff"
     bordercolor="#666666"
     borderopacity="1"
     objecttolerance="10"
     gridtolerance="10"
     guidetolerance="10"
     inkscape:pageopacity="0"
     inkscape:pageshadow="2"
     inkscape:window-width="1920"
     inkscape:window-height="1018"
     id="namedview12"
     showgrid="false"
     inkscape:zoom="1"
     inkscape:cx="24"
     inkscape:cy="58.934498"
     inkscape:window-x="0"
     inkscape:window-y="32"
     inkscape:window-maximized="1"
     inkscape:current-layer="svg10" />
  <path
     style="fill:#0088d1;stroke-width:4"
     d="M 84.150391 17.005859 C 82.696755 16.967014 81.224311 17.12112 79.773438 17.482422 C 73.838731 18.957184 69.318939 23.606821 68.125 29.429688 L 60.835938 65.050781 L 26.595703 79.396484 L 26.59375 79.398438 C 20.517259 81.949088 17.318658 87.276388 17.023438 92.775391 C 16.728174 98.275181 19.335633 103.89639 25.105469 107.04883 L 57.623047 124.79883 L 61.044922 160.96289 C 62.252455 173.75752 77.938116 179.63082 87.65625 170.89258 L 115.03906 146.26367 L 151.38086 154.26172 C 164.30689 157.10206 174.84544 144.41421 169.31836 132.73633 L 153.71094 99.746094 L 172.7793 68.523438 C 176.14983 62.996603 175.52938 56.868404 172.44531 52.242188 C 169.36124 47.61597 163.8332 44.551055 157.25586 45.302734 L 120.23828 49.552734 L 95.662109 22.263672 C 92.704722 18.985126 88.510798 17.122383 84.150391 17.005859 z "
     id="path2" />
  <path
     id="path892"
     d="m 82.876,20.023929 a 16.8896,16.4484 0 0 0 -3.344,0.492 16.8896,16.4484 0 0 0 -12.384,12.7108 l -7.188,35.1096 -33.7492,14.14 a 16.8896,16.4484 0 0 0 -1.586,29.452001 l 32.0552,17.492 3.368,35.636 a 16.8896,16.4484 0 0 0 28.272,10.584 l 27.008,-24.288 35.836,7.892 a 16.8896,16.4484 0 0 0 19.056,-22.94 l -15.376,-32.5 18.788,-30.756001 a 16.8896,16.4484 0 0 0 -16.492,-24.744 l -36.508,4.196 -24.224,-26.9064 a 16.8896,16.4484 0 0 0 -13.532,-5.57 z m 0.516,16.0156 a 16.0016,16.0016 0 0 0 0.008,0 c 0.48,-0.12 0.952,0.0832 1.124,0.2732 l 24.228,26.8996 a 16.0016,16.0016 0 0 0 13.708,5.188 l 36.5,-4.196 c 1.028,-0.12 0.836,0.112 1,0.36 0.04,0.056 0.076,0.06 0.112,0.044 -0.028,0.02 -0.012,-0.048 -0.104,0.104 l -18.78,30.756 a 16.0016,16.0016 0 0 0 -0.804,15.180001 l 15.372,32.5 a 16.0016,16.0016 0 0 0 0,0.008 c 0.54,1.136 0.836,0.892 -1.156,0.452 l -35.836,-7.88 a 16.0016,16.0016 0 0 0 -14.14,3.724 l -27,24.292 c -1.212,1.088 -1.544,0.888 -1.648,-0.188 a 16.0016,16.0016 0 0 0 0,-0.008 l -3.368,-35.632 a 16.0016,16.0016 0 0 0 -8.264,-12.54 L 32.2968,97.884329 c -0.8112,-0.444 -0.3056,-0.144 -0.2968,-0.304 0.0084,-0.16 -0.4252,-0.004 0.3908,-0.344 l 0.0076,-0.008 33.7416,-14.136 a 16.0016,16.0016 0 0 0 9.492,-11.552 l 7.188,-35.0948 c 0.012,-0.0628 0.076,-0.2832 0.572,-0.406 z"
     inkscape:connector-curvature="0"
     style="opacity:0.2;fill:#000000;stroke-width:4;filter:url(#filter922)" />
  <path
     style="fill:#e4e4e4;stroke-width:4"
     inkscape:connector-curvature="0"
     d="m 82.876,16.0236 a 16.8896,16.4484 0 0 0 -3.344,0.492 16.8896,16.4484 0 0 0 -12.384,12.7108 L 59.96,64.336 26.2108,78.476 a 16.8896,16.4484 0 0 0 -1.586,29.452 L 56.68,125.42 60.048,161.056 A 16.8896,16.4484 0 0 0 88.32,171.64 l 27.008,-24.288 35.836,7.892 a 16.8896,16.4484 0 0 0 19.056,-22.94 l -15.376,-32.5 18.788,-30.756 A 16.8896,16.4484 0 0 0 157.14,44.304 L 120.632,48.5 96.408,21.5936 a 16.8896,16.4484 0 0 0 -13.532,-5.57 z m 0.516,16.0156 a 16.0016,16.0016 0 0 0 0.008,0 c 0.48,-0.12 0.952,0.0832 1.124,0.2732 L 108.752,59.212 A 16.0016,16.0016 0 0 0 122.46,64.4 l 36.5,-4.196 c 1.028,-0.12 0.836,0.112 1,0.36 0.04,0.056 0.076,0.06 0.112,0.044 -0.028,0.02 -0.012,-0.048 -0.104,0.104 l -18.78,30.756 a 16.0016,16.0016 0 0 0 -0.804,15.18 l 15.372,32.5 a 16.0016,16.0016 0 0 0 0,0.008 c 0.54,1.136 0.836,0.892 -1.156,0.452 l -35.836,-7.88 a 16.0016,16.0016 0 0 0 -14.14,3.724 l -27,24.292 c -1.212,1.088 -1.544,0.888 -1.648,-0.188 a 16.0016,16.0016 0 0 0 0,-0.008 l -3.368,-35.632 a 16.0016,16.0016 0 0 0 -8.264,-12.54 L 32.2968,93.884 C 31.4856,93.44 31.9912,93.74 32,93.58 32.0084,93.42 31.5748,93.576 32.3908,93.236 L 32.3984,93.228 66.14,79.092 A 16.0016,16.0016 0 0 0 75.632,67.54 L 82.82,32.4452 c 0.012,-0.0628 0.076,-0.2832 0.572,-0.406 z"
     id="path4" />
  <path
     style="opacity:0.2;fill:#ffffff;stroke-width:4"
     d="M 82.876953 16.023438 A 16.8896 16.4484 0 0 0 79.53125 16.515625 A 16.8896 16.4484 0 0 0 67.148438 29.226562 L 59.960938 64.335938 L 26.210938 78.476562 A 16.8896 16.4484 0 0 0 16.033203 94.326172 A 16.8896 16.4484 0 0 1 26.210938 79.476562 L 59.960938 65.335938 L 67.148438 30.226562 A 16.8896 16.4484 0 0 1 79.53125 17.515625 A 16.8896 16.4484 0 0 1 82.876953 17.023438 A 16.8896 16.4484 0 0 1 96.408203 22.59375 L 120.63281 49.5 L 157.14062 45.304688 A 16.8896 16.4484 0 0 1 175.9668 61.300781 A 16.8896 16.4484 0 0 0 157.14062 44.304688 L 120.63281 48.5 L 96.408203 21.59375 A 16.8896 16.4484 0 0 0 82.876953 16.023438 z M 155.91602 102.06445 L 154.84375 103.80273 L 155.11133 104.36914 L 155.91602 103.06445 L 170.2207 133.30469 A 16.8896 16.4484 0 0 1 171.73633 139.81445 A 16.8896 16.4484 0 0 0 170.2207 132.30273 L 155.91602 102.06445 z "
     id="path6" />
</svg>
