<?xml version="1.0" encoding="UTF-8" standalone="no"?>
<svg
   xmlns:dc="http://purl.org/dc/elements/1.1/"
   xmlns:cc="http://creativecommons.org/ns#"
   xmlns:rdf="http://www.w3.org/1999/02/22-rdf-syntax-ns#"
   xmlns:svg="http://www.w3.org/2000/svg"
   xmlns="http://www.w3.org/2000/svg"
   xmlns:sodipodi="http://sodipodi.sourceforge.net/DTD/sodipodi-0.dtd"
   xmlns:inkscape="http://www.inkscape.org/namespaces/inkscape"
   width="192"
   height="192"
   version="1"
   id="svg12"
   sodipodi:docname="apps_mega.svg"
   inkscape:version="0.92.3 (2405546, 2018-03-11)">
  <metadata
     id="metadata18">
    <rdf:RDF>
      <cc:Work
         rdf:about="">
        <dc:format>image/svg+xml</dc:format>
        <dc:type
           rdf:resource="http://purl.org/dc/dcmitype/StillImage" />
        <dc:title></dc:title>
      </cc:Work>
    </rdf:RDF>
  </metadata>
  <defs
     id="defs16">
    <filter
       inkscape:collect="always"
       style="color-interpolation-filters:sRGB"
       id="filter856"
       x="-0.048"
       width="1.096"
       y="-0.048"
       height="1.096">
      <feGaussianBlur
         inkscape:collect="always"
         stdDeviation="3.2"
         id="feGaussianBlur858" />
    </filter>
    <filter
       inkscape:collect="always"
       style="color-interpolation-filters:sRGB"
       id="filter874"
       x="-0.044869565"
       width="1.0897391"
       y="-0.0516"
       height="1.1032">
      <feGaussianBlur
         inkscape:collect="always"
         stdDeviation="1.72"
         id="feGaussianBlur876" />
    </filter>
  </defs>
  <sodipodi:namedview
     pagecolor="#ffffff"
     bordercolor="#666666"
     borderopacity="1"
     objecttolerance="10"
     gridtolerance="10"
     guidetolerance="10"
     inkscape:pageopacity="0"
     inkscape:pageshadow="2"
     inkscape:window-width="1920"
     inkscape:window-height="1018"
     id="namedview14"
     showgrid="false"
     inkscape:zoom="2.29"
     inkscape:cx="24"
     inkscape:cy="76.401747"
     inkscape:window-x="0"
     inkscape:window-y="32"
     inkscape:window-maximized="1"
     inkscape:current-layer="svg12" />
  <rect
     id="rect838"
     ry="80"
     rx="80"
     y="20"
     x="16"
     height="160"
     width="160"
     style="opacity:0.2;fill:#000000;stroke-width:4;filter:url(#filter856)" />
  <rect
     style="fill:#e32037;stroke-width:4"
     width="160"
     height="160"
     x="16"
     y="16"
     rx="80"
     ry="80"
     id="rect2" />
  <path
     style="opacity:0.2;fill:#ffffff;stroke-width:4"
     d="M 95.998047 16 C 51.678955 16.001052 16 51.680653 16 96 C 16 96.115498 16.006172 96.228859 16.007812 96.34375 C 16.358829 52.329731 51.898462 17.001046 95.998047 17 L 96 17 C 140.10547 17.001047 175.64856 52.339122 175.99023 96.361328 C 175.99198 96.240601 175.99805 96.121307 175.99805 96 C 175.99805 51.680653 140.31909 16.001052 96 16 L 95.998047 16 z "
     id="path6" />
  <path
     style="opacity:0.2;fill:#000000;stroke-width:4;filter:url(#filter874)"
     inkscape:connector-curvature="0"
     id="path860"
     d="m 50,58 v 80 H 74 V 94 l 22,20 22,-20 v 44 h 24 V 58 H 118 L 96,78 74,58 Z" />
  <path
     d="m 50,56 v 80 H 74 V 92 l 22,20 22,-20 v 44 h 24 V 56 H 118 L 96,76 74,56 Z"
     id="path8"
     inkscape:connector-curvature="0"
     style="fill:#ffffff;stroke-width:4" />
</svg>
