<?xml version="1.0" encoding="UTF-8" standalone="no"?>
<svg
   xmlns:dc="http://purl.org/dc/elements/1.1/"
   xmlns:cc="http://creativecommons.org/ns#"
   xmlns:rdf="http://www.w3.org/1999/02/22-rdf-syntax-ns#"
   xmlns:svg="http://www.w3.org/2000/svg"
   xmlns="http://www.w3.org/2000/svg"
   xmlns:sodipodi="http://sodipodi.sourceforge.net/DTD/sodipodi-0.dtd"
   xmlns:inkscape="http://www.inkscape.org/namespaces/inkscape"
   width="192"
   height="192"
   version="1"
   id="svg12"
   sodipodi:docname="apps_pyrope_browser.svg"
   inkscape:version="0.92.3 (2405546, 2018-03-11)">
  <metadata
     id="metadata18">
    <rdf:RDF>
      <cc:Work
         rdf:about="">
        <dc:format>image/svg+xml</dc:format>
        <dc:type
           rdf:resource="http://purl.org/dc/dcmitype/StillImage" />
      </cc:Work>
    </rdf:RDF>
  </metadata>
  <defs
     id="defs16">
    <filter
       inkscape:collect="always"
       style="color-interpolation-filters:sRGB"
       id="filter852"
       x="-0.048"
       width="1.096"
       y="-0.048"
       height="1.096">
      <feGaussianBlur
         inkscape:collect="always"
         stdDeviation="3.2"
         id="feGaussianBlur854" />
    </filter>
    <filter
       inkscape:collect="always"
       style="color-interpolation-filters:sRGB"
       id="filter870"
       x="-0.023534766"
       width="1.0470695"
       y="-0.024483998"
       height="1.048968">
      <feGaussianBlur
         inkscape:collect="always"
         stdDeviation="1.5689844"
         id="feGaussianBlur872" />
    </filter>
  </defs>
  <sodipodi:namedview
     pagecolor="#ffffff"
     bordercolor="#666666"
     borderopacity="1"
     objecttolerance="10"
     gridtolerance="10"
     guidetolerance="10"
     inkscape:pageopacity="0"
     inkscape:pageshadow="2"
     inkscape:window-width="1920"
     inkscape:window-height="1018"
     id="namedview14"
     showgrid="false"
     inkscape:zoom="1"
     inkscape:cx="96"
     inkscape:cy="96"
     inkscape:window-x="0"
     inkscape:window-y="32"
     inkscape:window-maximized="1"
     inkscape:current-layer="svg12" />
  <circle
     style="opacity:0.2;fill:#000000;fill-opacity:1;stroke:none;stroke-width:10.23480225;stroke-linecap:round;stroke-linejoin:round;stroke-miterlimit:4;stroke-dasharray:none;stroke-opacity:1;filter:url(#filter852)"
     id="path834"
     cx="96"
     cy="100"
     r="80" />
  <rect
     id="rect2"
     transform="matrix(0,-1,-1,0,0,0)"
     ry="78"
     rx="78"
     y="-174"
     x="-174"
     height="156"
     width="156"
     style="fill:#ce3e3e;stroke-width:4" />
  <path
     inkscape:connector-curvature="0"
     id="path4"
     d="m 96,16 c -11.986448,0 -23.317612,2.723102 -33.531248,7.460938 -0.0076,0.0034 -0.016,0.0044 -0.0236,0.0078 -7.356408,3.415198 -14.0887,7.909112 -20.031248,13.289062 l -0.0236,-0.02344 c -0.932632,0.843906 -1.904664,1.644542 -2.796554,2.531265 l -0.328124,0.328124 c -0.886724,0.891891 -1.68736,1.863923 -2.531251,2.796875 l 0.02344,0.0236 c -5.218231,5.763916 -9.593083,12.2751 -12.96875,19.375 -4.85e-4,0.001 -0.0073,-10e-4 -0.0078,0 -0.0134,0.0284 -0.02568,0.05756 -0.03908,0.08592 C 18.829144,72.241216 16,83.780032 16,96 c 0,20.62987 7.904148,39.38813 20.757812,53.58594 l -0.02344,0.0236 c 0.89341,0.9874 1.746157,2.01178 2.6875,2.95312 0.946673,0.94667 1.983309,1.79712 2.976561,2.69531 l 0.0156,-0.0156 C 56.611872,168.09585 75.370128,176 96,176 c 20.62987,0 39.38813,-7.90415 53.58594,-20.75781 l 0.008,0.008 c 0.11764,-0.1064 0.2268,-0.22108 0.34376,-0.32812 1.73456,-1.58907 3.3953,-3.24981 4.98437,-4.98438 0.10704,-0.11696 0.22172,-0.22612 0.32812,-0.34376 l -0.008,-0.008 C 168.09585,135.38813 176,116.62987 176,96 176,75.370128 168.09585,56.611872 155.24219,42.414064 l 0.0156,-0.0156 c -0.89817,-0.99328 -1.74862,-2.029916 -2.69529,-2.976589 -0.94134,-0.941343 -1.96572,-1.794091 -2.95312,-2.6875 l -0.0236,0.02344 c -5.76204,-5.216675 -12.26959,-9.593488 -19.36703,-12.968753 -0.008,-0.0035 -0.016,-0.0043 -0.0236,-0.0078 C 119.8106,18.846604 108.24851,16 96,16 Z m -4,8.203125 v 6.132813 L 80.796876,25.632812 C 84.431576,24.853164 88.182888,24.412738 92,24.203125 Z m 8,0 c 4.03363,0.221504 7.98399,0.729325 11.8125,1.585937 L 100,30.625 Z M 68.882812,29.3125 88.710936,37.625 76.765624,49.570312 H 60.171876 l 8.460936,-20.171874 c 0.08124,-0.03336 0.1686,-0.05287 0.25,-0.08594 z m 54.890628,0.234376 c 0.0591,0.02468 0.12064,0.04547 0.17968,0.07031 l 8.16406,19.953124 h -16.8828 L 103.5,37.835938 Z m -66.250004,5.640625 -4.929684,11.75 -4.562504,-4.5625 c 2.957092,-2.646193 6.1247,-5.054389 9.492188,-7.1875 z m 77.492184,0.328124 c 3.17066,2.047614 6.15214,4.352873 8.95313,6.859375 l -4.36719,4.367188 z M 96,41.656248 l 7.91406,7.914064 H 88.085936 Z m -53.625,6.375 4.367188,4.367188 -11.226563,4.593752 c 2.048535,-3.172728 4.351395,-6.1583 6.859375,-8.96094 z m 107.25,0 c 2.64767,2.958744 5.0535,6.130416 7.1875,9.5 L 145.05469,52.601564 Z M 57.570312,57.570312 H 68.765624 L 57.570312,68.765624 Z m 22.515624,0 h 31.828124 l 22.50782,22.5 v 31.843748 l -22.51563,22.51563 H 80.078124 L 57.570312,111.91406 V 80.085936 Z m 43.148444,0 h 11.1875 v 11.1875 z m -73.664068,2.3125 V 76.765624 L 37.835938,88.5 29.546875,68.226564 c 0.02468,-0.05912 0.04547,-0.12064 0.07031,-0.17968 z m 92.851568,0.28124 20.17968,8.468748 c 0.0332,0.08124 0.0529,0.1686 0.0859,0.25 L 154.375,88.710936 142.42188,76.757812 Z M 25.796876,80.179688 30.625001,92 h -6.421875 c 0.221682,-4.036908 0.735948,-7.98888 1.59375,-11.820312 z m 140.570314,0.617188 c 0.77965,3.6347 1.22007,7.386012 1.42969,11.203124 h -6.13282 z m -23.94531,7.273436 7.92187,7.921876 -7.92187,7.921872 z m -92.851568,0.0156 V 103.91404 L 41.656248,96 Z M 24.203125,100 h 6.132813 l -4.703126,11.20312 C 24.853164,107.56842 24.412738,103.81711 24.203125,100 Z m 137.164065,0 h 6.42969 c -0.22184,4.03951 -0.73501,7.99437 -1.59376,11.82812 z m -123.742189,3.28906 11.945311,11.94532 v 16.59374 l -20.171874,-8.46093 c -0.03336,-0.0812 -0.05287,-0.1686 -0.08594,-0.25 z m 116.531249,0.20312 8.29687,20.28125 c -0.0248,0.0591 -0.0455,0.12064 -0.0703,0.17968 l -19.96093,8.16407 v -16.89063 z m -19.73437,19.73438 v 11.20312 h -11.20313 z m -76.851568,0.008 11.195312,11.19531 H 57.570312 Z m -22.382811,11.23438 11.749999,4.93749 -4.5625,4.56251 c -2.64767,-2.95875 -5.053501,-6.13042 -7.187499,-9.5 z M 156.48438,135.008 c -2.04854,3.17272 -4.3514,6.1583 -6.85938,8.96094 l -4.36719,-4.36719 z m -96.601568,7.42187 H 76.765624 L 88.5,154.16425 68.226564,162.45331 c -0.05912,-0.0248 -0.12064,-0.0455 -0.17968,-0.0703 z m 28.195312,0 h 15.828126 l -7.914062,7.91407 z m 27.140626,0 h 16.60937 l -8.46093,20.17188 c -0.0812,0.0332 -0.1686,0.0529 -0.25,0.0859 l -19.83594,-8.32031 z m 24.1875,2.63281 4.5625,4.5625 c -2.95874,2.64768 -6.13041,5.0535 -9.5,7.1875 z m -87.007814,0.19532 4.593752,11.22657 c -3.172728,-2.04873 -6.1583,-4.35159 -8.96094,-6.85957 z M 92,161.375 v 6.42188 c -4.033632,-0.22152 -7.983988,-0.72933 -11.8125,-1.58594 z m 8,0.28908 11.20312,4.70312 c -3.6347,0.77964 -7.38601,1.22006 -11.20312,1.42968 z"
     style="fill:#8d1e1e;stroke-width:4" />
  <path
     style="opacity:0.1;fill:#ffffff;stroke-width:4"
     d="M 96 16.072266 C 51.72 16.072266 16.072266 51.7196 16.072266 96 C 16.072266 96.335468 16.074264 96.667191 16.072266 97 C 16.072266 52.7196 51.72 17.072266 96 17.072266 C 140.28 17.072266 175.92773 52.720094 175.92773 96.996094 C 175.92574 96.663285 175.92773 96.331561 175.92773 95.996094 C 175.92773 51.720094 140.28 16.072266 96 16.072266 z "
     id="path6" />
  <path
     style="fill:#000000;stroke-width:4;opacity:0.2;filter:url(#filter870)"
     d="M 96 16 C 84.013552 16 72.682386 18.723102 62.46875 23.460938 C 62.46115 23.464337 62.452913 23.46535 62.445312 23.46875 C 55.088904 26.883948 48.35661 31.377862 42.414062 36.757812 L 42.390625 36.734375 C 41.457993 37.578281 40.48564 38.378902 39.59375 39.265625 L 39.265625 39.59375 C 38.378901 40.485641 37.578266 41.457673 36.734375 42.390625 L 36.757812 42.414062 C 31.539582 48.177979 27.164729 54.689163 23.789062 61.789062 C 23.788577 61.790062 23.78175 61.788063 23.78125 61.789062 C 23.76785 61.817462 23.755588 61.84664 23.742188 61.875 C 18.829146 72.241072 16 83.780032 16 96 C 16 96.254071 16.015186 96.504314 16.017578 96.757812 C 16.202604 84.99866 18.996206 73.888592 23.742188 63.875 C 23.755588 63.84664 23.76785 63.817462 23.78125 63.789062 C 23.78175 63.788063 23.788577 63.790062 23.789062 63.789062 C 27.164729 56.689163 31.539582 50.177979 36.757812 44.414062 L 36.734375 44.390625 C 37.578266 43.457673 38.378901 42.485641 39.265625 41.59375 L 39.59375 41.265625 C 40.48564 40.378902 41.457993 39.578281 42.390625 38.734375 L 42.414062 38.757812 C 48.35661 33.377862 55.088904 28.883948 62.445312 25.46875 C 62.452913 25.46535 62.46115 25.464337 62.46875 25.460938 C 72.682386 20.723102 84.013552 18 96 18 C 108.24851 18 119.81076 20.846592 130.19531 25.78125 C 130.20291 25.78475 130.21075 25.785563 130.21875 25.789062 C 137.31619 29.164327 143.8239 33.541137 149.58594 38.757812 L 149.60938 38.734375 C 150.59678 39.627784 151.62116 40.480532 152.5625 41.421875 C 153.50917 42.368548 154.35964 43.405158 155.25781 44.398438 L 155.24219 44.414062 C 167.88695 58.381131 175.72459 76.765943 175.97656 97 C 175.98073 96.665729 176 96.335271 176 96 C 176 75.370128 168.09585 56.61187 155.24219 42.414062 L 155.25781 42.398438 C 154.35964 41.405158 153.50917 40.368548 152.5625 39.421875 C 151.62116 38.480532 150.59678 37.627784 149.60938 36.734375 L 149.58594 36.757812 C 143.8239 31.541137 137.31619 27.164327 130.21875 23.789062 C 130.21075 23.785563 130.20291 23.78475 130.19531 23.78125 C 119.81076 18.846592 108.24851 16 96 16 z M 84.117188 27.027344 C 83.002066 27.203648 81.892207 27.397862 80.796875 27.632812 L 92 32.335938 L 92 30.335938 L 84.117188 27.027344 z M 108.49805 27.146484 L 100 30.625 L 100 32.625 L 111.8125 27.789062 C 110.71848 27.54428 109.61107 27.335763 108.49805 27.146484 z M 57.523438 37.1875 C 57.130147 37.436627 56.749149 37.702412 56.361328 37.958984 L 52.59375 46.9375 L 49.107422 43.451172 C 48.749192 43.75959 48.383523 44.059764 48.03125 44.375 L 52.59375 48.9375 L 57.523438 37.1875 z M 135.01562 37.515625 L 139.60156 48.742188 L 143.96875 44.375 C 143.61655 44.059828 143.25246 43.757915 142.89453 43.449219 L 139.60156 46.742188 L 136.14453 38.279297 C 135.76788 38.02513 135.39776 37.762406 135.01562 37.515625 z M 87.300781 39.035156 L 76.765625 49.570312 L 61.011719 49.570312 L 60.171875 51.570312 L 76.765625 51.570312 L 88.710938 39.625 L 87.300781 39.035156 z M 104.91992 39.255859 L 103.5 39.835938 L 115.23438 51.570312 L 132.11719 51.570312 L 131.29883 49.570312 L 115.23438 49.570312 L 104.91992 39.255859 z M 90.085938 49.570312 L 88.085938 51.570312 L 103.91406 51.570312 L 101.91406 49.570312 L 90.085938 49.570312 z M 45.322266 52.978516 L 37.419922 56.212891 C 36.765942 57.124791 36.12578 58.047192 35.515625 58.992188 L 46.742188 54.398438 L 45.322266 52.978516 z M 146.46289 53.193359 L 145.05469 54.601562 L 156.8125 59.53125 C 156.21497 58.587754 155.59067 57.664086 154.95117 56.751953 L 146.46289 53.193359 z M 66.765625 59.570312 L 57.570312 68.765625 L 57.570312 70.765625 L 68.765625 59.570312 L 66.765625 59.570312 z M 123.23438 59.570312 L 134.42188 70.757812 L 134.42188 68.757812 L 125.23438 59.570312 L 123.23438 59.570312 z M 30.195312 69.810547 L 29.617188 70.046875 C 29.592348 70.105915 29.571555 70.167443 29.546875 70.226562 L 37.835938 90.5 L 49.570312 78.765625 L 49.570312 76.765625 L 37.835938 88.5 L 30.195312 69.810547 z M 162.05078 70.402344 L 154.375 88.710938 L 142.42188 76.757812 L 142.42188 78.757812 L 154.375 90.710938 L 162.6875 70.882812 C 162.6545 70.801412 162.63476 70.714052 162.60156 70.632812 L 162.05078 70.402344 z M 24.351562 92 C 24.298396 92.665369 24.239929 93.329786 24.203125 94 L 30.625 94 L 29.808594 92 L 24.351562 92 z M 162.50391 92 L 161.66406 94 L 167.79688 94 C 167.76009 93.330239 167.70587 92.665435 167.6543 92 L 162.50391 92 z M 149.34375 96.992188 L 142.42188 103.91406 L 142.42188 105.91406 L 150.34375 97.992188 L 149.34375 96.992188 z M 42.65625 97 L 41.65625 98 L 49.570312 105.91406 L 49.570312 103.91406 L 42.65625 97 z M 24.203125 102 C 24.412738 105.81711 24.853165 109.56843 25.632812 113.20312 L 30.335938 102 L 29.496094 102 L 25.632812 111.20312 C 24.989964 108.20618 24.588075 105.12702 24.345703 102 L 24.203125 102 z M 161.36719 102 L 166.20312 113.82812 C 167.06187 109.99437 167.57504 106.03951 167.79688 102 L 167.64844 102 C 167.38153 105.34503 166.9194 108.63045 166.20312 111.82812 L 162.18555 102 L 161.36719 102 z M 57.570312 111.91406 L 57.570312 113.91406 L 80.078125 136.42969 L 111.90625 136.42969 L 134.42188 113.91406 L 134.42188 111.91406 L 111.90625 134.42969 L 80.078125 134.42969 L 57.570312 111.91406 z M 29.949219 123.59766 L 29.3125 125.11719 C 29.34557 125.19859 29.365078 125.28599 29.398438 125.36719 L 49.570312 133.82812 L 49.570312 131.82812 L 29.949219 123.59766 z M 161.80469 124.18945 L 142.42188 132.11719 L 142.42188 134.11719 L 162.38281 125.95312 C 162.40761 125.89409 162.42833 125.83254 162.45312 125.77344 L 161.80469 124.18945 z M 57.570312 134.42969 L 57.570312 136.42969 L 68.765625 136.42969 L 66.765625 134.42969 L 57.570312 134.42969 z M 125.21875 134.42969 L 123.21875 136.42969 L 134.42188 136.42969 L 134.42188 134.42969 L 125.21875 134.42969 z M 35.1875 136.46875 C 37.321498 139.83833 39.72733 143.01 42.375 145.96875 L 46.9375 141.40625 L 45.529297 140.81445 L 42.375 143.96875 C 40.469644 141.83953 38.694475 139.59611 37.050781 137.25195 L 35.1875 136.46875 z M 156.48438 137.00781 L 154.58008 137.78711 C 153.03839 139.93682 151.38598 142.00088 149.625 143.96875 L 146.67773 141.02148 L 145.25781 141.60156 L 149.625 145.96875 C 152.13298 143.16611 154.43583 140.18053 156.48438 137.00781 z M 59.882812 144.42969 L 68.046875 164.38281 C 68.105915 164.40761 68.167443 164.42833 68.226562 164.45312 L 88.5 156.16406 L 87.080078 154.74414 L 68.226562 162.45312 C 68.167443 162.42833 68.105915 162.40761 68.046875 162.38281 L 60.701172 144.42969 L 59.882812 144.42969 z M 88.078125 144.42969 L 95.992188 152.34375 L 103.90625 144.42969 L 101.90625 144.42969 L 95.992188 150.34375 L 90.078125 144.42969 L 88.078125 144.42969 z M 130.98828 144.42969 L 123.36719 162.60156 C 123.28599 162.63476 123.19859 162.6545 123.11719 162.6875 L 104.68945 154.95898 L 103.28125 156.36719 L 123.11719 164.6875 C 123.19859 164.6545 123.28599 164.63476 123.36719 164.60156 L 131.82812 144.42969 L 130.98828 144.42969 z M 142.89258 150.54883 C 140.59348 152.52733 138.17171 154.36239 135.63281 156.04102 L 134.46875 158.8125 C 137.83834 156.6785 141.01001 154.27268 143.96875 151.625 L 142.89258 150.54883 z M 49.105469 150.55078 L 48.03125 151.625 C 50.83389 154.13298 53.81946 156.43564 56.992188 158.48438 L 55.861328 155.7207 C 53.503929 154.13085 51.252606 152.40167 49.105469 150.55078 z M 83.501953 166.85352 L 80.1875 168.21094 C 84.016012 169.06755 87.966368 169.57536 92 169.79688 L 92 167.79688 C 89.119007 167.63866 86.283928 167.32661 83.501953 166.85352 z M 107.88281 166.97266 C 105.29757 167.38139 102.66681 167.65042 100 167.79688 L 100 169.79688 C 103.81711 169.58726 107.56843 169.14683 111.20312 168.36719 L 107.88281 166.97266 z "
     id="path859" />
</svg>
