<?xml version="1.0" encoding="UTF-8" standalone="no"?>
<svg
   xmlns:dc="http://purl.org/dc/elements/1.1/"
   xmlns:cc="http://creativecommons.org/ns#"
   xmlns:rdf="http://www.w3.org/1999/02/22-rdf-syntax-ns#"
   xmlns:svg="http://www.w3.org/2000/svg"
   xmlns="http://www.w3.org/2000/svg"
   xmlns:sodipodi="http://sodipodi.sourceforge.net/DTD/sodipodi-0.dtd"
   xmlns:inkscape="http://www.inkscape.org/namespaces/inkscape"
   width="192"
   height="192"
   version="1"
   id="svg16"
   sodipodi:docname="apps_linphone.svg"
   inkscape:version="0.92.3 (2405546, 2018-03-11)">
  <metadata
     id="metadata22">
    <rdf:RDF>
      <cc:Work
         rdf:about="">
        <dc:format>image/svg+xml</dc:format>
        <dc:type
           rdf:resource="http://purl.org/dc/dcmitype/StillImage" />
        <dc:title></dc:title>
      </cc:Work>
    </rdf:RDF>
  </metadata>
  <defs
     id="defs20">
    <filter
       inkscape:collect="always"
       style="color-interpolation-filters:sRGB"
       id="filter861"
       x="-0.048"
       width="1.096"
       y="-0.048"
       height="1.096">
      <feGaussianBlur
         inkscape:collect="always"
         stdDeviation="3.2"
         id="feGaussianBlur863" />
    </filter>
    <filter
       inkscape:collect="always"
       style="color-interpolation-filters:sRGB"
       id="filter885"
       x="-0.04799973"
       width="1.0959995"
       y="-0.04800027"
       height="1.0960005">
      <feGaussianBlur
         inkscape:collect="always"
         stdDeviation="1.7599972"
         id="feGaussianBlur887" />
    </filter>
  </defs>
  <sodipodi:namedview
     pagecolor="#ffffff"
     bordercolor="#666666"
     borderopacity="1"
     objecttolerance="10"
     gridtolerance="10"
     guidetolerance="10"
     inkscape:pageopacity="0"
     inkscape:pageshadow="2"
     inkscape:window-width="1920"
     inkscape:window-height="1018"
     id="namedview18"
     showgrid="false"
     inkscape:zoom="2.63"
     inkscape:cx="24"
     inkscape:cy="69.627376"
     inkscape:window-x="0"
     inkscape:window-y="32"
     inkscape:window-maximized="1"
     inkscape:current-layer="svg16" />
  <path
     inkscape:connector-curvature="0"
     style="opacity:0.2;stroke-width:4;filter:url(#filter861)"
     d="m 96,20 c -2.232,0 -4.441,0.113064 -6.625,0.289064 -19.78,1.408 -35.664936,8.728 -49.960938,23 -11.78,11.76 -19.076937,26.280748 -21.960937,41.468748 -0.264,1.392 -0.483687,2.791124 -0.679687,4.203124 -0.116,0.868 -0.240124,1.729564 -0.328124,2.601564 -0.192,1.864 -0.311,3.760064 -0.375,5.664064 -0.016,0.48 -0.03508,0.9575 -0.03908,1.4375 C 16.02325,99.112064 16,99.552 16,100 c 0,43.58 34.508876,78.78131 77.796876,79.94531 0.336,0.0112 0.671812,0.0184 1.007812,0.0236 C 95.204688,179.97435 95.6,180 96,180 c 1.928,0 3.826752,-0.0942 5.71875,-0.22656 0.236,-0.0176 0.47494,-0.0352 0.71094,-0.0547 28.58,-2.2552 52.78381,-19.41158 65.00781,-43.73438 0.004,-0.004 0.006,-0.0116 0.008,-0.0156 0.7912,-1.572 1.60066,-3.14144 2.28906,-4.77344 3.7452,-8.456 5.77884,-17.43212 6.14844,-26.82812 0.0164,-0.304 0.0184,-0.61006 0.0312,-0.91406 0.0248,-0.896 0.0763,-1.78732 0.0703,-2.69532 C 175.98678,100.50581 176,100.256 176,100 V 32 c 0,-6.648 -5.352,-12 -12,-12 H 96.593752 Z"
     id="path2" />
  <path
     inkscape:connector-curvature="0"
     style="fill:#f57f38;stroke-width:4"
     d="m 96,16 c -2.232,0 -4.441,0.113064 -6.625,0.289064 -19.78,1.408 -35.664936,8.728 -49.960938,23 -11.78,11.76 -19.076937,26.280748 -21.960937,41.468748 -0.264,1.392 -0.483687,2.791124 -0.679687,4.203124 -0.116,0.868 -0.240124,1.729564 -0.328124,2.601564 -0.192,1.864 -0.311,3.760064 -0.375,5.664064 -0.016,0.48 -0.03508,0.9575 -0.03908,1.4375 C 16.02325,95.112064 16,95.552 16,96 c 0,43.58 34.508876,78.78131 77.796876,79.94531 0.336,0.0112 0.671812,0.0184 1.007812,0.0236 C 95.204688,175.97435 95.6,176 96,176 c 1.928,0 3.826752,-0.0942 5.71875,-0.22656 0.236,-0.0176 0.47494,-0.0352 0.71094,-0.0547 28.58,-2.2552 52.78381,-19.41158 65.00781,-43.73438 0.004,-0.004 0.006,-0.0116 0.008,-0.0156 0.7912,-1.572 1.60066,-3.14144 2.28906,-4.77344 3.7452,-8.456 5.77884,-17.43212 6.14844,-26.82812 0.0164,-0.304 0.0184,-0.610064 0.0312,-0.914064 0.0248,-0.896 0.0763,-1.787312 0.0703,-2.695312 C 175.98678,96.505812 176,96.256 176,96 V 28 c 0,-6.648 -5.352,-12 -12,-12 H 96.593752 Z"
     id="path4" />
  <path
     inkscape:connector-curvature="0"
     style="opacity:0.2;stroke-width:4;filter:url(#filter885)"
     d="m 103.5545,54.000639 c -1.93256,0 -3.53632,1.54356 -3.554676,3.41408 -0.0112,1.879 1.592756,3.45912 3.539076,3.46876 8.3996,0.06308 15.306,2.71776 20.8752,7.9532 5.5036,5.1868 8.3724,12.3728 8.4452,21.75 v 0.008 c 0.02,1.86544 1.62488,3.40608 3.56248,3.40608 2.1e-4,0 0.0368,-0.0072 0.0392,-0.008 1.942,-0.018 3.55476,-1.5836 3.53908,-3.46096 v -0.008 c -0.0452,-5.4656 -0.93376,-10.4908 -2.672,-14.9136 -1.7592,-4.4684 -4.4332,-8.4224 -7.922,-11.7108 -6.89,-6.4796 -15.6912,-9.8268 -25.8204,-9.8984 h -0.0312 z m -36.077996,8.086 c -1.3552,-0.23036 -2.8232,0.0216 -4.2892,0.72656 h -0.1172 l -0.16408,0.09376 c -2.71656,1.54416 -5.2632,3.61436 -7.6484,6.2108 l -0.18748,0.20312 v 0.18748 c -1.65036,2.05756 -2.7412,4.1284 -2.9922,6.2032 -0.08008,0.3516 -0.07812,0.66856 -0.07812,1.00784 0,0.94384 0.13872,1.90304 0.42968,2.84376 l 0.07812,0.26564 0.16408,0.09376 c 0.94212,3.23236 3.08,8.2628 7.758,16.7812 3.11568,5.646001 6.2992,10.362401 9.4608,14.336001 1.66556,2.0884 3.55232,4.2628 5.742,6.4532 0.026,0.026 0.11836,0.12032 0.21876,0.21092 0.0348,0.0348 0.08348,0.10692 0.20312,0.22656 l 0.21876,0.21876 h 0.0156 c 0.07708,0.0771 0.12908,0.13304 0.14064,0.14844 l 0.0392,0.0469 0.0392,0.0392 c 2.18976,2.16592 4.3496,4.064 6.4608,5.7188 3.96756,3.16204 8.6828,6.3708 14.328,9.492 8.527996,4.7048 13.605196,6.8312 16.820396,7.758 l 0.1172,0.14064 0.19532,0.0703 c 0.9108,0.30364 1.85856,0.44384 2.79688,0.42968 0.38056,0.0208 0.71756,-0.006 1.03904,-0.0781 2.20192,-0.25744 4.382,-1.3 6.5392,-3.10936 l 0.0236,-0.0312 0.0236,-0.0156 c 0.0332,-0.0332 0.0136,-0.0172 0.0312,-0.0392 0.0192,-0.0172 0.0276,-0.0372 0.0469,-0.0547 2.553,-2.33004 4.6136,-4.8644 6.164,-7.578 l 0.10156,-0.17188 v -0.16408 c 1.42396,-2.96516 0.85996,-5.9924 -1.45312,-7.922 -0.0567,-0.0486 -1.16804,-0.9776 -2.54688,-2.10156 -1.41012,-1.14908 -3.08244,-2.49972 -4.2116,-3.32824 -2.13632,-1.58036 -5.4384,-3.6246 -7.3204,-4.672 h -0.008 c -3.615,-2.02452 -7.3924,-0.84796 -9.0548,1.30468 l -2.91408,3.64844 c -1.17524,1.4808 -3.5236,1.33956 -3.58592,1.33592 -19.765596,-5.0852 -25.079596,-24.960001 -25.117196,-25.101601 -0.0035,-0.0622 -0.1456,-2.41472 1.33592,-3.60936 l 3.6328,-2.90624 c 2.1578,-1.65276 3.37096,-5.4296 1.33592,-9.0548 -1.0616,-1.87408 -3.11468,-5.2008 -4.672,-7.3204 h -0.008 c -0.8348,-1.12508 -2.18132,-2.80732 -3.32812,-4.2188 -0.5734,-0.70572 -1.09544,-1.35168 -1.47656,-1.81248 -0.19056,-0.23044 -0.3438,-0.41656 -0.45312,-0.54688 -0.05468,-0.06516 -0.10072,-0.111 -0.1328,-0.14844 -0.016,-0.0188 -0.0252,-0.0312 -0.0392,-0.04688 -1.00676,-1.19548 -2.28992,-1.92384 -3.70312,-2.16408 z m 36.289196,7.922 c -1.90612,-0.1344 -3.61884,1.29384 -3.7578,3.1328 -0.139116,1.841 1.346,3.48296 3.25,3.6172 4.7084,0.33276 7.8856,1.717 10.2736,4.242 v 0.008 c 2.43712,2.572 3.54604,5.5092 3.45312,9.5236 v 0.0156 c -0.0416,1.84712 1.50804,3.41248 3.42188,3.45296 h 0.0859 c 1.88588,0 3.45804,-1.48876 3.5,-3.31248 0.129,-5.5172 -1.66808,-10.4404 -5.2892,-14.258 -3.63768,-3.83656 -8.7912,-5.9852 -14.9376,-6.422 z"
     id="path6" />
  <path
     inkscape:connector-curvature="0"
     style="fill:#ffffff;stroke-width:4"
     d="m 103.5545,52.00032 c -1.93256,0 -3.53632,1.54356 -3.554676,3.41408 -0.0112,1.879 1.592756,3.45912 3.539076,3.46876 8.3996,0.06308 15.306,2.71776 20.8752,7.9532 5.5036,5.1868 8.3724,12.3728 8.4452,21.75 v 0.008 c 0.02,1.86544 1.62488,3.40608 3.56248,3.40608 2.1e-4,0 0.0368,-0.0072 0.0392,-0.008 1.942,-0.018 3.55476,-1.5836 3.53908,-3.46096 v -0.008 c -0.0452,-5.4656 -0.93376,-10.4908 -2.672,-14.9136 -1.7592,-4.4684 -4.4332,-8.4224 -7.922,-11.7108 -6.89,-6.4796 -15.6912,-9.8268 -25.8204,-9.8984 h -0.0312 z m -36.077996,8.086 c -1.3552,-0.23036 -2.8232,0.0216 -4.2892,0.72656 h -0.1172 l -0.16408,0.09376 c -2.71656,1.54416 -5.2632,3.61436 -7.6484,6.2108 l -0.18748,0.20312 v 0.18748 c -1.65036,2.05756 -2.7412,4.1284 -2.9922,6.2032 -0.08008,0.3516 -0.07812,0.66856 -0.07812,1.00784 0,0.94384 0.13872,1.90304 0.42968,2.84376 l 0.07812,0.26564 0.16408,0.09376 c 0.94212,3.23236 3.08,8.2628 7.758,16.7812 3.11568,5.646 6.2992,10.3624 9.4608,14.336 1.66556,2.0884 3.55232,4.2628 5.742,6.4532 0.026,0.026 0.11836,0.12032 0.21876,0.21092 0.0348,0.0348 0.08348,0.10692 0.20312,0.22656 l 0.21876,0.21876 h 0.0156 c 0.07708,0.0771 0.12908,0.13304 0.14064,0.14844 l 0.0392,0.0469 0.0392,0.0392 c 2.18976,2.16592 4.3496,4.064 6.4608,5.7188 3.96756,3.16204 8.6828,6.3708 14.328,9.492 8.527996,4.7048 13.605196,6.8312 16.820396,7.758 l 0.1172,0.14064 0.19532,0.0703 c 0.9108,0.30364 1.85856,0.44384 2.79688,0.42968 0.38056,0.0208 0.71756,-0.006 1.03904,-0.0781 2.20192,-0.25744 4.382,-1.3 6.5392,-3.10936 l 0.0236,-0.0312 0.0236,-0.0156 c 0.0332,-0.0332 0.0136,-0.0172 0.0312,-0.0392 0.0192,-0.0172 0.0276,-0.0372 0.0469,-0.0547 2.553,-2.33004 4.6136,-4.8644 6.164,-7.578 l 0.10156,-0.17188 v -0.16408 c 1.42396,-2.96516 0.85996,-5.9924 -1.45312,-7.922 -0.0567,-0.0486 -1.16804,-0.9776 -2.54688,-2.10156 -1.41012,-1.14908 -3.08244,-2.49972 -4.2116,-3.32824 -2.13632,-1.58036 -5.4384,-3.6246 -7.3204,-4.672 h -0.008 c -3.615,-2.02452 -7.3924,-0.84796 -9.0548,1.30468 l -2.91408,3.64844 c -1.17524,1.4808 -3.5236,1.33956 -3.58592,1.33592 -19.765596,-5.0852 -25.079596,-24.96 -25.117196,-25.1016 -0.0035,-0.0622 -0.1456,-2.41472 1.33592,-3.60936 l 3.6328,-2.90624 c 2.1578,-1.65276 3.37096,-5.4296 1.33592,-9.0548 -1.0616,-1.87408 -3.11468,-5.2008 -4.672,-7.3204 h -0.008 c -0.8348,-1.12508 -2.18132,-2.80732 -3.32812,-4.2188 -0.5734,-0.70572 -1.09544,-1.35168 -1.47656,-1.81248 -0.19056,-0.23044 -0.3438,-0.41656 -0.45312,-0.54688 -0.05468,-0.06516 -0.10072,-0.111 -0.1328,-0.14844 -0.016,-0.0188 -0.0252,-0.0312 -0.0392,-0.04688 -1.00676,-1.19548 -2.28992,-1.92384 -3.70312,-2.16408 z m 36.289196,7.922 c -1.90612,-0.1344 -3.61884,1.29384 -3.7578,3.1328 -0.139116,1.841 1.346,3.48296 3.25,3.6172 4.7084,0.33276 7.8856,1.717 10.2736,4.242 v 0.008 c 2.43712,2.572 3.54604,5.5092 3.45312,9.5236 v 0.0156 c -0.0416,1.84712 1.50804,3.41248 3.42188,3.45296 h 0.0859 c 1.88588,0 3.45804,-1.48876 3.5,-3.31248 0.129,-5.5172 -1.66808,-10.4404 -5.2892,-14.258 -3.63768,-3.83656 -8.7912,-5.9852 -14.9376,-6.422 z"
     id="path8" />
  <path
     inkscape:connector-curvature="0"
     style="fill:#ffffff;stroke-width:4"
     d="m 71.185344,60.25384 c -0.0068,-0.0076 -0.0144,-0.0136 -0.0284,-0.0284 -0.0068,-0.0072 -0.0372,-0.0372 -0.0376,-0.0376 l -0.06584,-0.04708 -0.1976,-0.10348 0.32928,0.2164 z"
     id="path10" />
  <path
     inkscape:connector-curvature="0"
     style="fill:#ffffff;stroke-width:4"
     d="m 55.181344,65.23384 c -0.014,0.0208 -0.0204,0.08852 -0.0376,0.13172 -0.0136,0.0164 -0.0148,0.0308 -0.0284,0.04708 0.0164,-0.06556 0.0384,-0.13308 0.0376,-0.13172 -0.0018,0.0033 0.0512,-0.08148 0.0284,-0.04708 z"
     id="path12" />
  <path
     style="opacity:0.2;fill:#ffffff;stroke-width:4"
     d="M 96 16 C 93.768 16 91.559 16.113062 89.375 16.289062 C 69.595 17.697063 53.710064 25.017063 39.414062 39.289062 C 27.634062 51.049062 20.337125 65.569813 17.453125 80.757812 C 17.189125 82.149812 16.969438 83.548937 16.773438 84.960938 C 16.657438 85.828937 16.533312 86.6905 16.445312 87.5625 C 16.253312 89.4265 16.134313 91.322563 16.070312 93.226562 C 16.054313 93.706563 16.03525 94.184062 16.03125 94.664062 C 16.023266 95.112063 16 95.552 16 96 C 16 96.166954 16.008552 96.331838 16.011719 96.498047 C 16.019227 96.220736 16.026256 95.943735 16.03125 95.664062 C 16.03525 95.184062 16.054313 94.706563 16.070312 94.226562 C 16.134313 92.322563 16.253312 90.4265 16.445312 88.5625 C 16.533312 87.6905 16.657438 86.828937 16.773438 85.960938 C 16.969438 84.548937 17.189125 83.149812 17.453125 81.757812 C 20.337125 66.569812 27.634062 52.049062 39.414062 40.289062 C 53.710064 26.017063 69.595 18.697063 89.375 17.289062 C 91.559 17.113063 93.768 17 96 17 L 96.59375 17 L 164 17 C 170.648 17 176 22.352 176 29 L 176 28 C 176 21.352 170.648 16 164 16 L 96.59375 16 L 96 16 z "
     id="path14" />
</svg>
