<?xml version="1.0" encoding="UTF-8" standalone="no"?>
<svg
   xmlns:dc="http://purl.org/dc/elements/1.1/"
   xmlns:cc="http://creativecommons.org/ns#"
   xmlns:rdf="http://www.w3.org/1999/02/22-rdf-syntax-ns#"
   xmlns:svg="http://www.w3.org/2000/svg"
   xmlns="http://www.w3.org/2000/svg"
   xmlns:sodipodi="http://sodipodi.sourceforge.net/DTD/sodipodi-0.dtd"
   xmlns:inkscape="http://www.inkscape.org/namespaces/inkscape"
   width="192"
   height="192"
   version="1"
   id="svg24"
   sodipodi:docname="apps_wps_wpa_tester.svg"
   inkscape:version="0.92.3 (2405546, 2018-03-11)">
  <metadata
     id="metadata30">
    <rdf:RDF>
      <cc:Work
         rdf:about="">
        <dc:format>image/svg+xml</dc:format>
        <dc:type
           rdf:resource="http://purl.org/dc/dcmitype/StillImage" />
        <dc:title></dc:title>
      </cc:Work>
    </rdf:RDF>
  </metadata>
  <defs
     id="defs28">
    <filter
       inkscape:collect="always"
       style="color-interpolation-filters:sRGB"
       id="filter862"
       x="-0.045176373"
       width="1.0903527"
       y="-0.051200125"
       height="1.1024003">
      <feGaussianBlur
         inkscape:collect="always"
         stdDeviation="2.5600018"
         id="feGaussianBlur864" />
    </filter>
    <filter
       inkscape:collect="always"
       style="color-interpolation-filters:sRGB"
       id="filter878"
       x="-0.045304789"
       width="1.0906096"
       y="-0.051036175"
       height="1.1020723">
      <feGaussianBlur
         inkscape:collect="always"
         stdDeviation="2.5518879"
         id="feGaussianBlur880" />
    </filter>
    <filter
       inkscape:collect="always"
       style="color-interpolation-filters:sRGB"
       id="filter898"
       x="-0.043907074"
       width="1.0878141"
       y="-0.052934438"
       height="1.1058689">
      <feGaussianBlur
         inkscape:collect="always"
         stdDeviation="1.7642728"
         id="feGaussianBlur900" />
    </filter>
    <filter
       inkscape:collect="always"
       style="color-interpolation-filters:sRGB"
       id="filter926"
       x="-0.04390614"
       width="1.0878123"
       y="-0.052935796"
       height="1.1058716">
      <feGaussianBlur
         inkscape:collect="always"
         stdDeviation="1.764318"
         id="feGaussianBlur928" />
    </filter>
    <filter
       inkscape:collect="always"
       style="color-interpolation-filters:sRGB"
       id="filter857"
       x="-0.048027877"
       width="1.0960558"
       y="-0.047972155"
       height="1.0959443">
      <feGaussianBlur
         inkscape:collect="always"
         stdDeviation="0.87931542"
         id="feGaussianBlur859" />
    </filter>
  </defs>
  <sodipodi:namedview
     pagecolor="#ffffff"
     bordercolor="#666666"
     borderopacity="1"
     objecttolerance="10"
     gridtolerance="10"
     guidetolerance="10"
     inkscape:pageopacity="0"
     inkscape:pageshadow="2"
     inkscape:window-width="1920"
     inkscape:window-height="1018"
     id="namedview26"
     showgrid="false"
     inkscape:zoom="2.67"
     inkscape:cx="96.928311"
     inkscape:cy="96"
     inkscape:window-x="0"
     inkscape:window-y="32"
     inkscape:window-maximized="1"
     inkscape:current-layer="svg24" />
  <path
     inkscape:connector-curvature="0"
     id="path2"
     d="m 101.81026,175.98864 c 13.7755,-0.2408 27.51676,-4.23815 39.56452,-11.95352 17.76701,-11.378 29.26951,-29.56543 33.15898,-49.697 1.95914,-1.48622 4.10677,-2.6792 5.60191,-4.82048 4.88079,-6.99009 5.40167,-19.039976 0.0468,-26.766528 a 19.975405,20.002678 0 0 0 -0.0156,-0.0236 l -5.64093,-8.109652 a 19.975405,20.002678 0 0 0 -0.0156,-0.0156 l -5.64873,-8.1017 a 19.975405,20.002678 0 0 0 -0.0156,-0.0236 c -5.37043,-7.682744 -13.39447,-10.476756 -20.42593,-10.476756 -7.03146,0 -15.05548,2.793848 -20.42593,10.47692 a 19.975405,20.002678 0 0 0 -0.0236,0.0312 l -5.64092,8.10184 -5.64873,8.101832 a 19.975405,20.002678 0 0 0 -0.0236,0.0392 c -5.35056,7.72038 -4.84094,19.759744 0.0312,26.750904 0.20804,0.29852 0.56174,0.38608 0.78021,0.6719 -1.54196,2.60558 -3.54309,4.9589 -6.21829,6.6721 -6.41428,4.1077 -14.374312,4.25116 -20.92526,0.375 -6.590076,-3.90602 -15.538428,-5.03706 -22.696344,-2.74228 -7.157912,2.29478 -12.334528,7.03097 -15.612024,12.57855 -3.277504,5.54758 -4.933252,12.37924 -3.495348,19.76629 1.437904,7.38706 6.7342,14.6991 13.326008,18.6022 v -0.008 c 12.309072,7.28887 26.186244,10.81138 39.962808,10.57058 z"
     style="opacity:0.2;fill-rule:evenodd;stroke-width:4;filter:url(#filter862)" />
  <path
     inkscape:connector-curvature="0"
     id="path4"
     d="m 101.81026,171.98844 c 13.7755,-0.2408 27.51676,-4.23815 39.56452,-11.95352 17.76701,-11.378 29.26951,-29.56543 33.15898,-49.697 1.95914,-1.48622 4.10677,-2.6792 5.60191,-4.82048 4.88079,-6.990088 5.40167,-19.03998 0.0468,-26.766532 a 19.975405,20.002678 0 0 0 -0.0156,-0.0236 l -5.64093,-8.109652 a 19.975405,20.002678 0 0 0 -0.0156,-0.0156 l -5.64873,-8.1017 a 19.975405,20.002678 0 0 0 -0.0156,-0.0236 C 163.47558,54.794012 155.45154,52 148.42008,52 c -7.03146,0 -15.05548,2.793848 -20.42593,10.47692 a 19.975405,20.002678 0 0 0 -0.0236,0.0312 l -5.64092,8.10184 -5.64873,8.101832 a 19.975405,20.002678 0 0 0 -0.0236,0.0392 c -5.35056,7.72038 -4.84094,19.759748 0.0312,26.750908 0.20804,0.29852 0.56174,0.38608 0.78021,0.6719 -1.54196,2.60558 -3.54309,4.9589 -6.21829,6.6721 -6.41428,4.1077 -14.374312,4.25116 -20.92526,0.375 -6.590076,-3.90602 -15.538428,-5.03706 -22.696344,-2.74228 -7.157912,2.29478 -12.334528,7.03097 -15.612024,12.57855 -3.277504,5.54758 -4.933252,12.37924 -3.495348,19.76629 1.437904,7.38706 6.7342,14.6991 13.326008,18.6022 v -0.008 c 12.309072,7.28887 26.186244,10.81138 39.962808,10.57058 z"
     style="fill:#e3375a;fill-opacity:1;fill-rule:evenodd;stroke-width:4" />
  <path
     inkscape:connector-curvature="0"
     id="path6"
     d="M 94.1875,24.007812 C 80.412,24.248594 66.67276,28.253372 54.625,35.96875 36.857986,47.34674 25.358216,65.532492 21.46875,85.664064 19.509606,87.150276 17.362327,88.343092 15.867188,90.484376 10.9864,97.474464 10.465456,109.52345 15.820312,117.25 l 0.01564,0.0236 5.640625,8.10938 0.01564,0.0156 5.648408,8.10142 0.01564,0.0236 C 32.52669,141.20618 40.546668,144 47.578124,144 c 7.03146,0 15.059236,-2.79349 20.429688,-10.47656 l 0.0236,-0.0312 5.640628,-8.10157 5.648436,-8.10156 c 0.008,-0.0132 0.0156,-0.026 0.0236,-0.0392 5.350564,-7.72038 4.840888,-19.758838 -0.0312,-26.749998 -0.20804,-0.29852 -0.562772,-0.38608 -0.781252,-0.671876 1.541964,-2.605588 3.543556,-4.958676 6.218752,-6.671876 6.41428,-4.107696 14.370928,-4.251152 20.921874,-0.375 2.38646,1.414488 5.89179,2.453608 8.69975,3.109376 0.61672,-2.57438 0.81693,-5.022868 2.28462,-7.140624 l 0.0236,-0.0392 5.64844,-8.10156 5.64063,-8.101564 0.0236,-0.0312 c 5.0605,-7.24048 12.47171,-10.104112 19.19461,-10.413888 -1.72918,-6.998624 -6.77242,-13.77844 -13.03125,-17.484375 v 0.0078 C 121.84718,27.297069 107.96406,23.767016 94.1875,24.007812 Z"
     style="opacity:0.2;fill-rule:evenodd;stroke-width:4;filter:url(#filter878)" />
  <path
     inkscape:connector-curvature="0"
     id="path8"
     d="m 94.190132,20.011556 c -13.7755,0.240781 -27.516756,4.238152 -39.564516,11.95353 -17.767014,11.37799 -29.269513,29.565426 -33.158979,49.696998 -1.959144,1.486212 -4.106777,2.679192 -5.601917,4.820476 -4.880787,6.990088 -5.401669,19.03998 -0.04681,26.76653 a 19.975405,20.002678 0 0 0 0.0156,0.0236 l 5.640928,8.10965 a 19.975405,20.002678 0 0 0 0.0156,0.0156 l 5.648738,8.1017 a 19.975405,20.002678 0 0 0 0.0156,0.0236 C 32.524812,137.20599 40.548852,140 47.580308,140 c 7.03146,0 15.05548,-2.79385 20.425932,-10.47692 a 19.975405,20.002678 0 0 0 0.0236,-0.0312 l 5.640924,-8.10184 5.648728,-8.10183 a 19.975405,20.002678 0 0 0 0.0236,-0.0392 c 5.350564,-7.72038 4.84094,-19.75975 -0.0312,-26.75091 -0.20804,-0.29852 -0.561736,-0.38608 -0.780212,-0.671896 1.541964,-2.605588 3.543092,-4.958908 6.218288,-6.672104 6.41428,-4.1077 14.374316,-4.251156 20.925262,-0.375 6.59008,3.906024 15.53843,5.037064 22.69635,2.74228 7.15791,-2.294776 12.33452,-7.030972 15.61202,-12.578548 3.2775,-5.54758 4.93325,-12.379244 3.49535,-19.766296 -1.43791,-7.387052 -6.7342,-14.699096 -13.32601,-18.602194 v 0.0078 C 121.84387,23.293273 107.9667,19.770759 94.190132,20.011556 Z"
     style="fill:#ff5959;fill-opacity:1;fill-rule:evenodd;stroke-width:4" />
  <path
     inkscape:connector-curvature="0"
     style="opacity:0.2;fill:#ffffff;fill-rule:evenodd;stroke-width:4"
     d="M 94.1875,20.007812 C 80.412,20.248594 66.67276,24.253372 54.625,31.96875 36.857986,43.34674 25.358216,61.532491 21.46875,81.664062 c -1.959144,1.486212 -4.106423,2.679029 -5.601562,4.820313 -2.643303,3.78564 -3.959697,9.049216 -3.804688,14.312505 0.0011,-0.0242 0.0047,-0.0481 0.0059,-0.0723 0.04145,-4.898977 1.335306,-9.712068 3.798829,-13.240235 1.495139,-2.141284 3.642418,-3.334101 5.601562,-4.820313 C 25.358216,62.53249 36.857986,44.34674 54.625,32.96875 66.67276,25.253372 80.412,21.248594 94.1875,21.007812 c 13.77656,-0.240796 27.65968,3.289257 39.96875,10.578126 v -0.0078 c 6.59181,3.903098 11.88241,11.214511 13.32031,18.601563 0.30472,1.565287 0.45095,3.098693 0.48438,4.603515 0.0221,-1.824452 -0.11176,-3.689423 -0.48438,-5.603515 -1.4379,-7.387052 -6.7285,-14.698465 -13.32031,-18.601563 v 0.0078 C 121.84718,23.297069 107.96406,19.767016 94.1875,20.007812 Z m -14.835938,66.5625 c -0.279799,0.413697 -0.566364,0.828701 -0.820312,1.257813 0.116445,0.152325 0.270859,0.249911 0.421875,0.351563 0.134352,-0.202652 0.262779,-0.408798 0.398437,-0.609376 2.428426,3.519483 3.703618,8.293424 3.744141,13.154298 0.0011,0.0242 0.0048,0.048 0.0059,0.0723 0.1548,-5.225361 -1.143028,-10.448319 -3.75,-14.226568 z"
     id="path10" />
  <path
     inkscape:connector-curvature="0"
     id="path12"
     d="m 95.023436,42.022688 c -10.174652,0.1776 -20.302404,3.11744 -29.195312,8.804688 -16.18286,10.349372 -25.789352,28.22148 -25.78906,47.179688 H 36.710938 A 4.7055324,3.8995941 0 0 0 32.625,103.85082 l 5.648438,8.10937 5.65625,8.10156 a 4.7055324,3.8995941 0 0 0 8.140624,0 l 5.64844,-8.10156 5.656248,-8.10937 a 4.7055324,3.8995941 0 0 0 -4.078124,-5.843756 h -3.226564 c -0.0052,-13.5555 6.79414,-26.289044 18.375,-33.695312 12.728108,-8.139964 28.909628,-8.425176 41.914068,-0.734376 a 8.0016336,8.0016336 0 1 0 8.14843,-13.773436 c -9.08597,-5.373428 -19.30972,-7.958848 -29.484374,-7.781252 z"
     style="opacity:0.2;fill-rule:evenodd;stroke-width:4;filter:url(#filter926)" />
  <path
     inkscape:connector-curvature="0"
     id="path14"
     d="m 95.023436,40.015624 c -10.174652,0.1776 -20.302404,3.11744 -29.195312,8.804688 C 49.645264,59.169684 40.038772,77.041792 40.039064,96 H 36.710938 A 4.7055324,3.8995941 0 0 0 32.625,101.84375 l 5.648438,8.10937 5.65625,8.10157 a 4.7055324,3.8995941 0 0 0 8.140624,0 l 5.64844,-8.10157 5.656248,-8.10937 A 4.7055324,3.8995941 0 0 0 59.296876,96 h -3.226564 c -0.0052,-13.5555 6.79414,-26.289044 18.375,-33.695312 12.728108,-8.139964 28.909628,-8.425176 41.914068,-0.734376 a 8.0016336,8.0016336 0 1 0 8.14843,-13.773436 c -9.08597,-5.373428 -19.30972,-7.958849 -29.484374,-7.781252 z"
     style="fill:#ffffff;fill-opacity:1;fill-rule:evenodd;stroke-width:4" />
  <path
     inkscape:connector-curvature="0"
     id="path16"
     d="m 183.98035,93.058368 c 0.19284,-5.057272 -1.00113,-10.272024 -3.79788,-14.30746 l -0.0156,-0.0236 -5.64093,-8.109652 -0.0156,-0.0156 -5.64873,-8.1017 -0.0156,-0.0236 C 163.47558,54.794012 155.45154,52 148.42008,52 c -7.03146,0 -15.05548,2.793848 -20.42593,10.47692 l -0.0236,0.0312 -5.64092,8.10184 -5.64873,8.101832 -0.0236,0.0392 c -1.72398,2.487548 -2.83958,5.42348 -3.39689,8.49446 z"
     style="fill:#e3375a;fill-opacity:1;fill-rule:evenodd;stroke-width:4" />
  <circle
     style="opacity:1;fill:#20396b;fill-opacity:1;stroke:none;stroke-width:24.66777611;stroke-linecap:round;stroke-linejoin:round;stroke-miterlimit:4;stroke-dasharray:none;stroke-opacity:1"
     id="path835"
     cx="98"
     cy="96"
     r="34" />
  <path
     inkscape:connector-curvature="0"
     id="path18"
     d="m 100.97696,153.99144 c 10.17465,-0.1776 20.3024,-3.11744 29.19531,-8.80469 16.18286,-10.34937 25.78935,-28.22148 25.78906,-47.179686 h 3.32813 a 4.7055324,3.8995941 0 0 0 4.08593,-5.843752 l -5.64843,-8.109372 -5.65626,-8.101564 a 4.7055324,3.8995941 0 0 0 -8.14062,0 l -5.64844,8.101564 -5.65625,8.109372 a 4.7055324,3.8995941 0 0 0 4.07813,5.843752 h 3.22656 c 0.005,13.555496 -6.79414,26.289046 -18.375,33.695316 -12.72811,8.13996 -28.909628,8.42517 -41.914064,0.73437 a 8.0016351,8.0016351 0 1 0 -8.148436,13.77344 c 9.085968,5.37343 19.309724,7.95885 29.48438,7.78125 z"
     style="opacity:0.2;fill-rule:evenodd;stroke-width:4;filter:url(#filter898)" />
  <path
     inkscape:connector-curvature="0"
     id="path20"
     d="m 100.97696,151.98438 c 10.17465,-0.1776 20.3024,-3.11744 29.19531,-8.80469 C 146.35513,132.83032 155.96162,114.95821 155.96133,96 h 3.32813 a 4.7055324,3.8995941 0 0 0 4.08593,-5.843752 l -5.64843,-8.109372 -5.65626,-8.101564 a 4.7055324,3.8995941 0 0 0 -8.14062,0 l -5.64844,8.101564 -5.65625,8.109372 A 4.7055324,3.8995941 0 0 0 136.70352,96 h 3.22656 c 0.005,13.5555 -6.79414,26.28904 -18.375,33.69531 -12.72811,8.13997 -28.909628,8.42518 -41.914064,0.73438 a 8.0016336,8.0016336 0 1 0 -8.148436,13.77343 c 9.085968,5.37343 19.309724,7.95885 29.48438,7.78126 z"
     style="fill:#ffffff;fill-opacity:1;fill-rule:evenodd;stroke-width:4" />
  <path
     style="color:#000000;font-style:normal;font-variant:normal;font-weight:normal;font-stretch:normal;font-size:medium;line-height:normal;font-family:sans-serif;font-variant-ligatures:normal;font-variant-position:normal;font-variant-caps:normal;font-variant-numeric:normal;font-variant-alternates:normal;font-feature-settings:normal;text-indent:0;text-align:start;text-decoration:none;text-decoration-line:none;text-decoration-style:solid;text-decoration-color:#000000;letter-spacing:normal;word-spacing:normal;text-transform:none;writing-mode:lr-tb;direction:ltr;text-orientation:mixed;dominant-baseline:auto;baseline-shift:baseline;text-anchor:start;white-space:normal;shape-padding:0;clip-rule:nonzero;display:inline;overflow:visible;visibility:visible;opacity:0.2;isolation:auto;mix-blend-mode:normal;color-interpolation:sRGB;color-interpolation-filters:linearRGB;solid-color:#000000;solid-opacity:1;vector-effect:none;fill:#000000;fill-opacity:1;fill-rule:nonzero;stroke:none;stroke-width:8;stroke-linecap:round;stroke-linejoin:bevel;stroke-miterlimit:4;stroke-dasharray:none;stroke-dashoffset:0;stroke-opacity:1;filter:url(#filter857);color-rendering:auto;image-rendering:auto;shape-rendering:auto;text-rendering:auto;enable-background:accumulate"
     d="M 79.939453,78.009668 A 4.0004,4.0004 0 0 0 76,82.066309 v 26.955081 c 0,4.4337 1.911269,8.12901 4.617188,10.23242 2.685516,2.08755 5.783699,2.74289 8.490234,2.74219 2.882317,0.0649 6.059074,-0.65199 8.646484,-2.8418 0.126424,-0.107 0.220115,-0.25738 0.341797,-0.37109 0.160599,0.14266 0.291934,0.33219 0.458985,0.46289 2.675112,2.09296 5.770152,2.75066 8.476562,2.75 2.88271,0.0649 6.05996,-0.65008 8.6582,-2.83399 2.6143,-2.19739 4.25,-5.848 4.25,-10.14062 V 82.066309 a 4.0004,4.0004 0 1 0 -8,0 v 26.955081 c 0,2.49464 -0.65163,3.39151 -1.39648,4.01758 -0.74485,0.62607 -1.97211,1.00472 -3.35938,0.96875 l -0.11914,-0.002 c -1.2938,0.005 -2.7244,-0.39108 -3.58007,-1.06054 -0.85568,-0.66947 -1.51368,-1.47594 -1.51368,-3.92383 V 82.066309 a 4.0004,4.0004 0 0 0 -0.0137,-0.400391 4.0004,4.0004 0 0 0 -0.0547,-0.396484 4.0004,4.0004 0 0 0 -0.59961,-1.472657 4.0004,4.0004 0 0 0 -0.23632,-0.320312 4.0004,4.0004 0 0 0 -0.26953,-0.296875 4.0004,4.0004 0 0 0 -0.29493,-0.267578 4.0004,4.0004 0 0 0 -0.32226,-0.238282 4.0004,4.0004 0 0 0 -0.343752,-0.203124 4.0004,4.0004 0 0 0 -0.363282,-0.169922 4.0004,4.0004 0 0 0 -0.767578,-0.22461 4.0004,4.0004 0 0 0 -0.394531,-0.05273 4.0004,4.0004 0 0 0 -1.953125,0.324219 4.0004,4.0004 0 0 0 -1.298828,0.917968 4.0004,4.0004 0 0 0 -0.486328,0.632813 4.0004,4.0004 0 0 0 -0.554688,1.490234 4.0004,4.0004 0 0 0 -0.04102,0.398438 4.0004,4.0004 0 0 0 -0.0059,0.279297 v 26.955077 c -2e-6,2.50369 -0.652053,3.40527 -1.384765,4.02539 -0.732713,0.62012 -1.938538,0.99692 -3.326172,0.96094 l -0.119141,-0.002 c -1.293766,0.005 -2.745026,-0.39147 -3.613281,-1.0664 C 84.659088,112.26443 84,111.46035 84,109.02139 V 82.066309 a 4.0004,4.0004 0 0 0 -4.060547,-4.056641 z"
     id="path837"
     inkscape:connector-curvature="0" />
  <path
     inkscape:connector-curvature="0"
     d="m 115.94035,80.056085 v 26.954995 c 0,6.78727 -4.57627,9.09611 -8.86032,8.98501 -4.01474,0.016 -9.10965,-2.11235 -9.10963,-8.98501 V 80.056085 m 0,0 -2.6e-5,26.954995 c -7e-6,6.78727 -4.530202,9.09611 -8.814249,8.98501 -4.014782,0.016 -9.155739,-2.11235 -9.155739,-8.98501 l 1.4e-5,-26.954995"
     style="fill:none;stroke:#0082fd;stroke-width:8;stroke-linecap:round;stroke-linejoin:bevel;stroke-miterlimit:4;stroke-dasharray:none;stroke-opacity:1"
     id="path154" />
  <path
     inkscape:connector-curvature="0"
     style="color:#000000;font-style:normal;font-variant:normal;font-weight:normal;font-stretch:normal;font-size:medium;line-height:normal;font-family:sans-serif;font-variant-ligatures:normal;font-variant-position:normal;font-variant-caps:normal;font-variant-numeric:normal;font-variant-alternates:normal;font-feature-settings:normal;text-indent:0;text-align:start;text-decoration:none;text-decoration-line:none;text-decoration-style:solid;text-decoration-color:#000000;letter-spacing:normal;word-spacing:normal;text-transform:none;writing-mode:lr-tb;direction:ltr;text-orientation:mixed;dominant-baseline:auto;baseline-shift:baseline;text-anchor:start;white-space:normal;shape-padding:0;clip-rule:nonzero;display:inline;overflow:visible;visibility:visible;opacity:0.2;isolation:auto;mix-blend-mode:normal;color-interpolation:sRGB;color-interpolation-filters:linearRGB;solid-color:#000000;solid-opacity:1;vector-effect:none;fill:#ffffff;fill-opacity:1;fill-rule:nonzero;stroke:none;stroke-width:8;stroke-linecap:round;stroke-linejoin:bevel;stroke-miterlimit:4;stroke-dasharray:none;stroke-dashoffset:0;stroke-opacity:1;color-rendering:auto;image-rendering:auto;shape-rendering:auto;text-rendering:auto;enable-background:accumulate"
     d="M 79.939453,76 A 4.0004,4.0004 0 0 0 76,80.056641 v 1.009765 A 4.0004,4.0004 0 0 1 79.939453,77.009766 4.0004,4.0004 0 0 1 84,81.066406 V 80.056641 A 4.0004,4.0004 0 0 0 79.939453,76 Z m 17.970703,0 a 4.0004,4.0004 0 0 0 -1.552734,0.337891 4.0004,4.0004 0 0 0 -1.298828,0.917968 4.0004,4.0004 0 0 0 -0.486328,0.632813 4.0004,4.0004 0 0 0 -0.554688,1.490234 4.0004,4.0004 0 0 0 -0.04102,0.398438 4.0004,4.0004 0 0 0 -0.0059,0.279297 v 1.009765 a 4.0004,4.0004 0 0 1 0.0059,-0.279297 4.0004,4.0004 0 0 1 0.04102,-0.398437 4.0004,4.0004 0 0 1 0.554688,-1.490234 4.0004,4.0004 0 0 1 0.486328,-0.632813 4.0004,4.0004 0 0 1 1.298828,-0.917969 4.0004,4.0004 0 0 1 1.953125,-0.324218 4.0004,4.0004 0 0 1 0.394531,0.05273 4.0004,4.0004 0 0 1 0.767578,0.224609 4.0004,4.0004 0 0 1 0.363282,0.169922 4.0004,4.0004 0 0 1 0.343752,0.203125 4.0004,4.0004 0 0 1 0.32226,0.238281 4.0004,4.0004 0 0 1 0.29493,0.267579 4.0004,4.0004 0 0 1 0.26953,0.296874 4.0004,4.0004 0 0 1 0.23632,0.320313 4.0004,4.0004 0 0 1 0.59961,1.472656 4.0004,4.0004 0 0 1 0.0547,0.396485 4.0004,4.0004 0 0 1 0.0137,0.40039 v -1.009765 a 4.0004,4.0004 0 0 0 -0.0137,-0.400391 4.0004,4.0004 0 0 0 -0.0547,-0.396484 4.0004,4.0004 0 0 0 -0.59961,-1.472657 4.0004,4.0004 0 0 0 -0.23632,-0.320312 4.0004,4.0004 0 0 0 -0.26953,-0.296875 4.0004,4.0004 0 0 0 -0.29493,-0.267578 4.0004,4.0004 0 0 0 -0.32226,-0.238282 4.0004,4.0004 0 0 0 -0.343752,-0.203124 4.0004,4.0004 0 0 0 -0.363282,-0.169922 4.0004,4.0004 0 0 0 -0.767578,-0.22461 4.0004,4.0004 0 0 0 -0.394531,-0.05273 A 4.0004,4.0004 0 0 0 97.910156,76 Z m 17.968754,0 a 4.0004,4.0004 0 0 0 -3.93946,4.056641 v 1.009765 a 4.0004,4.0004 0 1 1 8,0 V 80.056641 A 4.0004,4.0004 0 0 0 115.87891,76 Z M 84,107.01172 v 1.00976 c 0,2.43896 0.659173,3.24308 1.527344,3.91797 0.868255,0.67493 2.319515,1.07141 3.613281,1.06641 l 0.119141,0.002 c 1.387634,0.036 2.593458,-0.34081 3.326172,-0.96093 0.732711,-0.62013 1.384763,-1.52171 1.384765,-4.0254 v -1.00976 c -2e-6,2.50369 -0.652054,3.40527 -1.384765,4.02539 -0.732714,0.62012 -1.938538,0.99692 -3.326172,0.96094 l -0.119141,-0.002 c -1.293766,0.005 -2.745026,-0.39147 -3.613281,-1.0664 C 84.659173,110.25479 84,109.45068 84,107.01172 Z m 17.9707,0 v 1.00976 c 0,2.44789 0.65799,3.25436 1.51368,3.92383 0.85567,0.66946 2.28627,1.06555 3.58007,1.06055 l 0.11914,0.002 c 1.38727,0.036 2.61453,-0.34268 3.35938,-0.96875 0.74485,-0.62607 1.39648,-1.52294 1.39648,-4.01758 v -1.00976 c 0,2.49464 -0.65163,3.39151 -1.39648,4.01758 -0.74485,0.62607 -1.97211,1.00472 -3.35938,0.96875 l -0.11914,-0.002 c -1.2938,0.005 -2.7244,-0.39108 -3.58007,-1.06054 -0.85569,-0.66947 -1.51368,-1.47594 -1.51368,-3.92383 z"
     id="path861" />
</svg>
