<?xml version="1.0" encoding="UTF-8" standalone="no"?>
<svg
   xmlns:dc="http://purl.org/dc/elements/1.1/"
   xmlns:cc="http://creativecommons.org/ns#"
   xmlns:rdf="http://www.w3.org/1999/02/22-rdf-syntax-ns#"
   xmlns:svg="http://www.w3.org/2000/svg"
   xmlns="http://www.w3.org/2000/svg"
   xmlns:sodipodi="http://sodipodi.sourceforge.net/DTD/sodipodi-0.dtd"
   xmlns:inkscape="http://www.inkscape.org/namespaces/inkscape"
   width="192"
   height="192"
   version="1"
   id="svg14"
   sodipodi:docname="apps_torrent_video_player_tvp.svg"
   inkscape:version="0.92.3 (2405546, 2018-03-11)">
  <metadata
     id="metadata20">
    <rdf:RDF>
      <cc:Work
         rdf:about="">
        <dc:format>image/svg+xml</dc:format>
        <dc:type
           rdf:resource="http://purl.org/dc/dcmitype/StillImage" />
      </cc:Work>
    </rdf:RDF>
  </metadata>
  <defs
     id="defs18">
    <filter
       inkscape:collect="always"
       style="color-interpolation-filters:sRGB"
       id="filter844"
       x="-0.0495"
       width="1.099"
       y="-0.046588235"
       height="1.0931765">
      <feGaussianBlur
         inkscape:collect="always"
         stdDeviation="2.64"
         id="feGaussianBlur846" />
    </filter>
    <filter
       inkscape:collect="always"
       style="color-interpolation-filters:sRGB"
       id="filter860"
       x="-0.0495"
       width="1.099"
       y="-0.046588235"
       height="1.0931765">
      <feGaussianBlur
         inkscape:collect="always"
         stdDeviation="2.64"
         id="feGaussianBlur862" />
    </filter>
  </defs>
  <sodipodi:namedview
     pagecolor="#ffffff"
     bordercolor="#666666"
     borderopacity="1"
     objecttolerance="10"
     gridtolerance="10"
     guidetolerance="10"
     inkscape:pageopacity="0"
     inkscape:pageshadow="2"
     inkscape:window-width="1920"
     inkscape:window-height="1018"
     id="namedview16"
     showgrid="false"
     inkscape:zoom="2.86"
     inkscape:cx="96"
     inkscape:cy="96"
     inkscape:window-x="0"
     inkscape:window-y="32"
     inkscape:window-maximized="1"
     inkscape:current-layer="svg14" />
  <path
     inkscape:connector-curvature="0"
     id="path2"
     d="M 132.4148,32.002874 A 11.322452,10.67167 0 0 1 144,42.670464 V 157.33618 a 11.322452,10.67167 0 0 1 -16.98351,9.23418 L 74.33692,137.90903 21.66072,109.2443 a 11.322452,10.67167 0 0 1 0,-18.483324 l 52.6762,-28.668128 52.67957,-28.664047 a 11.322452,10.67167 0 0 1 5.39865,-1.425927 z"
     style="opacity:0.2;stroke-width:4;filter:url(#filter860)" />
  <path
     inkscape:connector-curvature="0"
     id="path4"
     d="M 132.4148,28.002874 A 11.322452,10.67167 0 0 1 144,38.670463 V 153.33618 a 11.322452,10.67167 0 0 1 -16.98351,9.23418 L 74.33692,133.90903 21.66072,105.2443 a 11.322452,10.67167 0 0 1 0,-18.483324 L 74.33692,58.092848 127.01649,29.4288 a 11.322452,10.67167 0 0 1 5.39865,-1.425927 z"
     style="fill:#ff8f07;stroke-width:4" />
  <path
     inkscape:connector-curvature="0"
     id="path6"
     d="M 59.585192,32.002874 A 11.322453,10.67167 0 0 0 48,42.670464 V 157.33618 a 11.322453,10.67167 0 0 0 16.983508,9.23418 l 52.679572,-28.66133 52.6762,-28.66473 a 11.322453,10.67167 0 0 0 0,-18.483324 L 117.66308,62.092848 64.983508,33.428801 a 11.322453,10.67167 0 0 0 -5.398652,-1.425927 z"
     style="opacity:0.2;stroke-width:4;filter:url(#filter844)" />
  <path
     style="opacity:0.1;fill:#ffffff;stroke-width:4"
     d="M 132.41406 28 A 11.322452 10.67167 0 0 0 127.01562 29.429688 L 74.335938 58.09375 L 21.664062 86.757812 A 11.322452 10.67167 0 0 0 16.025391 96.464844 A 11.322452 10.67167 0 0 1 21.664062 87.757812 L 74.335938 59.09375 L 127.01562 30.429688 A 11.322452 10.67167 0 0 1 132.41406 29 A 11.322452 10.67167 0 0 1 144 39.671875 L 144 38.671875 A 11.322452 10.67167 0 0 0 132.41406 28 z "
     id="path8" />
  <path
     inkscape:connector-curvature="0"
     id="path10"
     d="M 59.585192,28.002874 A 11.322453,10.67167 0 0 0 48,38.670463 V 153.33618 a 11.322453,10.67167 0 0 0 16.983508,9.23418 l 52.679572,-28.66133 52.6762,-28.66473 a 11.322453,10.67167 0 0 0 0,-18.483324 L 117.66308,58.092848 64.983508,29.4288 a 11.322453,10.67167 0 0 0 -5.398652,-1.425927 z"
     style="fill:#6270cd;stroke-width:4" />
</svg>
