<?xml version="1.0" encoding="UTF-8" standalone="no"?>
<svg
   xmlns:dc="http://purl.org/dc/elements/1.1/"
   xmlns:cc="http://creativecommons.org/ns#"
   xmlns:rdf="http://www.w3.org/1999/02/22-rdf-syntax-ns#"
   xmlns:svg="http://www.w3.org/2000/svg"
   xmlns="http://www.w3.org/2000/svg"
   xmlns:sodipodi="http://sodipodi.sourceforge.net/DTD/sodipodi-0.dtd"
   xmlns:inkscape="http://www.inkscape.org/namespaces/inkscape"
   width="192"
   height="192"
   version="1"
   id="svg12"
   sodipodi:docname="apps_sound_meter.svg"
   inkscape:version="0.92.3 (2405546, 2018-03-11)">
  <metadata
     id="metadata18">
    <rdf:RDF>
      <cc:Work
         rdf:about="">
        <dc:format>image/svg+xml</dc:format>
        <dc:type
           rdf:resource="http://purl.org/dc/dcmitype/StillImage" />
        <dc:title />
      </cc:Work>
    </rdf:RDF>
  </metadata>
  <defs
     id="defs16">
    <filter
       inkscape:collect="always"
       style="color-interpolation-filters:sRGB"
       id="filter860"
       x="-0.048"
       width="1.096"
       y="-0.048"
       height="1.096">
      <feGaussianBlur
         inkscape:collect="always"
         stdDeviation="3.2"
         id="feGaussianBlur862" />
    </filter>
    <filter
       inkscape:collect="always"
       style="color-interpolation-filters:sRGB"
       id="filter1480"
       x="-0.024"
       width="1.048"
       y="-0.024"
       height="1.048">
      <feGaussianBlur
         inkscape:collect="always"
         stdDeviation="1.4644336"
         id="feGaussianBlur1482" />
    </filter>
    <filter
       inkscape:collect="always"
       style="color-interpolation-filters:sRGB"
       id="filter1498"
       x="-0.048"
       width="1.096"
       y="-0.048"
       height="1.096">
      <feGaussianBlur
         inkscape:collect="always"
         stdDeviation="0.96"
         id="feGaussianBlur1500" />
    </filter>
  </defs>
  <sodipodi:namedview
     pagecolor="#ffffff"
     bordercolor="#666666"
     borderopacity="1"
     objecttolerance="10"
     gridtolerance="10"
     guidetolerance="10"
     inkscape:pageopacity="0"
     inkscape:pageshadow="2"
     inkscape:window-width="1920"
     inkscape:window-height="1018"
     id="namedview14"
     showgrid="false"
     inkscape:zoom="1.88"
     inkscape:cx="-128.30077"
     inkscape:cy="80.737589"
     inkscape:window-x="0"
     inkscape:window-y="32"
     inkscape:window-maximized="1"
     inkscape:current-layer="svg12"
     showguides="false">
    <inkscape:grid
       type="xygrid"
       id="grid820" />
  </sodipodi:namedview>
  <rect
     style="opacity:0.2;stroke-width:4;filter:url(#filter860)"
     width="160"
     height="160"
     x="16"
     y="20"
     rx="48"
     ry="48"
     id="rect2" />
  <rect
     style="fill:#e4e4e4;fill-opacity:1;stroke-width:4"
     width="160"
     height="160"
     x="16"
     y="16"
     rx="48"
     ry="48"
     id="rect4" />
  <path
     inkscape:connector-curvature="0"
     style="color:#000000;font-style:normal;font-variant:normal;font-weight:normal;font-stretch:normal;font-size:medium;line-height:normal;font-family:sans-serif;font-variant-ligatures:normal;font-variant-position:normal;font-variant-caps:normal;font-variant-numeric:normal;font-variant-alternates:normal;font-feature-settings:normal;text-indent:0;text-align:start;text-decoration:none;text-decoration-line:none;text-decoration-style:solid;text-decoration-color:#000000;letter-spacing:normal;word-spacing:normal;text-transform:none;writing-mode:lr-tb;direction:ltr;text-orientation:mixed;dominant-baseline:auto;baseline-shift:baseline;text-anchor:start;white-space:normal;shape-padding:0;clip-rule:nonzero;display:inline;overflow:visible;visibility:visible;opacity:0.3;isolation:auto;mix-blend-mode:normal;color-interpolation:sRGB;color-interpolation-filters:linearRGB;solid-color:#000000;solid-opacity:1;vector-effect:none;fill:#000000;fill-opacity:1;fill-rule:nonzero;stroke:none;stroke-width:16;stroke-linecap:square;stroke-linejoin:round;stroke-miterlimit:4;stroke-dasharray:none;stroke-dashoffset:0;stroke-opacity:1;color-rendering:auto;image-rendering:auto;shape-rendering:auto;text-rendering:auto;enable-background:accumulate"
     d="m 40,24 c -0.88626,0 -1.768377,0.0152 -2.650391,0.0332 C 30.736095,28.440991 25.29286,34.449455 21.556641,41.513672 27.556523,40.523346 33.715329,40 40,40 c 61.95065,0 112,50.049348 112,112 0,6.28467 -0.52335,12.44348 -1.51367,18.44336 7.06422,-3.73622 13.07268,-9.17945 17.48047,-15.79297 C 167.9848,153.76838 168,152.88626 168,152 168,81.402308 110.59769,24 40,24 Z m -3,22 v 20 h 6 V 46 Z m 38.910156,6.222656 -7.302734,18.619141 5.585937,2.191406 7.302735,-18.619141 z m 36.921874,22.703125 -14.142577,14.142578 4.242187,4.242188 14.14258,-14.142578 z m 23.11328,31.914059 -18.33008,8.00196 2.40039,5.49804 18.33008,-8.00195 z M 126,149 v 6 h 20 v -6 z"
     id="path1466" />
  <path
     style="fill:none;stroke:#ff4d4d;stroke-width:22;stroke-linecap:round;stroke-linejoin:miter;stroke-miterlimit:4;stroke-dasharray:none;stroke-opacity:1"
     d="M 34,158 86,108"
     id="path1468"
     inkscape:connector-curvature="0"
     sodipodi:nodetypes="cc" />
  <circle
     r="24"
     cy="160"
     cx="34"
     id="circle1484"
     style="opacity:0.2;fill:#000000;fill-opacity:1;stroke:none;stroke-width:11.37022877;stroke-linecap:square;stroke-linejoin:round;stroke-miterlimit:4;stroke-dasharray:none;stroke-opacity:1;filter:url(#filter1498)" />
  <circle
     style="opacity:1;fill:#7a7a7a;fill-opacity:1;stroke:none;stroke-width:11.37022877;stroke-linecap:square;stroke-linejoin:round;stroke-miterlimit:4;stroke-dasharray:none;stroke-opacity:1"
     id="path832"
     cx="34"
     cy="158"
     r="24" />
  <path
     inkscape:connector-curvature="0"
     style="color:#000000;font-style:normal;font-variant:normal;font-weight:normal;font-stretch:normal;font-size:medium;line-height:normal;font-family:sans-serif;font-variant-ligatures:normal;font-variant-position:normal;font-variant-caps:normal;font-variant-numeric:normal;font-variant-alternates:normal;font-feature-settings:normal;text-indent:0;text-align:start;text-decoration:none;text-decoration-line:none;text-decoration-style:solid;text-decoration-color:#000000;letter-spacing:normal;word-spacing:normal;text-transform:none;writing-mode:lr-tb;direction:ltr;text-orientation:mixed;dominant-baseline:auto;baseline-shift:baseline;text-anchor:start;white-space:normal;shape-padding:0;clip-rule:nonzero;display:inline;overflow:visible;visibility:visible;opacity:0.2;isolation:auto;mix-blend-mode:normal;color-interpolation:sRGB;color-interpolation-filters:linearRGB;solid-color:#000000;solid-opacity:1;vector-effect:none;fill:#000000;fill-opacity:1;fill-rule:nonzero;stroke:none;stroke-width:16;stroke-linecap:square;stroke-linejoin:round;stroke-miterlimit:4;stroke-dasharray:none;stroke-dashoffset:0;stroke-opacity:1;filter:url(#filter1480);color-rendering:auto;image-rendering:auto;shape-rendering:auto;text-rendering:auto;enable-background:accumulate"
     d="m 40,24 c -0.88626,0 -1.768377,0.0152 -2.650391,0.0332 -6.613514,4.407788 -12.056749,10.416252 -15.792968,17.480469 0.410754,-0.0678 0.828001,-0.116285 1.240234,-0.179688 C 26.456571,35.213425 31.429098,29.97912 37.349609,26.033203 38.231623,26.015203 39.11374,26 40,26 110.262,26 167.44598,82.859979 167.98828,152.99609 167.99192,152.66397 168,152.33308 168,152 168,81.402308 110.59769,24 40,24 Z m -3,22 v 2 h 6 v -2 z m 38.910156,6.222656 -7.302734,18.619141 0.679687,0.267578 6.623047,-16.886719 4.90625,1.923828 0.679688,-1.732422 z m 36.921874,22.703125 -14.142577,14.142578 1,1 13.142577,-13.142578 3.24219,3.242188 1,-1 z m 23.11328,31.914059 -18.33008,8.00196 0.73438,1.67968 17.5957,-7.68164 1.66602,3.81836 0.73437,-0.32031 z M 126,149 v 2 h 20 v -2 z m 25.98438,3.76172 c -0.0407,6.0196 -0.54795,11.9254 -1.49805,17.68164 0.10696,-0.0566 0.20798,-0.12234 0.31445,-0.17969 C 151.5724,164.9524 152,159.52858 152,154 c 0,-0.4141 -0.0112,-0.82526 -0.0156,-1.23828 z"
     id="path1471" />
  <path
     inkscape:connector-curvature="0"
     style="opacity:0.2;fill:#ffffff;stroke-width:4"
     d="M 64,16 C 37.408,16 16,37.408 16,64 v 1 C 16,38.408 37.408,17 64,17 h 64 c 26.592,0 48,21.408 48,48 V 64 C 176,37.408 154.592,16 128,16 Z"
     id="path10" />
</svg>
