<?xml version="1.0" encoding="UTF-8" standalone="no"?>
<svg
   xmlns:dc="http://purl.org/dc/elements/1.1/"
   xmlns:cc="http://creativecommons.org/ns#"
   xmlns:rdf="http://www.w3.org/1999/02/22-rdf-syntax-ns#"
   xmlns:svg="http://www.w3.org/2000/svg"
   xmlns="http://www.w3.org/2000/svg"
   xmlns:sodipodi="http://sodipodi.sourceforge.net/DTD/sodipodi-0.dtd"
   xmlns:inkscape="http://www.inkscape.org/namespaces/inkscape"
   width="192"
   height="192"
   version="1"
   id="svg18"
   sodipodi:docname="apps_mvideoplayer.svg"
   inkscape:version="0.92.3 (2405546, 2018-03-11)">
  <metadata
     id="metadata24">
    <rdf:RDF>
      <cc:Work
         rdf:about="">
        <dc:format>image/svg+xml</dc:format>
        <dc:type
           rdf:resource="http://purl.org/dc/dcmitype/StillImage" />
      </cc:Work>
    </rdf:RDF>
  </metadata>
  <defs
     id="defs22">
    <filter
       inkscape:collect="always"
       style="color-interpolation-filters:sRGB"
       id="filter855"
       x="-0.04755"
       width="1.0951"
       y="-0.048458599"
       height="1.0969172">
      <feGaussianBlur
         inkscape:collect="always"
         stdDeviation="3.17"
         id="feGaussianBlur857" />
    </filter>
    <filter
       inkscape:collect="always"
       style="color-interpolation-filters:sRGB"
       id="filter871"
       x="-0.048"
       width="1.096"
       y="-0.048"
       height="1.096">
      <feGaussianBlur
         inkscape:collect="always"
         stdDeviation="2.24"
         id="feGaussianBlur873" />
    </filter>
    <filter
       inkscape:collect="always"
       style="color-interpolation-filters:sRGB"
       id="filter890"
       x="-0.0504"
       width="1.1008"
       y="-0.045818181"
       height="1.0916364">
      <feGaussianBlur
         inkscape:collect="always"
         stdDeviation="1.68"
         id="feGaussianBlur892" />
    </filter>
  </defs>
  <sodipodi:namedview
     pagecolor="#ffffff"
     bordercolor="#666666"
     borderopacity="1"
     objecttolerance="10"
     gridtolerance="10"
     guidetolerance="10"
     inkscape:pageopacity="0"
     inkscape:pageshadow="2"
     inkscape:window-width="1920"
     inkscape:window-height="1018"
     id="namedview20"
     showgrid="false"
     inkscape:zoom="3.06"
     inkscape:cx="96"
     inkscape:cy="96"
     inkscape:window-x="0"
     inkscape:window-y="32"
     inkscape:window-maximized="1"
     inkscape:current-layer="svg18" />
  <path
     style="opacity:0.2;fill:#000000;stroke-width:4;filter:url(#filter855)"
     d="m 76,23 c -1.098972,0.0015 -2.192528,0.153976 -3.25,0.453125 -0.117,0.03116 -0.19568,0.0244 -0.32032,0.0625 C 39.68653,33.529236 16,63.892252 16,100 c 0,44.32 35.68,80 80,80 44.32,0 80,-35.68 80,-80 0,-3.21716 -0.2078,-6.382308 -0.58594,-9.492188 -0.0104,-0.10056 -0.0104,-0.2048 -0.0236,-0.30468 -0.003,-0.024 -0.0124,-0.0462 -0.0156,-0.07032 -0.006,-0.0516 -0.009,-0.10468 -0.0156,-0.15624 -0.0348,-0.2724 -0.1184,-0.449196 -0.17188,-0.6875 -1.14772,-5.430712 -5.92297,-9.52344 -11.69531,-9.52344 -6.62741,0 -12,5.372584 -12,12 0,0.48622 0.022,0.966412 0.0781,1.4375 0.004,0.0376 0.0188,0.07188 0.0236,0.10936 0.003,0.0276 -0.003,0.05024 0,0.07812 0.26416,2.190952 -9.9423,4.397912 -9.93858,6.609376 0,30.927942 -16.02033,45.224132 -46.948274,45.224132 -30.927944,0 -38.75862,-13.43412 -38.75862,-44.36206 0.026,-24.970936 0.55268,-47.38638 23.840788,-54.408948 C 80.21498,46.324672 80.5065,46.169072 80.75004,46.0078 85.1459,44.113008 87.995188,39.786876 88,35.000001 88,28.372584 82.627416,23.000001 76,23 Z"
     id="path841"
     inkscape:connector-curvature="0" />
  <path
     inkscape:connector-curvature="0"
     id="path2"
     d="m 76,19 c -1.098972,0.0015 -2.192528,0.153976 -3.25,0.453125 -0.117,0.03116 -0.19568,0.0244 -0.32032,0.0625 C 39.68653,29.529236 16,59.892252 16,96 c 0,44.32 35.68,80 80,80 44.32,0 80,-35.68 80,-80 0,-3.21716 -0.2078,-6.382308 -0.58594,-9.492188 -0.0104,-0.10056 -0.0104,-0.2048 -0.0236,-0.30468 -0.003,-0.024 -0.0124,-0.0462 -0.0156,-0.07032 -0.006,-0.0516 -0.009,-0.10468 -0.0156,-0.15624 -0.0348,-0.2724 -0.1184,-0.449196 -0.17188,-0.6875 -1.14772,-5.430712 -5.92297,-9.52344 -11.69531,-9.52344 -6.62741,0 -12,5.372584 -12,12 0,0.48622 0.022,0.966412 0.0781,1.4375 0.004,0.0376 0.0188,0.07188 0.0236,0.10936 0.003,0.0276 -0.003,0.05024 0,0.07812 0.26416,2.190952 -9.9423,4.397912 -9.93858,6.609376 0,30.927942 -16.02033,45.224132 -46.948274,45.224132 -30.927944,0 -38.75862,-13.43412 -38.75862,-44.362064 0.026,-24.970932 0.55268,-47.386376 23.840788,-54.408944 C 80.21498,42.324672 80.5065,42.169072 80.75004,42.0078 85.1459,40.113008 87.995188,35.786876 88,31.000001 88,24.372584 82.627416,19.000001 76,19 Z"
     style="fill:#3eb5ea;stroke-width:4" />
  <circle
     id="circle4"
     r="56"
     cy="100"
     cx="96"
     style="opacity:0.1;stroke-width:4;filter:url(#filter871)" />
  <circle
     id="circle6"
     r="56"
     cy="96"
     cx="96"
     style="fill:#545454;stroke-width:4" />
  <path
     inkscape:connector-curvature="0"
     id="path10"
     d="M 106.10042,12.00279 A 9.8641056,9.7165008 0 0 0 96,21.714094 v 68.580694 a 9.8641056,9.7165008 0 0 0 14.78837,8.407868 L 140.94757,81.571804 171.09254,64.4123 a 9.8641056,9.7165008 0 0 0 0,-16.801404 l -30.14497,-17.1595 -30.1592,-17.130847 a 9.8641056,9.7165008 0 0 0 -4.68795,-1.317759 z"
     style="opacity:0.2;stroke-width:4;filter:url(#filter890)" />
  <path
     inkscape:connector-curvature="0"
     id="path12"
     d="M 106.10042,8.00279 A 9.8641056,9.7165008 0 0 0 96,17.714095 v 68.580693 a 9.8641056,9.7165008 0 0 0 14.78837,8.407868 L 140.94757,77.571804 171.09254,60.4123 a 9.8641056,9.7165008 0 0 0 0,-16.801404 L 140.94757,26.451397 110.78837,9.32055 a 9.8641056,9.7165008 0 0 0 -4.68795,-1.31776 z"
     style="fill:#fdfdfd;stroke-width:4" />
  <path
     style="opacity:0.1;fill:#ffffff;stroke-width:4"
     d="M 76 19 C 74.901028 19.0015 73.807472 19.153976 72.75 19.453125 C 72.633 19.484285 72.554328 19.477525 72.429688 19.515625 C 39.686536 29.529236 16 59.892252 16 96 C 16 96.150179 16.009604 96.297748 16.011719 96.447266 C 16.253107 60.583766 39.854505 30.477867 72.429688 20.515625 C 72.554328 20.477525 72.633 20.484285 72.75 20.453125 C 73.807472 20.153976 74.901028 20.0015 76 20 C 82.455277 20 87.705471 25.101155 87.974609 31.490234 C 87.982969 31.326783 87.999834 31.164754 88 31 C 88 24.372583 82.627416 19 76 19 z M 163.49219 75.765625 C 156.86477 75.765625 151.49219 81.138209 151.49219 87.765625 C 151.49219 87.929443 151.51212 88.087668 151.51758 88.25 C 151.78969 81.863665 157.03888 76.765625 163.49219 76.765625 C 169.26453 76.765625 174.03978 80.858351 175.1875 86.289062 C 175.24098 86.527366 175.32458 86.704162 175.35938 86.976562 C 175.36598 87.028123 175.369 87.081213 175.375 87.132812 C 175.3782 87.156932 175.38763 87.179125 175.39062 87.203125 C 175.40382 87.303005 175.40366 87.407252 175.41406 87.507812 C 175.76853 90.423009 175.96598 93.388793 175.99023 96.398438 C 175.99216 96.265275 176 96.133778 176 96 C 176 92.78284 175.7922 89.617693 175.41406 86.507812 C 175.40366 86.407252 175.40382 86.303005 175.39062 86.203125 C 175.38763 86.179125 175.3782 86.156933 175.375 86.132812 C 175.369 86.081213 175.36597 86.028123 175.35938 85.976562 C 175.32458 85.704162 175.24098 85.527366 175.1875 85.289062 C 174.03978 79.858351 169.26453 75.765625 163.49219 75.765625 z "
     id="path14" />
</svg>
