<?xml version="1.0" encoding="UTF-8" standalone="no"?>
<svg
   xmlns:dc="http://purl.org/dc/elements/1.1/"
   xmlns:cc="http://creativecommons.org/ns#"
   xmlns:rdf="http://www.w3.org/1999/02/22-rdf-syntax-ns#"
   xmlns:svg="http://www.w3.org/2000/svg"
   xmlns="http://www.w3.org/2000/svg"
   xmlns:sodipodi="http://sodipodi.sourceforge.net/DTD/sodipodi-0.dtd"
   xmlns:inkscape="http://www.inkscape.org/namespaces/inkscape"
   width="192"
   height="192"
   version="1"
   id="svg12"
   sodipodi:docname="apps_lbry.svg"
   inkscape:version="0.92.3 (2405546, 2018-03-11)">
  <metadata
     id="metadata18">
    <rdf:RDF>
      <cc:Work
         rdf:about="">
        <dc:format>image/svg+xml</dc:format>
        <dc:type
           rdf:resource="http://purl.org/dc/dcmitype/StillImage" />
        <dc:title></dc:title>
      </cc:Work>
    </rdf:RDF>
  </metadata>
  <defs
     id="defs16">
    <filter
       inkscape:collect="always"
       style="color-interpolation-filters:sRGB"
       id="filter864"
       x="-0.043636361"
       width="1.0872727"
       y="-0.053333337"
       height="1.1066667">
      <feGaussianBlur
         inkscape:collect="always"
         stdDeviation="3.1999998"
         id="feGaussianBlur866" />
    </filter>
    <filter
       inkscape:collect="always"
       style="color-interpolation-filters:sRGB"
       id="filter896"
       x="-0.042162323"
       width="1.0843246"
       y="-0.055714004"
       height="1.111428">
      <feGaussianBlur
         inkscape:collect="always"
         stdDeviation="2.6000099"
         id="feGaussianBlur898" />
    </filter>
  </defs>
  <sodipodi:namedview
     pagecolor="#ffffff"
     bordercolor="#666666"
     borderopacity="1"
     objecttolerance="10"
     gridtolerance="10"
     guidetolerance="10"
     inkscape:pageopacity="0"
     inkscape:pageshadow="2"
     inkscape:window-width="1920"
     inkscape:window-height="1018"
     id="namedview14"
     showgrid="false"
     inkscape:zoom="2.45"
     inkscape:cx="24"
     inkscape:cy="105.63265"
     inkscape:window-x="0"
     inkscape:window-y="32"
     inkscape:window-maximized="1"
     inkscape:current-layer="svg12" />
  <path
     inkscape:connector-curvature="0"
     style="opacity:0.2;stroke-width:4;filter:url(#filter864)"
     d="m 95.515624,28.000318 a 16.0016,16.007644 0 0 0 -0.0312,0.0078 c -3.842952,0.09056 -7.595428,1.187852 -10.882812,3.180888 l -66.00005,40.01512 C 12.040786,75.181602 7.9986916,82.349318 8,90.023734 v 28.010576 c 0.00146,8.39624 4.853963,16.14146 12.40625,19.80435 l 65.999998,32.01209 c 3.031636,1.47041 6.31862,2.1507 9.593752,2.14925 3.275132,0.001 6.56212,-0.67884 9.59375,-2.14925 l 66,-32.01209 C 179.14604,134.17577 183.99854,126.43055 184,118.03431 V 90.023734 c 0.001,-7.674416 -4.04074,-14.84212 -10.60156,-18.819608 l -66,-40.015104 c -3.28739,-1.993037 -7.03986,-3.090331 -10.882816,-3.180889 a 16.0016,16.007644 0 0 0 -0.0312,-0.0078 c -0.1622,-0.0035 -0.32232,0.02332 -0.484376,0.02344 -0.16204,-1.21e-4 -0.32216,-0.02692 -0.484376,-0.02344 z"
     id="path2" />
  <path
     inkscape:connector-curvature="0"
     style="fill:#e4e4e4;stroke-width:4"
     d="m 95.515624,24.000316 a 16.0016,16.007644 0 0 0 -0.0312,0.0078 c -3.842952,0.09056 -7.595428,1.187852 -10.882812,3.180888 L 18.601562,67.204126 C 12.040786,71.181602 7.9986916,78.349318 8,86.023734 v 28.010576 c 0.00146,8.39624 4.853963,16.14146 12.40625,19.80435 l 65.999998,32.01209 c 3.031636,1.47041 6.31862,2.1507 9.593752,2.14925 3.275132,0.001 6.56212,-0.67884 9.59375,-2.14925 l 66,-32.01209 C 179.14604,130.17577 183.99854,122.43055 184,114.03431 V 86.023734 c 0.001,-7.674416 -4.04074,-14.84212 -10.60156,-18.819608 l -66,-40.015106 c -3.28739,-1.993036 -7.03986,-3.09033 -10.882816,-3.180888 a 16.0016,16.007644 0 0 0 -0.0312,-0.0078 c -0.1622,-0.0035 -0.32232,0.02332 -0.484376,0.02344 -0.16204,-1.22e-4 -0.32216,-0.02692 -0.484376,-0.02344 z"
     id="path4" />
  <path
     inkscape:connector-curvature="0"
     style="opacity:0.1;stroke-width:4;filter:url(#filter896)"
     d="m 95.859376,44.000002 c -1.048356,0.0248 -2.07194,0.32368 -2.968752,0.867188 l -65.999999,40 C 25.095782,85.954902 23.999642,87.901294 24,90.000002 V 118 c 4e-4,2.29891 1.314198,4.39553 3.382812,5.39844 l 66,32 c 1.895652,0.91909 4.13444,0.77675 5.898436,-0.375 l 56.617192,-32.95281 4.25,6.28906 L 166.07812,116.18 172,104.00031 l -13.50781,0.96094 -13.50781,0.95313 4.20312,6.21093 L 95.5625,143.125 36,114.24219 V 93.382814 L 96.234376,56.875002 146.03906,82.578126 95.507812,115.17188 50.5,94.546878 l -5,10.906252 48,22 c 1.861788,0.852 4.029496,0.6959 5.75,-0.41406 l 62,-40.000004 c 3.86812,-2.501976 3.59094,-8.249068 -0.5,-10.367188 l -62,-32 c -0.892088,-0.462452 -1.886028,-0.693476 -2.890624,-0.671876 z"
     id="path6" />
  <path
     inkscape:connector-curvature="0"
     style="fill:#2d4346;stroke-width:4"
     d="m 95.859376,40.000002 c -1.048356,0.0248 -2.07194,0.32368 -2.968752,0.867188 l -65.999999,40 C 25.095782,81.954902 23.999642,83.901294 24,86.000002 V 114 c 4e-4,2.29891 1.314198,4.39553 3.382812,5.39844 l 66,32 c 1.895652,0.91909 4.13444,0.77675 5.898436,-0.375 l 56.617192,-32.95281 4.25,6.28906 L 166.07812,112.18 172,100.00031 l -13.50781,0.96094 -13.50781,0.95313 4.20312,6.21093 L 95.5625,139.125 36,110.24219 V 89.382814 L 96.234376,52.875002 146.03906,78.578126 95.507812,111.17188 50.5,90.546878 l -5,10.906252 48,22 c 1.861788,0.852 4.029496,0.6959 5.75,-0.41406 l 62,-40.000004 c 3.86812,-2.501976 3.59094,-8.249068 -0.5,-10.367188 l -62,-32 c -0.892088,-0.462452 -1.886028,-0.693475 -2.890624,-0.671876 z"
     id="path8" />
  <path
     style="opacity:0.2;fill:#ffffff;stroke-width:4"
     d="M 95.515625 24 A 16.0016 16.007644 0 0 0 95.484375 24.007812 C 91.641375 24.098382 87.888947 25.194464 84.601562 27.1875 L 18.601562 67.203125 C 12.040786 71.180601 7.9986916 78.349022 8 86.023438 L 8 87.023438 C 7.9986916 79.349022 12.040786 72.180601 18.601562 68.203125 L 84.601562 28.1875 C 87.888947 26.194464 91.641375 25.098382 95.484375 25.007812 A 16.0016 16.007644 0 0 1 95.515625 25 C 95.677841 24.99652 95.83796 25.023315 96 25.023438 C 96.162056 25.023318 96.322175 24.9965 96.484375 25 A 16.0016 16.007644 0 0 1 96.515625 25.007812 C 100.35858 25.098371 104.1111 26.194451 107.39844 28.1875 L 173.39844 68.203125 C 179.95926 72.180613 184.001 79.349022 184 87.023438 L 184 86.023438 C 184.001 78.349022 179.95926 71.180613 173.39844 67.203125 L 107.39844 27.1875 C 104.1111 25.194451 100.35858 24.098371 96.515625 24.007812 A 16.0016 16.007644 0 0 0 96.484375 24 C 96.322175 23.9965 96.162056 24.023318 96 24.023438 C 95.83796 24.023315 95.677841 23.99652 95.515625 24 z "
     id="path10" />
</svg>
