<?xml version="1.0" encoding="UTF-8" standalone="no"?>
<svg
   xmlns:dc="http://purl.org/dc/elements/1.1/"
   xmlns:cc="http://creativecommons.org/ns#"
   xmlns:rdf="http://www.w3.org/1999/02/22-rdf-syntax-ns#"
   xmlns:svg="http://www.w3.org/2000/svg"
   xmlns="http://www.w3.org/2000/svg"
   xmlns:sodipodi="http://sodipodi.sourceforge.net/DTD/sodipodi-0.dtd"
   xmlns:inkscape="http://www.inkscape.org/namespaces/inkscape"
   width="192"
   height="192"
   version="1"
   id="svg12"
   sodipodi:docname="apps_ximalaya_fm.svg"
   inkscape:version="0.92.3 (2405546, 2018-03-11)">
  <metadata
     id="metadata18">
    <rdf:RDF>
      <cc:Work
         rdf:about="">
        <dc:format>image/svg+xml</dc:format>
        <dc:type
           rdf:resource="http://purl.org/dc/dcmitype/StillImage" />
        <dc:title></dc:title>
      </cc:Work>
    </rdf:RDF>
  </metadata>
  <defs
     id="defs16">
    <filter
       inkscape:collect="always"
       style="color-interpolation-filters:sRGB"
       id="filter860"
       x="-0.048"
       width="1.096"
       y="-0.048"
       height="1.096">
      <feGaussianBlur
         inkscape:collect="always"
         stdDeviation="3.2"
         id="feGaussianBlur862" />
    </filter>
    <filter
       inkscape:collect="always"
       style="color-interpolation-filters:sRGB"
       id="filter890"
       x="-0.047039853"
       width="1.0940797"
       y="-0.049000159"
       height="1.0980003">
      <feGaussianBlur
         inkscape:collect="always"
         stdDeviation="1.9599988"
         id="feGaussianBlur892" />
    </filter>
  </defs>
  <sodipodi:namedview
     pagecolor="#ffffff"
     bordercolor="#666666"
     borderopacity="1"
     objecttolerance="10"
     gridtolerance="10"
     guidetolerance="10"
     inkscape:pageopacity="0"
     inkscape:pageshadow="2"
     inkscape:window-width="1920"
     inkscape:window-height="1018"
     id="namedview14"
     showgrid="false"
     inkscape:zoom="1"
     inkscape:cx="112.05882"
     inkscape:cy="96.19668"
     inkscape:window-x="0"
     inkscape:window-y="32"
     inkscape:window-maximized="1"
     inkscape:current-layer="svg12"
     showguides="true">
    <inkscape:grid
       type="xygrid"
       id="grid820" />
  </sodipodi:namedview>
  <rect
     style="opacity:0.2;stroke-width:4;filter:url(#filter860)"
     width="160"
     height="160"
     x="16"
     y="20"
     rx="48"
     ry="48"
     id="rect2" />
  <rect
     style="fill:#e83231;fill-opacity:1;stroke-width:4"
     width="160"
     height="160"
     x="16"
     y="16"
     rx="48"
     ry="48"
     id="rect4" />
  <path
     inkscape:connector-curvature="0"
     style="opacity:0.2;fill:#ffffff;stroke-width:4"
     d="M 64,16 C 37.408,16 16,37.408 16,64 v 1 C 16,38.408 37.408,17 64,17 h 64 c 26.592,0 48,21.408 48,48 V 64 C 176,37.408 154.592,16 128,16 Z"
     id="path10" />
  <path
     inkscape:connector-curvature="0"
     id="path876"
     d="m 73.906419,50.010276 c -2.14831,-0.0214 -4.928607,-0.0053 -8.589844,0.02148 l -11.1875,0.08203 c 0,0 -2.416823,0.215594 -3.724609,1.017578 -2.003163,1.228418 -3.626939,3.549176 -4.111328,5.873047 -0.252178,1.20983 -0.336064,13.346806 -0.273438,39.97461 l 0.08398,35.250009 c 0,0 0.129923,3.23817 0.96289,4.92773 0.990403,2.00892 2.795897,3.6091 4.966797,4.40625 1.661508,0.61011 12.636715,0.56991 13.841797,-0.0508 2.192038,-1.12896 3.948055,-2.86568 2.980469,-4.89649 -0.918965,-1.92875 -2.91442,-2.41074 -7.265625,-2.625 -4.237296,-0.20866 -5.977224,-0.55541 -7.007813,-2.56835 -0.542037,-1.05871 -0.582031,-4.10038 -0.582031,-35.439463 0,-31.339073 0.03999,-34.417851 0.582031,-35.476563 0.319668,-0.624378 1.003344,-1.443184 1.519531,-1.820312 0.88855,-0.649145 2.288757,-0.685522 9.953131,-0.685522 7.664372,0 8.955205,0.03637 9.84375,0.685547 0.516187,0.377128 1.201815,1.195934 1.521484,1.820312 0.542761,1.060128 0.579592,4.249954 0.580078,37.816407 6.65e-4,40.790014 0.163102,38.240184 -2.615234,40.968754 -0.869051,0.85349 -1.944658,1.80663 -2.390625,2.11718 -0.784096,0.54601 -0.684966,0.5648 3.011718,0.55469 2.102539,-0.006 3.490126,-0.18663 4.072266,-0.40039 2.1709,-0.79715 3.974441,-2.39733 4.964844,-4.40625 1.111775,-1.5936 0.957031,-4.92773 0.957031,-4.92773 V 95.982932 59.393088 c 0,0 -0.161777,-2.969697 -0.935547,-4.539062 -0.514403,-1.043313 -1.482195,-2.345969 -2.150391,-2.894532 -1.803995,-1.481005 -2.562882,-1.885013 -9.007812,-1.949218 z m 64.441411,0 c -4.08344,-0.01576 -9.61511,-0.01154 -15.60938,0.01367 l -18.75976,0.07812 c 0,0 -3.00177,-0.02305 -4.792974,0.792969 -1.871984,0.852817 -3.704027,2.734865 -4.539063,4.587891 -0.490147,1.087683 -0.545614,5.107651 -0.625,45.447264 -0.0479,24.34022 -0.01477,44.4414 0.07227,44.66992 0.229799,0.6035 2.040278,0.49655 3.544922,-0.20703 1.609801,-0.75274 2.644585,-2.36337 3.574215,-4.11328 0.70429,-1.32576 0.70587,-1.38502 0.79492,-26.39453 0.069,-19.349333 0.18047,-24.425985 0.48828,-24.623047 0.2193,-0.14041 7.00971,-0.257005 14.29493,-0.259766 12.81392,-0.0048 12.55742,0.01474 12.88671,0.634766 0.22932,0.431802 0.33691,8.852309 0.33204,27.249997 -0.004,15.01984 -0.006,27.49335 -0.004,27.71875 0.005,0.60984 1.40967,0.49154 2.95312,-0.21485 0.73382,-0.33583 1.88377,-1.16565 2.55664,-1.84374 2.41508,-2.43379 2.1524,-0.74197 2.45313,-28.81446 l 0.16211,-24.519525 2.95117,-0.910157 c 0.96285,-0.501338 2.0965,-1.240126 2.51953,-1.640625 1.08539,-1.02757 2.39844,-3.298878 2.39844,-4.582031 v -1.083984 h -21.11914 c -11.61603,0 -22.00211,-0.08781 -22.28516,-0.197266 -0.45211,-0.174841 -0.51475,-3.025786 -0.51367,-10.988281 9.8e-4,-8.404847 0.0468,-9.137734 0.63477,-10.109375 1.40227,-2.317645 1.1986,-2.21261 20.16992,-2.394531 16.86261,-0.161702 17.11265,-0.175462 18.43945,-0.890625 2.66749,-1.43781 4.65026,-3.726216 4.66602,-6.0625 0.006,-0.828787 -0.15191,-1.098859 -0.72461,-1.242188 -0.20131,-0.05038 -2.83648,-0.0858 -6.91992,-0.101562 z"
     style="opacity:0.2;fill:#000000;stroke-width:0.32659227;filter:url(#filter890)" />
  <path
     style="fill:#ffffff;stroke-width:0.32659227"
     d="m 73.906419,48.010087 c -2.14831,-0.0214 -4.928607,-0.0053 -8.589844,0.02148 l -11.1875,0.08203 c 0,0 -2.416823,0.215594 -3.724609,1.017578 -2.003163,1.228418 -3.626939,3.549176 -4.111328,5.873047 -0.252178,1.20983 -0.336064,13.346806 -0.273438,39.97461 l 0.08398,35.250008 c 0,0 0.129923,3.23817 0.96289,4.92773 0.990403,2.00892 2.795897,3.6091 4.966797,4.40625 1.661508,0.61011 12.636715,0.56991 13.841797,-0.0508 2.192038,-1.12896 3.948055,-2.86568 2.980469,-4.89649 -0.918965,-1.92875 -2.91442,-2.41074 -7.265625,-2.625 -4.237296,-0.20866 -5.977224,-0.55541 -7.007813,-2.56835 -0.542037,-1.05871 -0.582031,-4.10038 -0.582031,-35.439462 0,-31.339073 0.03999,-34.417851 0.582031,-35.476563 0.319668,-0.624378 1.003344,-1.443184 1.519531,-1.820312 0.88855,-0.649145 2.288757,-0.685522 9.953131,-0.685522 7.664372,0 8.955205,0.03637 9.84375,0.685547 0.516187,0.377128 1.201815,1.195934 1.521484,1.820312 0.542761,1.060128 0.579592,4.249954 0.580078,37.816407 6.65e-4,40.790013 0.163102,38.240183 -2.615234,40.968753 -0.869051,0.85349 -1.944658,1.80663 -2.390625,2.11718 -0.784096,0.54601 -0.684966,0.5648 3.011718,0.55469 2.102539,-0.006 3.490126,-0.18663 4.072266,-0.40039 2.1709,-0.79715 3.974441,-2.39733 4.964844,-4.40625 1.111775,-1.5936 0.957031,-4.92773 0.957031,-4.92773 V 93.982743 57.392899 c 0,0 -0.161777,-2.969697 -0.935547,-4.539062 -0.514403,-1.043313 -1.482195,-2.345969 -2.150391,-2.894532 -1.803995,-1.481005 -2.562882,-1.885013 -9.007812,-1.949218 z m 64.441411,0 c -4.08344,-0.01576 -9.61511,-0.01154 -15.60938,0.01367 l -18.75976,0.07812 c 0,0 -3.00177,-0.02305 -4.792974,0.792969 -1.871984,0.852817 -3.704027,2.734865 -4.539063,4.587891 -0.490147,1.087683 -0.545614,5.107651 -0.625,45.447266 -0.0479,24.340217 -0.01477,44.441397 0.07227,44.669917 0.229799,0.6035 2.040278,0.49655 3.544922,-0.20703 1.609801,-0.75274 2.644585,-2.36337 3.574215,-4.11328 0.70429,-1.32576 0.70587,-1.38502 0.79492,-26.39453 0.069,-19.349332 0.18047,-24.425984 0.48828,-24.623046 0.2193,-0.14041 7.00971,-0.257005 14.29493,-0.259766 12.81392,-0.0048 12.55742,0.01474 12.88671,0.634766 0.22932,0.431802 0.33691,8.852309 0.33204,27.249996 -0.004,15.01984 -0.006,27.49335 -0.004,27.71875 0.005,0.60984 1.40967,0.49154 2.95312,-0.21485 0.73382,-0.33583 1.88377,-1.16565 2.55664,-1.84374 2.41508,-2.43379 2.1524,-0.74197 2.45313,-28.81446 l 0.16211,-24.519524 2.95117,-0.910157 c 0.96285,-0.501338 2.0965,-1.240126 2.51953,-1.640625 1.08539,-1.02757 2.39844,-3.298878 2.39844,-4.582031 v -1.083984 h -21.11914 c -11.61603,0 -22.00211,-0.08781 -22.28516,-0.197266 -0.45211,-0.174841 -0.51475,-3.025786 -0.51367,-10.988281 9.8e-4,-8.404847 0.0468,-9.137734 0.63477,-10.109375 1.40227,-2.317645 1.1986,-2.21261 20.16992,-2.394531 16.86261,-0.161702 17.11265,-0.175462 18.43945,-0.890625 2.66749,-1.43781 4.65026,-3.726216 4.66602,-6.0625 0.006,-0.828787 -0.15191,-1.098859 -0.72461,-1.242188 -0.20131,-0.05038 -2.83648,-0.0858 -6.91992,-0.101562 z"
     id="path853"
     inkscape:connector-curvature="0" />
</svg>
