<?xml version="1.0" encoding="UTF-8" standalone="no"?>
<svg
   xmlns:dc="http://purl.org/dc/elements/1.1/"
   xmlns:cc="http://creativecommons.org/ns#"
   xmlns:rdf="http://www.w3.org/1999/02/22-rdf-syntax-ns#"
   xmlns:svg="http://www.w3.org/2000/svg"
   xmlns="http://www.w3.org/2000/svg"
   xmlns:sodipodi="http://sodipodi.sourceforge.net/DTD/sodipodi-0.dtd"
   xmlns:inkscape="http://www.inkscape.org/namespaces/inkscape"
   width="192"
   height="192"
   version="1"
   id="svg18"
   sodipodi:docname="apps_snooperstopper.svg"
   inkscape:version="0.92.3 (2405546, 2018-03-11)">
  <metadata
     id="metadata24">
    <rdf:RDF>
      <cc:Work
         rdf:about="">
        <dc:format>image/svg+xml</dc:format>
        <dc:type
           rdf:resource="http://purl.org/dc/dcmitype/StillImage" />
      </cc:Work>
    </rdf:RDF>
  </metadata>
  <defs
     id="defs22">
    <filter
       inkscape:collect="always"
       style="color-interpolation-filters:sRGB"
       id="filter859"
       x="-0.048"
       width="1.096"
       y="-0.048"
       height="1.096">
      <feGaussianBlur
         inkscape:collect="always"
         stdDeviation="3.2"
         id="feGaussianBlur861" />
    </filter>
    <filter
       inkscape:collect="always"
       style="color-interpolation-filters:sRGB"
       id="filter878"
       x="-0.03674707"
       width="1.0734941"
       y="-0.069186853"
       height="1.1383737">
      <feGaussianBlur
         inkscape:collect="always"
         stdDeviation="1.9598438"
         id="feGaussianBlur880" />
    </filter>
    <filter
       inkscape:collect="always"
       style="color-interpolation-filters:sRGB"
       id="filter888"
       x="-0.02553846"
       width="1.0510769"
       y="-0.022636365"
       height="1.0452727">
      <feGaussianBlur
         inkscape:collect="always"
         stdDeviation="0.41499998"
         id="feGaussianBlur890" />
    </filter>
  </defs>
  <sodipodi:namedview
     pagecolor="#ffffff"
     bordercolor="#666666"
     borderopacity="1"
     objecttolerance="10"
     gridtolerance="10"
     guidetolerance="10"
     inkscape:pageopacity="0"
     inkscape:pageshadow="2"
     inkscape:window-width="1920"
     inkscape:window-height="1018"
     id="namedview20"
     showgrid="false"
     inkscape:zoom="1"
     inkscape:cx="96"
     inkscape:cy="103.00525"
     inkscape:window-x="0"
     inkscape:window-y="32"
     inkscape:window-maximized="1"
     inkscape:current-layer="svg18" />
  <rect
     style="opacity:0.2;fill:#000000;stroke-width:4;filter:url(#filter859)"
     width="160"
     height="160"
     x="-180"
     y="-176"
     rx="8"
     ry="8"
     transform="matrix(0,-1,-1,0,0,0)"
     id="rect841" />
  <rect
     id="rect4"
     transform="matrix(0,-1,-1,0,0,0)"
     ry="8"
     rx="8"
     y="-176"
     x="-176"
     height="160"
     width="160"
     style="fill:#4f4f4f;stroke-width:4" />
  <path
     sodipodi:nodetypes="csccccccssscccccsssscccccccccssscccccssc"
     style="opacity:0.1;fill:#000000;stroke-width:3.99140143;filter:url(#filter888)"
     d="M 97.980262,70 C 96.875084,70 96,70.890438 96,71.996497 v 9.98248 4.156769 3.864259 h -4 v -3.872061 -4.148967 -5.989488 c 0,-1.106059 -0.894183,-1.996496 -1.999361,-1.996496 -1.105178,0 -2.001698,0.890438 -2.000639,1.996496 v 5.989488 5.357785 2.663243 h -4 v -8.021028 -1.996496 c 0,-1.106059 -0.873806,-1.996496 -1.978984,-1.996496 -1.105178,0 -1.994906,0.890437 -1.994906,1.996496 V 97.93535 c 0,0.16483 -0.0373,-0.153028 0,0 -0.05993,0.515183 0.0024,1.493435 0,2.012092 0,7.718438 6.252049,13.975468 13.964341,13.975468 0,0 8.150569,0.48428 11.455129,-0.97483 6.16893,-2.90707 13.0063,-15.371453 13.0063,-15.371453 0.67837,-0.873179 0.78147,-2.04107 0,-2.823169 -0.78149,-0.782104 -1.95266,-0.684307 -2.82093,0 L 108,101.24987 V 99.947442 75.989489 c 0,-1.106059 -0.93497,-1.996496 -2.04015,-1.996496 -1.10518,0 -1.95338,0.890456 -1.95985,1.996496 v 5.989488 8.021028 h -4 v -2.663243 -5.357785 -9.98248 C 100,70.890438 99.0854,70 97.980222,70 Z"
     id="path882"
     inkscape:connector-curvature="0" />
  <path
     style="opacity:0.1;fill:#ffffff;stroke-width:4"
     d="M 24 16 C 19.568 16 16 19.568 16 24 L 16 25 C 16 20.568 19.568 17 24 17 L 168 17 C 172.432 17 176 20.568 176 25 L 176 24 C 176 19.568 172.432 16 168 16 L 24 16 z "
     id="path6" />
  <path
     inkscape:connector-curvature="0"
     id="path10"
     d="M 97.980262,67.999995 C 96.875084,67.999995 96,68.890433 96,69.996492 v 9.98248 4.156769 V 88 h -4 v -3.872061 -4.148967 -5.989488 c 0,-1.106059 -0.894183,-1.996496 -1.999361,-1.996496 -1.105178,0 -2.001698,0.890438 -2.000639,1.996496 V 79.978972 85.336757 88 h -4 v -8.021028 -1.996496 c 0,-1.106059 -0.873806,-1.996496 -1.978984,-1.996496 -1.105178,0 -1.994906,0.890437 -1.994906,1.996496 v 17.952869 c 0,0.16483 -0.0373,-0.153028 0,0 -0.05993,0.515183 0.0024,1.493435 0,2.012092 0,7.718443 6.252049,13.975473 13.964341,13.975473 0,0 8.150569,0.48428 11.455129,-0.97483 6.16893,-2.90707 13.0063,-15.371458 13.0063,-15.371458 0.67837,-0.873179 0.78147,-2.04107 0,-2.823169 -0.78149,-0.782104 -1.95266,-0.684307 -2.82093,0 L 108,99.249864 V 97.947437 73.989484 c 0,-1.106059 -0.93497,-1.996496 -2.04015,-1.996496 -1.10518,0 -1.95338,0.890456 -1.95985,1.996496 V 79.978972 88 h -4 v -2.663243 -5.357785 -9.98248 c 0,-1.106059 -0.9146,-1.996497 -2.019778,-1.996497 z"
     style="fill:#ffffff;stroke-width:3.99140143"
     sodipodi:nodetypes="csccccccssscccccsssscccccccccssscccccssc" />
  <path
     inkscape:connector-curvature="0"
     id="path12"
     d="M 125.90625,72.015624 A 36,36 0 0 1 132,92 36,36 0 0 1 96,128 36,36 0 0 1 60,92 36,36 0 0 1 66.070312,72.023436 C 46.675136,81.781076 32,97.292812 32,100 c 0,0 28,40 64,40 36,0 64,-40 64,-40 0,-2.708208 -14.6877,-18.227416 -34.09375,-27.984376 z"
     style="opacity:0.2;stroke-width:4;filter:url(#filter878)" />
  <path
     inkscape:connector-curvature="0"
     id="path14"
     d="M 125.90625,68.015624 A 36,36 0 0 1 132,88 36,36 0 0 1 96,124 36,36 0 0 1 60,88 36,36 0 0 1 66.070312,68.023436 C 46.675136,77.781076 32,93.292812 32,96 c 0,0 28,40 64,40 36,0 64,-40 64,-40 0,-2.708208 -14.6877,-18.227416 -34.09375,-27.984376 z"
     style="fill:#ffffff;stroke-width:4" />
</svg>
