<?xml version="1.0" encoding="UTF-8" standalone="no"?>
<svg
   xmlns:dc="http://purl.org/dc/elements/1.1/"
   xmlns:cc="http://creativecommons.org/ns#"
   xmlns:rdf="http://www.w3.org/1999/02/22-rdf-syntax-ns#"
   xmlns:svg="http://www.w3.org/2000/svg"
   xmlns="http://www.w3.org/2000/svg"
   xmlns:sodipodi="http://sodipodi.sourceforge.net/DTD/sodipodi-0.dtd"
   xmlns:inkscape="http://www.inkscape.org/namespaces/inkscape"
   width="192"
   height="192"
   version="1"
   id="svg12"
   sodipodi:docname="apps_drweb_mcc.svg"
   inkscape:version="0.92.3 (2405546, 2018-03-11)">
  <metadata
     id="metadata18">
    <rdf:RDF>
      <cc:Work
         rdf:about="">
        <dc:format>image/svg+xml</dc:format>
        <dc:type
           rdf:resource="http://purl.org/dc/dcmitype/StillImage" />
        <dc:title></dc:title>
      </cc:Work>
    </rdf:RDF>
  </metadata>
  <defs
     id="defs16">
    <filter
       inkscape:collect="always"
       style="color-interpolation-filters:sRGB"
       id="filter875"
       x="-0.048"
       width="1.096"
       y="-0.048"
       height="1.096">
      <feGaussianBlur
         inkscape:collect="always"
         stdDeviation="3.2"
         id="feGaussianBlur877" />
    </filter>
    <filter
       inkscape:collect="always"
       style="color-interpolation-filters:sRGB"
       id="filter891"
       x="-0.0416"
       width="1.0832"
       y="-0.056727273"
       height="1.1134545">
      <feGaussianBlur
         inkscape:collect="always"
         stdDeviation="2.08"
         id="feGaussianBlur893" />
    </filter>
  </defs>
  <sodipodi:namedview
     pagecolor="#ffffff"
     bordercolor="#666666"
     borderopacity="1"
     objecttolerance="10"
     gridtolerance="10"
     guidetolerance="10"
     inkscape:pageopacity="0"
     inkscape:pageshadow="2"
     inkscape:window-width="1920"
     inkscape:window-height="1018"
     id="namedview14"
     showgrid="false"
     inkscape:zoom="2.29"
     inkscape:cx="221.20323"
     inkscape:cy="93.868996"
     inkscape:window-x="0"
     inkscape:window-y="32"
     inkscape:window-maximized="1"
     inkscape:current-layer="svg12" />
  <rect
     id="rect840"
     ry="80"
     rx="80"
     y="20"
     x="16"
     height="160"
     width="160"
     style="opacity:0.2;fill:#000000;stroke-width:4;filter:url(#filter875)" />
  <rect
     style="fill:#b6b3ae;fill-opacity:1;stroke-width:4"
     width="160"
     height="160"
     x="16"
     y="16"
     rx="80"
     ry="80"
     id="rect2" />
  <path
     style="opacity:0.2;stroke-width:4;filter:url(#filter891)"
     inkscape:connector-curvature="0"
     d="m 60,58 14,16 6,-4 -8,-8 8,-4 z m 52,0 8,4 -8,8 6,4 14,-16 z M 96,66 C 87.8152,66.0256 77.9596,68.38452 78,84 L 96,74 114,84 C 114.04,68.384 104.184,66.024 96,66 Z m -48,4 6,20 2,-8 12,2 4,-6 z m 96,0 -24,8 4,6 12,-2 2,8 z m -48,10 -10,6 2,8 4,-8 h 8 l 4,8 2,-8 z m -32,10 -28,8 16,8 v -6 l 10,-2 z m 16,0 -12,4 c 0.07868,10.2696 5.8348,20.4348 11.6248,25.1564 4.056,3.228 7.884,5.776 10.376,6.844 2.86124,1.07132 1.38172,-3.00444 2,-4 h 8 c 0.61828,0.99556 -0.86124,5.0712 2,4 2.4934,-1.06724 6.3208,-3.61428 10.3752,-6.8436 5.788,-4.72 11.544,-14.888 11.624,-25.156 l -12,-4 -4,12 h -8 l -4,-12 -4,12 h -8 l -4,-12 z m 48,0 2,8 10,2 v 6 l 16,-8 z m -64,16 -16,8 28,32 z m 64,0 -12,40 28,-32 z"
     id="path8" />
  <path
     style="fill:#3f3f3f;fill-opacity:1;stroke-width:4"
     inkscape:connector-curvature="0"
     d="m 60,56 14,16 6,-4 -8,-8 8,-4 z m 52,0 8,4 -8,8 6,4 14,-16 z M 96,64 C 87.816,64.024 77.96,66.384 78,82 L 96,72 114,82 C 114.04,66.384 104.184,64.024 96,64 Z m -48,4 6,20 2,-8 12,2 4,-6 z m 96,0 -24,8 4,6 12,-2 2,8 z m -48,10 -10,6 2,8 4,-8 h 8 l 4,8 2,-8 z m -32,10 -28,8 16,8 v -6 l 10,-2 z m 16,0 -12,4 c 0.08,10.268 5.836,20.436 11.624,25.156 4.056,3.228 7.884,5.776 10.376,6.844 2.86,1.072 1.38,-3.004 2,-4 h 8 c 0.62,0.996 -0.86,5.072 2,4 2.492,-1.068 6.32,-3.616 10.376,-6.844 C 118.164,112.436 123.92,102.268 124,92 l -12,-4 -4,12 h -8 l -4,-12 -4,12 h -8 z m 48,0 2,8 10,2 v 6 l 16,-8 z m -64,16 -16,8 28,32 z m 64,0 -12,40 28,-32 z"
     id="path10" />
  <path
     inkscape:connector-curvature="0"
     style="opacity:0.2;fill:#ffffff;stroke-width:4"
     d="m 96,16 c -44.32,0 -80,35.68 -80,80 0,0.115411 0.0062,0.228869 0.0078,0.34375 C 16.358834,52.329079 51.899508,17 96,17 140.10049,17 175.64117,52.329079 175.99219,96.34375 175.99377,96.228869 176,96.115411 176,96 176,51.68 140.32,16 96,16 Z"
     id="rect842" />
</svg>
