<?xml version="1.0" encoding="UTF-8" standalone="no"?>
<svg
   xmlns:dc="http://purl.org/dc/elements/1.1/"
   xmlns:cc="http://creativecommons.org/ns#"
   xmlns:rdf="http://www.w3.org/1999/02/22-rdf-syntax-ns#"
   xmlns:svg="http://www.w3.org/2000/svg"
   xmlns="http://www.w3.org/2000/svg"
   xmlns:sodipodi="http://sodipodi.sourceforge.net/DTD/sodipodi-0.dtd"
   xmlns:inkscape="http://www.inkscape.org/namespaces/inkscape"
   width="192"
   height="192"
   version="1"
   id="svg22"
   sodipodi:docname="apps_maxthon_browser.svg"
   inkscape:version="0.92.3 (2405546, 2018-03-11)">
  <metadata
     id="metadata28">
    <rdf:RDF>
      <cc:Work
         rdf:about="">
        <dc:format>image/svg+xml</dc:format>
        <dc:type
           rdf:resource="http://purl.org/dc/dcmitype/StillImage" />
      </cc:Work>
    </rdf:RDF>
  </metadata>
  <defs
     id="defs26">
    <filter
       inkscape:collect="always"
       style="color-interpolation-filters:sRGB"
       id="filter862"
       x="-0.048"
       width="1.096"
       y="-0.048"
       height="1.096">
      <feGaussianBlur
         inkscape:collect="always"
         stdDeviation="3.2"
         id="feGaussianBlur864" />
    </filter>
    <filter
       inkscape:collect="always"
       style="color-interpolation-filters:sRGB"
       id="filter878"
       x="-0.041454545"
       width="1.0829091"
       y="-0.057"
       height="1.114">
      <feGaussianBlur
         inkscape:collect="always"
         stdDeviation="0.38"
         id="feGaussianBlur880" />
    </filter>
  </defs>
  <sodipodi:namedview
     pagecolor="#ffffff"
     bordercolor="#666666"
     borderopacity="1"
     objecttolerance="10"
     gridtolerance="10"
     guidetolerance="10"
     inkscape:pageopacity="0"
     inkscape:pageshadow="2"
     inkscape:window-width="1920"
     inkscape:window-height="1018"
     id="namedview24"
     showgrid="false"
     inkscape:zoom="1"
     inkscape:cx="96"
     inkscape:cy="96"
     inkscape:window-x="0"
     inkscape:window-y="32"
     inkscape:window-maximized="1"
     inkscape:current-layer="svg22" />
  <rect
     width="160"
     height="160"
     x="-180"
     y="-176"
     rx="8"
     ry="8"
     transform="matrix(0,-1,-1,0,0,0)"
     id="rect844"
     style="opacity:0.2;fill:#000000;stroke-width:4;filter:url(#filter862)" />
  <rect
     style="fill:#1da6e8;stroke-width:4"
     id="rect2"
     transform="matrix(0,-1,-1,0,0,0)"
     ry="8"
     rx="8"
     y="-176"
     x="-176"
     height="160"
     width="160" />
  <g
     style="opacity:0.2;filter:url(#filter878)"
     id="g8"
     transform="matrix(4,0,0,4,0,8)">
    <path
       inkscape:connector-curvature="0"
       id="path4"
       d="m 13,15 v 16 h 6 V 21 h 10 v 10 h 6 V 20 c 0,-4.0345 -4.2373,-5 -6,-5 z" />
    <path
       inkscape:connector-curvature="0"
       id="path6"
       d="m 22,24 v 5 h 4 v -5 z" />
  </g>
  <path
     style="opacity:0.2;fill:#ffffff;stroke-width:4"
     d="M 24 16 C 19.568 16 16 19.568 16 24 L 16 25 C 16 20.568 19.568 17 24 17 L 168 17 C 172.432 17 176 20.568 176 25 L 176 24 C 176 19.568 172.432 16 168 16 L 24 16 z "
     id="path10" />
  <g
     style="fill:#ffffff"
     id="g18"
     transform="matrix(4,0,0,4,0,4)">
    <path
       inkscape:connector-curvature="0"
       id="path14"
       d="m 13,15 v 16 h 6 V 21 h 10 v 10 h 6 V 20 c 0,-4.0345 -4.2373,-5 -6,-5 z" />
    <path
       inkscape:connector-curvature="0"
       id="path16"
       d="m 22,24 v 5 h 4 v -5 z" />
  </g>
</svg>
