<?xml version="1.0" encoding="UTF-8" standalone="no"?>
<svg
   xmlns:dc="http://purl.org/dc/elements/1.1/"
   xmlns:cc="http://creativecommons.org/ns#"
   xmlns:rdf="http://www.w3.org/1999/02/22-rdf-syntax-ns#"
   xmlns:svg="http://www.w3.org/2000/svg"
   xmlns="http://www.w3.org/2000/svg"
   xmlns:sodipodi="http://sodipodi.sourceforge.net/DTD/sodipodi-0.dtd"
   xmlns:inkscape="http://www.inkscape.org/namespaces/inkscape"
   width="192"
   height="192"
   version="1.1"
   id="svg12"
   sodipodi:docname="apps_ettercap.svg"
   inkscape:version="0.92.3 (2405546, 2018-03-11)">
  <metadata
     id="metadata18">
    <rdf:RDF>
      <cc:Work
         rdf:about="">
        <dc:format>image/svg+xml</dc:format>
        <dc:type
           rdf:resource="http://purl.org/dc/dcmitype/StillImage" />
        <dc:title></dc:title>
      </cc:Work>
    </rdf:RDF>
  </metadata>
  <defs
     id="defs16">
    <filter
       inkscape:collect="always"
       style="color-interpolation-filters:sRGB"
       id="filter856"
       x="-0.050666059"
       width="1.1013321"
       y="-0.045600492"
       height="1.091201">
      <feGaussianBlur
         inkscape:collect="always"
         stdDeviation="3.039965"
         id="feGaussianBlur858" />
    </filter>
  </defs>
  <sodipodi:namedview
     pagecolor="#ffffff"
     bordercolor="#666666"
     borderopacity="1"
     objecttolerance="10"
     gridtolerance="10"
     guidetolerance="10"
     inkscape:pageopacity="0"
     inkscape:pageshadow="2"
     inkscape:window-width="1920"
     inkscape:window-height="1018"
     id="namedview14"
     showgrid="false"
     inkscape:zoom="2.82"
     inkscape:cx="24"
     inkscape:cy="66.553191"
     inkscape:window-x="0"
     inkscape:window-y="32"
     inkscape:window-maximized="1"
     inkscape:current-layer="svg12" />
  <path
     inkscape:connector-curvature="0"
     id="path2"
     d="m 157.08632,122.25661 -3.10328,7.2636 -88.052303,-26.21081 q -0.19396,0.8044 -0.686888,2.3812 -0.460629,1.4428 -0.654565,2.2468 -3.523193,14.60721 1.561205,23.87721 5.189467,9.30041 18.954206,13.39801 11.873405,3.5344 26.106665,2.8876 14.33835,-0.6152 31.00425,-5.278 l -14.76486,35.53482 q -15.31623,2.3352 -29.719317,1.3512 -14.330343,-0.8184 -28.410302,-5.0096 Q 41.791653,166.50423 30.677091,145.81622 19.667605,125.15941 26.810953,95.543397 30.948283,78.389788 39.555375,63.716181 48.29986,48.939374 60.673614,38.259368 75.375018,25.399762 92.404666,21.56376 q 17.134724,-3.804802 35.522734,1.668801 23.85187,7.100003 33.91569,27.474813 10.16889,20.406811 3.54271,47.879224 -1.29292,5.360002 -3.37789,11.202802 -1.94758,5.74041 -4.92159,12.46721 z M 126.87216,89.707394 q 0.73542,-1.648401 1.26068,-3.359202 0.66268,-1.813601 1.08288,-3.556002 2.58583,-10.720405 -0.93857,-18.520409 -3.52439,-7.799604 -12.14049,-10.364405 -11.0328,-3.284402 -20.683028,2.174001 -9.512833,5.355203 -17.230889,19.14481 z"
     style="opacity:0.2;stroke-width:4.00000191;filter:url(#filter856)" />
  <path
     inkscape:connector-curvature="0"
     id="path4"
     d="m 157.08632,118.25661 -3.10328,7.2636 -88.052303,-26.210411 q -0.19396,0.804401 -0.686888,2.380801 -0.460629,1.4428 -0.654565,2.2468 -3.523193,14.60721 1.561205,23.87721 5.189467,9.30041 18.954206,13.39801 11.873405,3.5344 26.106665,2.8876 14.33835,-0.6152 31.00425,-5.278 l -14.76486,35.53482 q -15.31623,2.3352 -29.719317,1.3512 -14.330343,-0.8184 -28.410302,-5.00921 -27.529478,-8.1948 -38.64404,-28.88281 Q 19.667605,121.15941 26.810953,91.543395 30.948283,74.389786 39.555375,59.716179 48.29986,44.939772 60.673614,34.259366 75.375018,21.39976 92.404666,17.563758 q 17.134724,-3.804802 35.522734,1.668801 23.85187,7.100403 33.91569,27.475213 10.16889,20.406411 3.54271,47.878824 -1.29292,5.360403 -3.37789,11.202804 -1.94758,5.7404 -4.92159,12.46721 z M 126.87216,85.707392 q 0.73542,-1.648401 1.26068,-3.358802 0.66268,-1.813601 1.08288,-3.556002 2.58583,-10.720805 -0.93857,-18.520809 -3.52439,-7.799604 -12.14049,-10.364405 -11.0328,-3.284002 -20.683028,2.174001 -9.512833,5.355203 -17.230889,19.14481 z"
     style="fill:#275ac4;stroke-width:4.00000191" />
  <path
     inkscape:connector-curvature="0"
     id="path6"
     d="M 112.35938,16.276957 24.60934,104.025 c -1.315672,11.44841 -0.294577,21.74401 3.054688,30.89002 L 88.343748,74.236586 78.226555,71.228985 C 83.371926,62.03578 89.111237,55.650977 95.453124,52.080975 101.07296,48.902173 107.04404,47.944973 113.3672,49.213774 L 138.97659,23.604961 C 135.58,21.87176 131.89907,20.411359 127.9297,19.229759 122.66174,17.661758 117.47305,16.702557 112.35938,16.276957 Z m 44.9219,22.960412 -27.23439,27.233613 c 0.52604,3.723602 0.25556,7.827204 -0.82812,12.320006 -0.28012,1.161601 -0.64416,2.345602 -1.08594,3.554802 -0.35016,1.140401 -0.76753,2.260401 -1.25781,3.359202 l -12.37501,-3.687202 -24.460949,24.46041 26.148449,7.78881 50.96096,-50.952029 c -0.95642,-5.878403 -2.71736,-11.416806 -5.30469,-16.609209 -1.32354,-2.679601 -2.88124,-5.133202 -4.5625,-7.468403 z m 6.39844,61.482831 -21.33594,21.33561 11.64062,3.4608 3.10157,-7.2576 c 1.98267,-4.4848 3.62349,-8.64161 4.92187,-12.46841 0.61528,-1.7244 1.16007,-3.4092 1.67188,-5.0704 z m -96.53911,28.65561 -26.007825,26.00722 c 5.677702,5.3144 12.709642,9.5932 21.078134,12.8592 l 26.210953,-26.21041 c -1.108716,-0.268 -2.240857,-0.4988 -3.320313,-0.82 -8.378101,-2.494 -14.348192,-6.4504 -17.960949,-11.83601 z m 75.07817,9.44521 c -7.34051,2.0536 -14.31338,3.46 -20.97658,4.336 l -31.765639,31.76482 c 2.744293,0.344 5.499606,0.6316 8.257816,0.7892 8.346393,0.57 16.935843,0.248 25.742203,-0.8516 l 6.44531,-6.43761 z"
     style="fill:#453a53;stroke-width:4.00000191" />
  <path
     style="fill:#ffffff;stroke-width:4.00000191;opacity:0.1"
     d="M 107.63672 16.009766 C 102.47917 15.935536 97.401925 16.454719 92.404297 17.564453 C 81.051198 20.121788 70.474764 25.686695 60.673828 34.259766 C 52.424659 41.380036 45.384344 49.865859 39.554688 59.716797 C 33.816626 69.499202 29.568767 80.107229 26.810547 91.542969 C 24.95218 99.247679 24.029167 106.49194 24.013672 113.28711 C 24.114476 106.78321 25.043457 99.86925 26.810547 92.542969 C 29.568767 81.107229 33.816626 70.499202 39.554688 60.716797 C 45.384344 50.865859 52.424659 42.380036 60.673828 35.259766 C 70.474764 26.686695 81.051198 21.121788 92.404297 18.564453 C 103.82745 16.027918 115.66906 16.583353 127.92773 20.232422 C 143.82898 24.966024 155.13454 34.123825 161.84375 47.707031 C 165.96968 55.986745 168.0097 65.14534 167.98828 75.169922 C 168.153 64.751799 166.10697 55.26224 161.84375 46.707031 C 155.13454 33.123825 143.82898 23.966024 127.92773 19.232422 C 121.03223 17.179821 114.26786 16.105203 107.63672 16.009766 z M 130.28711 71.279297 C 130.20568 73.65165 129.85101 76.155441 129.21484 78.792969 C 128.93471 79.954569 128.5746 81.138589 128.13281 82.347656 C 127.78264 83.487924 127.36333 84.608097 126.87305 85.707031 L 78.724609 71.375 C 78.558276 71.664192 78.387758 71.931581 78.222656 72.226562 L 126.87305 86.707031 C 127.36333 85.608097 127.78264 84.489877 128.13281 83.349609 C 128.5746 82.140542 128.93471 80.954569 129.21484 79.792969 C 129.94193 76.778483 130.28466 73.947393 130.28711 71.279297 z M 63.15625 115.75391 C 63.122704 120.74727 64.115194 125.10383 66.150391 128.81445 C 69.610035 135.01473 75.928976 139.48116 85.105469 142.21289 C 93.021072 144.56916 101.7221 145.53081 111.21094 145.09961 C 120.63472 144.69527 130.81612 142.97425 141.74805 139.94727 L 142.21484 138.82227 C 131.10424 141.9308 120.76984 143.68948 111.21094 144.09961 C 101.7221 144.53081 93.021072 143.56916 85.105469 141.21289 C 75.928976 138.48116 69.610035 134.01473 66.150391 127.81445 C 64.251666 124.35265 63.254372 120.33219 63.15625 115.75391 z "
     id="path860" />
</svg>
