<?xml version="1.0" encoding="UTF-8" standalone="no"?>
<svg
   xmlns:dc="http://purl.org/dc/elements/1.1/"
   xmlns:cc="http://creativecommons.org/ns#"
   xmlns:rdf="http://www.w3.org/1999/02/22-rdf-syntax-ns#"
   xmlns:svg="http://www.w3.org/2000/svg"
   xmlns="http://www.w3.org/2000/svg"
   xmlns:sodipodi="http://sodipodi.sourceforge.net/DTD/sodipodi-0.dtd"
   xmlns:inkscape="http://www.inkscape.org/namespaces/inkscape"
   width="192"
   height="192"
   version="1"
   id="svg38"
   sodipodi:docname="apps_beeline.svg"
   inkscape:version="0.92.3 (2405546, 2018-03-11)">
  <metadata
     id="metadata44">
    <rdf:RDF>
      <cc:Work
         rdf:about="">
        <dc:format>image/svg+xml</dc:format>
        <dc:type
           rdf:resource="http://purl.org/dc/dcmitype/StillImage" />
      </cc:Work>
    </rdf:RDF>
  </metadata>
  <defs
     id="defs42">
    <filter
       inkscape:collect="always"
       style="color-interpolation-filters:sRGB"
       id="filter889"
       x="-0.048"
       width="1.096"
       y="-0.048"
       height="1.096">
      <feGaussianBlur
         inkscape:collect="always"
         stdDeviation="3.2"
         id="feGaussianBlur891" />
    </filter>
    <filter
       inkscape:collect="always"
       style="color-interpolation-filters:sRGB"
       id="filter932"
       x="-0.0408"
       width="1.0816"
       y="-0.058285714"
       height="1.1165714">
      <feGaussianBlur
         inkscape:collect="always"
         stdDeviation="1.3600001"
         id="feGaussianBlur934" />
    </filter>
    <filter
       inkscape:collect="always"
       style="color-interpolation-filters:sRGB"
       id="filter948"
       x="-0.048"
       width="1.096"
       y="-0.048"
       height="1.096">
      <feGaussianBlur
         inkscape:collect="always"
         stdDeviation="1.28"
         id="feGaussianBlur950" />
    </filter>
    <filter
       inkscape:collect="always"
       style="color-interpolation-filters:sRGB"
       id="filter964"
       x="-0.048"
       width="1.096"
       y="-0.048"
       height="1.096">
      <feGaussianBlur
         inkscape:collect="always"
         stdDeviation="0.96"
         id="feGaussianBlur966" />
    </filter>
    <filter
       inkscape:collect="always"
       style="color-interpolation-filters:sRGB"
       id="filter987"
       x="-0.036"
       width="1.072"
       y="-0.072"
       height="1.144">
      <feGaussianBlur
         inkscape:collect="always"
         stdDeviation="0.72"
         id="feGaussianBlur989" />
    </filter>
  </defs>
  <sodipodi:namedview
     pagecolor="#ffffff"
     bordercolor="#666666"
     borderopacity="1"
     objecttolerance="10"
     gridtolerance="10"
     guidetolerance="10"
     inkscape:pageopacity="0"
     inkscape:pageshadow="2"
     inkscape:window-width="1920"
     inkscape:window-height="1018"
     id="namedview40"
     showgrid="false"
     inkscape:zoom="2.16"
     inkscape:cx="-88"
     inkscape:cy="96"
     inkscape:window-x="0"
     inkscape:window-y="32"
     inkscape:window-maximized="1"
     inkscape:current-layer="svg38" />
  <path
     style="opacity:0.2;fill:#000000;stroke-width:4;filter:url(#filter889)"
     d="m 96,20 c -44.32,0 -80,35.68 -80,80 0,44.32 35.68,80 80,80 44.32,0 80,-35.68 80,-80 0,-44.32 -35.68,-80 -80,-80 z"
     id="path871"
     inkscape:connector-curvature="0" />
  <path
     inkscape:connector-curvature="0"
     id="path2"
     d="m 96,16 c -44.32,0 -80,35.68 -80,80 0,44.32 35.68,80 80,80 44.32,0 80,-35.68 80,-80 0,-44.32 -35.68,-80 -80,-80 z"
     style="fill:#fead38;stroke-width:4" />
  <path
     inkscape:connector-curvature="0"
     id="path4"
     d="M 97.242188,16.03125 A 120.01736,120.09122 0 0 0 20.226564,121.60156 c 4.663562,13.88543 12.989802,26.03366 23.882812,35.3125 A 120.01736,120.09122 0 0 1 44,152.10937 120.01736,120.09122 0 0 1 145.95312,33.484374 C 132.57914,22.79952 115.69958,16.310962 97.242188,16.03125 Z"
     style="fill:#3f3f3f;stroke-width:4" />
  <path
     inkscape:connector-curvature="0"
     id="path6"
     d="M 154.96875,41.968752 A 120.01736,120.09122 0 0 0 56,160.09375 a 120.01736,120.09122 0 0 0 0.27344,5.35156 c 7.411576,4.23519 15.539252,7.3633 24.21094,9.05469 A 120.01736,120.09122 0 0 1 170.80469,67.75 C 167.1843,58.11948 161.78165,49.404424 154.96875,41.968752 Z"
     style="fill:#3f3f3f;stroke-width:4" />
  <path
     style="opacity:0.1;fill:#ffffff;stroke-width:4"
     d="M 96 16 C 51.68 16 16 51.68 16 96 C 16 96.336 16.002 96.6675 16 97 C 16 52.68 51.68 17 96 17 C 140.32 17 176 52.68 176 97 C 175.998 96.6675 176 96.336 176 96 C 176 51.68 140.32 16 96 16 z "
     id="path8" />
  <circle
     id="circle12"
     r="32"
     cy="108"
     cx="120"
     style="opacity:0.2;stroke-width:4;filter:url(#filter948)" />
  <circle
     id="circle14"
     r="24"
     cy="84"
     cx="168"
     style="opacity:0.2;stroke-width:4;filter:url(#filter964)" />
  <circle
     id="circle16"
     r="32"
     cy="104"
     cx="120"
     style="fill:#ffffff;stroke-width:4" />
  <circle
     id="circle18"
     r="24"
     cy="80"
     cx="168"
     style="fill:#ffffff;stroke-width:4" />
  <circle
     id="circle20"
     r="16"
     cy="112"
     cx="112"
     style="fill:#3f3f3f;stroke-width:4" />
  <circle
     id="circle22"
     r="12"
     cy="84"
     cx="164"
     style="fill:#3f3f3f;stroke-width:4" />
  <path
     inkscape:connector-curvature="0"
     id="path24"
     d="m 144,154 c 0,0 -10.74517,8 -24,8 -13.25483,0 -24,-15.16344 -24,-24 0,0 12.72076,9.26922 20,12 13.76278,5.16305 28,4 28,4 z"
     style="opacity:0.1;stroke-width:4;filter:url(#filter987)" />
  <path
     inkscape:connector-curvature="0"
     id="path26"
     d="m 144,152 c 0,0 -10.74517,8 -24,8 -13.25483,0 -24,-15.16344 -24,-24 0,0 12.72076,9.26922 20,12 13.76278,5.16305 28,4 28,4 z"
     style="fill:#3f3f3f;stroke-width:4" />
  <path
     style="opacity:0.2;stroke-width:4;filter:url(#filter932)"
     d="m 49.166524,124.09596 c 17.600284,-8.24052 33.138432,-3.65565 34.705436,10.2406 1.567004,13.89626 -11.430532,31.84166 -29.030816,40.0822 C 37.240867,182.65928 5.6278321,156.68494 4.0608281,142.78869 2.4938258,128.89243 31.566247,132.33649 49.166524,124.09596 Z"
     id="path28"
     inkscape:connector-curvature="0" />
  <path
     style="fill:#e4e4e4;stroke-width:4"
     d="m 49.166524,120.09596 c 17.600284,-8.24052 33.138432,-3.65565 34.705436,10.2406 1.567004,13.89626 -11.430532,31.84166 -29.030816,40.0822 C 37.240867,178.65928 5.6278321,152.68494 4.0608281,138.78869 2.4938258,124.89243 31.566247,128.33649 49.166524,120.09596 Z"
     id="path30"
     inkscape:connector-curvature="0" />
  <path
     style="opacity:0.2;fill:#ffffff;stroke-width:4"
     d="M 66.615234 116.01562 C 65.986575 115.99702 65.346223 115.99904 64.695312 116.02344 C 59.961421 116.20088 54.664151 117.51858 49.164062 120.09375 C 31.816917 128.21575 3.3506416 125.00211 4.0351562 138.21289 C 4.8187709 126.1593 32.267738 129.00468 49.164062 121.09375 C 54.664151 118.51858 59.961421 117.20088 64.695312 117.02344 C 75.109881 116.63307 82.797684 121.78226 83.875 131.33594 C 83.927277 131.79901 83.950991 132.26945 83.964844 132.74219 C 83.979586 131.92932 83.963868 131.12313 83.875 130.33594 C 82.865016 121.37936 76.045127 116.29466 66.615234 116.01562 z "
     id="path32" />
</svg>
