<?xml version="1.0" encoding="UTF-8" standalone="no"?>
<svg
   xmlns:dc="http://purl.org/dc/elements/1.1/"
   xmlns:cc="http://creativecommons.org/ns#"
   xmlns:rdf="http://www.w3.org/1999/02/22-rdf-syntax-ns#"
   xmlns:svg="http://www.w3.org/2000/svg"
   xmlns="http://www.w3.org/2000/svg"
   xmlns:sodipodi="http://sodipodi.sourceforge.net/DTD/sodipodi-0.dtd"
   xmlns:inkscape="http://www.inkscape.org/namespaces/inkscape"
   width="192"
   height="192"
   version="1"
   id="svg30"
   sodipodi:docname="apps_htc_videoplayer.svg"
   inkscape:version="0.92.3 (2405546, 2018-03-11)">
  <metadata
     id="metadata36">
    <rdf:RDF>
      <cc:Work
         rdf:about="">
        <dc:format>image/svg+xml</dc:format>
        <dc:type
           rdf:resource="http://purl.org/dc/dcmitype/StillImage" />
      </cc:Work>
    </rdf:RDF>
  </metadata>
  <defs
     id="defs34">
    <filter
       inkscape:collect="always"
       style="color-interpolation-filters:sRGB"
       id="filter874"
       x="-0.0432"
       width="1.0864"
       y="-0.054"
       height="1.108">
      <feGaussianBlur
         inkscape:collect="always"
         stdDeviation="2.88"
         id="feGaussianBlur876" />
    </filter>
    <filter
       inkscape:collect="always"
       style="color-interpolation-filters:sRGB"
       id="filter894"
       x="-0.048"
       width="1.096"
       y="-0.048"
       height="1.096">
      <feGaussianBlur
         inkscape:collect="always"
         stdDeviation="1.44"
         id="feGaussianBlur896" />
    </filter>
    <filter
       inkscape:collect="always"
       style="color-interpolation-filters:sRGB"
       id="filter911"
       x="-0.018457032"
       width="1.0369141"
       y="-0.034301269"
       height="1.0686025">
      <feGaussianBlur
         inkscape:collect="always"
         stdDeviation="1.1074219"
         id="feGaussianBlur913" />
    </filter>
  </defs>
  <sodipodi:namedview
     pagecolor="#ffffff"
     bordercolor="#666666"
     borderopacity="1"
     objecttolerance="10"
     gridtolerance="10"
     guidetolerance="10"
     inkscape:pageopacity="0"
     inkscape:pageshadow="2"
     inkscape:window-width="1920"
     inkscape:window-height="1018"
     id="namedview32"
     showgrid="false"
     inkscape:zoom="3.2796268"
     inkscape:cx="96"
     inkscape:cy="96"
     inkscape:window-x="0"
     inkscape:window-y="32"
     inkscape:window-maximized="1"
     inkscape:current-layer="svg30" />
  <rect
     style="opacity:0.2;fill:#000000;stroke-width:4;filter:url(#filter874)"
     width="128"
     height="160"
     x="-164"
     y="-176"
     rx="8"
     ry="8"
     transform="matrix(0,-1,-1,0,0,0)"
     id="rect856" />
  <rect
     id="rect2"
     transform="matrix(0,-1,-1,0,0,0)"
     ry="8"
     rx="8"
     y="-176"
     x="-160"
     height="160"
     width="128"
     style="fill:#f78c35;stroke-width:4" />
  <path
     style="opacity:0.2;fill:#ffffff;stroke-width:4"
     d="M 24 32 C 19.568 32 16 35.568 16 40 L 16 41 C 16 36.568 19.568 33 24 33 L 168 33 C 172.432 33 176 36.568 176 41 L 176 40 C 176 35.568 172.432 32 168 32 L 24 32 z "
     id="path4" />
  <path
     style="opacity:0.4;stroke-width:4"
     d="M 27.595703 52 C 25.603519 52 24 53.554239 24 55.484375 L 24 64.515625 C 24 66.445761 25.603519 68 27.595703 68 L 36.404297 68 C 38.396481 68 40 66.445761 40 64.515625 L 40 55.484375 C 40 53.554239 38.396481 52 36.404297 52 L 27.595703 52 z M 155.5957 52 C 153.60352 52 152 53.554239 152 55.484375 L 152 64.515625 C 152 66.445761 153.60352 68 155.5957 68 L 164.4043 68 C 166.39648 68 168 66.445761 168 64.515625 L 168 55.484375 C 168 53.554239 166.39648 52 164.4043 52 L 155.5957 52 z M 27.595703 76 C 25.603519 76 24 77.554239 24 79.484375 L 24 88.515625 C 24 90.445761 25.603519 92 27.595703 92 L 36.404297 92 C 38.396481 92 40 90.445761 40 88.515625 L 40 79.484375 C 40 77.554239 38.396481 76 36.404297 76 L 27.595703 76 z M 155.5957 76 C 153.60352 76 152 77.554239 152 79.484375 L 152 88.515625 C 152 90.445761 153.60352 92 155.5957 92 L 164.4043 92 C 166.39648 92 168 90.445761 168 88.515625 L 168 79.484375 C 168 77.554239 166.39648 76 164.4043 76 L 155.5957 76 z M 27.595703 100 C 25.603519 100 24 101.55424 24 103.48438 L 24 112.51562 C 24 114.44576 25.603519 116 27.595703 116 L 36.404297 116 C 38.396481 116 40 114.44576 40 112.51562 L 40 103.48438 C 40 101.55424 38.396481 100 36.404297 100 L 27.595703 100 z M 155.5957 100 C 153.60352 100 152 101.55424 152 103.48438 L 152 112.51562 C 152 114.44576 153.60352 116 155.5957 116 L 164.4043 116 C 166.39648 116 168 114.44576 168 112.51562 L 168 103.48438 C 168 101.55424 166.39648 100 164.4043 100 L 155.5957 100 z M 27.595703 124 C 25.603519 124 24 125.55424 24 127.48438 L 24 136.51562 C 24 138.44576 25.603519 140 27.595703 140 L 36.404297 140 C 38.396481 140 40 138.44576 40 136.51562 L 40 127.48438 C 40 125.55424 38.396481 124 36.404297 124 L 27.595703 124 z M 155.5957 124 C 153.60352 124 152 125.55424 152 127.48438 L 152 136.51562 C 152 138.44576 153.60352 140 155.5957 140 L 164.4043 140 C 166.39648 140 168 138.44576 168 136.51562 L 168 127.48438 C 168 125.55424 166.39648 124 164.4043 124 L 155.5957 124 z "
     id="rect8" />
  <path
     inkscape:connector-curvature="0"
     id="path24"
     d="m 96,64 a 36,36 0 0 0 -36,36 36,36 0 0 0 36,36 36,36 0 0 0 36,-36 36,36 0 0 0 -36,-36 z m 0,8 a 28,28 0 0 1 28,28 28,28 0 0 1 -28,28 28,28 0 0 1 -28,-28 28,28 0 0 1 28,-28 z m -10.625,8 c -1.244848,-0.0272 -1.454464,1.728188 -1.351564,2.992188 0.0088,11.829808 -0.0192,23.655092 0.008,35.484372 0.10948,1.41439 1.499288,1.9787 2.289064,1.10156 8.440744,-6.0565 20.72029,-12.06579 29.14844,-18.14843 0.91964,-0.83722 0.56554,-2.789978 -0.46094,-3.195314 C 106.56684,92.201876 94.32284,86.136976 85.875,80.125 85.7172,80.04288 85.544692,80.00028 85.375,80 Z"
     style="opacity:0.2;fill:#000000;stroke-width:4;filter:url(#filter894)" />
  <path
     inkscape:connector-curvature="0"
     id="path26"
     d="M 96,60 A 36,36 0 0 0 60,96 36,36 0 0 0 96,132 36,36 0 0 0 132,96 36,36 0 0 0 96,60 Z m 0,8 A 28,28 0 0 1 124,96 28,28 0 0 1 96,124 28,28 0 0 1 68,96 28,28 0 0 1 96,68 Z m -10.625,8 c -1.244848,-0.0272 -1.454464,1.728188 -1.351564,2.992188 0.0088,11.829808 -0.0192,23.655092 0.008,35.484372 0.10948,1.41439 1.499288,1.9787 2.289064,1.10156 8.440744,-6.0565 20.72029,-12.06579 29.14844,-18.148432 0.91964,-0.83722 0.56554,-2.789976 -0.46094,-3.195312 C 106.56684,88.201876 94.32284,82.136976 85.875,76.125 85.7172,76.04288 85.544692,76.00028 85.375,76 Z"
     style="fill:#ffffff;stroke-width:4" />
  <path
     style="opacity:0.1;stroke-width:4;fill:#000000;filter:url(#filter911)"
     d="M 27.595703 52 C 25.603519 52 24 53.554239 24 55.484375 L 24 57.484375 C 24 55.554239 25.603519 54 27.595703 54 L 36.404297 54 C 38.396481 54 40 55.554239 40 57.484375 L 40 55.484375 C 40 53.554239 38.396481 52 36.404297 52 L 27.595703 52 z M 155.5957 52 C 153.60352 52 152 53.554239 152 55.484375 L 152 57.484375 C 152 55.554239 153.60352 54 155.5957 54 L 164.4043 54 C 166.39648 54 168 55.554239 168 57.484375 L 168 55.484375 C 168 53.554239 166.39648 52 164.4043 52 L 155.5957 52 z M 27.595703 76 C 25.603519 76 24 77.554239 24 79.484375 L 24 81.484375 C 24 79.554239 25.603519 78 27.595703 78 L 36.404297 78 C 38.396481 78 40 79.554239 40 81.484375 L 40 79.484375 C 40 77.554239 38.396481 76 36.404297 76 L 27.595703 76 z M 155.5957 76 C 153.60352 76 152 77.554239 152 79.484375 L 152 81.484375 C 152 79.554239 153.60352 78 155.5957 78 L 164.4043 78 C 166.39648 78 168 79.554239 168 81.484375 L 168 79.484375 C 168 77.554239 166.39648 76 164.4043 76 L 155.5957 76 z M 27.595703 100 C 25.603519 100 24 101.55424 24 103.48438 L 24 105.48438 C 24 103.55424 25.603519 102 27.595703 102 L 36.404297 102 C 38.396481 102 40 103.55423 40 105.48438 L 40 103.48438 C 40 101.55423 38.396481 100 36.404297 100 L 27.595703 100 z M 155.5957 100 C 153.60352 100 152 101.55424 152 103.48438 L 152 105.48438 C 152 103.55424 153.60352 102 155.5957 102 L 164.4043 102 C 166.39648 102 168 103.55423 168 105.48438 L 168 103.48438 C 168 101.55423 166.39648 100 164.4043 100 L 155.5957 100 z M 27.595703 124 C 25.603519 124 24 125.55424 24 127.48438 L 24 129.48438 C 24 127.55424 25.603519 126 27.595703 126 L 36.404297 126 C 38.396481 126 40 127.55423 40 129.48438 L 40 127.48438 C 40 125.55423 38.396481 124 36.404297 124 L 27.595703 124 z M 155.5957 124 C 153.60352 124 152 125.55424 152 127.48438 L 152 129.48438 C 152 127.55424 153.60352 126 155.5957 126 L 164.4043 126 C 166.39648 126 168 127.55424 168 129.48438 L 168 127.48438 C 168 125.55423 166.39648 124 164.4043 124 L 155.5957 124 z "
     id="path902" />
  <path
     style="opacity:0.2;stroke-width:4;fill:#ffffff"
     d="M 24 64.515625 L 24 65.515625 C 24 67.445761 25.603519 69 27.595703 69 L 36.404297 69 C 38.396481 69 40 67.445761 40 65.515625 L 40 64.515625 C 40 66.445761 38.396481 68 36.404297 68 L 27.595703 68 C 25.603519 68 24 66.445761 24 64.515625 z M 152 64.515625 L 152 65.515625 C 152 67.445761 153.60352 69 155.5957 69 L 164.4043 69 C 166.39648 69 168 67.445761 168 65.515625 L 168 64.515625 C 168 66.445761 166.39648 68 164.4043 68 L 155.5957 68 C 153.60352 68 152 66.445761 152 64.515625 z M 24 88.515625 L 24 89.515625 C 24 91.445761 25.603519 93 27.595703 93 L 36.404297 93 C 38.396481 93 40 91.445761 40 89.515625 L 40 88.515625 C 40 90.445761 38.396481 92 36.404297 92 L 27.595703 92 C 25.603519 92 24 90.445761 24 88.515625 z M 152 88.515625 L 152 89.515625 C 152 91.445761 153.60352 93 155.5957 93 L 164.4043 93 C 166.39648 93 168 91.445761 168 89.515625 L 168 88.515625 C 168 90.445761 166.39648 92 164.4043 92 L 155.5957 92 C 153.60352 92 152 90.445761 152 88.515625 z M 24 112.51562 L 24 113.51562 C 24 115.44577 25.603519 117 27.595703 117 L 36.404297 117 C 38.396481 117 40 115.44576 40 113.51562 L 40 112.51562 C 40 114.44576 38.396481 116 36.404297 116 L 27.595703 116 C 25.603519 116 24 114.44577 24 112.51562 z M 152 112.51562 L 152 113.51562 C 152 115.44576 153.60352 117 155.5957 117 L 164.4043 117 C 166.39648 117 168 115.44576 168 113.51562 L 168 112.51562 C 168 114.44576 166.39648 116 164.4043 116 L 155.5957 116 C 153.60352 116 152 114.44576 152 112.51562 z M 24 136.51562 L 24 137.51562 C 24 139.44577 25.603519 141 27.595703 141 L 36.404297 141 C 38.396481 141 40 139.44576 40 137.51562 L 40 136.51562 C 40 138.44576 38.396481 140 36.404297 140 L 27.595703 140 C 25.603519 140 24 138.44576 24 136.51562 z M 152 136.51562 L 152 137.51562 C 152 139.44576 153.60352 141 155.5957 141 L 164.4043 141 C 166.39648 141 168 139.44576 168 137.51562 L 168 136.51562 C 168 138.44576 166.39648 140 164.4043 140 L 155.5957 140 C 153.60352 140 152 138.44576 152 136.51562 z "
     id="path915" />
</svg>
