<?xml version="1.0" encoding="UTF-8" standalone="no"?>
<svg
   xmlns:dc="http://purl.org/dc/elements/1.1/"
   xmlns:cc="http://creativecommons.org/ns#"
   xmlns:rdf="http://www.w3.org/1999/02/22-rdf-syntax-ns#"
   xmlns:svg="http://www.w3.org/2000/svg"
   xmlns="http://www.w3.org/2000/svg"
   xmlns:sodipodi="http://sodipodi.sourceforge.net/DTD/sodipodi-0.dtd"
   xmlns:inkscape="http://www.inkscape.org/namespaces/inkscape"
   width="192"
   height="192"
   version="1"
   id="svg22"
   sodipodi:docname="apps_video_player_perfect.svg"
   inkscape:version="0.92.3 (2405546, 2018-03-11)">
  <metadata
     id="metadata28">
    <rdf:RDF>
      <cc:Work
         rdf:about="">
        <dc:format>image/svg+xml</dc:format>
        <dc:type
           rdf:resource="http://purl.org/dc/dcmitype/StillImage" />
      </cc:Work>
    </rdf:RDF>
  </metadata>
  <defs
     id="defs26">
    <filter
       inkscape:collect="always"
       style="color-interpolation-filters:sRGB"
       id="filter869"
       x="-0.048"
       width="1.096"
       y="-0.048"
       height="1.096">
      <feGaussianBlur
         inkscape:collect="always"
         stdDeviation="3.2"
         id="feGaussianBlur871" />
    </filter>
    <filter
       inkscape:collect="always"
       style="color-interpolation-filters:sRGB"
       id="filter888"
       x="-0.048"
       width="1.096"
       y="-0.048"
       height="1.096">
      <feGaussianBlur
         inkscape:collect="always"
         stdDeviation="2.08"
         id="feGaussianBlur890" />
    </filter>
  </defs>
  <sodipodi:namedview
     pagecolor="#ffffff"
     bordercolor="#666666"
     borderopacity="1"
     objecttolerance="10"
     gridtolerance="10"
     guidetolerance="10"
     inkscape:pageopacity="0"
     inkscape:pageshadow="2"
     inkscape:window-width="1920"
     inkscape:window-height="1018"
     id="namedview24"
     showgrid="false"
     inkscape:zoom="1"
     inkscape:cx="96"
     inkscape:cy="96"
     inkscape:window-x="0"
     inkscape:window-y="32"
     inkscape:window-maximized="1"
     inkscape:current-layer="svg22" />
  <path
     style="opacity:0.2;fill:#000000;stroke-width:4;filter:url(#filter869)"
     d="m 24,20 c -4.432,0 -8,3.568 -8,8 v 72 72 c 0,4.432 3.568,8 8,8 h 72 72 c 4.432,0 8,-3.568 8,-8 V 100 28 c 0,-4.432 -3.568,-8 -8,-8 H 96 Z"
     id="path844"
     inkscape:connector-curvature="0" />
  <path
     inkscape:connector-curvature="0"
     id="path2"
     d="M 96,16 H 24 c -4.432,0 -8,3.568 -8,8 v 72 h 80 z"
     style="fill:#43c95a;stroke-width:4" />
  <path
     inkscape:connector-curvature="0"
     id="path4"
     d="m 96,16 h 72 c 4.432,0 8,3.568 8,8 V 96 H 96 Z"
     style="fill:#e4214c;stroke-width:4" />
  <path
     inkscape:connector-curvature="0"
     id="path6"
     d="M 96,176 H 24 c -4.432,0 -8,-3.568 -8,-8 V 96 h 80 z"
     style="fill:#2d8fc5;stroke-width:4" />
  <path
     inkscape:connector-curvature="0"
     id="path8"
     d="m 96,176 h 72 c 4.432,0 8,-3.568 8,-8 V 96 H 96 Z"
     style="fill:#ffd13e;stroke-width:4" />
  <path
     style="opacity:0.2;fill:#ffffff;stroke-width:4"
     d="M 24 16 C 19.568 16 16 19.568 16 24 L 16 25 C 16 20.568 19.568 17 24 17 L 168 17 C 172.432 17 176 20.568 176 25 L 176 24 C 176 19.568 172.432 16 168 16 L 24 16 z "
     id="path10" />
  <rect
     id="rect14"
     ry="12"
     rx="12"
     y="48"
     x="44"
     height="104"
     width="104"
     style="opacity:0.2;stroke-width:4;filter:url(#filter888)" />
  <rect
     id="rect16"
     ry="12"
     rx="12"
     y="44"
     x="44"
     height="104"
     width="104"
     style="fill:#ffffff;stroke-width:4" />
  <path
     inkscape:connector-curvature="0"
     id="path18"
     d="m 75.999999,68 24,13.999999 L 124,95.999998 99.999999,110 76,124 l -10e-7,-28.000002 z"
     style="fill:#714480;stroke-width:2.69559121" />
</svg>
