<?xml version="1.0" encoding="UTF-8" standalone="no"?>
<svg
   xmlns:dc="http://purl.org/dc/elements/1.1/"
   xmlns:cc="http://creativecommons.org/ns#"
   xmlns:rdf="http://www.w3.org/1999/02/22-rdf-syntax-ns#"
   xmlns:svg="http://www.w3.org/2000/svg"
   xmlns="http://www.w3.org/2000/svg"
   xmlns:sodipodi="http://sodipodi.sourceforge.net/DTD/sodipodi-0.dtd"
   xmlns:inkscape="http://www.inkscape.org/namespaces/inkscape"
   width="192"
   height="192"
   version="1.1"
   id="svg22"
   sodipodi:docname="apps_lichess.svg"
   inkscape:version="0.92.3 (2405546, 2018-03-11)">
  <metadata
     id="metadata28">
    <rdf:RDF>
      <cc:Work
         rdf:about="">
        <dc:format>image/svg+xml</dc:format>
        <dc:type
           rdf:resource="http://purl.org/dc/dcmitype/StillImage" />
        <dc:title></dc:title>
      </cc:Work>
    </rdf:RDF>
  </metadata>
  <defs
     id="defs26">
    <filter
       inkscape:collect="always"
       style="color-interpolation-filters:sRGB"
       id="filter884"
       x="-0.063465096"
       width="1.1269302"
       y="-0.03872352"
       height="1.077447">
      <feGaussianBlur
         inkscape:collect="always"
         stdDeviation="0.58273735"
         id="feGaussianBlur886" />
    </filter>
  </defs>
  <sodipodi:namedview
     pagecolor="#626262"
     bordercolor="#666666"
     borderopacity="1"
     objecttolerance="10"
     gridtolerance="10"
     guidetolerance="10"
     inkscape:pageopacity="0"
     inkscape:pageshadow="2"
     inkscape:window-width="1920"
     inkscape:window-height="1018"
     id="namedview24"
     showgrid="false"
     inkscape:zoom="1"
     inkscape:cx="24"
     inkscape:cy="84.836502"
     inkscape:window-x="0"
     inkscape:window-y="32"
     inkscape:window-maximized="1"
     inkscape:current-layer="svg22" />
  <g
     id="g6"
     transform="matrix(-4.3564,0,0,4.4300712,174.8427,20)"
     style="opacity:0.2;filter:url(#filter884)">
    <g
       id="g4">
      <path
         inkscape:connector-curvature="0"
         id="path2"
         d="m 26.035,4 c -0.222,0.1119 -0.476,0.1957 -0.676,0.3496 -0.385,0.299 -0.76,0.6185 -1.105,0.9629 -0.379,0.3777 -0.771,0.5919 -1.324,0.707 -1.329,0.2725 -2.678,0.5744 -3.92,1.1016 -2.762,1.1762 -4.59,3.3919 -5.893,6.0569 -1.156,2.369 -1.177,4.937 -1.082,7.517 0.196,5.323 4.035,9.209 5.711,13.305 H 18.18 C 17.526,34 17,34.445 17,34.998 v 2.004 C 17,37.555 17.526,38 18.18,38 H 16.543 C 15.688,38 15,38.668 15,39.498 v 3.004 C 15,43.332 15.688,44 16.543,44 H 30.457 C 31.312,44 32,43.332 32,42.502 V 39.498 C 32,38.668 31.312,38 30.457,38 H 28.82 C 29.474,38 30,37.555 30,37.002 V 34.998 C 30,34.445 29.474,34 28.82,34 h 0.182 c 0.424,-0.398 0.829,-1.111 1.207,-1.518 1.713,-1.834 2.019,-4.437 0.816,-6.666 -0.588,-1.088 -1.415,-1.971 -2.369,-2.726 -1.074,-0.85 -2.184,-1.651 -3.267,-2.488 -0.31,-0.24 -0.584,-0.525 -0.996,-0.901 1.021,0.218 1.836,0.501 2.658,0.543 1.419,0.071 2.643,0.547 3.779,1.383 0.439,0.323 0.949,0.582 1.463,0.762 0.668,0.232 1,0.066 1.398,-0.545 0.105,-0.161 0.168,-0.347 0.268,-0.559 0.791,0.011 1.226,-0.451 1.443,-1.191 0.074,-0.253 0.2,-0.487 0.291,-0.733 0.615,-1.648 0.299,-3.107 -0.879,-4.379 C 34.551,14.691 34.238,14.449 33.963,14.17 33.045,13.242 32.122,12.319 31.227,11.369 30.577,10.678 29.992,9.9258 29.336,9.2402 29.011,8.9024 28.737,8.5643 28.586,8.1113 28.358,7.4324 27.93,6.9099 27.307,6.5566 27.086,6.4315 26.875,6.2857 26.715,6.1816 26.458,5.4241 27.067,4.4762 26.035,4 Z"
         transform="matrix(0.91819,0,0,0.90292,-3.9385,-3.6117)" />
    </g>
  </g>
  <g
     id="g12"
     transform="matrix(-4.3564,0,0,4.4300712,174.8427,15.9988)"
     style="fill:#e4e4e4;fill-opacity:1">
    <g
       id="g10"
       style="fill:#e4e4e4;fill-opacity:1">
      <path
         inkscape:connector-curvature="0"
         id="path8"
         d="m 26.035,4 c -0.222,0.1119 -0.476,0.1957 -0.676,0.3496 -0.385,0.299 -0.76,0.6185 -1.105,0.9629 -0.379,0.3777 -0.771,0.5919 -1.324,0.707 -1.329,0.2725 -2.678,0.5744 -3.92,1.1016 -2.762,1.1762 -4.59,3.3919 -5.893,6.0569 -1.156,2.369 -1.177,4.937 -1.082,7.517 0.196,5.323 4.035,9.209 5.711,13.305 H 18.18 C 17.526,34 17,34.445 17,34.998 v 2.004 C 17,37.555 17.526,38 18.18,38 H 16.543 C 15.688,38 15,38.668 15,39.498 v 3.004 C 15,43.332 15.688,44 16.543,44 H 30.457 C 31.312,44 32,43.332 32,42.502 V 39.498 C 32,38.668 31.312,38 30.457,38 H 28.82 C 29.474,38 30,37.555 30,37.002 V 34.998 C 30,34.445 29.474,34 28.82,34 h 0.182 c 0.424,-0.398 0.829,-1.111 1.207,-1.518 1.713,-1.834 2.019,-4.437 0.816,-6.666 -0.588,-1.088 -1.415,-1.971 -2.369,-2.726 -1.074,-0.85 -2.184,-1.651 -3.267,-2.488 -0.31,-0.24 -0.584,-0.525 -0.996,-0.901 1.021,0.218 1.836,0.501 2.658,0.543 1.419,0.071 2.643,0.547 3.779,1.383 0.439,0.323 0.949,0.582 1.463,0.762 0.668,0.232 1,0.066 1.398,-0.545 0.105,-0.161 0.168,-0.347 0.268,-0.559 0.791,0.011 1.226,-0.451 1.443,-1.191 0.074,-0.253 0.2,-0.487 0.291,-0.733 0.615,-1.648 0.299,-3.107 -0.879,-4.379 C 34.551,14.691 34.238,14.449 33.963,14.17 33.045,13.242 32.122,12.319 31.227,11.369 30.577,10.678 29.992,9.9258 29.336,9.2402 29.011,8.9024 28.737,8.5643 28.586,8.1113 28.358,7.4324 27.93,6.9099 27.307,6.5566 27.086,6.4315 26.875,6.2857 26.715,6.1816 26.458,5.4241 27.067,4.4762 26.035,4 Z"
         transform="matrix(0.91819,0,0,0.90292,-3.9385,-3.6117)"
         style="fill:#e4e4e4;fill-opacity:1" />
    </g>
  </g>
  <g
     style="fill:#ffffff;opacity:0.2"
     transform="matrix(-4.3564,0,0,4.4300712,174.8427,15.9988)"
     id="g892">
    <g
       style="fill:#ffffff"
       id="g890">
      <path
         style="fill:#ffffff;stroke-width:4.00000143"
         d="M 87.859375 15.998047 C 85.480039 17.095953 85.291675 18.825477 85.353516 20.669922 C 85.433665 19.213275 85.916123 17.896682 87.859375 17 C 88.747376 17.4476 89.764453 17.782838 90.564453 18.398438 C 92.104454 19.594437 93.604374 20.8724 94.984375 22.25 C 96.500376 23.7608 98.069248 24.617725 100.28125 25.078125 C 105.59725 26.168125 110.99293 27.375575 115.96094 29.484375 C 127.00895 34.189175 134.3212 43.052891 139.5332 53.712891 C 142.97792 60.77218 143.89951 68.272693 143.99023 75.90625 C 143.96825 67.927891 143.12835 60.07849 139.5332 52.710938 C 134.3212 42.050938 127.00895 33.187222 115.96094 28.482422 C 110.99293 26.373622 105.59725 25.166172 100.28125 24.076172 C 98.069248 23.615772 96.500376 22.758847 94.984375 21.248047 C 93.604374 19.870447 92.104454 18.592484 90.564453 17.396484 C 89.764453 16.780884 88.747376 16.445647 87.859375 15.998047 z M 85.400391 22.958984 C 85.384894 23.561859 85.33296 24.157709 85.140625 24.724609 C 84.500625 25.141009 83.655485 25.724209 82.771484 26.224609 C 80.279483 27.637809 78.568251 29.727759 77.65625 32.443359 C 77.05225 34.255359 75.956251 35.607784 74.65625 36.958984 C 72.032248 39.701384 69.691799 42.710609 67.091797 45.474609 C 63.511794 49.274609 59.82044 52.965734 56.148438 56.677734 C 55.048437 57.793734 53.796141 58.761781 52.744141 59.925781 C 49.46435 63.467284 47.859371 67.373586 48.013672 71.642578 C 48.126617 67.762314 49.722355 64.190645 52.744141 60.927734 C 53.796141 59.763734 55.048437 58.795687 56.148438 57.679688 C 59.82044 53.967688 63.511794 50.276562 67.091797 46.476562 C 69.691799 43.712563 72.032248 40.703337 74.65625 37.960938 C 75.956251 36.609738 77.05225 35.257312 77.65625 33.445312 C 78.568251 30.729713 80.279483 28.639762 82.771484 27.226562 C 83.655485 26.726163 84.500625 26.142962 85.140625 25.726562 C 85.43915 24.84667 85.440523 23.90247 85.400391 22.958984 z M 94.427734 79.804688 C 93.92884 79.911209 93.475855 80.026621 93 80.138672 C 92.094407 80.993855 91.270516 81.765871 90.443359 82.40625 C 86.111356 85.75425 81.672956 88.959375 77.376953 92.359375 C 73.56095 95.379375 70.252392 98.911672 67.900391 103.26367 C 65.929808 106.9149 64.987779 110.8153 65.013672 114.6543 C 65.146277 111.14074 66.100887 107.59791 67.900391 104.26367 C 70.252392 99.911672 73.56095 96.379375 77.376953 93.359375 C 81.672956 89.959375 86.111356 86.756203 90.443359 83.408203 C 91.68336 82.448203 92.779733 81.308687 94.427734 79.804688 z M 75.246094 136.21484 C 73.361564 136.73818 72 138.21672 72 139.99023 L 72 140.99219 C 72 138.78019 74.104701 137 76.720703 137 L 75.992188 137 C 75.741662 136.76484 75.493199 136.49699 75.246094 136.21484 z M 121.28711 136.38672 C 121.20056 136.59147 121.09951 136.79499 121.01562 137 L 119.28125 137 C 121.89725 137 124 138.78019 124 140.99219 L 124 139.99023 C 124 138.38845 122.88916 137.02359 121.28711 136.38672 z M 70.171875 151.99805 C 66.751873 151.99805 64 154.67023 64 157.99023 L 64 158.99219 C 64 155.67219 66.751873 153 70.171875 153 L 76.720703 153 C 75.523156 153 74.445468 152.61476 73.615234 151.99805 L 70.171875 151.99805 z M 122.38672 151.99805 C 121.55638 152.61514 120.4792 153 119.28125 153 L 125.82812 153 C 129.24813 153 132 155.67219 132 158.99219 L 132 157.99023 C 132 154.67023 129.24813 151.99805 125.82812 151.99805 L 122.38672 151.99805 z "
         transform="matrix(-0.22954733,0,0,0.22573001,40.134675,-3.6114092)"
         id="path888" />
    </g>
  </g>
  <g
     id="g898"
     transform="matrix(-4.3564,0,0,4.4300712,174.8427,17.000093)"
     style="opacity:0.2;fill:#ffffff">
    <g
       id="g896"
       style="fill:#ffffff" />
  </g>
</svg>
