<?xml version="1.0" encoding="UTF-8" standalone="no"?>
<svg
   xmlns:dc="http://purl.org/dc/elements/1.1/"
   xmlns:cc="http://creativecommons.org/ns#"
   xmlns:rdf="http://www.w3.org/1999/02/22-rdf-syntax-ns#"
   xmlns:svg="http://www.w3.org/2000/svg"
   xmlns="http://www.w3.org/2000/svg"
   xmlns:sodipodi="http://sodipodi.sourceforge.net/DTD/sodipodi-0.dtd"
   xmlns:inkscape="http://www.inkscape.org/namespaces/inkscape"
   width="192"
   height="192"
   version="1"
   id="svg24"
   sodipodi:docname="apps_twitter.svg"
   inkscape:version="0.92.3 (2405546, 2018-03-11)">
  <metadata
     id="metadata30">
    <rdf:RDF>
      <cc:Work
         rdf:about="">
        <dc:format>image/svg+xml</dc:format>
        <dc:type
           rdf:resource="http://purl.org/dc/dcmitype/StillImage" />
      </cc:Work>
    </rdf:RDF>
  </metadata>
  <defs
     id="defs28">
    <filter
       inkscape:collect="always"
       style="color-interpolation-filters:sRGB"
       id="filter862"
       x="-0.045333333"
       width="1.0906667"
       y="-0.051"
       height="1.102">
      <feGaussianBlur
         inkscape:collect="always"
         stdDeviation="2.72"
         id="feGaussianBlur864" />
    </filter>
    <filter
       inkscape:collect="always"
       style="color-interpolation-filters:sRGB"
       id="filter881"
       x="-0.045333333"
       width="1.0906667"
       y="-0.051"
       height="1.102">
      <feGaussianBlur
         inkscape:collect="always"
         stdDeviation="2.04"
         id="feGaussianBlur883" />
    </filter>
    <filter
       inkscape:collect="always"
       style="color-interpolation-filters:sRGB"
       id="filter906"
       x="-0.051399472"
       width="1.1027989"
       y="-0.045022303"
       height="1.0900446">
      <feGaussianBlur
         inkscape:collect="always"
         stdDeviation="0.53929268"
         id="feGaussianBlur908" />
    </filter>
  </defs>
  <sodipodi:namedview
     pagecolor="#ffffff"
     bordercolor="#666666"
     borderopacity="1"
     objecttolerance="10"
     gridtolerance="10"
     guidetolerance="10"
     inkscape:pageopacity="0"
     inkscape:pageshadow="2"
     inkscape:window-width="1920"
     inkscape:window-height="1018"
     id="namedview26"
     showgrid="false"
     inkscape:zoom="1"
     inkscape:cx="96"
     inkscape:cy="96"
     inkscape:window-x="0"
     inkscape:window-y="32"
     inkscape:window-maximized="1"
     inkscape:current-layer="svg24" />
  <path
     inkscape:connector-curvature="0"
     id="path2"
     d="m 176.19874,37.999725 c -6.19446,3.569372 -14.10081,5.590752 -21.37998,7.049196 0.008,0.0088 0.0172,0.016 0.0248,0.0248 0.62908,0.724632 1.22456,1.051612 1.78968,1.827608 0.57255,0.785296 1.11214,1.59884 1.61608,2.432364 0.44584,0.73742 0.84744,4.696816 1.2368,5.46878 0.0511,0.1014 0.11484,0.19488 0.16488,0.2968 l 0.008,0.0164 c 0.42777,0.8711 0.3962,-1.853988 0.74895,-0.943952 6.71637,-3.96176 13.3532,-8.764524 15.79057,-16.172052 z M 180,49.999697 c -5.84538,2.519012 -12.9721,3.46286 -19.55886,4.246284 1.45964,3.629308 2.43604,10.499368 2.67284,12.501716 6.4296,-4.506992 12.4737,-10.33584 16.88602,-16.748 z"
     style="opacity:0.1;stroke-width:4;filter:url(#filter906)" />
  <path
     inkscape:connector-curvature="0"
     id="path4"
     d="m 130.11765,32.000001 c -18.71271,0 -33.882354,15.169647 -33.882354,33.882351 3.766674,24.941488 -11.778616,53.947038 -27.537684,66.282228 -11.25666,8.6036 -25.446284,16.01076 -40.8557,16.01076 -2.654756,0 -5.26884,-0.1504 -7.841912,-0.44668 C 34.555927,156.83033 51.842544,160 70.418204,160 130.91649,160 164,110.1812 164,67.793204 c 0,-0.42942 -0.0272,-0.854192 -0.0328,-1.282168 0.0128,-0.20944 0.024,-0.419024 0.0328,-0.628684 -0.0192,-16.844368 -12.4099,-31.116658 -29.08456,-33.501836 -0.36068,-0.06563 -0.72807,-0.117892 -1.10018,-0.165444 -0.4075,-0.03772 -0.81566,-0.06806 -1.22427,-0.09099 C 132.05737,32.08596 131.55258,32 130.99449,32 c -0.14788,0 -0.29104,0.02292 -0.43842,0.0248 -0.14608,-0.0092 -0.29224,-0.01748 -0.43842,-0.0248 z"
     style="opacity:0.2;stroke-width:4;filter:url(#filter862)" />
  <path
     inkscape:connector-curvature="0"
     id="path6"
     d="m 176.19874,36.000028 c -6.19446,3.569374 -14.10081,5.590752 -21.37998,7.049196 0.008,0.0088 0.0172,0.016 0.0248,0.0248 0.62908,0.724632 1.22456,1.051612 1.78968,1.827608 0.57255,0.785296 1.11214,1.59884 1.61608,2.432364 0.44584,0.73742 0.84744,4.696816 1.2368,5.46878 0.0511,0.1014 0.11484,0.19488 0.16488,0.2968 l 0.008,0.0164 c 0.42777,0.8711 0.3962,-1.853988 0.74895,-0.943952 6.71637,-3.96176 13.3532,-8.764524 15.79057,-16.172052 z M 180,48 c -5.84538,2.519012 -12.9721,3.46286 -19.55886,4.246284 1.45964,3.629308 2.43604,10.499368 2.67284,12.501716 C 169.54358,60.241008 175.58768,54.41216 180,48 Z"
     style="fill:#085585;stroke-width:4" />
  <path
     inkscape:connector-curvature="0"
     id="path10"
     d="m 130.11765,28.000001 c -18.71271,0 -33.882354,15.169647 -33.882354,33.882351 3.766674,24.941488 -11.778616,53.947038 -27.537684,66.282228 -11.25666,8.6036 -25.446284,16.01076 -40.8557,16.01076 -2.654756,0 -5.26884,-0.1504 -7.841912,-0.44668 C 34.555927,152.83033 51.842544,156 70.418204,156 130.91649,156 164,106.1812 164,63.793204 c 0,-0.42942 -0.0272,-0.854192 -0.0328,-1.282168 0.0128,-0.20944 0.024,-0.419024 0.0328,-0.628684 -0.0192,-16.844368 -12.4099,-31.116658 -29.08456,-33.501836 -0.36068,-0.06563 -0.72807,-0.117892 -1.10018,-0.165444 -0.4075,-0.03772 -0.81566,-0.06806 -1.22427,-0.09099 C 132.05737,28.08596 131.55258,28 130.99449,28 c -0.14788,0 -0.29104,0.02292 -0.43842,0.0248 -0.14608,-0.0092 -0.29224,-0.01748 -0.43842,-0.0248 z"
     style="fill:#0391e9;stroke-width:4" />
  <path
     style="opacity:0.1;fill:#ffffff;stroke-width:4"
     d="M 130.11719 28 C 111.40448 28 96.234375 43.170108 96.234375 61.882812 C 96.244221 61.948021 96.247832 62.014519 96.255859 62.080078 C 96.683597 43.739332 111.67362 29 130.11719 29 C 130.26336 29.00732 130.40861 29.014238 130.55469 29.023438 C 130.70207 29.021558 130.84431 29 130.99219 29 C 131.55028 29 132.0601 29.08688 132.59375 29.125 C 133.00235 29.14794 133.405 29.18103 133.8125 29.21875 C 134.18461 29.266302 134.55338 29.317183 134.91406 29.382812 C 151.36318 31.73573 163.63671 45.65696 163.98438 62.203125 C 163.98963 62.096673 163.99549 61.990257 164 61.882812 C 163.9808 45.038444 151.58872 30.767991 134.91406 28.382812 C 134.55338 28.317183 134.18461 28.266302 133.8125 28.21875 C 133.405 28.18103 133.00235 28.14794 132.59375 28.125 C 132.0601 28.086878 131.55028 28 130.99219 28 C 130.84431 28 130.70207 28.021557 130.55469 28.023438 C 130.40861 28.014238 130.26336 28.00732 130.11719 28 z M 163.98438 63.181641 C 163.9791 63.29004 163.97543 63.398522 163.96875 63.507812 C 163.97152 63.719856 163.97733 63.93335 163.98438 64.146484 C 163.99097 64.029716 164 63.912407 164 63.796875 C 164 63.591919 163.99108 63.386975 163.98438 63.181641 z M 96.734375 72.015625 C 95.833395 94.254313 82.355156 117.47202 68.695312 128.16406 C 57.438653 136.76767 43.253166 144.17187 27.84375 144.17188 C 25.188994 144.17188 22.573071 144.02284 20 143.72656 C 20.665039 144.14241 21.338607 144.54201 22.017578 144.92773 C 23.937302 145.09012 25.879898 145.17188 27.84375 145.17188 C 43.253166 145.17187 57.438653 137.76767 68.695312 129.16406 C 82.355156 118.47202 95.833395 95.254313 96.734375 73.015625 C 96.748892 73.499476 96.74619 73.985276 96.748047 74.470703 C 96.75932 73.65049 96.758858 72.831634 96.734375 72.015625 z "
     id="path12" />
  <path
     inkscape:connector-curvature="0"
     id="path14"
     d="M 28.40625,40 C 25.573306,44.722016 24,52.254776 24,58.11444 24,69.207244 36.053676,78.5848 44.884808,84.317564 39.489914,84.151524 28.554333,82.30322 24.117188,79.90878 c -0.0038,0.13332 -0.0078,0.2636 -0.0078,0.39844 0,15.490708 20.778,31.56056 32.509808,35.78216 -11.731808,0 -19.952279,-4.21875 -24.173871,-4.21875 C 36.633792,124.5725 54.097516,135.74212 68.5,136 h 27.265624 c 0.25556,0 0.45848,-0.0526 0.695312,-0.0703 0.472116,0.0352 0.940836,0.0562 1.414064,0.0703 0.352,0 0.691072,-0.0433 1.039064,-0.0547 0.36164,0.0244 0.723672,0.0426 1.085936,0.0547 17.67311,0 32,-14.32689 32,-32 0,-17.673112 -14.32689,-32 -32,-32 -0.42996,0.0068 -0.859736,0.0224 -1.289064,0.04688 C 98.430324,72.039136 98.158192,72 97.875,72 61.991464,72 44.454332,58.267448 28.40625,40 Z"
     style="opacity:0.2;stroke-width:4;filter:url(#filter881)" />
  <path
     inkscape:connector-curvature="0"
     id="path16"
     d="M 28.40625,36 C 25.573306,40.722016 24,48.254776 24,54.11444 24,65.207244 36.053676,74.5848 44.884808,80.317564 39.489914,80.151524 28.554333,78.30322 24.117188,75.90878 c -0.0038,0.13332 -0.0078,0.2636 -0.0078,0.39844 0,15.490708 20.778,31.56056 32.509808,35.78216 -11.731808,0 -19.952279,-4.21875 -24.173871,-4.21875 C 36.633792,120.5725 54.097516,131.74212 68.5,132 h 27.265624 c 0.25556,0 0.45848,-0.0526 0.695312,-0.0703 0.472116,0.0352 0.940836,0.0562 1.414064,0.0703 0.352,0 0.691072,-0.0433 1.039064,-0.0547 0.36164,0.0244 0.723672,0.0426 1.085936,0.0547 17.67311,0 32,-14.32689 32,-32 0,-17.673112 -14.32689,-32 -32,-32 -0.42996,0.0068 -0.859736,0.0224 -1.289064,0.04688 C 98.430324,68.039136 98.158192,68 97.875,68 61.991464,68 44.454332,54.267448 28.40625,36 Z"
     style="fill:#3cbbff;stroke-width:4" />
  <circle
     id="circle18"
     r="8"
     cy="52"
     cx="140"
     style="fill:#085585;stroke-width:4" />
  <path
     style="fill:#ffffff;stroke-width:4;opacity:0.2"
     d="M 28.40625 36 C 25.573306 40.722016 24 48.25557 24 54.115234 C 24 54.277737 24.010499 54.437849 24.015625 54.599609 C 24.102271 48.817607 25.653825 41.587805 28.40625 37 C 44.454332 55.267448 61.991464 69 97.875 69 C 98.158192 69 98.430325 69.039131 98.710938 69.046875 C 99.140265 69.022395 99.57004 69.0068 100 69 C 117.5054 69 131.71993 83.058483 131.98828 100.5 C 131.99085 100.3329 132 100.16771 132 100 C 132 82.326888 117.67311 68 100 68 C 99.57004 68.0068 99.140265 68.022395 98.710938 68.046875 C 98.430325 68.039131 98.158192 68 97.875 68 C 61.991464 68 44.454332 54.267448 28.40625 36 z M 24.117188 75.908203 C 24.113388 76.041523 24.109375 76.171801 24.109375 76.306641 C 24.109375 76.509372 24.127715 76.713114 24.134766 76.916016 C 28.582086 79.306296 39.496307 81.152517 44.884766 81.318359 C 44.360388 80.977957 43.79781 80.582496 43.253906 80.216797 C 37.525344 79.798008 28.154049 78.086636 24.117188 75.908203 z M 32.445312 107.87109 C 32.55806 108.21301 32.684739 108.55307 32.816406 108.89258 C 37.136044 109.11341 45.212112 113.08984 56.619141 113.08984 C 55.794189 112.79299 54.91576 112.42337 54.011719 112.01367 C 43.667704 111.46605 36.345965 107.87109 32.445312 107.87109 z "
     id="path885" />
</svg>
