<?xml version="1.0" encoding="UTF-8" standalone="no"?>
<svg
   xmlns:dc="http://purl.org/dc/elements/1.1/"
   xmlns:cc="http://creativecommons.org/ns#"
   xmlns:rdf="http://www.w3.org/1999/02/22-rdf-syntax-ns#"
   xmlns:svg="http://www.w3.org/2000/svg"
   xmlns="http://www.w3.org/2000/svg"
   xmlns:sodipodi="http://sodipodi.sourceforge.net/DTD/sodipodi-0.dtd"
   xmlns:inkscape="http://www.inkscape.org/namespaces/inkscape"
   width="192"
   height="192"
   version="1"
   id="svg20"
   sodipodi:docname="apps_viber.svg"
   inkscape:version="0.92.3 (2405546, 2018-03-11)">
  <metadata
     id="metadata26">
    <rdf:RDF>
      <cc:Work
         rdf:about="">
        <dc:format>image/svg+xml</dc:format>
        <dc:type
           rdf:resource="http://purl.org/dc/dcmitype/StillImage" />
        <dc:title></dc:title>
      </cc:Work>
    </rdf:RDF>
  </metadata>
  <defs
     id="defs24">
    <filter
       inkscape:collect="always"
       style="color-interpolation-filters:sRGB"
       id="filter873"
       x="-0.046666667"
       width="1.0933333"
       y="-0.049411765"
       height="1.0988235">
      <feGaussianBlur
         inkscape:collect="always"
         stdDeviation="2.8"
         id="feGaussianBlur875" />
    </filter>
    <filter
       inkscape:collect="always"
       style="color-interpolation-filters:sRGB"
       id="filter889"
       x="-0.045818182"
       width="1.0916364"
       y="-0.0504"
       height="1.1008">
      <feGaussianBlur
         inkscape:collect="always"
         stdDeviation="0.84"
         id="feGaussianBlur891" />
    </filter>
    <filter
       inkscape:collect="always"
       style="color-interpolation-filters:sRGB"
       id="filter908"
       x="-0.047997352"
       width="1.0959947"
       y="-0.048002648"
       height="1.0960053">
      <feGaussianBlur
         inkscape:collect="always"
         stdDeviation="1.7600236"
         id="feGaussianBlur910" />
    </filter>
  </defs>
  <sodipodi:namedview
     pagecolor="#ffffff"
     bordercolor="#666666"
     borderopacity="1"
     objecttolerance="10"
     gridtolerance="10"
     guidetolerance="10"
     inkscape:pageopacity="0"
     inkscape:pageshadow="2"
     inkscape:window-width="1920"
     inkscape:window-height="1018"
     id="namedview22"
     showgrid="false"
     inkscape:zoom="1"
     inkscape:cx="24"
     inkscape:cy="84.836502"
     inkscape:window-x="0"
     inkscape:window-y="32"
     inkscape:window-maximized="1"
     inkscape:current-layer="svg20" />
  <path
     inkscape:connector-curvature="0"
     style="opacity:0.2;stroke-width:4;filter:url(#filter889)"
     d="m 60,142 h 44 l -44,40 z"
     id="path2" />
  <path
     inkscape:connector-curvature="0"
     style="fill:#694088;stroke-width:4"
     d="m 60,140 h 44 l -44,40 z"
     id="path4" />
  <rect
     style="opacity:0.2;stroke-width:4;filter:url(#filter873)"
     width="144"
     height="136"
     x="24"
     y="20"
     rx="50.916"
     ry="52.523998"
     id="rect6" />
  <rect
     style="fill:#924cc4;stroke-width:4"
     width="144"
     height="136"
     x="24"
     y="16"
     rx="50.916"
     ry="52.523998"
     id="rect8" />
  <path
     inkscape:connector-curvature="0"
     style="opacity:0.2;stroke-width:4;filter:url(#filter908)"
     d="m 107.556,39.999678 c -1.93256,0 -3.53632,1.543562 -3.55468,3.414082 -0.0112,1.879 1.59276,3.45912 3.53908,3.46876 8.3996,0.06308 15.306,2.71776 20.8752,7.9532 5.5036,5.1868 8.3724,12.3728 8.4452,21.75 v 0.008 c 0.02,1.86544 1.62488,3.40608 3.56248,3.40608 2e-4,0 0.0368,-0.0072 0.0392,-0.008 1.942,-0.018 3.55476,-1.5836 3.53908,-3.46096 v -0.008 c -0.0452,-5.4656 -0.93376,-10.4908 -2.672,-14.9136 -1.7592,-4.4684 -4.4332,-8.4224 -7.922,-11.7108 -6.89,-6.4796 -15.6912,-9.8268 -25.8204,-9.8984 h -0.0312 z M 71.478,48.08568 c -1.3552,-0.23036 -2.8232,0.0216 -4.2892,0.72656 H 67.0716 L 66.90752,48.906 c -2.71656,1.54416 -5.2632,3.61436 -7.6484,6.2108 l -0.18748,0.20312 v 0.18748 c -1.656,2.056 -2.748,4.124 -2.996,6.2 -0.08,0.352 -0.08,0.668 -0.08,1.008 0,0.94384 0.13872,1.90304 0.42968,2.84376 l 0.07812,0.26564 0.16408,0.09376 c 0.94212,3.23236 3.08,8.2628 7.758,16.7812 3.11568,5.646 6.2992,10.3624 9.4608,14.336 1.66556,2.0884 3.55232,4.2628 5.742,6.4532 0.026,0.026 0.11836,0.12032 0.21876,0.21092 0.0348,0.0348 0.08348,0.10692 0.20312,0.22656 l 0.21876,0.21876 h 0.0156 c 0.07708,0.0771 0.12908,0.13304 0.14064,0.14844 l 0.0392,0.0469 0.0392,0.0392 c 2.18976,2.16592 4.3496,4.064 6.4608,5.7188 3.96756,3.16204 8.6828,6.3708 14.328,9.492 8.528,4.7048 13.6052,6.8312 16.8204,7.758 l 0.1172,0.14064 0.19532,0.0703 c 0.9108,0.30364 1.85856,0.44384 2.79688,0.42968 0.38056,0.0208 0.71756,-0.006 1.03904,-0.0781 2.20192,-0.25744 4.382,-1.3 6.5392,-3.10936 l 0.0236,-0.0312 0.0236,-0.0156 c 0.0332,-0.0332 0.0136,-0.0172 0.0312,-0.0392 0.0192,-0.0172 0.0276,-0.0372 0.0469,-0.0547 2.553,-2.33004 4.6136,-4.8644 6.164,-7.578 l 0.10156,-0.17188 v -0.16408 c 1.42396,-2.96516 0.85996,-5.9924 -1.45312,-7.922 -0.0567,-0.0486 -1.16804,-0.9776 -2.54688,-2.10156 -1.41012,-1.14908 -3.08244,-2.49972 -4.2116,-3.32824 -2.13632,-1.58036 -5.4384,-3.6246 -7.3204,-4.672 h -0.008 c -3.615,-2.02452 -7.3924,-0.84796 -9.0548,1.30468 l -2.91408,3.64844 c -1.17524,1.4808 -3.5236,1.33956 -3.58592,1.33592 -19.7656,-5.0852 -25.0796,-24.96 -25.1172,-25.1016 -0.0035,-0.0622 -0.1456,-2.41472 1.33592,-3.60936 l 3.6328,-2.90624 c 2.1578,-1.65276 3.37096,-5.4296 1.33592,-9.0548 -1.0616,-1.87408 -3.11468,-5.2008 -4.672,-7.3204 h -0.008 C 79.76912,55.8948 78.4226,54.21256 77.2758,52.80108 76.7024,52.09536 76.18036,51.4494 75.79924,50.9886 c -0.19056,-0.23044 -0.3438,-0.41656 -0.45312,-0.54688 -0.05468,-0.06516 -0.10072,-0.111 -0.1328,-0.14844 -0.016,-0.0188 -0.0252,-0.0312 -0.0392,-0.04688 C 74.16736,49.05092 72.8842,48.32256 71.471,48.08232 Z m 36.2892,7.922 c -1.90612,-0.1344 -3.61884,1.29384 -3.7578,3.1328 -0.13912,1.841 1.346,3.48296 3.25,3.6172 4.7084,0.33276 7.8856,1.717 10.2736,4.242 v 0.008 c 2.43712,2.572 3.54604,5.5092 3.45312,9.5236 v 0.0156 c -0.0416,1.84712 1.50804,3.41248 3.42188,3.45296 h 0.0859 c 1.88588,0 3.45804,-1.48876 3.5,-3.31248 0.129,-5.5172 -1.66808,-10.4404 -5.2892,-14.258 -3.63768,-3.83656 -8.7912,-5.9852 -14.9376,-6.422 z"
     id="path10" />
  <path
     inkscape:connector-curvature="0"
     style="fill:#ffffff;stroke-width:4"
     d="m 107.556,35.999678 c -1.93256,0 -3.53632,1.54356 -3.55468,3.41408 -0.0112,1.879002 1.59276,3.459122 3.53908,3.468762 8.3996,0.06308 15.306,2.71776 20.8752,7.9532 5.5036,5.1868 8.3724,12.3728 8.4452,21.75 v 0.008 c 0.02,1.86544 1.62488,3.40608 3.56248,3.40608 2e-4,0 0.0368,-0.0072 0.0392,-0.008 1.942,-0.018 3.55476,-1.5836 3.53908,-3.46096 v -0.008 c -0.0452,-5.4656 -0.93376,-10.4908 -2.672,-14.9136 -1.7592,-4.4684 -4.4332,-8.4224 -7.922,-11.7108 -6.89,-6.479602 -15.6912,-9.826802 -25.8204,-9.898402 h -0.0312 z M 71.478,44.08568 c -1.3552,-0.23036 -2.8232,0.0216 -4.2892,0.72656 H 67.0716 L 66.90752,44.906 c -2.71656,1.54416 -5.2632,3.61436 -7.6484,6.2108 l -0.18748,0.20312 v 0.18748 c -1.65036,2.05756 -2.7412,4.1284 -2.9922,6.2032 -0.08008,0.3516 -0.07812,0.66856 -0.07812,1.00784 0,0.94384 0.13872,1.90304 0.42968,2.84376 l 0.07812,0.26564 0.16408,0.09376 c 0.94212,3.23236 3.08,8.2628 7.758,16.7812 3.11568,5.646 6.2992,10.3624 9.4608,14.336 1.66556,2.0884 3.55232,4.2628 5.742,6.4532 0.026,0.026 0.11836,0.12032 0.21876,0.21092 0.0348,0.0348 0.08348,0.10692 0.20312,0.22656 l 0.21876,0.21876 h 0.0156 c 0.07708,0.0771 0.12908,0.13304 0.14064,0.14844 l 0.0392,0.0469 0.0392,0.0392 c 2.18976,2.16592 4.3496,4.064 6.4608,5.7188 3.96756,3.16204 8.6828,6.3708 14.328,9.492 8.528,4.7048 13.6052,6.8312 16.8204,7.758 l 0.1172,0.14064 0.19532,0.0703 c 0.9108,0.30364 1.85856,0.44384 2.79688,0.42968 0.38056,0.0208 0.71756,-0.006 1.03904,-0.0781 2.20192,-0.25744 4.382,-1.3 6.5392,-3.10936 l 0.0236,-0.0312 0.0236,-0.0156 c 0.0332,-0.0332 0.0136,-0.0172 0.0312,-0.0392 0.0192,-0.0172 0.0276,-0.0372 0.0469,-0.0547 2.553,-2.33004 4.6136,-4.8644 6.164,-7.578 l 0.10156,-0.17188 v -0.16408 c 1.42396,-2.96516 0.85996,-5.9924 -1.45312,-7.922 -0.0567,-0.0486 -1.16804,-0.9776 -2.54688,-2.10156 -1.41012,-1.14908 -3.08244,-2.49972 -4.2116,-3.32824 -2.13632,-1.58036 -5.4384,-3.6246 -7.3204,-4.672 h -0.008 c -3.615,-2.02452 -7.3924,-0.84796 -9.0548,1.30468 l -2.91408,3.64844 c -1.17524,1.4808 -3.5236,1.33956 -3.58592,1.33592 -19.7656,-5.0852 -25.0796,-24.96 -25.1172,-25.1016 -0.0035,-0.0622 -0.1456,-2.41472 1.33592,-3.60936 l 3.6328,-2.90624 c 2.1578,-1.65276 3.37096,-5.4296 1.33592,-9.0548 -1.0616,-1.87408 -3.11468,-5.2008 -4.672,-7.3204 h -0.008 c -0.8348,-1.12508 -2.18132,-2.80732 -3.32812,-4.2188 -0.5734,-0.70572 -1.09544,-1.35168 -1.47656,-1.81248 -0.19056,-0.23044 -0.3438,-0.41656 -0.45312,-0.54688 -0.05468,-0.06516 -0.10072,-0.111 -0.1328,-0.14844 -0.016,-0.0188 -0.0252,-0.0312 -0.0392,-0.04688 C 74.17306,45.05396 72.8899,44.3256 71.4767,44.08536 Z m 36.2892,7.922 c -1.90612,-0.1344 -3.61884,1.29384 -3.7578,3.1328 -0.13912,1.841 1.346,3.48296 3.25,3.6172 4.7084,0.33276 7.8856,1.717 10.2736,4.242 v 0.008 c 2.43712,2.572 3.54604,5.5092 3.45312,9.5236 v 0.0156 c -0.0416,1.84712 1.50804,3.41248 3.42188,3.45296 h 0.0859 c 1.88588,0 3.45804,-1.48876 3.5,-3.31248 0.129,-5.5172 -1.66808,-10.4404 -5.2892,-14.258 -3.63768,-3.83656 -8.7912,-5.9852 -14.9376,-6.422 z"
     id="path12" />
  <path
     inkscape:connector-curvature="0"
     style="fill:#ffffff;stroke-width:4"
     d="m 75.184,46.25168 c -0.0068,-0.0076 -0.0144,-0.0136 -0.0284,-0.0284 -0.0068,-0.0072 -0.0372,-0.0372 -0.0376,-0.0376 l -0.06584,-0.04708 -0.1976,-0.10348 0.32928,0.2164 z"
     id="path14" />
  <path
     inkscape:connector-curvature="0"
     style="fill:#ffffff;stroke-width:4"
     d="m 59.18,51.23168 c -0.014,0.0208 -0.0204,0.08852 -0.0376,0.13172 -0.0136,0.0164 -0.0148,0.0308 -0.0284,0.04708 0.0164,-0.06556 0.0384,-0.13308 0.0376,-0.13172 -0.0018,0.0033 0.0512,-0.08148 0.0284,-0.04708 z"
     id="path16" />
  <path
     style="opacity:0.1;fill:#ffffff;stroke-width:4"
     d="M 74.914062 16 C 46.705539 16 24 39.425367 24 68.523438 L 24 69.523438 C 24 40.425368 46.705539 17 74.914062 17 L 117.08594 17 C 145.29446 17 168 40.425368 168 69.523438 L 168 68.523438 C 168 39.425367 145.29446 16 117.08594 16 L 74.914062 16 z "
     id="path18" />
</svg>
