<?xml version="1.0" encoding="UTF-8" standalone="no"?>
<svg
   xmlns:dc="http://purl.org/dc/elements/1.1/"
   xmlns:cc="http://creativecommons.org/ns#"
   xmlns:rdf="http://www.w3.org/1999/02/22-rdf-syntax-ns#"
   xmlns:svg="http://www.w3.org/2000/svg"
   xmlns="http://www.w3.org/2000/svg"
   xmlns:sodipodi="http://sodipodi.sourceforge.net/DTD/sodipodi-0.dtd"
   xmlns:inkscape="http://www.inkscape.org/namespaces/inkscape"
   width="192"
   height="192"
   version="1"
   id="svg12"
   sodipodi:docname="apps_track24.svg"
   inkscape:version="0.92.3 (2405546, 2018-03-11)">
  <metadata
     id="metadata18">
    <rdf:RDF>
      <cc:Work
         rdf:about="">
        <dc:format>image/svg+xml</dc:format>
        <dc:type
           rdf:resource="http://purl.org/dc/dcmitype/StillImage" />
        <dc:title />
      </cc:Work>
    </rdf:RDF>
  </metadata>
  <defs
     id="defs16">
    <filter
       inkscape:collect="always"
       style="color-interpolation-filters:sRGB"
       id="filter860"
       x="-0.048"
       width="1.096"
       y="-0.048"
       height="1.096">
      <feGaussianBlur
         inkscape:collect="always"
         stdDeviation="3.2"
         id="feGaussianBlur862" />
    </filter>
    <filter
       inkscape:collect="always"
       style="color-interpolation-filters:sRGB"
       id="filter856"
       x="-0.046315789"
       width="1.0926316"
       y="-0.049811321"
       height="1.0996226">
      <feGaussianBlur
         inkscape:collect="always"
         stdDeviation="2.2"
         id="feGaussianBlur858" />
    </filter>
  </defs>
  <sodipodi:namedview
     pagecolor="#ffffff"
     bordercolor="#666666"
     borderopacity="1"
     objecttolerance="10"
     gridtolerance="10"
     guidetolerance="10"
     inkscape:pageopacity="0"
     inkscape:pageshadow="2"
     inkscape:window-width="1920"
     inkscape:window-height="1018"
     id="namedview14"
     showgrid="false"
     inkscape:zoom="3.52"
     inkscape:cx="-1.6208973"
     inkscape:cy="63.040251"
     inkscape:window-x="0"
     inkscape:window-y="32"
     inkscape:window-maximized="1"
     inkscape:current-layer="svg12"
     showguides="false">
    <inkscape:grid
       type="xygrid"
       id="grid852" />
  </sodipodi:namedview>
  <rect
     style="opacity:0.2;stroke-width:4;filter:url(#filter860)"
     width="160"
     height="160"
     x="16"
     y="20"
     rx="8"
     ry="8"
     id="rect2" />
  <rect
     style="fill:#296dcc;fill-opacity:1;stroke-width:4"
     width="160"
     height="160"
     x="16"
     y="16"
     rx="8"
     ry="8"
     id="rect4" />
  <path
     style="opacity:0.2;fill:#000000;fill-opacity:1;stroke:none;stroke-width:10.20582485;stroke-linecap:round;stroke-linejoin:round;stroke-miterlimit:4;stroke-dasharray:none;stroke-opacity:1;filter:url(#filter856)"
     d="M 72.964844,46 C 60.274418,46 53.733132,52.121297 53.341797,66 H 60 c 0.559049,-9.534556 5.277531,-14 12.712891,-14 3.354297,0 6.650519,1.588557 8.886718,3.732422 2.236199,2.143865 3.353516,4.823265 3.353516,8.039062 0,4.795487 -3.183905,8.744695 -8.550781,11.847657 L 68.6875,80.019531 C 62.482049,83.573831 58.233509,87.156858 55.941406,90.767578 53.649302,94.321878 52.335429,99.39915 52,106 H 92 V 98 H 60.302734 c 0.391335,-2.53879 1.368255,-4.101111 2.933594,-5.962891 1.565338,-1.86177 4.165005,-3.781249 7.798828,-5.755859 l 8.386719,-4.568359 C 87.80762,77.086659 92,71.048671 92,63.601562 92,58.411155 90.23881,54.180418 86.716797,50.908203 83.194784,47.635989 78.611245,46 72.964844,46 Z M 125.48828,46 98,83.744141 V 92 h 26 v 14 h 8 V 92 h 8 v -8 h -8 V 46 Z M 124,59.09375 V 84 H 104.57227 Z M 39,122 v 30 h 2 v -30 z m 4,0 v 30 h 4 v -30 z m 6,0 v 30 h 2 v -30 z m 4,0 v 30 h 2 v -30 z m 4,0 v 30 h 2 v -30 z m 4,0 v 30 h 4 v -30 z m 6,0 v 30 h 4 v -30 z m 6,0 v 30 h 2 v -30 z m 4,0 v 30 h 2 v -30 z m 4,0 v 30 h 4 v -30 z m 6,0 v 30 h 2 v -30 z m 4,0 v 30 h 2 v -30 z m 4,0 v 30 h 2 v -30 z m 4,0 v 30 h 2 v -30 z m 4,0 v 30 h 4 v -30 z m 6,0 v 30 h 4 v -30 z m 6,0 v 30 h 2 v -30 z m 4,0 v 30 h 2 v -30 z m 4,0 v 30 h 2 v -30 z m 4,0 v 30 h 4 v -30 z m 6,0 v 30 h 2 v -30 z m 4,0 v 30 h 2 v -30 z m 4,0 v 30 h 4 v -30 z m 6,0 v 30 h 2 v -30 z m 4,0 v 30 h 2 v -30 z"
     id="path839"
     inkscape:connector-curvature="0" />
  <path
     inkscape:connector-curvature="0"
     style="opacity:0.2;fill:#ffffff;stroke-width:4"
     d="m 24,16 c -4.432,0 -8,3.568 -8,8 v 1 c 0,-4.432 3.568,-8 8,-8 h 144 c 4.432,0 8,3.568 8,8 v -1 c 0,-4.432 -3.568,-8 -8,-8 z"
     id="path6" />
  <path
     style="opacity:1;fill:#ffffff;fill-opacity:1;stroke:none;stroke-width:10.20582485;stroke-linecap:round;stroke-linejoin:round;stroke-miterlimit:4;stroke-dasharray:none;stroke-opacity:1"
     d="m 39,120 v 30 h 2 v -30 z m 4,0 v 30 h 4 v -30 z m 6,0 v 30 h 2 v -30 z m 4,0 v 30 h 2 v -30 z m 4,0 v 30 h 2 v -30 z m 4,0 v 30 h 4 v -30 z m 6,0 v 30 h 4 v -30 z m 6,0 v 30 h 2 v -30 z m 4,0 v 30 h 2 v -30 z m 4,0 v 30 h 4 v -30 z m 6,0 v 30 h 2 v -30 z m 4,0 v 30 h 2 v -30 z m 4,0 v 30 h 2 v -30 z m 4,0 v 30 h 2 v -30 z m 4,0 v 30 h 4 v -30 z m 6,0 v 30 h 4 v -30 z m 6,0 v 30 h 2 v -30 z m 4,0 v 30 h 2 v -30 z m 4,0 v 30 h 2 v -30 z m 4,0 v 30 h 4 v -30 z m 6,0 v 30 h 2 v -30 z m 4,0 v 30 h 2 v -30 z m 4,0 v 30 h 4 v -30 z m 6,0 v 30 h 2 v -30 z m 4,0 v 30 h 2 v -30 z"
     id="rect840"
     inkscape:connector-curvature="0" />
  <path
     inkscape:connector-curvature="0"
     style="font-style:normal;font-variant:normal;font-weight:normal;font-stretch:normal;font-size:medium;line-height:1.25;font-family:FreeSans;-inkscape-font-specification:FreeSans;letter-spacing:0px;word-spacing:0px;fill:#ffffff;fill-opacity:1;stroke:none;stroke-width:2.10602403"
     d="M 72.964845,44 C 60.274419,44 53.733133,50.121297 53.341798,64 h 6.658203 c 0.559049,-9.534556 5.277531,-14 12.712891,-14 3.354297,0 6.650519,1.588557 8.886718,3.732422 2.236199,2.143865 3.353516,4.823265 3.353516,8.039062 0,4.795487 -3.183905,8.744695 -8.550781,11.847657 L 68.687501,78.01953 C 62.48205,81.57383 58.23351,85.15686 55.941407,88.76758 53.649303,92.32188 52.33543,97.39915 52.000001,104 h 40 V 96 H 60.302735 c 0.391335,-2.53879 1.368255,-4.10111 2.933594,-5.96289 1.565338,-1.86177 4.165005,-3.78125 7.798828,-5.75586 l 8.386719,-4.56836 c 8.385745,-4.626232 12.578125,-10.664219 12.578125,-18.111328 0,-5.190408 -1.76119,-9.421144 -5.283203,-12.693359 C 83.194785,45.635989 78.611246,44 72.964845,44 Z M 125.48828,44 98.000001,81.74414 V 90 H 124 v 14 h 8 V 90 h 8 v -8 h -8 V 44 Z M 124,57.09375 V 82 h -19.42773 z"
     id="path829" />
</svg>
