<?xml version="1.0" encoding="UTF-8" standalone="no"?>
<svg
   xmlns:dc="http://purl.org/dc/elements/1.1/"
   xmlns:cc="http://creativecommons.org/ns#"
   xmlns:rdf="http://www.w3.org/1999/02/22-rdf-syntax-ns#"
   xmlns:svg="http://www.w3.org/2000/svg"
   xmlns="http://www.w3.org/2000/svg"
   xmlns:sodipodi="http://sodipodi.sourceforge.net/DTD/sodipodi-0.dtd"
   xmlns:inkscape="http://www.inkscape.org/namespaces/inkscape"
   width="192"
   height="192"
   version="1.1"
   id="svg16"
   sodipodi:docname="apps_ethereum_wallet.svg"
   inkscape:version="0.92.3 (2405546, 2018-03-11)">
  <metadata
     id="metadata22">
    <rdf:RDF>
      <cc:Work
         rdf:about="">
        <dc:format>image/svg+xml</dc:format>
        <dc:type
           rdf:resource="http://purl.org/dc/dcmitype/StillImage" />
        <dc:title></dc:title>
      </cc:Work>
    </rdf:RDF>
  </metadata>
  <defs
     id="defs20">
    <filter
       inkscape:collect="always"
       style="color-interpolation-filters:sRGB"
       id="filter863"
       x="-0.048"
       width="1.096"
       y="-0.048"
       height="1.096">
      <feGaussianBlur
         inkscape:collect="always"
         stdDeviation="3.2"
         id="feGaussianBlur865" />
    </filter>
    <filter
       inkscape:collect="always"
       style="color-interpolation-filters:sRGB"
       id="filter880"
       x="-0.0624"
       width="1.1248"
       y="-0.039"
       height="1.078">
      <feGaussianBlur
         inkscape:collect="always"
         stdDeviation="2.08"
         id="feGaussianBlur882" />
    </filter>
  </defs>
  <sodipodi:namedview
     pagecolor="#ffffff"
     bordercolor="#666666"
     borderopacity="1"
     objecttolerance="10"
     gridtolerance="10"
     guidetolerance="10"
     inkscape:pageopacity="0"
     inkscape:pageshadow="2"
     inkscape:window-width="1920"
     inkscape:window-height="1018"
     id="namedview18"
     showgrid="false"
     inkscape:zoom="2.45"
     inkscape:cx="24"
     inkscape:cy="72.979592"
     inkscape:window-x="0"
     inkscape:window-y="32"
     inkscape:window-maximized="1"
     inkscape:current-layer="svg16" />
  <path
     id="path845"
     d="M 96,20 A 80,80 0 0 0 16,100 80,80 0 0 0 96,180 80,80 0 0 0 176,100 80,80 0 0 0 96,20 Z"
     style="opacity:0.2;fill:#000000;stroke-width:4;filter:url(#filter863)"
     inkscape:connector-curvature="0" />
  <path
     inkscape:connector-curvature="0"
     style="fill:#4c6a8f;stroke-width:4"
     d="M 96,16 A 80,80 0 0 0 16,96 80,80 0 0 0 96,176 80,80 0 0 0 176,96 80,80 0 0 0 96,16 Z"
     id="path2" />
  <path
     style="opacity:0.2;fill:#ffffff;stroke-width:4"
     d="M 95.998047 16 A 80 80 0 0 0 16 96 A 80 80 0 0 0 16.021484 96.408203 A 80 80 0 0 1 95.998047 17 L 96 17 A 80 80 0 0 1 175.97656 96.582031 A 80 80 0 0 0 175.99805 96 A 80 80 0 0 0 96 16 L 95.998047 16 z "
     id="path6" />
  <path
     style="opacity:0.2;stroke-width:4;filter:url(#filter880)"
     d="M 96,34 76,66 56,98 96,122 136,98 116,66 Z m -40,72 20,28 20,28 20,-28 20,-28 -40,24 z"
     id="path8"
     inkscape:connector-curvature="0" />
  <path
     inkscape:connector-curvature="0"
     style="fill:#ffffff;stroke-width:4"
     d="M 96,32 116,64 136,96 96,120 56,96 76,64 Z"
     id="path10" />
  <path
     inkscape:connector-curvature="0"
     style="fill:#ffffff;stroke-width:4"
     d="m 96,160 20,-28 20,-28 -40,24 -40,-24 20,28 z"
     id="path14" />
</svg>
