<?xml version="1.0" encoding="UTF-8" standalone="no"?>
<svg
   xmlns:dc="http://purl.org/dc/elements/1.1/"
   xmlns:cc="http://creativecommons.org/ns#"
   xmlns:rdf="http://www.w3.org/1999/02/22-rdf-syntax-ns#"
   xmlns:svg="http://www.w3.org/2000/svg"
   xmlns="http://www.w3.org/2000/svg"
   xmlns:sodipodi="http://sodipodi.sourceforge.net/DTD/sodipodi-0.dtd"
   xmlns:inkscape="http://www.inkscape.org/namespaces/inkscape"
   width="192"
   height="192"
   version="1.1"
   id="svg16"
   sodipodi:docname="apps_locker.svg"
   inkscape:version="0.92.3 (2405546, 2018-03-11)">
  <metadata
     id="metadata22">
    <rdf:RDF>
      <cc:Work
         rdf:about="">
        <dc:format>image/svg+xml</dc:format>
        <dc:type
           rdf:resource="http://purl.org/dc/dcmitype/StillImage" />
      </cc:Work>
    </rdf:RDF>
  </metadata>
  <defs
     id="defs20">
    <filter
       inkscape:collect="always"
       style="color-interpolation-filters:sRGB"
       id="filter856"
       x="-0.048"
       width="1.096"
       y="-0.048"
       height="1.096">
      <feGaussianBlur
         inkscape:collect="always"
         stdDeviation="3.2"
         id="feGaussianBlur858" />
    </filter>
    <filter
       inkscape:collect="always"
       style="color-interpolation-filters:sRGB"
       id="filter875"
       x="-0.048"
       width="1.096"
       y="-0.048"
       height="1.096">
      <feGaussianBlur
         inkscape:collect="always"
         stdDeviation="1.92"
         id="feGaussianBlur877" />
    </filter>
  </defs>
  <sodipodi:namedview
     pagecolor="#ffffff"
     bordercolor="#666666"
     borderopacity="1"
     objecttolerance="10"
     gridtolerance="10"
     guidetolerance="10"
     inkscape:pageopacity="0"
     inkscape:pageshadow="2"
     inkscape:window-width="1920"
     inkscape:window-height="1018"
     id="namedview18"
     showgrid="false"
     inkscape:zoom="1"
     inkscape:cx="96"
     inkscape:cy="96"
     inkscape:window-x="0"
     inkscape:window-y="32"
     inkscape:window-maximized="1"
     inkscape:current-layer="svg16" />
  <circle
     style="opacity:0.2;stroke-width:4;filter:url(#filter856)"
     cx="96"
     cy="100"
     r="80"
     id="circle2" />
  <circle
     style="fill:#0b96d2;stroke-width:4"
     cx="96"
     cy="96"
     r="80"
     id="circle4" />
  <path
     style="opacity:0.2;fill:#ffffff;fill-rule:evenodd;stroke-width:4"
     d="M 96 16 A 80 80 0 0 0 16 96 A 80 80 0 0 0 16.017578 96.513672 A 80 80 0 0 1 96 17 A 80 80 0 0 1 175.76562 92.320312 A 80 80 0 0 1 175.79102 92.832031 A 80 80 0 0 1 175.97656 96.517578 A 80 80 0 0 0 176 96 A 80 80 0 0 0 96 16 z "
     id="path6" />
  <path
     style="opacity:0.2;stroke-width:4;filter:url(#filter875)"
     d="m 80,50 c -6.648,0 -12,5.352 -12,12 v 28 h 8 V 62 h 44 v 72 H 76 v -28 h -8 v 28 c 0,6.648 5.352,12 12,12 h 36 c 6.648,0 12,-5.352 12,-12 V 62 c 0,-6.648 -5.352,-12 -12,-12 z M 48,82 A 16,16 0 0 0 32,98 16,16 0 0 0 48,114 16,16 0 0 0 63.476564,102 H 64 68 80 v 8 h 8 v -8 h 4 V 94 H 68 64 63.468752 A 16,16 0 0 0 48,82 Z m 0,8 a 8,8 0 0 1 8,8 8,8 0 0 1 -8,8 8,8 0 0 1 -8,-8 8,8 0 0 1 8,-8 z"
     id="path8"
     inkscape:connector-curvature="0" />
  <path
     style="fill:#ffffff;stroke-width:4"
     d="m 80,48 c -6.648,0 -12,5.352 -12,12 v 28 h 8 V 60 h 44 v 72 H 76 v -28 h -8 v 28 c 0,6.648 5.352,12 12,12 h 36 c 6.648,0 12,-5.352 12,-12 V 60 c 0,-6.648 -5.352,-12 -12,-12 z M 48,80 A 16,16 0 0 0 32,96 16,16 0 0 0 48,112 16,16 0 0 0 63.476564,100 H 64 68 80 v 8 h 8 v -8 h 4 V 92 H 68 64 63.468752 A 16,16 0 0 0 48,80 Z m 0,8 a 8,8 0 0 1 8,8 8,8 0 0 1 -8,8 8,8 0 0 1 -8,-8 8,8 0 0 1 8,-8 z"
     id="path10"
     inkscape:connector-curvature="0" />
</svg>
