<?xml version="1.0" encoding="UTF-8" standalone="no"?>
<svg
   xmlns:dc="http://purl.org/dc/elements/1.1/"
   xmlns:cc="http://creativecommons.org/ns#"
   xmlns:rdf="http://www.w3.org/1999/02/22-rdf-syntax-ns#"
   xmlns:svg="http://www.w3.org/2000/svg"
   xmlns="http://www.w3.org/2000/svg"
   xmlns:sodipodi="http://sodipodi.sourceforge.net/DTD/sodipodi-0.dtd"
   xmlns:inkscape="http://www.inkscape.org/namespaces/inkscape"
   width="192"
   height="192"
   version="1"
   id="svg14"
   sodipodi:docname="apps_browser_brave.svg"
   inkscape:version="0.92.3 (2405546, 2018-03-11)">
  <metadata
     id="metadata20">
    <rdf:RDF>
      <cc:Work
         rdf:about="">
        <dc:format>image/svg+xml</dc:format>
        <dc:type
           rdf:resource="http://purl.org/dc/dcmitype/StillImage" />
      </cc:Work>
    </rdf:RDF>
  </metadata>
  <defs
     id="defs18">
    <filter
       inkscape:collect="always"
       style="color-interpolation-filters:sRGB"
       id="filter852"
       x="-0.052198479"
       width="1.104397"
       y="-0.044426633"
       height="1.0888533">
      <feGaussianBlur
         inkscape:collect="always"
         stdDeviation="2.9617754"
         id="feGaussianBlur854" />
    </filter>
    <filter
       inkscape:collect="always"
       style="color-interpolation-filters:sRGB"
       id="filter880"
       x="-0.048000198"
       width="1.0960004"
       y="-0.047999802"
       height="1.0959996">
      <feGaussianBlur
         inkscape:collect="always"
         stdDeviation="2.0800478"
         id="feGaussianBlur882" />
    </filter>
  </defs>
  <sodipodi:namedview
     pagecolor="#ffffff"
     bordercolor="#666666"
     borderopacity="1"
     objecttolerance="10"
     gridtolerance="10"
     guidetolerance="10"
     inkscape:pageopacity="0"
     inkscape:pageshadow="2"
     inkscape:window-width="1920"
     inkscape:window-height="1018"
     id="namedview16"
     showgrid="false"
     inkscape:zoom="1"
     inkscape:cx="96"
     inkscape:cy="96"
     inkscape:window-x="0"
     inkscape:window-y="32"
     inkscape:window-maximized="1"
     inkscape:current-layer="svg14" />
  <path
     inkscape:connector-curvature="0"
     id="path2"
     d="M 91.715892,178.81253 C 88.830008,177.21917 74.622504,167.70209 63.28586,159.76825 53.134456,152.66393 49.762392,149.37285 47.395792,144.25993 45.814616,140.84389 27.999994,74.270088 27.999994,71.777248 c 0,-0.63788 1.021288,-3.92488 2.26952,-7.3044 l 2.269528,-6.14464 -2.898608,-3.76276 c -1.818488,-4.028148 -2.337499,-5.304752 -0.176868,-7.951804 5.568729,-5.43456 13.272618,-13.631492 20.250546,-14.61364 2.731104,-0.31382 4.832572,4.502331 7.672768,4 C 64.499472,34.742035 66.656868,25.795933 72,20.000008 h 48 c 4.55094,5.126276 8.26196,14.63451 15.57972,15.999996 3.14588,0.587016 5.74379,-4.595643 8.72754,-4 7.57242,3.672294 12.56379,8.429728 17.94744,14.038788 3.07056,2.611076 1.77952,4.751916 0.78661,7.718376 -0.95892,2.19448 -3.74475,4.26008 -3.74475,4.59028 0,0.33 1.05824,3.44752 2.35168,6.92744 l 2.35176,6.3272 -6.6936,25.65776 c -11.18996,42.893202 -11.58184,44.307002 -13.13552,47.391282 -3.29827,6.54756 -5.96828,8.72108 -32.81839,26.71612 -13.781598,9.23648 -15.329474,9.82336 -19.636598,7.44528 z"
     style="opacity:0.2;stroke-width:4;filter:url(#filter852)" />
  <path
     inkscape:connector-curvature="0"
     id="path4"
     d="M 91.715892,174.81252 C 88.830008,173.21916 74.622504,163.70208 63.28586,155.76824 53.134456,148.66392 49.762392,145.37284 47.395792,140.25992 45.814616,136.84388 27.999994,70.270084 27.999994,67.777244 c 0,-0.63788 1.021288,-3.92488 2.26952,-7.3044 l 2.269528,-6.14464 -2.898608,-3.76276 C 27.821946,46.537296 27.302935,45.260692 29.463566,42.61364 35.032294,37.179079 42.736184,28.982148 49.714112,28 52.445216,27.68618 54.546684,32.502331 57.38688,32 64.499472,30.742031 66.656868,21.795929 72,16.000004 h 48 c 4.55094,5.126276 8.26196,14.63451 15.57972,15.999996 3.14588,0.587016 5.74379,-4.595643 8.72754,-4 7.57242,3.672294 12.56379,8.429729 17.94744,14.038788 3.07056,2.611076 1.77952,4.751916 0.78661,7.718376 -0.95892,2.19448 -3.74475,4.26008 -3.74475,4.59028 0,0.33 1.05824,3.44752 2.35168,6.92744 l 2.35176,6.3272 -6.6936,25.65776 c -11.18996,42.893196 -11.58184,44.306996 -13.13552,47.391276 -3.29827,6.54756 -5.96828,8.72108 -32.81839,26.71612 -13.781598,9.23648 -15.329474,9.82336 -19.636598,7.44528 z"
     style="fill:#f4592b;stroke-width:4" />
  <path
     inkscape:connector-curvature="0"
     id="path6"
     d="m 96.820312,44.015624 c -2.699112,-0.1494 -5.485924,0.60318 -11.242188,2.468752 l -6.734372,2.179688 c -5.228456,-1.013716 -10.459096,-3.61414 -15.695316,-4.58594 -1.292388,-0.21692 -2.043268,2.049544 -5.828124,6.820312 -2.387452,3.00934 -6.357968,8.574452 -8.828124,12.367188 C 44.383444,69.574292 44,70.41348 44,73.0625 c 0,3.236784 -0.09256,3.11878 13.984376,18.6875 3.789632,4.191252 5.863692,6.266272 6.015624,8.007812 0.12872,1.475438 -1.31912,2.710038 -2.226564,4.781248 -2.617644,5.9747 -2.395056,9.55892 0.851564,13.96875 1.937028,2.63105 7.186996,5.49219 8.742188,5.49219 6.623056,-1.68092 11.782596,-6.49897 15.710936,-10.27344 4.494708,-4.25848 5.397388,-5.55292 4.867188,-6.98437 -0.19284,-0.52061 -4.133732,-3.59092 -8.757812,-6.820314 -7.535004,-5.262336 -6.406252,-6.03828 -6.406252,-7.531252 0,-0.916228 1.525592,-4.680608 3.390628,-8.359376 1.865044,-3.678768 3.78906,-7.24724 3.78906,-7.937496 0,-2.817968 -2.726064,-5.878376 -12.4375,-9.679688 C 66.394572,64.406484 61.441696,62.132996 61,61.843752 c -1.310316,-0.85814 0.777012,-1.35158 7.757812,-1.820316 5.829632,-0.39132 6.738416,-0.29888 12.109376,1.203128 3.19286,0.893028 6.245088,3.217108 6.78906,3.703124 1.354796,1.21046 0.08472,2.753864 -2.22656,16.078124 -2.376908,13.70248 -2.63856,12.88178 4.695312,14.523436 4.162552,0.931756 6.7837,0.936996 10.95312,0.05468 4.68708,-0.9918 7.02344,-2.127036 7.02344,-3.406248 0,-0.416896 -0.48651,-5.74688 -1.57031,-11.843752 -1.08381,-6.096912 -2.77712,-12.164324 -2.78125,-13 -0.0112,-2.223092 0.94929,-4.332436 6.9375,-6.117184 5.03633,-1.501056 5.82216,-1.581136 12.69531,-1.234376 6.65102,0.33536 9.02854,0.882812 8.08594,1.859376 -0.18768,0.19444 -4.62027,2.408108 -9.85156,4.437496 -5.38947,2.090748 -10.98653,5.523484 -11.86719,6.351564 -2.38598,2.24352 -2.07087,4.289676 1.83594,11.890624 1.86504,3.628568 4.1875,7.09846 4.1875,7.71094 0,1.496932 0.24652,2.691344 -7.72656,8.187502 -7.95448,5.48329 -8.588808,6.12433 -7.86719,8.07031 0.82332,2.22015 8.57829,9.2584 13.35937,11.83594 8.64858,4.6626 9.64833,4.72952 13.875,0.77344 4.84574,-4.53548 5.8546,-9.89337 3.17188,-16 C 129.76843,103.24068 128,101.05557 128,100.25 c 0,-1.04678 1.29719,-3.309608 5.4375,-7.929688 15.45336,-17.244076 14.55469,-16.052588 14.55469,-19.218748 0,-2.550532 -0.41542,-3.509084 -3.85938,-8.914064 C 140.32669,58.214156 131.99913,45.698648 130.5,44.25 c -5.87132,0.44538 -11.03425,3.339296 -16.72656,4.007812 -2.45492,-0.09672 -5.02858,-0.988928 -11.5625,-3.046876 -2.18303,-0.687572 -3.77116,-1.105664 -5.390628,-1.195312 z M 95.992188,120 c -0.76018,0.004 -1.534436,0.28024 -3.031252,0.82812 -4.741276,1.73668 -16.762604,8.55146 -16.953124,9.60938 -0.1094,0.60762 1.074168,1.8875 3.382812,3.66406 1.953908,1.50356 5.686156,4.66983 8.296876,7.03125 4.618768,4.17777 7.833784,6.86719 8.203124,6.86719 0.10004,0 0.70068,-0.29856 1.33594,-0.66406 0.63526,-0.36544 3.063946,-2.49178 5.390626,-4.72656 2.32668,-2.23482 6.32263,-5.69653 8.88281,-7.69532 3.08434,-2.40803 4.5983,-3.95465 4.49219,-4.57812 -0.17596,-1.03384 -12.16145,-7.74416 -17.039066,-9.53906 -1.45148,-0.53414 -2.200756,-0.80044 -2.960936,-0.79688 z"
     style="opacity:0.2;fill:#000000;stroke-width:4;filter:url(#filter880)" />
  <path
     inkscape:connector-curvature="0"
     id="path8"
     d="m 96.820312,40.015624 c -2.699112,-0.149412 -5.485924,0.60318 -11.242188,2.468752 l -6.734372,2.179688 c -5.228456,-1.013716 -10.459096,-3.61414 -15.695316,-4.58594 -1.292388,-0.216916 -2.043268,2.049544 -5.828124,6.820312 -2.387452,3.00934 -6.357968,8.574452 -8.828124,12.367188 C 44.383444,65.574292 44,66.41348 44,69.0625 c 0,3.236784 -0.09256,3.11878 13.984376,18.6875 3.789632,4.191252 5.863692,6.266272 6.015624,8.007812 0.12872,1.475436 -1.31912,2.710036 -2.226564,4.781248 -2.617644,5.9747 -2.395056,9.55892 0.851564,13.96875 1.937028,2.63105 7.186996,5.49219 8.742188,5.49219 6.623056,-1.68092 11.782596,-6.49897 15.710936,-10.27344 4.494708,-4.25848 5.397388,-5.55292 4.867188,-6.98437 -0.19284,-0.52061 -4.133732,-3.590918 -8.757812,-6.820314 -7.535004,-5.262336 -6.406252,-6.03828 -6.406252,-7.531252 0,-0.916228 1.525592,-4.680608 3.390628,-8.359376 1.865044,-3.678768 3.78906,-7.24724 3.78906,-7.937496 0,-2.817968 -2.726064,-5.878376 -12.4375,-9.679688 C 66.394572,60.406484 61.441696,58.132996 61,57.843752 c -1.310316,-0.85814 0.777012,-1.35158 7.757812,-1.820316 5.829632,-0.39132 6.738416,-0.29888 12.109376,1.203128 3.19286,0.893028 6.245088,3.217108 6.78906,3.703124 1.354796,1.21046 0.08472,2.753864 -2.22656,16.078124 -2.376908,13.70248 -2.63856,12.88178 4.695312,14.523436 4.162552,0.931756 6.7837,0.936996 10.95312,0.05468 4.68708,-0.9918 7.02344,-2.127036 7.02344,-3.406248 0,-0.416896 -0.48651,-5.74688 -1.57031,-11.843752 -1.08381,-6.096912 -2.77712,-12.164324 -2.78125,-13 -0.0112,-2.223092 0.94929,-4.332436 6.9375,-6.117184 5.03633,-1.501056 5.82216,-1.581136 12.69531,-1.234376 6.65102,0.33536 9.02854,0.882812 8.08594,1.859376 -0.18768,0.19444 -4.62027,2.408108 -9.85156,4.437496 -5.38947,2.090748 -10.98653,5.523484 -11.86719,6.351564 -2.38598,2.24352 -2.07087,4.289676 1.83594,11.890624 1.86504,3.628568 4.1875,7.09846 4.1875,7.71094 0,1.496932 0.24652,2.691344 -7.72656,8.1875 -7.95448,5.483292 -8.588808,6.124332 -7.86719,8.070312 0.82332,2.22015 8.57829,9.2584 13.35937,11.83594 8.64858,4.6626 9.64833,4.72952 13.875,0.77344 4.84574,-4.53548 5.8546,-9.89337 3.17188,-16 C 129.76843,99.240676 128,97.055572 128,96.25 c 0,-1.04678 1.29719,-3.309608 5.4375,-7.929688 15.45336,-17.244076 14.55469,-16.052588 14.55469,-19.218748 0,-2.550532 -0.41542,-3.509084 -3.85938,-8.914064 C 140.32669,54.214156 131.99913,41.698648 130.5,40.25 c -5.87132,0.44538 -11.03425,3.339296 -16.72656,4.007812 -2.45492,-0.09672 -5.02858,-0.988928 -11.5625,-3.046876 -2.18303,-0.687572 -3.77116,-1.105664 -5.390628,-1.195312 z M 95.992188,116 c -0.76018,0.004 -1.534436,0.28024 -3.031252,0.82812 -4.741276,1.73668 -16.762604,8.55146 -16.953124,9.60938 -0.1094,0.60762 1.074168,1.8875 3.382812,3.66406 1.953908,1.50356 5.686156,4.66983 8.296876,7.03125 4.618768,4.17777 7.833784,6.86719 8.203124,6.86719 0.10004,0 0.70068,-0.29856 1.33594,-0.66406 0.63526,-0.36544 3.063946,-2.49178 5.390626,-4.72656 2.32668,-2.23482 6.32263,-5.69653 8.88281,-7.69532 3.08434,-2.40803 4.5983,-3.95465 4.49219,-4.57812 -0.17596,-1.03384 -12.16145,-7.74416 -17.039066,-9.53906 -1.45148,-0.53414 -2.200756,-0.80044 -2.960936,-0.79688 z"
     style="fill:#ffffff;stroke-width:4" />
  <path
     style="opacity:0.2;fill:#ffffff;stroke-width:4"
     d="M 72 16 C 66.656868 21.795925 64.503217 30.742031 57.390625 32 C 54.550429 32.502331 52.442042 27.68618 49.710938 28 C 42.73301 28.982148 35.029666 37.182627 29.460938 42.617188 C 28.329239 44.003663 27.946654 45.019558 28.087891 46.246094 C 28.214034 45.417389 28.646639 44.614807 29.460938 43.617188 C 35.029666 38.182626 42.73301 29.982148 49.710938 29 C 52.442042 28.68618 54.550429 33.502331 57.390625 33 C 64.503217 31.742031 66.656868 22.795925 72 17 L 95.859375 17 L 120 17 C 124.55094 22.126276 128.26037 31.634514 135.57812 33 C 138.72401 33.587016 141.32094 28.404357 144.30469 29 C 151.87711 32.672294 156.87416 37.430003 162.25781 43.039062 C 163.4864 44.083796 164.00409 45.055353 164.13086 46.033203 C 164.27716 44.70441 163.90267 43.437776 162.25781 42.039062 C 156.87416 36.430003 151.87711 31.672294 144.30469 28 C 141.32094 27.404357 138.724 32.587016 135.57812 32 C 128.26036 30.634514 124.55094 21.126276 120 16 L 95.859375 16 L 72 16 z M 31.539062 57.03125 L 30.265625 60.476562 C 29.017393 63.856082 28 67.135558 28 67.773438 C 28 67.828557 28.055569 68.086612 28.09375 68.28125 C 28.314727 67.161221 29.181912 64.410656 30.265625 61.476562 L 31.539062 58.03125 L 32.289062 59.003906 L 32.539062 58.328125 L 31.539062 57.03125 z M 160.29688 57.289062 C 159.85498 57.71913 159.29688 58.234646 159.29688 58.34375 C 159.29688 58.426969 159.36494 58.690766 159.48633 59.089844 C 159.68662 58.873185 160.00983 58.568427 160.29688 58.289062 C 160.72861 59.589327 160.90478 60.272661 161.64844 62.273438 L 163.84766 68.191406 L 164 67.601562 L 161.64844 61.273438 C 160.90478 59.272661 160.72861 58.589326 160.29688 57.289062 z "
     id="path10" />
</svg>
