<?xml version="1.0" encoding="UTF-8" standalone="no"?>
<svg
   xmlns:dc="http://purl.org/dc/elements/1.1/"
   xmlns:cc="http://creativecommons.org/ns#"
   xmlns:rdf="http://www.w3.org/1999/02/22-rdf-syntax-ns#"
   xmlns:svg="http://www.w3.org/2000/svg"
   xmlns="http://www.w3.org/2000/svg"
   xmlns:sodipodi="http://sodipodi.sourceforge.net/DTD/sodipodi-0.dtd"
   xmlns:inkscape="http://www.inkscape.org/namespaces/inkscape"
   width="192"
   height="192"
   version="1"
   id="svg12"
   sodipodi:docname="apps_openhub.svg"
   inkscape:version="0.92.3 (2405546, 2018-03-11)">
  <metadata
     id="metadata18">
    <rdf:RDF>
      <cc:Work
         rdf:about="">
        <dc:format>image/svg+xml</dc:format>
        <dc:type
           rdf:resource="http://purl.org/dc/dcmitype/StillImage" />
        <dc:title></dc:title>
      </cc:Work>
    </rdf:RDF>
  </metadata>
  <defs
     id="defs16">
    <filter
       inkscape:collect="always"
       style="color-interpolation-filters:sRGB"
       id="filter858"
       x="-0.048"
       width="1.096"
       y="-0.048"
       height="1.096">
      <feGaussianBlur
         inkscape:collect="always"
         stdDeviation="3.2"
         id="feGaussianBlur860" />
    </filter>
    <filter
       inkscape:collect="always"
       style="color-interpolation-filters:sRGB"
       id="filter890"
       x="-0.050765933"
       width="1.1015319"
       y="-0.045519892"
       height="1.0910398">
      <feGaussianBlur
         inkscape:collect="always"
         stdDeviation="2.1999708"
         id="feGaussianBlur892" />
    </filter>
  </defs>
  <sodipodi:namedview
     pagecolor="#ffffff"
     bordercolor="#666666"
     borderopacity="1"
     objecttolerance="10"
     gridtolerance="10"
     guidetolerance="10"
     inkscape:pageopacity="0"
     inkscape:pageshadow="2"
     inkscape:window-width="1920"
     inkscape:window-height="1018"
     id="namedview14"
     showgrid="false"
     inkscape:zoom="1"
     inkscape:cx="24"
     inkscape:cy="76.401747"
     inkscape:window-x="0"
     inkscape:window-y="32"
     inkscape:window-maximized="1"
     inkscape:current-layer="svg12" />
  <path
     style="opacity:0.2;fill:#000000;fill-opacity:1;stroke-width:4;filter:url(#filter858)"
     id="path840"
     d="M 176,100 A 80,80 0 0 1 96,180 80,80 0 0 1 16,100 80,80 0 0 1 96,20 80,80 0 0 1 176,100 Z"
     inkscape:connector-curvature="0" />
  <path
     inkscape:connector-curvature="0"
     d="M 176,96 A 80,80 0 0 1 96,176 80,80 0 0 1 16,96 80,80 0 0 1 96,16 80,80 0 0 1 176,96 Z"
     id="path4"
     style="fill:#009587;fill-opacity:1;stroke-width:4" />
  <path
     inkscape:connector-curvature="0"
     style="opacity:0.2;stroke-width:4;filter:url(#filter890)"
     d="M 140.64062,58.015624 C 132.72297,57.738664 125.27386,65.38216 120.39844,68.804688 114.56053,67.037532 106.11017,66.057976 99.765624,66 93.489124,65.94264 85.325488,66.786428 78.398436,68.804688 71.9542,65.773872 65.55922,57.849656 58.320312,58.1875 54.197512,68.9243 56.805056,76.854924 57.585936,78.828124 52.742736,84.277708 52,91.243412 52,99.75781 c 0,29.892 15.469252,36.58629 32.281248,38.55469 -2.16136,1.94908 -3.47606,5.3995 -4.16406,10.4375 -4.3132,1.99696 -14.324524,5.43482 -21.078124,-6.48438 0,0 -4.002044,-7.49647 -11.601564,-8.04687 0,0 -7.389984,-0.0946 -0.515624,4.74219 0,0 4.962248,2.40142 8.406248,11.41406 0,0 3.58022,15.17334 24.640628,10.46094 0.0076,1.28921 0.01,6.64559 0.0156,11.53906 A 80,80 0 0 0 96,174 a 80,80 0 0 0 24.01562,-3.78125 c 0.0116,-7.18387 0.0236,-14.55838 0.0236,-17.51563 0,-7.2744 -2.69169,-12.03651 -5.40625,-14.44531 16.8632,-1.92992 33.36719,-8.5312 33.36719,-38.5 0,-8.514398 -0.5381,-15.480086 -5.39062,-20.929686 0.77624,-1.973 3.38208,-9.903824 -0.75,-20.640624 0,0 -0.39812,-0.1334 -1.21876,-0.17188 z"
     id="path6" />
  <path
     inkscape:connector-curvature="0"
     style="fill:#ffffff;stroke-width:4"
     d="M 140.64062,56.015624 C 132.72297,55.738664 125.27386,63.38216 120.39844,66.804688 114.56053,65.037532 106.11017,64.057976 99.765624,64 93.489124,63.94264 85.325488,64.786428 78.398436,66.804688 71.9542,63.773872 65.55922,55.849656 58.320312,56.1875 54.197512,66.9243 56.805056,74.854924 57.585936,76.828124 52.742736,82.277708 52,89.243412 52,97.757812 52,127.64981 67.469252,134.3441 84.281248,136.3125 c -2.16136,1.94908 -3.47606,5.3995 -4.16406,10.4375 -4.3132,1.99696 -14.324524,5.43482 -21.078124,-6.48438 0,0 -4.002044,-7.49647 -11.601564,-8.04687 0,0 -7.389984,-0.0946 -0.515624,4.74219 0,0 4.962248,2.40142 8.406248,11.41406 0,0 3.580224,15.17334 24.640628,10.46094 0.01,1.73611 0.0148,8.45678 0.0236,15.53906 A 80,80 0 0 0 96,176 a 80,80 0 0 0 24.00781,-3.78125 c 0.0132,-9.12596 0.0312,-17.88305 0.0312,-21.51563 0,-7.2744 -2.69169,-12.03651 -5.40625,-14.44531 16.8632,-1.92992 33.36719,-8.5312 33.36719,-38.499998 0,-8.5144 -0.53811,-15.480088 -5.39063,-20.929688 0.77624,-1.973 3.38208,-9.903824 -0.75,-20.640624 0,0 -0.39812,-0.1334 -1.21875,-0.17188 z"
     id="path8" />
  <path
     inkscape:connector-curvature="0"
     style="opacity:0.2;fill:#ffffff;stroke-width:4"
     d="m 96,16 c -44.316,0 -79.992188,35.68 -79.992188,80 0,0.33544 0.002,0.667215 0,1 C 16.007812,52.68 51.684,17 96,17 c 44.316,0 79.99219,35.68 79.99219,80 -0.002,-0.332785 0,-0.66456 0,-1 C 175.99219,51.68 140.316,16 96,16 Z"
     id="path10" />
</svg>
