<?xml version="1.0" encoding="UTF-8" standalone="no"?>
<svg
   xmlns:dc="http://purl.org/dc/elements/1.1/"
   xmlns:cc="http://creativecommons.org/ns#"
   xmlns:rdf="http://www.w3.org/1999/02/22-rdf-syntax-ns#"
   xmlns:svg="http://www.w3.org/2000/svg"
   xmlns="http://www.w3.org/2000/svg"
   xmlns:sodipodi="http://sodipodi.sourceforge.net/DTD/sodipodi-0.dtd"
   xmlns:inkscape="http://www.inkscape.org/namespaces/inkscape"
   width="192"
   height="192"
   version="1"
   id="svg16"
   sodipodi:docname="apps_smart_swf_player.svg"
   inkscape:version="0.92.3 (2405546, 2018-03-11)">
  <metadata
     id="metadata22">
    <rdf:RDF>
      <cc:Work
         rdf:about="">
        <dc:format>image/svg+xml</dc:format>
        <dc:type
           rdf:resource="http://purl.org/dc/dcmitype/StillImage" />
      </cc:Work>
    </rdf:RDF>
  </metadata>
  <defs
     id="defs20">
    <filter
       inkscape:collect="always"
       style="color-interpolation-filters:sRGB"
       id="filter853"
       x="-0.048"
       width="1.096"
       y="-0.048"
       height="1.096">
      <feGaussianBlur
         inkscape:collect="always"
         stdDeviation="3.2"
         id="feGaussianBlur855" />
    </filter>
    <filter
       inkscape:collect="always"
       style="color-interpolation-filters:sRGB"
       id="filter869"
       x="-0.057599999"
       width="1.1152"
       y="-0.041142858"
       height="1.0822857">
      <feGaussianBlur
         inkscape:collect="always"
         stdDeviation="1.92"
         id="feGaussianBlur871" />
    </filter>
  </defs>
  <sodipodi:namedview
     pagecolor="#ffffff"
     bordercolor="#666666"
     borderopacity="1"
     objecttolerance="10"
     gridtolerance="10"
     guidetolerance="10"
     inkscape:pageopacity="0"
     inkscape:pageshadow="2"
     inkscape:window-width="1920"
     inkscape:window-height="1018"
     id="namedview18"
     showgrid="false"
     inkscape:zoom="1"
     inkscape:cx="96"
     inkscape:cy="96"
     inkscape:window-x="0"
     inkscape:window-y="32"
     inkscape:window-maximized="1"
     inkscape:current-layer="svg16" />
  <rect
     style="opacity:0.2;fill:#000000;stroke-width:4;filter:url(#filter853)"
     width="160"
     height="160"
     x="-180"
     y="-176"
     rx="80"
     ry="80"
     transform="matrix(0,-1,-1,0,0,0)"
     id="rect835" />
  <rect
     id="rect2"
     transform="matrix(0,-1,-1,0,0,0)"
     ry="80"
     rx="80"
     y="-176"
     x="-176"
     height="160"
     width="160"
     style="fill:#e44444;stroke-width:4" />
  <path
     style="opacity:0.2;fill:#ffffff;stroke-width:4"
     d="M 96 16 C 51.684 16 16.007812 51.68 16.007812 96 C 16.007812 96.33544 16.009812 96.667215 16.007812 97 C 16.007812 52.68 51.684 17 96 17 C 140.316 17 175.99219 52.68 175.99219 97 C 175.99019 96.667215 175.99219 96.33544 175.99219 96 C 175.99219 51.68 140.316 16 96 16 z "
     id="path4" />
  <path
     inkscape:connector-curvature="0"
     id="path8"
     d="m 126.62024,44.00264 c -1.1801,0.07304 -3.84077,1.661496 -8.78273,5.12598 L 76.982184,79.164304 c -4.452332,3.538736 -8.407368,7.095612 -8.789944,7.904244 -1.280144,2.705972 0.40988,3.984356 13.16752,9.959024 10.6784,5.000958 13.1729,5.768048 14.09368,7.636858 0.934436,1.8965 0.939908,2.23356 0.06112,3.86994 -1.115724,2.07801 -9.296224,12.59885 -20.457468,24.90396 C 63.585988,146.08505 56,154.84179 56,155.43664 c 0,1.26189 2.412736,0.32636 5.241744,-2.03279 1.686536,-1.40639 5.697044,-4.3228 8.912552,-6.48037 3.215472,-2.1576 10.415716,-7.1458 16.000528,-11.08542 5.584772,-3.93958 14.169696,-9.87532 19.077546,-13.19112 18.53002,-12.51896 28.04568,-19.06904 29.38556,-20.226 1.84276,-1.59117 1.84276,-4.524476 0,-6.158532 -0.76157,-0.67532 -7.31939,-3.504644 -13.10877,-6.287048 -15.50109,-7.449972 -16.14284,-8.583164 -10.25032,-18.093656 l 13.05828,-20.36262 c 1.68883,-3.21378 3.06981,-6.233332 3.06981,-6.71072 0,-0.55858 -0.2306,-0.838908 -0.76685,-0.805724 z"
     style="opacity:0.2;stroke-width:4;filter:url(#filter869)" />
  <path
     inkscape:connector-curvature="0"
     id="path10"
     d="m 126.62024,40.00264 c -1.1801,0.07304 -3.84077,1.661496 -8.78273,5.12598 L 76.982184,75.164304 c -4.452332,3.538736 -8.407368,7.095612 -8.789944,7.904244 -1.280144,2.705972 0.40988,3.984356 13.16752,9.959024 10.6784,5.000956 13.1729,5.768048 14.09368,7.636858 0.934436,1.8965 0.939908,2.23356 0.06112,3.86994 -1.115724,2.07801 -9.296224,12.59885 -20.457468,24.90396 C 63.585988,142.08505 56,150.84179 56,151.43664 c 0,1.26189 2.412736,0.32636 5.241744,-2.03279 1.686536,-1.40639 5.697044,-4.3228 8.912552,-6.48037 3.215472,-2.1576 10.415716,-7.1458 16.000528,-11.08542 5.584772,-3.93958 14.169696,-9.87532 19.077546,-13.19112 18.53002,-12.51896 28.04568,-19.069036 29.38556,-20.226 1.84276,-1.591168 1.84276,-4.524476 0,-6.158532 -0.76157,-0.67532 -7.31939,-3.504644 -13.10877,-6.287048 -15.50109,-7.449972 -16.14284,-8.583164 -10.25032,-18.093656 l 13.05828,-20.36262 c 1.68883,-3.21378 3.06981,-6.233332 3.06981,-6.71072 0,-0.55858 -0.2306,-0.838908 -0.76685,-0.805724 z"
     style="fill:#f2c90c;stroke-width:4" />
  <path
     style="opacity:0.2;fill:#ffffff;stroke-width:4"
     d="M 126.61719 40 C 125.43708 40.07304 122.7779 41.660516 117.83594 45.125 L 76.984375 75.164062 C 72.532043 78.702799 68.577889 82.26168 68.195312 83.070312 C 67.898495 83.697724 67.791422 84.252425 67.933594 84.806641 C 67.989355 84.569527 68.074008 84.326727 68.195312 84.070312 C 68.577889 83.26168 72.532043 79.702799 76.984375 76.164062 L 117.83594 46.125 C 122.7779 42.660516 125.43708 41.07304 126.61719 41 C 126.93597 40.980273 127.1374 41.083182 127.25781 41.277344 C 127.33927 41.053815 127.39062 40.884331 127.39062 40.804688 C 127.39062 40.246108 127.15342 39.966816 126.61719 40 z M 108.27344 77.5 C 107.92901 78.46841 107.79756 79.321368 107.88281 80.117188 C 107.94004 79.609859 108.06861 79.075903 108.27344 78.5 C 109.52157 80.985792 113.54321 83.148695 121.50781 86.976562 C 127.2972 89.758967 133.85562 92.590305 134.61719 93.265625 C 135.38703 93.948279 135.82432 94.853081 135.94531 95.792969 C 136.088 94.520078 135.65905 93.189491 134.61719 92.265625 C 133.85562 91.590305 127.2972 88.758966 121.50781 85.976562 C 113.54321 82.148695 109.52157 79.985792 108.27344 77.5 z M 95.4375 104.64062 C 94.20494 106.85134 86.11444 117.24428 75.054688 129.4375 C 63.583584 142.08422 56 150.84264 56 151.4375 C 56 151.69386 56.10425 151.85254 56.289062 151.92773 C 57.744444 149.83542 64.856035 141.68136 75.054688 130.4375 C 86.11444 118.24428 94.20494 107.85134 95.4375 105.64062 C 95.4415 105.64902 95.449125 105.65606 95.453125 105.66406 C 95.783777 106.33513 95.991568 106.80612 96.091797 107.21289 C 96.274952 106.49473 96.072312 105.92072 95.453125 104.66406 C 95.449125 104.65606 95.4415 104.64902 95.4375 104.64062 z "
     id="path12" />
</svg>
