<?xml version="1.0" encoding="UTF-8" standalone="no"?>
<svg
   xmlns:dc="http://purl.org/dc/elements/1.1/"
   xmlns:cc="http://creativecommons.org/ns#"
   xmlns:rdf="http://www.w3.org/1999/02/22-rdf-syntax-ns#"
   xmlns:svg="http://www.w3.org/2000/svg"
   xmlns="http://www.w3.org/2000/svg"
   xmlns:sodipodi="http://sodipodi.sourceforge.net/DTD/sodipodi-0.dtd"
   xmlns:inkscape="http://www.inkscape.org/namespaces/inkscape"
   width="192"
   height="192"
   version="1"
   id="svg16"
   sodipodi:docname="apps_double_twist_player.svg"
   inkscape:version="0.92.3 (2405546, 2018-03-11)">
  <metadata
     id="metadata22">
    <rdf:RDF>
      <cc:Work
         rdf:about="">
        <dc:format>image/svg+xml</dc:format>
        <dc:type
           rdf:resource="http://purl.org/dc/dcmitype/StillImage" />
      </cc:Work>
    </rdf:RDF>
  </metadata>
  <defs
     id="defs20">
    <filter
       inkscape:collect="always"
       style="color-interpolation-filters:sRGB"
       id="filter859"
       x="-0.054021296"
       width="1.1080426"
       y="-0.04318638"
       height="1.0863728">
      <feGaussianBlur
         inkscape:collect="always"
         stdDeviation="2.8811357"
         id="feGaussianBlur861" />
    </filter>
  </defs>
  <sodipodi:namedview
     pagecolor="#ffffff"
     bordercolor="#666666"
     borderopacity="1"
     objecttolerance="10"
     gridtolerance="10"
     guidetolerance="10"
     inkscape:pageopacity="0"
     inkscape:pageshadow="2"
     inkscape:window-width="1920"
     inkscape:window-height="1018"
     id="namedview18"
     showgrid="false"
     inkscape:zoom="1"
     inkscape:cx="96"
     inkscape:cy="96"
     inkscape:window-x="0"
     inkscape:window-y="32"
     inkscape:window-maximized="1"
     inkscape:current-layer="svg16" />
  <path
     inkscape:connector-curvature="0"
     id="path2"
     d="m 87.586484,19.892845 c -3.528528,0.0984 -6.92566,1.359958 -9.663136,3.588495 L 63.186284,35.489897 c -4.394504,3.581094 -6.5681,9.218763 -5.715012,14.823059 l 1.258708,8.27934 4.010676,32.116636 -20.866432,12.485458 c -6.873549,2.85452 -10.874182,10.06861 -9.655319,17.41084 l 3.197591,19.06046 c 0.840173,4.99947 3.998138,9.30579 8.51388,11.60984 l 52.84234,26.97234 c 5.651744,2.88623 12.474684,2.16254 17.395204,-1.84507 l 14.73706,-12.00855 c 4.39451,-3.5811 6.56811,-9.21876 5.71502,-14.82306 l -1.25871,-8.27934 -4.04195,-32.33554 c 11.43071,-7.16593 32.52546,-15.497214 30.55302,-29.677398 L 156.67477,60.218456 C 155.8346,55.218984 152.67664,50.912672 148.1609,48.60862 L 95.318552,21.636275 c -2.390528,-1.219915 -5.049336,-1.819423 -7.732068,-1.74343 z"
     style="opacity:0.2;stroke-width:4;filter:url(#filter859)" />
  <path
     inkscape:connector-curvature="0"
     id="path4"
     d="m 87.586484,15.893726 c -3.528528,0.0984 -6.92566,1.359958 -9.663136,3.588494 L 63.186284,31.490777 c -4.394504,3.581095 -6.5681,9.218763 -5.715012,14.823059 l 1.258708,8.27934 4.010676,32.116636 -20.866432,12.48546 c -6.873549,2.854518 -10.874182,10.068608 -9.655319,17.410838 l 3.197591,19.06046 c 0.840173,4.99947 3.998138,9.30579 8.51388,11.60984 l 52.84234,26.97234 c 5.651744,2.88623 12.474684,2.16254 17.395204,-1.84507 l 14.73706,-12.00855 c 4.39451,-3.5811 6.56811,-9.21876 5.71502,-14.82306 l -1.25871,-8.27934 -4.04195,-32.33554 C 140.75005,97.791256 161.8448,89.459976 159.87236,75.279792 L 156.67477,56.219336 C 155.8346,51.219864 152.67664,46.913552 148.1609,44.6095 L 95.318552,17.637156 c -2.390528,-1.219916 -5.049336,-1.819424 -7.732068,-1.74343 z"
     style="fill:#e4e4e4;stroke-width:4" />
  <path
     inkscape:connector-curvature="0"
     id="path6"
     d="M 48.272975,114.06583 140.41132,58.939775 143.49021,77.836086 51.435705,132.91198 Z"
     style="fill:#2c4f80;stroke-width:4" />
  <path
     inkscape:connector-curvature="0"
     id="path8"
     d="M 88,32 73.273436,44 74.5625,52.484376 84.546876,132.375 48,114 51.195312,133.04688 104,160 Z"
     style="fill:#3a6dbe;stroke-width:4" />
  <path
     inkscape:connector-curvature="0"
     id="path10"
     d="M 104,160 118.72656,148 117.4375,139.51562 107.45312,59.625 144,78 140.80469,58.953124 88,32 Z"
     style="fill:#4ea1ed;stroke-width:4" />
  <path
     style="opacity:0.2;fill:#ffffff;stroke-width:4"
     d="M 87.585938 15.890625 C 84.05741 15.989025 80.659351 17.255838 77.921875 19.484375 L 63.1875 31.492188 C 59.296141 34.663268 57.170384 39.445872 57.324219 44.390625 C 57.46708 39.807009 59.559289 35.448828 63.1875 32.492188 L 77.921875 20.484375 C 80.659351 18.255838 84.05741 16.989025 87.585938 16.890625 C 90.26867 16.814631 92.929784 17.42071 95.320312 18.640625 L 148.16406 45.609375 C 152.6798 47.913427 155.8317 52.219278 156.67188 57.21875 L 159.875 76.28125 C 159.92203 76.619306 159.94831 76.953141 159.96289 77.283203 C 159.98846 76.629732 159.97012 75.965006 159.875 75.28125 L 156.67188 56.21875 C 155.8317 51.219278 152.6798 46.913427 148.16406 44.609375 L 95.320312 17.640625 C 92.929784 16.42071 90.26867 15.814631 87.585938 15.890625 z M 62.273438 86.992188 L 41.875 99.195312 C 35.722188 101.75051 31.915096 107.80514 32.054688 114.3125 C 32.303804 108.1912 36.038155 102.61929 41.875 100.19531 L 62.273438 87.992188 L 62.625 90.78125 L 62.742188 90.710938 L 62.273438 86.992188 z M 129.78906 108.6875 C 129.65118 108.7726 129.45554 108.86833 129.32031 108.95312 L 129.4375 109.88672 C 129.55604 109.82003 129.68565 109.75132 129.78906 109.6875 L 133.35938 138.28906 L 134.61719 146.57031 C 134.7104 147.18225 134.75605 147.79435 134.77539 148.4043 C 134.80428 147.4652 134.76149 146.51769 134.61719 145.57031 L 133.35938 137.28906 L 129.78906 108.6875 z "
     id="path12" />
</svg>
