<?xml version="1.0" encoding="UTF-8" standalone="no"?>
<svg
   xmlns:dc="http://purl.org/dc/elements/1.1/"
   xmlns:cc="http://creativecommons.org/ns#"
   xmlns:rdf="http://www.w3.org/1999/02/22-rdf-syntax-ns#"
   xmlns:svg="http://www.w3.org/2000/svg"
   xmlns="http://www.w3.org/2000/svg"
   xmlns:sodipodi="http://sodipodi.sourceforge.net/DTD/sodipodi-0.dtd"
   xmlns:inkscape="http://www.inkscape.org/namespaces/inkscape"
   width="192"
   height="192"
   version="1.1"
   id="svg14"
   sodipodi:docname="apps_simpletextcrypt.svg"
   inkscape:version="0.92.3 (2405546, 2018-03-11)">
  <metadata
     id="metadata20">
    <rdf:RDF>
      <cc:Work
         rdf:about="">
        <dc:format>image/svg+xml</dc:format>
        <dc:type
           rdf:resource="http://purl.org/dc/dcmitype/StillImage" />
      </cc:Work>
    </rdf:RDF>
  </metadata>
  <defs
     id="defs18">
    <filter
       inkscape:collect="always"
       style="color-interpolation-filters:sRGB"
       id="filter846"
       x="-0.037200099"
       width="1.0744002"
       y="-0.067636036"
       height="1.1352721">
      <feGaussianBlur
         inkscape:collect="always"
         stdDeviation="2.479988"
         id="feGaussianBlur848" />
    </filter>
    <filter
       inkscape:collect="always"
       style="color-interpolation-filters:sRGB"
       id="filter865"
       x="-0.048"
       width="1.096"
       y="-0.048"
       height="1.096">
      <feGaussianBlur
         inkscape:collect="always"
         stdDeviation="0.64"
         id="feGaussianBlur867" />
    </filter>
  </defs>
  <sodipodi:namedview
     pagecolor="#ffffff"
     bordercolor="#666666"
     borderopacity="1"
     objecttolerance="10"
     gridtolerance="10"
     guidetolerance="10"
     inkscape:pageopacity="0"
     inkscape:pageshadow="2"
     inkscape:window-width="1920"
     inkscape:window-height="1018"
     id="namedview16"
     showgrid="false"
     inkscape:zoom="4.97"
     inkscape:cx="96"
     inkscape:cy="96"
     inkscape:window-x="0"
     inkscape:window-y="32"
     inkscape:window-maximized="1"
     inkscape:current-layer="svg14" />
  <path
     style="opacity:0.2;fill:#000000;stroke-width:4;filter:url(#filter846)"
     d="m 60,56 a 44,44 0 0 0 -44,44 44,44 0 0 0 44,44 44,44 0 0 0 42.288,-32 h 33.7108 v 20.1092 H 163.858 V 112 h 12.1408 V 84 h -75.016 A 44,44 0 0 0 59.9988,56 Z"
     id="path832"
     inkscape:connector-curvature="0" />
  <path
     inkscape:connector-curvature="0"
     id="path4"
     d="m 60,52 a 44,44 0 0 0 -44,44 44,44 0 0 0 44,44 44,44 0 0 0 42.288,-32 h 33.7108 v 20.1092 H 163.858 V 108 h 12.1408 V 80 h -75.016 A 44,44 0 0 0 59.9988,52 Z"
     style="fill:#31c0d5;stroke-width:4" />
  <circle
     id="circle6"
     r="16"
     cy="98"
     cx="60"
     style="opacity:0.1;stroke-width:4;filter:url(#filter865)" />
  <circle
     id="circle8"
     r="16"
     cy="96"
     cx="60"
     style="fill:#f9f9f9;stroke-width:4" />
  <path
     style="opacity:0.2;fill:#ffffff;stroke-width:4"
     d="M 60 52 A 44 44 0 0 0 16 96 A 44 44 0 0 0 16.019531 96.419922 A 44 44 0 0 1 60 53 A 44 44 0 0 1 100.98438 81 L 176 81 L 176 80 L 100.98438 80 A 44 44 0 0 0 60 52 z "
     id="path10" />
</svg>
