<?xml version="1.0" encoding="UTF-8" standalone="no"?>
<svg
   xmlns:dc="http://purl.org/dc/elements/1.1/"
   xmlns:cc="http://creativecommons.org/ns#"
   xmlns:rdf="http://www.w3.org/1999/02/22-rdf-syntax-ns#"
   xmlns:svg="http://www.w3.org/2000/svg"
   xmlns="http://www.w3.org/2000/svg"
   xmlns:sodipodi="http://sodipodi.sourceforge.net/DTD/sodipodi-0.dtd"
   xmlns:inkscape="http://www.inkscape.org/namespaces/inkscape"
   width="192"
   height="192"
   version="1"
   id="svg26"
   sodipodi:docname="apps_zgz_video_player.svg"
   inkscape:version="0.92.3 (2405546, 2018-03-11)">
  <metadata
     id="metadata32">
    <rdf:RDF>
      <cc:Work
         rdf:about="">
        <dc:format>image/svg+xml</dc:format>
        <dc:type
           rdf:resource="http://purl.org/dc/dcmitype/StillImage" />
      </cc:Work>
    </rdf:RDF>
  </metadata>
  <defs
     id="defs30">
    <filter
       inkscape:collect="always"
       style="color-interpolation-filters:sRGB"
       id="filter867"
       x="-0.0456"
       width="1.0912"
       y="-0.050666667"
       height="1.1013333">
      <feGaussianBlur
         inkscape:collect="always"
         stdDeviation="3.04"
         id="feGaussianBlur869" />
    </filter>
    <filter
       inkscape:collect="always"
       style="color-interpolation-filters:sRGB"
       id="filter883"
       x="-0.048"
       width="1.096"
       y="-0.048"
       height="1.096">
      <feGaussianBlur
         inkscape:collect="always"
         stdDeviation="0.32"
         id="feGaussianBlur885" />
    </filter>
    <filter
       inkscape:collect="always"
       style="color-interpolation-filters:sRGB"
       id="filter903"
       x="-0.048"
       width="1.096"
       y="-0.048"
       height="1.096">
      <feGaussianBlur
         inkscape:collect="always"
         stdDeviation="1.44"
         id="feGaussianBlur905" />
    </filter>
  </defs>
  <sodipodi:namedview
     pagecolor="#ffffff"
     bordercolor="#666666"
     borderopacity="1"
     objecttolerance="10"
     gridtolerance="10"
     guidetolerance="10"
     inkscape:pageopacity="0"
     inkscape:pageshadow="2"
     inkscape:window-width="1920"
     inkscape:window-height="1018"
     id="namedview28"
     showgrid="false"
     inkscape:zoom="1"
     inkscape:cx="96"
     inkscape:cy="96"
     inkscape:window-x="0"
     inkscape:window-y="32"
     inkscape:window-maximized="1"
     inkscape:current-layer="svg26" />
  <path
     style="opacity:0.2;fill:#000000;stroke-width:4;filter:url(#filter867)"
     d="m 28,28 c -6.648,0 -12,5.352 -12,12 v 100 20 c 0,6.648 5.352,12 12,12 h 136 c 6.648,0 12,-5.352 12,-12 V 140 40 c 0,-6.648 -5.352,-12 -12,-12 z"
     id="path850"
     inkscape:connector-curvature="0" />
  <path
     inkscape:connector-curvature="0"
     id="path2"
     d="M 28,24 C 21.352,24 16,29.352 16,36 V 136 H 176 V 36 c 0,-6.648 -5.352,-12 -12,-12 z"
     style="fill:#289cc1;stroke-width:4" />
  <path
     style="opacity:0.2;fill:#ffffff;stroke-width:4"
     d="M 28 24 C 21.352 24 16 29.352 16 36 L 16 37 C 16 30.352 21.352 25 28 25 L 164 25 C 170.648 25 176 30.352 176 37 L 176 36 C 176 29.352 170.648 24 164 24 L 28 24 z "
     id="path4" />
  <path
     inkscape:connector-curvature="0"
     id="path6"
     d="m 16,136 v 20 c 0,6.648 5.352,12 12,12 h 136 c 6.648,0 12,-5.352 12,-12 v -20 z"
     style="fill:#cccccc;stroke-width:4" />
  <rect
     style="fill:#999999;stroke-width:4"
     id="rect8"
     ry="3.7119999"
     rx="4"
     y="148"
     x="112"
     height="8"
     width="52" />
  <rect
     id="rect10"
     ry="4"
     rx="4"
     y="148"
     x="28"
     height="8"
     width="84"
     style="fill:#289cc1;stroke-width:4" />
  <circle
     style="opacity:0.1;stroke-width:4;filter:url(#filter883)"
     id="circle12"
     r="8"
     cy="154"
     cx="112" />
  <circle
     id="circle14"
     r="8"
     cy="152"
     cx="112"
     style="fill:#ffffff;stroke-width:4" />
  <rect
     id="rect16"
     y="136"
     x="16"
     height="1"
     width="160"
     style="opacity:0.2;fill:#ffffff;stroke-width:2" />
  <path
     inkscape:connector-curvature="0"
     id="path20"
     d="M 96,48 A 36,36 0 0 0 60,84 36,36 0 0 0 96,120 36,36 0 0 0 132,84 36,36 0 0 0 96,48 Z m -7.960936,16 a 3.945642,4.4165912 0 0 1 1.875,0.601564 l 12.062496,7.78906 12.0625,7.796876 a 3.945642,4.4165912 0 0 1 0,7.632812 L 101.97656,95.625 89.914064,103.41406 A 3.945642,4.4165912 0 0 1 84,99.585936 V 68.414064 A 3.945642,4.4165912 0 0 1 88.039064,64 Z"
     style="opacity:0.1;stroke-width:4;filter:url(#filter903)" />
  <path
     inkscape:connector-curvature="0"
     id="path22"
     d="M 96,44 A 36,36 0 0 0 60,80 36,36 0 0 0 96,116 36,36 0 0 0 132,80 36,36 0 0 0 96,44 Z m -7.960936,16 a 3.945642,4.4165912 0 0 1 1.875,0.601564 l 12.062496,7.78906 12.0625,7.796876 a 3.945642,4.4165912 0 0 1 0,7.632812 L 101.97656,91.625 89.914064,99.414064 A 3.945642,4.4165912 0 0 1 84,95.585936 V 64.414064 A 3.945642,4.4165912 0 0 1 88.039064,60 Z"
     style="fill:#ffffff;stroke-width:4" />
</svg>
