<?xml version="1.0" encoding="UTF-8" standalone="no"?>
<svg
   xmlns:dc="http://purl.org/dc/elements/1.1/"
   xmlns:cc="http://creativecommons.org/ns#"
   xmlns:rdf="http://www.w3.org/1999/02/22-rdf-syntax-ns#"
   xmlns:svg="http://www.w3.org/2000/svg"
   xmlns="http://www.w3.org/2000/svg"
   xmlns:sodipodi="http://sodipodi.sourceforge.net/DTD/sodipodi-0.dtd"
   xmlns:inkscape="http://www.inkscape.org/namespaces/inkscape"
   width="192"
   height="192"
   version="1"
   id="svg14"
   sodipodi:docname="apps_vk.svg"
   inkscape:version="0.92.3 (2405546, 2018-03-11)">
  <metadata
     id="metadata20">
    <rdf:RDF>
      <cc:Work
         rdf:about="">
        <dc:format>image/svg+xml</dc:format>
        <dc:type
           rdf:resource="http://purl.org/dc/dcmitype/StillImage" />
      </cc:Work>
    </rdf:RDF>
  </metadata>
  <defs
     id="defs18">
    <filter
       inkscape:collect="always"
       style="color-interpolation-filters:sRGB"
       id="filter853"
       x="-0.048"
       width="1.096"
       y="-0.048"
       height="1.096">
      <feGaussianBlur
         inkscape:collect="always"
         stdDeviation="3.2"
         id="feGaussianBlur855" />
    </filter>
    <filter
       inkscape:collect="always"
       style="color-interpolation-filters:sRGB"
       id="filter873"
       x="-0.038068983"
       width="1.076138"
       y="-0.064941125"
       height="1.1298823">
      <feGaussianBlur
         inkscape:collect="always"
         stdDeviation="1.840004"
         id="feGaussianBlur875" />
    </filter>
  </defs>
  <sodipodi:namedview
     pagecolor="#ffffff"
     bordercolor="#666666"
     borderopacity="1"
     objecttolerance="10"
     gridtolerance="10"
     guidetolerance="10"
     inkscape:pageopacity="0"
     inkscape:pageshadow="2"
     inkscape:window-width="1920"
     inkscape:window-height="1018"
     id="namedview16"
     showgrid="false"
     inkscape:zoom="1"
     inkscape:cx="96"
     inkscape:cy="96"
     inkscape:window-x="0"
     inkscape:window-y="32"
     inkscape:window-maximized="1"
     inkscape:current-layer="svg14" />
  <rect
     width="160"
     height="160"
     x="-180"
     y="-176"
     rx="8"
     ry="8"
     transform="matrix(0,-1,-1,0,0,0)"
     id="rect835"
     style="opacity:0.2;fill:#000000;fill-opacity:1;stroke-width:4;filter:url(#filter853)" />
  <rect
     style="fill:#4a76a8;stroke-width:4;fill-opacity:1"
     id="rect2"
     transform="matrix(0,-1,-1,0,0,0)"
     ry="8"
     rx="8"
     y="-176"
     x="-176"
     height="160"
     width="160" />
  <path
     style="opacity:0.2;fill:#ffffff;stroke-width:4"
     d="M 24 16 C 19.568 16 16 19.568 16 24 L 16 25 C 16 20.568 19.568 17 24 17 L 168 17 C 172.432 17 176 20.568 176 25 L 176 24 C 176 19.568 172.432 16 168 16 L 24 16 z "
     id="path4" />
  <path
     style="opacity:0.2;fill-rule:evenodd;stroke-width:4;filter:url(#filter873)"
     inkscape:connector-curvature="0"
     id="path8"
     d="m 92.756,135.716 h 6.9336 c 0,0 2.09384,-0.23716 3.16444,-1.42076 0.984,-1.08792 0.95256,-3.12944 0.95256,-3.12944 0,0 -0.13564,-9.5596 4.1816,-10.9672 4.2576,-1.3876 9.7232,9.2388 15.5164,13.3256 4.3808,3.09128 7.71,2.41464 7.71,2.41464 l 15.4912,-0.22244 c 0,0 8.1032,-0.51376 4.2608,-7.0608 -0.31452,-0.53472 -2.23844,-4.8428 -11.5184,-13.694 -9.7144,-9.264 -8.412,-7.7652 3.2886,-23.79 7.126,-9.7592 9.974,-15.7164 9.084,-18.268 -0.848,-2.43104 -6.0896,-1.78888 -6.0896,-1.78888 l -17.442,0.11084 c 0,0 -1.29404,-0.18092 -2.25232,0.4084 -0.93744,0.57628 -1.53912,1.92276 -1.53912,1.92276 0,0 -2.76168,7.5512 -6.442,13.9744 -7.7668,13.5512 -10.8728,14.2684 -12.1424,13.4256 -2.95368,-1.96136 -2.21556,-7.8776 -2.21556,-12.082 0,-13.1332 1.9386,-18.6088 -3.77512,-20.0264 -1.89572,-0.47008 -3.29228,-0.78112 -8.1412,-0.83188 -6.224,-0.06512 -11.4904,0.0196 -14.4732,1.52108 -1.98436,0.99852 -3.51532,3.22308 -2.58236,3.35108 1.15312,0.15776 3.76328,0.72404 5.1472,2.65896 1.78788,2.49944 1.7254,8.1104 1.7254,8.1104 0,0 1.02732,15.4596 -2.39856,17.3796 -2.35076,1.31708 -5.576,-1.37168 -12.5004,-13.6664 -3.5472,-6.2976 -6.2264,-13.2596 -6.2264,-13.2596 0,0 -0.51592,-1.30072 -1.43744,-1.99704 -1.1176,-0.84364 -2.67916,-1.111 -2.67916,-1.111 l -16.5752,0.1112 c 0,0 -2.4876,0.0714 -3.4018,1.1832 -0.81328,0.98972 -0.065,3.03416 -0.065,3.03416 0,0 12.9756,31.1948 27.6692,46.916 13.4744,14.4152 28.772,13.4688 28.772,13.4688" />
  <path
     style="fill:#ffffff;fill-rule:evenodd;stroke-width:4"
     inkscape:connector-curvature="0"
     id="path10"
     d="m 92.756,131.716 h 6.9336 c 0,0 2.09384,-0.23716 3.16444,-1.42076 0.984,-1.08792 0.95256,-3.12944 0.95256,-3.12944 0,0 -0.13564,-9.5596 4.1816,-10.9672 4.2576,-1.3876 9.7232,9.2388 15.5164,13.3256 4.3808,3.09128 7.71,2.41464 7.71,2.41464 l 15.4912,-0.22244 c 0,0 8.1032,-0.51376 4.2608,-7.0608 -0.31452,-0.53472 -2.23844,-4.8428 -11.5184,-13.694 -9.7144,-9.264 -8.412,-7.7652 3.2886,-23.79 7.126,-9.7592 9.974,-15.7164 9.084,-18.268 -0.848,-2.43104 -6.0896,-1.78888 -6.0896,-1.78888 l -17.442,0.11084 c 0,0 -1.29404,-0.18092 -2.25232,0.4084 -0.93744,0.57628 -1.53912,1.92276 -1.53912,1.92276 0,0 -2.76168,7.5512 -6.442,13.9744 -7.7668,13.5512 -10.8728,14.2684 -12.1424,13.4256 -2.95368,-1.96136 -2.21556,-7.8776 -2.21556,-12.082 0,-13.1332 1.9386,-18.6088 -3.77512,-20.0264 -1.89572,-0.47008 -3.29228,-0.78112 -8.1412,-0.83188 -6.224,-0.06512 -11.4904,0.0196 -14.4732,1.52108 -1.98436,0.99852 -3.51532,3.22308 -2.58236,3.35108 1.15312,0.15776 3.76328,0.72404 5.1472,2.65896 1.78788,2.49944 1.7254,8.1104 1.7254,8.1104 0,0 1.02732,15.4596 -2.39856,17.3796 -2.35076,1.31708 -5.576,-1.37168 -12.5004,-13.6664 -3.5472,-6.2976 -6.2264,-13.2596 -6.2264,-13.2596 0,0 -0.51592,-1.30072 -1.43744,-1.99704 -1.1176,-0.84364 -2.67916,-1.111 -2.67916,-1.111 l -16.5752,0.1112 c 0,0 -2.4876,0.0714 -3.4018,1.1832 -0.81328,0.98972 -0.065,3.03416 -0.065,3.03416 0,0 12.9756,31.1948 27.6692,46.916 13.4744,14.4152 28.772,13.4688 28.772,13.4688" />
</svg>
