<?xml version="1.0" encoding="UTF-8" standalone="no"?>
<svg
   xmlns:dc="http://purl.org/dc/elements/1.1/"
   xmlns:cc="http://creativecommons.org/ns#"
   xmlns:rdf="http://www.w3.org/1999/02/22-rdf-syntax-ns#"
   xmlns:svg="http://www.w3.org/2000/svg"
   xmlns="http://www.w3.org/2000/svg"
   xmlns:sodipodi="http://sodipodi.sourceforge.net/DTD/sodipodi-0.dtd"
   xmlns:inkscape="http://www.inkscape.org/namespaces/inkscape"
   width="192"
   height="192"
   version="1"
   id="svg220"
   sodipodi:docname="apps_deezer.svg"
   inkscape:version="0.92.3 (2405546, 2018-03-11)">
  <metadata
     id="metadata226">
    <rdf:RDF>
      <cc:Work
         rdf:about="">
        <dc:format>image/svg+xml</dc:format>
        <dc:type
           rdf:resource="http://purl.org/dc/dcmitype/StillImage" />
        <dc:title></dc:title>
      </cc:Work>
    </rdf:RDF>
  </metadata>
  <defs
     id="defs224">
    <filter
       inkscape:collect="always"
       style="color-interpolation-filters:sRGB"
       id="filter1265"
       x="-0.046857143"
       width="1.0937143"
       y="-0.0492"
       height="1.0984">
      <feGaussianBlur
         inkscape:collect="always"
         stdDeviation="3.28"
         id="feGaussianBlur1267" />
    </filter>
    <filter
       inkscape:collect="always"
       style="color-interpolation-filters:sRGB"
       id="filter1288"
       x="-0.044842105"
       width="1.0896842"
       y="-0.051636364"
       height="1.1032727">
      <feGaussianBlur
         inkscape:collect="always"
         stdDeviation="0.71"
         id="feGaussianBlur1290" />
    </filter>
  </defs>
  <sodipodi:namedview
     pagecolor="#ffffff"
     bordercolor="#666666"
     borderopacity="1"
     objecttolerance="10"
     gridtolerance="10"
     guidetolerance="10"
     inkscape:pageopacity="0"
     inkscape:pageshadow="2"
     inkscape:window-width="1920"
     inkscape:window-height="1018"
     id="namedview222"
     showgrid="false"
     inkscape:zoom="2.29"
     inkscape:cx="24"
     inkscape:cy="41.467249"
     inkscape:window-x="0"
     inkscape:window-y="32"
     inkscape:window-maximized="1"
     inkscape:current-layer="svg220" />
  <rect
     style="opacity:0.2;stroke-width:4;filter:url(#filter1265)"
     width="160"
     height="168"
     x="-180"
     y="-180"
     rx="8"
     ry="8.3999996"
     transform="matrix(0,-1,-1,0,0,0)"
     id="rect2" />
  <rect
     style="fill:#4f4f4f;stroke-width:4"
     width="160"
     height="168"
     x="-176"
     y="-180"
     rx="8"
     ry="8.3999996"
     transform="matrix(0,-1,-1,0,0,0)"
     id="rect4" />
  <g
     style="opacity:0.2;filter:url(#filter1288)"
     transform="matrix(4,0,0,4,0,2)"
     id="g110">
    <path
       inkscape:connector-curvature="0"
       d="m 5,38 h 6 v 3 H 5 Z"
       id="path6" />
    <path
       inkscape:connector-curvature="0"
       d="m 5,33 h 6 v 3 H 5 Z"
       id="path8" />
    <path
       inkscape:connector-curvature="0"
       d="m 5,28 h 6 v 3 H 5 Z"
       id="path10" />
    <path
       inkscape:connector-curvature="0"
       d="m 5,23 h 6 v 3 H 5 Z"
       id="path12" />
    <path
       inkscape:connector-curvature="0"
       d="m 5,18 h 6 v 3 H 5 Z"
       id="path14" />
    <path
       inkscape:connector-curvature="0"
       d="m 13,38 h 6 v 3 h -6 z"
       id="path16" />
    <path
       inkscape:connector-curvature="0"
       d="m 13,33 h 6 v 3 h -6 z"
       id="path18" />
    <path
       inkscape:connector-curvature="0"
       d="m 13,28 h 6 v 3 h -6 z"
       id="path20" />
    <path
       inkscape:connector-curvature="0"
       d="m 21,38 h 6 v 3 h -6 z"
       id="path22" />
    <path
       inkscape:connector-curvature="0"
       d="m 21,33 h 6 v 3 h -6 z"
       id="path24" />
    <path
       inkscape:connector-curvature="0"
       d="m 21,28 h 6 v 3 h -6 z"
       id="path26" />
    <path
       inkscape:connector-curvature="0"
       d="m 21,23 h 6 v 3 h -6 z"
       id="path28" />
    <path
       inkscape:connector-curvature="0"
       d="m 21,18 h 6 v 3 h -6 z"
       id="path30" />
    <path
       inkscape:connector-curvature="0"
       d="m 21,13 h 6 v 3 h -6 z"
       id="path32" />
    <path
       inkscape:connector-curvature="0"
       d="m 29,38 h 6 v 3 h -6 z"
       id="path34" />
    <path
       inkscape:connector-curvature="0"
       d="m 29,33 h 6 v 3 h -6 z"
       id="path36" />
    <path
       inkscape:connector-curvature="0"
       d="m 29,28 h 6 v 3 h -6 z"
       id="path38" />
    <path
       inkscape:connector-curvature="0"
       d="m 29,23 h 6 v 3 h -6 z"
       id="path40" />
    <path
       inkscape:connector-curvature="0"
       d="m 29,18 h 6 v 3 h -6 z"
       id="path42" />
    <path
       inkscape:connector-curvature="0"
       d="m 37,38 h 6 v 3 h -6 z"
       id="path44" />
    <path
       inkscape:connector-curvature="0"
       d="m 37,33 h 6 v 3 h -6 z"
       id="path46" />
    <path
       inkscape:connector-curvature="0"
       d="m 37,28 h 6 v 3 h -6 z"
       id="path48" />
    <path
       inkscape:connector-curvature="0"
       d="m 37,23 h 6 v 3 h -6 z"
       id="path50" />
    <path
       inkscape:connector-curvature="0"
       d="m 37,18 h 6 v 3 h -6 z"
       id="path52" />
    <path
       inkscape:connector-curvature="0"
       d="m 37,13 h 6 v 3 h -6 z"
       id="path54" />
    <path
       inkscape:connector-curvature="0"
       d="m 37,8 h 6 v 3 h -6 z"
       id="path56" />
    <path
       inkscape:connector-curvature="0"
       d="m 5,38 h 6 v 3 H 5 Z"
       id="path58" />
    <path
       inkscape:connector-curvature="0"
       d="m 5,33 h 6 v 3 H 5 Z"
       id="path60" />
    <path
       inkscape:connector-curvature="0"
       d="m 5,28 h 6 v 3 H 5 Z"
       id="path62" />
    <path
       inkscape:connector-curvature="0"
       d="m 5,23 h 6 v 3 H 5 Z"
       id="path64" />
    <path
       inkscape:connector-curvature="0"
       d="m 5,18 h 6 v 3 H 5 Z"
       id="path66" />
    <path
       inkscape:connector-curvature="0"
       d="m 13,38 h 6 v 3 h -6 z"
       id="path68" />
    <path
       inkscape:connector-curvature="0"
       d="m 13,33 h 6 v 3 h -6 z"
       id="path70" />
    <path
       inkscape:connector-curvature="0"
       d="m 13,28 h 6 v 3 h -6 z"
       id="path72" />
    <path
       inkscape:connector-curvature="0"
       d="m 21,38 h 6 v 3 h -6 z"
       id="path74" />
    <path
       inkscape:connector-curvature="0"
       d="m 21,33 h 6 v 3 h -6 z"
       id="path76" />
    <path
       inkscape:connector-curvature="0"
       d="m 21,28 h 6 v 3 h -6 z"
       id="path78" />
    <path
       inkscape:connector-curvature="0"
       d="m 21,23 h 6 v 3 h -6 z"
       id="path80" />
    <path
       inkscape:connector-curvature="0"
       d="m 21,18 h 6 v 3 h -6 z"
       id="path82" />
    <path
       inkscape:connector-curvature="0"
       d="m 21,13 h 6 v 3 h -6 z"
       id="path84" />
    <path
       inkscape:connector-curvature="0"
       d="m 29,38 h 6 v 3 h -6 z"
       id="path86" />
    <path
       inkscape:connector-curvature="0"
       d="m 29,33 h 6 v 3 h -6 z"
       id="path88" />
    <path
       inkscape:connector-curvature="0"
       d="m 29,28 h 6 v 3 h -6 z"
       id="path90" />
    <path
       inkscape:connector-curvature="0"
       d="m 29,23 h 6 v 3 h -6 z"
       id="path92" />
    <path
       inkscape:connector-curvature="0"
       d="m 29,18 h 6 v 3 h -6 z"
       id="path94" />
    <path
       inkscape:connector-curvature="0"
       d="m 37,38 h 6 v 3 h -6 z"
       id="path96" />
    <path
       inkscape:connector-curvature="0"
       d="m 37,33 h 6 v 3 h -6 z"
       id="path98" />
    <path
       inkscape:connector-curvature="0"
       d="m 37,28 h 6 v 3 h -6 z"
       id="path100" />
    <path
       inkscape:connector-curvature="0"
       d="m 37,23 h 6 v 3 h -6 z"
       id="path102" />
    <path
       inkscape:connector-curvature="0"
       d="m 37,18 h 6 v 3 h -6 z"
       id="path104" />
    <path
       inkscape:connector-curvature="0"
       d="m 37,13 h 6 v 3 h -6 z"
       id="path106" />
    <path
       inkscape:connector-curvature="0"
       d="m 37,8 h 6 v 3 h -6 z"
       id="path108" />
  </g>
  <g
     id="g216"
     transform="scale(4)">
    <path
       inkscape:connector-curvature="0"
       style="fill:#933333"
       d="m 5,38 h 6 v 3 H 5 Z"
       id="path112" />
    <path
       inkscape:connector-curvature="0"
       style="fill:#933333"
       d="m 5,33 h 6 v 3 H 5 Z"
       id="path114" />
    <path
       inkscape:connector-curvature="0"
       style="fill:#933333"
       d="m 5,28 h 6 v 3 H 5 Z"
       id="path116" />
    <path
       inkscape:connector-curvature="0"
       style="fill:#f88383"
       d="m 5,23 h 6 v 3 H 5 Z"
       id="path118" />
    <path
       inkscape:connector-curvature="0"
       style="fill:#f88383"
       d="m 5,18 h 6 v 3 H 5 Z"
       id="path120" />
    <path
       inkscape:connector-curvature="0"
       style="fill:#e8aa34"
       d="m 13,38 h 6 v 3 h -6 z"
       id="path122" />
    <path
       inkscape:connector-curvature="0"
       style="fill:#e8aa34"
       d="m 13,33 h 6 v 3 h -6 z"
       id="path124" />
    <path
       inkscape:connector-curvature="0"
       style="fill:#e8aa34"
       d="m 13,28 h 6 v 3 h -6 z"
       id="path126" />
    <path
       inkscape:connector-curvature="0"
       style="fill:#76185e"
       d="m 21,38 h 6 v 3 h -6 z"
       id="path128" />
    <path
       inkscape:connector-curvature="0"
       style="fill:#76185e"
       d="m 21,33 h 6 v 3 h -6 z"
       id="path130" />
    <path
       inkscape:connector-curvature="0"
       style="fill:#76185e"
       d="m 21,28 h 6 v 3 h -6 z"
       id="path132" />
    <path
       inkscape:connector-curvature="0"
       style="fill:#e272c5"
       d="m 21,23 h 6 v 3 h -6 z"
       id="path134" />
    <path
       inkscape:connector-curvature="0"
       style="fill:#e272c5"
       d="m 21,18 h 6 v 3 h -6 z"
       id="path136" />
    <path
       inkscape:connector-curvature="0"
       style="fill:#e272c5"
       d="m 21,13 h 6 v 3 h -6 z"
       id="path138" />
    <path
       inkscape:connector-curvature="0"
       style="fill:#4ab225"
       d="m 29,38 h 6 v 3 h -6 z"
       id="path140" />
    <path
       inkscape:connector-curvature="0"
       style="fill:#4ab225"
       d="m 29,33 h 6 v 3 h -6 z"
       id="path142" />
    <path
       inkscape:connector-curvature="0"
       style="fill:#4ab225"
       d="m 29,28 h 6 v 3 h -6 z"
       id="path144" />
    <path
       inkscape:connector-curvature="0"
       style="fill:#98e97b"
       d="m 29,23 h 6 v 3 h -6 z"
       id="path146" />
    <path
       inkscape:connector-curvature="0"
       style="fill:#98e97b"
       d="m 29,18 h 6 v 3 h -6 z"
       id="path148" />
    <path
       inkscape:connector-curvature="0"
       style="fill:#0f3b95"
       d="m 37,38 h 6 v 3 h -6 z"
       id="path150" />
    <path
       inkscape:connector-curvature="0"
       style="fill:#0f3b95"
       d="m 37,33 h 6 v 3 h -6 z"
       id="path152" />
    <path
       inkscape:connector-curvature="0"
       style="fill:#0f3b95"
       d="m 37,28 h 6 v 3 h -6 z"
       id="path154" />
    <path
       inkscape:connector-curvature="0"
       style="fill:#4fc2e1"
       d="m 37,23 h 6 v 3 h -6 z"
       id="path156" />
    <path
       inkscape:connector-curvature="0"
       style="fill:#4fc2e1"
       d="m 37,18 h 6 v 3 h -6 z"
       id="path158" />
    <path
       inkscape:connector-curvature="0"
       style="fill:#4fc2e1"
       d="m 37,13 h 6 v 3 h -6 z"
       id="path160" />
    <path
       inkscape:connector-curvature="0"
       style="fill:#4fc2e1"
       d="m 37,8 h 6 v 3 h -6 z"
       id="path162" />
    <path
       inkscape:connector-curvature="0"
       style="fill:#933333"
       d="m 5,38 h 6 v 3 H 5 Z"
       id="path164" />
    <path
       inkscape:connector-curvature="0"
       style="fill:#933333"
       d="m 5,33 h 6 v 3 H 5 Z"
       id="path166" />
    <path
       inkscape:connector-curvature="0"
       style="fill:#933333"
       d="m 5,28 h 6 v 3 H 5 Z"
       id="path168" />
    <path
       inkscape:connector-curvature="0"
       style="fill:#f88383"
       d="m 5,23 h 6 v 3 H 5 Z"
       id="path170" />
    <path
       inkscape:connector-curvature="0"
       style="fill:#f88383"
       d="m 5,18 h 6 v 3 H 5 Z"
       id="path172" />
    <path
       inkscape:connector-curvature="0"
       style="fill:#e8aa34"
       d="m 13,38 h 6 v 3 h -6 z"
       id="path174" />
    <path
       inkscape:connector-curvature="0"
       style="fill:#e8aa34"
       d="m 13,33 h 6 v 3 h -6 z"
       id="path176" />
    <path
       inkscape:connector-curvature="0"
       style="fill:#e8aa34"
       d="m 13,28 h 6 v 3 h -6 z"
       id="path178" />
    <path
       inkscape:connector-curvature="0"
       style="fill:#76185e"
       d="m 21,38 h 6 v 3 h -6 z"
       id="path180" />
    <path
       inkscape:connector-curvature="0"
       style="fill:#76185e"
       d="m 21,33 h 6 v 3 h -6 z"
       id="path182" />
    <path
       inkscape:connector-curvature="0"
       style="fill:#76185e"
       d="m 21,28 h 6 v 3 h -6 z"
       id="path184" />
    <path
       inkscape:connector-curvature="0"
       style="fill:#e272c5"
       d="m 21,23 h 6 v 3 h -6 z"
       id="path186" />
    <path
       inkscape:connector-curvature="0"
       style="fill:#e272c5"
       d="m 21,18 h 6 v 3 h -6 z"
       id="path188" />
    <path
       inkscape:connector-curvature="0"
       style="fill:#e272c5"
       d="m 21,13 h 6 v 3 h -6 z"
       id="path190" />
    <path
       inkscape:connector-curvature="0"
       style="fill:#4ab225"
       d="m 29,38 h 6 v 3 h -6 z"
       id="path192" />
    <path
       inkscape:connector-curvature="0"
       style="fill:#4ab225"
       d="m 29,33 h 6 v 3 h -6 z"
       id="path194" />
    <path
       inkscape:connector-curvature="0"
       style="fill:#4ab225"
       d="m 29,28 h 6 v 3 h -6 z"
       id="path196" />
    <path
       inkscape:connector-curvature="0"
       style="fill:#98e97b"
       d="m 29,23 h 6 v 3 h -6 z"
       id="path198" />
    <path
       inkscape:connector-curvature="0"
       style="fill:#98e97b"
       d="m 29,18 h 6 v 3 h -6 z"
       id="path200" />
    <path
       inkscape:connector-curvature="0"
       style="fill:#0f3b95"
       d="m 37,38 h 6 v 3 h -6 z"
       id="path202" />
    <path
       inkscape:connector-curvature="0"
       style="fill:#0f3b95"
       d="m 37,33 h 6 v 3 h -6 z"
       id="path204" />
    <path
       inkscape:connector-curvature="0"
       style="fill:#0f3b95"
       d="m 37,28 h 6 v 3 h -6 z"
       id="path206" />
    <path
       inkscape:connector-curvature="0"
       style="fill:#4fc2e1"
       d="m 37,23 h 6 v 3 h -6 z"
       id="path208" />
    <path
       inkscape:connector-curvature="0"
       style="fill:#4fc2e1"
       d="m 37,18 h 6 v 3 h -6 z"
       id="path210" />
    <path
       inkscape:connector-curvature="0"
       style="fill:#4fc2e1"
       d="m 37,13 h 6 v 3 h -6 z"
       id="path212" />
    <path
       inkscape:connector-curvature="0"
       style="fill:#4fc2e1"
       d="m 37,8 h 6 v 3 h -6 z"
       id="path214" />
  </g>
  <path
     style="opacity:0.1;fill:#ffffff;stroke-width:4"
     d="M 20.398438 16 C 15.744838 16 12 19.568 12 24 L 12 25 C 12 20.568 15.744838 17 20.398438 17 L 171.60156 17 C 176.25516 17 180 20.568 180 25 L 180 24 C 180 19.568 176.25516 16 171.60156 16 L 20.398438 16 z "
     id="path218" />
</svg>
