<?xml version="1.0" encoding="UTF-8" standalone="no"?>
<svg
   xmlns:dc="http://purl.org/dc/elements/1.1/"
   xmlns:cc="http://creativecommons.org/ns#"
   xmlns:rdf="http://www.w3.org/1999/02/22-rdf-syntax-ns#"
   xmlns:svg="http://www.w3.org/2000/svg"
   xmlns="http://www.w3.org/2000/svg"
   xmlns:sodipodi="http://sodipodi.sourceforge.net/DTD/sodipodi-0.dtd"
   xmlns:inkscape="http://www.inkscape.org/namespaces/inkscape"
   width="192"
   height="192"
   version="1"
   id="svg14"
   sodipodi:docname="apps_firefox.svg"
   inkscape:version="0.92.3 (2405546, 2018-03-11)">
  <metadata
     id="metadata20">
    <rdf:RDF>
      <cc:Work
         rdf:about="">
        <dc:format>image/svg+xml</dc:format>
        <dc:type
           rdf:resource="http://purl.org/dc/dcmitype/StillImage" />
      </cc:Work>
    </rdf:RDF>
  </metadata>
  <defs
     id="defs18">
    <filter
       inkscape:collect="always"
       style="color-interpolation-filters:sRGB"
       id="filter844"
       x="-0.0492"
       width="1.0984"
       y="-0.046857143"
       height="1.0937143">
      <feGaussianBlur
         inkscape:collect="always"
         stdDeviation="3.28"
         id="feGaussianBlur846" />
    </filter>
  </defs>
  <sodipodi:namedview
     pagecolor="#ffffff"
     bordercolor="#666666"
     borderopacity="1"
     objecttolerance="10"
     gridtolerance="10"
     guidetolerance="10"
     inkscape:pageopacity="0"
     inkscape:pageshadow="2"
     inkscape:window-width="1920"
     inkscape:window-height="1018"
     id="namedview16"
     showgrid="false"
     inkscape:zoom="3.52"
     inkscape:cx="96"
     inkscape:cy="96"
     inkscape:window-x="0"
     inkscape:window-y="32"
     inkscape:window-maximized="1"
     inkscape:current-layer="svg14" />
  <path
     inkscape:connector-curvature="0"
     id="path2"
     d="M 134.2198,25.642158 C 122.87632,19.489755 109.86069,16 96,16 71.89114,16 50.338912,26.557927 35.695792,43.321296 33.78324,105.64192 103.92936,174.1656 134.16229,152.20573 c 17.14869,-12.45606 5.90541,-86.448326 0.0575,-126.563574 z"
     style="fill:#3a68b6;stroke-width:4" />
  <path
     style="opacity:0.1;fill:#ffffff;stroke-width:4"
     d="M 96 16 C 51.68 16 16 51.68 16 96 C 16 96.336 16.002 96.6675 16 97 C 16 52.68 51.68 17 96 17 C 140.32 17 176 52.68 176 97 C 175.998 96.6675 176 96.336 176 96 C 176 51.68 140.32 16 96 16 z "
     id="path4" />
  <path
     inkscape:connector-curvature="0"
     id="path6"
     d="m 124.10938,12 -0.95313,1.1875 c -0.164,0.2036 -0.3246,0.41044 -0.49219,0.625 -3.7016,4.90984 -5.80578,10.455942 -8.01778,16.414062 -0.8432,2.28592 -1.73718,5.733323 -2.23438,8.601563 -0.4984,2.876123 -0.54212,9.266571 -0.0781,11.781251 1.2264,6.66144 4.03164,12.93852 8.14844,18.25 4.772,5.19596 9.95958,10.92316 11.89278,15.10156 2.658,5.74892 3.78125,10.866564 3.78125,17.226564 0,1.91708 -0.10944,3.8877 -0.27344,5.0625 C 131.85365,125.08988 118.51314,139.89903 99.79016,140 87.938052,140.04444 72,136 69.85158,123.7575 c 5.708892,0.8694 9.98884,0.5583 14.066456,0.5294 3.768084,-0.0268 7.363388,-0.83605 11.753856,-3.16559 6.541598,-3.49288 9.779888,-4.13709 11.569888,-3.92969 2.6376,0.3056 2.97008,0.29948 3.54688,-0.0625 1.2232,-0.76752 1.57398,-1.07556 0.86718,-2.53568 -0.8924,-1.8434 -4.02324,-4.41767 -6.64844,-5.46875 -2.1988,-0.88044 -3.39644,-1.09996 -6.031244,-1.10156 -2.6832,-0.002 -4.958852,0.12736 -9.796452,1.59375 -4.8292,1.46404 -7.505976,1.68396 -10.484376,0.85156 C 66.308108,107.50362 60.0184,96.50308 66.048,88.464 69.6744,88.2968 77.03998,90.73596 79.336,92.30436 81.5328,90.14552 76.76478,86.824056 76,83.788736 76,80 83.719832,77.794472 86.89064,76.36686 c 2.0888,-0.93744 4.12544,-1.899652 4.52344,-2.132812 0.8648,-0.50696 2.532136,-2.125388 3.210936,-3.117188 1.0356,-1.51408 1.715676,-4.317884 1.296876,-5.328124 -0.5256,-1.26964 -4.061188,-2.059792 -12.617188,-2.820312 -3.2292,-0.2872 -5.438224,-1.763508 -7.140624,-4.765628 -2.98242,-6.89604 7.579772,-13.455688 11.359372,-16.929688 -6.0116,-3.28112 -17.185624,2.4747 -20.765624,5.83594 -1.1468,1.13484 -0.796236,1.117444 -4.273436,0.20312 -0.232,-0.0612 -0.472352,-0.11508 -0.718752,-0.17188 -0.088,-0.02 -0.17764,-0.04332 -0.26564,-0.06252 -0.16,-0.036 -0.3282,-0.06836 -0.492188,-0.10156 -0.116,-0.024 -0.23156,-0.04752 -0.35156,-0.07032 -0.136,-0.024 -0.26944,-0.05372 -0.406248,-0.07812 -0.144,-0.024 -0.28488,-0.04632 -0.429688,-0.07032 -0.104,-0.016 -0.20852,-0.0296 -0.31252,-0.04688 -0.9208,-0.1452 -1.882764,-0.26976 -2.851564,-0.35936 -1.0596,-0.0976 -2.122036,-0.16272 -3.148436,-0.18748 -0.308,-0.008 -0.614864,-0.008 -0.91406,-0.008 -0.324,-6.8e-4 -0.635716,-4.24e-4 -0.945316,0.008 -0.06,0.0016 -0.11968,0.0038 -0.17968,0.008 -0.26,0.008 -0.516428,0.0192 -0.765628,0.0312 -0.04,0.002 -0.06956,0.0038 -0.10156,0.008 -0.276,0.016 -0.539676,0.0376 -0.796876,0.06252 -0.04,0.002 -0.04248,0.0038 -0.06252,0.008 -0.264,0.024 -0.5092,0.06016 -0.75,0.09376 h -0.008 c -0.108,0.016 -0.22412,0.0288 -0.32812,0.04688 -1.146,-0.004 -2.196948,0.32088 -3.093748,0.734372 C 42.552688,42.073944 41.822964,33.08976 39.484163,28 c -5.4704,2.86684 -9.217637,16.956224 -10.148437,21.758024 -0.356,1.90948 -0.763626,5.617408 -0.765626,6.929688 -3.64e-4,0.18888 -0.04751,0.26248 -0.05469,0.39844 C 20.611604,69.49024 16,84.20142 16,100 c 0,44.18278 35.81722,80 80,80 44.18278,0 80,-35.81722 80,-80 0,-28 -12.5389,-42.386056 -24.95312,-62.039064 0,-0.012 9.3e-4,-0.01924 -0.0392,-0.03124 -1.82961,-2.736248 -3.41298,-5.740063 -4.69532,-8.718738 -0.2,-0.65664 -0.43744,-1.195313 -0.52344,-1.195313 -0.04,0 -0.077,0.02592 -0.125,0.07031 -1.61307,1.949913 -2.393,9.543574 -3.2578,11.914043 -6.24398,-8.648776 -13.98481,-17.246118 -18.06237,-26.828125 z"
     style="opacity:0.2;stroke-width:4;filter:url(#filter844)" />
  <path
     inkscape:connector-curvature="0"
     id="path8"
     d="m 124.10938,8 -0.95313,1.1875 c -0.164,0.2036 -0.3246,0.41044 -0.49219,0.625 -3.7016,4.90984 -5.80578,10.455942 -8.01778,16.414062 -0.8432,2.28592 -1.73718,5.733323 -2.23438,8.601563 -0.4984,2.876121 -0.54212,9.266571 -0.0781,11.781251 1.2264,6.66144 4.03164,12.93852 8.14844,18.25 4.772,5.19596 9.95958,10.92316 11.89278,15.10156 2.658,5.74892 3.78125,10.866564 3.78125,17.226564 0,1.91708 -0.10944,3.8877 -0.27344,5.0625 C 131.85365,121.08988 118.51314,135.89903 99.79016,136 87.938052,136.04444 72,132 69.85158,119.7575 c 5.708892,0.8694 9.98884,0.5583 14.066456,0.5294 3.768084,-0.0268 7.363388,-0.83605 11.753856,-3.16559 6.541598,-3.49288 9.779888,-4.13709 11.569888,-3.92969 2.6376,0.3056 2.97008,0.29948 3.54688,-0.0625 1.2232,-0.76752 1.57398,-1.07556 0.86718,-2.53568 -0.8924,-1.8434 -4.02324,-4.41767 -6.64844,-5.46875 -2.1988,-0.88044 -3.39644,-1.09996 -6.031244,-1.10156 -2.6832,-0.002 -4.958852,0.12736 -9.796452,1.59375 -4.8292,1.46404 -7.505976,1.68396 -10.484376,0.85156 C 66.308108,103.50362 60.0184,92.50308 66.048,84.464 69.6744,84.2968 77.03998,86.73596 79.336,88.30436 81.5328,86.14552 76.76478,82.824056 76,79.788736 76,76 83.719832,73.794472 86.89064,72.36686 c 2.0888,-0.93744 4.12544,-1.899652 4.52344,-2.132812 0.8648,-0.50696 2.532136,-2.125388 3.210936,-3.117188 1.0356,-1.51408 1.715676,-4.317884 1.296876,-5.328124 -0.5256,-1.26964 -4.061188,-2.059792 -12.617188,-2.820312 -3.2292,-0.2872 -5.438224,-1.763508 -7.140624,-4.765628 -2.98242,-6.89604 7.579772,-13.455688 11.359372,-16.929686 -6.0116,-3.281122 -17.185624,2.474698 -20.765624,5.835938 -1.1468,1.13484 -0.796236,1.117444 -4.273436,0.20312 -0.232,-0.0612 -0.472352,-0.11508 -0.718752,-0.17188 -0.088,-0.02 -0.17764,-0.04332 -0.26564,-0.06252 -0.16,-0.036 -0.3282,-0.06836 -0.492188,-0.10156 -0.116,-0.024 -0.23156,-0.04752 -0.35156,-0.07032 -0.136,-0.024 -0.26944,-0.05372 -0.406248,-0.07812 -0.144,-0.024 -0.28488,-0.04632 -0.429688,-0.07032 -0.104,-0.016 -0.20852,-0.0296 -0.31252,-0.04688 -0.9208,-0.1452 -1.882764,-0.26976 -2.851564,-0.35936 -1.0596,-0.0976 -2.122036,-0.16272 -3.148436,-0.18748 -0.308,-0.008 -0.614864,-0.008 -0.91406,-0.008 -0.324,-6.8e-4 -0.635716,-4.24e-4 -0.945316,0.008 -0.06,0.0016 -0.11968,0.0038 -0.17968,0.008 -0.26,0.008 -0.516428,0.0192 -0.765628,0.0312 -0.04,0.002 -0.06956,0.0038 -0.10156,0.008 -0.276,0.016 -0.539676,0.0376 -0.796876,0.06252 -0.04,0.002 -0.04248,0.0038 -0.06252,0.008 -0.264,0.024 -0.5092,0.06016 -0.75,0.09376 h -0.008 c -0.108,0.016 -0.22412,0.0288 -0.32812,0.04688 -1.146,-0.004 -2.196948,0.32088 -3.093748,0.734372 C 42.552688,38.073943 41.822964,29.08976 39.484163,24 c -5.4704,2.86684 -9.217637,16.956224 -10.148437,21.758024 -0.356,1.90948 -0.763626,5.617408 -0.765626,6.929688 -3.64e-4,0.18888 -0.04751,0.26248 -0.05469,0.39844 C 20.611604,65.49024 16,80.20142 16,96 c 0,44.18278 35.81722,80 80,80 44.18278,0 80,-35.81722 80,-80 0,-28 -12.5389,-42.386056 -24.95312,-62.039064 0,-0.012 9.3e-4,-0.01924 -0.0392,-0.03124 -1.82961,-2.736248 -3.41298,-5.740063 -4.69532,-8.718738 -0.2,-0.65664 -0.43744,-1.195313 -0.52344,-1.195313 -0.04,0 -0.077,0.02592 -0.125,0.07031 -1.61307,1.949913 -2.393,9.543574 -3.2578,11.914043 C 136.16214,27.351222 128.42131,18.75388 124.34375,9.1718732 Z"
     style="fill:#ee7655;stroke-width:4" />
  <path
     style="fill:#ffffff;stroke-width:4;opacity:0.2"
     d="M 124.10938 8 L 123.15625 9.1875 C 122.99225 9.3911 122.83165 9.59794 122.66406 9.8125 C 118.96246 14.72234 116.85848 20.268442 114.64648 26.226562 C 113.80328 28.512483 112.90931 31.959885 112.41211 34.828125 C 112.13923 36.402839 112.01696 39.003882 112.02539 41.472656 C 112.05272 39.329302 112.17719 37.1838 112.41211 35.828125 C 112.90931 32.959885 113.80328 29.512483 114.64648 27.226562 C 116.85848 21.268442 118.96246 15.72234 122.66406 10.8125 C 122.83165 10.59794 122.99225 10.3911 123.15625 10.1875 L 124.10938 9 L 124.34375 10.171875 C 128.42131 19.753882 136.16227 28.351224 142.40625 37 C 143.27105 34.629531 144.05099 27.03585 145.66406 25.085938 C 145.71206 25.041547 145.74906 25.015625 145.78906 25.015625 C 145.87506 25.015625 146.1125 25.554298 146.3125 26.210938 C 147.59484 29.189613 149.1782 32.19344 151.00781 34.929688 C 151.04794 34.941688 151.04688 34.948937 151.04688 34.960938 C 163.39195 54.504476 175.85562 68.845261 175.99414 96.539062 C 175.99533 96.359083 176 96.18026 176 96 C 176 68 163.4611 53.613946 151.04688 33.960938 C 151.04688 33.948937 151.04794 33.941688 151.00781 33.929688 C 149.1782 31.19344 147.59484 28.189613 146.3125 25.210938 C 146.1125 24.554298 145.87506 24.015625 145.78906 24.015625 C 145.74906 24.015625 145.71206 24.041547 145.66406 24.085938 C 144.05099 26.03585 143.27105 33.629531 142.40625 36 C 136.16227 27.351224 128.42131 18.753882 124.34375 9.171875 L 124.10938 8 z M 39.484375 24 C 34.013975 26.86684 30.266738 40.956012 29.335938 45.757812 C 28.979937 47.667293 28.572312 51.37522 28.570312 52.6875 C 28.569948 52.87638 28.522805 52.949977 28.515625 53.085938 C 20.611819 65.490026 16 80.20142 16 96 C 16 96.201165 16.00633 96.400747 16.007812 96.601562 C 16.084941 80.954679 20.678558 66.385287 28.515625 54.085938 C 28.522805 53.949977 28.569948 53.87638 28.570312 53.6875 C 28.572312 52.37522 28.979937 48.667293 29.335938 46.757812 C 30.266738 41.956012 34.013975 27.86684 39.484375 25 C 41.823176 30.08976 42.5529 39.073733 45.5625 44.15625 C 46.4593 43.742758 47.51025 43.417875 48.65625 43.421875 C 48.76025 43.403795 48.876375 43.391 48.984375 43.375 L 48.992188 43.375 C 49.232988 43.3414 49.478187 43.30525 49.742188 43.28125 C 49.762227 43.27705 49.764688 43.275438 49.804688 43.273438 C 50.061887 43.248517 50.325562 43.226937 50.601562 43.210938 C 50.633562 43.206738 50.663125 43.205125 50.703125 43.203125 C 50.952325 43.191125 51.20875 43.179875 51.46875 43.171875 C 51.52875 43.167675 51.588437 43.165663 51.648438 43.164062 C 51.958037 43.155639 52.26975 43.15557 52.59375 43.15625 C 52.892946 43.15625 53.199813 43.156062 53.507812 43.164062 C 54.534212 43.188823 55.59665 43.253963 56.65625 43.351562 C 57.62505 43.441162 58.587013 43.565737 59.507812 43.710938 C 59.611813 43.728217 59.716313 43.741813 59.820312 43.757812 C 59.965121 43.781813 60.106 43.804125 60.25 43.828125 C 60.386808 43.852525 60.52025 43.88225 60.65625 43.90625 C 60.77625 43.92905 60.891813 43.952562 61.007812 43.976562 C 61.1718 44.009763 61.34 44.042125 61.5 44.078125 C 61.588 44.097325 61.677625 44.120625 61.765625 44.140625 C 62.012025 44.197425 62.252375 44.2513 62.484375 44.3125 C 65.961575 45.226824 65.611013 45.244215 66.757812 44.109375 C 70.191673 40.885345 80.609688 35.464101 86.759766 37.921875 C 87.011806 37.707316 87.310735 37.468941 87.523438 37.273438 C 81.511837 33.992316 70.337812 39.748135 66.757812 43.109375 C 65.611013 44.244215 65.961575 44.226824 62.484375 43.3125 C 62.252375 43.2513 62.012025 43.197425 61.765625 43.140625 C 61.677625 43.120625 61.588 43.097325 61.5 43.078125 C 61.34 43.042125 61.1718 43.009763 61.007812 42.976562 C 60.891813 42.952562 60.77625 42.92905 60.65625 42.90625 C 60.52025 42.88225 60.386808 42.852525 60.25 42.828125 C 60.106 42.804125 59.965121 42.781813 59.820312 42.757812 C 59.716313 42.741813 59.611813 42.728217 59.507812 42.710938 C 58.587013 42.565737 57.62505 42.441163 56.65625 42.351562 C 55.59665 42.253963 54.534212 42.188823 53.507812 42.164062 C 53.199813 42.156062 52.892946 42.15625 52.59375 42.15625 C 52.26975 42.15557 51.958037 42.155639 51.648438 42.164062 C 51.588437 42.165663 51.52875 42.167675 51.46875 42.171875 C 51.20875 42.179875 50.952325 42.191125 50.703125 42.203125 C 50.663125 42.205125 50.633562 42.206737 50.601562 42.210938 C 50.325562 42.226937 50.061887 42.248517 49.804688 42.273438 C 49.764688 42.275438 49.762227 42.27705 49.742188 42.28125 C 49.478187 42.30525 49.232988 42.3414 48.992188 42.375 L 48.984375 42.375 C 48.876375 42.391 48.76025 42.403795 48.65625 42.421875 C 47.51025 42.417875 46.4593 42.742758 45.5625 43.15625 C 42.5529 38.073733 41.823176 29.08976 39.484375 24 z M 75.664062 52.246094 C 75.591137 53.219472 75.733448 54.207446 76.164062 55.203125 C 77.866463 58.205245 80.075487 59.68155 83.304688 59.96875 C 91.860687 60.72927 95.396275 61.519422 95.921875 62.789062 C 95.963501 62.889473 95.987168 63.019524 96.007812 63.152344 C 96.06562 62.590891 96.050883 62.100259 95.921875 61.789062 C 95.396275 60.519422 91.860687 59.72927 83.304688 58.96875 C 80.075487 58.68155 77.866463 57.205245 76.164062 54.203125 C 75.880168 53.546695 75.720034 52.894056 75.664062 52.246094 z M 76.095703 80.078125 C 76.034998 80.309107 76 80.545174 76 80.789062 C 76.571748 83.058263 79.379995 85.486995 79.84375 87.470703 C 80.411769 85.42096 76.948771 82.663947 76.095703 80.078125 z M 63.748047 91.730469 C 63.46247 98.401625 69.336433 105.22875 78.695312 107.46875 C 81.673712 108.30115 84.350487 108.08123 89.179688 106.61719 C 94.017288 105.1508 96.293363 105.02144 98.976562 105.02344 C 101.61137 105.02504 102.80901 105.24456 105.00781 106.125 C 107.63301 107.17608 110.76385 109.75035 111.65625 111.59375 C 111.76656 111.82163 111.8409 112.01352 111.90039 112.19141 C 112.09912 111.82302 112.03429 111.37471 111.65625 110.59375 C 110.76385 108.75035 107.63301 106.17608 105.00781 105.125 C 102.80901 104.24456 101.61137 104.02504 98.976562 104.02344 C 96.293363 104.02144 94.017288 104.1508 89.179688 105.61719 C 84.350487 107.08123 81.673712 107.30115 78.695312 106.46875 C 69.803861 104.34063 64.055331 98.071981 63.748047 91.730469 z M 136.14453 97.642578 C 136.12858 99.40731 136.03354 101.17031 135.88281 102.25 C 131.85363 121.08988 118.514 135.89903 99.791016 136 C 88.278414 136.04317 72.914234 132.22598 70.074219 120.78711 C 69.9982 120.77588 69.928092 120.76947 69.851562 120.75781 C 71.999982 133.00031 87.938908 137.04444 99.791016 137 C 118.514 136.89903 131.85363 122.08988 135.88281 103.25 C 136.04681 102.0752 136.15625 100.10458 136.15625 98.1875 C 136.15625 98.001583 136.14646 97.826419 136.14453 97.642578 z "
     id="path851" />
</svg>
