<?xml version="1.0" encoding="UTF-8" standalone="no"?>
<svg
   xmlns:dc="http://purl.org/dc/elements/1.1/"
   xmlns:cc="http://creativecommons.org/ns#"
   xmlns:rdf="http://www.w3.org/1999/02/22-rdf-syntax-ns#"
   xmlns:svg="http://www.w3.org/2000/svg"
   xmlns="http://www.w3.org/2000/svg"
   xmlns:sodipodi="http://sodipodi.sourceforge.net/DTD/sodipodi-0.dtd"
   xmlns:inkscape="http://www.inkscape.org/namespaces/inkscape"
   width="192"
   height="192"
   version="1"
   id="svg14"
   sodipodi:docname="apps_adblock_browser.svg"
   inkscape:version="0.92.3 (2405546, 2018-03-11)">
  <metadata
     id="metadata20">
    <rdf:RDF>
      <cc:Work
         rdf:about="">
        <dc:format>image/svg+xml</dc:format>
        <dc:type
           rdf:resource="http://purl.org/dc/dcmitype/StillImage" />
      </cc:Work>
    </rdf:RDF>
  </metadata>
  <defs
     id="defs18">
    <filter
       inkscape:collect="always"
       style="color-interpolation-filters:sRGB"
       id="filter829"
       x="-0.047999999"
       width="1.096"
       y="-0.048000001"
       height="1.096">
      <feGaussianBlur
         inkscape:collect="always"
         stdDeviation="3.2000027"
         id="feGaussianBlur831" />
    </filter>
    <filter
       inkscape:collect="always"
       style="color-interpolation-filters:sRGB"
       id="filter861"
       x="-0.047370179"
       width="1.0947404"
       y="-0.048646795"
       height="1.0972936">
      <feGaussianBlur
         inkscape:collect="always"
         stdDeviation="3.1553909"
         id="feGaussianBlur863" />
    </filter>
  </defs>
  <sodipodi:namedview
     pagecolor="#ffffff"
     bordercolor="#666666"
     borderopacity="1"
     objecttolerance="10"
     gridtolerance="10"
     guidetolerance="10"
     inkscape:pageopacity="0"
     inkscape:pageshadow="2"
     inkscape:window-width="1920"
     inkscape:window-height="1018"
     id="namedview16"
     showgrid="false"
     inkscape:zoom="1"
     inkscape:cx="47.193634"
     inkscape:cy="85.38992"
     inkscape:window-x="0"
     inkscape:window-y="32"
     inkscape:window-maximized="1"
     inkscape:current-layer="svg14" />
  <path
     inkscape:connector-curvature="0"
     id="path2"
     d="m 68.171876,18.999922 a 12.0012,12.0012 0 0 0 -8.492188,3.484375 L 19.757812,62.101485 a 12.0012,12.0012 0 0 0 -3.546874,8.47656 L 16,126.82805 a 12.0012,12.0012 0 0 0 3.484375,8.49219 l 39.625001,39.92969 a 12.0012,12.0012 0 0 0 8.468748,3.54687 l 56.249996,0.20312 a 12.0012,12.0012 0 0 0 8.5,-3.48437 l 39.91407,-39.625 a 12.0012,12.0012 0 0 0 3.54687,-8.46875 L 176,71.171797 a 12.0012,12.0012 0 0 0 -3.48438,-8.5 l -39.625,-39.914062 a 12.0012,12.0012 0 0 0 -3.96874,-2.648438 12.0012,12.0012 0 0 0 -4.5,-0.898437 z"
     style="opacity:0.2;stroke-width:4;filter:url(#filter829)" />
  <path
     inkscape:connector-curvature="0"
     id="path4"
     d="m 68.171876,16 a 12.0012,12.0012 0 0 0 -8.492188,3.484375 L 19.757812,59.101564 a 12.0012,12.0012 0 0 0 -3.546874,8.47656 L 16,123.82812 a 12.0012,12.0012 0 0 0 3.484375,8.49219 L 59.109376,172.25 a 12.0012,12.0012 0 0 0 8.468748,3.54688 L 123.82812,176 a 12.0012,12.0012 0 0 0 8.5,-3.48438 l 39.91407,-39.625 a 12.0012,12.0012 0 0 0 3.54687,-8.46874 L 176,68.171876 a 12.0012,12.0012 0 0 0 -3.48438,-8.5 l -39.625,-39.914064 a 12.0012,12.0012 0 0 0 -3.96874,-2.648437 12.0012,12.0012 0 0 0 -4.5,-0.898437 z"
     style="fill:#008fc5;stroke-width:4" />
  <path
     inkscape:connector-curvature="0"
     id="path6"
     d="m 68.171876,20.172175 a 12.0012,12.0012 0 0 0 -8.492188,3.484375 l -3.914064,3.882812 c 0.41448,0.848653 0.628324,1.542495 0.32032,1.8125 -1.046616,0.917843 -1.906248,2.353021 -1.906248,3.1875 0,2.55065 2.281544,6.462171 4.10156,7.03125 2.41688,0.757072 1.602608,3.370664 -1.507812,4.8125 -1.437516,0.667756 -3.206724,2.585608 -3.929684,4.265624 -0.727168,1.684272 -1.794948,3.342988 -2.375,3.6875 -0.575852,0.34872 -1.054688,1.666484 -1.054688,2.929688 0,1.765084 0.803236,2.620644 3.421872,3.679688 1.87466,0.761328 4.1143,1.311628 4.984376,1.226564 5.006088,-0.47636 5.359976,2.474836 0.984376,8.242188 -2.324408,3.062308 -3.446616,3.832352 -5.031252,3.445312 -1.475348,-0.35728 -2.2806,0.06676 -2.953124,1.546872 -0.706148,1.569432 -1.861944,2.103404 -4.97656,2.320316 -3.064184,0.21692 -4.438444,0.842032 -5.58594,2.53906 -0.840653,1.237688 -2.052212,2.242188 -2.695312,2.242188 -0.64478,0 -2.160009,0.831488 -3.367188,1.843752 -2.45639,2.062804 -3.412188,2.270144 -4.273437,0.921872 -1.138246,-1.786348 -3.595258,-0.87886 -7.25,2.664064 -3.232314,3.130364 -3.620392,3.969704 -3.132813,6.6875 0.867555,4.835904 3.454121,9.12787 6.414063,10.625 2.582909,1.30573 2.636451,1.44142 1.070313,3.11719 -0.90076,0.96548 -2.444442,2.00271 -3.429688,2.30469 -2.845613,0.87615 -1.249424,1.97 3.828125,2.625 5.196921,0.66775 6.818433,2.57316 4.390625,5.17187 -1.353873,1.45035 -1.282044,1.72352 0.890625,3.10156 4.245301,2.69653 7.625327,1.04288 3.640625,-1.78125 -2.561053,-1.81612 -0.774188,-2.55286 2.984375,-1.23437 2.996935,1.05054 3.589799,0.99417 5.359375,-0.5625 3.635824,-3.18565 7.590412,1.52245 4.265624,5.07812 -2.11424,2.26697 -1.474912,4.99646 1.265628,5.375 1.21054,0.16588 3.719688,1.30989 5.585936,2.53907 1.866252,1.22492 3.901944,2.23437 4.515624,2.23437 0.61368,0 2.346792,1.24298 3.851564,2.76563 3.051572,3.08358 4.747708,3.47807 5.609372,1.30468 1.034004,-2.61147 0.614892,-3.96399 -2.171872,-7.03906 -2.215124,-2.44985 -5.820312,-8.9547 -5.820312,-10.51562 0,-0.96123 3.65974,-0.14288 5.710936,1.27343 1.281996,0.88893 3.360412,2.02799 4.617188,2.54688 1.336644,0.55292 2.72468,2.27633 3.359376,4.15625 0.987768,2.95172 1.377884,3.20312 4.875,3.20312 h 3.804684 l 0.570316,6.91406 c 0.689336,8.31504 1.35148,9.99492 4.171872,10.67969 2.07642,0.50613 4.289064,3.76127 4.289064,6.30469 0,0.67626 -1.488284,2.33923 -3.3125,3.6875 -2.26136,1.67151 -3.237256,3.08577 -3.085936,4.47656 0.18912,1.73956 -0.19912,2.01101 -2.632816,1.82813 -1.567812,-0.11908 -4.298316,0.44258 -6.046872,1.24219 -2.072212,0.94421 -4.31604,1.24216 -6.421876,0.85937 -2.421084,-0.43808 -3.234376,-0.26168 -3.234376,0.69531 0,0.70603 -0.848804,2.01951 -1.882812,2.92969 -2.555588,2.24144 -1.503976,3.43329 2.421876,2.71875 2.437896,-0.44233 3.38436,-0.2508 3.804688,0.8125 0.483852,1.22056 0.034,2.70793 -0.804688,3.75 l 8.851564,0.0312 c 2.498536,-0.82282 1.93888,-2.60742 -1.179688,-2.96875 -2.896052,-0.33176 -5.97456,-3.30191 -5.007816,-4.82031 0.651512,-1.01652 3.420484,-0.86745 9.02344,0.47656 2.530364,0.60395 4.253624,-0.61116 10.117188,-7.10156 3.392032,-3.75984 6.004764,-5.32813 8.867186,-5.32813 1.09285,0 4.99041,-1.01587 8.66406,-2.25781 6.93539,-2.35203 9.64703,-2.26778 9.39063,0.29688 -0.52962,5.33352 2.86332,5.15903 8.39062,-0.42969 2.30339,-2.3265 4.40648,-4.01371 4.67969,-3.75 1.05502,1.02502 -0.84317,6.01879 -3.0625,8.03907 -2.81198,2.56042 -2.95229,4.17291 -0.47656,5.45312 1.35345,0.70604 1.92625,2.13328 2.14062,5.33594 l 0.22656,3.4375 39.625,-39.33594 a 12.0012,12.0012 0 0 0 3.54688,-8.46875 l 0.1172,-32.210938 c -3.64813,-0.17684 -6.59375,-1.659664 -6.59375,-3.585936 0,-0.455092 -1.50692,-2.330936 -3.34375,-4.164064 -2.08482,-2.075568 -3.15479,-3.906652 -2.84375,-4.859372 0.2858,-0.867652 -0.3218,-2.270288 -1.40625,-3.218752 -1.05503,-0.9272 -1.92187,-2.419324 -1.92187,-3.3125 0,-1.42482 -0.89777,-1.602684 -7.375,-1.445312 l -7.375,0.18748 0.1328,7.351564 c 0.21856,12.87872 2.11419,16.218876 7.96093,14.0625 2.67749,-0.991 9.25455,-0.23576 11.125,1.265624 0.67673,0.544412 1.65487,2.5114 2.17188,4.382812 0.5212,1.867164 2.44803,5.107684 4.28906,7.187504 3.7241,4.21918 4.01027,5.86176 1.875,10.8125 -1.86204,4.32126 -3.86806,3.82765 -3.46875,-0.85938 l 0.28908,-3.49219 -3.14844,0.60157 c -1.74436,0.336 -3.9347,1.63315 -4.91406,2.92187 -1.39549,1.83314 -2.04714,2.10351 -3.09375,1.26563 -0.73137,-0.58695 -1.32031,-1.8235 -1.32031,-2.74219 0,-0.91869 -0.89934,-1.94524 -1.99219,-2.28125 -1.09705,-0.336 -2.60037,-2.00471 -3.33594,-3.71875 -1.18112,-2.73907 -1.14789,-3.57242 0.22656,-6.89844 1.39129,-3.37279 1.39918,-3.933494 0.1172,-5.179686 -1.17691,-1.13986 -1.78132,-1.182152 -3.32812,-0.2422 -1.55521,0.93996 -2.29119,0.87188 -4.14063,-0.3828 -1.23155,-0.837884 -3.38576,-1.523436 -4.78125,-1.523436 -2.83721,0 -3.69531,-1.396644 -3.69531,-6.015628 0,-4.265972 -2.51455,-5.814984 -8.5,-5.257812 -4.15283,0.38704 -5.07187,0.11148 -8.42187,-2.5 -2.07221,-1.611964 -5.33994,-5.493944 -7.27344,-8.632812 -1.93351,-3.138872 -4.01553,-6.413596 -4.625,-7.281252 -0.87428,-1.254696 -0.66385,-2.459672 1.04687,-5.875 l 2.16406,-4.296872 -4.56249,0.625 c -8.120726,1.110088 -9.766362,2.17338 -6.273442,4.070312 1.361862,0.735804 1.418002,1.114572 0.3672,2.343748 -0.689332,0.7996 -1.009368,2.0675 -0.710936,2.820316 0.29844,0.748564 -0.07932,2.521872 -0.83594,3.929684 -0.760792,1.412068 -1.39666,3.389736 -1.421872,4.406252 -0.07988,3.168644 -5.444828,5.687568 -11.421876,5.35156 -9.05384,-0.506128 -9.7845,-0.36352 -13,2.656252 -4.018324,3.776852 -4.542328,5.53442 -2.671876,9.039064 1.811612,3.402568 5.03584,4.76508 10.609376,4.484372 4.985072,-0.25096 5.545332,0.18892 4.406248,3.52344 -0.970956,2.832638 -4.222972,3.925588 -6.429688,2.156248 -1.69812,-1.36528 -7.548952,-0.31156 -9.343748,1.6875 -0.752388,0.83363 -1.874904,3.0298 -2.484376,4.86719 -1.05082,3.17289 -1.354844,3.36877 -6.0625,3.82812 -4.699256,0.4636 -5.151816,0.30792 -8.531248,-2.84375 -3.770332,-3.51315 -4.409564,-6.20063 -2.593752,-10.82812 0.807032,-2.050048 1.402612,-2.38418 3.554688,-1.984376 4.262116,0.786844 5.945312,-0.714092 5.945312,-5.320312 0,-2.232936 -0.435532,-4.31808 -0.960936,-4.632812 -0.521204,-0.31476 -0.945312,-1.497204 -0.945312,-2.632816 0,-1.135604 -0.535992,-2.599948 -1.1875,-3.242184 -0.954144,-0.935704 -0.81846,-1.43462 0.703124,-2.52344 1.042412,-0.744312 2.753868,-1.244784 3.804688,-1.117188 1.046608,0.1276 3.944964,-0.33868 6.4375,-1.023436 3.602204,-0.982496 4.66086,-1.722424 5.148436,-3.640624 0.92472,-3.640744 3.186656,-6.5625 5.078124,-6.5625 2.988528,0 3.045072,-7.10932 0.14064,-17.453124 -0.428708,-1.526892 -1.6105,-2.500296 -3.695312,-3.02344 -1.68972,-0.42532 -3.523296,-1.590844 -4.078128,-2.593748 -0.550628,-1.00291 -1.564868,-1.820314 -2.25,-1.820314 -0.685136,0 -2.023012,-0.829785 -2.968748,-1.84375 -0.954144,-1.02077 -2.92912,-1.84375 -4.429688,-1.84375 -3.55176,0 -3.60824,-2.476365 -0.08596,-3.78125 3.719896,-1.379741 9.514376,0.429429 10.914064,3.40625 1.895676,4.03672 4.002964,2.356488 4.679688,-3.742188 0.836452,-7.543064 3.40752,-9.710937 11.515624,-9.710937 h 5.828128 l -1.242228,-1.257749 z m 47.632814,0.179688 c -1.77425,0.513764 -3.23965,0.863089 -3.82031,0.773438 -5.2625,-0.811938 -4.58354,1.332947 1.24218,3.921875 3.14826,1.399731 5.17004,2.994856 5.85938,4.609375 3.32058,7.790176 5.61032,11.98093 6.75781,12.40625 2.3202,0.8634 3.70175,-0.867584 4.21875,-5.296875 0.59266,-5.081734 2.29218,-6.161008 5.34375,-3.382813 1.18533,1.078188 2.83542,1.960938 3.67187,1.960938 2.61023,0 4.53907,1.060133 4.53907,2.492187 0,0.75452 0.88851,2.575691 1.96875,4.046875 1.59304,2.164884 2.67252,2.679688 5.64844,2.679688 0.82014,0 1.5533,0.04968 2.27343,0.1328 L 132.89062,23.929988 a 12.0012,12.0012 0 0 0 -3.96874,-2.648438 12.0012,12.0012 0 0 0 -4.5,-0.898438 z m -99.726566,86.015627 -0.03906,11.38281 c 1.145434,-0.008 1.59636,-0.845 1.804687,-2.73438 0.163504,-1.48437 0.932493,-3.16731 1.710938,-3.75 1.202562,-0.89742 0.986973,-1.36121 -1.476563,-3.0625 -0.711619,-0.49156 -1.406496,-1.15048 -2,-1.83593 z m 22.398438,22.16406 c -0.786008,-0.0808 -1.730433,0.3464 -2.78125,1.36719 -2.223109,2.15212 -1.886628,6.4777 0.632812,8.1875 2.887224,1.96072 4.001508,1.38866 4.367188,-2.22656 0.449756,-4.45737 -0.495408,-7.14524 -2.21875,-7.32813 z m 14.265626,12.85937 c -0.857468,0.03 -1.804264,0.65095 -2.75,1.96094 -1.00458,1.38654 -1.273124,3.18064 -0.890624,5.89844 0.474964,3.34302 0.2666,4.0557 -1.46094,4.95312 -1.626948,0.84026 -2.309708,2.89252 -1.85156,4.625 l 2.617184,2.63282 c 1.129416,0.25932 2.082884,-0.39268 2.507816,-2.03125 0.882688,-3.41958 5.831512,-3.82082 9.210936,-0.75 1.44172,1.30999 2.617188,1.97062 2.617188,1.46875 0,-0.50188 -1.503308,-2.32077 -3.33594,-4.03906 -2.80358,-2.637 -3.320312,-3.7622 -3.320312,-7.15626 0,-4.7891 -1.452276,-7.62204 -3.343748,-7.5625 z m 4.898436,24.03907 c -0.424528,0.14888 -0.60156,0.69216 -0.60156,1.64062 0,0.82046 -0.450148,1.64475 -1.039064,2.04688 l 3.109376,3.13281 a 12.0012,12.0012 0 0 0 0.07812,0.0703 c 0.09256,-0.31836 0.13764,-0.59486 0.2578,-0.9375 1.290404,-3.68328 1.332104,-4.60352 0.28124,-5.25 -0.983564,-0.60396 -1.657204,-0.85199 -2.08594,-0.70312 z"
     style="opacity:0.2;stroke-width:4;filter:url(#filter861)" />
  <path
     inkscape:connector-curvature="0"
     id="path8"
     d="m 68.171876,16 a 12.0012,12.0012 0 0 0 -8.492188,3.484375 l -3.914064,3.882813 c 0.41448,0.848652 0.628332,1.542494 0.32032,1.8125 -1.046616,0.917842 -1.906248,2.35302 -1.906248,3.1875 0,2.550649 2.281544,6.46217 4.10156,7.03125 2.41688,0.75707 1.602608,3.370661 -1.507812,4.812498 -1.437516,0.667756 -3.206724,2.585612 -3.929684,4.265628 -0.727168,1.684272 -1.794948,3.342988 -2.375,3.6875 -0.575852,0.34872 -1.054688,1.666484 -1.054688,2.929688 0,1.765084 0.803236,2.62064 3.421872,3.679684 1.87466,0.761328 4.1143,1.311628 4.984376,1.226564 5.006088,-0.47636 5.359976,2.474836 0.984376,8.242188 -2.324408,3.062308 -3.446616,3.832352 -5.031252,3.445312 -1.475348,-0.35728 -2.2806,0.06676 -2.953124,1.546876 -0.706148,1.569428 -1.86194,2.1034 -4.97656,2.320312 -3.064184,0.21692 -4.438444,0.842036 -5.58594,2.539064 -0.840653,1.237688 -2.052212,2.242184 -2.695312,2.242184 -0.64478,0 -2.160009,0.831488 -3.367188,1.843752 -2.45639,2.062804 -3.412188,2.270148 -4.273437,0.921876 -1.138245,-1.786348 -3.595257,-0.878864 -7.25,2.66406 -3.232314,3.130364 -3.620392,3.969704 -3.132813,6.6875 0.867555,4.835904 3.454121,9.127868 6.414063,10.625 2.582909,1.305736 2.636451,1.441426 1.070313,3.117186 -0.90076,0.96548 -2.444442,2.00271 -3.429688,2.30469 -2.845613,0.87616 -1.249424,1.97001 3.828125,2.625 5.196921,0.66776 6.818433,2.57317 4.390625,5.17188 -1.353873,1.45034 -1.282045,1.72351 0.890625,3.10156 4.245301,2.69653 7.625327,1.04288 3.640625,-1.78125 -2.561053,-1.81612 -0.774188,-2.55287 2.984375,-1.23438 2.996935,1.05055 3.589799,0.99418 5.359375,-0.5625 3.635824,-3.18565 7.590412,1.52245 4.265624,5.07813 -2.11424,2.26696 -1.474908,4.99646 1.265628,5.375 1.21054,0.16588 3.719688,1.30989 5.585936,2.53906 1.866252,1.22492 3.901944,2.23438 4.515624,2.23438 0.61368,0 2.346792,1.24298 3.851564,2.76562 3.051572,3.08358 4.747704,3.47807 5.609372,1.30469 1.034004,-2.61147 0.614892,-3.964 -2.171872,-7.03907 -2.215124,-2.44985 -5.820312,-8.95469 -5.820312,-10.51562 0,-0.96122 3.65974,-0.14288 5.710936,1.27344 1.281996,0.88892 3.360412,2.02798 4.617188,2.54687 1.336644,0.55292 2.72468,2.27633 3.359376,4.15625 0.987768,2.95173 1.377884,3.20313 4.875,3.20313 h 3.804684 l 0.570316,6.91406 c 0.689336,8.31503 1.35148,9.99492 4.171872,10.67969 2.07642,0.50613 4.289064,3.76127 4.289064,6.30468 0,0.67626 -1.488284,2.33924 -3.3125,3.6875 -2.26136,1.67152 -3.237256,3.08577 -3.085936,4.47657 0.18912,1.73956 -0.19912,2.01101 -2.632816,1.82812 -1.567812,-0.11908 -4.298316,0.44259 -6.046872,1.24219 -2.072212,0.94421 -4.31604,1.24217 -6.421876,0.85938 -2.421084,-0.43808 -3.234376,-0.26168 -3.234376,0.69531 0,0.70603 -0.848804,2.0195 -1.882812,2.92969 -2.555588,2.24144 -1.503976,3.43328 2.421876,2.71874 2.437896,-0.44233 3.38436,-0.2508 3.804688,0.8125 0.895296,2.25846 -1.370724,5.4926 -3.476564,4.96094 -1.33664,-0.34024 -1.9745,0.12376 -2.390624,1.71875 -0.11312,0.44768 -0.34776,0.80099 -0.578124,1.14844 a 12.0012,12.0012 0 0 0 1.22656,0.0781 l 9.554688,0.0312 c 0.06868,-1.67433 1.333908,-3.53724 3.273436,-4.00781 3.038968,-0.74006 2.56158,-2.7344 -0.742184,-3.11719 -2.896052,-0.33176 -5.974564,-3.30191 -5.007816,-4.82031 0.651512,-1.01651 3.420484,-0.86745 9.02344,0.47656 2.530364,0.60396 4.253624,-0.61116 10.117188,-7.10156 3.392032,-3.75983 6.004764,-5.32812 8.867186,-5.32812 1.09285,0 4.99041,-1.01588 8.66406,-2.25782 6.93539,-2.35202 9.64703,-2.26777 9.39063,0.29688 -0.52962,5.33352 2.86332,5.15903 8.39062,-0.42968 2.30339,-2.32651 4.40648,-4.01371 4.67969,-3.75 1.05502,1.02501 -0.84317,6.01878 -3.0625,8.03906 -2.81198,2.56042 -2.95229,4.17291 -0.47656,5.45312 1.35345,0.70604 1.92625,2.13328 2.14062,5.33594 l 0.28908,4.375 h 3.19531 l 36.36719,-36.10156 a 12.0012,12.0012 0 0 0 3.54688,-8.46875 l 0.1328,-36.382814 c -3.65565,-0.1732 -6.60938,-1.6568 -6.60938,-3.58594 0,-0.455092 -1.50691,-2.330932 -3.34375,-4.16406 -2.08482,-2.075568 -3.15479,-3.906656 -2.84375,-4.859376 0.2858,-0.867652 -0.3218,-2.270288 -1.40625,-3.218752 -1.05502,-0.9272 -1.92187,-2.419324 -1.92187,-3.3125 0,-1.42482 -0.89777,-1.602684 -7.375,-1.445312 l -7.375,0.18748 0.1328,7.351564 c 0.21856,12.87872 2.11419,16.218876 7.96093,14.0625 2.67749,-0.991 9.25455,-0.23576 11.125,1.265624 0.67673,0.544412 1.65488,2.5114 2.17188,4.382812 0.5212,1.86716 2.44803,5.107684 4.28906,7.187504 3.7241,4.21918 4.01027,5.86176 1.875,10.8125 -1.86204,4.32126 -3.86806,3.82766 -3.46875,-0.85938 l 0.28908,-3.49218 -3.14844,0.60156 c -1.74435,0.336 -3.9347,1.63315 -4.91406,2.92187 -1.39549,1.83314 -2.04714,2.10351 -3.09375,1.26563 -0.73137,-0.58695 -1.32031,-1.8235 -1.32031,-2.74219 0,-0.91869 -0.89934,-1.94524 -1.99219,-2.28125 -1.09705,-0.336 -2.60036,-2.00471 -3.33594,-3.71875 -1.18112,-2.73907 -1.14789,-3.57242 0.22656,-6.898438 1.39129,-3.372792 1.3992,-3.933496 0.1172,-5.179688 -1.17691,-1.13986 -1.78132,-1.182164 -3.32812,-0.2422 -1.55521,0.93996 -2.29118,0.871892 -4.14062,-0.3828 -1.23156,-0.837884 -3.38577,-1.523436 -4.78126,-1.523436 -2.8372,0 -3.69531,-1.396644 -3.69531,-6.015628 0,-4.265972 -2.51455,-5.814984 -8.5,-5.257812 -4.15283,0.38704 -5.07187,0.11148 -8.42187,-2.5 -2.07221,-1.611964 -5.33994,-5.493944 -7.27344,-8.632812 -1.9335,-3.138872 -4.01553,-6.413596 -4.625,-7.281248 -0.87428,-1.254696 -0.66385,-2.459672 1.04688,-5.875 l 2.16406,-4.296876 -4.5625,0.625 c -8.12072,1.110088 -9.76636,2.17338 -6.27344,4.070312 1.36186,0.735804 1.41801,1.114576 0.3672,2.343752 -0.689332,0.7996 -1.009368,2.067496 -0.710936,2.820312 0.29844,0.748564 -0.07932,2.521876 -0.83594,3.929688 -0.760792,1.412068 -1.396656,3.389732 -1.421872,4.406248 -0.07988,3.168644 -5.444828,5.687568 -11.421876,5.351564 -9.05384,-0.506132 -9.7845,-0.36352 -13,2.656248 -4.018324,3.776852 -4.542328,5.53442 -2.671876,9.039064 1.811612,3.402568 5.03584,4.765084 10.609376,4.484376 4.985072,-0.25096 5.545332,0.18892 4.406248,3.523436 -0.970956,2.83264 -4.222972,3.925592 -6.429688,2.156252 -1.69812,-1.36528 -7.548952,-0.31156 -9.343748,1.687496 -0.752388,0.833632 -1.874904,3.0298 -2.484376,4.86719 -1.05082,3.17289 -1.354844,3.36877 -6.0625,3.82813 -4.699256,0.46359 -5.151816,0.30792 -8.531248,-2.84376 -3.770332,-3.513152 -4.409564,-6.200632 -2.593752,-10.82812 0.807032,-2.050048 1.402612,-2.38418 3.554688,-1.984376 4.262116,0.786844 5.945312,-0.714092 5.945312,-5.320312 0,-2.232936 -0.435532,-4.31808 -0.960936,-4.632812 -0.521204,-0.31476 -0.945312,-1.497204 -0.945312,-2.632812 0,-1.135604 -0.535992,-2.599952 -1.1875,-3.242188 -0.954144,-0.935704 -0.81846,-1.434616 0.703124,-2.523436 1.042412,-0.744312 2.753868,-1.244784 3.804688,-1.117188 1.046608,0.1276 3.944964,-0.33868 6.4375,-1.02344 3.602204,-0.982496 4.66086,-1.722424 5.148436,-3.640624 0.92472,-3.640744 3.186656,-6.5625 5.078124,-6.5625 2.988528,0 3.045084,-7.10932 0.14064,-17.453124 -0.42876,-1.526824 -1.610548,-2.500226 -3.695364,-3.02337 -1.68972,-0.425322 -3.523296,-1.590846 -4.078128,-2.59375 -0.550628,-1.002909 -1.564868,-1.820313 -2.25,-1.820313 -0.685136,0 -2.023012,-0.829785 -2.968748,-1.84375 -0.954144,-1.02077 -2.92912,-1.84375 -4.429688,-1.84375 -3.55176,0 -3.608264,-2.476365 -0.08596,-3.78125 3.719896,-1.379741 9.514376,0.429429 10.914064,3.40625 1.895676,4.03672 4.002964,2.356488 4.679688,-3.742187 0.836452,-7.543065 3.40752,-9.710938 11.515624,-9.710938 h 5.828128 l -1.242168,-1.257812 z m 47.632814,0.179688 c -1.77425,0.513764 -3.23965,0.863088 -3.82031,0.773437 -5.2625,-0.811938 -4.58354,1.332947 1.24218,3.921875 3.14826,1.399731 5.17004,2.994857 5.85938,4.609375 3.32058,7.790177 5.61032,11.980928 6.75781,12.40625 2.3202,0.863401 3.70175,-0.867585 4.21875,-5.296875 0.59266,-5.081734 2.29218,-6.161008 5.34375,-3.382812 1.18533,1.078188 2.83542,1.960937 3.67187,1.960937 2.61023,0 4.53907,1.060133 4.53907,2.492187 0,0.75452 0.88851,2.575689 1.96875,4.046876 1.59304,2.16488 2.67252,2.679686 5.64844,2.679686 0.82014,0 1.5533,0.04968 2.27343,0.1328 L 132.89062,19.757812 a 12.0012,12.0012 0 0 0 -3.96874,-2.648437 12.0012,12.0012 0 0 0 -4.5,-0.898437 z m -99.726566,86.015622 -0.03908,11.38281 c 1.145435,-0.008 1.59636,-0.845 1.804688,-2.73437 0.163504,-1.48437 0.932492,-3.16731 1.710937,-3.75 1.202563,-0.89742 0.986973,-1.36122 -1.476563,-3.0625 -0.711619,-0.49156 -1.406496,-1.15049 -2,-1.83594 z m 22.398438,22.16407 c -0.786008,-0.0808 -1.730433,0.3464 -2.78125,1.36718 -2.223109,2.15213 -1.886629,6.47771 0.632812,8.1875 2.887224,1.96073 4.001508,1.38867 4.367188,-2.22656 0.449756,-4.45736 -0.495408,-7.14524 -2.21875,-7.32812 z m 14.265626,12.85937 c -0.857468,0.03 -1.804264,0.65095 -2.75,1.96094 -1.00458,1.38654 -1.273124,3.18063 -0.890624,5.89843 0.474964,3.34302 0.2666,4.0557 -1.46094,4.95313 -2.223532,1.14836 -2.702828,4.56729 -0.882812,6.32813 1.807404,1.75232 3.534168,1.29724 4.156252,-1.10157 0.882688,-3.41957 5.831512,-3.82081 9.210936,-0.75 1.44172,1.30999 2.617188,1.97063 2.617188,1.46875 0,-0.50188 -1.503312,-2.32076 -3.33594,-4.03906 -2.80358,-2.63699 -3.320312,-3.76219 -3.320312,-7.15625 0,-4.78911 -1.452276,-7.62204 -3.343748,-7.5625 z m 4.898436,24.03906 c -0.424528,0.14888 -0.60156,0.69216 -0.60156,1.64063 0,0.96122 -0.603976,1.96998 -1.343752,2.24218 -0.763536,0.28396 -1.06194,1.06734 -0.984376,2.67969 l 3.828128,3.85938 c 0.0552,-1.28097 0.28732,-2.7041 0.906248,-4.46875 1.290404,-3.68328 1.332092,-4.60352 0.28124,-5.25 -0.983564,-0.60396 -1.657204,-0.852 -2.08594,-0.70313 z"
     style="fill:#89cee8;stroke-width:4" />
  <path
     style="opacity:0.2;fill:#ffffff;stroke-width:4"
     d="M 68.171875 16 A 12.0012 12.0012 0 0 0 59.679688 19.484375 L 19.757812 59.101562 A 12.0012 12.0012 0 0 0 16.210938 67.578125 L 16 123.82812 A 12.0012 12.0012 0 0 0 16.003906 123.89648 L 16.210938 68.578125 A 12.0012 12.0012 0 0 1 19.757812 60.101562 L 59.679688 20.484375 A 12.0012 12.0012 0 0 1 68.171875 17 L 124.42188 17.210938 A 12.0012 12.0012 0 0 1 128.92188 18.109375 A 12.0012 12.0012 0 0 1 132.89062 20.757812 L 172.51562 60.671875 A 12.0012 12.0012 0 0 1 175.99609 69.087891 L 176 68.171875 A 12.0012 12.0012 0 0 0 172.51562 59.671875 L 132.89062 19.757812 A 12.0012 12.0012 0 0 0 128.92188 17.109375 A 12.0012 12.0012 0 0 0 124.42188 16.210938 L 68.171875 16 z "
     id="path10" />
  <path
     style="fill:#ffffff;stroke-width:4;opacity:0.2"
     d="M 68.171875 16 A 12.0012 12.0012 0 0 0 59.679688 19.484375 L 55.765625 23.367188 C 55.8891 23.620004 55.985081 23.852086 56.064453 24.070312 L 59.679688 20.484375 A 12.0012 12.0012 0 0 1 68.171875 17 L 91.351562 17.085938 L 91.605469 17.34375 L 92.59375 17.34375 L 91.351562 16.085938 L 68.171875 16 z M 115.80469 16.179688 C 114.03044 16.693451 112.56504 17.042776 111.98438 16.953125 C 108.92762 16.481506 107.88883 17.01181 108.68555 18.042969 C 109.14677 17.747647 110.22571 17.681785 111.98438 17.953125 C 112.56504 18.042776 114.03044 17.693451 115.80469 17.179688 L 124.42188 17.210938 A 12.0012 12.0012 0 0 1 128.92188 18.109375 A 12.0012 12.0012 0 0 1 132.89062 20.757812 L 152.41992 40.425781 C 152.79151 40.448567 153.15155 40.482317 153.50781 40.523438 L 132.89062 19.757812 A 12.0012 12.0012 0 0 0 128.92188 17.109375 A 12.0012 12.0012 0 0 0 124.42188 16.210938 L 115.80469 16.179688 z M 56.095703 25.167969 C 56.092006 25.171486 56.089798 25.176303 56.085938 25.179688 C 55.039321 26.09753 54.179688 27.532708 54.179688 28.367188 C 54.179688 28.55366 54.214965 28.759803 54.238281 28.958984 C 54.441882 28.117233 55.193589 26.962243 56.085938 26.179688 C 56.2877 26.002821 56.2515 25.632944 56.095703 25.167969 z M 57.175781 30.220703 C 56.708095 31.241077 57.565757 32.171875 59.742188 32.171875 C 61.242755 32.171875 63.217731 32.994855 64.171875 34.015625 C 65.117611 35.02959 66.455489 35.859375 67.140625 35.859375 C 67.825757 35.859375 68.839997 36.676778 69.390625 37.679688 C 69.945457 38.682592 71.77903 39.848115 73.46875 40.273438 C 75.553566 40.796582 76.735303 41.770051 77.164062 43.296875 C 78.515857 48.111116 79.217155 52.210135 79.289062 55.232422 C 79.372531 52.148206 78.671268 47.664592 77.164062 42.296875 C 76.735303 40.770051 75.553566 39.796581 73.46875 39.273438 C 71.77903 38.848115 69.945457 37.682592 69.390625 36.679688 C 68.839997 35.676778 67.825757 34.859375 67.140625 34.859375 C 66.455489 34.859375 65.117611 34.02959 64.171875 33.015625 C 63.217731 31.994855 61.242755 31.171875 59.742188 31.171875 C 58.327114 31.171875 57.475937 30.776174 57.175781 30.220703 z M 59.607422 37.511719 C 59.332129 38.450072 58.349585 39.480313 56.773438 40.210938 C 55.335921 40.878693 53.56671 42.796546 52.84375 44.476562 C 52.116582 46.160834 51.048802 47.81955 50.46875 48.164062 C 49.892898 48.512783 49.414062 49.830546 49.414062 51.09375 C 49.414062 51.301902 49.427171 51.495007 49.451172 51.679688 C 49.540791 50.555725 49.95622 49.474436 50.46875 49.164062 C 51.048802 48.81955 52.116582 47.160834 52.84375 45.476562 C 53.56671 43.796547 55.335921 41.878693 56.773438 41.210938 C 58.94433 40.204619 59.991428 38.63005 59.607422 37.511719 z M 110.40625 50.3125 L 105.84375 50.9375 C 99.447499 51.811856 97.083596 52.659737 98.068359 53.90625 C 98.798211 53.162453 101.30999 52.557258 105.84375 51.9375 L 109.86523 51.386719 L 110.40625 50.3125 z M 100.46484 56.638672 C 100.3427 56.844881 100.17718 57.071193 99.9375 57.351562 C 99.294544 58.097369 98.979852 59.245152 99.181641 60.007812 C 99.285797 59.423918 99.540052 58.812588 99.9375 58.351562 C 100.65481 57.5125 100.84238 57.069269 100.46484 56.638672 z M 61.792969 58.623047 C 61.582783 59.9985 60.597483 61.879156 58.804688 64.242188 C 56.48028 67.304496 55.358074 68.07454 53.773438 67.6875 C 52.29809 67.33022 51.492837 67.754259 50.820312 69.234375 C 50.114165 70.803803 48.95837 71.337775 45.84375 71.554688 C 42.779566 71.771608 41.405308 72.396722 40.257812 74.09375 C 39.417159 75.331438 38.2056 76.335938 37.5625 76.335938 C 36.91772 76.335938 35.402491 77.167423 34.195312 78.179688 C 31.738923 80.242491 30.783124 80.449835 29.921875 79.101562 C 28.78363 77.315214 26.326618 78.222701 22.671875 81.765625 C 19.864973 84.483994 19.2048 85.477265 19.398438 87.470703 C 19.529143 86.063685 20.374763 84.990284 22.671875 82.765625 C 26.326618 79.222701 28.78363 78.315214 29.921875 80.101562 C 30.783124 81.449835 31.738923 81.242491 34.195312 79.179688 C 35.402491 78.167424 36.91772 77.335938 37.5625 77.335938 C 38.2056 77.335937 39.417159 76.331438 40.257812 75.09375 C 41.405308 73.396722 42.779566 72.771608 45.84375 72.554688 C 48.95837 72.337775 50.114165 71.803803 50.820312 70.234375 C 51.492837 68.754259 52.29809 68.33022 53.773438 68.6875 C 55.358074 69.07454 56.48028 68.304496 58.804688 65.242188 C 61.07995 62.24323 62.064435 60.013132 61.792969 58.623047 z M 106.74219 59.443359 C 106.61214 60.27975 106.77338 60.878857 107.19531 61.484375 C 107.80478 62.352027 109.88681 65.626753 111.82031 68.765625 C 113.75381 71.904493 117.02154 75.786473 119.09375 77.398438 C 122.44375 80.009918 123.3628 80.285477 127.51562 79.898438 C 133.50108 79.341266 136.01562 80.890278 136.01562 85.15625 C 136.01562 89.775234 136.87374 91.171875 139.71094 91.171875 C 141.10643 91.171875 143.26063 91.857428 144.49219 92.695312 C 146.34163 93.950005 147.0776 94.018085 148.63281 93.078125 C 150.17961 92.138161 150.78403 92.180453 151.96094 93.320312 C 152.43301 93.779201 152.72615 94.146123 152.84375 94.59375 C 153.02571 93.580171 152.73163 93.069478 151.96094 92.320312 C 150.78403 91.180453 150.17961 91.138161 148.63281 92.078125 C 147.0776 93.018085 146.34163 92.950005 144.49219 91.695312 C 143.26063 90.857428 141.10643 90.171875 139.71094 90.171875 C 136.87374 90.171875 136.01562 88.775234 136.01562 84.15625 C 136.01562 79.890278 133.50108 78.341265 127.51562 78.898438 C 123.3628 79.285477 122.44375 79.009918 119.09375 76.398438 C 117.02154 74.786473 113.75381 70.904493 111.82031 67.765625 C 109.88681 64.626753 107.80478 61.352027 107.19531 60.484375 C 106.96181 60.149269 106.81302 59.81443 106.74219 59.443359 z M 99.271484 61.355469 C 99.172927 62.188484 98.871388 63.207026 98.390625 64.101562 C 97.629833 65.513631 96.993966 67.491296 96.96875 68.507812 C 96.88887 71.676457 91.523923 74.195379 85.546875 73.859375 C 76.493035 73.353243 75.762375 73.495857 72.546875 76.515625 C 69.731402 79.161909 68.637912 80.818172 68.875 82.777344 C 69.071987 81.213146 70.21995 79.702718 72.546875 77.515625 C 75.762375 74.495857 76.493035 74.353243 85.546875 74.859375 C 91.523923 75.195379 96.88887 72.676457 96.96875 69.507812 C 96.993966 68.491296 97.629833 66.513631 98.390625 65.101562 C 99.09402 63.792784 99.461855 62.17901 99.271484 61.355469 z M 156.30664 67.412109 C 155.31161 67.395302 154.04118 67.413782 152.42188 67.453125 L 145.04688 67.640625 L 145.06445 68.640625 L 152.42188 68.453125 C 158.8991 68.295753 159.79688 68.473618 159.79688 69.898438 C 159.79688 70.791613 160.66373 72.283738 161.71875 73.210938 C 162.44773 73.84851 162.9535 74.68798 163.125 75.435547 C 163.12556 75.433812 163.12444 75.431417 163.125 75.429688 C 163.4108 74.562035 162.8032 73.159402 161.71875 72.210938 C 160.66373 71.283738 159.79688 69.791614 159.79688 68.898438 C 159.79688 67.829823 159.29172 67.462531 156.30664 67.412109 z M 55.427734 74.105469 C 55.084636 74.607459 55.248202 75.025488 55.851562 75.617188 C 56.503071 76.259423 57.039062 77.723771 57.039062 78.859375 C 57.039062 79.994983 57.463171 81.177427 57.984375 81.492188 C 58.467845 81.7818 58.859928 83.583923 58.921875 85.607422 C 58.926803 85.441034 58.945312 85.300343 58.945312 85.125 C 58.945312 82.892064 58.509779 80.80692 57.984375 80.492188 C 57.463171 80.177427 57.039062 78.994983 57.039062 77.859375 C 57.039062 76.723771 56.503071 75.259423 55.851562 74.617188 C 55.662011 74.431299 55.528942 74.26493 55.427734 74.105469 z M 163.14844 76.308594 C 163.13934 76.348337 163.13745 76.391893 163.125 76.429688 C 162.81396 77.382407 163.88393 79.213494 165.96875 81.289062 C 167.80559 83.122191 169.3125 84.998033 169.3125 85.453125 C 169.3125 87.381565 172.26415 88.864975 175.91797 89.039062 L 175.92188 88.039062 C 172.26622 87.865863 169.3125 86.382265 169.3125 84.453125 C 169.3125 83.998033 167.80559 82.122191 165.96875 80.289062 C 164.40992 78.737148 163.41948 77.322173 163.14844 76.308594 z M 85.318359 91.949219 C 85.246068 92.396672 85.113622 92.909705 84.890625 93.5625 C 83.919669 96.39514 80.667654 97.48809 78.460938 95.71875 C 76.762817 94.35347 70.911984 95.407194 69.117188 97.40625 C 68.3648 98.239882 67.242284 100.43605 66.632812 102.27344 C 65.581992 105.44633 65.277968 105.6422 60.570312 106.10156 C 55.871057 106.56515 55.418495 106.40949 52.039062 103.25781 C 49.760903 101.13505 48.633173 99.311622 48.492188 97.181641 C 48.308694 99.762048 49.412944 101.81083 52.039062 104.25781 C 55.418495 107.40949 55.871057 107.56515 60.570312 107.10156 C 65.277968 106.6422 65.581992 106.44633 66.632812 103.27344 C 67.242284 101.43605 68.3648 99.239882 69.117188 98.40625 C 70.911984 96.407194 76.762817 95.35347 78.460938 96.71875 C 80.667654 98.48809 83.919669 97.39514 84.890625 94.5625 C 85.309899 93.335133 85.495463 92.50214 85.318359 91.949219 z M 27.855469 101.21875 C 27.678878 101.48151 27.400567 101.79179 27.023438 102.19531 C 26.122678 103.16079 24.578996 104.19802 23.59375 104.5 C 22.140765 104.94737 21.860433 105.45035 22.595703 105.92383 C 22.82705 105.7792 23.150304 105.63654 23.59375 105.5 C 24.578996 105.19802 26.122678 104.16079 27.023438 103.19531 C 27.987995 102.16324 28.332151 101.7156 27.855469 101.21875 z M 150.80664 101.87109 C 150.70055 102.95628 150.96763 103.89208 151.61719 105.39844 C 152.35277 107.11248 153.85608 108.78119 154.95312 109.11719 C 156.04597 109.4532 156.94531 110.47975 156.94531 111.39844 C 156.94531 112.31713 157.53426 113.55367 158.26562 114.14062 C 159.31223 114.9785 159.96389 114.70814 161.35938 112.875 C 162.33874 111.58628 164.52909 110.28912 166.27344 109.95312 L 169.33789 109.36719 L 169.42188 108.35156 L 166.27344 108.95312 C 164.52909 109.28912 162.33874 110.58628 161.35938 111.875 C 159.96389 113.70814 159.31223 113.9785 158.26562 113.14062 C 157.53426 112.55367 156.94531 111.31713 156.94531 110.39844 C 156.94531 109.47975 156.04597 108.4532 154.95312 108.11719 C 153.85608 107.78119 152.35277 106.11248 151.61719 104.39844 C 151.17067 103.36293 150.89919 102.59951 150.80664 101.87109 z M 16.078125 102.19531 L 16.039062 113.57812 C 16.04045 113.57812 16.041583 113.57814 16.042969 113.57812 L 16.078125 103.19531 C 16.671629 103.88076 17.366506 104.53969 18.078125 105.03125 C 19.119754 105.75058 19.738466 106.2433 20.039062 106.64648 C 20.590269 105.99239 20.102626 105.42934 18.078125 104.03125 C 17.366506 103.53969 16.671629 102.88076 16.078125 102.19531 z M 173.90625 108.42578 C 173.80327 109.61163 173.35862 110.94785 172.60156 112.70312 C 170.98457 116.4557 169.26233 116.5731 169.09766 113.4707 C 168.92815 117.55796 170.82742 117.8204 172.60156 113.70312 C 173.57774 111.43981 174.03937 109.86856 173.90625 108.42578 z M 32.835938 110.63477 C 32.698 111.14909 32.366488 111.70389 31.8125 112.29688 C 30.978984 113.18978 30.690912 113.63686 31.095703 114.16992 C 31.246917 113.92515 31.486147 113.64648 31.8125 113.29688 C 32.748196 112.29531 33.076076 111.3992 32.835938 110.63477 z M 35.449219 112.83594 C 34.878946 113.08869 35.07871 113.72011 36.34375 114.61719 C 37.2262 115.24262 37.730291 115.80517 37.960938 116.28125 C 38.363602 115.73724 37.984345 114.77995 36.34375 113.61719 C 35.93374 113.32644 35.646103 113.06735 35.449219 112.83594 z M 61.933594 114.30078 C 61.843542 114.36621 61.789062 114.45114 61.789062 114.5625 C 61.789062 116.12343 65.394251 122.62828 67.609375 125.07812 C 69.289275 126.93182 70.096364 128.15915 70.255859 129.41406 C 70.471137 127.75855 69.726888 126.41471 67.609375 124.07812 C 65.65259 121.91399 62.616414 116.59022 61.933594 114.30078 z M 50.158203 114.45703 C 50.055157 115.26209 49.692339 116.10789 48.953125 116.89844 C 47.939588 117.98519 47.565899 119.17663 47.746094 120.16602 C 47.872549 119.42598 48.263697 118.63767 48.953125 117.89844 C 50.007996 116.77031 50.326194 115.52826 50.158203 114.45703 z M 38.476562 124.35938 C 37.690554 124.27858 36.74613 124.70578 35.695312 125.72656 C 34.571654 126.81435 34.102754 128.45723 34.238281 130.03711 C 34.33431 128.79072 34.808374 127.58518 35.695312 126.72656 C 36.74613 125.70578 37.690554 125.27858 38.476562 125.35938 C 39.85637 125.5058 40.723513 127.27918 40.789062 130.25977 C 40.91686 126.6647 40.006208 124.5217 38.476562 124.35938 z M 52.742188 137.21875 C 51.88472 137.24875 50.937924 137.8697 49.992188 139.17969 C 49.207011 140.2634 48.87765 141.60353 48.951172 143.43164 C 49.019223 142.0982 49.35687 141.05656 49.992188 140.17969 C 50.937924 138.8697 51.88472 138.24875 52.742188 138.21875 C 54.63366 138.15921 56.085938 140.99214 56.085938 145.78125 C 56.085938 149.17531 56.60267 150.30051 59.40625 152.9375 C 60.625463 154.08065 61.654312 155.23405 62.236328 156.04883 C 62.55137 156.185 62.742187 156.1763 62.742188 155.97656 C 62.742188 155.47468 61.238878 153.6558 59.40625 151.9375 C 56.60267 149.30051 56.085938 148.17531 56.085938 144.78125 C 56.085938 139.99214 54.63366 137.15921 52.742188 137.21875 z M 134.04297 147.32227 C 133.80303 149.26348 132.35716 152.34377 130.72656 153.82812 C 128.96809 155.42928 128.25476 156.65961 128.57227 157.66992 C 128.79243 156.86665 129.50879 155.93696 130.72656 154.82812 C 132.67871 153.05107 134.37906 148.97592 134.04297 147.32227 z M 49.298828 147.90039 C 49.196588 148.98601 48.711857 149.47476 47.640625 150.03125 C 46.184148 150.78346 45.481436 152.50897 45.677734 154.10547 C 45.814358 152.83529 46.486453 151.62733 47.640625 151.03125 C 48.99163 150.32942 49.406264 149.72265 49.298828 147.90039 z M 93.117188 148.94336 C 92.803779 149.73411 91.467891 151.15084 89.875 152.32812 C 87.61364 153.99964 86.637743 155.41389 86.789062 156.80469 C 86.802616 156.92935 86.805418 157.03067 86.8125 157.14062 C 86.988892 155.95884 87.971662 154.73501 89.875 153.32812 C 91.699216 151.97986 93.1875 150.31689 93.1875 149.64062 C 93.1875 149.41455 93.150502 149.17825 93.117188 148.94336 z M 120.69922 150.29688 C 120.6691 150.72465 120.66582 151.11473 120.68945 151.46484 C 120.69845 151.30017 120.7012 151.14552 120.71875 150.96875 C 120.74374 150.71877 120.73179 150.49977 120.69922 150.29688 z M 86.792969 157.86523 C 86.64251 158.65048 85.967622 158.76894 84.15625 158.63281 C 82.588438 158.51373 79.857931 159.0754 78.109375 159.875 C 76.037163 160.81921 73.793336 161.11716 71.6875 160.73438 C 69.266416 160.29629 68.453125 160.4727 68.453125 161.42969 C 68.453125 162.13572 67.604321 163.44918 66.570312 164.35938 C 65.313743 165.46148 64.935455 166.30804 65.335938 166.80078 C 65.540348 166.39093 65.945881 165.90705 66.570312 165.35938 C 67.604321 164.44919 68.453125 163.13572 68.453125 162.42969 C 68.453125 161.4727 69.266416 161.29629 71.6875 161.73438 C 73.793336 162.11716 76.037163 161.81921 78.109375 160.875 C 79.857931 160.0754 82.588438 159.51373 84.15625 159.63281 C 86.558523 159.81334 86.964688 159.54508 86.792969 157.86523 z M 58.009766 161.2207 C 57.870953 161.20895 57.747809 161.2206 57.640625 161.25781 C 57.216097 161.40669 57.039062 161.94997 57.039062 162.89844 C 57.039062 163.85966 56.435088 164.86843 55.695312 165.14062 C 54.931776 165.42459 54.633373 166.20796 54.710938 167.82031 L 54.724609 167.83398 C 54.803178 166.87973 55.109632 166.35844 55.695312 166.14062 C 56.435088 165.86843 57.039062 164.85966 57.039062 163.89844 C 57.039062 162.94997 57.216097 162.40669 57.640625 162.25781 C 58.069361 162.10894 58.742998 162.35698 59.726562 162.96094 C 60.09313 163.18645 60.318055 163.45377 60.412109 163.85156 C 60.56362 162.8172 60.333146 162.3341 59.726562 161.96094 C 58.988889 161.50797 58.426204 161.25597 58.009766 161.2207 z M 74.574219 165.06641 C 73.935163 166.62768 76.878442 169.38402 79.664062 169.70312 C 81.04035 169.86259 81.918246 170.30283 82.263672 170.81445 C 82.843808 169.96551 81.90809 168.96313 79.664062 168.70312 C 77.411275 168.44505 75.057843 166.59224 74.574219 165.06641 z M 72.953125 169.50391 C 72.67715 171.41026 70.953807 173.26397 69.320312 172.85156 C 67.983672 172.51132 67.345811 172.97532 66.929688 174.57031 C 66.816568 175.01799 66.581927 175.3713 66.351562 175.71875 A 12.0012 12.0012 0 0 0 66.857422 175.75195 C 66.879165 175.68935 66.912891 175.63679 66.929688 175.57031 C 67.345811 173.97532 67.983672 173.51132 69.320312 173.85156 C 71.241876 174.3367 73.288423 171.68742 72.953125 169.50391 z "
     id="path859" />
</svg>
