<?xml version="1.0" encoding="UTF-8" standalone="no"?>
<svg
   xmlns:dc="http://purl.org/dc/elements/1.1/"
   xmlns:cc="http://creativecommons.org/ns#"
   xmlns:rdf="http://www.w3.org/1999/02/22-rdf-syntax-ns#"
   xmlns:svg="http://www.w3.org/2000/svg"
   xmlns="http://www.w3.org/2000/svg"
   xmlns:sodipodi="http://sodipodi.sourceforge.net/DTD/sodipodi-0.dtd"
   xmlns:inkscape="http://www.inkscape.org/namespaces/inkscape"
   width="192"
   height="192"
   version="1"
   id="svg12"
   sodipodi:docname="apps_gps_data.svg"
   inkscape:version="0.92.3 (2405546, 2018-03-11)">
  <metadata
     id="metadata18">
    <rdf:RDF>
      <cc:Work
         rdf:about="">
        <dc:format>image/svg+xml</dc:format>
        <dc:type
           rdf:resource="http://purl.org/dc/dcmitype/StillImage" />
        <dc:title />
      </cc:Work>
    </rdf:RDF>
  </metadata>
  <defs
     id="defs16">
    <filter
       inkscape:collect="always"
       style="color-interpolation-filters:sRGB"
       id="filter868"
       x="-0.039"
       width="1.078"
       y="-0.0624"
       height="1.1248">
      <feGaussianBlur
         inkscape:collect="always"
         stdDeviation="1.82"
         id="feGaussianBlur870" />
    </filter>
    <filter
       inkscape:collect="always"
       style="color-interpolation-filters:sRGB"
       id="filter884"
       x="-0.051546034"
       width="1.1030921"
       y="-0.044910451"
       height="1.0898209">
      <feGaussianBlur
         inkscape:collect="always"
         stdDeviation="2.780625"
         id="feGaussianBlur886" />
    </filter>
    <filter
       inkscape:collect="always"
       style="color-interpolation-filters:sRGB"
       id="filter905"
       x="-0.043476058"
       width="1.0869521"
       y="-0.053574773"
       height="1.1071495">
      <feGaussianBlur
         inkscape:collect="always"
         stdDeviation="0.9264844"
         id="feGaussianBlur907" />
    </filter>
  </defs>
  <sodipodi:namedview
     pagecolor="#ffffff"
     bordercolor="#666666"
     borderopacity="1"
     objecttolerance="10"
     gridtolerance="10"
     guidetolerance="10"
     inkscape:pageopacity="0"
     inkscape:pageshadow="2"
     inkscape:window-width="1920"
     inkscape:window-height="1018"
     id="namedview14"
     showgrid="false"
     inkscape:zoom="1.88"
     inkscape:cx="87.935185"
     inkscape:cy="79.49073"
     inkscape:window-x="0"
     inkscape:window-y="32"
     inkscape:window-maximized="1"
     inkscape:current-layer="svg12" />
  <path
     style="color:#000000;font-style:normal;font-variant:normal;font-weight:normal;font-stretch:normal;font-size:medium;line-height:normal;font-family:sans-serif;font-variant-ligatures:normal;font-variant-position:normal;font-variant-caps:normal;font-variant-numeric:normal;font-variant-alternates:normal;font-feature-settings:normal;text-indent:0;text-align:start;text-decoration:none;text-decoration-line:none;text-decoration-style:solid;text-decoration-color:#000000;letter-spacing:normal;word-spacing:normal;text-transform:none;writing-mode:lr-tb;direction:ltr;text-orientation:mixed;dominant-baseline:auto;baseline-shift:baseline;text-anchor:start;white-space:normal;shape-padding:0;clip-rule:nonzero;display:inline;overflow:visible;visibility:visible;opacity:0.2;isolation:auto;mix-blend-mode:normal;color-interpolation:sRGB;color-interpolation-filters:linearRGB;solid-color:#000000;solid-opacity:1;vector-effect:none;fill:#000000;fill-opacity:1;fill-rule:nonzero;stroke:none;stroke-width:13;stroke-linecap:butt;stroke-linejoin:miter;stroke-miterlimit:4;stroke-dasharray:none;stroke-dashoffset:0;stroke-opacity:1;filter:url(#filter905);color-rendering:auto;image-rendering:auto;shape-rendering:auto;text-rendering:auto;enable-background:accumulate"
     d="m 145.5,61.00009 a 13.5,13.5 0 0 0 -13.5,13.5 13.5,13.5 0 0 0 0.0234,0.673828 L 107.85547,91.791106 115.2207,102.504 138.86523,86.248137 a 13.5,13.5 0 0 0 6.63477,1.751953 13.5,13.5 0 0 0 13.5,-13.5 13.5,13.5 0 0 0 -13.5,-13.5 z"
     id="path888"
     inkscape:connector-curvature="0" />
  <path
     inkscape:connector-curvature="0"
     id="path852"
     d="M 85.889848,110 A 70.183586,70 0 0 0 16,174.12891 C 16.930901,177.51973 20.024167,180 23.727244,180 H 128 V 124.08594 A 70.183586,70 0 0 0 85.889848,110 Z"
     style="opacity:0.2;fill:#000000;fill-opacity:1;stroke:none;stroke-width:11.68283272;stroke-linecap:round;stroke-linejoin:round;stroke-miterlimit:4;stroke-dasharray:none;stroke-opacity:1;filter:url(#filter868)" />
  <path
     style="opacity:1;fill:#1975e0;fill-opacity:1;stroke:none;stroke-width:11.68283272;stroke-linecap:round;stroke-linejoin:round;stroke-miterlimit:4;stroke-dasharray:none;stroke-opacity:1"
     d="M 85.889848,106 A 70.183586,70 0 0 0 16,170.12891 C 16.930901,173.51973 20.024167,176 23.727244,176 H 128 V 120.08594 A 70.183586,70 0 0 0 85.889848,106 Z"
     id="path836"
     inkscape:connector-curvature="0" />
  <path
     style="color:#000000;font-style:normal;font-variant:normal;font-weight:normal;font-stretch:normal;font-size:medium;line-height:normal;font-family:sans-serif;font-variant-ligatures:normal;font-variant-position:normal;font-variant-caps:normal;font-variant-numeric:normal;font-variant-alternates:normal;font-feature-settings:normal;text-indent:0;text-align:start;text-decoration:none;text-decoration-line:none;text-decoration-style:solid;text-decoration-color:#000000;letter-spacing:normal;word-spacing:normal;text-transform:none;writing-mode:lr-tb;direction:ltr;text-orientation:mixed;dominant-baseline:auto;baseline-shift:baseline;text-anchor:start;white-space:normal;shape-padding:0;clip-rule:nonzero;display:inline;overflow:visible;visibility:visible;opacity:1;isolation:auto;mix-blend-mode:normal;color-interpolation:sRGB;color-interpolation-filters:linearRGB;solid-color:#000000;solid-opacity:1;vector-effect:none;fill:#3a8098;fill-opacity:1;fill-rule:nonzero;stroke:none;stroke-width:13;stroke-linecap:butt;stroke-linejoin:miter;stroke-miterlimit:4;stroke-dasharray:none;stroke-dashoffset:0;stroke-opacity:1;color-rendering:auto;image-rendering:auto;shape-rendering:auto;text-rendering:auto;enable-background:accumulate"
     d="m 141.42188,66.712891 -33.56641,23.078125 7.36523,10.712894 33.56641,-23.078129 z"
     id="path846"
     inkscape:connector-curvature="0" />
  <circle
     style="opacity:1;fill:#3a8098;fill-opacity:1;stroke:none;stroke-width:13.38599014;stroke-linecap:round;stroke-linejoin:round;stroke-miterlimit:4;stroke-dasharray:none;stroke-opacity:1"
     id="path848"
     cx="145.5"
     cy="72.5"
     r="13.5" />
  <path
     id="path854"
     d="M 104.71484,15.404297 A 77,77 0 0 0 56,87 77,77 0 0 0 133,164 77,77 0 0 0 185.4668,143.27344 107.05319,107.05319 0 0 1 102,38.947266 107.05319,107.05319 0 0 1 104.71484,15.404297 Z"
     style="opacity:0.2;fill:#000000;fill-opacity:1;stroke:none;stroke-width:10.69595718;stroke-linecap:round;stroke-linejoin:round;stroke-miterlimit:4;stroke-dasharray:none;stroke-opacity:1;filter:url(#filter884)"
     inkscape:connector-curvature="0" />
  <path
     inkscape:connector-curvature="0"
     style="opacity:0.1;fill:#ffffff;fill-opacity:1;stroke:none;stroke-width:11.68283272;stroke-linecap:round;stroke-linejoin:round;stroke-miterlimit:4;stroke-dasharray:none;stroke-opacity:1"
     d="M 85.890625,106 A 70.183586,70 0 0 0 16,170.12891 c 0.02673,0.0974 0.06153,0.19126 0.0918,0.28711 A 70.183586,70 0 0 1 85.890625,107 70.183586,70 0 0 1 128,121.08594 v -1 A 70.183586,70 0 0 0 85.890625,106 Z"
     id="path909" />
  <path
     inkscape:connector-curvature="0"
     style="color:#000000;font-style:normal;font-variant:normal;font-weight:normal;font-stretch:normal;font-size:medium;line-height:normal;font-family:sans-serif;font-variant-ligatures:normal;font-variant-position:normal;font-variant-caps:normal;font-variant-numeric:normal;font-variant-alternates:normal;font-feature-settings:normal;text-indent:0;text-align:start;text-decoration:none;text-decoration-line:none;text-decoration-style:solid;text-decoration-color:#000000;letter-spacing:normal;word-spacing:normal;text-transform:none;writing-mode:lr-tb;direction:ltr;text-orientation:mixed;dominant-baseline:auto;baseline-shift:baseline;text-anchor:start;white-space:normal;shape-padding:0;clip-rule:nonzero;display:inline;overflow:visible;visibility:visible;opacity:0.1;isolation:auto;mix-blend-mode:normal;color-interpolation:sRGB;color-interpolation-filters:linearRGB;solid-color:#000000;solid-opacity:1;vector-effect:none;fill:#ffffff;fill-opacity:1;fill-rule:nonzero;stroke:none;stroke-width:13;stroke-linecap:butt;stroke-linejoin:miter;stroke-miterlimit:4;stroke-dasharray:none;stroke-dashoffset:0;stroke-opacity:1;color-rendering:auto;image-rendering:auto;shape-rendering:auto;text-rendering:auto;enable-background:accumulate"
     d="M 145.5,59 A 13.5,13.5 0 0 0 132,72.5 13.5,13.5 0 0 0 132.01758,73 13.5,13.5 0 0 1 145.5,60 13.5,13.5 0 0 1 158.97852,73.09375 13.5,13.5 0 0 0 159,72.5 13.5,13.5 0 0 0 145.5,59 Z m -13.48828,14.181641 -24.15625,16.609375 0.4668,0.679687 23.70117,-16.296875 A 13.5,13.5 0 0 1 132,73.5 a 13.5,13.5 0 0 1 0.0117,-0.318359 z"
     id="path919" />
  <path
     inkscape:connector-curvature="0"
     style="opacity:1;fill:#19aee0;fill-opacity:1;stroke:none;stroke-width:10.69595718;stroke-linecap:round;stroke-linejoin:round;stroke-miterlimit:4;stroke-dasharray:none;stroke-opacity:1"
     d="M 104.71484,11.404297 A 77,77 0 0 0 56,83 77,77 0 0 0 133,160 77,77 0 0 0 185.4668,139.27344 107.05319,107.05319 0 0 1 102,34.947266 107.05319,107.05319 0 0 1 104.71484,11.404297 Z"
     id="path831" />
  <path
     inkscape:connector-curvature="0"
     style="opacity:0.2;fill:#ffffff;fill-opacity:1;stroke:none;stroke-width:10.69595718;stroke-linecap:round;stroke-linejoin:round;stroke-miterlimit:4;stroke-dasharray:none;stroke-opacity:1"
     d="M 104.71484,11.404297 A 77,77 0 0 0 56,83 a 77,77 0 0 0 0.02344,0.486328 77,77 0 0 1 48.44922,-70.972656 107.05319,107.05319 0 0 1 0.24218,-1.109375 z m -2.69726,24.226562 A 107.05319,107.05319 0 0 0 102,35.947266 107.05319,107.05319 0 0 0 184.60938,140.03516 77,77 0 0 0 185.4668,139.27344 107.05319,107.05319 0 0 1 102.01758,35.630859 Z"
     id="path911" />
</svg>
