<?xml version="1.0" encoding="UTF-8" standalone="no"?>
<svg
   xmlns:dc="http://purl.org/dc/elements/1.1/"
   xmlns:cc="http://creativecommons.org/ns#"
   xmlns:rdf="http://www.w3.org/1999/02/22-rdf-syntax-ns#"
   xmlns:svg="http://www.w3.org/2000/svg"
   xmlns="http://www.w3.org/2000/svg"
   xmlns:sodipodi="http://sodipodi.sourceforge.net/DTD/sodipodi-0.dtd"
   xmlns:inkscape="http://www.inkscape.org/namespaces/inkscape"
   width="192"
   height="192"
   version="1"
   id="svg26"
   sodipodi:docname="apps_browser_apus.svg"
   inkscape:version="0.92.3 (2405546, 2018-03-11)">
  <metadata
     id="metadata32">
    <rdf:RDF>
      <cc:Work
         rdf:about="">
        <dc:format>image/svg+xml</dc:format>
        <dc:type
           rdf:resource="http://purl.org/dc/dcmitype/StillImage" />
      </cc:Work>
    </rdf:RDF>
  </metadata>
  <defs
     id="defs30">
    <filter
       inkscape:collect="always"
       style="color-interpolation-filters:sRGB"
       id="filter862"
       x="-0.050666666"
       width="1.1013333"
       y="-0.0456"
       height="1.0912">
      <feGaussianBlur
         inkscape:collect="always"
         stdDeviation="3.04"
         id="feGaussianBlur864" />
    </filter>
    <filter
       inkscape:collect="always"
       style="color-interpolation-filters:sRGB"
       id="filter893"
       x="-0.041377609"
       width="1.0827552"
       y="-0.057146101"
       height="1.1142922">
      <feGaussianBlur
         inkscape:collect="always"
         stdDeviation="2.4627221"
         id="feGaussianBlur895" />
    </filter>
    <filter
       inkscape:collect="always"
       style="color-interpolation-filters:sRGB"
       id="filter913"
       x="-0.041744685"
       width="1.0834894"
       y="-0.056460424"
       height="1.1129208">
      <feGaussianBlur
         inkscape:collect="always"
         stdDeviation="1.8460337"
         id="feGaussianBlur915" />
    </filter>
  </defs>
  <sodipodi:namedview
     pagecolor="#ffffff"
     bordercolor="#666666"
     borderopacity="1"
     objecttolerance="10"
     gridtolerance="10"
     guidetolerance="10"
     inkscape:pageopacity="0"
     inkscape:pageshadow="2"
     inkscape:window-width="1920"
     inkscape:window-height="1018"
     id="namedview28"
     showgrid="false"
     inkscape:zoom="1"
     inkscape:cx="96"
     inkscape:cy="96"
     inkscape:window-x="0"
     inkscape:window-y="32"
     inkscape:window-maximized="1"
     inkscape:current-layer="svg26" />
  <path
     inkscape:connector-curvature="0"
     id="path2"
     d="m 96.351476,20.004132 a 14.997838,14.846019 0 0 0 -7.849648,1.983136 L 31.498168,54.56986 a 14.997838,14.846019 0 0 0 -7.49817,12.855596 v 65.153594 a 14.997838,14.846019 0 0 0 7.49817,12.85559 l 57.00366,32.5768 a 14.997838,14.846019 0 0 0 14.996342,0 l 57.00366,-32.5768 A 14.997838,14.846019 0 0 0 168,132.57905 V 67.425456 A 14.997838,14.846019 0 0 0 160.50183,54.56986 L 103.49817,21.987268 a 14.997838,14.846019 0 0 0 -7.146694,-1.983136 z"
     style="opacity:0.2;stroke-width:4;filter:url(#filter862)" />
  <path
     inkscape:connector-curvature="0"
     id="path4"
     d="m 96.351476,16.00413 a 14.997838,14.846019 0 0 0 -7.849648,1.983136 L 31.498168,50.56986 a 14.997838,14.846019 0 0 0 -7.49817,12.855596 v 65.153594 a 14.997838,14.846019 0 0 0 7.49817,12.85559 l 57.00366,32.5768 a 14.997838,14.846019 0 0 0 14.996342,0 l 57.00366,-32.5768 A 14.997838,14.846019 0 0 0 168,128.57905 V 63.425456 A 14.997838,14.846019 0 0 0 160.50183,50.56986 L 103.49817,17.987266 A 14.997838,14.846019 0 0 0 96.351476,16.00413 Z"
     style="fill:#e4e4e4;stroke-width:4" />
  <path
     style="opacity:0.2;fill:#ffffff;stroke-width:4"
     d="M 96.351562 16.007812 A 14.997838 14.846019 0 0 0 88.5 17.984375 L 31.5 50.570312 A 14.997838 14.846019 0 0 0 24 63.421875 L 24 64.421875 A 14.997838 14.846019 0 0 1 31.5 51.570312 L 88.5 18.984375 A 14.997838 14.846019 0 0 1 96.351562 17.007812 A 14.997838 14.846019 0 0 1 103.5 18.984375 L 160.5 51.570312 A 14.997838 14.846019 0 0 1 168 64.421875 L 168 63.421875 A 14.997838 14.846019 0 0 0 160.5 50.570312 L 103.5 17.984375 A 14.997838 14.846019 0 0 0 96.351562 16.007812 z "
     id="path22" />
  <path
     inkscape:connector-curvature="0"
     id="path6"
     d="M 151.96094,81.537636 140,88.4517 v 29.46094 c -3e-4,4.36835 -2.39238,8.40274 -6.19531,10.55469 l -31.67188,17.91405 c -3.803214,2.15154 -8.462406,2.15154 -12.265622,0 L 58.195312,128.46733 c -0.57044,-0.3228 -1.09792,-0.69929 -1.60156,-1.10157 l -10.726564,6.19531 c 1.810144,2.1142 3.95292,3.95447 6.421876,5.35157 l 31.66406,17.91406 a 16.0016,16.0016 0 0 0 0,0.008 c 7.479584,4.23132 16.614166,4.23132 24.093756,0 a 16.0016,16.0016 0 0 0 0,-0.008 l 31.66406,-17.91406 C 147.19035,134.6805 151.9994,126.64341 152,117.92045 V 82.084512 c -1e-5,-0.1844 -0.0348,-0.36312 -0.0392,-0.546876 z"
     style="opacity:0.1;fill:#000000;stroke-width:4;filter:url(#filter913)" />
  <path
     inkscape:connector-curvature="0"
     id="path8"
     d="M 151.96094,77.539064 140,84.453124 v 29.460936 c -3e-4,4.36836 -2.39238,8.40274 -6.19531,10.55469 l -31.67188,17.91406 c -3.803214,2.15154 -8.462406,2.15154 -12.265622,0 L 58.195312,124.46875 c -0.57044,-0.3228 -1.09792,-0.69929 -1.60156,-1.10156 l -10.726564,6.19531 c 1.810144,2.1142 3.95292,3.95446 6.421876,5.35156 l 31.66406,17.91406 a 16.0016,16.0016 0 0 0 0,0.008 c 7.479584,4.23132 16.614166,4.23132 24.093756,0 a 16.0016,16.0016 0 0 0 0,-0.008 l 31.66406,-17.91406 C 147.19035,130.68193 151.9994,122.64484 152,113.92188 V 78.085936 c -1e-5,-0.1844 -0.0348,-0.36312 -0.0392,-0.546872 z"
     style="fill:#446db9;stroke-width:4" />
  <path
     inkscape:connector-curvature="0"
     id="path10"
     d="m 96.5625,40.006388 c -4.40316,-0.1018 -8.749368,0.977876 -12.601564,3.156248 a 16.0016,16.0016 0 0 0 -0.008,0 l -31.66406,17.921876 c -7.47904,4.23214 -12.288464,12.277032 -12.289064,21 v 35.835938 c 2.12e-4,3.06897 0.635416,6.0332 1.742188,8.78906 l -17.163875,9.90625 a 14.997838,14.846019 0 0 0 4.203125,6.8125 L 45.867188,133.56107 48,132.3267 56.593752,127.36576 C 53.73978,125.0862 52.00026,121.62574 52,117.91264 V 82.0767 c 3e-4,-4.36836 2.392384,-8.394928 6.195312,-10.546876 L 89.867188,53.607952 c 1.956064,-1.106132 4.174924,-1.661336 6.421876,-1.609376 2.052344,0.0468 4.057096,0.59908 5.843746,1.609376 l 31.67188,17.921872 c 0.56706,0.32088 1.07049,0.717556 1.57031,1.117188 L 76,106.92826 v 9.23438 l 63.67188,-36.765628 8.70312,-5.02344 0.59375,-0.34376 1.3125,-0.75 17.14063,-9.898436 a 14.997838,14.846019 0 0 0 -4.20313,-6.8125 l -17.07031,9.859376 c -1.80416,-2.120184 -3.96727,-3.945912 -6.4375,-5.34374 L 108.04688,43.162636 a 16.0016,16.0016 0 0 0 -0.008,0 c -3.51813,-1.989708 -7.45444,-3.0645 -11.47638,-3.156248 z"
     style="opacity:0.1;fill:#000000;stroke-width:4;filter:url(#filter893)" />
  <path
     inkscape:connector-curvature="0"
     id="path12"
     d="m 96.5625,36.007812 c -4.40316,-0.1018 -8.749368,0.977878 -12.601564,3.15625 a 16.0016,16.0016 0 0 0 -0.008,0 l -31.66406,17.921874 c -7.47904,4.23214 -12.288464,12.277036 -12.289064,21 v 35.835944 c 2.12e-4,3.06896 0.635416,6.03319 1.742188,8.78906 l -17.164063,9.90625 a 14.997838,14.846019 0 0 0 4.203125,6.8125 L 45.867188,129.5625 48,128.32812 56.593752,123.36719 C 53.73978,121.08762 52.00026,117.62716 52,113.91406 V 78.078124 c 3e-4,-4.368356 2.392384,-8.394924 6.195312,-10.546876 L 89.867188,49.609376 C 91.823252,48.503244 94.042112,47.94804 96.289064,48 c 2.052344,0.0468 4.057096,0.59908 5.843746,1.609376 l 31.67188,17.921872 c 0.56706,0.32088 1.07049,0.71756 1.57031,1.117188 L 76,102.92969 v 9.23437 L 139.67188,75.398436 148.375,70.375 l 0.59375,-0.34376 1.3125,-0.75 17.14063,-9.898436 a 14.997838,14.846019 0 0 0 -4.20313,-6.8125 l -17.07031,9.859376 c -1.80416,-2.120188 -3.96727,-3.945916 -6.4375,-5.343744 L 108.04688,39.164062 a 16.0016,16.0016 0 0 0 -0.008,0 c -3.51813,-1.989708 -7.45444,-3.064502 -11.47638,-3.15625 z"
     style="fill:#25a6c0;stroke-width:4" />
  <path
     inkscape:connector-curvature="0"
     id="path14"
     d="m 92.289064,67.015624 0.0236,0.0156 c -0.0076,-0.004 -0.016,-0.0034 -0.0236,-0.008 z"
     style="stroke-width:4" />
  <path
     inkscape:connector-curvature="0"
     id="path16"
     d="m 99.710936,67.015624 v 0.008 c -0.0076,0.004 -0.016,0.0035 -0.0236,0.008 z"
     style="stroke-width:4" />
  <path
     inkscape:connector-curvature="0"
     id="path18"
     d="m 92.289064,124.97656 c 0.0048,-0.003 0.0108,0.003 0.0156,0 l -0.0156,0.008 z"
     style="stroke-width:4" />
  <path
     inkscape:connector-curvature="0"
     id="path20"
     d="m 99.695312,124.97656 c 0.0048,0.003 0.0108,-0.003 0.0156,0 v 0.008 z"
     style="stroke-width:4" />
</svg>
