<?xml version="1.0" encoding="UTF-8" standalone="no"?>
<svg
   xmlns:dc="http://purl.org/dc/elements/1.1/"
   xmlns:cc="http://creativecommons.org/ns#"
   xmlns:rdf="http://www.w3.org/1999/02/22-rdf-syntax-ns#"
   xmlns:svg="http://www.w3.org/2000/svg"
   xmlns="http://www.w3.org/2000/svg"
   xmlns:sodipodi="http://sodipodi.sourceforge.net/DTD/sodipodi-0.dtd"
   xmlns:inkscape="http://www.inkscape.org/namespaces/inkscape"
   width="192"
   height="192"
   version="1"
   id="svg12"
   sodipodi:docname="apps_keepass2android.svg"
   inkscape:version="0.92.3 (2405546, 2018-03-11)">
  <metadata
     id="metadata18">
    <rdf:RDF>
      <cc:Work
         rdf:about="">
        <dc:format>image/svg+xml</dc:format>
        <dc:type
           rdf:resource="http://purl.org/dc/dcmitype/StillImage" />
        <dc:title></dc:title>
      </cc:Work>
    </rdf:RDF>
  </metadata>
  <defs
     id="defs16">
    <filter
       inkscape:collect="always"
       style="color-interpolation-filters:sRGB"
       id="filter860"
       x="-0.048"
       width="1.096"
       y="-0.048"
       height="1.096">
      <feGaussianBlur
         inkscape:collect="always"
         stdDeviation="3.2"
         id="feGaussianBlur862" />
    </filter>
    <filter
       inkscape:collect="always"
       style="color-interpolation-filters:sRGB"
       id="filter861"
       x="-0.050227498"
       width="1.100455"
       y="-0.045961683"
       height="1.0919234">
      <feGaussianBlur
         inkscape:collect="always"
         stdDeviation="2.2602374"
         id="feGaussianBlur863" />
    </filter>
  </defs>
  <sodipodi:namedview
     pagecolor="#ffffff"
     bordercolor="#666666"
     borderopacity="1"
     objecttolerance="10"
     gridtolerance="10"
     guidetolerance="10"
     inkscape:pageopacity="0"
     inkscape:pageshadow="2"
     inkscape:window-width="1920"
     inkscape:window-height="1018"
     id="namedview14"
     showgrid="false"
     inkscape:zoom="3.2796268"
     inkscape:cx="90.726977"
     inkscape:cy="73.20688"
     inkscape:window-x="0"
     inkscape:window-y="32"
     inkscape:window-maximized="1"
     inkscape:current-layer="svg12">
    <inkscape:grid
       type="xygrid"
       id="grid852" />
  </sodipodi:namedview>
  <rect
     style="opacity:0.2;stroke-width:4;filter:url(#filter860)"
     width="160"
     height="160"
     x="16"
     y="20"
     rx="8"
     ry="8"
     id="rect2" />
  <rect
     style="fill:#79971f;fill-opacity:1;stroke-width:4"
     width="160"
     height="160"
     x="16"
     y="16"
     rx="8"
     ry="8"
     id="rect4" />
  <path
     inkscape:connector-curvature="0"
     style="opacity:0.2;fill:#ffffff;stroke-width:4"
     d="m 24,16 c -4.432,0 -8,3.568 -8,8 v 1 c 0,-4.432 3.568,-8 8,-8 h 144 c 4.432,0 8,3.568 8,8 v -1 c 0,-4.432 -3.568,-8 -8,-8 z"
     id="path6" />
  <path
     id="path842"
     d="m 65.949219,33.976562 c -1.607483,0.02766 -2.527105,1.844423 -1.597657,3.15625 l 7.886719,11.478516 C 60.549867,55.648629 52.112697,67.723822 50,82 H 60.035156 C 63.275443,64.719489 78.1557,52.003718 95.839844,51.925781 113.632,51.847369 128.6974,64.586392 131.96484,82 H 142 C 139.88473,67.706573 131.4431,55.638347 119.76367,48.607422 l 7.88477,-11.47461 c 0.92945,-1.311829 0.01,-3.128588 -1.59766,-3.15625 -0.68111,-0.01185 -1.32143,0.323764 -1.69922,0.890626 l -8.12109,11.818359 C 110.03369,43.652081 103.09207,41.967857 95.798828,42 88.647885,42.031515 81.848569,43.711268 75.769531,46.6875 L 67.648438,34.867188 c -0.37779,-0.566862 -1.018106,-0.902475 -1.699219,-0.890626 z M 80,62 c -3.313708,0 -6,2.686292 -6,6 0,3.313708 2.686292,6 6,6 3.313708,0 6,-2.686292 6,-6 0,-3.313708 -2.686292,-6 -6,-6 z m 32,0 c -3.31371,0 -6,2.686292 -6,6 0,3.313708 2.68629,6 6,6 3.31371,0 6,-2.686292 6,-6 0,-3.313708 -2.68629,-6 -6,-6 z M 42,88 V 98 H 150 V 88 Z m 0,18 v 10 H 82.367188 C 82.134985,115.03075 82.000775,114.0313 82,113.00586 V 113 c 0,-2.54093 0.713268,-4.93078 1.929688,-7 z m 54,0 c -3.865993,0 -7,3.13401 -7,7 0.0019,2.52553 1.364016,4.85424 3.564453,6.09375 L 89,134 h 14 L 98.867188,119.37695 C 101.37909,118.24913 102.99649,115.75347 103,113 c 0,-3.86599 -3.134007,-7 -7,-7 z m 12.07031,0 c 1.21642,2.06922 1.92969,4.45907 1.92969,7 v 0.01 c -0.001,1.02607 -0.13891,2.02344 -0.37109,2.99023 H 150 V 106 Z M 42,124 v 10 h 40.007812 c -0.0028,-0.54829 0.05882,-1.095 0.183594,-1.62891 L 84.193359,124 Z m 65.44727,0 2.28906,8.0957 c 0.17306,0.6199 0.25982,1.2607 0.25781,1.9043 H 150 V 124 Z M 42,142 v 10 h 108 v -10 z"
     style="opacity:0.2;fill:#000000;fill-opacity:1;stroke:none;stroke-width:12.50692177;stroke-linecap:round;stroke-linejoin:round;stroke-miterlimit:4;stroke-dasharray:none;stroke-opacity:1;filter:url(#filter861)"
     inkscape:connector-curvature="0" />
  <path
     inkscape:connector-curvature="0"
     style="opacity:1;fill:#ffffff;fill-opacity:1;stroke:none;stroke-width:12.50692177;stroke-linecap:round;stroke-linejoin:round;stroke-miterlimit:4;stroke-dasharray:none;stroke-opacity:1"
     d="m 65.949219,31.976562 c -1.607483,0.02766 -2.527105,1.844423 -1.597657,3.15625 l 7.886719,11.478516 C 60.549867,53.648629 52.112697,65.723822 50,80 H 60.035156 C 63.275443,62.719489 78.1557,50.003718 95.839844,49.925781 113.632,49.847369 128.6974,62.586392 131.96484,80 H 142 C 139.88473,65.706573 131.4431,53.638347 119.76367,46.607422 l 7.88477,-11.47461 c 0.92945,-1.311829 0.01,-3.128588 -1.59766,-3.15625 -0.68111,-0.01185 -1.32143,0.323764 -1.69922,0.890626 l -8.12109,11.818359 C 110.03369,41.652081 103.09207,39.967857 95.798828,40 88.647885,40.031515 81.848569,41.711268 75.769531,44.6875 L 67.648438,32.867188 c -0.37779,-0.566862 -1.018106,-0.902475 -1.699219,-0.890626 z M 80,60 c -3.313708,0 -6,2.686292 -6,6 0,3.313708 2.686292,6 6,6 3.313708,0 6,-2.686292 6,-6 0,-3.313708 -2.686292,-6 -6,-6 z m 32,0 c -3.31371,0 -6,2.686292 -6,6 0,3.313708 2.68629,6 6,6 3.31371,0 6,-2.686292 6,-6 0,-3.313708 -2.68629,-6 -6,-6 z M 42,86 V 96 H 150 V 86 Z m 0,18 v 10 H 82.367188 C 82.134985,113.03075 82.000775,112.0313 82,111.00586 V 111 c 0,-2.54093 0.713268,-4.93078 1.929688,-7 z m 54,0 c -3.865993,0 -7,3.13401 -7,7 0.0019,2.52553 1.364016,4.85424 3.564453,6.09375 L 89,132 h 14 L 98.867188,117.37695 C 101.37909,116.24913 102.99649,113.75347 103,111 c 0,-3.86599 -3.134007,-7 -7,-7 z m 12.07031,0 c 1.21642,2.06922 1.92969,4.45907 1.92969,7 v 0.01 c -0.001,1.02607 -0.13891,2.02344 -0.37109,2.99023 H 150 V 104 Z M 42,122 v 10 h 40.007812 c -0.0028,-0.54829 0.05882,-1.095 0.183594,-1.62891 L 84.193359,122 Z m 65.44727,0 2.28906,8.0957 c 0.17306,0.6199 0.25982,1.2607 0.25781,1.9043 H 150 V 122 Z M 42,140 v 10 h 108 v -10 z"
     id="path839" />
</svg>
