<?xml version="1.0" encoding="UTF-8" standalone="no"?>
<svg
   xmlns:dc="http://purl.org/dc/elements/1.1/"
   xmlns:cc="http://creativecommons.org/ns#"
   xmlns:rdf="http://www.w3.org/1999/02/22-rdf-syntax-ns#"
   xmlns:svg="http://www.w3.org/2000/svg"
   xmlns="http://www.w3.org/2000/svg"
   xmlns:sodipodi="http://sodipodi.sourceforge.net/DTD/sodipodi-0.dtd"
   xmlns:inkscape="http://www.inkscape.org/namespaces/inkscape"
   width="192"
   height="192"
   version="1"
   id="svg18"
   sodipodi:docname="apps_keepass_dx.svg"
   inkscape:version="0.92.3 (2405546, 2018-03-11)">
  <metadata
     id="metadata24">
    <rdf:RDF>
      <cc:Work
         rdf:about="">
        <dc:format>image/svg+xml</dc:format>
        <dc:type
           rdf:resource="http://purl.org/dc/dcmitype/StillImage" />
      </cc:Work>
    </rdf:RDF>
  </metadata>
  <defs
     id="defs22">
    <filter
       inkscape:collect="always"
       style="color-interpolation-filters:sRGB"
       id="filter857"
       x="-0.048"
       width="1.096"
       y="-0.048"
       height="1.096">
      <feGaussianBlur
         inkscape:collect="always"
         stdDeviation="3.2"
         id="feGaussianBlur859" />
    </filter>
    <filter
       inkscape:collect="always"
       style="color-interpolation-filters:sRGB"
       id="filter873"
       x="-0.048"
       width="1.096"
       y="-0.048"
       height="1.096">
      <feGaussianBlur
         inkscape:collect="always"
         stdDeviation="2.08"
         id="feGaussianBlur875" />
    </filter>
    <filter
       inkscape:collect="always"
       style="color-interpolation-filters:sRGB"
       id="filter881"
       x="-0.024"
       width="1.048"
       y="-0.024"
       height="1.048">
      <feGaussianBlur
         inkscape:collect="always"
         stdDeviation="0.96"
         id="feGaussianBlur883" />
    </filter>
  </defs>
  <sodipodi:namedview
     pagecolor="#ffffff"
     bordercolor="#666666"
     borderopacity="1"
     objecttolerance="10"
     gridtolerance="10"
     guidetolerance="10"
     inkscape:pageopacity="0"
     inkscape:pageshadow="2"
     inkscape:window-width="1920"
     inkscape:window-height="1018"
     id="namedview20"
     showgrid="false"
     inkscape:zoom="1"
     inkscape:cx="142.08147"
     inkscape:cy="127.83024"
     inkscape:window-x="0"
     inkscape:window-y="32"
     inkscape:window-maximized="1"
     inkscape:current-layer="svg18" />
  <rect
     id="rect2"
     transform="matrix(0,-1,-1,0,0,0)"
     ry="8"
     rx="8"
     y="-176"
     x="-180"
     height="160"
     width="160"
     style="opacity:0.2;stroke-width:4;filter:url(#filter857)" />
  <rect
     id="rect4"
     transform="matrix(0,-1,-1,0,0,0)"
     ry="8"
     rx="8"
     y="-176"
     x="-176"
     height="160"
     width="160"
     style="fill:#38a334;stroke-width:4" />
  <path
     inkscape:connector-curvature="0"
     id="path6"
     d="M 120,48 A 28,28 0 0 0 92,76 28,28 0 0 0 94.593752,87.695312 L 44,138.28906 V 139.07812 152 h 12.921876 0.78906 L 63.789064,145.92188 65.960936,144 H 80 V 129.71094 L 85.710936,124 h 14.14844 l -1.515624,-12.63281 9.960938,-9.96094 A 28,28 0 0 0 120,104 28,28 0 0 0 148,76 28,28 0 0 0 140,56.414064 V 56 h -0.44531 A 28,28 0 0 0 120,48 Z m 8,8 a 12,12 0 0 1 12,12 12,12 0 0 1 -12,12 12,12 0 0 1 -12,-12 12,12 0 0 1 12,-12 z"
     style="opacity:0.2;stroke-width:4;filter:url(#filter873)" />
  <path
     inkscape:connector-curvature="0"
     id="path8"
     d="m 120,44 c -15.46397,0 -28,12.536027 -28,28 0.01074,4.039904 0.895576,8.029642 2.593752,11.695312 L 44,134.28906 V 135.07812 148 h 12.921876 0.78906 L 63.789064,141.92188 65.960936,140 H 80 V 125.71094 L 85.710936,120 h 14.14844 l -1.515624,-12.63281 9.960938,-9.960942 C 111.97036,99.104424 115.9601,99.989256 120,100 c 15.46397,0 28,-12.536027 28,-28 -0.003,-7.323643 -2.87452,-14.354763 -8,-19.585936 v 0 L 139.55469,52 C 134.33125,46.882076 127.31282,44.010776 120,44 Z m 8,8 c 6.62742,0 12,5.372583 12,12 0,6.627417 -5.37258,12 -12,12 -6.62742,0 -12,-5.372583 -12,-12 0,-6.627417 5.37258,-12 12,-12 z"
     style="fill:#ffffff;stroke-width:4"
     sodipodi:nodetypes="ccccccccccccccccccccccsssss" />
  <path
     inkscape:connector-curvature="0"
     id="path10"
     d="M 44,67.714288 V 54 H 57.714288 L 140,136.28571 V 150 h -13.71429 z"
     style="opacity:0.1;stroke-width:4;filter:url(#filter881)" />
  <path
     inkscape:connector-curvature="0"
     id="path12"
     d="M 44,65.714288 V 52 H 57.714288 L 140,134.28571 V 148 h -13.71429 z"
     style="fill:#454545;stroke-width:4" />
  <path
     style="opacity:0.2;fill:#ffffff;stroke-width:4"
     d="M 24 16 C 19.568 16 16 19.568 16 24 L 16 25 C 16 20.568 19.568 17 24 17 L 168 17 C 172.432 17 176 20.568 176 25 L 176 24 C 176 19.568 172.432 16 168 16 L 24 16 z "
     id="path14" />
</svg>
