<?xml version="1.0" encoding="UTF-8" standalone="no"?>
<svg
   xmlns:dc="http://purl.org/dc/elements/1.1/"
   xmlns:cc="http://creativecommons.org/ns#"
   xmlns:rdf="http://www.w3.org/1999/02/22-rdf-syntax-ns#"
   xmlns:svg="http://www.w3.org/2000/svg"
   xmlns="http://www.w3.org/2000/svg"
   xmlns:sodipodi="http://sodipodi.sourceforge.net/DTD/sodipodi-0.dtd"
   xmlns:inkscape="http://www.inkscape.org/namespaces/inkscape"
   width="192"
   height="192"
   version="1"
   id="svg16"
   sodipodi:docname="apps_dropbox.svg"
   inkscape:version="0.92.3 (2405546, 2018-03-11)">
  <metadata
     id="metadata22">
    <rdf:RDF>
      <cc:Work
         rdf:about="">
        <dc:format>image/svg+xml</dc:format>
        <dc:type
           rdf:resource="http://purl.org/dc/dcmitype/StillImage" />
        <dc:title></dc:title>
      </cc:Work>
    </rdf:RDF>
  </metadata>
  <defs
     id="defs20">
    <filter
       inkscape:collect="always"
       style="color-interpolation-filters:sRGB"
       id="filter875"
       x="-0.040153845"
       width="1.0803077"
       y="-0.059657146"
       height="1.1193143">
      <feGaussianBlur
         inkscape:collect="always"
         stdDeviation="1.7399999"
         id="feGaussianBlur877" />
    </filter>
    <filter
       inkscape:collect="always"
       style="color-interpolation-filters:sRGB"
       id="filter945"
       x="-0.040895034"
       width="1.0817901"
       y="-0.058092857"
       height="1.1161857">
      <feGaussianBlur
         inkscape:collect="always"
         stdDeviation="2.9308108"
         id="feGaussianBlur947" />
    </filter>
    <filter
       inkscape:collect="always"
       style="color-interpolation-filters:sRGB"
       id="filter963"
       x="-0.037846154"
       width="1.0756923"
       y="-0.0656"
       height="1.1312">
      <feGaussianBlur
         inkscape:collect="always"
         stdDeviation="1.64"
         id="feGaussianBlur965" />
    </filter>
  </defs>
  <sodipodi:namedview
     pagecolor="#ffffff"
     bordercolor="#666666"
     borderopacity="1"
     objecttolerance="10"
     gridtolerance="10"
     guidetolerance="10"
     inkscape:pageopacity="0"
     inkscape:pageshadow="2"
     inkscape:window-width="1920"
     inkscape:window-height="1018"
     id="namedview18"
     showgrid="false"
     inkscape:zoom="2.45"
     inkscape:cx="72.307299"
     inkscape:cy="124.25063"
     inkscape:window-x="0"
     inkscape:window-y="32"
     inkscape:window-maximized="1"
     inkscape:current-layer="svg16" />
  <path
     id="path853"
     d="m 96.050783,110.00018 a 7.4293141,7.0010277 0 0 0 -3.402347,0.75198 L 63.87723,124.47253 53.837053,121.22532 A 7.4293141,7.0010277 0 0 0 44,127.84965 v 18.90225 a 7.4293141,7.0010277 0 0 0 3.496649,5.93387 L 92.06808,178.937 a 7.4293141,7.0010277 0 0 0 7.87109,0 l 44.57144,-26.25123 A 7.4293141,7.0010277 0 0 0 148,146.7519 v -16.80352 a 7.4293141,7.0010277 0 0 0 -11.38226,-5.92704 l -8.84319,5.24342 -27.53794,-18.01354 a 7.4293141,7.0010277 0 0 0 -4.185827,-1.25104 z"
     style="opacity:0.2;fill:#000000;stroke-width:4.35411692;filter:url(#filter875)"
     inkscape:connector-curvature="0" />
  <path
     inkscape:connector-curvature="0"
     style="fill:#1383d9;stroke-width:4.35411692"
     d="m 96.050783,106.00018 a 7.4293141,7.0010277 0 0 0 -3.402347,0.75198 L 63.87723,120.47253 53.837053,117.22532 A 7.4293141,7.0010277 0 0 0 44,123.84965 v 18.90225 a 7.4293141,7.0010277 0 0 0 3.496649,5.93387 L 92.06808,174.937 a 7.4293141,7.0010277 0 0 0 7.87109,0 l 44.57144,-26.25123 A 7.4293141,7.0010277 0 0 0 148,142.7519 v -16.80352 a 7.4293141,7.0010277 0 0 0 -11.38226,-5.92704 l -8.84319,5.24342 -27.53794,-18.01354 a 7.4293141,7.0010277 0 0 0 -4.185827,-1.25104 z"
     id="path4" />
  <path
     sodipodi:nodetypes="ccccccccccccc"
     id="path915"
     d="M 61.6,17.99992 10,50.432353 44,78.99992 10,106.64857 61.6,139.081 96,108.99992 130.4,139.081 182,106.64857 148,78.99992 182,50.432353 130.4,17.99992 l -34.4,31 z"
     style="opacity:0.2;fill:#000000;stroke-width:4.31214523;filter:url(#filter945)"
     inkscape:connector-curvature="0" />
  <path
     inkscape:connector-curvature="0"
     style="fill:#5aacff;stroke-width:4.31214523"
     d="M 61.6,16 10,48.432433 44,77 10,104.64865 61.6,137.08108 96,107 130.4,137.08108 182,104.64865 148,77 182,48.432433 130.4,16 96,47 Z"
     id="path8"
     sodipodi:nodetypes="ccccccccccccc" />
  <path
     id="path949"
     d="M 148,79 96,109 44,79 96,49 Z"
     style="opacity:0.2;fill:#000000;stroke-width:4.30945826;filter:url(#filter963)"
     inkscape:connector-curvature="0" />
  <path
     inkscape:connector-curvature="0"
     style="fill:#ffffff;stroke-width:4.30945826"
     d="M 148,77 96,107 44,77 96,47 Z"
     id="path12" />
  <path
     style="fill:#ffffff;stroke-width:4.31214523;opacity:0.2"
     d="M 61.599609 16 L 10 48.431641 L 10.681641 49.003906 L 61.599609 17 L 96 48 L 130.40039 17 L 181.31836 49.003906 L 182 48.431641 L 130.40039 16 L 96 47 L 61.599609 16 z M 43.394531 77.492188 L 10 104.64844 L 10.693359 105.08398 L 44 78 L 43.394531 77.492188 z M 148.60547 77.492188 L 148 78 L 181.30664 105.08398 L 182 104.64844 L 148.60547 77.492188 z "
     id="path967" />
</svg>
