<?xml version="1.0" encoding="UTF-8" standalone="no"?>
<svg
   xmlns:dc="http://purl.org/dc/elements/1.1/"
   xmlns:cc="http://creativecommons.org/ns#"
   xmlns:rdf="http://www.w3.org/1999/02/22-rdf-syntax-ns#"
   xmlns:svg="http://www.w3.org/2000/svg"
   xmlns="http://www.w3.org/2000/svg"
   xmlns:sodipodi="http://sodipodi.sourceforge.net/DTD/sodipodi-0.dtd"
   xmlns:inkscape="http://www.inkscape.org/namespaces/inkscape"
   width="192"
   height="192"
   version="1.1"
   id="svg22"
   sodipodi:docname="apps_hubstaff.svg"
   inkscape:version="0.92.3 (2405546, 2018-03-11)">
  <metadata
     id="metadata28">
    <rdf:RDF>
      <cc:Work
         rdf:about="">
        <dc:format>image/svg+xml</dc:format>
        <dc:type
           rdf:resource="http://purl.org/dc/dcmitype/StillImage" />
        <dc:title></dc:title>
      </cc:Work>
    </rdf:RDF>
  </metadata>
  <defs
     id="defs26">
    <filter
       inkscape:collect="always"
       style="color-interpolation-filters:sRGB"
       id="filter870"
       x="-0.048000108"
       width="1.0960002"
       y="-0.047999892"
       height="1.0959998">
      <feGaussianBlur
         inkscape:collect="always"
         stdDeviation="3.2000072"
         id="feGaussianBlur872" />
    </filter>
    <filter
       inkscape:collect="always"
       style="color-interpolation-filters:sRGB"
       id="filter890"
       x="-0.048"
       width="1.096"
       y="-0.048"
       height="1.096">
      <feGaussianBlur
         inkscape:collect="always"
         stdDeviation="1.6"
         id="feGaussianBlur892" />
    </filter>
  </defs>
  <sodipodi:namedview
     pagecolor="#ffffff"
     bordercolor="#666666"
     borderopacity="1"
     objecttolerance="10"
     gridtolerance="10"
     guidetolerance="10"
     inkscape:pageopacity="0"
     inkscape:pageshadow="2"
     inkscape:window-width="1920"
     inkscape:window-height="1018"
     id="namedview24"
     showgrid="false"
     inkscape:zoom="2.45"
     inkscape:cx="23.183673"
     inkscape:cy="89.306122"
     inkscape:window-x="0"
     inkscape:window-y="32"
     inkscape:window-maximized="1"
     inkscape:current-layer="svg22" />
  <path
     style="opacity:0.2;stroke-width:4;filter:url(#filter870)"
     d="M 80.375 20 C 77.925284 20 41.56807 40.396235 40.240234 42.492188 C 39.672434 43.387972 39.575306 46.728581 40.023438 49.917969 C 41.876845 63.109533 36.269128 72.020336 23.486328 77.535156 L 16 80.765625 L 16 103.35352 C 16 115.7765 16.478191 126.42086 17.0625 127.00781 C 20.485279 130.44612 45.67577 124.37544 55.884766 117.65234 L 60.619141 114.53516 L 60.126953 104.04297 C 59.731077 95.598157 60.228305 92.240174 62.675781 86.830078 C 66.758861 77.804418 74.331337 70.526125 83.355469 66.953125 C 89.760053 64.417293 90.921146 63.374005 91.669922 59.480469 C 93.33389 50.827677 88.412242 27.820716 83.59375 21.726562 C 82.842618 20.776557 81.3942 20 80.375 20 z M 111.625 20 C 110.6058 20 109.15739 20.776557 108.40625 21.726562 C 103.58777 27.820716 98.66611 50.827677 100.33008 59.480469 C 101.07886 63.374005 102.23994 64.417293 108.64453 66.953125 C 117.66865 70.526125 125.24114 77.804418 129.32422 86.830078 C 131.7717 92.240174 132.26893 95.598157 131.87305 104.04297 L 131.38086 114.53516 L 136.11523 117.65234 C 146.32423 124.37544 171.51472 130.44612 174.9375 127.00781 C 175.52182 126.42086 176 115.7765 176 103.35352 L 176 80.765625 L 168.51367 77.535156 C 155.73087 72.020336 150.52551 63.109533 152.37891 49.917969 C 152.82705 46.728581 152.72991 43.387971 152.16211 42.492188 C 150.83425 40.396236 114.07472 20 111.625 20 z M 65.742188 124 L 59.15625 127.48633 C 50.710722 131.95645 33.465277 148.2126 32.322266 152.78125 C 31.169006 157.39079 32.060217 158.13686 53.160156 170.22656 C 59.250592 173.71622 65.070838 176.81134 68.914062 178.64844 C 71.932182 179.9559 73.267843 181.33222 75.476562 177.48633 C 78.562882 173.90891 85.123716 168.32227 96 168.32227 C 105.9764 168.32227 112.63121 173.02198 116.22852 176.56055 C 118.67317 179.40173 119.18866 181.30529 123.49219 178.60547 C 127.39298 176.61801 133.64998 173.18501 140.38477 169.30469 C 164.58378 155.36217 164.61558 155.27088 150.14258 141.14844 C 144.37854 135.524 136.69102 129.36648 133.06055 127.46484 L 126.46094 124.00781 L 119.49023 129.06836 C 110.80202 135.37703 104.84298 137.43792 95.523438 137.35742 C 86.238038 137.27726 79.296911 134.76826 71.742188 128.76562 L 65.742188 124 z "
     id="path2" />
  <path
     inkscape:connector-curvature="0"
     style="fill:#4061dc;stroke-width:4"
     d="M 53.159772,166.22652 C 32.059833,154.13682 31.169098,153.39117 32.322358,148.78163 33.465369,144.21298 50.711248,127.9558 59.156776,123.48568 L 65.742332,120 l 5.99894,4.76647 c 7.554724,6.00263 14.497488,8.51041 23.782888,8.59057 9.31954,0.0805 15.27849,-1.98052 23.9667,-8.28919 l 6.96936,-5.06057 6.60085,3.45752 c 3.63047,1.90164 11.31687,8.05934 17.08091,13.68378 14.473,14.12244 14.4414,14.21356 -9.75761,28.15608 -6.73479,3.88032 -12.99139,7.31245 -16.89218,9.29991 -4.30353,2.69982 -4.81827,0.79737 -7.26292,-2.04381 -3.59731,-3.53857 -10.25287,-8.23817 -20.22927,-8.23817 -10.876284,0 -17.436632,5.58567 -20.522952,9.16309 -2.20872,3.84589 -3.544652,2.46942 -6.562772,1.16196 -3.843224,-1.8371 -9.664068,-4.93146 -15.754504,-8.42112 z"
     id="path8" />
  <circle
     style="opacity:0.2;stroke-width:4;filter:url(#filter890)"
     cx="96"
     cy="98"
     r="40"
     id="circle10" />
  <path
     inkscape:connector-curvature="0"
     style="fill:#088aff;stroke-width:4"
     d="M 17.06245,123.00715 C 16.478141,122.4202 16.000074,111.77571 16.000074,99.352728 V 76.76548 l 7.485649,-3.229512 C 36.268523,68.021148 41.876768,59.110464 40.02336,45.9189 39.575228,42.729512 39.67284,39.387102 40.24064,38.491318 41.568476,36.395365 77.925412,16 80.375128,16 c 1.0192,0 2.467644,0.777275 3.218776,1.72728 4.818492,6.094153 9.739812,29.101024 8.075844,37.753816 -0.748776,3.893536 -1.908948,4.936296 -8.313532,7.472128 -9.024132,3.573 -16.596612,10.851668 -20.679692,19.877328 -2.447476,5.410096 -2.944632,8.767576 -2.548756,17.212388 l 0.491792,10.49126 -4.734968,3.11822 c -10.208996,6.7231 -35.399171,12.79304 -38.82195,9.35473 z"
     id="path12" />
  <path
     inkscape:connector-curvature="0"
     style="fill:#5fbbff;stroke-width:4"
     d="M 174.93762,123.00715 C 175.52194,122.4202 176,111.77571 176,99.352728 V 76.76548 l -7.48565,-3.229512 c -12.7828,-5.51482 -17.98801,-14.425504 -16.13461,-27.617068 0.44814,-3.189388 0.35053,-6.531798 -0.21726,-7.427582 C 150.83462,36.395365 114.07465,16 111.62494,16 c -1.0192,0 -2.46765,0.777275 -3.21878,1.72728 -4.81849,6.094153 -9.739812,29.101024 -8.07584,37.753816 0.74877,3.893536 1.90894,4.936296 8.31353,7.472128 9.02413,3.573 16.59661,10.851668 20.67969,19.877328 2.44748,5.410096 2.94463,8.767576 2.54876,17.212388 l -0.4918,10.49126 4.73498,3.11822 c 10.20899,6.7231 35.39917,12.79304 38.82194,9.35473 z"
     id="path14" />
  <circle
     style="fill:#ffffff;stroke-width:4"
     cx="96"
     cy="96"
     r="40"
     id="circle16" />
  <path
     style="opacity:0.2;fill:#ffffff;stroke-width:4"
     d="M 80.375 16 C 77.925284 16 41.570023 36.396234 40.242188 38.492188 C 39.899217 39.033268 39.794592 40.535258 39.835938 42.3125 C 39.854103 41.000787 39.967414 39.925679 40.242188 39.492188 C 41.570023 37.396234 77.925284 17 80.375 17 C 81.3942 17 82.842618 17.776557 83.59375 18.726562 C 87.681571 23.89661 91.778189 41.112473 91.921875 51.519531 C 92.047038 41.254988 87.815963 23.066582 83.59375 17.726562 C 82.842618 16.776557 81.3942 16 80.375 16 z M 111.625 16 C 110.6058 16 109.15738 16.776557 108.40625 17.726562 C 104.18404 23.066581 99.952955 41.254988 100.07812 51.519531 C 100.2218 41.112473 104.31843 23.89661 108.40625 18.726562 C 109.15738 17.776557 110.6058 17 111.625 17 C 114.07472 17 150.8362 37.396234 152.16406 39.492188 C 152.43659 39.922099 152.54547 40.982764 152.5625 42.279297 C 152.60395 40.516917 152.50492 39.029868 152.16406 38.492188 C 150.8362 36.396234 114.07472 16 111.625 16 z M 40.210938 52.554688 C 39.544525 62.145952 33.97624 69.012608 23.484375 73.539062 L 16 76.765625 L 16 77.765625 L 23.484375 74.539062 C 33.97624 70.012608 39.544525 63.145951 40.210938 53.554688 C 40.246458 54.101081 40.253786 54.631294 40.261719 55.162109 C 40.277285 54.311176 40.268951 53.44707 40.210938 52.554688 z M 152.16406 52.765625 C 152.10797 53.654485 152.10087 54.515807 152.11523 55.363281 C 152.12324 54.835555 152.12978 54.308847 152.16406 53.765625 C 152.7994 63.245713 158.101 70.045935 168.51562 74.539062 L 176 77.765625 L 176 76.765625 L 168.51562 73.539062 C 158.101 69.045935 152.7994 62.245713 152.16406 52.765625 z M 60.078125 97.71875 C 60.039518 98.720285 60.029025 99.808653 60.041016 100.98242 C 60.044355 100.19802 60.050857 99.426126 60.078125 98.71875 C 60.098595 99.506578 60.08312 100.14586 60.125 101.03906 L 60.572266 110.56055 L 60.617188 110.53125 L 60.125 100.03906 C 60.08312 99.145858 60.098605 98.506578 60.078125 97.71875 z M 131.92188 97.71875 C 131.90107 98.506578 131.9169 99.145861 131.875 100.03906 L 131.38281 110.53125 L 131.42773 110.56055 L 131.875 101.03906 C 131.9169 100.14586 131.90107 99.506578 131.92188 98.71875 C 131.94913 99.426126 131.95565 100.19802 131.95898 100.98242 C 131.97097 99.808654 131.96047 98.720285 131.92188 97.71875 z "
     id="path18" />
</svg>
