<?xml version="1.0" encoding="UTF-8" standalone="no"?>
<svg
   xmlns:dc="http://purl.org/dc/elements/1.1/"
   xmlns:cc="http://creativecommons.org/ns#"
   xmlns:rdf="http://www.w3.org/1999/02/22-rdf-syntax-ns#"
   xmlns:svg="http://www.w3.org/2000/svg"
   xmlns="http://www.w3.org/2000/svg"
   xmlns:sodipodi="http://sodipodi.sourceforge.net/DTD/sodipodi-0.dtd"
   xmlns:inkscape="http://www.inkscape.org/namespaces/inkscape"
   width="192"
   height="192"
   version="1"
   id="svg24"
   sodipodi:docname="apps_phoenix_browser.svg"
   inkscape:version="0.92.3 (2405546, 2018-03-11)">
  <metadata
     id="metadata30">
    <rdf:RDF>
      <cc:Work
         rdf:about="">
        <dc:format>image/svg+xml</dc:format>
        <dc:type
           rdf:resource="http://purl.org/dc/dcmitype/StillImage" />
      </cc:Work>
    </rdf:RDF>
  </metadata>
  <defs
     id="defs28">
    <filter
       inkscape:collect="always"
       style="color-interpolation-filters:sRGB"
       id="filter868"
       x="-0.048"
       width="1.096"
       y="-0.048"
       height="1.096">
      <feGaussianBlur
         inkscape:collect="always"
         stdDeviation="3.2"
         id="feGaussianBlur870" />
    </filter>
    <filter
       inkscape:collect="always"
       style="color-interpolation-filters:sRGB"
       id="filter892"
       x="-0.023976344"
       width="1.0479527"
       y="-0.024023703"
       height="1.0480474">
      <feGaussianBlur
         inkscape:collect="always"
         stdDeviation="1.5606023"
         id="feGaussianBlur894" />
    </filter>
  </defs>
  <sodipodi:namedview
     pagecolor="#ffffff"
     bordercolor="#666666"
     borderopacity="1"
     objecttolerance="10"
     gridtolerance="10"
     guidetolerance="10"
     inkscape:pageopacity="0"
     inkscape:pageshadow="2"
     inkscape:window-width="1920"
     inkscape:window-height="1018"
     id="namedview26"
     showgrid="false"
     inkscape:zoom="1"
     inkscape:cx="96"
     inkscape:cy="82.928105"
     inkscape:window-x="0"
     inkscape:window-y="32"
     inkscape:window-maximized="1"
     inkscape:current-layer="svg24" />
  <circle
     style="opacity:0.2;fill:#000000;fill-opacity:1;stroke-width:1.77559197;filter:url(#filter868)"
     id="path850"
     cx="96"
     cy="100"
     r="80" />
  <path
     inkscape:connector-curvature="0"
     id="path2"
     d="M 176,96 C 176,70.618408 164.29909,48.070504 145.9756,33.43512 132.30357,22.514967 112.6588,20.190474 93.722288,20.190474 c -44.315568,0 -73.134852,30.727622 -73.134852,75.047622 0,32.463284 16.855377,57.243414 44.51226,69.809284 2.29924,1.04465 2.37162,5.79335 4.782468,6.62094 6.551824,2.2491 13.493248,3.67407 20.701728,4.15237 1.792156,0.11892 6.456508,-1.04455 8.279796,-1.04455 10.264792,0 15.578582,-3.13818 24.580352,-6.63077 7.29229,-2.82933 15.69172,-4.24667 21.75601,-8.96885 C 163.96828,144.56197 176,121.73789 176,96 Z"
     style="fill:#554a85;stroke-width:4;fill-opacity:1" />
  <path
     inkscape:connector-curvature="0"
     id="path6"
     d="M 96.007812,20 C 52.363676,20 17.121088,54.615452 16.0625,98 c 1.002921,41.10342 32.693744,74.31509 73.140624,77.69531 7.577164,-2.00204 15.169506,-6.64678 22.124996,-13.65625 C 120.62865,152.6663 124.83619,139.15368 124,123.39844 123.40015,112.09664 120.29117,103.41237 113.80469,96.882812 109.01814,91.421244 102.7641,89.561036 96,88.617188 c -0.2492,0.154 1.95974,2.451256 2.851564,5.109376 1.401196,4.17604 1.622226,5.61776 1.593746,10.601556 -0.0412,7.21212 -1.349666,12.47004 -4.968746,20 -4.74188,9.86604 -10.787096,17.04894 -19.21094,21.08594 -10.543092,5.05264 -20.028432,2.711 -28.125,-5.375 -4.146996,-4.1416 -6.675372,-8.5883 -8.320312,-14.66406 -1.551796,-5.73164 -1.657514,-19.24027 -0.218748,-27.367188 1.817918,-10.26864 6.272786,-21.669324 11.125002,-28.476564 1.044012,-1.46464 1.751424,-2.811064 1.570312,-2.992184 -0.18112,-0.1812 -1.128972,0.12336 -2.101564,0.679688 -3.96104,2.264908 -7.62692,5.546776 -11.125,9.960936 -2.031508,2.56356 -3.818442,4.540904 -3.96875,4.390624 -0.455492,-0.45552 3.525564,-8.3799 6.312502,-12.5625 3.249516,-4.87688 11.957524,-13.775016 16.35156,-16.710936 7.196868,-4.80864 17.220772,-6.846336 27.195312,-8.96094 6.849532,-1.45208 19.664592,-1.316864 25.265632,0.26564 2.26592,0.6402 4.73689,1.331664 5.49218,1.53906 l 1.375,0.375 -1.30468,-1.421872 C 107.58967,37.883646 97.056352,36.335 89.625,36.34375 c -7.46392,0.016 -11.4369,0.47534 -18.953124,2.1875 l -1.367188,0.3125 c 4.546888,-3.427385 10.674968,-4.54178 15.578124,-5.4375 18.587208,-3.26796 40.392748,-2.557722 61.742188,6.398438 2.6837,1.125804 4.06846,1.917196 5.53125,3.156248 -1.80279,-1.774796 -3.69186,-3.464069 -5.65625,-5.062498 -1.96439,-1.59843 -4.00385,-3.106557 -6.11719,-4.515626 -2.11333,-1.409068 -4.29725,-2.722976 -6.54687,-3.929687 -2.24963,-1.206711 -4.56424,-2.305515 -6.9375,-3.296875 -2.3657,-0.9882 -4.78963,-1.863673 -7.26563,-2.625 -0.008,-0.0024 -0.0156,-0.0054 -0.0236,-0.0078 -0.27848,-0.08554 -0.57176,-0.13618 -0.85156,-0.218748 -4.70716,-1.389202 -9.58529,-2.393306 -14.61719,-2.898438 -0.005,-5.14e-4 -0.0104,5.13e-4 -0.0156,0 C 101.45704,20.138888 98.749072,20 96.007812,20 Z m -2.398436,32 c -3.185692,0.02 -10.167896,2.027964 -14.992188,4.359376 -3.607188,1.743228 -5.659504,3.220436 -8.882812,6.398436 -6.597544,6.504824 -9.319196,13.3584 -9.640624,24.25 C 59.996748,90.294576 60,92 60,92 60,92 55.605108,89.435436 54.085936,85.617188 53.15502,83.277472 52,80 52,80 52,80 51.104996,84.023272 50.781248,89.195312 49.301064,103.41101 56.971644,108.99759 60,120 c 0,0 -3.425232,-2.80379 -6.492188,-6.54688 C 51.77166,111.33421 50,108 50,108 c 0,0 -1.252552,2.60779 -1.781248,6.28906 -1.52798,10.63933 4.992064,21.31578 15.117184,24.76563 3.576216,1.21848 5.454948,1.25291 9.226564,0.14844 9.78078,-2.86416 21.507812,-16.06237 21.507812,-24.20313 0,-1.3117 -0.686676,-2.25003 -3.453124,-4.74218 -9.658492,-8.70085 -12.664372,-12.500952 -14.789064,-18.679692 -2.353564,-6.8443 -0.78588,-16.414724 3.96094,-24.203124 2.409332,-3.95312 8.08096,-9.68548 12.625,-12.757812 L 96,52.195312 94.195312,52.023436 C 94.018512,52.007436 93.821688,52 93.609376,52 Z M 136,52 c -0.1476,0.1476 2.89554,3.998804 4.41406,6.203124 5.33456,7.74368 7.86812,16.484716 7.875,27.171876 0.008,13.05008 -2.71304,20.46738 -11.52344,31.41406 -6.57036,8.16352 -7.69605,10.38459 -8.96093,17.67969 -1.41996,8.18951 -1.94388,10.28578 -3.89844,15.6875 -4.0209,11.11221 -13.16069,20.62174 -24.109374,25.75 13.188444,-0.61011 25.483834,-4.43895 36.226564,-10.64063 -2.93661,0.8061 -2.93927,0.21176 1.11718,-1.84374 4.55508,-2.30825 8.79643,-5.07016 12.21094,-7.82813 1.94815,-1.74411 3.80231,-3.58173 5.57032,-5.50781 5.10326,-6.08123 12.74682,-17.62676 12.32812,-18.88282 -0.1104,-0.3312 -1.98941,0.89986 -4.17969,2.73438 -3.69284,3.09292 -6.60104,4.99219 -7.625,4.99219 -0.234,0 1.33727,-1.78621 3.49219,-3.97657 4.89416,-4.97464 7.88134,-9.2612 9.98438,-14.32812 4.4722,-10.7752 4.474,-23.47088 0,-34.25 C 167.62214,83.243688 164.40124,79.872832 164,80 c 0,4 2.61934,10.085212 1.44531,14.953124 -0.86935,3.60462 -4.64152,8.239706 -6,9.367186 0,0 0.78763,-10.103094 0.79688,-12.234374 C 159.14625,73.672884 153.56294,58.690108 136,52 Z"
     style="opacity:0.2;stroke-width:4;filter:url(#filter892)" />
  <path
     inkscape:connector-curvature="0"
     id="path8"
     d="m 96.007812,16 c -44.315564,0 -79.992188,35.68 -79.992188,80 0,1.99584 0.09978,3.963892 0.242188,5.92188 0.02872,0.3956 0.05153,0.79356 0.08594,1.1875 0.165624,1.89259 0.393244,3.77356 0.6875,5.625 0.04533,0.28568 0.100116,0.5669 0.148436,0.85156 0.224096,1.31781 0.509474,2.61175 0.796875,3.90625 0.353572,1.59531 0.764199,3.16923 1.210937,4.72656 0.220872,0.76838 0.421027,1.54616 0.664063,2.30469 0.597472,1.86842 1.272211,3.69494 2,5.5 0.363244,0.8991 0.753817,1.78177 1.148437,2.66406 0.698435,1.56473 1.424841,3.11592 2.21875,4.625 0.524754,0.99529 1.099061,1.96006 1.664063,2.92969 0.597534,1.02762 1.202381,2.04924 1.84375,3.04687 0.64588,1.00248 1.311077,1.99015 2,2.96094 0.619044,0.87416 1.269029,1.72279 1.921875,2.57031 0.791444,1.02521 1.574609,2.05449 2.414062,3.03907 0.521338,0.61277 1.085644,1.1847 1.625,1.78124 1.882049,2.07717 3.863384,4.06094 5.953124,5.92969 0.494296,0.4429 0.971228,0.90533 1.476564,1.33594 1.139984,0.96949 2.329312,1.88385 3.523436,2.78906 0.585008,0.44428 1.168068,0.89198 1.765624,1.32031 1.26548,0.90547 2.555564,1.77737 3.875,2.60938 0.496644,0.31368 1.0038,0.61111 1.507816,0.91406 4.992432,2.99609 10.3236,5.4883 15.953124,7.35156 2.321616,0.37692 8.552616,1.2291 10.234376,0.9375 10.198048,-0.032 20.867556,-5.23146 30.351556,-14.78906 C 120.62864,148.6663 124.83619,135.15368 124,119.39844 123.40015,108.09664 120.29116,99.412372 113.80468,92.882812 109.01813,87.421244 102.7641,85.561036 96,84.617188 c -0.2492,0.154 1.959736,2.451256 2.85156,5.109376 1.4012,4.17604 1.62223,5.61776 1.59375,10.601556 -0.0412,7.21212 -1.34967,12.47004 -4.96875,20 -4.74188,9.86604 -10.787096,17.05088 -19.21094,21.08788 -10.543092,5.05264 -20.028432,2.70906 -28.125,-5.37694 -4.146996,-4.1416 -6.675372,-8.5883 -8.320311,-14.66406 -1.551796,-5.73164 -1.65751,-19.24027 -0.218748,-27.367188 1.817919,-10.26864 6.272787,-21.669324 11.125003,-28.476564 1.044012,-1.46464 1.751424,-2.811064 1.570312,-2.992184 -0.18112,-0.1812 -1.128972,0.12336 -2.101564,0.679688 -3.96104,2.264912 -7.62692,5.546776 -11.125001,9.960936 -2.031508,2.56356 -3.818442,4.540904 -3.96875,4.390624 -0.455492,-0.45552 3.525567,-8.3799 6.312503,-12.5625 3.249516,-4.87688 11.957524,-13.775016 16.35156,-16.710936 7.196868,-4.80864 17.220772,-6.848024 27.195312,-8.962625 6.849532,-1.45208 19.664584,-1.316853 25.265624,0.265624 2.26592,0.640201 4.7369,1.331665 5.49219,1.539061 l 1.375,0.375 -1.30469,-1.421872 c -8.19938,-6.21009 -18.732708,-7.758751 -26.16406,-7.750001 -7.46392,0.016 -11.4369,0.47534 -18.953124,2.1875 l -1.367188,0.3125 C 73.851576,31.414678 79.979656,30.30372 84.882812,29.408 103.47002,26.14004 125.27556,26.848528 146.625,35.804688 c 2.6837,1.125804 4.06846,1.917198 5.53125,3.15625 -1.80279,-1.774796 -3.69186,-3.464071 -5.65625,-5.0625 -1.96439,-1.59843 -4.00385,-3.106557 -6.11719,-4.515626 -2.11333,-1.409068 -4.29725,-2.722976 -6.54687,-3.929687 -2.24963,-1.206711 -4.56424,-2.305515 -6.9375,-3.296875 -2.3657,-0.9882 -4.78963,-1.863673 -7.26563,-2.625 -0.008,-0.0024 -0.0156,-0.0054 -0.0236,-0.0078 -0.27848,-0.08554 -0.57176,-0.136172 -0.85156,-0.218748 -4.70716,-1.389202 -9.58529,-2.393306 -14.61719,-2.898438 -0.005,-5.14e-4 -0.0104,5.13e-4 -0.0156,0 C 101.45676,16.138917 98.749072,16 96.007812,16 Z"
     style="fill:#fc6625;stroke-width:4" />
  <path
     inkscape:connector-curvature="0"
     id="path10"
     d="m 136,48 c -0.1476,0.1476 2.89554,3.99882 4.41406,6.20314 5.33456,7.74368 7.86812,16.484716 7.875,27.171876 0.008,13.05008 -2.71304,20.467384 -11.52344,31.414064 -6.57036,8.16352 -7.69605,10.3846 -8.96093,17.67969 -1.41996,8.18951 -1.94388,10.28577 -3.89844,15.68749 -4.914,13.5804 -17.42469,24.88657 -31.609374,28.55469 -2.12472,0.64041 -7.105024,0.48041 -7.570312,0.48438 1.499268,0.21004 3.013612,0.37456 4.53906,0.5 0.09112,0.008 0.18224,0.0164 0.27344,0.0236 2.135696,0.1694 4.287988,0.28107 6.468748,0.28107 20.510408,0 39.113438,-7.70738 53.242188,-20.3125 0.002,-0.001 -0.002,-0.006 0,-0.008 0.30952,-0.27616 0.61665,-0.55512 0.92188,-0.83594 0.0204,-0.0188 0.0419,-0.036 0.0625,-0.0547 -2.40531,1.97201 -4.87082,3.15604 -9.45313,4.88282 -7.31644,2.75708 -9.30691,2.62124 -3.64063,-0.25 6.69864,-3.39448 12.86942,-7.77792 16.4375,-11.67188 4.96408,-5.4174 14.12616,-19.18408 13.67188,-20.54688 -0.1104,-0.3312 -1.98941,0.89986 -4.17969,2.73438 -3.69284,3.09292 -6.60104,4.99219 -7.625,4.99219 -0.234,0 1.33727,-1.78621 3.49219,-3.97657 4.89416,-4.97464 7.88134,-9.2612 9.98438,-14.32812 4.4722,-10.7752 4.474,-23.47088 0,-34.25 C 167.62218,79.243328 164.40124,75.872832 164,76 c 0,4 2.61937,10.084844 1.44535,14.952756 -0.86935,3.60462 -4.64129,8.239708 -5.99977,9.367184 0,0 0.78762,-10.103092 0.79687,-12.234372 C 159.14652,69.672516 153.56294,54.690108 136,48 Z"
     style="fill:#f69c36;stroke-width:4" />
  <path
     inkscape:connector-curvature="0"
     id="path12"
     d="m 93.60856,48.001548 c -3.185692,0.02 -10.16566,2.022556 -14.989952,4.353968 -3.607188,1.743228 -5.658144,3.220596 -8.881452,6.398596 C 63.139612,65.258936 60.41196,72.117896 60.090528,83.009496 59.993528,86.29626 60,88 60,88 60,88 55.606828,85.438772 54.087656,81.620524 53.15674,79.280808 52,76 52,76 52,76 51.103892,80.022424 50.780144,85.194464 49.29996,99.41016 56.971644,104.99759 60,116 c 0,0 -3.423044,-2.80493 -6.49,-6.54802 C 51.773848,107.33307 50,104 50,104 c 0,0 -1.249652,2.60811 -1.778352,6.28939 -1.527976,10.63933 4.98768,21.31673 15.1128,24.76657 3.576216,1.21849 5.454708,1.24792 9.226324,0.14344 9.78078,-2.86416 21.50794,-16.05939 21.50794,-24.20015 0,-1.31171 -0.682232,-2.24967 -3.44868,-4.74182 C 80.96154,97.556584 77.955252,93.760012 75.83056,87.581272 c -2.353564,-6.8443 -0.787296,-16.418128 3.959524,-24.206528 2.409332,-3.95312 8.07922,-9.682352 12.62326,-12.754684 L 96,48.194948 94.193752,48.023788 c -0.1768,-0.016 -0.37288,-0.0236 -0.585192,-0.0236 z"
     style="fill:#f69c36;stroke-width:4" />
  <path
     inkscape:connector-curvature="0"
     id="path14"
     d="m 163.19841,52.469608 c 2.60672,4.06884 4.92492,8.39732 6.75044,12.64804 -1.8216,-4.33816 -4.05332,-8.49404 -6.75044,-12.64804 z"
     style="fill:#d0531d;stroke-width:4" />
  <path
     inkscape:connector-curvature="0"
     id="path16"
     d="m 173.69101,76.425648 c 2.04376,8.42432 3.01256,17.94452 2.36892,24.606202 -1.89692,19.63212 -8.64644,35.20676 -21.40156,49.38508 -0.3776,0.4196 -0.71448,0.77596 -1.06104,1.14796 6.9226,-7.1344 12.55416,-15.56268 16.48352,-24.96664 4.6406,-11.10632 7.15156,-26.11532 6.0488,-36.158802 -0.55428,-5.04804 -1.353,-9.66988 -2.43864,-14.0138 z"
     style="fill:#d0531d;stroke-width:4" />
  <path
     inkscape:connector-curvature="0"
     id="path18"
     d="m 106.52883,76.00268 c -2.8732,-0.06228 -5.41648,0.953572 -8.097282,3.109004 L 96,81.06562 l 4.89589,0.34344 c 3.09333,0.21692 5.85357,0.764012 7.4993,1.485912 3.29425,1.445032 7.06238,1.474376 10.12646,0.07892 2.39113,-1.089156 5.95224,-4.11472 5.42605,-4.609828 -0.15384,-0.14476 -1.27716,-0.004 -2.49713,0.31288 -2.65172,0.688948 -4.66269,0.38388 -9.29327,-1.41144 -2.06205,-0.799468 -3.90452,-1.225216 -5.62847,-1.262532 z"
     style="fill:#fc7125;stroke-width:4" />
  <path
     style="fill:#ffffff;stroke-width:4;opacity:0.2"
     d="M 96.007812 16 C 51.692248 16 16.015625 51.68 16.015625 96 C 16.015625 96.11663 16.022767 96.231212 16.023438 96.347656 C 16.372352 52.331167 51.910429 17 96.007812 17 C 98.749072 17 101.45685 17.138891 104.125 17.40625 C 104.1302 17.406763 104.13563 17.405736 104.14062 17.40625 C 109.17252 17.911382 114.05065 18.915485 118.75781 20.304688 C 119.03761 20.387262 119.33088 20.437897 119.60938 20.523438 C 119.61737 20.525837 119.62481 20.52885 119.63281 20.53125 C 122.10881 21.292577 124.53274 22.16805 126.89844 23.15625 C 129.2717 24.14761 131.58631 25.246414 133.83594 26.453125 C 136.08556 27.659836 138.26948 28.973744 140.38281 30.382812 C 142.49615 31.791882 144.53561 33.300007 146.5 34.898438 C 147.21666 35.481585 147.91134 36.090194 148.60742 36.697266 C 150.08205 37.413141 151.10809 38.073096 152.15625 38.960938 C 150.35346 37.186141 148.46439 35.496867 146.5 33.898438 C 144.53561 32.300007 142.49615 30.791882 140.38281 29.382812 C 138.26948 27.973744 136.08556 26.659836 133.83594 25.453125 C 131.58631 24.246414 129.2717 23.14761 126.89844 22.15625 C 124.53274 21.16805 122.10881 20.292577 119.63281 19.53125 C 119.62481 19.52885 119.61737 19.525837 119.60938 19.523438 C 119.33088 19.437897 119.03761 19.387263 118.75781 19.304688 C 114.05065 17.915485 109.17252 16.911382 104.14062 16.40625 C 104.13564 16.405736 104.1302 16.406763 104.125 16.40625 C 101.4569 16.138903 98.749072 16 96.007812 16 z M 89.625 32.341797 C 82.533538 32.356998 78.558148 32.787034 71.736328 34.296875 C 70.890442 34.754164 70.073691 35.262132 69.304688 35.841797 L 70.671875 35.529297 C 78.188099 33.817137 82.16108 33.357797 89.625 33.341797 C 97.056352 33.333047 107.58968 34.881707 115.78906 41.091797 L 115.86914 41.179688 L 117.09375 41.513672 L 115.78906 40.091797 C 107.58968 33.881707 97.056352 32.333047 89.625 32.341797 z M 93.609375 48 L 93.609375 48.001953 C 90.423683 48.021953 83.443433 50.024057 78.619141 52.355469 C 75.011953 54.098697 72.959636 55.575906 69.736328 58.753906 C 63.138784 65.25873 60.411276 72.118166 60.089844 83.009766 C 59.992844 86.29653 60 88 60 88 C 60 88 55.607063 85.439342 54.087891 81.621094 C 53.156975 79.281378 52 76 52 76 C 52 76 51.103045 80.023274 50.779297 85.195312 C 50.652539 86.412698 50.614459 87.546844 50.613281 88.646484 C 50.63937 87.856963 50.691006 87.043257 50.779297 86.195312 C 51.103045 81.023274 52 77 52 77 C 52 77 53.156975 80.281378 54.087891 82.621094 C 55.607063 86.439342 60 89 60 89 C 60 89 59.992844 87.296483 60.089844 84.009766 C 60.411276 73.118166 63.138784 66.25873 69.736328 59.753906 C 72.959636 56.575906 75.011953 55.098697 78.619141 53.355469 C 83.443433 51.024057 90.423683 49.021953 93.609375 49.001953 L 93.609375 49 C 93.821687 49 94.016559 49.007438 94.193359 49.023438 L 94.703125 49.072266 L 96 48.195312 L 94.193359 48.023438 C 94.016559 48.007438 93.821687 48 93.609375 48 z M 136 48 C 135.94862 48.051377 136.3501 48.628369 136.87305 49.351562 C 153.6242 56.155131 159.08248 70.782378 160.21289 88.710938 C 160.21795 88.54627 160.24167 88.20443 160.24219 88.085938 C 159.14626 69.672886 153.56294 54.690108 136 48 z M 52.029297 62.490234 C 51.640714 62.525526 50.924756 62.801504 50.195312 63.21875 C 46.234274 65.483662 42.568394 68.765527 39.070312 73.179688 C 37.407538 75.277942 35.925287 76.962085 35.353516 77.429688 C 35.134504 78.029102 35.010421 78.479165 35.101562 78.570312 C 35.251871 78.720592 37.038804 76.743246 39.070312 74.179688 C 42.568394 69.765527 46.234274 66.483662 50.195312 64.21875 C 50.908133 63.811013 51.601963 63.543189 51.996094 63.498047 C 52.256544 62.991432 52.383649 62.62584 52.296875 62.539062 C 52.251595 62.493763 52.158825 62.47847 52.029297 62.490234 z M 164 76 C 164 76.321614 164.0222 76.660955 164.05273 77.007812 C 164.60511 77.089268 167.66206 80.339877 168.92188 83.375 C 171.09536 88.611531 172.20414 94.300711 172.26562 100.00195 C 172.33122 93.967403 171.22245 87.917725 168.92188 82.375 C 167.62217 79.243528 164.40124 75.872832 164 76 z M 74.763672 81.044922 C 74.7099 83.746494 75.050611 86.315295 75.830078 88.582031 C 77.95477 94.760771 80.960649 98.556969 90.619141 107.25781 C 93.120216 109.5109 93.910937 110.49566 94.041016 111.63281 C 94.05597 111.41942 94.068359 111.2071 94.068359 111 C 94.068359 109.68829 93.385589 108.74996 90.619141 106.25781 C 80.960649 97.556969 77.95477 93.760771 75.830078 87.582031 C 75.147505 85.59707 74.804718 83.378968 74.763672 81.044922 z M 148.28125 81.921875 C 148.21128 94.627336 145.44964 101.99941 136.76562 112.78906 C 130.19527 120.95258 129.06957 123.17366 127.80469 130.46875 C 126.38473 138.65826 125.86081 140.75453 123.90625 146.15625 C 118.99225 159.73665 106.48156 171.04282 92.296875 174.71094 C 90.172155 175.35135 85.191851 175.19134 84.726562 175.19531 C 86.225831 175.40535 87.740177 175.56987 89.265625 175.69531 C 89.356745 175.70331 89.447862 175.71155 89.539062 175.71875 C 90.242525 175.77455 90.950715 175.81215 91.658203 175.85352 C 91.881846 175.80923 92.111723 175.76674 92.296875 175.71094 C 106.48156 172.04282 118.99225 160.73665 123.90625 147.15625 C 125.86081 141.75453 126.38473 139.65826 127.80469 131.46875 C 129.06957 124.17366 130.19528 121.95258 136.76562 113.78906 C 145.57602 102.84238 148.29706 95.42508 148.28906 82.375 C 148.28896 82.222172 148.28238 82.07391 148.28125 81.921875 z M 96 84.617188 C 95.903768 84.676656 96.221133 85.124663 96.640625 85.720703 C 103.15659 86.693676 109.17077 88.595408 113.80469 93.882812 C 120.29117 100.41237 123.40015 109.09664 124 120.39844 C 124.04898 121.32139 124.07744 122.2354 124.0918 123.14258 C 124.0897 121.90775 124.06712 120.66314 124 119.39844 C 123.40015 108.09664 120.29117 99.412374 113.80469 92.882812 C 109.01814 87.421245 102.7641 85.561036 96 84.617188 z M 165.73242 88.652344 C 165.70697 89.438764 165.62417 90.211531 165.44531 90.953125 C 164.59024 94.498561 160.93812 99.02309 159.52539 100.24414 C 159.51089 100.43227 159.44531 101.32031 159.44531 101.32031 C 160.80379 100.19284 164.57596 95.557745 165.44531 91.953125 C 165.69943 90.899457 165.76872 89.786586 165.73242 88.652344 z M 100.4375 100.625 C 100.3613 107.68131 99.044408 112.90477 95.476562 120.32812 C 90.734684 130.19416 84.689469 137.37902 76.265625 141.41602 C 65.722533 146.46866 56.237193 144.12506 48.140625 136.03906 C 43.993629 131.89746 41.465252 127.45076 39.820312 121.375 C 39.05866 118.5618 38.65094 113.86956 38.597656 108.86523 C 38.603386 114.23991 39.008032 119.3748 39.820312 122.375 C 41.465252 128.45076 43.993629 132.89746 48.140625 137.03906 C 56.237193 145.12506 65.722533 147.46866 76.265625 142.41602 C 84.689469 138.37902 90.734684 131.19416 95.476562 121.32812 C 99.095643 113.79816 100.40411 108.54024 100.44531 101.32812 C 100.44689 101.05193 100.43761 100.8805 100.4375 100.625 z M 50 104 C 50 104 48.749403 106.60778 48.220703 110.28906 C 48.026477 111.64146 47.96487 112.9933 48.021484 114.33203 C 48.024446 113.3209 48.07468 112.30583 48.220703 111.28906 C 48.749403 107.60778 50 105 50 105 C 50 105 51.773614 108.33226 53.509766 110.45117 C 56.576722 114.19426 60 117 60 117 C 59.871661 116.53373 59.724049 116.09047 59.580078 115.64258 C 58.669051 114.86315 56.023861 112.51952 53.509766 109.45117 C 51.773614 107.33226 50 104 50 104 z M 167.12891 127.15039 C 166.66535 127.18923 164.98681 128.33229 163.07031 129.9375 C 160.19411 132.34645 157.80705 134.01521 156.40234 134.64258 C 155.7108 135.42315 155.32283 135.92969 155.44531 135.92969 C 156.46927 135.92969 159.37747 134.03042 163.07031 130.9375 C 164.87827 129.42321 166.45735 128.33629 167.02148 128.18359 C 167.21339 127.71071 167.30366 127.3641 167.25 127.20312 C 167.2362 127.16173 167.19513 127.14484 167.12891 127.15039 z M 150.23438 154.78906 C 147.82907 156.76107 145.36356 157.94509 140.78125 159.67188 C 138.20238 160.64368 136.32724 161.23622 135.17383 161.49609 C 132.23149 163.25051 134.54666 163.02128 140.78125 160.67188 C 142.81753 159.90453 144.422 159.24398 145.80273 158.57422 C 146.97557 157.63945 148.13193 156.685 149.25 155.6875 C 149.252 155.6865 149.248 155.68169 149.25 155.67969 C 149.55952 155.40353 149.86665 155.12457 150.17188 154.84375 C 150.19227 154.82495 150.21377 154.80776 150.23438 154.78906 z "
     id="path896" />
</svg>
