<?xml version="1.0" encoding="UTF-8" standalone="no"?>
<svg
   xmlns:dc="http://purl.org/dc/elements/1.1/"
   xmlns:cc="http://creativecommons.org/ns#"
   xmlns:rdf="http://www.w3.org/1999/02/22-rdf-syntax-ns#"
   xmlns:svg="http://www.w3.org/2000/svg"
   xmlns="http://www.w3.org/2000/svg"
   xmlns:sodipodi="http://sodipodi.sourceforge.net/DTD/sodipodi-0.dtd"
   xmlns:inkscape="http://www.inkscape.org/namespaces/inkscape"
   width="192"
   height="192"
   version="1"
   id="svg14"
   sodipodi:docname="apps_podcast_republic.svg"
   inkscape:version="0.92.3 (2405546, 2018-03-11)">
  <metadata
     id="metadata20">
    <rdf:RDF>
      <cc:Work
         rdf:about="">
        <dc:format>image/svg+xml</dc:format>
        <dc:type
           rdf:resource="http://purl.org/dc/dcmitype/StillImage" />
      </cc:Work>
    </rdf:RDF>
  </metadata>
  <defs
     id="defs18">
    <filter
       inkscape:collect="always"
       style="color-interpolation-filters:sRGB"
       id="filter850"
       x="-0.048"
       width="1.096"
       y="-0.048"
       height="1.096">
      <feGaussianBlur
         inkscape:collect="always"
         stdDeviation="3.2"
         id="feGaussianBlur852" />
    </filter>
    <filter
       inkscape:collect="always"
       style="color-interpolation-filters:sRGB"
       id="filter878"
       x="-0.048"
       width="1.096"
       y="-0.048"
       height="1.096">
      <feGaussianBlur
         inkscape:collect="always"
         stdDeviation="2.4"
         id="feGaussianBlur880" />
    </filter>
  </defs>
  <sodipodi:namedview
     pagecolor="#ffffff"
     bordercolor="#666666"
     borderopacity="1"
     objecttolerance="10"
     gridtolerance="10"
     guidetolerance="10"
     inkscape:pageopacity="0"
     inkscape:pageshadow="2"
     inkscape:window-width="1920"
     inkscape:window-height="1018"
     id="namedview16"
     showgrid="false"
     inkscape:zoom="2.32"
     inkscape:cx="96"
     inkscape:cy="96"
     inkscape:window-x="0"
     inkscape:window-y="32"
     inkscape:window-maximized="1"
     inkscape:current-layer="svg14" />
  <rect
     style="opacity:0.2;fill:#000000;stroke-width:4;filter:url(#filter850)"
     width="160"
     height="160"
     x="-180"
     y="-176"
     rx="80"
     ry="80"
     transform="matrix(0,-1,-1,0,0,0)"
     id="rect832" />
  <rect
     id="rect2"
     transform="matrix(0,-1,-1,0,0,0)"
     ry="80"
     rx="80"
     y="-176"
     x="-176"
     height="160"
     width="160"
     style="fill:#5183de;stroke-width:4" />
  <path
     style="opacity:0.2;fill:#ffffff;stroke-width:4"
     d="M 95.998047 16 C 51.678955 16.001052 16 51.680653 16 96 C 16 96.115498 16.006172 96.228859 16.007812 96.34375 C 16.358829 52.329731 51.898462 17.001046 95.998047 17 L 96 17 C 140.10547 17.001047 175.64856 52.339122 175.99023 96.361328 C 175.99198 96.240601 175.99805 96.121307 175.99805 96 C 175.99805 51.680653 140.31909 16.001052 96 16 L 95.998047 16 z "
     id="path4" />
  <path
     inkscape:connector-curvature="0"
     id="path8"
     d="m 96,40 a 60,60 0 0 0 -60,60 60,60 0 0 0 60,60 60,60 0 0 0 32.375,-9.5625 l -8.72656,-8.72656 A 48,48 0 0 1 96,148 48,48 0 0 1 48,100 48,48 0 0 1 96,52 a 48,48 0 0 1 24.64062,6.875 l 8.69532,-8.703124 A 60,60 0 0 0 96,40 Z m 42.63281,17.851564 -8.46093,8.460936 A 48,48 0 0 1 144,100 48,48 0 0 1 129.39062,134.47656 l 8.44532,8.44532 A 60,60 0 0 0 156,100 60,60 0 0 0 138.63281,57.851564 Z M 81.554688,76 A 5.4247292,5.2997108 0 0 0 76,81.296876 V 100 118.70312 a 5.4247292,5.2997108 0 0 0 8.132812,4.58594 l 16.585938,-9.34375 16.57813,-9.35937 a 5.4247292,5.2997108 0 0 0 0,-9.164064 L 100.71875,86.0625 84.132812,76.718752 A 5.4247292,5.2997108 0 0 0 81.554688,76 Z"
     style="opacity:0.2;stroke-width:4;filter:url(#filter878)" />
  <path
     inkscape:connector-curvature="0"
     id="path10"
     d="m 96,36 a 60,60 0 0 0 -60,60 60,60 0 0 0 60,60 60,60 0 0 0 32.375,-9.5625 l -8.72656,-8.72656 A 48,48 0 0 1 96,144 48,48 0 0 1 48,96 48,48 0 0 1 96,48 a 48,48 0 0 1 24.64062,6.875 l 8.69532,-8.703124 A 60,60 0 0 0 96,36 Z m 42.63281,17.851564 -8.46093,8.460936 A 48,48 0 0 1 144,96 48,48 0 0 1 129.39062,130.47656 l 8.44532,8.44532 A 60,60 0 0 0 156,96 60,60 0 0 0 138.63281,53.851564 Z M 81.554688,72 A 5.4247292,5.2997108 0 0 0 76,77.296876 V 96 114.70312 a 5.4247292,5.2997108 0 0 0 8.132812,4.58594 l 16.585938,-9.34375 16.57813,-9.35937 a 5.4247292,5.2997108 0 0 0 0,-9.164064 L 100.71875,82.0625 84.132812,72.718752 A 5.4247292,5.2997108 0 0 0 81.554688,72 Z"
     style="fill:#ffffff;stroke-width:4" />
</svg>
