<?xml version="1.0" encoding="UTF-8" standalone="no"?>
<svg
   xmlns:dc="http://purl.org/dc/elements/1.1/"
   xmlns:cc="http://creativecommons.org/ns#"
   xmlns:rdf="http://www.w3.org/1999/02/22-rdf-syntax-ns#"
   xmlns:svg="http://www.w3.org/2000/svg"
   xmlns="http://www.w3.org/2000/svg"
   xmlns:sodipodi="http://sodipodi.sourceforge.net/DTD/sodipodi-0.dtd"
   xmlns:inkscape="http://www.inkscape.org/namespaces/inkscape"
   width="192"
   height="192"
   version="1"
   id="svg14"
   sodipodi:docname="apps_exodus_wallet.svg"
   inkscape:version="0.92.3 (2405546, 2018-03-11)">
  <metadata
     id="metadata20">
    <rdf:RDF>
      <cc:Work
         rdf:about="">
        <dc:format>image/svg+xml</dc:format>
        <dc:type
           rdf:resource="http://purl.org/dc/dcmitype/StillImage" />
        <dc:title></dc:title>
      </cc:Work>
    </rdf:RDF>
  </metadata>
  <defs
     id="defs18">
    <filter
       inkscape:collect="always"
       style="color-interpolation-filters:sRGB"
       id="filter857"
       x="-0.048"
       width="1.096"
       y="-0.048"
       height="1.096">
      <feGaussianBlur
         inkscape:collect="always"
         stdDeviation="3.2"
         id="feGaussianBlur859" />
    </filter>
    <filter
       inkscape:collect="always"
       style="color-interpolation-filters:sRGB"
       id="filter873"
       x="-0.048000527"
       width="1.0960011"
       y="-0.047999473"
       height="1.0959989">
      <feGaussianBlur
         inkscape:collect="always"
         stdDeviation="2.239979"
         id="feGaussianBlur875" />
    </filter>
  </defs>
  <sodipodi:namedview
     pagecolor="#ffffff"
     bordercolor="#666666"
     borderopacity="1"
     objecttolerance="10"
     gridtolerance="10"
     guidetolerance="10"
     inkscape:pageopacity="0"
     inkscape:pageshadow="2"
     inkscape:window-width="1920"
     inkscape:window-height="1018"
     id="namedview16"
     showgrid="false"
     inkscape:zoom="2.63"
     inkscape:cx="26.281369"
     inkscape:cy="84.836502"
     inkscape:window-x="0"
     inkscape:window-y="32"
     inkscape:window-maximized="1"
     inkscape:current-layer="svg14" />
  <rect
     style="opacity:0.2;stroke-width:4;filter:url(#filter857)"
     width="160"
     height="160"
     x="16"
     y="20"
     rx="8"
     ry="8"
     id="rect2" />
  <rect
     style="fill:#3c4553;stroke-width:4"
     width="160"
     height="160"
     x="16"
     y="16"
     rx="8"
     ry="8"
     id="rect4" />
  <path
     style="opacity:0.1;fill:#ffffff;stroke-width:4"
     d="M 24 16 C 19.568 16 16 19.568 16 24 L 16 25 C 16 20.568 19.568 17 24 17 L 168 17 C 172.432 17 176 20.568 176 25 L 176 24 C 176 19.568 172.432 16 168 16 L 24 16 z "
     id="path6" />
  <path
     inkscape:connector-curvature="0"
     style="opacity:0.2;stroke-width:4;filter:url(#filter873)"
     d="m 86.898436,42.007672 c -3.328156,-0.0454 -4.035656,0.08752 -4.992188,0.906252 -0.7108,0.608404 -1.292692,1.819164 -1.507812,3.148436 -0.097,0.599444 -0.14772,4.797108 -0.14844,11.414064 -8.4e-4,8.360044 -0.0396,10.460936 -0.18748,10.460936 -0.10184,0 -5.434964,-5.254728 -11.851564,-11.679688 -6.416596,-6.42496 -11.94762,-11.871536 -12.28906,-12.109376 -0.929296,-0.647288 -2.586292,-1.397052 -3.89844,-1.757812 -1.08012,-0.29696 -1.558828,-0.32196 -6.453124,-0.375 -2.908228,-0.0316 -5.289064,-0.0039 -5.289064,0.06252 8e-6,0.0664 11.108996,11.22684 24.687504,24.804688 C 77.58042,79.493736 86.516984,88.38362 88,89.81236 V 42.023296 Z m 18.203124,0 L 104,42.023296 V 89.81236 c 1.48302,-1.42874 10.41958,-10.318624 23.03125,-22.929688 13.57851,-13.577848 24.6875,-24.738284 24.6875,-24.804688 0,-0.0664 -2.38083,-0.094 -5.28906,-0.06252 -4.8943,0.05304 -5.37301,0.07804 -6.45313,0.375 -1.31214,0.36076 -2.96914,1.110524 -3.89844,1.757812 -0.34144,0.23784 -5.87246,5.684416 -12.28906,12.109376 -6.4166,6.42496 -11.74972,11.679688 -11.85156,11.679688 -0.14792,0 -0.18668,-2.100892 -0.18748,-10.460936 -7.3e-4,-6.616956 -0.0514,-10.81462 -0.14844,-11.414064 -0.21512,-1.329272 -0.79701,-2.540032 -1.50781,-3.148436 -0.95653,-0.818724 -1.66403,-0.951644 -4.99219,-0.906252 z M 40.156248,62.398296 c -0.159196,0 -0.180212,0.900596 -0.1328,4.992188 0.05592,4.825556 0.06532,5.044336 0.429688,6.382812 0.459292,1.687244 1.07342,3.067032 1.968752,4.4375 0.497888,0.762116 3.135148,3.498152 10.023436,10.406252 l 9.343752,9.375 -9.343752,9.367192 c -6.888288,6.9081 -9.525548,9.64413 -10.023436,10.40624 -0.895332,1.37048 -1.50946,2.75026 -1.968752,4.4375 -0.36436,1.33848 -0.37376,1.55726 -0.429688,6.38282 -0.0474,4.09159 -0.02628,4.99218 0.1328,4.99218 0.26964,0 35.570316,-35.31613 35.570316,-35.585932 0,-0.2698 -35.300672,-35.593752 -35.570316,-35.593752 z m 111.687502,0 c -0.26964,0 -35.57031,35.323956 -35.57031,35.593752 0,0.269802 35.30069,35.585932 35.57031,35.585932 0.15908,0 0.1802,-0.90059 0.1328,-4.99218 -0.0559,-4.82556 -0.0653,-5.04434 -0.42969,-6.38282 -0.45929,-1.68724 -1.07342,-3.06702 -1.96875,-4.4375 -0.49789,-0.76211 -3.13515,-3.49814 -10.02343,-10.40624 l -9.34376,-9.367192 9.34376,-9.375 c 6.88828,-6.9081 9.52554,-9.644136 10.02343,-10.406252 0.89533,-1.370468 1.50946,-2.750256 1.96875,-4.4375 0.36436,-1.338476 0.37376,-1.557256 0.42969,-6.382812 0.0474,-4.091592 0.0264,-4.992188 -0.1328,-4.992188 z M 88,106.17174 c -3.408352,3.27424 -47.718748,47.58156 -47.718752,47.72656 4e-6,0.0663 2.380836,0.10192 5.289064,0.0703 4.894296,-0.053 5.373004,-0.0858 6.453124,-0.3828 1.312148,-0.36076 2.969144,-1.10271 3.89844,-1.75 0.34144,-0.23784 5.872464,-5.69223 12.28906,-12.11719 6.4166,-6.42496 11.749724,-11.67969 11.851564,-11.67969 0.14788,0 0.18664,2.1009 0.18748,10.46094 7.2e-4,6.61696 0.05144,10.81462 0.14844,11.41406 0.33256,2.0552 1.334184,3.42587 2.820316,3.86719 0.532652,0.1582 1.489844,0.21875 3.593764,0.21875 0.632332,0 0.700788,-0.028 1.1875,-0.0392 z m 16,0 v 47.78906 c 0.48671,0.0112 0.55517,0.0392 1.1875,0.0392 2.10392,0 3.06112,-0.0606 3.59375,-0.21876 1.48613,-0.44132 2.48774,-1.812 2.82031,-3.86719 0.097,-0.59945 0.14772,-4.79711 0.14844,-11.41406 8.8e-4,-8.36005 0.0396,-10.46094 0.18748,-10.46094 0.10184,0 5.43497,5.25473 11.85157,11.67969 6.41659,6.42496 11.94763,11.87936 12.28906,12.11718 0.92929,0.6473 2.58629,1.38925 3.89844,1.75 1.08012,0.29696 1.55883,0.32976 6.45312,0.3828 2.90823,0.0316 5.28906,-0.004 5.28907,-0.0703 0,-0.145 -44.3104,-44.45232 -47.71876,-47.72656 z"
     id="path8" />
  <path
     inkscape:connector-curvature="0"
     style="fill:#12a1ff;stroke-width:4"
     d="m 86.898436,40.007812 c -3.328156,-0.0454 -4.035656,0.08752 -4.992188,0.906252 -0.7108,0.608404 -1.292692,1.819164 -1.507812,3.148436 -0.097,0.599444 -0.14772,4.797108 -0.14844,11.414064 -8.4e-4,8.360044 -0.0396,10.460936 -0.18748,10.460936 -0.10184,0 -5.434964,-5.254728 -11.851564,-11.679688 -6.416596,-6.42496 -11.94762,-11.871536 -12.28906,-12.109376 -0.929296,-0.647288 -2.586292,-1.397052 -3.89844,-1.757812 -1.08012,-0.29696 -1.558828,-0.32196 -6.453124,-0.375 -2.908228,-0.03152 -5.289064,-0.0039 -5.289064,0.06252 8e-6,0.0664 11.108996,11.22684 24.687504,24.804688 C 77.58042,77.493876 86.516984,86.38376 88,87.8125 V 40.023436 Z m 18.203124,0 L 104,40.023436 V 87.8125 c 1.48302,-1.42874 10.41958,-10.318624 23.03125,-22.929688 13.57851,-13.577848 24.6875,-24.738284 24.6875,-24.804688 0,-0.0664 -2.38083,-0.094 -5.28906,-0.06252 -4.8943,0.05304 -5.37301,0.07804 -6.45313,0.375 -1.31214,0.36076 -2.96914,1.110524 -3.89844,1.757812 -0.34144,0.23784 -5.87246,5.684416 -12.28906,12.109376 -6.4166,6.42496 -11.74972,11.679688 -11.85156,11.679688 -0.14792,0 -0.18668,-2.100892 -0.18748,-10.460936 -7.3e-4,-6.616956 -0.0514,-10.81462 -0.14844,-11.414064 -0.21512,-1.329272 -0.79701,-2.540032 -1.50781,-3.148436 -0.95653,-0.818724 -1.66403,-0.951646 -4.99219,-0.906252 z M 40.156248,60.398436 c -0.159196,0 -0.180212,0.900596 -0.1328,4.992188 0.05592,4.825556 0.06532,5.044336 0.429688,6.382812 0.459292,1.687244 1.07342,3.067032 1.968752,4.4375 0.497888,0.762116 3.135148,3.498152 10.023436,10.406252 l 9.343752,9.375 -9.343752,9.367192 c -6.888288,6.9081 -9.525548,9.64413 -10.023436,10.40624 -0.895332,1.37048 -1.50946,2.75026 -1.968752,4.4375 -0.36436,1.33848 -0.37376,1.55726 -0.429688,6.38282 -0.0474,4.09159 -0.02628,4.99218 0.1328,4.99218 0.26964,0 35.570316,-35.316132 35.570316,-35.585932 0,-0.2698 -35.300672,-35.593752 -35.570316,-35.593752 z m 111.687502,0 c -0.26964,0 -35.57031,35.323956 -35.57031,35.593752 0,0.2698 35.30069,35.585932 35.57031,35.585932 0.15908,0 0.1802,-0.90059 0.1328,-4.99218 -0.0559,-4.82556 -0.0653,-5.04434 -0.42969,-6.38282 -0.45929,-1.68724 -1.07342,-3.06702 -1.96875,-4.4375 -0.49789,-0.76211 -3.13515,-3.49814 -10.02343,-10.40624 l -9.34376,-9.367192 9.34376,-9.375 c 6.88828,-6.9081 9.52554,-9.644136 10.02343,-10.406252 0.89533,-1.370468 1.50946,-2.750256 1.96875,-4.4375 0.36436,-1.338476 0.37376,-1.557256 0.42969,-6.382812 0.0474,-4.091592 0.0264,-4.992188 -0.1328,-4.992188 z M 88,104.17188 c -3.408352,3.27424 -47.718748,47.58156 -47.718752,47.72656 4e-6,0.0663 2.380836,0.10192 5.289064,0.0703 4.894296,-0.053 5.373004,-0.0858 6.453124,-0.3828 1.312148,-0.36076 2.969144,-1.10271 3.89844,-1.75 0.34144,-0.23784 5.872464,-5.69223 12.28906,-12.11719 6.4166,-6.42496 11.749724,-11.67969 11.851564,-11.67969 0.14788,0 0.18664,2.1009 0.18748,10.46094 7.2e-4,6.61696 0.05144,10.81462 0.14844,11.41406 0.33256,2.0552 1.334184,3.42587 2.820316,3.86719 C 83.751388,151.93945 84.70858,152 86.8125,152 c 0.632332,0 0.700788,-0.028 1.1875,-0.0392 z m 16,0 v 47.78906 c 0.48671,0.0112 0.55517,0.0392 1.1875,0.0392 2.10392,0 3.06112,-0.0606 3.59375,-0.21876 1.48613,-0.44132 2.48774,-1.812 2.82031,-3.86719 0.097,-0.59945 0.14772,-4.79711 0.14844,-11.41406 8.8e-4,-8.36005 0.0396,-10.46094 0.18748,-10.46094 0.10184,0 5.43497,5.25473 11.85157,11.67969 6.41659,6.42496 11.94763,11.87936 12.28906,12.11718 0.92929,0.6473 2.58629,1.38925 3.89844,1.75 1.08012,0.29696 1.55883,0.32976 6.45312,0.3828 2.90823,0.0316 5.28906,-0.004 5.28907,-0.0703 0,-0.145 -44.3104,-44.45232 -47.71876,-47.72656 z"
     id="path10" />
  <path
     style="fill:#ffffff;stroke-width:4;opacity:0.2"
     d="M 86.898438 40.007812 C 83.570281 39.962412 82.862782 40.09533 81.90625 40.914062 C 81.19545 41.522467 80.613557 42.733228 80.398438 44.0625 C 80.301438 44.661944 80.25072 48.859606 80.25 55.476562 C 80.24916 63.836607 80.21038 65.9375 80.0625 65.9375 C 79.96066 65.9375 74.627538 60.682772 68.210938 54.257812 C 61.794342 47.832853 56.263315 42.386277 55.921875 42.148438 C 54.992579 41.501149 53.335585 40.751385 52.023438 40.390625 C 50.943317 40.093665 50.464609 40.068665 45.570312 40.015625 C 42.662084 39.984105 40.28125 40.011705 40.28125 40.078125 C 40.281251 40.082463 41.136078 40.940472 41.228516 41.037109 C 42.117592 41.008674 43.548045 40.993707 45.570312 41.015625 C 50.464609 41.068665 50.943317 41.093665 52.023438 41.390625 C 53.335585 41.751385 54.992579 42.501149 55.921875 43.148438 C 56.263315 43.386277 61.794342 48.832853 68.210938 55.257812 C 74.627538 61.682772 79.96066 66.9375 80.0625 66.9375 C 80.21038 66.9375 80.24916 64.836607 80.25 56.476562 C 80.25072 49.859606 80.301438 45.661944 80.398438 45.0625 C 80.613557 43.733228 81.19545 42.522467 81.90625 41.914062 C 82.862782 41.09533 83.570281 40.962412 86.898438 41.007812 L 88 41.023438 L 88 40.023438 L 86.898438 40.007812 z M 105.10156 40.007812 L 104 40.023438 L 104 41.023438 L 105.10156 41.007812 C 108.42972 40.962419 109.13722 41.095338 110.09375 41.914062 C 110.80455 42.522467 111.38644 43.733228 111.60156 45.0625 C 111.6986 45.661944 111.74927 49.859606 111.75 56.476562 C 111.7508 64.836607 111.78958 66.9375 111.9375 66.9375 C 112.03934 66.9375 117.37246 61.682772 123.78906 55.257812 C 130.20566 48.832853 135.73668 43.386277 136.07812 43.148438 C 137.00742 42.501149 138.66442 41.751385 139.97656 41.390625 C 141.05668 41.093665 141.53539 41.068665 146.42969 41.015625 C 148.45196 40.993735 149.88241 41.008684 150.77148 41.037109 C 150.86392 40.940472 151.71875 40.082464 151.71875 40.078125 C 151.71875 40.011725 149.33792 39.984145 146.42969 40.015625 C 141.53539 40.068665 141.05668 40.093665 139.97656 40.390625 C 138.66442 40.751385 137.00742 41.501149 136.07812 42.148438 C 135.73668 42.386277 130.20566 47.832853 123.78906 54.257812 C 117.37246 60.682772 112.03934 65.9375 111.9375 65.9375 C 111.78958 65.9375 111.7508 63.836607 111.75 55.476562 C 111.74927 48.859606 111.6986 44.661944 111.60156 44.0625 C 111.38644 42.733228 110.80455 41.522467 110.09375 40.914062 C 109.13722 40.095338 108.42972 39.962418 105.10156 40.007812 z M 40.15625 60.398438 C 40.057717 60.398438 40.022873 61.085258 40.013672 62.318359 C 40.033746 61.628482 40.078809 61.398438 40.15625 61.398438 C 40.415403 61.398437 72.716303 93.713784 75.253906 96.492188 C 75.35663 96.379739 75.726562 96.002684 75.726562 95.992188 C 75.726562 95.722387 40.425894 60.398437 40.15625 60.398438 z M 151.84375 60.398438 C 151.57411 60.398438 116.27344 95.722392 116.27344 95.992188 C 116.27344 96.002684 116.64337 96.379739 116.74609 96.492188 C 119.2837 93.713788 151.5846 61.398438 151.84375 61.398438 C 151.92119 61.398438 151.96626 61.628482 151.98633 62.318359 C 151.97713 61.085258 151.94229 60.398438 151.84375 60.398438 z M 61.291016 96.492188 L 52.445312 105.35938 C 45.557024 112.26748 42.919763 115.00352 42.421875 115.76562 C 41.526543 117.13611 40.912417 118.51588 40.453125 120.20312 C 40.088765 121.54161 40.079365 121.76038 40.023438 126.58594 C 39.999095 128.68717 39.992467 129.9299 40.013672 130.6582 C 40.007993 129.89904 40.005375 129.14506 40.023438 127.58594 C 40.079365 122.76038 40.088765 122.54161 40.453125 121.20312 C 40.912417 119.51589 41.526543 118.13611 42.421875 116.76562 C 42.919763 116.00352 45.557024 113.26748 52.445312 106.35938 L 61.789062 96.992188 L 61.291016 96.492188 z M 130.70898 96.492188 L 130.21094 96.992188 L 139.55469 106.35938 C 146.44297 113.26747 149.08023 116.00351 149.57812 116.76562 C 150.47346 118.13611 151.08758 119.51588 151.54688 121.20312 C 151.91126 122.5416 151.92066 122.76038 151.97656 127.58594 C 151.99462 129.14506 151.99201 129.89904 151.98633 130.6582 C 152.00753 129.9299 152.0009 128.68717 151.97656 126.58594 C 151.92066 121.76038 151.91126 121.5416 151.54688 120.20312 C 151.08758 118.51588 150.47346 117.13611 149.57812 115.76562 C 149.08023 115.00351 146.44297 112.26747 139.55469 105.35938 L 130.70898 96.492188 z M 88 104.17188 C 84.591648 107.44612 40.281254 151.75344 40.28125 151.89844 C 40.281251 151.91859 40.838566 151.92795 41.226562 151.94141 C 44.033233 149.00433 84.707141 108.33517 88 105.17188 L 88 104.17188 z M 104 104.17188 L 104 105.17188 C 107.29287 108.33517 147.96677 149.00433 150.77344 151.94141 C 151.16143 151.92795 151.71875 151.91859 151.71875 151.89844 C 151.71875 151.75344 107.40836 107.44612 104 104.17188 z "
     id="path877" />
</svg>
