<?xml version="1.0" encoding="UTF-8" standalone="no"?>
<svg
   xmlns:dc="http://purl.org/dc/elements/1.1/"
   xmlns:cc="http://creativecommons.org/ns#"
   xmlns:rdf="http://www.w3.org/1999/02/22-rdf-syntax-ns#"
   xmlns:svg="http://www.w3.org/2000/svg"
   xmlns="http://www.w3.org/2000/svg"
   xmlns:sodipodi="http://sodipodi.sourceforge.net/DTD/sodipodi-0.dtd"
   xmlns:inkscape="http://www.inkscape.org/namespaces/inkscape"
   width="192"
   height="192"
   version="1"
   id="svg20"
   sodipodi:docname="apps_power_browser.svg"
   inkscape:version="0.92.3 (2405546, 2018-03-11)">
  <metadata
     id="metadata26">
    <rdf:RDF>
      <cc:Work
         rdf:about="">
        <dc:format>image/svg+xml</dc:format>
        <dc:type
           rdf:resource="http://purl.org/dc/dcmitype/StillImage" />
      </cc:Work>
    </rdf:RDF>
  </metadata>
  <defs
     id="defs24">
    <filter
       inkscape:collect="always"
       style="color-interpolation-filters:sRGB"
       id="filter859"
       x="-0.048"
       width="1.096"
       y="-0.048"
       height="1.096">
      <feGaussianBlur
         inkscape:collect="always"
         stdDeviation="3.2"
         id="feGaussianBlur861" />
    </filter>
    <filter
       inkscape:collect="always"
       style="color-interpolation-filters:sRGB"
       id="filter882"
       x="-0.047999949"
       width="1.0959999"
       y="-0.048000051"
       height="1.0960001">
      <feGaussianBlur
         inkscape:collect="always"
         stdDeviation="0.48027789"
         id="feGaussianBlur884" />
    </filter>
  </defs>
  <sodipodi:namedview
     pagecolor="#ffffff"
     bordercolor="#666666"
     borderopacity="1"
     objecttolerance="10"
     gridtolerance="10"
     guidetolerance="10"
     inkscape:pageopacity="0"
     inkscape:pageshadow="2"
     inkscape:window-width="1920"
     inkscape:window-height="1018"
     id="namedview22"
     showgrid="false"
     inkscape:zoom="1"
     inkscape:cx="96"
     inkscape:cy="96"
     inkscape:window-x="0"
     inkscape:window-y="32"
     inkscape:window-maximized="1"
     inkscape:current-layer="svg20" />
  <rect
     style="opacity:0.2;fill:#000000;stroke-width:4;filter:url(#filter859)"
     width="160"
     height="160"
     x="-180"
     y="-176"
     rx="8"
     ry="8"
     transform="matrix(0,-1,-1,0,0,0)"
     id="rect841" />
  <rect
     id="rect2"
     transform="matrix(0,-1,-1,0,0,0)"
     ry="8"
     rx="8"
     y="-176"
     x="-176"
     height="160"
     width="160"
     style="fill:#ca3742;stroke-width:4" />
  <path
     style="opacity:0.2;fill:#ffffff;stroke-width:4"
     d="M 24 16 C 19.568 16 16 19.568 16 24 L 16 25 C 16 20.568 19.568 17 24 17 L 168 17 C 172.432 17 176 20.568 176 25 L 176 24 C 176 19.568 172.432 16 168 16 L 24 16 z "
     id="path4" />
  <g
     id="g12"
     transform="matrix(3.99768,0,0,3.99768,47.999384,52.000344)"
     style="opacity:0.2;filter:url(#filter882)">
    <g
       id="g10">
      <path
         inkscape:connector-curvature="0"
         id="path8"
         d="m 24.013,0.001 c 0,0 -3.601,-0.101 -7.2,1.7 -1.1,0.5 -2.3,1.3 -3.3,2.3 -1.617,1.617 -4.129,4.594 -6.107,7 H 3.013 l -2,3 3.392,0.917 c 0.01,0.121 0.042,0.292 0.136,0.523 L 4.014,16.6 c 0,0 -0.2,0.4 1.3,2 1.6,1.601 2.1,1.4 2.1,1.4 l 1.243,-0.564 c 0.186,0.058 0.324,0.078 0.414,0.078 l 0.943,3.486 3,-2 v -4.527 c 2.423,-1.959 5.396,-4.421 7,-5.973 1,-1 1.8,-2.2 2.399,-3.3 1.699,-3.599 1.6,-7.199 1.6,-7.199 z m -7,9 c -1.101,0 -2,-0.9 -2,-2 0,-1.101 0.899,-2 2,-2 1.1,0 2,0.899 2,2 0,1.1 -0.901,2 -2,2 z m -10.5,12 c 0.2,0.101 0.3,0.2 0.5,0.3 -0.2,0.2 -0.4,0.5 -0.601,0.7 -2.301,2.3 -6.399,2 -6.399,2 0,0 -0.3,-4.101 2,-6.399 0.2,-0.201 0.5,-0.399 0.7,-0.601 0.1,0.2 0.199,0.3 0.3,0.5 -1.5,1.899 -1.3,4.8 -1.3,4.8 0,0 2.899,0.2 4.8,-1.3 z" />
    </g>
  </g>
  <g
     id="g16"
     transform="matrix(3.99768,0,0,3.99768,47.999384,48.000228)"
     style="fill:#ffffff">
    <path
       inkscape:connector-curvature="0"
       id="path14"
       d="m 24.013,0.001 c 0,0 -3.601,-0.101 -7.2,1.7 -1.1,0.5 -2.3,1.3 -3.3,2.3 -1.617,1.617 -4.129,4.594 -6.107,7 H 3.013 l -2,3 3.392,0.917 c 0.01,0.121 0.042,0.292 0.136,0.523 L 4.014,16.6 c 0,0 -0.2,0.4 1.3,2 1.6,1.601 2.1,1.4 2.1,1.4 l 1.243,-0.564 c 0.186,0.058 0.324,0.078 0.414,0.078 l 0.943,3.486 3,-2 v -4.527 c 2.423,-1.959 5.396,-4.421 7,-5.973 1,-1 1.8,-2.2 2.399,-3.3 1.699,-3.599 1.6,-7.199 1.6,-7.199 z m -7,9 c -1.101,0 -2,-0.9 -2,-2 0,-1.101 0.899,-2 2,-2 1.1,0 2,0.899 2,2 0,1.1 -0.901,2 -2,2 z m -10.5,12 c 0.2,0.101 0.3,0.2 0.5,0.3 -0.2,0.2 -0.4,0.5 -0.601,0.7 -2.301,2.3 -6.399,2 -6.399,2 0,0 -0.3,-4.101 2,-6.399 0.2,-0.201 0.5,-0.399 0.7,-0.601 0.1,0.2 0.199,0.3 0.3,0.5 -1.5,1.899 -1.3,4.8 -1.3,4.8 0,0 2.899,0.2 4.8,-1.3 z" />
  </g>
</svg>
