<?xml version="1.0" encoding="UTF-8" standalone="no"?>
<svg
   xmlns:dc="http://purl.org/dc/elements/1.1/"
   xmlns:cc="http://creativecommons.org/ns#"
   xmlns:rdf="http://www.w3.org/1999/02/22-rdf-syntax-ns#"
   xmlns:svg="http://www.w3.org/2000/svg"
   xmlns="http://www.w3.org/2000/svg"
   xmlns:sodipodi="http://sodipodi.sourceforge.net/DTD/sodipodi-0.dtd"
   xmlns:inkscape="http://www.inkscape.org/namespaces/inkscape"
   width="192"
   height="192"
   version="1"
   id="svg10"
   sodipodi:docname="apps_samsung_music.svg"
   inkscape:version="0.92.3 (2405546, 2018-03-11)">
  <metadata
     id="metadata16">
    <rdf:RDF>
      <cc:Work
         rdf:about="">
        <dc:format>image/svg+xml</dc:format>
        <dc:type
           rdf:resource="http://purl.org/dc/dcmitype/StillImage" />
      </cc:Work>
    </rdf:RDF>
  </metadata>
  <defs
     id="defs14">
    <filter
       inkscape:collect="always"
       style="color-interpolation-filters:sRGB"
       id="filter852"
       x="-0.056571503"
       width="1.113143"
       y="-0.04168417"
       height="1.0833683">
      <feGaussianBlur
         inkscape:collect="always"
         stdDeviation="2.6400044"
         id="feGaussianBlur854" />
    </filter>
  </defs>
  <sodipodi:namedview
     pagecolor="#ffffff"
     bordercolor="#666666"
     borderopacity="1"
     objecttolerance="10"
     gridtolerance="10"
     guidetolerance="10"
     inkscape:pageopacity="0"
     inkscape:pageshadow="2"
     inkscape:window-width="1920"
     inkscape:window-height="1018"
     id="namedview12"
     showgrid="false"
     inkscape:zoom="1"
     inkscape:cx="96"
     inkscape:cy="96"
     inkscape:window-x="0"
     inkscape:window-y="32"
     inkscape:window-maximized="1"
     inkscape:current-layer="svg10" />
  <path
     d="m 104,23.9996 c -8,0 -24,3.9984 -24,14.8124 v 74.252 c -2.612,-0.692 -5.3,-1.048 -8,-1.064 -17.6732,0 -32,14.3268 -32,32 0,17.6732 14.3268,32 32,32 16.1148,-0.0152 29.7044,-12.0116 31.7188,-28 0,0 0.28124,-2.90928 0.28124,-4 V 76 c 0,-36 40.148,12.4392 48,20 0,-16 -4,-72 -48,-72 z"
     id="path826"
     inkscape:connector-curvature="0"
     style="opacity:0.2;fill:#000000;stroke-width:4;filter:url(#filter852)" />
  <path
     style="fill:#3c8cf8;stroke-width:4"
     inkscape:connector-curvature="0"
     id="path2"
     d="m 104,20 c -8,0 -24,3.9984 -24,14.8124 v 74.252 c -2.612,-0.692 -5.3,-1.048 -8,-1.064 -17.6732,0 -32,14.3268 -32,32 0,17.6732 14.3268,32 32,32 16.1148,-0.0152 29.7044,-12.0116 31.7188,-28 0,0 0.28124,-2.90928 0.28124,-4 v -68 c 0,-36 40.148,12.4392 48,20 0,-16 -4,-72 -48,-72 z" />
  <path
     style="opacity:0.2;fill:#ffffff;stroke-width:4"
     d="M 104 20 C 96 20 80 23.99854 80 34.8125 L 80 35.8125 C 80 24.99854 96 21 104 21 C 147.18779 21 151.82739 74.860393 151.98438 91.982422 C 151.98872 91.986959 151.99724 91.997241 152 92 C 152 76 148 20 104 20 z M 72 107.99805 L 72 108 C 54.3268 108 40 122.3268 40 140 C 40 140.13982 40.009195 140.27726 40.013672 140.41602 C 40.326401 123.01339 54.522681 109 72 109 L 72 108.99805 C 74.7 109.01405 77.388 109.3705 80 110.0625 L 80 109.0625 C 77.388 108.3705 74.7 108.01405 72 107.99805 z "
     id="path4" />
</svg>
