<?xml version="1.0" encoding="UTF-8" standalone="no"?>
<svg
   xmlns:dc="http://purl.org/dc/elements/1.1/"
   xmlns:cc="http://creativecommons.org/ns#"
   xmlns:rdf="http://www.w3.org/1999/02/22-rdf-syntax-ns#"
   xmlns:svg="http://www.w3.org/2000/svg"
   xmlns="http://www.w3.org/2000/svg"
   xmlns:sodipodi="http://sodipodi.sourceforge.net/DTD/sodipodi-0.dtd"
   xmlns:inkscape="http://www.inkscape.org/namespaces/inkscape"
   width="192"
   height="192"
   version="1"
   id="svg18"
   sodipodi:docname="apps_shazam.svg"
   inkscape:version="0.92.3 (2405546, 2018-03-11)">
  <metadata
     id="metadata24">
    <rdf:RDF>
      <cc:Work
         rdf:about="">
        <dc:format>image/svg+xml</dc:format>
        <dc:type
           rdf:resource="http://purl.org/dc/dcmitype/StillImage" />
      </cc:Work>
    </rdf:RDF>
  </metadata>
  <defs
     id="defs22">
    <filter
       inkscape:collect="always"
       style="color-interpolation-filters:sRGB"
       id="filter859"
       x="-0.048"
       width="1.096"
       y="-0.048"
       height="1.096">
      <feGaussianBlur
         inkscape:collect="always"
         stdDeviation="3.2"
         id="feGaussianBlur861" />
    </filter>
    <filter
       inkscape:collect="always"
       style="color-interpolation-filters:sRGB"
       id="filter884"
       x="-0.042743743"
       width="1.0854875"
       y="-0.054730255"
       height="1.1094605">
      <feGaussianBlur
         inkscape:collect="always"
         stdDeviation="1.9948582"
         id="feGaussianBlur886" />
    </filter>
  </defs>
  <sodipodi:namedview
     pagecolor="#ffffff"
     bordercolor="#666666"
     borderopacity="1"
     objecttolerance="10"
     gridtolerance="10"
     guidetolerance="10"
     inkscape:pageopacity="0"
     inkscape:pageshadow="2"
     inkscape:window-width="1920"
     inkscape:window-height="1018"
     id="namedview20"
     showgrid="false"
     inkscape:zoom="1"
     inkscape:cx="96"
     inkscape:cy="96"
     inkscape:window-x="0"
     inkscape:window-y="32"
     inkscape:window-maximized="1"
     inkscape:current-layer="svg18" />
  <rect
     style="opacity:0.2;fill:#000000;stroke-width:4;filter:url(#filter859)"
     width="160"
     height="160"
     x="-180"
     y="-176"
     rx="80"
     ry="80"
     transform="matrix(0,-1,-1,0,0,0)"
     id="rect841" />
  <rect
     id="rect2"
     transform="matrix(0,-1,-1,0,0,0)"
     ry="80"
     rx="80"
     y="-176"
     x="-176"
     height="160"
     width="160"
     style="fill:#0088ff;stroke-width:4" />
  <path
     style="opacity:0.2;fill:#ffffff;stroke-width:4"
     d="M 95.998047 16 C 51.678955 16.001052 16 51.680653 16 96 C 16 96.115498 16.006172 96.228859 16.007812 96.34375 C 16.358829 52.329731 51.898462 17.001046 95.998047 17 L 96 17 C 140.10547 17.001047 175.64856 52.339122 175.99023 96.361328 C 175.99198 96.240601 175.99805 96.121307 175.99805 96 C 175.99805 51.680653 140.31909 16.001052 96 16 L 95.998047 16 z "
     id="path4" />
  <path
     style="opacity:0.2;stroke-width:4;filter:url(#filter884)"
     d="M 73.712891 56.261719 C 71.944991 56.261856 70.178282 56.934435 68.830078 58.283203 L 50.179688 76.935547 C 36.831669 90.283563 36.612895 111.85398 49.505859 125.48242 C 49.612859 125.60746 49.716864 125.73216 49.833984 125.85156 C 49.892544 125.90788 49.956232 125.96093 50.013672 126.01953 C 50.072272 126.07697 50.124201 126.13561 50.181641 126.19531 C 50.299921 126.31583 50.423828 126.42034 50.548828 126.52734 C 64.1773 139.41695 85.747687 139.19958 99.095703 125.85156 L 117.74805 107.19922 C 120.44446 104.50394 120.44446 100.13031 117.74805 97.431641 C 115.05164 94.736357 110.67883 94.736357 107.98242 97.431641 L 89.330078 116.08398 C 81.19129 124.22165 67.988216 124.27556 59.777344 116.25391 C 51.753432 108.04191 51.804571 94.838306 59.943359 86.697266 L 78.595703 68.044922 C 81.292163 65.349638 81.294068 60.979615 78.597656 58.283203 C 77.250014 56.934985 75.48079 56.261581 73.712891 56.261719 z M 117.08203 63.974609 C 108.31715 64.086256 99.587508 67.478334 92.914062 74.152344 L 74.261719 92.806641 C 71.565331 95.501925 71.566136 99.869699 74.263672 102.56836 C 76.960084 105.26338 81.328979 105.26755 84.025391 102.57227 L 102.67773 83.917969 C 110.81652 75.779181 124.02268 75.725271 132.23242 83.748047 C 140.25856 91.960047 140.20211 105.16507 132.06445 113.30273 L 113.41406 131.95508 C 110.71739 134.64924 110.7196 139.01814 113.41602 141.7168 C 116.11242 144.41321 120.47938 144.41321 123.17578 141.7168 L 141.82812 123.06641 C 155.17502 109.71839 155.39465 88.151682 142.50391 74.517578 C 142.39807 74.393698 142.29323 74.269791 142.17383 74.150391 C 142.11751 74.095191 142.05469 74.042648 141.99609 73.986328 C 141.94093 73.926648 141.88748 73.867154 141.83008 73.808594 C 141.71296 73.691434 141.58793 73.582442 141.46289 73.476562 C 134.64697 67.031759 125.84691 63.862963 117.08203 63.974609 z "
     id="path8" />
  <path
     inkscape:connector-curvature="0"
     id="path10"
     d="M 102.6781,79.918328 84.026236,98.571316 c -2.696412,2.695284 -7.065404,2.693024 -9.761816,-0.0023 -2.697536,-2.69866 -2.699788,-7.067656 -0.0034,-9.76294 L 92.914028,70.152008 c 13.346892,-13.34802 34.917042,-13.5654 48.548892,-0.675792 0.12504,0.10588 0.25004,0.21512 0.36716,0.33228 0.0574,0.05856 0.11152,0.11828 0.16668,0.17796 0.0586,0.05632 0.12052,0.10924 0.17684,0.16444 0.1194,0.1194 0.22528,0.24216 0.33112,0.36604 12.89074,13.634104 12.6711,35.202004 -0.67579,48.550024 l -18.65299,18.65073 c -2.6964,2.69641 -7.06428,2.69641 -9.76068,0 -2.69642,-2.69866 -2.69867,-7.06765 -0.002,-9.76181 l 18.65186,-18.65412 c 8.13766,-8.13766 8.19398,-21.342632 0.16784,-29.554632 -8.20974,-8.022776 -21.41584,-7.967588 -29.55463,0.1712 z"
     style="fill:#ffffff;stroke-width:4" />
  <path
     inkscape:connector-curvature="0"
     id="path14"
     d="m 78.59704,54.282972 c 2.696412,2.696412 2.69416,7.066532 -0.0023,9.761816 l -18.65186,18.65186 c -8.138788,8.14104 -8.189472,21.344892 -0.16556,29.556892 8.210872,8.02165 21.414724,7.96871 29.553512,-0.16896 L 107.98156,93.431592 c 2.69641,-2.695284 7.06991,-2.695284 9.76632,0 2.69641,2.698664 2.69641,7.072168 0,9.767448 L 99.096072,121.8509 c -13.348016,13.34802 -34.918172,13.5654 -48.546644,0.67579 -0.125,-0.107 -0.25004,-0.21176 -0.36832,-0.33228 -0.05744,-0.0597 -0.10924,-0.11712 -0.16784,-0.17456 -0.05744,-0.0586 -0.12052,-0.11264 -0.17908,-0.16896 -0.11712,-0.1194 -0.22076,-0.24328 -0.32776,-0.36832 C 36.613464,107.85413 36.83197,86.283976 50.179988,72.93596 L 68.829596,54.2841 c 2.696408,-2.697536 7.07216,-2.697536 9.767444,-0.0011 z"
     style="fill:#ffffff;stroke-width:4" />
</svg>
