<?xml version="1.0" encoding="UTF-8" standalone="no"?>
<svg
   xmlns:dc="http://purl.org/dc/elements/1.1/"
   xmlns:cc="http://creativecommons.org/ns#"
   xmlns:rdf="http://www.w3.org/1999/02/22-rdf-syntax-ns#"
   xmlns:svg="http://www.w3.org/2000/svg"
   xmlns="http://www.w3.org/2000/svg"
   xmlns:sodipodi="http://sodipodi.sourceforge.net/DTD/sodipodi-0.dtd"
   xmlns:inkscape="http://www.inkscape.org/namespaces/inkscape"
   width="192"
   height="192"
   version="1.1"
   id="svg38"
   sodipodi:docname="apps_duck_duck_go.svg"
   inkscape:version="0.92.3 (2405546, 2018-03-11)">
  <metadata
     id="metadata44">
    <rdf:RDF>
      <cc:Work
         rdf:about="">
        <dc:format>image/svg+xml</dc:format>
        <dc:type
           rdf:resource="http://purl.org/dc/dcmitype/StillImage" />
      </cc:Work>
    </rdf:RDF>
  </metadata>
  <defs
     id="defs42">
    <filter
       inkscape:collect="always"
       style="color-interpolation-filters:sRGB"
       id="filter884"
       x="-0.048"
       width="1.096"
       y="-0.048"
       height="1.096">
      <feGaussianBlur
         inkscape:collect="always"
         stdDeviation="3.2"
         id="feGaussianBlur886" />
    </filter>
    <filter
       inkscape:collect="always"
       style="color-interpolation-filters:sRGB"
       id="filter912"
       x="-0.072149955"
       width="1.1442999"
       y="-0.035962628"
       height="1.0719253">
      <feGaussianBlur
         inkscape:collect="always"
         stdDeviation="2.158661"
         id="feGaussianBlur914" />
    </filter>
    <filter
       inkscape:collect="always"
       style="color-interpolation-filters:sRGB"
       id="filter940"
       x="-0.036985397"
       width="1.0739708"
       y="-0.068357519"
       height="1.136715">
      <feGaussianBlur
         inkscape:collect="always"
         stdDeviation="0.80126689"
         id="feGaussianBlur942" />
    </filter>
    <filter
       inkscape:collect="always"
       style="color-interpolation-filters:sRGB"
       id="filter995"
       x="-0.038117648"
       width="1.0762353"
       y="-0.064799997"
       height="1.1296">
      <feGaussianBlur
         inkscape:collect="always"
         stdDeviation="1.08"
         id="feGaussianBlur997" />
    </filter>
  </defs>
  <sodipodi:namedview
     pagecolor="#ffffff"
     bordercolor="#666666"
     borderopacity="1"
     objecttolerance="10"
     gridtolerance="10"
     guidetolerance="10"
     inkscape:pageopacity="0"
     inkscape:pageshadow="2"
     inkscape:window-width="1920"
     inkscape:window-height="1018"
     id="namedview40"
     showgrid="false"
     inkscape:zoom="1"
     inkscape:cx="96"
     inkscape:cy="96"
     inkscape:window-x="0"
     inkscape:window-y="32"
     inkscape:window-maximized="1"
     inkscape:current-layer="svg38">
    <inkscape:grid
       type="xygrid"
       id="grid967" />
  </sodipodi:namedview>
  <circle
     id="circle2"
     r="80"
     cy="100"
     cx="96"
     style="opacity:0.2;stroke-width:4;filter:url(#filter884)" />
  <circle
     id="circle4"
     r="80"
     cy="96"
     cx="96"
     style="fill:#dc5935;stroke-width:4;fill-opacity:1" />
  <path
     inkscape:connector-curvature="0"
     id="path6"
     d="m 65.734376,35.940031 c -2.473536,0.0093 -3.73726,0.224964 -6.158376,0.664063 1.548388,0.140764 3.888232,3.343543 5.314624,3.554686 -2.15992,1.463932 -8.92816,0.878484 -8.890624,4.13322 7.68876,-0.769496 17.139956,0.837144 24.226564,3.983968 -5.633628,0.641248 -10.877652,3.240884 -14.5625,5.184968 C 54.94422,59.096128 50.125624,70.36426 52.944,86.164064 55.714888,101.64699 67.9544,156.55048 72.128,176.78125 79.363724,178.89831 88.460944,179.98195 96,180 c 6.40819,-0.0276 13.99005,-0.8249 20.208,-2.375 -3.22606,-6.21906 -7.44072,-11.985 -9.3955,-15.89062 -6.20919,-12.41212 -12.81676,-29.89681 -9.993688,-41.17188 0.523948,-2.04731 0.532712,-10.42704 2.234372,-11.53906 C 112.20822,100.43067 110.72141,103.84905 116,100 c 2.72141,-1.987876 6.25164,0.49697 7.19788,-2.796876 3.38455,-11.842812 -5.10001,-34.469436 -14.11976,-43.492312 -2.9388,-2.938804 -7.45596,-4.789672 -12.546872,-5.765624 -1.95816,-2.687 -5.11438,-4.4544 -9.585936,-6.833284 C 80.62156,37.754722 73.154976,35.912098 65.734376,35.940031 Z"
     style="opacity:0.2;stroke-width:4;filter:url(#filter912)" />
  <path
     inkscape:connector-curvature="0"
     id="path8"
     d="m 65.734376,31.940031 c -2.473536,0.0093 -3.73726,0.224964 -6.158376,0.664063 1.548388,0.140764 3.888232,3.343543 5.314624,3.554687 C 62.730704,37.62271 55.962464,37.037263 56,40.292 c 7.68876,-0.769498 17.139956,0.837144 24.226564,3.983968 -5.633628,0.641248 -10.877652,3.240884 -14.5625,5.184968 C 54.94422,55.096128 50.125624,66.36426 52.944,82.164064 55.714888,97.646988 67.9544,152.55048 72.128,172.78125 79.363724,174.89831 88.460944,175.98195 96,176 c 6.40819,-0.0276 13.99005,-0.8249 20.208,-2.375 -3.22606,-6.21906 -7.44072,-11.985 -9.3955,-15.89062 -6.20919,-12.41212 -12.81676,-29.89681 -9.993688,-41.17188 0.523948,-2.04731 0.532712,-10.42704 2.234372,-11.53906 13.155036,-8.592768 13.022346,-0.28376 18.300936,-4.13282 2.72141,-1.987872 4.89752,-4.393652 5.84376,-7.687496 3.38455,-11.842812 -5.10001,-34.469436 -14.11976,-43.492312 -2.9388,-2.938804 -7.45596,-4.789672 -12.546872,-5.765624 -1.95816,-2.687 -5.11438,-4.454398 -9.585936,-6.833282 C 80.62156,33.754722 73.154976,31.912098 65.734376,31.940031 Z"
     style="fill:#ffffff;stroke-width:4" />
  <path
     inkscape:connector-curvature="0"
     id="path10"
     d="m 68,82.001584 c 0,-3.31608 2.682336,-6 6.003168,-6 3.311328,0 5.996832,2.68392 5.996832,6 C 80,85.319248 77.314496,88 74.003168,88 70.682336,88.001584 68,85.319248 68,82.001584 Z"
     style="fill:#2d4f8e;stroke-width:4" />
  <path
     inkscape:connector-curvature="0"
     id="path12"
     d="M 72,81.998976 C 72,80.890696 72.898168,80 73.995928,80 75.101832,80 76,80.890696 76,81.998976 76,83.1032 75.101832,83.999996 73.995928,83.999996 72.900204,84.002028 72,83.1032 72,81.998976 Z"
     style="fill:#ffffff;stroke-width:4" />
  <path
     inkscape:connector-curvature="0"
     id="path14"
     d="M 108,77.992624 C 108,74.68654 110.69392,72 113.99631,72 117.31715,72 120,74.68654 120,77.992624 120,81.31346 117.31715,84 113.99631,84 110.69392,84 108,81.31346 108,77.992624 Z"
     style="fill:#2d4f8e;stroke-width:4" />
  <path
     inkscape:connector-curvature="0"
     id="path16"
     d="M 112,78.001184 C 112,76.902076 112.90024,76 113.9905,76 115.12826,76 116,76.902076 116,78.001184 116,79.114544 115.12826,80 113.9905,80 112.90024,80 112,79.114544 112,78.001184 Z"
     style="fill:#ffffff;stroke-width:4" />
  <path
     inkscape:connector-curvature="0"
     id="path18"
     d="m 73.400128,66.181428 c 0,0 -4.463732,-2.019156 -8.803908,0.708504 C 60.263864,69.614468 60.423396,72.4 60.423396,72.4 c 0,0 -2.303812,-5.1347 3.83656,-7.65122 6.146624,-2.51652 9.140172,1.432648 9.140172,1.432648 z"
     style="fill:#2d4f8e;stroke-width:4" />
  <path
     inkscape:connector-curvature="0"
     id="path20"
     d="m 116.20724,63.874488 c 0,0 -3.20782,-1.83304 -5.69776,-1.80176 C 105.39355,62.139968 104,64.4 104,64.4 c 0,0 0.85865,-5.388076 7.40098,-4.307332 3.54721,0.58964 4.80626,3.78182 4.80626,3.78182 z"
     style="fill:#2d4f8e;stroke-width:4" />
  <path
     sodipodi:nodetypes="cccccccccccc"
     style="opacity:0.1;fill:#000000;stroke-width:4;filter:url(#filter995)"
     d="m 92.10488,106.19018 c 0.601352,-3.6936 9.99459,-10.680972 16.64601,-11.103376 6.6657,-0.42722 8.74269,-0.33048 14.29612,-1.681548 5.56929,-1.351044 19.88921,-4.978544 23.85277,-6.839052 3.97309,-1.863728 20.79205,0.922192 8.93468,7.63872 -5.12819,2.916508 -18.94989,7.972146 -28.83341,10.964436 -9.86765,3.00035 -14.45259,-2.86331 -17.73705,2.06526 -2.6117,3.92092 -1.92844,9.58978 9.86546,10.70383 15.92565,1.49937 31.19442,-6.88746 32.87472,-2.21846 1.68824,4.66738 -13.68524,10.09094 -23.04673,10.27636 -9.35039,0.17896 -28.19716,-6.28123 -31.027814,-8.282 -2.83384,-1.99593 -6.608588,-6.65848 -5.824756,-11.52417 z"
     id="path969"
     inkscape:connector-curvature="0" />
  <path
     inkscape:connector-curvature="0"
     id="path24"
     d="m 92.10488,104.19019 c 0.601352,-3.6936 9.99459,-10.680978 16.64601,-11.103382 6.6657,-0.42722 8.74269,-0.33048 14.29612,-1.681548 5.56929,-1.351044 19.88921,-4.978544 23.85277,-6.839052 3.97309,-1.863728 20.79205,0.922192 8.93468,7.63872 -5.12819,2.916508 -18.94989,7.972152 -28.83341,10.964442 -9.86765,3.00035 -14.45259,-2.86331 -17.73705,2.06526 -2.6117,3.92092 -1.92844,9.58978 9.86546,10.70383 15.92565,1.49937 31.19442,-6.88746 32.87472,-2.21846 1.68824,4.66738 -13.68524,10.09094 -23.04673,10.27636 -9.35039,0.17896 -28.19716,-6.28123 -31.027814,-8.282 -2.83384,-1.99593 -6.608588,-6.65848 -5.824756,-11.52417 z"
     style="fill:#ffd612;stroke-width:4;fill-opacity:1"
     sodipodi:nodetypes="cccccccccccc" />
  <path
     inkscape:connector-curvature="0"
     id="path26"
     d="m 77.179688,145.90686 c -0.63372,0.10224 -1.009992,0.42696 -1.054688,1.02344 -0.37,4.77966 3.04e-4,25.45637 2.554688,26.92968 2.152572,1.23404 14.824004,-6.03069 18.984376,-8.47656 0.25368,0.12068 0.509812,0.24132 0.843748,0.31252 3.024778,0.66144 8.262818,0.12924 11.140628,-0.99219 5.15742,2.2468 14.41952,6.06258 16.51562,5.28907 2.9244,-1.12454 2.19605,-23.25084 -1.08594,-24 -2.22432,-0.49632 -9.56348,3.40596 -14.23437,6.05468 -0.11312,-0.41516 -0.24612,-1.03056 -0.33592,-1.25 -0.77924,-1.8579 -14.32031,-0.36084 -14.32031,2.98438 0,0.03 3.6e-5,0.0481 0,0.0781 -4.242324,-2.41559 -15.390204,-8.53671 -19.007812,-7.95312 z"
     style="opacity:0.1;stroke-width:4;filter:url(#filter940)" />
  <path
     inkscape:connector-curvature="0"
     id="path28"
     d="m 98.40388,153.12691 c 0,0 -21.924452,-12.96276 -22.282036,-8.19091 -0.37,4.77967 0,25.45621 2.554384,26.92952 2.55904,1.46706 20.826828,-9.55308 20.826828,-9.55308 z"
     style="fill:#8bee59;stroke-width:4" />
  <path
     inkscape:connector-curvature="0"
     id="path30"
     d="m 106.80395,152.38556 c 0,0 14.97959,-9.12065 18.27401,-8.38556 3.28198,0.74917 4.01425,22.87546 1.08985,24 -2.9244,1.07918 -20.06814,-6.85432 -20.06814,-6.85432 z"
     style="fill:#8bee59;stroke-width:4" />
  <path
     inkscape:connector-curvature="0"
     id="path32"
     d="m 96.186884,151.79243 c 0,7.81336 -1.164736,11.16647 2.321252,11.90932 3.469514,0.75869 10.056004,0 12.387134,-1.4857 2.32289,-1.49044 0.38056,-11.52918 -0.3888,-13.40927 -0.77925,-1.8579 -14.319594,-0.35956 -14.319594,2.98565 z"
     style="fill:#5ec625;stroke-width:4" />
  <path
     style="opacity:0.2;fill:#ffffff;stroke-width:4"
     d="M 96 16 A 80 80 0 0 0 16 96 A 80 80 0 0 0 16.017578 96.490234 A 80 80 0 0 1 96 17 A 80 80 0 0 1 175.97461 96.494141 A 80 80 0 0 0 176 96 A 80 80 0 0 0 96 16 z "
     id="path34" />
</svg>
