<?xml version="1.0" encoding="UTF-8" standalone="no"?>
<svg
   xmlns:dc="http://purl.org/dc/elements/1.1/"
   xmlns:cc="http://creativecommons.org/ns#"
   xmlns:rdf="http://www.w3.org/1999/02/22-rdf-syntax-ns#"
   xmlns:svg="http://www.w3.org/2000/svg"
   xmlns="http://www.w3.org/2000/svg"
   xmlns:sodipodi="http://sodipodi.sourceforge.net/DTD/sodipodi-0.dtd"
   xmlns:inkscape="http://www.inkscape.org/namespaces/inkscape"
   width="192"
   height="192"
   version="1"
   id="svg14"
   sodipodi:docname="apps_cryptopass.svg"
   inkscape:version="0.92.3 (2405546, 2018-03-11)">
  <metadata
     id="metadata20">
    <rdf:RDF>
      <cc:Work
         rdf:about="">
        <dc:format>image/svg+xml</dc:format>
        <dc:type
           rdf:resource="http://purl.org/dc/dcmitype/StillImage" />
      </cc:Work>
    </rdf:RDF>
  </metadata>
  <defs
     id="defs18">
    <filter
       inkscape:collect="always"
       style="color-interpolation-filters:sRGB"
       id="filter850"
       x="-0.048"
       width="1.096"
       y="-0.048"
       height="1.096">
      <feGaussianBlur
         inkscape:collect="always"
         stdDeviation="3.2"
         id="feGaussianBlur852" />
    </filter>
    <filter
       inkscape:collect="always"
       style="color-interpolation-filters:sRGB"
       id="filter882"
       x="-0.046399994"
       width="1.0928"
       y="-0.049714292"
       height="1.0994286">
      <feGaussianBlur
         inkscape:collect="always"
         stdDeviation="2.3199998"
         id="feGaussianBlur884" />
    </filter>
  </defs>
  <sodipodi:namedview
     pagecolor="#ffffff"
     bordercolor="#666666"
     borderopacity="1"
     objecttolerance="10"
     gridtolerance="10"
     guidetolerance="10"
     inkscape:pageopacity="0"
     inkscape:pageshadow="2"
     inkscape:window-width="1920"
     inkscape:window-height="1018"
     id="namedview16"
     showgrid="false"
     inkscape:zoom="1"
     inkscape:cx="96"
     inkscape:cy="86.76205"
     inkscape:window-x="0"
     inkscape:window-y="32"
     inkscape:window-maximized="1"
     inkscape:current-layer="svg14" />
  <rect
     style="opacity:0.2;fill:#000000;stroke-width:4;filter:url(#filter850)"
     width="160"
     height="160"
     x="-180"
     y="-176"
     rx="8"
     ry="8"
     transform="matrix(0,-1,-1,0,0,0)"
     id="rect832" />
  <rect
     id="rect4"
     transform="matrix(0,-1,-1,0,0,0)"
     ry="8"
     rx="8"
     y="-176"
     x="-176"
     height="160"
     width="160"
     style="fill:#b6b6b6;stroke-width:4" />
  <path
     style="opacity:0.2;fill:#ffffff;stroke-width:4"
     d="M 24 16 C 19.568 16 16 19.568 16 24 L 16 25 C 16 20.568 19.568 17 24 17 L 168 17 C 172.432 17 176 20.568 176 25 L 176 24 C 176 19.568 172.432 16 168 16 L 24 16 z "
     id="path6" />
  <path
     inkscape:connector-curvature="0"
     id="path8"
     d="m 96.000004,44.000023 c -6.155472,0.0052 -10.7354,0.14352 -11.184276,0.31276 -1.530284,0.577044 -1.14418,9.12892 1.57554,35.203068 0.451656,4.330056 0.67404,8.102952 0.493352,8.390244 -0.519012,0.825244 -1.191264,0.654504 -5.72924,-1.485692 -7.825116,-3.690472 -12.370988,-5.299804 -19.52286,-8.046188 -10.695304,-4.107108 -16.737492,-6.102032 -17.553756,-5.7942 -0.40786,0.1538 -2.059428,4.366344 -3.724008,9.484964 -1.646965,5.064448 -3.38419,10.305544 -3.859282,11.650952 -1.14786,3.250496 -0.76136,3.582064 6.206682,5.231196 3.036128,0.71856 8.520376,2.016953 12.182592,2.885363 3.662196,0.86841 9.578756,2.15886 13.14542,2.86973 10.570172,2.10672 11.474396,2.38054 11.474396,3.39364 0,0.2672 -2.069204,2.63383 -4.599304,5.26247 -7.369104,7.65609 -21.426208,23.77789 -23.68086,27.15688 -1.015892,1.52247 -1.49496,1.07176 9.882936,9.11745 5.631472,3.9822 9.593084,6.45405 10.217144,6.36501 1.722028,-0.24568 10.627528,-13.96827 20.879896,-32.17694 1.676336,-2.97724 2.617536,-4.13648 3.357972,-4.13648 0.11936,0 0.28364,0.13252 0.437656,0.22676 0.15404,-0.0942 0.31832,-0.22676 0.437648,-0.22676 0.74044,0 1.681636,1.15924 3.357972,4.13648 10.252376,18.20867 19.157876,31.93129 20.879896,32.17694 0.62406,0.089 4.58568,-2.38281 10.21715,-6.36501 11.37789,-8.04569 10.89883,-7.59498 9.88293,-9.11745 -2.25464,-3.37899 -16.31175,-19.50079 -23.68086,-27.15688 -2.53009,-2.62864 -4.5993,-4.99527 -4.5993,-5.26247 0,-1.0131 0.90422,-1.28692 11.47439,-3.39364 3.56667,-0.71087 9.48323,-2.00132 13.14543,-2.86973 3.66222,-0.86841 9.14646,-2.166803 12.18259,-2.885363 6.96804,-1.649132 7.35454,-1.9807 6.20668,-5.231196 -0.47509,-1.345408 -2.21232,-6.5865 -3.85928,-11.650952 -1.66459,-5.11862 -3.31615,-9.331188 -3.72401,-9.484964 -0.81626,-0.30784 -6.85845,1.687088 -17.55375,5.7942 -7.15188,2.746384 -11.69775,4.355716 -19.52287,8.046188 -4.53798,2.140196 -5.21023,2.310936 -5.72924,1.485692 -0.18068,-0.28728 0.0417,-4.060188 0.49335,-8.390244 2.71972,-26.074148 3.10583,-34.626024 1.57554,-35.203068 -0.44887,-0.16928 -5.02879,-0.30756 -11.184266,-0.31276 z"
     style="opacity:0.1;stroke-width:4;filter:url(#filter882)" />
  <path
     inkscape:connector-curvature="0"
     id="path10"
     d="m 96.000004,40 c -6.155472,0.0052 -10.7354,0.14352 -11.184276,0.31276 -1.530284,0.577044 -1.14418,9.12892 1.57554,35.203068 0.451656,4.330056 0.67404,8.102952 0.493352,8.390244 -0.519012,0.825244 -1.191264,0.654504 -5.72924,-1.485692 -7.825116,-3.690472 -12.370988,-5.299804 -19.52286,-8.046188 -10.695304,-4.107108 -16.737492,-6.102032 -17.553756,-5.7942 -0.40786,0.1538 -2.059428,4.366344 -3.724008,9.484964 -1.646965,5.064448 -3.38419,10.305544 -3.859282,11.650952 -1.14786,3.250496 -0.76136,3.582064 6.206682,5.231196 3.036128,0.71856 8.520376,2.016952 12.182592,2.885368 3.662196,0.868412 9.578756,2.15886 13.14542,2.869728 10.570172,2.10672 11.474396,2.38054 11.474396,3.39364 0,0.2672 -2.069204,2.63383 -4.599304,5.26247 -7.369104,7.65609 -21.426208,23.77789 -23.68086,27.15688 -1.015892,1.52247 -1.49496,1.07176 9.882936,9.11745 5.631472,3.9822 9.593084,6.45405 10.217144,6.36501 1.722028,-0.24568 10.627528,-13.96827 20.879896,-32.17694 1.676336,-2.97724 2.617536,-4.13648 3.357972,-4.13648 0.11936,0 0.28364,0.13252 0.437656,0.22676 0.15404,-0.0942 0.31832,-0.22676 0.437648,-0.22676 0.74044,0 1.681636,1.15924 3.357972,4.13648 10.252376,18.20867 19.157876,31.93129 20.879896,32.17694 0.62406,0.089 4.58568,-2.38281 10.21715,-6.36501 11.37789,-8.04569 10.89883,-7.59498 9.88293,-9.11745 -2.25464,-3.37899 -16.31175,-19.50079 -23.68086,-27.15688 -2.53009,-2.62864 -4.5993,-4.99527 -4.5993,-5.26247 0,-1.0131 0.90422,-1.28692 11.47439,-3.39364 3.56667,-0.710868 9.48323,-2.001316 13.14543,-2.869728 3.66222,-0.868412 9.14646,-2.166808 12.18259,-2.885368 6.96804,-1.649132 7.35454,-1.9807 6.20668,-5.231196 -0.47509,-1.345408 -2.21232,-6.5865 -3.85928,-11.650952 -1.66459,-5.11862 -3.31615,-9.331188 -3.72401,-9.484964 -0.81626,-0.30784 -6.85845,1.687088 -17.55375,5.7942 -7.15188,2.746384 -11.69775,4.355716 -19.52287,8.046188 -4.53798,2.140196 -5.21023,2.310936 -5.72924,1.485692 -0.18068,-0.28728 0.0417,-4.060188 0.49335,-8.390244 2.71972,-26.074148 3.10583,-34.626024 1.57554,-35.203068 C 106.7354,40.1435 102.15548,40.005204 96.000004,40 Z"
     style="fill:#3f3f3f;stroke-width:4" />
</svg>
