<?xml version="1.0" encoding="UTF-8" standalone="no"?>
<svg
   xmlns:dc="http://purl.org/dc/elements/1.1/"
   xmlns:cc="http://creativecommons.org/ns#"
   xmlns:rdf="http://www.w3.org/1999/02/22-rdf-syntax-ns#"
   xmlns:svg="http://www.w3.org/2000/svg"
   xmlns="http://www.w3.org/2000/svg"
   xmlns:sodipodi="http://sodipodi.sourceforge.net/DTD/sodipodi-0.dtd"
   xmlns:inkscape="http://www.inkscape.org/namespaces/inkscape"
   width="192"
   height="192"
   version="1"
   id="svg14"
   sodipodi:docname="apps_passwordgenerator.svg"
   inkscape:version="0.92.3 (2405546, 2018-03-11)">
  <metadata
     id="metadata20">
    <rdf:RDF>
      <cc:Work
         rdf:about="">
        <dc:format>image/svg+xml</dc:format>
        <dc:type
           rdf:resource="http://purl.org/dc/dcmitype/StillImage" />
      </cc:Work>
    </rdf:RDF>
  </metadata>
  <defs
     id="defs18">
    <filter
       inkscape:collect="always"
       style="color-interpolation-filters:sRGB"
       id="filter850"
       x="-0.0432"
       width="1.0864"
       y="-0.054"
       height="1.108">
      <feGaussianBlur
         inkscape:collect="always"
         stdDeviation="2.88"
         id="feGaussianBlur852" />
    </filter>
    <filter
       inkscape:collect="always"
       style="color-interpolation-filters:sRGB"
       id="filter869"
       x="-0.033333333"
       width="1.0666667"
       y="-0.085714286"
       height="1.1714286">
      <feGaussianBlur
         inkscape:collect="always"
         stdDeviation="2"
         id="feGaussianBlur871" />
    </filter>
  </defs>
  <sodipodi:namedview
     pagecolor="#ffffff"
     bordercolor="#666666"
     borderopacity="1"
     objecttolerance="10"
     gridtolerance="10"
     guidetolerance="10"
     inkscape:pageopacity="0"
     inkscape:pageshadow="2"
     inkscape:window-width="1920"
     inkscape:window-height="1018"
     id="namedview16"
     showgrid="false"
     inkscape:zoom="1"
     inkscape:cx="96"
     inkscape:cy="96"
     inkscape:window-x="0"
     inkscape:window-y="32"
     inkscape:window-maximized="1"
     inkscape:current-layer="svg14" />
  <rect
     style="opacity:0.2;fill:#000000;stroke-width:4;filter:url(#filter850)"
     width="128"
     height="160"
     x="-164"
     y="-176"
     rx="8"
     ry="8"
     transform="matrix(0,-1,-1,0,0,0)"
     id="rect832" />
  <rect
     id="rect4"
     transform="matrix(0,-1,-1,0,0,0)"
     ry="8"
     rx="8"
     y="-176"
     x="-160"
     height="160"
     width="128"
     style="fill:#0fa0e6;stroke-width:4" />
  <path
     style="opacity:0.2;fill:#ffffff;stroke-width:4"
     d="M 24 32 C 19.568 32 16 35.568 16 40 L 16 41 C 16 36.568 19.568 33 24 33 L 168 33 C 172.432 33 176 36.568 176 41 L 176 40 C 176 35.568 172.432 32 168 32 L 24 32 z "
     id="path6" />
  <path
     inkscape:connector-curvature="0"
     id="path8"
     d="m 44,74 v 13.070312 l -11.320312,-6.531248 -4,6.921872 L 40.007812,94 l -11.328124,6.53906 4,6.92188 L 44,100.92969 V 114 h 8 v -13.07031 l 11.320312,6.53125 4,-6.92188 L 55.992188,94 l 11.328124,-6.539064 -4,-6.921872 L 52,87.070312 V 74 Z m 48,0 v 13.070312 l -11.320312,-6.531248 -4,6.921872 L 88.007812,94 l -11.328124,6.53906 4,6.92188 L 92,100.92969 V 114 h 8 v -13.07031 l 11.32031,6.53125 4,-6.92188 L 103.99219,94 l 11.32812,-6.539064 -4,-6.921872 L 100,87.070312 V 74 Z m 48,0 v 13.070312 l -11.32031,-6.531248 -4,6.921872 L 136.00781,94 l -11.32812,6.53906 4,6.92188 L 140,100.92969 V 114 h 8 v -13.07031 l 11.32031,6.53125 4,-6.92188 L 151.99219,94 l 11.32812,-6.539064 -4,-6.921872 L 148,87.070312 V 74 Z M 24,122 v 8 h 144 v -8 z"
     style="opacity:0.2;stroke-width:4;filter:url(#filter869)" />
  <path
     inkscape:connector-curvature="0"
     id="path10"
     d="m 44,72 v 13.070312 l -11.320312,-6.531248 -4,6.921872 L 40.007812,92 l -11.328124,6.539064 4,6.921876 L 44,98.929688 V 112 h 8 V 98.929688 l 11.320312,6.531252 4,-6.921876 L 55.992188,92 l 11.328124,-6.539064 -4,-6.921872 L 52,85.070312 V 72 Z m 48,0 v 13.070312 l -11.320312,-6.531248 -4,6.921872 L 88.007812,92 l -11.328124,6.539064 4,6.921876 L 92,98.929688 V 112 h 8 V 98.929688 l 11.32031,6.531252 4,-6.921876 L 103.99219,92 l 11.32812,-6.539064 -4,-6.921872 L 100,85.070312 V 72 Z m 48,0 v 13.070312 l -11.32031,-6.531248 -4,6.921872 L 136.00781,92 l -11.32812,6.539064 4,6.921876 L 140,98.929688 V 112 h 8 V 98.929688 l 11.32031,6.531252 4,-6.921876 L 151.99219,92 l 11.32812,-6.539064 -4,-6.921872 L 148,85.070312 V 72 Z M 24,120 v 8 h 144 v -8 z"
     style="fill:#ffffff;stroke-width:4" />
</svg>
