<?xml version="1.0" encoding="UTF-8" standalone="no"?>
<svg
   xmlns:dc="http://purl.org/dc/elements/1.1/"
   xmlns:cc="http://creativecommons.org/ns#"
   xmlns:rdf="http://www.w3.org/1999/02/22-rdf-syntax-ns#"
   xmlns:svg="http://www.w3.org/2000/svg"
   xmlns="http://www.w3.org/2000/svg"
   xmlns:sodipodi="http://sodipodi.sourceforge.net/DTD/sodipodi-0.dtd"
   xmlns:inkscape="http://www.inkscape.org/namespaces/inkscape"
   width="192"
   height="192"
   version="1"
   id="svg26"
   sodipodi:docname="apps_otpauth.svg"
   inkscape:version="0.92.3 (2405546, 2018-03-11)">
  <metadata
     id="metadata32">
    <rdf:RDF>
      <cc:Work
         rdf:about="">
        <dc:format>image/svg+xml</dc:format>
        <dc:type
           rdf:resource="http://purl.org/dc/dcmitype/StillImage" />
      </cc:Work>
    </rdf:RDF>
  </metadata>
  <defs
     id="defs30">
    <filter
       inkscape:collect="always"
       style="color-interpolation-filters:sRGB"
       id="filter866"
       x="-0.048"
       width="1.096"
       y="-0.048"
       height="1.096">
      <feGaussianBlur
         inkscape:collect="always"
         stdDeviation="3.2"
         id="feGaussianBlur868" />
    </filter>
    <filter
       inkscape:collect="always"
       style="color-interpolation-filters:sRGB"
       id="filter886"
       x="-0.048"
       width="1.096"
       y="-0.048"
       height="1.096">
      <feGaussianBlur
         inkscape:collect="always"
         stdDeviation="1.4214062"
         id="feGaussianBlur888" />
    </filter>
    <filter
       inkscape:collect="always"
       style="color-interpolation-filters:sRGB"
       id="filter914"
       x="-0.048"
       width="1.096"
       y="-0.048"
       height="1.096">
      <feGaussianBlur
         inkscape:collect="always"
         stdDeviation="1.2"
         id="feGaussianBlur916" />
    </filter>
    <filter
       inkscape:collect="always"
       style="color-interpolation-filters:sRGB"
       id="filter930"
       x="-0.048"
       width="1.096"
       y="-0.048"
       height="1.096">
      <feGaussianBlur
         inkscape:collect="always"
         stdDeviation="0.32"
         id="feGaussianBlur932" />
    </filter>
  </defs>
  <sodipodi:namedview
     pagecolor="#ffffff"
     bordercolor="#666666"
     borderopacity="1"
     objecttolerance="10"
     gridtolerance="10"
     guidetolerance="10"
     inkscape:pageopacity="0"
     inkscape:pageshadow="2"
     inkscape:window-width="1920"
     inkscape:window-height="1018"
     id="namedview28"
     showgrid="false"
     inkscape:zoom="1"
     inkscape:cx="96"
     inkscape:cy="96"
     inkscape:window-x="0"
     inkscape:window-y="32"
     inkscape:window-maximized="1"
     inkscape:current-layer="svg26" />
  <circle
     id="circle2"
     r="80"
     cy="100"
     cx="96"
     style="opacity:0.2;stroke-width:4;filter:url(#filter866)" />
  <circle
     id="circle4"
     r="80"
     cy="96"
     cx="96"
     style="fill:#485f6b;stroke-width:4" />
  <path
     inkscape:connector-curvature="0"
     id="path6"
     d="M 83.070312,70.929316 68.929688,85.06994 101.85938,117.99963 H 112 v 10.14062 l 1.85938,1.85938 H 124 v 10.14062 l 1.85938,1.85938 H 140 v -14.14062 z"
     style="opacity:0.2;stroke-width:4;filter:url(#filter886)" />
  <path
     style="opacity:0.1;fill:#ffffff;stroke-width:4"
     d="M 96 16 A 80 80 0 0 0 16 96 A 80 80 0 0 0 16.017578 96.513672 A 80 80 0 0 1 96 17 A 80 80 0 0 1 175.76562 92.320312 A 80 80 0 0 1 175.79102 92.832031 A 80 80 0 0 1 175.97656 96.517578 A 80 80 0 0 0 176 96 A 80 80 0 0 0 96 16 z "
     id="path8" />
  <path
     inkscape:connector-curvature="0"
     id="path10"
     d="M 83.070312,68.929688 68.929688,83.070312 101.85938,116 H 112 v 10.14062 L 113.85938,128 H 124 v 10.14062 L 125.85938,140 H 140 v -14.14062 z"
     style="fill:#ef8800;stroke-width:4;fill-opacity:1" />
  <circle
     id="circle12"
     r="30"
     cy="80"
     cx="78"
     style="opacity:0.2;stroke-width:4;filter:url(#filter914)" />
  <path
     style="opacity:0.1;fill:#ffffff;stroke-width:4"
     d="M 83.070312 68.929688 L 68.929688 83.070312 L 69.429688 83.570312 L 83.070312 69.929688 L 140 126.85938 L 140 125.85938 L 83.070312 68.929688 z "
     id="path14" />
  <circle
     id="circle16"
     r="30"
     cy="78"
     cx="78"
     style="fill:#fcb900;stroke-width:4" />
  <circle
     id="circle18"
     r="8"
     cy="70"
     cx="68"
     style="opacity:0.1;stroke-width:4;filter:url(#filter930)" />
  <circle
     id="circle20"
     r="8"
     cy="68"
     cx="68"
     style="fill:#ffffff;stroke-width:4" />
  <path
     style="opacity:0.2;fill:#ffffff;stroke-width:4"
     d="M 78 48 A 30 30 0 0 0 48 78 A 30 30 0 0 0 48.017578 78.507812 A 30 30 0 0 1 78 49 A 30 30 0 0 1 107.97656 78.523438 A 30 30 0 0 0 108 78 A 30 30 0 0 0 78 48 z "
     id="path22" />
</svg>
