<?xml version="1.0" encoding="UTF-8" standalone="no"?>
<svg
   xmlns:dc="http://purl.org/dc/elements/1.1/"
   xmlns:cc="http://creativecommons.org/ns#"
   xmlns:rdf="http://www.w3.org/1999/02/22-rdf-syntax-ns#"
   xmlns:svg="http://www.w3.org/2000/svg"
   xmlns="http://www.w3.org/2000/svg"
   xmlns:sodipodi="http://sodipodi.sourceforge.net/DTD/sodipodi-0.dtd"
   xmlns:inkscape="http://www.inkscape.org/namespaces/inkscape"
   width="192"
   height="192"
   x="0"
   y="0"
   version="1.1"
   xml:space="preserve"
   id="svg12"
   sodipodi:docname="apps_dolphin_emu.svg"
   inkscape:version="0.92.3 (2405546, 2018-03-11)"><metadata
   id="metadata18"><rdf:RDF><cc:Work
       rdf:about=""><dc:format>image/svg+xml</dc:format><dc:type
         rdf:resource="http://purl.org/dc/dcmitype/StillImage" /><dc:title></dc:title></cc:Work></rdf:RDF></metadata><defs
   id="defs16"><filter
     inkscape:collect="always"
     style="color-interpolation-filters:sRGB"
     id="filter860"
     x="-0.044372088"
     width="1.0887442"
     y="-0.052273979"
     height="1.104548"><feGaussianBlur
       inkscape:collect="always"
       stdDeviation="3.1799995"
       id="feGaussianBlur862" /></filter><filter
     inkscape:collect="always"
     style="color-interpolation-filters:sRGB"
     id="filter878"
     x="-0.048"
     width="1.096"
     y="-0.048"
     height="1.096"><feGaussianBlur
       inkscape:collect="always"
       stdDeviation="0.26"
       id="feGaussianBlur880" /></filter></defs><sodipodi:namedview
   pagecolor="#ffffff"
   bordercolor="#666666"
   borderopacity="1"
   objecttolerance="10"
   gridtolerance="10"
   guidetolerance="10"
   inkscape:pageopacity="0"
   inkscape:pageshadow="2"
   inkscape:window-width="1920"
   inkscape:window-height="1018"
   id="namedview14"
   showgrid="true"
   inkscape:zoom="2.49"
   inkscape:cx="113.62117"
   inkscape:cy="83.925094"
   inkscape:window-x="0"
   inkscape:window-y="32"
   inkscape:window-maximized="1"
   inkscape:current-layer="svg12"><inkscape:grid
     type="xygrid"
     id="grid840" /></sodipodi:namedview>
 
 
 
 <path
   sodipodi:nodetypes="ccccccccccccccccsccccsccccccccccsccccccscccc"
   id="path842"
   d="m 181.74579,157.16331 c -0.66815,-5.63764 -3.60834,-10.41396 -5.97012,-14.25204 -0.83158,-1.3508 -1.79163,-2.11185 -2.37566,-3.25201 -0.0626,-34.84608 -14.59312,-76.385386 -47.30001,-94.43697 2.61334,-1.121999 9.83911,-1.832358 12.44523,-2.308748 1.94598,-0.352847 3.57323,-1.554131 4.34955,-3.20987 0.7763,-1.65578 0.60085,-3.551946 -0.46948,-5.067573 -1.01504,-1.437202 -6.45003,-4.912868 -16.59491,-6.132221 -12.30477,-1.48 -18.9831,0.344287 -32.431093,4.896964 -7.891266,2.67175 -11.723938,3.042158 -16.16147,3.470601 -3.773388,0.364441 -8.050693,0.777775 -14.845992,2.503997 -19.571139,4.972407 -28.777883,12.859846 -34.000538,18.037052 -4.077019,4.041389 -5.717226,8.154721 -5.491303,11.4968 -0.970184,0.485107 -1.485857,1.026145 -2.558588,1.586755 -7.172638,3.747259 -9.656184,5.498207 -10.229001,8.482973 -0.4222041,2.202613 0.353305,3.645592 2.186321,5.620182 2.958108,2.745287 4.640242,3.518383 9.285253,3.518383 3.389159,0 4.311755,-1.031109 8.487315,-1.946117 3.695677,-0.809755 8.29504,-1.817009 11.78803,-2.153247 4.435128,-0.427565 8.871864,-0.01932 15.566221,1.286853 1.982829,0.3872 4.230039,0.825721 6.692753,1.269402 3.165321,0.570142 6.465231,1.719035 9.810004,1.719035 2.845663,0 7.084595,0.116156 9.138726,-0.145313 1.489327,2.783573 3.963255,8.67322 7.952146,13.413272 10.406056,12.366 19.578596,12.43345 20.823566,12.44216 2.25041,0.0301 4.37184,-0.63996 5.40852,-2.47075 1.03668,-1.83151 0.86043,-4.0182 -0.47828,-5.68051 -0.0271,-0.0344 -2.26209,-3.61044 -3.32922,-9.203083 -0.30444,-1.593323 -0.16856,-2.936928 -0.14375,-4.20852 13.85042,4.022452 35.69753,16.275493 38.50829,29.622233 l 0.0917,4.71849 c -0.0391,-0.002 0.04,8.6e-4 0,0 -0.63691,-0.0258 -2.56369,-0.0323 -3.53308,-0.0323 -2.5196,0 -5.24669,0.25276 -8.3367,0.74085 -10.03513,1.58529 -15.86967,8.05375 -16.55064,8.78653 -1.57345,1.69133 -1.94999,5.79957 -0.81798,7.75966 1.12321,1.94621 3.33917,3.09512 5.75061,2.90779 l 0.11137,-7.2e-4 c 15.342,2.1177 34.80837,11.6788 41.11451,23.8795 0.98461,1.94626 3.12526,3.1772 5.45979,3.1772 0.14982,0 0.30044,-0.004 0.45104,-0.0172 2.50598,-0.17 4.63061,-1.73562 5.32521,-3.92445 0.17703,-0.56572 1.72326,-5.72044 0.87164,-12.89618 z"
   style="opacity:0.2;fill:#000000;stroke-width:4.29705906;filter:url(#filter860)"
   inkscape:connector-curvature="0" /><path
   inkscape:connector-curvature="0"
   style="fill:#489cf2;stroke-width:4.29705906"
   d="m 181.74579,153.16331 c -0.66815,-5.63764 -3.60834,-10.41396 -5.97012,-14.25204 -0.83158,-1.3508 -1.79163,-2.11185 -2.37566,-3.25201 -0.0626,-34.84608 -14.59312,-76.385386 -47.30001,-94.43697 2.61334,-1.121999 9.83911,-1.832358 12.44523,-2.308748 1.94598,-0.352847 3.57323,-1.554131 4.34955,-3.20987 0.7763,-1.65578 0.60085,-3.551946 -0.46948,-5.067573 -1.01504,-1.437202 -6.45003,-4.912868 -16.59491,-6.132221 -12.30477,-1.48 -18.9831,0.344287 -32.431093,4.896964 -7.891266,2.67175 -11.723938,3.042158 -16.16147,3.470601 -3.773388,0.364441 -8.050693,0.777775 -14.845992,2.503997 -19.571139,4.972407 -28.777883,12.859846 -34.000538,18.037052 -4.077019,4.041389 -5.717226,8.154721 -5.491303,11.4968 -0.970184,0.485107 -1.485857,1.026145 -2.558588,1.586755 -7.172638,3.747259 -9.656184,5.498207 -10.229001,8.482973 -0.4222041,2.202613 0.353305,3.645592 2.186321,5.620182 2.958108,2.745287 4.640242,3.518383 9.285253,3.518383 3.389159,0 4.311755,-1.031109 8.487315,-1.946117 3.695677,-0.809755 8.29504,-1.817009 11.78803,-2.153247 4.435128,-0.427565 8.871864,-0.01932 15.566221,1.286853 1.982829,0.3872 4.230039,0.825721 6.692753,1.269402 3.165321,0.570142 6.465231,1.719035 9.810004,1.719035 2.845663,0 7.084595,0.116156 9.138726,-0.145313 1.489327,2.783573 3.963255,8.67322 7.952146,13.41327 10.406056,12.366002 19.578596,12.433452 20.823566,12.442162 2.25041,0.0301 4.37184,-0.63996 5.40852,-2.47075 1.03668,-1.83151 0.86043,-4.0182 -0.47828,-5.68051 -0.0271,-0.0344 -2.26209,-3.610443 -3.32922,-9.203083 -0.30444,-1.593323 -0.16856,-2.936928 -0.14375,-4.20852 13.85042,4.022452 35.69753,16.275493 38.50829,29.622233 l 0.0917,4.71849 c -0.0391,-0.002 0.04,8.6e-4 0,0 -0.63691,-0.0258 -2.56369,-0.0323 -3.53308,-0.0323 -2.5196,0 -5.24669,0.25276 -8.3367,0.74085 -10.03513,1.58529 -15.86967,8.05375 -16.55064,8.78653 -1.57345,1.69133 -1.94999,5.79957 -0.81798,7.75966 1.12321,1.94621 3.33917,3.09512 5.75061,2.90779 l 0.11137,-7.2e-4 c 15.342,2.1177 34.80837,11.6788 41.11451,23.8795 0.98461,1.94626 3.12526,3.1772 5.45979,3.1772 0.14982,0 0.30044,-0.004 0.45104,-0.0172 2.50598,-0.17 4.63061,-1.73562 5.32521,-3.92445 0.17703,-0.56572 1.72326,-5.72044 0.87164,-12.89618 z"
   id="path4"
   sodipodi:nodetypes="ccccccccccccccccsccccsccccccccccsccccccscccc" /><circle
   id="circle864"
   r="6.5"
   cy="61.5"
   cx="38.5"
   style="opacity:0.1;fill:#000000;stroke-width:4.33333349;filter:url(#filter878)" /><circle
   style="fill:#ffffff;stroke-width:4.33333349"
   cx="38.5"
   cy="59.5"
   r="6.5"
   id="circle8" />
 
<path
   style="fill:#ffffff;stroke-width:4.29705906;opacity:0.2"
   d="M 117.46289 24.003906 C 109.76316 24.106019 103.48443 25.985883 93.398438 29.400391 C 85.507171 32.072141 81.675813 32.442651 77.238281 32.871094 C 73.464893 33.235535 69.187877 33.648778 62.392578 35.375 C 42.821439 40.347407 33.61328 48.234903 28.390625 53.412109 C 24.313606 57.453498 22.674468 61.568077 22.900391 64.910156 C 21.930207 65.395263 21.414528 65.935484 20.341797 66.496094 C 13.169159 70.243353 10.686098 71.99375 10.113281 74.978516 C 10.000924 75.564679 9.9785572 76.094753 10.033203 76.597656 C 10.051723 76.395985 10.072081 76.193454 10.113281 75.978516 C 10.686098 72.99375 13.169159 71.243353 20.341797 67.496094 C 21.414528 66.935484 21.930207 66.395263 22.900391 65.910156 C 22.674468 62.568077 24.313606 58.453498 28.390625 54.412109 C 33.61328 49.234903 42.821439 41.347407 62.392578 36.375 C 69.187877 34.648778 73.464893 34.235535 77.238281 33.871094 C 81.675813 33.442651 85.507171 33.072141 93.398438 30.400391 C 106.84643 25.847714 113.52531 24.023906 125.83008 25.503906 C 135.97496 26.723259 141.41074 30.199517 142.42578 31.636719 C 142.94564 32.372854 143.24871 33.198438 143.33984 34.042969 C 143.45299 32.860954 143.15025 31.662598 142.42578 30.636719 C 141.41074 29.199517 135.97496 25.723259 125.83008 24.503906 C 122.75389 24.133906 120.02947 23.969869 117.46289 24.003906 z M 127.17969 41.853516 C 126.77277 41.97159 126.3992 42.09403 126.09961 42.222656 C 158.8065 60.27424 173.33779 101.81408 173.40039 136.66016 C 173.98442 137.80032 174.94381 138.56131 175.77539 139.91211 C 178.1369 143.74975 181.0775 148.52531 181.74609 154.16211 C 181.74609 154.16211 181.74609 154.16406 181.74609 154.16406 C 181.92393 155.66318 181.97954 157.04841 181.98242 158.34766 C 182.02173 156.78673 181.96998 155.0514 181.74609 153.16406 C 181.74609 153.16406 181.74609 153.16211 181.74609 153.16211 C 181.0775 147.52531 178.1369 142.74975 175.77539 138.91211 C 174.94381 137.56131 173.98442 136.80032 173.40039 135.66016 C 173.33849 101.20437 159.11809 60.219426 127.17969 41.853516 z M 113.26367 90.833984 C 113.24109 91.705994 113.24585 92.61474 113.44336 93.648438 C 114.51049 99.241077 116.74634 102.81716 116.77344 102.85156 C 117.41918 103.65339 117.78758 104.57826 117.88672 105.52539 C 118.01533 104.24047 117.64561 102.93456 116.77344 101.85156 C 116.74634 101.81716 114.51049 98.241077 113.44336 92.648438 C 113.3202 92.003865 113.27921 91.408585 113.26367 90.833984 z M 148.36719 122.75 C 145.84759 122.75 143.11931 123.00214 140.0293 123.49023 C 129.99417 125.07552 124.16144 131.54456 123.48047 132.27734 C 122.43019 133.40631 121.92617 135.60429 122.03516 137.5293 C 122.11999 135.88667 122.60974 134.2133 123.48047 133.27734 C 124.16144 132.54456 129.99417 126.07552 140.0293 124.49023 C 143.11931 124.00214 145.84759 123.75 148.36719 123.75 C 149.33658 123.75 151.26348 123.75545 151.90039 123.78125 L 151.88086 122.78125 C 151.23336 122.7558 149.33122 122.75 148.36719 122.75 z "
   id="path882" /></svg>