<?xml version="1.0" encoding="UTF-8" standalone="no"?>
<svg
   xmlns:dc="http://purl.org/dc/elements/1.1/"
   xmlns:cc="http://creativecommons.org/ns#"
   xmlns:rdf="http://www.w3.org/1999/02/22-rdf-syntax-ns#"
   xmlns:svg="http://www.w3.org/2000/svg"
   xmlns="http://www.w3.org/2000/svg"
   xmlns:sodipodi="http://sodipodi.sourceforge.net/DTD/sodipodi-0.dtd"
   xmlns:inkscape="http://www.inkscape.org/namespaces/inkscape"
   width="192"
   height="192"
   version="1"
   id="svg14"
   sodipodi:docname="apps_deadbeef.svg"
   inkscape:version="0.92.3 (2405546, 2018-03-11)">
  <metadata
     id="metadata20">
    <rdf:RDF>
      <cc:Work
         rdf:about="">
        <dc:format>image/svg+xml</dc:format>
        <dc:type
           rdf:resource="http://purl.org/dc/dcmitype/StillImage" />
      </cc:Work>
    </rdf:RDF>
  </metadata>
  <defs
     id="defs18">
    <filter
       inkscape:collect="always"
       style="color-interpolation-filters:sRGB"
       id="filter848"
       x="-0.049263159"
       width="1.0985263"
       y="-0.046799999"
       height="1.0936">
      <feGaussianBlur
         inkscape:collect="always"
         stdDeviation="3.1200001"
         id="feGaussianBlur850" />
    </filter>
    <filter
       inkscape:collect="always"
       style="color-interpolation-filters:sRGB"
       id="filter869"
       x="-0.056"
       width="1.112"
       y="-0.042"
       height="1.084">
      <feGaussianBlur
         inkscape:collect="always"
         stdDeviation="1.68"
         id="feGaussianBlur871" />
    </filter>
  </defs>
  <sodipodi:namedview
     pagecolor="#ffffff"
     bordercolor="#666666"
     borderopacity="1"
     objecttolerance="10"
     gridtolerance="10"
     guidetolerance="10"
     inkscape:pageopacity="0"
     inkscape:pageshadow="2"
     inkscape:window-width="1920"
     inkscape:window-height="1018"
     id="namedview16"
     showgrid="false"
     inkscape:zoom="1"
     inkscape:cx="96"
     inkscape:cy="96"
     inkscape:window-x="0"
     inkscape:window-y="32"
     inkscape:window-maximized="1"
     inkscape:current-layer="svg14" />
  <path
     d="M 33.757417,20.003377 A 13.445412,12.554906 0 0 0 20,32.553482 V 167.45432 a 13.445412,12.554906 0 0 0 20.167918,10.86375 l 62.556992,-33.71921 62.55298,-33.72321 a 13.445412,12.554906 0 0 0 0,-21.745095 L 102.72491,55.403346 40.167918,21.680937 a 13.445412,12.554906 0 0 0 -6.410901,-1.67756 z"
     id="path834"
     inkscape:connector-curvature="0"
     style="opacity:0.2;fill:#000000;stroke-width:3.9999845;filter:url(#filter848)" />
  <path
     style="fill:#4f4f4f;stroke-width:3.9999845"
     inkscape:connector-curvature="0"
     id="path2"
     d="M 33.757417,16.00338 A 13.445412,12.554906 0 0 0 20,28.553485 V 163.45432 a 13.445412,12.554906 0 0 0 20.167918,10.86375 l 62.556992,-33.71921 62.55298,-33.72321 a 13.445412,12.554906 0 0 0 0,-21.745092 L 102.72491,51.403349 40.167918,17.68094 a 13.445412,12.554906 0 0 0 -6.410901,-1.67756 z" />
  <path
     style="opacity:0.2;fill-rule:evenodd;stroke-width:4;filter:url(#filter869)"
     inkscape:connector-curvature="0"
     id="path4"
     d="m 52,52 v 48 l 27,-18 27,18 -54,36 v 12 l 72,-48 z" />
  <path
     style="fill:#79ce24;fill-rule:evenodd;stroke-width:4"
     inkscape:connector-curvature="0"
     id="path6"
     d="m 52,48 v 48 l 27,-18 27,18 -54,36 v 12 l 72,-48 z" />
  <path
     style="fill:#ffffff;stroke-width:3.9999845;opacity:0.1"
     d="M 33.757812 16.003906 A 13.445412 12.554906 0 0 0 20 28.552734 L 20 29.552734 A 13.445412 12.554906 0 0 1 33.757812 17.003906 A 13.445412 12.554906 0 0 1 40.167969 18.681641 L 102.72461 52.404297 L 165.27734 86.130859 A 13.445412 12.554906 0 0 1 171.98047 96.625 A 13.445412 12.554906 0 0 0 165.27734 85.130859 L 102.72461 51.404297 L 40.167969 17.681641 A 13.445412 12.554906 0 0 0 33.757812 16.003906 z "
     id="path852" />
  <path
     style="fill:#ffffff;fill-rule:evenodd;stroke-width:4;opacity:0.2"
     d="M 52 48 L 52 49 L 123.25 96.5 L 124 96 L 52 48 z M 105.25 96.5 L 52 132 L 52 133 L 106 97 L 105.25 96.5 z "
     id="path873" />
</svg>
