<?xml version="1.0" encoding="UTF-8" standalone="no"?>
<svg
   xmlns:dc="http://purl.org/dc/elements/1.1/"
   xmlns:cc="http://creativecommons.org/ns#"
   xmlns:rdf="http://www.w3.org/1999/02/22-rdf-syntax-ns#"
   xmlns:svg="http://www.w3.org/2000/svg"
   xmlns="http://www.w3.org/2000/svg"
   xmlns:sodipodi="http://sodipodi.sourceforge.net/DTD/sodipodi-0.dtd"
   xmlns:inkscape="http://www.inkscape.org/namespaces/inkscape"
   width="192"
   height="192"
   version="1"
   id="svg22"
   sodipodi:docname="apps_via_browser.svg"
   inkscape:version="0.92.3 (2405546, 2018-03-11)">
  <metadata
     id="metadata28">
    <rdf:RDF>
      <cc:Work
         rdf:about="">
        <dc:format>image/svg+xml</dc:format>
        <dc:type
           rdf:resource="http://purl.org/dc/dcmitype/StillImage" />
      </cc:Work>
    </rdf:RDF>
  </metadata>
  <defs
     id="defs26">
    <filter
       inkscape:collect="always"
       style="color-interpolation-filters:sRGB"
       id="filter856"
       x="-0.044999999"
       width="1.09"
       y="-0.051428573"
       height="1.1028571">
      <feGaussianBlur
         inkscape:collect="always"
         stdDeviation="3"
         id="feGaussianBlur858" />
    </filter>
    <filter
       inkscape:collect="always"
       style="color-interpolation-filters:sRGB"
       id="filter872"
       x="-0.06866286"
       width="1.1373257"
       y="-0.036896622"
       height="1.0737932">
      <feGaussianBlur
         inkscape:collect="always"
         stdDeviation="1.5310092"
         id="feGaussianBlur874" />
    </filter>
    <filter
       inkscape:collect="always"
       style="color-interpolation-filters:sRGB"
       id="filter896"
       x="-0.04928913"
       width="1.0985783"
       y="-0.046776585"
       height="1.0935532">
      <feGaussianBlur
         inkscape:collect="always"
         stdDeviation="1.6679557"
         id="feGaussianBlur898" />
    </filter>
  </defs>
  <sodipodi:namedview
     pagecolor="#ffffff"
     bordercolor="#666666"
     borderopacity="1"
     objecttolerance="10"
     gridtolerance="10"
     guidetolerance="10"
     inkscape:pageopacity="0"
     inkscape:pageshadow="2"
     inkscape:window-width="1920"
     inkscape:window-height="1018"
     id="namedview24"
     showgrid="false"
     inkscape:zoom="1"
     inkscape:cx="96"
     inkscape:cy="96"
     inkscape:window-x="0"
     inkscape:window-y="32"
     inkscape:window-maximized="1"
     inkscape:current-layer="svg22" />
  <path
     inkscape:connector-curvature="0"
     id="path2"
     d="m 102.07644,32.00011 c -5.783996,0.0234 -11.275992,2.54195 -15.06514,6.908612 L 74.13076,53.750888 c -1.932864,-5.305076 -8.900532,-5.614544 -14.164672,-4.995228 -5.605172,0.77786 -12.423708,1.399532 -17.163772,2.175056 -2.278644,0.5181 -6.765134,1.927092 -10.625466,5.719356 -3.860332,3.792272 -5.393592,8.330064 -5.958716,10.734564 -0.432634,1.840768 -0.541657,2.873172 -0.618579,3.747704 l -9.286351,53.56679 c -1.650619,9.24651 3.349968,18.39737 12.027054,22.00897 12.657818,5.38437 27.245354,12.5072 36.480498,10.44507 13.333632,-4.72215 21.076192,-18.07275 30.051976,-28.42467 l 3.617512,21.28916 c 0.27164,1.59943 0.39548,3.0675 1.33112,6.07144 0.935636,3.00394 3.965656,9.81937 11.087436,13.43385 7.12178,3.61448 12.32887,2.34177 14.79109,1.87777 2.16271,-0.40757 3.24753,-0.75202 4.46316,-1.08754 l 24.94675,-5.33599 c 2.08494,-0.44545 4.02877,-0.66298 7.83011,-2.41762 3.80133,-1.75464 11.21692,-8.51436 12.57516,-15.91406 1.35824,-7.3997 -0.50348,-10.46942 -1.11971,-12.29936 C 165.08317,106.2971 156.272,76.687048 147.3893,48.156712 144.9479,40.327564 137.97742,34.775978 129.79504,34.143892 l -24.79797,-1.916885 c -0.96174,-0.137911 -1.93518,-0.230614 -2.92063,-0.226897 z"
     style="opacity:0.2;stroke-width:4;filter:url(#filter856)" />
  <path
     inkscape:connector-curvature="0"
     id="path4"
     d="m 102.07644,28.000108 c -5.783996,0.0234 -11.275992,2.54195 -15.06514,6.908612 L 74.13076,49.750888 c -1.932864,-5.305076 -8.900532,-5.614544 -14.164672,-4.995228 -5.605172,0.77786 -12.423708,1.399532 -17.163772,2.175056 -2.278644,0.5181 -6.765134,1.927092 -10.625466,5.719356 -3.860332,3.792272 -5.393592,8.330064 -5.958716,10.734564 -0.432634,1.840768 -0.541657,2.873172 -0.618579,3.747704 l -9.286351,53.56679 c -1.650619,9.24651 3.349968,18.39737 12.027054,22.00897 12.657818,5.38437 27.245354,12.5072 36.480498,10.44507 13.333632,-4.72215 21.076192,-18.07275 30.051976,-28.42467 l 3.617512,21.28916 c 0.27164,1.59943 0.39548,3.0675 1.33112,6.07144 0.935636,3.00394 3.965656,9.81937 11.087436,13.43385 7.12178,3.61448 12.32887,2.34177 14.79109,1.87777 2.16271,-0.40757 3.24753,-0.75202 4.46316,-1.08754 l 24.94675,-5.33599 c 2.08494,-0.44545 4.02877,-0.66298 7.83011,-2.41762 3.80133,-1.75464 11.21692,-8.51436 12.57516,-15.91406 1.35824,-7.3997 -0.50348,-10.46942 -1.11971,-12.29936 C 165.08317,102.2971 156.272,72.687048 147.3893,44.156712 144.9479,36.327563 137.97742,30.775976 129.79504,30.14389 l -24.79797,-1.916885 c -0.96174,-0.137911 -1.93518,-0.230614 -2.92063,-0.226897 z"
     style="fill:#4f4f4f;stroke-width:4" />
  <path
     inkscape:connector-curvature="0"
     id="path8"
     d="M 48.994484,65.66728 59.57978,64.491136 c 4.220424,-0.59948 4.457024,-1.113636 4.210088,3.062836 L 60.364768,125.48335 36,122 45.40416,69.3367 c 0.3152,-3.284132 0.515384,-3.32776 3.590324,-3.66942 z"
     style="fill:#5ecaff;stroke-width:4" />
  <path
     inkscape:connector-curvature="0"
     id="path10"
     d="m 101.96368,49.921308 15.25288,20.038712 -54.283324,62.6554 c -2.57292,3.53968 -2.89422,3.40189 -6.676448,1.82596 L 36,126.00105 Z"
     style="opacity:0.2;stroke-width:4;filter:url(#filter896)" />
  <path
     inkscape:connector-curvature="0"
     id="path12"
     d="m 101.96368,45.920256 15.25288,20.038712 -54.283324,62.655402 c -2.57292,3.53968 -2.89422,3.40189 -6.676448,1.82596 L 36,122 Z"
     style="fill:#ff6a3a;stroke-width:4" />
  <path
     inkscape:connector-curvature="0"
     id="path14"
     d="m 102,50.001052 26,2 25.70066,82.609258 c 2.18095,6.53412 3.60128,7.11237 -3.07966,8.54086 l -25.22218,5.39291 c -6.27107,1.6626 -6.33368,2.01078 -7.37483,-4.12403 z"
     style="opacity:0.2;stroke-width:4;filter:url(#filter872)" />
  <path
     inkscape:connector-curvature="0"
     id="path16"
     d="m 102,46 26,2 25.70066,82.60926 c 2.18095,6.53412 3.60128,7.11236 -3.07966,8.54086 l -25.22218,5.3929 c -6.27107,1.66261 -6.33368,2.01078 -7.37483,-4.12402 z"
     style="fill:#ffca42;stroke-width:4" />
  <path
     style="opacity:0.1;fill:#ffffff;stroke-width:4"
     d="M 102.07812 28 C 96.294137 28.0234 90.79696 30.539588 87.007812 34.90625 L 74.132812 49.75 C 72.199949 44.444924 65.232886 44.138497 59.96875 44.757812 C 54.363578 45.535672 47.544752 46.154163 42.804688 46.929688 C 40.526044 47.447787 36.040019 48.856174 32.179688 52.648438 C 28.319356 56.440709 26.783874 60.978312 26.21875 63.382812 C 25.786116 65.22358 25.678485 66.25828 25.601562 67.132812 L 16.3125 120.69531 C 16.09794 121.89724 16.035051 123.09157 16.058594 124.27539 C 16.083686 123.41962 16.158239 122.55946 16.3125 121.69531 L 25.601562 68.132812 C 25.678485 67.25828 25.786116 66.22358 26.21875 64.382812 C 26.783874 61.978312 28.319356 57.440709 32.179688 53.648438 C 36.040019 49.856174 40.526044 48.447787 42.804688 47.929688 C 47.544752 47.154163 54.363578 46.535672 59.96875 45.757812 C 65.232886 45.138497 72.199949 45.444924 74.132812 50.75 L 87.007812 35.90625 C 90.79696 31.539588 96.294137 29.0234 102.07812 29 C 103.06359 28.996283 104.03826 29.088652 105 29.226562 L 129.79688 31.140625 C 137.97925 31.77271 144.94923 37.327103 147.39062 45.15625 C 156.27333 73.68659 165.08624 103.2947 174.39844 131.34375 C 174.84412 132.66726 175.91751 134.68255 175.97461 138.47656 C 176.11891 134.00997 174.88239 131.78092 174.39844 130.34375 C 165.08624 102.2947 156.27333 72.68659 147.39062 44.15625 C 144.94923 36.327103 137.97925 30.77271 129.79688 30.140625 L 105 28.226562 C 104.03826 28.088652 103.06359 27.996283 102.07812 28 z "
     id="path18" />
</svg>
