<?xml version="1.0" encoding="UTF-8" standalone="no"?>
<svg
   xmlns:dc="http://purl.org/dc/elements/1.1/"
   xmlns:cc="http://creativecommons.org/ns#"
   xmlns:rdf="http://www.w3.org/1999/02/22-rdf-syntax-ns#"
   xmlns:svg="http://www.w3.org/2000/svg"
   xmlns="http://www.w3.org/2000/svg"
   xmlns:sodipodi="http://sodipodi.sourceforge.net/DTD/sodipodi-0.dtd"
   xmlns:inkscape="http://www.inkscape.org/namespaces/inkscape"
   width="192"
   height="192"
   version="1"
   id="svg30"
   sodipodi:docname="apps_allcast.svg"
   inkscape:version="0.92.3 (2405546, 2018-03-11)">
  <metadata
     id="metadata36">
    <rdf:RDF>
      <cc:Work
         rdf:about="">
        <dc:format>image/svg+xml</dc:format>
        <dc:type
           rdf:resource="http://purl.org/dc/dcmitype/StillImage" />
      </cc:Work>
    </rdf:RDF>
  </metadata>
  <defs
     id="defs34">
    <filter
       inkscape:collect="always"
       style="color-interpolation-filters:sRGB"
       id="filter876"
       x="-0.044"
       width="1.088"
       y="-0.0528"
       height="1.1056">
      <feGaussianBlur
         inkscape:collect="always"
         stdDeviation="2.64"
         id="feGaussianBlur878" />
    </filter>
    <filter
       inkscape:collect="always"
       style="color-interpolation-filters:sRGB"
       id="filter892"
       x="-0.048"
       width="1.096"
       y="-0.048"
       height="1.096">
      <feGaussianBlur
         inkscape:collect="always"
         stdDeviation="0.32"
         id="feGaussianBlur894" />
    </filter>
    <filter
       inkscape:collect="always"
       style="color-interpolation-filters:sRGB"
       id="filter930"
       x="-0.048"
       width="1.096"
       y="-0.048"
       height="1.096">
      <feGaussianBlur
         inkscape:collect="always"
         stdDeviation="3.2"
         id="feGaussianBlur932" />
    </filter>
  </defs>
  <sodipodi:namedview
     pagecolor="#ffffff"
     bordercolor="#666666"
     borderopacity="1"
     objecttolerance="10"
     gridtolerance="10"
     guidetolerance="10"
     inkscape:pageopacity="0"
     inkscape:pageshadow="2"
     inkscape:window-width="1920"
     inkscape:window-height="1018"
     id="namedview32"
     showgrid="false"
     inkscape:zoom="3.2796268"
     inkscape:cx="50.253691"
     inkscape:cy="59.069559"
     inkscape:window-x="0"
     inkscape:window-y="32"
     inkscape:window-maximized="1"
     inkscape:current-layer="svg30">
    <inkscape:grid
       type="xygrid"
       id="grid843" />
  </sodipodi:namedview>
  <rect
     style="opacity:0.2;fill:#000000;stroke-width:4;filter:url(#filter930)"
     width="160"
     height="160"
     x="-180"
     y="-176"
     rx="8"
     ry="8"
     transform="matrix(0,-1,-1,0,0,0)"
     id="rect912" />
  <rect
     id="rect2"
     transform="matrix(0,-1,-1,0,0,0)"
     ry="8"
     rx="8"
     y="-176"
     x="-176"
     height="160"
     width="160"
     style="fill:#3f3f3f;stroke-width:4" />
  <path
     inkscape:connector-curvature="0"
     id="path4"
     d="m 28,32 c -2.216,0 -4,1.784 -4,4 v 112 c 0,2.216 1.784,4 4,4 h 136 c 2.216,0 4,-1.784 4,-4 V 36 c 0,-2.216 -1.784,-4 -4,-4 H 60 Z"
     style="opacity:0.2;stroke-width:4;filter:url(#filter876)" />
  <path
     inkscape:connector-curvature="0"
     id="path6"
     d="m 28,28 c -2.216,0 -4,1.784 -4,4 v 112 c 0,2.216 1.784,4 4,4 H 60 V 28 Z"
     style="fill:#d45736;stroke-width:4" />
  <path
     style="opacity:0.1;fill:#ffffff;stroke-width:4"
     d="M 24 16 C 19.568 16 16 19.568 16 24 L 16 25 C 16 20.568 19.568 17 24 17 L 168 17 C 172.432 17 176 20.568 176 25 L 176 24 C 176 19.568 172.432 16 168 16 L 24 16 z "
     id="path8" />
  <path
     inkscape:connector-curvature="0"
     id="path12"
     d="M 60,28 V 148 H 96 V 28 Z"
     style="fill:#e46b31;stroke-width:4" />
  <path
     inkscape:connector-curvature="0"
     id="path14"
     d="m 96,28 v 120 h 36 V 28 Z"
     style="fill:#ea812a;stroke-width:4" />
  <path
     inkscape:connector-curvature="0"
     id="path16"
     d="m 132,28 v 120 h 32 c 2.216,0 4,-1.784 4,-4 V 32 c 0,-2.216 -1.784,-4 -4,-4 z"
     style="fill:#eb9027;stroke-width:4" />
  <path
     inkscape:connector-curvature="0"
     id="path18"
     d="m 28,88 a 56,56 0 0 0 -4,0.14844 V 144 c 0,2.216 1.784,4 4,4 H 60 83.796876 A 56,56 0 0 0 84,144 56,56 0 0 0 28,88 Z"
     style="fill:#f3c4c4;stroke-width:4" />
  <path
     inkscape:connector-curvature="0"
     id="path20"
     d="m 28,104 a 40,40 0 0 0 -4,0.2422 V 144 c 0,2.216 1.784,4 4,4 h 32 7.796876 A 40,40 0 0 0 68,144 40,40 0 0 0 28,104 Z"
     style="fill:#ffffff;stroke-width:4" />
  <circle
     id="circle22"
     r="8"
     cy="166"
     cx="96"
     style="opacity:0.1;stroke-width:4;filter:url(#filter892)" />
  <circle
     id="circle24"
     r="8"
     cy="164"
     cx="96"
     style="fill:#ffffff;stroke-width:4" />
  <path
     style="opacity:0.2;fill:#ffffff;stroke-width:4"
     d="M 28 28 C 25.784 28 24 29.784 24 32 L 24 33 C 24 30.784 25.784 29 28 29 L 60 29 L 96 29 L 132 29 L 164 29 C 166.216 29 168 30.784 168 33 L 168 32 C 168 29.784 166.216 28 164 28 L 132 28 L 96 28 L 60 28 L 28 28 z "
     id="path26" />
</svg>
