<?xml version="1.0" encoding="UTF-8" standalone="no"?>
<svg
   xmlns:dc="http://purl.org/dc/elements/1.1/"
   xmlns:cc="http://creativecommons.org/ns#"
   xmlns:rdf="http://www.w3.org/1999/02/22-rdf-syntax-ns#"
   xmlns:svg="http://www.w3.org/2000/svg"
   xmlns="http://www.w3.org/2000/svg"
   xmlns:sodipodi="http://sodipodi.sourceforge.net/DTD/sodipodi-0.dtd"
   xmlns:inkscape="http://www.inkscape.org/namespaces/inkscape"
   width="192"
   height="192"
   version="1"
   id="svg28"
   sodipodi:docname="apps_phonograph_music_player.svg"
   inkscape:version="0.92.3 (2405546, 2018-03-11)">
  <metadata
     id="metadata34">
    <rdf:RDF>
      <cc:Work
         rdf:about="">
        <dc:format>image/svg+xml</dc:format>
        <dc:type
           rdf:resource="http://purl.org/dc/dcmitype/StillImage" />
      </cc:Work>
    </rdf:RDF>
  </metadata>
  <defs
     id="defs32">
    <filter
       inkscape:collect="always"
       style="color-interpolation-filters:sRGB"
       id="filter871"
       x="-0.048"
       width="1.096"
       y="-0.048"
       height="1.096">
      <feGaussianBlur
         inkscape:collect="always"
         stdDeviation="3.2"
         id="feGaussianBlur873" />
    </filter>
    <filter
       inkscape:collect="always"
       style="color-interpolation-filters:sRGB"
       id="filter887"
       x="-0.05472047"
       width="1.1094409"
       y="-0.042749713"
       height="1.0854994">
      <feGaussianBlur
         inkscape:collect="always"
         stdDeviation="2.2799894"
         id="feGaussianBlur889" />
    </filter>
    <filter
       inkscape:collect="always"
       style="color-interpolation-filters:sRGB"
       id="filter903"
       x="-0.048"
       width="1.096"
       y="-0.048"
       height="1.096">
      <feGaussianBlur
         inkscape:collect="always"
         stdDeviation="0.96"
         id="feGaussianBlur905" />
    </filter>
  </defs>
  <sodipodi:namedview
     pagecolor="#ffffff"
     bordercolor="#666666"
     borderopacity="1"
     objecttolerance="10"
     gridtolerance="10"
     guidetolerance="10"
     inkscape:pageopacity="0"
     inkscape:pageshadow="2"
     inkscape:window-width="1920"
     inkscape:window-height="1018"
     id="namedview30"
     showgrid="false"
     inkscape:zoom="1"
     inkscape:cx="96"
     inkscape:cy="96"
     inkscape:window-x="0"
     inkscape:window-y="32"
     inkscape:window-maximized="1"
     inkscape:current-layer="svg28" />
  <rect
     style="opacity:0.2;fill:#000000;stroke-width:4;filter:url(#filter871)"
     width="160"
     height="160"
     x="-180"
     y="-176"
     rx="80"
     ry="80"
     transform="matrix(0,-1,-1,0,0,0)"
     id="rect853" />
  <rect
     id="rect2"
     transform="matrix(0,-1,-1,0,0,0)"
     ry="80"
     rx="80"
     y="-176"
     x="-176"
     height="160"
     width="160"
     style="fill:#728b98;stroke-width:4" />
  <path
     style="opacity:0.1;fill:#ffffff;stroke-width:4"
     d="M 96 16 C 51.684 16 16.007812 51.68 16.007812 96 C 16.007812 96.33544 16.009812 96.667215 16.007812 97 C 16.007812 52.68 51.684 17 96 17 C 140.316 17 175.99219 52.68 175.99219 97 C 175.99019 96.667215 175.99219 96.33544 175.99219 96 C 175.99219 51.68 140.316 16 96 16 z "
     id="path4" />
  <path
     inkscape:connector-curvature="0"
     id="path8"
     d="m 96,40 c -7.32948,8.88e-4 -14.561952,1.450848 -21.304688,4.226564 -0.0144,0.0056 -0.0324,0.0021 -0.04688,0.008 -0.0144,0.0056 -0.0248,0.0176 -0.0392,0.0236 -0.05112,0.0212 -0.1052,0.0332 -0.15624,0.05468 -0.0858,0.0356 -0.0928,0.08616 -0.16408,0.125 -1.281568,0.66656 -2.179688,1.979016 -2.179688,3.523436 0,2.20914 1.79086,4 4,4 0.58272,0 1.133488,-0.12752 1.632812,-0.35156 0.0108,-0.0048 0.0208,-0.0108 0.0312,-0.0156 0.04108,-0.0108 0.09412,2.24e-4 0.1328,-0.0156 C 83.641692,49.228824 89.784416,48.0127 96,48 c 26.50967,0 48,21.490332 48,48 -0.0164,6.29929 -1.27283,12.52786 -3.6875,18.32812 -0.073,0.17548 -0.14356,0.34876 -0.21876,0.52344 -0.0116,0.0268 -0.0276,0.0513 -0.0392,0.0781 -0.016,0.0368 0.01,0.0797 0,0.1172 -0.15704,0.42886 -0.27344,0.88394 -0.27344,1.36719 0,2.20914 1.79086,4 4,4 1.57875,0 2.94321,-0.92173 3.59375,-2.25 0.01,-0.02 0.014,-0.0423 0.0236,-0.0625 0.004,-0.008 0.012,-0.008 0.0156,-0.0156 0.10988,-0.25448 0.21428,-0.50967 0.32032,-0.76562 C 150.52795,110.57858 151.98452,103.33502 152,96 152,65.072056 126.92794,40 96,40 Z"
     style="fill:#576a73;stroke-width:4" />
  <path
     inkscape:connector-curvature="0"
     id="path10"
     d="m 96,152 c 7.32948,-8.9e-4 14.56195,-1.45085 21.30469,-4.22656 0.0144,-0.006 0.0324,-0.002 0.0469,-0.008 0.0144,-0.006 0.0248,-0.0176 0.0392,-0.0236 0.0511,-0.0212 0.1052,-0.0332 0.15624,-0.0547 0.0858,-0.0356 0.0928,-0.0862 0.16408,-0.125 1.28157,-0.66656 2.17969,-1.97902 2.17969,-3.52344 0,-2.20914 -1.79086,-4 -4,-4 -0.58272,0 -1.13349,0.12752 -1.63282,0.35156 -0.0108,0.005 -0.0208,0.0108 -0.0312,0.0156 -0.0411,0.0108 -0.0941,-2.2e-4 -0.1328,0.0156 C 108.35831,142.77118 102.21558,143.9873 96,144 69.490332,144 48,122.50967 48,96 c 0.0164,-6.299292 1.272828,-12.527864 3.6875,-18.328124 0.07304,-0.17548 0.14356,-0.34876 0.21876,-0.52344 0.0116,-0.0268 0.0276,-0.05128 0.0392,-0.07812 0.016,-0.0368 -0.01,-0.07968 0,-0.1172 0.15704,-0.428852 0.27344,-0.883936 0.27344,-1.367188 0,-2.20914 -1.790864,-4 -4,-4 -1.578748,0 -2.943212,0.921728 -3.593752,2.25 -0.0096,0.02 -0.014,0.04232 -0.0236,0.06252 -0.0037,0.008 -0.012,0.0076 -0.0156,0.0156 -0.10988,0.25448 -0.21428,0.509668 -0.32032,0.765624 C 41.472048,81.42142 40.01548,88.664976 40,96 c 0,30.92794 25.072056,56 56,56 z"
     style="fill:#576a73;stroke-width:4" />
  <circle
     id="circle12"
     r="24"
     cy="100"
     cx="96"
     style="opacity:0.1;stroke-width:4;filter:url(#filter903)" />
  <circle
     id="circle14"
     r="24"
     cy="96"
     cx="96"
     style="fill:#9fb0b8;stroke-width:4" />
  <circle
     id="circle16"
     r="12"
     cy="96"
     cx="96"
     style="fill:#576a73;stroke-width:4" />
  <path
     inkscape:connector-curvature="0"
     id="path18"
     d="m 44.234376,52 c -0.079,-7.96e-4 -0.15568,8.88e-4 -0.23436,0.008 -0.950068,0.10524 -1.736556,0.759684 -1.984376,1.648436 0,0 -1.851732,16.389788 -3.742186,24.39844 C 32.942253,101.29821 23.476016,123.65252 16.601562,146.25 16.203174,148.14078 16.001579,150.06771 16,152 c 0,15.46397 12.536027,28 28,28 15.463972,0 28,-12.53603 28,-28 -0.0124,-6.89571 -2.568892,-13.54435 -7.179688,-18.67188 8.360964,-2.60581 16.484508,-4.94194 22.953124,-6.35937 8.686292,-1.90337 26.484374,-3.19531 26.484374,-3.19531 1.73799,-0.43729 2.32761,-2.52282 1.0625,-3.75 L 80.617188,86.343752 45.921876,52.656248 C 45.475952,52.226984 44.86508,51.990704 44.234376,52 Z"
     style="opacity:0.2;stroke-width:4;filter:url(#filter887)" />
  <path
     inkscape:connector-curvature="0"
     id="path20"
     d="m 44.234376,48 c -0.079,-7.96e-4 -0.15568,8.88e-4 -0.23436,0.008 -0.950068,0.10524 -1.736556,0.759684 -1.984376,1.648436 0,0 -1.851732,16.389788 -3.742186,24.39844 C 32.942253,97.298212 23.476016,119.65252 16.601562,142.25 16.203174,144.14078 16.001579,146.06771 16,148 c 0,15.46397 12.536027,28 28,28 15.463972,0 28,-12.53603 28,-28 -0.0124,-6.89571 -2.568892,-13.54435 -7.179688,-18.67188 8.360964,-2.60581 8.92052,-9.837 15.389136,-11.25442 8.686292,-1.90338 15.747192,-4.8364 15.747192,-4.8364 1.737992,-0.43728 -5.18894,-0.56197 -6.454052,-1.78916 L 80.617188,82.343752 45.921876,48.656248 C 45.475952,48.226984 44.86508,47.990704 44.234376,48 Z"
     style="fill:#ffc92a;stroke-width:4" />
  <path
     inkscape:connector-curvature="0"
     id="path22"
     d="m 80.984376,82.695312 -50.64844,50.648438 -0.04688,0.10936 A 20,20 0 0 0 23.999998,148 20,20 0 0 0 44,168 20,20 0 0 0 64,148 20,20 0 0 0 56.757812,132.60938 c 2.381284,-1.27993 5.077412,-2.3982 8.078124,-3.25782 -0.0064,-0.007 -0.0092,-0.0164 -0.0156,-0.0236 8.360964,-2.60581 16.484508,-4.94195 22.953124,-6.35937 8.686292,-1.90337 26.48438,-3.19531 26.48438,-3.19531 1.73799,-0.43729 2.32761,-2.52282 1.0625,-3.75 z M 44,136 a 12,12 0 0 1 12,12 12,12 0 0 1 -12,12 12,12 0 0 1 -12,-12 12,12 0 0 1 12,-12 z"
     style="fill:#fd9e00;stroke-width:4" />
  <path
     style="fill:#ffffff;stroke-width:4;opacity:0.2"
     d="M 44.234375 48 C 44.155375 47.999204 44.07868 48.0007 44 48.007812 C 43.049932 48.113053 42.263445 48.767498 42.015625 49.65625 C 42.015625 49.65625 40.163891 66.046036 38.273438 74.054688 C 32.942236 97.298023 23.476017 119.65252 16.601562 142.25 C 16.203174 144.14078 16.001579 146.06771 16 148 C 16 148.17156 16.010599 148.34089 16.013672 148.51172 C 16.045992 146.74344 16.236778 144.9813 16.601562 143.25 C 23.476017 120.65252 32.942236 98.298034 38.273438 75.054688 C 40.163891 67.046035 42.015625 50.65625 42.015625 50.65625 C 42.263445 49.767498 43.049932 49.113053 44 49.007812 C 44.07868 49.000712 44.155375 48.999204 44.234375 49 C 44.865079 48.990704 45.475951 49.226986 45.921875 49.65625 L 80.617188 83.34375 L 80.785156 83.894531 L 80.984375 83.695312 L 115.32031 117.02344 C 115.63987 117.33341 115.83933 117.69902 115.93359 118.07812 C 116.09187 117.37785 115.91979 116.60494 115.32031 116.02344 L 80.984375 82.695312 L 80.785156 82.894531 L 80.617188 82.34375 L 45.921875 48.65625 C 45.475951 48.226986 44.865079 47.990704 44.234375 48 z M 65.5 130.12109 C 65.271406 130.19204 65.049292 130.25676 64.820312 130.32812 C 69.315843 135.32747 71.85247 141.77387 71.988281 148.48438 C 71.991035 148.32265 72 148.16239 72 148 C 71.988228 141.45335 69.678755 135.13217 65.5 130.12109 z "
     id="path910" />
</svg>
