<?xml version="1.0" encoding="UTF-8" standalone="no"?>
<svg
   xmlns:dc="http://purl.org/dc/elements/1.1/"
   xmlns:cc="http://creativecommons.org/ns#"
   xmlns:rdf="http://www.w3.org/1999/02/22-rdf-syntax-ns#"
   xmlns:svg="http://www.w3.org/2000/svg"
   xmlns="http://www.w3.org/2000/svg"
   xmlns:sodipodi="http://sodipodi.sourceforge.net/DTD/sodipodi-0.dtd"
   xmlns:inkscape="http://www.inkscape.org/namespaces/inkscape"
   width="192"
   height="192"
   version="1"
   id="svg37"
   sodipodi:docname="apps_puffin_web_browser_pro.svg"
   inkscape:version="0.92.3 (2405546, 2018-03-11)">
  <metadata
     id="metadata43">
    <rdf:RDF>
      <cc:Work
         rdf:about="">
        <dc:format>image/svg+xml</dc:format>
        <dc:type
           rdf:resource="http://purl.org/dc/dcmitype/StillImage" />
        <dc:title></dc:title>
      </cc:Work>
    </rdf:RDF>
  </metadata>
  <defs
     id="defs41">
    <filter
       inkscape:collect="always"
       style="color-interpolation-filters:sRGB"
       id="filter886"
       x="-0.048"
       width="1.096"
       y="-0.048"
       height="1.096">
      <feGaussianBlur
         inkscape:collect="always"
         stdDeviation="3.2"
         id="feGaussianBlur888" />
    </filter>
    <filter
       inkscape:collect="always"
       style="color-interpolation-filters:sRGB"
       id="filter906"
       x="-0.036495944"
       width="1.0729919"
       y="-0.070094958"
       height="1.1401899">
      <feGaussianBlur
         inkscape:collect="always"
         stdDeviation="1.6424995"
         id="feGaussianBlur908" />
    </filter>
    <filter
       inkscape:collect="always"
       style="color-interpolation-filters:sRGB"
       id="filter922"
       x="-0.040909087"
       width="1.0818182"
       y="-0.03214286"
       height="1.0642857">
      <feGaussianBlur
         inkscape:collect="always"
         stdDeviation="0.74999993"
         id="feGaussianBlur924" />
    </filter>
    <filter
       inkscape:collect="always"
       style="color-interpolation-filters:sRGB"
       id="filter938"
       x="-0.056554021"
       width="1.113108"
       y="-0.041693667"
       height="1.0833873">
      <feGaussianBlur
         inkscape:collect="always"
         stdDeviation="1.1326779"
         id="feGaussianBlur940" />
    </filter>
    <filter
       inkscape:collect="always"
       style="color-interpolation-filters:sRGB"
       id="filter966"
       x="-0.093002511"
       width="1.186005"
       y="-0.074414913"
       height="1.1488298">
      <feGaussianBlur
         inkscape:collect="always"
         stdDeviation="0.62089907"
         id="feGaussianBlur968" />
    </filter>
    <filter
       inkscape:collect="always"
       style="color-interpolation-filters:sRGB"
       id="filter970"
       x="-0.039237801"
       width="1.0784756"
       y="-0.079499472"
       height="1.1589989">
      <feGaussianBlur
         inkscape:collect="always"
         stdDeviation="0.62045653"
         id="feGaussianBlur972" />
    </filter>
  </defs>
  <sodipodi:namedview
     pagecolor="#ffffff"
     bordercolor="#666666"
     borderopacity="1"
     objecttolerance="10"
     gridtolerance="10"
     guidetolerance="10"
     inkscape:pageopacity="0"
     inkscape:pageshadow="2"
     inkscape:window-width="1920"
     inkscape:window-height="1018"
     id="namedview39"
     showgrid="false"
     inkscape:zoom="1"
     inkscape:cx="-120"
     inkscape:cy="84.636364"
     inkscape:window-x="0"
     inkscape:window-y="32"
     inkscape:window-maximized="1"
     inkscape:current-layer="svg37" />
  <rect
     style="opacity:0.2;fill:#000000;stroke-width:4;filter:url(#filter886)"
     width="160"
     height="160"
     x="-180"
     y="-176"
     rx="8"
     ry="8"
     transform="matrix(0,-1,-1,0,0,0)"
     id="rect868" />
  <rect
     id="rect2"
     transform="matrix(0,-1,-1,0,0,0)"
     ry="8"
     rx="8"
     y="-176"
     x="-176"
     height="160"
     width="160"
     style="fill:#1990c3;fill-opacity:1;stroke-width:4" />
  <path
     inkscape:connector-curvature="0"
     id="path4"
     d="m 118.60156,129.47656 c 0,0 -16.28253,13.01439 -34.703124,14.52344 C 71.374784,145.02596 31.500616,129.07688 16,123.76202 V 172 c 0,4.432 3.568,8 8,8 H 91.906248 C 109.2274,175.00568 123.95152,164.26273 124,146 c 0.30716,-11.37621 -5.39844,-16.52344 -5.39844,-16.52344 z"
     style="opacity:0.2;stroke-width:4;filter:url(#filter906)" />
  <path
     inkscape:connector-curvature="0"
     id="path6"
     d="m 118.60156,125.47656 c 0,0 -16.28253,13.01439 -34.703124,14.52344 C 71.374784,141.02596 31.500616,125.07688 16,119.76202 V 168 c 0,4.432 3.568,8 8,8 H 91.906248 C 109.2274,171.00568 123.95152,160.26273 124,142 c 0.30716,-11.37621 -5.39844,-16.52344 -5.39844,-16.52344 z"
     style="fill:#ffffff;stroke-width:4" />
  <path
     inkscape:connector-curvature="0"
     id="path8"
     d="M 131.72866,97.71949 132,64.799578 c 23.50145,18.377988 28.7513,35.225722 28,65.200002 l -48,-8 z"
     style="opacity:0.2;stroke-width:4;filter:url(#filter938)" />
  <path
     inkscape:connector-curvature="0"
     id="path10"
     d="M 131.72866,95.719912 132,62.8 c 23.50145,18.377988 28.7513,35.225724 28,65.2 l -48,-8 z"
     style="fill:#dc3042;stroke-width:4" />
  <path
     inkscape:connector-curvature="0"
     id="path12"
     d="m 144,116 -28,4 20,-44 z"
     style="fill:#1f2930;stroke-width:4" />
  <path
     inkscape:connector-curvature="0"
     id="path14"
     d="M 128.89844,105.01562 160,128 112,120 Z"
     style="opacity:0.1;fill:#ffffff;stroke-width:4" />
  <path
     inkscape:connector-curvature="0"
     style="opacity:0.2;fill:#ffffff;stroke-width:4"
     d="m 24,16 c -4.432,0 -8,3.568 -8,8 v 1 c 0,-4.432 3.568,-8 8,-8 h 144 c 4.432,0 8,3.568 8,8 v -1 c 0,-4.432 -3.568,-8 -8,-8 z"
     id="path16" />
  <path
     inkscape:connector-curvature="0"
     id="path20"
     d="M 88,32 A 48,48 0 0 0 40.710936,72.070312 C 40.460184,72.291424 32.034062,79.694612 26.726562,80 23.613608,80.179116 19.3073,78.153124 16,76.296876 v 43.468744 c 15.500616,5.31486 55.374784,21.26034 67.898436,20.23438 18.420594,-1.50905 34.703124,-14.52344 34.703124,-14.52344 0,0 1.132,1.08393 2.35938,3.21875 -2.15947,-5.18661 -4.38938,-8.16516 -5.41406,-9.46093 A 48,48 0 0 0 136,80 48,48 0 0 0 88,32 Z m 35.97656,110.39062 c -0.004,0.27624 -0.0284,0.53973 -0.0392,0.8125 0.018,-0.1324 0.0459,-0.25744 0.0625,-0.39064 -0.002,-0.14292 -0.02,-0.27968 -0.0236,-0.42187 z"
     style="fill:#293d46;stroke-width:4" />
  <path
     inkscape:connector-curvature="0"
     id="path22"
     d="m 20,119.59014 c -1.336598,0.0104 -2.671607,0.0678 -4,0.17188 v 51.82812 c 0,1.42636 0.397892,2.74119 1.046875,3.89843 0.982251,0.0593 1.967298,0.0932 2.953125,0.10156 22.091388,0 40,-16 40,-28 0,-12 -17.908612,-28 -40,-27.99999 z"
     style="opacity:0.1;stroke-width:4;filter:url(#filter922)" />
  <path
     inkscape:connector-curvature="0"
     id="path24"
     d="m 20,116 c -1.336598,0.0104 -2.671607,0.0678 -4,0.17188 V 168 c 0,1.42636 0.397892,2.74119 1.046875,3.89844 0.982251,0.0593 1.967298,0.0932 2.953125,0.10156 22.091388,0 40,-16 40,-28 0,-12 -17.908612,-28 -40,-28 z"
     style="fill:#1f2930;stroke-width:4" />
  <path
     inkscape:connector-curvature="0"
     id="path26"
     d="m 81.953124,38.984375 c -8.06936,0.0857 -16.280276,1.365637 -23.773436,3.406249 a 48,48 0 0 0 -9.156252,9.664064 c 3.165628,20.769192 6.71658,39.628616 26.070316,53.429692 13.942648,8.1507 26.307798,10.32269 41.890628,11.53906 0.36452,0.15504 0.61884,0.32588 0.96093,0.48437 a 48,48 0 0 0 10.95313,-12.49219 C 133.69384,86.041608 130.9527,57.240888 110.21094,45.265624 102.28101,40.68728 92.24264,38.8751 81.953124,38.984375 Z"
     style="fill:#ffffff;stroke-width:4" />
  <path
     inkscape:connector-curvature="0"
     id="path28"
     d="m 96.999996,47.269381 a 24.291029,17.251386 10.368872 0 1 -0.35156,4.039064 24.291029,17.251386 10.368872 0 1 -28.125,11.382812 A 24.291029,17.251386 10.368872 0 1 60,59.488133 22.178765,15.751266 10.368871 0 0 71.898436,65.245945 22.178765,15.751266 10.368871 0 0 97.578124,54.847509 22.178765,15.751266 10.368871 0 0 96.999996,47.269381 Z"
     style="opacity:0.1;stroke-width:4;filter:url(#filter970)" />
  <ellipse
     transform="matrix(0.97220259,-0.23414124,0.28569013,0.95832205,0,0)"
     ry="10.264"
     rx="7.6560001"
     cy="90.589088"
     cx="80.352119"
     style="opacity:0.1;stroke-width:4;filter:url(#filter966)"
     id="ellipse30" />
  <ellipse
     transform="matrix(0.97220259,-0.23414124,0.28569013,0.95832205,0,0)"
     ry="10.264"
     rx="7.6560001"
     cy="88.643997"
     cx="80.924004"
     style="fill:#dc3042;stroke-width:4"
     id="ellipse32" />
  <ellipse
     transform="matrix(0.96068495,-0.27764082,0.24110052,0.97050015,0,0)"
     ry="6.0840001"
     rx="3.872"
     cy="92.344002"
     cx="85.080002"
     style="fill:#1f2930;stroke-width:4"
     id="ellipse34" />
  <path
     inkscape:connector-curvature="0"
     id="path33"
     d="m 96.999996,45.269112 a 24.291029,17.251386 10.368872 0 1 -0.35156,4.039064 24.291029,17.251386 10.368872 0 1 -28.125,11.382812 A 24.291029,17.251386 10.368872 0 1 60,57.487864 22.178765,15.751266 10.368871 0 0 71.898436,63.245676 22.178765,15.751266 10.368871 0 0 97.578124,52.84724 22.178765,15.751266 10.368871 0 0 96.999996,45.269112 Z"
     style="fill:#1f2930;stroke-width:4" />
</svg>
