<?xml version="1.0" encoding="UTF-8" standalone="no"?>
<svg
   xmlns:dc="http://purl.org/dc/elements/1.1/"
   xmlns:cc="http://creativecommons.org/ns#"
   xmlns:rdf="http://www.w3.org/1999/02/22-rdf-syntax-ns#"
   xmlns:svg="http://www.w3.org/2000/svg"
   xmlns="http://www.w3.org/2000/svg"
   xmlns:sodipodi="http://sodipodi.sourceforge.net/DTD/sodipodi-0.dtd"
   xmlns:inkscape="http://www.inkscape.org/namespaces/inkscape"
   width="192"
   height="192"
   version="1"
   id="svg14"
   sodipodi:docname="apps_afwall_plus.svg"
   inkscape:version="0.92.3 (2405546, 2018-03-11)">
  <metadata
     id="metadata20">
    <rdf:RDF>
      <cc:Work
         rdf:about="">
        <dc:format>image/svg+xml</dc:format>
        <dc:type
           rdf:resource="http://purl.org/dc/dcmitype/StillImage" />
      </cc:Work>
    </rdf:RDF>
  </metadata>
  <defs
     id="defs18">
    <filter
       inkscape:collect="always"
       style="color-interpolation-filters:sRGB"
       id="filter854"
       x="-0.039988896"
       width="1.0799778"
       y="-0.060025002"
       height="1.12005">
      <feGaussianBlur
         inkscape:collect="always"
         stdDeviation="1.4025212"
         id="feGaussianBlur856" />
    </filter>
    <filter
       inkscape:collect="always"
       style="color-interpolation-filters:sRGB"
       id="filter874"
       x="-0.052075368"
       width="1.1041507"
       y="-0.044516205"
       height="1.0890324">
      <feGaussianBlur
         inkscape:collect="always"
         stdDeviation="2.9509375"
         id="feGaussianBlur876" />
    </filter>
  </defs>
  <sodipodi:namedview
     pagecolor="#ffffff"
     bordercolor="#666666"
     borderopacity="1"
     objecttolerance="10"
     gridtolerance="10"
     guidetolerance="10"
     inkscape:pageopacity="0"
     inkscape:pageshadow="2"
     inkscape:window-width="1920"
     inkscape:window-height="1018"
     id="namedview16"
     showgrid="false"
     inkscape:zoom="1"
     inkscape:cx="39.896055"
     inkscape:cy="71.64688"
     inkscape:window-x="0"
     inkscape:window-y="32"
     inkscape:window-maximized="1"
     inkscape:current-layer="svg14">
    <inkscape:grid
       type="xygrid"
       id="grid832" />
  </sodipodi:namedview>
  <path
     inkscape:connector-curvature="0"
     id="path2"
     d="M 74.796876,20.90625 C 48.692784,23.04506 34.796875,28.421875 34.796875,28.421875 31.061454,28.935865 28,32.178487 28,36.84375 V 133.6875 C 28,146.31908 88,180 96,180 c 8,0 68,-33.68092 68,-46.3125 V 36.84375 c 0,-4.665263 -3.06146,-7.907885 -6.79688,-8.421875 0,0 -13.8959,-5.376815 -40,-7.515625 l -6.9375,12.234375 -8.92187,15.718751 a 6.1758308,6.2866508 0 0 1 -10.687502,0 L 81.734376,33.140625 Z"
     style="opacity:0.2;stroke-width:4;filter:url(#filter874)" />
  <path
     inkscape:connector-curvature="0"
     id="path4"
     d="M 74.796876,16.90625 C 48.692784,19.04506 34.796875,24.421875 34.796875,24.421875 31.061454,24.935865 28,28.178487 28,32.84375 V 129.6875 C 28,142.31908 88,176 96,176 c 8,0 68,-33.68092 68,-46.3125 V 32.84375 c 0,-4.665263 -3.06146,-7.907885 -6.79688,-8.421875 0,0 -13.8959,-5.376815 -40,-7.515625 l -6.9375,12.234375 -8.92187,15.718751 a 6.1758308,6.2866508 0 0 1 -10.687502,0 L 81.734376,29.140625 Z"
     style="fill:#0f9d58;stroke-width:4" />
  <path
     style="color:#000000;font-style:normal;font-variant:normal;font-weight:normal;font-stretch:normal;font-size:medium;line-height:normal;font-family:sans-serif;font-variant-ligatures:normal;font-variant-position:normal;font-variant-caps:normal;font-variant-numeric:normal;font-variant-alternates:normal;font-feature-settings:normal;text-indent:0;text-align:start;text-decoration:none;text-decoration-line:none;text-decoration-style:solid;text-decoration-color:#000000;letter-spacing:normal;word-spacing:normal;text-transform:none;writing-mode:lr-tb;direction:ltr;text-orientation:mixed;dominant-baseline:auto;baseline-shift:baseline;text-anchor:start;white-space:normal;shape-padding:0;clip-rule:nonzero;display:inline;overflow:visible;visibility:visible;opacity:0.2;isolation:auto;mix-blend-mode:normal;color-interpolation:sRGB;color-interpolation-filters:linearRGB;solid-color:#000000;solid-opacity:1;vector-effect:none;fill:#000000;fill-opacity:1;fill-rule:nonzero;stroke:none;stroke-width:16;stroke-linecap:round;stroke-linejoin:round;stroke-miterlimit:4;stroke-dasharray:none;stroke-dashoffset:0;stroke-opacity:1;color-rendering:auto;image-rendering:auto;shape-rendering:auto;text-rendering:auto;enable-background:accumulate;filter:url(#filter854)"
     d="m 136.22852,67.923819 a 8.0008,8.0008 0 0 0 -5.60938,2.15625 L 92.263672,104.94921 73.658203,86.343741 a 8.0008,8.0008 0 1 0 -11.314453,11.3125 l 24,23.999999 a 8.0008,8.0008 0 0 0 11.039062,0.26367 L 141.38281,81.919913 a 8.0008,8.0008 0 0 0 -5.15429,-13.996094 z"
     id="path6"
     inkscape:connector-curvature="0" />
  <path
     inkscape:connector-curvature="0"
     id="path8"
     d="m 68.0008,88.000304 24,23.999996 44,-39.999996"
     style="fill:none;stroke:#fdfdfd;stroke-width:16;stroke-linecap:round;stroke-linejoin:round" />
  <path
     style="opacity:0.2;fill:#ffffff;stroke-width:4"
     d="M 74.796875 16.90625 C 48.692783 19.04506 34.796875 24.421875 34.796875 24.421875 C 31.061454 24.935865 28 28.178487 28 32.84375 L 28 33.84375 C 28 29.178487 31.061454 25.935865 34.796875 25.421875 C 34.796875 25.421875 48.692783 20.04506 74.796875 17.90625 L 81.734375 30.140625 L 90.65625 45.859375 A 6.1758308 6.2866508 0 0 0 101.34375 45.859375 L 110.26562 30.140625 L 117.20312 17.90625 C 143.30722 20.04506 157.20312 25.421875 157.20312 25.421875 C 160.93854 25.935865 164 29.178487 164 33.84375 L 164 32.84375 C 164 28.178487 160.93854 24.935865 157.20312 24.421875 C 157.20312 24.421875 143.30722 19.04506 117.20312 16.90625 L 110.26562 29.140625 L 101.34375 44.859375 A 6.1758308 6.2866508 0 0 1 90.65625 44.859375 L 81.734375 29.140625 L 74.796875 16.90625 z "
     id="path10" />
</svg>
