<?xml version="1.0" encoding="UTF-8" standalone="no"?>
<svg
   xmlns:dc="http://purl.org/dc/elements/1.1/"
   xmlns:cc="http://creativecommons.org/ns#"
   xmlns:rdf="http://www.w3.org/1999/02/22-rdf-syntax-ns#"
   xmlns:svg="http://www.w3.org/2000/svg"
   xmlns="http://www.w3.org/2000/svg"
   xmlns:sodipodi="http://sodipodi.sourceforge.net/DTD/sodipodi-0.dtd"
   xmlns:inkscape="http://www.inkscape.org/namespaces/inkscape"
   width="192"
   height="192"
   version="1"
   id="svg24"
   sodipodi:docname="apps_mediainfo.svg"
   inkscape:version="0.92.3 (2405546, 2018-03-11)">
  <metadata
     id="metadata30">
    <rdf:RDF>
      <cc:Work
         rdf:about="">
        <dc:format>image/svg+xml</dc:format>
        <dc:type
           rdf:resource="http://purl.org/dc/dcmitype/StillImage" />
        <dc:title></dc:title>
      </cc:Work>
    </rdf:RDF>
  </metadata>
  <defs
     id="defs28">
    <filter
       inkscape:collect="always"
       style="color-interpolation-filters:sRGB"
       id="filter880"
       x="-0.048"
       width="1.096"
       y="-0.048"
       height="1.096">
      <feGaussianBlur
         inkscape:collect="always"
         stdDeviation="3.2"
         id="feGaussianBlur882" />
    </filter>
    <filter
       inkscape:collect="always"
       style="color-interpolation-filters:sRGB"
       id="filter896"
       x="-0.058285714"
       width="1.1165714"
       y="-0.0408"
       height="1.0816">
      <feGaussianBlur
         inkscape:collect="always"
         stdDeviation="2.72"
         id="feGaussianBlur898" />
    </filter>
  </defs>
  <sodipodi:namedview
     pagecolor="#ffffff"
     bordercolor="#666666"
     borderopacity="1"
     objecttolerance="10"
     gridtolerance="10"
     guidetolerance="10"
     inkscape:pageopacity="0"
     inkscape:pageshadow="2"
     inkscape:window-width="1920"
     inkscape:window-height="1018"
     id="namedview26"
     showgrid="false"
     inkscape:zoom="1"
     inkscape:cx="24"
     inkscape:cy="100.04563"
     inkscape:window-x="0"
     inkscape:window-y="32"
     inkscape:window-maximized="1"
     inkscape:current-layer="svg24" />
  <path
     inkscape:connector-curvature="0"
     style="opacity:0.2;stroke-width:4;filter:url(#filter880)"
     d="m 24,20 c -4.432,0 -8,3.568 -8,8 v 72 72 c 0,4.432 3.568,8 8,8 H 96 A 80,80 0 0 0 176,100 80,80 0 0 0 96,20 Z"
     id="path2" />
  <path
     inkscape:connector-curvature="0"
     style="fill:#e4e4e4;stroke-width:4"
     d="m 51.6,16 v 160 h 43.2 c 25.2,0 76,-35.81722 76,-80 0,-44.18278 -50.8,-80 -76,-80 z"
     id="path4" />
  <path
     inkscape:connector-curvature="0"
     style="fill:#e8494e;stroke-width:4"
     d="m 24,16 c -4.432,0 -8,3.568 -8,8 v 72 72 c 0,4.432 3.568,8 8,8 h 4 V 16 Z"
     id="path6" />
  <rect
     style="fill:#38af29;stroke-width:4"
     width="12"
     height="160"
     x="28"
     y="16"
     id="rect8" />
  <rect
     style="fill:#1f72c7;stroke-width:4"
     width="12"
     height="160"
     x="40"
     y="16"
     id="rect10" />
  <path
     inkscape:connector-curvature="0"
     style="opacity:0.1;stroke-width:4;filter:url(#filter896)"
     d="M 96,20 A 80,80 0 0 0 88.3125,20.445312 80,80 0 0 1 160,100 80,80 0 0 1 87.6875,179.55469 80,80 0 0 0 96,180 80,80 0 0 0 176,100 80,80 0 0 0 96,20 Z m 0,32 A 48,48 0 0 0 87.843752,52.695312 48,48 0 0 1 128,100 48,48 0 0 1 88.164064,147.30469 48,48 0 0 0 96,148 48,48 0 0 0 144,100 48,48 0 0 0 96,52 Z m -8,24 a 24,24 0 0 0 -24,24 24,24 0 0 0 24,24 24,24 0 0 0 24,-24 24,24 0 0 0 -24,-24 z"
     id="path12" />
  <path
     inkscape:connector-curvature="0"
     style="fill:#4f4f4f;stroke-width:4"
     d="M 96,16 A 80,80 0 0 0 88.3125,16.445312 80,80 0 0 1 160,96 80,80 0 0 1 87.6875,175.55469 80,80 0 0 0 96,176 80,80 0 0 0 176,96 80,80 0 0 0 96,16 Z"
     id="path14" />
  <path
     inkscape:connector-curvature="0"
     style="fill:#4f4f4f;stroke-width:4"
     d="M 96,48 A 48,48 0 0 0 87.843752,48.695312 48,48 0 0 1 128,96 48,48 0 0 1 88.164064,143.30469 48,48 0 0 0 96,144 48,48 0 0 0 144,96 48,48 0 0 0 96,48 Z"
     id="path16" />
  <circle
     style="fill:#4f4f4f;stroke-width:4"
     cx="88"
     cy="96"
     r="24"
     id="circle18" />
  <path
     inkscape:connector-curvature="0"
     style="fill:#ffffff;stroke-width:4"
     d="m 82.451744,108.39612 c 0,-0.66425 0.09536,-1.22545 0.28608,-1.68514 0.19072,-0.4582 0.455116,-0.82877 0.794904,-1.11166 0.33824,-0.28288 0.738012,-0.4874 1.197736,-0.61502 0.458192,-0.12608 0.948672,-0.19072 1.47144,-0.19072 0.495092,0 0.965604,0.0646 1.409968,0.19072 0.44434,0.12772 0.836416,0.33212 1.176204,0.61502 0.33828,0.28288 0.605812,0.65346 0.804152,1.11166 0.1984,0.45969 0.29668,1.02089 0.29668,1.68514 0,0.63654 -0.09828,1.18084 -0.29668,1.63289 -0.1984,0.45051 -0.465868,0.82719 -0.804152,1.12394 -0.33976,0.29536 -0.731864,0.51048 -1.176204,0.64579 -0.444364,0.13376 -0.914876,0.20128 -1.409968,0.20128 -0.522768,0 -1.013248,-0.0675 -1.47144,-0.20128 -0.459724,-0.1354 -0.859484,-0.35056 -1.197736,-0.64579 -0.3398,-0.29664 -0.604276,-0.67343 -0.794904,-1.12394 -0.1888,-0.45122 -0.2848,-0.99524 -0.2848,-1.63206 m 0.699608,-8.39693 v -0.417768 c 0,-0.721112 0.07388,-1.374576 0.22272,-1.960388 0.14756,-0.587316 0.37364,-1.143912 0.678072,-1.674396 0.30304,-0.528912 0.694968,-1.045504 1.174696,-1.546768 0.481232,-0.501268 1.0609,-1.020964 1.738968,-1.557556 0.593496,-0.465872 1.094756,-0.882564 1.503732,-1.251564 0.410512,-0.36592 0.741084,-0.730364 0.996356,-1.091656 0.25376,-0.35976 0.438188,-0.736504 0.55042,-1.131652 0.11392,-0.39668 0.17088,-0.856448 0.17088,-1.377648 0,-0.805692 -0.2736,-1.471444 -0.816476,-1.992676 -0.544308,-0.522772 -1.374572,-0.784156 -2.490804,-0.784156 -0.973312,0 -2.023428,0.20448 -3.1474,0.613496 -1.120872,0.410508 -2.284816,0.91174 -3.48556,1.505268 L 78.088,82.649196 c 0.605816,-0.35364 1.266956,-0.688828 1.980356,-1.00554 0.715,-0.31844 1.456084,-0.601204 2.224876,-0.848732 0.770296,-0.24608 1.551376,-0.441296 2.34168,-0.58274 0.791864,-0.14144 1.568308,-0.2122 2.332492,-0.2122 1.440692,0 2.739936,0.1738 3.897732,0.519696 1.159336,0.34592 2.141832,0.850236 2.945956,1.514484 0.807228,0.664216 1.423792,1.471444 1.854304,2.417044 0.432044,0.947136 0.647316,2.0265 0.647316,3.241068 0,0.890236 -0.1002,1.68518 -0.29664,2.384752 -0.1968,0.699608 -0.492016,1.349968 -0.877948,1.949604 -0.39056,0.601204 -0.877948,1.18084 -1.46376,1.737468 -0.585812,0.558132 -1.268492,1.148552 -2.044968,1.769724 -0.593492,0.465872 -1.077796,0.873308 -1.452976,1.219272 -0.37364,0.34596 -0.667316,0.675 -0.877948,0.984032 -0.2122,0.31204 -0.35672,0.633496 -0.43512,0.9656 -0.07712,0.3306 -0.1168,0.722652 -0.1168,1.1747 v 0.12256 h -5.593788 z"
     id="path20" />
  <path
     style="opacity:0.1;fill:#ffffff;stroke-width:4"
     d="M 24 16 C 19.568 16 16 19.568 16 24 L 16 25 C 16 20.568 19.568 17 24 17 L 96 17 A 80 80 0 0 1 175.97852 96.576172 A 80 80 0 0 0 176 96 A 80 80 0 0 0 96 16 L 24 16 z "
     id="path22" />
</svg>
