<?xml version="1.0" encoding="UTF-8" standalone="no"?>
<svg
   xmlns:dc="http://purl.org/dc/elements/1.1/"
   xmlns:cc="http://creativecommons.org/ns#"
   xmlns:rdf="http://www.w3.org/1999/02/22-rdf-syntax-ns#"
   xmlns:svg="http://www.w3.org/2000/svg"
   xmlns="http://www.w3.org/2000/svg"
   xmlns:sodipodi="http://sodipodi.sourceforge.net/DTD/sodipodi-0.dtd"
   xmlns:inkscape="http://www.inkscape.org/namespaces/inkscape"
   width="192"
   height="192"
   version="1"
   id="svg18"
   sodipodi:docname="apps_inbrowser.svg"
   inkscape:version="0.92.3 (2405546, 2018-03-11)">
  <metadata
     id="metadata24">
    <rdf:RDF>
      <cc:Work
         rdf:about="">
        <dc:format>image/svg+xml</dc:format>
        <dc:type
           rdf:resource="http://purl.org/dc/dcmitype/StillImage" />
      </cc:Work>
    </rdf:RDF>
  </metadata>
  <defs
     id="defs22">
    <filter
       inkscape:collect="always"
       style="color-interpolation-filters:sRGB"
       id="filter859"
       x="-0.048"
       width="1.096"
       y="-0.048"
       height="1.096">
      <feGaussianBlur
         inkscape:collect="always"
         stdDeviation="3.2"
         id="feGaussianBlur861" />
    </filter>
    <filter
       inkscape:collect="always"
       style="color-interpolation-filters:sRGB"
       id="filter878"
       x="-0.046000079"
       width="1.0920002"
       y="-0.050181724"
       height="1.1003634">
      <feGaussianBlur
         inkscape:collect="always"
         stdDeviation="2.7600047"
         id="feGaussianBlur880" />
    </filter>
    <filter
       inkscape:collect="always"
       style="color-interpolation-filters:sRGB"
       id="filter898"
       x="-0.053132813"
       width="1.1062656"
       y="-0.04377152"
       height="1.087543">
      <feGaussianBlur
         inkscape:collect="always"
         stdDeviation="1.5939844"
         id="feGaussianBlur900" />
    </filter>
  </defs>
  <sodipodi:namedview
     pagecolor="#ffffff"
     bordercolor="#666666"
     borderopacity="1"
     objecttolerance="10"
     gridtolerance="10"
     guidetolerance="10"
     inkscape:pageopacity="0"
     inkscape:pageshadow="2"
     inkscape:window-width="1920"
     inkscape:window-height="1018"
     id="namedview20"
     showgrid="false"
     inkscape:zoom="1"
     inkscape:cx="96"
     inkscape:cy="96"
     inkscape:window-x="0"
     inkscape:window-y="32"
     inkscape:window-maximized="1"
     inkscape:current-layer="svg18" />
  <rect
     style="opacity:0.2;fill:#000000;stroke-width:4;filter:url(#filter859)"
     width="160"
     height="160"
     x="-180"
     y="-176"
     rx="8"
     ry="8"
     transform="matrix(0,-1,-1,0,0,0)"
     id="rect841" />
  <rect
     id="rect2"
     transform="matrix(0,-1,-1,0,0,0)"
     ry="8"
     rx="8"
     y="-176"
     x="-176"
     height="160"
     width="160"
     style="fill:#3d5074;stroke-width:4" />
  <path
     style="opacity:0.1;fill:#ffffff;stroke-width:4"
     d="M 24 16 C 19.568 16 16 19.568 16 24 L 16 25 C 16 20.568 19.568 17 24 17 L 168 17 C 172.432 17 176 20.568 176 25 L 176 24 C 176 19.568 172.432 16 168 16 L 24 16 z "
     id="path4" />
  <path
     inkscape:connector-curvature="0"
     id="path8"
     d="m 108.64062,44.007812 c -4.00064,0.08236 -3.95869,-0.35232 -4.57031,3.015624 -0.58584,3.225996 -1.57356,5.101564 -2.6875,5.101564 -0.40737,0 -2.115594,-1.169968 -3.796874,-2.593752 -5.59066,-4.734408 -11.857036,-6.024888 -19.984372,-5 C 75.192156,44.835088 72.784476,45.315796 72.25,45.601564 68.072844,56.593388 66.203276,64.92178 64,76 c -7.382604,2.665364 -15.428224,5.386168 -21.726564,9.585936 -1.526644,1.359528 -2.382811,2.818824 -2.382811,4.21094 0,2.356752 1.737847,6.507396 6.640623,9.703124 5.13268,3.34558 6.064924,4.41396 5.882816,4.59375 -0.08608,0.085 -2.36724,0.52613 -5.070312,0.98437 -9.300865,1.57674 -18.535956,1.92035 -19.343752,4.02344 -0.218672,0.56932 4.552318,5.03547 11.929688,14.86719 C 44.1421,130.0655 52.7421,138.76125 56,144 c -3.85022,-2.69922 -7.845,-5.42036 -12,-8 -1.096864,0 -10.365541,5.94382 -13.796875,9.32812 -4.704027,4.47468 -5.515059,9.63654 -6.203125,16.03126 1.3e-5,4.78025 4e-6,9.70779 0,14.64062 h 142.91406 c -2.33603,-12.29385 -9.56066,-23.81349 -16.21875,-32.15625 L 148,140 157.73438,124.73438 C 163.37989,116.42157 168,109.24517 168,108.78125 c 0,-0.96847 -3.35073,-2.45479 -8.35156,-3.70313 -1.757,-0.43859 -3.27756,-0.87037 -3.375,-0.96093 -0.0974,-0.0906 2.61898,-1.44765 3.83594,-3.01563 3.02815,-3.901588 3.79386,-5.596492 3.78124,-8.35156 -0.0308,-6.707448 -8.48704,-13.449564 -21.21093,-18.132812 -2.96853,-1.092616 -5.72735,-2.174432 -6.13281,-2.398436 -0.52803,-0.29172 -0.83882,-1.711708 -1.10157,-5.015628 -0.75183,-9.453836 -2.70787,-14.618428 -6.35156,-18.585936 -3.5053,-3.816824 -5.1626,-4.325872 -14.92969,-4.539064 -2.40538,-0.05252 -4.18989,-0.09776 -5.52344,-0.07032 z"
     style="opacity:0.2;stroke-width:4;filter:url(#filter878)" />
  <path
     inkscape:connector-curvature="0"
     id="path10"
     d="m 108.63993,40.008008 c -4.00064,0.08236 -3.96037,-0.35392 -4.57199,3.014028 -0.58584,3.225996 -1.57378,5.099928 -2.68771,5.099928 -0.40737,0 -2.116074,-1.16454 -3.797354,-2.588324 -5.59066,-4.734408 -11.852936,-6.03013 -19.980272,-5.005236 -2.409408,0.30384 -4.818872,0.785424 -5.353348,1.071192 C 68.0721,52.59142 66.203276,60.92178 64,72 c -7.382604,2.665364 -15.42914,5.382724 -21.72748,9.582492 -1.526644,1.359528 -2.38504,2.818628 -2.38504,4.210744 0,2.356752 1.742376,6.510232 6.645156,9.70596 5.132676,3.34558 6.066284,4.411128 5.884176,4.590924 -0.08608,0.085 -2.369032,0.52952 -5.072104,0.98776 -9.300863,1.57674 -18.536912,1.91968 -19.344708,4.02277 -0.218672,0.56932 4.555011,5.0346 11.932381,14.86632 C 44.144792,126.06371 52.7421,134.76125 56,140 c -3.85022,-2.69922 -7.845,-5.42036 -12,-8 -1.096864,0 -10.361968,5.9452 -13.793302,9.32951 -4.704026,4.47468 -5.518632,9.6339 -6.206698,16.02861 1.7e-5,6.08629 0,12.32276 0,18.64188 h 143.54118 c -1.33639,-13.77643 -9.46576,-26.91098 -16.84237,-36.15406 L 148,136 157.73582,120.738 C 163.38134,112.42519 168,105.24427 168,104.78035 c 0,-0.96848 -3.35411,-2.45529 -8.35494,-3.70363 -1.757,-0.4386 -3.27372,-0.87228 -3.37116,-0.96284 -0.0974,-0.0906 2.61766,-1.447096 3.83462,-3.015072 3.02816,-3.901592 3.79557,-5.594888 3.78296,-8.349956 -0.0308,-6.707448 -8.4868,-13.450616 -21.21069,-18.133864 -2.96853,-1.092616 -5.72925,-2.169644 -6.13471,-2.393648 -0.52803,-0.29172 -0.84113,-1.716412 -1.10388,-5.020332 -0.75184,-9.453836 -2.70412,-14.617528 -6.34781,-18.585036 -3.5053,-3.816824 -5.16604,-4.321888 -14.93312,-4.53508 -2.40539,-0.05252 -4.18779,-0.100336 -5.52134,-0.07288 z"
     style="fill:#ffffff;stroke-width:4" />
  <path
     inkscape:connector-curvature="0"
     id="path12"
     d="M 64.632812,72.96156 C 64.42406,73.984244 64.212604,74.931628 64,76.000624 c 1.718224,10.804884 18.015596,17.589468 37.34375,19.625 6.51031,0.685624 14.42799,0.587472 17.85156,-0.21876 7.7621,-1.827916 12.97771,-7.424556 15.46875,-15.812496 C 135.09967,78.12758 136,76.260824 136,76.000624 c -9.75739,7.832 -20.22593,9.249892 -33.71875,7.796876 -13.686014,-1.456572 -27.589622,-2.891856 -36.960938,-10.367188 -0.25068,-0.19996 -0.464388,-0.3298 -0.6875,-0.468752 z m 20.109376,38.64063 -0.476564,1.36719 c -0.2652,0.75244 -0.34268,3.18626 -0.17188,4.92187 0.850456,8.64224 4.067004,13.02512 10.210936,13.89844 8.17521,1.16205 13.39598,-0.14592 14.35938,-7.80469 0.20788,-1.65256 0.68606,-3.21163 1.0625,-3.46875 0.77642,-0.53028 5.80635,-0.64849 6.97656,-0.16408 0.54755,0.22668 0.77344,-0.5844 0.77344,1.125 0,3.59182 1.56468,4.25361 4.04687,5.51562 6.06227,3.08224 11.9084,1.16535 13.69531,-4.49219 0.81412,-2.57758 1.07763,-10.01069 0.3672,-10.48437 -0.2226,-0.1484 -1.59422,-0.3208 -3.04687,0.10156 -12.42133,3.61158 -26.64707,4.33676 -41.789062,0.57812 z m -5.648436,28.60937 c -2.875012,0 -4.127924,0.2324 -5.453128,1.00782 -1.533028,0.89701 -1.74064,1.25785 -1.875,3.33593 -0.25132,3.88631 2.05604,12.1053 4.593752,14.64063 0.816696,0.81593 1.728352,1.16406 3.046872,1.16406 2.954592,0 28.206032,-8.58796 28.593752,-9.75 0.28636,-0.85828 -2.32269,-1.4928 -11.75,0.10936 -9.9327,1.68805 -11.490624,1.75706 -11.898436,0.69531 -0.16408,-0.42716 -0.29688,-3.54096 -0.29688,-5.78125 0,-5.12998 0.1116,-5.42188 -4.960936,-5.42188 z"
     style="opacity:0.1;stroke-width:4;filter:url(#filter898)" />
  <path
     inkscape:connector-curvature="0"
     id="path14"
     d="M 64.632812,68.960936 C 64.42406,69.98362 64.212604,70.931004 64,72 c 1.718224,10.804884 18.015596,17.589468 37.34375,19.625 6.51031,0.685624 14.42799,0.587472 17.85156,-0.21876 7.7621,-1.827916 12.97771,-7.424556 15.46875,-15.812496 C 135.09967,74.126956 136,72.2602 136,72 126.24261,79.832 115.77407,81.249892 102.28125,79.796876 88.595236,78.340304 74.691628,76.90502 65.320312,69.429688 c -0.25068,-0.19996 -0.464388,-0.3298 -0.6875,-0.468752 z m 20.109376,38.640624 -0.476564,1.36719 c -0.2652,0.75244 -0.34268,3.18626 -0.17188,4.92187 0.850456,8.64224 4.067004,13.02513 10.210936,13.89844 8.17521,1.16206 13.39598,-0.14592 14.35938,-7.80468 0.20788,-1.65256 0.68606,-3.21164 1.0625,-3.46876 0.77642,-0.53028 5.80635,-0.64849 6.97656,-0.16408 0.54755,0.22668 0.77344,-0.58439 0.77344,1.125 0,3.59182 1.56468,4.25362 4.04687,5.51563 6.06227,3.08224 11.9084,1.16535 13.69531,-4.49219 0.81412,-2.57759 1.07763,-10.0107 0.3672,-10.48438 -0.2226,-0.1484 -1.59422,-0.3208 -3.04687,0.10156 -12.42133,3.61158 -26.64707,4.33676 -41.789062,0.57813 z m -5.648436,28.60938 c -2.875012,0 -4.127924,0.2324 -5.453128,1.00781 -1.533028,0.89702 -1.74064,1.25786 -1.875,3.33594 -0.25132,3.88631 2.05604,12.1053 4.593752,14.64062 0.816696,0.81594 1.728352,1.16407 3.046872,1.16407 2.954592,0 28.206032,-8.58797 28.593752,-9.75 0.28636,-0.85828 -2.32269,-1.4928 -11.75,0.10936 -9.9327,1.68804 -11.490624,1.75706 -11.898436,0.69531 -0.16408,-0.42717 -0.29688,-3.54096 -0.29688,-5.78125 0,-5.12998 0.1116,-5.42188 -4.960936,-5.42188 z"
     style="fill:#505050;stroke-width:4" />
</svg>
