<?xml version="1.0" encoding="UTF-8" standalone="no"?>
<svg
   xmlns:dc="http://purl.org/dc/elements/1.1/"
   xmlns:cc="http://creativecommons.org/ns#"
   xmlns:rdf="http://www.w3.org/1999/02/22-rdf-syntax-ns#"
   xmlns:svg="http://www.w3.org/2000/svg"
   xmlns="http://www.w3.org/2000/svg"
   xmlns:sodipodi="http://sodipodi.sourceforge.net/DTD/sodipodi-0.dtd"
   xmlns:inkscape="http://www.inkscape.org/namespaces/inkscape"
   width="192"
   height="192"
   version="1"
   id="svg14"
   sodipodi:docname="apps_moboplayer.svg"
   inkscape:version="0.92.3 (2405546, 2018-03-11)">
  <metadata
     id="metadata20">
    <rdf:RDF>
      <cc:Work
         rdf:about="">
        <dc:format>image/svg+xml</dc:format>
        <dc:type
           rdf:resource="http://purl.org/dc/dcmitype/StillImage" />
      </cc:Work>
    </rdf:RDF>
  </metadata>
  <defs
     id="defs18">
    <filter
       inkscape:collect="always"
       style="color-interpolation-filters:sRGB"
       id="filter846"
       x="-0.050666667"
       width="1.1013333"
       y="-0.0456"
       height="1.0912">
      <feGaussianBlur
         inkscape:collect="always"
         stdDeviation="3.04"
         id="feGaussianBlur848" />
    </filter>
    <filter
       inkscape:collect="always"
       style="color-interpolation-filters:sRGB"
       id="filter874"
       x="-0.050000452"
       width="1.1000009"
       y="-0.046153461"
       height="1.0923069">
      <feGaussianBlur
         inkscape:collect="always"
         stdDeviation="2.0000419"
         id="feGaussianBlur876" />
    </filter>
  </defs>
  <sodipodi:namedview
     pagecolor="#ffffff"
     bordercolor="#666666"
     borderopacity="1"
     objecttolerance="10"
     gridtolerance="10"
     guidetolerance="10"
     inkscape:pageopacity="0"
     inkscape:pageshadow="2"
     inkscape:window-width="1920"
     inkscape:window-height="1018"
     id="namedview16"
     showgrid="false"
     inkscape:zoom="1"
     inkscape:cx="96"
     inkscape:cy="96"
     inkscape:window-x="0"
     inkscape:window-y="32"
     inkscape:window-maximized="1"
     inkscape:current-layer="svg14" />
  <path
     style="opacity:0.2;fill:#000000;stroke-width:4.00002623;filter:url(#filter846)"
     d="M 48.672201,20.009533 C 35.159224,19.632581 24.000492,30.481027 24,43.995685 V 155.96751 c 1e-6,18.51875 20.092645,30.05809 36.094228,20.72916 l 96.001262,-55.98591 c 15.87268,-9.26065 15.87268,-32.189861 0,-41.450513 L 108.09486,51.259483 60.094228,23.266524 C 56.619938,21.241365 52.69235,20.121412 48.672201,20.009533 Z"
     id="path832"
     inkscape:connector-curvature="0" />
  <path
     inkscape:connector-curvature="0"
     id="path4"
     d="M 48.672201,16.009534 C 35.159224,15.632582 24.000492,26.481028 24,39.995686 V 151.96751 c 1e-6,18.51875 20.092645,30.05809 36.094228,20.72916 l 96.001262,-55.98591 c 15.87268,-9.26065 15.87268,-32.18986 0,-41.450512 L 108.09486,47.259484 60.094228,19.266525 C 56.619938,17.241366 52.69235,16.121413 48.672201,16.009534 Z"
     style="fill:#23ae88;stroke-width:4.00002623" />
  <path
     inkscape:connector-curvature="0"
     id="path8"
     d="M 56.117188,48.000176 A 11.836927,11.483138 0 0 0 44,59.47674 v 81.05468 a 11.836927,11.483138 0 0 0 17.742188,9.93751 L 68,146.96893 V 88.054864 c 0,-2.247476 1.760268,-4.054688 3.945312,-4.054688 h 0.10936 C 74.239732,84.000176 76,85.807388 76,88.054864 V 142.49236 L 97.9375,130.21893 104,126.82049 v -22.76563 c 0,-2.24747 1.76027,-4.05468 3.94531,-4.05468 h 0.10936 c 2.18506,0 3.94533,1.80721 3.94533,4.05468 v 18.28125 l 22.10938,-12.39062 a 11.836927,11.483138 0 0 0 0,-19.859378 L 97.9375,69.804864 61.742188,49.562676 a 11.836927,11.483138 0 0 0 -5.625,-1.5625 z"
     style="opacity:0.2;stroke-width:4;filter:url(#filter874)" />
  <path
     inkscape:connector-curvature="0"
     id="path10"
     d="M 56.117188,44 A 11.836927,11.483138 0 0 0 44,55.476564 v 40.531248 40.523438 a 11.836927,11.483138 0 0 0 17.742188,9.9375 L 68,142.96875 V 84.054688 C 68,81.807212 69.760268,80 71.945312,80 h 0.10936 C 74.239732,80 76,81.807212 76,84.054688 V 138.49219 L 97.9375,126.21875 104,122.82031 V 100.05469 C 104,97.807212 105.76027,96 107.94531,96 h 0.10936 C 110.23973,96 112,97.807212 112,100.05469 v 18.28125 l 22.10938,-12.39063 a 11.836927,11.483138 0 0 0 0,-19.859374 L 97.9375,65.804688 61.742188,45.5625 A 11.836927,11.483138 0 0 0 56.117188,44 Z"
     style="fill:#ffffff;stroke-width:4" />
  <path
     style="fill:#ffffff;stroke-width:4.00002623;opacity:0.2"
     d="M 47.412109 16.005859 C 34.472284 16.312253 24.000477 26.903769 24 39.996094 L 24 40.996094 C 24.000492 27.481436 35.158898 16.632814 48.671875 17.009766 C 52.692024 17.121645 56.61946 18.240466 60.09375 20.265625 L 108.0957 48.259766 L 156.0957 76.259766 C 163.86777 80.79425 167.8235 88.606868 167.98438 96.486328 C 168.15227 88.273573 164.19653 79.986057 156.0957 75.259766 L 108.0957 47.259766 L 60.09375 19.265625 C 56.61946 17.240466 52.692024 16.121645 48.671875 16.009766 C 48.249594 15.997986 47.829523 15.995976 47.412109 16.005859 z "
     id="path878" />
</svg>
