<?xml version="1.0" encoding="UTF-8" standalone="no"?>
<svg
   xmlns:dc="http://purl.org/dc/elements/1.1/"
   xmlns:cc="http://creativecommons.org/ns#"
   xmlns:rdf="http://www.w3.org/1999/02/22-rdf-syntax-ns#"
   xmlns:svg="http://www.w3.org/2000/svg"
   xmlns="http://www.w3.org/2000/svg"
   xmlns:sodipodi="http://sodipodi.sourceforge.net/DTD/sodipodi-0.dtd"
   xmlns:inkscape="http://www.inkscape.org/namespaces/inkscape"
   width="192"
   height="192"
   version="1"
   id="svg12"
   sodipodi:docname="apps_emacs.svg"
   inkscape:version="0.92.3 (2405546, 2018-03-11)">
  <metadata
     id="metadata18">
    <rdf:RDF>
      <cc:Work
         rdf:about="">
        <dc:format>image/svg+xml</dc:format>
        <dc:type
           rdf:resource="http://purl.org/dc/dcmitype/StillImage" />
        <dc:title></dc:title>
      </cc:Work>
    </rdf:RDF>
  </metadata>
  <defs
     id="defs16">
    <filter
       inkscape:collect="always"
       style="color-interpolation-filters:sRGB"
       id="filter858"
       x="-0.048"
       width="1.096"
       y="-0.048"
       height="1.096">
      <feGaussianBlur
         inkscape:collect="always"
         stdDeviation="3.2"
         id="feGaussianBlur860" />
    </filter>
    <filter
       inkscape:collect="always"
       style="color-interpolation-filters:sRGB"
       id="filter874"
       x="-0.050124143"
       width="1.1002483"
       y="-0.04604857"
       height="1.0920971">
      <feGaussianBlur
         inkscape:collect="always"
         stdDeviation="2.1489244"
         id="feGaussianBlur876" />
    </filter>
  </defs>
  <sodipodi:namedview
     pagecolor="#ffffff"
     bordercolor="#666666"
     borderopacity="1"
     objecttolerance="10"
     gridtolerance="10"
     guidetolerance="10"
     inkscape:pageopacity="0"
     inkscape:pageshadow="2"
     inkscape:window-width="1920"
     inkscape:window-height="1018"
     id="namedview14"
     showgrid="false"
     inkscape:zoom="2.14"
     inkscape:cx="24"
     inkscape:cy="142.27957"
     inkscape:window-x="0"
     inkscape:window-y="32"
     inkscape:window-maximized="1"
     inkscape:current-layer="svg12" />
  <rect
     id="rect840"
     ry="80"
     rx="80"
     y="20"
     x="16"
     height="160"
     width="160"
     style="opacity:0.2;fill:#000000;stroke-width:4;filter:url(#filter858)" />
  <rect
     style="fill:#6966b2;stroke-width:4"
     width="160"
     height="160"
     x="16"
     y="16"
     rx="80"
     ry="80"
     id="rect2" />
  <path
     style="opacity:0.1;fill:#ffffff;stroke-width:4"
     d="M 96 16 C 51.684 16 16.007812 51.68 16.007812 96 C 16.007812 96.33544 16.009812 96.667215 16.007812 97 C 16.007812 52.68 51.684 17 96 17 C 140.316 17 175.99219 52.68 175.99219 97 C 175.99019 96.667215 175.99219 96.33544 175.99219 96 C 175.99219 51.68 140.316 16 96 16 z "
     id="path4" />
  <path
     style="opacity:0.2;stroke-width:4;filter:url(#filter874)"
     inkscape:connector-curvature="0"
     d="m 62.008,148.976 c 0,0 6.6764,1.93856 15.5636,3.04684 3.59912,0.44884 17.2932,2.01752 27.7924,1.97636 0,0 12.7872,0.016 19.846,-0.9882 7.3856,-1.04912 11.57,-2.38804 13.8984,-5.06 0.0608,-0.63712 1.12396,-2.71388 -1.74688,-4.7164 -7.3396,-5.12 -16.828,-6.5216 -35.2584,-10.8984 -20.3804,-5.124 -26.4708,-10.0304 -29.5136,-13.5816 -2.88472,-3.55884 0.54148,-10.9496 16.9636,-14.5756 8.3148,-2.0234 39.2824,-2.39516 39.2824,-2.39516 -8.8844,-7.053595 -25.564,-19.682395 -28.9732,-22.367995 -2.99016,-2.3554 -7.8088,-5.97 -8.3268,-9.2 -0.69872,-3.14436 4.2508,-4.6584 6.8712,-4.8328 8.4432,-0.58228 19.9724,0.4076 30.2208,2.4456 5.1512,1.02444 6.056,0.87344 6.056,0.87344 7.3368,0.3496 13.0432,-3.49372 12.752,-11.5876 -0.0584,-8.2104 -8.2672,-14.7936 -17.352,-15.0812 -8.5556,-0.2708 -29.6384,1.2228 -29.6384,1.2228 24.5724,5.066 28.5896,6.3588 29.8712,9.3168 0.75696,1.74684 -1.26448,3.48372 -8.0356,3.14432 -7.3716,-0.3692 -22.4764,-2.1544 -22.4764,-2.1544 -14.3824,-2.21276 -24.398,-4.3088 -28.7648,1.39748 -2.85308,3.72808 0.4076,8.2684 1.68864,10.9468 5.7064,9.9572 15.574,16.7884 21.8356,21.6028 2.35612,1.81148 9.5496,5.8228 9.5496,5.8228 -22.36,-6.114 -40.176,-2.67852 -51.476,3.26084 -12.9848,7.686395 -10.764,20.656795 9.8408,32.782795 12.1696,7.162 18.2292,10.6028 38.1548,13.0492 11.6468,1.85712 13.3824,2.61696 13.294,3.58644 -0.1248,1.36488 -13.7852,1.88204 -17.54,2.14104 -9.5524,0.65876 -34.2568,0.82352 -34.3804,0.82352 z"
     id="path8" />
  <path
     style="fill:#ffffff;stroke-width:4"
     inkscape:connector-curvature="0"
     d="m 62.008,146.976 c 0,0 6.6764,1.93856 15.5636,3.04684 3.59912,0.44884 17.2932,2.01752 27.7924,1.97636 0,0 12.7872,0.016 19.846,-0.9882 7.3856,-1.04912 11.57,-2.38804 13.8984,-5.06 0.0608,-0.63712 1.12396,-2.71388 -1.74688,-4.7164 -7.3396,-5.12 -16.828,-6.5216 -35.2584,-10.8984 -20.3804,-5.124 -26.4708,-10.0304 -29.5136,-13.5816 -2.88472,-3.55884 0.54148,-10.9496 16.9636,-14.5756 8.3148,-2.0234 39.2824,-2.39516 39.2824,-2.39516 -8.8844,-7.0536 -25.564,-19.6824 -28.9732,-22.368 -2.99016,-2.3554 -7.8088,-5.97 -8.3268,-9.2 -0.69872,-3.14436 4.2508,-4.6584 6.8712,-4.8328 8.4432,-0.58228 19.9724,0.4076 30.2208,2.4456 5.1512,1.02444 6.056,0.87344 6.056,0.87344 7.3368,0.3496 13.0432,-3.49372 12.752,-11.5876 -0.0584,-8.2104 -8.2672,-14.7936 -17.352,-15.0812 -8.5556,-0.2708 -29.6384,1.2228 -29.6384,1.2228 24.5724,5.066 28.5896,6.3588 29.8712,9.3168 0.75696,1.74684 -1.26448,3.48372 -8.0356,3.14432 -7.3716,-0.3692 -22.4764,-2.1544 -22.4764,-2.1544 -14.3824,-2.21276 -24.398,-4.3088 -28.7648,1.39748 -2.85308,3.72808 0.4076,8.2684 1.68864,10.9468 5.7064,9.9572 15.574,16.7884 21.8356,21.6028 2.35612,1.81148 9.5496,5.8228 9.5496,5.8228 -22.36,-6.114 -40.176,-2.67852 -51.476,3.26084 -12.9848,7.6864 -10.764,20.6568 9.8408,32.7828 12.1696,7.162 18.2292,10.6028 38.1548,13.0492 11.6468,1.85712 13.3824,2.61696 13.294,3.58644 -0.1248,1.36488 -13.7852,1.88204 -17.54,2.14104 -9.5524,0.65876 -34.2568,0.82352 -34.3804,0.82352 z"
     id="path10" />
</svg>
