<?xml version="1.0" encoding="UTF-8" standalone="no"?>
<svg
   xmlns:dc="http://purl.org/dc/elements/1.1/"
   xmlns:cc="http://creativecommons.org/ns#"
   xmlns:rdf="http://www.w3.org/1999/02/22-rdf-syntax-ns#"
   xmlns:svg="http://www.w3.org/2000/svg"
   xmlns="http://www.w3.org/2000/svg"
   xmlns:sodipodi="http://sodipodi.sourceforge.net/DTD/sodipodi-0.dtd"
   xmlns:inkscape="http://www.inkscape.org/namespaces/inkscape"
   width="192"
   height="192"
   version="1"
   id="svg18"
   sodipodi:docname="apps_freeoffice_presentations.svg"
   inkscape:version="0.92.3 (2405546, 2018-03-11)">
  <metadata
     id="metadata24">
    <rdf:RDF>
      <cc:Work
         rdf:about="">
        <dc:format>image/svg+xml</dc:format>
        <dc:type
           rdf:resource="http://purl.org/dc/dcmitype/StillImage" />
        <dc:title></dc:title>
      </cc:Work>
    </rdf:RDF>
  </metadata>
  <defs
     id="defs22">
    <filter
       inkscape:collect="always"
       style="color-interpolation-filters:sRGB"
       id="filter870"
       x="-0.048"
       width="1.096"
       y="-0.048"
       height="1.096">
      <feGaussianBlur
         inkscape:collect="always"
         stdDeviation="3.2"
         id="feGaussianBlur872" />
    </filter>
    <filter
       inkscape:collect="always"
       style="color-interpolation-filters:sRGB"
       id="filter894"
       x="-0.05861774"
       width="1.1172355"
       y="-0.040943237"
       height="1.0818865">
      <feGaussianBlur
         inkscape:collect="always"
         stdDeviation="0.40943239"
         id="feGaussianBlur896" />
    </filter>
  </defs>
  <sodipodi:namedview
     pagecolor="#ffffff"
     bordercolor="#666666"
     borderopacity="1"
     objecttolerance="10"
     gridtolerance="10"
     guidetolerance="10"
     inkscape:pageopacity="0"
     inkscape:pageshadow="2"
     inkscape:window-width="1920"
     inkscape:window-height="1018"
     id="namedview20"
     showgrid="false"
     inkscape:zoom="2.63"
     inkscape:cx="24"
     inkscape:cy="84.836502"
     inkscape:window-x="0"
     inkscape:window-y="32"
     inkscape:window-maximized="1"
     inkscape:current-layer="svg18" />
  <rect
     id="rect852"
     ry="8"
     rx="8"
     y="20"
     x="16"
     height="160"
     width="160"
     style="opacity:0.2;fill:#000000;stroke-width:4;filter:url(#filter870)" />
  <rect
     style="fill:#e78117;stroke-width:4"
     width="160"
     height="160"
     x="16"
     y="16"
     rx="8"
     ry="8"
     id="rect2" />
  <path
     style="opacity:0.2;fill:#ffffff;stroke-width:4"
     d="M 24 16 C 19.568 16 16 19.568 16 24 L 16 25 C 16 20.568 19.568 17 24 17 L 168 17 C 172.432 17 176 20.568 176 25 L 176 24 C 176 19.568 172.432 16 168 16 L 24 16 z "
     id="path4" />
  <g
     style="font-size:6.91562939px;line-height:1.25;letter-spacing:0px;word-spacing:0px;opacity:0.2;filter:url(#filter894)"
     transform="matrix(3.8178214,0,0,4,4.3722836,1.999996)"
     id="g10">
    <path
       inkscape:connector-curvature="0"
       d="m 23.319502,31.585063 c 0.730291,0 1.327801,-0.05533 1.792532,-0.165975 0.48686,-0.13278 0.874135,-0.298755 1.161825,-0.497925 0.287691,-0.221301 0.486861,-0.475796 0.597511,-0.763486 0.11065,-0.28769 0.165975,-0.608575 0.165975,-0.962656 0,-0.75242 -0.35408,-1.37206 -1.062241,-1.858921 -0.70816,-0.50899 -2.23946,-1.051175 -3.965601,-1.626556 -0.752421,-0.26556 -1.504842,-0.564315 -2.257262,-0.896266 -0.752421,-0.35408 -1.427386,-0.785615 -2.024896,-1.294605 -0.597511,-0.531121 -1.084371,-1.161826 -1.460581,-1.892117 -0.376211,-0.752421 -0.564316,-1.659751 -0.564316,-2.721992 0,-1.062241 0.19917,-2.013831 0.597511,-2.854772 0.39834,-0.86307 0.962655,-1.59336 1.692946,-2.190871 0.73029,-0.597511 1.615491,-1.051176 2.655602,-1.360996 C 21.688617,12.165975 22.861508,12 24.167179,12 c 1.549101,0 3.202116,0.165975 4.330747,0.497925 1.128631,0.33195 2.058091,0.697095 2.788382,1.095436 l -1.493776,4.082988 c -0.641771,-0.331951 -1.360996,-0.619641 -2.157677,-0.863071 -0.77455,-0.26556 -2.029225,-0.39834 -3.135726,-0.39834 -1.239281,0 -2.135546,0.17704 -2.688796,0.53112 -0.531121,0.33195 -0.796681,0.852005 -0.796681,1.560166 0,0.420471 0.09959,0.774551 0.298755,1.062241 0.19917,0.28769 0.475795,0.55325 0.829876,0.79668 0.37621,0.221301 0.79668,0.431536 1.261411,0.630706 0.48686,0.17704 1.01798,0.365145 1.593361,0.564315 1.19502,0.442601 2.54928,0.885201 3.434481,1.327801 0.885201,0.420471 1.615491,0.918396 2.190871,1.493776 0.597511,0.575381 1.040111,1.250346 1.327801,2.024896 0.287691,0.774551 0.431536,1.715076 0.431536,2.821577 0,2.146612 -0.752421,3.817428 -2.257262,5.012449 -1.504841,1.172891 -3.773167,1.759336 -6.80498,1.759336 -1.017981,0 -1.936376,-0.06639 -2.755186,-0.19917 -0.818811,-0.11065 -1.549101,-0.254495 -2.190872,-0.431535 -0.619641,-0.177041 -1.161826,-0.365146 -1.626556,-0.564316 -0.4426,-0.19917 -0.81881,-0.387275 -1.128631,-0.564315 l 1.460581,-4.116183 c 0.686031,0.37621 1.526971,0.719225 2.522822,1.029046 1.017981,0.28769 2.257261,0.431535 3.717842,0.431535 z"
       id="path8" />
  </g>
  <g
     style="font-size:6.91562939px;line-height:1.25;letter-spacing:0px;word-spacing:0px;fill:#ffffff"
     transform="matrix(3.8178214,0,0,4,4.3722836,-2e-6)"
     id="g14">
    <path
       inkscape:connector-curvature="0"
       style="fill:#ffffff"
       d="m 23.319502,31.585063 c 0.730291,0 1.327801,-0.05533 1.792532,-0.165975 0.48686,-0.13278 0.874135,-0.298755 1.161825,-0.497925 0.287691,-0.221301 0.486861,-0.475796 0.597511,-0.763486 0.11065,-0.28769 0.165975,-0.608575 0.165975,-0.962656 0,-0.75242 -0.35408,-1.37206 -1.062241,-1.858921 -0.70816,-0.50899 -2.23946,-1.051175 -3.965601,-1.626556 -0.752421,-0.26556 -1.504842,-0.564315 -2.257262,-0.896266 -0.752421,-0.35408 -1.427386,-0.785615 -2.024896,-1.294605 -0.597511,-0.531121 -1.084371,-1.161826 -1.460581,-1.892117 -0.376211,-0.752421 -0.564316,-1.659751 -0.564316,-2.721992 0,-1.062241 0.19917,-2.013831 0.597511,-2.854772 0.39834,-0.86307 0.962655,-1.59336 1.692946,-2.190871 0.73029,-0.597511 1.615491,-1.051176 2.655602,-1.360996 C 21.688617,12.165975 22.861508,12 24.167179,12 c 1.549101,0 3.202116,0.165975 4.330747,0.497925 1.128631,0.33195 2.058091,0.697095 2.788382,1.095436 l -1.493776,4.082988 c -0.641771,-0.331951 -1.360996,-0.619641 -2.157677,-0.863071 -0.77455,-0.26556 -2.029225,-0.39834 -3.135726,-0.39834 -1.239281,0 -2.135546,0.17704 -2.688796,0.53112 -0.531121,0.33195 -0.796681,0.852005 -0.796681,1.560166 0,0.420471 0.09959,0.774551 0.298755,1.062241 0.19917,0.28769 0.475795,0.55325 0.829876,0.79668 0.37621,0.221301 0.79668,0.431536 1.261411,0.630706 0.48686,0.17704 1.01798,0.365145 1.593361,0.564315 1.19502,0.442601 2.54928,0.885201 3.434481,1.327801 0.885201,0.420471 1.615491,0.918396 2.190871,1.493776 0.597511,0.575381 1.040111,1.250346 1.327801,2.024896 0.287691,0.774551 0.431536,1.715076 0.431536,2.821577 0,2.146612 -0.752421,3.817428 -2.257262,5.012449 -1.504841,1.172891 -3.773167,1.759336 -6.80498,1.759336 -1.017981,0 -1.936376,-0.06639 -2.755186,-0.19917 -0.818811,-0.11065 -1.549101,-0.254495 -2.190872,-0.431535 -0.619641,-0.177041 -1.161826,-0.365146 -1.626556,-0.564316 -0.4426,-0.19917 -0.81881,-0.387275 -1.128631,-0.564315 l 1.460581,-4.116183 c 0.686031,0.37621 1.526971,0.719225 2.522822,1.029046 1.017981,0.28769 2.257261,0.431535 3.717842,0.431535 z"
       id="path12" />
  </g>
  <path
     inkscape:connector-curvature="0"
     style="opacity:0.5;fill:#ffffff;stroke-width:4"
     d="M 24,24 V 144 H 36 V 36 H 156 V 156 H 48 v 12 H 168 V 24 Z m 0,128 v 16 h 16 v -16 z"
     id="path16" />
</svg>
