<?xml version="1.0" encoding="UTF-8" standalone="no"?>
<svg
   xmlns:dc="http://purl.org/dc/elements/1.1/"
   xmlns:cc="http://creativecommons.org/ns#"
   xmlns:rdf="http://www.w3.org/1999/02/22-rdf-syntax-ns#"
   xmlns:svg="http://www.w3.org/2000/svg"
   xmlns="http://www.w3.org/2000/svg"
   xmlns:sodipodi="http://sodipodi.sourceforge.net/DTD/sodipodi-0.dtd"
   xmlns:inkscape="http://www.inkscape.org/namespaces/inkscape"
   width="192"
   height="192"
   version="1"
   id="svg24"
   sodipodi:docname="apps_orfox.svg"
   inkscape:version="0.92.3 (2405546, 2018-03-11)">
  <metadata
     id="metadata30">
    <rdf:RDF>
      <cc:Work
         rdf:about="">
        <dc:format>image/svg+xml</dc:format>
        <dc:type
           rdf:resource="http://purl.org/dc/dcmitype/StillImage" />
      </cc:Work>
    </rdf:RDF>
  </metadata>
  <defs
     id="defs28">
    <filter
       inkscape:collect="always"
       style="color-interpolation-filters:sRGB"
       id="filter874"
       x="-0.04926315"
       width="1.0985263"
       y="-0.046800007"
       height="1.0936">
      <feGaussianBlur
         inkscape:collect="always"
         stdDeviation="3.1200002"
         id="feGaussianBlur876" />
    </filter>
    <filter
       inkscape:collect="always"
       style="color-interpolation-filters:sRGB"
       id="filter906"
       x="-0.049714292"
       width="1.0994286"
       y="-0.046399994"
       height="1.0928">
      <feGaussianBlur
         inkscape:collect="always"
         stdDeviation="2.3199998"
         id="feGaussianBlur908" />
    </filter>
    <filter
       inkscape:collect="always"
       style="color-interpolation-filters:sRGB"
       id="filter927"
       x="-0.03002071"
       width="1.0600414"
       y="-0.11966979"
       height="1.2393396">
      <feGaussianBlur
         inkscape:collect="always"
         stdDeviation="0.79792154"
         id="feGaussianBlur929" />
    </filter>
  </defs>
  <sodipodi:namedview
     pagecolor="#ffffff"
     bordercolor="#666666"
     borderopacity="1"
     objecttolerance="10"
     gridtolerance="10"
     guidetolerance="10"
     inkscape:pageopacity="0"
     inkscape:pageshadow="2"
     inkscape:window-width="1920"
     inkscape:window-height="1018"
     id="namedview26"
     showgrid="false"
     inkscape:zoom="1"
     inkscape:cx="96"
     inkscape:cy="96"
     inkscape:window-x="0"
     inkscape:window-y="32"
     inkscape:window-maximized="1"
     inkscape:current-layer="svg24" />
  <path
     inkscape:connector-curvature="0"
     id="path2"
     d="M 47.131328,20.0004 C 42.71132,19.97427 36.4022,21.27844 31.361989,25.125912 c -5.040212,3.847472 -7.744706,9.060768 -9.097995,13.212258 -2.706578,8.302978 -2.367146,14.70435 -2.059923,23.549226 0.454603,13.088084 4.071991,22.656588 8.153863,30.323344 0.187836,1.199756 0.516822,1.415952 0.429152,2.16428 -1.070628,6.95817 -0.945484,13.5499 -0.148252,22.01001 0.452846,4.80485 0.962559,9.28155 3.097688,14.56396 2.135128,5.2824 6.52584,10.45052 10.16697,13.28257 3.762712,2.92666 8.327104,6.00798 12.843308,8.80557 2.258104,1.39879 4.41924,2.67461 6.65574,3.83632 0.0892,0.0463 0.2072,0.0946 0.29652,0.14064 0.2906,1.16087 0.25904,2.06881 0.717856,3.39096 1.343836,3.87237 4.353332,8.47887 7.498432,11.25894 3.1451,2.78007 5.654192,3.96079 7.443812,4.87549 1.38224,0.70648 2.569304,1.38154 5.126404,2.25022 1.278548,0.43434 2.886516,1.02488 6.070532,1.19544 1.77624,0.0951 4.49234,-0.26236 7.443812,-1.19544 2.951472,0.93311 5.667572,1.29058 7.443812,1.19544 3.18402,-0.1706 4.79198,-0.7611 6.07053,-1.19544 2.5571,-0.86868 3.74417,-1.54374 5.12641,-2.25022 1.78962,-0.91471 4.29871,-2.09542 7.44381,-4.87549 3.1451,-2.78007 6.15459,-7.38657 7.49843,-11.25894 0.45883,-1.32215 0.42725,-2.23009 0.71786,-3.39096 0.0893,-0.046 0.20732,-0.0943 0.29652,-0.14064 2.2365,-1.16171 4.39763,-2.43753 6.65574,-3.83632 4.5162,-2.79759 9.0806,-5.87892 12.8433,-8.80557 3.64113,-2.83205 8.03185,-8.00017 10.16698,-13.28257 2.13512,-5.28241 2.64484,-9.75911 3.09768,-14.56396 0.79726,-8.46013 0.92237,-15.05183 -0.14824,-22.01001 -0.18432,-0.698672 0.28372,-1.430288 0.42934,-2.164304 4.08188,-7.666764 7.69926,-17.23526 8.15386,-30.323344 0.3072,-8.844876 0.64666,-15.246252 -2.05992,-23.549226 -1.35353,-4.151466 -4.05802,-9.364761 -9.09823,-13.212234 -5.04022,-3.847474 -11.34933,-5.151648 -15.76934,-5.125512 h -0.008 c -8.89731,0.05599 -14.22513,3.151378 -19.29618,6.180305 -5.07105,3.028926 -9.72101,6.647178 -14.41946,10.680755 -3.80313,3.264932 -7.35805,5.784248 -11.563666,10.376036 -1.199864,1.31004 -2.221176,3.124472 -3.323964,4.758288 -0.077,1.64e-4 -0.18008,-0.008 -0.25748,-0.008 -0.07744,0 -0.18048,0.008 -0.25748,0.008 C 94.639444,50.361968 93.618132,48.547536 92.418268,47.237496 88.21282,42.645708 84.657896,40.126392 80.854768,36.86146 76.156316,32.827883 71.506352,29.209631 66.435304,26.180705 61.36426,23.151778 56.036432,20.056399 47.139128,20.0004 Z"
     style="opacity:0.2;stroke-width:4;filter:url(#filter874)" />
  <path
     inkscape:connector-curvature="0"
     id="path4"
     d="m 47.131328,16.000392 c -4.420008,-0.02613 -10.729128,1.27804 -15.769339,5.125512 -5.040212,3.847472 -7.744706,9.060768 -9.097995,13.212258 -2.706578,8.302978 -2.367146,14.70435 -2.059923,23.549226 0.454603,13.088084 4.071991,22.656588 8.153863,30.323344 0.187836,1.199756 0.516822,1.415952 0.429152,2.16428 -1.070628,6.958172 -0.945484,13.549898 -0.148252,22.010008 0.452846,4.80485 0.962559,9.28156 3.097688,14.56396 2.135128,5.2824 6.52584,10.45052 10.16697,13.28258 3.762712,2.92665 8.327104,6.00797 12.843308,8.80556 2.258104,1.3988 4.41924,2.67461 6.65574,3.83632 0.0892,0.0463 0.2072,0.0946 0.29652,0.14064 0.2906,1.16088 0.25904,2.06882 0.717856,3.39096 1.343836,3.87237 4.353332,8.47888 7.498432,11.25894 3.1451,2.78007 5.654192,3.96079 7.443812,4.87549 1.38224,0.70648 2.569304,1.38155 5.126404,2.25023 1.278548,0.43434 2.886516,1.02487 6.070532,1.19543 1.77624,0.0951 4.49234,-0.26236 7.443812,-1.19543 2.951472,0.9331 5.667572,1.29058 7.443812,1.19543 3.18402,-0.1706 4.79198,-0.76109 6.07053,-1.19543 2.5571,-0.86868 3.74417,-1.54375 5.12641,-2.25023 1.78962,-0.91471 4.29871,-2.09541 7.44381,-4.87549 3.1451,-2.78007 6.15459,-7.38657 7.49843,-11.25894 0.45883,-1.32214 0.42725,-2.23008 0.71786,-3.39096 0.0893,-0.046 0.20732,-0.0943 0.29652,-0.14064 2.2365,-1.16171 4.39763,-2.43752 6.65574,-3.83632 4.5162,-2.79759 9.0806,-5.87892 12.8433,-8.80556 3.64113,-2.83206 8.03185,-8.00018 10.16698,-13.28258 2.13512,-5.2824 2.64484,-9.75911 3.09768,-14.56396 0.79726,-8.46013 0.92237,-15.051832 -0.14824,-22.010008 -0.18432,-0.698672 0.28372,-1.430288 0.42934,-2.164304 4.08188,-7.666764 7.69926,-17.23526 8.15386,-30.323344 0.3072,-8.844876 0.64666,-15.246252 -2.05992,-23.549226 -1.35353,-4.151466 -4.05802,-9.364761 -9.09823,-13.212234 -5.04022,-3.847474 -11.34933,-5.151648 -15.76934,-5.125512 h -0.008 c -8.89731,0.05599 -14.22513,3.151378 -19.29618,6.180305 -5.07105,3.028926 -9.72101,6.647178 -14.41946,10.680755 -3.80313,3.264933 -7.35805,5.784248 -11.563666,10.376036 -1.199864,1.31004 -2.221176,3.124472 -3.323964,4.758288 -0.077,1.64e-4 -0.18008,-0.008 -0.25748,-0.008 -0.07744,0 -0.18048,0.008 -0.25748,0.008 C 94.639444,46.36196 93.618132,44.547528 92.418268,43.237488 88.21282,38.6457 84.657896,36.126385 80.854768,32.861452 76.156316,28.827875 71.506352,25.209623 66.435304,22.180697 61.36426,19.15177 56.036432,16.056391 47.139128,16.000392 Z"
     style="fill:#4f3663;stroke-width:4" />
  <path
     inkscape:connector-curvature="0"
     id="path6"
     d="m 46.954868,39.998536 c -5.684092,-0.03356 -7.415297,5.079864 -6.854936,21.19078 0.498112,14.321336 2.521396,17.957304 7.533412,25.55074 l 2.284976,3.461468 -1.060604,3.305204 c -1.230536,3.82842 -1.357432,10.734802 -0.38996,20.987632 0.766724,8.12421 1.961976,11.07622 5.63836,13.93184 5.553144,4.31344 17.528032,11.93936 19.652376,11.93936 1.410236,0 2.277176,-0.51268 2.277176,-3.82091 v -3.34427 c 0,0 0,-1.20331 1.996432,-1.20331 1.996432,0 1.996432,1.20331 1.996432,1.20331 0,0 -0.2636,-0.96209 -0.0312,6.99218 0.424552,14.52686 0.816696,15.65137 6.433812,18.5185 4.269616,2.17931 4.381372,1.6625 2.885464,-2.09408 -1.693008,-4.25146 -1.418352,-6.3457 1.045008,-7.89966 1.310068,-0.82647 3.522936,-0.70309 5.63836,-0.71886 2.11542,0.0156 4.328294,-0.1076 5.638354,0.71886 2.46336,1.55396 2.73802,3.6482 1.04501,7.89966 -1.4959,3.75658 -1.38415,4.27339 2.88547,2.09408 5.61711,-2.86713 6.00925,-3.99164 6.43381,-18.5185 0.2324,-7.95427 -0.0312,-6.99218 -0.0312,-6.99218 0,0 0,-1.20331 1.99643,-1.20331 1.99643,0 1.99643,1.20331 1.99643,1.20331 v 3.34427 c 0,3.30823 0.86694,3.82091 2.27718,3.82091 2.12434,0 14.09922,-7.62592 19.65238,-11.93936 3.67638,-2.85562 4.87163,-5.80763 5.63835,-13.93184 0.96751,-10.25283 0.84061,-17.159212 -0.38992,-20.987632 l -1.0606,-3.305204 2.28497,-3.461468 c 5.01203,-7.593436 7.03532,-11.229404 7.53343,-25.55074 0.56036,-16.110916 -1.17085,-21.224345 -6.85494,-21.19078 -5.04058,0.03168 -12.54253,4.909116 -20.86115,12.040928 -8.46109,7.25394 -12.76895,9.721252 -15.1682,18.768432 -0.65323,2.46326 -1.07684,4.98542 -1.5831,5.180492 -2.8461,0 -2.7613,-2.116508 -4.01626,-3.086416 -1.17925,-0.911396 -3.423572,-0.914208 -7.416432,-0.914208 -3.992864,0 -6.23718,0.0028 -7.416432,0.914208 -1.25496,0.969908 -1.17016,3.086416 -4.016256,3.086416 -0.50624,-0.19508 -0.929848,-2.717232 -1.583084,-5.180492 C 80.584968,61.760716 76.277112,59.293404 67.816016,52.039464 59.497404,44.907652 51.995456,40.03022 46.954868,39.998536 Z"
     style="opacity:0.2;stroke-width:4;filter:url(#filter906)" />
  <path
     inkscape:connector-curvature="0"
     id="path8"
     d="m 46.954868,35.998528 c -5.684092,-0.03356 -7.415297,5.079864 -6.854936,21.19078 0.498112,14.321336 2.521396,17.957304 7.533412,25.55074 l 2.284976,3.461468 -1.060604,3.305204 c -1.230536,3.82842 -1.357432,10.7348 -0.38996,20.98763 0.766724,8.12421 1.961976,11.07623 5.63836,13.93185 5.553144,4.31343 17.528032,11.93935 19.652376,11.93935 1.410236,0 2.277176,-0.51268 2.277176,-3.82091 v -3.34427 c 0,0 0,-1.20331 1.996432,-1.20331 1.996432,0 1.996432,1.20331 1.996432,1.20331 0,0 -0.2636,-0.96209 -0.0312,6.99218 0.424552,14.52687 0.816696,15.65137 6.433812,18.5185 4.269616,2.17931 4.381372,1.6625 2.885464,-2.09408 -1.693008,-4.25145 -1.418352,-6.3457 1.045008,-7.89965 1.310068,-0.82648 3.522936,-0.7031 5.63836,-0.71887 2.11542,0.0156 4.328294,-0.1076 5.638354,0.71887 2.46336,1.55395 2.73802,3.6482 1.04501,7.89965 -1.4959,3.75658 -1.38415,4.27339 2.88547,2.09408 5.61711,-2.86713 6.00925,-3.99163 6.43381,-18.5185 0.2324,-7.95427 -0.0312,-6.99218 -0.0312,-6.99218 0,0 0,-1.20331 1.99643,-1.20331 1.99643,0 1.99643,1.20331 1.99643,1.20331 v 3.34427 c 0,3.30823 0.86694,3.82091 2.27718,3.82091 2.12434,0 14.09922,-7.62592 19.65238,-11.93935 3.67638,-2.85562 4.87163,-5.80764 5.63835,-13.93185 0.96751,-10.25283 0.84061,-17.15921 -0.38992,-20.98763 l -1.0606,-3.305204 2.28497,-3.461468 c 5.01203,-7.593436 7.03532,-11.229404 7.53343,-25.55074 0.56036,-16.110916 -1.17085,-21.224345 -6.85494,-21.19078 -5.04058,0.03168 -12.54253,4.909116 -20.86115,12.040928 -8.46109,7.25394 -12.76895,9.721252 -15.1682,18.768432 -0.65323,2.46326 -1.07684,4.98542 -1.5831,5.180492 -2.8461,0 -2.7613,-2.116508 -4.01626,-3.086416 C 102.23717,67.990568 99.992848,68 95.999988,68 c -3.992864,0 -6.23718,-0.0094 -7.416432,0.901964 -1.25496,0.969908 -1.17016,3.086416 -4.016256,3.086416 C 84.06106,71.7933 83.637452,69.271148 82.984216,66.807888 80.584968,57.760708 76.277112,55.293396 67.816016,48.039456 59.497404,40.907644 51.995456,36.03021 46.954868,35.998528 Z"
     style="fill:#eaeace;stroke-width:4"
     sodipodi:nodetypes="cscccccsscscccccccccccscsscccccsccccssccccc" />
  <path
     style="opacity:0.1;stroke-width:4;filter:url(#filter927)"
     d="m 71.847656,101.99852 c -6.44206,0 -7.794435,9.4e-4 -7.728515,1.11718 -0.0659,1.68479 -0.06122,2.88282 3.93164,2.88282 1.738196,1.9735 0.656913,4.58361 1.972657,6.375 1.824691,2.48432 4.668128,4.52294 7.611328,5.24414 3.206648,0.78579 8.662694,0.29919 9.857422,-0.875 1.091423,-1.07262 0.523873,-3.11275 -2.199219,-7.90039 -3.149468,-5.53732 -5.265153,-6.84375 -13.445313,-6.84375 z m 48.304684,0 c -8.18016,0 -10.29584,1.30643 -13.44531,6.84375 -2.72309,4.78764 -3.29064,6.82777 -2.19922,7.90039 1.19473,1.1742 6.65078,1.66079 9.85742,0.875 2.9432,-0.7212 5.78663,-2.75982 7.61133,-5.24414 1.31574,-1.79139 0.23444,-4.4015 1.97266,-6.375 3.99287,0 3.99754,-1.19803 3.93164,-2.88282 0.0659,-1.11634 -1.28646,-1.11718 -7.72852,-1.11718 z"
     id="path10"
     inkscape:connector-curvature="0" />
  <path
     inkscape:connector-curvature="0"
     id="path12"
     d="m 71.847872,99.993784 c 8.18016,0 10.295248,1.307366 13.444716,6.844686 2.723092,4.78763 3.290624,6.82689 2.1992,7.89951 -1.194728,1.17418 -6.650732,1.6609 -9.85738,0.87512 -2.9432,-0.7212 -5.786704,-2.75858 -7.611396,-5.2429 -1.315744,-1.79139 -0.23484,-4.40237 -1.973036,-6.37587 -3.992864,0 -3.99638,-1.19841 -3.930476,-2.88321 -0.06592,-1.116232 1.286312,-1.117336 7.728372,-1.117336 z"
     style="fill:#323232;stroke-width:4" />
  <path
     inkscape:connector-curvature="0"
     id="path16"
     d="m 120.15216,99.993784 c 6.44206,0 7.79427,0.0011 7.72837,1.117336 0.0659,1.6848 0.0624,2.88321 -3.93047,2.88321 -1.73822,1.9735 -0.6573,4.58448 -1.97304,6.37587 -1.8247,2.48432 -4.6682,4.5217 -7.6114,5.2429 -3.20664,0.78578 -8.66265,0.29908 -9.85738,-0.87512 -1.09142,-1.07262 -0.52389,-3.11188 2.1992,-7.89951 3.14947,-5.53732 5.26456,-6.844686 13.44472,-6.844686 z"
     style="fill:#323232;stroke-width:4" />
  <path
     style="opacity:0.1;fill:#ffffff;stroke-width:4"
     d="M 47.132812 16 C 42.712804 15.97387 36.399587 17.277528 31.359375 21.125 C 26.319163 24.972472 23.618914 30.184447 22.265625 34.335938 C 20.337058 40.252208 19.964838 45.250979 20.017578 50.818359 C 20.020312 45.64711 20.453565 40.894798 22.265625 35.335938 C 23.618914 31.184448 26.319163 25.972472 31.359375 22.125 C 36.399587 18.277528 42.712804 16.97387 47.132812 17 L 47.140625 17 C 56.037929 17.055999 61.366456 20.150761 66.4375 23.179688 C 71.508548 26.208614 76.15311 29.825798 80.851562 33.859375 C 84.65469 37.124309 88.216427 39.642586 92.421875 44.234375 C 93.621739 45.544415 94.639575 47.358372 95.742188 48.992188 C 95.819188 48.992188 95.92256 48.984375 96 48.984375 C 96.0774 48.984375 96.180813 48.992351 96.257812 48.992188 C 97.3606 47.358371 98.378261 45.544415 99.578125 44.234375 C 103.78374 39.642585 107.34531 37.124308 111.14844 33.859375 C 115.84689 29.825798 120.49145 26.208613 125.5625 23.179688 C 130.63355 20.150761 135.96206 17.05599 144.85938 17 L 144.86719 17 C 149.2872 16.973864 155.60041 18.277526 160.64062 22.125 C 165.68085 25.972474 168.38066 31.184472 169.73438 35.335938 C 171.54642 40.894795 171.97968 45.64711 171.98242 50.818359 C 172.03515 45.250978 171.66292 40.252204 169.73438 34.335938 C 168.38067 30.184472 165.68084 24.972474 160.64062 21.125 C 155.60041 17.277526 149.2872 15.973864 144.86719 16 L 144.85938 16 C 135.96206 16.05599 130.63355 19.150761 125.5625 22.179688 C 120.49145 25.208613 115.84689 28.825798 111.14844 32.859375 C 107.34531 36.124308 103.78374 38.642585 99.578125 43.234375 C 98.378261 44.544415 97.3606 46.358371 96.257812 47.992188 C 96.180813 47.992351 96.0774 47.984375 96 47.984375 C 95.92256 47.984375 95.819188 47.992188 95.742188 47.992188 C 94.639576 46.358372 93.621739 44.544415 92.421875 43.234375 C 88.216427 38.642586 84.65469 36.124309 80.851562 32.859375 C 76.15311 28.825798 71.508548 25.208614 66.4375 22.179688 C 61.366456 19.150761 56.037929 16.055999 47.140625 16 L 47.132812 16 z M 163.47656 92.742188 C 163.29128 93.295612 163.07142 93.846084 163.21094 94.375 C 163.21927 94.429159 163.22426 94.482977 163.23242 94.537109 C 163.2937 94.274317 163.38743 94.008418 163.47656 93.742188 C 163.76111 96.183457 163.90887 98.639565 163.9375 101.16602 C 163.94137 98.285979 163.79836 95.503061 163.47656 92.742188 z M 28.515625 92.8125 C 28.198949 95.555469 28.058132 98.321391 28.0625 101.18359 C 28.090491 98.674816 28.235833 96.235987 28.515625 93.8125 C 28.607262 94.146263 28.695402 94.410745 28.75 94.671875 C 28.764679 94.572792 28.773803 94.474171 28.789062 94.375 C 28.855622 93.806888 28.685277 93.430412 28.515625 92.8125 z "
     id="path18" />
  <path
     inkscape:connector-curvature="0"
     id="path20"
     d="M 46.953124,36 C 41.664872,35.96876 39.829974,40.51126 40.046876,54.101564 40.257516,43.614052 42.220032,39.972055 46.953124,40 c 5.040588,0.0316 12.540764,4.907252 20.859376,12.039064 8.461096,7.25394 12.772628,9.718444 15.171876,18.765624 0.653236,2.46326 1.079696,4.99242 1.585936,5.1875 2.846096,0 2.760664,-2.123844 4.015624,-3.093752 1.179252,-0.911396 3.4212,-0.91406 7.414064,-0.91406 3.99286,0 6.23481,0.0027 7.41406,0.91406 1.25496,0.969908 1.16953,3.093752 4.01563,3.093752 0.50627,-0.19508 0.9327,-2.72424 1.58593,-5.1875 2.39925,-9.04718 6.71078,-11.511684 15.17188,-18.765624 C 132.50611,44.907252 140.00629,40.03168 145.04688,40 c 4.73308,-0.02796 6.69562,3.614052 6.90624,14.101564 0.2169,-13.590304 -1.618,-18.132792 -6.90624,-18.101564 -5.04059,0.03168 -12.54077,4.907252 -20.85938,12.039064 -8.4611,7.25394 -12.77263,9.718444 -15.17188,18.765624 -0.65323,2.46326 -1.07966,4.992428 -1.58593,5.1875 -2.8461,0 -2.76067,-2.123844 -4.01563,-3.093752 -1.17925,-0.911396 -3.4212,-0.91406 -7.41406,-0.91406 -3.992864,0 -6.234812,0.0027 -7.414064,0.91406 -1.25496,0.969908 -1.169528,3.093752 -4.015624,3.093752 -0.50624,-0.19508 -0.9327,-2.72424 -1.585936,-5.1875 C 80.585128,57.757508 76.273596,55.293004 67.8125,48.039064 59.493888,40.907252 51.993712,36.031682 46.953124,36 Z m 2.101564,52.898436 -0.19532,0.609376 c -0.779172,2.424144 -1.072208,6.234868 -0.968752,11.195308 0.10612,-3.012464 0.412608,-5.46504 0.968752,-7.195308 l 1.0625,-3.304688 z m 93.890622,0 -0.86719,1.304688 1.0625,3.304688 c 0.55615,1.730268 0.86262,4.182844 0.96876,7.195308 0.10348,-4.96044 -0.1896,-8.771164 -0.96876,-11.195308 z M 79.968752,133.04688 c 0.0013,0.14952 -0.0021,0.29452 0,0.46093 0.0268,-0.094 0.06248,-0.30468 0.06248,-0.30468 0,0 -0.0582,-0.12128 -0.06248,-0.15624 z m 32.062498,0 c -0.004,0.0348 -0.0625,0.15624 -0.0625,0.15624 0,0 0.0356,0.21072 0.0625,0.30468 0.002,-0.16644 -0.001,-0.3114 0,-0.46094 z m -23.382814,17.46093 c -0.626924,1.25985 -0.426764,2.96982 0.4375,5.36719 1.515984,0.43426 1.306004,-0.56671 0.23436,-3.25781 -0.31736,-0.79694 -0.494252,-1.45339 -0.671876,-2.10938 z m 14.703124,0 c -0.17764,0.65599 -0.35452,1.31244 -0.67187,2.10938 -1.07163,2.6911 -1.28161,3.69207 0.23436,3.25781 0.86426,-2.39737 1.06442,-4.10734 0.4375,-5.36719 z"
     style="opacity:0.1;fill:#ffffff;stroke-width:4" />
</svg>
