<?xml version="1.0" encoding="UTF-8" standalone="no"?>
<svg
   xmlns:dc="http://purl.org/dc/elements/1.1/"
   xmlns:cc="http://creativecommons.org/ns#"
   xmlns:rdf="http://www.w3.org/1999/02/22-rdf-syntax-ns#"
   xmlns:svg="http://www.w3.org/2000/svg"
   xmlns="http://www.w3.org/2000/svg"
   xmlns:sodipodi="http://sodipodi.sourceforge.net/DTD/sodipodi-0.dtd"
   xmlns:inkscape="http://www.inkscape.org/namespaces/inkscape"
   width="192"
   height="192"
   version="1"
   id="svg18"
   sodipodi:docname="apps_apus_browser_pro_video_booster.svg"
   inkscape:version="0.92.3 (2405546, 2018-03-11)">
  <metadata
     id="metadata24">
    <rdf:RDF>
      <cc:Work
         rdf:about="">
        <dc:format>image/svg+xml</dc:format>
        <dc:type
           rdf:resource="http://purl.org/dc/dcmitype/StillImage" />
      </cc:Work>
    </rdf:RDF>
  </metadata>
  <defs
     id="defs22">
    <filter
       inkscape:collect="always"
       style="color-interpolation-filters:sRGB"
       id="filter865"
       x="-0.040210462"
       width="1.0804209"
       y="-0.059532607"
       height="1.1190652">
      <feGaussianBlur
         inkscape:collect="always"
         stdDeviation="2.4809593"
         id="feGaussianBlur867" />
    </filter>
    <filter
       inkscape:collect="always"
       style="color-interpolation-filters:sRGB"
       id="filter881"
       x="-0.040272686"
       width="1.0805454"
       y="-0.059396739"
       height="1.1187935">
      <feGaussianBlur
         inkscape:collect="always"
         stdDeviation="2.4847932"
         id="feGaussianBlur883" />
    </filter>
    <filter
       inkscape:collect="always"
       style="color-interpolation-filters:sRGB"
       id="filter897"
       x="-0.044748923"
       width="1.0894978"
       y="-0.051760477"
       height="1.103521">
      <feGaussianBlur
         inkscape:collect="always"
         stdDeviation="2.5458228"
         id="feGaussianBlur899" />
    </filter>
  </defs>
  <sodipodi:namedview
     pagecolor="#ffffff"
     bordercolor="#666666"
     borderopacity="1"
     objecttolerance="10"
     gridtolerance="10"
     guidetolerance="10"
     inkscape:pageopacity="0"
     inkscape:pageshadow="2"
     inkscape:window-width="1920"
     inkscape:window-height="1018"
     id="namedview20"
     showgrid="false"
     inkscape:zoom="1"
     inkscape:cx="96"
     inkscape:cy="96"
     inkscape:window-x="0"
     inkscape:window-y="32"
     inkscape:window-maximized="1"
     inkscape:current-layer="svg18" />
  <path
     inkscape:connector-curvature="0"
     id="path2"
     d="m 112,44.000752 21.79209,-4 29.88791,18.10156 c 0,0 1.3466,4.221388 0.32,5.89844 -1.33345,2.17832 -12,5.833336 -12,5.833336 0,0 -12.17722,4.698804 -17.81226,7.93974 -5.05361,2.906532 -9.8448,6.337744 -14.18774,10.226924 -11.52914,10.32454 -17.6653,18.036618 -31.12434,34.451838 -4.335216,5.28741 -9.498656,10.86051 -10.493216,17.62524 -0.2186,1.48694 0.27608,3.1131 1.093828,4.37409 C 80.51906,146.05994 84,148.00075 84,148.00075 L 52,158.044 27.846855,141.90685 c 0,0 25.790913,-7.28338 36.067685,-15.35313 15.680924,-12.31331 30.011908,-26.2027 30.011908,-26.2027 0,0 13.677962,-14.034008 20.782822,-25.541952 2.63615,-4.269828 2.10571,-8.719236 0.32156,-12.478008 -1.33354,-2.809452 -4.47815,-4.5866 -7.37786,-5.710456 C 105.2666,55.6957 100,56.000752 100,56.000752 Z"
     style="opacity:0.2;stroke-width:4;filter:url(#filter897)" />
  <path
     inkscape:connector-curvature="0"
     id="path4"
     d="m 95.846856,179.99985 c 0.15912,2.3e-4 0.31748,-0.007 0.47656,-0.008 15.188784,-0.07 30.043764,-4.46259 42.828124,-12.66407 2.20661,-1.42018 4.342,-2.94806 6.39844,-4.57812 0.14724,-0.1168 0.28316,-0.24928 0.42969,-0.3672 1.84982,-1.48236 3.63283,-3.0464 5.34375,-4.6873 0.44662,-0.43069 0.86692,-0.89354 1.30468,-1.33594 1.55169,-1.53483 3.03991,-3.13252 4.46094,-4.78906 l 0.0236,-0.0236 c 0.007,-0.008 0.0164,-0.0152 0.0236,-0.0236 1.6351,-1.95396 3.17592,-3.98492 4.61719,-6.08594 0.12728,-0.18512 0.25688,-0.3682 0.3828,-0.55468 1.34411,-1.98945 2.59799,-4.0384 3.75781,-6.14063 0.15384,-0.27788 0.30304,-0.55701 0.45313,-0.83594 1.11307,-2.06348 2.13489,-4.17489 3.0625,-6.32812 0.13892,-0.32284 0.27188,-0.64494 0.40625,-0.96875 0.83074,-2.01547 1.57876,-4.06406 2.24218,-6.14063 0.0809,-0.86231 0.39776,-1.8793 0.85157,-3 1.97399,-6.98342 2.9885,-14.20329 3.01562,-21.46061 -0.0424,-9.411696 -2.82226,-17.301836 -19.544,-19.59966 -16.72174,-2.297824 -26.08426,4.888016 -35.86225,17.279348 -8.12034,11.642382 -12.66218,36.203432 -26.789372,44.578122 -8.17826,4.84813 -12.519764,6.59207 -19.375,7.8125 -10.107496,1.79944 -20.447936,2.37658 -30.781252,-0.94531 -5.591929,-1.79766 -10.905905,-4.78006 -15.726561,-7.22656 1.497,2.44502 3.124348,4.8078 4.875,7.07812 l 1.632812,1.66406 -0.14844,0.16408 c 0.431308,0.5028 0.86884,1.00023 1.312504,1.49218 2.479088,2.8616 5.138257,5.5929 8.046873,8.125 0.166,0.15696 0.33268,0.3132 0.5,0.46874 0.0028,0.002 0.0052,0.006 0.008,0.008 0.833916,0.71337 1.747888,1.35621 2.617,2.03908 1.167016,0.93958 2.360196,1.84618 3.578128,2.71875 0.809648,0.56459 1.678432,1.07136 2.515624,1.60937 1.451748,0.95692 2.934304,1.86626 4.445312,2.72657 0.23904,0.13232 0.47894,0.261 0.718748,0.39064 2.125688,1.15008 4.3024,2.20324 6.52344,3.15625 0.21144,0.091 0.420928,0.1844 0.632812,0.27344 2.22456,0.92736 4.489892,1.75372 6.789064,2.47656 0.556836,0.17684 1.120904,0.30468 1.679684,0.46875 2.081444,0.62194 4.187356,1.15885 6.3125,1.60937 0.21044,0.0435 0.422212,0.0676 0.632816,0.10936 2.424256,0.48281 4.869588,0.853 7.328124,1.10938 0.12244,0.0124 0.24472,0.0192 0.3672,0.0312 2.536844,0.24652 5.08402,0.37168 7.632812,0.375 z"
     style="opacity:0.2;stroke-width:4;filter:url(#filter865)" />
  <path
     inkscape:connector-curvature="0"
     id="path6"
     d="M 112,40.000001 133.79209,36 163.68,54.101562 c 0,0 1.3466,4.221388 0.32,5.898439 -1.33345,2.178319 -12,5.833334 -12,5.833334 0,0 -12.17722,4.698807 -17.81226,7.939743 C 129.13413,76.679609 124.34294,80.110821 120,84 c -11.52914,10.324538 -17.66531,18.03662 -31.124343,34.45184 -4.335215,5.2874 -9.498656,10.86051 -10.493213,17.62524 -0.218612,1.48694 0.276088,3.1131 1.093826,4.37409 C 80.51906,142.05919 84,144 84,144 L 52.000001,154.04325 27.846855,137.9061 c 0,0 25.790913,-7.28338 36.067686,-15.35313 15.68092,-12.31331 30.011903,-26.202706 30.011903,-26.202706 0,0 13.677966,-14.034004 20.782826,-25.541947 2.63614,-4.269829 2.10571,-8.719237 0.32156,-12.47801 -1.33354,-2.809451 -4.47816,-4.586597 -7.37786,-5.710453 -2.38638,-0.924904 -7.652971,-0.619853 -7.652971,-0.619853 z"
     style="fill:#4d447b;stroke-width:4" />
  <path
     inkscape:connector-curvature="0"
     id="path8"
     d="m 96.078124,20.007812 c -0.15912,-2.27e-4 -0.31748,0.0071 -0.47656,0.0078 -15.188784,0.07005 -30.043768,4.462592 -42.828128,12.664063 -2.206604,1.420179 -4.342,2.948068 -6.398436,4.578125 -0.14724,0.116796 -0.28316,0.249264 -0.429688,0.367188 -1.84982,1.482566 -3.632832,3.046608 -5.343748,4.687512 -0.446624,0.430688 -0.86692,0.89354 -1.304689,1.335936 -1.551683,1.534836 -3.039907,3.132528 -4.460937,4.789064 l -0.02344,0.0236 c -0.0071,0.0084 -0.01636,0.0152 -0.02344,0.0236 -1.635097,1.953964 -3.175916,3.984924 -4.617188,6.085936 -0.127276,0.18512 -0.25686,0.3682 -0.382812,0.554688 -1.344115,1.989448 -2.597988,4.038396 -3.757812,6.140624 -0.153824,0.27788 -0.30302,0.557008 -0.453125,0.83594 -1.113069,2.06348 -2.134889,4.174892 -3.0625,6.328124 -0.138916,0.32284 -0.271868,0.644936 -0.40625,0.968748 -0.830749,2.015472 -1.578769,4.064056 -2.242187,6.140628 -0.08089,0.862316 -0.397748,1.8793 -0.851563,3 C 17.041633,85.522808 16.027118,92.742684 16,100 c 0.04241,9.4117 2.822261,17.70218 19.544,20 16.72174,2.29782 26.08426,-5.28836 35.862248,-17.67969 8.120032,-11.642378 12.661876,-36.20343 26.789064,-44.578122 8.178258,-4.848128 12.519768,-6.592064 19.374998,-7.8125 10.1075,-1.799436 20.44794,-2.37658 30.78125,0.945312 5.59193,1.79766 10.90591,4.780056 15.72656,7.226564 -1.497,-2.445024 -3.12434,-4.807808 -4.875,-7.078128 l -1.63281,-1.66406 0.14844,-0.16408 c -0.43131,-0.502796 -0.86884,-1.000228 -1.3125,-1.492172 -2.47909,-2.861604 -5.13826,-5.592908 -8.04687,-8.124999 -0.166,-0.156964 -0.33268,-0.313216 -0.5,-0.46875 -0.003,-0.0024 -0.005,-0.0054 -0.008,-0.0078 -0.83392,-0.713365 -1.74789,-1.356202 -2.617,-2.039075 -1.16702,-0.939577 -2.3602,-1.846184 -3.57813,-2.71875 -0.80965,-0.564589 -1.67843,-1.071362 -2.51563,-1.609375 -1.45174,-0.956921 -2.9343,-1.866258 -4.44531,-2.726563 -0.23905,-0.132306 -0.47894,-0.261007 -0.71875,-0.390624 -2.12568,-1.150083 -4.3024,-2.203246 -6.52344,-3.15625 -0.21145,-0.09099 -0.42092,-0.1844 -0.63281,-0.273438 -2.22456,-0.927365 -4.48989,-1.753728 -6.78906,-2.476562 -0.55684,-0.176846 -1.12091,-0.304691 -1.67969,-0.46875 -2.08144,-0.621943 -4.18735,-1.158847 -6.3125,-1.609376 -0.21045,-0.04347 -0.42221,-0.06765 -0.63281,-0.109374 -2.42426,-0.482807 -4.86959,-0.852996 -7.32813,-1.109376 -0.12244,-0.01256 -0.24472,-0.01928 -0.3672,-0.03124 -2.53684,-0.24652 -5.084016,-0.37166 -7.632808,-0.375 z"
     style="opacity:0.2;stroke-width:4;filter:url(#filter881)" />
  <path
     inkscape:connector-curvature="0"
     id="path10"
     d="m 96.078124,16.007812 c -0.15912,-2.27e-4 -0.31748,0.0071 -0.47656,0.0078 -15.188784,0.07005 -30.043768,4.462592 -42.828128,12.664063 -2.206604,1.420179 -4.342,2.948068 -6.398436,4.578125 -0.14724,0.116796 -0.28316,0.249264 -0.429688,0.367188 -1.84982,1.482566 -3.632832,3.046609 -5.343748,4.687512 -0.446624,0.430688 -0.86692,0.89354 -1.304689,1.335938 -1.551683,1.534834 -3.039907,3.132526 -4.460937,4.789062 l -0.02344,0.0236 c -0.0071,0.0084 -0.01636,0.0152 -0.02344,0.0236 -1.635097,1.953964 -3.175916,3.984924 -4.617188,6.085936 -0.127276,0.18512 -0.25686,0.3682 -0.382812,0.554688 -1.344115,1.989448 -2.597988,4.038396 -3.757812,6.140624 -0.153824,0.27788 -0.30302,0.557008 -0.453125,0.83594 -1.113069,2.06348 -2.134889,4.174892 -3.0625,6.328124 -0.138916,0.32284 -0.271868,0.644936 -0.40625,0.968748 -0.830749,2.015472 -1.578769,4.064056 -2.242187,6.140628 -0.08089,0.862316 -0.397748,1.8793 -0.851563,3 C 17.041633,81.522808 16.027118,88.742684 16,96 c 0.04241,9.4117 2.822261,17.70218 19.544,20 16.72174,2.29782 26.08426,-5.28836 35.862248,-17.679688 8.120032,-11.64238 12.661876,-36.203432 26.789064,-44.578124 8.178258,-4.848128 12.519768,-6.592064 19.374998,-7.8125 10.1075,-1.799436 20.44794,-2.37658 30.78125,0.945312 5.59193,1.79766 10.90591,4.780056 15.72656,7.226564 -1.497,-2.445024 -3.12434,-4.807808 -4.875,-7.078128 l -1.63281,-1.66406 0.14844,-0.16408 c -0.43131,-0.502796 -0.86884,-1.000228 -1.3125,-1.492172 -2.47909,-2.861604 -5.13826,-5.592907 -8.04687,-8.124999 -0.166,-0.156964 -0.33268,-0.313216 -0.5,-0.46875 -0.003,-0.0024 -0.005,-0.0054 -0.008,-0.0078 -0.83392,-0.713365 -1.74789,-1.356202 -2.617,-2.039075 -1.16702,-0.939577 -2.3602,-1.846184 -3.57813,-2.71875 -0.80965,-0.564589 -1.67843,-1.071362 -2.51563,-1.609375 -1.45174,-0.956921 -2.9343,-1.866258 -4.44531,-2.726563 -0.23905,-0.132306 -0.47894,-0.261007 -0.71875,-0.390624 -2.12568,-1.150083 -4.3024,-2.203246 -6.52344,-3.15625 -0.21145,-0.09099 -0.42092,-0.1844 -0.63281,-0.273438 -2.22456,-0.927365 -4.48989,-1.753728 -6.78906,-2.476562 -0.55684,-0.176846 -1.12091,-0.304691 -1.67969,-0.46875 -2.08144,-0.621943 -4.18735,-1.158847 -6.3125,-1.609376 -0.21045,-0.04347 -0.42221,-0.06765 -0.63281,-0.109374 -2.42426,-0.482807 -4.86959,-0.852996 -7.32813,-1.109376 -0.12244,-0.01256 -0.24472,-0.01928 -0.3672,-0.03124 -2.53684,-0.24652 -5.084016,-0.37166 -7.632808,-0.375 z"
     style="fill:#60acff;stroke-width:4" />
  <path
     style="opacity:0.2;fill:#ffffff;stroke-width:4"
     d="M 96.078125 16.007812 C 95.919005 16.007586 95.760643 16.014925 95.601562 16.015625 C 80.412779 16.085685 65.557797 20.478215 52.773438 28.679688 C 50.566834 30.099865 48.431436 31.627756 46.375 33.257812 C 46.22776 33.374609 46.09184 33.507076 45.945312 33.625 C 44.095492 35.107566 42.312479 36.671597 40.601562 38.3125 C 40.154939 38.743188 39.734644 39.20604 39.296875 39.648438 C 37.745192 41.183272 36.256968 42.780964 34.835938 44.4375 L 34.8125 44.460938 C 34.8054 44.469338 34.796142 44.475975 34.789062 44.484375 C 33.153965 46.438339 31.613147 48.4693 30.171875 50.570312 C 30.044599 50.755432 29.915015 50.938512 29.789062 51.125 C 28.444948 53.114448 27.191074 55.163397 26.03125 57.265625 C 25.877426 57.543505 25.72823 57.82263 25.578125 58.101562 C 24.465057 60.165042 23.443237 62.276456 22.515625 64.429688 C 22.376709 64.752527 22.243757 65.074625 22.109375 65.398438 C 21.278626 67.41391 20.530606 69.462491 19.867188 71.539062 C 19.786297 72.401379 19.46944 73.418363 19.015625 74.539062 C 17.041641 81.522158 16.027118 88.742684 16 96 C 16.000457 96.101343 16.010582 96.198518 16.013672 96.298828 C 16.101497 89.277982 17.105276 82.297045 19.015625 75.539062 C 19.46944 74.418363 19.786297 73.401379 19.867188 72.539062 C 20.530606 70.46249 21.278626 68.41391 22.109375 66.398438 C 22.243757 66.074625 22.376709 65.752527 22.515625 65.429688 C 23.443237 63.276455 24.465057 61.165042 25.578125 59.101562 C 25.72823 58.822631 25.877426 58.543505 26.03125 58.265625 C 27.191074 56.163397 28.444948 54.114448 29.789062 52.125 C 29.915015 51.938512 30.044599 51.755432 30.171875 51.570312 C 31.613147 49.4693 33.153965 47.438339 34.789062 45.484375 C 34.796142 45.475975 34.8054 45.469338 34.8125 45.460938 L 34.835938 45.4375 C 36.256968 43.780964 37.745192 42.183272 39.296875 40.648438 C 39.734644 40.20604 40.154939 39.743188 40.601562 39.3125 C 42.312479 37.671597 44.095492 36.107566 45.945312 34.625 C 46.09184 34.507076 46.22776 34.374609 46.375 34.257812 C 48.431436 32.627755 50.566834 31.099865 52.773438 29.679688 C 65.557797 21.478215 80.412779 17.085685 95.601562 17.015625 C 95.760643 17.014925 95.919005 17.007586 96.078125 17.007812 C 98.626917 17.011153 101.1741 17.136292 103.71094 17.382812 C 103.83342 17.394773 103.95569 17.401502 104.07812 17.414062 C 106.53667 17.670443 108.982 18.04063 111.40625 18.523438 C 111.61685 18.565162 111.82861 18.589343 112.03906 18.632812 C 114.16421 19.083341 116.27012 19.620244 118.35156 20.242188 C 118.91034 20.406247 119.47441 20.534091 120.03125 20.710938 C 122.33042 21.433772 124.59575 22.260135 126.82031 23.1875 C 127.0322 23.276538 127.24168 23.369947 127.45312 23.460938 C 129.67416 24.413941 131.85088 25.467105 133.97656 26.617188 C 134.21637 26.746804 134.45626 26.875507 134.69531 27.007812 C 136.20632 27.868118 137.68888 28.777454 139.14062 29.734375 C 139.97782 30.272388 140.8466 30.779161 141.65625 31.34375 C 142.87418 32.216316 144.06735 33.122923 145.23438 34.0625 C 146.10348 34.745373 147.01783 35.388185 147.85156 36.101562 L 147.85938 36.109375 C 148.0267 36.264909 148.19338 36.421161 148.35938 36.578125 C 151.26799 39.110217 153.92716 41.841521 156.40625 44.703125 C 156.84991 45.195069 157.28724 45.692529 157.71875 46.195312 L 157.57031 46.359375 L 159.20312 48.023438 C 160.5992 49.83392 161.91277 51.706006 163.14844 53.628906 C 163.45406 53.783967 163.78229 53.951423 164.07812 54.101562 C 162.58112 51.656539 160.95378 49.293758 159.20312 47.023438 L 157.57031 45.359375 L 157.71875 45.195312 C 157.28724 44.692529 156.84991 44.195069 156.40625 43.703125 C 153.92716 40.841521 151.26799 38.110217 148.35938 35.578125 C 148.19338 35.421161 148.02669 35.264909 147.85938 35.109375 L 147.85156 35.101562 C 147.01783 34.388185 146.10349 33.745373 145.23438 33.0625 C 144.06735 32.122923 142.87418 31.216316 141.65625 30.34375 C 140.8466 29.779161 139.97782 29.272388 139.14062 28.734375 C 137.68888 27.777454 136.20632 26.868118 134.69531 26.007812 C 134.45626 25.875507 134.21637 25.746804 133.97656 25.617188 C 131.85088 24.467105 129.67416 23.413941 127.45312 22.460938 C 127.24168 22.369947 127.0322 22.276538 126.82031 22.1875 C 124.59575 21.260135 122.33042 20.433772 120.03125 19.710938 C 119.47441 19.534091 118.91034 19.406247 118.35156 19.242188 C 116.27012 18.620244 114.16421 18.083341 112.03906 17.632812 C 111.82861 17.589343 111.61685 17.565162 111.40625 17.523438 C 108.982 17.04063 106.53667 16.670442 104.07812 16.414062 C 103.95569 16.401502 103.83342 16.394772 103.71094 16.382812 C 101.1741 16.136292 98.626917 16.011153 96.078125 16.007812 z "
     id="path12" />
  <path
     inkscape:connector-curvature="0"
     id="path14"
     d="m 95.846856,175.99985 c 0.15912,2.3e-4 0.31748,-0.007 0.47656,-0.008 15.188784,-0.07 30.043764,-4.46259 42.828124,-12.66407 2.20661,-1.42018 4.342,-2.94806 6.39844,-4.57812 0.14724,-0.1168 0.28316,-0.24928 0.42969,-0.3672 1.84982,-1.48236 3.63283,-3.0464 5.34375,-4.6873 0.44662,-0.43069 0.86692,-0.89354 1.30468,-1.33594 1.55169,-1.53483 3.03991,-3.13252 4.46094,-4.78906 l 0.0236,-0.0236 c 0.007,-0.008 0.0164,-0.0152 0.0236,-0.0236 1.6351,-1.95396 3.17592,-3.98492 4.61719,-6.08594 0.12728,-0.18512 0.25688,-0.3682 0.3828,-0.55468 1.34411,-1.98945 2.59799,-4.0384 3.75781,-6.14063 0.15384,-0.27788 0.30304,-0.55701 0.45313,-0.83594 1.11307,-2.06348 2.13489,-4.17489 3.0625,-6.32812 0.13892,-0.32284 0.27188,-0.64494 0.40625,-0.96875 0.83074,-2.01547 1.57876,-4.06406 2.24218,-6.14063 0.0809,-0.86231 0.39776,-1.8793 0.85157,-3 1.97399,-6.98342 2.9885,-14.20329 3.01562,-21.46061 -0.0424,-9.411696 -2.82226,-17.301836 -19.544,-19.59966 -16.72174,-2.297824 -26.08426,4.888016 -35.86225,17.279348 -8.12034,11.642382 -12.66218,36.203432 -26.789372,44.578122 -8.17826,4.84813 -12.519764,6.59207 -19.375,7.8125 -10.107496,1.79944 -20.447936,2.37658 -30.781252,-0.94531 -5.591929,-1.79766 -10.905905,-4.78006 -15.726561,-7.22656 1.497,2.44502 3.124348,4.8078 4.875,7.07812 l 1.632812,1.66406 -0.14844,0.16408 c 0.431308,0.5028 0.86884,1.00023 1.312504,1.49218 2.479088,2.8616 5.138257,5.5929 8.046873,8.125 0.166,0.15696 0.33268,0.3132 0.5,0.46874 0.0028,0.002 0.0052,0.006 0.008,0.008 0.833916,0.71337 1.747888,1.35621 2.617,2.03908 1.167016,0.93958 2.360196,1.84618 3.578128,2.71875 0.809648,0.56459 1.678432,1.07136 2.515624,1.60937 1.451748,0.95692 2.934304,1.86626 4.445312,2.72657 0.23904,0.13232 0.47894,0.261 0.718748,0.39064 2.125688,1.15008 4.3024,2.20324 6.52344,3.15625 0.21144,0.091 0.420928,0.1844 0.632812,0.27344 2.22456,0.92736 4.489892,1.75372 6.789064,2.47656 0.556836,0.17684 1.120904,0.30468 1.679684,0.46875 2.081444,0.62194 4.187356,1.15885 6.3125,1.60937 0.21044,0.0435 0.422212,0.0676 0.632816,0.10936 2.424256,0.48281 4.869588,0.853 7.328124,1.10938 0.12244,0.0124 0.24472,0.0192 0.3672,0.0312 2.536844,0.24652 5.08402,0.37168 7.632812,0.375 z"
     style="fill:#248dff;stroke-width:4" />
  <path
     style="fill:#ffffff;stroke-width:4;opacity:0.2"
     d="M 150.43945 75.982422 C 137.31147 75.987887 129.07527 82.845084 120.51953 93.6875 C 112.39919 105.32988 107.85766 129.89094 93.730469 138.26562 C 85.552209 143.11375 81.210705 144.8577 74.355469 146.07812 C 64.247973 147.87757 53.907535 148.4547 43.574219 145.13281 C 37.98229 143.33515 32.668312 140.35275 27.847656 137.90625 C 28.152377 138.40394 28.465787 138.89593 28.78125 139.38672 C 33.355603 141.73594 38.334641 144.44842 43.574219 146.13281 C 53.907535 149.4547 64.247973 148.87757 74.355469 147.07812 C 81.210705 145.8577 85.552209 144.11375 93.730469 139.26562 C 107.85766 130.89094 112.39919 106.32988 120.51953 94.6875 C 130.29752 82.296168 139.65912 75.110379 156.38086 77.408203 C 172.82787 79.668275 175.78091 87.342016 175.91406 96.548828 C 175.91596 96.368354 175.92511 96.188336 175.92578 96.007812 C 175.88338 86.596116 173.1026 78.706027 156.38086 76.408203 C 154.29064 76.120975 152.31488 75.981641 150.43945 75.982422 z "
     id="path904" />
</svg>
