<?xml version="1.0" encoding="UTF-8" standalone="no"?>
<svg
   xmlns:dc="http://purl.org/dc/elements/1.1/"
   xmlns:cc="http://creativecommons.org/ns#"
   xmlns:rdf="http://www.w3.org/1999/02/22-rdf-syntax-ns#"
   xmlns:svg="http://www.w3.org/2000/svg"
   xmlns="http://www.w3.org/2000/svg"
   xmlns:sodipodi="http://sodipodi.sourceforge.net/DTD/sodipodi-0.dtd"
   xmlns:inkscape="http://www.inkscape.org/namespaces/inkscape"
   width="192"
   height="192"
   version="1"
   id="svg22"
   sodipodi:docname="apps_estmob_sendanywhere.svg"
   inkscape:version="0.92.3 (2405546, 2018-03-11)">
  <metadata
     id="metadata28">
    <rdf:RDF>
      <cc:Work
         rdf:about="">
        <dc:format>image/svg+xml</dc:format>
        <dc:type
           rdf:resource="http://purl.org/dc/dcmitype/StillImage" />
        <dc:title></dc:title>
      </cc:Work>
    </rdf:RDF>
  </metadata>
  <defs
     id="defs26">
    <filter
       inkscape:collect="always"
       style="color-interpolation-filters:sRGB"
       id="filter875"
       x="-0.048"
       width="1.096"
       y="-0.048"
       height="1.096">
      <feGaussianBlur
         inkscape:collect="always"
         stdDeviation="3.2"
         id="feGaussianBlur877" />
    </filter>
    <filter
       inkscape:collect="always"
       style="color-interpolation-filters:sRGB"
       id="filter891"
       x="-0.050569274"
       width="1.1011385"
       y="-0.045679177"
       height="1.0913584">
      <feGaussianBlur
         inkscape:collect="always"
         stdDeviation="2.3601027"
         id="feGaussianBlur893" />
    </filter>
  </defs>
  <sodipodi:namedview
     pagecolor="#ffffff"
     bordercolor="#666666"
     borderopacity="1"
     objecttolerance="10"
     gridtolerance="10"
     guidetolerance="10"
     inkscape:pageopacity="0"
     inkscape:pageshadow="2"
     inkscape:window-width="1920"
     inkscape:window-height="1018"
     id="namedview24"
     showgrid="false"
     inkscape:zoom="2.63"
     inkscape:cx="24"
     inkscape:cy="100.04563"
     inkscape:window-x="0"
     inkscape:window-y="32"
     inkscape:window-maximized="1"
     inkscape:current-layer="svg22" />
  <rect
     id="rect857"
     ry="8"
     rx="8"
     y="20"
     x="16"
     height="160"
     width="160"
     style="opacity:0.2;fill:#000000;stroke-width:4;filter:url(#filter875)" />
  <rect
     style="fill:#ff5a48;stroke-width:4"
     width="160"
     height="160"
     x="16"
     y="16"
     rx="8"
     ry="8"
     id="rect2" />
  <path
     inkscape:connector-curvature="0"
     style="opacity:0.2;fill-rule:evenodd;stroke-width:4;filter:url(#filter891)"
     d="M 130.08594,33.999693 A 2.1179133,2.1179133 0 0 0 128,36.11688 v 5.88281 H 64 c 0,0 -5.670012,-0.11032 -11.578124,2.843752 C 46.513764,47.79749 40,55.333022 40,65.99969 v 60 h 16 v -60 c 0,-5.333332 1.486236,-5.7978 3.578124,-6.843752 C 61.670012,58.109998 64,57.99969 64,57.99969 h 68 17.88281 a 2.1179133,2.1179133 0 0 0 1.5,-3.617188 L 131.61719,34.61688 a 2.1179133,2.1179133 0 0 0 -1.53125,-0.617187 z M 136,65.99969 v 60 c 0,5.33334 -1.48624,5.79781 -3.57812,6.84376 C 130.32999,133.88939 128,133.99969 128,133.99969 H 61.882812 42.117188 a 2.1179133,2.1179133 0 0 0 -1.5,3.61719 l 19.765624,19.76563 a 2.1179133,2.1179133 0 0 0 1.531252,0.61718 A 2.1179133,2.1179133 0 0 0 64,155.88251 v -5.88282 h 64 c 0,0 5.67001,0.11032 11.57812,-2.84375 C 145.48624,144.20189 152,136.66636 152,125.99969 v -60 z m -56,16 c -4.432,0 -8,3.568 -8,8 v 8 c 0,4.432 3.568,8 8,8 4.432,0 8,-3.568 8,-8 v -8 c 0,-4.432 -3.568,-8 -8,-8 z m 32,0 c -4.432,0 -8,3.568 -8,8 v 8 c 0,4.432 3.568,8 8,8 4.432,0 8,-3.568 8,-8 v -8 c 0,-4.432 -3.568,-8 -8,-8 z"
     id="path4" />
  <path
     style="opacity:0.2;fill:#ffffff;stroke-width:4"
     d="M 24 16 C 19.568 16 16 19.568 16 24 L 16 25 C 16 20.568 19.568 17 24 17 L 168 17 C 172.432 17 176 20.568 176 25 L 176 24 C 176 19.568 172.432 16 168 16 L 24 16 z "
     id="path6" />
  <path
     inkscape:connector-curvature="0"
     style="fill:none;stroke:#ffffff;stroke-width:16"
     d="M 48,124 V 64 C 48,48 64,48 64,48 h 68"
     id="path10" />
  <path
     inkscape:connector-curvature="0"
     style="fill:#ffffff;stroke-width:4"
     d="M 130.08737,31.999381 A 2.1179133,2.1179133 0 0 0 128,34.117086 V 53.8823 A 2.1179133,2.1179133 0 0 0 130.1177,56 h 19.76522 a 2.1179133,2.1179133 0 0 0 1.49728,-3.614984 L 131.61498,32.619803 a 2.1179133,2.1179133 0 0 0 -1.52761,-0.620422 z"
     id="path12" />
  <path
     inkscape:connector-curvature="0"
     style="fill:none;stroke:#ffffff;stroke-width:16"
     d="m 144,63.999172 v 59.999998 c 0,16 -16,16 -16,16 H 60"
     id="path14" />
  <path
     inkscape:connector-curvature="0"
     style="fill:#ffffff;stroke-width:4"
     d="M 61.912632,155.99979 A 2.1179133,2.1179133 0 0 0 64,153.88209 v -19.76522 a 2.1179133,2.1179133 0 0 0 -2.1177,-2.1177 H 42.117084 a 2.1179133,2.1179133 0 0 0 -1.49728,3.61499 l 19.765212,19.76521 a 2.1179133,2.1179133 0 0 0 1.527616,0.62042 z"
     id="path16" />
  <rect
     style="fill:#ffffff;stroke-width:4"
     width="16"
     height="24"
     x="72"
     y="80"
     ry="8"
     id="rect18" />
  <rect
     style="fill:#ffffff;stroke-width:4"
     width="16"
     height="24"
     x="104"
     y="80"
     ry="8"
     id="rect20" />
</svg>
