<?xml version="1.0" encoding="UTF-8" standalone="no"?>
<svg
   xmlns:dc="http://purl.org/dc/elements/1.1/"
   xmlns:cc="http://creativecommons.org/ns#"
   xmlns:rdf="http://www.w3.org/1999/02/22-rdf-syntax-ns#"
   xmlns:svg="http://www.w3.org/2000/svg"
   xmlns="http://www.w3.org/2000/svg"
   xmlns:sodipodi="http://sodipodi.sourceforge.net/DTD/sodipodi-0.dtd"
   xmlns:inkscape="http://www.inkscape.org/namespaces/inkscape"
   width="192"
   height="192"
   version="1"
   id="svg20"
   sodipodi:docname="apps_mezzo_player.svg"
   inkscape:version="0.92.3 (2405546, 2018-03-11)">
  <metadata
     id="metadata26">
    <rdf:RDF>
      <cc:Work
         rdf:about="">
        <dc:format>image/svg+xml</dc:format>
        <dc:type
           rdf:resource="http://purl.org/dc/dcmitype/StillImage" />
      </cc:Work>
    </rdf:RDF>
  </metadata>
  <defs
     id="defs24">
    <filter
       inkscape:collect="always"
       style="color-interpolation-filters:sRGB"
       id="filter899"
       x="-0.048"
       width="1.096"
       y="-0.048"
       height="1.096">
      <feGaussianBlur
         inkscape:collect="always"
         stdDeviation="3.2"
         id="feGaussianBlur901" />
    </filter>
    <filter
       inkscape:collect="always"
       style="color-interpolation-filters:sRGB"
       id="filter934"
       x="-0.051306362"
       width="1.1026127"
       y="-0.045093986"
       height="1.090188">
      <feGaussianBlur
         inkscape:collect="always"
         stdDeviation="2.3942969"
         id="feGaussianBlur936" />
    </filter>
  </defs>
  <sodipodi:namedview
     pagecolor="#ffffff"
     bordercolor="#666666"
     borderopacity="1"
     objecttolerance="10"
     gridtolerance="10"
     guidetolerance="10"
     inkscape:pageopacity="0"
     inkscape:pageshadow="2"
     inkscape:window-width="1920"
     inkscape:window-height="1018"
     id="namedview22"
     showgrid="false"
     inkscape:zoom="1"
     inkscape:cx="96"
     inkscape:cy="96"
     inkscape:window-x="0"
     inkscape:window-y="32"
     inkscape:window-maximized="1"
     inkscape:current-layer="svg20" />
  <rect
     style="opacity:0.2;fill:#000000;stroke-width:4;filter:url(#filter899)"
     width="160"
     height="160"
     x="-180"
     y="-176"
     rx="80"
     ry="80"
     transform="matrix(0,-1,-1,0,0,0)"
     id="rect841" />
  <rect
     id="rect2"
     transform="matrix(0,-1,-1,0,0,0)"
     ry="80"
     rx="80"
     y="-176"
     x="-176"
     height="160"
     width="160"
     style="fill:#3f3f3f;stroke-width:4" />
  <path
     id="path920"
     d="M 132,28.570312 V 57.109375 A 56,56 0 0 0 96,44 56,56 0 0 0 40,100 56,56 0 0 0 96,156 56,56 0 0 0 152,100 V 42.820312 c -5.85276,-5.731873 -12.60124,-10.528237 -20,-14.25 z M 82.060547,72.001953 a 5.9184624,6.1832276 0 0 1 2.8125,0.837891 l 18.095703,10.902344 18.08594,10.919921 a 5.9184624,6.1832276 0 0 1 0,10.691411 l -18.08594,10.91992 -18.095703,10.90039 A 5.9184624,6.1832276 0 0 1 76,121.82422 V 78.181641 a 5.9184624,6.1832276 0 0 1 6.060547,-6.179688 z"
     style="opacity:0.2;fill:#000000;stroke-width:4;filter:url(#filter934)"
     inkscape:connector-curvature="0" />
  <path
     style="fill:#ffb600;stroke-width:4"
     d="M 132 24.570312 L 132 53.109375 A 56 56 0 0 0 96 40 A 56 56 0 0 0 40 96 A 56 56 0 0 0 96 152 A 56 56 0 0 0 152 96 L 152 38.820312 C 146.14724 33.088439 139.39876 28.292075 132 24.570312 z M 82.060547 68.001953 A 5.9184624 6.1832276 0 0 1 84.873047 68.839844 L 102.96875 79.742188 L 121.05469 90.662109 A 5.9184624 6.1832276 0 0 1 121.05469 101.35352 L 102.96875 112.27344 L 84.873047 123.17383 A 5.9184624 6.1832276 0 0 1 76 117.82422 L 76 74.181641 A 5.9184624 6.1832276 0 0 1 82.060547 68.001953 z "
     id="path6" />
  <path
     style="opacity:0.1;fill:#ffffff;stroke-width:4"
     d="M 96 16 C 51.684 16 16.007812 51.68 16.007812 96 C 16.007812 96.33544 16.009812 96.667215 16.007812 97 C 16.007812 52.68 51.684 17 96 17 C 140.316 17 175.99219 52.68 175.99219 97 C 175.99019 96.667215 175.99219 96.33544 175.99219 96 C 175.99219 51.68 140.316 16 96 16 z "
     id="path8" />
  <path
     style="fill:#ffffff;stroke-width:4;opacity:0.2"
     d="M 132 24.570312 L 132 25.570312 C 139.39876 29.292075 146.14724 34.088439 152 39.820312 L 152 38.820312 C 146.14724 33.088439 139.39876 28.292075 132 24.570312 z M 96 40 A 56 56 0 0 0 40 96 A 56 56 0 0 0 40.021484 96.416016 A 56 56 0 0 1 96 41 A 56 56 0 0 1 132 54.109375 L 132 53.109375 A 56 56 0 0 0 96 40 z M 123.97266 96.519531 A 5.9184624 6.1832276 0 0 1 121.05469 101.35352 L 102.96875 112.27344 L 84.873047 123.17383 A 5.9184624 6.1832276 0 0 1 76 117.82422 L 76 118.82422 A 5.9184624 6.1832276 0 0 0 84.873047 124.17383 L 102.96875 113.27344 L 121.05469 102.35352 A 5.9184624 6.1832276 0 0 0 123.97266 96.519531 z "
     id="path938" />
</svg>
