<?xml version="1.0" encoding="UTF-8" standalone="no"?>
<svg
   xmlns:dc="http://purl.org/dc/elements/1.1/"
   xmlns:cc="http://creativecommons.org/ns#"
   xmlns:rdf="http://www.w3.org/1999/02/22-rdf-syntax-ns#"
   xmlns:svg="http://www.w3.org/2000/svg"
   xmlns="http://www.w3.org/2000/svg"
   xmlns:sodipodi="http://sodipodi.sourceforge.net/DTD/sodipodi-0.dtd"
   xmlns:inkscape="http://www.inkscape.org/namespaces/inkscape"
   width="192"
   height="192"
   version="1"
   id="svg14"
   sodipodi:docname="apps_boat_browser.svg"
   inkscape:version="0.92.3 (2405546, 2018-03-11)">
  <metadata
     id="metadata20">
    <rdf:RDF>
      <cc:Work
         rdf:about="">
        <dc:format>image/svg+xml</dc:format>
        <dc:type
           rdf:resource="http://purl.org/dc/dcmitype/StillImage" />
      </cc:Work>
    </rdf:RDF>
  </metadata>
  <defs
     id="defs18">
    <filter
       inkscape:collect="always"
       style="color-interpolation-filters:sRGB"
       id="filter848"
       x="-0.048"
       width="1.096"
       y="-0.048"
       height="1.096">
      <feGaussianBlur
         inkscape:collect="always"
         stdDeviation="3.2"
         id="feGaussianBlur850" />
    </filter>
    <filter
       inkscape:collect="always"
       style="color-interpolation-filters:sRGB"
       id="filter864"
       x="-0.047951095"
       width="1.0959022"
       y="-0.048049005"
       height="1.096098">
      <feGaussianBlur
         inkscape:collect="always"
         stdDeviation="2.402329"
         id="feGaussianBlur866" />
    </filter>
  </defs>
  <sodipodi:namedview
     pagecolor="#ffffff"
     bordercolor="#666666"
     borderopacity="1"
     objecttolerance="10"
     gridtolerance="10"
     guidetolerance="10"
     inkscape:pageopacity="0"
     inkscape:pageshadow="2"
     inkscape:window-width="1920"
     inkscape:window-height="1018"
     id="namedview16"
     showgrid="false"
     inkscape:zoom="1"
     inkscape:cx="96"
     inkscape:cy="96"
     inkscape:window-x="0"
     inkscape:window-y="32"
     inkscape:window-maximized="1"
     inkscape:current-layer="svg14" />
  <rect
     id="rect2"
     transform="matrix(0,-1,-1,0,0,0)"
     ry="80"
     rx="80"
     y="-176"
     x="-180"
     height="160"
     width="160"
     style="opacity:0.2;stroke-width:4;filter:url(#filter848)" />
  <rect
     id="rect4"
     transform="matrix(0,-1,-1,0,0,0)"
     ry="80"
     rx="80"
     y="-176"
     x="-176"
     height="160"
     width="160"
     style="fill:#2761a9;stroke-width:4" />
  <path
     style="opacity:0.1;fill:#ffffff;stroke-width:4"
     d="M 96 16 C 51.68 16 16 51.68 16 96 C 16 96.336 16.002 96.6675 16 97 C 16 52.68 51.68 17 96 17 C 140.32 17 176 52.68 176 97 C 175.998 96.6675 176 96.336 176 96 C 176 51.68 140.32 16 96 16 z "
     id="path6" />
  <path
     inkscape:connector-curvature="0"
     id="path8"
     d="m 95.570312,40.041168 c -3.226124,0.1432 -7.778864,0.7264 -11.72656,1.601564 -24.209136,5.366928 -42.40788,22.728936 -47.039064,44.875 -2.285728,11.836656 -1.183827,26.036088 6.914064,34.460938 7.542768,7.03379 20.404932,11.61883 31.984372,11.21094 4.119824,-0.0657 6.321612,-0.17832 7.351564,-0.83594 -0.06828,-0.10132 -0.14264,-0.16884 -0.21092,-0.27344 -1.875676,-2.87394 -2.109668,-4.24211 -2.89844,-6.58593 -6.29592,-18.70815 -5.48192,-42.157308 2.77344,-58.718756 5.032576,-8.983568 11.693952,-16.663632 17.070312,-25.195312 0,-0.28456 -0.561484,-0.456424 -1.507816,-0.531252 -0.709748,-0.05612 -1.63556,-0.05554 -2.710936,-0.008 z m -1.671876,23.96094 c -0.812892,0.09184 -2.495356,2.29388 -4.015624,5.343752 -6.829588,13.701144 -7.8409,36.29015 -2.351564,52.60156 0.640556,1.90341 1.541968,4.04403 2.007816,4.75781 0.47838,0.73295 1.44454,1.29688 2.210936,1.29688 1.946376,0 7.421496,-1.94931 11.51562,-4.10157 3.62421,-1.90519 8.73438,-5.95429 8.73438,-6.92187 0,-0.30048 -1.41712,-2.55162 -3.14844,-5 C 104.82005,106.27746 102.02599,100.74963 99.125,92.728672 96.222456,84.703396 95.024044,78.697904 94.726564,70.681796 94.598404,67.229652 94.357444,64.26346 94.1875,64.09586 94.10986,64.0193 94.01458,63.98898 93.89842,64.0021 Z m 51.085944,52.007812 c -6.73443,0 -14.43143,3.9331 -28.22657,12.28125 -18.672354,11.29962 -25.14481,15.71094 -38.749998,15.71094 -7.00528,0 -18.628248,-4.84511 -22.765624,-6.96094 -3.641684,-1.86233 -3.39632,1.21933 0.867188,5.77344 7.33092,7.83057 19.578732,14.04261 32.10156,16.28906 15.290784,2.74296 31.906224,-0.87671 45.570314,-9.9375 4.90605,-3.25327 12.55847,-11.01776 16.23437,-16.46875 3.42088,-5.07281 6.70217,-12.66038 5.84376,-13.50781 -0.9496,-0.9375 -7.53731,-3.17969 -10.875,-3.17969 z"
     style="opacity:0.2;stroke-width:4;filter:url(#filter864)" />
  <path
     inkscape:connector-curvature="0"
     id="path10"
     d="m 95.570312,36.039062 c -3.226124,0.143186 -7.778864,0.726398 -11.72656,1.601563 -24.209136,5.366927 -42.40788,22.728935 -47.039064,44.874999 -2.285728,11.836656 -1.183827,26.036096 6.914064,34.460936 7.542768,7.03379 20.404932,11.61884 31.984372,11.21094 4.119824,-0.0657 6.321612,-0.17832 7.351564,-0.83594 -0.06828,-0.10132 -0.14264,-0.16884 -0.21092,-0.27344 -1.875676,-2.87394 -2.109668,-4.24211 -2.89844,-6.58593 -6.29592,-18.70815 -5.48192,-42.157306 2.77344,-58.718754 5.032576,-8.983568 11.693952,-16.663632 17.070312,-25.19531 0,-0.284568 -0.561484,-0.456424 -1.507816,-0.53125 -0.709748,-0.05612 -1.63556,-0.05554 -2.710936,-0.0078 z M 93.898436,60 c -0.812892,0.09184 -2.495356,2.29388 -4.015624,5.343752 -6.829588,13.701144 -7.8409,36.290148 -2.351564,52.601558 0.640556,1.90341 1.541968,4.04403 2.007816,4.75781 C 90.017444,123.43607 90.983604,124 91.75,124 c 1.946376,0 7.421496,-1.94931 11.51562,-4.10156 3.62421,-1.9052 8.73438,-5.9543 8.73438,-6.92188 0,-0.30048 -1.41712,-2.55162 -3.14844,-5 -4.03151,-5.70121 -6.82557,-11.229036 -9.72656,-19.249996 -2.902544,-8.025276 -4.100956,-14.030768 -4.398436,-22.046876 -0.12816,-3.452144 -0.36912,-6.418336 -0.539064,-6.585936 -0.07764,-0.07656 -0.17292,-0.10688 -0.28908,-0.09376 z m 51.085944,52.00781 c -6.73443,0 -14.43143,3.93311 -28.22657,12.28125 C 98.085456,135.58868 91.613,140 78.007812,140 c -7.00528,0 -18.628248,-4.84511 -22.765624,-6.96094 -3.641684,-1.86233 -3.39632,1.21933 0.867188,5.77344 7.33092,7.83057 19.578732,14.04262 32.10156,16.28906 15.290784,2.74296 31.906224,-0.8767 45.570314,-9.9375 4.90605,-3.25327 12.55847,-11.01776 16.23437,-16.46875 3.42088,-5.07281 6.70217,-12.66037 5.84376,-13.50781 -0.9496,-0.9375 -7.53731,-3.17969 -10.875,-3.17969 z"
     style="fill:#43c5d4;stroke-width:4" />
  <path
     style="fill:#ffffff;stroke-width:4;opacity:0.2"
     d="M 97.0625 36.003906 C 96.607906 36.003004 96.108001 36.015193 95.570312 36.039062 C 92.344189 36.182249 87.791446 36.76546 83.84375 37.640625 C 59.634614 43.007552 41.435871 60.369561 36.804688 82.515625 C 36.080398 86.26636 35.698712 90.254385 35.769531 94.220703 C 35.774094 90.586692 36.141384 86.952499 36.804688 83.517578 C 41.435871 61.371514 59.634614 44.009505 83.84375 38.642578 C 87.791446 37.767413 92.344189 37.184202 95.570312 37.041016 C 96.645689 36.993276 97.571502 36.992708 98.28125 37.048828 C 98.740861 37.085169 99.105463 37.146556 99.363281 37.230469 C 99.50339 37.01185 99.650608 36.797836 99.789062 36.578125 C 99.789062 36.293557 99.227582 36.121701 98.28125 36.046875 C 97.926376 36.018815 97.517094 36.004809 97.0625 36.003906 z M 93.898438 60 C 93.085545 60.09184 91.403081 62.293878 89.882812 65.34375 C 85.970381 73.192655 83.977048 83.957722 84.011719 94.789062 C 84.09993 84.298665 86.091164 73.9523 89.882812 66.345703 C 91.403081 63.295831 93.085545 61.093793 93.898438 61.001953 C 94.014597 60.988833 94.10986 61.019143 94.1875 61.095703 C 94.357444 61.263303 94.598403 64.229497 94.726562 67.681641 C 95.024043 75.697749 96.222456 81.70324 99.125 89.728516 C 102.02599 97.749476 104.82005 103.27731 108.85156 108.97852 C 110.19237 110.87465 111.32571 112.62364 111.77734 113.46875 C 111.92115 113.26474 112 113.09621 112 112.97656 C 112 112.67608 110.58288 110.42494 108.85156 107.97656 C 104.82005 102.27535 102.02599 96.747522 99.125 88.726562 C 96.222456 80.701286 95.024043 74.695796 94.726562 66.679688 C 94.598403 63.227544 94.357444 60.26135 94.1875 60.09375 C 94.10986 60.01719 94.014597 59.98688 93.898438 60 z M 75.804688 94.679688 C 75.756138 103.8736 77.138698 113.15436 79.945312 121.49414 C 80.686849 123.6976 80.955106 125.05505 82.541016 127.5957 C 82.734307 127.52339 82.909831 127.44405 83.054688 127.35156 C 82.986407 127.25024 82.91203 127.18273 82.84375 127.07812 C 80.968074 124.20418 80.734084 122.83601 79.945312 120.49219 C 77.240707 112.45553 75.858895 103.54429 75.804688 94.679688 z M 144.98438 112.00781 C 138.24994 112.00781 130.55295 115.94092 116.75781 124.28906 C 98.085459 135.58868 91.613001 140 78.007812 140 C 71.002533 140 59.379564 135.15489 55.242188 133.03906 C 53.246023 132.01824 52.425871 132.48881 52.787109 133.86719 C 53.044042 133.34267 53.862859 133.33564 55.242188 134.04102 C 59.379564 136.15685 71.002533 141.00195 78.007812 141.00195 C 91.613001 141.00195 98.085459 136.59064 116.75781 125.29102 C 130.55295 116.94288 138.24994 113.00977 144.98438 113.00977 C 148.32207 113.00977 154.90977 115.25195 155.85938 116.18945 C 155.89174 116.22141 155.90692 116.2814 155.92773 116.33203 C 156.0347 115.75158 156.02183 115.34788 155.85938 115.1875 C 154.90977 114.25 148.32207 112.00781 144.98438 112.00781 z "
     id="path868" />
</svg>
