<?xml version="1.0" encoding="UTF-8" standalone="no"?>
<svg
   xmlns:dc="http://purl.org/dc/elements/1.1/"
   xmlns:cc="http://creativecommons.org/ns#"
   xmlns:rdf="http://www.w3.org/1999/02/22-rdf-syntax-ns#"
   xmlns:svg="http://www.w3.org/2000/svg"
   xmlns="http://www.w3.org/2000/svg"
   xmlns:sodipodi="http://sodipodi.sourceforge.net/DTD/sodipodi-0.dtd"
   xmlns:inkscape="http://www.inkscape.org/namespaces/inkscape"
   width="192"
   height="192"
   version="1"
   id="svg14"
   sodipodi:docname="apps_netguard.svg"
   inkscape:version="0.92.3 (2405546, 2018-03-11)">
  <metadata
     id="metadata20">
    <rdf:RDF>
      <cc:Work
         rdf:about="">
        <dc:format>image/svg+xml</dc:format>
        <dc:type
           rdf:resource="http://purl.org/dc/dcmitype/StillImage" />
      </cc:Work>
    </rdf:RDF>
  </metadata>
  <defs
     id="defs18">
    <filter
       inkscape:collect="always"
       style="color-interpolation-filters:sRGB"
       id="filter850"
       x="-0.054000002"
       width="1.108"
       y="-0.043199999"
       height="1.0864">
      <feGaussianBlur
         inkscape:collect="always"
         stdDeviation="2.88"
         id="feGaussianBlur852" />
    </filter>
    <filter
       inkscape:collect="always"
       style="color-interpolation-filters:sRGB"
       id="filter863"
       x="-0.027868487"
       width="1.055737"
       y="-0.021074589"
       height="1.0421492">
      <feGaussianBlur
         inkscape:collect="always"
         stdDeviation="1.1101205"
         id="feGaussianBlur865" />
    </filter>
  </defs>
  <sodipodi:namedview
     pagecolor="#ffffff"
     bordercolor="#666666"
     borderopacity="1"
     objecttolerance="10"
     gridtolerance="10"
     guidetolerance="10"
     inkscape:pageopacity="0"
     inkscape:pageshadow="2"
     inkscape:window-width="1920"
     inkscape:window-height="1018"
     id="namedview16"
     showgrid="false"
     inkscape:zoom="4.04"
     inkscape:cx="96"
     inkscape:cy="96"
     inkscape:window-x="0"
     inkscape:window-y="32"
     inkscape:window-maximized="1"
     inkscape:current-layer="svg14" />
  <path
     style="opacity:0.2;fill:#000000;stroke-width:3.99995828;filter:url(#filter850)"
     d="m 95.999999,19.999997 -31.827833,14.460769 -32.171581,14.46858 0.0625,25.937197 c -0.213238,20.262831 0.08434,27.872147 1.35155,34.788657 5.787525,31.58859 27.386411,58.20386 55.968237,68.96795 2.461994,0.9272 4.452908,1.41098 6.617128,1.37498 2.16422,0.036 4.15513,-0.44778 6.61712,-1.37498 28.58183,-10.76409 50.18071,-37.37936 55.96824,-68.96795 1.26721,-6.91651 1.56479,-14.525826 1.35155,-34.788657 l 0.0625,-25.937197 -32.17159,-14.46858 z"
     id="path832"
     inkscape:connector-curvature="0" />
  <path
     inkscape:connector-curvature="0"
     id="path4"
     d="m 95.999999,16 -31.827833,14.460769 -32.171581,14.46858 0.0625,25.937197 c -0.213238,20.262831 0.08434,27.872146 1.35155,34.788654 5.787525,31.58859 27.386411,58.20386 55.968237,68.96795 2.461994,0.9272 4.452908,1.41098 6.617128,1.37498 2.16422,0.036 4.15513,-0.44778 6.61712,-1.37498 28.58183,-10.76409 50.18071,-37.37936 55.96824,-68.96795 1.26721,-6.916508 1.56479,-14.525823 1.35155,-34.788654 l 0.0625,-25.937197 -32.17159,-14.46858 z"
     style="fill:#ff7e40;stroke-width:3.99995828" />
  <path
     inkscape:connector-curvature="0"
     id="path6"
     d="m 96,35.576249 -25.234376,11.460943 -22.742188,10.22656 0.0392,15.664064 v 0.10936 c -0.13712,13.030088 -0.0172,20.02428 0.32812,24.960936 H 96 Z m 0,62.421879 v 64.000002 c 0.07296,-0.0268 0.28548,-0.0913 0.976564,-0.35156 22.929316,-8.63533 41.072006,-30.65997 45.874996,-56.875 0.34088,-1.8606 0.5713,-4.10842 0.75782,-6.773438 z"
     style="opacity:0.1;stroke-width:4;filter:url(#filter863)" />
  <path
     inkscape:connector-curvature="0"
     id="path8"
     d="m 96,33.578125 -25.234376,11.460939 -22.742188,10.22656 0.0392,15.664064 v 0.10936 c -0.13712,13.030088 -0.0172,20.02428 0.32812,24.960936 H 96 Z M 96,96 v 64 c 0.07296,-0.0268 0.28548,-0.0913 0.976564,-0.35156 22.929316,-8.63533 41.072006,-30.65996 45.874996,-56.875 0.34088,-1.8606 0.5713,-4.108416 0.75782,-6.773436 z"
     style="fill:#00655b;stroke-width:4" />
  <path
     style="fill:#ffffff;stroke-width:3.99995828;opacity:0.2"
     d="M 96 16 L 64.171875 30.460938 L 32 44.929688 L 32.001953 45.927734 L 64.171875 31.460938 L 96 17 L 127.82812 31.460938 L 159.99805 45.927734 L 160 44.929688 L 127.82812 30.460938 L 96 16 z M 32.060547 71.103516 C 32.030944 73.959391 32.015524 76.51064 32.007812 78.894531 C 32.017608 76.733739 32.035845 74.400041 32.0625 71.867188 L 32.060547 71.103516 z M 159.93945 71.103516 L 159.9375 71.867188 C 159.96416 74.400041 159.98239 76.733739 159.99219 78.894531 C 159.98448 76.51064 159.96906 73.959391 159.93945 71.103516 z "
     id="path854" />
</svg>
