<?xml version="1.0" encoding="UTF-8" standalone="no"?>
<svg
   xmlns:dc="http://purl.org/dc/elements/1.1/"
   xmlns:cc="http://creativecommons.org/ns#"
   xmlns:rdf="http://www.w3.org/1999/02/22-rdf-syntax-ns#"
   xmlns:svg="http://www.w3.org/2000/svg"
   xmlns="http://www.w3.org/2000/svg"
   xmlns:sodipodi="http://sodipodi.sourceforge.net/DTD/sodipodi-0.dtd"
   xmlns:inkscape="http://www.inkscape.org/namespaces/inkscape"
   width="192"
   height="192"
   version="1.1"
   id="svg18"
   sodipodi:docname="apps_openmentoring.svg"
   inkscape:version="0.92.3 (2405546, 2018-03-11)">
  <metadata
     id="metadata24">
    <rdf:RDF>
      <cc:Work
         rdf:about="">
        <dc:format>image/svg+xml</dc:format>
        <dc:type
           rdf:resource="http://purl.org/dc/dcmitype/StillImage" />
      </cc:Work>
    </rdf:RDF>
  </metadata>
  <defs
     id="defs22">
    <filter
       inkscape:collect="always"
       style="color-interpolation-filters:sRGB"
       id="filter857"
       x="-0.048"
       width="1.096"
       y="-0.048"
       height="1.096">
      <feGaussianBlur
         inkscape:collect="always"
         stdDeviation="3.2"
         id="feGaussianBlur859" />
    </filter>
    <filter
       inkscape:collect="always"
       style="color-interpolation-filters:sRGB"
       id="filter876"
       x="-0.048"
       width="1.096"
       y="-0.048"
       height="1.096">
      <feGaussianBlur
         inkscape:collect="always"
         stdDeviation="0.64"
         id="feGaussianBlur878" />
    </filter>
  </defs>
  <sodipodi:namedview
     pagecolor="#ffffff"
     bordercolor="#666666"
     borderopacity="1"
     objecttolerance="10"
     gridtolerance="10"
     guidetolerance="10"
     inkscape:pageopacity="0"
     inkscape:pageshadow="2"
     inkscape:window-width="1920"
     inkscape:window-height="1018"
     id="namedview20"
     showgrid="false"
     inkscape:zoom="1"
     inkscape:cx="96"
     inkscape:cy="96"
     inkscape:window-x="0"
     inkscape:window-y="32"
     inkscape:window-maximized="1"
     inkscape:current-layer="svg18" />
  <circle
     id="circle2"
     r="80"
     cy="100"
     cx="96"
     style="opacity:0.2;stroke-width:4;filter:url(#filter857)" />
  <circle
     id="circle4"
     r="80"
     cy="96"
     cx="96"
     style="fill:#d2d2d2;stroke-width:4" />
  <path
     style="opacity:0.2;fill:#ffffff;stroke-width:4"
     d="M 96 16 A 80 80 0 0 0 16 96 A 80 80 0 0 0 16.019531 96.472656 A 80 80 0 0 1 96 17 A 80 80 0 0 1 175.97461 96.513672 A 80 80 0 0 0 176 96 A 80 80 0 0 0 96 16 z "
     id="path6" />
  <path
     inkscape:connector-curvature="0"
     id="path8"
     d="M 96,40 A 56,56 0 0 0 40,96 56,56 0 0 0 96,152 56,56 0 0 0 152,96 56,56 0 0 0 96,40 Z m 0,8 A 48,48 0 0 1 144,96 48,48 0 0 1 96,144 48,48 0 0 1 48,96 48,48 0 0 1 96,48 Z"
     style="fill:#3d7dd9;stroke-width:4;fill-opacity:1" />
  <circle
     id="circle10"
     r="16"
     cy="66"
     cx="136"
     style="opacity:0.1;stroke-width:4;filter:url(#filter876)" />
  <circle
     id="circle12"
     r="16"
     cy="64"
     cx="136"
     style="fill:#2155a2;stroke-width:4;fill-opacity:1" />
  <path
     inkscape:connector-curvature="0"
     id="path14"
     d="M 96,68 A 28,28 0 0 0 68,96 28,28 0 0 0 96,124 28,28 0 0 0 124,96 28,28 0 0 0 96,68 Z m 0,8 A 20,20 0 0 1 116,96 20,20 0 0 1 96,116 20,20 0 0 1 76,96 20,20 0 0 1 96,76 Z"
     style="fill:#3d7dd9;stroke-width:4;fill-opacity:1" />
</svg>
