<?xml version="1.0" encoding="UTF-8" standalone="no"?>
<svg
   xmlns:dc="http://purl.org/dc/elements/1.1/"
   xmlns:cc="http://creativecommons.org/ns#"
   xmlns:rdf="http://www.w3.org/1999/02/22-rdf-syntax-ns#"
   xmlns:svg="http://www.w3.org/2000/svg"
   xmlns="http://www.w3.org/2000/svg"
   xmlns:sodipodi="http://sodipodi.sourceforge.net/DTD/sodipodi-0.dtd"
   xmlns:inkscape="http://www.inkscape.org/namespaces/inkscape"
   width="192"
   height="192"
   version="1.1"
   id="svg46"
   sodipodi:docname="apps_mnemosyne.svg"
   inkscape:version="0.92.3 (2405546, 2018-03-11)">
  <metadata
     id="metadata52">
    <rdf:RDF>
      <cc:Work
         rdf:about="">
        <dc:format>image/svg+xml</dc:format>
        <dc:type
           rdf:resource="http://purl.org/dc/dcmitype/StillImage" />
        <dc:title></dc:title>
      </cc:Work>
    </rdf:RDF>
  </metadata>
  <defs
     id="defs50">
    <filter
       inkscape:collect="always"
       style="color-interpolation-filters:sRGB"
       id="filter920"
       x="-0.065620238"
       width="1.1312405"
       y="-0.037839421"
       height="1.0756788">
      <feGaussianBlur
         inkscape:collect="always"
         stdDeviation="15.423174"
         id="feGaussianBlur922" />
    </filter>
    <filter
       inkscape:collect="always"
       style="color-interpolation-filters:sRGB"
       id="filter936"
       x="-0.059075576"
       width="1.1181512"
       y="-0.040421683"
       height="1.0808434">
      <feGaussianBlur
         inkscape:collect="always"
         stdDeviation="6.6771928"
         id="feGaussianBlur938" />
    </filter>
    <filter
       inkscape:collect="always"
       style="color-interpolation-filters:sRGB"
       id="filter952"
       x="-0.048"
       width="1.096"
       y="-0.048"
       height="1.096">
      <feGaussianBlur
         inkscape:collect="always"
         stdDeviation="0.48000488"
         id="feGaussianBlur954" />
    </filter>
    <filter
       inkscape:collect="always"
       style="color-interpolation-filters:sRGB"
       id="filter968"
       x="-0.048"
       width="1.096"
       y="-0.048"
       height="1.096">
      <feGaussianBlur
         inkscape:collect="always"
         stdDeviation="0.32000328"
         id="feGaussianBlur970" />
    </filter>
  </defs>
  <sodipodi:namedview
     pagecolor="#ffffff"
     bordercolor="#666666"
     borderopacity="1"
     objecttolerance="10"
     gridtolerance="10"
     guidetolerance="10"
     inkscape:pageopacity="0"
     inkscape:pageshadow="2"
     inkscape:window-width="1920"
     inkscape:window-height="1018"
     id="namedview48"
     showgrid="false"
     inkscape:zoom="2.63"
     inkscape:cx="24"
     inkscape:cy="100.04563"
     inkscape:window-x="0"
     inkscape:window-y="32"
     inkscape:window-maximized="1"
     inkscape:current-layer="svg46" />
  <path
     inkscape:connector-curvature="0"
     style="fill:none;stroke:#3f3f3f;stroke-width:8.00008202"
     d="m 38.000082,87.999061 c 21.895019,1.591808 21.524675,8.573455 28.000285,28.000289"
     id="path2" />
  <g
     style="opacity:0.2;filter:url(#filter920)"
     transform="matrix(0.16356087,0,0,0.16356087,21.782968,18.355005)"
     id="g8">
    <g
       id="g6">
      <path
         inkscape:connector-curvature="0"
         transform="matrix(24.455977,0,0,24.455977,-96.497486,-87.776619)"
         d="m 24.107015,4.0078125 c -5.282691,0.4265577 -8.507383,19.3262155 -8.043539,24.1601565 -0.04106,-0.02445 -0.08514,-0.03944 -0.126953,-0.0625 C 18.333553,31.802233 22.258736,38.417556 24,41 c 2.535167,-0.0082 6.516748,3.12567 10.029297,2.996094 2.339973,-0.08632 5.511967,-3.151989 4.894531,-11.787915 -0.613347,-8.631836 -11.36841,-5.818359 -11.384766,-5.818359 2.191694,-1.56199 3.957215,-3.137094 5.735922,-4.028492 2.007689,-1.247139 -0.674788,-4.989055 -3.144532,-9.429687 C 28.069606,9.2270247 26.425871,4.656145 25.190999,4.1777344 24.821202,4.03232 24.459194,3.9793753 24.107015,4.0078125 Z"
         id="path4" />
    </g>
  </g>
  <g
     style="opacity:0.2;filter:url(#filter936)"
     transform="matrix(0.16356087,0,0,0.16356087,21.383549,16.355446)"
     id="g14">
    <g
       id="g12">
      <path
         inkscape:connector-curvature="0"
         transform="matrix(24.455977,0,0,24.455977,-96.497486,-87.776619)"
         d="m 14.373044,28.197268 c -0.797351,0.977266 0.150391,2.820312 0.150391,2.820312 0,0 7.67204,11.007441 8.804687,12.283203 1.136736,1.279851 2.441014,0.629721 1.488281,-1.136719 -0.126187,-0.232449 -0.376721,-0.714536 -0.640625,-1.224609 L 17.356492,29.549611 c -0.642988,-0.987752 -0.988202,-1.499243 -1.954151,-1.789843 0,0 -0.792518,0.216077 -1.029297,0.4375 z m 0.595705,-0.400393 c -0.126758,0.0368 -0.244884,0.09791 -0.359375,0.179687 0.360279,-0.180632 0.359375,-0.179687 0.359375,-0.179687 z"
         id="path10" />
    </g>
  </g>
  <g
     style="fill:#e4e4e4"
     transform="matrix(0.16356087,0,0,0.16356087,21.782968,14.354983)"
     id="g20">
    <g
       style="fill:#e4e4e4"
       id="g18">
      <path
         inkscape:connector-curvature="0"
         style="fill:#e4e4e4"
         transform="matrix(24.455977,0,0,24.455977,-96.497486,-87.776619)"
         d="m 24.107015,4.0078125 c -5.282691,0.4265577 -8.507383,19.3262155 -8.043539,24.1601565 -0.04106,-0.02445 -0.08514,-0.03944 -0.126953,-0.0625 C 18.333553,31.802233 22.258736,38.417556 24,41 c 2.535167,-0.0082 6.516748,3.12567 10.029297,2.996094 2.339973,-0.08632 5.511967,-3.151989 4.894531,-11.787915 -0.613347,-8.631836 -11.36841,-5.818359 -11.384766,-5.818359 2.191694,-1.56199 3.957215,-3.137094 5.735922,-4.028492 2.007689,-1.247139 -0.674788,-4.989055 -3.144532,-9.429687 C 28.069606,9.2270247 26.425871,4.656145 25.190999,4.1777344 24.821202,4.03232 24.459194,3.9793753 24.107015,4.0078125 Z"
         id="path16" />
    </g>
  </g>
  <g
     style="fill:#ffffff"
     transform="matrix(0.16356087,0,0,0.16356087,21.782968,14.354983)"
     id="g26">
    <g
       style="fill:#ffffff"
       id="g24">
      <path
         style="opacity:0.2;fill:#ffffff;stroke-width:4.00004101"
         d="M 103.49414 16.005859 C 103.13717 15.992913 102.78187 16.000859 102.42969 16.029297 C 82.561263 17.633598 70.018481 84.401726 70.128906 108.46094 C 70.360329 83.598403 82.832759 18.611676 102.42969 17.029297 C 103.83842 16.915547 105.28642 17.127321 106.76562 17.708984 C 111.70516 19.622646 118.28192 37.907944 126.52539 52.726562 C 133.81454 65.832549 141.5377 77.399706 141.87109 84.574219 C 142.28093 77.504021 134.16274 65.456648 126.52539 51.724609 C 118.28192 36.905991 111.70516 18.622646 106.76562 16.708984 C 105.65622 16.272737 104.56505 16.0447 103.49414 16.005859 z M 129.94727 103.82031 C 127.45636 103.87123 125.14799 104.07299 123.14844 104.32031 C 120.85619 106.06823 118.69105 107.75599 116.15625 109.5625 C 116.16455 109.5625 116.87499 109.38061 118.0957 109.13477 C 119.82622 107.85371 121.47562 106.59589 123.14844 105.32031 C 125.14799 105.07299 127.45636 104.87123 129.94727 104.82031 C 142.78259 104.5579 160.16388 108.25613 161.69727 129.83594 C 161.91433 132.87314 161.96903 135.66712 161.95703 138.35547 C 161.9586 138.41582 161.9614 138.47882 161.96289 138.53906 C 162.00249 135.50352 161.94571 132.3122 161.69727 128.83594 C 160.16388 107.25613 142.78259 103.5579 129.94727 103.82031 z M 69.742188 112.42188 C 69.848549 112.58592 69.993721 112.82529 70.101562 112.99219 C 70.099934 112.84547 70.086738 112.74383 70.085938 112.59375 C 69.970616 112.53895 69.855749 112.48452 69.742188 112.42188 z "
         transform="matrix(6.1139318,0,0,6.1139318,-133.17958,-87.765387)"
         id="path22" />
    </g>
  </g>
  <g
     style="fill:#3f3f3f"
     transform="matrix(0.16356087,0,0,0.16356087,21.383549,14.354983)"
     id="g32">
    <g
       style="fill:#3f3f3f"
       id="g30">
      <path
         inkscape:connector-curvature="0"
         style="fill:#3f3f3f"
         transform="matrix(24.455977,0,0,24.455977,-96.497486,-87.776619)"
         d="m 14.373044,28.197268 c -0.797351,0.977266 0.150391,2.820312 0.150391,2.820312 0,0 7.67204,11.007441 8.804687,12.283203 1.136736,1.279851 2.441014,0.629721 1.488281,-1.136719 -0.126187,-0.232449 -0.376721,-0.714536 -0.640625,-1.224609 L 17.356492,29.549611 c -0.642988,-0.987752 -0.988202,-1.499243 -1.954151,-1.789843 0,0 -0.792518,0.216077 -1.029297,0.4375 z m 0.595705,-0.400393 c -0.126758,0.0368 -0.244884,0.09791 -0.359375,0.179687 0.360279,-0.180632 0.359375,-0.179687 0.359375,-0.179687 z"
         id="path28" />
    </g>
  </g>
  <circle
     style="opacity:0.2;stroke-width:4.00004101;filter:url(#filter952)"
     cx="66.000366"
     cy="117.99988"
     r="12.000122"
     id="circle34" />
  <circle
     style="fill:#4f4f4f;stroke-width:4.00004101"
     cx="66.000366"
     cy="115.99934"
     r="12.000122"
     id="circle36" />
  <circle
     style="opacity:0.1;stroke-width:4.00004101;filter:url(#filter968)"
     cx="38.00008"
     cy="89.999916"
     r="8.000082"
     id="circle38" />
  <circle
     style="fill:#4f4f4f;stroke-width:4.00004101"
     cx="38.00008"
     cy="87.999062"
     r="8.000082"
     id="circle40" />
  <path
     inkscape:connector-curvature="0"
     style="fill:#4f4f4f;stroke-width:4.00004101"
     d="m 82.227097,47.834587 c -0.382204,9e-4 -1.012155,0.0384 -1.625017,0.06252 -0.890785,2.795348 -1.737458,5.65459 -2.523466,8.586028 7.628922,-1.659945 16.106505,1.873075 20.211147,8.304772 -0.143162,-2.229634 -0.71564,-4.400217 -1.687518,-6.398505 -2.929478,-5.985761 -7.501268,-10.55308 -14.375146,-10.554796 z"
     id="path42" />
  <path
     inkscape:connector-curvature="0"
     style="fill:#4f4f4f;stroke-width:4.00004101"
     d="m 74.453577,72.092651 c -0.536189,2.688695 -1.019938,5.337638 -1.46095,7.953205 6.253819,0.446448 13.918941,3.1328 16.843919,7.718827 -0.143161,-2.229631 -0.715639,-4.400217 -1.687517,-6.398502 -2.408392,-4.898674 -8.156955,-8.236948 -13.695452,-9.27353 z"
     id="path44" />
  <g
     id="g976"
     transform="matrix(0.16356087,0,0,0.16356087,21.782968,15.35534)"
     style="fill:#ffffff">
    <g
       id="g974"
       style="fill:#ffffff" />
  </g>
</svg>
