<?xml version="1.0" encoding="UTF-8" standalone="no"?>
<svg
   xmlns:dc="http://purl.org/dc/elements/1.1/"
   xmlns:cc="http://creativecommons.org/ns#"
   xmlns:rdf="http://www.w3.org/1999/02/22-rdf-syntax-ns#"
   xmlns:svg="http://www.w3.org/2000/svg"
   xmlns="http://www.w3.org/2000/svg"
   xmlns:sodipodi="http://sodipodi.sourceforge.net/DTD/sodipodi-0.dtd"
   xmlns:inkscape="http://www.inkscape.org/namespaces/inkscape"
   width="192"
   height="192"
   version="1"
   id="svg18"
   sodipodi:docname="apps_music_folder_player.svg"
   inkscape:version="0.92.3 (2405546, 2018-03-11)">
  <metadata
     id="metadata24">
    <rdf:RDF>
      <cc:Work
         rdf:about="">
        <dc:format>image/svg+xml</dc:format>
        <dc:type
           rdf:resource="http://purl.org/dc/dcmitype/StillImage" />
      </cc:Work>
    </rdf:RDF>
  </metadata>
  <defs
     id="defs22">
    <filter
       inkscape:collect="always"
       style="color-interpolation-filters:sRGB"
       id="filter858"
       x="-0.0456"
       width="1.0912"
       y="-0.050666667"
       height="1.1013333">
      <feGaussianBlur
         inkscape:collect="always"
         stdDeviation="3.04"
         id="feGaussianBlur860" />
    </filter>
    <filter
       inkscape:collect="always"
       style="color-interpolation-filters:sRGB"
       id="filter874"
       x="-0.0396"
       width="1.0792"
       y="-0.060923077"
       height="1.1218462">
      <feGaussianBlur
         inkscape:collect="always"
         stdDeviation="2.64"
         id="feGaussianBlur876" />
    </filter>
    <filter
       inkscape:collect="always"
       style="color-interpolation-filters:sRGB"
       id="filter897"
       x="-0.048000343"
       width="1.0960007"
       y="-0.047999657"
       height="1.0959993">
      <feGaussianBlur
         inkscape:collect="always"
         stdDeviation="1.120008"
         id="feGaussianBlur899" />
    </filter>
  </defs>
  <sodipodi:namedview
     pagecolor="#ffffff"
     bordercolor="#666666"
     borderopacity="1"
     objecttolerance="10"
     gridtolerance="10"
     guidetolerance="10"
     inkscape:pageopacity="0"
     inkscape:pageshadow="2"
     inkscape:window-width="1920"
     inkscape:window-height="1018"
     id="namedview20"
     showgrid="false"
     inkscape:zoom="1"
     inkscape:cx="96"
     inkscape:cy="96"
     inkscape:window-x="0"
     inkscape:window-y="32"
     inkscape:window-maximized="1"
     inkscape:current-layer="svg18" />
  <path
     style="opacity:0.2;fill:#000000;stroke-width:3.99942517;filter:url(#filter858)"
     d="M 23.185367,28.000679 C 19.161044,28.059253 16,31.883722 16,36.037632 V 75.69324 148.00825 164.0021 C 16,168.43294 19.567911,172 23.9998,172 h 143.9964 c 4.43123,0 7.99874,-3.56602 7.9998,-7.99595 v -15.9216 c 2.2e-4,-0.025 0.004,-0.0492 0.004,-0.0742 V 52.033454 c 0,-7.997901 -7.5916,-7.997901 -7.5916,-7.997901 H 83.9983 c 0,-9.59006 0,-15.995802 -7.9998,-15.995802 H 23.9998 c -0.275293,-0.03059 -0.546144,-0.04296 -0.814433,-0.03905 z"
     id="path841"
     inkscape:connector-curvature="0" />
  <path
     inkscape:connector-curvature="0"
     id="path2"
     d="M 16,144.00251 V 32.037688 c 0,-4.430608 3.595155,-8.486934 7.9999,-7.997488 h 51.99935 c 7.9999,0 7.9999,6.405412 7.9999,15.994975 h 84.41094 c 0,0 7.58991,0 7.58991,7.997488 V 144.00251 C 176,148.43312 172.43204,152 168.0001,152 H 24.0019 c -4.431945,0 -7.9999,-3.56688 -7.9999,-7.99749 z"
     style="fill:#a9a9a9;stroke-width:3.99934673" />
  <path
     inkscape:connector-curvature="0"
     id="path4"
     d="M 176,156.0042 V 68.037198 c 0,-4.430338 -3.59512,-8.486416 -8,-7.997 H 104 88 24 c -8,0 -8,7.663925 -8,7.663925 V 156.003 c 0,4.43034 3.568,7.997 8,7.997 h 144 c 4.432,0 8,-3.56666 8,-7.997 z"
     style="opacity:0.2;stroke-width:3.99924994;filter:url(#filter874)" />
  <rect
     id="rect6"
     ry="8"
     rx="8"
     y="52"
     x="24"
     height="64"
     width="144"
     style="fill:#ffffff;stroke-width:4" />
  <path
     inkscape:connector-curvature="0"
     id="path8"
     d="M 176,160.0042 V 72.037198 c 0,-4.430338 -3.59512,-8.486416 -8,-7.997 H 104 88 24 c -8,0 -8,7.663925 -8,7.663925 V 160.003 c 0,4.43034 3.568,7.997 8,7.997 h 144 c 4.432,0 8,-3.56666 8,-7.997 z"
     style="fill:#e4e4e4;stroke-width:3.99924994" />
  <path
     style="opacity:0.1;fill:#000000;stroke-width:4;filter:url(#filter897)"
     d="m 89.376,89.9992 c -2.956,0 -5.376,2.42 -5.376,5.376 V 122.75 C 82.73412,122.29592 81.42212,122 80,122 c -6.6272,0 -12,5.3728 -12,12 0,6.6272 5.3728,12 12,12 6.6272,0 12,-5.3728 12,-12 v -28 h 24 v 16.75 c -1.26588,-0.45408 -2.57788,-0.75 -4,-0.75 -6.6272,0 -12,5.3728 -12,12 0,6.6272 5.3728,12 12,12 6.6272,0 12,-5.3728 12,-12 V 94 h -0.25 c -0.59524,-2.29632 -2.63744,-4 -5.1248,-4 h -29.25 z"
     id="path883"
     inkscape:connector-curvature="0" />
  <path
     inkscape:connector-curvature="0"
     id="path14"
     d="m 89.376,87.9992 c -2.956,0 -5.376,2.42 -5.376,5.376 V 120.75 C 82.73412,120.29592 81.42212,120 80,120 c -6.6272,0 -12,5.3728 -12,12 0,6.6272 5.3728,12 12,12 6.6272,0 12,-5.3728 12,-12 v -28 h 24 v 16.75 c -1.26588,-0.45408 -2.57788,-0.75 -4,-0.75 -6.6272,0 -12,5.3728 -12,12 0,6.6272 5.3728,12 12,12 6.6272,0 12,-5.3728 12,-12 V 92 h -0.25 c -0.59524,-2.29632 -2.63744,-4 -5.1248,-4 h -29.25 z"
     style="fill:#007fb6;stroke-width:4" />
  <path
     style="fill:#ffffff;stroke-width:3.99934673;opacity:0.1"
     d="M 23.183594 24 C 19.15922 24.058576 16 27.883414 16 32.037109 L 16 33.037109 C 16 28.606501 19.595255 24.55157 24 25.041016 L 76 25.041016 C 83.9999 25.041016 84 31.445593 84 41.035156 L 168.41016 41.035156 C 168.41016 41.035156 176 41.035715 176 49.033203 L 176 48.033203 C 176 40.035715 168.41016 40.035156 168.41016 40.035156 L 84 40.035156 C 84 30.445593 83.9999 24.041016 76 24.041016 L 24 24.041016 C 23.724703 24.010425 23.451885 23.996095 23.183594 24 z "
     id="path878" />
</svg>
