<?xml version="1.0" encoding="UTF-8" standalone="no"?>
<svg
   xmlns:dc="http://purl.org/dc/elements/1.1/"
   xmlns:cc="http://creativecommons.org/ns#"
   xmlns:rdf="http://www.w3.org/1999/02/22-rdf-syntax-ns#"
   xmlns:svg="http://www.w3.org/2000/svg"
   xmlns="http://www.w3.org/2000/svg"
   xmlns:sodipodi="http://sodipodi.sourceforge.net/DTD/sodipodi-0.dtd"
   xmlns:inkscape="http://www.inkscape.org/namespaces/inkscape"
   width="192"
   height="192"
   version="1.1"
   id="svg24"
   sodipodi:docname="apps_totalcmd.svg"
   inkscape:version="0.92.3 (2405546, 2018-03-11)">
  <metadata
     id="metadata30">
    <rdf:RDF>
      <cc:Work
         rdf:about="">
        <dc:format>image/svg+xml</dc:format>
        <dc:type
           rdf:resource="http://purl.org/dc/dcmitype/StillImage" />
        <dc:title></dc:title>
      </cc:Work>
    </rdf:RDF>
  </metadata>
  <defs
     id="defs28">
    <filter
       inkscape:collect="always"
       style="color-interpolation-filters:sRGB"
       id="filter880"
       x="-0.041846154"
       width="1.0836923"
       y="-0.056275862"
       height="1.1125517">
      <feGaussianBlur
         inkscape:collect="always"
         stdDeviation="1.36"
         id="feGaussianBlur882" />
    </filter>
    <filter
       inkscape:collect="always"
       style="color-interpolation-filters:sRGB"
       id="filter909"
       x="-0.048"
       width="1.096"
       y="-0.048"
       height="1.096">
      <feGaussianBlur
         inkscape:collect="always"
         stdDeviation="3.2"
         id="feGaussianBlur911" />
    </filter>
  </defs>
  <sodipodi:namedview
     pagecolor="#ffffff"
     bordercolor="#666666"
     borderopacity="1"
     objecttolerance="10"
     gridtolerance="10"
     guidetolerance="10"
     inkscape:pageopacity="0"
     inkscape:pageshadow="2"
     inkscape:window-width="1920"
     inkscape:window-height="1018"
     id="namedview26"
     showgrid="false"
     inkscape:zoom="1"
     inkscape:cx="163.22128"
     inkscape:cy="139.76072"
     inkscape:window-x="0"
     inkscape:window-y="32"
     inkscape:window-maximized="1"
     inkscape:current-layer="svg24">
    <inkscape:grid
       type="xygrid"
       id="grid845" />
  </sodipodi:namedview>
  <path
     sodipodi:nodetypes="ssssssccs"
     inkscape:connector-curvature="0"
     id="path891"
     d="m 24,20 c -4.432,0 -8,3.568 -8,8 v 144 c 0,4.432 3.568,8 8,8 h 144 c 4.432,0 8,-3.568 8,-8 V 46.251256 C 176,46.251256 153,20 153.26633,20 Z"
     style="opacity:0.2;fill:#000000;fill-opacity:1;stroke-width:4;filter:url(#filter909)" />
  <path
     style="fill:#2d66cd;fill-opacity:1;stroke-width:4"
     d="m 24,16 c -4.432,0 -8,3.568 -8,8 v 144 c 0,4.432 3.568,8 8,8 h 144 c 4.432,0 8,-3.568 8,-8 V 42.251256 C 176,42.251256 153,16 153.26633,16 Z"
     id="rect2"
     inkscape:connector-curvature="0"
     sodipodi:nodetypes="ssssssccs" />
  <path
     inkscape:connector-curvature="0"
     style="opacity:0.1;fill:#ffffff;fill-opacity:1;stroke-width:4"
     d="m 24,16 c -4.432,0 -8,3.568 -8,8 v 1 c 0,-4.432 3.568,-8 8,-8 H 153.26562 C 152.99929,17 176,43.251953 176,43.251953 v -1 C 176,42.251953 152.99929,16 153.26562,16 Z"
     id="path913" />
  <rect
     style="opacity:0.2;fill:#000000;fill-opacity:1;stroke:none;stroke-width:23.67793083;stroke-linecap:round;stroke-linejoin:round;stroke-miterlimit:4;stroke-dasharray:none;stroke-opacity:1"
     id="rect839"
     width="94"
     height="58"
     x="42"
     y="16"
     rx="2.9742856"
     ry="2.9452684" />
  <path
     id="path866"
     d="m 61,18 c -1.662,0 -3,1.338 -3,3 v 52 c 0,1.662 1.338,3 3,3 h 72 c 1.662,0 3,-1.338 3,-3 V 21 c 0,-1.662 -1.338,-3 -3,-3 z m 49.87109,10 h 10.25782 C 122.71984,28 124,29.290426 124,30.894531 V 67.105469 C 124,68.709574 122.71984,70 121.12891,70 H 110.87109 C 109.28016,70 108,68.709574 108,67.105469 V 30.894531 C 108,29.290426 109.28016,28 110.87109,28 Z"
     style="opacity:0.2;fill:#000000;fill-opacity:1;stroke:none;stroke-width:23.75082397;stroke-linecap:round;stroke-linejoin:round;stroke-miterlimit:4;stroke-dasharray:none;stroke-opacity:1;filter:url(#filter880)"
     inkscape:connector-curvature="0" />
  <path
     inkscape:connector-curvature="0"
     style="opacity:1;fill:#a0b3d5;fill-opacity:1;stroke:none;stroke-width:23.75082397;stroke-linecap:round;stroke-linejoin:round;stroke-miterlimit:4;stroke-dasharray:none;stroke-opacity:1"
     d="m 61,16 c -1.662,0 -3,1.338 -3,3 v 52 c 0,1.662 1.338,3 3,3 h 72 c 1.662,0 3,-1.338 3,-3 V 19 c 0,-1.662 -1.338,-3 -3,-3 z m 49.87109,10 h 10.25782 C 122.71984,26 124,27.290426 124,28.894531 V 65.105469 C 124,66.709574 122.71984,68 121.12891,68 H 110.87109 C 109.28016,68 108,66.709574 108,65.105469 V 28.894531 C 108,27.290426 109.28016,26 110.87109,26 Z"
     id="rect834" />
  <path
     inkscape:connector-curvature="0"
     style="opacity:1;fill:#ffffff;fill-opacity:1;stroke:none;stroke-width:23.73010254;stroke-linecap:round;stroke-linejoin:round;stroke-miterlimit:4;stroke-dasharray:none;stroke-opacity:1"
     d="m 46,88 c -3.324,0 -6,2.676 -6,6 v 72 H 152 V 94 c 0,-3.324 -2.676,-6 -6,-6 z"
     id="rect841" />
  <path
     style="fill:none;stroke:#e54441;stroke-width:6;stroke-linecap:round;stroke-linejoin:miter;stroke-miterlimit:4;stroke-dasharray:none;stroke-opacity:1"
     d="m 50,108 h 92"
     id="path843"
     inkscape:connector-curvature="0"
     sodipodi:nodetypes="cc" />
  <path
     sodipodi:nodetypes="cc"
     inkscape:connector-curvature="0"
     id="path847"
     d="m 50,127 h 92"
     style="fill:none;stroke:#e54441;stroke-width:6;stroke-linecap:round;stroke-linejoin:miter;stroke-miterlimit:4;stroke-dasharray:none;stroke-opacity:1" />
  <path
     style="fill:none;stroke:#e54441;stroke-width:6;stroke-linecap:round;stroke-linejoin:miter;stroke-miterlimit:4;stroke-dasharray:none;stroke-opacity:1"
     d="m 50,146 h 92"
     id="path851"
     inkscape:connector-curvature="0"
     sodipodi:nodetypes="cc" />
  <rect
     style="opacity:1;fill:#e54441;fill-opacity:1;stroke:none;stroke-width:6.3245554;stroke-linecap:round;stroke-linejoin:round;stroke-miterlimit:4;stroke-dasharray:none;stroke-opacity:1"
     id="rect853"
     width="112"
     height="10"
     x="40"
     y="166" />
  <rect
     style="opacity:0.3;fill:#000000;fill-opacity:1;stroke:none;stroke-width:8.30104351;stroke-linecap:round;stroke-linejoin:round;stroke-miterlimit:4;stroke-dasharray:none;stroke-opacity:1"
     id="rect862"
     width="8"
     height="8"
     x="24"
     y="156" />
  <rect
     y="156"
     x="160"
     height="8"
     width="8"
     id="rect864"
     style="opacity:0.3;fill:#000000;fill-opacity:1;stroke:none;stroke-width:8.30104351;stroke-linecap:round;stroke-linejoin:round;stroke-miterlimit:4;stroke-dasharray:none;stroke-opacity:1" />
  <path
     inkscape:connector-curvature="0"
     style="opacity:0.2;fill:#ffffff;fill-opacity:1;stroke:none;stroke-width:23.75082397;stroke-linecap:round;stroke-linejoin:round;stroke-miterlimit:4;stroke-dasharray:none;stroke-opacity:1"
     d="m 61,16 c -1.662,0 -3,1.338 -3,3 v 1 c 0,-1.662 1.338,-3 3,-3 h 72 c 1.662,0 3,1.338 3,3 v -1 c 0,-1.662 -1.338,-3 -3,-3 z m 47,49.105469 v 1 C 108,67.709574 109.28016,69 110.87109,69 h 10.25782 C 122.71984,69 124,67.709574 124,66.105469 v -1 C 124,66.709574 122.71984,68 121.12891,68 H 110.87109 C 109.28016,68 108,66.709574 108,65.105469 Z"
     id="path884" />
</svg>
