<?xml version="1.0" encoding="UTF-8" standalone="no"?>
<svg
   xmlns:dc="http://purl.org/dc/elements/1.1/"
   xmlns:cc="http://creativecommons.org/ns#"
   xmlns:rdf="http://www.w3.org/1999/02/22-rdf-syntax-ns#"
   xmlns:svg="http://www.w3.org/2000/svg"
   xmlns="http://www.w3.org/2000/svg"
   xmlns:sodipodi="http://sodipodi.sourceforge.net/DTD/sodipodi-0.dtd"
   xmlns:inkscape="http://www.inkscape.org/namespaces/inkscape"
   width="192"
   height="192"
   version="1"
   id="svg16"
   sodipodi:docname="apps_laya_music_player.svg"
   inkscape:version="0.92.3 (2405546, 2018-03-11)">
  <metadata
     id="metadata22">
    <rdf:RDF>
      <cc:Work
         rdf:about="">
        <dc:format>image/svg+xml</dc:format>
        <dc:type
           rdf:resource="http://purl.org/dc/dcmitype/StillImage" />
      </cc:Work>
    </rdf:RDF>
  </metadata>
  <defs
     id="defs20">
    <filter
       inkscape:collect="always"
       style="color-interpolation-filters:sRGB"
       id="filter853"
       x="-0.048"
       width="1.096"
       y="-0.048"
       height="1.096">
      <feGaussianBlur
         inkscape:collect="always"
         stdDeviation="3.2"
         id="feGaussianBlur855" />
    </filter>
    <filter
       inkscape:collect="always"
       style="color-interpolation-filters:sRGB"
       id="filter876"
       x="-0.052799693"
       width="1.1055994"
       y="-0.044000213"
       height="1.0880004">
      <feGaussianBlur
         inkscape:collect="always"
         stdDeviation="0.87999496"
         id="feGaussianBlur878" />
    </filter>
    <filter
       inkscape:collect="always"
       style="color-interpolation-filters:sRGB"
       id="filter893"
       x="-0.011459184"
       width="1.0229184"
       y="-0.012594393"
       height="1.0251888">
      <feGaussianBlur
         inkscape:collect="always"
         stdDeviation="0.68742341"
         id="feGaussianBlur895" />
    </filter>
  </defs>
  <sodipodi:namedview
     pagecolor="#ffffff"
     bordercolor="#666666"
     borderopacity="1"
     objecttolerance="10"
     gridtolerance="10"
     guidetolerance="10"
     inkscape:pageopacity="0"
     inkscape:pageshadow="2"
     inkscape:window-width="1920"
     inkscape:window-height="1018"
     id="namedview18"
     showgrid="false"
     inkscape:zoom="2.67"
     inkscape:cx="96"
     inkscape:cy="96"
     inkscape:window-x="0"
     inkscape:window-y="32"
     inkscape:window-maximized="1"
     inkscape:current-layer="svg16" />
  <rect
     style="opacity:0.2;fill:#000000;stroke-width:4;filter:url(#filter853)"
     width="160"
     height="160"
     x="-180"
     y="-176"
     rx="80"
     ry="80"
     transform="matrix(0,-1,-1,0,0,0)"
     id="rect835" />
  <rect
     id="rect2"
     transform="matrix(0,-1,-1,0,0,0)"
     ry="80"
     rx="80"
     y="-176"
     x="-176"
     height="160"
     width="160"
     style="fill:#087abf;stroke-width:4" />
  <path
     style="opacity:0.2;fill:#ffffff;stroke-width:4"
     d="M 96 16 C 51.684 16 16.007812 51.68 16.007812 96 C 16.007812 96.33544 16.009812 96.667215 16.007812 97 C 16.007812 52.68 51.684 17 96 17 C 140.316 17 175.99219 52.68 175.99219 97 C 175.99019 96.667215 175.99219 96.33544 175.99219 96 C 175.99219 51.68 140.316 16 96 16 z "
     id="path4" />
  <path
     inkscape:connector-curvature="0"
     id="path8"
     d="M 85.050208,74.002041 A 4.9320528,5.2998536 0 0 0 80,79.299061 v 37.407249 a 4.9320528,5.2998536 0 0 0 7.394184,4.58607 l 15.079596,-9.34401 15.07249,-9.35962 a 4.9320528,5.2998536 0 0 0 0,-9.164313 L 102.47378,84.064809 87.394184,74.720813 a 4.9320528,5.2998536 0 0 0 -2.343976,-0.718772 z"
     style="opacity:0.1;fill:#000000;stroke-width:4;filter:url(#filter876)" />
  <path
     inkscape:connector-curvature="0"
     id="path10"
     d="M 85.050208,72.001776 A 4.9320528,5.2998536 0 0 0 80,77.298796 v 37.407254 a 4.9320528,5.2998536 0 0 0 7.394184,4.58606 l 15.079596,-9.344 15.07249,-9.35963 a 4.9320528,5.2998536 0 0 0 0,-9.164308 L 102.47378,82.064544 87.394184,72.720548 a 4.9320528,5.2998536 0 0 0 -2.343976,-0.718772 z"
     style="fill:#ffffff;stroke-width:4" />
  <path
     inkscape:connector-curvature="0"
     id="path12"
     d="m 88,28 c -2.216,0 -4,1.530259 -4,3.429688 V 48.570312 C 84,50.46974 85.784,52 88,52 c 2.216,0 4,-1.53026 4,-3.429688 V 31.429688 C 92,29.530259 90.216,28 88,28 Z m 16,0 c -2.216,0 -4,1.530259 -4,3.429688 V 48.570312 C 100,50.46974 101.784,52 104,52 c 2.216,0 4,-1.53026 4,-3.429688 V 31.429688 C 108,29.530259 106.216,28 104,28 Z M 37.976564,84 c -0.32996,0.0124 -0.652304,0.13612 -0.9375,0.35936 l -6.03125,4.671872 -6.023437,4.679688 c -1.311853,1.020832 -1.311853,3.565108 0,4.58594 l 6.023437,4.67969 6.03125,4.67187 c 1.31615,1.02308 2.962812,-0.25429 2.960936,-2.29686 v -9.234372 c 0.0292,0.904768 0.400524,1.726796 0.984376,2.179688 l 6.023436,4.679684 6.031252,4.67188 C 54.355212,108.67148 56.001876,107.39413 56,105.35156 V 96 86.648436 C 55.999728,85.158536 55.085392,83.961776 53.976564,84 c -0.32996,0.0124 -0.652304,0.13612 -0.9375,0.35936 l -6.031252,4.671872 -6.023436,4.679688 C 40.407244,94.157916 40.037024,94.965916 40,95.859376 v -9.21094 C 39.999731,85.158536 39.085391,83.961772 37.976564,84 Z M 138.02344,84 C 136.91461,83.961776 136.00027,85.158536 136,86.648436 V 96 v 9.35156 c -0.002,2.04257 1.64479,3.31992 2.96094,2.29688 l 6.03125,-4.67188 6.02343,-4.679684 c 0.58386,-0.452892 0.9551,-1.27492 0.98438,-2.179688 v 9.234372 c -0.002,2.04257 1.64479,3.31992 2.96094,2.29688 l 6.03125,-4.67188 6.02343,-4.679684 c 1.31186,-1.020832 1.31186,-3.565108 0,-4.58594 l -6.02343,-4.679688 -6.03125,-4.671872 C 154.67574,84.13612 154.3534,84.012552 154.02344,84 152.91461,83.961776 152.00027,85.158536 152,86.648436 v 9.21094 c -0.0372,-0.89346 -0.40724,-1.701476 -0.98438,-2.14844 l -6.02343,-4.679688 -6.03125,-4.671872 C 138.67574,84.13612 138.3534,84.012552 138.02344,84 Z m -36,43.96875 c -1.10746,-0.0318 -2.02121,0.96308 -2.02344,2.20313 v 6.10156 c -2.940056,-0.30252 -6.814616,-0.57679 -11.078124,-0.40625 -3.883016,0.15532 -7.817576,0.66848 -11.039064,2.08593 C 74.661324,139.37058 72,142.13542 72,145.96875 c -0.0384,2.70465 4.038252,2.70465 4,0 0,-2.16667 1.088676,-3.30183 3.492188,-4.35937 2.403512,-1.05755 5.968952,-1.59751 9.585936,-1.74219 4.33068,-0.17324 8.102592,0.13044 10.921876,0.4375 v 5.46093 c 0.003,1.69867 1.64747,2.75706 2.96094,1.90626 l 6.03125,-3.89063 6.02343,-3.89844 c 1.31052,-0.85098 1.31052,-2.96933 0,-3.82031 l -6.02343,-3.89844 -6.03125,-3.89844 c -0.2854,-0.18512 -0.60774,-0.2872 -0.9375,-0.29688 z m 11.94531,20 c -1.10458,0.0172 -1.98603,0.92667 -1.96875,2.03125 0,2.16667 -1.08868,3.30183 -3.49219,4.35938 -2.40351,1.05754 -5.96895,1.5975 -9.585934,1.74218 C 94.591196,156.2748 90.819284,155.97112 88,155.66406 v -5.46094 c -0.0035,-1.69866 -1.647472,-2.75705 -2.960936,-1.90624 l -6.031252,3.89062 -6.023436,3.89844 c -1.310512,0.85098 -1.310512,2.96933 0,3.82031 l 6.023436,3.89844 6.031252,3.89843 c 0.2854,0.18512 0.60774,0.2872 0.9375,0.29688 1.10746,0.032 2.021208,-0.96308 2.023436,-2.20312 v -6.10157 c 2.940056,0.30252 6.814616,0.57679 11.078124,0.40625 3.883016,-0.15532 7.817576,-0.66848 11.039066,-2.08594 C 113.33868,156.59817 116,153.83333 116,150 c 0.0176,-1.12906 -0.90219,-2.04892 -2.03125,-2.03125 z"
     style="opacity:0.4;stroke-width:4" />
  <path
     style="opacity:0.1;stroke-width:4;fill:#000000;filter:url(#filter893)"
     d="M 88 28 C 85.784 28 84 29.530259 84 31.429688 L 84 33.429688 C 84 31.530258 85.784 30 88 30 C 90.216 30 92 31.530258 92 33.429688 L 92 31.429688 C 92 29.530259 90.216 28 88 28 z M 104 28 C 101.784 28 100 29.530259 100 31.429688 L 100 33.429688 C 100 31.530258 101.784 30 104 30 C 106.216 30 108 31.530258 108 33.429688 L 108 31.429688 C 108 29.530259 106.216 28 104 28 z M 37.976562 84 C 37.646603 84.0124 37.324258 84.136135 37.039062 84.359375 L 31.007812 89.03125 L 24.984375 93.710938 C 24.076044 94.417765 23.812578 95.847758 24.162109 97.003906 C 24.317387 96.490293 24.580853 96.024942 24.984375 95.710938 L 31.007812 91.03125 L 37.039062 86.359375 C 37.324258 86.136135 37.646603 86.0124 37.976562 86 C 39.08539 85.961772 39.999731 87.158537 40 88.648438 L 40 86.648438 C 39.999731 85.158537 39.085389 83.961772 37.976562 84 z M 53.976562 84 C 53.646603 84.0124 53.324259 84.136135 53.039062 84.359375 L 47.007812 89.03125 L 40.984375 93.710938 C 40.407243 94.157934 40.037024 94.965915 40 95.859375 L 40 96.117188 C 40.010022 96.427733 40.072811 96.72053 40.158203 97 C 40.322297 96.467811 40.602423 96.006764 40.984375 95.710938 L 47.007812 91.03125 L 53.039062 86.359375 C 53.324259 86.136135 53.646603 86.0124 53.976562 86 C 55.08539 85.961776 55.999728 87.158537 56 88.648438 L 56 86.648438 C 55.999728 85.158537 55.08539 83.961776 53.976562 84 z M 138.02344 84 C 136.91461 83.961776 136.00027 85.158537 136 86.648438 L 136 88.648438 C 136.00027 87.158537 136.91461 85.96178 138.02344 86 C 138.3534 86.012552 138.67574 86.136119 138.96094 86.359375 L 144.99219 91.03125 L 151.01562 95.710938 C 151.39758 96.006743 151.6777 96.467809 151.8418 97 C 151.92719 96.72053 151.98995 96.427733 152 96.117188 L 152 95.859375 C 151.9628 94.965915 151.59276 94.157901 151.01562 93.710938 L 144.99219 89.03125 L 138.96094 84.359375 C 138.67574 84.136119 138.3534 84.012552 138.02344 84 z M 154.02344 84 C 152.91461 83.961776 152.00027 85.158537 152 86.648438 L 152 88.648438 C 152.00027 87.158538 152.91461 85.96178 154.02344 86 C 154.3534 86.012552 154.67574 86.136119 154.96094 86.359375 L 160.99219 91.03125 L 167.01562 95.710938 C 167.41915 96.024942 167.68261 96.490293 167.83789 97.003906 C 168.18742 95.847758 167.92396 94.417765 167.01562 93.710938 L 160.99219 89.03125 L 154.96094 84.359375 C 154.67574 84.136119 154.3534 84.012552 154.02344 84 z M 102.02344 127.96875 C 100.91598 127.93695 100.00223 128.93183 100 130.17188 L 100 132.17188 C 100.00223 130.93183 100.91598 129.93695 102.02344 129.96875 C 102.3532 129.97843 102.67554 130.0805 102.96094 130.26562 L 108.99219 134.16406 L 115.01562 138.0625 C 115.36639 138.29027 115.61435 138.6119 115.77734 138.97266 C 116.22318 137.98561 115.9753 136.68566 115.01562 136.0625 L 108.99219 132.16406 L 102.96094 128.26562 C 102.67554 128.0805 102.3532 127.97843 102.02344 127.96875 z M 92.037109 135.81641 C 91.028375 135.80995 89.987752 135.82455 88.921875 135.86719 C 85.038859 136.02251 81.1043 136.53567 77.882812 137.95312 C 74.661324 139.37059 72 142.13542 72 145.96875 C 71.996245 146.23323 72.042127 146.46303 72.109375 146.67578 C 72.631703 143.51184 75.036343 141.20558 77.882812 139.95312 C 81.1043 138.53567 85.038859 138.02251 88.921875 137.86719 C 93.185383 137.69665 97.059944 137.97092 100 138.27344 L 100 136.27344 C 97.794958 136.04655 95.063312 135.83578 92.037109 135.81641 z M 113.96875 147.96875 C 112.86417 147.98595 111.98272 148.89542 112 150 C 112 152.16667 110.91132 153.30183 108.50781 154.35938 C 106.1043 155.41691 102.53886 155.95688 98.921875 156.10156 C 94.591195 156.2748 90.819284 155.97112 88 155.66406 L 88 157.66406 C 90.819284 157.97112 94.591195 158.2748 98.921875 158.10156 C 102.53886 157.95688 106.1043 157.41691 108.50781 156.35938 C 110.91132 155.30183 112 154.16667 112 152 C 111.98272 150.89542 112.86417 149.98595 113.96875 149.96875 C 114.86136 149.95478 115.61548 150.53004 115.88672 151.32812 C 115.95927 150.90067 116 150.45851 116 150 C 116.0176 148.87094 115.09781 147.95108 113.96875 147.96875 z M 86.054688 147.99609 C 85.715805 147.98997 85.367429 148.08417 85.039062 148.29688 L 79.007812 152.1875 L 72.984375 156.08594 C 72.024704 156.7091 71.776819 158.00905 72.222656 158.99609 C 72.385653 158.63534 72.63361 158.31371 72.984375 158.08594 L 79.007812 154.1875 L 85.039062 150.29688 C 86.352527 149.44607 87.9965 150.50447 88 152.20312 L 88 150.20312 C 87.997375 148.92913 87.071336 148.01446 86.054688 147.99609 z "
     id="path880" />
  <path
     style="opacity:0.1;fill:#ffffff;stroke-width:4"
     d="M 84 48.570312 L 84 49.570312 C 84 51.469741 85.784 53 88 53 C 90.216 53 92 51.469741 92 49.570312 L 92 48.570312 C 92 50.469741 90.216 52 88 52 C 85.784 52 84 50.469741 84 48.570312 z M 100 48.570312 L 100 49.570312 C 100 51.469741 101.784 53 104 53 C 106.216 53 108 51.469741 108 49.570312 L 108 48.570312 C 108 50.469741 106.216 52 104 52 C 101.784 52 100 50.469741 100 48.570312 z M 40.048828 96.498047 C 40.031169 96.618103 40.005142 96.735283 40 96.859375 L 40 97.117188 C 40.0292 98.021956 40.400523 98.843983 40.984375 99.296875 L 47.007812 103.97656 L 53.039062 108.64844 C 54.35521 109.67148 56.001876 108.39413 56 106.35156 L 56 105.35156 C 56.001876 107.39413 54.35521 108.67148 53.039062 107.64844 L 47.007812 102.97656 L 40.984375 98.296875 C 40.484989 97.909503 40.156153 97.246319 40.048828 96.498047 z M 151.95117 96.498047 C 151.84381 97.246319 151.51502 97.909503 151.01562 98.296875 L 144.99219 102.97656 L 138.96094 107.64844 C 137.64479 108.67148 135.998 107.39413 136 105.35156 L 136 106.35156 C 135.998 108.39413 137.64479 109.67148 138.96094 108.64844 L 144.99219 103.97656 L 151.01562 99.296875 C 151.59948 98.843983 151.97072 98.021956 152 97.117188 L 152 96.859375 C 151.99483 96.735283 151.96884 96.618104 151.95117 96.498047 z M 24.046875 96.503906 C 23.900171 97.546913 24.204984 98.690384 24.984375 99.296875 L 31.007812 103.97656 L 37.039062 108.64844 C 38.355213 109.67152 40.001876 108.39413 40 106.35156 L 40 105.35156 C 40.001876 107.39413 38.355213 108.67152 37.039062 107.64844 L 31.007812 102.97656 L 24.984375 98.296875 C 24.452274 97.882815 24.147325 97.215918 24.046875 96.503906 z M 167.95312 96.503906 C 167.85267 97.215918 167.54773 97.882815 167.01562 98.296875 L 160.99219 102.97656 L 154.96094 107.64844 C 153.64479 108.67148 151.998 107.39413 152 105.35156 L 152 106.35156 C 151.998 108.39413 153.64479 109.67148 154.96094 108.64844 L 160.99219 103.97656 L 167.01562 99.296875 C 167.79502 98.690384 168.09983 97.546913 167.95312 96.503906 z M 115.94336 138.47266 C 115.8284 139.03391 115.52218 139.55388 115.01562 139.88281 L 108.99219 143.78125 L 102.96094 147.67188 C 101.64747 148.52267 100.003 147.46429 100 145.76562 L 100 146.76562 C 100.003 148.46429 101.64747 149.52267 102.96094 148.67188 L 108.99219 144.78125 L 115.01562 140.88281 C 115.81907 140.3611 116.12505 139.36299 115.94336 138.47266 z M 92.214844 139.81836 C 91.208174 139.80945 90.160795 139.82388 89.078125 139.86719 C 85.461141 140.01187 81.8957 140.55183 79.492188 141.60938 C 77.088676 142.66692 76 143.80208 76 145.96875 C 76.036491 148.54887 72.337524 148.66087 72.029297 146.31836 C 72.012101 146.53164 72 146.74835 72 146.96875 C 71.9616 149.6734 76.038252 149.6734 76 146.96875 C 76 144.80208 77.088676 143.66692 79.492188 142.60938 C 81.8957 141.55183 85.461141 141.01187 89.078125 140.86719 C 93.408805 140.69395 97.180716 140.99763 100 141.30469 L 100 140.30469 C 97.885537 140.07439 95.234854 139.84508 92.214844 139.81836 z M 115.9707 150.6582 C 115.68501 154.14957 113.15072 156.68088 110.11719 158.01562 C 106.8957 159.43309 102.96114 159.94624 99.078125 160.10156 C 94.814617 160.2721 90.940056 159.99783 88 159.69531 L 88 160.69531 C 90.940056 160.99783 94.814617 161.2721 99.078125 161.10156 C 102.96114 160.94624 106.8957 160.43309 110.11719 159.01562 C 113.33868 157.59817 116 154.83333 116 151 C 116.00182 150.88294 115.98822 150.76995 115.9707 150.6582 z M 72.056641 158.49609 C 71.874948 159.38643 72.180937 160.38454 72.984375 160.90625 L 79.007812 164.80469 L 85.039062 168.70312 C 85.324462 168.88825 85.646803 168.99032 85.976562 169 C 87.084023 169.032 87.997772 168.03692 88 166.79688 L 88 165.79688 C 87.997772 167.03692 87.084023 168.032 85.976562 168 C 85.646803 167.99032 85.324462 167.88825 85.039062 167.70312 L 79.007812 163.80469 L 72.984375 159.90625 C 72.477821 159.57732 72.171596 159.05735 72.056641 158.49609 z "
     id="path897" />
</svg>
