<?xml version="1.0" encoding="UTF-8" standalone="no"?>
<svg
   xmlns:dc="http://purl.org/dc/elements/1.1/"
   xmlns:cc="http://creativecommons.org/ns#"
   xmlns:rdf="http://www.w3.org/1999/02/22-rdf-syntax-ns#"
   xmlns:svg="http://www.w3.org/2000/svg"
   xmlns="http://www.w3.org/2000/svg"
   xmlns:sodipodi="http://sodipodi.sourceforge.net/DTD/sodipodi-0.dtd"
   xmlns:inkscape="http://www.inkscape.org/namespaces/inkscape"
   width="192"
   height="192"
   version="1"
   id="svg10"
   sodipodi:docname="apps_clean_music.svg"
   inkscape:version="0.92.3 (2405546, 2018-03-11)">
  <metadata
     id="metadata16">
    <rdf:RDF>
      <cc:Work
         rdf:about="">
        <dc:format>image/svg+xml</dc:format>
        <dc:type
           rdf:resource="http://purl.org/dc/dcmitype/StillImage" />
      </cc:Work>
    </rdf:RDF>
  </metadata>
  <defs
     id="defs14">
    <filter
       inkscape:collect="always"
       style="color-interpolation-filters:sRGB"
       id="filter844"
       x="-0.049263159"
       width="1.0985263"
       y="-0.046799999"
       height="1.0936">
      <feGaussianBlur
         inkscape:collect="always"
         stdDeviation="3.12"
         id="feGaussianBlur846" />
    </filter>
  </defs>
  <sodipodi:namedview
     pagecolor="#ffffff"
     bordercolor="#666666"
     borderopacity="1"
     objecttolerance="10"
     gridtolerance="10"
     guidetolerance="10"
     inkscape:pageopacity="0"
     inkscape:pageshadow="2"
     inkscape:window-width="1920"
     inkscape:window-height="1018"
     id="namedview12"
     showgrid="false"
     inkscape:zoom="3.06"
     inkscape:cx="96"
     inkscape:cy="96"
     inkscape:window-x="0"
     inkscape:window-y="32"
     inkscape:window-maximized="1"
     inkscape:current-layer="svg10" />
  <path
     style="opacity:0.2;fill:#000000;stroke-width:3.9999845;filter:url(#filter844)"
     d="M 33.757419,20.003378 A 13.445412,12.554906 0 0 0 20.000002,32.553483 V 167.45432 a 13.445412,12.554906 0 0 0 20.167918,10.86375 l 62.55698,-33.71921 62.55299,-33.72321 a 13.445412,12.554906 0 0 0 0,-21.745094 L 102.7249,55.403347 40.16792,21.680938 a 13.445412,12.554906 0 0 0 -6.410901,-1.67756 z"
     id="path826"
     inkscape:connector-curvature="0" />
  <path
     inkscape:connector-curvature="0"
     id="path2"
     d="M 33.757419,16.003381 A 13.445412,12.554906 0 0 0 20.000002,28.553486 V 163.45432 a 13.445412,12.554906 0 0 0 20.167918,10.86375 l 62.55698,-33.71921 62.55299,-33.72321 a 13.445412,12.554906 0 0 0 0,-21.745091 L 102.7249,51.40335 40.16792,17.680941 a 13.445412,12.554906 0 0 0 -6.410901,-1.67756 z"
     style="fill:#2688d4;stroke-width:3.9999845" />
  <path
     style="fill:#ffffff;stroke-width:3.9999845;opacity:0.2"
     d="M 33.757812 16.003906 A 13.445412 12.554906 0 0 0 20 28.552734 L 20 29.552734 A 13.445412 12.554906 0 0 1 33.757812 17.003906 A 13.445412 12.554906 0 0 1 40.167969 18.681641 L 102.72461 52.404297 L 165.27734 86.130859 A 13.445412 12.554906 0 0 1 171.98047 96.625 A 13.445412 12.554906 0 0 0 165.27734 85.130859 L 102.72461 51.404297 L 40.167969 17.681641 A 13.445412 12.554906 0 0 0 33.757812 16.003906 z "
     id="path848" />
</svg>
