<?xml version="1.0" encoding="UTF-8" standalone="no"?>
<svg
   xmlns:dc="http://purl.org/dc/elements/1.1/"
   xmlns:cc="http://creativecommons.org/ns#"
   xmlns:rdf="http://www.w3.org/1999/02/22-rdf-syntax-ns#"
   xmlns:svg="http://www.w3.org/2000/svg"
   xmlns="http://www.w3.org/2000/svg"
   xmlns:sodipodi="http://sodipodi.sourceforge.net/DTD/sodipodi-0.dtd"
   xmlns:inkscape="http://www.inkscape.org/namespaces/inkscape"
   width="192"
   height="192"
   version="1"
   id="svg22"
   sodipodi:docname="apps_cryptfs_password.svg"
   inkscape:version="0.92.3 (2405546, 2018-03-11)">
  <metadata
     id="metadata28">
    <rdf:RDF>
      <cc:Work
         rdf:about="">
        <dc:format>image/svg+xml</dc:format>
        <dc:type
           rdf:resource="http://purl.org/dc/dcmitype/StillImage" />
      </cc:Work>
    </rdf:RDF>
  </metadata>
  <defs
     id="defs26">
    <filter
       inkscape:collect="always"
       style="color-interpolation-filters:sRGB"
       id="filter868"
       x="-0.048270035"
       width="1.0965401"
       y="-0.047732969"
       height="1.0954659">
      <feGaussianBlur
         inkscape:collect="always"
         stdDeviation="2.0528906"
         id="feGaussianBlur870" />
    </filter>
    <filter
       inkscape:collect="always"
       style="color-interpolation-filters:sRGB"
       id="filter884"
       x="-0.048"
       width="1.096"
       y="-0.048"
       height="1.096">
      <feGaussianBlur
         inkscape:collect="always"
         stdDeviation="2.08"
         id="feGaussianBlur886" />
    </filter>
    <filter
       inkscape:collect="always"
       style="color-interpolation-filters:sRGB"
       id="filter900"
       x="-0.048"
       width="1.096"
       y="-0.048"
       height="1.096">
      <feGaussianBlur
         inkscape:collect="always"
         stdDeviation="0.64"
         id="feGaussianBlur902" />
    </filter>
  </defs>
  <sodipodi:namedview
     pagecolor="#ffffff"
     bordercolor="#666666"
     borderopacity="1"
     objecttolerance="10"
     gridtolerance="10"
     guidetolerance="10"
     inkscape:pageopacity="0"
     inkscape:pageshadow="2"
     inkscape:window-width="1920"
     inkscape:window-height="1018"
     id="namedview24"
     showgrid="false"
     inkscape:zoom="2.32"
     inkscape:cx="-88"
     inkscape:cy="96"
     inkscape:window-x="0"
     inkscape:window-y="32"
     inkscape:window-maximized="1"
     inkscape:current-layer="svg22" />
  <path
     inkscape:connector-curvature="0"
     id="path2"
     d="M 95.406248,76.781248 73.929688,100.55469 117.375,144 H 132 v 12 h 16 v 18.625 L 153.375,180 H 176 v -22.625 z"
     style="opacity:0.2;stroke-width:4;filter:url(#filter868)" />
  <path
     inkscape:connector-curvature="0"
     id="path4"
     d="M 95.406248,72.781248 73.929688,96.554688 117.375,140 H 132 v 12 h 16 v 18.625 L 153.375,176 H 176 v -22.625 z"
     style="fill:#b7b7b7;stroke-width:4" />
  <path
     style="opacity:0.2;fill:#ffffff;stroke-width:4"
     d="M 95.40625 72.78125 L 73.929688 96.554688 L 74.404297 97.029297 L 95.40625 73.78125 L 176 154.375 L 176 153.375 L 95.40625 72.78125 z "
     id="path6" />
  <path
     inkscape:connector-curvature="0"
     id="path8"
     d="M 84.671876,84.671876 73.929688,96.554688 117.375,140 H 132 v 12 h 16 v 18.625 L 153.375,176 H 176 Z"
     style="opacity:0.2;stroke-width:4" />
  <circle
     id="circle10"
     r="52"
     cy="72"
     cx="68"
     style="opacity:0.2;stroke-width:4;filter:url(#filter884)" />
  <circle
     id="circle12"
     r="52"
     cy="68"
     cx="68"
     style="fill:#365864;stroke-width:4" />
  <circle
     id="circle14"
     r="16"
     cy="54"
     cx="52"
     style="opacity:0.1;stroke-width:4;filter:url(#filter900)" />
  <circle
     id="circle16"
     r="16"
     cy="52"
     cx="52"
     style="fill:#ffffff;stroke-width:4" />
  <path
     style="opacity:0.1;fill:#ffffff;stroke-width:4"
     d="M 68 16 A 52 52 0 0 0 16 68 A 52 52 0 0 0 16.017578 68.513672 A 52 52 0 0 1 68 17 A 52 52 0 0 1 119.97656 68.519531 A 52 52 0 0 0 120 68 A 52 52 0 0 0 68 16 z "
     id="path18" />
</svg>
