<?xml version="1.0" encoding="UTF-8" standalone="no"?>
<svg
   xmlns:dc="http://purl.org/dc/elements/1.1/"
   xmlns:cc="http://creativecommons.org/ns#"
   xmlns:rdf="http://www.w3.org/1999/02/22-rdf-syntax-ns#"
   xmlns:svg="http://www.w3.org/2000/svg"
   xmlns="http://www.w3.org/2000/svg"
   xmlns:sodipodi="http://sodipodi.sourceforge.net/DTD/sodipodi-0.dtd"
   xmlns:inkscape="http://www.inkscape.org/namespaces/inkscape"
   width="192"
   height="192"
   version="1.1"
   id="svg27"
   sodipodi:docname="apps_mttcross_player.svg"
   inkscape:version="0.92.3 (2405546, 2018-03-11)">
  <metadata
     id="metadata31">
    <rdf:RDF>
      <cc:Work
         rdf:about="">
        <dc:format>image/svg+xml</dc:format>
        <dc:type
           rdf:resource="http://purl.org/dc/dcmitype/StillImage" />
      </cc:Work>
    </rdf:RDF>
  </metadata>
  <sodipodi:namedview
     pagecolor="#ffffff"
     bordercolor="#666666"
     borderopacity="1"
     objecttolerance="10"
     gridtolerance="10"
     guidetolerance="10"
     inkscape:pageopacity="0"
     inkscape:pageshadow="2"
     inkscape:window-width="1920"
     inkscape:window-height="1018"
     id="namedview29"
     showgrid="false"
     inkscape:zoom="1"
     inkscape:cx="96"
     inkscape:cy="96"
     inkscape:window-x="0"
     inkscape:window-y="32"
     inkscape:window-maximized="1"
     inkscape:current-layer="svg27" />
  <defs
     id="defs7">
    <linearGradient
       id="linearGradient4282"
       x1="409.57"
       x2="409.57"
       y1="540.8"
       y2="506.8"
       gradientTransform="matrix(0.4706,0,0,0.4706,-96.28,-342.48)"
       gradientUnits="userSpaceOnUse">
      <stop
         offset="0"
         stop-color="#2a2c2f"
         id="stop2" />
      <stop
         offset="1"
         stop-color="#424649"
         id="stop4" />
    </linearGradient>
    <filter
       inkscape:collect="always"
       style="color-interpolation-filters:sRGB"
       id="filter864"
       x="-0.048"
       width="1.096"
       y="-0.048"
       height="1.096">
      <feGaussianBlur
         inkscape:collect="always"
         stdDeviation="3.2"
         id="feGaussianBlur866" />
    </filter>
    <filter
       inkscape:collect="always"
       style="color-interpolation-filters:sRGB"
       id="filter885"
       x="-0.048"
       width="1.096"
       y="-0.048"
       height="1.096">
      <feGaussianBlur
         inkscape:collect="always"
         stdDeviation="1.12"
         id="feGaussianBlur887" />
    </filter>
  </defs>
  <rect
     style="opacity:0.2;fill:#000000;stroke-width:4;filter:url(#filter864)"
     width="160"
     height="160"
     x="16"
     y="20"
     ry="80"
     id="rect846" />
  <rect
     id="rect9"
     ry="80"
     y="16"
     x="16"
     height="160"
     width="160"
     style="fill:#4f4f4f;stroke-width:4" />
  <path
     style="opacity:0.1;fill:#ffffff;stroke-width:4"
     inkscape:connector-curvature="0"
     id="path11"
     d="M 51.56,29.4 C 30.0904,43.716 15.9896,68.144 15.9896,95.992 h 64 c 0,-6.484 3.87732,-12.0336 9.422,-14.5468 l -37.848,-52.048 z" />
  <path
     style="opacity:0.1;fill:#ffffff;stroke-width:4"
     inkscape:connector-curvature="0"
     id="path13"
     d="m 140.24,162.4 c 21.4696,-14.3172 35.5704,-38.7428 35.5704,-66.592 h -64 c 0,6.484 -3.87732,12.0336 -9.422,14.5468 l 37.8516,52.048 z" />
  <rect
     style="opacity:0.2;fill:#000000;stroke-width:4;filter:url(#filter885)"
     width="56"
     height="56"
     x="68"
     y="72"
     ry="28"
     id="rect871" />
  <rect
     id="rect15"
     ry="28"
     y="68"
     x="68"
     height="56"
     width="56"
     style="fill:#feb02b;stroke-width:4" />
  <rect
     style="fill:#36393d;stroke-width:4;fill-opacity:1"
     id="rect17"
     transform="scale(1,-1)"
     ry="8"
     y="-104"
     x="88"
     height="16"
     width="16" />
  <path
     style="fill:#ffffff;fill-opacity:0.275;stroke-width:4"
     inkscape:connector-curvature="0"
     id="path19"
     d="m 96,72 c -13.296,0 -24,10.704 -24,24 0,13.296 10.704,24 24,24 13.296,0 24,-10.704 24,-24 0,-13.296 -10.704,-24 -24,-24 z m 0,4 c 11.08,0 20,8.92 20,20 0,11.08 -8.92,20 -20,20 -11.08,0 -20,-8.92 -20,-20 0,-11.08 8.92,-20 20,-20 z" />
  <path
     style="opacity:0.1;fill:#ffffff;stroke-width:4"
     d="M 96 16 C 51.721016 16.002105 16.076172 51.681308 16.076172 96 C 16.076172 96.124684 16.08217 96.247109 16.083984 96.371094 C 16.420155 52.344995 51.931189 17.002095 96 17 L 96.001953 17 L 96.003906 17 C 140.06278 17.002095 175.56923 52.330384 175.91992 96.34375 C 175.92156 96.228871 175.92773 96.115409 175.92773 96 C 175.92773 51.681308 140.28209 16.002105 96.003906 16 L 96.001953 16 L 96 16 z "
     id="path21" />
</svg>
