<?xml version="1.0" encoding="UTF-8" standalone="no"?>
<svg
   xmlns:dc="http://purl.org/dc/elements/1.1/"
   xmlns:cc="http://creativecommons.org/ns#"
   xmlns:rdf="http://www.w3.org/1999/02/22-rdf-syntax-ns#"
   xmlns:svg="http://www.w3.org/2000/svg"
   xmlns="http://www.w3.org/2000/svg"
   xmlns:sodipodi="http://sodipodi.sourceforge.net/DTD/sodipodi-0.dtd"
   xmlns:inkscape="http://www.inkscape.org/namespaces/inkscape"
   width="192"
   height="192"
   version="1"
   id="svg28"
   sodipodi:docname="apps_activity_launcher.svg"
   inkscape:version="0.92.3 (2405546, 2018-03-11)">
  <metadata
     id="metadata34">
    <rdf:RDF>
      <cc:Work
         rdf:about="">
        <dc:format>image/svg+xml</dc:format>
        <dc:type
           rdf:resource="http://purl.org/dc/dcmitype/StillImage" />
        <dc:title></dc:title>
      </cc:Work>
    </rdf:RDF>
  </metadata>
  <defs
     id="defs32">
    <filter
       inkscape:collect="always"
       style="color-interpolation-filters:sRGB"
       id="filter865"
       x="-0.020554687"
       width="1.0411094"
       y="-0.028832877"
       height="1.0576658">
      <feGaussianBlur
         inkscape:collect="always"
         stdDeviation="1.09625"
         id="feGaussianBlur867" />
    </filter>
    <filter
       inkscape:collect="always"
       style="color-interpolation-filters:sRGB"
       id="filter885"
       x="-0.057796417"
       width="1.1155928"
       y="-0.041043227"
       height="1.0820865">
      <feGaussianBlur
         inkscape:collect="always"
         stdDeviation="2.3118567"
         id="feGaussianBlur887" />
    </filter>
    <filter
       inkscape:collect="always"
       style="color-interpolation-filters:sRGB"
       id="filter916"
       x="-0.033325674"
       width="1.0666513"
       y="-0.085764972"
       height="1.1715299">
      <feGaussianBlur
         inkscape:collect="always"
         stdDeviation="1.0005913"
         id="feGaussianBlur918" />
    </filter>
    <filter
       inkscape:collect="always"
       style="color-interpolation-filters:sRGB"
       id="filter900"
       x="-0.038392136"
       width="1.0767843"
       y="-0.064021858"
       height="1.1280437">
      <feGaussianBlur
         inkscape:collect="always"
         stdDeviation="0.66692583"
         id="feGaussianBlur902" />
    </filter>
    <filter
       inkscape:collect="always"
       style="color-interpolation-filters:sRGB"
       id="filter925"
       x="-0.051359377"
       width="1.1027188"
       y="-0.045053111"
       height="1.0901062">
      <feGaussianBlur
         inkscape:collect="always"
         stdDeviation="0.8987891"
         id="feGaussianBlur927" />
    </filter>
  </defs>
  <sodipodi:namedview
     pagecolor="#ffffff"
     bordercolor="#666666"
     borderopacity="1"
     objecttolerance="10"
     gridtolerance="10"
     guidetolerance="10"
     inkscape:pageopacity="0"
     inkscape:pageshadow="2"
     inkscape:window-width="1920"
     inkscape:window-height="1018"
     id="namedview30"
     showgrid="false"
     inkscape:zoom="1"
     inkscape:cx="93.498048"
     inkscape:cy="56.784314"
     inkscape:window-x="0"
     inkscape:window-y="32"
     inkscape:window-maximized="1"
     inkscape:current-layer="svg28" />
  <path
     inkscape:connector-curvature="0"
     id="path2"
     d="m 40,90.75 c -4.432,0 -8,3.568 -8,8 v 40 c 0,4.432 3.568,8 8,8 4.432,0 8,-3.568 8,-8 v -40 c 0,-4.432 -3.568,-8 -8,-8 z m 112,0 c -4.432,0 -8,3.568 -8,8 v 40 c 0,4.432 3.568,8 8,8 4.432,0 8,-3.568 8,-8 v -40 c 0,-4.432 -3.568,-8 -8,-8 z M 80,126 c -4.432,0 -8,3.568 -8,8 v 40 c 0,4.432 3.568,8 8,8 4.432,0 8,-3.568 8,-8 v -40 c 0,-4.432 -3.568,-8 -8,-8 z m 32,0 c -4.432,0 -8,3.568 -8,8 v 40 c 0,4.432 3.568,8 8,8 4.432,0 8,-3.568 8,-8 v -40 c 0,-4.432 -3.568,-8 -8,-8 z"
     style="opacity:0.2;stroke-width:4;filter:url(#filter865)" />
  <path
     inkscape:connector-curvature="0"
     id="path4"
     d="m 40,88.75 c -4.432,0 -8,3.568 -8,8 v 40 c 0,4.432 3.568,8 8,8 4.432,0 8,-3.568 8,-8 v -40 c 0,-4.432 -3.568,-8 -8,-8 z m 112,0 c -4.432,0 -8,3.568 -8,8 v 40 c 0,4.432 3.568,8 8,8 4.432,0 8,-3.568 8,-8 v -40 c 0,-4.432 -3.568,-8 -8,-8 z M 80,124 c -4.432,0 -8,3.568 -8,8 v 40 c 0,4.432 3.568,8 8,8 4.432,0 8,-3.568 8,-8 v -40 c 0,-4.432 -3.568,-8 -8,-8 z m 32,0 c -4.432,0 -8,3.568 -8,8 v 40 c 0,4.432 3.568,8 8,8 4.432,0 8,-3.568 8,-8 v -40 c 0,-4.432 -3.568,-8 -8,-8 z"
     style="fill:#608d28;stroke-width:4" />
  <path
     inkscape:connector-curvature="0"
     style="opacity:0.1;fill:#ffffff;stroke-width:4"
     d="m 40,88.75 c -4.432,0 -8,3.568 -8,8 v 1 c 0,-4.432 3.568,-8 8,-8 4.432,0 8,3.568 8,8 v -1 c 0,-4.432 -3.568,-8 -8,-8 z m 112,0 c -4.432,0 -8,3.568 -8,8 v 1 c 0,-4.432 3.568,-8 8,-8 4.432,0 8,3.568 8,8 v -1 c 0,-4.432 -3.568,-8 -8,-8 z M 80,124 c -4.432,0 -8,3.568 -8,8 v 1 c 0,-4.432 3.568,-8 8,-8 4.432,0 8,3.568 8,8 v -1 c 0,-4.432 -3.568,-8 -8,-8 z m 32,0 c -4.432,0 -8,3.568 -8,8 v 1 c 0,-4.432 3.568,-8 8,-8 4.432,0 8,3.568 8,8 v -1 c 0,-4.432 -3.568,-8 -8,-8 z"
     id="path6" />
  <path
     inkscape:connector-curvature="0"
     id="path8"
     d="m 72.556,24.8516 c -0.516,-0.0712 -1.052,-0.042 -1.588,0.1016 -2.14,0.5736 -3.4,2.758 -2.828,4.8984 L 73.196,48.712 C 48.02,60.796 48,92 48,92 v 50.928 C 48,152.384 55.136,160 64,160 h 8 16 16 16 8 c 8.864,0 16,-7.616 16,-17.072 V 92 c 0,0 -0.02,-31.204 -25.196,-43.288 l 5.056,-18.8604 c 0.572,-2.1404 -0.688,-4.3248 -2.828,-4.8984 -2.14,-0.5736 -4.324,0.6876 -4.9,2.828 L 111.272,45.92 C 106.812,44.704 101.76,44 96,44 90.24,44 85.188,44.704 80.728,45.92 L 75.868,27.7812 C 75.436,26.176 74.1,25.0648 72.556,24.8516 Z"
     style="opacity:0.2;stroke-width:4;filter:url(#filter885)" />
  <path
     inkscape:connector-curvature="0"
     id="path10"
     d="m 72.556,20.8516 c -0.516,-0.0712 -1.052,-0.042 -1.588,0.1016 -2.14,0.5736 -3.4,2.758 -2.828,4.8984 L 73.196,44.712 C 48.02,56.796 48,88 48,88 v 50.928 C 48,148.384 55.136,156 64,156 h 8 16 16 16 8 c 8.864,0 16,-7.616 16,-17.072 V 88 c 0,0 -0.02,-31.204 -25.196,-43.288 l 5.056,-18.8604 c 0.572,-2.1404 -0.688,-4.3248 -2.828,-4.8984 -2.14,-0.5736 -4.324,0.6876 -4.9,2.828 L 111.272,41.92 C 106.812,40.704 101.76,40 96,40 90.24,40 85.188,40.704 80.728,41.92 L 75.868,23.7812 C 75.436,22.176 74.1,21.0648 72.556,20.8516 Z"
     style="fill:#a5c736;stroke-width:4" />
  <path
     inkscape:connector-curvature="0"
     style="opacity:0.2;stroke-width:4;filter:url(#filter916)"
     d="m 72,66 a 4,4 0 0 0 -4,4 4,4 0 0 0 4,4 4,4 0 0 0 4,-4 4,4 0 0 0 -4,-4 z m 48,0 a 4,4 0 0 0 -4,4 4,4 0 0 0 4,4 4,4 0 0 0 4,-4 4,4 0 0 0 -4,-4 z m 10.11719,15.982422 a 2.0002,2.0002 0 0 0 -1.10938,0.28125 C 129.00781,82.263672 115.46667,90 96,90 76.533333,90 62.992187,82.263672 62.992188,82.263672 a 2.0002,2.0002 0 0 0 -0.949219,-0.277344 2.0002,2.0002 0 0 0 -1.035157,3.75 C 61.007812,85.736328 75.466667,94 96,94 c 20.53333,0 34.99219,-8.263672 34.99219,-8.263672 a 2.0002,2.0002 0 0 0 -0.875,-3.753906 z"
     id="circle12" />
  <circle
     id="circle16"
     r="4"
     cy="68"
     cx="72"
     style="fill:#ffffff;stroke-width:4" />
  <circle
     id="circle18"
     r="4"
     cy="68"
     cx="120"
     style="fill:#ffffff;stroke-width:4" />
  <path
     inkscape:connector-curvature="0"
     id="path24"
     d="m 62,82 c 0,0 14,8 34,8 20,0 34,-8 34,-8"
     style="fill:none;stroke:#ffffff;stroke-width:4px;stroke-linecap:round" />
  <path
     inkscape:connector-curvature="0"
     style="opacity:0.2;fill:#ffffff;stroke-width:4"
     d="m 71.769531,20.822266 c -0.2655,0.01635 -0.532781,0.05906 -0.800781,0.130859 -1.939083,0.519747 -3.139979,2.36316 -2.925781,4.296875 0.218192,-1.538226 1.325696,-2.867992 2.925781,-3.296875 0.536,-0.1436 1.071891,-0.172763 1.587891,-0.101563 1.544,0.2132 2.878547,1.324488 3.310547,2.929688 l 4.861328,18.138672 C 85.188516,41.703922 90.24,41 96,41 c 5.76,0 10.81148,0.703922 15.27148,1.919922 l 4.86133,-18.138672 c 0.576,-2.1404 2.75844,-3.401725 4.89844,-2.828125 1.60008,0.428883 2.70759,1.758649 2.92578,3.296875 0.2142,-1.933715 -0.9867,-3.777128 -2.92578,-4.296875 -2.14,-0.5736 -4.32244,0.687725 -4.89844,2.828125 l -4.86133,18.138672 C 106.81148,40.703922 101.76,40 96,40 90.24,40 85.188516,40.703922 80.728516,41.919922 L 75.867188,23.78125 c -0.432,-1.6052 -1.766547,-2.716488 -3.310547,-2.929688 -0.258,-0.0356 -0.52161,-0.04565 -0.78711,-0.0293 z m 1.191407,24.011718 C 48.02574,57.000783 48,88 48,88 v 1 c 0,0 0.01931,-31.203109 25.195312,-43.287109 z m 46.078122,0 -0.23437,0.878907 C 143.98069,57.796891 144,89 144,89 v -1 c 0,0 -0.0257,-30.999217 -24.96094,-43.166016 z"
     id="path920" />
  <path
     style="color:#000000;font-style:normal;font-variant:normal;font-weight:normal;font-stretch:normal;font-size:medium;line-height:normal;font-family:sans-serif;font-variant-ligatures:normal;font-variant-position:normal;font-variant-caps:normal;font-variant-numeric:normal;font-variant-alternates:normal;font-feature-settings:normal;text-indent:0;text-align:start;text-decoration:none;text-decoration-line:none;text-decoration-style:solid;text-decoration-color:#000000;letter-spacing:normal;word-spacing:normal;text-transform:none;writing-mode:lr-tb;direction:ltr;text-orientation:mixed;dominant-baseline:auto;baseline-shift:baseline;text-anchor:start;white-space:normal;shape-padding:0;clip-rule:nonzero;display:inline;overflow:visible;visibility:visible;opacity:0.1;isolation:auto;mix-blend-mode:normal;color-interpolation:sRGB;color-interpolation-filters:linearRGB;solid-color:#000000;solid-opacity:1;vector-effect:none;fill:#000000;fill-opacity:1;fill-rule:nonzero;stroke:none;stroke-width:5.65252733;stroke-linecap:round;stroke-linejoin:round;stroke-miterlimit:4;stroke-dasharray:none;stroke-dashoffset:0;stroke-opacity:1;filter:url(#filter925);color-rendering:auto;image-rendering:auto;shape-rendering:auto;text-rendering:auto;enable-background:accumulate"
     d="m 95.193359,102.12109 a 2.8154604,2.8376756 0 0 0 -0.0918,0.0293 2.8154604,2.8376756 0 0 1 0.0918,-0.0293 z m -0.273437,0.0977 a 2.8154604,2.8376756 0 0 0 -0.0957,0.043 2.8154604,2.8376756 0 0 1 0.0957,-0.043 z M 115.65625,113 a 2.8154604,2.8376756 0 0 1 0.12695,0.0879 A 2.8154604,2.8376756 0 0 0 115.65625,113 Z m 0.23633,0.16602 a 2.8154604,2.8376756 0 0 1 0.1543,0.1289 2.8154604,2.8376756 0 0 0 -0.1543,-0.1289 z m 0.20312,0.17187 a 2.8154604,2.8376756 0 0 1 0.16602,0.16992 2.8154604,2.8376756 0 0 0 -0.16602,-0.16992 z m -40.234372,0.043 a 2.8154604,2.8376756 0 0 0 -0.130859,0.13281 2.8154604,2.8376756 0 0 1 0.130859,-0.13281 z m 40.427732,0.15625 a 2.8154604,2.8376756 0 0 1 0.13477,0.16601 2.8154604,2.8376756 0 0 0 -0.13477,-0.16601 z m -40.630857,0.0645 a 2.8154604,2.8376756 0 0 0 -0.101562,0.12696 2.8154604,2.8376756 0 0 1 0.101562,-0.12696 z m -0.101562,0.12696 a 2.8154604,2.8376756 0 0 0 -0.08984,0.13281 2.8154604,2.8376756 0 0 1 0.08984,-0.13281 z m -0.08984,0.13281 a 2.8154604,2.8376756 0 0 0 -0.06445,0.0996 2.8154604,2.8376756 0 0 1 0.06445,-0.0996 z m -0.06445,0.0996 a 2.8154604,2.8376756 0 0 0 -0.08594,0.16015 2.8154604,2.8376756 0 0 1 0.08594,-0.16015 z m 41.072269,-0.18946 a 2.8154604,2.8376756 0 0 1 0.10742,0.16602 2.8154604,2.8376756 0 0 0 -0.10742,-0.16602 z m 0.14844,0.23438 a 2.8154604,2.8376756 0 0 1 0.10937,0.21484 2.8154604,2.8376756 0 0 0 -0.10937,-0.21484 z m -41.351569,0.20312 a 2.8154604,2.8376756 0 0 0 -0.07227,0.17774 2.8154604,2.8376756 0 0 1 0.07227,-0.17774 z M 75.154297,114.5 A 2.8154604,2.8376756 0 0 0 75,115.41797 v 21.16211 a 2.8154604,2.8376756 0 0 0 1.40625,2.45703 l 18.1875,10.58398 A 2.8154604,2.8376756 0 0 0 95.933594,150 2.8154604,2.8376756 0 0 0 96,149.99805 2.8154604,2.8376756 0 0 0 97.40625,149.62109 L 115.5918,139.03711 A 2.8154604,2.8376756 0 0 0 117,136.58008 v -21.16211 a 2.8154604,2.8376756 0 0 0 -0.1543,-0.91602 2.8154604,2.8376756 0 0 1 -1.2539,1.53516 L 97.40625,126.62109 A 2.8154604,2.8376756 0 0 1 96,126.99805 2.8154604,2.8376756 0 0 1 94.59375,126.62109 L 76.40625,116.03711 A 2.8154604,2.8376756 0 0 1 75.154297,114.5 Z"
     id="path904"
     inkscape:connector-curvature="0" />
  <path
     inkscape:connector-curvature="0"
     style="color:#000000;font-style:normal;font-variant:normal;font-weight:normal;font-stretch:normal;font-size:medium;line-height:normal;font-family:sans-serif;font-variant-ligatures:normal;font-variant-position:normal;font-variant-caps:normal;font-variant-numeric:normal;font-variant-alternates:normal;font-feature-settings:normal;text-indent:0;text-align:start;text-decoration:none;text-decoration-line:none;text-decoration-style:solid;text-decoration-color:#000000;letter-spacing:normal;word-spacing:normal;text-transform:none;writing-mode:lr-tb;direction:ltr;text-orientation:mixed;dominant-baseline:auto;baseline-shift:baseline;text-anchor:start;white-space:normal;shape-padding:0;clip-rule:nonzero;display:inline;overflow:visible;visibility:visible;opacity:1;isolation:auto;mix-blend-mode:normal;color-interpolation:sRGB;color-interpolation-filters:linearRGB;solid-color:#000000;solid-opacity:1;vector-effect:none;fill:#dfedb9;fill-opacity:1;fill-rule:nonzero;stroke:none;stroke-width:5.65252733;stroke-linecap:round;stroke-linejoin:round;stroke-miterlimit:4;stroke-dasharray:none;stroke-dashoffset:0;stroke-opacity:1;color-rendering:auto;image-rendering:auto;shape-rendering:auto;text-rendering:auto;enable-background:accumulate"
     d="m 115.65625,111 a 2.8154604,2.8376756 0 0 1 0.12695,0.0879 A 2.8154604,2.8376756 0 0 0 115.65625,111 Z m 0.23633,0.16602 a 2.8154604,2.8376756 0 0 1 0.1543,0.1289 2.8154604,2.8376756 0 0 0 -0.1543,-0.1289 z m 0.20312,0.17187 a 2.8154604,2.8376756 0 0 1 0.16602,0.16992 2.8154604,2.8376756 0 0 0 -0.16602,-0.16992 z m 0.19336,0.19922 a 2.8154604,2.8376756 0 0 1 0.13477,0.16601 2.8154604,2.8376756 0 0 0 -0.13477,-0.16601 z m 0.18555,0.23437 a 2.8154604,2.8376756 0 0 1 0.10742,0.16602 2.8154604,2.8376756 0 0 0 -0.10742,-0.16602 z m 0.14844,0.23438 a 2.8154604,2.8376756 0 0 1 0.10937,0.21484 2.8154604,2.8376756 0 0 0 -0.10937,-0.21484 z m 0.12109,0.23828 a 2.8154604,2.8376756 0 0 1 0.10156,0.25781 2.8154604,2.8376756 0 0 0 -0.10156,-0.25781 z m 0.10156,0.25781 a 2.8154604,2.8376756 0 0 1 -1.2539,1.53516 L 97.40625,124.62109 A 2.8154604,2.8376756 0 0 1 96,124.99805 v 23 a 2.8154604,2.8376756 0 0 0 1.40625,-0.37696 L 115.5918,137.03711 A 2.8154604,2.8376756 0 0 0 117,134.58008 v -21.16211 a 2.8154604,2.8376756 0 0 0 -0.1543,-0.91602 z"
     id="path864" />
  <path
     inkscape:connector-curvature="0"
     style="color:#000000;font-style:normal;font-variant:normal;font-weight:normal;font-stretch:normal;font-size:medium;line-height:normal;font-family:sans-serif;font-variant-ligatures:normal;font-variant-position:normal;font-variant-caps:normal;font-variant-numeric:normal;font-variant-alternates:normal;font-feature-settings:normal;text-indent:0;text-align:start;text-decoration:none;text-decoration-line:none;text-decoration-style:solid;text-decoration-color:#000000;letter-spacing:normal;word-spacing:normal;text-transform:none;writing-mode:lr-tb;direction:ltr;text-orientation:mixed;dominant-baseline:auto;baseline-shift:baseline;text-anchor:start;white-space:normal;shape-padding:0;clip-rule:nonzero;display:inline;overflow:visible;visibility:visible;opacity:1;isolation:auto;mix-blend-mode:normal;color-interpolation:sRGB;color-interpolation-filters:linearRGB;solid-color:#000000;solid-opacity:1;vector-effect:none;fill:#ecf3d7;fill-opacity:1;fill-rule:nonzero;stroke:none;stroke-width:5.65252733;stroke-linecap:round;stroke-linejoin:round;stroke-miterlimit:4;stroke-dasharray:none;stroke-dashoffset:0;stroke-opacity:1;color-rendering:auto;image-rendering:auto;shape-rendering:auto;text-rendering:auto;enable-background:accumulate"
     d="m 95.193359,100.12109 a 2.8154604,2.8376756 0 0 0 -0.0918,0.0293 2.8154604,2.8376756 0 0 1 0.0918,-0.0293 z m -0.273437,0.0977 a 2.8154604,2.8376756 0 0 0 -0.0957,0.043 2.8154604,2.8376756 0 0 1 0.0957,-0.043 z M 75.949219,111.29297 A 2.8154604,2.8376756 0 0 0 75.154297,112.5 2.8154604,2.8376756 0 0 1 75.949219,111.29297 Z M 75.154297,112.5 A 2.8154604,2.8376756 0 0 0 75,113.41797 v 21.16211 a 2.8154604,2.8376756 0 0 0 1.40625,2.45703 l 18.1875,10.58398 A 2.8154604,2.8376756 0 0 0 95.933594,148 2.8154604,2.8376756 0 0 0 96,147.99805 v -23 a 2.8154604,2.8376756 0 0 1 -1.40625,-0.37696 L 76.40625,114.03711 A 2.8154604,2.8376756 0 0 1 75.154297,112.5 Z"
     id="path869" />
  <path
     id="path886"
     d="m 96.066406,101.99959 a 2.8154604,2.8376756 0 0 0 -1.472656,0.37891 l -18.1875,10.58203 a 2.8154604,2.8376756 0 0 0 -1.251953,1.53906 2.8154604,2.8376756 0 0 0 1.251953,1.53711 l 18.1875,10.58398 a 2.8154604,2.8376756 0 0 0 2.8125,0 L 115.5918,116.0367 a 2.8154604,2.8376756 0 0 0 1.2539,-1.53516 2.8154604,2.8376756 0 0 0 -1.2539,-1.54101 L 97.40625,102.3785 a 2.8154604,2.8376756 0 0 0 -1.339844,-0.37891 z"
     style="color:#000000;font-style:normal;font-variant:normal;font-weight:normal;font-stretch:normal;font-size:medium;line-height:normal;font-family:sans-serif;font-variant-ligatures:normal;font-variant-position:normal;font-variant-caps:normal;font-variant-numeric:normal;font-variant-alternates:normal;font-feature-settings:normal;text-indent:0;text-align:start;text-decoration:none;text-decoration-line:none;text-decoration-style:solid;text-decoration-color:#000000;letter-spacing:normal;word-spacing:normal;text-transform:none;writing-mode:lr-tb;direction:ltr;text-orientation:mixed;dominant-baseline:auto;baseline-shift:baseline;text-anchor:start;white-space:normal;shape-padding:0;clip-rule:nonzero;display:inline;overflow:visible;visibility:visible;opacity:0.05;isolation:auto;mix-blend-mode:normal;color-interpolation:sRGB;color-interpolation-filters:linearRGB;solid-color:#000000;solid-opacity:1;vector-effect:none;fill:#000000;fill-opacity:1;fill-rule:nonzero;stroke:none;stroke-width:5.65252733;stroke-linecap:round;stroke-linejoin:round;stroke-miterlimit:4;stroke-dasharray:none;stroke-dashoffset:0;stroke-opacity:1;filter:url(#filter900);color-rendering:auto;image-rendering:auto;shape-rendering:auto;text-rendering:auto;enable-background:accumulate"
     inkscape:connector-curvature="0" />
  <path
     inkscape:connector-curvature="0"
     style="color:#000000;font-style:normal;font-variant:normal;font-weight:normal;font-stretch:normal;font-size:medium;line-height:normal;font-family:sans-serif;font-variant-ligatures:normal;font-variant-position:normal;font-variant-caps:normal;font-variant-numeric:normal;font-variant-alternates:normal;font-feature-settings:normal;text-indent:0;text-align:start;text-decoration:none;text-decoration-line:none;text-decoration-style:solid;text-decoration-color:#000000;letter-spacing:normal;word-spacing:normal;text-transform:none;writing-mode:lr-tb;direction:ltr;text-orientation:mixed;dominant-baseline:auto;baseline-shift:baseline;text-anchor:start;white-space:normal;shape-padding:0;clip-rule:nonzero;display:inline;overflow:visible;visibility:visible;opacity:1;isolation:auto;mix-blend-mode:normal;color-interpolation:sRGB;color-interpolation-filters:linearRGB;solid-color:#000000;solid-opacity:1;vector-effect:none;fill:#ffffff;fill-opacity:1;fill-rule:nonzero;stroke:none;stroke-width:5.65252733;stroke-linecap:round;stroke-linejoin:round;stroke-miterlimit:4;stroke-dasharray:none;stroke-dashoffset:0;stroke-opacity:1;color-rendering:auto;image-rendering:auto;shape-rendering:auto;text-rendering:auto;enable-background:accumulate"
     d="m 96.066406,100 a 2.8154604,2.8376756 0 0 0 -1.472656,0.37891 l -18.1875,10.58203 a 2.8154604,2.8376756 0 0 0 -1.251953,1.53906 2.8154604,2.8376756 0 0 0 1.251953,1.53711 l 18.1875,10.58398 a 2.8154604,2.8376756 0 0 0 2.8125,0 l 18.18555,-10.58398 a 2.8154604,2.8376756 0 0 0 1.2539,-1.53516 2.8154604,2.8376756 0 0 0 -1.2539,-1.54101 L 97.40625,100.37891 A 2.8154604,2.8376756 0 0 0 96.066406,100 Z"
     id="path872" />
</svg>
