<?xml version="1.0" encoding="UTF-8" standalone="no"?>
<svg
   xmlns:dc="http://purl.org/dc/elements/1.1/"
   xmlns:cc="http://creativecommons.org/ns#"
   xmlns:rdf="http://www.w3.org/1999/02/22-rdf-syntax-ns#"
   xmlns:svg="http://www.w3.org/2000/svg"
   xmlns="http://www.w3.org/2000/svg"
   xmlns:sodipodi="http://sodipodi.sourceforge.net/DTD/sodipodi-0.dtd"
   xmlns:inkscape="http://www.inkscape.org/namespaces/inkscape"
   width="192"
   height="192"
   version="1"
   id="svg18"
   sodipodi:docname="apps_green_apple_mp3_player.svg"
   inkscape:version="0.92.3 (2405546, 2018-03-11)">
  <metadata
     id="metadata24">
    <rdf:RDF>
      <cc:Work
         rdf:about="">
        <dc:format>image/svg+xml</dc:format>
        <dc:type
           rdf:resource="http://purl.org/dc/dcmitype/StillImage" />
      </cc:Work>
    </rdf:RDF>
  </metadata>
  <defs
     id="defs22">
    <filter
       inkscape:collect="always"
       style="color-interpolation-filters:sRGB"
       id="filter859"
       x="-0.048"
       width="1.096"
       y="-0.048"
       height="1.096">
      <feGaussianBlur
         inkscape:collect="always"
         stdDeviation="3.2"
         id="feGaussianBlur861" />
    </filter>
    <filter
       inkscape:collect="always"
       style="color-interpolation-filters:sRGB"
       id="filter875"
       x="-0.054316547"
       width="1.1086331"
       y="-0.042999525"
       height="1.0859991">
      <feGaussianBlur
         inkscape:collect="always"
         stdDeviation="0.860012"
         id="feGaussianBlur877" />
    </filter>
  </defs>
  <sodipodi:namedview
     pagecolor="#ffffff"
     bordercolor="#666666"
     borderopacity="1"
     objecttolerance="10"
     gridtolerance="10"
     guidetolerance="10"
     inkscape:pageopacity="0"
     inkscape:pageshadow="2"
     inkscape:window-width="1920"
     inkscape:window-height="1018"
     id="namedview20"
     showgrid="false"
     inkscape:zoom="1"
     inkscape:cx="96"
     inkscape:cy="96"
     inkscape:window-x="0"
     inkscape:window-y="32"
     inkscape:window-maximized="1"
     inkscape:current-layer="svg18" />
  <rect
     style="opacity:0.2;fill:#000000;stroke-width:4;filter:url(#filter859)"
     width="160"
     height="160"
     x="-180"
     y="-176"
     rx="8"
     ry="8"
     transform="matrix(0,-1,-1,0,0,0)"
     id="rect841" />
  <rect
     id="rect2"
     transform="matrix(0,-1,-1,0,0,0)"
     ry="8"
     rx="8"
     y="-176"
     x="-176"
     height="160"
     width="160"
     style="fill:#e05233;stroke-width:4" />
  <path
     style="opacity:0.1;fill:#ffffff;stroke-width:4"
     d="M 24 16 C 19.568 16 16 19.568 16 24 L 16 25 C 16 20.568 19.568 17 24 17 L 168 17 C 172.432 17 176 20.568 176 25 L 176 24 C 176 19.568 172.432 16 168 16 L 24 16 z "
     id="path4" />
  <g
     id="g10"
     transform="matrix(2,0,0,2,48,60)"
     style="opacity:0.2;filter:url(#filter875)">
    <path
       inkscape:connector-curvature="0"
       id="path8"
       d="m 42,-6.0008 -28,5 V 26.266 C 13.347,26.093 12.675,26.004 12,26 c -4.4183,0 -8,3.5817 -8,8 0,4.4183 3.5817,8 8,8 4.0287,-0.0038 7.4261,-3.0029 7.9297,-7 0,0 0.07031,-0.72732 0.07031,-1 V 3.9292 l 16,-2.8574 v 20.1938 c -0.653,-0.173 -1.325,-0.262 -2,-0.266 -4.4183,0 -8,3.5817 -8,8 0,4.4183 3.5817,8 8,8 4.0287,-0.0038 7.4261,-3.0029 7.9297,-7 l 0.07,-1 V -6.0012 Z" />
  </g>
  <g
     id="g14"
     transform="matrix(2,0,0,2,48,56)"
     style="fill:#ffffff">
    <path
       inkscape:connector-curvature="0"
       id="path12"
       d="m 42,-6.0008 -28,5 V 26.266 C 13.347,26.093 12.675,26.004 12,26 c -4.4183,0 -8,3.5817 -8,8 0,4.4183 3.5817,8 8,8 4.0287,-0.0038 7.4261,-3.0029 7.9297,-7 0,0 0.07031,-0.72732 0.07031,-1 V 3.9292 l 16,-2.8574 v 20.1938 c -0.653,-0.173 -1.325,-0.262 -2,-0.266 -4.4183,0 -8,3.5817 -8,8 0,4.4183 3.5817,8 8,8 4.0287,-0.0038 7.4261,-3.0029 7.9297,-7 l 0.07,-1 V -6.0012 Z"
       style="fill:#ffffff" />
  </g>
</svg>
