<?xml version="1.0" encoding="UTF-8" standalone="no"?>
<svg
   xmlns:dc="http://purl.org/dc/elements/1.1/"
   xmlns:cc="http://creativecommons.org/ns#"
   xmlns:rdf="http://www.w3.org/1999/02/22-rdf-syntax-ns#"
   xmlns:svg="http://www.w3.org/2000/svg"
   xmlns="http://www.w3.org/2000/svg"
   xmlns:sodipodi="http://sodipodi.sourceforge.net/DTD/sodipodi-0.dtd"
   xmlns:inkscape="http://www.inkscape.org/namespaces/inkscape"
   width="192"
   height="192"
   version="1"
   id="svg12"
   sodipodi:docname="apps_gcstar_scanner.svg"
   inkscape:version="0.92.3 (2405546, 2018-03-11)">
  <metadata
     id="metadata18">
    <rdf:RDF>
      <cc:Work
         rdf:about="">
        <dc:format>image/svg+xml</dc:format>
        <dc:type
           rdf:resource="http://purl.org/dc/dcmitype/StillImage" />
        <dc:title></dc:title>
      </cc:Work>
    </rdf:RDF>
  </metadata>
  <defs
     id="defs16">
    <filter
       inkscape:collect="always"
       style="color-interpolation-filters:sRGB"
       id="filter858"
       x="-0.048"
       width="1.096"
       y="-0.048"
       height="1.096">
      <feGaussianBlur
         inkscape:collect="always"
         stdDeviation="3.2"
         id="feGaussianBlur860" />
    </filter>
    <filter
       inkscape:collect="always"
       style="color-interpolation-filters:sRGB"
       id="filter1056"
       x="-0.048"
       width="1.096"
       y="-0.048"
       height="1.096">
      <feGaussianBlur
         inkscape:collect="always"
         stdDeviation="2.4"
         id="feGaussianBlur1058" />
    </filter>
  </defs>
  <sodipodi:namedview
     pagecolor="#ffffff"
     bordercolor="#666666"
     borderopacity="1"
     objecttolerance="10"
     gridtolerance="10"
     guidetolerance="10"
     inkscape:pageopacity="0"
     inkscape:pageshadow="2"
     inkscape:window-width="1920"
     inkscape:window-height="1018"
     id="namedview14"
     showgrid="false"
     inkscape:zoom="1"
     inkscape:cx="24"
     inkscape:cy="77.84313"
     inkscape:window-x="0"
     inkscape:window-y="32"
     inkscape:window-maximized="1"
     inkscape:current-layer="svg12" />
  <rect
     id="rect840"
     ry="80"
     rx="80"
     y="20"
     x="16"
     height="160"
     width="160"
     style="opacity:0.2;fill:#000000;stroke-width:4;filter:url(#filter858)" />
  <rect
     style="fill:#1d81e8;stroke-width:4"
     width="160"
     height="160"
     x="16"
     y="16"
     rx="80"
     ry="80"
     id="rect2" />
  <path
     style="opacity:0.2;fill:#ffffff;stroke-width:4"
     d="M 95.998047 16 C 51.678955 16.001052 16 51.680653 16 96 C 16 96.115498 16.006172 96.228859 16.007812 96.34375 C 16.358829 52.329731 51.898462 17.001046 95.998047 17 L 96 17 C 140.10547 17.001047 175.64856 52.339122 175.99023 96.361328 C 175.99198 96.240601 175.99805 96.121307 175.99805 96 C 175.99805 51.680653 140.31909 16.001052 96 16 L 95.998047 16 z "
     id="path4" />
  <path
     id="path1030"
     d="M 96,38 A 60,60 0 0 0 36,98 60,60 0 0 0 96,158 60,60 0 0 0 156,98 60,60 0 0 0 96,38 Z M 50,70 h 4 c 1.108,0 2,0.892 2,2 v 52 c 0,1.108 -0.892,2 -2,2 h -4 c -1.108,0 -2,-0.892 -2,-2 V 72 c 0,-1.108 0.892,-2 2,-2 z m 9,0 h 2 c 0.554,0 1,0.446 1,1 v 54 c 0,0.554 -0.446,1 -1,1 h -2 c -0.554,0 -1,-0.446 -1,-1 V 71 c 0,-0.554 0.446,-1 1,-1 z m 6,0 h 2 c 0.554,0 1,0.446 1,1 v 54 c 0,0.554 -0.446,1 -1,1 h -2 c -0.554,0 -1,-0.446 -1,-1 V 71 c 0,-0.554 0.446,-1 1,-1 z m 9,0 h 4 c 1.108,0 2,0.892 2,2 v 52 c 0,1.108 -0.892,2 -2,2 h -4 c -1.108,0 -2,-0.892 -2,-2 V 72 c 0,-1.108 0.892,-2 2,-2 z m 11,0 h 2 c 0.554,0 1,0.446 1,1 v 54 c 0,0.554 -0.446,1 -1,1 h -2 c -0.554,0 -1,-0.446 -1,-1 V 71 c 0,-0.554 0.446,-1 1,-1 z m 6,0 h 2 c 0.554,0 1,0.446 1,1 v 54 c 0,0.554 -0.446,1 -1,1 h -2 c -0.554,0 -1,-0.446 -1,-1 V 71 c 0,-0.554 0.446,-1 1,-1 z m 6,0 h 2 c 0.554,0 1,0.446 1,1 v 54 c 0,0.554 -0.446,1 -1,1 h -2 c -0.554,0 -1,-0.446 -1,-1 V 71 c 0,-0.554 0.446,-1 1,-1 z m 6,0 h 2 c 0.554,0 1,0.446 1,1 v 54 c 0,0.554 -0.446,1 -1,1 h -2 c -0.554,0 -1,-0.446 -1,-1 V 71 c 0,-0.554 0.446,-1 1,-1 z m 6,0 h 2 c 0.554,0 1,0.446 1,1 v 54 c 0,0.554 -0.446,1 -1,1 h -2 c -0.554,0 -1,-0.446 -1,-1 V 71 c 0,-0.554 0.446,-1 1,-1 z m 7,0 h 4 c 1.108,0 2,0.892 2,2 v 52 c 0,1.108 -0.892,2 -2,2 h -4 c -1.108,0 -2,-0.892 -2,-2 V 72 c 0,-1.108 0.892,-2 2,-2 z m 11,0 h 2 c 0.554,0 1,0.446 1,1 v 54 c 0,0.554 -0.446,1 -1,1 h -2 c -0.554,0 -1,-0.446 -1,-1 V 71 c 0,-0.554 0.446,-1 1,-1 z m 6,0 h 2 c 0.554,0 1,0.446 1,1 v 54 c 0,0.554 -0.446,1 -1,1 h -2 c -0.554,0 -1,-0.446 -1,-1 V 71 c 0,-0.554 0.446,-1 1,-1 z m 10,0 h 2 c 0.554,0 1,0.446 1,1 v 54 c 0,0.554 -0.446,1 -1,1 h -2 c -0.554,0 -1,-0.446 -1,-1 V 71 c 0,-0.554 0.446,-1 1,-1 z"
     style="opacity:0.2;fill:#000000;stroke-width:4;filter:url(#filter1056)"
     inkscape:connector-curvature="0" />
  <path
     style="fill:#ffc05b;stroke-width:4"
     d="M 96 36 A 60 60 0 0 0 36 96 A 60 60 0 0 0 96 156 A 60 60 0 0 0 156 96 A 60 60 0 0 0 96 36 z M 50 68 L 54 68 C 55.108 68 56 68.892 56 70 L 56 122 C 56 123.108 55.108 124 54 124 L 50 124 C 48.892 124 48 123.108 48 122 L 48 70 C 48 68.892 48.892 68 50 68 z M 59 68 L 61 68 C 61.554 68 62 68.446 62 69 L 62 123 C 62 123.554 61.554 124 61 124 L 59 124 C 58.446 124 58 123.554 58 123 L 58 69 C 58 68.446 58.446 68 59 68 z M 65 68 L 67 68 C 67.554 68 68 68.446 68 69 L 68 123 C 68 123.554 67.554 124 67 124 L 65 124 C 64.446 124 64 123.554 64 123 L 64 69 C 64 68.446 64.446 68 65 68 z M 74 68 L 78 68 C 79.108 68 80 68.892 80 70 L 80 122 C 80 123.108 79.108 124 78 124 L 74 124 C 72.892 124 72 123.108 72 122 L 72 70 C 72 68.892 72.892 68 74 68 z M 85 68 L 87 68 C 87.554 68 88 68.446 88 69 L 88 123 C 88 123.554 87.554 124 87 124 L 85 124 C 84.446 124 84 123.554 84 123 L 84 69 C 84 68.446 84.446 68 85 68 z M 91 68 L 93 68 C 93.554 68 94 68.446 94 69 L 94 123 C 94 123.554 93.554 124 93 124 L 91 124 C 90.446 124 90 123.554 90 123 L 90 69 C 90 68.446 90.446 68 91 68 z M 97 68 L 99 68 C 99.554 68 100 68.446 100 69 L 100 123 C 100 123.554 99.554 124 99 124 L 97 124 C 96.446 124 96 123.554 96 123 L 96 69 C 96 68.446 96.446 68 97 68 z M 103 68 L 105 68 C 105.554 68 106 68.446 106 69 L 106 123 C 106 123.554 105.554 124 105 124 L 103 124 C 102.446 124 102 123.554 102 123 L 102 69 C 102 68.446 102.446 68 103 68 z M 109 68 L 111 68 C 111.554 68 112 68.446 112 69 L 112 123 C 112 123.554 111.554 124 111 124 L 109 124 C 108.446 124 108 123.554 108 123 L 108 69 C 108 68.446 108.446 68 109 68 z M 116 68 L 120 68 C 121.108 68 122 68.892 122 70 L 122 122 C 122 123.108 121.108 124 120 124 L 116 124 C 114.892 124 114 123.108 114 122 L 114 70 C 114 68.892 114.892 68 116 68 z M 127 68 L 129 68 C 129.554 68 130 68.446 130 69 L 130 123 C 130 123.554 129.554 124 129 124 L 127 124 C 126.446 124 126 123.554 126 123 L 126 69 C 126 68.446 126.446 68 127 68 z M 133 68 L 135 68 C 135.554 68 136 68.446 136 69 L 136 123 C 136 123.554 135.554 124 135 124 L 133 124 C 132.446 124 132 123.554 132 123 L 132 69 C 132 68.446 132.446 68 133 68 z M 143 68 L 145 68 C 145.554 68 146 68.446 146 69 L 146 123 C 146 123.554 145.554 124 145 124 L 143 124 C 142.446 124 142 123.554 142 123 L 142 69 C 142 68.446 142.446 68 143 68 z "
     id="path1026" />
  <path
     style="fill:#ffffff;stroke-width:4;opacity:0.2"
     d="M 96 36 A 60 60 0 0 0 36 96 A 60 60 0 0 0 36.021484 96.416016 A 60 60 0 0 1 96 37 A 60 60 0 0 1 155.97852 96.583984 A 60 60 0 0 0 156 96 A 60 60 0 0 0 96 36 z M 48 122 L 48 123 C 48 124.108 48.892 125 50 125 L 54 125 C 55.108 125 56 124.108 56 123 L 56 122 C 56 123.108 55.108 124 54 124 L 50 124 C 48.892 124 48 123.108 48 122 z M 72 122 L 72 123 C 72 124.108 72.892 125 74 125 L 78 125 C 79.108 125 80 124.108 80 123 L 80 122 C 80 123.108 79.108 124 78 124 L 74 124 C 72.892 124 72 123.108 72 122 z M 114 122 L 114 123 C 114 124.108 114.892 125 116 125 L 120 125 C 121.108 125 122 124.108 122 123 L 122 122 C 122 123.108 121.108 124 120 124 L 116 124 C 114.892 124 114 123.108 114 122 z M 58 123 L 58 124 C 58 124.554 58.446 125 59 125 L 61 125 C 61.554 125 62 124.554 62 124 L 62 123 C 62 123.554 61.554 124 61 124 L 59 124 C 58.446 124 58 123.554 58 123 z M 64 123 L 64 124 C 64 124.554 64.446 125 65 125 L 67 125 C 67.554 125 68 124.554 68 124 L 68 123 C 68 123.554 67.554 124 67 124 L 65 124 C 64.446 124 64 123.554 64 123 z M 84 123 L 84 124 C 84 124.554 84.446 125 85 125 L 87 125 C 87.554 125 88 124.554 88 124 L 88 123 C 88 123.554 87.554 124 87 124 L 85 124 C 84.446 124 84 123.554 84 123 z M 90 123 L 90 124 C 90 124.554 90.446 125 91 125 L 93 125 C 93.554 125 94 124.554 94 124 L 94 123 C 94 123.554 93.554 124 93 124 L 91 124 C 90.446 124 90 123.554 90 123 z M 96 123 L 96 124 C 96 124.554 96.446 125 97 125 L 99 125 C 99.554 125 100 124.554 100 124 L 100 123 C 100 123.554 99.554 124 99 124 L 97 124 C 96.446 124 96 123.554 96 123 z M 102 123 L 102 124 C 102 124.554 102.446 125 103 125 L 105 125 C 105.554 125 106 124.554 106 124 L 106 123 C 106 123.554 105.554 124 105 124 L 103 124 C 102.446 124 102 123.554 102 123 z M 108 123 L 108 124 C 108 124.554 108.446 125 109 125 L 111 125 C 111.554 125 112 124.554 112 124 L 112 123 C 112 123.554 111.554 124 111 124 L 109 124 C 108.446 124 108 123.554 108 123 z M 126 123 L 126 124 C 126 124.554 126.446 125 127 125 L 129 125 C 129.554 125 130 124.554 130 124 L 130 123 C 130 123.554 129.554 124 129 124 L 127 124 C 126.446 124 126 123.554 126 123 z M 132 123 L 132 124 C 132 124.554 132.446 125 133 125 L 135 125 C 135.554 125 136 124.554 136 124 L 136 123 C 136 123.554 135.554 124 135 124 L 133 124 C 132.446 124 132 123.554 132 123 z M 142 123 L 142 124 C 142 124.554 142.446 125 143 125 L 145 125 C 145.554 125 146 124.554 146 124 L 146 123 C 146 123.554 145.554 124 145 124 L 143 124 C 142.446 124 142 123.554 142 123 z "
     id="path1060" />
</svg>
