<?xml version="1.0" encoding="UTF-8" standalone="no"?>
<svg
   xmlns:dc="http://purl.org/dc/elements/1.1/"
   xmlns:cc="http://creativecommons.org/ns#"
   xmlns:rdf="http://www.w3.org/1999/02/22-rdf-syntax-ns#"
   xmlns:svg="http://www.w3.org/2000/svg"
   xmlns="http://www.w3.org/2000/svg"
   xmlns:sodipodi="http://sodipodi.sourceforge.net/DTD/sodipodi-0.dtd"
   xmlns:inkscape="http://www.inkscape.org/namespaces/inkscape"
   width="192"
   height="192"
   version="1"
   id="svg16"
   sodipodi:docname="apps_buttercup.svg"
   inkscape:version="0.92.3 (2405546, 2018-03-11)">
  <metadata
     id="metadata22">
    <rdf:RDF>
      <cc:Work
         rdf:about="">
        <dc:format>image/svg+xml</dc:format>
        <dc:type
           rdf:resource="http://purl.org/dc/dcmitype/StillImage" />
        <dc:title></dc:title>
      </cc:Work>
    </rdf:RDF>
  </metadata>
  <defs
     id="defs20">
    <filter
       inkscape:collect="always"
       style="color-interpolation-filters:sRGB"
       id="filter857"
       x="-0.052235294"
       width="1.1044706"
       y="-0.0444"
       height="1.0888">
      <feGaussianBlur
         inkscape:collect="always"
         stdDeviation="2.96"
         id="feGaussianBlur859" />
    </filter>
    <filter
       inkscape:collect="always"
       style="color-interpolation-filters:sRGB"
       id="filter873"
       x="-0.066"
       width="1.132"
       y="-0.037714286"
       height="1.0754286">
      <feGaussianBlur
         inkscape:collect="always"
         stdDeviation="1.76"
         id="feGaussianBlur875" />
    </filter>
  </defs>
  <sodipodi:namedview
     pagecolor="#ffffff"
     bordercolor="#666666"
     borderopacity="1"
     objecttolerance="10"
     gridtolerance="10"
     guidetolerance="10"
     inkscape:pageopacity="0"
     inkscape:pageshadow="2"
     inkscape:window-width="1920"
     inkscape:window-height="1018"
     id="namedview18"
     showgrid="false"
     inkscape:zoom="1.74"
     inkscape:cx="24"
     inkscape:cy="93.164265"
     inkscape:window-x="0"
     inkscape:window-y="32"
     inkscape:window-maximized="1"
     inkscape:current-layer="svg16" />
  <path
     inkscape:connector-curvature="0"
     style="opacity:0.2;stroke-width:4;filter:url(#filter857)"
     d="M 72,20 C 47.624,20 28,39.624 28,64 v 64 8 c 0,24.376 19.624,44 44,44 h 8 40 c 24.376,0 44,-19.624 44,-44 v -8 C 164,104.97591 146.48302,86.215916 124,84.203124 V 64 C 124,39.624 104.376,20 80,20 Z"
     id="path2" />
  <rect
     style="fill:#4cd6c6;stroke-width:4"
     width="96"
     height="136"
     x="80"
     y="-164"
     rx="44"
     ry="44"
     transform="rotate(90)"
     id="rect4" />
  <rect
     style="fill:#4cd6c6;stroke-width:4"
     width="96"
     height="160"
     x="28"
     y="16"
     rx="44"
     ry="44"
     id="rect6" />
  <path
     inkscape:connector-curvature="0"
     style="opacity:0.2;stroke-width:4;filter:url(#filter873)"
     d="m 76,34 c -17.673112,0 -32,14.311232 -32,31.968752 0,17.657508 14.326888,15.992184 32,15.992184 17.673112,0 32,1.665324 32,-15.992184 C 108,48.311232 93.673112,34 76,34 Z m 0,72 a 12,12 0 0 0 -12,12 12,12 0 0 0 4,8.92969 V 138 a 8,8 0 0 0 8,8 8,8 0 0 0 8,-8 V 126.92188 A 12,12 0 0 0 88,118 12,12 0 0 0 76,106 Z"
     id="path8" />
  <path
     inkscape:connector-curvature="0"
     style="fill:#ffffff;stroke-width:4"
     d="m 76,104 a 12,12 0 0 0 -12,12 12,12 0 0 0 4,8.92969 V 136 a 8,8 0 0 0 8,8 8,8 0 0 0 8,-8 V 124.92188 A 12,12 0 0 0 88,116 12,12 0 0 0 76,104 Z"
     id="path10" />
  <path
     inkscape:connector-curvature="0"
     style="fill:#ffffff;stroke-width:4"
     d="m 108,63.971756 c 0,17.657512 -14.326888,15.985876 -32,15.985876 -17.673112,0 -32,1.671636 -32,-15.985876 0,-17.657516 14.326888,-31.971757 32,-31.971757 17.673112,0 32,14.314241 32,31.971757 z"
     id="path12" />
  <path
     style="opacity:0.2;fill:#ffffff;stroke-width:4"
     d="M 72 16 C 47.624 16 28 35.624 28 60 L 28 61 C 28 36.624 47.624 17 72 17 L 80 17 C 104.376 17 124 36.624 124 61 L 124 60 C 124 35.624 104.376 16 80 16 L 72 16 z M 124 80.203125 L 124 81.203125 C 146.48302 83.215917 164 101.97591 164 125 L 164 124 C 164 100.97591 146.48302 82.215917 124 80.203125 z "
     id="path14" />
</svg>
