<?xml version="1.0" encoding="UTF-8" standalone="no"?>
<svg
   xmlns:dc="http://purl.org/dc/elements/1.1/"
   xmlns:cc="http://creativecommons.org/ns#"
   xmlns:rdf="http://www.w3.org/1999/02/22-rdf-syntax-ns#"
   xmlns:svg="http://www.w3.org/2000/svg"
   xmlns="http://www.w3.org/2000/svg"
   xmlns:sodipodi="http://sodipodi.sourceforge.net/DTD/sodipodi-0.dtd"
   xmlns:inkscape="http://www.inkscape.org/namespaces/inkscape"
   width="192"
   height="192"
   version="1"
   id="svg20"
   sodipodi:docname="apps_mercury_browser.svg"
   inkscape:version="0.92.3 (2405546, 2018-03-11)">
  <metadata
     id="metadata26">
    <rdf:RDF>
      <cc:Work
         rdf:about="">
        <dc:format>image/svg+xml</dc:format>
        <dc:type
           rdf:resource="http://purl.org/dc/dcmitype/StillImage" />
      </cc:Work>
    </rdf:RDF>
  </metadata>
  <defs
     id="defs24">
    <filter
       inkscape:collect="always"
       style="color-interpolation-filters:sRGB"
       id="filter857"
       x="-0.048"
       width="1.096"
       y="-0.048"
       height="1.096">
      <feGaussianBlur
         inkscape:collect="always"
         stdDeviation="3.2"
         id="feGaussianBlur859" />
    </filter>
    <filter
       inkscape:collect="always"
       style="color-interpolation-filters:sRGB"
       id="filter883"
       x="-0.047154576"
       width="1.0943092"
       y="-0.048876292"
       height="1.0977526">
      <feGaussianBlur
         inkscape:collect="always"
         stdDeviation="2.2005469"
         id="feGaussianBlur885" />
    </filter>
  </defs>
  <sodipodi:namedview
     pagecolor="#ffffff"
     bordercolor="#666666"
     borderopacity="1"
     objecttolerance="10"
     gridtolerance="10"
     guidetolerance="10"
     inkscape:pageopacity="0"
     inkscape:pageshadow="2"
     inkscape:window-width="1920"
     inkscape:window-height="1018"
     id="namedview22"
     showgrid="false"
     inkscape:zoom="1"
     inkscape:cx="96"
     inkscape:cy="96"
     inkscape:window-x="0"
     inkscape:window-y="32"
     inkscape:window-maximized="1"
     inkscape:current-layer="svg20" />
  <rect
     id="rect2"
     transform="matrix(0,-1,-1,0,0,0)"
     ry="80"
     rx="80"
     y="-176"
     x="-180"
     height="160"
     width="160"
     style="opacity:0.2;stroke-width:4;filter:url(#filter857)" />
  <path
     inkscape:connector-curvature="0"
     id="path4"
     d="m 169.95556,100.26667 c 0,-8.420094 4.75661,-20.795002 2.36637,-28.40597 -8.77509,-27.941496 -32.40828,-49.180852 -61.72495,-54.543464 -4.73053,-0.865309 -11.386812,6.860541 -16.374756,6.860541 -44.32,0 -73.955556,26.435555 -73.955556,70.755555 0,7.446318 -3.259484,15.715408 -1.373361,22.545698 8.065213,29.20687 32.201729,51.60931 62.382589,57.18037 4.770236,0.88054 10.758136,-6.83718 15.790776,-6.83718 44.319998,0 72.888888,-23.23555 72.888888,-67.55555 z"
     style="fill:#6352c9;stroke-width:4;fill-opacity:1" />
  <path
     style="opacity:0.2;stroke-width:4"
     inkscape:connector-curvature="0"
     id="path6"
     d="M 85.764,16.6676 C 75.3612,17.986 65.6092,21.3032 56.8656,26.1988 l 5.6796,1.42188 3.67188,2.57032 v 2.20312 l 6.25,4.0468 -1.464,5.8828 -3.304,-2.57 -2.212,2.57 -2.572,1.4688 -1.468,-4.414 0.736,-2.5704 -0.736,-1.8356 -3.67968,-3.31248 h -1.46876 l 1.46876,3.67968 v 3.30468 c -1.444,-0.4028 -2.932,-0.5464 -4.412,-0.7348 l 4.0468,2.94532 0.3672,1.83592 4.7812,4.0468 4.7736,-1.10156 v -2.94532 l 2.21092,1.46876 -1.10156,2.57812 h 3.67188 l 1.84376,3.30468 2.20312,2.57812 4.414,0.73436 -2.57812,2.57032 -0.73436,2.57812 h 3.31248 l 4.0392,2.20312 v 6.6172 H 82.7696 l -1.83592,1.83592 -4.0468,-1.83592 -1.46876,-4.0468 -2.94532,-1.83592 -0.3672,-1.46876 -4.7736,-1.10156 -2.57812,2.93752 -2.93752,1.46876 1.83592,3.31248 -2.57032,-0.73436 -1.47656,-3.31248 3.31248,-3.67188 h -1.46876 l -2.94532,2.57032 -0.73436,3.67968 -2.57032,3.30468 -0.73436,-4.7736 -1.47656,-0.7422 c -1.55684,1.64904 -2.72776,3.65976 -4.0392,5.5156 l -5.1484,0.3672 -2.57812,1.84376 1.10936,1.83592 2.93752,2.57032 h 4.0468 l 5.5156,-1.83592 2.57032,0.3672 2.20312,2.20312 5.8828,-5.8828 4.0468,-1.10156 5.8828,0.73436 5.5156,1.47656 c 3.00364,3.47444 5.9772,7.048 8.8204,10.6564 l 3.31248,8.4608 -1.47656,1.46876 2.94532,4.414 -3.31248,7.7188 c -2.67756,3.09036 -5.4124,6.0952 -8.086,9.1876 l -4.0468,-3.30468 -1.46876,1.83592 -4.414,-2.57032 -1.46876,1.46876 h -4.0392 l -2.57812,2.93752 1.46876,5.1484 -2.93752,3.31248 0.3672,5.8828 -2.57032,4.4064 1.83592,3.67968 c 0.15672,2.67572 0.3672,5.4096 0.3672,8.086 -1.29044,3.62552 -2.82828,7.0124 -4.0468,10.664 l -0.73436,5.8828 v 2.93752 H 56.66768 L 52.988,161.07372 h -3.5078 c 13.1008,9.3636 29.1224,14.9296 46.524,14.9296 13.0672,0 25.3468,-3.16952 36.2188,-8.6796 l 0.17968,-0.3672 -2.57812,-2.57032 -0.73436,-2.57812 -4.0392,-1.10156 -2.94532,-8.086 0.73436,-1.83592 -1.83592,-3.31248 -4.7812,-1.10156 -2.20312,-5.5156 0.3672,-7.3516 -3.67968,-5.1484 -0.3672,-5.1484 c 5.0168,-2.5382 9.7316,-5.1052 14.7108,-7.7188 l 2.57032,-5.1484 4.414,-1.10156 2.57032,-6.6172 5.8828,0.73436 5.5156,-4.0392 5.5156,5.1408 v 0.73436 c 1.66472,-0.4906 3.66616,-0.53932 5.1484,-1.46876 l 1.10156,-3.67188 V 96.3706 l 3.67188,0.3672 c -0.30588,-2.47152 -0.79452,-5.2476 -1.10156,-7.7188 h 2.21096 l 2.20312,2.93752 2.20312,1.10156 2.94532,-1.83592 0.3672,-3.67188 -0.3672,-4.414 -4.7812,-3.31248 h -3.67188 l -0.7422,-2.20312 -4.4064,1.10156 -3.31248,4.0468 -0.73436,-6.9844 -5.8828,-4.7812 -1.83592,-5.5156 -4.414,-1.83592 -2.57032,-3.31248 -5.5156,-1.10156 -2.57812,-4.414 h 8.0936 l -5.1484,-2.20312 h -3.67968 l -4.7736,-1.83592 -0.7422,4.7736 -2.20312,-3.30468 2.57032,-1.83592 -0.73436,-1.84376 1.84376,-1.83592 2.20312,-0.3672 -0.73436,-2.20312 1.83592,-3.31252 3.67968,1.46876 -0.73436,-2.93752 4.4064,-2.57812 3.31248,6.25 -0.3672,1.84376 3.30468,1.46876 2.21096,4.7812 0.73436,-4.414 5.8828,-2.20312 1.10156,-3.31252 -7.7188,-4.414 -3.31248,-3.30468 -0.3672,-4.0468 0.19532,-0.117188 c -0.848,-0.566 -1.748,-1.0608 -2.62,-1.5944 l 1.32812,3.18752 h -3.67968 l -1.10156,-2.94532 -3.30468,2.57032 h -2.94532 v -2.93752 l 3.31248,-1.47656 2.93752,1.84376 -0.3672,-0.73436 c -1.48,-1.0672 -2.9,-2.2852 -4.408,-3.3128 l -3.68,1.1096 c -2.284,1.584 -4.328,3.1916 -6.616,4.7732 l -3.68,-3.3044 4.048,-1.4688 1.468,-3.6796 2.868,-0.3204 c -1.548,-0.5728 -3.088,-1.1544 -4.68,-1.6328 l -7.3752,5.2656 v 3.30468 l 2.936,3.3124 -4.036,8.086 -2.948,-1.4688 -3.304,-5.5156 c -4.936,-1.5568 -9.684,-3.3624 -14.344,-5.5156 l 0.3672,2.20312 -2.20312,1.47656 -4.0468,-2.94532 1.84376,-2.20312 2.93752,1.46876 0.3672,-0.367188 -3.6172,-9.8516 z M 48.9828,31.2924 c -1.24928,0.90752 -2.51812,1.78884 -3.71096,2.76564 l 1.46096,1.64844 4.0468,-4.414 h -1.79688 z m 30.4688,4.0468 h 2.21096 v 2.20312 l -1.46876,1.83592 v 3.31248 l 0.73436,4.7812 -3.684,-0.736 -2.936,-2.576 2.572,-2.5704 c 0.80588,-2.19076 1.56112,-4.1488 2.57032,-6.25 z m 5.5156,4.7812 2.21092,0.73436 -0.3672,4.4064 -3.312,-1.8348 1.468,-3.3044 z m -57.352,37.5 -3.3124,3.672 -3.672,-0.368 c -1.2924,1.2 -2.5772,2.228 -3.7812,3.424 -0.5508,3.804 -0.8516,7.696 -0.8516,11.656 0,26.2688 12.5924,49.424 32.0312,63.992 l -4.976,-5.908 0.744,-2.568 -4.4152,-3.68 3.3032,-3.312 -3.6704,-2.94 -3.6796,-2.2 -1.4688,-1.844 1.10156,-4.0392 v -10.2968 l -2.93752,-6.25 -3.31248,-3.67968 -4.0468,-9.5548 v -2.57812 c 1.89232,0.24328 3.664,0.60808 5.5156,0.7422 l -3.6736,-4.044 -5.1484,-3.68 -2.9452,-3.304 v -3.31248 c 0.6306,-1.21284 1.20916,-2.82628 1.84376,-4.0392 l 2.57032,3.30468 1.83592,-2.57032 2.94532,-2.21092 v -4.4064 z m 14.336,1.83592 -3.30468,4.0392 -4.414,9.1952 -2.57032,2.93752 1.46876,3.31248 -2.57032,2.93752 c 1.07412,0.0706 2.20088,0 3.30468,0 2.00512,-4.2992 3.62148,-8.7368 5.1484,-13.2344 l 2.57032,-2.93748 1.47656,-5.5156 -1.10936,-0.73436 z m 133.992,14.4452 c -0.14664,0.25632 -0.53124,0.9922 -0.53124,0.9922 l -6.25,3.67968 -6.6172,1.83592 -2.57812,3.67968 -4.4064,3.30468 -2.21092,-0.73436 -1.83592,1.10156 v 0.3672 l 2.20312,6.9844 1.84376,2.57812 -0.3672,1.46876 1.46876,5.5156 -5.5156,9.9296 -5.5156,5.1408 -2.57032,3.31248 0.3672,7.7188 -1.84376,4.0468 1.35156,5.9376 c 20.0272,-14.512 33.0624,-38.026 33.0624,-64.756 0,-0.70432 -0.0368,-1.40172 -0.0547,-2.10156 z" />
  <path
     inkscape:connector-curvature="0"
     id="path8"
     d="m 96,20 c -44.32,0 -80,35.68 -80,80 0,9.8962 1.860333,19.32107 5.117188,28.05469 L 21.359375,128 l 0.75,-7 C 23.752224,105.63805 27.935978,96.49096 38.054688,86.117188 48.467788,76.857876 57.469848,70.1073 71.257812,65.453124 77.94846,63.25638 83.164912,62.240672 96.984376,60.4375 113.42827,58.291892 118.70205,56.37156 123.69531,50.6875 126.0748,47.978812 128,43.382872 128,40.421876 c 0,-3.172997 -1.93222,-7.59874 -4.64062,-10.617188 -2.08924,-2.328409 -6.40909,-5.662188 -10.84376,-8.09375 C 107.18757,20.600713 101.66712,20 96,20 Z"
     style="opacity:0.2;stroke-width:4;filter:url(#filter883)" />
  <path
     inkscape:connector-curvature="0"
     id="path10"
     d="m 96,16 c -44.32,0 -80,35.68 -80,80 0,9.8962 1.860333,19.32107 5.117188,28.05469 L 21.359375,124 l 0.75,-7 C 23.752224,101.63805 27.935978,92.49096 38.054688,82.117188 48.467788,72.857876 57.469848,66.1073 71.257812,61.453124 77.94846,59.25638 83.164912,58.240672 96.984376,56.4375 113.42827,54.291892 118.70205,52.37156 123.69531,46.6875 126.0748,43.978812 128,39.382871 128,36.421875 128,33.248879 126.06778,28.823136 123.35938,25.804688 121.27014,23.476279 116.95029,20.1425 112.51562,17.710938 107.18757,16.600713 101.66712,16 96,16 Z"
     style="fill:#fbb829;stroke-width:4" />
  <path
     style="opacity:0.2;fill:#ffffff;stroke-width:4"
     d="M 96 16 C 51.68 16 16 51.68 16 96 C 16 96.336 16.002 96.6675 16 97 C 16 52.68 51.68 17 96 17 C 140.32 17 176 52.68 176 97 C 175.998 96.6675 176 96.336 176 96 C 176 51.68 140.32 16 96 16 z "
     id="path12" />
  <path
     inkscape:connector-curvature="0"
     id="path14"
     d="m 96,176 c 44.32,0 80,-35.68 80,-80 0,-9.896196 -1.86033,-19.321072 -5.11719,-28.054688 l -0.2422,0.05468 -0.75,7 c -1.64285,15.361952 -5.8266,24.50904 -15.94531,34.882808 -10.4131,9.25932 -19.41516,16.00989 -33.20312,20.66407 -6.69065,2.19674 -11.9071,3.21245 -25.726568,5.01562 -16.443892,2.14561 -21.717672,4.06594 -26.710936,9.75 C 65.925196,148.02118 64,152.61712 64,155.57812 c 0,3.17299 1.932224,7.59874 4.640624,10.61718 2.089236,2.32841 6.409088,5.66219 10.843752,8.09376 5.328056,1.11022 10.848504,1.71093 16.515624,1.71093 z"
     style="fill:#63d0fc;stroke-width:4" />
  <path
     style="opacity:0.1;fill:#ffffff;stroke-width:4"
     d="M 170.88281 67.945312 L 170.64062 68 L 169.89062 75 C 168.24778 90.361952 164.06402 99.509043 153.94531 109.88281 C 143.53221 119.14212 134.53015 125.89269 120.74219 130.54688 C 114.05154 132.74362 108.83509 133.75933 95.015625 135.5625 C 78.571733 137.70811 73.297952 139.62844 68.304688 145.3125 C 65.925207 148.02119 64 152.61714 64 155.57812 C 64 155.7259 64.025701 155.88793 64.039062 156.04297 C 64.240538 153.08566 66.060122 148.86761 68.304688 146.3125 C 73.297952 140.62844 78.571733 138.70811 95.015625 136.5625 C 108.83509 134.75933 114.05154 133.74362 120.74219 131.54688 C 134.53015 126.8927 143.53221 120.14212 153.94531 110.88281 C 164.06402 100.50904 168.24778 91.361952 169.89062 76 L 170.64062 69 L 170.88281 68.945312 C 174.08382 77.529167 175.92571 86.783592 175.98828 96.494141 C 175.99045 96.32897 176 96.165908 176 96 C 176 86.103804 174.13967 76.678928 170.88281 67.945312 z "
     id="path16" />
</svg>
