<?xml version="1.0" encoding="UTF-8" standalone="no"?>
<svg
   xmlns:dc="http://purl.org/dc/elements/1.1/"
   xmlns:cc="http://creativecommons.org/ns#"
   xmlns:rdf="http://www.w3.org/1999/02/22-rdf-syntax-ns#"
   xmlns:svg="http://www.w3.org/2000/svg"
   xmlns="http://www.w3.org/2000/svg"
   xmlns:sodipodi="http://sodipodi.sourceforge.net/DTD/sodipodi-0.dtd"
   xmlns:inkscape="http://www.inkscape.org/namespaces/inkscape"
   width="192"
   height="192"
   version="1"
   id="svg12"
   sodipodi:docname="miui_shop.svg"
   inkscape:version="0.92.3 (2405546, 2018-03-11)">
  <metadata
     id="metadata18">
    <rdf:RDF>
      <cc:Work
         rdf:about="">
        <dc:format>image/svg+xml</dc:format>
        <dc:type
           rdf:resource="http://purl.org/dc/dcmitype/StillImage" />
        <dc:title></dc:title>
      </cc:Work>
    </rdf:RDF>
  </metadata>
  <defs
     id="defs16">
    <filter
       inkscape:collect="always"
       style="color-interpolation-filters:sRGB"
       id="filter860"
       x="-0.048"
       width="1.096"
       y="-0.048"
       height="1.096">
      <feGaussianBlur
         inkscape:collect="always"
         stdDeviation="3.2"
         id="feGaussianBlur862" />
    </filter>
    <filter
       inkscape:collect="always"
       style="color-interpolation-filters:sRGB"
       id="filter857"
       x="-0.039200001"
       width="1.0784"
       y="-0.061894735"
       height="1.1237895">
      <feGaussianBlur
         inkscape:collect="always"
         stdDeviation="1.96"
         id="feGaussianBlur859" />
    </filter>
  </defs>
  <sodipodi:namedview
     pagecolor="#ffffff"
     bordercolor="#666666"
     borderopacity="1"
     objecttolerance="10"
     gridtolerance="10"
     guidetolerance="10"
     inkscape:pageopacity="0"
     inkscape:pageshadow="2"
     inkscape:window-width="1920"
     inkscape:window-height="1018"
     id="namedview14"
     showgrid="false"
     inkscape:zoom="1"
     inkscape:cx="-79.90224"
     inkscape:cy="103.91274"
     inkscape:window-x="0"
     inkscape:window-y="32"
     inkscape:window-maximized="1"
     inkscape:current-layer="svg12"
     showguides="false"
     inkscape:guide-bbox="true">
    <inkscape:grid
       type="xygrid"
       id="grid852" />
    <sodipodi:guide
       position="-90,175"
       orientation="1,0"
       id="guide861"
       inkscape:locked="false" />
  </sodipodi:namedview>
  <rect
     style="opacity:0.2;stroke-width:4;filter:url(#filter860)"
     width="160"
     height="160"
     x="16"
     y="20"
     rx="8"
     ry="8"
     id="rect2" />
  <rect
     style="fill:#ea6b4b;fill-opacity:1;stroke-width:4"
     width="160"
     height="160"
     x="16"
     y="16"
     rx="8"
     ry="8"
     id="rect4" />
  <path
     inkscape:connector-curvature="0"
     style="opacity:0.2;fill:#ffffff;stroke-width:4"
     d="m 24,16 c -4.432,0 -8,3.568 -8,8 v 1 c 0,-4.432 3.568,-8 8,-8 h 144 c 4.432,0 8,3.568 8,8 v -1 c 0,-4.432 -3.568,-8 -8,-8 z"
     id="path6" />
  <path
     sodipodi:nodetypes="sccssscccsccccscccccsccccccccscccccsssccsccscssssccsccscss"
     inkscape:connector-curvature="0"
     id="path843"
     d="m 69.05078,60.000004 c -28.7816,-6e-4 -32.20182,0.034 -32.60156,0.3125 L 36,60.621104 v 37.28514 c 0,0.78802 0.004,0.63168 0.004,1.38672 0,0.65276 -0.004,0.51616 -0.004,1.195316 v 34.57812 l 0.25,0.168 c 0.044,0.184 0.0914,0.29118 0.1524,0.35156 0.38918,0.38724 0.67014,0.40234 8.85156,0.40234 h 7.3672 l 0.1992,-0.1954 c 1.64254,-0.0434 2.30002,-0.1338 2.60936,-0.34374 L 56,135.0664 v -34.57812 c 0,-12.770776 -0.016,-15.378776 -0.039,-20.477356 1.96138,-0.059 6.18862,-0.047 16.53124,-0.012 17.61658,0.0602 18.7825,0.0894 19.89844,0.42188 2.08386,0.62054 3.8081,1.65736 5.20314,3.1289 2.18258,2.21116 2.43284,4.24844 2.42578,7 -0.008,3.10134 -0.02,5.94118 -0.02,11.882816 v 32.57502 l 0.57032,0.38672 c 0.2006,0.1364 0.49276,0.21262 1.02734,0.26952 L 101.9336,136 l 8.89844,-0.0546 c 8.20658,-0.054 8.5743,-0.0732 8.84764,-0.44532 0.006,-0.008 0.01,-0.25578 0.016,-0.28516 L 120,135.00782 V 100.4336 c 0,-1.464516 -0.0272,-2.719516 -0.0508,-4.007816 -0.049,-9.4128 -0.137,-17.63192 -0.29688,-18.61328 -0.70626,-4.33342 -2.30878,-7.53352 -5.38672,-10.75782 -3.71844,-3.89524 -8.23006,-6.21464 -13.29296,-6.83202 -1.24902,-0.1522 -9.71254,-0.22228 -31.92188,-0.22266 z m 76.94922,0 c -8.85308,0 -9.15368,0.01 -9.57032,0.39844 C 136.00266,60.795604 136,61.065564 136,97.984384 v 37.187496 l 0.57032,0.41406 C 137.12278,135.99006 137.35538,136 146,136 c 8.6446,0 8.87726,-0.01 9.42968,-0.41406 L 156,135.17188 V 97.984384 c 0,-36.91882 -0.002,-37.18878 -0.42968,-37.58594 -0.41664,-0.38744 -0.71726,-0.39844 -9.57032,-0.39844 z m -68,32.0004 c -8.61806,0 -9.2903,0.0256 -9.63282,0.36718 C 68.01804,92.715644 68,89.936424 68,111.97266 v 23.24218 l 0.48438,0.39062 C 68.94708,135.97902 69.41974,136 78,136 c 8.58022,0 9.05292,-0.02 9.51562,-0.39454 L 88,135.21484 V 111.97266 C 88,89.936424 87.984,92.715664 87.63282,92.367584 87.2903,92.026084 86.61816,92.000404 78,92.000404 Z"
     style="opacity:0.2;fill:#000000;stroke-width:0.20046207;filter:url(#filter857)" />
  <path
     style="fill:#ffffff;stroke-width:0.20046207"
     d="m 69.05078,58.000004 c -28.7816,-6e-4 -32.20182,0.034 -32.60156,0.3125 L 36,58.621104 v 37.28514 c 0,0.78802 0.004,0.63168 0.004,1.38672 0,0.65276 -0.004,0.51616 -0.004,1.19532 V 133.0664 l 0.25,0.168 c 0.044,0.184 0.0914,0.29118 0.1524,0.35156 0.38918,0.38724 0.67014,0.40234 8.85156,0.40234 h 7.3672 l 0.1992,-0.1954 c 1.64254,-0.0434 2.30002,-0.1338 2.60936,-0.34374 L 56,133.0664 V 98.488284 c 0,-12.77078 -0.016,-15.37878 -0.039,-20.47736 1.96138,-0.059 6.18862,-0.047 16.53124,-0.012 17.61658,0.0602 18.7825,0.0894 19.89844,0.42188 2.08386,0.62054 3.8081,1.65736 5.20314,3.1289 2.18258,2.21116 2.43284,4.24844 2.42578,7 -0.008,3.10134 -0.02,5.94118 -0.02,11.882816 v 32.57502 l 0.57032,0.38672 c 0.2006,0.1364 0.49276,0.21262 1.02734,0.26952 L 101.9336,134 l 8.89844,-0.0546 c 8.20658,-0.054 8.5743,-0.0732 8.84764,-0.44532 0.006,-0.008 0.01,-0.25578 0.016,-0.28516 L 120,133.00782 V 98.433604 c 0,-1.46452 -0.0272,-2.71952 -0.0508,-4.00782 -0.049,-9.4128 -0.137,-17.63192 -0.29688,-18.61328 -0.70626,-4.33342 -2.30878,-7.53352 -5.38672,-10.75782 -3.71844,-3.89524 -8.23006,-6.21464 -13.29296,-6.83202 -1.24902,-0.1522 -9.71254,-0.22228 -31.92188,-0.22266 z m 76.94922,0 c -8.85308,0 -9.15368,0.01 -9.57032,0.39844 C 136.00266,58.795604 136,59.065564 136,95.984384 v 37.187496 l 0.57032,0.41406 C 137.12278,133.99006 137.35538,134 146,134 c 8.6446,0 8.87726,-0.01 9.42968,-0.41406 L 156,133.17188 V 95.984384 c 0,-36.91882 -0.002,-37.18878 -0.42968,-37.58594 -0.41664,-0.38744 -0.71726,-0.39844 -9.57032,-0.39844 z m -68,32.0004 c -8.61806,0 -9.2903,0.0256 -9.63282,0.36718 C 68.01804,90.715644 68,87.936424 68,109.97266 v 23.24218 l 0.48438,0.39062 C 68.94708,133.97902 69.41974,134 78,134 c 8.58022,0 9.05292,-0.02 9.51562,-0.39454 L 88,133.21484 V 109.97266 C 88,87.936424 87.984,90.715664 87.63282,90.367584 87.2903,90.026084 86.61816,90.000404 78,90.000404 Z"
     id="path825"
     inkscape:connector-curvature="0"
     sodipodi:nodetypes="sccssscccsccccscccccsccccccccscccccsssccsccscssssccsccscss" />
</svg>
