<?xml version="1.0" encoding="UTF-8" standalone="no"?>
<svg
   xmlns:dc="http://purl.org/dc/elements/1.1/"
   xmlns:cc="http://creativecommons.org/ns#"
   xmlns:rdf="http://www.w3.org/1999/02/22-rdf-syntax-ns#"
   xmlns:svg="http://www.w3.org/2000/svg"
   xmlns="http://www.w3.org/2000/svg"
   xmlns:sodipodi="http://sodipodi.sourceforge.net/DTD/sodipodi-0.dtd"
   xmlns:inkscape="http://www.inkscape.org/namespaces/inkscape"
   width="192"
   height="192"
   version="1"
   id="svg12"
   sodipodi:docname="apps_gitkraken.svg"
   inkscape:version="0.92.3 (2405546, 2018-03-11)">
  <metadata
     id="metadata18">
    <rdf:RDF>
      <cc:Work
         rdf:about="">
        <dc:format>image/svg+xml</dc:format>
        <dc:type
           rdf:resource="http://purl.org/dc/dcmitype/StillImage" />
        <dc:title />
      </cc:Work>
    </rdf:RDF>
  </metadata>
  <defs
     id="defs16">
    <filter
       inkscape:collect="always"
       style="color-interpolation-filters:sRGB"
       id="filter877"
       x="-0.042722325"
       width="1.0854446"
       y="-0.05476541"
       height="1.1095308">
      <feGaussianBlur
         inkscape:collect="always"
         stdDeviation="2.278524"
         id="feGaussianBlur879" />
    </filter>
    <filter
       inkscape:collect="always"
       style="color-interpolation-filters:sRGB"
       id="filter838"
       x="-0.048"
       width="1.096"
       y="-0.048"
       height="1.096">
      <feGaussianBlur
         inkscape:collect="always"
         stdDeviation="3.2"
         id="feGaussianBlur840" />
    </filter>
  </defs>
  <sodipodi:namedview
     pagecolor="#ffffff"
     bordercolor="#666666"
     borderopacity="1"
     objecttolerance="10"
     gridtolerance="10"
     guidetolerance="10"
     inkscape:pageopacity="0"
     inkscape:pageshadow="2"
     inkscape:window-width="1920"
     inkscape:window-height="1018"
     id="namedview14"
     showgrid="false"
     inkscape:zoom="2.16"
     inkscape:cx="108.30556"
     inkscape:cy="88.077198"
     inkscape:window-x="0"
     inkscape:window-y="32"
     inkscape:window-maximized="1"
     inkscape:current-layer="svg12" />
  <rect
     id="rect844"
     ry="80"
     rx="80"
     y="20"
     x="16"
     height="160"
     width="160"
     style="opacity:0.2;fill:#000000;stroke-width:4;filter:url(#filter838)" />
  <rect
     style="fill:#4f4f4f;stroke-width:4"
     width="160"
     height="160"
     x="16"
     y="16"
     rx="80"
     ry="80"
     id="rect2" />
  <path
     sodipodi:nodetypes="cscccccccccccccccccccccsccscccccccccsccscccccccscccssssssssss"
     style="opacity:0.2;fill:#000000;stroke-width:4;filter:url(#filter877)"
     inkscape:connector-curvature="0"
     id="path851"
     d="M 64.264,61.9996 C 54.3,70.7836 48,83.6116 48,97.9996 c 0,18.6329 10.533972,34.68358 25.976328,42.64066 0,0 2.740176,1.28388 4.535184,2.06668 1.780772,0.6751 3.619916,1.23122 5.488488,1.71266 v 8.1484 C 58.355012,146.94203 40.061516,124.25478 40,98 40.0084,92.580568 40.803272,87.19104 42.36,82 H 34.086 C 32.71845,87.223972 32.017548,92.60002 32,98 c 0.01208,33.78422 26.281828,61.74049 60,63.852 v -28.268 c 1.38,0.216 2.748,0.384 4.084,0.416 1.388,-0.056 2.652,-0.224 3.916,-0.392 v 28.188 c 33.69664,-2.11014 59.95839,-30.03338 60,-63.796 -0.0272,-5.401256 -0.73833,-10.777324 -2.116,-16 h -8.2656 c 1.5635,5.190044 2.3652,10.579588 2.38,16 -0.0352,26.27577 -18.33456,48.9935 -44,54.624 v -8.2032 c 1.93411,-0.49832 3.83669,-1.07667 5.67565,-1.78414 1.86532,-0.58239 4.65505,-2.15449 4.65505,-2.15449 15.27614,-8.00951 25.6693,-23.97214 25.6693,-42.48137 0,-14.388 -6.3,-27.216 -16.264,-36 h -14.328 c 13.38,6.456 22.592,20.096 22.592,36 0,14.8548 -8.0392,27.7408 -20,34.6408 v -5.1876 c 2.76392,-2.668 2.91808,-6.698 0.0938,-9.742 l -1.57812,-1.69532 0.53908,-3.10936 c 0.79908,-4.6292 2.71224,-8.1104 5.5392,-10.078 1.27592,-0.88816 2.56936,-1.90304 2.875,-2.26564 0.68412,-0.8114 0.71808,-4.8728 0.0625,-7.2108 -1.79756,-6.4104 -11.2224,-20.064 -18.1796,-26.336 -3.95204,-3.56268 -7.0484,-5.1828 -10.0392,-5 -1.79448,0.10968 -3.54572,0.86944 -5.4296,2.25 -2.51316,1.84164 -8.9596,8.606 -12.008,12.6092 -6.508,8.548 -9.872,15.456 -9.872,20.256 0,3.18188 0.28472,3.69332 3.03908,5.5236 3.04664,2.02436 4.8092,4.9908 5.7344,9.664 l 0.73436,3.73436 -1.15624,1.03908 c -1.90068,1.71516 -2.6988,3.63756 -2.46876,5.9688 0.15808,1.60184 0.97992,3.18312 2.1172,4.3828 v 5.1952 c -11.96,-6.9 -20,-19.784 -20,-34.64 0,-15.9044 9.2132,-29.5444 22.5936,-36 h -14.328 z m 19.736,56 c 2.20914,0 4,1.79086 4,4 0,2.20914 -1.79086,4 -4,4 -2.20914,0 -4,-1.79086 -4,-4 0,-2.20914 1.79086,-4 4,-4 z m 24,0 c 2.20914,0 4,1.79086 4,4 0,2.20914 -1.79086,4 -4,4 -2.20914,0 -4,-1.79086 -4,-4 0,-2.20914 1.79086,-4 4,-4 z" />
  <path
     d="M 64.264,60 C 54.3,68.784 48,81.612 48,96 c 0,18.6329 10.533972,34.68358 25.976328,42.64066 0,0 2.740176,1.28388 4.535184,2.06668 1.780772,0.6751 3.619916,1.23122 5.488488,1.71266 v 8.1484 c -25.644988,-5.62597 -43.938484,-28.31322 -44,-54.568 0.0084,-5.419432 0.803272,-10.80896 2.36,-16 h -8.274 c -1.36755,5.223972 -2.068452,10.60002 -2.086,16 0.01208,33.78422 26.281828,61.74049 60,63.852 v -28.268 c 1.38,0.216 2.748,0.384 4.084,0.416 1.388,-0.056 2.652,-0.224 3.916,-0.392 v 28.188 c 33.69664,-2.11014 59.95839,-30.03338 60,-63.796 -0.0272,-5.401256 -0.73833,-10.777324 -2.116,-16 h -8.2656 c 1.5635,5.190044 2.3652,10.579588 2.38,16 -0.0352,26.27577 -18.33456,48.9935 -44,54.624 v -8.2032 c 1.93411,-0.49832 3.83669,-1.07667 5.67565,-1.78414 1.86532,-0.58239 4.65505,-2.15449 4.65505,-2.15449 15.27614,-8.00951 25.6693,-23.97214 25.6693,-42.48137 0,-14.388 -6.3,-27.216 -16.264,-36 h -14.328 c 13.38,6.456 22.592,20.096 22.592,36 0,14.8548 -8.0392,27.7408 -20,34.6408 v -5.1876 c 2.76392,-2.668 2.91808,-6.698 0.0938,-9.742 l -1.57812,-1.69532 0.53908,-3.10936 c 0.79908,-4.6292 2.71224,-8.1104 5.5392,-10.078 1.27592,-0.88816 2.56936,-1.90304 2.875,-2.26564 0.68412,-0.8114 0.71808,-4.8728 0.0625,-7.2108 -1.79756,-6.4104 -11.2224,-20.064 -18.1796,-26.336 -3.95204,-3.56268 -7.0484,-5.1828 -10.0392,-5 -1.79448,0.10968 -3.54572,0.86944 -5.4296,2.25 -2.51316,1.84164 -8.9596,8.606 -12.008,12.6092 -6.508,8.548 -9.872,15.456 -9.872,20.256 0,3.18188 0.28472,3.69332 3.03908,5.5236 3.04664,2.02436 4.8092,4.9908 5.7344,9.664 l 0.73436,3.73436 -1.15624,1.03908 c -1.90068,1.71516 -2.6988,3.63756 -2.46876,5.9688 0.15808,1.60184 0.97992,3.18312 2.1172,4.3828 v 5.1952 c -11.96,-6.9 -20,-19.784 -20,-34.64 0,-15.9044 9.2132,-29.5444 22.5936,-36 H 64.2671 Z M 84,116 c 2.20914,0 4,1.79086 4,4 0,2.20914 -1.79086,4 -4,4 -2.20914,0 -4,-1.79086 -4,-4 0,-2.20914 1.79086,-4 4,-4 z m 24,0 c 2.20914,0 4,1.79086 4,4 0,2.20914 -1.79086,4 -4,4 -2.20914,0 -4,-1.79086 -4,-4 0,-2.20914 1.79086,-4 4,-4 z"
     id="path10"
     inkscape:connector-curvature="0"
     style="fill:#3fb2ab;stroke-width:4"
     sodipodi:nodetypes="cscccccccccccccccccccccsccscccccccccsccscccccccscccssssssssss" />
  <path
     style="fill:#ffffff;stroke-width:4;opacity:0.1"
     d="M 96 16 C 51.68 16 16 51.68 16 96 C 16 96.167244 16.004845 96.333003 16.005859 96.5 C 16.273741 52.412589 51.847244 17 96 17 C 140.15276 17 175.72626 52.412589 175.99414 96.5 C 175.99516 96.333003 176 96.167244 176 96 C 176 51.68 140.32 16 96 16 z "
     id="rect846" />
  <path
     style="fill:#ffffff;stroke-width:4;opacity:0.2"
     d="M 64.263672 60 C 54.299672 68.784 48 81.612 48 96 C 48 96.200859 48.009278 96.399358 48.011719 96.599609 C 48.128065 82.375061 54.392727 69.701965 64.263672 61 L 64.267578 61 L 76.693359 61 C 77.320235 60.654846 77.948775 60.312121 78.595703 60 L 64.267578 60 L 64.263672 60 z M 113.40625 60.001953 C 114.05184 60.31346 114.67907 60.655595 115.30469 61 L 127.73438 61 C 137.6089 69.705117 143.87636 82.384408 143.98828 96.615234 C 143.99083 96.410418 143.99805 96.207404 143.99805 96.001953 C 143.99805 81.613953 137.69838 68.785953 127.73438 60.001953 L 113.40625 60.001953 z M 95.310547 60.017578 C 93.516067 60.127258 91.764739 60.887018 89.880859 62.267578 C 87.367699 64.109218 80.921447 70.873753 77.873047 74.876953 C 71.365047 83.424953 68.001953 90.332813 68.001953 95.132812 C 68.001953 95.399172 68.0084 95.622243 68.013672 95.853516 C 68.138062 91.066189 71.487757 84.263778 77.873047 75.876953 C 80.921447 71.873753 87.367699 65.109218 89.880859 63.267578 C 91.764739 61.887018 93.516067 61.127258 95.310547 61.017578 C 98.301347 60.834778 101.39757 62.454898 105.34961 66.017578 C 112.30681 72.289578 121.73174 85.943116 123.5293 92.353516 C 123.80777 93.346642 123.95562 94.645041 123.98828 95.878906 C 124.03258 94.389425 123.88525 92.622936 123.5293 91.353516 C 121.73174 84.943116 112.30681 71.289578 105.34961 65.017578 C 101.39757 61.454898 98.301347 59.834778 95.310547 60.017578 z M 34.085938 80 C 32.718387 85.223972 32.017548 90.60002 32 96 C 32.000052 96.146622 32.010679 96.291099 32.011719 96.4375 C 32.07448 91.226924 32.76591 86.042439 34.085938 81 L 42.080078 81 C 42.173365 80.666563 42.259855 80.331858 42.359375 80 L 34.085938 80 z M 149.61914 80 C 149.71909 80.33179 149.80667 80.666623 149.90039 81 L 157.88477 81 C 159.21606 86.046863 159.91752 91.237425 159.98828 96.455078 C 159.98954 96.302814 159.99981 96.152504 160 96 C 159.9728 90.598744 159.26244 85.222676 157.88477 80 L 149.61914 80 z M 135.98633 96.353516 C 135.8596 111.05869 127.86362 123.79751 115.99805 130.64258 L 115.99805 131.64062 C 127.95885 124.74062 135.99805 111.8548 135.99805 97 C 135.99805 96.783545 135.98973 96.56912 135.98633 96.353516 z M 56.013672 96.357422 C 56.010312 96.571734 56.001953 96.784847 56.001953 97 C 56.001953 111.856 64.041953 124.74062 76.001953 131.64062 L 76.001953 130.64062 C 64.138693 123.79644 56.142418 111.06135 56.013672 96.357422 z M 40.009766 96.445312 C 40.007647 96.630221 40.000287 96.815016 40 97 C 40.061516 123.25478 58.355012 145.94239 84 151.56836 L 84 150.56836 C 58.500599 144.97433 40.276415 122.51034 40.009766 96.445312 z M 151.98633 96.478516 C 151.73043 122.5505 133.50703 145.02882 107.99805 150.625 L 107.99805 151.62305 C 133.66349 145.99255 151.96285 123.27577 151.99805 97 C 151.99757 96.826047 151.98842 96.6524 151.98633 96.478516 z M 114.66016 114.17383 L 114.51367 115.01758 L 116.0918 116.71289 C 117.32317 118.04006 117.98761 119.55312 118.11719 121.06055 C 118.24726 119.23443 117.59622 117.33435 116.0918 115.71289 L 114.66016 114.17383 z M 77.341797 114.20508 L 76.353516 115.09375 C 74.519023 116.74918 73.720218 118.60141 73.873047 120.82422 C 73.995084 119.03724 74.801274 117.49448 76.353516 116.09375 L 77.509766 115.05469 L 77.341797 114.20508 z M 80.050781 120.5 C 80.029918 120.66551 80 120.82883 80 121 C 80 123.20914 81.79086 125 84 125 C 86.20914 125 88 123.20914 88 121 C 88 120.82883 87.970082 120.66551 87.949219 120.5 C 87.700808 122.47058 86.037974 124 84 124 C 81.962026 124 80.299192 122.47058 80.050781 120.5 z M 104.05078 120.5 C 104.02992 120.66551 104 120.82883 104 121 C 104 123.20914 105.79086 125 108 125 C 110.20914 125 112 123.20914 112 121 C 112 120.82883 111.97008 120.66551 111.94922 120.5 C 111.70081 122.47058 110.03797 124 108 124 C 105.96203 124 104.29919 122.47058 104.05078 120.5 z "
     id="path881" />
</svg>
