<?xml version="1.0" encoding="UTF-8" standalone="no"?>
<svg
   xmlns:dc="http://purl.org/dc/elements/1.1/"
   xmlns:cc="http://creativecommons.org/ns#"
   xmlns:rdf="http://www.w3.org/1999/02/22-rdf-syntax-ns#"
   xmlns:svg="http://www.w3.org/2000/svg"
   xmlns="http://www.w3.org/2000/svg"
   xmlns:sodipodi="http://sodipodi.sourceforge.net/DTD/sodipodi-0.dtd"
   xmlns:inkscape="http://www.inkscape.org/namespaces/inkscape"
   width="192"
   height="192"
   version="1"
   id="svg12"
   sodipodi:docname="apps_gearcalculator.svg"
   inkscape:version="0.92.3 (2405546, 2018-03-11)">
  <metadata
     id="metadata18">
    <rdf:RDF>
      <cc:Work
         rdf:about="">
        <dc:format>image/svg+xml</dc:format>
        <dc:type
           rdf:resource="http://purl.org/dc/dcmitype/StillImage" />
        <dc:title></dc:title>
      </cc:Work>
    </rdf:RDF>
  </metadata>
  <defs
     id="defs16">
    <filter
       inkscape:collect="always"
       style="color-interpolation-filters:sRGB"
       id="filter943"
       x="-0.013344828"
       width="1.0266897"
       y="-0.11907692"
       height="1.2381538">
      <feGaussianBlur
         inkscape:collect="always"
         stdDeviation="0.645"
         id="feGaussianBlur945" />
    </filter>
    <filter
       inkscape:collect="always"
       style="color-interpolation-filters:sRGB"
       id="filter961"
       x="-0.048"
       width="1.096"
       y="-0.048"
       height="1.096">
      <feGaussianBlur
         inkscape:collect="always"
         stdDeviation="0.76"
         id="feGaussianBlur963" />
    </filter>
    <filter
       inkscape:collect="always"
       style="color-interpolation-filters:sRGB"
       id="filter979"
       x="-0.04215"
       width="1.0843"
       y="-0.055735537"
       height="1.1114711">
      <feGaussianBlur
         inkscape:collect="always"
         stdDeviation="2.81"
         id="feGaussianBlur981" />
    </filter>
    <filter
       inkscape:collect="always"
       style="color-interpolation-filters:sRGB"
       id="filter1009"
       x="-0.036"
       width="1.072"
       y="-0.072"
       height="1.144">
      <feGaussianBlur
         inkscape:collect="always"
         stdDeviation="2.4"
         id="feGaussianBlur1011" />
    </filter>
    <filter
       inkscape:collect="always"
       style="color-interpolation-filters:sRGB"
       id="filter1025"
       x="-0.02385"
       width="1.0477"
       y="-0.024151899"
       height="1.0483038">
      <feGaussianBlur
         inkscape:collect="always"
         stdDeviation="1.59"
         id="feGaussianBlur1027" />
    </filter>
  </defs>
  <sodipodi:namedview
     pagecolor="#ffffff"
     bordercolor="#666666"
     borderopacity="1"
     objecttolerance="10"
     gridtolerance="10"
     guidetolerance="10"
     inkscape:pageopacity="0"
     inkscape:pageshadow="2"
     inkscape:window-width="1920"
     inkscape:window-height="1018"
     id="namedview14"
     showgrid="false"
     inkscape:zoom="3.52"
     inkscape:cx="100.70009"
     inkscape:cy="79.49073"
     inkscape:window-x="0"
     inkscape:window-y="32"
     inkscape:window-maximized="1"
     inkscape:current-layer="svg12">
    <inkscape:grid
       type="xygrid"
       id="grid856" />
  </sodipodi:namedview>
  <path
     sodipodi:nodetypes="sssssssss"
     inkscape:connector-curvature="0"
     id="path965"
     d="m 36,59 h 120 c 11.08,0 20,8.92 20,20 v 81 c 0,11.08 -8.92,20 -20,20 H 36 C 24.92,180 16,171.08 16,160 V 79 C 16,67.92 24.92,59 36,59 Z"
     style="opacity:0.2;fill:#000000;fill-opacity:1;stroke-width:2.86356401;filter:url(#filter979)" />
  <path
     style="opacity:1;fill:#2d4552;fill-opacity:1;stroke-width:2.86356401"
     d="m 36,55 h 120 c 11.08,0 20,8.92 20,20 v 81 c 0,11.08 -8.92,20 -20,20 H 36 C 24.92,176 16,167.08 16,156 V 75 C 16,63.92 24.92,55 36,55 Z"
     id="rect896"
     inkscape:connector-curvature="0"
     sodipodi:nodetypes="sssssssss" />
  <path
     inkscape:connector-curvature="0"
     style="opacity:0.2;fill:#000000;fill-opacity:1;stroke:none;stroke-width:6.34713793;stroke-linecap:round;stroke-linejoin:round;stroke-miterlimit:4;stroke-dasharray:none;stroke-opacity:1;filter:url(#filter1025)"
     d="m 92.132812,18 c -1.290227,0 -2.175088,1.029429 -2.330078,2.287109 l -1.15625,9.386719 a 68.732403,68.732403 0 0 0 -3.283203,0.398438 l -3.638672,-8.994141 c -0.32798,-1.224011 -1.595524,-1.941354 -2.841797,-1.607422 l -6.384765,1.710938 c -1.24627,0.333932 -1.816083,1.555182 -1.658203,2.8125 l 1.1875,9.447265 a 68.732403,68.732403 0 0 0 -3.921875,1.582032 l -5.6875,-7.541016 c -0.6336,-1.09742 -2.042786,-1.461515 -3.160157,-0.816406 l -5.724609,3.30664 c -1.11737,0.645116 -1.350977,1.970917 -0.873047,3.144532 l 3.494141,8.580078 a 68.732403,68.732403 0 0 0 -3.556641,2.5625 l -7.166015,-5.59375 c -0.89604,-0.89604 -2.353295,-0.881078 -3.265625,0.03125 l -4.673828,4.671875 c -0.91233,0.912332 -0.794694,2.255698 -0.0293,3.265625 l 5.388671,7.107422 a 68.732403,68.732403 0 0 0 -2.740234,3.603515 l -8.201172,-3.476562 c -1.09741,-0.633589 -2.499411,-0.244325 -3.144531,0.873047 l -3.304687,5.724609 c -0.64512,1.117374 -0.184284,2.382742 0.816406,3.160156 l 6.927734,5.380859 a 68.732403,68.732403 0 0 0 -1.8125,4.246094 l -8.601562,-1.205078 c -1.22401,-0.327972 -2.47855,0.409984 -2.8125,1.65625 l -1.710938,6.384766 c -0.33394,1.246266 0.439612,2.34987 1.607422,2.841797 l 7.908203,3.332031 a 68.732403,68.732403 0 0 0 -0.671875,4.451172 l -8.824219,1.08789 C 17.019912,91.802734 16,92.842584 16,94.132812 v 6.607418 c 0,1.29023 1.031769,2.15718 2.287109,2.33008 l 8.759766,1.20703 a 68.732403,68.732403 0 0 0 0.589844,4.85743 L 19.875,112.27539 c -1.17471,0.47523 -1.941362,1.59553 -1.607422,2.8418 l 1.710938,6.38476 c 0.33394,1.24627 1.58849,1.98422 2.8125,1.65625 l 8.320312,-1.04492 a 68.732403,68.732403 0 0 0 1.88086,4.4043 l -6.712891,5.0625 c -1.01169,0.76307 -1.461516,2.04474 -0.816406,3.16211 l 3.304687,5.72461 c 0.64511,1.11738 2.049064,1.50469 3.146484,0.87109 l 7.837891,-3.19141 a 68.732403,68.732403 0 0 0 2.900391,3.78125 l -5.183594,6.64063 c -0.77971,0.99891 -0.883026,2.35329 0.0293,3.26562 l 4.673828,4.67188 c 0.91233,0.91233 2.369585,0.92734 3.265625,0.0312 l 6.794922,-5.15039 a 68.732403,68.732403 0 0 0 3.759766,2.85742 l -3.324219,7.8418 c -0.49461,1.16668 -0.244323,2.49941 0.873047,3.14453 l 5.724609,3.30469 c 1.11738,0.64512 2.526566,0.281 3.160156,-0.81641 l 5.326172,-6.85547 a 68.732403,68.732403 0 0 0 4.308594,1.67969 l -1.214844,8.66406 c -0.17579,1.25494 0.411933,2.47855 1.658203,2.8125 l 6.382813,1.70899 c 1.24627,0.33393 2.51578,-0.38146 2.84375,-1.60547 l 3.470703,-8.24414 a 68.732403,68.732403 0 0 0 3.453125,0.51367 l 1.148437,9.32031 c 0,0.0983 0.01716,0.19219 0.0293,0.28711 h 11.177743 c 0.0219,-0.095 0.047,-0.18899 0.0605,-0.28711 l 1.29492,-9.40234 a 68.732403,68.732403 0 0 0 5.13282,-0.66407 l 3.57031,8.47657 c 0.32797,1.22401 1.59553,1.93941 2.8418,1.60547 l 6.38281,-1.70899 c 1.24626,-0.33394 1.834,-1.55756 1.6582,-2.8125 l -1.30078,-9.28515 a 68.732403,68.732403 0 0 0 3.875,-1.73243 l 5.84766,7.5293 c 0.63359,1.09741 2.04278,1.46152 3.16015,0.81641 l 5.72461,-3.30469 c 1.11737,-0.64512 1.36766,-1.97784 0.87305,-3.14453 l -3.79102,-8.94336 a 68.732403,68.732403 0 0 0 3.21485,-2.52539 l 7.81054,5.91992 c 0.89604,0.89603 2.3533,0.88302 3.26563,-0.0293 l 4.67187,-4.67383 c 0.91232,-0.91233 0.81102,-2.26671 0.0312,-3.26562 l -6.13476,-7.85742 a 68.732403,68.732403 0 0 0 2.39648,-3.15235 l 9.28516,3.7793 c 1.09742,0.63359 2.49941,0.24628 3.14453,-0.87109 l 3.30469,-5.72461 c 0.64511,-1.11737 0.19527,-2.39904 -0.81641,-3.16211 l -8.10742,-6.11524 a 68.732403,68.732403 0 0 0 1.39063,-3.58789 l 10.20703,1.28125 c 1.22402,0.32797 2.47856,-0.40998 2.8125,-1.65625 l 1.71093,-6.38476 c 0.33393,-1.24627 -0.43271,-2.36657 -1.60742,-2.8418 l -9.625,-3.89453 a 68.732403,68.732403 0 0 0 0.55274,-3.95117 l 9.86523,-1.35938 c 1.26719,0 2.28711,-1.03984 2.28711,-2.33008 v -6.607418 c 0,-1.290231 -1.02943,-2.175081 -2.28711,-2.330078 l -10.02734,-1.236328 a 68.732403,68.732403 0 0 0 -0.4336,-3.5625 l 9.66797,-4.072265 c 1.16781,-0.491927 1.94135,-1.595531 1.60742,-2.841797 l -1.71093,-6.384766 c -0.33395,-1.246265 -1.58848,-1.984222 -2.8125,-1.65625 l -10.3711,1.453125 a 68.732403,68.732403 0 0 0 -1.46875,-3.386719 l 8.35156,-6.488281 c 1.00069,-0.777414 1.46152,-2.042781 0.81641,-3.160156 l -3.30469,-5.724609 c -0.64512,-1.117371 -2.04712,-1.506636 -3.14453,-0.873047 l -9.67773,4.101562 a 68.732403,68.732403 0 0 0 -2.18946,-2.994141 l 6.32227,-8.341796 c 0.76539,-1.009927 0.88302,-2.353292 -0.0293,-3.265625 l -4.67187,-4.671875 c -0.91233,-0.912327 -2.36958,-0.927289 -3.26563,-0.03125 l -8.16601,6.376953 a 68.732403,68.732403 0 0 0 -2.9961,-2.277344 l 3.92969,-9.648437 c 0.47792,-1.173612 0.24433,-2.499416 -0.87305,-3.144532 l -5.7246,-3.30664 c -1.11737,-0.64511 -2.52656,-0.281014 -3.16016,0.816406 l -6.17188,8.179687 a 68.732403,68.732403 0 0 0 -3.52734,-1.523437 l 1.27539,-10.144531 c 0.15788,-1.257318 -0.41193,-2.478568 -1.6582,-2.8125 l -6.38477,-1.710938 c -1.24626,-0.333932 -2.51382,0.383411 -2.84179,1.607422 l -3.75782,9.291016 a 68.732403,68.732403 0 0 0 -4.95898,-0.75 l -1.28516,-9.332032 C 101.07036,19.019964 100.03046,18 98.740234,18 Z M 102,43.351562 a 55,55 0 0 1 28.37891,11.783204 L 112.52734,72.988281 A 30,30 0 0 0 102,68.607422 Z m -12,0.04297 v 25.24414 A 30,30 0 0 0 79.470703,72.984375 L 61.59375,55.107422 A 55,55 0 0 1 90,43.394532 Z M 138.89258,63.59375 A 55,55 0 0 1 150.60547,92 H 125.36133 A 30,30 0 0 0 121.01562,81.470703 Z M 53.134766,63.62109 70.988281,81.472652 A 30,30 0 0 0 66.607422,92 H 41.351562 A 55,55 0 0 1 53.134766,63.621094 Z M 96,85 A 13,13 0 0 1 109,98 13,13 0 0 1 96,111 13,13 0 0 1 83,98 13,13 0 0 1 96,85 Z m -54.605469,19 h 25.244141 a 30,30 0 0 0 4.345703,10.5293 L 53.107422,132.40625 A 55,55 0 0 1 41.394531,104 Z m 83.998049,0 h 25.25586 a 55,55 0 0 1 -11.78321,28.37891 L 121.01172,114.52734 A 30,30 0 0 0 125.39258,104 Z M 79.472656,123.01172 A 30,30 0 0 0 90,127.39258 v 25.25586 A 55,55 0 0 1 61.621094,140.86523 Z m 33.056644,0.004 17.87695,17.87696 A 55,55 0 0 1 102,152.60547 v -25.24414 a 30,30 0 0 0 10.5293,-4.34571 z"
     id="path1013" />
  <path
     inkscape:connector-curvature="0"
     style="opacity:1;fill:#7fa8be;fill-opacity:1;stroke:none;stroke-width:6.34713793;stroke-linecap:round;stroke-linejoin:round;stroke-miterlimit:4;stroke-dasharray:none;stroke-opacity:1"
     d="m 92.132812,16 c -1.290227,0 -2.175088,1.029429 -2.330078,2.287109 l -1.15625,9.386719 a 68.732403,68.732403 0 0 0 -3.283203,0.398438 l -3.638672,-8.994141 c -0.32798,-1.224011 -1.595525,-1.941354 -2.841797,-1.607422 l -6.384765,1.710938 c -1.24627,0.333932 -1.816083,1.555182 -1.658203,2.8125 l 1.1875,9.447265 a 68.732403,68.732403 0 0 0 -3.921875,1.582032 l -5.6875,-7.541016 c -0.6336,-1.09742 -2.042786,-1.461515 -3.160157,-0.816406 l -5.724609,3.30664 c -1.11737,0.645116 -1.350977,1.970917 -0.873047,3.144532 l 3.494141,8.580078 a 68.732403,68.732403 0 0 0 -3.556641,2.5625 l -7.166015,-5.59375 c -0.89604,-0.89604 -2.353295,-0.881078 -3.265625,0.03125 l -4.673828,4.671875 c -0.91233,0.912332 -0.794697,2.255698 -0.0293,3.265625 l 5.388671,7.107422 a 68.732403,68.732403 0 0 0 -2.740234,3.603515 l -8.201172,-3.476562 c -1.09741,-0.633589 -2.499411,-0.244324 -3.144531,0.873047 l -3.304687,5.724609 c -0.64512,1.117374 -0.184284,2.382742 0.816406,3.160156 l 6.927734,5.380859 a 68.732403,68.732403 0 0 0 -1.8125,4.246094 l -8.601562,-1.205078 c -1.22401,-0.327972 -2.47855,0.409984 -2.8125,1.65625 l -1.710938,6.384766 c -0.33394,1.246266 0.439612,2.34987 1.607422,2.841797 l 7.908203,3.332031 a 68.732403,68.732403 0 0 0 -0.671875,4.451172 l -8.824219,1.08789 C 17.019909,89.802734 16,90.842583 16,92.132812 v 6.607422 c 0,1.290226 1.031769,2.157176 2.287109,2.330076 l 8.759766,1.20703 a 68.732403,68.732403 0 0 0 0.589844,4.85743 L 19.875,110.27539 c -1.17471,0.47523 -1.941362,1.59553 -1.607422,2.8418 l 1.710938,6.38476 c 0.33394,1.24627 1.58849,1.98422 2.8125,1.65625 l 8.320312,-1.04492 a 68.732403,68.732403 0 0 0 1.88086,4.4043 l -6.712891,5.0625 c -1.01169,0.76307 -1.461516,2.04474 -0.816406,3.16211 l 3.304687,5.72461 c 0.64511,1.11738 2.049064,1.50469 3.146484,0.87109 l 7.837891,-3.19141 a 68.732403,68.732403 0 0 0 2.900391,3.78125 l -5.183594,6.64063 c -0.77971,0.99891 -0.883023,2.35329 0.0293,3.26562 l 4.673828,4.67188 c 0.91233,0.91233 2.369585,0.92729 3.265625,0.0312 l 6.794922,-5.15039 a 68.732403,68.732403 0 0 0 3.759766,2.85742 l -3.324219,7.8418 c -0.49461,1.16668 -0.244323,2.49941 0.873047,3.14453 l 5.724609,3.30469 c 1.11738,0.64512 2.526566,0.281 3.160156,-0.81641 l 5.326172,-6.85547 a 68.732403,68.732403 0 0 0 4.308594,1.67969 l -1.214844,8.66406 c -0.17579,1.25494 0.411933,2.47855 1.658203,2.8125 l 6.382813,1.70899 c 1.24627,0.33393 2.51578,-0.38146 2.84375,-1.60547 l 3.470703,-8.24414 a 68.732403,68.732403 0 0 0 3.453125,0.51367 l 1.148437,9.32031 c 0,1.26719 1.03985,2.28711 2.330078,2.28711 h 6.607422 c 1.290233,0 2.157163,-1.03177 2.330073,-2.28711 l 1.29492,-9.40234 a 68.732403,68.732403 0 0 0 5.13282,-0.66407 l 3.57031,8.47657 c 0.32797,1.22401 1.59553,1.93941 2.8418,1.60547 l 6.38281,-1.70899 c 1.24626,-0.33394 1.834,-1.55756 1.6582,-2.8125 l -1.30078,-9.28515 a 68.732403,68.732403 0 0 0 3.875,-1.73243 l 5.84766,7.5293 c 0.63359,1.09741 2.04278,1.46152 3.16015,0.81641 l 5.72461,-3.30469 c 1.11737,-0.64512 1.36766,-1.97784 0.87305,-3.14453 l -3.79102,-8.94336 a 68.732403,68.732403 0 0 0 3.21485,-2.52539 l 7.81054,5.91992 c 0.89604,0.89603 2.3533,0.88302 3.26563,-0.0293 l 4.67187,-4.67383 c 0.91232,-0.91233 0.81097,-2.26671 0.0312,-3.26562 l -6.13476,-7.85742 a 68.732403,68.732403 0 0 0 2.39648,-3.15235 l 9.28516,3.7793 c 1.09742,0.63359 2.49941,0.24628 3.14453,-0.87109 l 3.30469,-5.72461 c 0.64511,-1.11737 0.19527,-2.39904 -0.81641,-3.16211 l -8.10742,-6.11524 a 68.732403,68.732403 0 0 0 1.39063,-3.58789 l 10.20703,1.28125 c 1.22402,0.32797 2.47856,-0.40998 2.8125,-1.65625 l 1.71093,-6.38476 c 0.33393,-1.24627 -0.43271,-2.36657 -1.60742,-2.8418 l -9.625,-3.89453 a 68.732403,68.732403 0 0 0 0.55274,-3.95117 l 9.86523,-1.35938 c 1.26719,0 2.28711,-1.03984 2.28711,-2.330076 v -6.607422 c 0,-1.290231 -1.02943,-2.175081 -2.28711,-2.330078 L 163.6855,88.566356 a 68.732403,68.732403 0 0 0 -0.4336,-3.5625 l 9.66797,-4.072265 c 1.16781,-0.491927 1.94135,-1.595531 1.60742,-2.841797 l -1.71093,-6.384766 c -0.33395,-1.246265 -1.58848,-1.984222 -2.8125,-1.65625 l -10.3711,1.453125 a 68.732403,68.732403 0 0 0 -1.46875,-3.386719 l 8.35156,-6.488281 c 1.00069,-0.777414 1.46152,-2.042781 0.81641,-3.160156 l -3.30469,-5.724609 c -0.64512,-1.117371 -2.04712,-1.506636 -3.14453,-0.873047 l -9.67773,4.101562 a 68.732403,68.732403 0 0 0 -2.18946,-2.994141 l 6.32227,-8.341796 c 0.76539,-1.009927 0.88302,-2.353292 -0.0293,-3.265625 l -4.67187,-4.671875 c -0.91233,-0.912327 -2.36958,-0.927289 -3.26563,-0.03125 l -8.16601,6.376953 a 68.732403,68.732403 0 0 0 -2.9961,-2.277344 l 3.92969,-9.648437 c 0.47792,-1.173612 0.24432,-2.499416 -0.87305,-3.144532 l -5.7246,-3.30664 c -1.11737,-0.64511 -2.52656,-0.281014 -3.16016,0.816406 l -6.17188,8.179687 a 68.732403,68.732403 0 0 0 -3.52734,-1.523437 l 1.27539,-10.144531 c 0.15788,-1.257318 -0.41193,-2.478568 -1.6582,-2.8125 l -6.38477,-1.710938 c -1.24626,-0.333932 -2.51382,0.383411 -2.84179,1.607422 l -3.75782,9.291016 a 68.732403,68.732403 0 0 0 -4.95898,-0.75 l -1.28516,-9.332032 C 101.07031,17.019914 100.03046,16 98.740234,16 Z M 102,41.351562 a 55,55 0 0 1 28.37891,11.783204 L 112.52734,70.988281 A 30,30 0 0 0 102,66.607422 Z m -12,0.04297 v 25.24414 A 30,30 0 0 0 79.470703,70.984375 L 61.59375,53.107422 A 55,55 0 0 1 90,41.394532 Z M 138.89258,61.59375 A 55,55 0 0 1 150.60547,90 H 125.36133 A 30,30 0 0 0 121.01562,79.470703 Z M 53.134766,61.62109 70.988281,79.472652 A 30,30 0 0 0 66.607422,90 H 41.351562 A 55,55 0 0 1 53.134766,61.621094 Z M 96,83 A 13,13 0 0 1 109,96 13,13 0 0 1 96,109 13,13 0 0 1 83,96 13,13 0 0 1 96,83 Z m -54.605469,19 h 25.244141 a 30,30 0 0 0 4.345703,10.5293 L 53.107422,130.40625 A 55,55 0 0 1 41.394531,102 Z m 83.998049,0 h 25.25586 a 55,55 0 0 1 -11.78321,28.37891 L 121.01172,112.52734 A 30,30 0 0 0 125.39258,102 Z M 79.472656,121.01172 A 30,30 0 0 0 90,125.39258 v 25.25586 A 55,55 0 0 1 61.621094,138.86523 Z m 33.056644,0.004 17.87695,17.87696 A 55,55 0 0 1 102,150.60547 v -25.24414 a 30,30 0 0 0 10.5293,-4.34571 z"
     id="path876" />
  <path
     inkscape:connector-curvature="0"
     style="opacity:0.2;fill:#ffffff;fill-opacity:1;stroke:none;stroke-width:6.34713793;stroke-linecap:round;stroke-linejoin:round;stroke-miterlimit:4;stroke-dasharray:none;stroke-opacity:1"
     d="m 92.132812,16 c -1.290227,0 -2.175088,1.029429 -2.330078,2.287109 l -1.15625,9.386719 a 68.732403,68.732403 0 0 0 -3.283203,0.398438 l -3.638672,-8.994141 c -0.32798,-1.224011 -1.595524,-1.941354 -2.841797,-1.607422 l -6.384765,1.710938 c -1.24627,0.333932 -1.816083,1.555182 -1.658203,2.8125 l 0.01367,0.113281 c 0.143047,-0.905457 0.697112,-1.671925 1.644531,-1.925781 l 6.384765,-1.710938 c 1.246273,-0.333932 2.513817,0.383411 2.841797,1.607422 l 3.638672,8.994141 a 68.732403,68.732403 0 0 1 3.283203,-0.398438 l 1.15625,-9.386719 C 89.957724,18.029429 90.842585,17 92.132812,17 h 6.607422 c 1.290226,0 2.330126,1.019964 2.330076,2.287109 l 1.28516,9.332032 a 68.732403,68.732403 0 0 1 4.95898,0.75 l 3.75782,-9.291016 c 0.32797,-1.224011 1.59553,-1.941354 2.84179,-1.607422 l 6.38477,1.710938 c 0.94742,0.253856 1.50148,1.020324 1.64453,1.925781 l 0.0137,-0.113281 c 0.15788,-1.257318 -0.41193,-2.478568 -1.6582,-2.8125 l -6.38477,-1.710938 c -1.24626,-0.333932 -2.51382,0.383411 -2.84179,1.607422 l -3.75782,9.291016 a 68.732403,68.732403 0 0 0 -4.95898,-0.75 l -1.28516,-9.332032 C 101.07031,17.019914 100.03046,16 98.740234,16 Z m -31.550781,8.351562 c -0.444798,-0.02737 -0.905204,0.07254 -1.324219,0.314454 l -5.724609,3.30664 c -0.914773,0.528146 -1.230083,1.51251 -1.054687,2.496094 0.118091,-0.607622 0.4566,-1.150787 1.054687,-1.496094 l 5.724609,-3.30664 c 1.117371,-0.645109 2.526557,-0.281014 3.160157,0.816406 l 5.6875,7.541016 a 68.732403,68.732403 0 0 1 3.921875,-1.582032 l -0.119141,-0.951172 a 68.732403,68.732403 0 0 0 -3.802734,1.533204 l -5.6875,-7.541016 c -0.396,-0.685888 -1.094607,-1.085235 -1.835938,-1.13086 z m 71.634769,0 c -0.74133,0.04562 -1.43994,0.444972 -1.83594,1.13086 l -6.17188,8.179687 a 68.732403,68.732403 0 0 0 -3.4082,-1.472656 l -0.11914,0.949219 a 68.732403,68.732403 0 0 1 3.52734,1.523437 l 6.17188,-8.179687 c 0.6336,-1.09742 2.04279,-1.461516 3.16016,-0.816406 l 5.7246,3.30664 c 0.59809,0.345307 0.9366,0.888471 1.05469,1.496094 0.17539,-0.983583 -0.13991,-1.967948 -1.05469,-2.496094 l -5.7246,-3.30664 C 133.122,24.424099 132.6616,24.324188 132.2168,24.351562 Z M 43.804688,36.003906 c -0.59036,0.0058 -1.182507,0.237196 -1.638672,0.69336 l -4.673828,4.671875 c -0.581632,0.581632 -0.742502,1.338342 -0.585938,2.072265 0.08483,-0.387413 0.270117,-0.756444 0.585938,-1.072265 l 4.673828,-4.671875 c 0.91233,-0.912328 2.369585,-0.92729 3.265625,-0.03125 l 7.166015,5.59375 a 68.732403,68.732403 0 0 1 3.556641,-2.5625 l -0.314453,-0.773438 a 68.732403,68.732403 0 0 0 -3.242188,2.335938 l -7.166015,-5.59375 c -0.44802,-0.44802 -1.036594,-0.667886 -1.626953,-0.66211 z m 105.193362,0 c -0.59036,-0.0058 -1.17893,0.21409 -1.62696,0.66211 l -8.16601,6.376953 a 68.732403,68.732403 0 0 0 -2.68555,-2.041016 l -0.31055,0.763672 a 68.732403,68.732403 0 0 1 2.9961,2.277344 l 8.16601,-6.376953 c 0.89605,-0.896039 2.3533,-0.881077 3.26563,0.03125 l 4.67187,4.671875 c 0.31635,0.316354 0.50133,0.686085 0.58594,1.074218 0.15722,-0.734493 -0.004,-1.492103 -0.58594,-2.074218 l -4.67187,-4.671875 c -0.45617,-0.456164 -1.04831,-0.687583 -1.63867,-0.69336 z M 30.603516,51.572266 c -0.735365,0.05756 -1.434691,0.471565 -1.837891,1.169922 l -3.304687,5.724609 c -0.302057,0.523174 -0.353264,1.076824 -0.228516,1.599609 0.04812,-0.202174 0.115077,-0.403129 0.228516,-0.599609 l 3.304687,-5.724609 c 0.64512,-1.117372 2.047121,-1.506636 3.144531,-0.873047 l 8.201172,3.476562 a 68.732403,68.732403 0 0 1 2.740234,-3.603515 l -0.378906,-0.5 a 68.732403,68.732403 0 0 0 -2.361328,3.103515 l -8.201172,-3.476562 c -0.411528,-0.237596 -0.865421,-0.331414 -1.30664,-0.296875 z m 131.585934,0 c -0.44122,-0.03454 -0.89511,0.05928 -1.30664,0.296875 l -9.67773,4.101562 a 68.732403,68.732403 0 0 0 -1.81641,-2.484375 l -0.37305,0.490234 a 68.732403,68.732403 0 0 1 2.18946,2.994141 l 9.67773,-4.101562 c 1.09741,-0.633589 2.49941,-0.244324 3.14453,0.873047 l 3.30469,5.724609 c 0.11344,0.19648 0.18039,0.397435 0.22852,0.599609 0.12474,-0.522785 0.0735,-1.076434 -0.22852,-1.599609 l -3.30469,-5.724609 c -0.4032,-0.698357 -1.10252,-1.112358 -1.83789,-1.169922 z M 62.175781,53.689453 A 55,55 0 0 0 61.59375,54.107422 L 79.470703,71.984375 A 30,30 0 0 1 90,67.638672 v -1 a 30,30 0 0 0 -10.529297,4.345703 z m 67.630859,0.01758 -17.2793,17.28125 A 30,30 0 0 0 102,66.607422 v 1 a 30,30 0 0 1 10.52734,4.380859 l 17.85157,-17.853515 a 55,55 0 0 0 -0.57227,-0.427735 z M 32.884766,67.759766 a 68.732403,68.732403 0 0 0 -1.492188,3.49414 l -8.601562,-1.205078 c -1.22401,-0.327972 -2.47855,0.409984 -2.8125,1.65625 l -1.710938,6.384766 c -0.100126,0.373671 -0.09149,0.731028 -0.01172,1.066406 0.0053,-0.0225 0.0057,-0.04381 0.01172,-0.06641 l 1.710938,-6.384766 c 0.33395,-1.246266 1.58849,-1.984222 2.8125,-1.65625 l 8.601562,1.205078 a 68.732403,68.732403 0 0 1 1.8125,-4.246094 z m 125.603514,1.103515 -0.32422,0.251953 a 68.732403,68.732403 0 0 1 1.46875,3.386719 l 10.3711,-1.453125 c 1.22402,-0.327972 2.47855,0.409985 2.8125,1.65625 l 1.71093,6.384766 c 0.006,0.02259 0.006,0.04391 0.0117,0.06641 0.0798,-0.335378 0.0884,-0.692735 -0.0117,-1.066406 l -1.71093,-6.384766 c -0.33395,-1.246265 -1.58848,-1.984222 -2.8125,-1.65625 l -10.3711,1.453125 a 68.732403,68.732403 0 0 0 -1.14453,-2.638672 z m -37.09766,11.232422 -0.375,0.375 A 30,30 0 0 1 125.36133,91 h 25.24414 a 55,55 0 0 0 -0.14258,-1 h -25.10156 a 30,30 0 0 0 -3.97071,-9.904297 z m -50.775386,0.0039 A 30,30 0 0 0 66.607422,90 h -25.09375 a 55,55 0 0 0 -0.16211,1 h 25.25586 a 30,30 0 0 1 4.380859,-10.527344 z m -42.974609,5.103516 a 68.732403,68.732403 0 0 0 -0.529297,3.511719 l -8.824219,1.08789 C 17.019909,89.802734 16,90.842584 16,92.132812 v 1 c 0,-1.290228 1.019912,-2.330078 2.287109,-2.330078 l 8.824219,-1.08789 a 68.732403,68.732403 0 0 1 0.671875,-4.451172 z m 135.726565,0.751953 -0.11524,0.04883 a 68.732403,68.732403 0 0 1 0.4336,3.5625 l 10.02734,1.236328 C 174.97057,90.957731 176,91.842581 176,93.132812 v -1 c 0,-1.290231 -1.02943,-2.175081 -2.28711,-2.330078 l -10.02734,-1.236328 a 68.732403,68.732403 0 0 0 -0.31836,-2.611328 z m -54.38867,10.46485 A 13,13 0 0 1 96,109 13,13 0 0 1 83.021484,96.580078 13,13 0 0 0 83,97 13,13 0 0 0 96,110 13,13 0 0 0 109,97 13,13 0 0 0 108.9785,96.419922 Z M 41.394531,103 a 55,55 0 0 0 11.712891,28.40625 L 70.984375,113.5293 a 30,30 0 0 1 -0.375,-0.625 L 53.107422,130.40625 A 55,55 0 0 1 41.537109,103 Z m 109.091799,0 a 55,55 0 0 1 -11.6211,27.37891 l -17.48046,-17.47852 a 30,30 0 0 1 -0.37305,0.62695 l 17.85351,17.85157 A 55,55 0 0 0 150.64844,103 Z m 12.9414,3.43359 a 68.732403,68.732403 0 0 1 -0.13281,0.94727 l 9.625,3.89453 c 0.8223,0.33266 1.43428,0.98471 1.61914,1.77149 0.2866,-1.21759 -0.46685,-2.30533 -1.61914,-2.77149 z M 27.521484,107.18164 19.875,110.27539 c -1.152291,0.46616 -1.905748,1.5539 -1.619141,2.77149 0.184861,-0.78678 0.796844,-1.43883 1.619141,-1.77149 l 7.761719,-3.14062 a 68.732403,68.732403 0 0 1 -0.115235,-0.95313 z m 131.185546,16.50977 a 68.732403,68.732403 0 0 1 -0.30078,0.77343 l 8.10742,6.11524 c 0.53732,0.40527 0.90835,0.95719 1.04883,1.55273 0.22339,-0.94857 -0.21742,-1.92563 -1.04883,-2.55273 z m -126.037108,1.07031 -6.390625,4.81836 c -0.831421,0.6271 -1.272222,1.60416 -1.048828,2.55273 0.140477,-0.59554 0.511508,-1.14746 1.048828,-1.55273 l 6.712891,-5.0625 a 68.732403,68.732403 0 0 1 -0.322266,-0.75586 z m 116.914058,14.44336 a 68.732403,68.732403 0 0 1 -0.38476,0.50586 l 6.13476,7.85742 c 0.28176,0.36093 0.47176,0.76941 0.56055,1.18555 0.16132,-0.73247 -0.0522,-1.53426 -0.56055,-2.18555 z m -87.390621,0.0879 -0.572265,0.57226 A 55,55 0 0 0 90,151.64844 v -1 A 55,55 0 0 1 62.193359,139.29297 Z m 67.630861,0.0176 A 55,55 0 0 1 102,150.60547 v 1 a 55,55 0 0 0 28.40625,-11.71289 z m -87.558595,1.11328 -4.796875,6.14453 c -0.508398,0.65132 -0.721328,1.45305 -0.560547,2.18555 0.08911,-0.41614 0.278815,-0.82462 0.560547,-1.18555 l 5.183594,-6.64063 a 68.732403,68.732403 0 0 1 -0.386719,-0.5039 z m 94.392575,11.46875 a 68.732403,68.732403 0 0 1 -0.31836,0.25 l 3.79102,8.94336 c 0.0903,0.213 0.14565,0.43151 0.18555,0.65039 0.10535,-0.52937 0.0449,-1.10676 -0.18555,-1.65039 z M 55.671875,153 l -3.003906,7.08594 c -0.230467,0.54362 -0.290899,1.12102 -0.185547,1.65039 0.0399,-0.21888 0.09525,-0.43739 0.185547,-0.65039 l 3.324219,-7.8418 A 68.732403,68.732403 0 0 1 55.671875,153 Z m 65.109375,7.86328 a 68.732403,68.732403 0 0 1 -0.13086,0.0586 l 1.29102,9.21093 c 0.0504,-0.29753 0.0539,-0.61071 0.01,-0.92578 z m -48.853516,0.62695 -1.082031,7.7168 c -0.04413,0.31507 -0.04069,0.62825 0.0098,0.92578 l 1.205078,-8.58984 a 68.732403,68.732403 0 0 1 -0.132813,-0.0527 z"
     id="path1029" />
  <path
     sodipodi:nodetypes="sssssssss"
     inkscape:connector-curvature="0"
     id="path983"
     d="m 36,19.999995 h 120 c 11.08,0 20,8.92 20,20 v 40 c 0,11.08 -8.92,20 -20,20 H 36 c -11.08,0 -20,-8.92 -20,-20 v -40 c 0,-11.08 8.92,-20 20,-20 z"
     style="opacity:0.2;fill:#000000;fill-opacity:1;stroke-width:2.86356401;filter:url(#filter1009)" />
  <path
     style="opacity:1;fill:#40677e;fill-opacity:1;stroke-width:2.86356401"
     d="m 36,16 h 120 c 11.08,0 20,8.92 20,20 v 40 c 0,11.08 -8.92,20 -20,20 H 36 C 24.92,96 16,87.08 16,76 V 36 C 16,24.92 24.92,16 36,16 Z"
     id="rect4"
     inkscape:connector-curvature="0"
     sodipodi:nodetypes="sssssssss" />
  <path
     style="opacity:0.4;fill:#000000;fill-opacity:1;stroke:none;stroke-width:10.60810184;stroke-linecap:round;stroke-linejoin:round;stroke-miterlimit:4;stroke-dasharray:none;stroke-opacity:1"
     d="m 111,44 h 31 c 6.648,0 12,5.352 12,12 0,6.648 -5.352,12 -12,12 h -31 z"
     id="rect901"
     inkscape:connector-curvature="0"
     sodipodi:nodetypes="cssscc" />
  <path
     style="opacity:1;fill:#00c2ef;fill-opacity:1;stroke:none;stroke-width:10.60810184;stroke-linecap:round;stroke-linejoin:round;stroke-miterlimit:4;stroke-dasharray:none;stroke-opacity:1"
     d="m 50,44 h 62 V 68 H 50 C 43.352,68 38,62.648 38,56 38,49.352 43.352,44 50,44 Z"
     id="rect917"
     inkscape:connector-curvature="0"
     sodipodi:nodetypes="sccsss" />
  <path
     inkscape:connector-curvature="0"
     style="opacity:0.2;fill:#000000;fill-opacity:1;stroke:none;stroke-width:10.60810184;stroke-linecap:round;stroke-linejoin:round;stroke-miterlimit:4;stroke-dasharray:none;stroke-opacity:1;filter:url(#filter943)"
     d="m 50,44 c -6.648,0 -12,5.352 -12,12 0,0.337676 0.0237,0.669543 0.05078,1 C 38.556927,50.824579 43.689676,46 50,46 h 92 c 6.31032,0 11.44307,4.824579 11.94922,11 C 153.9763,56.669543 154,56.337676 154,56 154,49.352 148.648,44 142,44 Z"
     id="rect920" />
  <path
     inkscape:connector-curvature="0"
     style="opacity:0.1;fill:#ffffff;fill-opacity:1;stroke:none;stroke-width:10.60810184;stroke-linecap:round;stroke-linejoin:round;stroke-miterlimit:4;stroke-dasharray:none;stroke-opacity:1"
     d="M 38.025391,56.5 C 38.018553,56.6671 38,56.831162 38,57 c 0,6.648 5.352,12 12,12 h 92 c 6.648,0 12,-5.352 12,-12 0,-0.168838 -0.0186,-0.3329 -0.0254,-0.5 C 153.71222,62.912456 148.47916,68 142,68 H 50 C 43.520838,68 38.287784,62.912456 38.025391,56.5 Z"
     id="rect925" />
  <circle
     r="19"
     cy="58"
     cx="112"
     id="circle947"
     style="opacity:0.2;fill:#000000;fill-opacity:1;stroke:none;stroke-width:11.13192463;stroke-linecap:round;stroke-linejoin:round;stroke-miterlimit:4;stroke-dasharray:none;stroke-opacity:1;filter:url(#filter961)" />
  <circle
     style="opacity:1;fill:#ffffff;fill-opacity:1;stroke:none;stroke-width:11.13192463;stroke-linecap:round;stroke-linejoin:round;stroke-miterlimit:4;stroke-dasharray:none;stroke-opacity:1"
     id="path915"
     cx="112"
     cy="56"
     r="19" />
  <path
     inkscape:connector-curvature="0"
     style="opacity:0.1;fill:#ffffff;fill-opacity:1;stroke-width:2.86356401"
     d="M 36,16 C 24.92,16 16,24.92 16,36 v 1 C 16,25.92 24.92,17 36,17 h 120 c 11.08,0 20,8.92 20,20 v -1 c 0,-11.08 -8.92,-20 -20,-20 z"
     id="path1062" />
</svg>
