<?xml version="1.0" encoding="UTF-8" standalone="no"?>
<svg
   xmlns:dc="http://purl.org/dc/elements/1.1/"
   xmlns:cc="http://creativecommons.org/ns#"
   xmlns:rdf="http://www.w3.org/1999/02/22-rdf-syntax-ns#"
   xmlns:svg="http://www.w3.org/2000/svg"
   xmlns="http://www.w3.org/2000/svg"
   xmlns:sodipodi="http://sodipodi.sourceforge.net/DTD/sodipodi-0.dtd"
   xmlns:inkscape="http://www.inkscape.org/namespaces/inkscape"
   width="192"
   height="192"
   version="1"
   id="svg12"
   sodipodi:docname="apps_joplin.svg"
   inkscape:version="0.92.3 (2405546, 2018-03-11)">
  <metadata
     id="metadata18">
    <rdf:RDF>
      <cc:Work
         rdf:about="">
        <dc:format>image/svg+xml</dc:format>
        <dc:type
           rdf:resource="http://purl.org/dc/dcmitype/StillImage" />
        <dc:title></dc:title>
      </cc:Work>
    </rdf:RDF>
  </metadata>
  <defs
     id="defs16">
    <filter
       inkscape:collect="always"
       style="color-interpolation-filters:sRGB"
       id="filter866"
       x="-0.048"
       width="1.096"
       y="-0.048"
       height="1.096">
      <feGaussianBlur
         inkscape:collect="always"
         stdDeviation="3.2"
         id="feGaussianBlur868" />
    </filter>
    <filter
       inkscape:collect="always"
       style="color-interpolation-filters:sRGB"
       id="filter894"
       x="-0.048000281"
       width="1.0960006"
       y="-0.047999719"
       height="1.0959994">
      <feGaussianBlur
         inkscape:collect="always"
         stdDeviation="2.239987"
         id="feGaussianBlur896" />
    </filter>
  </defs>
  <sodipodi:namedview
     pagecolor="#ffffff"
     bordercolor="#666666"
     borderopacity="1"
     objecttolerance="10"
     gridtolerance="10"
     guidetolerance="10"
     inkscape:pageopacity="0"
     inkscape:pageshadow="2"
     inkscape:window-width="1920"
     inkscape:window-height="1018"
     id="namedview14"
     showgrid="false"
     inkscape:zoom="2.45"
     inkscape:cx="24"
     inkscape:cy="89.306122"
     inkscape:window-x="0"
     inkscape:window-y="32"
     inkscape:window-maximized="1"
     inkscape:current-layer="svg12" />
  <rect
     id="rect840"
     ry="8"
     rx="8"
     y="20"
     x="16"
     height="160"
     width="160"
     style="opacity:0.2;fill:#000000;stroke-width:4;filter:url(#filter866)" />
  <rect
     style="fill:#176fd0;stroke-width:4"
     width="160"
     height="160"
     x="16"
     y="16"
     rx="8"
     ry="8"
     id="rect2" />
  <path
     style="opacity:0.1;fill:#ffffff;stroke-width:4"
     d="M 24 16 C 19.568 16 16 19.568 16 24 L 16 25 C 16 20.568 19.568 17 24 17 L 168 17 C 172.432 17 176 20.568 176 25 L 176 24 C 176 19.568 172.432 16 168 16 L 24 16 z "
     id="path4" />
  <path
     inkscape:connector-curvature="0"
     style="opacity:0.2;stroke-width:4;filter:url(#filter894)"
     d="m 78.999568,153.7589 c -12.5136,-1.15016 -22.21348,-5.18568 -29.49536,-12.27112 -6.18632,-6.01948 -9.48808,-14.69485 -9.50348,-21.96777 -0.012,-5.09784 1.45532,-9.17068 4.41088,-12.25324 3.35996,-3.5044 7.201,-5.107 12.31656,-5.1388 6.4082,-0.04 11.596188,2.19756 13.965868,7.15988 0.99988,2.09388 1.05828,2.45196 1.26704,7.76716 0.2368,6.03056 0.53548,10.7974 1.99292,13.6598 2.09184,4.10828 8.095288,6.70828 13.934004,7.27904 8.83084,0.86324 17.34986,-4.1496 19.5027,-12.53972 0.54988,-2.14312 0.5976,-6.34375 0.5976,-34.154509 0,-29.749 -0.012,-29.441012 -0.6848,-30.604412 -1.18688,-2.04854 -2.65252,-2.564272 -8.29668,-2.695216 h -7.007472 v -16 h 60.000002 v 16 h -6.77416 c -5.3568,0.21212 -6.30836,0.45414 -7.4914,1.730748 -1.63244,1.76156 -1.19136,0.2168 -1.42116,32.582012 -0.228,32.103197 -0.2432,32.418597 -1.77056,36.664877 -3.82024,10.62068 -13.33917,19.49776 -26.45553,22.90568 -6.70456,1.742 -21.642932,2.55984 -29.087092,1.8756 z"
     id="path8" />
  <path
     inkscape:connector-curvature="0"
     style="fill:#ffffff;stroke-width:4"
     d="m 78.999568,151.7589 c -12.5136,-1.15016 -22.21348,-5.18568 -29.49536,-12.27112 -6.18632,-6.01948 -9.48808,-14.69484 -9.50348,-21.96776 -0.012,-5.09784 1.45532,-9.17068 4.41088,-12.25324 3.35996,-3.5044 7.201,-5.107 12.31656,-5.1388 6.4082,-0.04 11.596188,2.19756 13.965868,7.15988 0.99988,2.09388 1.05828,2.45196 1.26704,7.76716 0.2368,6.03056 0.53548,10.7974 1.99292,13.6598 2.09184,4.10828 8.095288,6.70828 13.934004,7.27904 8.83084,0.86324 17.34986,-4.1496 19.5027,-12.53972 0.54988,-2.14312 0.5976,-6.34376 0.5976,-34.154516 0,-29.749 -0.012,-29.441012 -0.6848,-30.604412 -1.18688,-2.04854 -2.65252,-2.564272 -8.29668,-2.695216 h -7.007472 v -16 h 60.000002 v 16 h -6.77416 c -5.3568,0.21212 -6.30836,0.45414 -7.4914,1.730748 -1.63244,1.76156 -1.19136,0.2168 -1.42116,32.582012 -0.228,32.103204 -0.2432,32.418604 -1.77056,36.664884 -3.82024,10.62068 -13.33917,19.49776 -26.45553,22.90568 -6.70456,1.742 -21.642932,2.55984 -29.087092,1.8756 z"
     id="path10" />
</svg>
