<?xml version="1.0" encoding="UTF-8" standalone="no"?>
<svg
   xmlns:dc="http://purl.org/dc/elements/1.1/"
   xmlns:cc="http://creativecommons.org/ns#"
   xmlns:rdf="http://www.w3.org/1999/02/22-rdf-syntax-ns#"
   xmlns:svg="http://www.w3.org/2000/svg"
   xmlns="http://www.w3.org/2000/svg"
   xmlns:sodipodi="http://sodipodi.sourceforge.net/DTD/sodipodi-0.dtd"
   xmlns:inkscape="http://www.inkscape.org/namespaces/inkscape"
   width="192"
   height="192"
   version="1"
   id="svg14"
   sodipodi:docname="apps_twrp.svg"
   inkscape:version="0.92.3 (2405546, 2018-03-11)">
  <metadata
     id="metadata20">
    <rdf:RDF>
      <cc:Work
         rdf:about="">
        <dc:format>image/svg+xml</dc:format>
        <dc:type
           rdf:resource="http://purl.org/dc/dcmitype/StillImage" />
        <dc:title></dc:title>
      </cc:Work>
    </rdf:RDF>
  </metadata>
  <defs
     id="defs18">
    <filter
       inkscape:collect="always"
       style="color-interpolation-filters:sRGB"
       id="filter844"
       x="-0.048"
       width="1.096"
       y="-0.048"
       height="1.096">
      <feGaussianBlur
         inkscape:collect="always"
         stdDeviation="3.2"
         id="feGaussianBlur846" />
    </filter>
    <filter
       inkscape:collect="always"
       style="color-interpolation-filters:sRGB"
       id="filter880"
       x="-0.060444672"
       width="1.1208893"
       y="-0.039804779"
       height="1.0796096">
      <feGaussianBlur
         inkscape:collect="always"
         stdDeviation="2.7199933"
         id="feGaussianBlur882" />
    </filter>
  </defs>
  <sodipodi:namedview
     pagecolor="#8f8f8f"
     bordercolor="#666666"
     borderopacity="1"
     objecttolerance="10"
     gridtolerance="10"
     guidetolerance="10"
     inkscape:pageopacity="0"
     inkscape:pageshadow="2"
     inkscape:window-width="1920"
     inkscape:window-height="1018"
     id="namedview16"
     showgrid="false"
     inkscape:zoom="2.32"
     inkscape:cx="83.617116"
     inkscape:cy="77.068227"
     inkscape:window-x="0"
     inkscape:window-y="32"
     inkscape:window-maximized="1"
     inkscape:current-layer="svg14" />
  <rect
     style="opacity:0.2;fill:#000000;stroke-width:4;filter:url(#filter844)"
     width="160"
     height="160"
     x="-180"
     y="-176"
     rx="80"
     ry="80"
     transform="matrix(0,-1,-1,0,0,0)"
     id="rect832" />
  <rect
     id="rect2"
     transform="matrix(0,-1,-1,0,0,0)"
     ry="80"
     rx="80"
     y="-176"
     x="-176"
     height="160"
     width="160"
     style="fill:#03a9f4;fill-opacity:1;stroke-width:4" />
  <path
     inkscape:connector-curvature="0"
     style="opacity:0.2;fill:#ffffff;stroke-width:4"
     d="M 95.998047,16 C 51.678955,16.001052 16,51.680653 16,96 c 0,0.115498 0.0062,0.228859 0.0078,0.34375 C 16.358829,52.329731 51.898462,17.001046 95.998047,17 H 96 c 44.10547,0.001 79.64856,35.339122 79.99023,79.361328 0.002,-0.120727 0.008,-0.240021 0.008,-0.361328 0,-44.319347 -35.67896,-79.998948 -79.99805,-80 z"
     id="path4" />
  <path
     style="opacity:0.2;fill:#000000;fill-opacity:1;stroke:none;stroke-width:14.58064461;stroke-linecap:round;stroke-linejoin:round;stroke-miterlimit:4;stroke-dasharray:none;stroke-opacity:1;filter:url(#filter880)"
     d="m 98,16 c -3.324029,0 -6,2.676 -6,6 V 52 H 75.142578 a 3.1439681,2.3903378 0 0 0 -2.720703,3.585938 l 17.925781,23.609374 17.927734,23.607418 a 3.1439681,2.3903378 0 0 0 2.57422,1.19532 3.1439681,2.3903378 0 0 0 0.31836,-0.002 3.1439681,2.3903378 0 0 0 2.55469,-1.19336 L 131.65039,79.195312 149.57812,55.585938 A 3.1439681,2.3903378 0 0 0 146.85547,52 H 130 V 22 c 0,-3.324 -2.67597,-6 -6,-6 z M 81.150391,92.001953 a 3.1439681,2.3903378 0 0 0 -0.31836,0.002 3.1439681,2.3903378 0 0 0 -2.554687,1.19336 L 60.349609,116.80469 42.421875,140.41406 A 3.1439681,2.3903378 0 0 0 45.144531,144 H 62 v 30 c 0,3.324 2.675971,6 6,6 h 26 c 3.324029,0 6,-2.676 6,-6 v -30 h 16.85742 a 3.1439681,2.3903378 0 0 0 2.7207,-3.58594 L 101.65234,116.80469 83.724609,93.197266 a 3.1439681,2.3903378 0 0 0 -2.574218,-1.195313 z"
     id="path859"
     inkscape:connector-curvature="0" />
  <path
     style="opacity:1;fill:#ffffff;fill-opacity:1;stroke:none;stroke-width:14.58064461;stroke-linecap:round;stroke-linejoin:round;stroke-miterlimit:4;stroke-dasharray:none;stroke-opacity:1"
     d="m 81.150732,90.001953 a 3.1439681,2.3903378 0 0 0 -0.318362,0.002 3.1439681,2.3903378 0 0 0 -2.55471,1.19336 L 60.349769,114.80469 42.421879,138.41406 A 3.1439681,2.3903378 0 0 0 45.144558,142 h 16.855616 v 30 c 0,3.324 2.676024,6 6.000053,6 h 26.000226 c 3.324029,0 6.000057,-2.676 6.000057,-6 v -30 h 16.85756 a 3.1439681,2.3903378 0 0 0 2.72073,-3.58594 L 101.65286,114.80469 83.724973,91.197266 a 3.1439681,2.3903378 0 0 0 -2.574241,-1.195313 z"
     id="rect833"
     inkscape:connector-curvature="0" />
  <path
     inkscape:connector-curvature="0"
     id="path849"
     d="m 110.84927,101.99785 a 3.1439681,2.3903378 0 0 0 0.31836,-0.002 3.1439681,2.3903378 0 0 0 2.55471,-1.19336 l 17.92789,-23.607377 17.92789,-23.60937 a 3.1439681,2.3903378 0 0 0 -2.72268,-3.58594 h -16.85561 v -30 c 0,-3.324 -2.67603,-6 -6.00006,-6 H 97.999547 c -3.324029,0 -6.000057,2.676 -6.000057,6 v 30 H 75.14193 a 3.1439681,2.3903378 0 0 0 -2.72073,3.58594 l 17.92594,23.60937 17.92789,23.607417 a 3.1439681,2.3903378 0 0 0 2.57424,1.19532 z"
     style="opacity:1;fill:#ffffff;fill-opacity:1;stroke:none;stroke-width:14.58064461;stroke-linecap:round;stroke-linejoin:round;stroke-miterlimit:4;stroke-dasharray:none;stroke-opacity:1" />
</svg>
