<?xml version="1.0" encoding="UTF-8" standalone="no"?>
<svg
   xmlns:dc="http://purl.org/dc/elements/1.1/"
   xmlns:cc="http://creativecommons.org/ns#"
   xmlns:rdf="http://www.w3.org/1999/02/22-rdf-syntax-ns#"
   xmlns:svg="http://www.w3.org/2000/svg"
   xmlns="http://www.w3.org/2000/svg"
   xmlns:sodipodi="http://sodipodi.sourceforge.net/DTD/sodipodi-0.dtd"
   xmlns:inkscape="http://www.inkscape.org/namespaces/inkscape"
   width="192"
   height="192"
   version="1"
   id="svg18"
   sodipodi:docname="apps_orwall.svg"
   inkscape:version="0.92.3 (2405546, 2018-03-11)">
  <metadata
     id="metadata24">
    <rdf:RDF>
      <cc:Work
         rdf:about="">
        <dc:format>image/svg+xml</dc:format>
        <dc:type
           rdf:resource="http://purl.org/dc/dcmitype/StillImage" />
      </cc:Work>
    </rdf:RDF>
  </metadata>
  <defs
     id="defs22">
    <filter
       inkscape:collect="always"
       style="color-interpolation-filters:sRGB"
       id="filter857"
       x="-0.048"
       width="1.096"
       y="-0.048"
       height="1.096">
      <feGaussianBlur
         inkscape:collect="always"
         stdDeviation="3.2"
         id="feGaussianBlur859" />
    </filter>
    <filter
       inkscape:collect="always"
       style="color-interpolation-filters:sRGB"
       id="filter884"
       x="-0.018109863"
       width="1.0362197"
       y="-0.035568449"
       height="1.0711369">
      <feGaussianBlur
         inkscape:collect="always"
         stdDeviation="0.96585937"
         id="feGaussianBlur886" />
    </filter>
  </defs>
  <sodipodi:namedview
     pagecolor="#ffffff"
     bordercolor="#666666"
     borderopacity="1"
     objecttolerance="10"
     gridtolerance="10"
     guidetolerance="10"
     inkscape:pageopacity="0"
     inkscape:pageshadow="2"
     inkscape:window-width="1920"
     inkscape:window-height="1018"
     id="namedview20"
     showgrid="false"
     inkscape:zoom="1"
     inkscape:cx="96"
     inkscape:cy="96"
     inkscape:window-x="0"
     inkscape:window-y="32"
     inkscape:window-maximized="1"
     inkscape:current-layer="svg18" />
  <path
     inkscape:connector-curvature="0"
     id="path2"
     d="m 96,20 a 80,80 0 0 0 -80,80 80,80 0 0 0 80,80 c 1.763048,0 3.507524,-0.0752 5.24219,-0.18748 a 80,80 0 0 0 0.79687,-0.0625 c 2.49511,-0.18644 4.95672,-0.48053 7.38282,-0.89062 a 80,80 0 0 0 0.3828,-0.0703 c 1.8941,-0.32968 3.74008,-0.78959 5.58593,-1.25 a 80,80 0 0 0 2.875,-0.74219 c 1.65088,-0.47797 3.26215,-1.03759 4.86719,-1.61719 a 80,80 0 0 0 2.64844,-0.96875 c 1.56316,-0.62795 3.08125,-1.3327 4.59376,-2.05468 A 80,80 0 0 0 133,170.89062 c 1.4096,-0.73726 2.76636,-1.54991 4.125,-2.36718 a 80,80 0 0 0 2.77344,-1.67969 c 1.31041,-0.86238 2.55733,-1.80637 3.8125,-2.74219 a 80,80 0 0 0 2.47656,-1.84375 c 1.25557,-1.0134 2.44146,-2.10139 3.63281,-3.1875 a 80,80 0 0 0 2.28125,-2.07812 c 1.16154,-1.14348 2.24569,-2.35811 3.33594,-3.57031 a 80,80 0 0 0 1.96875,-2.17188 c 1.21953,-1.45962 2.33846,-3.00173 3.45313,-4.54688 a 80,80 0 0 0 1.25781,-1.67968 c 7.33879,-10.7557 12.13059,-23.3842 13.48437,-37.03125 2.6e-4,-0.003 -2.5e-4,-0.005 0,-0.008 a 80,80 0 0 0 0,-0.0236 C 175.86035,105.34189 176,102.68711 176,100 c 0,-1.763048 -0.0752,-3.507524 -0.18748,-5.242188 A 80,80 0 0 0 175.75,93.960936 c -0.18644,-2.495108 -0.48053,-4.95672 -0.89062,-7.382812 a 80,80 0 0 0 -0.0703,-0.3828 c -0.32968,-1.894104 -0.78959,-3.74008 -1.25,-5.585936 a 80,80 0 0 0 -0.74219,-2.875 c -0.47797,-1.65088 -1.03759,-3.262144 -1.61719,-4.867188 a 80,80 0 0 0 -0.96874,-2.648448 C 169.58298,68.6556 168.87823,67.137508 168.15625,65.625 A 80,80 0 0 0 166.89062,63 c -0.73726,-1.409604 -1.54991,-2.766364 -2.36718,-4.125 a 80,80 0 0 0 -1.67969,-2.773436 c -0.86238,-1.310412 -1.80637,-2.557332 -2.74219,-3.8125 A 80,80 0 0 0 158.25781,49.8125 c -1.0134,-1.255568 -2.10139,-2.441456 -3.1875,-3.632812 a 80,80 0 0 0 -2.07812,-2.281252 C 151.84871,42.7369 150.63408,41.652748 149.42188,40.5625 A 80,80 0 0 0 147.25,38.59375 c -1.45962,-1.219526 -3.00173,-2.338457 -4.54688,-3.453125 a 80,80 0 0 0 -1.67968,-1.257813 c -10.7557,-7.338797 -23.3842,-12.130586 -37.03125,-13.484374 -0.003,-2.56e-4 -0.005,2.54e-4 -0.008,0 a 80,80 0 0 0 -0.0236,0 C 101.34189,20.139649 98.687108,20 96,20 Z"
     style="opacity:0.2;stroke-width:4;filter:url(#filter857)" />
  <path
     inkscape:connector-curvature="0"
     id="path4"
     d="m 96,16 a 80,80 0 0 0 -80,80 80,80 0 0 0 80,80 z m 45.02344,13.882812 c 0.57861,0.394796 1.1121,0.848361 1.67968,1.257813 a 80,80 0 0 0 -1.67968,-1.257813 z M 147.25,34.59375 c 0.75054,0.627078 1.44505,1.315046 2.17188,1.96875 A 80,80 0 0 0 147.25,34.59375 Z m 5.74219,5.304688 c 0.72175,0.733158 1.38487,1.520814 2.07812,2.28125 a 80,80 0 0 0 -2.07812,-2.28125 z m 5.26562,5.914062 c 0.64585,0.800188 1.22855,1.651408 1.84375,2.476564 A 80,80 0 0 0 158.25781,45.8125 Z m 4.58594,6.289064 c 0.59352,0.901876 1.12217,1.846616 1.67969,2.773436 a 80,80 0 0 0 -1.67969,-2.773436 z M 166.89062,59 c 0.44944,0.859292 0.84686,1.747704 1.26563,2.625 A 80,80 0 0 0 166.89062,59 Z m 3.32032,7.218752 c 0.34936,0.869612 0.64938,1.764024 0.96875,2.648436 a 80,80 0 0 0 -0.96875,-2.648436 z m 2.58594,7.515624 c 0.2744,0.947768 0.50225,1.913092 0.74218,2.875 a 80,80 0 0 0 -0.74218,-2.875 z m 1.99218,8.460936 c 0.0224,0.12772 0.0487,0.25488 0.0703,0.3828 a 80,80 0 0 0 -0.0703,-0.3828 z m 0.96094,7.765624 c 0.02,0.2658 0.0452,0.530376 0.0625,0.796876 A 80,80 0 0 0 175.75,89.960936 Z m -13.63281,51.062504 c -0.3948,0.57861 -0.84836,1.1121 -1.25781,1.67968 a 80,80 0 0 0 1.25781,-1.67968 z m -4.71094,6.22656 c -0.62708,0.75054 -1.31505,1.44505 -1.96875,2.17188 a 80,80 0 0 0 1.96875,-2.17188 z m -5.30469,5.74219 c -0.73316,0.72175 -1.52081,1.38487 -2.28125,2.07812 a 80,80 0 0 0 2.28125,-2.07812 z m -5.91406,5.26562 c -0.80019,0.64585 -1.65141,1.22855 -2.47656,1.84375 a 80,80 0 0 0 2.47656,-1.84375 z m -6.28906,4.58594 c -0.90188,0.59352 -1.84662,1.12217 -2.77344,1.67969 a 80,80 0 0 0 2.77344,-1.67969 z M 133,166.89062 c -0.85929,0.44944 -1.7477,0.84686 -2.625,1.26563 A 80,80 0 0 0 133,166.89062 Z m -7.21875,3.32032 c -0.86961,0.34936 -1.76403,0.64938 -2.64844,0.96875 a 80,80 0 0 0 2.64844,-0.96875 z m -7.51563,2.58594 c -0.94776,0.2744 -1.91309,0.50225 -2.875,0.74218 a 80,80 0 0 0 2.875,-0.74218 z m -8.46093,1.99218 c -0.12772,0.0224 -0.25488,0.0487 -0.3828,0.0703 a 80,80 0 0 0 0.3828,-0.0703 z m -7.76563,0.96094 c -0.2658,0.02 -0.53037,0.0452 -0.79687,0.0625 a 80,80 0 0 0 0.79687,-0.0625 z"
     style="fill:#ffc456;stroke-width:4" />
  <circle
     id="circle6"
     r="64"
     cy="96"
     cx="96"
     style="opacity:0.2;stroke-width:4" />
  <circle
     id="circle8"
     r="48"
     cy="96"
     cx="96"
     style="opacity:0.2;stroke-width:4" />
  <circle
     id="circle10"
     r="31"
     cy="96"
     cx="96"
     style="opacity:0.2;stroke-width:4.42857122" />
  <path
     style="opacity:0.1;stroke-width:4;filter:url(#filter884)"
     d="M 96 32 A 64 64 0 0 0 32 96 A 64 64 0 0 0 32.041016 97.171875 A 64 64 0 0 1 96 34 A 64 64 0 0 1 159.95898 96.828125 A 64 64 0 0 0 160 96 A 64 64 0 0 0 96 32 z M 96 48 A 48 48 0 0 0 48 96 A 48 48 0 0 0 48.041016 97.167969 A 48 48 0 0 1 96 50 A 48 48 0 0 1 143.95898 96.832031 A 48 48 0 0 0 144 96 A 48 48 0 0 0 96 48 z M 96 65 A 31 31 0 0 0 65 96 A 31 31 0 0 0 65.041016 97.166016 A 31 31 0 0 1 96 67 A 31 31 0 0 1 126.95898 96.833984 A 31 31 0 0 0 127 96 A 31 31 0 0 0 96 65 z "
     id="circle864" />
  <path
     inkscape:connector-curvature="0"
     id="path12"
     d="m 176,96 c 0,44.18278 -35.81722,80 -80,80 V 16 c 44.18278,0 80,35.81722 80,80 z"
     style="fill:#4f4f4f;stroke-width:4" />
  <path
     style="opacity:0.1;fill:#ffffff;stroke-width:4"
     d="M 96 16 A 80 80 0 0 0 16 96 A 80 80 0 0 0 16.019531 96.427734 A 80 80 0 0 1 96 17 C 98.687108 17 101.34224 17.139649 103.96094 17.398438 A 80 80 0 0 1 103.98438 17.398438 L 103.99219 17.398438 C 117.63924 18.752226 130.26774 23.544016 141.02344 30.882812 A 80 80 0 0 1 142.70312 32.140625 C 144.24827 33.255293 145.79038 34.374224 147.25 35.59375 A 80 80 0 0 1 149.42188 37.5625 C 150.63407 38.652748 151.84871 39.736897 152.99219 40.898438 A 80 80 0 0 1 155.07031 43.179688 C 156.15642 44.371044 157.24441 45.556932 158.25781 46.8125 A 80 80 0 0 1 160.10156 49.289062 C 161.03738 50.54423 161.98137 51.791151 162.84375 53.101562 A 80 80 0 0 1 164.52344 55.875 C 165.34071 57.233636 166.15337 58.590396 166.89062 60 A 80 80 0 0 1 168.15625 62.625 C 168.87824 64.137508 169.58298 65.655594 170.21094 67.21875 A 80 80 0 0 1 171.17969 69.867188 C 171.75929 71.472231 172.31891 73.083495 172.79688 74.734375 A 80 80 0 0 1 173.53906 77.609375 C 173.99947 79.455231 174.45938 81.301209 174.78906 83.195312 A 80 80 0 0 1 174.85938 83.578125 C 175.26946 86.004217 175.56356 88.465829 175.75 90.960938 A 80 80 0 0 1 175.8125 91.757812 C 175.91229 93.299447 175.97383 94.850779 175.98828 96.414062 C 175.99199 96.276035 176 96.138819 176 96 C 176 94.236952 175.92478 92.492476 175.8125 90.757812 A 80 80 0 0 0 175.75 89.960938 C 175.56356 87.465829 175.26946 85.004217 174.85938 82.578125 A 80 80 0 0 0 174.78906 82.195312 C 174.45938 80.301209 173.99947 78.455231 173.53906 76.609375 A 80 80 0 0 0 172.79688 73.734375 C 172.31891 72.083495 171.75929 70.472231 171.17969 68.867188 A 80 80 0 0 0 170.21094 66.21875 C 169.58298 64.655594 168.87824 63.137508 168.15625 61.625 A 80 80 0 0 0 166.89062 59 C 166.15337 57.590396 165.34071 56.233636 164.52344 54.875 A 80 80 0 0 0 162.84375 52.101562 C 161.98137 50.791151 161.03738 49.54423 160.10156 48.289062 A 80 80 0 0 0 158.25781 45.8125 C 157.24441 44.556932 156.15642 43.371043 155.07031 42.179688 A 80 80 0 0 0 152.99219 39.898438 C 151.84871 38.736897 150.63407 37.652748 149.42188 36.5625 A 80 80 0 0 0 147.25 34.59375 C 145.79038 33.374224 144.24827 32.255293 142.70312 31.140625 A 80 80 0 0 0 141.02344 29.882812 C 130.26774 22.544016 117.63924 17.752226 103.99219 16.398438 L 103.98438 16.398438 A 80 80 0 0 0 103.96094 16.398438 C 101.34224 16.139648 98.687108 16 96 16 z "
     id="path14" />
</svg>
