<?xml version="1.0" encoding="UTF-8" standalone="no"?>
<svg
   xmlns:dc="http://purl.org/dc/elements/1.1/"
   xmlns:cc="http://creativecommons.org/ns#"
   xmlns:rdf="http://www.w3.org/1999/02/22-rdf-syntax-ns#"
   xmlns:svg="http://www.w3.org/2000/svg"
   xmlns="http://www.w3.org/2000/svg"
   xmlns:sodipodi="http://sodipodi.sourceforge.net/DTD/sodipodi-0.dtd"
   xmlns:inkscape="http://www.inkscape.org/namespaces/inkscape"
   width="192"
   height="192"
   version="1"
   id="svg12"
   sodipodi:docname="apps_novaposhtaa.svg"
   inkscape:version="0.92.3 (2405546, 2018-03-11)">
  <metadata
     id="metadata18">
    <rdf:RDF>
      <cc:Work
         rdf:about="">
        <dc:format>image/svg+xml</dc:format>
        <dc:type
           rdf:resource="http://purl.org/dc/dcmitype/StillImage" />
        <dc:title />
      </cc:Work>
    </rdf:RDF>
  </metadata>
  <defs
     id="defs16">
    <filter
       inkscape:collect="always"
       style="color-interpolation-filters:sRGB"
       id="filter860"
       x="-0.048"
       width="1.096"
       y="-0.048"
       height="1.096">
      <feGaussianBlur
         inkscape:collect="always"
         stdDeviation="3.2"
         id="feGaussianBlur862" />
    </filter>
    <filter
       inkscape:collect="always"
       style="color-interpolation-filters:sRGB"
       id="filter857"
       x="-0.047999968"
       width="1.0959999"
       y="-0.048000032"
       height="1.0960001">
      <feGaussianBlur
         inkscape:collect="always"
         stdDeviation="2.5600181"
         id="feGaussianBlur859" />
    </filter>
  </defs>
  <sodipodi:namedview
     pagecolor="#ffffff"
     bordercolor="#666666"
     borderopacity="1"
     objecttolerance="10"
     gridtolerance="10"
     guidetolerance="10"
     inkscape:pageopacity="0"
     inkscape:pageshadow="2"
     inkscape:window-width="1920"
     inkscape:window-height="1018"
     id="namedview14"
     showgrid="true"
     inkscape:zoom="4.64"
     inkscape:cx="19.304388"
     inkscape:cy="80.737589"
     inkscape:window-x="0"
     inkscape:window-y="32"
     inkscape:window-maximized="1"
     inkscape:current-layer="svg12"
     showguides="false">
    <inkscape:grid
       type="xygrid"
       id="grid820" />
  </sodipodi:namedview>
  <rect
     style="opacity:0.2;stroke-width:4;filter:url(#filter860)"
     width="160"
     height="160"
     x="16"
     y="20"
     rx="48"
     ry="48"
     id="rect2" />
  <rect
     style="fill:#e02930;fill-opacity:1;stroke-width:4"
     width="160"
     height="160"
     x="16"
     y="16"
     rx="48"
     ry="48"
     id="rect4" />
  <path
     inkscape:connector-curvature="0"
     style="opacity:0.2;fill:#ffffff;stroke-width:4"
     d="M 64,16 C 37.408,16 16,37.408 16,64 v 1 C 16,38.408 37.408,17 64,17 h 64 c 26.592,0 48,21.408 48,48 V 64 C 176,37.408 154.592,16 128,16 Z"
     id="path10" />
  <path
     id="path831"
     d="m 95.816406,34.001653 c -1.170765,0.03566 -2.23005,0.404679 -2.814453,0.980469 L 80.734375,47.021184 68.462891,59.060247 c -1.329218,1.306479 0.334174,2.938425 2.996093,2.939453 H 84 v 18 c 0,2.216 1.783957,4 4,4 h 16 c 2.21604,0 4,-1.784 4,-4 v -18 h 12.54297 c 2.66105,-0.0019 4.32293,-1.6334 2.99414,-2.939453 L 111.26758,47.021184 98.996094,34.982122 c -0.588108,-0.578983 -1.656148,-0.948491 -2.833985,-0.980469 -0.115162,-0.0033 -0.230541,-0.0033 -0.345703,0 z m -37.835937,36 a 1.9604758,3.4607959 0 0 0 -0.919922,0.460938 L 45.021484,82.732122 32.982422,95.003606 a 1.9604758,3.4607959 0 0 0 -0.980469,2.833985 1.9604758,3.4607959 0 0 0 0,0.345703 1.9604758,3.4607959 0 0 0 0.980469,2.814456 l 12.039062,12.26757 12.039063,12.27149 A 1.9604758,3.4607959 0 0 0 60,122.54072 V 97.9997 73.456731 a 1.9604758,3.4607959 0 0 0 -2.019531,-3.455078 z m 76.025391,0 A 1.9604758,3.4607966 0 0 0 132,73.458684 V 97.9997 122.54267 a 1.9604758,3.4607966 0 0 0 2.01953,3.45508 1.9604758,3.4607966 0 0 0 0.91992,-0.46094 l 12.03907,-12.26953 12.03906,-12.27149 a 1.9604758,3.4607966 0 0 0 0.98047,-2.833981 1.9604758,3.4607966 0 0 0 0,-0.345703 1.9604758,3.4607966 0 0 0 -0.98047,-2.814453 L 146.97852,82.734075 134.93945,70.462591 a 1.9604758,3.4607966 0 0 0 -0.93359,-0.460938 z M 88,111.9997 c -2.216043,0 -4,1.784 -4,4 v 18 H 71.457031 c -2.661048,0.002 -4.322921,1.6334 -2.99414,2.93945 l 12.269531,12.03907 12.271484,12.03906 c 0.588107,0.57898 1.656148,0.94849 2.833985,0.98047 0.115162,0.003 0.230541,0.003 0.345703,0 1.170766,-0.0357 2.23005,-0.40468 2.814453,-0.98047 l 12.267573,-12.03906 12.27149,-12.03907 c 1.32921,-1.30648 -0.33418,-2.93842 -2.99609,-2.93945 H 108 v -18 c 0,-2.216 -1.78396,-4 -4,-4 z"
     style="opacity:0.2;fill:#000000;fill-opacity:1;stroke:none;stroke-width:89.70967865;stroke-linecap:round;stroke-linejoin:round;stroke-miterlimit:4;stroke-dasharray:none;stroke-opacity:1;filter:url(#filter857)"
     inkscape:connector-curvature="0" />
  <path
     style="opacity:1;fill:#ffffff;fill-opacity:1;stroke:none;stroke-width:89.70967865;stroke-linecap:round;stroke-linejoin:round;stroke-miterlimit:4;stroke-dasharray:none;stroke-opacity:1"
     d="M 95.816406 32.001953 C 94.645641 32.037613 93.586356 32.406632 93.001953 32.982422 L 80.734375 45.021484 L 68.462891 57.060547 C 67.133673 58.367026 68.797065 59.998972 71.458984 60 L 84 60 L 84 78 C 84 80.216 85.783957 82 88 82 L 104 82 C 106.21604 82 108 80.216 108 78 L 108 60 L 120.54297 60 C 123.20402 59.9981 124.8659 58.3666 123.53711 57.060547 L 111.26758 45.021484 L 98.996094 32.982422 C 98.407986 32.403439 97.339946 32.033931 96.162109 32.001953 C 96.046947 31.998653 95.931568 31.998653 95.816406 32.001953 z M 57.980469 68.001953 A 1.9604758 3.4607959 0 0 0 57.060547 68.462891 L 45.021484 80.732422 L 32.982422 93.003906 A 1.9604758 3.4607959 0 0 0 32.001953 95.837891 A 1.9604758 3.4607959 0 0 0 32.001953 96.183594 A 1.9604758 3.4607959 0 0 0 32.982422 98.998047 L 45.021484 111.26562 L 57.060547 123.53711 A 1.9604758 3.4607959 0 0 0 60 120.54102 L 60 96 L 60 71.457031 A 1.9604758 3.4607959 0 0 0 57.980469 68.001953 z M 134.00586 68.001953 A 1.9604758 3.4607966 0 0 0 132 71.458984 L 132 96 L 132 120.54297 A 1.9604758 3.4607966 0 0 0 134.01953 123.99805 A 1.9604758 3.4607966 0 0 0 134.93945 123.53711 L 146.97852 111.26758 L 159.01758 98.996094 A 1.9604758 3.4607966 0 0 0 159.99805 96.162109 A 1.9604758 3.4607966 0 0 0 159.99805 95.816406 A 1.9604758 3.4607966 0 0 0 159.01758 93.001953 L 146.97852 80.734375 L 134.93945 68.462891 A 1.9604758 3.4607966 0 0 0 134.00586 68.001953 z M 88 110 C 85.783957 110 84 111.784 84 114 L 84 132 L 71.457031 132 C 68.795983 132.002 67.13411 133.6334 68.462891 134.93945 L 80.732422 146.97852 L 93.003906 159.01758 C 93.592013 159.59656 94.660054 159.96607 95.837891 159.99805 C 95.953053 160.00105 96.068432 160.00105 96.183594 159.99805 C 97.35436 159.96235 98.413644 159.59337 98.998047 159.01758 L 111.26562 146.97852 L 123.53711 134.93945 C 124.86632 133.63297 123.20293 132.00103 120.54102 132 L 108 132 L 108 114 C 108 111.784 106.21604 110 104 110 L 88 110 z "
     id="path828" />
</svg>
