<?xml version="1.0" encoding="UTF-8" standalone="no"?>
<svg
   xmlns:dc="http://purl.org/dc/elements/1.1/"
   xmlns:cc="http://creativecommons.org/ns#"
   xmlns:rdf="http://www.w3.org/1999/02/22-rdf-syntax-ns#"
   xmlns:svg="http://www.w3.org/2000/svg"
   xmlns="http://www.w3.org/2000/svg"
   xmlns:sodipodi="http://sodipodi.sourceforge.net/DTD/sodipodi-0.dtd"
   xmlns:inkscape="http://www.inkscape.org/namespaces/inkscape"
   width="192"
   height="192"
   version="1"
   id="svg12"
   sodipodi:docname="apps_citrix_receiver.svg"
   inkscape:version="0.92.3 (2405546, 2018-03-11)">
  <metadata
     id="metadata18">
    <rdf:RDF>
      <cc:Work
         rdf:about="">
        <dc:format>image/svg+xml</dc:format>
        <dc:type
           rdf:resource="http://purl.org/dc/dcmitype/StillImage" />
        <dc:title></dc:title>
      </cc:Work>
    </rdf:RDF>
  </metadata>
  <defs
     id="defs16">
    <filter
       inkscape:collect="always"
       style="color-interpolation-filters:sRGB"
       id="filter856"
       x="-0.048"
       width="1.096"
       y="-0.048"
       height="1.096">
      <feGaussianBlur
         inkscape:collect="always"
         stdDeviation="3.2"
         id="feGaussianBlur858" />
    </filter>
    <filter
       inkscape:collect="always"
       style="color-interpolation-filters:sRGB"
       id="filter886"
       x="-0.048"
       width="1.096"
       y="-0.048"
       height="1.096">
      <feGaussianBlur
         inkscape:collect="always"
         stdDeviation="2.4"
         id="feGaussianBlur888" />
    </filter>
  </defs>
  <sodipodi:namedview
     pagecolor="#ffffff"
     bordercolor="#666666"
     borderopacity="1"
     objecttolerance="10"
     gridtolerance="10"
     guidetolerance="10"
     inkscape:pageopacity="0"
     inkscape:pageshadow="2"
     inkscape:window-width="1920"
     inkscape:window-height="1018"
     id="namedview14"
     showgrid="false"
     inkscape:zoom="2.82"
     inkscape:cx="24"
     inkscape:cy="94.921986"
     inkscape:window-x="0"
     inkscape:window-y="32"
     inkscape:window-maximized="1"
     inkscape:current-layer="svg12" />
  <rect
     style="opacity:0.2;stroke-width:4;filter:url(#filter856)"
     width="160"
     height="160"
     x="16"
     y="20"
     rx="80"
     ry="80"
     id="rect2" />
  <rect
     style="fill:#2071c5;stroke-width:4"
     width="160"
     height="160"
     x="16"
     y="16"
     rx="80"
     ry="80"
     id="rect4" />
  <path
     inkscape:connector-curvature="0"
     style="opacity:0.2;stroke-width:4;filter:url(#filter886)"
     d="m 94,38 a 6,6 0 0 0 -1.226564,0.1328 C 61.142744,39.81578 36,65.9498 36,98 c 0,33.13708 26.862916,60 60,60 32.03925,0 58.16807,-25.12674 59.86719,-56.74219 A 6,6 0 0 0 156,100 a 6,6 0 0 0 -6,-6 6,6 0 0 0 -5.99219,5.875 c -0.005,0.0176 -0.0461,0.02 -0.0469,0.0392 C 142.95772,125.53787 121.86968,146 96,146 69.490332,146 48,124.50967 48,98 48,72.147904 68.43968,51.068868 94.039064,50.039064 c 0.0148,-5.88e-4 0.0248,-0.0356 0.0392,-0.0392 A 6,6 0 0 0 100,44 6,6 0 0 0 94,38 Z m 0,24 a 6,6 0 0 0 -1.601564,0.21876 c -0.0026,2.56e-4 -0.0052,-2.6e-4 -0.008,0 C 74.209644,64.035568 60,79.340584 60,98 c 0,19.88225 16.117748,36 36,36 18.66847,0 33.97668,-14.2204 35.78125,-32.41406 A 6,6 0 0 0 132,100 a 6,6 0 0 0 -6,-6 6,6 0 0 0 -5.98438,5.70312 c -0.0224,0.046 -0.082,0.0812 -0.0859,0.1328 C 118.99198,112.23306 108.63717,122 96,122 82.745168,122 72,111.25483 72,98 72,85.282664 81.889376,74.877808 94.398436,74.054688 c 0.0384,-0.0025 0.06024,-0.06012 0.09376,-0.07812 A 6,6 0 0 0 100,68 6,6 0 0 0 94,62 Z m 2,24 A 12,12 0 0 0 84,98 12,12 0 0 0 96,110 12,12 0 0 0 108,98 12,12 0 0 0 96,86 Z"
     id="path6" />
  <path
     inkscape:connector-curvature="0"
     style="fill:#ffffff;stroke-width:4"
     d="m 94,36 a 6,6 0 0 0 -1.226564,0.132812 C 61.142744,37.815781 36,63.9498 36,96 c 0,33.13708 26.862916,60 60,60 32.03925,0 58.16807,-25.12674 59.86719,-56.742188 A 6,6 0 0 0 156,98 a 6,6 0 0 0 -6,-6 6,6 0 0 0 -5.99219,5.875 c -0.005,0.0176 -0.0461,0.02 -0.0469,0.0392 C 142.95772,123.53787 121.86968,144 96,144 69.490332,144 48,122.50967 48,96 48,70.147904 68.43968,49.068868 94.039064,48.039064 c 0.0148,-5.88e-4 0.0248,-0.0356 0.0392,-0.0392 A 6,6 0 0 0 100,42 6,6 0 0 0 94,36 Z m 0,24 a 6,6 0 0 0 -1.601564,0.21876 c -0.0026,2.56e-4 -0.0052,-2.6e-4 -0.008,0 C 74.209644,62.035568 60,77.340584 60,96 c 0,19.88225 16.117748,36 36,36 18.66847,0 33.97668,-14.2204 35.78125,-32.414064 A 6,6 0 0 0 132,98 a 6,6 0 0 0 -6,-6 6,6 0 0 0 -5.98438,5.703124 c -0.0224,0.046 -0.082,0.08116 -0.0859,0.1328 C 118.99198,110.23306 108.63717,120 96,120 82.745168,120 72,109.25483 72,96 72,83.282664 81.889376,72.877808 94.398436,72.054688 c 0.0384,-0.0025 0.06024,-0.06012 0.09376,-0.07812 A 6,6 0 0 0 100,66 6,6 0 0 0 94,60 Z m 2,24 A 12,12 0 0 0 84,96 12,12 0 0 0 96,108 12,12 0 0 0 108,96 12,12 0 0 0 96,84 Z"
     id="path8" />
  <path
     style="opacity:0.1;fill:#ffffff;stroke-width:4"
     d="M 96 16 C 51.68 16 16 51.68 16 96 C 16 96.115411 16.006233 96.228869 16.007812 96.34375 C 16.358834 52.329079 51.899508 17 96 17 C 140.10049 17 175.64117 52.329079 175.99219 96.34375 C 175.99377 96.228869 176 96.115411 176 96 C 176 51.68 140.32 16 96 16 z "
     id="path10" />
</svg>
