<?xml version="1.0" encoding="UTF-8" standalone="no"?>
<svg
   xmlns:dc="http://purl.org/dc/elements/1.1/"
   xmlns:cc="http://creativecommons.org/ns#"
   xmlns:rdf="http://www.w3.org/1999/02/22-rdf-syntax-ns#"
   xmlns:svg="http://www.w3.org/2000/svg"
   xmlns="http://www.w3.org/2000/svg"
   xmlns:sodipodi="http://sodipodi.sourceforge.net/DTD/sodipodi-0.dtd"
   xmlns:inkscape="http://www.inkscape.org/namespaces/inkscape"
   width="192"
   height="192"
   version="1"
   id="svg14"
   sodipodi:docname="miui_notes.svg"
   inkscape:version="0.92.3 (2405546, 2018-03-11)">
  <metadata
     id="metadata20">
    <rdf:RDF>
      <cc:Work
         rdf:about="">
        <dc:format>image/svg+xml</dc:format>
        <dc:type
           rdf:resource="http://purl.org/dc/dcmitype/StillImage" />
        <dc:title />
      </cc:Work>
    </rdf:RDF>
  </metadata>
  <defs
     id="defs18">
    <filter
       inkscape:collect="always"
       style="color-interpolation-filters:sRGB"
       id="filter863"
       x="-0.03"
       width="1.06"
       y="-0.12"
       height="1.24">
      <feGaussianBlur
         inkscape:collect="always"
         stdDeviation="2"
         id="feGaussianBlur865" />
    </filter>
    <filter
       inkscape:collect="always"
       style="color-interpolation-filters:sRGB"
       id="filter883"
       x="-0.048"
       width="1.096"
       y="-0.048"
       height="1.096">
      <feGaussianBlur
         inkscape:collect="always"
         stdDeviation="3.2"
         id="feGaussianBlur885" />
    </filter>
  </defs>
  <sodipodi:namedview
     pagecolor="#ffffff"
     bordercolor="#666666"
     borderopacity="1"
     objecttolerance="10"
     gridtolerance="10"
     guidetolerance="10"
     inkscape:pageopacity="0"
     inkscape:pageshadow="2"
     inkscape:window-width="1920"
     inkscape:window-height="1018"
     id="namedview16"
     showgrid="false"
     inkscape:zoom="2.45"
     inkscape:cx="91.414993"
     inkscape:cy="89.306122"
     inkscape:window-x="0"
     inkscape:window-y="32"
     inkscape:window-maximized="1"
     inkscape:current-layer="svg14" />
  <rect
     style="opacity:0.2;stroke-width:4;filter:url(#filter883)"
     width="160"
     height="160"
     x="16"
     y="20"
     rx="8"
     ry="8"
     id="rect2" />
  <rect
     style="fill:#e4e4e4;stroke-width:4"
     width="156"
     height="160"
     x="-176"
     y="-176"
     rx="8"
     ry="8"
     transform="matrix(0,-1,-1,0,0,0)"
     id="rect4" />
  <path
     id="path849"
     d="m 24,18 c -4.432,0 -8,3.568 -8,8 V 58 H 176 V 26 c 0,-4.432 -3.568,-8 -8,-8 z"
     style="opacity:0.2;fill:#000000;stroke-width:4;filter:url(#filter863)"
     inkscape:connector-curvature="0" />
  <path
     inkscape:connector-curvature="0"
     style="fill:#e89944;fill-opacity:1;stroke-width:4"
     d="m 24,16 c -4.432,0 -8,3.568 -8,8 V 56 H 176 V 24 c 0,-4.432 -3.568,-8 -8,-8 z"
     id="path8" />
  <path
     inkscape:connector-curvature="0"
     style="opacity:0.2;stroke-width:4"
     d="m 40,84 v 8 h 112 v -8 z"
     id="path847" />
  <path
     inkscape:connector-curvature="0"
     style="opacity:0.2;stroke-width:4"
     d="m 40,104 v 8 h 88 v -8 z"
     id="path845" />
  <path
     inkscape:connector-curvature="0"
     style="opacity:0.2;stroke-width:4"
     d="m 40,124 v 8 h 104 v -8 z"
     id="path843" />
  <path
     inkscape:connector-curvature="0"
     style="opacity:0.2;stroke-width:4"
     d="m 40,144 v 8 h 72 v -8 z"
     id="path10" />
  <path
     inkscape:connector-curvature="0"
     style="opacity:0.2;fill:#ffffff;stroke-width:4"
     d="m 24,16 c -4.432,0 -8,3.568 -8,8 v 1 c 0,-4.432 3.568,-8 8,-8 h 144 c 4.432,0 8,3.568 8,8 v -1 c 0,-4.432 -3.568,-8 -8,-8 z"
     id="path12" />
</svg>
