<?xml version="1.0" encoding="UTF-8" standalone="no"?>
<svg
   xmlns:dc="http://purl.org/dc/elements/1.1/"
   xmlns:cc="http://creativecommons.org/ns#"
   xmlns:rdf="http://www.w3.org/1999/02/22-rdf-syntax-ns#"
   xmlns:svg="http://www.w3.org/2000/svg"
   xmlns="http://www.w3.org/2000/svg"
   xmlns:sodipodi="http://sodipodi.sourceforge.net/DTD/sodipodi-0.dtd"
   xmlns:inkscape="http://www.inkscape.org/namespaces/inkscape"
   width="192"
   height="192"
   version="1"
   id="svg16"
   sodipodi:docname="apps_ax_player.svg"
   inkscape:version="0.92.3 (2405546, 2018-03-11)">
  <metadata
     id="metadata22">
    <rdf:RDF>
      <cc:Work
         rdf:about="">
        <dc:format>image/svg+xml</dc:format>
        <dc:type
           rdf:resource="http://purl.org/dc/dcmitype/StillImage" />
      </cc:Work>
    </rdf:RDF>
  </metadata>
  <defs
     id="defs20">
    <filter
       inkscape:collect="always"
       style="color-interpolation-filters:sRGB"
       id="filter853"
       x="-0.048"
       width="1.096"
       y="-0.048"
       height="1.096">
      <feGaussianBlur
         inkscape:collect="always"
         stdDeviation="3.2"
         id="feGaussianBlur855" />
    </filter>
    <filter
       inkscape:collect="always"
       style="color-interpolation-filters:sRGB"
       id="filter904"
       x="-0.051428571"
       width="1.1028571"
       y="-0.045"
       height="1.09">
      <feGaussianBlur
         inkscape:collect="always"
         stdDeviation="1.2000002"
         id="feGaussianBlur906" />
    </filter>
  </defs>
  <sodipodi:namedview
     pagecolor="#ffffff"
     bordercolor="#666666"
     borderopacity="1"
     objecttolerance="10"
     gridtolerance="10"
     guidetolerance="10"
     inkscape:pageopacity="0"
     inkscape:pageshadow="2"
     inkscape:window-width="1920"
     inkscape:window-height="1018"
     id="namedview18"
     showgrid="false"
     inkscape:zoom="3.06"
     inkscape:cx="96"
     inkscape:cy="96"
     inkscape:window-x="0"
     inkscape:window-y="32"
     inkscape:window-maximized="1"
     inkscape:current-layer="svg16" />
  <rect
     style="opacity:0.2;fill:#000000;stroke-width:4;filter:url(#filter853)"
     width="160"
     height="160"
     x="-180"
     y="-176"
     rx="80"
     ry="80"
     transform="matrix(0,-1,-1,0,0,0)"
     id="rect835" />
  <rect
     id="rect2"
     transform="matrix(0,-1,-1,0,0,0)"
     ry="80"
     rx="80"
     y="-176"
     x="-176"
     height="160"
     width="160"
     style="fill:#e4e4e4;stroke-width:4" />
  <path
     style="opacity:0.2;fill:#ffffff;stroke-width:4"
     d="M 96 16 C 51.684 16 16.007812 51.68 16.007812 96 C 16.007812 96.33544 16.009812 96.667215 16.007812 97 C 16.007812 52.68 51.684 17 96 17 C 140.316 17 175.99219 52.68 175.99219 97 C 175.99019 96.667215 175.99219 96.33544 175.99219 96 C 175.99219 51.68 140.316 16 96 16 z "
     id="path4" />
  <rect
     id="rect8"
     transform="matrix(0,-1,-1,0,0,0)"
     ry="60"
     rx="60"
     y="-156"
     x="-156"
     height="120"
     width="120"
     style="fill:#2190df;stroke-width:4" />
  <path
     inkscape:connector-curvature="0"
     id="path10"
     d="M 79.070292,68.002022 A 6.904874,7.066546 0 0 0 72,75.06479 v 49.87687 a 6.904874,7.066546 0 0 0 10.35186,6.11482 l 21.11144,-12.45881 21.10148,-12.47963 a 6.904874,7.066546 0 0 0 0,-12.219214 L 103.4633,81.41919 82.35186,68.960394 a 6.904874,7.066546 0 0 0 -3.281568,-0.958372 z"
     style="opacity:0.2;stroke-width:4;filter:url(#filter904)" />
  <path
     inkscape:connector-curvature="0"
     id="path12"
     d="M 79.070292,64.002028 A 6.904874,7.066546 0 0 0 72,71.064796 v 49.876864 a 6.904874,7.066546 0 0 0 10.35186,6.11482 l 21.11144,-12.45881 21.10148,-12.47963 a 6.904874,7.066546 0 0 0 0,-12.219208 L 103.4633,77.419196 82.35186,64.9604 a 6.904874,7.066546 0 0 0 -3.281568,-0.958372 z"
     style="fill:#ffffff;stroke-width:4" />
</svg>
