<?xml version="1.0" encoding="UTF-8" standalone="no"?>
<svg
   xmlns:dc="http://purl.org/dc/elements/1.1/"
   xmlns:cc="http://creativecommons.org/ns#"
   xmlns:rdf="http://www.w3.org/1999/02/22-rdf-syntax-ns#"
   xmlns:svg="http://www.w3.org/2000/svg"
   xmlns="http://www.w3.org/2000/svg"
   xmlns:sodipodi="http://sodipodi.sourceforge.net/DTD/sodipodi-0.dtd"
   xmlns:inkscape="http://www.inkscape.org/namespaces/inkscape"
   width="192"
   height="192"
   version="1"
   id="svg60"
   sodipodi:docname="apps_tangram_browser.svg"
   inkscape:version="0.92.3 (2405546, 2018-03-11)">
  <metadata
     id="metadata66">
    <rdf:RDF>
      <cc:Work
         rdf:about="">
        <dc:format>image/svg+xml</dc:format>
        <dc:type
           rdf:resource="http://purl.org/dc/dcmitype/StillImage" />
      </cc:Work>
    </rdf:RDF>
  </metadata>
  <defs
     id="defs64">
    <filter
       inkscape:collect="always"
       style="color-interpolation-filters:sRGB"
       id="filter926"
       x="-0.039333424"
       width="1.0786668"
       y="-0.061564995"
       height="1.12313">
      <feGaussianBlur
         inkscape:collect="always"
         stdDeviation="2.3600055"
         id="feGaussianBlur928" />
    </filter>
  </defs>
  <sodipodi:namedview
     pagecolor="#ffffff"
     bordercolor="#666666"
     borderopacity="1"
     objecttolerance="10"
     gridtolerance="10"
     guidetolerance="10"
     inkscape:pageopacity="0"
     inkscape:pageshadow="2"
     inkscape:window-width="1920"
     inkscape:window-height="1018"
     id="namedview62"
     showgrid="false"
     inkscape:zoom="1"
     inkscape:cx="96"
     inkscape:cy="96"
     inkscape:window-x="0"
     inkscape:window-y="32"
     inkscape:window-maximized="1"
     inkscape:current-layer="svg60" />
  <path
     style="opacity:0.2;stroke-width:4;filter:url(#filter926)"
     d="M 56.082031 88 A 3.534816 3.4954866 0 0 0 54.232422 88.46875 L 25.767578 104.71875 A 3.534816 3.4954866 0 0 0 24 107.74609 L 24 140.25 A 3.534816 3.4954866 0 0 0 25.767578 143.27734 L 54.232422 159.53125 A 3.534816 3.4954866 0 0 0 57.767578 159.53125 L 64 155.97266 L 64 160.25 A 3.534816 3.4954866 0 0 0 65.767578 163.27734 L 94.232422 179.53125 A 3.534816 3.4954866 0 0 0 97.767578 179.53125 L 126.23242 163.27734 A 3.534816 3.4954866 0 0 0 128 160.25 L 128 155.97266 L 134.23242 159.53125 A 3.534816 3.4954866 0 0 0 137.76758 159.53125 L 166.23242 143.27734 A 3.534816 3.4954866 0 0 0 168 140.25 L 168 107.74609 A 3.534816 3.4954866 0 0 0 166.23242 104.71875 L 137.76758 88.46875 A 3.534816 3.4954866 0 0 0 136.08203 88 A 3.534816 3.4954866 0 0 0 134.23242 88.46875 L 105.76758 104.71875 A 3.534816 3.4954866 0 0 0 104 107.74609 L 104 112.02734 L 97.767578 108.46875 A 3.534816 3.4954866 0 0 0 96.082031 108 A 3.534816 3.4954866 0 0 0 94.232422 108.46875 L 88 112.02734 L 88 107.74609 A 3.534816 3.4954866 0 0 0 86.232422 104.71875 L 57.767578 88.46875 A 3.534816 3.4954866 0 0 0 56.082031 88 z "
     id="path2" />
  <path
     inkscape:connector-curvature="0"
     id="path8"
     d="m 136.08284,84.00094 a 3.534816,3.4954866 0 0 0 -1.85007,0.467616 L 105.76723,100.7189 A 3.534816,3.4954866 0 0 0 104,103.74642 v 32.5041 a 3.534816,3.4954866 0 0 0 1.76723,3.02752 l 28.46554,16.25376 a 3.534816,3.4954866 0 0 0 3.53446,0 l 28.46554,-16.25376 A 3.534816,3.4954866 0 0 0 168,136.25052 v -32.5041 a 3.534816,3.4954866 0 0 0 -1.76723,-3.02752 L 137.76723,84.468556 a 3.534816,3.4954866 0 0 0 -1.68439,-0.467616 z"
     style="fill:#eb5f2e;stroke-width:4" />
  <path
     inkscape:connector-curvature="0"
     id="path10"
     d="m 136,84.00094 v 71.99822 c 0.58421,-0.0128 1.24365,-0.16848 1.76723,-0.46737 l 28.46554,-16.25375 c 1.09372,-0.62452 1.76739,-1.77862 1.76723,-3.02752 v -32.50409 c 1.6e-4,-1.24891 -0.67351,-2.40302 -1.76723,-3.02753 L 137.76723,84.468556 C 137.25426,84.175576 136.59222,84.01478 136,84.00094 Z"
     style="fill:#f36f37;stroke-width:4" />
  <path
     inkscape:connector-curvature="0"
     id="path12"
     d="m 136.08284,84.00094 c -0.6484,-0.0148 -1.28844,0.14684 -1.85007,0.467616 L 105.76723,100.7189 c -1.09372,0.62451 -1.76739,1.77862 -1.76723,3.02752 v 0.50494 c -1.6e-4,1.2489 0.67352,2.40301 1.76723,3.02752 l 28.46554,16.25376 c 1.09359,0.62427 2.44087,0.62427 3.53446,0 l 28.46554,-16.25376 c 1.09372,-0.62451 1.76739,-1.77862 1.76723,-3.02752 v -0.50493 c 1.6e-4,-1.24891 -0.67351,-2.40302 -1.76723,-3.02753 L 137.76723,84.468556 c -0.51297,-0.293 -1.09217,-0.453776 -1.68439,-0.467616 z"
     style="fill:#e15126;stroke-width:4" />
  <path
     inkscape:connector-curvature="0"
     id="path14"
     d="m 56.08284,84.00094 a 3.534816,3.4954866 0 0 0 -1.850072,0.467616 L 25.767232,100.7189 A 3.534816,3.4954866 0 0 0 24,103.74642 v 32.5041 a 3.534816,3.4954866 0 0 0 1.767232,3.02752 l 28.465536,16.25376 a 3.534816,3.4954866 0 0 0 3.534464,0 l 28.46554,-16.25376 A 3.534816,3.4954866 0 0 0 88,136.25052 v -32.5041 A 3.534816,3.4954866 0 0 0 86.232772,100.7189 L 57.767232,84.468556 A 3.534816,3.4954866 0 0 0 56.08284,84.00094 Z"
     style="fill:#f3cd0e;stroke-width:4" />
  <path
     inkscape:connector-curvature="0"
     id="path16"
     d="m 56,84.00094 v 71.99822 c 0.584208,-0.0128 1.243648,-0.16848 1.767232,-0.46737 l 28.46554,-16.25375 C 87.326488,138.65352 88.000164,137.49942 88,136.25052 v -32.50409 c 1.64e-4,-1.24891 -0.673512,-2.40302 -1.767228,-3.02753 L 57.767232,84.468556 C 57.25426,84.175576 56.592216,84.01478 56,84.00094 Z"
     style="fill:#ecbf1a;stroke-width:4" />
  <path
     inkscape:connector-curvature="0"
     id="path18"
     d="m 56.08284,84.00094 c -0.648396,-0.0148 -1.28844,0.14684 -1.850072,0.467616 L 25.767232,100.7189 c -1.09372,0.62451 -1.767396,1.77862 -1.767232,3.02752 v 0.50494 c -1.6e-4,1.2489 0.673516,2.40301 1.767232,3.02752 l 28.465536,16.25376 c 1.093588,0.62427 2.440876,0.62427 3.534464,0 l 28.46554,-16.25376 C 87.326488,106.65437 88.000164,105.50026 88,104.25136 v -0.50493 c 1.64e-4,-1.24891 -0.673512,-2.40302 -1.767228,-3.02753 L 57.767232,84.468556 C 57.25426,84.175556 56.675056,84.01478 56.08284,84.00094 Z"
     style="fill:#e1b123;stroke-width:4" />
  <path
     inkscape:connector-curvature="0"
     id="path20"
     d="m 96.08284,20.000942 a 3.534816,3.4954866 0 0 0 -1.850072,0.467616 L 65.767232,36.718894 A 3.534816,3.4954866 0 0 0 64,39.746426 v 32.50409 a 3.534816,3.4954866 0 0 0 1.767232,3.027528 l 28.465536,16.253752 a 3.534816,3.4954866 0 0 0 3.534464,0 L 126.23277,75.278044 A 3.534816,3.4954866 0 0 0 128,72.250516 v -32.50409 a 3.534816,3.4954866 0 0 0 -1.76723,-3.027532 L 97.767232,20.468558 A 3.534816,3.4954866 0 0 0 96.08284,20.000942 Z"
     style="fill:#3caaba;stroke-width:4" />
  <path
     inkscape:connector-curvature="0"
     id="path22"
     d="m 96,20.000942 v 71.998214 c 0.584208,-0.0128 1.243648,-0.16848 1.767232,-0.467364 L 126.23277,75.27804 C 127.32649,74.653524 128.00016,73.49942 128,72.250512 V 39.746424 c 1.6e-4,-1.248908 -0.67351,-2.403016 -1.76723,-3.027532 L 97.767232,20.468556 C 97.25426,20.175576 96.592216,20.01478 96,20.000942 Z"
     style="fill:#47b3ca;stroke-width:4" />
  <path
     inkscape:connector-curvature="0"
     id="path24"
     d="m 96.08284,20.000942 c -0.648396,-0.0148 -1.28844,0.14684 -1.850072,0.467616 L 65.767232,36.718894 C 64.673512,37.34341 63.999836,38.497518 64,39.746426 v 0.504934 c -1.6e-4,1.248904 0.673516,2.403012 1.767232,3.027528 L 94.232768,59.53264 c 1.093588,0.624276 2.440876,0.624276 3.534464,0 L 126.23277,43.278888 C 127.32649,42.654372 128.00016,41.500264 128,40.25136 v -0.504934 c 1.6e-4,-1.248908 -0.67351,-2.403016 -1.76723,-3.027532 L 97.767232,20.468558 c -0.512972,-0.293 -1.092176,-0.453776 -1.684392,-0.467616 z"
     style="fill:#60c1e2;stroke-width:4" />
  <path
     inkscape:connector-curvature="0"
     id="path26"
     d="m 56.08284,44.00094 a 3.534816,3.4954866 0 0 0 -1.850072,0.46762 L 25.767232,60.718896 A 3.534816,3.4954866 0 0 0 24,63.746428 v 32.504088 a 3.534816,3.4954866 0 0 0 1.767232,3.027528 L 54.232768,115.5318 a 3.534816,3.4954866 0 0 0 3.534464,0 L 86.232772,99.278044 A 3.534816,3.4954866 0 0 0 88,96.250516 V 63.746428 A 3.534816,3.4954866 0 0 0 86.232772,60.718896 L 57.767232,44.46856 A 3.534816,3.4954866 0 0 0 56.08284,44.00094 Z"
     style="fill:#58c1bb;stroke-width:4" />
  <path
     inkscape:connector-curvature="0"
     id="path28"
     d="m 56,44.00094 v 71.99822 c 0.584208,-0.0128 1.243648,-0.16848 1.767232,-0.46737 L 86.232772,99.27804 C 87.326488,98.653524 88.000164,97.49942 88,96.250516 V 63.746428 c 1.64e-4,-1.248908 -0.673512,-2.403016 -1.767228,-3.027532 L 57.767232,44.46856 C 57.25426,44.17558 56.592216,44.01478 56,44.00094 Z"
     style="fill:#6cc5c6;stroke-width:4" />
  <path
     inkscape:connector-curvature="0"
     id="path30"
     d="m 56.08284,44.00094 c -0.648396,-0.0148 -1.28844,0.14684 -1.850072,0.46762 L 25.767232,60.718896 C 24.673512,61.343412 23.999836,62.49752 24,63.746428 v 0.504928 c -1.6e-4,1.248904 0.673516,2.403016 1.767232,3.027532 l 28.465536,16.253748 c 1.093588,0.624276 2.440876,0.624276 3.534464,0 L 86.232772,67.278888 C 87.326488,66.654372 88.000164,65.500264 88,64.25136 v -0.504932 c 1.64e-4,-1.248908 -0.673512,-2.403016 -1.767228,-3.027532 L 57.767232,44.46856 c -0.512972,-0.293 -1.092176,-0.45378 -1.684392,-0.46762 z"
     style="fill:#9cd8d9;stroke-width:4" />
  <path
     inkscape:connector-curvature="0"
     id="path32"
     d="m 136.08284,44.00094 a 3.534816,3.4954866 0 0 0 -1.85007,0.46762 L 105.76723,60.718896 A 3.534816,3.4954866 0 0 0 104,63.746428 v 32.504088 a 3.534816,3.4954866 0 0 0 1.76723,3.027528 l 28.46554,16.253756 a 3.534816,3.4954866 0 0 0 3.53446,0 L 166.23277,99.278044 A 3.534816,3.4954866 0 0 0 168,96.250516 V 63.746428 a 3.534816,3.4954866 0 0 0 -1.76723,-3.027532 L 137.76723,44.46856 a 3.534816,3.4954866 0 0 0 -1.68439,-0.46762 z"
     style="fill:#9c213a;stroke-width:4" />
  <path
     inkscape:connector-curvature="0"
     id="path34"
     d="m 136,44.00094 v 71.99822 c 0.58421,-0.0128 1.24365,-0.16848 1.76723,-0.46737 L 166.23277,99.27804 C 167.32649,98.653524 168.00016,97.49942 168,96.250516 V 63.746428 c 1.6e-4,-1.248908 -0.67351,-2.403016 -1.76723,-3.027532 L 137.76723,44.46856 C 137.25426,44.17558 136.59222,44.01478 136,44.00094 Z"
     style="fill:#bd2846;stroke-width:4" />
  <path
     inkscape:connector-curvature="0"
     id="path36"
     d="m 136.08284,44.00094 c -0.6484,-0.0148 -1.28844,0.14684 -1.85007,0.46762 L 105.76723,60.718896 C 104.67351,61.343412 103.99984,62.49752 104,63.746428 v 0.504928 c -1.6e-4,1.248904 0.67352,2.403016 1.76723,3.027532 l 28.46554,16.253748 c 1.09359,0.624276 2.44087,0.624276 3.53446,0 L 166.23277,67.278888 C 167.32649,66.654372 168.00016,65.500264 168,64.25136 v -0.504932 c 1.6e-4,-1.248908 -0.67351,-2.403016 -1.76723,-3.027532 L 137.76723,44.46856 c -0.51297,-0.293 -1.09217,-0.45378 -1.68439,-0.46762 z"
     style="fill:#aa243f;stroke-width:4" />
  <path
     inkscape:connector-curvature="0"
     id="path38"
     d="m 96.08284,104.00094 a 3.534816,3.4954866 0 0 0 -1.850072,0.46762 L 65.767232,120.7189 A 3.534816,3.4954866 0 0 0 64,123.74643 v 32.50409 a 3.534816,3.4954866 0 0 0 1.767232,3.02752 l 28.465536,16.25376 a 3.534816,3.4954866 0 0 0 3.534464,0 L 126.23277,159.27804 A 3.534816,3.4954866 0 0 0 128,156.25052 v -32.50409 a 3.534816,3.4954866 0 0 0 -1.76723,-3.02753 L 97.767232,104.46856 a 3.534816,3.4954866 0 0 0 -1.684392,-0.46762 z"
     style="fill:#d37f46;stroke-width:4" />
  <path
     inkscape:connector-curvature="0"
     id="path40"
     d="m 96,104.00094 v 71.99822 c 0.584208,-0.0128 1.243648,-0.16848 1.767232,-0.46736 l 28.465538,-16.25376 c 1.09372,-0.62451 1.76739,-1.77862 1.76723,-3.02752 v -32.50409 c 1.6e-4,-1.24891 -0.67351,-2.40302 -1.76723,-3.02753 L 97.767232,104.46856 C 97.25426,104.17558 96.592216,104.01478 96,104.00094 Z"
     style="fill:#de9661;stroke-width:4" />
  <path
     inkscape:connector-curvature="0"
     id="path42"
     d="m 96.08284,104.00094 c -0.648396,-0.0148 -1.28844,0.14684 -1.850072,0.46762 L 65.767232,120.7189 c -1.09372,0.62451 -1.767396,1.77862 -1.767232,3.02753 v 0.50493 c -1.6e-4,1.2489 0.673516,2.40301 1.767232,3.02753 l 28.465536,16.25375 c 1.093588,0.62428 2.440876,0.62428 3.534464,0 l 28.465538,-16.25375 c 1.09372,-0.62452 1.76739,-1.77863 1.76723,-3.02753 v -0.50493 c 1.6e-4,-1.24891 -0.67351,-2.40302 -1.76723,-3.02753 L 97.767232,104.46856 c -0.512972,-0.293 -1.092176,-0.45378 -1.684392,-0.46762 z"
     style="fill:#db8c52;stroke-width:4" />
  <path
     inkscape:connector-curvature="0"
     id="path44"
     d="M 96.08284,64.000944 A 3.534816,3.4954866 0 0 0 94.232768,64.46856 L 65.767232,80.718896 A 3.534816,3.4954866 0 0 0 64,83.746428 v 32.504092 a 3.534816,3.4954866 0 0 0 1.767232,3.02752 l 28.465536,16.25376 a 3.534816,3.4954866 0 0 0 3.534464,0 L 126.23277,119.27804 A 3.534816,3.4954866 0 0 0 128,116.25052 V 83.746428 a 3.534816,3.4954866 0 0 0 -1.76723,-3.027532 L 97.767232,64.46856 A 3.534816,3.4954866 0 0 0 96.08284,64.000944 Z"
     style="fill:#d73c44;stroke-width:4" />
  <path
     inkscape:connector-curvature="0"
     id="path46"
     d="m 96,64.000944 v 71.998216 c 0.584208,-0.0128 1.243648,-0.16848 1.767232,-0.46736 l 28.465538,-16.25376 c 1.09372,-0.62451 1.76739,-1.77862 1.76723,-3.02752 V 83.746428 c 1.6e-4,-1.248908 -0.67351,-2.403016 -1.76723,-3.027532 L 97.767232,64.46856 C 97.25426,64.17558 96.592216,64.014784 96,64.000944 Z"
     style="fill:#e64545;stroke-width:4" />
  <path
     inkscape:connector-curvature="0"
     id="path48"
     d="m 96.08284,64.000944 c -0.648396,-0.0148 -1.28844,0.14684 -1.850072,0.467616 L 65.767232,80.718896 C 64.673512,81.343412 63.999836,82.49752 64,83.746428 v 0.504932 c -1.6e-4,1.248904 0.673516,2.403012 1.767232,3.027528 l 28.465536,16.253752 c 1.093588,0.62428 2.440876,0.62428 3.534464,0 L 126.23277,87.278888 C 127.32649,86.654372 128.00016,85.500264 128,84.25136 v -0.504932 c 1.6e-4,-1.248908 -0.67351,-2.403016 -1.76723,-3.027532 L 97.767232,64.46856 c -0.512972,-0.293 -1.092176,-0.453776 -1.684392,-0.467616 z"
     style="fill:#ef5654;stroke-width:4" />
  <path
     style="opacity:0.1;fill:#ffffff;stroke-width:4"
     d="M 96.085938 20 C 95.43754 19.9852 94.796007 20.147976 94.234375 20.46875 L 65.765625 36.71875 C 64.671905 37.343266 63.999836 38.501092 64 39.75 L 64 40.25 C 63.999989 40.33433 64.011658 40.416629 64.017578 40.5 C 64.101013 39.348772 64.745757 38.301097 65.765625 37.71875 L 94.234375 21.46875 C 94.796007 21.147976 95.43754 20.9852 96.085938 21 C 96.678152 21.01384 97.252653 21.17575 97.765625 21.46875 L 126.23438 37.71875 C 127.25422 38.301097 127.89898 39.348772 127.98242 40.5 C 127.98834 40.416629 128.00001 40.33433 128 40.25 L 128 39.75 C 128.00016 38.501092 127.32808 37.343266 126.23438 36.71875 L 97.765625 20.46875 C 97.252653 20.17575 96.678152 20.01384 96.085938 20 z M 56.085938 44 C 55.437542 43.9852 54.796007 44.147958 54.234375 44.46875 L 25.765625 60.71875 C 24.671905 61.343258 23.999836 62.501092 24 63.75 L 24 64.25 C 23.999989 64.33433 24.011658 64.416629 24.017578 64.5 C 24.101013 63.348771 24.745757 62.301089 25.765625 61.71875 L 54.234375 45.46875 C 54.796007 45.147958 55.437542 44.9852 56.085938 45 C 56.678154 45.01384 57.252653 45.17575 57.765625 45.46875 L 86.234375 61.71875 C 87.25424 62.301093 87.898987 63.348772 87.982422 64.5 C 87.988342 64.416629 88.000011 64.33433 88 64.25 L 88 63.75 C 88.000164 62.501092 87.328091 61.343262 86.234375 60.71875 L 57.765625 44.46875 C 57.252653 44.17575 56.678154 44.01384 56.085938 44 z M 136.08594 44 C 135.43754 43.9852 134.79601 44.147958 134.23438 44.46875 L 105.76562 60.71875 C 104.67191 61.343258 103.99984 62.501092 104 63.75 L 104 64.25 C 103.99999 64.33433 104.01166 64.416629 104.01758 64.5 C 104.10102 63.348771 104.74577 62.301089 105.76562 61.71875 L 134.23438 45.46875 C 134.79601 45.147958 135.43754 44.9852 136.08594 45 C 136.67815 45.01384 137.25267 45.17575 137.76562 45.46875 L 166.23438 61.71875 C 167.25423 62.301093 167.89898 63.348772 167.98242 64.5 C 167.98834 64.416629 168.00001 64.33433 168 64.25 L 168 63.75 C 168.00016 62.501092 167.32809 61.343262 166.23438 60.71875 L 137.76562 44.46875 C 137.25266 44.17575 136.67815 44.01384 136.08594 44 z M 96.085938 64 C 95.43754 63.9852 94.796007 64.147958 94.234375 64.46875 L 65.765625 80.71875 C 64.671905 81.343262 63.999836 82.501092 64 83.75 L 64 84.25 C 63.999989 84.33433 64.011658 84.416629 64.017578 84.5 C 64.101013 83.348772 64.745757 82.301093 65.765625 81.71875 L 94.234375 65.46875 C 94.796007 65.147958 95.43754 64.9852 96.085938 65 C 96.678152 65.01384 97.252653 65.17575 97.765625 65.46875 L 126.23438 81.71875 C 127.25422 82.301093 127.89898 83.348772 127.98242 84.5 C 127.98834 84.416629 128.00001 84.33433 128 84.25 L 128 83.75 C 128.00016 82.501092 127.32808 81.343262 126.23438 80.71875 L 97.765625 64.46875 C 97.252653 64.17575 96.678152 64.01384 96.085938 64 z "
     id="path50" />
</svg>
