<?xml version="1.0" encoding="UTF-8" standalone="no"?>
<svg
   xmlns:dc="http://purl.org/dc/elements/1.1/"
   xmlns:cc="http://creativecommons.org/ns#"
   xmlns:rdf="http://www.w3.org/1999/02/22-rdf-syntax-ns#"
   xmlns:svg="http://www.w3.org/2000/svg"
   xmlns="http://www.w3.org/2000/svg"
   xmlns:sodipodi="http://sodipodi.sourceforge.net/DTD/sodipodi-0.dtd"
   xmlns:inkscape="http://www.inkscape.org/namespaces/inkscape"
   width="192"
   height="192"
   version="1"
   id="svg16"
   sodipodi:docname="apps_openpass.svg"
   inkscape:version="0.92.3 (2405546, 2018-03-11)">
  <metadata
     id="metadata22">
    <rdf:RDF>
      <cc:Work
         rdf:about="">
        <dc:format>image/svg+xml</dc:format>
        <dc:type
           rdf:resource="http://purl.org/dc/dcmitype/StillImage" />
        <dc:title></dc:title>
      </cc:Work>
    </rdf:RDF>
  </metadata>
  <defs
     id="defs20">
    <filter
       inkscape:collect="always"
       style="color-interpolation-filters:sRGB"
       id="filter862"
       x="-0.054"
       width="1.108"
       y="-0.0432"
       height="1.0864">
      <feGaussianBlur
         inkscape:collect="always"
         stdDeviation="2.88"
         id="feGaussianBlur864" />
    </filter>
    <filter
       inkscape:collect="always"
       style="color-interpolation-filters:sRGB"
       id="filter882"
       x="-0.025875"
       width="1.05175"
       y="-0.059142857"
       height="1.1182857">
      <feGaussianBlur
         inkscape:collect="always"
         stdDeviation="1.38"
         id="feGaussianBlur884" />
    </filter>
  </defs>
  <sodipodi:namedview
     pagecolor="#ffffff"
     bordercolor="#666666"
     borderopacity="1"
     objecttolerance="10"
     gridtolerance="10"
     guidetolerance="10"
     inkscape:pageopacity="0"
     inkscape:pageshadow="2"
     inkscape:window-width="1920"
     inkscape:window-height="1018"
     id="namedview18"
     showgrid="false"
     inkscape:zoom="1"
     inkscape:cx="109.60601"
     inkscape:cy="80.737589"
     inkscape:window-x="0"
     inkscape:window-y="32"
     inkscape:window-maximized="1"
     inkscape:current-layer="svg16" />
  <path
     style="opacity:0.2;fill:#000000;stroke-width:4;filter:url(#filter862)"
     d="M 92,20 C 67.624,20 48,41.624 48,66 v 18 h -8 c -4.432,0 -8,3.568 -8,8 v 80 c 0,4.432 3.568,8 8,8 h 112 c 4.432,0 8,-3.568 8,-8 V 92 c 0,-4.432 -3.568,-8 -8,-8 h -8 V 66 C 144,41.624 124.376,20 100,20 Z m 0,16 h 8 c 15.78876,0 28,14.211244 28,30 V 84 H 64 V 66 C 64,50.211244 76.211244,36 92,36 Z"
     id="path841"
     inkscape:connector-curvature="0" />
  <path
     inkscape:connector-curvature="0"
     style="fill:#d2d2d2;stroke-width:4"
     d="M 92,16 C 67.624,16 48,37.624 48,62 v 18 c 0,24.376 19.624,44 44,44 h 8 c 24.376,0 44,-19.624 44,-44 V 62 C 144,37.624 124.376,16 100,16 Z m 0,16 h 8 c 15.78876,0 28,14.211244 28,30 v 18 c 0,15.788756 -12.21124,28 -28,28 H 92 C 76.211244,108 64,95.788756 64,80 V 62 C 64,46.211244 76.211244,32 92,32 Z"
     id="path4" />
  <rect
     style="fill:#ffb437;stroke-width:4"
     width="96"
     height="128"
     x="-176"
     y="-160"
     rx="8"
     ry="8"
     transform="matrix(0,-1,-1,0,0,0)"
     id="rect8" />
  <path
     style="opacity:0.2;fill:#ffffff;stroke-width:4"
     d="M 40 80 C 35.568 80 32 83.568 32 88 L 32 89 C 32 84.568 35.568 81 40 81 L 152 81 C 156.432 81 160 84.568 160 89 L 160 88 C 160 83.568 156.432 80 152 80 L 40 80 z "
     id="path10" />
  <rect
     id="rect872"
     ry="0"
     rx="0"
     y="98"
     x="32"
     height="56"
     width="128"
     style="opacity:0.2;fill:#000000;stroke-width:4;filter:url(#filter882)" />
  <rect
     style="fill:#fed96a;stroke-width:4"
     width="128"
     height="56"
     x="32"
     y="96"
     rx="0"
     ry="0"
     id="rect12" />
  <path
     style="opacity:0.2;fill:#ffffff;stroke-width:4"
     d="M 92 16 C 67.624 16 48 37.624 48 62 L 48 63 C 48 38.624 67.624 17 92 17 L 100 17 C 124.376 17 144 38.624 144 63 L 144 62 C 144 37.624 124.376 16 100 16 L 92 16 z "
     id="path14" />
  <rect
     style="opacity:0.2;fill:#ffffff;fill-opacity:1;stroke-width:0.70710677"
     id="rect886"
     width="128"
     height="1"
     x="32"
     y="96" />
</svg>
