<?xml version="1.0" encoding="UTF-8" standalone="no"?>
<svg
   xmlns:dc="http://purl.org/dc/elements/1.1/"
   xmlns:cc="http://creativecommons.org/ns#"
   xmlns:rdf="http://www.w3.org/1999/02/22-rdf-syntax-ns#"
   xmlns:svg="http://www.w3.org/2000/svg"
   xmlns="http://www.w3.org/2000/svg"
   xmlns:sodipodi="http://sodipodi.sourceforge.net/DTD/sodipodi-0.dtd"
   xmlns:inkscape="http://www.inkscape.org/namespaces/inkscape"
   width="192"
   height="192"
   version="1.1"
   id="svg18"
   sodipodi:docname="apps_logisim.svg"
   inkscape:version="0.92.3 (2405546, 2018-03-11)">
  <metadata
     id="metadata24">
    <rdf:RDF>
      <cc:Work
         rdf:about="">
        <dc:format>image/svg+xml</dc:format>
        <dc:type
           rdf:resource="http://purl.org/dc/dcmitype/StillImage" />
        <dc:title></dc:title>
      </cc:Work>
    </rdf:RDF>
  </metadata>
  <defs
     id="defs22">
    <filter
       inkscape:collect="always"
       style="color-interpolation-filters:sRGB"
       id="filter857"
       x="-0.048"
       width="1.096"
       y="-0.048"
       height="1.096">
      <feGaussianBlur
         inkscape:collect="always"
         stdDeviation="3.2"
         id="feGaussianBlur859" />
    </filter>
    <filter
       inkscape:collect="always"
       style="color-interpolation-filters:sRGB"
       id="filter884"
       x="-0.0288"
       width="1.0576"
       y="-0.144"
       height="1.288">
      <feGaussianBlur
         inkscape:collect="always"
         stdDeviation="0.96"
         id="feGaussianBlur886" />
    </filter>
    <filter
       inkscape:collect="always"
       style="color-interpolation-filters:sRGB"
       id="filter900"
       x="-0.0288"
       width="1.0576"
       y="-0.144"
       height="1.288">
      <feGaussianBlur
         inkscape:collect="always"
         stdDeviation="0.96"
         id="feGaussianBlur902" />
    </filter>
    <filter
       inkscape:collect="always"
       style="color-interpolation-filters:sRGB"
       id="filter916"
       x="-0.050666667"
       width="1.1013333"
       y="-0.0456"
       height="1.0912">
      <feGaussianBlur
         inkscape:collect="always"
         stdDeviation="1.52"
         id="feGaussianBlur918" />
    </filter>
    <filter
       inkscape:collect="always"
       style="color-interpolation-filters:sRGB"
       id="filter932"
       x="-0.0288"
       width="1.0576"
       y="-0.144"
       height="1.288">
      <feGaussianBlur
         inkscape:collect="always"
         stdDeviation="0.96"
         id="feGaussianBlur934" />
    </filter>
  </defs>
  <sodipodi:namedview
     pagecolor="#ffffff"
     bordercolor="#666666"
     borderopacity="1"
     objecttolerance="10"
     gridtolerance="10"
     guidetolerance="10"
     inkscape:pageopacity="0"
     inkscape:pageshadow="2"
     inkscape:window-width="1920"
     inkscape:window-height="1018"
     id="namedview20"
     showgrid="false"
     inkscape:zoom="2.45"
     inkscape:cx="24"
     inkscape:cy="89.306122"
     inkscape:window-x="0"
     inkscape:window-y="32"
     inkscape:window-maximized="1"
     inkscape:current-layer="svg18" />
  <circle
     id="circle2"
     r="80"
     cy="100.00005"
     cx="96"
     style="opacity:0.2;stroke-width:4;filter:url(#filter857)" />
  <circle
     id="circle4"
     r="80"
     cy="96.000046"
     cx="96"
     style="fill:#e4e4e4;stroke-width:4" />
  <path
     style="opacity:0.2;fill:#ffffff;stroke-width:4"
     d="M 96 16 A 80 80 0 0 0 16 96 A 80 80 0 0 0 16.017578 96.490234 A 80 80 0 0 1 96 17 A 80 80 0 0 1 175.97461 96.494141 A 80 80 0 0 0 176 96 A 80 80 0 0 0 96 16 z "
     id="path6" />
  <rect
     style="opacity:0.1;fill:#000000;stroke-width:4;filter:url(#filter932)"
     width="80"
     height="16"
     x="104"
     y="89.991142"
     ry="8"
     id="rect864" />
  <rect
     id="rect8"
     ry="8"
     y="87.991745"
     x="104"
     height="16"
     width="80"
     style="fill:#469961;stroke-width:4" />
  <rect
     style="opacity:0.1;fill:#000000;stroke-width:4;filter:url(#filter884)"
     width="80"
     height="16"
     x="8"
     y="65.991142"
     ry="8"
     id="rect866" />
  <rect
     id="rect10"
     ry="8"
     y="63.991741"
     x="8"
     height="16"
     width="80"
     style="fill:#438f96;stroke-width:4" />
  <rect
     style="opacity:0.1;fill:#000000;stroke-width:4;filter:url(#filter900)"
     width="80"
     height="16"
     x="8"
     y="113.99113"
     ry="8"
     id="rect868" />
  <rect
     id="rect12"
     ry="8"
     y="111.99174"
     x="8"
     height="16"
     width="80"
     style="fill:#469961;stroke-width:4" />
  <path
     style="opacity:0.1;fill:#000000;stroke-width:4;filter:url(#filter916)"
     d="m 64,138 c 5.281684,-15.8016 7.934508,-28.148 8,-40 0.06712,-12.1496 -2.585684,-23.8016 -8,-40 49.84692,0 72,40 72,40 0,0 -22.15308,40 -72,40 z"
     id="path870"
     inkscape:connector-curvature="0" />
  <path
     inkscape:connector-curvature="0"
     id="path14"
     d="m 64,136.0006 c 5.281684,-15.8016 7.934508,-28.148 8,-40 0.06712,-12.1496 -2.585684,-23.8016 -8,-40 49.84692,0 72,40 72,40 0,0 -22.15308,40 -72,40 z"
     style="fill:#3f3f3f;stroke-width:4" />
</svg>
