<?xml version="1.0" encoding="UTF-8" standalone="no"?>
<svg
   xmlns:dc="http://purl.org/dc/elements/1.1/"
   xmlns:cc="http://creativecommons.org/ns#"
   xmlns:rdf="http://www.w3.org/1999/02/22-rdf-syntax-ns#"
   xmlns:svg="http://www.w3.org/2000/svg"
   xmlns="http://www.w3.org/2000/svg"
   xmlns:sodipodi="http://sodipodi.sourceforge.net/DTD/sodipodi-0.dtd"
   xmlns:inkscape="http://www.inkscape.org/namespaces/inkscape"
   width="192"
   height="192"
   version="1"
   id="svg12"
   sodipodi:docname="apps_e_num.svg"
   inkscape:version="0.92.3 (2405546, 2018-03-11)">
  <metadata
     id="metadata18">
    <rdf:RDF>
      <cc:Work
         rdf:about="">
        <dc:format>image/svg+xml</dc:format>
        <dc:type
           rdf:resource="http://purl.org/dc/dcmitype/StillImage" />
        <dc:title />
      </cc:Work>
    </rdf:RDF>
  </metadata>
  <defs
     id="defs16">
    <filter
       inkscape:collect="always"
       style="color-interpolation-filters:sRGB"
       id="filter860"
       x="-0.048"
       width="1.096"
       y="-0.048"
       height="1.096">
      <feGaussianBlur
         inkscape:collect="always"
         stdDeviation="3.2"
         id="feGaussianBlur862" />
    </filter>
    <filter
       inkscape:collect="always"
       style="color-interpolation-filters:sRGB"
       id="filter869"
       x="-0.034541897"
       width="1.0690838"
       y="-0.07863912"
       height="1.1572782">
      <feGaussianBlur
         inkscape:collect="always"
         stdDeviation="1.9004419"
         id="feGaussianBlur871" />
    </filter>
  </defs>
  <sodipodi:namedview
     pagecolor="#ffffff"
     bordercolor="#666666"
     borderopacity="1"
     objecttolerance="10"
     gridtolerance="10"
     guidetolerance="10"
     inkscape:pageopacity="0"
     inkscape:pageshadow="2"
     inkscape:window-width="1920"
     inkscape:window-height="1018"
     id="namedview14"
     showgrid="false"
     inkscape:zoom="3.06"
     inkscape:cx="23.751214"
     inkscape:cy="107.20458"
     inkscape:window-x="0"
     inkscape:window-y="32"
     inkscape:window-maximized="1"
     inkscape:current-layer="svg12">
    <inkscape:grid
       type="xygrid"
       id="grid852" />
  </sodipodi:namedview>
  <rect
     style="opacity:0.2;stroke-width:4;filter:url(#filter860)"
     width="160"
     height="160"
     x="16"
     y="20"
     rx="8"
     ry="8"
     id="rect2" />
  <rect
     style="fill:#e4e4e4;fill-opacity:1;stroke-width:4"
     width="160"
     height="160"
     x="16"
     y="16"
     rx="8"
     ry="8"
     id="rect4" />
  <path
     inkscape:connector-curvature="0"
     style="opacity:0.2;fill:#ffffff;stroke-width:4"
     d="m 24,16 c -4.432,0 -8,3.568 -8,8 v 1 c 0,-4.432 3.568,-8 8,-8 h 144 c 4.432,0 8,3.568 8,8 v -1 c 0,-4.432 -3.568,-8 -8,-8 z"
     id="path6" />
  <path
     style="color:#000000;font-style:normal;font-variant:normal;font-weight:normal;font-stretch:normal;font-size:medium;line-height:normal;font-family:sans-serif;font-variant-ligatures:normal;font-variant-position:normal;font-variant-caps:normal;font-variant-numeric:normal;font-variant-alternates:normal;font-feature-settings:normal;text-indent:0;text-align:start;text-decoration:none;text-decoration-line:none;text-decoration-style:solid;text-decoration-color:#000000;letter-spacing:normal;word-spacing:normal;text-transform:none;writing-mode:lr-tb;direction:ltr;text-orientation:mixed;dominant-baseline:auto;baseline-shift:baseline;text-anchor:start;white-space:normal;shape-padding:0;clip-rule:nonzero;display:inline;overflow:visible;visibility:visible;opacity:0.2;isolation:auto;mix-blend-mode:normal;color-interpolation:sRGB;color-interpolation-filters:linearRGB;solid-color:#000000;solid-opacity:1;vector-effect:none;fill:#000000;fill-opacity:1;fill-rule:nonzero;stroke:none;stroke-width:6;stroke-linecap:round;stroke-linejoin:round;stroke-miterlimit:4;stroke-dasharray:none;stroke-dashoffset:0;stroke-opacity:1;color-rendering:auto;image-rendering:auto;shape-rendering:auto;text-rendering:auto;enable-background:accumulate;filter:url(#filter869)"
     d="m 59.433594,68.003548 c -0.894062,-0.01386 -1.781028,0.01433 -2.660156,0.08203 -12.307806,0.947844 -22.96748,9.724185 -25.960938,22.097656 -3.421095,14.141116 4.212213,28.678676 17.794922,33.892586 13.147998,5.04705 27.997315,-0.12952 35.210937,-12.07422 H 159 a 3.0003,3.0003 0 1 0 0,-6 H 82 a 3.0003,3.0003 0 0 0 -2.9375,2.22266 c -5.580859,9.98067 -17.596956,14.36032 -28.304688,10.25 C 39.946287,114.3241 33.921418,102.8494 36.644531,91.593392 c 2.723114,-11.256 13.326868,-18.707741 24.839844,-17.457031 10.665564,1.158651 18.950054,9.446841 20.306641,19.865234 H 58 a 3.0003,3.0003 0 1 0 0,6.000005 h 27 a 3.0003,3.0003 0 0 0 2.994141,-3.51563 3.000651,3.000651 0 0 0 0,-0.0918 C 87.689449,81.848313 76.596765,69.742806 62.132812,68.171517 61.228815,68.073311 60.327656,68.017407 59.433594,68.003548 Z M 99,85.999642 c -2.688006,0 -5.064553,1.265386 -6.462891,2.978516 -1.398338,1.713129 -2.003068,3.677634 -2.333984,5.478515 -0.661832,3.601764 -0.177734,6.937507 -0.177734,6.937507 a 3.0006594,3.0006594 0 1 0 5.949218,-0.78907 c 0,0 -0.311775,-2.664261 0.128907,-5.062499 0.220341,-1.199119 0.641859,-2.234614 1.080078,-2.771485 0.438219,-0.53687 0.70944,-0.771484 1.816406,-0.771484 1.10696,0 1.37819,0.234614 1.81641,0.771484 0.43822,0.536871 0.85973,1.572365 1.08007,2.771485 0.44069,2.398238 0.12891,5.062499 0.12891,5.062499 a 3.0006603,3.0006603 0 0 0 5.94922,0.78907 c 0,0 0.48409,-3.335743 -0.17773,-6.937507 -0.33093,-1.80088 -0.93565,-3.765386 -2.33399,-5.478515 C 104.06455,87.265028 101.68801,85.999642 99,85.999642 Z m 14.05469,0 a 3.0003,3.0003 0 0 0 -3.0293,2.648438 c 0,0 -0.48409,3.333785 0.17773,6.935546 0.33093,1.800881 0.93565,3.767341 2.33399,5.480474 1.39834,1.71313 3.77488,2.97852 6.46289,2.97852 2.68801,0 5.06455,-1.26539 6.46289,-2.97852 1.39834,-1.713133 2.00306,-3.679593 2.33399,-5.480474 0.66183,-3.601761 0.17773,-6.935547 0.17773,-6.935546 a 3.0005316,3.0005316 0 1 0 -5.94922,0.787109 c 0,0 0.31178,2.666214 -0.12891,5.064453 -0.22034,1.199119 -0.64185,2.232661 -1.08007,2.769531 -0.43822,0.536871 -0.70945,0.773434 -1.81641,0.773434 -1.10696,0 -1.37819,-0.236563 -1.81641,-0.773434 -0.43822,-0.53687 -0.85973,-1.570412 -1.08007,-2.769531 -0.44069,-2.398239 -0.12891,-5.064453 -0.12891,-5.064453 a 3.0003,3.0003 0 0 0 -2.91992,-3.435547 z m 25.94531,0 c -2.68801,0 -5.06455,1.265386 -6.46289,2.978516 -1.39834,1.713129 -2.00306,3.677635 -2.33399,5.478515 -0.66183,3.601764 -0.17773,6.937507 -0.17773,6.937507 a 3.0006603,3.0006603 0 0 0 5.94922,-0.78907 c 0,0 -0.31178,-2.664261 0.12891,-5.062499 0.22034,-1.19912 0.64185,-2.234614 1.08007,-2.771485 0.43822,-0.53687 0.70945,-0.771484 1.81641,-0.771484 1.10696,0 1.37819,0.234614 1.81641,0.771484 0.43822,0.536871 0.85973,1.572365 1.08007,2.771485 0.0341,0.185418 0.0565,0.373302 0.082,0.560547 -0.29047,2.907179 0.0469,5.291022 0.0469,5.291022 a 3.0006598,3.0006598 0 0 0 0.008,0.043 3.0006598,3.0006598 0 0 0 0.0312,0.16796 3.0006598,3.0006598 0 0 0 0.0332,0.14454 3.0006598,3.0006598 0 0 0 0.0293,0.10156 3.0006598,3.0006598 0 0 0 0.0645,0.19727 3.0006598,3.0006598 0 0 0 0.041,0.10156 3.0006598,3.0006598 0 0 0 0.0664,0.15039 3.0006598,3.0006598 0 0 0 0.0742,0.14453 3.0006598,3.0006598 0 0 0 0.0664,0.11524 3.0006598,3.0006598 0 0 0 0.0937,0.14257 3.0006598,3.0006598 0 0 0 0.0762,0.10743 3.0006598,3.0006598 0 0 0 0.0937,0.11523 3.0006598,3.0006598 0 0 0 0.11329,0.12891 3.0006598,3.0006598 0 0 0 0.0703,0.0723 3.0006598,3.0006598 0 0 0 0.14648,0.13477 3.0006598,3.0006598 0 0 0 0.10547,0.0859 3.0006598,3.0006598 0 0 0 0.10547,0.082 3.0006598,3.0006598 0 0 0 0.14258,0.0977 3.0006598,3.0006598 0 0 0 0.13281,0.0801 3.0006598,3.0006598 0 0 0 0.0918,0.0488 3.0006598,3.0006598 0 0 0 0.18359,0.0898 3.0006598,3.0006598 0 0 0 0.0977,0.0391 3.0006598,3.0006598 0 0 0 0.1582,0.0586 3.0006598,3.0006598 0 0 0 0.14844,0.0449 3.0006598,3.0006598 0 0 0 0.15234,0.0391 3.0006598,3.0006598 0 0 0 0.11328,0.0215 3.0006598,3.0006598 0 0 0 0.19141,0.0293 3.0006598,3.0006598 0 0 0 0.11133,0.01 3.0006598,3.0006598 0 0 0 0.17383,0.01 3.0006598,3.0006598 0 0 0 0.15429,-0.002 3.0006598,3.0006598 0 0 0 0.13086,-0.008 3.0006598,3.0006598 0 0 0 0.19141,-0.0195 3.0006598,3.0006598 0 0 0 0.0918,-0.0137 3.0006598,3.0006598 0 0 0 0.19921,-0.043 3.0006598,3.0006598 0 0 0 0.10938,-0.0273 3.0006598,3.0006598 0 0 0 0.16992,-0.0547 3.0006598,3.0006598 0 0 0 0.10742,-0.0391 3.0006598,3.0006598 0 0 0 0.15821,-0.0684 3.0006598,3.0006598 0 0 0 0.13671,-0.0664 3.0006598,3.0006598 0 0 0 0.10938,-0.0606 3.0006598,3.0006598 0 0 0 0.14648,-0.0898 3.0006598,3.0006598 0 0 0 0.11329,-0.0801 3.0006598,3.0006598 0 0 0 0.11718,-0.0879 3.0006598,3.0006598 0 0 0 0.12891,-0.11133 3.0006598,3.0006598 0 0 0 0.10352,-0.0977 3.0006598,3.0006598 0 0 0 0.0996,-0.10352 3.0006598,3.0006598 0 0 0 0.0957,-0.10742 3.0006598,3.0006598 0 0 0 0.11328,-0.14649 3.0006598,3.0006598 0 0 0 0.0586,-0.082 3.0006598,3.0006598 0 0 0 0.10156,-0.1582 3.0006598,3.0006598 0 0 0 0.0664,-0.11523 3.0006598,3.0006598 0 0 0 0.0644,-0.13086 3.0006598,3.0006598 0 0 0 0.0625,-0.14063 3.0006598,3.0006598 0 0 0 0.0527,-0.14258 3.0006598,3.0006598 0 0 0 0.0469,-0.14063 3.0006598,3.0006598 0 0 0 0.0352,-0.125 3.0006598,3.0006598 0 0 0 0.041,-0.18164 3.0006598,3.0006598 0 0 0 0.0273,-0.16015 c 0,0 0.007,-0.061 0.008,-0.0664 a 3.0006598,3.0006598 0 0 0 0,-0.008 c 0.0239,-0.17119 0.31849,-2.420093 0.0391,-5.216802 0.0256,-0.187245 0.048,-0.375129 0.082,-0.560547 0.22034,-1.19912 0.64185,-2.234614 1.08007,-2.771485 0.43822,-0.53687 0.70945,-0.771484 1.81641,-0.771484 1.10696,0 1.37819,0.234614 1.81641,0.771484 0.43822,0.536871 0.85973,1.572365 1.08007,2.771485 0.44069,2.398238 0.12891,5.062499 0.12891,5.062499 a 3.0006603,3.0006603 0 1 0 5.94922,0.78907 c 0,0 0.4841,-3.335743 -0.17773,-6.937507 -0.33092,-1.80088 -0.93565,-3.765386 -2.33399,-5.478515 -1.39834,-1.71313 -3.77488,-2.978516 -6.46289,-2.978516 -2.41446,0 -4.57133,1.025282 -6,2.474609 -1.42867,-1.449327 -3.58554,-2.474609 -6,-2.474609 z"
     id="path827"
     inkscape:connector-curvature="0" />
  <path
     style="opacity:1;fill:none;fill-opacity:1;stroke:#1e7acf;stroke-width:6;stroke-linecap:round;stroke-linejoin:round;stroke-miterlimit:4;stroke-dasharray:none;stroke-opacity:1"
     id="path842"
     sodipodi:type="arc"
     sodipodi:cx="59"
     sodipodi:cy="95.001938"
     sodipodi:rx="26"
     sodipodi:ry="26"
     sodipodi:start="0.49567351"
     sodipodi:end="6.2622414"
     d="M 81.870863,107.36817 A 26,26 0 0 1 49.682433,119.27503 26,26 0 0 1 33.729014,88.888242 26,26 0 0 1 61.807984,69.154013 26,26 0 0 1 84.994298,94.457436"
     sodipodi:open="true" />
  <path
     style="opacity:1;fill:none;stroke:#1e7acf;stroke-width:6;stroke-linecap:round;stroke-linejoin:miter;stroke-miterlimit:4;stroke-dasharray:none;stroke-opacity:1"
     d="m 82,107.00194 h 77"
     id="path844"
     inkscape:connector-curvature="0"
     sodipodi:nodetypes="cc" />
  <path
     style="opacity:1;fill:none;stroke:#1e7acf;stroke-width:6;stroke-linecap:round;stroke-linejoin:miter;stroke-miterlimit:4;stroke-dasharray:none;stroke-opacity:1"
     d="M 58,95.001939 H 85"
     id="path846"
     inkscape:connector-curvature="0"
     sodipodi:nodetypes="cc" />
  <path
     style="opacity:1;fill:none;stroke:#1e7acf;stroke-width:6;stroke-linecap:round;stroke-linejoin:round;stroke-miterlimit:4;stroke-dasharray:none;stroke-opacity:1"
     d="m 93,99 c 0,0 -1.589943,-12 6,-12 7.58994,0 6,12 6,12 v 0"
     id="path848"
     inkscape:connector-curvature="0"
     sodipodi:nodetypes="czcc" />
  <path
     sodipodi:nodetypes="czcc"
     inkscape:connector-curvature="0"
     id="path850"
     d="m 113,87.04236 c 0,0 -1.58994,12 6,12 7.58994,0 6,-12 6,-12 v 0"
     style="opacity:1;fill:none;stroke:#1e7acf;stroke-width:6;stroke-linecap:round;stroke-linejoin:round;stroke-miterlimit:4;stroke-dasharray:none;stroke-opacity:1" />
  <path
     sodipodi:nodetypes="czcc"
     inkscape:connector-curvature="0"
     id="path854"
     d="m 133,99 c 0,0 -1.58994,-12 6,-12 7.58994,0 6,12 6,12 v 0"
     style="opacity:1;fill:none;stroke:#1e7acf;stroke-width:6;stroke-linecap:round;stroke-linejoin:round;stroke-miterlimit:4;stroke-dasharray:none;stroke-opacity:1" />
  <path
     style="opacity:1;fill:none;stroke:#1e7acf;stroke-width:6;stroke-linecap:round;stroke-linejoin:round;stroke-miterlimit:4;stroke-dasharray:none;stroke-opacity:1"
     d="m 145,99 c 0,0 -1.58994,-12 6,-12 7.58994,0 6,12 6,12 v 0"
     id="path856"
     inkscape:connector-curvature="0"
     sodipodi:nodetypes="czcc" />
</svg>
