<?xml version="1.0" encoding="UTF-8" standalone="no"?>
<svg
   xmlns:dc="http://purl.org/dc/elements/1.1/"
   xmlns:cc="http://creativecommons.org/ns#"
   xmlns:rdf="http://www.w3.org/1999/02/22-rdf-syntax-ns#"
   xmlns:svg="http://www.w3.org/2000/svg"
   xmlns="http://www.w3.org/2000/svg"
   xmlns:sodipodi="http://sodipodi.sourceforge.net/DTD/sodipodi-0.dtd"
   xmlns:inkscape="http://www.inkscape.org/namespaces/inkscape"
   width="192"
   height="192"
   version="1"
   id="svg22"
   sodipodi:docname="apps_photoshop_express.svg"
   inkscape:version="0.92.3 (2405546, 2018-03-11)">
  <metadata
     id="metadata28">
    <rdf:RDF>
      <cc:Work
         rdf:about="">
        <dc:format>image/svg+xml</dc:format>
        <dc:type
           rdf:resource="http://purl.org/dc/dcmitype/StillImage" />
        <dc:title></dc:title>
      </cc:Work>
    </rdf:RDF>
  </metadata>
  <defs
     id="defs26">
    <filter
       inkscape:collect="always"
       style="color-interpolation-filters:sRGB"
       id="filter875"
       x="-0.048"
       width="1.096"
       y="-0.048"
       height="1.096">
      <feGaussianBlur
         inkscape:collect="always"
         stdDeviation="3.2"
         id="feGaussianBlur877" />
    </filter>
    <filter
       inkscape:collect="always"
       style="color-interpolation-filters:sRGB"
       id="filter897"
       x="-0.042460957"
       width="1.0849219"
       y="-0.055200982"
       height="1.110402">
      <feGaussianBlur
         inkscape:collect="always"
         stdDeviation="1.8400776"
         id="feGaussianBlur899" />
    </filter>
  </defs>
  <sodipodi:namedview
     pagecolor="#ffffff"
     bordercolor="#666666"
     borderopacity="1"
     objecttolerance="10"
     gridtolerance="10"
     guidetolerance="10"
     inkscape:pageopacity="0"
     inkscape:pageshadow="2"
     inkscape:window-width="1920"
     inkscape:window-height="1018"
     id="namedview24"
     showgrid="false"
     inkscape:zoom="1"
     inkscape:cx="24"
     inkscape:cy="89.306122"
     inkscape:window-x="0"
     inkscape:window-y="32"
     inkscape:window-maximized="1"
     inkscape:current-layer="svg22" />
  <rect
     id="rect857"
     ry="8"
     rx="8"
     y="20"
     x="16"
     height="160"
     width="160"
     style="opacity:0.2;fill:#000000;stroke-width:4;filter:url(#filter875)" />
  <rect
     style="fill:#3b478c;stroke-width:4"
     width="160"
     height="160"
     x="16"
     y="16"
     rx="8"
     ry="8"
     id="rect2" />
  <path
     inkscape:connector-curvature="0"
     style="opacity:0.1;fill:#ffffff;stroke-width:4"
     d="m 24,16 c -4.432,0 -8,3.568 -8,8 v 1 c 0,-4.432 3.568,-8 8,-8 h 144 c 4.432,0 8,3.568 8,8 v -1 c 0,-4.432 -3.568,-8 -8,-8 z"
     id="path4" />
  <path
     style="opacity:0.2;stroke-width:4;filter:url(#filter897)"
     d="M 66.132812,57.99805 C 56.139613,57.99805 44,58.326175 44,58.326175 V 138 h 16 v -23.91992 c 0,0 3.064053,-0.0317 6.132812,-0.16406 C 80.000012,113.99802 96,109.99805 96,85.99805 c 0,-24 -15.999188,-28 -29.867188,-28 z m -1.638671,11.947266 c 0.8117,0.0059 1.663623,0.02145 2.496093,0.05273 8.3548,0.3148 13.007813,8.6032 13.007813,16 0,8.232 -5.594922,15.923344 -14.294922,16.027344 -2.61256,0.0323 -3.940565,0.11785 -5.703125,-0.0586 L 59.998,69.998036 c 0,0 2.060992,-0.07033 4.496094,-0.05273 z m 63.970699,4.052734 c -14.87187,0 -24.45703,8.637625 -24.45703,20.158203 -0.12388,7.132977 4.66816,12.228907 17.08203,16.486327 7.00621,2.37856 8.91602,6.2236 8.91602,9.35547 0,3.12779 -4.80061,6 -10.45313,6 -5.53269,0 -12.10729,-5.8763 -15.54687,-8.00195 v 0.002 c -7.7e-4,4.54897 -0.002,11.45083 -0.002,16 4.54774,2.50129 11.99918,3.78612 17.94726,3.97461 17.33391,0.54989 26.05469,-8.50984 26.05469,-19.9043 -0.12186,-9.01454 -4.91678,-14.89843 -16.3457,-18.90429 -7.37366,-2.630795 -11.6543,-2.989576 -11.6543,-7.013676 0,-3.127798 4.52446,-6.152344 9.07422,-6.152344 5.16106,0 12.22003,2.496107 14.92578,4 v -12 c -3.68532,-1.876815 -8.53461,-4 -15.54102,-4 z"
     id="path8"
     inkscape:connector-curvature="0" />
  <g
     style="fill:#219fd1"
     id="g20"
     transform="scale(4)">
    <path
       inkscape:connector-curvature="0"
       d="m 11,14.082 c 0,0 3.0348,-0.08214 5.5331,-0.08214 3.467,0 7.467,1 7.467,7 0,6 -4,7 -7.4668,6.9795 -0.76719,0.03308 -1.5331,0.04099 -1.5331,0.04099 v 5.98 h -4 z m 3.9998,10.91 c 0.44064,0.04411 0.77266,0.02288 1.4258,0.01481 2.175,-0.026 3.574,-1.949 3.574,-4.007 0,-1.8492 -1.1631,-3.9213 -3.2518,-4 -0.83247,-0.03128 -1.7483,0 -1.7483,0 z"
       id="path14" />
    <g
       transform="matrix(0.16831,0,0,0.16951,-1.2902,-0.69505)"
       id="g18">
      <path
         inkscape:connector-curvature="0"
         d="m 162.15,175.18 c 5.109,3.135 14.876,11.799 23.094,11.799 8.396,0 15.525,-4.236 15.525,-8.849 0,-4.619 -2.8343,-10.288 -13.241,-13.796 -18.439,-6.279 -25.559,-13.795 -25.375,-24.315 0,-16.991 14.238,-29.731 36.328,-29.731 10.407,0 17.61,3.1313 23.084,5.8993 v 17.698 c -4.019,-2.218 -14.504,-5.8993 -22.17,-5.8993 -6.758,0 -13.479,4.463 -13.479,9.076 0,5.9349 6.3605,6.464 17.313,10.344 16.976,5.908 24.096,14.584 24.277,27.879 0,16.805 -12.954,30.168 -38.701,29.357 -8.835,-0.278 -19.901,-2.1752 -26.656,-5.8642 -1.9e-4,-6.7093 -1.4e-4,-16.888 0.001,-23.597 z"
         id="path16" />
    </g>
  </g>
  <path
     inkscape:connector-curvature="0"
     style="opacity:0.2;fill:#ffffff;stroke-width:4"
     d="M 66.132812,56 C 56.139613,56 44,56.328125 44,56.328125 v 0.998047 c 0,0 12.139613,-0.328125 22.132812,-0.328125 13.76951,0 29.632692,3.953662 29.857422,27.501953 C 95.991855,84.330911 96,84.171116 96,84 96,60 80.000812,56 66.132812,56 Z m 62.332028,16 c -14.87187,0 -24.45703,8.637625 -24.45703,20.158203 -0.003,0.16495 0.0112,0.323543 0.0137,0.486328 0.2807,-11.26279 9.79329,-19.646484 24.44336,-19.646484 7.00641,0 11.8557,2.123185 15.54102,4 V 76 c -3.68532,-1.876815 -8.53461,-4 -15.54102,-4 z M 79.978516,84.482422 C 79.764012,92.529267 74.232263,99.92539 65.703125,100.02734 63.090565,100.05962 61.76256,100.14519 60,99.96875 v 0.99805 c 1.76256,0.17645 3.090565,0.0909 5.703125,0.0586 8.7,-0.104 14.294922,-7.795343 14.294922,-16.027343 0,-0.170926 -0.01457,-0.343857 -0.01953,-0.515625 z m 40.066404,6.228516 c -0.0195,0.146326 -0.0391,0.292365 -0.0391,0.439453 0,4.0241 4.28064,4.382876 11.6543,7.013671 11.28387,3.955018 16.09234,9.746488 16.33007,18.568358 0.007,-0.22047 0.0156,-0.43981 0.0156,-0.66211 -0.12186,-9.01454 -4.91678,-14.89844 -16.3457,-18.904294 -7.01259,-2.50197 -11.21925,-2.955881 -11.61524,-6.455078 z M 104.00586,115.99805 V 116 c -5e-5,0.2832 5e-5,0.69579 0,0.99609 3.43958,2.12565 10.01418,8.00196 15.54687,8.00196 5.65252,0 10.45313,-2.87221 10.45313,-6 0,-0.17604 -0.0303,-0.36086 -0.043,-0.54102 C 129.52383,121.40147 124.92781,124 119.5527,124 c -5.53269,0 -12.10729,-5.8763 -15.54687,-8.00195 z"
     id="path901" />
</svg>
