<?xml version="1.0" encoding="UTF-8" standalone="no"?>
<svg
   xmlns:dc="http://purl.org/dc/elements/1.1/"
   xmlns:cc="http://creativecommons.org/ns#"
   xmlns:rdf="http://www.w3.org/1999/02/22-rdf-syntax-ns#"
   xmlns:svg="http://www.w3.org/2000/svg"
   xmlns="http://www.w3.org/2000/svg"
   xmlns:sodipodi="http://sodipodi.sourceforge.net/DTD/sodipodi-0.dtd"
   xmlns:inkscape="http://www.inkscape.org/namespaces/inkscape"
   width="192"
   height="192"
   version="1"
   id="svg27"
   sodipodi:docname="apps_cloudskipper_music_player.svg"
   inkscape:version="0.92.3 (2405546, 2018-03-11)">
  <metadata
     id="metadata33">
    <rdf:RDF>
      <cc:Work
         rdf:about="">
        <dc:format>image/svg+xml</dc:format>
        <dc:type
           rdf:resource="http://purl.org/dc/dcmitype/StillImage" />
      </cc:Work>
    </rdf:RDF>
  </metadata>
  <defs
     id="defs31">
    <filter
       inkscape:collect="always"
       style="color-interpolation-filters:sRGB"
       id="filter961"
       x="-0.046146587"
       width="1.0922932"
       y="-0.049939871"
       height="1.0998797">
      <feGaussianBlur
         inkscape:collect="always"
         stdDeviation="8.6626629"
         id="feGaussianBlur963" />
    </filter>
    <filter
       inkscape:collect="always"
       style="color-interpolation-filters:sRGB"
       id="filter977"
       x="-0.0528"
       width="1.1056"
       y="-0.044"
       height="1.088">
      <feGaussianBlur
         inkscape:collect="always"
         stdDeviation="0.88"
         id="feGaussianBlur979" />
    </filter>
  </defs>
  <sodipodi:namedview
     pagecolor="#ffffff"
     bordercolor="#666666"
     borderopacity="1"
     objecttolerance="10"
     gridtolerance="10"
     guidetolerance="10"
     inkscape:pageopacity="0"
     inkscape:pageshadow="2"
     inkscape:window-width="1920"
     inkscape:window-height="1018"
     id="namedview29"
     showgrid="false"
     inkscape:zoom="1"
     inkscape:cx="96"
     inkscape:cy="96"
     inkscape:window-x="0"
     inkscape:window-y="32"
     inkscape:window-maximized="1"
     inkscape:current-layer="svg27" />
  <g
     style="opacity:0.2;fill:#000000;stroke:none;filter:url(#filter961)"
     transform="matrix(0.258088,-0.245164,0.258088,0.245164,-8.4324,114.53413)"
     id="g871">
    <g
       style="fill:#000000;stroke:none"
       id="g869">
      <path
         style="fill:#000000;stroke:none"
         transform="matrix(7.7493,7.7493,-8.1578,8.1578,241.76,-209.09)"
         d="m 24,6 c -0.11086,0 -0.21448,0.021735 -0.32227,0.03125 -0.13071,0.011668 -0.26366,0.015254 -0.39062,0.039063 -0.03484,0.00689 -0.06707,0.021409 -0.10156,0.029297 -3.3698,0.72419 -5.3687,5.6569 -5.1641,10.359 -0.0035,0.13758 -0.02149,0.28514 -0.02148,0.41992 l -13.594,8.853 c -0.2578,0.129 -0.3938,0.352 -0.406,0.666 v 4.4805 c 3.226e-4,0.25662 0.11092,0.46569 0.33203,0.62891 0.23357,0.15188 0.48564,0.19292 0.75586,0.12305 l 12.912,-4.007 2,9.377 -5.131,2.277 c -0.17202,0.1634 -0.25788,0.35038 -0.25781,0.56055 l 0.389,3.162 9,-1 9.041,1 0.38867,-3.1621 c 6.4e-5,-0.21017 -0.0858,-0.39715 -0.25781,-0.56055 l -5.172,-2.277 2.041,-9.377 12.914,4.0078 c 0.27022,0.06987 0.52229,0.02883 0.75586,-0.12305 0.22112,-0.16322 0.32976,-0.37228 0.33008,-0.62891 v -4.4805 c -0.01219,-0.31485 -0.14628,-0.53773 -0.4043,-0.66602 l -13.596,-8.853 c 6e-6,-0.13478 -0.01802,-0.28234 -0.02148,-0.41992 0.204,-4.703 -1.795,-9.6352 -5.165,-10.359 -0.034,-0.0083 -0.066,-0.0228 -0.101,-0.0297 -0.127,-0.0238 -0.26,-0.0274 -0.391,-0.0391 -0.108,-0.0095 -0.211,-0.0312 -0.322,-0.0312 -0.007,0 -0.014,0.0019 -0.021,0.002 -0.007,-1e-4 -0.013,-0.002 -0.02,-0.002 z"
         id="path867"
         inkscape:connector-curvature="0" />
    </g>
  </g>
  <g
     id="g6"
     transform="matrix(0.258088,-0.245164,0.258088,0.245164,-8.4324,110.532)"
     style="fill:#d04040">
    <g
       id="g4"
       style="fill:#d04040">
      <path
         inkscape:connector-curvature="0"
         id="path2"
         d="m 24,6 c -0.11086,0 -0.21448,0.021735 -0.32227,0.03125 -0.13071,0.011668 -0.26366,0.015254 -0.39062,0.039063 -0.03484,0.00689 -0.06707,0.021409 -0.10156,0.029297 -3.3698,0.72419 -5.3687,5.6569 -5.1641,10.359 -0.0035,0.13758 -0.02149,0.28514 -0.02148,0.41992 l -13.594,8.853 c -0.2578,0.129 -0.3938,0.352 -0.406,0.666 v 4.4805 c 3.226e-4,0.25662 0.11092,0.46569 0.33203,0.62891 0.23357,0.15188 0.48564,0.19292 0.75586,0.12305 l 12.912,-4.007 2,9.377 -5.131,2.277 c -0.17202,0.1634 -0.25788,0.35038 -0.25781,0.56055 l 0.389,3.162 9,-1 9.041,1 0.38867,-3.1621 c 6.4e-5,-0.21017 -0.0858,-0.39715 -0.25781,-0.56055 l -5.172,-2.277 2.041,-9.377 12.914,4.0078 c 0.27022,0.06987 0.52229,0.02883 0.75586,-0.12305 0.22112,-0.16322 0.32976,-0.37228 0.33008,-0.62891 v -4.4805 c -0.01219,-0.31485 -0.14628,-0.53773 -0.4043,-0.66602 l -13.596,-8.853 c 6e-6,-0.13478 -0.01802,-0.28234 -0.02148,-0.41992 0.204,-4.703 -1.795,-9.6352 -5.165,-10.359 -0.034,-0.0083 -0.066,-0.0228 -0.101,-0.0297 -0.127,-0.0238 -0.26,-0.0274 -0.391,-0.0391 -0.108,-0.0095 -0.211,-0.0312 -0.322,-0.0312 -0.007,0 -0.014,0.0019 -0.021,0.002 -0.007,-1e-4 -0.013,-0.002 -0.02,-0.002 z"
         transform="matrix(7.7493,7.7493,-8.1578,8.1578,241.76,-209.09)"
         style="fill:#d04040" />
    </g>
  </g>
  <ellipse
     style="fill:#535353;stroke-width:4"
     ry="4"
     rx="8"
     cy="24"
     cx="96"
     id="ellipse12" />
  <rect
     style="fill:#3d3d3d;stroke-width:4;fill-opacity:1"
     id="rect13"
     ry="2"
     rx="2"
     y="24"
     x="64"
     height="4"
     width="64" />
  <path
     inkscape:connector-curvature="0"
     id="path15"
     d="m 116,92 c 0,15.464 -8.9544,28 -20,28 -11.0456,0 -20,-12.536 -20,-28 0,-15.464 8.9544,-20 20,-20 11.0456,0 20,4.536 20,20 z"
     style="opacity:0.2;stroke-width:4;filter:url(#filter977)" />
  <path
     inkscape:connector-curvature="0"
     id="path17"
     d="m 116,88 c 0,15.464 -8.9544,28 -20,28 -11.0456,0 -20,-12.536 -20,-28 0,-15.464 8.9544,-20 20,-20 11.0456,0 20,4.536 20,20 z"
     style="fill:#76c4ff;stroke-width:4" />
  <path
     style="opacity:0.2;fill:#ffffff;stroke-width:4"
     d="M 96 68 C 84.9544 68 76 72.536 76 88 C 76 88.115526 76.009877 88.227086 76.011719 88.341797 C 76.266309 73.41323 85.114626 69 96 69 C 106.88537 69 115.73369 73.41323 115.98828 88.341797 C 115.99012 88.227086 116 88.115526 116 88 C 116 72.536 107.0456 68 96 68 z "
     id="path23" />
</svg>
