<?xml version="1.0" encoding="UTF-8" standalone="no"?>
<svg
   xmlns:dc="http://purl.org/dc/elements/1.1/"
   xmlns:cc="http://creativecommons.org/ns#"
   xmlns:rdf="http://www.w3.org/1999/02/22-rdf-syntax-ns#"
   xmlns:svg="http://www.w3.org/2000/svg"
   xmlns="http://www.w3.org/2000/svg"
   xmlns:sodipodi="http://sodipodi.sourceforge.net/DTD/sodipodi-0.dtd"
   xmlns:inkscape="http://www.inkscape.org/namespaces/inkscape"
   width="192"
   height="192"
   version="1"
   id="svg20"
   sodipodi:docname="apps_encryptr.svg"
   inkscape:version="0.92.3 (2405546, 2018-03-11)">
  <metadata
     id="metadata26">
    <rdf:RDF>
      <cc:Work
         rdf:about="">
        <dc:format>image/svg+xml</dc:format>
        <dc:type
           rdf:resource="http://purl.org/dc/dcmitype/StillImage" />
        <dc:title></dc:title>
      </cc:Work>
    </rdf:RDF>
  </metadata>
  <defs
     id="defs24">
    <filter
       inkscape:collect="always"
       style="color-interpolation-filters:sRGB"
       id="filter871"
       x="-0.048"
       width="1.096"
       y="-0.048"
       height="1.096">
      <feGaussianBlur
         inkscape:collect="always"
         stdDeviation="3.2"
         id="feGaussianBlur873" />
    </filter>
    <filter
       inkscape:collect="always"
       style="color-interpolation-filters:sRGB"
       id="filter906"
       x="-0.060006"
       width="1.120012"
       y="-0.039997334"
       height="1.0799947">
      <feGaussianBlur
         inkscape:collect="always"
         stdDeviation="2.40024"
         id="feGaussianBlur908" />
    </filter>
  </defs>
  <sodipodi:namedview
     pagecolor="#ffffff"
     bordercolor="#666666"
     borderopacity="1"
     objecttolerance="10"
     gridtolerance="10"
     guidetolerance="10"
     inkscape:pageopacity="0"
     inkscape:pageshadow="2"
     inkscape:window-width="1920"
     inkscape:window-height="1018"
     id="namedview22"
     showgrid="false"
     inkscape:zoom="1"
     inkscape:cx="24"
     inkscape:cy="72.979592"
     inkscape:window-x="0"
     inkscape:window-y="32"
     inkscape:window-maximized="1"
     inkscape:current-layer="svg20" />
  <rect
     id="rect853"
     ry="8"
     rx="8"
     y="20"
     x="16"
     height="160"
     width="160"
     style="opacity:0.2;fill:#000000;stroke-width:4;filter:url(#filter871)" />
  <rect
     style="fill:#c41f5b;stroke-width:4"
     width="160"
     height="160"
     x="16"
     y="16"
     rx="8"
     ry="8"
     id="rect2" />
  <path
     style="opacity:0.2;stroke-width:4;filter:url(#filter906)"
     inkscape:connector-curvature="0"
     d="m 48,29.976 v 96 H 96 V 126 L 144,78 H 96 L 144,30 H 96 V 29.97656 H 48 Z M 96,126 H 48 l 48,48 48,-48 z"
     id="path4" />
  <path
     style="opacity:0.2;fill:#ffffff;stroke-width:4"
     d="M 24 16 C 19.568 16 16 19.568 16 24 L 16 25 C 16 20.568 19.568 17 24 17 L 168 17 C 172.432 17 176 20.568 176 25 L 176 24 C 176 19.568 172.432 16 168 16 L 24 16 z "
     id="path6" />
  <path
     style="fill:#ffffff;stroke-width:4"
     inkscape:connector-curvature="0"
     d="M 144,124 H 96 v 48 z"
     id="path10" />
  <path
     style="fill:#ffffff;stroke-width:4"
     inkscape:connector-curvature="0"
     d="M 144,76 H 96 v 48 z"
     id="path12" />
  <path
     style="fill:#ea7aa2;stroke-width:4"
     inkscape:connector-curvature="0"
     d="M 144,28 H 96 v 48 z"
     id="path14" />
  <path
     style="fill:#e0e0e0;stroke-width:4"
     inkscape:connector-curvature="0"
     d="m 48,124 h 48 v 48 z"
     id="path16" />
  <rect
     style="fill:#e0e0e0;stroke-width:4"
     width="48"
     height="96"
     x="48"
     y="28"
     id="rect18" />
</svg>
