<?xml version="1.0" encoding="UTF-8" standalone="no"?>
<svg
   xmlns:dc="http://purl.org/dc/elements/1.1/"
   xmlns:cc="http://creativecommons.org/ns#"
   xmlns:rdf="http://www.w3.org/1999/02/22-rdf-syntax-ns#"
   xmlns:svg="http://www.w3.org/2000/svg"
   xmlns="http://www.w3.org/2000/svg"
   xmlns:sodipodi="http://sodipodi.sourceforge.net/DTD/sodipodi-0.dtd"
   xmlns:inkscape="http://www.inkscape.org/namespaces/inkscape"
   width="192"
   height="192"
   version="1"
   id="svg40"
   sodipodi:docname="apps_onkyo_hf_player.svg"
   inkscape:version="0.92.3 (2405546, 2018-03-11)">
  <metadata
     id="metadata46">
    <rdf:RDF>
      <cc:Work
         rdf:about="">
        <dc:format>image/svg+xml</dc:format>
        <dc:type
           rdf:resource="http://purl.org/dc/dcmitype/StillImage" />
      </cc:Work>
    </rdf:RDF>
  </metadata>
  <defs
     id="defs44">
    <filter
       inkscape:collect="always"
       style="color-interpolation-filters:sRGB"
       id="filter889"
       x="-0.048"
       width="1.096"
       y="-0.048"
       height="1.096">
      <feGaussianBlur
         inkscape:collect="always"
         stdDeviation="3.2"
         id="feGaussianBlur891" />
    </filter>
    <filter
       inkscape:collect="always"
       style="color-interpolation-filters:sRGB"
       id="filter908"
       x="-0.037075182"
       width="1.0741504"
       y="-0.068052925"
       height="1.1361058">
      <feGaussianBlur
         inkscape:collect="always"
         stdDeviation="2.7222595"
         id="feGaussianBlur910" />
    </filter>
    <filter
       inkscape:collect="always"
       style="color-interpolation-filters:sRGB"
       id="filter951"
       x="-0.022"
       width="1.044"
       y="-0.099"
       height="1.198">
      <feGaussianBlur
         inkscape:collect="always"
         stdDeviation="1.32"
         id="feGaussianBlur953" />
    </filter>
  </defs>
  <sodipodi:namedview
     pagecolor="#ffffff"
     bordercolor="#666666"
     borderopacity="1"
     objecttolerance="10"
     gridtolerance="10"
     guidetolerance="10"
     inkscape:pageopacity="0"
     inkscape:pageshadow="2"
     inkscape:window-width="1920"
     inkscape:window-height="1018"
     id="namedview42"
     showgrid="false"
     inkscape:zoom="1"
     inkscape:cx="96"
     inkscape:cy="96"
     inkscape:window-x="0"
     inkscape:window-y="32"
     inkscape:window-maximized="1"
     inkscape:current-layer="svg40" />
  <rect
     style="opacity:0.2;fill:#000000;stroke-width:4;filter:url(#filter889)"
     width="160"
     height="160"
     x="-180"
     y="-176"
     rx="8"
     ry="8"
     transform="matrix(0,-1,-1,0,0,0)"
     id="rect871" />
  <rect
     id="rect2"
     transform="matrix(0,-1,-1,0,0,0)"
     ry="8"
     rx="8"
     y="-176"
     x="-176"
     height="160"
     width="160"
     style="fill:#1f4080;stroke-width:4" />
  <path
     style="opacity:0.1;fill:#ffffff;stroke-width:4"
     d="M 24 16 C 19.568 16 16 19.568 16 24 L 16 25 C 16 20.568 19.568 17 24 17 L 168 17 C 172.432 17 176 20.568 176 25 L 176 24 C 176 19.568 172.432 16 168 16 L 24 16 z "
     id="path4" />
  <path
     inkscape:connector-curvature="0"
     id="path8"
     d="m 15.960938,51.9992 a 8.0008,8.0008 0 1 0 0.07812,16 c 30.914538,-0.14732 44.95657,3.901804 52.937502,9.507812 7.980928,5.606012 11.782896,14.435316 20.429684,27.023438 6.861148,10.37137 11.489126,21.70974 23.679696,30.32813 12.2331,8.64845 30.41045,13.14062 62.91406,13.14062 a 8.0008,8.0008 0 1 0 0,-16 c -31.00879,0 -45.46526,-4.4091 -53.67188,-10.21094 -8.20661,-5.80184 -11.83615,-14.4129 -19.66406,-26.210936 a 8.0008,8.0008 0 0 0 -0.0703,-0.10936 C 94.886556,84.247708 90.297312,72.93048 78.171876,64.413264 66.04644,55.896044 48.266952,51.845244 15.960938,51.9992 Z"
     style="opacity:0.2;stroke-width:4;filter:url(#filter908)" />
  <path
     inkscape:connector-curvature="0"
     id="path10"
     d="m 15.960938,48 a 8.0008,8.0008 0 1 0 0.07812,16 c 30.914538,-0.14732 44.956566,3.901804 52.937498,9.507812 7.980928,5.606012 11.782896,14.435316 20.429684,27.023438 6.861148,10.37137 11.48912,21.70974 23.67969,30.32813 C 125.31904,139.50783 143.49639,144 176,144 a 8.0008,8.0008 0 1 0 0,-16 c -31.00879,0 -45.46527,-4.4091 -53.67188,-10.21094 -8.20661,-5.80184 -11.83616,-14.4129 -19.66406,-26.210936 a 8.0008,8.0008 0 0 0 -0.0703,-0.10936 C 94.886552,80.248508 90.297308,68.93128 78.171872,60.414064 66.046436,51.896844 48.266948,47.846044 15.960938,48 Z"
     style="fill:#00bee1;stroke-width:4;fill-opacity:1" />
  <path
     style="opacity:0.2;fill:#ffffff;stroke-width:4"
     d="M 15.960938 48 A 8.0008 8.0008 0 0 0 7.9238281 56.451172 A 8.0008 8.0008 0 0 1 15.960938 49 C 48.266952 48.846044 66.046439 52.896842 78.171875 61.414062 C 90.297311 69.931278 94.88655 81.248478 102.59375 92.46875 A 8.0008 8.0008 0 0 1 102.66406 92.578125 C 110.49197 104.37616 114.12152 112.98722 122.32812 118.78906 C 130.53474 124.5909 144.99121 129 176 129 A 8.0008 8.0008 0 0 1 184.08398 136.50781 A 8.0008 8.0008 0 0 0 176 128 C 144.99121 128 130.53474 123.5909 122.32812 117.78906 C 114.12152 111.98722 110.49197 103.37616 102.66406 91.578125 A 8.0008 8.0008 0 0 0 102.59375 91.46875 C 94.88655 80.248478 90.297311 68.931278 78.171875 60.414062 C 66.046439 51.896842 48.266952 47.846044 15.960938 48 z "
     id="path12" />
  <path
     id="path941"
     d="M 38.521484,82 C 34.114828,82 30.589306,83.453414 27.945312,86.359375 25.315308,89.251564 24,93.134362 24,98.009766 c 0,4.875404 1.315308,8.760154 3.945312,11.652344 C 30.589307,112.5543 34.114828,114 38.521484,114 c 4.392667,0 7.903197,-1.4457 10.533204,-4.33789 C 51.684692,106.75615 53,102.87139 53,98.009766 53,93.134362 51.684692,89.251564 49.054688,86.359375 46.424681,83.453414 42.914151,82 38.521484,82 Z M 59,82 v 32 h 4 V 87.230469 L 77.222656,114 H 83 V 82 h -4 v 26.76953 L 64.777344,82 Z m 32,0 v 32 h 4 V 98.589844 L 110.38867,114 H 116 L 99.248047,96.917969 113.72461,83.105469 124,98.761719 V 114 h 5 V 98.761719 L 140,82 h -4.6543 L 126.53125,95.160156 117.6543,82 h -2.77149 -5.48633 L 95,95.525391 V 82 Z m 62.52148,0 c -4.40666,0 -7.93217,1.453414 -10.57617,4.359375 -2.63,2.892189 -3.94531,6.774987 -3.94531,11.650391 0,4.875404 1.31531,8.760154 3.94531,11.652344 2.644,2.89219 6.16951,4.33789 10.57617,4.33789 4.39266,0 7.9032,-1.4457 10.53321,-4.33789 2.63,-2.90596 3.94531,-6.79072 3.94531,-11.652344 0,-4.875404 -1.31531,-8.758202 -3.94531,-11.650391 C 161.42468,83.453414 157.91414,82 153.52148,82 Z M 38.521484,85.388672 c 3.077666,0 5.512094,1.128059 7.302735,3.386719 1.804631,2.258662 2.707031,5.336805 2.707031,9.234375 0,3.883794 -0.9024,6.956184 -2.707031,9.214844 -1.790641,2.25867 -4.225069,3.38672 -7.302735,3.38672 -3.077665,0 -5.527083,-1.12805 -7.345703,-3.38672 -1.80463,-2.25866 -2.707031,-5.33105 -2.707031,-9.214844 0,-3.89757 0.902401,-6.975713 2.707031,-9.234375 1.81862,-2.25866 4.268038,-3.386719 7.345703,-3.386719 z m 114.999996,0 c 3.07766,0 5.51209,1.128059 7.30274,3.386719 1.80463,2.258662 2.70703,5.336805 2.70703,9.234375 0,3.883794 -0.9024,6.956184 -2.70703,9.214844 -1.79065,2.25867 -4.22508,3.38672 -7.30274,3.38672 -3.07767,0 -5.52708,-1.12805 -7.3457,-3.38672 -1.80463,-2.25866 -2.70703,-5.33105 -2.70703,-9.214844 0,-3.89757 0.9024,-6.975713 2.70703,-9.234375 1.81862,-2.25866 4.26803,-3.386719 7.3457,-3.386719 z"
     style="opacity:0.2;fill:#000000;stroke-width:4.0144453;filter:url(#filter951)"
     inkscape:connector-curvature="0" />
  <path
     style="fill:#ffffff;stroke-width:4.0144453"
     d="M 38.521484 80 C 34.114828 80 30.589306 81.453414 27.945312 84.359375 C 25.315308 87.251564 24 91.134362 24 96.009766 C 24 100.88517 25.315308 104.76992 27.945312 107.66211 C 30.589307 110.5543 34.114828 112 38.521484 112 C 42.914151 112 46.424681 110.5543 49.054688 107.66211 C 51.684692 104.75615 53 100.87139 53 96.009766 C 53 91.134362 51.684692 87.251564 49.054688 84.359375 C 46.424681 81.453414 42.914151 80 38.521484 80 z M 59 80 L 59 112 L 63 112 L 63 85.230469 L 77.222656 112 L 83 112 L 83 80 L 79 80 L 79 106.76953 L 64.777344 80 L 59 80 z M 91 80 L 91 112 L 95 112 L 95 96.589844 L 110.38867 112 L 116 112 L 99.248047 94.917969 L 113.72461 81.105469 L 124 96.761719 L 124 112 L 129 112 L 129 96.761719 L 140 80 L 135.3457 80 L 126.53125 93.160156 L 117.6543 80 L 114.88281 80 L 109.39648 80 L 95 93.525391 L 95 80 L 91 80 z M 153.52148 80 C 149.11482 80 145.58931 81.453414 142.94531 84.359375 C 140.31531 87.251564 139 91.134362 139 96.009766 C 139 100.88517 140.31531 104.76992 142.94531 107.66211 C 145.58931 110.5543 149.11482 112 153.52148 112 C 157.91414 112 161.42468 110.5543 164.05469 107.66211 C 166.68469 104.75615 168 100.87139 168 96.009766 C 168 91.134362 166.68469 87.251564 164.05469 84.359375 C 161.42468 81.453414 157.91414 80 153.52148 80 z M 38.521484 83.388672 C 41.59915 83.388672 44.033578 84.516731 45.824219 86.775391 C 47.62885 89.034053 48.53125 92.112196 48.53125 96.009766 C 48.53125 99.89356 47.62885 102.96595 45.824219 105.22461 C 44.033578 107.48328 41.59915 108.61133 38.521484 108.61133 C 35.443819 108.61133 32.994401 107.48328 31.175781 105.22461 C 29.371151 102.96595 28.46875 99.89356 28.46875 96.009766 C 28.46875 92.112196 29.371151 89.034053 31.175781 86.775391 C 32.994401 84.516731 35.443819 83.388672 38.521484 83.388672 z M 153.52148 83.388672 C 156.59914 83.388672 159.03357 84.516731 160.82422 86.775391 C 162.62885 89.034053 163.53125 92.112196 163.53125 96.009766 C 163.53125 99.89356 162.62885 102.96595 160.82422 105.22461 C 159.03357 107.48328 156.59914 108.61133 153.52148 108.61133 C 150.44381 108.61133 147.9944 107.48328 146.17578 105.22461 C 144.37115 102.96595 143.46875 99.89356 143.46875 96.009766 C 143.46875 92.112196 144.37115 89.034053 146.17578 86.775391 C 147.9944 84.516731 150.44381 83.388672 153.52148 83.388672 z "
     id="path26" />
</svg>
