<?xml version="1.0" encoding="UTF-8" standalone="no"?>
<svg
   xmlns:dc="http://purl.org/dc/elements/1.1/"
   xmlns:cc="http://creativecommons.org/ns#"
   xmlns:rdf="http://www.w3.org/1999/02/22-rdf-syntax-ns#"
   xmlns:svg="http://www.w3.org/2000/svg"
   xmlns="http://www.w3.org/2000/svg"
   xmlns:sodipodi="http://sodipodi.sourceforge.net/DTD/sodipodi-0.dtd"
   xmlns:inkscape="http://www.inkscape.org/namespaces/inkscape"
   width="192"
   height="192"
   version="1"
   id="svg16"
   sodipodi:docname="apps_archos_video_player.svg"
   inkscape:version="0.92.3 (2405546, 2018-03-11)">
  <metadata
     id="metadata22">
    <rdf:RDF>
      <cc:Work
         rdf:about="">
        <dc:format>image/svg+xml</dc:format>
        <dc:type
           rdf:resource="http://purl.org/dc/dcmitype/StillImage" />
      </cc:Work>
    </rdf:RDF>
  </metadata>
  <defs
     id="defs20">
    <filter
       inkscape:collect="always"
       style="color-interpolation-filters:sRGB"
       id="filter860"
       x="-0.051428593"
       width="1.1028572"
       y="-0.044999984"
       height="1.09">
      <feGaussianBlur
         inkscape:collect="always"
         stdDeviation="1.1999996"
         id="feGaussianBlur862" />
    </filter>
    <filter
       inkscape:collect="always"
       style="color-interpolation-filters:sRGB"
       id="filter882"
       x="-0.048"
       width="1.096"
       y="-0.048"
       height="1.096">
      <feGaussianBlur
         inkscape:collect="always"
         stdDeviation="3.2"
         id="feGaussianBlur884" />
    </filter>
    <filter
       inkscape:collect="always"
       style="color-interpolation-filters:sRGB"
       id="filter830"
       x="-0.022623698"
       width="1.0452474"
       y="-0.025554602"
       height="1.0511092">
      <feGaussianBlur
         inkscape:collect="always"
         stdDeviation="1.3574219"
         id="feGaussianBlur832" />
    </filter>
  </defs>
  <sodipodi:namedview
     pagecolor="#ffffff"
     bordercolor="#666666"
     borderopacity="1"
     objecttolerance="10"
     gridtolerance="10"
     guidetolerance="10"
     inkscape:pageopacity="0"
     inkscape:pageshadow="2"
     inkscape:window-width="1920"
     inkscape:window-height="1018"
     id="namedview18"
     showgrid="false"
     inkscape:zoom="3.77"
     inkscape:cx="80.943994"
     inkscape:cy="96"
     inkscape:window-x="0"
     inkscape:window-y="32"
     inkscape:window-maximized="1"
     inkscape:current-layer="svg16">
    <inkscape:grid
       type="xygrid"
       id="grid838" />
  </sodipodi:namedview>
  <rect
     style="opacity:0.2;fill:#000000;stroke-width:4;filter:url(#filter882)"
     width="160"
     height="160"
     x="-180"
     y="-176"
     rx="8"
     ry="8"
     transform="matrix(0,-1,-1,0,0,0)"
     id="rect864" />
  <rect
     id="rect2"
     transform="matrix(0,-1,-1,0,0,0)"
     ry="8"
     rx="8"
     y="-176"
     x="-176"
     height="160"
     width="160"
     style="fill:#43acda;stroke-width:4" />
  <path
     style="opacity:0.2;fill:#ffffff;stroke-width:4"
     d="M 24 16 C 19.568 16 16 19.568 16 24 L 16 25 C 16 20.568 19.568 17 24 17 L 168 17 C 172.432 17 176 20.568 176 25 L 176 24 C 176 19.568 172.432 16 168 16 L 24 16 z "
     id="path4" />
  <path
     inkscape:connector-curvature="0"
     id="path8"
     d="M 27.59375,28 C 25.60078,28 24,29.553685 24,31.484375 v 9.031249 C 24,42.446316 25.60078,44 27.59375,44 h 8.8125 C 38.39922,44 40,42.446316 40,40.515624 V 31.484375 C 40,29.553685 38.39922,28 36.40625,28 Z m 128,0 C 153.60078,28 152,29.553685 152,31.484375 v 9.031249 C 152,42.446316 153.60078,44 155.59375,44 h 8.8125 C 166.39922,44 168,42.446316 168,40.515624 V 31.484375 C 168,29.553685 166.39922,28 164.40625,28 Z m -128,24 C 25.60078,52 24,53.553684 24,55.484376 v 9.031248 C 24,66.446316 25.60078,68 27.59375,68 h 8.8125 C 38.39922,68 40,66.446316 40,64.515624 V 55.484376 C 40,53.553684 38.39922,52 36.40625,52 Z m 128,0 C 153.60078,52 152,53.553684 152,55.484376 v 9.031248 C 152,66.446316 153.60078,68 155.59375,68 h 8.8125 C 166.39922,68 168,66.446316 168,64.515624 V 55.484376 C 168,53.553684 166.39922,52 164.40625,52 Z m -128,24 C 25.60078,76 24,77.553684 24,79.484376 v 9.031248 C 24,90.446316 25.60078,92 27.59375,92 h 8.8125 C 38.39922,92 40,90.446316 40,88.515624 V 79.484376 C 40,77.553684 38.39922,76 36.40625,76 Z m 128,0 C 153.60078,76 152,77.553684 152,79.484376 v 9.031248 C 152,90.446316 153.60078,92 155.59375,92 h 8.8125 C 166.39922,92 168,90.446316 168,88.515624 V 79.484376 C 168,77.553684 166.39922,76 164.40625,76 Z m -128,24 C 25.60078,100 24,101.55368 24,103.48438 v 9.03124 C 24,114.44632 25.60078,116 27.59375,116 h 8.8125 C 38.39922,116 40,114.44632 40,112.51562 v -9.03124 C 40,101.55368 38.39922,100 36.40625,100 Z m 128,0 C 153.60078,100 152,101.55368 152,103.48438 v 9.03124 c 0,1.9307 1.60078,3.48438 3.59375,3.48438 h 8.8125 C 166.39922,116 168,114.44632 168,112.51562 v -9.03124 C 168,101.55368 166.39922,100 164.40625,100 Z m -128,24 C 25.60078,124 24,125.55368 24,127.48438 v 9.03124 C 24,138.44632 25.60078,140 27.59375,140 h 8.8125 C 38.39922,140 40,138.44632 40,136.51562 v -9.03124 C 40,125.55368 38.39922,124 36.40625,124 Z m 128,0 C 153.60078,124 152,125.55368 152,127.48438 v 9.03124 c 0,1.9307 1.60078,3.48438 3.59375,3.48438 h 8.8125 C 166.39922,140 168,138.44632 168,136.51562 v -9.03124 C 168,125.55368 166.39922,124 164.40625,124 Z m -128,24 C 25.60078,148 24,149.55368 24,151.48438 v 9.03124 C 24,162.44632 25.60078,164 27.59375,164 h 8.8125 C 38.39922,164 40,162.44632 40,160.51562 v -9.03124 C 40,149.55368 38.39922,148 36.40625,148 Z m 128,0 C 153.60078,148 152,149.55368 152,151.48438 v 9.03124 c 0,1.9307 1.60078,3.48438 3.59375,3.48438 h 8.8125 C 166.39922,164 168,162.44632 168,160.51562 v -9.03124 C 168,149.55368 166.39922,148 164.40625,148 Z"
     style="opacity:0.4;stroke-width:4" />
  <path
     inkscape:connector-curvature="0"
     id="path10"
     d="m 74.4127,68.00048 c -2.178468,-0.04268 -2.553184,2.758816 -2.37312,4.781208 0.016,18.927704 -0.028,37.857972 0.02,56.784832 0.19156,2.26303 2.622476,3.16722 4.004572,1.76379 14.771176,-9.69041 36.256848,-19.31427 51.005988,-29.0465 1.60937,-1.33955 0.99299,-4.45907 -0.80334,-5.107602 -14.77158,-9.652012 -36.202352,-19.356932 -50.985952,-28.976092 -0.27612,-0.1314 -0.5729,-0.19924 -0.869832,-0.19968 z"
     style="opacity:0.2;stroke-width:4;filter:url(#filter860)" />
  <path
     inkscape:connector-curvature="0"
     id="path12"
     d="m 74.4127,64.00048 c -2.178468,-0.04268 -2.553184,2.758816 -2.37312,4.781208 0.016,18.927704 -0.028,37.857972 0.02,56.784832 0.19156,2.26303 2.622476,3.16722 4.004572,1.76379 14.771176,-9.69041 36.256848,-19.31427 51.005988,-29.046498 1.60937,-1.339556 0.99299,-4.459072 -0.80334,-5.107604 -14.77158,-9.652012 -36.202352,-19.356932 -50.985952,-28.976092 -0.27612,-0.1314 -0.5729,-0.19924 -0.869832,-0.19968 z"
     style="fill:#ffffff;stroke-width:4" />
  <path
     style="opacity:0.1;stroke-width:4;fill:#000000;filter:url(#filter830)"
     d="M 27.59375 28 C 25.60078 28 24 29.553685 24 31.484375 L 24 35.484375 C 24 33.553685 25.60078 32 27.59375 32 L 36.40625 32 C 38.39922 32 40 33.553685 40 35.484375 L 40 31.484375 C 40 29.553685 38.39922 28 36.40625 28 L 27.59375 28 z M 155.59375 28 C 153.60078 28 152 29.553685 152 31.484375 L 152 35.484375 C 152 33.553685 153.60078 32 155.59375 32 L 164.40625 32 C 166.39922 32 168 33.553685 168 35.484375 L 168 31.484375 C 168 29.553685 166.39922 28 164.40625 28 L 155.59375 28 z M 27.59375 52 C 25.60078 52 24 53.553683 24 55.484375 L 24 59.484375 C 24 57.553683 25.60078 56 27.59375 56 L 36.40625 56 C 38.39922 56 40 57.553683 40 59.484375 L 40 55.484375 C 40 53.553683 38.39922 52 36.40625 52 L 27.59375 52 z M 155.59375 52 C 153.60078 52 152 53.553683 152 55.484375 L 152 59.484375 C 152 57.553683 153.60078 56 155.59375 56 L 164.40625 56 C 166.39922 56 168 57.553683 168 59.484375 L 168 55.484375 C 168 53.553683 166.39922 52 164.40625 52 L 155.59375 52 z M 27.59375 76 C 25.60078 76 24 77.553683 24 79.484375 L 24 83.484375 C 24 81.553683 25.60078 80 27.59375 80 L 36.40625 80 C 38.39922 80 40 81.553683 40 83.484375 L 40 79.484375 C 40 77.553683 38.39922 76 36.40625 76 L 27.59375 76 z M 155.59375 76 C 153.60078 76 152 77.553683 152 79.484375 L 152 83.484375 C 152 81.553683 153.60078 80 155.59375 80 L 164.40625 80 C 166.39922 80 168 81.553683 168 83.484375 L 168 79.484375 C 168 77.553683 166.39922 76 164.40625 76 L 155.59375 76 z M 27.59375 100 C 25.60078 100 24 101.55367 24 103.48438 L 24 107.48438 C 24 105.55367 25.60078 104 27.59375 104 L 36.40625 104 C 38.39922 104 40 105.55367 40 107.48438 L 40 103.48438 C 40 101.55367 38.39922 100 36.40625 100 L 27.59375 100 z M 155.59375 100 C 153.60078 100 152 101.55367 152 103.48438 L 152 107.48438 C 152 105.55367 153.60078 104 155.59375 104 L 164.40625 104 C 166.39922 104 168 105.55367 168 107.48438 L 168 103.48438 C 168 101.55367 166.39922 100 164.40625 100 L 155.59375 100 z M 27.59375 124 C 25.60078 124 24 125.55367 24 127.48438 L 24 131.48438 C 24 129.55368 25.60078 128 27.59375 128 L 36.40625 128 C 38.39922 128 40 129.55367 40 131.48438 L 40 127.48438 C 40 125.55367 38.39922 124 36.40625 124 L 27.59375 124 z M 155.59375 124 C 153.60078 124 152 125.55367 152 127.48438 L 152 131.48438 C 152 129.55368 153.60078 128 155.59375 128 L 164.40625 128 C 166.39922 128 168 129.55367 168 131.48438 L 168 127.48438 C 168 125.55367 166.39922 124 164.40625 124 L 155.59375 124 z M 27.59375 148 C 25.60078 148 24 149.55368 24 151.48438 L 24 155.48438 C 24 153.55368 25.60078 152 27.59375 152 L 36.40625 152 C 38.39922 152 40 153.55367 40 155.48438 L 40 151.48438 C 40 149.55367 38.39922 148 36.40625 148 L 27.59375 148 z M 155.59375 148 C 153.60078 148 152 149.55368 152 151.48438 L 152 155.48438 C 152 153.55368 153.60078 152 155.59375 152 L 164.40625 152 C 166.39922 152 168 153.55367 168 155.48438 L 168 151.48438 C 168 149.55367 166.39922 148 164.40625 148 L 155.59375 148 z "
     id="path886" />
  <path
     style="opacity:0.2;stroke-width:4;fill:#ffffff"
     d="M 24 40.515625 L 24 41.515625 C 24 43.446317 25.60078 45 27.59375 45 L 36.40625 45 C 38.39922 45 40 43.446317 40 41.515625 L 40 40.515625 C 40 42.446317 38.39922 44 36.40625 44 L 27.59375 44 C 25.60078 44 24 42.446317 24 40.515625 z M 152 40.515625 L 152 41.515625 C 152 43.446317 153.60078 45 155.59375 45 L 164.40625 45 C 166.39922 45 168 43.446317 168 41.515625 L 168 40.515625 C 168 42.446317 166.39922 44 164.40625 44 L 155.59375 44 C 153.60078 44 152 42.446317 152 40.515625 z M 24 64.515625 L 24 65.515625 C 24 67.446317 25.60078 69 27.59375 69 L 36.40625 69 C 38.39922 69 40 67.446317 40 65.515625 L 40 64.515625 C 40 66.446317 38.39922 68 36.40625 68 L 27.59375 68 C 25.60078 68 24 66.446317 24 64.515625 z M 152 64.515625 L 152 65.515625 C 152 67.446317 153.60078 69 155.59375 69 L 164.40625 69 C 166.39922 69 168 67.446317 168 65.515625 L 168 64.515625 C 168 66.446317 166.39922 68 164.40625 68 L 155.59375 68 C 153.60078 68 152 66.446317 152 64.515625 z M 24 88.515625 L 24 89.515625 C 24 91.446317 25.60078 93 27.59375 93 L 36.40625 93 C 38.39922 93 40 91.446317 40 89.515625 L 40 88.515625 C 40 90.446317 38.39922 92 36.40625 92 L 27.59375 92 C 25.60078 92 24 90.446317 24 88.515625 z M 152 88.515625 L 152 89.515625 C 152 91.446317 153.60078 93 155.59375 93 L 164.40625 93 C 166.39922 93 168 91.446317 168 89.515625 L 168 88.515625 C 168 90.446317 166.39922 92 164.40625 92 L 155.59375 92 C 153.60078 92 152 90.446317 152 88.515625 z M 24 112.51562 L 24 113.51562 C 24 115.44633 25.60078 117 27.59375 117 L 36.40625 117 C 38.39922 117 40 115.44633 40 113.51562 L 40 112.51562 C 40 114.44633 38.39922 116 36.40625 116 L 27.59375 116 C 25.60078 116 24 114.44633 24 112.51562 z M 152 112.51562 L 152 113.51562 C 152 115.44633 153.60078 117 155.59375 117 L 164.40625 117 C 166.39922 117 168 115.44633 168 113.51562 L 168 112.51562 C 168 114.44633 166.39922 116 164.40625 116 L 155.59375 116 C 153.60078 116 152 114.44633 152 112.51562 z M 24 136.51562 L 24 137.51562 C 24 139.44633 25.60078 141 27.59375 141 L 36.40625 141 C 38.39922 141 40 139.44632 40 137.51562 L 40 136.51562 C 40 138.44632 38.39922 140 36.40625 140 L 27.59375 140 C 25.60078 140 24 138.44632 24 136.51562 z M 152 136.51562 L 152 137.51562 C 152 139.44633 153.60078 141 155.59375 141 L 164.40625 141 C 166.39922 141 168 139.44632 168 137.51562 L 168 136.51562 C 168 138.44632 166.39922 140 164.40625 140 L 155.59375 140 C 153.60078 140 152 138.44633 152 136.51562 z M 24 160.51562 L 24 161.51562 C 24 163.44633 25.60078 165 27.59375 165 L 36.40625 165 C 38.39922 165 40 163.44632 40 161.51562 L 40 160.51562 C 40 162.44632 38.39922 164 36.40625 164 L 27.59375 164 C 25.60078 164 24 162.44633 24 160.51562 z M 152 160.51562 L 152 161.51562 C 152 163.44633 153.60078 165 155.59375 165 L 164.40625 165 C 166.39922 165 168 163.44632 168 161.51562 L 168 160.51562 C 168 162.44632 166.39922 164 164.40625 164 L 155.59375 164 C 153.60078 164 152 162.44633 152 160.51562 z "
     id="path919" />
</svg>
