<?xml version="1.0" encoding="UTF-8" standalone="no"?>
<svg
   xmlns:dc="http://purl.org/dc/elements/1.1/"
   xmlns:cc="http://creativecommons.org/ns#"
   xmlns:rdf="http://www.w3.org/1999/02/22-rdf-syntax-ns#"
   xmlns:svg="http://www.w3.org/2000/svg"
   xmlns="http://www.w3.org/2000/svg"
   xmlns:sodipodi="http://sodipodi.sourceforge.net/DTD/sodipodi-0.dtd"
   xmlns:inkscape="http://www.inkscape.org/namespaces/inkscape"
   width="192"
   height="192"
   version="1"
   id="svg30"
   sodipodi:docname="apps_bsplayer.svg"
   inkscape:version="0.92.3 (2405546, 2018-03-11)">
  <metadata
     id="metadata36">
    <rdf:RDF>
      <cc:Work
         rdf:about="">
        <dc:format>image/svg+xml</dc:format>
        <dc:type
           rdf:resource="http://purl.org/dc/dcmitype/StillImage" />
      </cc:Work>
    </rdf:RDF>
  </metadata>
  <defs
     id="defs34">
    <filter
       inkscape:collect="always"
       style="color-interpolation-filters:sRGB"
       id="filter870"
       x="-0.0288"
       width="1.0576"
       y="-0.144"
       height="1.288">
      <feGaussianBlur
         inkscape:collect="always"
         stdDeviation="1.92"
         id="feGaussianBlur872" />
    </filter>
    <filter
       inkscape:collect="always"
       style="color-interpolation-filters:sRGB"
       id="filter894"
       x="-0.048"
       width="1.096"
       y="-0.048"
       height="1.096">
      <feGaussianBlur
         inkscape:collect="always"
         stdDeviation="0.32"
         id="feGaussianBlur896" />
    </filter>
    <filter
       inkscape:collect="always"
       style="color-interpolation-filters:sRGB"
       id="filter910"
       x="-0.036003584"
       width="1.0720072"
       y="-0.071985669"
       height="1.1439713">
      <feGaussianBlur
         inkscape:collect="always"
         stdDeviation="1.9202252"
         id="feGaussianBlur912" />
    </filter>
  </defs>
  <sodipodi:namedview
     pagecolor="#ffffff"
     bordercolor="#666666"
     borderopacity="1"
     objecttolerance="10"
     gridtolerance="10"
     guidetolerance="10"
     inkscape:pageopacity="0"
     inkscape:pageshadow="2"
     inkscape:window-width="1920"
     inkscape:window-height="1018"
     id="namedview32"
     showgrid="false"
     inkscape:zoom="2.16"
     inkscape:cx="-88"
     inkscape:cy="96"
     inkscape:window-x="0"
     inkscape:window-y="32"
     inkscape:window-maximized="1"
     inkscape:current-layer="svg30" />
  <path
     style="opacity:0.2;fill:#000000;stroke-width:4;filter:url(#filter870)"
     d="m 16,140 v 20 c 0,6.648 5.352,12 12,12 h 136 c 6.648,0 12,-5.352 12,-12 v -20 z"
     id="path856"
     inkscape:connector-curvature="0" />
  <path
     inkscape:connector-curvature="0"
     id="path2"
     d="M 28,24 C 21.352,24 16,29.352 16,36 V 136 H 176 V 36 c 0,-6.648 -5.352,-12 -12,-12 z"
     style="fill:#289cc1;stroke-width:4" />
  <path
     style="opacity:0.2;fill:#ffffff;stroke-width:4"
     d="M 28 24 C 21.352 24 16 29.352 16 36 L 16 37 C 16 30.352 21.352 25 28 25 L 164 25 C 170.648 25 176 30.352 176 37 L 176 36 C 176 29.352 170.648 24 164 24 L 28 24 z "
     id="path4" />
  <path
     inkscape:connector-curvature="0"
     id="path6"
     d="m 16,136 v 20 c 0,6.648 5.352,12 12,12 h 136 c 6.648,0 12,-5.352 12,-12 v -20 z"
     style="fill:#e4e4e4;stroke-width:4;fill-opacity:1" />
  <rect
     style="fill:#999999;stroke-width:4"
     id="rect8"
     ry="3.7119999"
     rx="4"
     y="148"
     x="112"
     height="8"
     width="52" />
  <rect
     id="rect10"
     ry="4"
     rx="4"
     y="148"
     x="28"
     height="8"
     width="84"
     style="fill:#289cc1;stroke-width:4" />
  <circle
     style="opacity:0.1;stroke-width:4;filter:url(#filter894)"
     id="circle12"
     r="8"
     cy="154"
     cx="112" />
  <circle
     id="circle14"
     r="8"
     cy="152"
     cx="112"
     style="fill:#58595b;stroke-width:4" />
  <rect
     id="rect16"
     y="135.99997"
     x="16"
     height="1"
     width="160"
     style="opacity:0.2;fill:#ffffff;stroke-width:2" />
  <path
     inkscape:connector-curvature="0"
     id="path20"
     d="m 51.046876,51.982076 21.125,23.359376 -0.34376,-0.35936 c 1.710712,1.667944 4.124952,4.628576 4.093752,9 0.0312,4.37144 -2.383056,7.332064 -4.093752,9 l 0.34376,-0.35936 -21.132812,23.359378 c 3.612124,0.004 33.400916,0.0384 50.820316,0 6.68036,-0.0388 8.94132,-5.46073 9.89062,-9.41407 0.24268,-1.11741 0.27708,-2.55102 0.22656,-9.132808 -0.0586,-7.633764 -0.0616,-7.82842 -0.47656,-8.929688 -1.19154,-3.161976 -3.87182,-5.096572 -8.13282,-5.875 -0.37756,-0.069 -0.6875,-0.20504 -0.6875,-0.29688 0,-0.0918 1.80127,-0.35228 2.53125,-0.58594 2.9058,-0.93002 4.65552,-2.2409 5.6875,-4.257812 0.89963,-1.75842 1.03467,-3.023932 1.03907,-9.78906 0.003,-5.449084 -0.0384,-6.31426 -0.35156,-7.617188 -0.77655,-3.229816 -3.41189,-7.918044 -8.78125,-8.101564 H 77.429688 v 0.0156 c 0,1.12e-4 -21.485528,-0.0132 -26.382812,-0.0156 z m -10.77344,0.0156 c -4.753406,-0.340144 -6.656214,4.2626 -8.054686,7.406276 -0.14498,0.7333 -0.219234,12.669184 -0.21875,24.578124 -4.84e-4,11.90894 0.07377,23.844824 0.218748,24.578124 1.398472,3.14368 3.301278,7.74642 8.054684,7.40625 L 66.242184,87.255512 C 67.345864,86.179424 68.044232,85.129972 68,83.982076 68.044232,82.83418 67.345868,81.784728 66.242188,80.70864 Z m 103.132814,0 c -13.00729,0.0662 -13.31083,0.07096 -14.78906,0.492188 -4.48279,1.277452 -7.27798,4.011664 -8.28907,8.101564 -0.43787,1.771256 -0.43763,17.677476 0,19.429688 0.69561,2.7851 2.63177,5.2936 5.10938,6.625 0.72056,0.3872 3.51974,1.40544 6.29688,2.28906 10.50966,3.343936 11.37493,3.679504 12.14062,4.742188 0.36432,0.505616 0.39844,0.804536 0.39844,3.734376 0,3.68225 -0.091,5.13154 -1.71094,5.97656 l -0.92968,0.48438 -21.60938,0.19532 -0.0469,5.125 c -0.0276,3.47941 -0.0128,6.4388 0.0392,6.57812 0.0764,0.20588 4.1168,0.238 15.25,0.18748 13.49719,-0.0612 13.74264,-0.0675 15.22656,-0.49218 2.50456,-0.71674 4.48463,-1.83563 6.03125,-3.42188 1.49536,-1.53365 2.14436,-2.60909 2.89844,-4.79688 l 0.5,-1.46093 0.0625,-8.843754 c 0.0491,-7.507948 0.006,-9.075764 -0.25,-10.382812 -0.67638,-3.44642 -1.9843,-5.184636 -5.07031,-6.75 -2.12741,-1.078908 -3.85206,-1.685776 -8.97672,-3.132776 -9.90802,-2.797644 -9.76202,-3.074628 -9.6875,-7.085936 0.0476,-2.56484 -0.25884,-4.900688 1.10938,-5.609376 H 156 c 0.073,-4.005156 0.12388,-11.74712 0,-11.875 -0.098,-0.1012 -4.90662,-0.14856 -12.59375,-0.10936 z m -49.429686,12.02344 c 3.176912,0.12756 4.472772,0.446268 5.35156,1.3125 0.557648,0.549676 0.580372,0.699092 0.656252,3.945312 0.05444,2.330284 -0.0196,3.597564 -0.22656,4.117188 -0.425152,1.067516 -1.717992,1.961632 -3.328124,2.296872 -1.33016,0.277 -7.917704,0.400916 -8.265624,0.15624 C 88.075896,75.7873 88,73.135804 88,69.950828 v -5.796876 l 1.617188,-0.1172 c 0.888604,-0.06708 2.849752,-0.07632 4.359376,-0.0156 z m 0,28 c 3.176912,0.12756 4.472772,0.446268 5.35156,1.3125 0.557648,0.549676 0.580372,0.699092 0.656252,3.945312 0.05444,2.330284 -0.0196,3.597562 -0.22656,4.117192 -0.425152,1.06751 -1.717992,1.96163 -3.328124,2.29687 -1.33016,0.277 -7.917704,0.40091 -8.265624,0.15624 C 88.075896,103.7873 88,101.1358 88,97.950828 v -5.796876 l 1.617188,-0.1172 c 0.888604,-0.06708 2.849752,-0.07632 4.359376,-0.0156 z"
     style="opacity:0.2;stroke-width:4;filter:url(#filter910)" />
  <path
     inkscape:connector-curvature="0"
     id="path22"
     d="m 51.007817,47.99999 21.139716,23.352811 -0.343999,-0.359259 c 1.711903,1.667475 4.127825,4.627275 4.096603,8.997471 0.03122,4.370211 -2.384716,7.330003 -4.096603,8.997471 L 72.147533,88.629225 51,111.98201 c 3.61464,0.004 33.424183,0.0384 50.85572,0 6.68502,-0.0388 8.94755,-5.45919 9.89751,-9.41142 0.24285,-1.11711 0.27727,-2.55031 0.22672,-9.13025 -0.0586,-7.631618 -0.0616,-7.82622 -0.47689,-8.927178 -1.19237,-3.161088 -3.87452,-5.09514 -8.13849,-5.873349 -0.37782,-0.06898 -0.68798,-0.204983 -0.68798,-0.296797 0,-0.09177 1.80253,-0.352181 2.53302,-0.585775 2.90782,-0.929759 4.65876,-2.24027 5.69146,-4.256616 0.90025,-1.757925 1.03539,-3.023082 1.03979,-9.786309 0.003,-5.447552 -0.0384,-6.312485 -0.3518,-7.615047 -0.77709,-3.228892 -3.41427,-7.915811 -8.78737,-8.099279 H 77.409008 v 0.01559 c 0,1.12e-4 -21.500495,-0.0132 -26.401191,-0.01559 z M 93.96741,60.035671 c 3.179125,0.127524 4.475888,0.446142 5.355288,1.312131 0.558037,0.549521 0.580777,0.698895 0.656708,3.944203 0.0545,2.329629 -0.01961,3.596553 -0.226716,4.116031 -0.425449,1.067216 -1.719189,1.961081 -3.330443,2.296226 -1.331086,0.276923 -7.923219,0.400816 -8.271382,0.156196 -0.08824,-0.06192 -0.164182,-2.712685 -0.164182,-5.896766 v -5.795247 l 1.618315,-0.117167 c 0.889223,-0.06706 2.851737,-0.07634 4.362412,-0.0156 z m 0,27.992131 c 3.179125,0.127524 4.475888,0.446142 5.355288,1.312131 0.558037,0.549521 0.580777,0.698895 0.656708,3.944203 0.0545,2.329629 -0.01961,3.596553 -0.226716,4.116031 -0.425449,1.067216 -1.719189,1.961081 -3.330443,2.296227 -1.331086,0.276922 -7.923219,0.400816 -8.271382,0.156196 -0.08824,-0.06192 -0.164182,-2.71269 -0.164182,-5.896767 v -5.795247 l 1.618315,-0.117167 c 0.889223,-0.06706 2.851737,-0.07634 4.362412,-0.01559 z"
     style="fill:#ffffff;stroke-width:4.00083065" />
  <path
     inkscape:connector-curvature="0"
     id="path24"
     d="M 40.273436,48.015624 C 35.52003,47.675456 33.617222,52.2782 32.21875,55.421876 32.07377,56.155176 31.999516,68.09106 32,80 c -4.84e-4,11.90894 0.07377,23.84482 0.218748,24.57812 1.398472,3.14368 3.301278,7.74642 8.054684,7.40626 L 66.242184,83.273436 C 67.345864,82.197348 68.044232,81.147896 68,80 68.04424,78.852104 67.345868,77.802652 66.242188,76.726564 Z"
     style="fill:#58595b;stroke-width:4" />
  <path
     inkscape:connector-curvature="0"
     id="path26"
     d="m 143.42037,48.013706 c -12.9945,0.06621 -13.29774,0.07097 -14.77451,0.492221 -4.47838,1.277538 -7.27082,4.011933 -8.28092,8.102108 -0.43744,1.771375 -0.4372,17.678662 0,19.430991 0.69493,2.785287 2.62918,5.293956 5.10435,6.625445 0.71986,0.387226 3.51628,1.405534 6.29069,2.289213 10.49932,3.344161 11.36374,3.679751 12.12868,4.742507 0.36396,0.50565 0.39804,0.80459 0.39804,3.734626 0,3.682499 -0.0909,5.131888 -1.70925,5.976961 l -0.92877,0.484409 -21.58812,0.195323 -0.0469,5.12534 c -0.0276,3.47966 -0.0128,6.43925 0.0392,6.57858 0.0763,0.20589 4.11275,0.23805 15.235,0.18749 13.48391,-0.0612 13.72912,-0.0675 15.21158,-0.49222 2.50209,-0.71678 4.48022,-1.83575 6.02531,-3.4221 1.49389,-1.53376 2.14225,-2.60927 2.89559,-4.79721 l 0.49951,-1.46102 0.0624,-8.844348 c 0.049,-7.508452 0.006,-9.076373 -0.24975,-10.383509 -0.67572,-3.446651 -1.98235,-5.184984 -5.06533,-6.750453 -2.12531,-1.079004 -3.84827,-1.685913 -8.96789,-3.13301 -9.89823,-2.797832 -9.75237,-3.074834 -9.67793,-7.086411 0.0476,-2.565012 -0.25859,-4.901017 1.10829,-5.609753 h 18.87204 c 0.0729,-4.005424 0.12376,-11.747908 0,-11.875796 -0.0979,-0.101207 -4.90179,-0.14857 -12.58136,-0.109368 z"
     style="fill:#ffffff;stroke-width:3.99816632" />
</svg>
