<?xml version="1.0" encoding="UTF-8" standalone="no"?>
<svg
   xmlns:dc="http://purl.org/dc/elements/1.1/"
   xmlns:cc="http://creativecommons.org/ns#"
   xmlns:rdf="http://www.w3.org/1999/02/22-rdf-syntax-ns#"
   xmlns:svg="http://www.w3.org/2000/svg"
   xmlns="http://www.w3.org/2000/svg"
   xmlns:sodipodi="http://sodipodi.sourceforge.net/DTD/sodipodi-0.dtd"
   xmlns:inkscape="http://www.inkscape.org/namespaces/inkscape"
   width="192"
   height="192"
   version="1.1"
   id="svg86"
   sodipodi:docname="apps_pixelknot.svg"
   inkscape:version="0.92.3 (2405546, 2018-03-11)">
  <metadata
     id="metadata92">
    <rdf:RDF>
      <cc:Work
         rdf:about="">
        <dc:format>image/svg+xml</dc:format>
        <dc:type
           rdf:resource="http://purl.org/dc/dcmitype/StillImage" />
      </cc:Work>
    </rdf:RDF>
  </metadata>
  <defs
     id="defs90">
    <filter
       inkscape:collect="always"
       style="color-interpolation-filters:sRGB"
       id="filter996"
       x="-0.050823529"
       width="1.1016471"
       y="-0.045473684"
       height="1.0909474">
      <feGaussianBlur
         inkscape:collect="always"
         stdDeviation="2.88"
         id="feGaussianBlur998" />
    </filter>
    <filter
       inkscape:collect="always"
       style="color-interpolation-filters:sRGB"
       id="filter1020"
       x="-0.063529412"
       width="1.1270588"
       y="-0.056842105"
       height="1.1136842">
      <feGaussianBlur
         inkscape:collect="always"
         stdDeviation="3.6"
         id="feGaussianBlur1022" />
    </filter>
  </defs>
  <sodipodi:namedview
     pagecolor="#ffffff"
     bordercolor="#666666"
     borderopacity="1"
     objecttolerance="10"
     gridtolerance="10"
     guidetolerance="10"
     inkscape:pageopacity="0"
     inkscape:pageshadow="2"
     inkscape:window-width="1920"
     inkscape:window-height="1018"
     id="namedview88"
     showgrid="false"
     inkscape:zoom="1"
     inkscape:cx="96"
     inkscape:cy="96"
     inkscape:window-x="0"
     inkscape:window-y="32"
     inkscape:window-maximized="1"
     inkscape:current-layer="svg86" />
  <path
     style="opacity:0.2;stroke-width:4;filter:url(#filter996)"
     d="m 88.26286,184 c 23.27238,-4e-4 45.27085,-10.6472 59.73714,-28.9108 -10.90878,8.432 -26.08179,14.1144 -41.91008,13.234 -40.476848,-2.2504 -60.332792,-23.1976 -60.38782,-58.7172 0,-25.54 19.130544,-47.1252 44.567672,-45.4356 55.668128,3.6972 43.575078,58.41 44.137958,57.9588 8.25422,-9.6144 12.02942,-22.2936 11.64023,-35.096 C 145.21984,59.794 125.3413,32 88.262856,32 46.144044,32 12,65.3984 12,107.5956 12,149.7924 46.144048,184 88.26286,184 Z"
     id="path2"
     inkscape:connector-curvature="0" />
  <path
     style="fill:#3f3f3f;stroke-width:4"
     d="m 88.26286,180 c 23.27238,-4e-4 45.27085,-10.6472 59.73714,-28.9108 -10.90878,8.432 -26.08179,14.1144 -41.91008,13.234 -40.476848,-2.2504 -60.332792,-23.1976 -60.38782,-58.7172 0,-25.54 19.130544,-47.1252 44.567672,-45.4356 55.668128,3.6972 43.575078,58.41 44.137958,57.9588 8.25422,-9.6144 12.02942,-22.2936 11.64023,-35.096 C 145.21984,55.794 125.3413,28 88.262856,28 46.144044,28 12,61.3984 12,103.5956 12,145.7924 46.144048,180 88.26286,180 Z"
     id="path4"
     inkscape:connector-curvature="0" />
  <path
     style="opacity:0.2;stroke-width:4;filter:url(#filter1020)"
     d="M 99.737144,20 C 76.46476,20.0004 54.466292,30.6472 40,48.9108 50.908784,40.4788 66.081788,34.7964 81.910076,35.6768 122.38693,37.9272 142.24288,58.8744 142.2979,94.394 c 0,25.54 -19.13054,47.1252 -44.567672,45.4356 C 42.0621,136.1324 54.155148,81.4196 53.592268,81.8708 45.338052,91.4852 41.562852,104.1644 41.95204,116.9668 42.780164,144.206 62.658696,172 99.737144,172 141.85596,172 176,138.6016 176,96.4044 176,54.2076 141.85596,20 99.737144,20 Z"
     id="path6"
     inkscape:connector-curvature="0" />
  <g
     id="g78"
     transform="matrix(4,0,0,4,0,-4017.4488)">
    <path
       style="fill:#117020"
       transform="translate(0,1004.3622)"
       d="M 25,4.0039062 V 7 h 6 V 5.0039062 c -1.887252,-0.634866 -3.900984,-0.9927371 -6,-1 z"
       id="path8"
       inkscape:connector-curvature="0" />
    <path
       style="fill:#199f2e"
       transform="translate(0,1004.3622)"
       d="M 32.208984,31 C 31.832272,31.378466 31.427829,31.725836 31,32.041016 V 37 h 6 v -6 z"
       id="path10"
       inkscape:connector-curvature="0" />
    <path
       style="fill:#105788"
       transform="translate(0,1004.3622)"
       d="m 25,7 v 1.5761719 c 2.415255,0.5887737 4.417915,1.5399041 6,2.8417971 V 7 Z"
       id="path12"
       inkscape:connector-curvature="0" />
    <path
       style="fill:#117020"
       transform="translate(0,1004.3622)"
       d="M 25,4.0039062 V 7 h 6 V 5.0039062 c -1.887252,-0.634866 -3.900984,-0.9927371 -6,-1 z"
       id="path14"
       inkscape:connector-curvature="0" />
    <path
       style="fill:#199f83"
       transform="translate(0,1004.3622)"
       d="m 25,37 v 4.996094 c 2.099153,-0.0071 4.112642,-0.356565 6,-0.978516 V 37 Z"
       id="path16"
       inkscape:connector-curvature="0" />
    <path
       style="fill:#199f2e"
       transform="translate(0,1004.3622)"
       d="m 37,25 v 6 h 5.261719 C 42.538667,30.399526 42.786436,29.783883 43,29.150391 V 25 Z"
       id="path18"
       inkscape:connector-curvature="0" />
    <rect
       style="fill:#117020"
       width="6"
       height="6"
       x="37"
       y="1023.36"
       id="rect20" />
    <path
       style="fill:#57d74c"
       transform="translate(0,1004.3622)"
       d="m 37,31 v 6 h 0.865234 c 1.838934,-1.678745 3.340097,-3.70956 4.396485,-6 z"
       id="path22"
       inkscape:connector-curvature="0" />
    <path
       style="fill:#57d74c"
       transform="translate(0,1004.3622)"
       d="m 37,13 v 6 h 6 V 17.03125 C 42.522057,15.603481 41.878838,14.254832 41.095703,13 Z"
       id="path24"
       inkscape:connector-curvature="0" />
    <path
       style="fill:#105788"
       transform="translate(0,1004.3622)"
       d="m 31,37 v 4.017578 c 2.205763,-0.726876 4.237437,-1.827989 6,-3.25 V 37 Z"
       id="path26"
       inkscape:connector-curvature="0" />
    <path
       style="fill:#105788"
       transform="translate(0,1004.3622)"
       d="M 37,8.3144531 V 13 h 4.095703 C 39.987618,11.224496 38.610991,9.6354276 37,8.3144531 Z"
       id="path28"
       inkscape:connector-curvature="0" />
    <path
       style="fill:#199f83"
       transform="translate(0,1004.3622)"
       d="m 31,7 v 4.417969 C 31.585222,11.899546 32.115772,12.425368 32.587891,13 H 37 V 8.3144531 C 36.41856,7.8376861 35.799785,7.4063089 35.164062,7 Z"
       id="path30"
       inkscape:connector-curvature="0" />
    <path
       style="fill:#57d74c"
       transform="translate(0,1004.3622)"
       d="m 19,37 v 3.882812 C 20.72665,41.589292 22.70211,42 24.933594,42 c 0.02243,0 0.04399,-0.0038 0.06641,-0.0039 V 37 Z"
       id="path32"
       inkscape:connector-curvature="0" />
    <path
       style="fill:#117020"
       transform="translate(0,1004.3622)"
       d="m 31,32.041016 c -1.678049,1.236211 -3.727876,1.948966 -6,1.921875 V 37 h 6 z"
       id="path34"
       inkscape:connector-curvature="0" />
    <path
       style="fill:#105788"
       transform="translate(0,1004.3622)"
       d="M 19,32.654297 V 37 h 6 v -3.037109 c -0.189469,-0.0023 -0.375914,0.0069 -0.568359,-0.0059 C 22.218624,33.810054 20.437156,33.339526 19,32.654297 Z"
       id="path36"
       inkscape:connector-curvature="0" />
    <path
       style="fill:#105788"
       transform="translate(0,1004.3622)"
       d="m 35.341797,25 c -0.4538,2.334532 -1.562037,4.421913 -3.132813,6 H 37 v -6 z"
       id="path38"
       inkscape:connector-curvature="0" />
    <path
       style="fill:#199f83"
       transform="translate(0,1004.3622)"
       d="m 13,31 v 5.011719 C 13.23088,36.351026 13.476042,36.680623 13.738281,37 H 19 V 32.654297 C 18.028968,32.191313 17.223595,31.62706 16.544922,31 Z"
       id="path40"
       inkscape:connector-curvature="0" />
    <path
       style="fill:#57d74c"
       transform="translate(0,1004.3622)"
       d="m 13,25 v 6 h 3.544922 C 14.66998,29.267649 13.806889,27.039182 13.447266,25 Z"
       id="path42"
       inkscape:connector-curvature="0" />
    <path
       style="fill:#199f2e"
       transform="translate(0,1004.3622)"
       d="m 10.767578,25 c -0.213605,1.058395 -0.312586,2.147128 -0.279297,3.242188 0.02808,0.923564 0.15139,1.846825 0.353516,2.757812 H 13 v -6 z"
       id="path44"
       inkscape:connector-curvature="0" />
    <path
       style="fill:#199f2e"
       transform="translate(0,1004.3622)"
       d="M 13.738281,37 C 15.085399,38.640636 16.840457,39.999209 19,40.882812 V 37 Z"
       id="path46"
       inkscape:connector-curvature="0" />
    <path
       style="fill:#199f83"
       transform="translate(0,1004.3622)"
       d="M 13,19.984375 C 11.875557,21.459995 11.135227,23.178332 10.767578,25 H 13 Z"
       id="path48"
       inkscape:connector-curvature="0" />
    <path
       style="fill:#199f83"
       transform="translate(0,1004.3622)"
       d="m 43,19 v 6 h 0.904297 C 43.965959,24.376129 44,23.743086 44,23.101562 44,21.692171 43.837952,20.322459 43.548828,19 Z"
       id="path50"
       inkscape:connector-curvature="0" />
    <path
       style="fill:#57d74c"
       transform="translate(0,1004.3622)"
       d="M 13.398438,19.466797 C 13.256101,19.632588 13.131707,19.811534 13,19.984375 V 25 h 0.447266 c -0.529127,-3.000318 0.01263,-5.582466 -0.04883,-5.533203 z"
       id="path52"
       inkscape:connector-curvature="0" />
    <path
       style="fill:#199f83"
       transform="translate(0,1004.3622)"
       d="m 35.246094,19 c 0.208079,1.124985 0.326143,2.318363 0.328125,3.597656 0,0.820512 -0.08127,1.624737 -0.232422,2.402344 H 37 v -6 z"
       id="path54"
       inkscape:connector-curvature="0" />
    <path
       style="fill:#105788"
       transform="translate(0,1004.3622)"
       d="M 10.841797,31 C 11.235175,32.772964 11.960258,34.483686 13,36.011719 V 31 Z"
       id="path56"
       inkscape:connector-curvature="0" />
    <path
       style="fill:#105788"
       transform="translate(0,1004.3622)"
       d="m 37,37 v 0.767578 C 37.300455,37.525175 37.580479,37.259951 37.865234,37 Z"
       id="path58"
       inkscape:connector-curvature="0" />
    <path
       style="fill:#117020"
       transform="translate(0,1004.3622)"
       d="m 43,25 v 4.150391 C 43.446282,27.826588 43.761702,26.442701 43.904297,25 Z"
       id="path60"
       inkscape:connector-curvature="0" />
    <path
       style="fill:#117020"
       transform="translate(0,1004.3622)"
       d="m 32.587891,13 c 1.343963,1.635785 2.223211,3.648211 2.658203,6 H 37 v -6 z"
       id="path62"
       inkscape:connector-curvature="0" />
    <path
       style="fill:#199f2e"
       transform="translate(0,1004.3622)"
       d="M 43,17.03125 V 19 h 0.548828 C 43.402097,18.328848 43.21514,17.673943 43,17.03125 Z"
       id="path64"
       inkscape:connector-curvature="0" />
    <path
       style="fill:#199f2e"
       transform="translate(0,1004.3622)"
       d="M 31,5.0039062 V 7 h 4.164062 C 33.872476,6.1745087 32.478386,5.501231 31,5.0039062 Z"
       id="path66"
       inkscape:connector-curvature="0" />
    <path
       style="fill:#105788"
       transform="translate(0,1004.3622)"
       d="M 19,4.9570312 C 17.480454,5.4560066 16.029141,6.1387488 14.681641,7 H 19 Z"
       id="path68"
       inkscape:connector-curvature="0" />
    <path
       style="fill:#117020"
       transform="translate(0,1004.3622)"
       d="M 14.681641,7 C 14.101327,7.370906 13.539166,7.7734074 13,8.2070312 V 9.421875 C 14.821128,8.5709882 16.865392,8.0085024 19,7.9121094 V 7 Z"
       id="path70"
       inkscape:connector-curvature="0" />
    <path
       style="fill:#199f83"
       transform="translate(0,1004.3622)"
       d="m 19,7 v 0.9121094 c 0.489033,-0.022083 0.980607,-0.019774 1.476562,0.00781 C 22.1255,8.0115982 23.62395,8.2407282 25,8.5761719 V 7 Z"
       id="path72"
       inkscape:connector-curvature="0" />
    <path
       style="fill:#57d74c"
       transform="translate(0,1004.3622)"
       d="m 13,8.2070312 c -1.098715,0.883641 -2.107241,1.8943818 -3,3.0214848 0.893396,-0.690556 1.909516,-1.2971337 3,-1.806641 z"
       id="path74"
       inkscape:connector-curvature="0" />
    <path
       style="fill:#57d74c"
       transform="translate(0,1004.3622)"
       d="M 24.933594,4 C 22.893011,4.0000351 20.894728,4.3348571 19,4.9570312 V 7 h 6 V 4.0039062 C 24.977588,4.0038287 24.956024,4 24.933594,4 Z"
       id="path76"
       inkscape:connector-curvature="0" />
  </g>
  <path
     style="opacity:0.2;fill:#ffffff;stroke-width:4"
     d="M 99.734375 16 C 76.461991 16.0004 54.466292 26.650462 40 44.914062 C 40.69758 44.374904 41.415323 43.84889 42.148438 43.333984 C 56.594507 26.655304 77.583234 17.000381 99.734375 17 C 141.63612 17 175.63491 50.861086 175.98438 92.757812 C 175.99137 92.641003 176 92.524924 176 92.40625 C 176 50.20945 141.85319 16 99.734375 16 z M 53.59375 77.869141 C 45.692673 87.072843 41.905977 99.089639 41.9375 111.33008 C 42.109261 99.485426 45.879148 87.918469 53.501953 78.980469 C 53.584773 78.304743 53.64067 77.831573 53.59375 77.869141 z M 52.882812 90.609375 C 52.88061 91.112376 52.901103 91.660875 52.910156 92.1875 C 53.445441 108.51006 60.070168 134.32741 97.726562 136.82812 C 122.86252 138.49773 141.81195 117.43146 142.25781 92.289062 C 142.26116 92.529521 142.27276 92.763326 142.2832 92.998047 C 142.28562 92.795104 142.29688 92.594079 142.29688 92.390625 C 142.29629 92.014625 142.26301 91.662662 142.25781 91.289062 C 141.81195 116.43146 122.86252 137.49773 97.726562 135.82812 C 59.635179 133.29852 53.285073 106.89378 52.882812 90.609375 z "
     id="path80" />
</svg>
