<?xml version="1.0" encoding="UTF-8" standalone="no"?>
<svg
   xmlns:dc="http://purl.org/dc/elements/1.1/"
   xmlns:cc="http://creativecommons.org/ns#"
   xmlns:rdf="http://www.w3.org/1999/02/22-rdf-syntax-ns#"
   xmlns:svg="http://www.w3.org/2000/svg"
   xmlns="http://www.w3.org/2000/svg"
   xmlns:sodipodi="http://sodipodi.sourceforge.net/DTD/sodipodi-0.dtd"
   xmlns:inkscape="http://www.inkscape.org/namespaces/inkscape"
   width="192"
   height="192"
   version="1"
   id="svg20"
   sodipodi:docname="apps_authy.svg"
   inkscape:version="0.92.3 (2405546, 2018-03-11)">
  <metadata
     id="metadata26">
    <rdf:RDF>
      <cc:Work
         rdf:about="">
        <dc:format>image/svg+xml</dc:format>
        <dc:type
           rdf:resource="http://purl.org/dc/dcmitype/StillImage" />
        <dc:title></dc:title>
      </cc:Work>
    </rdf:RDF>
  </metadata>
  <defs
     id="defs24">
    <filter
       inkscape:collect="always"
       style="color-interpolation-filters:sRGB"
       id="filter871"
       x="-0.048"
       width="1.096"
       y="-0.048"
       height="1.096">
      <feGaussianBlur
         inkscape:collect="always"
         stdDeviation="3.2"
         id="feGaussianBlur873" />
    </filter>
    <filter
       inkscape:collect="always"
       style="color-interpolation-filters:sRGB"
       id="filter890"
       x="-0.042572701"
       width="1.0851454"
       y="-0.05501326"
       height="1.1100265">
      <feGaussianBlur
         inkscape:collect="always"
         stdDeviation="1.7640432"
         id="feGaussianBlur892" />
    </filter>
  </defs>
  <sodipodi:namedview
     pagecolor="#ffffff"
     bordercolor="#666666"
     borderopacity="1"
     objecttolerance="10"
     gridtolerance="10"
     guidetolerance="10"
     inkscape:pageopacity="0"
     inkscape:pageshadow="2"
     inkscape:window-width="1920"
     inkscape:window-height="1018"
     id="namedview22"
     showgrid="false"
     inkscape:zoom="2.63"
     inkscape:cx="24"
     inkscape:cy="100.04563"
     inkscape:window-x="0"
     inkscape:window-y="32"
     inkscape:window-maximized="1"
     inkscape:current-layer="svg20" />
  <rect
     id="rect853"
     ry="80"
     rx="80"
     y="20"
     x="16"
     height="160"
     width="160"
     style="opacity:0.2;fill:#000000;stroke-width:4;filter:url(#filter871)" />
  <rect
     style="fill:#e91e63;stroke-width:4"
     width="160"
     height="160"
     x="16"
     y="16"
     rx="80"
     ry="80"
     id="rect2" />
  <path
     style="opacity:0.2;fill:#ffffff;stroke-width:4"
     d="M 95.998047 16 C 51.678955 16.001052 16 51.680653 16 96 C 16 96.115498 16.006172 96.228859 16.007812 96.34375 C 16.358829 52.329731 51.898462 17.001046 95.998047 17 L 96 17 C 140.10547 17.001047 175.64856 52.339122 175.99023 96.361328 C 175.99198 96.240601 175.99805 96.121307 175.99805 96 C 175.99805 51.680653 140.31909 16.001052 96 16 L 95.998047 16 z "
     id="path4" />
  <g
     style="opacity:0.2;enable-background:new;filter:url(#filter890)"
     transform="matrix(1.12632,0,0,1.12632,-135.924,-241.10377)"
     id="g12">
    <path
       inkscape:connector-curvature="0"
       d="m 199.99,286.44 16.56,16.561 c 2.394,2.393 6.273,2.391 8.667,-0.002 2.395,-2.396 2.397,-6.275 0.003,-8.668 l -16.561,-16.562 c -11.85,-11.851 -31.001,-12.044 -43.104,-0.6 -0.111,0.094 -0.222,0.191 -0.326,0.295 -0.051,0.052 -0.099,0.105 -0.148,0.158 -0.052,0.05 -0.107,0.097 -0.157,0.146 -0.106,0.106 -0.2,0.215 -0.294,0.325 -11.445,12.105 -11.25,31.254 0.6,43.105 l 16.561,16.559 c 2.394,2.394 6.272,2.394 8.666,0 2.394,-2.396 2.396,-6.275 0.002,-8.667 l -16.56,-16.562 c -7.225,-7.225 -7.275,-18.949 -0.149,-26.24 7.289,-7.123 19.014,-7.074 26.24,0.152 z"
       id="path8" />
    <path
       inkscape:connector-curvature="0"
       d="m 221.37,264.39 c -2.394,2.394 -2.392,6.274 0.002,8.667 l 16.56,16.56 c 7.226,7.228 7.271,18.951 0.147,26.242 -7.29,7.122 -19.013,7.075 -26.239,-0.15 l -16.559,-16.561 c -2.394,-2.393 -6.277,-2.393 -8.671,0 -2.394,2.396 -2.394,6.279 0,8.672 l 16.56,16.56 c 11.851,11.851 31.002,12.044 43.102,0.6 0.111,-0.095 0.222,-0.188 0.327,-0.295 0.051,-0.053 0.097,-0.104 0.149,-0.155 0.051,-0.052 0.107,-0.1 0.159,-0.15 0.104,-0.106 0.196,-0.216 0.291,-0.327 11.447,-12.1 11.253,-31.251 -0.598,-43.102 l -16.558,-16.56 c -2.394,-2.395 -6.279,-2.395 -8.672,-0.001 z"
       id="path10" />
  </g>
  <g
     style="fill:#ff8bff;enable-background:new"
     transform="matrix(1.12632,0,0,1.12632,-135.924,-243.104)"
     id="g18">
    <path
       inkscape:connector-curvature="0"
       d="m 199.99,286.44 16.56,16.561 c 2.394,2.393 6.273,2.391 8.667,-0.002 2.395,-2.396 2.397,-6.275 0.003,-8.668 l -16.561,-16.562 c -11.85,-11.851 -31.001,-12.044 -43.104,-0.6 -0.111,0.094 -0.222,0.191 -0.326,0.295 -0.051,0.052 -0.099,0.105 -0.148,0.158 -0.052,0.05 -0.107,0.097 -0.157,0.146 -0.106,0.106 -0.2,0.215 -0.294,0.325 -11.445,12.105 -11.25,31.254 0.6,43.105 l 16.561,16.559 c 2.394,2.394 6.272,2.394 8.666,0 2.394,-2.396 2.396,-6.275 0.002,-8.667 l -16.56,-16.562 c -7.225,-7.225 -7.275,-18.949 -0.149,-26.24 7.289,-7.123 19.014,-7.074 26.24,0.152 z"
       id="path14" />
    <path
       inkscape:connector-curvature="0"
       d="m 221.37,264.39 c -2.394,2.394 -2.392,6.274 0.002,8.667 l 16.56,16.56 c 7.226,7.228 7.271,18.951 0.147,26.242 -7.29,7.122 -19.013,7.075 -26.239,-0.15 l -16.559,-16.561 c -2.394,-2.393 -6.277,-2.393 -8.671,0 -2.394,2.396 -2.394,6.279 0,8.672 l 16.56,16.56 c 11.851,11.851 31.002,12.044 43.102,0.6 0.111,-0.095 0.222,-0.188 0.327,-0.295 0.051,-0.053 0.097,-0.104 0.149,-0.155 0.051,-0.052 0.107,-0.1 0.159,-0.15 0.104,-0.106 0.196,-0.216 0.291,-0.327 11.447,-12.1 11.253,-31.251 -0.598,-43.102 l -16.558,-16.56 c -2.394,-2.395 -6.279,-2.395 -8.672,-0.001 z"
       id="path16" />
  </g>
</svg>
