<?xml version="1.0" encoding="UTF-8" standalone="no"?>
<svg
   xmlns:dc="http://purl.org/dc/elements/1.1/"
   xmlns:cc="http://creativecommons.org/ns#"
   xmlns:rdf="http://www.w3.org/1999/02/22-rdf-syntax-ns#"
   xmlns:svg="http://www.w3.org/2000/svg"
   xmlns="http://www.w3.org/2000/svg"
   xmlns:sodipodi="http://sodipodi.sourceforge.net/DTD/sodipodi-0.dtd"
   xmlns:inkscape="http://www.inkscape.org/namespaces/inkscape"
   width="192"
   height="192"
   version="1"
   id="svg12"
   sodipodi:docname="miui_community.svg"
   inkscape:version="0.92.3 (2405546, 2018-03-11)">
  <metadata
     id="metadata18">
    <rdf:RDF>
      <cc:Work
         rdf:about="">
        <dc:format>image/svg+xml</dc:format>
        <dc:type
           rdf:resource="http://purl.org/dc/dcmitype/StillImage" />
        <dc:title />
      </cc:Work>
    </rdf:RDF>
  </metadata>
  <defs
     id="defs16">
    <filter
       inkscape:collect="always"
       style="color-interpolation-filters:sRGB"
       id="filter860"
       x="-0.048"
       width="1.096"
       y="-0.048"
       height="1.096">
      <feGaussianBlur
         inkscape:collect="always"
         stdDeviation="3.2"
         id="feGaussianBlur862" />
    </filter>
    <filter
       inkscape:collect="always"
       style="color-interpolation-filters:sRGB"
       id="filter845"
       x="-0.045777455"
       width="1.0915549"
       y="-0.050449372"
       height="1.1008987">
      <feGaussianBlur
         inkscape:collect="always"
         stdDeviation="2.059987"
         id="feGaussianBlur847" />
    </filter>
  </defs>
  <sodipodi:namedview
     pagecolor="#ffffff"
     bordercolor="#666666"
     borderopacity="1"
     objecttolerance="10"
     gridtolerance="10"
     guidetolerance="10"
     inkscape:pageopacity="0"
     inkscape:pageshadow="2"
     inkscape:window-width="1920"
     inkscape:window-height="1018"
     id="namedview14"
     showgrid="false"
     inkscape:zoom="3.0696785"
     inkscape:cx="90.938673"
     inkscape:cy="96.19668"
     inkscape:window-x="0"
     inkscape:window-y="32"
     inkscape:window-maximized="1"
     inkscape:current-layer="svg12"
     showguides="true">
    <inkscape:grid
       type="xygrid"
       id="grid820" />
  </sodipodi:namedview>
  <rect
     style="opacity:0.2;stroke-width:4;filter:url(#filter860)"
     width="160"
     height="160"
     x="16"
     y="20"
     rx="48"
     ry="48"
     id="rect2" />
  <rect
     style="fill:#fc553d;fill-opacity:1;stroke-width:4"
     width="160"
     height="160"
     x="16"
     y="16"
     rx="48"
     ry="48"
     id="rect4" />
  <path
     inkscape:connector-curvature="0"
     style="opacity:0.2;fill:#ffffff;stroke-width:4"
     d="M 64,16 C 37.408,16 16,37.408 16,64 v 1 C 16,38.408 37.408,17 64,17 h 64 c 26.592,0 48,21.408 48,48 V 64 C 176,37.408 154.592,16 128,16 Z"
     id="path10" />
  <path
     sodipodi:nodetypes="scccscssccssccscccccccccccscscccscccccccccccccccsccscccccccsccccscccccsccccscccccsccccccccscccscsccsccscsscsccsccscs"
     inkscape:connector-curvature="0"
     id="path831"
     d="m 142.60547,48.002494 c -0.88802,0.01195 -1.76508,0.119056 -2.49805,0.332031 -4.36537,1.268433 -10.02209,6.71373 -15.60156,15.017578 -1.27628,1.899485 -2.35425,3.492076 -2.39453,3.539063 -0.0403,0.04698 -1.78685,-0.762483 -3.88281,-1.798828 -8.48685,-4.196308 -17.33981,-5.970487 -26.152348,-5.244141 -6.74313,0.55579 -12.100545,2.060709 -18.546875,5.214844 -2.11101,1.032897 -3.898856,1.878906 -3.972656,1.878906 -0.0738,0 -0.714682,-0.933875 -1.425782,-2.074218 -4.60791,-7.389494 -10.280791,-13.401348 -14.738281,-15.623047 -2.07555,-1.034497 -2.46021,-1.136719 -4.34375,-1.136719 -1.75178,0 -2.314723,0.124331 -3.689453,0.810547 -2.33689,1.166493 -3.208317,2.51026 -3.341797,5.152343 -0.13063,2.585583 0.462539,4.505256 2.19336,7.091797 2.311199,3.453849 5.338188,5.805568 12.105468,9.408203 1.92975,1.027322 3.832213,2.12686 4.226563,2.441407 l 0.716797,0.570312 -1.119141,1.492188 c -2.51627,3.352488 -4.330263,7.575134 -5.439453,12.662109 -0.44574,2.044225 -0.605093,3.890672 -0.695313,8.039063 -0.11438,5.258738 -0.134197,5.406518 -0.804687,6.285158 -0.48693,0.63809 -0.660829,1.16129 -0.59961,1.79883 0.0739,0.7695 0.272191,0.99036 1.375,1.5371 1.524471,0.75579 1.524392,0.76679 0.613282,4.35938 -0.91551,3.60991 -2.193066,10.15837 -2.603516,13.34766 -0.30418,2.36361 -0.289152,2.749 0.142578,3.8789 0.69447,1.81758 2.023237,2.6243 4.591797,2.78906 2.43887,0.15644 3.709575,-0.35331 4.671875,-1.87695 0.36215,-0.57341 0.725721,-1.04297 0.806641,-1.04297 0.0809,0 0.43193,0.64107 0.78125,1.42383 3.76042,8.42648 13.034381,14.86245 24.488281,16.99414 4.17685,0.77734 4.354326,0.7891 9.291016,0.68164 3.448474,-0.0751 5.227504,-0.25269 7.750004,-0.77929 7.80072,-1.62849 13.95039,-4.63326 18.6875,-9.13086 2.14184,-2.03354 4.57705,-5.38965 5.53906,-7.63282 0.30305,-0.70663 0.6465,-1.28105 0.76367,-1.27539 0.11718,0.006 0.55284,0.50085 0.96875,1.10157 1.02856,1.48556 2.2836,1.98012 4.50391,1.77343 2.10144,-0.19562 3.47775,-0.86158 4.33007,-2.0957 0.59213,-0.85736 0.62787,-1.11356 0.4961,-3.5 -0.14611,-2.64621 -1.24653,-8.68467 -2.66211,-14.60547 -0.4411,-1.84493 -0.72551,-3.42884 -0.63281,-3.52148 0.0927,-0.0927 0.66874,-0.414 1.28125,-0.71289 0.61251,-0.29887 1.23144,-0.73873 1.375,-0.97657 0.34373,-0.56949 0.0668,-1.59806 -0.6875,-2.55664 -0.57561,-0.73142 -0.6105,-1.04337 -0.6543,-5.669918 -0.0804,-8.496385 -1.72084,-14.577478 -5.42774,-20.119141 -0.9499,-1.420088 -1.7275,-2.661664 -1.72656,-2.759766 0.002,-0.216315 0.58792,-0.559622 5.96485,-3.496093 2.31214,-1.262715 5.00878,-2.890552 5.99218,-3.617188 7.91434,-5.848004 9.85032,-14.59766 3.90821,-17.666015 -0.93173,-0.481117 -2.44379,-0.728903 -3.92383,-0.708985 z M 86.589844,88.000541 h 0.002 c 8.460673,1.4e-4 11.68453,0.02595 12.160156,0.08203 1.92872,0.227453 3.64793,1.082492 5.06446,2.517578 1.17256,1.187899 1.78173,2.36637 2.05078,3.962891 0.0235,0.139601 0.0405,0.941547 0.0566,1.748047 0.0539,0.340737 0.0614,2.685446 0.0664,5.859373 0.004,0.23878 0.01,0.46107 0.01,0.72656 v 3.09961 9.63868 0.14648 l -0.22852,0.10937 c -0.22144,0.10641 -0.31387,0.10938 -3.77172,0.10938 -0.85738,0 -1.04022,-0.006 -1.53711,-0.008 l -1.345702,0.008 -0.01563,-0.0137 c -0.572356,-0.0131 -0.75538,-0.0391 -0.873046,-0.0957 L 98,115.78179 v -9.78516 c 0,-3.22594 0.0012,-4.74798 0.0078,-6.196675 0.08902,-2.164737 -0.997816,-3.508492 -2.52539,-3.642578 -0.425119,-0.12249 -0.869022,-0.13407 -7.580078,-0.15625 -3.700577,-0.01208 -5.110605,-0.01166 -5.916016,0.0059 C 81.99141,97.958524 82,98.448274 82,102.49468 v 13.21094 l -0.228516,0.14844 c -0.137421,0.089 -0.549059,0.11694 -1.427734,0.13086 l -0.01172,0.0117 h -1.71289 c -0.281701,2e-5 -0.273791,0.004 -0.61914,0.004 -1.824728,0 -2.688367,-0.003 -3.152344,-0.0254 -0.487935,-0.0185 -0.617972,-0.0525 -0.695312,-0.12695 -0.01096,-0.0106 -0.01824,-0.0413 -0.02734,-0.0606 L 74,115.70562 v -0.0488 -12.74023 -0.42188 -0.35547 c -2.29e-4,-0.0451 0,-0.0752 0,-0.17382 V 88.229057 l 0.171875,-0.113282 c 0.152281,-0.102604 1.453586,-0.115455 12.417969,-0.115234 z m 27.410156,0 c 3.54124,0 3.66148,0.0037 3.82812,0.146484 C 117.9993,88.293348 118,88.393028 118,101.99468 v 13.70117 l -0.22852,0.15235 c -0.22096,0.14855 -0.31363,0.15234 -3.77148,0.15234 -3.45784,0 -3.55049,-0.003 -3.77148,-0.15234 L 110,115.69585 v -13.70117 c 0,-13.601652 9.9e-4,-13.701332 0.17188,-13.847655 0.16665,-0.143093 0.28689,-0.146484 3.82812,-0.146484 z M 90,100.00054 c 3.447264,0 3.716507,0.009 3.853516,0.13281 C 93.993988,100.25993 94,99.249001 94,107.26226 v 8.45312 l -0.193359,0.14258 c -0.18508,0.13646 -0.374553,0.14258 -3.806641,0.14258 -3.432103,0 -3.621561,-0.007 -3.806641,-0.14258 L 86,115.71538 v -8.45312 c 0,-8.013259 0.0068,-7.00233 0.146484,-7.12891 0.137009,-0.12422 0.406293,-0.13281 3.853516,-0.13281 z"
     style="opacity:0.2;fill:#000000;stroke-width:0.27115223;filter:url(#filter845)" />
  <path
     style="fill:#ffffff;stroke-width:0.27115223"
     d="m 142.60547,46.001953 c -0.88802,0.01195 -1.76508,0.119056 -2.49805,0.332031 -4.36537,1.268433 -10.02209,6.71373 -15.60156,15.017578 -1.27628,1.899485 -2.35425,3.492076 -2.39453,3.539063 -0.0403,0.04698 -1.78685,-0.762483 -3.88281,-1.798828 -8.48685,-4.196308 -17.33981,-5.970487 -26.152348,-5.244141 -6.74313,0.55579 -12.100545,2.060709 -18.546875,5.214844 -2.11101,1.032897 -3.898856,1.878906 -3.972656,1.878906 -0.0738,0 -0.714682,-0.933875 -1.425782,-2.074218 -4.60791,-7.389494 -10.280791,-13.401348 -14.738281,-15.623047 -2.07555,-1.034497 -2.46021,-1.136719 -4.34375,-1.136719 -1.75178,0 -2.314723,0.124331 -3.689453,0.810547 -2.33689,1.166493 -3.208317,2.51026 -3.341797,5.152343 -0.13063,2.585583 0.462539,4.505256 2.19336,7.091797 2.311199,3.453849 5.338188,5.805568 12.105468,9.408203 1.92975,1.027322 3.832213,2.12686 4.226563,2.441407 l 0.716797,0.570312 -1.119141,1.492188 c -2.51627,3.352488 -4.330263,7.575134 -5.439453,12.662109 -0.44574,2.044225 -0.605093,3.890672 -0.695313,8.039063 -0.11438,5.25874 -0.134197,5.406519 -0.804687,6.285159 -0.48693,0.63809 -0.660829,1.16129 -0.59961,1.79883 0.0739,0.7695 0.272191,0.99036 1.375,1.5371 1.524471,0.75579 1.524392,0.76679 0.613282,4.35938 -0.91551,3.60991 -2.193066,10.15837 -2.603516,13.34766 -0.30418,2.36361 -0.289152,2.749 0.142578,3.8789 0.69447,1.81758 2.023237,2.6243 4.591797,2.78906 2.43887,0.15644 3.709575,-0.35331 4.671875,-1.87695 0.36215,-0.57341 0.725721,-1.04297 0.806641,-1.04297 0.0809,0 0.43193,0.64107 0.78125,1.42383 3.76042,8.42648 13.034381,14.86245 24.488281,16.99414 4.17685,0.77734 4.354326,0.7891 9.291016,0.68164 3.448474,-0.0751 5.227504,-0.25269 7.750004,-0.77929 7.80072,-1.62849 13.95039,-4.63326 18.6875,-9.13086 2.14184,-2.03354 4.57705,-5.38965 5.53906,-7.63282 0.30305,-0.70663 0.6465,-1.28105 0.76367,-1.27539 0.11718,0.006 0.55284,0.50085 0.96875,1.10157 1.02856,1.48556 2.2836,1.98012 4.50391,1.77343 2.10144,-0.19562 3.47775,-0.86158 4.33007,-2.0957 0.59213,-0.85736 0.62787,-1.11356 0.4961,-3.5 -0.14611,-2.64621 -1.24653,-8.68467 -2.66211,-14.60547 -0.4411,-1.84493 -0.72551,-3.42884 -0.63281,-3.52148 0.0927,-0.0927 0.66874,-0.414 1.28125,-0.71289 0.61251,-0.29887 1.23144,-0.73873 1.375,-0.97657 0.34373,-0.56949 0.0668,-1.59806 -0.6875,-2.55664 -0.57561,-0.731419 -0.6105,-1.043374 -0.6543,-5.669919 -0.0804,-8.496385 -1.72084,-14.577478 -5.42774,-20.119141 -0.9499,-1.420088 -1.7275,-2.661664 -1.72656,-2.759766 0.002,-0.216315 0.58792,-0.559622 5.96485,-3.496093 2.31214,-1.262715 5.00878,-2.890552 5.99218,-3.617188 7.91434,-5.848004 9.85032,-14.59766 3.90821,-17.666015 -0.93173,-0.481117 -2.44379,-0.728903 -3.92383,-0.708985 z M 86.589844,86 h 0.002 c 8.460673,1.4e-4 11.68453,0.02595 12.160156,0.08203 1.92872,0.227453 3.64793,1.082492 5.06446,2.517578 1.17256,1.187899 1.78173,2.36637 2.05078,3.962891 0.0235,0.139601 0.0405,0.941547 0.0566,1.748047 0.0539,0.340737 0.0614,2.685446 0.0664,5.859374 0.004,0.23878 0.01,0.46107 0.01,0.72656 v 3.09961 9.63868 0.14648 l -0.22852,0.10937 C 105.55028,113.99703 105.45785,114 102,114 c -0.85738,0 -1.04022,-0.006 -1.53711,-0.008 l -1.345702,0.008 -0.01563,-0.0137 c -0.572356,-0.0131 -0.75538,-0.0391 -0.873046,-0.0957 L 98,113.78125 v -9.78516 c 0,-3.22594 0.0012,-4.747983 0.0078,-6.196676 0.08902,-2.164737 -0.997816,-3.508492 -2.52539,-3.642578 -0.425119,-0.12249 -0.869022,-0.13407 -7.580078,-0.15625 -3.700577,-0.01208 -5.110605,-0.01166 -5.916016,0.0059 C 81.99141,95.957983 82,96.447733 82,100.49414 v 13.21094 l -0.228516,0.14844 c -0.137421,0.089 -0.549059,0.11694 -1.427734,0.13086 l -0.01172,0.0117 H 78.61914 C 78.337439,113.9961 78.345349,114 78,114 c -1.824728,0 -2.688367,-0.003 -3.152344,-0.0254 -0.487935,-0.0185 -0.617972,-0.0525 -0.695312,-0.12695 -0.01096,-0.0106 -0.01824,-0.0413 -0.02734,-0.0606 L 74,113.70508 v -0.0488 -12.74023 -0.42188 -0.35547 c -2.29e-4,-0.0451 0,-0.0752 0,-0.173826 V 86.228516 l 0.171875,-0.113282 C 74.324156,86.01263 75.625461,85.999779 86.589844,86 Z M 114,86 c 3.54124,0 3.66148,0.0037 3.82812,0.146484 C 117.9993,86.292807 118,86.392487 118,99.994141 v 13.701169 l -0.22852,0.15235 C 117.55052,113.99621 117.45785,114 114,114 c -3.45784,0 -3.55049,-0.003 -3.77148,-0.15234 L 110,113.69531 V 99.994141 c 0,-13.601654 9.9e-4,-13.701334 0.17188,-13.847657 C 110.33853,86.003391 110.45877,86 114,86 Z M 90,98 c 3.447264,0 3.716507,0.0086 3.853516,0.132812 C 93.993988,98.259389 94,97.24846 94,105.26172 v 8.45312 l -0.193359,0.14258 C 93.621561,113.99388 93.432088,114 90,114 c -3.432103,0 -3.621561,-0.007 -3.806641,-0.14258 L 86,113.71484 v -8.45312 c 0,-8.01326 0.0068,-7.002336 0.146484,-7.128908 C 86.283493,98.008593 86.552777,98 90,98 Z"
     id="path827"
     inkscape:connector-curvature="0"
     sodipodi:nodetypes="scccscssccssccscccccccccccscscccscccccccccccccccsccscccccccsccccscccccsccccscccccsccccccccscccscsccsccscsscsccsccscs" />
</svg>
