<?xml version="1.0" encoding="UTF-8" standalone="no"?>
<svg
   xmlns:dc="http://purl.org/dc/elements/1.1/"
   xmlns:cc="http://creativecommons.org/ns#"
   xmlns:rdf="http://www.w3.org/1999/02/22-rdf-syntax-ns#"
   xmlns:svg="http://www.w3.org/2000/svg"
   xmlns="http://www.w3.org/2000/svg"
   xmlns:sodipodi="http://sodipodi.sourceforge.net/DTD/sodipodi-0.dtd"
   xmlns:inkscape="http://www.inkscape.org/namespaces/inkscape"
   width="192"
   height="192"
   version="1.1"
   id="svg14"
   sodipodi:docname="apps_fbmessenger.svg"
   inkscape:version="0.92.3 (2405546, 2018-03-11)">
  <metadata
     id="metadata20">
    <rdf:RDF>
      <cc:Work
         rdf:about="">
        <dc:format>image/svg+xml</dc:format>
        <dc:type
           rdf:resource="http://purl.org/dc/dcmitype/StillImage" />
      </cc:Work>
    </rdf:RDF>
  </metadata>
  <defs
     id="defs18">
    <filter
       inkscape:collect="always"
       style="color-interpolation-filters:sRGB"
       id="filter854"
       x="-0.048000156"
       width="1.0960003"
       y="-0.047999844"
       height="1.0959997">
      <feGaussianBlur
         inkscape:collect="always"
         stdDeviation="3.1999992"
         id="feGaussianBlur856" />
    </filter>
    <filter
       inkscape:collect="always"
       style="color-interpolation-filters:sRGB"
       id="filter877"
       x="-0.034285714"
       width="1.0685714"
       y="-0.08"
       height="1.16">
      <feGaussianBlur
         inkscape:collect="always"
         stdDeviation="1.6"
         id="feGaussianBlur879" />
    </filter>
  </defs>
  <sodipodi:namedview
     pagecolor="#ffffff"
     bordercolor="#666666"
     borderopacity="1"
     objecttolerance="10"
     gridtolerance="10"
     guidetolerance="10"
     inkscape:pageopacity="0"
     inkscape:pageshadow="2"
     inkscape:window-width="1920"
     inkscape:window-height="1018"
     id="namedview16"
     showgrid="false"
     inkscape:zoom="1"
     inkscape:cx="96"
     inkscape:cy="96"
     inkscape:window-x="0"
     inkscape:window-y="32"
     inkscape:window-maximized="1"
     inkscape:current-layer="svg14" />
  <path
     d="m 95.976,20.00131 c -2.27992,0.01688 -4.558,0.126364 -6.828,0.328124 -1.6456,0.13036 -3.25972,0.340608 -4.8752,0.56248 -0.8562,0.109244 -1.71048,0.231656 -2.56248,0.367188 -2.30172,0.387836 -4.5612,0.87788 -6.7892,1.44532 -0.14592,0.03608 -0.29176,0.07252 -0.43752,0.109376 -33.768,8.794 -58.484,37.6876 -58.484,71.984 4.04e-4,0.24864 0.0204,0.49384 0.02344,0.7422 -0.0084,0.152 -0.0164,0.308 -0.0236,0.46 0.03952,23.548002 12.356,45.640002 32,60.000002 v 24 l 21.2188,-12.4844 c 8.592,2.936 17.648,4.452 26.78,4.484 42.556,-0.048 77.624,-31.74 79.796,-72.116002 0.0636,-0.88452 0.11016,-1.77144 0.14064,-2.66408 0.024,-0.408 0.048,-0.812 0.064,-1.22 -0.004,-0.164 -0.008,-0.328 -0.016,-0.492 0.004,-0.24 0.016,-0.472 0.016,-0.712 0,-38.736 -31.508,-70.664 -72.016,-74.412 -2.212,-0.1956 -4.432,-0.3028 -6.656,-0.3216 -0.448,-0.0068 -0.884,-0.0624 -1.336,-0.0624 z"
     id="path832"
     inkscape:connector-curvature="0"
     style="opacity:0.2;fill:#000000;stroke-width:4;filter:url(#filter854)" />
  <path
     style="fill:#009eff;stroke-width:4"
     inkscape:connector-curvature="0"
     id="path2"
     d="m 95.976,16 c -2.27992,0.01688 -4.558,0.126364 -6.828,0.328124 -1.6456,0.13036 -3.25972,0.340608 -4.8752,0.56248 -0.8562,0.109244 -1.71048,0.231656 -2.56248,0.367188 -2.30172,0.387836 -4.5612,0.87788 -6.7892,1.44532 -0.14592,0.03608 -0.29176,0.07252 -0.43752,0.109376 -33.768,8.794 -58.484,37.6876 -58.484,71.984 4.04e-4,0.24864 0.0204,0.49384 0.02344,0.7422 -0.0084,0.152 -0.0164,0.308 -0.0236,0.46 0.03952,23.548002 12.356,45.640002 32,60.000002 v 24 l 21.2188,-12.4844 c 8.592,2.936 17.648,4.452 26.78,4.484 42.556,-0.048 77.624,-31.74 79.796,-72.116002 0.0636,-0.88452 0.11016,-1.77144 0.14064,-2.66408 0.024,-0.408 0.048,-0.812 0.064,-1.22 -0.004,-0.164 -0.008,-0.328 -0.016,-0.492 0.004,-0.24 0.016,-0.472 0.016,-0.712 0,-38.736 -31.508,-70.664 -72.016,-74.412 -2.212,-0.1956 -4.432,-0.3028 -6.656,-0.3216 -0.448,-0.0068 -0.884,-0.0624 -1.336,-0.0624 z" />
  <path
     style="opacity:0.2;stroke-width:4;filter:url(#filter877)"
     inkscape:connector-curvature="0"
     id="path4"
     d="M 104,116 84,92 40,116 88,68 108,92 152,68 Z" />
  <path
     style="fill:#ffffff;stroke-width:4"
     inkscape:connector-curvature="0"
     id="path6"
     d="M 104,112 84,88 40,112 88,64 108,88 152,64 Z" />
  <path
     style="opacity:0.2;fill:#ffffff;stroke-width:4"
     d="M 95.974609 16 A 80 76 0 0 0 89.148438 16.328125 C 87.504437 16.458525 85.887484 16.668625 84.271484 16.890625 A 80 76 0 0 0 81.712891 17.257812 C 79.408891 17.645412 77.147922 18.135525 74.919922 18.703125 A 80 76 0 0 0 74.484375 18.8125 C 40.716375 27.6065 16 56.500475 16 90.796875 C 16.000225 90.936177 16.00753 91.075542 16.013672 91.214844 C 16.292611 57.17499 40.90836 28.556503 74.484375 19.8125 A 80 76 0 0 1 74.919922 19.703125 C 77.147922 19.135525 79.408891 18.645412 81.712891 18.257812 A 80 76 0 0 1 84.271484 17.890625 C 85.887484 17.668625 87.504437 17.458525 89.148438 17.328125 A 80 76 0 0 1 95.976562 17 L 95.974609 16.998047 L 95.990234 16.998047 C 96.442234 16.998047 96.878172 17.053747 97.326172 17.060547 A 80 76 0 0 1 103.98242 17.382812 C 144.32817 21.1158 175.73529 52.805852 175.98633 91.332031 C 175.9914 91.153449 175.99805 90.975743 175.99805 90.794922 C 175.99805 52.058922 144.49042 20.130812 103.98242 16.382812 A 80 76 0 0 0 97.326172 16.0625 C 96.878172 16.0557 96.442234 16 95.990234 16 L 95.976562 16 L 95.974609 16 z M 175.99609 91.916016 C 175.99497 91.99223 175.99247 92.068875 175.99023 92.144531 A 80 76 0 0 0 175.99805 92 A 80 76 0 0 0 175.99609 91.916016 z M 16.003906 91.921875 A 80 76 0 0 0 16 92 A 80 76 0 0 0 16.015625 92.269531 C 16.010666 92.15366 16.00669 92.037747 16.003906 91.921875 z "
     id="path8" />
</svg>
