<?xml version="1.0" encoding="UTF-8" standalone="no"?>
<svg
   xmlns:dc="http://purl.org/dc/elements/1.1/"
   xmlns:cc="http://creativecommons.org/ns#"
   xmlns:rdf="http://www.w3.org/1999/02/22-rdf-syntax-ns#"
   xmlns:svg="http://www.w3.org/2000/svg"
   xmlns="http://www.w3.org/2000/svg"
   xmlns:sodipodi="http://sodipodi.sourceforge.net/DTD/sodipodi-0.dtd"
   xmlns:inkscape="http://www.inkscape.org/namespaces/inkscape"
   width="192"
   height="192"
   version="1"
   id="svg18"
   sodipodi:docname="apps_8g_browser.svg"
   inkscape:version="0.92.3 (2405546, 2018-03-11)">
  <metadata
     id="metadata24">
    <rdf:RDF>
      <cc:Work
         rdf:about="">
        <dc:format>image/svg+xml</dc:format>
        <dc:type
           rdf:resource="http://purl.org/dc/dcmitype/StillImage" />
      </cc:Work>
    </rdf:RDF>
  </metadata>
  <defs
     id="defs22">
    <filter
       inkscape:collect="always"
       style="color-interpolation-filters:sRGB"
       id="filter858"
       x="-0.048"
       width="1.096"
       y="-0.048"
       height="1.096">
      <feGaussianBlur
         inkscape:collect="always"
         stdDeviation="3.2"
         id="feGaussianBlur860" />
    </filter>
    <filter
       inkscape:collect="always"
       style="color-interpolation-filters:sRGB"
       id="filter886"
       x="-0.045905328"
       width="1.0918107"
       y="-0.050294972"
       height="1.1005899">
      <feGaussianBlur
         inkscape:collect="always"
         stdDeviation="3.0177455"
         id="feGaussianBlur888" />
    </filter>
    <filter
       inkscape:collect="always"
       style="color-interpolation-filters:sRGB"
       id="filter906"
       x="-0.048"
       width="1.096"
       y="-0.048"
       height="1.096">
      <feGaussianBlur
         inkscape:collect="always"
         stdDeviation="0.8"
         id="feGaussianBlur908" />
    </filter>
  </defs>
  <sodipodi:namedview
     pagecolor="#ffffff"
     bordercolor="#666666"
     borderopacity="1"
     objecttolerance="10"
     gridtolerance="10"
     guidetolerance="10"
     inkscape:pageopacity="0"
     inkscape:pageshadow="2"
     inkscape:window-width="1920"
     inkscape:window-height="1018"
     id="namedview20"
     showgrid="false"
     inkscape:zoom="4.04"
     inkscape:cx="-13.880218"
     inkscape:cy="93.509811"
     inkscape:window-x="0"
     inkscape:window-y="32"
     inkscape:window-maximized="1"
     inkscape:current-layer="svg18">
    <inkscape:grid
       type="xygrid"
       id="grid824" />
  </sodipodi:namedview>
  <rect
     id="rect2"
     transform="matrix(0,-1,-1,0,0,0)"
     ry="80"
     rx="80"
     y="-176"
     x="-180"
     height="160"
     width="160"
     style="opacity:0.2;stroke-width:4;filter:url(#filter858)" />
  <path
     inkscape:connector-curvature="0"
     id="path4"
     d="m 176,96 c 0,-2.250504 -3.54028,-6.202868 -3.72073,-8.405276 C 168.90589,46.424308 138.0695,22.896552 96,22.896552 65.315876,22.896552 38.696644,33.345561 25.26844,58.5768 19.301011,69.78944 15.999999,82.364124 15.999999,96 c 0,44.32 35.680001,80 80.000001,80 44.32,0 80,-35.68 80,-80 z"
     style="fill:#3878b7;stroke-width:4" />
  <path
     inkscape:connector-curvature="0"
     id="path6"
     d="m 96,19.997753 c -32.853548,0 -60.921612,19.630278 -73.265624,47.828123 -0.628544,1.863808 -1.407814,4.437512 -2.007813,6.820312 -7.419014,29.463552 1.901513,56.842212 25.039061,75.564512 5.67882,4.59517 16.7944,9.96082 25.031252,12.07812 4.880696,1.25458 10.0388,1.74902 15.166708,1.70894 C 124,163.99776 143.42792,135.24933 144,110.91963 144,83.997752 130.13471,73.023132 114.07031,69.130564 c -11.2557,-2.69388 -23.20365,0.766812 -30.335934,8.789064 -3.01698,3.393432 -5.724356,8.97002 -6.046876,12.460936 l -0.2422,2.617188 1.257812,-1.679688 C 84.0199,84.199568 89.48102,81.241728 96.562488,81.646188 c 14.698072,2.641216 19.444372,13.253652 19.437502,21.992192 0.6471,11.62568 -7.88853,20.25427 -17.984378,25.41819 -7.225112,3.55043 -13.097712,4.18351 -20.718748,2.23437 -13.6113,-3.48117 -25.238116,-14.80962 -28.531252,-29.54318 -1.144636,-5.12094 -1.210268,-14.735836 -0.1328,-20.367196 4.159976,-21.74218 19.6898,-38.615124 40.289064,-43.781247 15.822704,-3.96816 34.133994,-1.490424 47.117184,6.374999 18.21016,11.032012 30.24458,27.024108 34.65625,46.046872 1.36943,5.904908 2.18311,15.439232 1.76563,20.773442 -0.52102,6.65995 -2.62304,16.43598 -4.77344,22.24219 -1.49973,4.04936 -3.45548,8.21466 -5.64062,12.1875 C 170.84402,132.37247 176,116.81485 176,99.997752 c 0,-44.32 -35.68,-79.999998 -80,-79.999999 z"
     style="opacity:0.2;stroke-width:4;filter:url(#filter886)" />
  <path
     inkscape:connector-curvature="0"
     id="path8"
     d="m 96,16 c -32.853548,0 -60.921612,19.630278 -73.265624,47.828124 -0.628544,1.863808 -1.407814,4.437512 -2.007813,6.820312 -7.419014,29.463544 1.901513,56.842204 25.039061,75.564504 5.67882,4.59518 16.7944,9.96082 25.031252,12.07812 4.880696,1.25459 10.0388,1.74903 15.166708,1.70894 C 124,160 143.42792,131.25157 144,106.92188 144,80 130.13471,69.02538 114.07031,65.132812 c -11.2557,-2.69388 -23.20365,0.766812 -30.335934,8.789064 -3.01698,3.393432 -5.724356,8.97002 -6.046876,12.460936 L 77.445312,89 78.703124,87.320312 C 84.019912,80.201816 89.481032,77.243976 96.5625,77.648436 111.26057,80.289652 116.00688,90.902088 116,99.640624 c 0.6471,11.625676 -7.88853,20.254266 -17.984376,25.418186 -7.225112,3.55043 -13.097712,4.18351 -20.718748,2.23438 C 63.685576,123.81202 52.05876,112.48356 48.765624,97.75 47.620988,92.629068 47.555356,83.014172 48.632824,77.382812 52.7928,55.640632 68.322624,38.767688 88.921888,33.601564 c 15.822702,-3.96816 34.133992,-1.490424 47.117192,6.375 18.21015,11.032012 30.24457,27.024108 34.65624,46.046872 1.36944,5.904908 2.18311,15.439234 1.76563,20.773444 -0.52101,6.65994 -2.62304,16.43598 -4.77344,22.24218 -1.49973,4.04936 -3.45547,8.21467 -5.64062,12.1875 C 170.84402,128.37472 176,112.81709 176,96 176,51.68 140.32,16 96,16 Z"
     style="fill:#df6040;stroke-width:4" />
  <circle
     id="circle12"
     r="20"
     cy="98"
     cx="96"
     style="opacity:0.1;stroke-width:4;filter:url(#filter906)" />
  <circle
     id="circle14"
     r="20"
     cy="96"
     cx="96"
     style="fill:#ffffff;stroke-width:4" />
  <path
     style="fill:#ffffff;stroke-width:4;opacity:0.2"
     d="M 96 16 C 63.146452 16 35.078387 35.630279 22.734375 63.828125 C 22.105831 65.691933 21.326561 68.265637 20.726562 70.648438 C 19.039595 77.347986 18.228617 83.937052 18.238281 90.34375 C 18.311181 84.252274 19.127351 77.999476 20.726562 71.648438 C 21.326561 69.265637 22.105831 66.691933 22.734375 64.828125 C 35.078387 36.630279 63.146452 17 96 17 C 140.11571 17 175.66534 52.35282 175.99219 96.388672 C 175.9928 96.258664 176 96.130159 176 96 C 176 51.68 140.32 16 96 16 z M 105.58398 64.242188 C 97.140799 64.45507 89.083588 67.905186 83.734375 73.921875 C 80.717395 77.315307 78.01002 82.891897 77.6875 86.382812 L 77.445312 89 L 77.550781 88.859375 L 77.6875 87.382812 C 78.01002 83.891897 80.717395 78.315307 83.734375 74.921875 C 90.866659 66.899623 102.81461 63.438932 114.07031 66.132812 C 129.98439 69.988955 143.73223 80.804626 143.98828 107.17969 C 143.99076 107.0941 143.99799 107.00735 144 106.92188 C 144 79.999995 130.13471 69.02538 114.07031 65.132812 C 111.25639 64.459343 108.39838 64.171227 105.58398 64.242188 z M 47.873047 88.089844 C 47.864277 92.064659 48.159255 96.037191 48.765625 98.75 C 52.058761 113.48356 63.685575 124.8118 77.296875 128.29297 C 84.917911 130.2421 90.790513 129.60902 98.015625 126.05859 C 107.89809 121.00382 116.28023 112.62684 116.02344 101.37109 C 115.77864 112.12417 107.60344 120.15453 98.015625 125.05859 C 90.790513 128.60902 84.917911 129.2421 77.296875 127.29297 C 63.685575 123.8118 52.058761 112.48356 48.765625 97.75 C 48.210375 95.265895 47.913178 91.721227 47.873047 88.089844 z M 172.55859 104.66406 C 172.54311 105.42708 172.51195 106.14502 172.46094 106.79688 C 171.93993 113.45682 169.8379 123.23286 167.6875 129.03906 C 166.18777 133.08842 164.23203 137.25373 162.04688 141.22656 C 162.95343 139.90217 163.81111 138.54239 164.63867 137.16211 C 165.77548 134.78813 166.81484 132.39529 167.6875 130.03906 C 169.8379 124.23286 171.93993 114.45682 172.46094 107.79688 C 172.5331 106.87482 172.55651 105.79668 172.55859 104.66406 z "
     id="path910" />
</svg>
