<?xml version="1.0" encoding="UTF-8" standalone="no"?>
<svg
   xmlns:dc="http://purl.org/dc/elements/1.1/"
   xmlns:cc="http://creativecommons.org/ns#"
   xmlns:rdf="http://www.w3.org/1999/02/22-rdf-syntax-ns#"
   xmlns:svg="http://www.w3.org/2000/svg"
   xmlns="http://www.w3.org/2000/svg"
   xmlns:sodipodi="http://sodipodi.sourceforge.net/DTD/sodipodi-0.dtd"
   xmlns:inkscape="http://www.inkscape.org/namespaces/inkscape"
   width="192"
   height="192"
   version="1"
   id="svg32"
   sodipodi:docname="apps_zarchiver_pro.svg"
   inkscape:version="0.92.3 (2405546, 2018-03-11)">
  <metadata
     id="metadata38">
    <rdf:RDF>
      <cc:Work
         rdf:about="">
        <dc:format>image/svg+xml</dc:format>
        <dc:type
           rdf:resource="http://purl.org/dc/dcmitype/StillImage" />
        <dc:title></dc:title>
      </cc:Work>
    </rdf:RDF>
  </metadata>
  <defs
     id="defs36">
    <filter
       inkscape:collect="always"
       style="color-interpolation-filters:sRGB"
       id="filter863"
       x="-0.050594594"
       width="1.1011892"
       y="-0.045658537"
       height="1.0913171">
      <feGaussianBlur
         inkscape:collect="always"
         stdDeviation="3.12"
         id="feGaussianBlur865" />
    </filter>
    <filter
       inkscape:collect="always"
       style="color-interpolation-filters:sRGB"
       id="filter916"
       x="-0.037772515"
       width="1.075545"
       y="-0.065822426"
       height="1.1316449">
      <feGaussianBlur
         inkscape:collect="always"
         stdDeviation="1.0280469"
         id="feGaussianBlur918" />
    </filter>
    <filter
       inkscape:collect="always"
       style="color-interpolation-filters:sRGB"
       id="filter976"
       x="-0.046325685"
       width="1.0926514"
       y="-0.04979988"
       height="1.0995998">
      <feGaussianBlur
         inkscape:collect="always"
         stdDeviation="1.6599967"
         id="feGaussianBlur978" />
    </filter>
  </defs>
  <sodipodi:namedview
     pagecolor="#ffffff"
     bordercolor="#666666"
     borderopacity="1"
     objecttolerance="10"
     gridtolerance="10"
     guidetolerance="10"
     inkscape:pageopacity="0"
     inkscape:pageshadow="2"
     inkscape:window-width="1920"
     inkscape:window-height="1018"
     id="namedview34"
     showgrid="false"
     inkscape:zoom="2.02"
     inkscape:cx="-5.3798645"
     inkscape:cy="103.29601"
     inkscape:window-x="0"
     inkscape:window-y="32"
     inkscape:window-maximized="1"
     inkscape:current-layer="svg32" />
  <path
     inkscape:connector-curvature="0"
     id="path845"
     d="m 96.441625,16.000009 v 0.008 A 18.770001,18.646326 0 0 0 86.6135,18.490419 L 31.386502,50.169416 A 18.770001,18.646326 0 0 0 22,66.320928 v 63.357592 a 18.770001,18.646326 0 0 0 9.386502,16.14369 l 55.226998,31.6788 a 18.770001,18.646326 0 0 0 18.773,0 l 55.227,-31.6788 A 18.770001,18.646326 0 0 0 170,129.67852 V 66.320928 a 18.770001,18.646326 0 0 0 -9.3865,-16.151706 l -55.227,-31.678793 a 18.770001,18.646326 0 0 0 -8.944875,-2.49042 z"
     style="opacity:0.2;fill:#000000;stroke-width:4.10554504;filter:url(#filter863)" />
  <path
     style="fill:#f69a15;fill-opacity:1;stroke-width:4.10554504"
     d="m 96.441625,14.000003 v 0.008 A 18.770001,18.646326 0 0 0 86.6135,16.490413 L 31.386502,48.16941 A 18.770001,18.646326 0 0 0 22,64.320922 v 63.357588 a 18.770001,18.646326 0 0 0 9.386502,16.14369 L 86.6135,175.501 a 18.770001,18.646326 0 0 0 18.773,0 l 55.227,-31.6788 A 18.770001,18.646326 0 0 0 170,127.67851 V 64.320922 a 18.770001,18.646326 0 0 0 -9.3865,-16.151706 l -55.227,-31.678793 a 18.770001,18.646326 0 0 0 -8.944875,-2.49042 z"
     id="path4"
     inkscape:connector-curvature="0" />
  <path
     inkscape:connector-curvature="0"
     style="opacity:0.2;fill:#ffffff;fill-opacity:1;stroke-width:4.10554504"
     d="m 96.441406,14 v 0.0078 a 18.770001,18.646326 0 0 0 -9.828125,2.482422 l -55.226562,31.6797 A 18.770001,18.646326 0 0 0 22,64.320312 v 1 a 18.770001,18.646326 0 0 1 9.386719,-16.15039 L 86.613281,17.490234 a 18.770001,18.646326 0 0 1 9.828125,-2.482422 V 15 a 18.770001,18.646326 0 0 1 8.945314,2.490234 l 55.22656,31.679688 A 18.770001,18.646326 0 0 1 170,65.320312 v -1 a 18.770001,18.646326 0 0 0 -9.38672,-16.15039 L 105.38672,16.490234 A 18.770001,18.646326 0 0 0 96.441406,14 Z"
     id="path897" />
  <path
     id="path902"
     d="m 92.095703,16.427625 a 18.770001,18.646326 0 0 0 -5.482422,2.0625 L 31.386719,50.169813 A 18.770001,18.646326 0 0 0 26.775391,53.912 l 32.785156,-0.0918 a 18.646326,18.770001 60 0 0 16.259765,-9.386718 z"
     style="opacity:0.1;fill:#000000;fill-opacity:1;stroke-width:4.10554504;filter:url(#filter916)"
     inkscape:connector-curvature="0" />
  <path
     inkscape:connector-curvature="0"
     style="fill:#dd571b;fill-opacity:1;stroke-width:4.10554504"
     d="m 92.095703,14.427734 a 18.770001,18.646326 0 0 0 -5.482422,2.0625 L 31.386719,48.169922 a 18.770001,18.646326 0 0 0 -4.611328,3.742187 l 32.785156,-0.0918 a 18.646326,18.770001 60 0 0 16.259765,-9.386718 z"
     id="path880" />
  <path
     inkscape:connector-curvature="0"
     id="path889"
     d="m 99.904297,177.57226 a 18.770001,18.646326 0 0 0 5.482423,-2.0625 l 55.22656,-31.67968 a 18.770001,18.646326 0 0 0 4.61133,-3.74219 l -32.78516,0.0918 a 18.646326,18.770001 60 0 0 -16.25976,9.38672 z"
     style="fill:#dd571b;fill-opacity:1;stroke-width:4.10554504" />
  <path
     id="path958"
     d="m 78.289062,57.999967 c -23.238428,0 -24.331483,0.02821 -24.882812,0.638672 -0.348075,0.385422 -0.490578,0.897438 -0.357422,1.291016 0.459392,1.357835 5.820387,13.459709 6.691406,15.105468 1.253701,2.368833 1.885892,2.941247 9.544922,2.964844 h 6.306641 l -0.162109,0.390625 c -0.08985,0.425896 -5.14392,13.313292 -11.230469,28.638678 -7.318057,18.42623 -11.08682,28.33529 -11.125,29.2539 -0.15976,1.74667 -0.16758,1.7168 1.498047,1.7168 h 58.007814 c 0.64804,-0.0504 1.41361,-0.36807 1.70117,-0.65625 0.46818,-0.46917 0.44051,-0.71265 -0.26563,-2.33398 -0.43371,-0.99586 -2.10535,-4.98681 -3.71289,-8.86719 -0.8903,-2.14908 -1.85403,-4.41516 -2.53711,-6.00977 -0.69034,-2.00931 -0.74738,-2.13281 -2.74023,-2.13281 H 94.21875 81.724609 c -0.310168,-0.37452 -0.09894,-1.86253 0.957032,-4.64062 2.307056,-6.06948 19.874599,-51.327825 20.449219,-52.681649 0.66296,-1.561961 0.66374,-1.475915 0.004,-2.136718 -0.48048,-0.481478 -3.207155,-0.541016 -24.845708,-0.541016 z m 31.484378,3.257812 c -0.18871,0.03776 -0.38944,0.160101 -0.61133,0.361329 -0.37423,0.339391 -0.67969,0.750124 -0.67969,0.912109 0,0.371183 -5.41495,15.111528 -7.27344,19.798828 l -1.390621,3.507813 1.218751,2.857421 c 0.67119,1.572597 5.26173,13.081271 10.20117,25.574221 4.93943,12.49295 9.13445,22.89975 9.32031,23.125 0.18587,0.22524 0.67466,0.46118 1.08594,0.52539 1.60861,0.25112 14.87943,-0.14101 15.72656,-0.46484 1.20565,-0.46087 1.8174,-1.7018 1.57618,-3.19141 -0.10767,-0.66493 -6.21458,-16.50896 -13.57227,-35.208985 -7.35769,-18.70003 -13.6484,-34.732479 -13.97852,-35.628907 -0.59861,-1.625577 -1.05692,-2.28125 -1.62304,-2.167969 z"
     style="opacity:0.2;fill:#000000;stroke-width:0.3437964;filter:url(#filter976)"
     inkscape:connector-curvature="0" />
  <path
     inkscape:connector-curvature="0"
     style="fill:#ffffff;stroke-width:0.3437964"
     d="m 78.289062,56 c -23.238428,0 -24.331483,0.02821 -24.882812,0.638672 -0.348075,0.385422 -0.490578,0.897438 -0.357422,1.291016 0.459392,1.357835 5.820387,13.459709 6.691406,15.105468 1.253701,2.368833 1.885892,2.941247 9.544922,2.964844 h 6.306641 l -0.162109,0.390625 c -0.08985,0.425896 -5.14392,13.313292 -11.230469,28.638675 -7.318057,18.42623 -11.08682,28.33529 -11.125,29.2539 -0.15976,1.74667 -0.16758,1.7168 1.498047,1.7168 h 58.007814 c 0.64804,-0.0504 1.41361,-0.36807 1.70117,-0.65625 0.46818,-0.46917 0.44051,-0.71265 -0.26563,-2.33398 -0.43371,-0.99586 -2.10535,-4.98681 -3.71289,-8.86719 -0.8903,-2.14908 -1.85403,-4.41516 -2.53711,-6.00977 C 107.07528,116.1235 107.01824,116 105.02539,116 H 94.21875 81.724609 c -0.310168,-0.37452 -0.09894,-1.86253 0.957032,-4.64062 2.307056,-6.06948 19.874599,-51.327822 20.449219,-52.681646 0.66296,-1.561961 0.66374,-1.475915 0.004,-2.136718 C 102.65429,56.059538 99.927615,56 78.289062,56 Z m 31.484378,3.257812 c -0.18871,0.03776 -0.38944,0.160101 -0.61133,0.361329 -0.37423,0.339391 -0.67969,0.750124 -0.67969,0.912109 0,0.371183 -5.41495,15.111528 -7.27344,19.798828 l -1.390621,3.507813 1.218751,2.857421 c 0.67119,1.572597 5.26173,13.081267 10.20117,25.574218 4.93943,12.49295 9.13445,22.89975 9.32031,23.125 0.18587,0.22524 0.67466,0.46118 1.08594,0.52539 1.60861,0.25112 14.87943,-0.14101 15.72656,-0.46484 1.20565,-0.46087 1.8174,-1.7018 1.57618,-3.19141 -0.10767,-0.66493 -6.21458,-16.50896 -13.57227,-35.208982 -7.35769,-18.70003 -13.6484,-34.732479 -13.97852,-35.628907 -0.59861,-1.625577 -1.05692,-2.28125 -1.62304,-2.167969 z"
     id="path947" />
</svg>
