<?xml version="1.0" encoding="UTF-8" standalone="no"?>
<svg
   xmlns:dc="http://purl.org/dc/elements/1.1/"
   xmlns:cc="http://creativecommons.org/ns#"
   xmlns:rdf="http://www.w3.org/1999/02/22-rdf-syntax-ns#"
   xmlns:svg="http://www.w3.org/2000/svg"
   xmlns="http://www.w3.org/2000/svg"
   xmlns:sodipodi="http://sodipodi.sourceforge.net/DTD/sodipodi-0.dtd"
   xmlns:inkscape="http://www.inkscape.org/namespaces/inkscape"
   width="192"
   height="192"
   version="1"
   id="svg72"
   sodipodi:docname="apps_dub_studio_eq.svg"
   inkscape:version="0.92.3 (2405546, 2018-03-11)">
  <metadata
     id="metadata78">
    <rdf:RDF>
      <cc:Work
         rdf:about="">
        <dc:format>image/svg+xml</dc:format>
        <dc:type
           rdf:resource="http://purl.org/dc/dcmitype/StillImage" />
      </cc:Work>
    </rdf:RDF>
  </metadata>
  <defs
     id="defs76">
    <filter
       inkscape:collect="always"
       style="color-interpolation-filters:sRGB"
       id="filter937"
       x="-0.048"
       width="1.096"
       y="-0.048"
       height="1.096">
      <feGaussianBlur
         inkscape:collect="always"
         stdDeviation="3.2"
         id="feGaussianBlur939" />
    </filter>
    <filter
       inkscape:collect="always"
       style="color-interpolation-filters:sRGB"
       id="filter956"
       x="-0.042"
       width="1.084"
       y="-0.056"
       height="1.112">
      <feGaussianBlur
         inkscape:collect="always"
         stdDeviation="0.84"
         id="feGaussianBlur958" />
    </filter>
    <filter
       inkscape:collect="always"
       style="color-interpolation-filters:sRGB"
       id="filter1046"
       x="-0.042692308"
       width="1.0853846"
       y="-0.016691729"
       height="1.0333835">
      <feGaussianBlur
         inkscape:collect="always"
         stdDeviation="0.925"
         id="feGaussianBlur1048" />
    </filter>
  </defs>
  <sodipodi:namedview
     pagecolor="#ffffff"
     bordercolor="#666666"
     borderopacity="1"
     objecttolerance="10"
     gridtolerance="10"
     guidetolerance="10"
     inkscape:pageopacity="0"
     inkscape:pageshadow="2"
     inkscape:window-width="1920"
     inkscape:window-height="1018"
     id="namedview74"
     showgrid="false"
     showguides="false"
     inkscape:zoom="1"
     inkscape:cx="96"
     inkscape:cy="96"
     inkscape:window-x="0"
     inkscape:window-y="32"
     inkscape:window-maximized="1"
     inkscape:current-layer="svg72" />
  <rect
     style="opacity:0.2;fill:#000000;stroke-width:4;filter:url(#filter937)"
     width="160"
     height="160"
     x="-180"
     y="-176"
     rx="8"
     ry="8"
     transform="matrix(0,-1,-1,0,0,0)"
     id="rect919" />
  <rect
     id="rect2"
     transform="matrix(0,-1,-1,0,0,0)"
     ry="8"
     rx="8"
     y="-176"
     x="-176"
     height="160"
     width="160"
     style="fill:#4f4f4f;stroke-width:4" />
  <path
     style="opacity:0.1;fill:#ffffff;stroke-width:4"
     d="M 24 16 C 19.568 16 16 19.568 16 24 L 16 25 C 16 20.568 19.568 17 24 17 L 168 17 C 172.432 17 176 20.568 176 25 L 176 24 C 176 19.568 172.432 16 168 16 L 24 16 z "
     id="path4" />
  <g
     id="g24"
     style="fill:#4fff4f"
     transform="scale(4)">
    <rect
       id="rect8"
       transform="scale(-1,1)"
       y="40"
       x="-12"
       height="2"
       width="6"
       style="fill:#4fff4f" />
    <rect
       id="rect10"
       transform="scale(-1,1)"
       y="40"
       x="-19"
       height="2"
       width="6"
       style="fill:#4fff4f" />
    <rect
       id="rect12"
       transform="scale(-1,1)"
       y="37"
       x="-12"
       height="2"
       width="6"
       style="fill:#4fff4f" />
    <rect
       id="rect14"
       transform="scale(-1,1)"
       y="37"
       x="-19"
       height="2"
       width="6"
       style="fill:#4fff4f" />
    <rect
       id="rect16"
       transform="scale(-1,1)"
       y="34"
       x="-12"
       height="2"
       width="6"
       style="fill:#4fff4f" />
    <rect
       id="rect18"
       transform="scale(-1,1)"
       y="34"
       x="-19"
       height="2"
       width="6"
       style="fill:#4fff4f" />
    <rect
       id="rect20"
       transform="scale(-1,1)"
       y="31"
       x="-12"
       height="2"
       width="6"
       style="fill:#4fff4f" />
    <rect
       id="rect22"
       transform="scale(-1,1)"
       y="31"
       x="-19"
       height="2"
       width="6"
       style="fill:#4fff4f" />
  </g>
  <g
     id="g42"
     style="fill:#ffdf42"
     transform="scale(4)">
    <rect
       id="rect26"
       transform="scale(-1,1)"
       y="28"
       x="-12"
       height="2"
       width="6"
       style="fill:#ffdf42" />
    <rect
       id="rect28"
       transform="scale(-1,1)"
       y="28"
       x="-19"
       height="2"
       width="6"
       style="fill:#ffdf42" />
    <rect
       id="rect30"
       transform="scale(-1,1)"
       y="25"
       x="-12"
       height="2"
       width="6"
       style="fill:#ffdf42" />
    <rect
       id="rect32"
       transform="scale(-1,1)"
       y="25"
       x="-19"
       height="2"
       width="6"
       style="fill:#ffdf42" />
    <rect
       id="rect34"
       transform="scale(-1,1)"
       y="22"
       x="-12"
       height="2"
       width="6"
       style="fill:#ffdf42" />
    <rect
       id="rect36"
       transform="scale(-1,1)"
       y="22"
       x="-19"
       height="2"
       width="6"
       style="fill:#ffdf42" />
    <rect
       id="rect38"
       transform="scale(-1,1)"
       y="19"
       x="-12"
       height="2"
       width="6"
       style="fill:#ffdf42" />
    <rect
       id="rect40"
       transform="scale(-1,1)"
       y="19"
       x="-19"
       height="2"
       width="6"
       style="fill:#ffdf42" />
  </g>
  <g
     id="g60"
     style="fill:#ff6565"
     transform="scale(4)">
    <rect
       id="rect44"
       transform="scale(-1,1)"
       y="16"
       x="-12"
       height="2"
       width="6"
       style="fill:#ff6565" />
    <rect
       id="rect46"
       transform="scale(-1,1)"
       y="16"
       x="-19"
       height="2"
       width="6"
       style="fill:#ff6565" />
    <rect
       id="rect48"
       transform="scale(-1,1)"
       y="13"
       x="-12"
       height="2"
       width="6"
       style="fill:#ff6565" />
    <rect
       id="rect50"
       transform="scale(-1,1)"
       y="13"
       x="-19"
       height="2"
       width="6"
       style="fill:#ff6565" />
    <rect
       id="rect52"
       transform="scale(-1,1)"
       y="10"
       x="-12"
       height="2"
       width="6"
       style="fill:#ff6565" />
    <rect
       id="rect54"
       transform="scale(-1,1)"
       y="10"
       x="-19"
       height="2"
       width="6"
       style="fill:#ff6565" />
    <rect
       id="rect56"
       transform="scale(-1,1)"
       y="7"
       x="-12"
       height="2"
       width="6"
       style="fill:#ff6565" />
    <rect
       id="rect58"
       transform="scale(-1,1)"
       y="7"
       x="-19"
       height="2"
       width="6"
       style="fill:#ff6565" />
  </g>
  <path
     inkscape:connector-curvature="0"
     id="path62"
     d="M 136,86.333336 V 163.60568 C 136,166.04014 133.15988,168 129.632,168 h -3.264 C 122.84013,168 120,166.04014 120,163.60568 V 86.333336 Z"
     style="fill:#9f9f9f;stroke-width:4;fill-opacity:1" />
  <path
     inkscape:connector-curvature="0"
     id="path64"
     d="m 126.375,28.000005 c -3.52787,0 -6.375,1.963331 -6.375,4.397785 v 53.935546 h 16 V 32.39779 c 0,-2.434454 -2.84712,-4.397785 -6.375,-4.397785 z"
     style="opacity:0.3;stroke-width:4" />
  <rect
     id="rect66"
     ry="12"
     rx="12"
     y="62"
     x="104"
     height="36"
     width="48"
     style="opacity:0.2;stroke-width:4;filter:url(#filter956)" />
  <rect
     id="rect68"
     ry="12"
     rx="12"
     y="60"
     x="104"
     height="36"
     width="48"
     style="fill:#ffffff;stroke-width:4" />
  <path
     style="fill:#000000;stroke-width:4;opacity:0.2;filter:url(#filter1046)"
     d="M 24 28 L 24 29 L 48 29 L 48 28 L 24 28 z M 52 28 L 52 29 L 76 29 L 76 28 L 52 28 z M 24 40 L 24 41 L 48 41 L 48 40 L 24 40 z M 52 40 L 52 41 L 76 41 L 76 40 L 52 40 z M 24 52 L 24 53 L 48 53 L 48 52 L 24 52 z M 52 52 L 52 53 L 76 53 L 76 52 L 52 52 z M 24 64 L 24 65 L 48 65 L 48 64 L 24 64 z M 52 64 L 52 65 L 76 65 L 76 64 L 52 64 z M 24 76 L 24 77 L 48 77 L 48 76 L 24 76 z M 52 76 L 52 77 L 76 77 L 76 76 L 52 76 z M 24 88 L 24 89 L 48 89 L 48 88 L 24 88 z M 52 88 L 52 89 L 76 89 L 76 88 L 52 88 z M 24 100 L 24 101 L 48 101 L 48 100 L 24 100 z M 52 100 L 52 101 L 76 101 L 76 100 L 52 100 z M 24 112 L 24 113 L 48 113 L 48 112 L 24 112 z M 52 112 L 52 113 L 76 113 L 76 112 L 52 112 z M 24 124 L 24 125 L 48 125 L 48 124 L 24 124 z M 52 124 L 52 125 L 76 125 L 76 124 L 52 124 z M 24 136 L 24 137 L 48 137 L 48 136 L 24 136 z M 52 136 L 52 137 L 76 137 L 76 136 L 52 136 z M 24 148 L 24 149 L 48 149 L 48 148 L 24 148 z M 52 148 L 52 149 L 76 149 L 76 148 L 52 148 z M 24 160 L 24 161 L 48 161 L 48 160 L 24 160 z M 52 160 L 52 161 L 76 161 L 76 160 L 52 160 z "
     id="rect960" />
</svg>
