<?xml version="1.0" encoding="UTF-8" standalone="no"?>
<svg
   xmlns:dc="http://purl.org/dc/elements/1.1/"
   xmlns:cc="http://creativecommons.org/ns#"
   xmlns:rdf="http://www.w3.org/1999/02/22-rdf-syntax-ns#"
   xmlns:svg="http://www.w3.org/2000/svg"
   xmlns="http://www.w3.org/2000/svg"
   xmlns:sodipodi="http://sodipodi.sourceforge.net/DTD/sodipodi-0.dtd"
   xmlns:inkscape="http://www.inkscape.org/namespaces/inkscape"
   width="192"
   height="192"
   version="1"
   id="svg32"
   sodipodi:docname="apps_bitmask.svg"
   inkscape:version="0.92.3 (2405546, 2018-03-11)">
  <metadata
     id="metadata38">
    <rdf:RDF>
      <cc:Work
         rdf:about="">
        <dc:format>image/svg+xml</dc:format>
        <dc:type
           rdf:resource="http://purl.org/dc/dcmitype/StillImage" />
      </cc:Work>
    </rdf:RDF>
  </metadata>
  <defs
     id="defs36">
    <filter
       inkscape:collect="always"
       style="color-interpolation-filters:sRGB"
       id="filter901"
       x="-0.048"
       width="1.096"
       y="-0.048"
       height="1.096">
      <feGaussianBlur
         inkscape:collect="always"
         stdDeviation="3.2"
         id="feGaussianBlur903" />
    </filter>
    <filter
       inkscape:collect="always"
       style="color-interpolation-filters:sRGB"
       id="filter917"
       x="-0.036"
       width="1.072"
       y="-0.072000002"
       height="1.144">
      <feGaussianBlur
         inkscape:collect="always"
         stdDeviation="1.92"
         id="feGaussianBlur919" />
    </filter>
    <filter
       inkscape:collect="always"
       style="color-interpolation-filters:sRGB"
       id="filter937"
       x="-0.027994457"
       width="1.0559889"
       y="-0.16819982"
       height="1.3363996">
      <feGaussianBlur
         inkscape:collect="always"
         stdDeviation="1.1197783"
         id="feGaussianBlur939" />
    </filter>
  </defs>
  <sodipodi:namedview
     pagecolor="#ffffff"
     bordercolor="#666666"
     borderopacity="1"
     objecttolerance="10"
     gridtolerance="10"
     guidetolerance="10"
     inkscape:pageopacity="0"
     inkscape:pageshadow="2"
     inkscape:window-width="1920"
     inkscape:window-height="1018"
     id="namedview34"
     showgrid="false"
     inkscape:zoom="1"
     inkscape:cx="96"
     inkscape:cy="98.744258"
     inkscape:window-x="0"
     inkscape:window-y="32"
     inkscape:window-maximized="1"
     inkscape:current-layer="svg32" />
  <rect
     style="opacity:0.2;fill:#000000;stroke-width:4;filter:url(#filter901)"
     width="160"
     height="160"
     x="-180"
     y="-176"
     rx="8"
     ry="8"
     transform="matrix(0,-1,-1,0,0,0)"
     id="rect850" />
  <path
     inkscape:connector-curvature="0"
     id="path4"
     d="m 168,176 c 2.216,0 4.21806,-0.88994 5.66406,-2.33594 L 96,96 v 80 z"
     style="fill:#53e1e0;stroke-width:4" />
  <path
     inkscape:connector-curvature="0"
     id="path6"
     d="m 24,16 c -2.216,0 -4.218062,0.889938 -5.664062,2.335938 L 96,96 V 16 Z"
     style="fill:#dd4d3e;stroke-width:4" />
  <path
     inkscape:connector-curvature="0"
     id="path8"
     d="m 168,16 c 2.216,0 4.21806,0.889938 5.66406,2.335938 L 96,96 V 16 Z"
     style="fill:#ea5bf5;stroke-width:4" />
  <path
     style="opacity:0.2;fill:#ffffff;stroke-width:4"
     d="M 24 16 C 19.568 16 16 19.568 16 24 L 16 25 C 16 20.568 19.568 17 24 17 L 168 17 C 172.432 17 176 20.568 176 25 L 176 24 C 176 19.568 172.432 16 168 16 L 24 16 z "
     id="path10" />
  <path
     inkscape:connector-curvature="0"
     id="path12"
     d="M 18.335938,18.335938 C 16.889938,19.781938 16,21.784 16,24 V 95.203124 L 16.796875,96 H 96 Z"
     style="fill:#ff9028;stroke-width:4" />
  <path
     inkscape:connector-curvature="0"
     id="path14"
     d="M 173.66406,18.335938 C 175.11006,19.781938 176,21.784 176,24 V 95.203124 L 175.20312,96 H 96 Z"
     style="fill:#963edd;stroke-width:4" />
  <path
     inkscape:connector-curvature="0"
     id="path16"
     d="m 24,176 c -2.216,0 -4.218062,-0.88994 -5.664062,-2.33594 L 96,96 v 80 z"
     style="fill:#6da933;stroke-width:4" />
  <path
     inkscape:connector-curvature="0"
     id="path18"
     d="M 18.335938,173.66406 C 16.889938,172.21806 16,170.216 16,168 V 96.796876 L 16.796875,96 H 96 Z"
     style="fill:#ffe950;stroke-width:4" />
  <path
     inkscape:connector-curvature="0"
     id="path20"
     d="M 173.66406,173.66406 C 175.11006,172.21806 176,170.216 176,168 V 96.796876 L 175.20312,96 H 96 Z"
     style="fill:#539ae1;stroke-width:4" />
  <path
     inkscape:connector-curvature="0"
     id="path22"
     d="m 53.11168,68.02173 c -1.588236,0.0276 -3.153228,0.26852 -4.671628,0.719268 -12.578167,3.737408 -19.387918,20.78016 -15.210121,38.066352 3.264162,13.47579 12.438305,23.56725 22.772217,25.0492 0,0 2.617996,0.18944 3.757612,0.13292 0.24216,0.0783 6.492916,-0.42265 9.702604,-1.69653 8.86358,-3.51772 17.840052,-10.2339 26.53764,-10.2339 8.697586,0 17.674056,6.71618 26.537636,10.2339 3.20969,1.27388 9.46043,1.77484 9.70261,1.69652 1.13961,0.0565 3.75761,-0.13292 3.75761,-0.13292 10.33391,-1.48194 19.50804,-11.5734 22.77221,-25.0492 4.1778,-17.28619 -2.63195,-34.328942 -15.21012,-38.06635 -1.5184,-0.450756 -3.08339,-0.691648 -4.67163,-0.719268 -2.68654,-0.14852 -4.49925,0.488444 -6.75744,1.180532 -0.25072,0.09124 -0.50074,0.18768 -0.74996,0.28928 -1.32983,0.520772 -2.78975,1.145484 -4.42164,2.05616 -8.42798,4.703204 -20.87593,12.485516 -30.959276,12.485516 -10.083348,0 -22.531304,-7.782312 -30.959276,-12.485516 -1.631892,-0.910676 -3.091816,-1.535388 -4.42164,-2.05616 -0.24924,-0.1016 -0.499264,-0.198 -0.74996,-0.28928 -2.511652,-1.231128 -4.374456,-1.0065 -6.757448,-1.180532 z"
     style="opacity:0.1;stroke-width:4;filter:url(#filter917)" />
  <path
     inkscape:connector-curvature="0"
     id="path24"
     d="m 53.11168,64.021728 c -1.588236,0.0276 -3.153228,0.26852 -4.671628,0.719268 -12.578167,3.737408 -19.387918,20.78016 -15.210121,38.066344 3.264162,13.4758 12.438305,23.56726 22.772217,25.04921 0,0 2.617996,0.18944 3.757612,0.13292 0.24216,0.0783 6.492916,-0.42265 9.702604,-1.69653 8.86358,-3.51772 17.840052,-10.23391 26.53764,-10.23391 8.697586,0 17.674056,6.71619 26.537636,10.23391 3.20969,1.27388 9.46043,1.77483 9.70261,1.69652 1.13961,0.0565 3.75761,-0.13292 3.75761,-0.13292 10.33391,-1.48195 19.50804,-11.57341 22.77221,-25.0492 4.1778,-17.286192 -2.63195,-34.328944 -15.21012,-38.066352 -1.5184,-0.450756 -3.08339,-0.691648 -4.67163,-0.719268 -2.68654,-0.14852 -4.49925,0.488444 -6.75744,1.180532 -0.25072,0.09124 -0.50074,0.18768 -0.74996,0.28928 -1.32983,0.520772 -2.78975,1.145484 -4.42164,2.05616 -8.42798,4.703204 -20.87593,12.485516 -30.959276,12.485516 -10.083348,0 -22.531304,-7.782312 -30.959276,-12.485516 -1.631892,-0.910676 -3.091816,-1.535388 -4.42164,-2.05616 -0.24924,-0.1016 -0.499264,-0.198 -0.74996,-0.28928 -2.511652,-1.231128 -4.374456,-1.0065 -6.757448,-1.180532 z"
     style="fill:#454545;stroke-width:4" />
  <path
     inkscape:connector-curvature="0"
     id="path26"
     d="M 57.406248,92.031308 C 51.637092,92.167348 48,96.843812 48,96.843812 48,101.924 55.399896,107.961 64.289064,107.961 73.178232,107.961 80,104.00146 80,103.64068 79.52284,95.53968 65.382776,91.489 57.406248,92.031308 Z m 77.187502,0 C 126.61722,91.489 112.47716,95.53968 112,103.64068 c 0,0.36076 6.82177,4.32032 15.71094,4.32032 8.88916,0 16.28906,-6.037 16.28906,-11.117188 0,0 -3.63709,-4.676464 -9.40625,-4.812504 z"
     style="opacity:0.2;stroke-width:4;filter:url(#filter937)" />
  <path
     inkscape:connector-curvature="0"
     id="path28"
     d="M 57.406248,88.031248 C 51.637092,88.167288 48,92.843752 48,92.843752 48,97.92394 55.399896,103.96094 64.289064,103.96094 73.178232,103.96094 80,100.0014 80,99.640624 79.52284,91.53962 65.382776,87.48894 57.406248,88.031248 Z m 77.187502,0 C 126.61722,87.48894 112.47716,91.53962 112,99.640624 c 0,0.360756 6.82177,4.320316 15.71094,4.320316 8.88916,0 16.28906,-6.037 16.28906,-11.117188 0,0 -3.63709,-4.676464 -9.40625,-4.812504 z"
     style="fill:#ffffff;stroke-width:4" />
</svg>
