<?xml version="1.0" encoding="UTF-8" standalone="no"?>
<svg
   xmlns:dc="http://purl.org/dc/elements/1.1/"
   xmlns:cc="http://creativecommons.org/ns#"
   xmlns:rdf="http://www.w3.org/1999/02/22-rdf-syntax-ns#"
   xmlns:svg="http://www.w3.org/2000/svg"
   xmlns="http://www.w3.org/2000/svg"
   xmlns:sodipodi="http://sodipodi.sourceforge.net/DTD/sodipodi-0.dtd"
   xmlns:inkscape="http://www.inkscape.org/namespaces/inkscape"
   width="192"
   height="192"
   version="1"
   id="svg30"
   sodipodi:docname="apps_slack.svg"
   inkscape:version="0.92.3 (2405546, 2018-03-11)">
  <metadata
     id="metadata36">
    <rdf:RDF>
      <cc:Work
         rdf:about="">
        <dc:format>image/svg+xml</dc:format>
        <dc:type
           rdf:resource="http://purl.org/dc/dcmitype/StillImage" />
      </cc:Work>
    </rdf:RDF>
  </metadata>
  <defs
     id="defs34">
    <filter
       inkscape:collect="always"
       style="color-interpolation-filters:sRGB"
       id="filter872"
       x="-0.048"
       width="1.096"
       y="-0.048"
       height="1.096">
      <feGaussianBlur
         inkscape:collect="always"
         stdDeviation="3.2"
         id="feGaussianBlur874" />
    </filter>
    <filter
       inkscape:collect="always"
       style="color-interpolation-filters:sRGB"
       id="filter891"
       x="-0.047998438"
       width="1.0959969"
       y="-0.048001562"
       height="1.0960031">
      <feGaussianBlur
         inkscape:collect="always"
         stdDeviation="2.4000781"
         id="feGaussianBlur893" />
    </filter>
  </defs>
  <sodipodi:namedview
     pagecolor="#ffffff"
     bordercolor="#666666"
     borderopacity="1"
     objecttolerance="10"
     gridtolerance="10"
     guidetolerance="10"
     inkscape:pageopacity="0"
     inkscape:pageshadow="2"
     inkscape:window-width="1920"
     inkscape:window-height="1018"
     id="namedview32"
     showgrid="false"
     inkscape:zoom="1"
     inkscape:cx="96"
     inkscape:cy="96"
     inkscape:window-x="0"
     inkscape:window-y="32"
     inkscape:window-maximized="1"
     inkscape:current-layer="svg30" />
  <rect
     id="rect2"
     ry="48"
     rx="48"
     y="20"
     x="16"
     height="160"
     width="160"
     style="opacity:0.2;stroke-width:4;filter:url(#filter872)" />
  <rect
     id="rect4"
     ry="48"
     rx="48"
     y="16"
     x="16"
     height="160"
     width="160"
     style="fill:#612862;stroke-width:4" />
  <path
     inkscape:connector-curvature="0"
     id="path6"
     d="m 80,40 c -6.604652,0 -12,5.395352 -12,12 0,6.604652 5.395348,12 12,12 H 92 V 52 C 92,45.395352 86.604648,40 80,40 Z m 32.00781,0 c -6.60465,0 -12,5.393628 -12,11.992188 v 32.015624 c 0,6.59856 5.39535,11.992188 12,11.992188 6.60465,0 12,-5.393628 12,-11.992188 V 51.992188 C 124.00781,45.393628 118.61246,40 112.00781,40 Z M 47.992188,72 C 41.393628,72 36,77.395348 36,84 c 0,6.604648 5.393628,12 11.992188,12 H 80.007812 C 86.606372,96 92,90.604648 92,84 92,77.395348 86.606372,72 80.007812,72 Z m 96.015622,0 c -6.60465,0 -12,5.395348 -12,12 v 12 h 12 c 6.60465,0 12,-5.395352 12,-12 0,-6.604652 -5.39535,-12 -12,-12 z M 48,104 c -6.604648,0 -12,5.39535 -12,12 0,6.60465 5.395352,12 12,12 6.604652,0 12,-5.39535 12,-12 v -12 z m 32,0 c -6.604652,0 -12,5.39363 -12,11.99219 v 32.01562 C 68,154.60637 73.395348,160 80,160 c 6.604648,0 12,-5.39363 12,-11.99219 V 115.99219 C 92,109.39363 86.604648,104 80,104 Z m 31.99219,0 C 105.39363,104 100,109.39535 100,116 c 0,6.60465 5.39363,12 11.99219,12 h 32.01562 C 150.60637,128 156,122.60465 156,116 c 0,-6.60465 -5.39363,-12 -11.99219,-12 z M 100,136 v 12 c 0,6.60465 5.39535,12 12,12 6.60465,0 12,-5.39535 12,-12 0,-6.60465 -5.39535,-12 -12,-12 z"
     style="opacity:0.2;stroke-width:4;filter:url(#filter891)" />
  <path
     style="opacity:0.1;fill:#ffffff;stroke-width:4"
     d="M 64 16 C 37.408 16 16 37.408 16 64 L 16 65 C 16 38.408 37.408 17 64 17 L 128 17 C 154.592 17 176 38.408 176 65 L 176 64 C 176 37.408 154.592 16 128 16 L 64 16 z "
     id="path8" />
  <path
     inkscape:connector-curvature="0"
     id="path10"
     d="m 60,112 c 0,6.60465 -5.395348,12 -12,12 -6.604648,0 -12,-5.39535 -12,-12 0,-6.60465 5.395352,-12 12,-12 h 12 z"
     class="st0"
     style="fill:#e01e5a;stroke-width:4" />
  <path
     inkscape:connector-curvature="0"
     id="path12"
     d="M 68,111.98893 C 68,105.39037 73.395348,100 80,100 c 6.604648,0 12,5.39037 12,11.98893 v 32.0206 c 0,6.59856 -5.395352,11.98894 -12,11.98894 -6.604652,0 -12,-5.39038 -12,-11.98894 z"
     class="st0"
     style="fill:#e01e5a;stroke-width:4" />
  <path
     inkscape:connector-curvature="0"
     id="path14"
     d="m 112,131.99924 c 6.60465,0 12,5.39534 12,12 0,6.60464 -5.39535,12 -12,12 -6.60465,0 -12,-5.39536 -12,-12 v -12 z"
     class="st0"
     style="fill:#ecb22e;stroke-width:4" />
  <path
     inkscape:connector-curvature="0"
     id="path16"
     d="m 111.98893,123.99924 c -6.59856,0 -11.98893,-5.39535 -11.98893,-12 0,-6.60465 5.39037,-12.000004 11.98893,-12.000004 h 32.0206 c 6.59856,0 11.98894,5.395354 11.98894,12.000004 0,6.60465 -5.39038,12 -11.98894,12 z"
     class="st0"
     style="fill:#ecb22e;stroke-width:4" />
  <path
     inkscape:connector-curvature="0"
     id="path18"
     d="m 132.01031,79.999232 c 0,-6.604652 5.39535,-12 12,-12 6.60465,0 12,5.395348 12,12 0,6.604648 -5.39535,12 -12,12 h -12 z"
     class="st0"
     style="fill:#2eb67d;stroke-width:4" />
  <path
     inkscape:connector-curvature="0"
     id="path20"
     d="m 124.01031,80.0103 c 0,6.59856 -5.39535,11.988932 -12,11.988932 -6.60465,0 -12,-5.390372 -12,-11.988932 V 47.9897 c 0,-6.59856 5.39535,-11.988936 12,-11.988936 6.60465,0 12,5.390376 12,11.988936 z"
     class="st0"
     style="fill:#2eb67d;stroke-width:4" />
  <path
     inkscape:connector-curvature="0"
     id="path22"
     d="m 79.998468,60 c -6.604652,0 -12,-5.395348 -12,-12 0,-6.604648 5.395348,-12 12,-12 6.604648,0 12,5.395352 12,12 v 12 z"
     class="st0"
     style="fill:#36c5f0;stroke-width:4" />
  <path
     inkscape:connector-curvature="0"
     id="path24"
     d="m 80.009536,68 c 6.59856,0 11.988932,5.395348 11.988932,12 0,6.604648 -5.390372,12 -11.988932,12 h -32.0206 C 41.390376,92 36,86.604648 36,80 36,73.395348 41.390376,68 47.988936,68 Z"
     class="st0"
     style="fill:#36c5f0;stroke-width:4" />
  <path
     style="opacity:0.2;fill:#ffffff;stroke-width:4"
     d="M 80 36 C 73.395348 36 68 41.395352 68 48 C 68 48.155823 68.018655 48.307205 68.027344 48.460938 C 68.313401 42.106183 73.577342 37 80 37 C 86.604648 37 92 42.395352 92 49 L 92 48 C 92 41.395352 86.604648 36 80 36 z M 112.00781 36 C 105.40316 36 100.00781 41.393628 100.00781 47.992188 L 100.00781 48.992188 C 100.00781 42.393628 105.40316 37 112.00781 37 C 118.61246 37 124.00781 42.393628 124.00781 48.992188 L 124.00781 47.992188 C 124.00781 41.393628 118.61246 36 112.00781 36 z M 47.992188 68 C 41.393628 68 36 73.395348 36 80 C 36 80.155823 36.018653 80.307205 36.027344 80.460938 C 36.313307 74.106179 41.575453 69 47.992188 69 L 80.007812 69 C 86.424547 69 91.686693 74.106179 91.972656 80.460938 C 91.981347 80.307205 92 80.155823 92 80 C 92 73.395348 86.606372 68 80.007812 68 L 47.992188 68 z M 144.00781 68 C 137.40316 68 132.00781 73.395348 132.00781 80 L 132.00781 81 C 132.00781 74.395348 137.40316 69 144.00781 69 C 150.43047 69 155.69441 74.106179 155.98047 80.460938 C 155.98915 80.307205 156.00781 80.155823 156.00781 80 C 156.00781 73.395348 150.61246 68 144.00781 68 z M 48 100 C 41.395352 100 36 105.39535 36 112 C 36 112.15582 36.018656 112.30721 36.027344 112.46094 C 36.313401 106.10618 41.577345 101 48 101 L 60 101 L 60 100 L 48 100 z M 80 100 C 73.395348 100 68 105.39363 68 111.99219 L 68 112.99219 C 68 106.39363 73.395348 101 80 101 C 86.604648 101 92 106.39363 92 112.99219 L 92 111.99219 C 92 105.39363 86.604648 100 80 100 z M 111.99219 100 C 105.39363 100 100 105.39535 100 112 C 100 112.15582 100.01865 112.30721 100.02734 112.46094 C 100.31331 106.10618 105.57545 101 111.99219 101 L 144.00781 101 C 150.42455 101 155.68669 106.10618 155.97266 112.46094 C 155.98135 112.30721 156 112.15582 156 112 C 156 105.39535 150.60637 100 144.00781 100 L 111.99219 100 z M 100 132 L 100 133 L 112 133 C 118.42266 133 123.6866 138.10618 123.97266 144.46094 C 123.98134 144.30721 124 144.15582 124 144 C 124 137.39535 118.60465 132 112 132 L 100 132 z "
     id="path26" />
</svg>
