<?xml version="1.0" encoding="UTF-8" standalone="no"?>
<svg
   xmlns:dc="http://purl.org/dc/elements/1.1/"
   xmlns:cc="http://creativecommons.org/ns#"
   xmlns:rdf="http://www.w3.org/1999/02/22-rdf-syntax-ns#"
   xmlns:svg="http://www.w3.org/2000/svg"
   xmlns="http://www.w3.org/2000/svg"
   xmlns:sodipodi="http://sodipodi.sourceforge.net/DTD/sodipodi-0.dtd"
   xmlns:inkscape="http://www.inkscape.org/namespaces/inkscape"
   width="192"
   height="192"
   version="1"
   id="svg12"
   sodipodi:docname="apps_evernote.svg"
   inkscape:version="0.92.3 (2405546, 2018-03-11)">
  <metadata
     id="metadata18">
    <rdf:RDF>
      <cc:Work
         rdf:about="">
        <dc:format>image/svg+xml</dc:format>
        <dc:type
           rdf:resource="http://purl.org/dc/dcmitype/StillImage" />
        <dc:title></dc:title>
      </cc:Work>
    </rdf:RDF>
  </metadata>
  <defs
     id="defs16">
    <filter
       inkscape:collect="always"
       style="color-interpolation-filters:sRGB"
       id="filter894"
       x="-0.05223487"
       width="1.1044697"
       y="-0.044400306"
       height="1.0888006">
      <feGaussianBlur
         inkscape:collect="always"
         stdDeviation="2.9599989"
         id="feGaussianBlur896" />
    </filter>
    <filter
       inkscape:collect="always"
       style="color-interpolation-filters:sRGB"
       id="filter921"
       x="-0.042000008"
       width="1.084"
       y="-0.055999987"
       height="1.112">
      <feGaussianBlur
         inkscape:collect="always"
         stdDeviation="0.27999725"
         id="feGaussianBlur923" />
    </filter>
  </defs>
  <sodipodi:namedview
     pagecolor="#ffffff"
     bordercolor="#666666"
     borderopacity="1"
     objecttolerance="10"
     gridtolerance="10"
     guidetolerance="10"
     inkscape:pageopacity="0"
     inkscape:pageshadow="2"
     inkscape:window-width="1920"
     inkscape:window-height="1018"
     id="namedview14"
     showgrid="false"
     inkscape:zoom="2.63"
     inkscape:cx="24"
     inkscape:cy="84.836502"
     inkscape:window-x="0"
     inkscape:window-y="32"
     inkscape:window-maximized="1"
     inkscape:current-layer="svg12" />
  <path
     id="path864"
     d="m 85.186902,20.017992 c -5.275947,-0.113199 -9.855901,0.362796 -11.727883,0.882791 -2.95197,0.793192 -6.251938,2.481575 -8.05992,5.05475 -1.231987,1.726382 -1.399986,3.94236 -1.399986,7.01553 0.048,5.799542 -0.072,10.599894 0,16.447036 0,3.263968 -3.119969,6.507935 -6.451935,6.583935 H 42.287329 c -3.262767,0 -5.740343,-0.072 -7.623924,0.771992 -1.903981,0.867991 -3.260367,1.98798 -4.273157,3.359966 -2.05358,2.695974 -2.390776,6.011941 -2.390776,9.399907 0,0 0.0228,2.715973 0.703193,8.099919 0.577994,4.179959 5.139148,33.163672 9.484305,41.939582 1.686383,3.43197 2.804372,4.85195 6.108339,6.36394 9.520306,2.23258 42.559577,14.98185 46.627536,8.01112 2.975971,-7.85592 4.455956,-20.81179 5.07595,-25.94774 0,3.46796 0.531995,15.20784 9.919905,18.49981 3.71996,1.29199 11.39188,2.43598 19.21181,3.32797 7.07992,0.79199 10.86789,3.53196 10.86789,21.39979 0,10.86389 -0.98799,12.77187 -13.08387,12.77187 -10.91589,0 -14.91585,0 -14.91585,-5.99994 0,-6.22394 3.99996,-5.99994 11.99988,-5.99994 V 140.0004 c -15.99984,0 -23.999765,0 -23.999765,18.82781 0,17.17183 6.479935,21.17179 29.147705,21.17179 17.77583,0 24.04777,-0.59999 31.38369,-22.99177 1.44799,-4.42796 4.98795,-17.93182 7.10793,-40.6236 1.33199,-14.32786 -1.28399,-57.587424 -3.36796,-68.555315 v -0.016 c -1.20399,-6.392736 -5.03595,-9.518305 -8.54392,-10.765093 -3.75996,-1.346386 -11.39589,-2.699173 -20.96379,-3.812362 -7.72392,-0.906791 -17.28383,-1.407986 -22.76377,-1.234388 0,-3.99996 -3.30797,-7.892321 -6.83594,-9.312307 -4.70395,-1.846782 -10.69189,-2.558774 -15.975838,-2.671973 z"
     inkscape:connector-curvature="0"
     style="opacity:0.2;fill:#000000;stroke-width:3.99996018;filter:url(#filter894)" />
  <path
     style="fill:#7ec242;stroke-width:3.99996018"
     inkscape:connector-curvature="0"
     d="m 85.186902,16.016832 c -5.275947,-0.113199 -9.855901,0.362796 -11.727883,0.882791 -2.95197,0.793192 -6.251938,2.481575 -8.05992,5.05475 -1.231987,1.726382 -1.399986,3.94236 -1.399986,7.01553 0.048,5.799542 -0.072,10.599894 0,16.447036 0,3.263968 -3.119969,6.507935 -6.451935,6.583935 H 42.287329 c -3.262767,0 -5.740343,-0.072 -7.623924,0.771992 -1.903981,0.867991 -3.260367,1.98798 -4.273157,3.359966 -2.05358,2.695974 -2.390776,6.011941 -2.390776,9.399907 0,0 0.0228,2.715973 0.703193,8.099919 0.577994,4.179959 5.139148,33.163672 9.484305,41.939582 1.686383,3.43197 2.804372,4.85195 6.108339,6.36394 9.520306,2.23258 42.559577,14.98185 46.627536,8.01112 2.975971,-7.85592 4.455956,-20.81179 5.07595,-25.94774 0,3.46796 0.531995,15.20784 9.919905,18.49981 3.71996,1.29199 11.39188,2.43598 19.21181,3.32797 7.07992,0.79199 10.86789,3.53196 10.86789,21.39979 0,10.86389 -0.98799,12.77187 -13.08387,12.77187 -10.91589,0 -14.91585,0 -14.91585,-5.99994 0,-6.22394 3.99996,-5.99994 11.99988,-5.99994 v -11.99988 c -15.99984,0 -23.999765,0 -23.999765,18.82781 0,17.17183 6.479935,21.17179 29.147705,21.17179 17.77583,0 24.04777,-0.59999 31.38369,-22.99177 1.44799,-4.42796 4.98795,-17.93182 7.10793,-40.6236 1.33199,-14.327855 -1.28399,-57.587424 -3.36796,-68.555315 v -0.016 c -1.20399,-6.392736 -5.03595,-9.518305 -8.54392,-10.765093 -3.75996,-1.346386 -11.39589,-2.699173 -20.96379,-3.812362 -7.72392,-0.906791 -17.28383,-1.407986 -22.76377,-1.234388 0,-3.99996 -3.30797,-7.892321 -6.83594,-9.312307 -4.70395,-1.846782 -10.69189,-2.558774 -15.975838,-2.671973 z"
     id="path2" />
  <path
     style="opacity:0.1;stroke-width:3.99996018;filter:url(#filter921)"
     inkscape:connector-curvature="0"
     d="m 139.99836,98 h -15.99984 c 0,-6.627538 3.58168,-11.999885 7.99992,-11.999885 4.41823,0 7.99992,5.372347 7.99992,11.999885 z"
     id="path4" />
  <path
     style="fill:#ffffff;stroke-width:3.99996018"
     inkscape:connector-curvature="0"
     d="m 139.99836,96.000436 h -15.99984 c 0,-6.627534 3.58168,-11.999881 7.99992,-11.999881 4.41823,0 7.99992,5.372347 7.99992,11.999881 z"
     id="path6" />
  <path
     style="opacity:0.2;fill:#ffffff;stroke-width:3.99996018"
     d="M 83.244141 16 C 78.807443 16.022383 75.096969 16.445395 73.458984 16.900391 C 70.507014 17.693583 67.206419 19.381903 65.398438 21.955078 C 64.16645 23.68146 64 25.897533 64 28.970703 C 64.003 29.3234 63.999125 29.632857 64 29.970703 C 64 26.897533 64.16645 24.68146 65.398438 22.955078 C 67.206419 20.381903 70.507014 18.693583 73.458984 17.900391 C 75.330966 17.380396 79.911553 16.904379 85.1875 17.017578 C 90.471448 17.130777 96.458159 17.842671 101.16211 19.689453 C 104.69008 21.109439 107.99805 25.001993 107.99805 29.001953 C 113.47799 28.828355 123.0378 29.329537 130.76172 30.236328 C 140.32962 31.349517 147.9666 32.702442 151.72656 34.048828 C 155.23453 35.295616 159.06554 38.420164 160.26953 44.8125 L 160.26953 44.830078 C 161.88703 53.345058 163.77648 81.035977 163.9375 99.816406 C 163.94464 100.21403 163.96103 100.64977 163.9668 101.04102 C 163.9428 82.301198 161.94951 52.672037 160.26953 43.828125 L 160.26953 43.8125 C 159.06554 37.420164 155.23453 34.295616 151.72656 33.048828 C 147.9666 31.702442 140.32962 30.349517 130.76172 29.236328 C 123.0378 28.329537 113.47799 27.828355 107.99805 28.001953 C 107.99805 24.001993 104.69008 20.109439 101.16211 18.689453 C 96.458159 16.842671 90.471448 16.130777 85.1875 16.017578 C 84.528007 16.003428 83.877955 15.996802 83.244141 16 z M 64 45.416016 C 64 48.679984 60.878841 51.924 57.546875 52 L 42.287109 52 C 39.025542 52 36.547644 51.929445 34.664062 52.773438 C 32.760081 53.641429 31.403415 54.760827 30.390625 56.132812 C 28.337045 58.828786 28 62.145237 28 65.533203 C 28 65.533203 28.00888 65.739028 28.009766 65.765625 C 28.06434 62.647497 28.492725 59.624408 30.390625 57.132812 C 31.403415 55.760827 32.760081 54.641429 34.664062 53.773438 C 36.547644 52.929445 39.025542 53.001953 42.287109 53.001953 L 57.546875 53.001953 C 60.878841 52.925953 64 49.681937 64 46.417969 C 64.001253 46.091526 64 45.747659 64 45.416016 z M 119.99805 136 C 103.99821 136 95.998047 136.00032 95.998047 154.82812 C 95.998047 154.94739 96.011523 155.04346 96.017578 155.15234 C 96.218871 137.03519 104.2021 137 119.99805 137 L 119.99805 136 z M 135.95117 149.77148 C 135.72717 158.3234 133.95795 160 122.91406 160 C 113.33415 160 109.08349 159.99932 108.1875 155.94336 C 108.0595 156.53535 107.99805 157.22001 107.99805 158 C 107.99805 158.1705 108.013 158.31952 108.01953 158.48047 C 108.04155 157.91957 108.08979 157.39526 108.1875 156.94336 C 109.08349 160.99932 113.33415 161 122.91406 161 C 133.95795 161 135.72717 159.3234 135.95117 150.77148 C 135.9572 151.1572 135.97476 151.50169 135.98633 151.86914 C 135.98738 151.64043 135.99805 151.46569 135.99805 151.22852 C 135.99805 150.68852 135.95917 150.28348 135.95117 149.77148 z "
     id="path8" />
</svg>
