<?xml version="1.0" encoding="UTF-8" standalone="no"?>
<svg
   xmlns:dc="http://purl.org/dc/elements/1.1/"
   xmlns:cc="http://creativecommons.org/ns#"
   xmlns:rdf="http://www.w3.org/1999/02/22-rdf-syntax-ns#"
   xmlns:svg="http://www.w3.org/2000/svg"
   xmlns="http://www.w3.org/2000/svg"
   xmlns:sodipodi="http://sodipodi.sourceforge.net/DTD/sodipodi-0.dtd"
   xmlns:inkscape="http://www.inkscape.org/namespaces/inkscape"
   width="192"
   height="192"
   version="1"
   id="svg45"
   sodipodi:docname="apps_browser_du.svg"
   inkscape:version="0.92.3 (2405546, 2018-03-11)">
  <metadata
     id="metadata51">
    <rdf:RDF>
      <cc:Work
         rdf:about="">
        <dc:format>image/svg+xml</dc:format>
        <dc:type
           rdf:resource="http://purl.org/dc/dcmitype/StillImage" />
      </cc:Work>
    </rdf:RDF>
  </metadata>
  <defs
     id="defs49">
    <filter
       inkscape:collect="always"
       style="color-interpolation-filters:sRGB"
       id="filter891"
       x="-0.0368"
       width="1.0736"
       y="-0.069"
       height="1.138">
      <feGaussianBlur
         inkscape:collect="always"
         stdDeviation="1.84"
         id="feGaussianBlur893" />
    </filter>
    <filter
       inkscape:collect="always"
       style="color-interpolation-filters:sRGB"
       id="filter919"
       x="-0.048"
       width="1.096"
       y="-0.048"
       height="1.096">
      <feGaussianBlur
         inkscape:collect="always"
         stdDeviation="0.48"
         id="feGaussianBlur921" />
    </filter>
    <filter
       inkscape:collect="always"
       style="color-interpolation-filters:sRGB"
       id="filter935"
       x="-0.048"
       width="1.096"
       y="-0.048"
       height="1.096">
      <feGaussianBlur
         inkscape:collect="always"
         stdDeviation="0.48"
         id="feGaussianBlur937" />
    </filter>
    <filter
       inkscape:collect="always"
       style="color-interpolation-filters:sRGB"
       id="filter955"
       x="-0.048"
       width="1.096"
       y="-0.048"
       height="1.096">
      <feGaussianBlur
         inkscape:collect="always"
         stdDeviation="2.88"
         id="feGaussianBlur957" />
    </filter>
    <filter
       inkscape:collect="always"
       style="color-interpolation-filters:sRGB"
       id="filter975"
       x="-0.033664309"
       width="1.0673286"
       y="-0.083600746"
       height="1.1672015">
      <feGaussianBlur
         inkscape:collect="always"
         stdDeviation="1.4232812"
         id="feGaussianBlur977" />
    </filter>
    <filter
       inkscape:collect="always"
       style="color-interpolation-filters:sRGB"
       id="filter1000"
       x="-0.048"
       width="1.096"
       y="-0.048"
       height="1.096">
      <feGaussianBlur
         inkscape:collect="always"
         stdDeviation="0.96"
         id="feGaussianBlur1002" />
    </filter>
    <filter
       inkscape:collect="always"
       style="color-interpolation-filters:sRGB"
       id="filter1016"
       x="-0.048"
       width="1.096"
       y="-0.048"
       height="1.096">
      <feGaussianBlur
         inkscape:collect="always"
         stdDeviation="0.96"
         id="feGaussianBlur1018" />
    </filter>
  </defs>
  <sodipodi:namedview
     pagecolor="#ffffff"
     bordercolor="#666666"
     borderopacity="1"
     objecttolerance="10"
     gridtolerance="10"
     guidetolerance="10"
     inkscape:pageopacity="0"
     inkscape:pageshadow="2"
     inkscape:window-width="1920"
     inkscape:window-height="1018"
     id="namedview47"
     showgrid="false"
     inkscape:zoom="1"
     inkscape:cx="96"
     inkscape:cy="96"
     inkscape:window-x="0"
     inkscape:window-y="32"
     inkscape:window-maximized="1"
     inkscape:current-layer="svg45" />
  <ellipse
     ry="32"
     rx="60"
     cy="148"
     cx="96"
     style="opacity:0.2;stroke-width:4;filter:url(#filter891)"
     id="ellipse2" />
  <path
     inkscape:connector-curvature="0"
     id="path3"
     d="m 156,144 c 0,9.90537 -8.43857,18.75958 -21.69074,24.62931 C 123.91697,173.23232 110.56451,169.2 96,169.2 81.962836,169.2 69.05154,173.42912 58.831144,169.122 44.92458,163.26154 36,154.18662 36,144 c 0,-17.67311 26.862916,-32 60,-32 33.13708,0 60,14.32689 60,32 z"
     style="fill:#e4e4e4;stroke-width:4" />
  <path
     inkscape:connector-curvature="0"
     id="path5"
     d="m 96,156 v 20 a 60,32 0 0 0 32,-4.94531 V 156 Z"
     style="fill:#3b8bff;stroke-width:4" />
  <circle
     id="circle7"
     r="24"
     cy="48"
     cx="48"
     style="opacity:0.2;stroke-width:4;filter:url(#filter1016)" />
  <circle
     id="circle9"
     r="24"
     cy="44"
     cx="48"
     style="fill:#e4e4e4;stroke-width:4" />
  <path
     style="opacity:0.2;fill:#ffffff;stroke-width:4"
     d="M 48 20 A 24 24 0 0 0 24 44 A 24 24 0 0 0 24.021484 44.412109 A 24 24 0 0 1 48 21 A 24 24 0 0 1 71.974609 44.496094 A 24 24 0 0 0 72 44 A 24 24 0 0 0 48 20 z "
     id="path11" />
  <circle
     id="circle13"
     r="24"
     cy="48"
     cx="144"
     style="opacity:0.2;stroke-width:4;filter:url(#filter1000)" />
  <circle
     id="circle15"
     r="24"
     cy="44"
     cx="144"
     style="fill:#e4e4e4;stroke-width:4" />
  <path
     style="opacity:0.2;fill:#ffffff;stroke-width:4"
     d="M 144 20 A 24 24 0 0 0 120 44 A 24 24 0 0 0 120.02148 44.412109 A 24 24 0 0 1 144 21 A 24 24 0 0 1 167.97461 44.496094 A 24 24 0 0 0 168 44 A 24 24 0 0 0 144 20 z "
     id="path17" />
  <path
     inkscape:connector-curvature="0"
     id="path19"
     d="m 64,156 v 15.03125 A 60,32 0 0 0 96,176 v -20 z"
     style="fill:#ff5b56;stroke-width:4" />
  <rect
     id="rect21"
     transform="matrix(0,-1,-1,0,0,0)"
     ry="72"
     rx="72"
     y="-168"
     x="-168"
     height="144"
     width="144"
     style="opacity:0.2;stroke-width:4;filter:url(#filter955)" />
  <rect
     id="rect23"
     transform="matrix(0,-1,-1,0,0,0)"
     ry="72"
     rx="72"
     y="-168"
     x="-164"
     height="144"
     width="144"
     style="fill:#e8e8e8;stroke-width:4" />
  <circle
     id="circle25"
     r="12"
     cy="164"
     cx="60"
     style="opacity:0.2;stroke-width:4;filter:url(#filter935)" />
  <circle
     id="circle27"
     r="12"
     cy="160"
     cx="60"
     style="fill:#e8e8e8;stroke-width:4" />
  <circle
     id="circle29"
     r="12"
     cy="164"
     cx="132"
     style="opacity:0.2;stroke-width:4;filter:url(#filter919)" />
  <circle
     id="circle31"
     r="12"
     cy="160"
     cx="132"
     style="fill:#e8e8e8;stroke-width:4" />
  <path
     style="opacity:0.2;fill:#ffffff;stroke-width:4"
     d="M 96 20 C 56.112 20 24 52.112 24 92 C 24 92.125068 24.010856 92.247262 24.015625 92.371094 C 24.352747 52.776483 56.322914 21 96 21 C 135.67709 21 167.64725 52.776483 167.98438 92.371094 C 167.98914 92.247262 168 92.125068 168 92 C 168 52.112 135.888 20 96 20 z "
     id="path33" />
  <rect
     id="rect35"
     transform="matrix(0,-1,-1,0,0,0)"
     ry="56"
     rx="56"
     y="-152"
     x="-148"
     height="112"
     width="112"
     style="fill:#3b8bff;stroke-width:4" />
  <path
     inkscape:connector-curvature="0"
     id="path37"
     d="m 97.601564,96 a 64,42 0 0 0 -52.9375,18.40625 C 53.278592,134.20667 72.9577,148 96,148 c 23.8476,0 44.06844,-14.78484 52.17188,-35.70312 A 64,42 0 0 0 97.601564,96 Z"
     style="opacity:0.3;fill:#080808;stroke-width:4" />
  <path
     inkscape:connector-curvature="0"
     id="path39"
     d="m 98.140624,99.867188 c -11.03714,5.76e-4 -23.692372,1.743192 -32.35156,6.492192 0.1646,0.8169 0.867216,1.03821 3.148436,1.00781 2.61632,-0.0348 2.9375,0.11336 2.9375,1.32031 0,0.74578 0.547332,2.04699 1.210936,2.89062 0.663608,0.84364 1.391148,2.27131 1.617188,3.17188 0.461328,1.83807 0.917516,3.05583 4.02344,4.45312 1.847908,0.83135 2.63176,0.86086 5.1875,0.21092 1.65752,-0.42148 3.613864,-1.36386 4.343748,-2.09375 l 1.328124,-1.32812 H 87.625 c -3.570912,0 -5.239392,-3.96122 -2.359376,-5.27344 1.346436,-0.61348 1.785712,-0.50677 3.14844,0.77344 0.971872,0.91303 3.775876,2.09509 7.273436,3.0625 l 5.6875,1.57031 1.44531,3.73438 c 1.2964,3.36316 2.74829,5.29687 3.98438,5.29687 0.24484,0 0.63171,-1.40511 0.86719,-3.11719 l 0.42968,-2.3125 h 4.80469 c 4.66844,0 4.85217,-0.73643 6.90625,1.38282 1.74539,1.80081 2.56068,2.17187 4.69531,2.17187 1.80723,0 2.93204,0.38688 3.73438,1.27344 1.13951,1.25914 1.15284,1.25326 2.36719,0.0392 1.21434,-1.21435 1.20962,-1.23149 -0.42969,-3.17969 -0.90734,-1.07831 -1.64844,-2.21509 -1.64844,-2.53125 0,-0.31612 1.43804,-0.57813 3.19531,-0.57813 2.15015,0 3.87795,-0.42476 5.28906,-1.29687 1.15327,-0.71276 2.10157,-1.44231 2.10157,-1.61719 0,-0.17488 -0.56517,-1.02781 -1.25,-1.89844 -0.68483,-0.87073 -1.24219,-1.82106 -1.24219,-2.1173 0,-1.03809 2.93112,-0.52977 4.04688,0.70312 1.31371,1.45163 2.17968,1.60321 2.17968,0.3828 -13.43764,-8.44319 -30.26971,-12.544504 -44.710936,-12.593744 z m -40.234376,9.476562 c -0.962772,0.2032 -2.376416,1.057 -5.546872,2.97656 -2.542804,1.53955 -5.030464,3.19946 -6.609376,4.35157 4.963788,10.13113 12.86118,18.51998 22.640624,24.05468 0.23224,-1.55142 0.37384,-3.47067 0.375,-5.54687 0.0029,-5.19002 0.06944,-5.42401 2.0625,-7.59375 1.673136,-1.82147 2.658732,-2.32296 5.289064,-2.67188 4.306808,-0.57132 4.178936,-1.67854 -0.484376,-4.16406 -2.1937,-1.16924 -3.885228,-2.52393 -4.117188,-3.30469 -0.21624,-0.72782 -0.969644,-2.51347 -1.679688,-3.96875 -1.280448,-2.62434 -1.323212,-2.64062 -4.640624,-2.64062 -1.839604,0 -4.198036,-0.44442 -5.242188,-0.98438 -0.469548,-0.2428 -0.827708,-0.42702 -1.1875,-0.50781 -0.26984,-0.0606 -0.538448,-0.0678 -0.859376,0 z m 88.468752,4.9375 c -0.2782,-0.0522 -0.50628,-0.0328 -0.63281,0.0938 -0.21328,0.21328 -0.0767,0.76704 0.30468,1.22656 0.14668,0.17676 0.3552,0.2402 0.53906,0.35936 0.20664,-0.43729 0.43723,-0.8612 0.63281,-1.30469 -0.28408,-0.15376 -0.57774,-0.32512 -0.84375,-0.375 z m -5.89844,6.92187 c -0.61335,0.1604 -1.43043,0.80541 -1.82031,1.42969 -0.61657,0.98728 -0.46115,1.17965 1.17969,1.50781 0.61706,0.1234 1.13879,0.37128 1.53125,0.67969 0.53184,-0.73533 1.05837,-1.47255 1.55469,-2.23437 -0.83514,-0.91058 -1.7775,-1.55745 -2.44532,-1.38282 z m -19.78125,5.23438 c -0.49984,0.0156 -0.81755,0.25504 -1.28125,0.71875 -0.9539,0.9539 -0.84185,1.233 1.59375,4 1.44184,1.63801 3.65234,3.59358 4.91407,4.34375 1.10224,0.65536 2.38815,0.98352 3.8125,1.17969 0.62946,-0.47518 1.29022,-0.91325 1.89843,-1.41407 -0.16048,-0.0428 -0.37364,-0.13 -0.47656,-0.1328 -1.05671,-0.0292 -4.71538,-4.20464 -5.14063,-5.86718 -0.21696,-0.84817 -1.26004,-1.63584 -2.95312,-2.22656 -1.18298,-0.41274 -1.86734,-0.61704 -2.36719,-0.60157 z m 16.96875,2.04688 c -0.51126,0.0566 -1.22102,0.3602 -2.42968,0.94531 -1.50664,0.72935 -3.12074,1.32812 -3.58594,1.32812 -0.54835,0 -0.33076,0.54565 0.61718,1.55469 0.47068,0.50102 0.94003,0.85432 1.40626,1.10156 1.65976,-1.50971 3.23575,-3.09864 4.70312,-4.79687 -0.20944,-0.11104 -0.43178,-0.16376 -0.71094,-0.1328 z"
     style="opacity:0.2;stroke-width:4;filter:url(#filter975)" />
  <path
     inkscape:connector-curvature="0"
     id="path41"
     d="m 98.140624,96.046876 c -2.10656,1.08e-4 -4.384776,0.0752 -6.656248,0.15624 a 64,42 0 0 0 -0.27344,0.008 64,42 0 0 0 -26.554688,5.851564 c 0.66482,0.73212 2.398796,1.50946 4.281252,1.48438 2.61632,-0.0348 2.9375,0.11336 2.9375,1.32031 0,0.74577 0.547332,2.04699 1.210936,2.89062 0.663608,0.84364 1.391148,2.27131 1.617188,3.17188 0.461328,1.83807 0.917516,3.05583 4.02344,4.45312 1.847908,0.83135 2.63176,0.86086 5.1875,0.21092 1.65752,-0.42149 3.613864,-1.36386 4.343748,-2.09375 l 1.328124,-1.32812 H 87.625 c -3.570912,0 -5.239392,-3.96122 -2.359376,-5.27344 1.346436,-0.61348 1.785712,-0.50678 3.14844,0.77344 0.971872,0.91303 3.775876,2.09509 7.273436,3.0625 l 5.6875,1.57031 1.44531,3.73437 c 1.2964,3.36317 2.74829,5.29688 3.98438,5.29688 0.24484,0 0.63171,-1.40511 0.86719,-3.11719 l 0.42968,-2.3125 h 4.80469 c 4.66844,0 4.85217,-0.73643 6.90625,1.38281 1.74539,1.80082 2.56068,2.17188 4.69531,2.17188 1.80723,0 2.93204,0.38688 3.73438,1.27344 1.13951,1.25914 1.15284,1.25326 2.36719,0.0392 1.21434,-1.21435 1.20962,-1.23149 -0.42969,-3.17969 -0.90734,-1.07831 -1.64844,-2.21509 -1.64844,-2.53125 0,-0.31612 1.43804,-0.57812 3.19531,-0.57812 2.15015,0 3.87795,-0.42476 5.28906,-1.29688 1.15327,-0.71276 2.10157,-1.44231 2.10157,-1.61719 0,-0.17488 -0.56517,-1.02781 -1.25,-1.89843 -0.68483,-0.87062 -1.24219,-1.82095 -1.24219,-2.11719 0,-1.03809 2.93112,-0.52977 4.04688,0.70312 0.79225,0.87543 1.90678,0.84565 2.70312,0.45313 A 64,42 0 0 0 105.6875,96.367488 c -0.54419,-0.0392 -1.10273,-0.10184 -1.64062,-0.1328 a 64,42 0 0 0 -1.38282,-0.05468 c -1.5339,-0.06896 -3.059596,-0.1278 -4.523436,-0.1328 z m -39.671872,8.789064 a 64,42 0 0 0 -13.804688,9.57031 c 1.434296,3.29672 3.198732,6.40821 5.210936,9.33594 0.30588,0.44253 0.595768,0.89509 0.914064,1.32812 0.35844,0.49067 0.743332,0.9592 1.117184,1.4375 0.541796,0.68865 1.083144,1.37724 1.656252,2.03907 0.27772,0.32292 0.574456,0.62892 0.859376,0.94531 0.738416,0.81437 1.488528,1.6211 2.273436,2.39062 0.15348,0.15148 0.31352,0.2956 0.468752,0.44531 0.98504,0.94376 1.994808,1.8637 3.046872,2.73438 2.280524,1.88734 4.710096,3.60141 7.27344,5.11719 0.734096,-1.17877 1.278964,-4.70774 1.281248,-8.82031 0.0029,-5.19002 0.06944,-5.42402 2.0625,-7.59376 1.673136,-1.82146 2.658732,-2.32295 5.289064,-2.67187 4.306808,-0.57133 4.178936,-1.67855 -0.484376,-4.16406 -2.1937,-1.16924 -3.885228,-2.52393 -4.117188,-3.30469 -0.21624,-0.72782 -0.969644,-2.51348 -1.679688,-3.96875 -1.280448,-2.62434 -1.323212,-2.64063 -4.640624,-2.64063 -1.839604,0 -4.198036,-0.44441 -5.242188,-0.98437 -0.14752,-0.0763 -0.888216,-0.70079 -1.484372,-1.19531 z m 87.398438,5.70312 c -0.0324,0.0168 -0.10008,-0.009 -0.125,0.0156 -0.21328,0.21328 -0.0767,0.76704 0.30468,1.22656 0.56657,0.68269 1.51238,0.937 2.03125,0.72657 0.0252,-0.0642 0.061,-0.1232 0.0859,-0.18748 0.003,-0.008 0.005,-0.0156 0.008,-0.0236 a 64,42 0 0 0 -2.30469,-1.75781 z m -5.39063,6.84375 c -0.61335,0.1604 -1.43043,0.80541 -1.82031,1.42969 -0.61657,0.98728 -0.46115,1.17965 1.17969,1.50781 1.14739,0.22948 2.00972,0.85418 2.20312,1.59375 0.0978,0.37384 0.34792,0.71143 0.63282,0.99219 0.52165,-0.78973 1.01788,-1.59681 1.5,-2.41406 -0.88206,-1.71482 -2.64592,-3.3838 -3.69532,-3.10938 z m -19.78125,5.23438 c -0.49984,0.0156 -0.81755,0.25504 -1.28125,0.71875 -0.9539,0.9539 -0.84185,1.233 1.59375,4 1.44184,1.638 3.65234,3.59358 4.91407,4.34375 1.58085,0.93992 3.35911,1.37323 5.71874,1.39843 1.50442,0.016 2.18655,6.4e-4 2.5,-0.0859 0.0621,-0.0578 0.12568,-0.1138 0.18748,-0.17188 -0.077,-0.13032 -0.31224,-0.30332 -0.82031,-0.59374 -0.85604,-0.48936 -1.91308,-0.90207 -2.35156,-0.91407 -1.05671,-0.0292 -4.71538,-4.20465 -5.14063,-5.86719 -0.21696,-0.84816 -1.26004,-1.63584 -2.95312,-2.22656 -1.18298,-0.41274 -1.86734,-0.61703 -2.36719,-0.60156 z m 16.96875,2.04687 c -0.51126,0.0566 -1.22102,0.3602 -2.42968,0.94532 -1.50664,0.72935 -3.12074,1.32812 -3.58594,1.32812 -0.54835,0 -0.33076,0.54565 0.61718,1.55469 1.9766,2.10399 3.89795,1.97121 5.89844,-0.40625 1.45686,-1.73136 1.54669,-2.0705 0.73438,-2.88282 -0.40616,-0.40616 -0.72312,-0.59571 -1.23438,-0.53906 z"
     style="fill:#7db3fe;stroke-width:4" />
</svg>
