<?xml version="1.0" encoding="UTF-8" standalone="no"?>
<svg
   xmlns:dc="http://purl.org/dc/elements/1.1/"
   xmlns:cc="http://creativecommons.org/ns#"
   xmlns:rdf="http://www.w3.org/1999/02/22-rdf-syntax-ns#"
   xmlns:svg="http://www.w3.org/2000/svg"
   xmlns="http://www.w3.org/2000/svg"
   xmlns:sodipodi="http://sodipodi.sourceforge.net/DTD/sodipodi-0.dtd"
   xmlns:inkscape="http://www.inkscape.org/namespaces/inkscape"
   width="192"
   height="192"
   version="1"
   id="svg12"
   sodipodi:docname="apps_nova_launcher.svg"
   inkscape:version="0.92.3 (2405546, 2018-03-11)">
  <metadata
     id="metadata18">
    <rdf:RDF>
      <cc:Work
         rdf:about="">
        <dc:format>image/svg+xml</dc:format>
        <dc:type
           rdf:resource="http://purl.org/dc/dcmitype/StillImage" />
        <dc:title />
      </cc:Work>
    </rdf:RDF>
  </metadata>
  <defs
     id="defs16">
    <filter
       inkscape:collect="always"
       style="color-interpolation-filters:sRGB"
       id="filter871"
       x="-0.077333334"
       width="1.1546667"
       y="-0.0348"
       height="1.0696">
      <feGaussianBlur
         inkscape:collect="always"
         stdDeviation="2.32"
         id="feGaussianBlur873" />
    </filter>
    <filter
       inkscape:collect="always"
       style="color-interpolation-filters:sRGB"
       id="filter893"
       x="-0.03826618"
       width="1.0765324"
       y="-0.06437521"
       height="1.1287504">
      <feGaussianBlur
         inkscape:collect="always"
         stdDeviation="2.5510787"
         id="feGaussianBlur895" />
    </filter>
    <filter
       inkscape:collect="always"
       style="color-interpolation-filters:sRGB"
       id="filter911"
       x="-0.037573488"
       width="1.075147"
       y="-0.066435666"
       height="1.1328713">
      <feGaussianBlur
         inkscape:collect="always"
         stdDeviation="2.5048992"
         id="feGaussianBlur913" />
    </filter>
    <filter
       inkscape:collect="always"
       style="color-interpolation-filters:sRGB"
       id="filter880"
       x="-0.048247766"
       width="1.0964955"
       y="-0.047754766"
       height="1.0955095">
      <feGaussianBlur
         inkscape:collect="always"
         stdDeviation="0.96986324"
         id="feGaussianBlur882" />
    </filter>
  </defs>
  <sodipodi:namedview
     pagecolor="#ffffff"
     bordercolor="#666666"
     borderopacity="1"
     objecttolerance="10"
     gridtolerance="10"
     guidetolerance="10"
     inkscape:pageopacity="0"
     inkscape:pageshadow="2"
     inkscape:window-width="1920"
     inkscape:window-height="1018"
     id="namedview14"
     showgrid="true"
     inkscape:zoom="4.98"
     inkscape:cx="102.44364"
     inkscape:cy="94.483476"
     inkscape:window-x="0"
     inkscape:window-y="32"
     inkscape:window-maximized="1"
     inkscape:current-layer="svg12">
    <inkscape:grid
       type="xygrid"
       id="grid852" />
  </sodipodi:namedview>
  <path
     style="color:#000000;font-style:normal;font-variant:normal;font-weight:normal;font-stretch:normal;font-size:medium;line-height:normal;font-family:sans-serif;font-variant-ligatures:normal;font-variant-position:normal;font-variant-caps:normal;font-variant-numeric:normal;font-variant-alternates:normal;font-feature-settings:normal;text-indent:0;text-align:start;text-decoration:none;text-decoration-line:none;text-decoration-style:solid;text-decoration-color:#000000;letter-spacing:normal;word-spacing:normal;text-transform:none;writing-mode:lr-tb;direction:ltr;text-orientation:mixed;dominant-baseline:auto;baseline-shift:baseline;text-anchor:start;white-space:normal;shape-padding:0;clip-rule:nonzero;display:inline;overflow:visible;visibility:visible;opacity:0.2;isolation:auto;mix-blend-mode:normal;color-interpolation:sRGB;color-interpolation-filters:linearRGB;solid-color:#000000;solid-opacity:1;vector-effect:none;fill:#000000;fill-opacity:1;fill-rule:nonzero;stroke:none;stroke-width:10.8898859;stroke-linecap:round;stroke-linejoin:round;stroke-miterlimit:4;stroke-dasharray:none;stroke-dashoffset:0;stroke-opacity:1;filter:url(#filter911);color-rendering:auto;image-rendering:auto;shape-rendering:auto;text-rendering:auto;enable-background:accumulate"
     d="m 16.133162,82.567786 a 5.6729009,5.2271905 10.593957 0 0 0.497322,3.547878 l 19.510077,35.552906 a 5.6729009,5.2271905 10.593957 0 0 4.066928,2.87233 l 49.066422,9.17719 49.066429,9.17717 a 5.6729009,5.2271905 10.593957 0 0 4.83015,-1.20827 l 31.04099,-26.09804 a 5.6729009,5.2271905 10.593957 0 0 1.1586,-6.19453 l -19.51007,-35.5529 a 5.6729009,5.2271905 10.593957 0 0 -4.06692,-2.872348 L 102.72667,61.791997 53.66024,52.614821 a 5.6729009,5.2271905 10.593957 0 0 -4.830152,1.208277 L 17.789082,79.921136 a 5.6729009,5.2271905 10.593957 0 0 -1.65592,2.64665 z"
     id="path897"
     inkscape:connector-curvature="0" />
  <path
     inkscape:connector-curvature="0"
     id="path853"
     d="m 16.133162,80.567786 a 5.6729009,5.2271905 10.593957 0 0 0.497322,3.547878 l 19.510077,35.552906 a 5.6729009,5.2271905 10.593957 0 0 4.066928,2.87233 l 49.066422,9.17719 49.066429,9.17717 a 5.6729009,5.2271905 10.593957 0 0 4.83015,-1.20827 l 31.04099,-26.09804 a 5.6729009,5.2271905 10.593957 0 0 1.1586,-6.19453 l -19.51007,-35.5529 a 5.6729009,5.2271905 10.593957 0 0 -4.06692,-2.872348 L 102.72667,59.791997 53.66024,50.614821 a 5.6729009,5.2271905 10.593957 0 0 -4.830152,1.208277 L 17.789082,77.921136 a 5.6729009,5.2271905 10.593957 0 0 -1.65592,2.64665 z"
     style="color:#000000;font-style:normal;font-variant:normal;font-weight:normal;font-stretch:normal;font-size:medium;line-height:normal;font-family:sans-serif;font-variant-ligatures:normal;font-variant-position:normal;font-variant-caps:normal;font-variant-numeric:normal;font-variant-alternates:normal;font-feature-settings:normal;text-indent:0;text-align:start;text-decoration:none;text-decoration-line:none;text-decoration-style:solid;text-decoration-color:#000000;letter-spacing:normal;word-spacing:normal;text-transform:none;writing-mode:lr-tb;direction:ltr;text-orientation:mixed;dominant-baseline:auto;baseline-shift:baseline;text-anchor:start;white-space:normal;shape-padding:0;clip-rule:nonzero;display:inline;overflow:visible;visibility:visible;opacity:1;isolation:auto;mix-blend-mode:normal;color-interpolation:sRGB;color-interpolation-filters:linearRGB;solid-color:#000000;solid-opacity:1;vector-effect:none;fill:#63cddd;fill-opacity:1;fill-rule:nonzero;stroke:none;stroke-width:10.8898859;stroke-linecap:round;stroke-linejoin:round;stroke-miterlimit:4;stroke-dasharray:none;stroke-dashoffset:0;stroke-opacity:1;color-rendering:auto;image-rendering:auto;shape-rendering:auto;text-rendering:auto;enable-background:accumulate" />
  <path
     inkscape:connector-curvature="0"
     id="path875"
     d="m 175.81044,77.558876 a 5.2732785,5.7229187 76.858563 0 1 -0.34213,3.59792 l -18.06849,36.705734 a 5.2732785,5.7229187 76.858563 0 1 -3.96994,3.07717 l -49.03861,11.44906 -49.038639,11.44902 a 5.2732785,5.7229187 76.858563 0 1 -4.922098,-1.00114 L 17.976582,117.92637 a 5.2732785,5.7229187 76.858563 0 1 -1.445416,-6.19102 L 34.599641,75.029606 a 5.2732785,5.7229187 76.858563 0 1 3.969935,-3.07717 l 49.038625,-11.44904 49.038629,-11.44904 a 5.2732785,5.7229187 76.858563 0 1 4.9221,1.00115 l 32.45396,24.91027 a 5.2732785,5.7229187 76.858563 0 1 1.78755,2.5931 z"
     style="color:#000000;font-style:normal;font-variant:normal;font-weight:normal;font-stretch:normal;font-size:medium;line-height:normal;font-family:sans-serif;font-variant-ligatures:normal;font-variant-position:normal;font-variant-caps:normal;font-variant-numeric:normal;font-variant-alternates:normal;font-feature-settings:normal;text-indent:0;text-align:start;text-decoration:none;text-decoration-line:none;text-decoration-style:solid;text-decoration-color:#000000;letter-spacing:normal;word-spacing:normal;text-transform:none;writing-mode:lr-tb;direction:ltr;text-orientation:mixed;dominant-baseline:auto;baseline-shift:baseline;text-anchor:start;white-space:normal;shape-padding:0;clip-rule:nonzero;display:inline;overflow:visible;visibility:visible;opacity:0.2;isolation:auto;mix-blend-mode:normal;color-interpolation:sRGB;color-interpolation-filters:linearRGB;solid-color:#000000;solid-opacity:1;vector-effect:none;fill:#000000;fill-opacity:1;fill-rule:nonzero;stroke:none;stroke-width:10.98590183;stroke-linecap:round;stroke-linejoin:round;stroke-miterlimit:4;stroke-dasharray:none;stroke-dashoffset:0;stroke-opacity:1;filter:url(#filter893);color-rendering:auto;image-rendering:auto;shape-rendering:auto;text-rendering:auto;enable-background:accumulate" />
  <path
     style="color:#000000;font-style:normal;font-variant:normal;font-weight:normal;font-stretch:normal;font-size:medium;line-height:normal;font-family:sans-serif;font-variant-ligatures:normal;font-variant-position:normal;font-variant-caps:normal;font-variant-numeric:normal;font-variant-alternates:normal;font-feature-settings:normal;text-indent:0;text-align:start;text-decoration:none;text-decoration-line:none;text-decoration-style:solid;text-decoration-color:#000000;letter-spacing:normal;word-spacing:normal;text-transform:none;writing-mode:lr-tb;direction:ltr;text-orientation:mixed;dominant-baseline:auto;baseline-shift:baseline;text-anchor:start;white-space:normal;shape-padding:0;clip-rule:nonzero;display:inline;overflow:visible;visibility:visible;opacity:1;isolation:auto;mix-blend-mode:normal;color-interpolation:sRGB;color-interpolation-filters:linearRGB;solid-color:#000000;solid-opacity:1;vector-effect:none;fill:#2990cc;fill-opacity:1;fill-rule:nonzero;stroke:none;stroke-width:10.98590183;stroke-linecap:round;stroke-linejoin:round;stroke-miterlimit:4;stroke-dasharray:none;stroke-dashoffset:0;stroke-opacity:1;color-rendering:auto;image-rendering:auto;shape-rendering:auto;text-rendering:auto;enable-background:accumulate"
     d="m 175.81044,75.558878 a 5.2732785,5.7229187 76.858563 0 1 -0.34213,3.59792 l -18.06849,36.705732 a 5.2732785,5.7229187 76.858563 0 1 -3.96994,3.07717 l -49.03861,11.44906 -49.038639,11.44902 a 5.2732785,5.7229187 76.858563 0 1 -4.922098,-1.00114 L 17.976582,115.92637 a 5.2732785,5.7229187 76.858563 0 1 -1.445416,-6.19102 L 34.599641,73.029608 a 5.2732785,5.7229187 76.858563 0 1 3.969935,-3.07717 l 49.038625,-11.44904 49.038629,-11.44904 a 5.2732785,5.7229187 76.858563 0 1 4.9221,1.00115 l 32.45396,24.91027 a 5.2732785,5.7229187 76.858563 0 1 1.78755,2.5931 z"
     id="path855"
     inkscape:connector-curvature="0" />
  <path
     inkscape:connector-curvature="0"
     id="path857"
     d="m 96.241071,20.006087 a 5.1433714,5.5819347 0 0 0 -3.341517,1.122816 L 62.042411,46.430417 A 5.1433714,5.5819347 0 0 0 60,50.883528 v 49.116842 49.11684 a 5.1433714,5.5819347 0 0 0 2.042411,4.45311 l 30.857143,25.30151 a 5.1433714,5.5819347 0 0 0 6.200892,0 L 129.95759,153.57032 A 5.1433714,5.5819347 0 0 0 132,149.11721 V 100.00037 50.883528 a 5.1433714,5.5819347 0 0 0 -2.04241,-4.453111 L 99.100446,21.128903 a 5.1433714,5.5819347 0 0 0 -2.859375,-1.122816 z"
     style="color:#000000;font-style:normal;font-variant:normal;font-weight:normal;font-stretch:normal;font-size:medium;line-height:normal;font-family:sans-serif;font-variant-ligatures:normal;font-variant-position:normal;font-variant-caps:normal;font-variant-numeric:normal;font-variant-alternates:normal;font-feature-settings:normal;text-indent:0;text-align:start;text-decoration:none;text-decoration-line:none;text-decoration-style:solid;text-decoration-color:#000000;letter-spacing:normal;word-spacing:normal;text-transform:none;writing-mode:lr-tb;direction:ltr;text-orientation:mixed;dominant-baseline:auto;baseline-shift:baseline;text-anchor:start;white-space:normal;shape-padding:0;clip-rule:nonzero;display:inline;overflow:visible;visibility:visible;opacity:0.2;isolation:auto;mix-blend-mode:normal;color-interpolation:sRGB;color-interpolation-filters:linearRGB;solid-color:#000000;solid-opacity:1;vector-effect:none;fill:#000000;fill-opacity:1;fill-rule:nonzero;stroke:none;stroke-width:10.71526432;stroke-linecap:round;stroke-linejoin:round;stroke-miterlimit:4;stroke-dasharray:none;stroke-dashoffset:0;stroke-opacity:1;filter:url(#filter871);color-rendering:auto;image-rendering:auto;shape-rendering:auto;text-rendering:auto;enable-background:accumulate" />
  <path
     style="color:#000000;font-style:normal;font-variant:normal;font-weight:normal;font-stretch:normal;font-size:medium;line-height:normal;font-family:sans-serif;font-variant-ligatures:normal;font-variant-position:normal;font-variant-caps:normal;font-variant-numeric:normal;font-variant-alternates:normal;font-feature-settings:normal;text-indent:0;text-align:start;text-decoration:none;text-decoration-line:none;text-decoration-style:solid;text-decoration-color:#000000;letter-spacing:normal;word-spacing:normal;text-transform:none;writing-mode:lr-tb;direction:ltr;text-orientation:mixed;dominant-baseline:auto;baseline-shift:baseline;text-anchor:start;white-space:normal;shape-padding:0;clip-rule:nonzero;display:inline;overflow:visible;visibility:visible;opacity:1;isolation:auto;mix-blend-mode:normal;color-interpolation:sRGB;color-interpolation-filters:linearRGB;solid-color:#000000;solid-opacity:1;vector-effect:none;fill:#db502e;fill-opacity:1;fill-rule:nonzero;stroke:none;stroke-width:10.71526432;stroke-linecap:round;stroke-linejoin:round;stroke-miterlimit:4;stroke-dasharray:none;stroke-dashoffset:0;stroke-opacity:1;color-rendering:auto;image-rendering:auto;shape-rendering:auto;text-rendering:auto;enable-background:accumulate"
     d="m 96.241071,16.006087 a 5.1433714,5.5819347 0 0 0 -3.341517,1.122816 L 62.042411,42.430417 A 5.1433714,5.5819347 0 0 0 60,46.883528 v 49.11684 49.116842 a 5.1433714,5.5819347 0 0 0 2.042411,4.45311 l 30.857143,25.30151 a 5.1433714,5.5819347 0 0 0 6.200892,0 L 129.95759,149.57032 A 5.1433714,5.5819347 0 0 0 132,145.11721 V 96.000368 46.883528 a 5.1433714,5.5819347 0 0 0 -2.04241,-4.453111 L 99.100446,17.128903 a 5.1433714,5.5819347 0 0 0 -2.859375,-1.122816 z"
     id="path844"
     inkscape:connector-curvature="0" />
  <path
     style="color:#000000;font-style:normal;font-variant:normal;font-weight:normal;font-stretch:normal;font-size:medium;line-height:normal;font-family:sans-serif;font-variant-ligatures:normal;font-variant-position:normal;font-variant-caps:normal;font-variant-numeric:normal;font-variant-alternates:normal;font-feature-settings:normal;text-indent:0;text-align:start;text-decoration:none;text-decoration-line:none;text-decoration-style:solid;text-decoration-color:#000000;letter-spacing:normal;word-spacing:normal;text-transform:none;writing-mode:lr-tb;direction:ltr;text-orientation:mixed;dominant-baseline:auto;baseline-shift:baseline;text-anchor:start;white-space:normal;shape-padding:0;clip-rule:nonzero;display:inline;overflow:visible;visibility:visible;opacity:0.2;isolation:auto;mix-blend-mode:normal;color-interpolation:sRGB;color-interpolation-filters:linearRGB;solid-color:#000000;solid-opacity:1;vector-effect:none;fill:#000000;fill-opacity:1;fill-rule:nonzero;stroke:none;stroke-width:6;stroke-linecap:butt;stroke-linejoin:miter;stroke-miterlimit:4;stroke-dasharray:none;stroke-dashoffset:0;stroke-opacity:1;color-rendering:auto;image-rendering:auto;shape-rendering:auto;text-rendering:auto;enable-background:accumulate;filter:url(#filter880)"
     d="m 96.048828,71.257812 -24.646484,24.097657 4.195312,4.289062 20.353516,-19.90039 19.402348,19.853515 4.29296,-4.195312 L 112,87.578125 V 78 h -6 v 3.439453 z M 80,102 v 18 h 32 v -18 h -6 v 12 H 86 v -12 z"
     id="path836"
     inkscape:connector-curvature="0" />
  <path
     style="fill:none;stroke:#ffffff;stroke-width:6;stroke-linecap:butt;stroke-linejoin:miter;stroke-miterlimit:4;stroke-dasharray:none;stroke-opacity:1"
     d="m 83,100 v 15 h 26 v -15"
     id="path847"
     inkscape:connector-curvature="0"
     sodipodi:nodetypes="cccc" />
  <path
     style="fill:none;stroke:#ffffff;stroke-width:6;stroke-linecap:butt;stroke-linejoin:miter;stroke-miterlimit:4;stroke-dasharray:none;stroke-opacity:1"
     d="m 73.5,95.5 22.5,-22 21.5,22"
     id="path849"
     inkscape:connector-curvature="0"
     sodipodi:nodetypes="ccc" />
  <path
     style="fill:none;stroke:#ffffff;stroke-width:6;stroke-linecap:butt;stroke-linejoin:miter;stroke-miterlimit:4;stroke-dasharray:none;stroke-opacity:1"
     d="M 109,76 V 87"
     id="path851"
     inkscape:connector-curvature="0"
     sodipodi:nodetypes="cc" />
  <path
     inkscape:connector-curvature="0"
     style="color:#000000;font-style:normal;font-variant:normal;font-weight:normal;font-stretch:normal;font-size:medium;line-height:normal;font-family:sans-serif;font-variant-ligatures:normal;font-variant-position:normal;font-variant-caps:normal;font-variant-numeric:normal;font-variant-alternates:normal;font-feature-settings:normal;text-indent:0;text-align:start;text-decoration:none;text-decoration-line:none;text-decoration-style:solid;text-decoration-color:#000000;letter-spacing:normal;word-spacing:normal;text-transform:none;writing-mode:lr-tb;direction:ltr;text-orientation:mixed;dominant-baseline:auto;baseline-shift:baseline;text-anchor:start;white-space:normal;shape-padding:0;clip-rule:nonzero;display:inline;overflow:visible;visibility:visible;opacity:0.2;isolation:auto;mix-blend-mode:normal;color-interpolation:sRGB;color-interpolation-filters:linearRGB;solid-color:#000000;solid-opacity:1;vector-effect:none;fill:#ffffff;fill-opacity:1;fill-rule:nonzero;stroke:none;stroke-width:10.71526432;stroke-linecap:round;stroke-linejoin:round;stroke-miterlimit:4;stroke-dasharray:none;stroke-dashoffset:0;stroke-opacity:1;color-rendering:auto;image-rendering:auto;shape-rendering:auto;text-rendering:auto;enable-background:accumulate"
     d="m 96.240234,16.005859 a 5.1433714,5.5819347 0 0 0 -3.339843,1.123047 L 62.042969,42.429688 A 5.1433714,5.5819347 0 0 0 60,46.882812 v 1 a 5.1433714,5.5819347 0 0 1 2.042969,-4.453124 L 92.900391,18.128906 a 5.1433714,5.5819347 0 0 1 3.339843,-1.123047 5.1433714,5.5819347 0 0 1 2.859375,1.123047 L 129.95703,43.429688 A 5.1433714,5.5819347 0 0 1 132,47.882812 v -1 a 5.1433714,5.5819347 0 0 0 -2.04297,-4.453124 L 99.099609,17.128906 a 5.1433714,5.5819347 0 0 0 -2.859375,-1.123047 z"
     id="path915" />
</svg>
