<?xml version="1.0" encoding="UTF-8" standalone="no"?>
<svg
   xmlns:dc="http://purl.org/dc/elements/1.1/"
   xmlns:cc="http://creativecommons.org/ns#"
   xmlns:rdf="http://www.w3.org/1999/02/22-rdf-syntax-ns#"
   xmlns:svg="http://www.w3.org/2000/svg"
   xmlns="http://www.w3.org/2000/svg"
   xmlns:sodipodi="http://sodipodi.sourceforge.net/DTD/sodipodi-0.dtd"
   xmlns:inkscape="http://www.inkscape.org/namespaces/inkscape"
   width="192"
   height="192"
   version="1"
   id="svg12"
   sodipodi:docname="apps_megabonus.svg"
   inkscape:version="0.92.3 (2405546, 2018-03-11)">
  <metadata
     id="metadata18">
    <rdf:RDF>
      <cc:Work
         rdf:about="">
        <dc:format>image/svg+xml</dc:format>
        <dc:type
           rdf:resource="http://purl.org/dc/dcmitype/StillImage" />
        <dc:title />
      </cc:Work>
    </rdf:RDF>
  </metadata>
  <defs
     id="defs16">
    <filter
       inkscape:collect="always"
       style="color-interpolation-filters:sRGB"
       id="filter860"
       x="-0.048"
       width="1.096"
       y="-0.048"
       height="1.096">
      <feGaussianBlur
         inkscape:collect="always"
         stdDeviation="3.2"
         id="feGaussianBlur862" />
    </filter>
    <filter
       inkscape:collect="always"
       style="color-interpolation-filters:sRGB"
       id="filter835"
       x="-0.045818295"
       width="1.0916366"
       y="-0.050399862"
       height="1.1007997">
      <feGaussianBlur
         inkscape:collect="always"
         stdDeviation="1.6799878"
         id="feGaussianBlur837" />
    </filter>
  </defs>
  <sodipodi:namedview
     pagecolor="#ffffff"
     bordercolor="#666666"
     borderopacity="1"
     objecttolerance="10"
     gridtolerance="10"
     guidetolerance="10"
     inkscape:pageopacity="0"
     inkscape:pageshadow="2"
     inkscape:window-width="1920"
     inkscape:window-height="1018"
     id="namedview14"
     showgrid="false"
     inkscape:zoom="4.3299648"
     inkscape:cx="75.785253"
     inkscape:cy="63.225311"
     inkscape:window-x="0"
     inkscape:window-y="32"
     inkscape:window-maximized="1"
     inkscape:current-layer="svg12">
    <inkscape:grid
       type="xygrid"
       id="grid852" />
  </sodipodi:namedview>
  <rect
     style="opacity:0.2;stroke-width:4;filter:url(#filter860)"
     width="160"
     height="160"
     x="16"
     y="20"
     rx="8"
     ry="8"
     id="rect2" />
  <rect
     style="fill:#fddd08;fill-opacity:1;stroke-width:4"
     width="160"
     height="160"
     x="16"
     y="16"
     rx="8"
     ry="8"
     id="rect4" />
  <path
     inkscape:connector-curvature="0"
     style="opacity:0.2;fill:#ffffff;stroke-width:4"
     d="m 24,16 c -4.432,0 -8,3.568 -8,8 v 1 c 0,-4.432 3.568,-8 8,-8 h 144 c 4.432,0 8,3.568 8,8 v -1 c 0,-4.432 -3.568,-8 -8,-8 z"
     id="path6" />
  <path
     sodipodi:nodetypes="cccccccccccccccccccc"
     inkscape:connector-curvature="0"
     id="path821"
     d="M 52.00043,58.000365 V 138 h 16 V 81.031615 L 86.539492,136.92773 86.869571,138 h 18.260859 l 0.33008,-1.07227 18.53906,-55.896115 V 138 h 16 V 58.000365 h -8.07812 -7.92188 -8.99609 L 96.000001,112.33398 76.996524,58.000365 H 68.00043 60.078555 Z"
     style="opacity:0.2;fill:#000000;fill-opacity:1;stroke:none;stroke-width:13.86052036;stroke-linecap:round;stroke-linejoin:round;stroke-miterlimit:4;stroke-dasharray:none;stroke-opacity:1;filter:url(#filter835)" />
  <path
     style="opacity:1;fill:#3a3a3a;fill-opacity:1;stroke:none;stroke-width:13.86052036;stroke-linecap:round;stroke-linejoin:round;stroke-miterlimit:4;stroke-dasharray:none;stroke-opacity:1"
     d="m 52.00043,56.000375 v 79.999635 h 16 V 79.031625 l 18.539062,55.896115 0.330079,1.07227 h 18.260859 l 0.33008,-1.07227 18.53906,-55.896115 v 56.968385 h 16 V 56.000375 h -8.07812 -7.92188 -8.99609 L 96.000001,110.33399 76.996524,56.000375 H 68.00043 60.078555 Z"
     id="rect832"
     inkscape:connector-curvature="0"
     sodipodi:nodetypes="cccccccccccccccccccc" />
</svg>
