<?xml version="1.0" encoding="UTF-8" standalone="no"?>
<svg
   xmlns:dc="http://purl.org/dc/elements/1.1/"
   xmlns:cc="http://creativecommons.org/ns#"
   xmlns:rdf="http://www.w3.org/1999/02/22-rdf-syntax-ns#"
   xmlns:svg="http://www.w3.org/2000/svg"
   xmlns="http://www.w3.org/2000/svg"
   xmlns:sodipodi="http://sodipodi.sourceforge.net/DTD/sodipodi-0.dtd"
   xmlns:inkscape="http://www.inkscape.org/namespaces/inkscape"
   width="192"
   height="192"
   version="1"
   id="svg12"
   sodipodi:docname="apps_here_wego.svg"
   inkscape:version="0.92.3 (2405546, 2018-03-11)">
  <metadata
     id="metadata18">
    <rdf:RDF>
      <cc:Work
         rdf:about="">
        <dc:format>image/svg+xml</dc:format>
        <dc:type
           rdf:resource="http://purl.org/dc/dcmitype/StillImage" />
        <dc:title></dc:title>
      </cc:Work>
    </rdf:RDF>
  </metadata>
  <defs
     id="defs16">
    <filter
       inkscape:collect="always"
       style="color-interpolation-filters:sRGB"
       id="filter860"
       x="-0.048"
       width="1.096"
       y="-0.048"
       height="1.096">
      <feGaussianBlur
         inkscape:collect="always"
         stdDeviation="3.2"
         id="feGaussianBlur862" />
    </filter>
    <filter
       inkscape:collect="always"
       style="color-interpolation-filters:sRGB"
       id="filter883"
       x="-0.043200005"
       width="1.0864"
       y="-0.053999992"
       height="1.108">
      <feGaussianBlur
         inkscape:collect="always"
         stdDeviation="2.1599998"
         id="feGaussianBlur885" />
    </filter>
    <filter
       inkscape:collect="always"
       style="color-interpolation-filters:sRGB"
       id="filter901"
       x="-0.036"
       width="1.072"
       y="-0.072"
       height="1.144">
      <feGaussianBlur
         inkscape:collect="always"
         stdDeviation="0.51"
         id="feGaussianBlur903" />
    </filter>
  </defs>
  <sodipodi:namedview
     pagecolor="#ffffff"
     bordercolor="#666666"
     borderopacity="1"
     objecttolerance="10"
     gridtolerance="10"
     guidetolerance="10"
     inkscape:pageopacity="0"
     inkscape:pageshadow="2"
     inkscape:window-width="1920"
     inkscape:window-height="1018"
     id="namedview14"
     showgrid="false"
     inkscape:zoom="1"
     inkscape:cx="53.614746"
     inkscape:cy="61.96099"
     inkscape:window-x="0"
     inkscape:window-y="32"
     inkscape:window-maximized="1"
     inkscape:current-layer="svg12">
    <inkscape:grid
       type="xygrid"
       id="grid852" />
  </sodipodi:namedview>
  <rect
     style="opacity:0.2;stroke-width:4;filter:url(#filter860)"
     width="160"
     height="160"
     x="16"
     y="20"
     rx="8"
     ry="8"
     id="rect2" />
  <rect
     style="fill:#383d46;fill-opacity:1;stroke-width:4"
     width="160"
     height="160"
     x="16"
     y="16"
     rx="8"
     ry="8"
     id="rect4" />
  <path
     inkscape:connector-curvature="0"
     style="opacity:0.1;fill:#ffffff;stroke-width:4"
     d="m 24,16 c -4.432,0 -8,3.568 -8,8 v 1 c 0,-4.432 3.568,-8 8,-8 h 144 c 4.432,0 8,3.568 8,8 v -1 c 0,-4.432 -3.568,-8 -8,-8 z"
     id="path6" />
  <path
     style="opacity:0.2;fill:#000000;stroke-width:0.11774804;filter:url(#filter901)"
     d="m 34.000012,138 34,5e-4 c 0,0.21182 -16.729941,16.9995 -16.941788,16.9995 z"
     id="path887"
     inkscape:connector-curvature="0"
     sodipodi:nodetypes="cccc" />
  <path
     sodipodi:nodetypes="cccc"
     inkscape:connector-curvature="0"
     id="path855"
     d="m 34.000012,136 34,5e-4 c 0,0.21182 -16.729941,16.9995 -16.941788,16.9995 z"
     style="fill:#64bfc0;stroke-width:0.11774804" />
  <path
     sodipodi:nodetypes="cccscscccccccscssccccccssccccccsccscccscccccccccccscscccscccsscccccssccsccccccccssccccccssscsssscssccccsc"
     style="opacity:0.2;fill:#000000;stroke-width:0.11672002;filter:url(#filter883)"
     d="m 52.906799,123.14448 -14.906787,-14.85558 3.974035,-3.96122 c 2.185717,-2.17866 4.027094,-3.96121 4.091955,-3.96121 0.06485,0 3.432505,3.30313 7.483665,7.3403 4.051159,4.03717 7.401209,7.3403 7.444553,7.3403 0.04334,0 0.07597,-0.5112 0.0725,-1.136 -0.01296,-2.33511 1.032155,-4.74901 3.156896,-7.2915 1.810719,-2.16672 4.403451,-3.73529 7.210672,-4.36237 1.30341,-0.29115 3.723082,-0.25131 5.033215,0.0828 2.05738,0.5248 4.039358,1.55125 5.612529,2.90673 1.675096,1.44328 1.819478,1.55964 1.871236,1.50806 0.0291,-0.029 -0.180909,-0.42712 -0.466696,-0.88472 -1.231609,-1.97204 -2.137377,-4.17709 -2.595755,-6.319247 -0.301169,-1.407464 -0.297013,-4.583435 0.0077,-5.883892 0.845605,-3.608887 2.865917,-6.896164 5.840687,-9.503456 2.398895,-2.102557 4.809006,-3.401939 7.561776,-4.07684 1.471854,-0.360858 4.440239,-0.396351 5.9362,-0.07099 2.09784,0.456277 4.17687,1.329947 6.14729,2.583277 0.56861,0.361677 1.06486,0.62668 1.10278,0.588896 0.0379,-0.03778 -2.00406,-2.138695 -4.53774,-4.668693 l -4.606698,-4.599973 3.559798,-3.55419 c 1.95789,-1.954804 3.61952,-3.554189 3.69251,-3.554189 0.073,0 1.25578,0.924264 2.62844,2.053918 1.37265,1.129656 2.51472,1.997116 2.53796,1.927689 0.0232,-0.06942 -0.14368,-0.589228 -0.3709,-1.155114 -0.65728,-1.637 -0.81937,-2.458952 -0.81012,-4.108132 0.007,-1.221693 0.0579,-1.621789 0.31684,-2.48259 0.34757,-1.155639 0.71472,-1.930422 1.37367,-2.898798 0.58776,-0.863772 1.64933,-2.001589 2.16206,-2.317341 0.4987,-0.307128 0.2285,-0.538811 2.85028,2.443944 1.80256,2.050736 2.34466,2.573888 2.33626,2.254583 -0.001,-0.04806 -0.0783,-0.50683 -0.17132,-1.019486 -0.36444,-2.009898 -0.17377,-4.774509 0.47686,-6.914308 0.40254,-1.323865 1.63786,-3.698759 2.58517,-4.969986 0.95083,-1.27596 3.03735,-3.368147 4.29087,-4.302548 6.20641,-4.626369 13.10763,-4.417399 19.86488,0.601508 1.19426,0.887027 5.92945,5.500957 5.92945,5.7776 0,0.07509 -3.42781,3.552462 -7.61736,7.727502 -5.33154,5.313096 -7.59672,7.644555 -7.54859,7.769514 0.11949,0.310306 1.27671,1.145874 2.18562,1.578132 0.77699,0.369522 1.00234,0.42149 2.00098,0.461458 1.25836,0.05036 2.02334,-0.115556 3.15327,-0.683921 2.11192,-1.06231 4.78729,-3.825032 7.24171,-7.478184 0.28926,-0.430523 0.5807,-0.784431 0.64769,-0.78646 0.21644,-0.0066 6.30815,3.814519 6.34177,3.977926 0.0407,0.198403 -0.82946,1.987575 -1.49201,3.067401 -1.33254,2.171839 -4.26545,5.399626 -6.60852,7.272967 -2.67312,2.137226 -5.62349,3.542057 -8.47726,4.03649 -1.52941,0.264981 -4.5506,0.176861 -5.94858,-0.173502 -5.6933,-1.426851 -11.23817,-5.806666 -14.35356,-11.337665 -0.3526,-0.626002 -0.71258,-1.138186 -0.79996,-1.138186 -0.41902,0 -1.99642,2.201737 -2.46374,3.438892 -0.42429,1.123221 -0.53786,1.74296 -0.53348,2.91105 0.006,1.601578 0.45881,2.992534 1.48889,4.573666 0.26567,0.407787 2.99734,3.231804 6.98952,7.225831 l 6.55341,6.556425 -4.17721,4.162372 -4.17719,4.162374 -4.76551,-4.747524 c -2.62101,-2.611137 -4.81802,-4.747524 -4.88223,-4.747524 -0.0641,0 -3.55754,3.428901 -7.76298,7.61978 -5.35192,5.333394 -7.625622,7.673354 -7.577497,7.798314 0.119362,0.30995 1.276287,1.14568 2.182907,1.57685 0.75924,0.36108 1.01202,0.42119 1.94164,0.46171 2.15851,0.0941 3.9131,-0.7806 6.2532,-3.11723 1.33565,-1.33368 2.26465,-2.47863 3.67005,-4.52323 0.49554,-0.720922 0.95066,-1.310768 1.01137,-1.310768 0.10015,0 5.63309,3.624708 5.88457,3.855058 0.16155,0.14798 -0.99482,2.42887 -1.9737,3.89304 -1.08234,1.61894 -2.05293,2.74894 -3.91051,4.55279 -1.7842,1.73259 -2.75258,2.53382 -4.24184,3.50961 -2.67671,1.75384 -5.36384,2.65356 -8.33839,2.7919 -3.559339,0.16554 -6.587326,-0.7293 -10.51118,-3.10627 -0.269355,-0.16318 -0.43458,-0.21363 -0.404435,-0.12352 0.02803,0.0838 2.114142,2.20379 4.635801,4.71109 2.521657,2.50731 4.584728,4.63768 4.5846,4.73417 -1.17e-4,0.0965 -1.734997,1.90344 -3.855259,4.01545 l -3.855027,3.84002 -5.703814,-5.6519 c -7.415278,-7.34779 -8.887688,-8.64002 -11.082489,-9.72631 -2.242834,-1.11006 -3.689023,-0.91527 -5.267862,0.70958 -2.349101,2.41756 -2.156487,4.90172 0.664819,8.57461 0.520278,0.67733 3.142725,3.39689 6.901264,7.15682 3.33416,3.33542 6.06211,6.18277 6.06211,6.22769 H 67.813596 Z M 96.372303,95.674704 c 1.946561,-1.939652 3.539201,-3.606977 3.539201,-3.705168 0,-0.216723 -1.332267,-1.325901 -2.354026,-1.959842 -1.658595,-1.029062 -3.325017,-1.225166 -4.699811,-0.553074 -0.893243,0.436679 -2.170436,1.709338 -2.608671,2.599411 -0.701314,1.424403 -0.461868,3.119182 0.701065,4.962095 0.687998,1.090277 1.559425,2.183218 1.740728,2.183218 0.07828,0 1.734953,-1.586988 3.681514,-3.52664 z M 134.3715,57.812767 c 1.94784,-1.937074 3.5415,-3.610402 3.5415,-3.718503 0,-0.395105 -1.87069,-1.820115 -3.20794,-2.443671 -1.39007,-0.64818 -2.60775,-0.660021 -3.88856,-0.03782 -0.86643,0.420897 -2.16355,1.754594 -2.63502,2.709317 -0.34027,0.689053 -0.38163,0.878599 -0.37293,1.709201 0.0114,1.093903 0.24389,1.754216 1.06223,3.017913 0.767,1.184414 1.68156,2.285517 1.89832,2.285517 0.0335,0 1.65459,-1.584878 3.6024,-3.521955 z"
     id="path865"
     inkscape:connector-curvature="0" />
  <path
     inkscape:connector-curvature="0"
     id="path853"
     d="m 52.906799,121.14444 -14.906787,-14.85558 3.974035,-3.96122 c 2.185717,-2.17866 4.027094,-3.961209 4.091955,-3.961209 0.06485,0 3.432505,3.303129 7.483665,7.340299 4.051159,4.03717 7.401209,7.3403 7.444553,7.3403 0.04334,0 0.07597,-0.5112 0.0725,-1.136 -0.01296,-2.33511 1.032155,-4.74901 3.156896,-7.2915 1.810719,-2.16672 4.403451,-3.73529 7.210672,-4.36237 1.30341,-0.291151 3.723082,-0.25131 5.033215,0.0828 2.05738,0.5248 4.039358,1.55125 5.612529,2.90673 1.675096,1.44328 1.819478,1.55964 1.871236,1.50806 0.0291,-0.029 -0.180909,-0.42712 -0.466696,-0.88472 -1.231609,-1.97204 -2.137377,-4.177091 -2.595755,-6.319247 -0.301169,-1.407464 -0.297013,-4.583435 0.0077,-5.883892 0.845605,-3.608887 2.865917,-6.896164 5.840687,-9.503456 2.398895,-2.102557 4.809006,-3.401939 7.561776,-4.07684 1.471854,-0.360858 4.440239,-0.396351 5.9362,-0.07099 2.09784,0.456277 4.17687,1.329947 6.14729,2.583277 0.56861,0.361677 1.06486,0.62668 1.10278,0.588896 0.0379,-0.03778 -2.00406,-2.138695 -4.53774,-4.668693 l -4.606698,-4.599973 3.559798,-3.55419 c 1.95789,-1.954804 3.61952,-3.554189 3.69251,-3.554189 0.073,0 1.25578,0.924264 2.62844,2.053918 1.37265,1.129656 2.51472,1.997116 2.53796,1.927689 0.0232,-0.06942 -0.14368,-0.589228 -0.3709,-1.155114 -0.65728,-1.637 -0.81937,-2.458952 -0.81012,-4.108132 0.007,-1.221693 0.0579,-1.621789 0.31684,-2.48259 0.34757,-1.155639 0.71472,-1.930422 1.37367,-2.898798 0.58776,-0.863772 1.64933,-2.001589 2.16206,-2.317341 0.4987,-0.307128 0.2285,-0.538811 2.85028,2.443944 1.80256,2.050736 2.34466,2.573888 2.33626,2.254583 -0.001,-0.04806 -0.0783,-0.50683 -0.17132,-1.019486 -0.36444,-2.009898 -0.17377,-4.774509 0.47686,-6.914308 0.40254,-1.323865 1.63786,-3.698759 2.58517,-4.969986 0.95083,-1.27596 3.03735,-3.368147 4.29087,-4.302548 6.20641,-4.626369 13.10763,-4.417399 19.86488,0.601508 1.19426,0.887027 5.92945,5.500957 5.92945,5.7776 0,0.07509 -3.42781,3.552462 -7.61736,7.727502 -5.33154,5.313096 -7.59672,7.644555 -7.54859,7.769514 0.11949,0.310306 1.27671,1.145874 2.18562,1.578132 0.77699,0.369522 1.00234,0.42149 2.00098,0.461458 1.25836,0.05036 2.02334,-0.115556 3.15327,-0.683921 2.11192,-1.06231 4.78729,-3.825032 7.24171,-7.478184 0.28926,-0.430523 0.5807,-0.784431 0.64769,-0.78646 0.21644,-0.0066 6.30815,3.814519 6.34177,3.977926 0.0407,0.198403 -0.82946,1.987575 -1.49201,3.067401 -1.33254,2.171839 -4.26545,5.399626 -6.60852,7.272967 -2.67312,2.137226 -5.62349,3.542057 -8.47726,4.03649 -1.52941,0.264981 -4.5506,0.176861 -5.94858,-0.173502 -5.6933,-1.426851 -11.23817,-5.806666 -14.35356,-11.337665 -0.3526,-0.626002 -0.71258,-1.138186 -0.79996,-1.138186 -0.41902,0 -1.99642,2.201737 -2.46374,3.438892 -0.42429,1.123221 -0.53786,1.74296 -0.53348,2.91105 0.006,1.601578 0.45881,2.992534 1.48889,4.573666 0.26567,0.407787 2.99734,3.231804 6.98952,7.225831 l 6.55341,6.556425 -4.17721,4.162372 -4.17719,4.162374 -4.76551,-4.747524 c -2.62101,-2.611137 -4.81802,-4.747524 -4.88223,-4.747524 -0.0641,0 -3.55754,3.428901 -7.76298,7.61978 -5.35192,5.333394 -7.625622,7.673354 -7.577497,7.798314 0.119362,0.30995 1.276287,1.14568 2.182907,1.57685 0.75924,0.36108 1.01202,0.42119 1.94164,0.46171 2.15851,0.0941 3.9131,-0.7806 6.2532,-3.11723 1.33565,-1.33368 2.26465,-2.478632 3.67005,-4.52323 0.49554,-0.720922 0.95066,-1.310768 1.01137,-1.310768 0.10015,0 5.63309,3.624709 5.88457,3.855059 0.16155,0.147979 -0.99482,2.428869 -1.9737,3.893039 -1.08234,1.61894 -2.05293,2.74894 -3.91051,4.55279 -1.7842,1.73259 -2.75258,2.53382 -4.24184,3.50961 -2.67671,1.75384 -5.36384,2.65356 -8.33839,2.7919 -3.559339,0.16554 -6.587326,-0.7293 -10.51118,-3.10627 -0.269355,-0.16318 -0.43458,-0.21363 -0.404435,-0.12352 0.02803,0.0838 2.114142,2.20379 4.635801,4.71109 2.521657,2.50731 4.584728,4.63768 4.5846,4.73417 -1.17e-4,0.0965 -1.734997,1.90344 -3.855259,4.01545 l -3.855027,3.84002 -5.703814,-5.6519 c -7.415278,-7.34779 -8.887688,-8.64002 -11.082489,-9.72631 -2.242834,-1.11006 -3.689023,-0.91527 -5.267862,0.70958 -2.349101,2.41756 -2.156487,4.90172 0.664819,8.57461 0.520278,0.67733 3.142725,3.39689 6.901264,7.15682 3.33416,3.33542 6.06211,6.18277 6.06211,6.22769 H 67.813596 Z M 96.372303,93.674664 c 1.946561,-1.939652 3.539201,-3.606977 3.539201,-3.705168 0,-0.216723 -1.332267,-1.325901 -2.354026,-1.959842 -1.658595,-1.029062 -3.325017,-1.225166 -4.699811,-0.553074 -0.893243,0.436679 -2.170436,1.709338 -2.608671,2.599411 -0.701314,1.424403 -0.461868,3.119182 0.701065,4.962095 0.687998,1.090277 1.559425,2.183218 1.740728,2.183218 0.07828,0 1.734953,-1.586988 3.681514,-3.52664 z M 134.3715,55.812727 c 1.94784,-1.937074 3.5415,-3.610402 3.5415,-3.718503 0,-0.395105 -1.87069,-1.820115 -3.20794,-2.443671 -1.39007,-0.64818 -2.60775,-0.660021 -3.88856,-0.03782 -0.86643,0.420897 -2.16355,1.754594 -2.63502,2.709317 -0.34027,0.689053 -0.38163,0.878599 -0.37293,1.709201 0.0114,1.093903 0.24389,1.754216 1.06223,3.017913 0.767,1.184414 1.68156,2.285517 1.89832,2.285517 0.0335,0 1.65459,-1.584878 3.6024,-3.521955 z"
     style="fill:#ffffff;stroke-width:0.11672002"
     sodipodi:nodetypes="cccscscccccccscssccccccssccccccsccscccscccccccccccscscccscccsscccccssccsccccccccssccccccssscsssscssccccsc" />
  <path
     inkscape:connector-curvature="0"
     style="opacity:0.2;fill:#ffffff;stroke-width:0.11774804"
     d="m 34,136 1.003906,1 H 67.078125 C 67.630658,136.42436 68,136.02931 68,136 Z"
     id="path905" />
</svg>
