<?xml version="1.0" encoding="UTF-8" standalone="no"?>
<svg
   xmlns:dc="http://purl.org/dc/elements/1.1/"
   xmlns:cc="http://creativecommons.org/ns#"
   xmlns:rdf="http://www.w3.org/1999/02/22-rdf-syntax-ns#"
   xmlns:svg="http://www.w3.org/2000/svg"
   xmlns="http://www.w3.org/2000/svg"
   xmlns:sodipodi="http://sodipodi.sourceforge.net/DTD/sodipodi-0.dtd"
   xmlns:inkscape="http://www.inkscape.org/namespaces/inkscape"
   width="192"
   height="192"
   version="1"
   id="svg26"
   sodipodi:docname="apps_coocent_eq.svg"
   inkscape:version="0.92.3 (2405546, 2018-03-11)">
  <metadata
     id="metadata32">
    <rdf:RDF>
      <cc:Work
         rdf:about="">
        <dc:format>image/svg+xml</dc:format>
        <dc:type
           rdf:resource="http://purl.org/dc/dcmitype/StillImage" />
      </cc:Work>
    </rdf:RDF>
  </metadata>
  <defs
     id="defs30">
    <filter
       inkscape:collect="always"
       style="color-interpolation-filters:sRGB"
       id="filter868"
       x="-0.048"
       width="1.096"
       y="-0.048"
       height="1.096">
      <feGaussianBlur
         inkscape:collect="always"
         stdDeviation="3.2"
         id="feGaussianBlur870" />
    </filter>
    <filter
       inkscape:collect="always"
       style="color-interpolation-filters:sRGB"
       id="filter884"
       x="-0.048"
       width="1.096"
       y="-0.048"
       height="1.096">
      <feGaussianBlur
         inkscape:collect="always"
         stdDeviation="1.92"
         id="feGaussianBlur886" />
    </filter>
    <filter
       inkscape:collect="always"
       style="color-interpolation-filters:sRGB"
       id="filter959"
       x="-0.048"
       width="1.096"
       y="-0.048"
       height="1.096">
      <feGaussianBlur
         inkscape:collect="always"
         stdDeviation="0.50630196"
         id="feGaussianBlur961" />
    </filter>
  </defs>
  <sodipodi:namedview
     pagecolor="#ffffff"
     bordercolor="#666666"
     borderopacity="1"
     objecttolerance="10"
     gridtolerance="10"
     guidetolerance="10"
     inkscape:pageopacity="0"
     inkscape:pageshadow="2"
     inkscape:window-width="1920"
     inkscape:window-height="1018"
     id="namedview28"
     showgrid="false"
     inkscape:zoom="2.86"
     inkscape:cx="-88"
     inkscape:cy="96"
     inkscape:window-x="0"
     inkscape:window-y="32"
     inkscape:window-maximized="1"
     inkscape:current-layer="svg26" />
  <path
     style="opacity:0.2;fill:#000000;stroke-width:4;filter:url(#filter868)"
     d="M 176,100 A 80,80 0 0 1 96,180 80,80 0 0 1 16,100 80,80 0 0 1 96,20 80,80 0 0 1 176,100 Z"
     id="path850"
     inkscape:connector-curvature="0" />
  <path
     inkscape:connector-curvature="0"
     id="path2"
     d="M 176,96 A 80,80 0 0 1 96,176 80,80 0 0 1 16,96 80,80 0 0 1 96,16 80,80 0 0 1 176,96 Z"
     style="fill:#3f3f3f;stroke-width:4" />
  <path
     style="opacity:0.1;fill:#ffffff;stroke-width:4"
     d="M 96 16 C 51.684 16 16.007812 51.68 16.007812 96 C 16.007812 96.33544 16.009812 96.667215 16.007812 97 C 16.007812 52.68 51.684 17 96 17 C 140.316 17 175.99219 52.68 175.99219 97 C 175.99019 96.667215 175.99219 96.33544 175.99219 96 C 175.99219 51.68 140.316 16 96 16 z "
     id="path4" />
  <path
     inkscape:connector-curvature="0"
     id="path8"
     d="m 78.953124,26.351562 c -0.514804,-0.07105 -1.050812,-0.04182 -1.585936,0.101563 -2.140492,0.573543 -3.401668,2.757946 -2.828124,4.898437 l 2.070312,7.726563 c 0.57354,2.140491 2.757944,3.401667 4.898436,2.828123 2.140492,-0.57354 3.401668,-2.757944 2.828124,-4.898436 L 82.265624,29.28125 c -0.430156,-1.605369 -1.76808,-2.716524 -3.3125,-2.929688 z m 34.093756,0 c -1.54442,0.213164 -2.88235,1.324319 -3.3125,2.929688 l -2.07032,7.726562 c -0.57354,2.140492 0.68764,4.324896 2.82813,4.898436 2.14049,0.573544 4.32489,-0.687632 4.89843,-2.828123 l 2.07032,-7.726563 c 0.57354,-2.140491 -0.68764,-4.324894 -2.82813,-4.898437 -0.53512,-0.143386 -1.07113,-0.172617 -1.58593,-0.101563 z M 61.507812,33.140625 C 60.992156,33.205234 60.47978,33.371438 60,33.648438 c -1.919112,1.108 -2.568936,3.541825 -1.460936,5.460937 l 4,6.929689 C 63.647064,47.958176 66.080888,48.608 68,47.5 c 1.919112,-1.108 2.568936,-3.541824 1.460936,-5.460936 l -4,-6.929689 c -0.831,-1.439334 -2.406156,-2.162576 -3.953124,-1.96875 z m 68.984378,0 c -1.54697,-0.193824 -3.12213,0.529416 -3.95313,1.96875 l -4,6.929689 C 121.43106,43.958176 122.08089,46.392 124,47.5 c 1.91911,1.108 4.35294,0.458176 5.46094,-1.460936 l 4,-6.929689 c 1.108,-1.919112 0.45817,-4.352937 -1.46094,-5.460937 -0.47978,-0.277 -0.99216,-0.443204 -1.50781,-0.507813 z M 47.914064,43.914064 c -1.022476,0 -2.044652,0.3884 -2.828128,1.171872 -1.566948,1.566952 -1.566948,4.089304 0,5.656252 l 5.656252,5.656248 c 1.566948,1.566952 4.0893,1.566952 5.656248,0 1.566952,-1.566948 1.566952,-4.0893 0,-5.656248 L 50.742188,45.085936 C 49.958712,44.302464 48.93654,43.914064 47.914064,43.914064 Z m 96.171876,0 c -1.02248,0 -2.04465,0.3884 -2.82813,1.171872 l -5.65625,5.656252 c -1.56695,1.566948 -1.56695,4.0893 0,5.656248 0.78348,0.783476 1.80565,1.179688 2.82813,1.179688 1.02247,0 2.04465,-0.3962 2.82812,-1.179688 l 5.65625,-5.656248 c 1.56695,-1.566948 1.56695,-4.0893 0,-5.656252 -0.78347,-0.783472 -1.80565,-1.171872 -2.82812,-1.171872 z M 37.601564,58.031248 C 36.054598,57.837424 34.479439,58.560664 33.648439,60 c -1.108,1.919112 -0.458175,4.352936 1.460938,5.460936 l 6.929687,4 C 43.958176,70.568936 46.392,69.919112 47.5,68 c 1.108,-1.919112 0.458176,-4.352936 -1.460936,-5.460936 l -6.929687,-4 c -0.479779,-0.277 -0.992157,-0.443204 -1.507813,-0.507816 z m 116.796876,0 c -0.51566,0.0646 -1.02804,0.2308 -1.50782,0.507816 l -6.92968,4 C 144.04182,63.647064 143.392,66.080888 144.5,68 c 1.108,1.919112 3.54182,2.568936 5.46094,1.460936 l 6.92968,-4 c 1.91912,-1.108 2.56894,-3.541824 1.46094,-5.460936 -0.831,-1.439336 -2.40616,-2.162576 -3.95312,-1.968752 z M 29.765624,74.4375 c -1.54442,0.21316 -2.882342,1.32432 -3.3125,2.929688 -0.573543,2.140492 0.687634,4.324896 2.828125,4.898436 l 7.726563,2.070312 c 2.140491,0.573544 4.324896,-0.687632 4.898436,-2.828124 0.573544,-2.140492 -0.687632,-4.324896 -2.828124,-4.898436 L 31.351562,74.539064 C 30.816439,74.395676 30.280431,74.366444 29.765624,74.4375 Z m 132.468756,0 c -0.51481,-0.07104 -1.05082,-0.04184 -1.58594,0.10156 l -7.72656,2.070312 c -2.1405,0.573544 -3.40167,2.757944 -2.82813,4.898436 0.57354,2.140492 2.75795,3.401668 4.89844,2.828124 l 7.72656,-2.070312 c 2.14049,-0.573544 3.40167,-2.757944 2.82813,-4.898436 -0.43016,-1.605368 -1.76808,-2.716524 -3.3125,-2.929684 z m -123.640628,33.125 c -0.514807,-0.071 -1.050814,-0.0418 -1.585938,0.10156 l -7.726562,2.07032 c -2.140492,0.57354 -3.401668,2.75794 -2.828125,4.89843 0.573543,2.14049 2.757946,3.40167 4.898437,2.82813 l 7.726563,-2.07032 c 2.140493,-0.57354 3.401669,-2.75794 2.828125,-4.89843 -0.430156,-1.60537 -1.768076,-2.71653 -3.3125,-2.92969 z m 114.812498,0 c -1.54442,0.21316 -2.88234,1.32432 -3.3125,2.92969 -0.57354,2.14049 0.68763,4.32489 2.82813,4.89843 l 7.72656,2.07032 c 2.14049,0.57354 4.32489,-0.68764 4.89844,-2.82813 0.57354,-2.14049 -0.68764,-4.32489 -2.82813,-4.89843 l -7.72656,-2.07032 c -0.53513,-0.1434 -1.07113,-0.1726 -1.58594,-0.10156 z M 43.546876,122.03125 c -0.515656,0.0646 -1.028036,0.2308 -1.507812,0.50781 l -6.929689,4 c -1.919112,1.108 -2.568937,3.54183 -1.460937,5.46094 1.108,1.91911 3.541825,2.56894 5.460937,1.46094 l 6.929689,-4 C 47.958176,128.35294 48.608,125.91911 47.5,124 c -0.831,-1.43934 -2.40616,-2.16258 -3.953124,-1.96875 z m 104.906244,0 C 146.90616,121.83742 145.331,122.56066 144.5,124 c -1.108,1.91911 -0.45818,4.35294 1.46094,5.46094 l 6.92968,4 c 1.91912,1.108 4.35294,0.45817 5.46094,-1.46094 1.108,-1.91911 0.45818,-4.35294 -1.46094,-5.46094 l -6.92968,-4 c -0.47978,-0.277 -0.99216,-0.4432 -1.50782,-0.50781 z m -94.882808,12.39063 c -1.022476,0 -2.044652,0.3962 -2.828124,1.17968 l -5.656252,5.65625 c -1.566948,1.56695 -1.566948,4.0893 0,5.65625 1.566952,1.56695 4.089304,1.56695 5.656252,0 l 5.656248,-5.65625 c 1.566952,-1.56695 1.566952,-4.0893 0,-5.65625 -0.783472,-0.78347 -1.805648,-1.17968 -2.828124,-1.17968 z m 84.859378,0 c -0.51124,0 -1.02645,0.101 -1.50781,0.29688 -0.48137,0.19588 -0.92858,0.49107 -1.32032,0.88281 -1.56695,1.56695 -1.56695,4.0893 0,5.65625 l 5.65625,5.65625 c 1.56695,1.56695 4.0893,1.56695 5.65625,0 1.56695,-1.56695 1.56695,-4.08931 0,-5.65625 l -5.65625,-5.65625 c -0.78347,-0.78348 -1.80565,-1.17969 -2.82812,-1.17969 z m -71.937502,9.57031 c -1.546968,-0.19384 -3.122124,0.52941 -3.953124,1.96875 l -4,6.92968 c -1.108,1.91912 -0.458176,4.35294 1.460936,5.46094 1.919112,1.108 4.352936,0.45818 5.460936,-1.46094 l 4,-6.92968 C 70.568936,148.04182 69.919112,145.608 68,144.5 c -0.47978,-0.277 -0.992156,-0.4432 -1.507812,-0.50781 z m 59.015622,0 C 124.99216,144.0568 124.47978,144.223 124,144.5 c -1.91911,1.108 -2.56894,3.54182 -1.46094,5.46094 l 4,6.92968 c 1.108,1.91912 3.54183,2.56894 5.46094,1.46094 1.91911,-1.108 2.56894,-3.54182 1.46094,-5.46094 l -4,-6.92968 c -0.831,-1.43934 -2.40616,-2.16258 -3.95313,-1.96875 z m -45.585934,6 c -1.54442,0.21316 -2.882344,1.32432 -3.3125,2.92969 l -2.070312,7.72656 c -0.573544,2.14049 0.687632,4.32489 2.828124,4.89844 2.140492,0.57354 4.324892,-0.68764 4.898436,-2.82813 l 2.070312,-7.72656 c 0.573544,-2.14049 -0.687632,-4.3249 -2.828124,-4.89844 -0.535124,-0.1434 -1.071132,-0.1726 -1.585936,-0.10156 z m 32.156244,0 c -0.5148,-0.071 -1.05081,-0.0418 -1.58593,0.10156 -2.14049,0.57354 -3.40167,2.75794 -2.82813,4.89843 l 2.07032,7.72657 c 0.57354,2.14049 2.75794,3.40166 4.89843,2.82812 2.14049,-0.57354 3.40167,-2.75795 2.82813,-4.89844 l -2.07032,-7.72656 c -0.43015,-1.60537 -1.76808,-2.71652 -3.3125,-2.92968 z"
     style="fill:#04abff;stroke-width:4" />
  <circle
     id="circle10"
     r="48"
     cy="100"
     cx="96"
     style="opacity:0.2;stroke-width:4;filter:url(#filter884)" />
  <circle
     id="circle12"
     transform="rotate(-45)"
     r="48"
     cy="135.76401"
     cx="0"
     style="fill:#4f4f4f;stroke-width:4" />
  <path
     style="opacity:0.1;fill:#ffffff;stroke-width:4"
     d="M 96 48 A 48 48 0 0 0 48 96 A 48 48 0 0 0 48.017578 96.519531 A 48 48 0 0 1 96 49 A 48 48 0 0 1 143.97461 96.509766 A 48 48 0 0 0 144 96 A 48 48 0 0 0 96 48 z "
     id="path14" />
  <path
     transform="rotate(-45,-2.4141811,-0.99998656)"
     style="opacity:0.1;stroke-width:4;filter:url(#filter959)"
     d="m -3.2480001,94.599998 h 0.8159999 c 1.98996804,0 3.592,1.602032 3.592,3.592 V 123.008 c 0,1.98997 -1.60203196,3.592 -3.592,3.592 h -0.8159999 c -1.989968,0 -3.5920001,-1.60203 -3.5920001,-3.592 V 98.191998 c 0,-1.989968 1.6020321,-3.592 3.5920001,-3.592 z"
     id="rect16"
     inkscape:connector-curvature="0" />
  <rect
     id="rect18"
     transform="rotate(-45)"
     ry="3.592"
     y="91.760002"
     x="-4"
     height="32"
     width="8"
     style="fill:#04abff;stroke-width:4" />
  <path
     style="opacity:0.2;fill:#ffffff;stroke-width:4"
     d="M 67.71875 63.539062 C 66.800886 63.539062 65.882999 63.898263 65.179688 64.601562 L 64.601562 65.179688 C 63.782832 65.998418 63.475964 67.092531 63.628906 68.144531 C 63.729513 67.429063 64.042253 66.738997 64.601562 66.179688 L 65.179688 65.601562 C 65.882999 64.898262 66.800886 64.539062 67.71875 64.539062 C 68.63661 64.539062 69.554501 64.898246 70.257812 65.601562 L 87.804688 83.148438 C 88.363449 83.707208 88.675086 84.397665 88.775391 85.113281 C 88.928108 84.061013 88.622615 82.966379 87.804688 82.148438 L 70.257812 64.601562 C 69.554501 63.898246 68.63661 63.539062 67.71875 63.539062 z "
     id="path20" />
  <path
     inkscape:connector-curvature="0"
     id="path22"
     d="m 96,24 c -2.216,0 -4,1.784 -4,4 v 8 c 0,2.215999 1.784,4 4,4 2.216,4e-6 4,-1.784 4,-4 V 28 C 100,26.338 98.999124,24.918126 97.5625,24.3125 97.083628,24.110624 96.554,24 96,24 Z M 28,92 c -2.215996,-4e-6 -3.999996,1.784 -4,4 0,2.216 1.784,4 4,4 h 8 c 1.662,0 3.08188,-1.008684 3.6875,-2.445312 C 39.88938,97.075812 40.00004,96.554004 40,96 c 4e-6,-2.216 -1.784,-4 -4,-4 z m 128,0 c -2.216,0 -4,1.784 -4,4 0,2.216 1.784,4 4,4 h 8 c 1.662,0 3.08187,-1.000876 3.6875,-2.4375 C 167.88938,97.083628 168,96.554 168,96 c 0,-2.216 -1.784,-4 -4,-4 z m -60,60 c -2.216,0 -4,1.784 -4,4 v 8 c -4e-6,2.216 1.784,4 4,4 2.216,0 4,-1.784 4,-4 v -8 c 0,-1.662 -1.008684,-3.08188 -2.445312,-3.6875 C 97.075812,152.11062 96.554004,151.99996 96,152 Z"
     style="fill:#04abff;stroke-width:4" />
</svg>
