<?xml version="1.0" encoding="UTF-8" standalone="no"?>
<svg
   xmlns:dc="http://purl.org/dc/elements/1.1/"
   xmlns:cc="http://creativecommons.org/ns#"
   xmlns:rdf="http://www.w3.org/1999/02/22-rdf-syntax-ns#"
   xmlns:svg="http://www.w3.org/2000/svg"
   xmlns="http://www.w3.org/2000/svg"
   xmlns:sodipodi="http://sodipodi.sourceforge.net/DTD/sodipodi-0.dtd"
   xmlns:inkscape="http://www.inkscape.org/namespaces/inkscape"
   width="192"
   height="192"
   version="1"
   id="svg10"
   sodipodi:docname="apps_ktuberling.svg"
   inkscape:version="0.92.3 (2405546, 2018-03-11)">
  <metadata
     id="metadata16">
    <rdf:RDF>
      <cc:Work
         rdf:about="">
        <dc:format>image/svg+xml</dc:format>
        <dc:type
           rdf:resource="http://purl.org/dc/dcmitype/StillImage" />
        <dc:title></dc:title>
      </cc:Work>
    </rdf:RDF>
  </metadata>
  <defs
     id="defs14">
    <filter
       inkscape:collect="always"
       style="color-interpolation-filters:sRGB"
       id="filter866"
       x="-0.048"
       width="1.096"
       y="-0.048"
       height="1.096">
      <feGaussianBlur
         inkscape:collect="always"
         stdDeviation="3.2"
         id="feGaussianBlur868" />
    </filter>
    <filter
       inkscape:collect="always"
       style="color-interpolation-filters:sRGB"
       id="filter891"
       x="-0.048"
       width="1.096"
       y="-0.048"
       height="1.096">
      <feGaussianBlur
         inkscape:collect="always"
         stdDeviation="1.6"
         id="feGaussianBlur893" />
    </filter>
  </defs>
  <sodipodi:namedview
     pagecolor="#ffffff"
     bordercolor="#666666"
     borderopacity="1"
     objecttolerance="10"
     gridtolerance="10"
     guidetolerance="10"
     inkscape:pageopacity="0"
     inkscape:pageshadow="2"
     inkscape:window-width="1920"
     inkscape:window-height="1018"
     id="namedview12"
     showgrid="false"
     inkscape:zoom="1"
     inkscape:cx="24"
     inkscape:cy="90.225166"
     inkscape:window-x="0"
     inkscape:window-y="32"
     inkscape:window-maximized="1"
     inkscape:current-layer="svg10" />
  <path
     id="path833"
     d="m 96,20 c -44.32,0 -80,35.68 -80,80 0,44.32 35.68,80 80,80 44.32,0 80,-35.68 80,-80 0,-44.32 -35.68,-80 -80,-80 z"
     inkscape:connector-curvature="0"
     style="opacity:0.2;fill:#000000;stroke-width:4;filter:url(#filter866)" />
  <path
     style="fill:#ffbd8e;stroke-width:4"
     inkscape:connector-curvature="0"
     d="m 96,16 c -44.32,0 -80,35.68 -80,80 0,44.32 35.68,80 80,80 44.32,0 80,-35.68 80,-80 0,-44.32 -35.68,-80 -80,-80 z"
     id="path2" />
  <path
     id="path873"
     d="M 68,62 A 12,12.0004 0 0 0 56,74 12,12.0004 0 0 0 68,86 12,12.0004 0 0 0 80,74 12,12.0004 0 0 0 68,62 Z m 56,0 A 12,12 0 0 0 112,74 12,12 0 0 0 124,86 12,12 0 0 0 136,74 12,12 0 0 0 124,62 Z M 96,90 a 24,16 0 0 0 -24,16 24,16 0 0 0 24,16 24,16 0 0 0 24,-16 24,16 0 0 0 -24,-16 z m -10,8 a 6,6 0 0 1 6,6 6,6 0 0 1 -6,6 6,6 0 0 1 -6,-6 6,6 0 0 1 6,-6 z m 20,0 a 6,6 0 0 1 6,6 6,6 0 0 1 -6,6 6,6 0 0 1 -6,-6 6,6 0 0 1 6,-6 z M 64,122 A 37.0012,40 0 0 0 96.016,142 37.0012,40 0 0 0 128,122 h -4.492 A 37.0012,40 0 0 1 96.016,135.336 37.0012,40 0 0 1 68.508,122 Z"
     inkscape:connector-curvature="0"
     style="opacity:0.2;fill:#000000;stroke-width:4;filter:url(#filter891)" />
  <path
     style="fill:#4d4d4d;stroke-width:4"
     inkscape:connector-curvature="0"
     d="M 68,60 A 12,12.0004 0 0 0 56,72 12,12.0004 0 0 0 68,84 12,12.0004 0 0 0 80,72 12,12.0004 0 0 0 68,60 Z m 56,0 A 12,12 0 0 0 112,72 12,12 0 0 0 124,84 12,12 0 0 0 136,72 12,12 0 0 0 124,60 Z M 96,88 a 24,16 0 0 0 -24,16 24,16 0 0 0 24,16 24,16 0 0 0 24,-16 24,16 0 0 0 -24,-16 z m -10,8 a 6,6 0 0 1 6,6 6,6 0 0 1 -6,6 6,6 0 0 1 -6,-6 6,6 0 0 1 6,-6 z m 20,0 a 6,6 0 0 1 6,6 6,6 0 0 1 -6,6 6,6 0 0 1 -6,-6 6,6 0 0 1 6,-6 z M 64,120 A 37.0012,40 0 0 0 96.016,140 37.0012,40 0 0 0 128,120 h -4.492 A 37.0012,40 0 0 1 96.016,133.336 37.0012,40 0 0 1 68.508,120 Z"
     id="path6" />
  <path
     style="opacity:0.2;fill:#ffffff;stroke-width:4"
     d="M 96 16 C 51.68 16 16 51.68 16 96 C 16 96.115411 16.006233 96.228869 16.007812 96.34375 C 16.358834 52.329079 51.899508 17 96 17 C 140.10049 17 175.64117 52.329079 175.99219 96.34375 C 175.99377 96.228869 176 96.115411 176 96 C 176 51.68 140.32 16 96 16 z "
     id="path835" />
</svg>
