<?xml version="1.0" encoding="UTF-8" standalone="no"?>
<svg
   xmlns:dc="http://purl.org/dc/elements/1.1/"
   xmlns:cc="http://creativecommons.org/ns#"
   xmlns:rdf="http://www.w3.org/1999/02/22-rdf-syntax-ns#"
   xmlns:svg="http://www.w3.org/2000/svg"
   xmlns="http://www.w3.org/2000/svg"
   xmlns:sodipodi="http://sodipodi.sourceforge.net/DTD/sodipodi-0.dtd"
   xmlns:inkscape="http://www.inkscape.org/namespaces/inkscape"
   width="192"
   height="192"
   version="1"
   id="svg12"
   sodipodi:docname="apps_quickedit.svg"
   inkscape:version="0.92.3 (2405546, 2018-03-11)">
  <metadata
     id="metadata18">
    <rdf:RDF>
      <cc:Work
         rdf:about="">
        <dc:format>image/svg+xml</dc:format>
        <dc:type
           rdf:resource="http://purl.org/dc/dcmitype/StillImage" />
        <dc:title></dc:title>
      </cc:Work>
    </rdf:RDF>
  </metadata>
  <defs
     id="defs16">
    <filter
       inkscape:collect="always"
       style="color-interpolation-filters:sRGB"
       id="filter860"
       x="-0.048"
       width="1.096"
       y="-0.048"
       height="1.096">
      <feGaussianBlur
         inkscape:collect="always"
         stdDeviation="3.2"
         id="feGaussianBlur862" />
    </filter>
    <filter
       inkscape:collect="always"
       style="color-interpolation-filters:sRGB"
       id="filter869"
       x="-0.048"
       width="1.096"
       y="-0.048"
       height="1.096">
      <feGaussianBlur
         inkscape:collect="always"
         stdDeviation="2.24"
         id="feGaussianBlur871" />
    </filter>
  </defs>
  <sodipodi:namedview
     pagecolor="#ffffff"
     bordercolor="#666666"
     borderopacity="1"
     objecttolerance="10"
     gridtolerance="10"
     guidetolerance="10"
     inkscape:pageopacity="0"
     inkscape:pageshadow="2"
     inkscape:window-width="1920"
     inkscape:window-height="1018"
     id="namedview14"
     showgrid="false"
     inkscape:zoom="1.07"
     inkscape:cx="161.21504"
     inkscape:cy="80.737589"
     inkscape:window-x="0"
     inkscape:window-y="32"
     inkscape:window-maximized="1"
     inkscape:current-layer="svg12"
     showguides="false">
    <inkscape:grid
       type="xygrid"
       id="grid820" />
  </sodipodi:namedview>
  <rect
     style="opacity:0.2;stroke-width:4;filter:url(#filter860)"
     width="160"
     height="160"
     x="16"
     y="20"
     rx="48"
     ry="48"
     id="rect2" />
  <rect
     style="fill:#5972fe;fill-opacity:1;stroke-width:4"
     width="160"
     height="160"
     x="16"
     y="16"
     rx="48"
     ry="48"
     id="rect4" />
  <path
     inkscape:connector-curvature="0"
     style="opacity:0.2;fill:#ffffff;stroke-width:4"
     d="M 64,16 C 37.408,16 16,37.408 16,64 v 1 C 16,38.408 37.408,17 64,17 h 64 c 26.592,0 48,21.408 48,48 V 64 C 176,37.408 154.592,16 128,16 Z"
     id="path10" />
  <path
     id="path855"
     d="m 96,42 a 56,56 0 0 0 -56,56 56,56 0 0 0 56,56 56,56 0 0 0 25.49219,-6.20117 L 106.19336,132.5 A 36,36 0 0 1 96,134 36,36 0 0 1 60,98 36,36 0 0 1 96,62 a 36,36 0 0 1 36,36 36,36 0 0 1 -1.60352,10.62109 l 15.2461,15.2461 A 56,56 0 0 0 152,98 56,56 0 0 0 96,42 Z m 21.92578,62.26562 c -1.52832,-0.007 -3.05327,0.57281 -4.21875,1.73829 l -9.9707,9.96875 c -2.33091,2.33095 -2.31236,6.10171 0.041,8.45507 L 129.22265,149.87305 149.73437,152 147.60741,131.48828 122.1621,106.04297 c -1.17668,-1.17665 -2.70801,-1.77004 -4.23633,-1.77735 z"
     style="opacity:0.2;fill:#000000;fill-opacity:1;stroke:none;stroke-width:5.78895521;stroke-linecap:round;stroke-linejoin:round;stroke-miterlimit:4;stroke-dasharray:none;stroke-opacity:1;filter:url(#filter869)"
     inkscape:connector-curvature="0" />
  <path
     inkscape:connector-curvature="0"
     style="opacity:1;fill:#ffffff;fill-opacity:1;stroke:none;stroke-width:5.78895521;stroke-linecap:round;stroke-linejoin:round;stroke-miterlimit:4;stroke-dasharray:none;stroke-opacity:1"
     d="m 96,40 a 56,56 0 0 0 -56,56 56,56 0 0 0 56,56 56,56 0 0 0 25.49219,-6.20117 L 106.19336,130.5 A 36,36 0 0 1 96,132 36,36 0 0 1 60,96 36,36 0 0 1 96,60 a 36,36 0 0 1 36,36 36,36 0 0 1 -1.60352,10.62109 l 15.2461,15.2461 A 56,56 0 0 0 152,96 56,56 0 0 0 96,40 Z m 21.92578,62.26562 c -1.52832,-0.007 -3.05327,0.57281 -4.21875,1.73829 l -9.9707,9.96875 c -2.33091,2.33095 -2.31236,6.10171 0.041,8.45507 L 129.22265,147.87305 149.73437,150 147.60741,129.48828 122.1621,104.04297 c -1.17668,-1.17665 -2.70801,-1.77004 -4.23633,-1.77735 z"
     id="path832" />
</svg>
