<?xml version="1.0" encoding="UTF-8" standalone="no"?>
<svg
   xmlns:dc="http://purl.org/dc/elements/1.1/"
   xmlns:cc="http://creativecommons.org/ns#"
   xmlns:rdf="http://www.w3.org/1999/02/22-rdf-syntax-ns#"
   xmlns:svg="http://www.w3.org/2000/svg"
   xmlns="http://www.w3.org/2000/svg"
   xmlns:sodipodi="http://sodipodi.sourceforge.net/DTD/sodipodi-0.dtd"
   xmlns:inkscape="http://www.inkscape.org/namespaces/inkscape"
   width="192"
   height="192"
   version="1.1"
   id="svg16"
   sodipodi:docname="apps_facebook.svg"
   inkscape:version="0.92.3 (2405546, 2018-03-11)">
  <metadata
     id="metadata22">
    <rdf:RDF>
      <cc:Work
         rdf:about="">
        <dc:format>image/svg+xml</dc:format>
        <dc:type
           rdf:resource="http://purl.org/dc/dcmitype/StillImage" />
      </cc:Work>
    </rdf:RDF>
  </metadata>
  <defs
     id="defs20">
    <filter
       inkscape:collect="always"
       style="color-interpolation-filters:sRGB"
       id="filter860"
       x="-0.048"
       width="1.096"
       y="-0.048"
       height="1.096">
      <feGaussianBlur
         inkscape:collect="always"
         stdDeviation="3.2"
         id="feGaussianBlur862" />
    </filter>
    <filter
       inkscape:collect="always"
       style="color-interpolation-filters:sRGB"
       id="filter876"
       x="-0.069010667"
       width="1.1380213"
       y="-0.036796967"
       height="1.0735939">
      <feGaussianBlur
         inkscape:collect="always"
         stdDeviation="1.8402844"
         id="feGaussianBlur878" />
    </filter>
  </defs>
  <sodipodi:namedview
     pagecolor="#ffffff"
     bordercolor="#666666"
     borderopacity="1"
     objecttolerance="10"
     gridtolerance="10"
     guidetolerance="10"
     inkscape:pageopacity="0"
     inkscape:pageshadow="2"
     inkscape:window-width="1920"
     inkscape:window-height="1018"
     id="namedview18"
     showgrid="false"
     inkscape:zoom="1"
     inkscape:cx="96"
     inkscape:cy="96"
     inkscape:window-x="0"
     inkscape:window-y="32"
     inkscape:window-maximized="1"
     inkscape:current-layer="svg16">
    <inkscape:grid
       type="xygrid"
       id="grid840" />
  </sodipodi:namedview>
  <rect
     style="opacity:0.2;fill:#000000;stroke-width:4;filter:url(#filter860)"
     id="rect842"
     transform="matrix(0,-1,-1,0,0,0)"
     ry="12"
     rx="12"
     y="-176"
     x="-180"
     height="160"
     width="160" />
  <rect
     width="160"
     height="160"
     x="-176.00009"
     y="-176"
     rx="12"
     ry="12"
     transform="matrix(0,-1,-1,0,0,0)"
     id="rect2"
     style="fill:#3b5999;stroke-width:4" />
  <path
     d="m 131.124,56 c -11.8672,0.4376 -27.1248,4 -27.1248,32 v 16 h -16 v 24 h 16 v 48 h 24 v -48 h 20 l 4,-24 h -24 V 88 c 0,-8 8,-8 8,-8 h 16 V 56 h -16 c -1.5,0 -3.17968,-0.064 -4.8752,0 z"
     id="path4"
     inkscape:connector-curvature="0"
     style="opacity:0.2;stroke-width:4;filter:url(#filter876)" />
  <path
     style="opacity:0.1;fill:#ffffff;stroke-width:4"
     d="M 28 16 C 21.352 16 16 21.352 16 28 L 16 29 C 16 22.352 21.352 17 28 17 L 164 17 C 170.648 17 176 22.352 176 29 L 176 28 C 176 21.352 170.648 16 164 16 L 28 16 z "
     id="path6" />
  <path
     d="m 131.124,52 c -11.8672,0.4376 -27.1248,4 -27.1248,32 v 16 h -16 v 24 h 16 v 52 h 24 v -52 h 20 l 4,-24 h -24 V 84 c 0,-8 8,-8 8,-8 h 16 V 52 h -16 c -1.5,0 -3.17968,-0.064 -4.8752,0 z"
     id="path8"
     inkscape:connector-curvature="0"
     style="fill:#ffffff;stroke-width:4" />
</svg>
