<?xml version="1.0" encoding="UTF-8" standalone="no"?>
<svg
   xmlns:dc="http://purl.org/dc/elements/1.1/"
   xmlns:cc="http://creativecommons.org/ns#"
   xmlns:rdf="http://www.w3.org/1999/02/22-rdf-syntax-ns#"
   xmlns:svg="http://www.w3.org/2000/svg"
   xmlns="http://www.w3.org/2000/svg"
   xmlns:sodipodi="http://sodipodi.sourceforge.net/DTD/sodipodi-0.dtd"
   xmlns:inkscape="http://www.inkscape.org/namespaces/inkscape"
   width="192"
   height="192"
   version="1.1"
   id="svg20"
   sodipodi:docname="apps_osmand.svg"
   inkscape:version="0.92.3 (2405546, 2018-03-11)">
  <metadata
     id="metadata26">
    <rdf:RDF>
      <cc:Work
         rdf:about="">
        <dc:format>image/svg+xml</dc:format>
        <dc:type
           rdf:resource="http://purl.org/dc/dcmitype/StillImage" />
        <dc:title></dc:title>
      </cc:Work>
    </rdf:RDF>
  </metadata>
  <defs
     id="defs24">
    <filter
       inkscape:collect="always"
       style="color-interpolation-filters:sRGB"
       id="filter879"
       x="-0.049920128"
       width="1.0998403"
       y="-0.046222112"
       height="1.0924442">
      <feGaussianBlur
         inkscape:collect="always"
         stdDeviation="3.120008"
         id="feGaussianBlur881" />
    </filter>
    <filter
       inkscape:collect="always"
       style="color-interpolation-filters:sRGB"
       id="filter899"
       x="-0.048"
       width="1.096"
       y="-0.048"
       height="1.096">
      <feGaussianBlur
         inkscape:collect="always"
         stdDeviation="1.6"
         id="feGaussianBlur901" />
    </filter>
  </defs>
  <sodipodi:namedview
     pagecolor="#ffffff"
     bordercolor="#666666"
     borderopacity="1"
     objecttolerance="10"
     gridtolerance="10"
     guidetolerance="10"
     inkscape:pageopacity="0"
     inkscape:pageshadow="2"
     inkscape:window-width="1920"
     inkscape:window-height="1018"
     id="namedview22"
     showgrid="false"
     inkscape:zoom="1"
     inkscape:cx="-144.735"
     inkscape:cy="123.97203"
     inkscape:window-x="0"
     inkscape:window-y="32"
     inkscape:window-maximized="1"
     inkscape:current-layer="svg20">
    <inkscape:grid
       type="xygrid"
       id="grid832" />
  </sodipodi:namedview>
  <path
     inkscape:connector-curvature="0"
     id="path857"
     d="m 96,18.9992 a 75,75 0 0 0 -75,75 75,75 0 0 0 58.609375,73.125 l 12.087891,12.08789 c 2.383875,2.38388 6.221593,2.38388 8.605464,0 l 12.13086,-12.13086 A 75,75 0 0 0 171,93.9992 a 75,75 0 0 0 -75,-75 z"
     style="opacity:0.2;fill:#000000;fill-opacity:1;stroke:none;stroke-width:6.79903936;stroke-linecap:round;stroke-linejoin:round;stroke-miterlimit:4;stroke-dasharray:none;stroke-opacity:1;filter:url(#filter879)" />
  <path
     style="opacity:1;fill:#ffa500;fill-opacity:1;stroke:none;stroke-width:6.79903936;stroke-linecap:round;stroke-linejoin:round;stroke-miterlimit:4;stroke-dasharray:none;stroke-opacity:1"
     d="m 96,14.9992 a 75,75 0 0 0 -75,75 75,75 0 0 0 58.609375,73.125 l 12.087891,12.08789 c 2.383875,2.38388 6.221593,2.38388 8.605464,0 l 12.13086,-12.13086 A 75,75 0 0 0 171,89.9992 a 75,75 0 0 0 -75,-75 z"
     id="path830"
     inkscape:connector-curvature="0" />
  <path
     inkscape:connector-curvature="0"
     style="opacity:0.2;fill:#ffffff;fill-opacity:1;stroke:none;stroke-width:6.79903936;stroke-linecap:round;stroke-linejoin:round;stroke-miterlimit:4;stroke-dasharray:none;stroke-opacity:1"
     d="M 96,15 A 75,75 0 0 0 21,90 75,75 0 0 0 21.021484,90.410156 75,75 0 0 1 96,16 75,75 0 0 1 170.98242,90.660156 75,75 0 0 0 171,90 75,75 0 0 0 96,15 Z"
     id="path931" />
  <circle
     r="40"
     cy="91.999199"
     cx="96"
     id="circle859"
     style="opacity:0.2;fill:#000000;fill-opacity:1;stroke:none;stroke-width:6.22727966;stroke-linecap:round;stroke-linejoin:round;stroke-miterlimit:4;stroke-dasharray:none;stroke-opacity:1;filter:url(#filter899)" />
  <circle
     style="opacity:1;fill:#ffffff;fill-opacity:1;stroke:none;stroke-width:6.22727966;stroke-linecap:round;stroke-linejoin:round;stroke-miterlimit:4;stroke-dasharray:none;stroke-opacity:1"
     id="path838"
     cx="96"
     cy="89.999199"
     r="40" />
</svg>
