<?xml version="1.0" encoding="UTF-8" standalone="no"?>
<svg
   xmlns:dc="http://purl.org/dc/elements/1.1/"
   xmlns:cc="http://creativecommons.org/ns#"
   xmlns:rdf="http://www.w3.org/1999/02/22-rdf-syntax-ns#"
   xmlns:svg="http://www.w3.org/2000/svg"
   xmlns="http://www.w3.org/2000/svg"
   xmlns:sodipodi="http://sodipodi.sourceforge.net/DTD/sodipodi-0.dtd"
   xmlns:inkscape="http://www.inkscape.org/namespaces/inkscape"
   width="192"
   height="192"
   version="1"
   id="svg16"
   sodipodi:docname="apps_clementine.svg"
   inkscape:version="0.92.3 (2405546, 2018-03-11)">
  <metadata
     id="metadata22">
    <rdf:RDF>
      <cc:Work
         rdf:about="">
        <dc:format>image/svg+xml</dc:format>
        <dc:type
           rdf:resource="http://purl.org/dc/dcmitype/StillImage" />
      </cc:Work>
    </rdf:RDF>
  </metadata>
  <defs
     id="defs20">
    <filter
       inkscape:collect="always"
       style="color-interpolation-filters:sRGB"
       id="filter847"
       x="-0.047999687"
       width="1.0959994"
       y="-0.048000313"
       height="1.0960006">
      <feGaussianBlur
         inkscape:collect="always"
         stdDeviation="3.1999789"
         id="feGaussianBlur849" />
    </filter>
    <filter
       inkscape:collect="always"
       style="color-interpolation-filters:sRGB"
       id="filter875"
       x="-0.04801142"
       width="1.0960228"
       y="-0.047988586"
       height="1.0959772">
      <feGaussianBlur
         inkscape:collect="always"
         stdDeviation="2.8766218"
         id="feGaussianBlur877" />
    </filter>
  </defs>
  <sodipodi:namedview
     pagecolor="#ffffff"
     bordercolor="#666666"
     borderopacity="1"
     objecttolerance="10"
     gridtolerance="10"
     guidetolerance="10"
     inkscape:pageopacity="0"
     inkscape:pageshadow="2"
     inkscape:window-width="1920"
     inkscape:window-height="1018"
     id="namedview18"
     showgrid="false"
     inkscape:zoom="1"
     inkscape:cx="96"
     inkscape:cy="96"
     inkscape:window-x="0"
     inkscape:window-y="32"
     inkscape:window-maximized="1"
     inkscape:current-layer="svg16" />
  <path
     inkscape:connector-curvature="0"
     id="path2"
     d="M 54.43794,20.020538 C 39.447231,20.68382 22.478144,39.146952 17.460246,64.875768 16.266388,71.322656 16.031709,76.491996 16,82.316048 c 0.01396,0.529084 0.01456,1.053592 0.03908,1.5861 2.023855,52.287732 44.597596,94.522262 97.02492,96.041192 0.26736,0.0112 0.53072,0.0152 0.79721,0.0236 3.4371,0.13444 7.34676,-0.17088 10.48327,-0.38332 39.49813,-3.8557 65.267,-35.8552 44.00825,-53.52069 C 156.31972,116.06189 134.14001,108.90109 110.93031,85.8947 86.448064,61.620032 79.481652,38.62084 69.225368,26.755611 64.997352,21.864668 59.84976,19.781086 54.43794,20.020538 Z"
     style="opacity:0.2;stroke-width:4;filter:url(#filter847)" />
  <path
     inkscape:connector-curvature="0"
     id="path4"
     d="M 54.43794,16.020589 C 39.447231,16.683871 22.478144,35.147003 17.460246,60.87582 16.266388,67.322708 16.031709,72.492048 16,78.3161 c 0.01396,0.529084 0.01456,1.053592 0.03908,1.5861 2.023855,52.28773 44.597596,94.52226 97.02492,96.0412 0.26736,0.0112 0.53072,0.0152 0.79721,0.0236 3.4371,0.13444 7.34676,-0.17088 10.48327,-0.38332 39.49813,-3.8557 65.267,-35.85521 44.00825,-53.5207 C 156.31972,112.06194 134.14001,104.90114 110.93031,81.894752 86.448064,57.620084 79.481652,34.620891 69.225368,22.755662 64.997352,17.864718 59.84976,15.781137 54.43794,16.020589 Z"
     style="fill:#f17623;stroke-width:4" />
  <path
     inkscape:connector-curvature="0"
     id="path6"
     d="M 57.116,16.134947 A 84,83.9989 0 0 0 32,76.002164 a 84,83.9989 0 0 0 84,83.998896 84,83.9989 0 0 0 59.796,-25.10767 c -0.58,-4.65994 -2.916,-9.07988 -7.444,-12.84383 -12.032,-9.99987 -34.2,-17.16778 -57.4,-40.171476 C 86.48,57.606404 79.52,34.618705 69.264,22.750861 65.732,18.665314 61.552,16.582942 57.116,16.136547 Z"
     style="fill:#ffbf55;stroke-width:4" />
  <path
     inkscape:connector-curvature="0"
     id="path8"
     d="M 57.117188,20.134909 C 41.059708,35.917728 32.010597,57.486132 32,80.001312 c 0,46.391308 37.60808,83.998898 84,83.998898 22.48994,-0.0272 44.02966,-9.07201 59.79688,-25.10905 l -9.14063,-2.74996 C 152.7534,148.70065 134.84249,155.97555 116,156.00032 c -42.065748,0 -75.995724,-33.92702 -76,-75.991196 v -0.008 C 40.0104,61.382 47.129308,43.682236 59.398436,29.837907 Z"
     style="opacity:0.2;stroke-width:4;filter:url(#filter875)" />
  <path
     inkscape:connector-curvature="0"
     id="path10"
     d="M 57.117188,16.13496 C 41.059708,31.917779 32.010597,53.486184 32,76.001364 c 0,46.391316 37.60808,83.998896 84,83.998896 22.48994,-0.0272 44.02966,-9.07201 59.79688,-25.10904 l -9.14063,-2.74997 C 152.7534,144.7007 134.84249,151.9756 116,152.00037 c -42.065748,0 -75.995724,-33.92702 -76,-75.991194 v -0.008 C 40.0104,57.381864 47.129308,39.682096 59.398436,25.83777 Z"
     style="fill:#ffffff;stroke-width:4" />
  <path
     style="opacity:0.2;fill:#ffffff;stroke-width:4"
     d="M 55.582031 16.003906 C 55.202082 15.996589 54.820514 16.000631 54.4375 16.017578 C 39.446791 16.68086 22.478836 35.148136 17.460938 60.876953 C 16.26708 67.323841 16.031709 72.490401 16 78.314453 C 16.003645 78.452585 16.007279 78.590803 16.009766 78.728516 C 16.054721 73.145334 16.307983 68.102959 17.460938 61.876953 C 22.478836 36.148136 39.446791 17.68086 54.4375 17.017578 C 57.501612 16.882003 60.474244 17.521172 63.25 18.962891 C 63.40364 19.041274 63.558566 19.113782 63.710938 19.197266 C 64.547733 19.663464 65.361642 20.206663 66.15625 20.830078 C 66.43353 21.045191 66.704982 21.282743 66.976562 21.517578 C 67.569839 22.035195 68.146934 22.600426 68.710938 23.212891 C 68.890985 23.407467 69.088785 23.547381 69.265625 23.751953 C 79.521625 35.619797 86.481129 58.605273 110.95312 82.876953 C 134.15313 105.88065 156.31956 113.047 168.35156 123.04688 C 168.43348 123.11495 168.48981 123.18931 168.57031 123.25781 C 169.51569 124.06093 170.34474 124.90068 171.10156 125.75781 C 171.21516 125.88745 171.34381 126.00983 171.45312 126.14062 C 172.24923 127.08501 172.92007 128.06488 173.5 129.0625 C 173.5304 129.11546 173.56415 129.16565 173.59375 129.21875 C 175.14735 131.95092 175.8878 134.86266 175.93945 137.8457 C 176.05459 134.51329 175.32062 131.25563 173.59375 128.21875 C 173.56415 128.16565 173.5304 128.11546 173.5 128.0625 C 172.92007 127.06488 172.24923 126.08501 171.45312 125.14062 C 171.34381 125.00983 171.21516 124.88745 171.10156 124.75781 C 170.34474 123.90068 169.51569 123.06093 168.57031 122.25781 C 168.48981 122.18931 168.43348 122.11495 168.35156 122.04688 C 156.31956 112.047 134.15313 104.88065 110.95312 81.876953 C 86.481129 57.605273 79.521625 34.619797 69.265625 22.751953 C 69.088785 22.547381 68.890985 22.407467 68.710938 22.212891 C 68.146934 21.600426 67.569839 21.035195 66.976562 20.517578 C 66.704982 20.282743 66.43353 20.045191 66.15625 19.830078 C 65.361642 19.206663 64.547733 18.663464 63.710938 18.197266 C 63.558566 18.113782 63.40364 18.041274 63.25 17.962891 C 60.821213 16.701387 58.241677 16.055129 55.582031 16.003906 z "
     id="path12" />
</svg>
