<?xml version="1.0" encoding="UTF-8" standalone="no"?>
<svg
   xmlns:dc="http://purl.org/dc/elements/1.1/"
   xmlns:cc="http://creativecommons.org/ns#"
   xmlns:rdf="http://www.w3.org/1999/02/22-rdf-syntax-ns#"
   xmlns:svg="http://www.w3.org/2000/svg"
   xmlns="http://www.w3.org/2000/svg"
   xmlns:sodipodi="http://sodipodi.sourceforge.net/DTD/sodipodi-0.dtd"
   xmlns:inkscape="http://www.inkscape.org/namespaces/inkscape"
   width="192"
   height="192"
   version="1"
   id="svg12"
   sodipodi:docname="apps_stellio_player.svg"
   inkscape:version="0.92.3 (2405546, 2018-03-11)">
  <metadata
     id="metadata18">
    <rdf:RDF>
      <cc:Work
         rdf:about="">
        <dc:format>image/svg+xml</dc:format>
        <dc:type
           rdf:resource="http://purl.org/dc/dcmitype/StillImage" />
        <dc:title />
      </cc:Work>
    </rdf:RDF>
  </metadata>
  <defs
     id="defs16">
    <filter
       inkscape:collect="always"
       style="color-interpolation-filters:sRGB"
       id="filter860"
       x="-0.048"
       width="1.096"
       y="-0.048"
       height="1.096">
      <feGaussianBlur
         inkscape:collect="always"
         stdDeviation="3.2"
         id="feGaussianBlur862" />
    </filter>
    <filter
       inkscape:collect="always"
       style="color-interpolation-filters:sRGB"
       id="filter895"
       x="-0.044826042"
       width="1.0896521"
       y="-0.05165768"
       height="1.1033154">
      <feGaussianBlur
         inkscape:collect="always"
         stdDeviation="2.1479079"
         id="feGaussianBlur897" />
    </filter>
  </defs>
  <sodipodi:namedview
     pagecolor="#ffffff"
     bordercolor="#666666"
     borderopacity="1"
     objecttolerance="10"
     gridtolerance="10"
     guidetolerance="10"
     inkscape:pageopacity="0"
     inkscape:pageshadow="2"
     inkscape:window-width="1920"
     inkscape:window-height="1018"
     id="namedview14"
     showgrid="false"
     inkscape:zoom="2.32"
     inkscape:cx="108.35345"
     inkscape:cy="80.737589"
     inkscape:window-x="0"
     inkscape:window-y="32"
     inkscape:window-maximized="1"
     inkscape:current-layer="svg12" />
  <rect
     style="opacity:0.2;stroke-width:4;filter:url(#filter860)"
     width="160"
     height="160"
     x="16"
     y="20"
     rx="48"
     ry="48"
     id="rect2" />
  <rect
     style="fill:#e4e4e4;fill-opacity:0.94117647;stroke-width:4"
     width="160"
     height="160"
     x="16"
     y="16"
     rx="48"
     ry="48"
     id="rect4" />
  <path
     style="opacity:0.2;fill:#000000;fill-opacity:1;stroke-width:0.41851097;filter:url(#filter895)"
     d="m 118.10742,48.211307 c -1.42665,-0.08101 -3.03085,1.852012 -4.21875,5.126953 -0.59513,1.64073 -1.65729,4.309087 -2.36133,5.929687 -2.7072,6.23149 -2.84225,8.30494 -0.57812,8.875 1.68556,0.42437 3.08717,-0.142506 5.1914,-2.097656 1.07632,-1.00005 2.36895,-2.034968 2.87305,-2.298828 2.34785,-1.22891 6.87933,0.01679 9.57617,2.630859 1.4837,1.43816 1.97208,2.347834 2.88477,5.371094 0.88051,2.91664 1.39374,3.898702 2.58203,4.945312 1.30612,1.15039 1.78309,1.306641 4,1.306641 2.96145,0 5.9473,-1.313586 7.67969,-3.378906 2.4837,-2.96102 0.63348,-5.35994 -7.30469,-9.46875 -6.25433,-3.23723 -10.58961,-6.761699 -15.81055,-12.855469 -1.78867,-2.08769 -3.69238,-3.907499 -4.23047,-4.042969 -0.0933,-0.0235 -0.18809,-0.03757 -0.2832,-0.04297 z M 88.351562,64.529666 c -2.519673,6.5e-4 -5.28993,0.947456 -5.58789,1.910156 -0.357633,1.15552 1.09997,1.973529 4.861328,2.730469 3.951329,0.79516 5.441772,1.48375 4.740234,2.1875 -0.20944,0.2101 -3.002587,0.446591 -6.207031,0.52539 -14.128722,0.347211 -23.202859,5.447877 -23.230469,13.060547 -0.0094,2.58138 1.139692,4.651299 3.041016,5.480469 v -0.002 c 1.760528,0.76834 3.443738,0.769719 6.007812,0.0059 2.596652,-0.77355 4.655618,-2.854699 6.470704,-6.537109 1.646178,-3.33973 2.251835,-4.049964 4.402343,-5.177734 2.375518,-1.24575 6.684704,-1.158519 12.847657,0.263671 5.532044,1.276601 7.344334,1.380752 9.371094,0.53125 1.83226,-0.767979 2.47591,-2.016037 2.21875,-4.304687 -0.26507,-2.35916 -1.72356,-4.253984 -4.92188,-6.396484 -4.228339,-2.83248 -8.968716,-4.278284 -14.013668,-4.277344 z m 62.224608,14.314453 c -0.73407,0.06559 -1.22561,0.993251 -1.63281,2.960938 -0.63894,3.087458 -2.54234,5.202137 -6.21094,6.898437 -5.90983,2.7326 -12.41717,2.780089 -17.78906,0.130859 -1.95077,-0.96207 -2.77353,-1.173611 -3.35156,-0.863281 -1.07039,0.57467 -0.95708,1.956255 0.31445,3.796875 1.79237,2.59452 4.7272,4.308286 8.56836,5.003906 5.80173,1.05066 15.35329,-1.649447 20,-5.654296 4.27461,-3.684141 4.75748,-9.999364 0.92187,-12.058594 -0.30432,-0.163385 -0.57562,-0.236707 -0.82031,-0.214844 z m -45.58789,6.746094 c -0.92308,0.01252 -1.77346,0.351445 -2.43555,1.015625 -1.36513,1.36943 -1.29903,2.503658 0.26172,4.480469 2.48026,3.141458 2.42147,5.465809 -0.22265,8.943363 -1.42613,1.87563 -1.41271,3.73253 0.0351,4.875 1.45617,1.14903 2.61895,1.10117 4.34961,-0.17969 1.9992,-1.47962 3.16174,-1.34164 5.29492,0.63086 2.12912,1.96875 3.51258,2.14839 5.00586,0.65039 1.96641,-1.97262 1.50318,-3.15906 -2.92382,-7.503908 -3.7344,-3.66508 -3.96737,-3.996095 -4.20508,-5.984375 -0.50022,-4.18406 -0.80553,-4.984185 -2.28906,-5.984375 -0.95267,-0.64226 -1.94802,-0.955879 -2.8711,-0.943359 z M 56.109375,92.687869 C 54.150948,92.607587 51.87432,94.17137 48.628906,97.627322 42.219992,104.452 39,112.73778 39,122.40467 c 0,12.39997 5.805827,21.3366 15.570312,23.9707 2.724019,0.73484 9.966229,0.84707 13.046876,0.20117 2.975057,-0.62376 6.067134,-2.19849 8.029296,-4.08789 3.982261,-3.83462 5.916519,-11.6272 4.267578,-17.19726 -2.200051,-7.43174 -13.567537,-11.5 -18.93164,-6.7754 -2.022013,1.78096 -2.807223,3.50074 -2.845703,6.22266 -0.05784,4.0969 2.602146,6.58522 6.626953,6.19727 1.894585,-0.18262 2.315183,-0.4187 3.835937,-2.15235 2.484963,-2.83289 3.13086,-2.5301 3.13086,1.46875 0,5.43866 -3.658169,8.37194 -10.439453,8.3711 -2.644918,-2.8e-4 -3.635351,-0.20788 -5.716797,-1.19727 -4.890178,-2.32448 -7.271274,-6.48488 -7.65625,-13.375 -0.261475,-4.67996 0.564036,-8.85233 2.580078,-13.04101 1.787622,-3.7141 4.653174,-7.58862 7.099609,-9.59961 3.126789,-2.570255 3.532057,-5.519462 1.046875,-7.617192 -0.820026,-0.692182 -1.644962,-1.068977 -2.535156,-1.105469 z m 18.753906,10.164061 c -2.955878,0 -5.382176,3.07509 -4.367187,5.53321 0.569474,1.37913 1.825545,1.84215 3.923828,1.44726 1.798508,-0.33846 4.853675,0.67338 5.701172,1.88672 0.346169,0.49562 1.017784,1.87375 1.490234,3.06445 0.52661,1.3272 1.255749,2.36719 1.886719,2.6875 0.566095,0.28737 1.049037,0.5263 1.072265,0.5293 0.02326,0.003 0.619212,-0.19487 1.324219,-0.44141 1.435264,-0.50191 2.274243,-2.06219 2.142578,-3.98632 -0.179614,-2.62487 0.59932,-3.43429 4.042969,-4.19336 2.787489,-0.61442 3.632083,-3.13331 1.699219,-5.07227 -1.292684,-1.29675 -2.019314,-1.28965 -6.929688,0.0605 -4.477798,1.23125 -5.801406,1.16476 -8.867187,-0.44336 -1.122849,-0.58896 -2.526461,-1.07227 -3.119141,-1.07227 z m 27.992189,8.14844 c -2.14883,0 -3.834197,0.91428 -4.900392,2.66016 -0.723739,1.18512 -0.802962,2.43751 -0.923828,14.42382 -0.07278,7.21931 -0.01308,13.93054 0.132812,14.91211 0.295946,1.99102 2.412181,4.47634 4.080078,4.79297 1.73226,0.32883 2.02392,0.30464 3.49024,-0.30273 1.43119,-0.59282 21.02214,-11.64459 23.60546,-13.31641 1.82665,-1.18214 2.66016,-2.73842 2.66016,-4.9707 0,-1.40353 -0.26888,-2.20078 -1.05664,-3.12891 -0.60251,-0.70985 -6.26935,-4.21764 -13.18164,-8.1582 -10.45076,-5.95779 -12.37227,-6.91211 -13.90625,-6.91211 z"
     id="path866"
     inkscape:connector-curvature="0" />
  <path
     inkscape:connector-curvature="0"
     style="opacity:0.2;fill:#ffffff;stroke-width:4"
     d="M 64,16 C 37.408,16 16,37.408 16,64 v 1 C 16,38.408 37.408,17 64,17 h 64 c 26.592,0 48,21.408 48,48 V 64 C 176,37.408 154.592,16 128,16 Z"
     id="path10" />
  <path
     style="fill:#a16ff8;fill-opacity:1;stroke-width:0.41851097"
     d="m 101.24408,145.78987 c -1.667898,-0.31663 -3.784222,-2.8035 -4.080167,-4.79452 -0.145889,-0.98157 -0.205693,-7.69138 -0.132908,-14.91069 0.120866,-11.98631 0.20117,-13.2387 0.924909,-14.42382 C 99.022109,109.91496 100.707,109 102.85583,109 c 1.53398,0 3.45429,0.9546 13.90505,6.91239 6.91229,3.94056 12.5797,7.44775 13.18221,8.1576 0.78776,0.92813 1.05691,1.72474 1.05691,3.12827 0,2.23228 -0.8328,3.78893 -2.65945,4.97107 -2.58332,1.67182 -22.17499,12.72378 -23.60618,13.3166 -1.46632,0.60737 -1.75803,0.63277 -3.49029,0.30394 z"
     id="path863"
     inkscape:connector-curvature="0" />
  <path
     inkscape:connector-curvature="0"
     style="fill:#6a90f2;fill-opacity:1;stroke-width:0.42027345"
     d="m 118.10742,46.210938 c -1.42665,-0.08101 -3.03085,1.852012 -4.21875,5.126953 -0.59513,1.64073 -1.65729,4.309087 -2.36133,5.929687 -2.7072,6.23149 -2.84225,8.30494 -0.57812,8.875 1.68556,0.42437 3.08716,-0.142506 5.1914,-2.097656 1.07631,-1.00005 2.36895,-2.034968 2.87305,-2.298828 2.34785,-1.22891 6.87933,0.01679 9.57617,2.630859 1.4837,1.43816 1.97208,2.347834 2.88477,5.371094 0.88051,2.91664 1.39374,3.898702 2.58203,4.945312 1.30612,1.15039 1.78309,1.306641 4,1.306641 2.96145,0 5.9473,-1.313586 7.67969,-3.378906 2.4837,-2.96102 0.63348,-5.35994 -7.30469,-9.46875 -6.25433,-3.23723 -10.58961,-6.761699 -15.81055,-12.855469 -1.78867,-2.08769 -3.69239,-3.907499 -4.23047,-4.042969 -0.0933,-0.0235 -0.18809,-0.03757 -0.2832,-0.04297 z M 88.351562,62.529297 c -2.519674,6.5e-4 -5.28993,0.947456 -5.58789,1.910156 -0.357633,1.15552 1.09997,1.973529 4.861328,2.730469 3.951329,0.79516 5.441772,1.48375 4.740234,2.1875 -0.20944,0.2101 -3.002587,0.44659 -6.207031,0.52539 -14.128722,0.34721 -23.202859,5.447877 -23.230469,13.060547 -0.0094,2.58138 1.139692,4.651299 3.041016,5.480469 v -0.002 c 1.760528,0.76834 3.443738,0.769719 6.007812,0.0059 2.596652,-0.77355 4.655618,-2.854699 6.470704,-6.537109 1.646178,-3.33973 2.251835,-4.049964 4.402343,-5.177734 2.375518,-1.24575 6.684704,-1.158519 12.847657,0.263671 5.532044,1.276601 7.344334,1.380751 9.371094,0.53125 1.83226,-0.76798 2.47591,-2.016037 2.21875,-4.304687 -0.26507,-2.35916 -1.72356,-4.253984 -4.92188,-6.396484 -4.228343,-2.83248 -8.968717,-4.278284 -14.013668,-4.277344 z M 150.57617,76.84375 c -0.73407,0.06559 -1.22561,0.993252 -1.63281,2.960938 -0.63894,3.087459 -2.54234,5.202137 -6.21094,6.898437 -5.90983,2.7326 -12.41717,2.780089 -17.78906,0.130859 -1.95077,-0.96207 -2.77353,-1.173611 -3.35156,-0.863281 -1.07039,0.57467 -0.95708,1.956255 0.31445,3.796875 1.79237,2.59452 4.7272,4.308286 8.56836,5.003906 5.80173,1.05066 15.35329,-1.649446 20,-5.654296 4.27461,-3.684141 4.75748,-9.999364 0.92187,-12.058594 -0.30432,-0.163385 -0.57562,-0.236707 -0.82031,-0.214844 z m -45.58789,6.746094 c -0.92308,0.01252 -1.77346,0.351445 -2.43555,1.015625 -1.36513,1.36943 -1.29903,2.503658 0.26172,4.480469 2.48026,3.141459 2.42147,5.465809 -0.22265,8.943359 -1.42613,1.87563 -1.41271,3.732533 0.0351,4.875003 1.45617,1.14903 2.61895,1.10117 4.34961,-0.17969 1.9992,-1.47962 3.16174,-1.34164 5.29492,0.63086 2.12912,1.96875 3.51258,2.14839 5.00586,0.65039 1.96641,-1.97262 1.50318,-3.15906 -2.92382,-7.503907 -3.7344,-3.66508 -3.96737,-3.996095 -4.20508,-5.984375 -0.50022,-4.18406 -0.80553,-4.984185 -2.28906,-5.984375 -0.95267,-0.64226 -1.94802,-0.955879 -2.8711,-0.943359 z M 56.109375,90.6875 C 54.150948,90.607218 51.87432,92.171001 48.628906,95.626953 42.219992,102.45163 39,110.73741 39,120.4043 c 0,12.39997 5.805826,21.3366 15.570312,23.9707 2.724019,0.73484 9.96623,0.84707 13.046876,0.20117 2.975057,-0.62376 6.067134,-2.19849 8.029296,-4.08789 3.982261,-3.83462 5.916518,-11.6272 4.267578,-17.19726 -2.200051,-7.43174 -13.567537,-11.5 -18.93164,-6.7754 -2.022013,1.78095 -2.807223,3.50074 -2.845703,6.22266 -0.05784,4.0969 2.602146,6.58522 6.626953,6.19727 1.894585,-0.18262 2.315183,-0.4187 3.835937,-2.15235 2.484963,-2.83289 3.13086,-2.5301 3.13086,1.46875 0,5.43866 -3.658169,8.37194 -10.439453,8.3711 -2.644918,-2.8e-4 -3.635351,-0.20788 -5.716797,-1.19727 -4.890178,-2.32448 -7.271274,-6.48488 -7.65625,-13.375 -0.261475,-4.67996 0.564036,-8.85233 2.580078,-13.04101 1.787622,-3.7141 4.653174,-7.58862 7.099609,-9.599614 3.126789,-2.57025 3.532057,-5.519457 1.046875,-7.617187 -0.820026,-0.692182 -1.644962,-1.068977 -2.535156,-1.105469 z m 18.753906,10.16406 c -2.955878,0 -5.382176,3.07509 -4.367187,5.53321 0.569474,1.37913 1.825545,1.84215 3.923828,1.44726 1.798508,-0.33846 4.853675,0.67338 5.701172,1.88672 0.346169,0.49562 1.017784,1.87375 1.490234,3.06445 0.52661,1.3272 1.255749,2.36719 1.886719,2.6875 0.566095,0.28737 1.049036,0.5263 1.072265,0.5293 0.02326,0.003 0.619212,-0.19487 1.324219,-0.44141 1.435264,-0.50191 2.274243,-2.06219 2.142578,-3.98632 -0.179614,-2.62487 0.59932,-3.43429 4.042969,-4.19336 2.787489,-0.61442 3.632083,-3.13331 1.699219,-5.07227 -1.292684,-1.29675 -2.019314,-1.28965 -6.929688,0.0605 -4.477798,1.23125 -5.801406,1.16476 -8.867187,-0.44336 -1.122849,-0.58896 -2.526461,-1.07227 -3.119141,-1.07227 z"
     id="path861" />
</svg>
