<?xml version="1.0" encoding="UTF-8" standalone="no"?>
<svg
   xmlns:dc="http://purl.org/dc/elements/1.1/"
   xmlns:cc="http://creativecommons.org/ns#"
   xmlns:rdf="http://www.w3.org/1999/02/22-rdf-syntax-ns#"
   xmlns:svg="http://www.w3.org/2000/svg"
   xmlns="http://www.w3.org/2000/svg"
   xmlns:sodipodi="http://sodipodi.sourceforge.net/DTD/sodipodi-0.dtd"
   xmlns:inkscape="http://www.inkscape.org/namespaces/inkscape"
   width="192"
   height="192"
   version="1.1"
   id="svg14"
   sodipodi:docname="apps_fbmessenger_lite.svg"
   inkscape:version="0.92.3 (2405546, 2018-03-11)">
  <metadata
     id="metadata20">
    <rdf:RDF>
      <cc:Work
         rdf:about="">
        <dc:format>image/svg+xml</dc:format>
        <dc:type
           rdf:resource="http://purl.org/dc/dcmitype/StillImage" />
        <dc:title></dc:title>
      </cc:Work>
    </rdf:RDF>
  </metadata>
  <defs
     id="defs18">
    <filter
       inkscape:collect="always"
       style="color-interpolation-filters:sRGB"
       id="filter854"
       x="-0.048000156"
       width="1.0960003"
       y="-0.047999844"
       height="1.0959997">
      <feGaussianBlur
         inkscape:collect="always"
         stdDeviation="3.1999992"
         id="feGaussianBlur856" />
    </filter>
    <filter
       inkscape:collect="always"
       style="color-interpolation-filters:sRGB"
       id="filter877"
       x="-0.034285714"
       width="1.0685714"
       y="-0.08"
       height="1.16">
      <feGaussianBlur
         inkscape:collect="always"
         stdDeviation="1.6"
         id="feGaussianBlur879" />
    </filter>
  </defs>
  <sodipodi:namedview
     pagecolor="#ffffff"
     bordercolor="#666666"
     borderopacity="1"
     objecttolerance="10"
     gridtolerance="10"
     guidetolerance="10"
     inkscape:pageopacity="0"
     inkscape:pageshadow="2"
     inkscape:window-width="1920"
     inkscape:window-height="1018"
     id="namedview16"
     showgrid="false"
     inkscape:zoom="2.16"
     inkscape:cx="108.30556"
     inkscape:cy="96"
     inkscape:window-x="0"
     inkscape:window-y="32"
     inkscape:window-maximized="1"
     inkscape:current-layer="svg14" />
  <path
     d="m 95.976,20.00131 c -2.27992,0.01688 -4.558,0.126364 -6.828,0.328124 -1.6456,0.13036 -3.25972,0.340608 -4.8752,0.56248 -0.8562,0.109244 -1.71048,0.231656 -2.56248,0.367188 -2.30172,0.387836 -4.5612,0.87788 -6.7892,1.44532 -0.14592,0.03608 -0.29176,0.07252 -0.43752,0.109376 -33.768,8.794 -58.484,37.6876 -58.484,71.984 4.04e-4,0.24864 0.0204,0.49384 0.02344,0.7422 -0.0084,0.152 -0.0164,0.308 -0.0236,0.46 0.03952,23.548002 12.356,45.640002 32,60.000002 v 24 l 21.2188,-12.4844 c 8.592,2.936 17.648,4.452 26.78,4.484 42.556,-0.048 77.624,-31.74 79.796,-72.116002 0.0636,-0.88452 0.11016,-1.77144 0.14064,-2.66408 0.024,-0.408 0.048,-0.812 0.064,-1.22 -0.004,-0.164 -0.008,-0.328 -0.016,-0.492 0.004,-0.24 0.016,-0.472 0.016,-0.712 0,-38.736 -31.508,-70.664 -72.016,-74.412 -2.212,-0.1956 -4.432,-0.3028 -6.656,-0.3216 -0.448,-0.0068 -0.884,-0.0624 -1.336,-0.0624 z"
     id="path832"
     inkscape:connector-curvature="0"
     style="opacity:0.2;fill:#000000;stroke-width:4;filter:url(#filter854)" />
  <path
     style="fill:#e4e4e4;fill-opacity:1;stroke-width:4"
     inkscape:connector-curvature="0"
     id="path2"
     d="m 95.976,16 c -2.27992,0.01688 -4.558,0.126364 -6.828,0.328124 -1.6456,0.13036 -3.25972,0.340608 -4.8752,0.56248 -0.8562,0.109244 -1.71048,0.231656 -2.56248,0.367188 -2.30172,0.387836 -4.5612,0.87788 -6.7892,1.44532 -0.14592,0.03608 -0.29176,0.07252 -0.43752,0.109376 -33.768,8.794 -58.484,37.6876 -58.484,71.984 4.04e-4,0.24864 0.0204,0.49384 0.02344,0.7422 -0.0084,0.152 -0.0164,0.308 -0.0236,0.46 0.03952,23.548002 12.356,45.640002 32,60.000002 v 24 l 21.2188,-12.4844 c 8.592,2.936 17.648,4.452 26.78,4.484 42.556,-0.048 77.624,-31.74 79.796,-72.116002 0.0636,-0.88452 0.11016,-1.77144 0.14064,-2.66408 0.024,-0.408 0.048,-0.812 0.064,-1.22 -0.004,-0.164 -0.008,-0.328 -0.016,-0.492 0.004,-0.24 0.016,-0.472 0.016,-0.712 0,-38.736 -31.508,-70.664 -72.016,-74.412 -2.212,-0.1956 -4.432,-0.3028 -6.656,-0.3216 -0.448,-0.0068 -0.884,-0.0624 -1.336,-0.0624 z" />
  <path
     style="opacity:0.2;stroke-width:4;filter:url(#filter877)"
     inkscape:connector-curvature="0"
     id="path4"
     d="M 104,116 84,92 40,116 88,68 108,92 152,68 Z" />
  <path
     style="fill:#009eff;fill-opacity:1;stroke-width:4"
     inkscape:connector-curvature="0"
     id="path6"
     d="M 104,112 84,88 40,112 88,64 108,88 152,64 Z" />
  <path
     inkscape:connector-curvature="0"
     style="opacity:0.2;fill:#ffffff;stroke-width:4"
     d="m 95.974609,16 a 80,76 0 0 0 -6.826171,0.328125 c -1.644001,0.1304 -3.260954,0.3405 -4.876954,0.5625 a 80,76 0 0 0 -2.558593,0.367187 c -2.304,0.3876 -4.564969,0.877713 -6.792969,1.445313 A 80,76 0 0 0 74.484375,18.8125 C 40.716375,27.6065 16,56.500475 16,90.796875 c 2.25e-4,0.139302 0.0075,0.278667 0.01367,0.417969 C 16.292611,57.17499 40.90836,28.556503 74.484375,19.8125 a 80,76 0 0 1 0.435547,-0.109375 c 2.228,-0.5676 4.488969,-1.057713 6.792969,-1.445313 a 80,76 0 0 1 2.558593,-0.367187 c 1.616,-0.222 3.232953,-0.4321 4.876954,-0.5625 A 80,76 0 0 1 95.976562,17 l -0.002,-0.002 h 0.01563 c 0.452,0 0.887938,0.0557 1.335938,0.0625 a 80,76 0 0 1 6.65625,0.322265 c 40.34575,3.732988 71.75287,35.42304 72.00391,73.949219 0.005,-0.178582 0.0117,-0.356288 0.0117,-0.537109 0,-38.736 -31.50763,-70.66411 -72.01563,-74.41211 A 80,76 0 0 0 97.326172,16.0625 C 96.878172,16.0557 96.442234,16 95.990234,16 h -0.01367 z m 80.021481,75.916016 c -0.001,0.07621 -0.004,0.152859 -0.006,0.228515 A 80,76 0 0 0 175.99805,92 a 80,76 0 0 0 -0.002,-0.08398 z m -159.992184,0.0059 A 80,76 0 0 0 16,92 a 80,76 0 0 0 0.01563,0.269531 c -0.005,-0.115871 -0.0089,-0.231784 -0.01172,-0.347656 z"
     id="path8" />
</svg>
