<?xml version="1.0" encoding="UTF-8" standalone="no"?>
<svg
   xmlns:dc="http://purl.org/dc/elements/1.1/"
   xmlns:cc="http://creativecommons.org/ns#"
   xmlns:rdf="http://www.w3.org/1999/02/22-rdf-syntax-ns#"
   xmlns:svg="http://www.w3.org/2000/svg"
   xmlns="http://www.w3.org/2000/svg"
   xmlns:sodipodi="http://sodipodi.sourceforge.net/DTD/sodipodi-0.dtd"
   xmlns:inkscape="http://www.inkscape.org/namespaces/inkscape"
   width="192"
   height="192"
   version="1.1"
   id="svg20"
   sodipodi:docname="apps_pocket.svg"
   inkscape:version="0.92.3 (2405546, 2018-03-11)">
  <metadata
     id="metadata26">
    <rdf:RDF>
      <cc:Work
         rdf:about="">
        <dc:format>image/svg+xml</dc:format>
        <dc:type
           rdf:resource="http://purl.org/dc/dcmitype/StillImage" />
      </cc:Work>
    </rdf:RDF>
  </metadata>
  <defs
     id="defs24">
    <filter
       inkscape:collect="always"
       style="color-interpolation-filters:sRGB"
       id="filter866"
       x="-0.048"
       width="1.096"
       y="-0.048"
       height="1.096">
      <feGaussianBlur
         inkscape:collect="always"
         stdDeviation="3.2"
         id="feGaussianBlur868" />
    </filter>
    <filter
       inkscape:collect="always"
       style="color-interpolation-filters:sRGB"
       id="filter901"
       x="-0.044571837"
       width="1.0891437"
       y="-0.051999444"
       height="1.1039989">
      <feGaussianBlur
         inkscape:collect="always"
         stdDeviation="2.0800191"
         id="feGaussianBlur903" />
    </filter>
  </defs>
  <sodipodi:namedview
     pagecolor="#ffffff"
     bordercolor="#666666"
     borderopacity="1"
     objecttolerance="10"
     gridtolerance="10"
     guidetolerance="10"
     inkscape:pageopacity="0"
     inkscape:pageshadow="2"
     inkscape:window-width="1920"
     inkscape:window-height="1018"
     id="namedview22"
     showgrid="false"
     inkscape:zoom="1"
     inkscape:cx="96"
     inkscape:cy="96"
     inkscape:window-x="0"
     inkscape:window-y="32"
     inkscape:window-maximized="1"
     inkscape:current-layer="svg20" />
  <rect
     style="opacity:0.2;fill:#000000;stroke-width:4;filter:url(#filter866)"
     id="rect848"
     transform="matrix(0,-1,-1,0,0,0)"
     ry="12"
     rx="12"
     y="-176"
     x="-180"
     height="160"
     width="160" />
  <rect
     width="160"
     height="160"
     x="-176.00009"
     y="-176"
     rx="12"
     ry="12"
     transform="matrix(0,-1,-1,0,0,0)"
     id="rect2"
     style="fill:#ee4056;stroke-width:4" />
  <path
     style="opacity:0.2;fill:#ffffff;stroke-width:4"
     d="M 28 16 C 21.352 16 16 21.352 16 28 L 16 29 C 16 22.352 21.352 17 28 17 L 164 17 C 170.648 17 176 22.352 176 29 L 176 28 C 176 21.352 170.648 16 164 16 L 28 16 z "
     id="path4" />
  <path
     d="m 52.22,56 c -6.766,0 -12.2188,5.4084 -12.2188,12.1252 0,49.792 9.1696,84.056 56,83.876 46.832,-0.184 56,-34.1236 56,-83.876 C 152.0012,61.4084 146.5484,56 139.7824,56 h -87.564 z m 18,27.3048 c 1.92176,0 3.85264,0.7464 5.328,2.2108 l 20.4532,20.2968 20.4532,-20.2968 c 1.47548,-1.4644 3.37908,-2.1872 5.3048,-2.1872 1.9256,0 3.86828,0.7228 5.3436,2.1872 2.95096,2.9288 2.95096,7.6808 0,10.6096 l -25.2032,25.0076 c -1.62064,1.6084 -3.78824,2.268 -5.8984,2.1096 -2.1102,0.16 -4.2776,-0.5012 -5.8984,-2.1096 L 64.8996,96.1252 c -2.95096,-2.9288 -2.95096,-7.6808 0,-10.6096 1.47552,-1.4644 3.3986,-2.2108 5.3204,-2.2108 z"
     id="path6"
     inkscape:connector-curvature="0"
     style="opacity:0.2;stroke-width:4;filter:url(#filter901)" />
  <path
     d="m 52.22,52 c -6.766,0 -12.2188,5.4084 -12.2188,12.1252 0,49.792 9.1696,84.056 56,83.876 46.832,-0.184 56,-34.1236 56,-83.876 C 152.0012,57.4084 146.5484,52 139.7824,52 h -87.564 z m 18,27.3048 c 1.92176,0 3.85264,0.7464 5.328,2.2108 l 20.4532,20.2968 20.4532,-20.2968 c 1.47548,-1.4644 3.37908,-2.1876 5.3048,-2.1876 1.9256,0 3.86828,0.7232 5.3436,2.1876 2.95096,2.9288 2.95096,7.6808 0,10.6096 l -25.2032,25.0076 c -1.62064,1.6084 -3.78824,2.268 -5.8984,2.1096 -2.1102,0.16 -4.2776,-0.5012 -5.8984,-2.1096 L 64.8996,92.1252 c -2.95096,-2.9288 -2.95096,-7.6808 0,-10.6096 1.47552,-1.4644 3.3986,-2.2108 5.3204,-2.2108 z"
     id="path8"
     inkscape:connector-curvature="0"
     style="fill:#ffffff;stroke-width:4" />
  <path
     d="m 139.7815,51.65764 c 6.7662,0 12.2185,5.409645 12.2185,12.12353 0,49.75173 -9.17,83.69213 -56,83.87041 -46.83,0.18226 -56,-34.0796 -56,-83.87041 7e-6,-6.716696 5.4523,-12.126273 12.2185,-12.126273 h 87.563 z M 70.2211,78.965068 c -1.92171,0 -3.84685,0.740371 -5.32231,2.204795 -2.95099,2.928779 -2.95099,7.681436 0,10.610831 l 25.2,25.010266 c 1.62064,1.60842 3.79064,2.2711 5.90086,2.11291 2.11022,0.15819 4.28022,-0.50449 5.90086,-2.11291 l 25.2,-25.010266 c 2.95099,-2.928778 2.95099,-7.681435 0,-10.610831 -1.47546,-1.464424 -3.41985,-2.181824 -5.34541,-2.181824 -1.92563,0 -3.82368,0.7174 -5.29914,2.181824 l -20.454,20.304167 -20.454,-20.304167 c -1.47546,-1.464424 -3.4006,-2.204795 -5.32231,-2.204795 z"
     id="path10"
     inkscape:connector-curvature="0"
     style="opacity:0;stroke-width:0.69282323" />
  <path
     d="m 139.7815,51.65764 c 6.7662,0 12.2185,5.409645 12.2185,12.12353 0,49.75173 -9.17,83.69213 -56,83.87041 -46.83,0.18226 -56,-34.0796 -56,-83.87041 7e-6,-6.716696 5.4523,-12.126273 12.2185,-12.126273 h 87.563 z M 70.2211,78.965068 c -1.92171,0 -3.84685,0.740371 -5.32231,2.204795 -2.95099,2.928779 -2.95099,7.681436 0,10.610831 l 25.2,25.010266 c 1.62064,1.60842 3.79064,2.2711 5.90086,2.11291 2.11022,0.15819 4.28022,-0.50449 5.90086,-2.11291 l 25.2,-25.010266 c 2.95099,-2.928778 2.95099,-7.681435 0,-10.610831 -1.47546,-1.464424 -3.41985,-2.181824 -5.34541,-2.181824 -1.92563,0 -3.82368,0.7174 -5.29914,2.181824 l -20.454,20.304167 -20.454,-20.304167 c -1.47546,-1.464424 -3.4006,-2.204795 -5.32231,-2.204795 z"
     id="path12"
     inkscape:connector-curvature="0"
     style="opacity:0;stroke-width:0.69282323" />
</svg>
