<?xml version="1.0" encoding="UTF-8" standalone="no"?>
<svg
   xmlns:dc="http://purl.org/dc/elements/1.1/"
   xmlns:cc="http://creativecommons.org/ns#"
   xmlns:rdf="http://www.w3.org/1999/02/22-rdf-syntax-ns#"
   xmlns:svg="http://www.w3.org/2000/svg"
   xmlns="http://www.w3.org/2000/svg"
   xmlns:sodipodi="http://sodipodi.sourceforge.net/DTD/sodipodi-0.dtd"
   xmlns:inkscape="http://www.inkscape.org/namespaces/inkscape"
   width="192"
   height="192"
   version="1.1"
   id="svg28"
   sodipodi:docname="apps_atimetracker.svg"
   inkscape:version="0.92.3 (2405546, 2018-03-11)">
  <metadata
     id="metadata34">
    <rdf:RDF>
      <cc:Work
         rdf:about="">
        <dc:format>image/svg+xml</dc:format>
        <dc:type
           rdf:resource="http://purl.org/dc/dcmitype/StillImage" />
      </cc:Work>
    </rdf:RDF>
  </metadata>
  <defs
     id="defs32">
    <filter
       inkscape:collect="always"
       style="color-interpolation-filters:sRGB"
       id="filter871"
       x="-0.048"
       width="1.096"
       y="-0.048"
       height="1.096">
      <feGaussianBlur
         inkscape:collect="always"
         stdDeviation="3.2"
         id="feGaussianBlur873" />
    </filter>
    <filter
       inkscape:collect="always"
       style="color-interpolation-filters:sRGB"
       id="filter887"
       x="-0.048"
       width="1.096"
       y="-0.048"
       height="1.096">
      <feGaussianBlur
         inkscape:collect="always"
         stdDeviation="2.56"
         id="feGaussianBlur889" />
    </filter>
    <filter
       inkscape:collect="always"
       style="color-interpolation-filters:sRGB"
       id="filter903"
       x="-0.048"
       width="1.096"
       y="-0.048"
       height="1.096">
      <feGaussianBlur
         inkscape:collect="always"
         stdDeviation="0.64"
         id="feGaussianBlur905" />
    </filter>
    <filter
       inkscape:collect="always"
       style="color-interpolation-filters:sRGB"
       id="filter931"
       x="-0.042452387"
       width="1.0849048"
       y="-0.055215473"
       height="1.1104309">
      <feGaussianBlur
         inkscape:collect="always"
         stdDeviation="0.92336022"
         id="feGaussianBlur933" />
    </filter>
    <filter
       inkscape:collect="always"
       style="color-interpolation-filters:sRGB"
       id="filter947"
       x="-0.048000063"
       width="1.0960001"
       y="-0.047999937"
       height="1.0959999">
      <feGaussianBlur
         inkscape:collect="always"
         stdDeviation="1.6033839"
         id="feGaussianBlur949" />
    </filter>
  </defs>
  <sodipodi:namedview
     pagecolor="#ffffff"
     bordercolor="#666666"
     borderopacity="1"
     objecttolerance="10"
     gridtolerance="10"
     guidetolerance="10"
     inkscape:pageopacity="0"
     inkscape:pageshadow="2"
     inkscape:window-width="1920"
     inkscape:window-height="1018"
     id="namedview30"
     showgrid="false"
     inkscape:zoom="2.32"
     inkscape:cx="7.6155922"
     inkscape:cy="140.2592"
     inkscape:window-x="0"
     inkscape:window-y="32"
     inkscape:window-maximized="1"
     inkscape:current-layer="svg28">
    <inkscape:grid
       type="xygrid"
       id="grid853" />
  </sodipodi:namedview>
  <path
     inkscape:connector-curvature="0"
     id="path2"
     d="m 96,20 c -44.141228,0 -80,35.85876 -80,80 0,44.14124 35.858772,80.00001 80,80 44.14123,0 80.00004,-35.85876 80,-80 0,-44.14124 -35.85877,-80 -80,-80 z"
     style="opacity:0.2;stroke-width:4;filter:url(#filter871)" />
  <path
     inkscape:connector-curvature="0"
     id="path4"
     d="M 96,16.000002 C 51.858772,16.000002 16,51.85876 16,96 c 0,44.14124 35.858772,80.00001 80,80 44.14123,0 80.00004,-35.85876 80,-80 0,-44.14124 -35.85877,-79.999998 -80,-79.999998 z"
     style="fill:#4f4f4f;stroke-width:4" />
  <path
     style="opacity:0.1;fill:#ffffff;stroke-width:4"
     d="M 96 16 C 51.858772 16 16 51.85876 16 96 C 16 96.117346 16.005349 96.233006 16.007812 96.349609 C 16.358771 52.507744 52.076264 17 96 17 C 139.92374 17 175.64123 52.507744 175.99219 96.349609 C 175.99465 96.233006 176 96.117349 176 96 C 176 51.85876 140.14123 16 96 16 z "
     id="path6" />
  <path
     inkscape:connector-curvature="0"
     id="path8"
     d="M 96.000004,35.999999 C 60.687008,35.999999 32,64.687004 32,99.999996 32,135.31299 60.687008,164.00001 96.000004,164 131.31299,164 160.00002,135.31299 160,99.999996 160,64.687004 131.31299,35.999999 96.000004,35.999999 Z"
     style="opacity:0.2;stroke-width:4;filter:url(#filter887)" />
  <path
     inkscape:connector-curvature="0"
     id="path10"
     d="M 96.000004,32 C 60.687008,32 32,60.687004 32,95.999996 32,131.31299 60.687008,160.00001 96.000004,160 131.31299,160 160.00002,131.31299 160,95.999996 160,60.687004 131.31299,32 96.000004,32 Z"
     style="fill:#a56bf9;stroke-width:4" />
  <path
     style="opacity:0.1;fill:#ffffff;stroke-width:4"
     d="M 96 32 C 60.687004 32 32 60.687008 32 96 C 32 96.118628 32.01068 96.234272 32.015625 96.351562 C 32.365873 61.337916 60.904428 33 96 33 C 131.09557 33 159.63413 61.337916 159.98438 96.351562 C 159.98932 96.234272 160 96.118626 160 96 C 160 60.687008 131.31299 32 96 32 z "
     id="path12" />
  <path
     inkscape:connector-curvature="0"
     id="path14"
     d="m 96,82.000001 c -8.828248,0 -16,7.171752 -16,16 C 80,106.82824 87.171752,114 96,114 c 8.82824,0 16,-7.17176 16,-15.999999 0,-8.828248 -7.17176,-16 -16,-16 z"
     style="opacity:0.1;stroke-width:4;filter:url(#filter903)" />
  <path
     style="color:#000000;font-style:normal;font-variant:normal;font-weight:normal;font-stretch:normal;font-size:medium;line-height:normal;font-family:sans-serif;font-variant-ligatures:normal;font-variant-position:normal;font-variant-caps:normal;font-variant-numeric:normal;font-variant-alternates:normal;font-feature-settings:normal;text-indent:0;text-align:start;text-decoration:none;text-decoration-line:none;text-decoration-style:solid;text-decoration-color:#000000;letter-spacing:normal;word-spacing:normal;text-transform:none;writing-mode:lr-tb;direction:ltr;text-orientation:mixed;dominant-baseline:auto;baseline-shift:baseline;text-anchor:start;white-space:normal;shape-padding:0;clip-rule:nonzero;display:inline;overflow:visible;visibility:visible;opacity:0.2;isolation:auto;mix-blend-mode:normal;color-interpolation:sRGB;color-interpolation-filters:linearRGB;solid-color:#000000;solid-opacity:1;vector-effect:none;fill:#000000;fill-opacity:1;fill-rule:nonzero;stroke:none;stroke-width:16;stroke-linecap:round;stroke-linejoin:round;stroke-miterlimit:4;stroke-dasharray:none;stroke-dashoffset:0;stroke-opacity:1;color-rendering:auto;image-rendering:auto;shape-rendering:auto;text-rendering:auto;enable-background:accumulate;filter:url(#filter947)"
     d="m 159.8418,27.921875 a 8.0008,8.0008 0 0 0 -5.49805,2.419922 l -64,64 a 8.0008,8.0008 0 1 0 11.3125,11.314453 l 64,-64 A 8.0008,8.0008 0 0 0 159.8418,27.921875 Z"
     id="path16"
     inkscape:connector-curvature="0" />
  <path
     inkscape:connector-curvature="0"
     id="path18"
     d="M 96,96 160,32"
     style="fill:none;stroke:#e4e4e4;stroke-width:16;stroke-linecap:round;stroke-linejoin:round" />
  <path
     style="color:#000000;font-style:normal;font-variant:normal;font-weight:normal;font-stretch:normal;font-size:medium;line-height:normal;font-family:sans-serif;font-variant-ligatures:normal;font-variant-position:normal;font-variant-caps:normal;font-variant-numeric:normal;font-variant-alternates:normal;font-feature-settings:normal;text-indent:0;text-align:start;text-decoration:none;text-decoration-line:none;text-decoration-style:solid;text-decoration-color:#000000;letter-spacing:normal;word-spacing:normal;text-transform:none;writing-mode:lr-tb;direction:ltr;text-orientation:mixed;dominant-baseline:auto;baseline-shift:baseline;text-anchor:start;white-space:normal;shape-padding:0;clip-rule:nonzero;display:inline;overflow:visible;visibility:visible;opacity:0.2;isolation:auto;mix-blend-mode:normal;color-interpolation:sRGB;color-interpolation-filters:linearRGB;solid-color:#000000;solid-opacity:1;vector-effect:none;fill:#000000;fill-opacity:1;fill-rule:nonzero;stroke:none;stroke-width:16;stroke-linecap:round;stroke-linejoin:round;stroke-miterlimit:4;stroke-dasharray:none;stroke-dashoffset:0;stroke-opacity:1;color-rendering:auto;image-rendering:auto;shape-rendering:auto;text-rendering:auto;enable-background:accumulate;filter:url(#filter931)"
     d="M 59.923828,67.935547 A 8.0008,8.0008 0 0 0 55.5625,82.65625 l 36,24 a 8.0008,8.0008 0 1 0 8.875,-13.3125 l -36,-24 a 8.0008,8.0008 0 0 0 -4.513672,-1.408203 z"
     id="path20"
     inkscape:connector-curvature="0" />
  <path
     inkscape:connector-curvature="0"
     id="path22"
     d="M 60,72 96,96"
     style="fill:none;stroke:#e4e4e4;stroke-width:16;stroke-linecap:round;stroke-linejoin:round" />
  <path
     inkscape:connector-curvature="0"
     id="path24"
     d="m 96,80 c -8.828248,0 -16,7.171752 -16,16 0,8.82824 7.171752,16 16,16 8.82824,0 16,-7.17176 16,-16 0,-8.828248 -7.17176,-16 -16,-16 z"
     style="fill:#4f4f4f;stroke-width:4" />
</svg>
