<?xml version="1.0" encoding="UTF-8" standalone="no"?>
<svg
   xmlns:dc="http://purl.org/dc/elements/1.1/"
   xmlns:cc="http://creativecommons.org/ns#"
   xmlns:rdf="http://www.w3.org/1999/02/22-rdf-syntax-ns#"
   xmlns:svg="http://www.w3.org/2000/svg"
   xmlns="http://www.w3.org/2000/svg"
   xmlns:sodipodi="http://sodipodi.sourceforge.net/DTD/sodipodi-0.dtd"
   xmlns:inkscape="http://www.inkscape.org/namespaces/inkscape"
   width="192"
   height="192"
   version="1"
   id="svg32"
   sodipodi:docname="apps_peanut_encryption.svg"
   inkscape:version="0.92.3 (2405546, 2018-03-11)">
  <metadata
     id="metadata38">
    <rdf:RDF>
      <cc:Work
         rdf:about="">
        <dc:format>image/svg+xml</dc:format>
        <dc:type
           rdf:resource="http://purl.org/dc/dcmitype/StillImage" />
      </cc:Work>
    </rdf:RDF>
  </metadata>
  <defs
     id="defs36">
    <filter
       inkscape:collect="always"
       style="color-interpolation-filters:sRGB"
       id="filter871"
       x="-0.0412"
       width="1.0824"
       y="-0.057488372"
       height="1.1149767">
      <feGaussianBlur
         inkscape:collect="always"
         stdDeviation="2.06"
         id="feGaussianBlur873" />
    </filter>
    <filter
       inkscape:collect="always"
       style="color-interpolation-filters:sRGB"
       id="filter887"
       x="-0.046110577"
       width="1.0922212"
       y="-0.050050881"
       height="1.1001018">
      <feGaussianBlur
         inkscape:collect="always"
         stdDeviation="1.998125"
         id="feGaussianBlur889" />
    </filter>
    <filter
       inkscape:collect="always"
       style="color-interpolation-filters:sRGB"
       id="filter903"
       x="-0.036"
       width="1.072"
       y="-0.072"
       height="1.144">
      <feGaussianBlur
         inkscape:collect="always"
         stdDeviation="1.8"
         id="feGaussianBlur905" />
    </filter>
    <filter
       inkscape:collect="always"
       style="color-interpolation-filters:sRGB"
       id="filter934"
       x="-0.03698242"
       width="1.0739648"
       y="-0.068367691"
       height="1.1367354">
      <feGaussianBlur
         inkscape:collect="always"
         stdDeviation="0.3698242"
         id="feGaussianBlur936" />
    </filter>
  </defs>
  <sodipodi:namedview
     pagecolor="#ffffff"
     bordercolor="#666666"
     borderopacity="1"
     objecttolerance="10"
     gridtolerance="10"
     guidetolerance="10"
     inkscape:pageopacity="0"
     inkscape:pageshadow="2"
     inkscape:window-width="1920"
     inkscape:window-height="1018"
     id="namedview34"
     showgrid="false"
     inkscape:zoom="1"
     inkscape:cx="96"
     inkscape:cy="37.828039"
     inkscape:window-x="0"
     inkscape:window-y="32"
     inkscape:window-maximized="1"
     inkscape:current-layer="svg32" />
  <path
     inkscape:connector-curvature="0"
     id="path2"
     d="m 96,19.9995 a 52,52 0 0 0 -52,52 52,52 0 0 0 24,43.8125 V 71.9995 a 28,28 0 0 1 28,-28 28,28 0 0 1 28,28 v 43.75 a 52,52 0 0 0 24,-43.75 52,52 0 0 0 -52,-52 z"
     style="opacity:0.2;stroke-width:4;filter:url(#filter887)" />
  <path
     inkscape:connector-curvature="0"
     id="path4"
     d="M 96,16 A 52,52 0 0 0 44,68 52,52 0 0 0 68,111.8125 V 68 a 28,28 0 0 1 28,-28 28,28 0 0 1 28,28 v 43.75 A 52,52 0 0 0 148,68 52,52 0 0 0 96,16 Z"
     style="fill:#666666;stroke-width:4" />
  <path
     inkscape:connector-curvature="0"
     id="path6"
     d="m 58,94 c -12.150264,0 -22,9.84974 -22,22 0.0024,0.55538 0.02588,1.11046 0.07031,1.66406 C 36.060178,117.78067 36,117.88068 36,118 v 2 c 0,33.13708 26.862916,60 60,60 33.13708,0 60,-26.86292 60,-60 v -2 c 0,-0.11932 -0.0602,-0.21932 -0.0703,-0.33592 0.0444,-0.55362 0.0679,-1.1087 0.0703,-1.66408 0,-12.15026 -9.84974,-22 -22,-22 -10,0 -20,5.80372 -20,16.16406 C 109.60191,105.16994 103.17775,102 96,102 88.822252,102 82.398092,105.16994 78,110.16406 78.695812,100.2882 68,94 58,94 Z"
     style="opacity:0.2;stroke-width:4;filter:url(#filter871)" />
  <path
     inkscape:connector-curvature="0"
     id="path8"
     d="m 58,90 c -12.150264,0 -22,9.849736 -22,22 0.0024,0.55538 0.02588,1.11046 0.07031,1.66406 C 36.060178,113.78067 36,113.88068 36,114 v 2 c 0,33.13708 26.862916,60 60,60 33.13708,0 60,-26.86292 60,-60 v -2 c 0,-0.11932 -0.0602,-0.21932 -0.0703,-0.33592 0.0444,-0.55362 0.0679,-1.1087 0.0703,-1.66408 0,-12.150264 -9.84974,-22 -22,-22 -10,0 -20,5.80372 -20,16.16406 C 109.60191,101.16994 103.17775,98 96,98 88.822252,98 82.398092,101.16994 78,106.16406 78.695812,96.288196 68,90 58,90 Z"
     style="fill:#694f30;stroke-width:4" />
  <path
     inkscape:connector-curvature="0"
     id="path10"
     d="m 48,70 c -6.648,0 -12,5.352 -12,12 v 36 c 0,2.07107 0.10766,4.11579 0.3125,6.13281 0.202348,1.98531 0.500243,3.94397 0.890625,5.86719 H 75.242188 C 79.524584,122.58266 87.4352,118.00957 96,118 c 8.56201,0.0124 16.469,4.58507 20.75,12 h 38.04688 c 0.3904,-1.92322 0.68901,-3.88196 0.89062,-5.86719 C 155.89234,122.11579 156,120.07107 156,118 V 82 c 0,-6.648 -5.352,-12 -12,-12 h -10 -6 c -6.648,0 -12,5.352 -12,12 v 4 c 0,0.0268 0.008,0.05136 0.008,0.07812 C 116.00786,86.10852 116,86.13376 116,86.16404 111.60191,81.16994 103.17775,78 96,78 c -7.177748,0 -15.601908,3.16994 -20,8.164064 0.04884,-0.693012 0.04088,-1.366692 0,-2.02344 V 82 C 76,75.352 70.648,70 64,70 Z"
     style="opacity:0.2;stroke-width:4;filter:url(#filter903)" />
  <path
     inkscape:connector-curvature="0"
     id="path12"
     d="m 48,68 c -6.648,0 -12,5.352 -12,12 v 36 c 0,2.07107 0.10766,4.11579 0.3125,6.13281 0.202346,1.98531 0.500243,3.94397 0.890625,5.86719 H 75.242188 C 79.524584,120.58266 87.4352,116.00957 96,116 c 8.56201,0.0124 16.469,4.58507 20.75,12 h 38.04688 c 0.3904,-1.92322 0.68901,-3.88196 0.89062,-5.86719 C 155.89234,120.11579 156,118.07107 156,116 V 80 c 0,-6.648 -5.352,-12 -12,-12 h -10 -6 c -6.648,0 -12,5.352 -12,12 v 4 c 0,0.0268 0.008,0.05136 0.008,0.07812 C 116.00786,84.10852 116,84.13376 116,84.16404 111.60191,79.16994 103.17775,76 96,76 c -7.177748,0 -15.601908,3.16994 -20,8.164064 0.04884,-0.693012 0.04088,-1.366692 0,-2.02344 V 80 C 76,73.352 70.648,68 64,68 Z"
     style="fill:#967f63;stroke-width:4" />
  <path
     inkscape:connector-curvature="0"
     id="path14"
     d="m 96,128 a 12,12 0 0 0 -12,12 12,12 0 0 0 4,8.92969 v 13.92969 C 88,165.70852 89.784,168 92,168 h 8 c 2.216,0 4,-2.29148 4,-5.14062 v -13.9375 A 12,12 0 0 0 108,140 12,12 0 0 0 96,128 Z"
     style="opacity:0.4;stroke-width:4" />
  <circle
     id="circle16"
     r="8"
     cy="84"
     cx="136"
     style="opacity:0.4;stroke-width:4" />
  <circle
     id="circle18"
     r="4"
     cy="84"
     cx="64"
     style="opacity:0.4;stroke-width:4" />
  <circle
     id="circle20"
     r="4"
     cy="84"
     cx="48"
     style="opacity:0.4;stroke-width:4" />
  <path
     style="opacity:0.1;fill:#ffffff;stroke-width:4"
     d="M 96 16 A 52 52 0 0 0 44 68 A 52 52 0 0 0 44.019531 68.433594 A 52 52 0 0 1 96 17 A 52 52 0 0 1 147.97656 68.513672 A 52 52 0 0 0 148 68 A 52 52 0 0 0 96 16 z "
     id="path22" />
  <path
     style="opacity:0.2;fill:#ffffff;stroke-width:4"
     d="M 48 68 C 41.352 68 36 73.352 36 80 L 36 81 C 36 74.352 41.352 69 48 69 L 64 69 C 70.648 69 76 74.352 76 81 L 76 80 C 76 73.352 70.648 68 64 68 L 48 68 z M 128 68 C 121.352 68 116 73.352 116 80 L 116 81 C 116 74.352 121.352 69 128 69 L 134 69 L 144 69 C 150.648 69 156 74.352 156 81 L 156 80 C 156 73.352 150.648 68 144 68 L 134 68 L 128 68 z M 96 76 C 88.822252 76 80.398092 79.169939 76 84.164062 C 76.019408 84.482403 76.031715 84.804436 76.033203 85.130859 C 80.439714 80.156805 88.83893 77 96 77 C 103.17775 77 111.60191 80.169962 116 85.164062 L 116 84.164062 C 111.60191 79.169962 103.17775 76 96 76 z M 76.015625 85.65625 C 76.01027 85.825424 76.012092 85.992497 76 86.164062 C 76.010219 86.152458 76.02294 86.142444 76.033203 86.130859 C 76.032472 85.970601 76.021051 85.814509 76.015625 85.65625 z M 116 86 L 116 86.164062 C 116 86.133662 116.00781 86.108525 116.00781 86.078125 C 116.00722 86.051345 116 86.0268 116 86 z "
     id="path24" />
  <circle
     id="circle26"
     r="4"
     cy="148"
     cx="64"
     style="opacity:0.4;stroke-width:4" />
  <circle
     id="circle28"
     r="4"
     cy="148"
     cx="128"
     style="opacity:0.4;stroke-width:4" />
  <path
     style="opacity:0.1;stroke-width:4;filter:url(#filter934)"
     d="M 96 128 A 12 12 0 0 0 84 140 A 12 12 0 0 0 84.048828 140.98242 A 12 12 0 0 1 96 130 A 12 12 0 0 1 107.94727 140.94531 A 12 12 0 0 0 108 140 A 12 12 0 0 0 96 128 z "
     id="path913" />
  <path
     style="opacity:0.1;stroke-width:4;fill:#ffffff"
     d="M 84.019531 140.40625 A 12 12 0 0 0 84 141 A 12 12 0 0 0 88 149.92969 L 88 148.92969 A 12 12 0 0 1 84.019531 140.40625 z M 107.97852 140.58984 A 12 12 0 0 1 104 148.92188 L 104 149.92188 A 12 12 0 0 0 108 141 A 12 12 0 0 0 107.97852 140.58984 z M 88 162.85938 L 88 163.85938 C 88 166.70852 89.784 169 92 169 L 100 169 C 102.216 169 104 166.70852 104 163.85938 L 104 162.85938 C 104 165.70852 102.216 168 100 168 L 92 168 C 89.784 168 88 165.70852 88 162.85938 z "
     id="path938" />
</svg>
