<?xml version="1.0" encoding="UTF-8" standalone="no"?>
<svg
   xmlns:dc="http://purl.org/dc/elements/1.1/"
   xmlns:cc="http://creativecommons.org/ns#"
   xmlns:rdf="http://www.w3.org/1999/02/22-rdf-syntax-ns#"
   xmlns:svg="http://www.w3.org/2000/svg"
   xmlns="http://www.w3.org/2000/svg"
   xmlns:sodipodi="http://sodipodi.sourceforge.net/DTD/sodipodi-0.dtd"
   xmlns:inkscape="http://www.inkscape.org/namespaces/inkscape"
   width="192"
   height="192"
   version="1"
   id="svg12"
   sodipodi:docname="apps_litter_web_browser.svg"
   inkscape:version="0.92.3 (2405546, 2018-03-11)">
  <metadata
     id="metadata18">
    <rdf:RDF>
      <cc:Work
         rdf:about="">
        <dc:format>image/svg+xml</dc:format>
        <dc:type
           rdf:resource="http://purl.org/dc/dcmitype/StillImage" />
      </cc:Work>
    </rdf:RDF>
  </metadata>
  <defs
     id="defs16">
    <filter
       inkscape:collect="always"
       style="color-interpolation-filters:sRGB"
       id="filter848"
       x="-0.048"
       width="1.096"
       y="-0.048"
       height="1.096">
      <feGaussianBlur
         inkscape:collect="always"
         stdDeviation="3.2"
         id="feGaussianBlur850" />
    </filter>
    <filter
       inkscape:collect="always"
       style="color-interpolation-filters:sRGB"
       id="filter861"
       x="-0.023335107"
       width="1.0466702"
       y="-0.024703894"
       height="1.0494078">
      <feGaussianBlur
         inkscape:collect="always"
         stdDeviation="1.5556738"
         id="feGaussianBlur863" />
    </filter>
  </defs>
  <sodipodi:namedview
     pagecolor="#ffffff"
     bordercolor="#666666"
     borderopacity="1"
     objecttolerance="10"
     gridtolerance="10"
     guidetolerance="10"
     inkscape:pageopacity="0"
     inkscape:pageshadow="2"
     inkscape:window-width="1920"
     inkscape:window-height="1018"
     id="namedview14"
     showgrid="false"
     inkscape:zoom="1"
     inkscape:cx="96"
     inkscape:cy="96"
     inkscape:window-x="0"
     inkscape:window-y="32"
     inkscape:window-maximized="1"
     inkscape:current-layer="svg12" />
  <rect
     id="rect2"
     transform="matrix(0,-1,-1,0,0,0)"
     ry="80"
     rx="80"
     y="-176"
     x="-180"
     height="160"
     width="160"
     style="opacity:0.2;stroke-width:4;filter:url(#filter848)" />
  <rect
     style="fill:#367ff5;stroke-width:4;fill-opacity:1"
     id="rect4"
     transform="matrix(0,-1,-1,0,0,0)"
     ry="80"
     rx="80"
     y="-176"
     x="-176"
     height="160"
     width="160" />
  <path
     inkscape:connector-curvature="0"
     id="path6"
     d="M 85.764,16.6676 C 75.3612,17.986 65.6092,21.3032 56.8656,26.1988 l 5.6796,1.42188 3.67188,2.57032 v 2.20312 l 6.25,4.0468 -1.464,5.8828 -3.304,-2.57 -2.212,2.57 -2.572,1.4688 -1.468,-4.414 0.736,-2.5704 -0.736,-1.8356 -3.67968,-3.31248 h -1.46876 l 1.46876,3.67968 v 3.30468 c -1.444,-0.4028 -2.932,-0.5464 -4.412,-0.7348 l 4.0468,2.94532 0.3672,1.83592 4.7812,4.0468 4.7736,-1.10156 v -2.94532 l 2.21092,1.46876 -1.10156,2.57812 h 3.67188 l 1.84376,3.30468 2.20312,2.57812 4.414,0.73436 -2.57812,2.57032 -0.73436,2.57812 h 3.31248 l 4.0392,2.20312 v 6.6172 H 82.7696 l -1.83592,1.83592 -4.0468,-1.83592 -1.46876,-4.0468 -2.94532,-1.83592 -0.3672,-1.46876 -4.7736,-1.10156 -2.57812,2.93752 -2.93752,1.46876 1.83592,3.31248 -2.57032,-0.73436 -1.47656,-3.31248 3.31248,-3.67188 h -1.46876 l -2.94532,2.57032 -0.73436,3.67968 -2.57032,3.30468 -0.73436,-4.7736 -1.47656,-0.7422 c -1.55684,1.64904 -2.72776,3.65976 -4.0392,5.5156 l -5.1484,0.3672 -2.57812,1.84376 1.10936,1.83592 2.93752,2.57032 h 4.0468 l 5.5156,-1.83592 2.57032,0.3672 2.20312,2.20312 5.8828,-5.8828 4.0468,-1.10156 5.8828,0.73436 5.5156,1.47656 c 3.00364,3.47444 5.9772,7.048 8.8204,10.6564 l 3.31248,8.4608 -1.47656,1.46876 2.94532,4.414 -3.31248,7.7188 c -2.67756,3.09036 -5.4124,6.0952 -8.086,9.1876 l -4.0468,-3.30468 -1.46876,1.83592 -4.414,-2.57032 -1.46876,1.46876 h -4.0392 l -2.57812,2.93752 1.46876,5.1484 -2.93752,3.31248 0.3672,5.8828 -2.57032,4.4064 1.83592,3.67968 c 0.15672,2.67572 0.3672,5.4096 0.3672,8.086 -1.29044,3.62552 -2.82828,7.0124 -4.0468,10.664 l -0.73436,5.8828 v 2.93752 H 56.66768 L 52.988,161.07372 h -3.5078 c 13.1008,9.3636 29.1224,14.9296 46.524,14.9296 13.0672,0 25.3468,-3.16952 36.2188,-8.6796 l 0.17968,-0.3672 -2.57812,-2.57032 -0.73436,-2.57812 -4.0392,-1.10156 -2.94532,-8.086 0.73436,-1.83592 -1.83592,-3.31248 -4.7812,-1.10156 -2.20312,-5.5156 0.3672,-7.3516 -3.67968,-5.1484 -0.3672,-5.1484 c 5.0168,-2.5382 9.7316,-5.1052 14.7108,-7.7188 l 2.57032,-5.1484 4.414,-1.10156 2.57032,-6.6172 5.8828,0.73436 5.5156,-4.0392 5.5156,5.1408 v 0.73436 c 1.66472,-0.4906 3.66616,-0.53932 5.1484,-1.46876 l 1.10156,-3.67188 V 96.3706 l 3.67188,0.3672 c -0.30588,-2.47152 -0.79452,-5.2476 -1.10156,-7.7188 h 2.21096 l 2.20312,2.93752 2.20312,1.10156 2.94532,-1.83592 0.3672,-3.67188 -0.3672,-4.414 -4.7812,-3.31248 h -3.67188 l -0.7422,-2.20312 -4.4064,1.10156 -3.31248,4.0468 -0.73436,-6.9844 -5.8828,-4.7812 -1.83592,-5.5156 -4.414,-1.83592 -2.57032,-3.31248 -5.5156,-1.10156 -2.57812,-4.414 h 8.0936 l -5.1484,-2.20312 h -3.67968 l -4.7736,-1.83592 -0.7422,4.7736 -2.20312,-3.30468 2.57032,-1.83592 -0.73436,-1.84376 1.84376,-1.83592 2.20312,-0.3672 -0.73436,-2.20312 1.83592,-3.31252 3.67968,1.46876 -0.73436,-2.93752 4.4064,-2.57812 3.31248,6.25 -0.3672,1.84376 3.30468,1.46876 2.21096,4.7812 0.73436,-4.414 5.8828,-2.20312 1.10156,-3.31252 -7.7188,-4.414 -3.31248,-3.30468 -0.3672,-4.0468 0.19532,-0.117188 c -0.848,-0.566 -1.748,-1.0608 -2.62,-1.5944 l 1.32812,3.18752 h -3.67968 l -1.10156,-2.94532 -3.30468,2.57032 h -2.94532 v -2.93752 l 3.31248,-1.47656 2.93752,1.84376 -0.3672,-0.73436 c -1.48,-1.0672 -2.9,-2.2852 -4.408,-3.3128 l -3.68,1.1096 c -2.284,1.584 -4.328,3.1916 -6.616,4.7732 l -3.68,-3.3044 4.048,-1.4688 1.468,-3.6796 2.868,-0.3204 c -1.548,-0.5728 -3.088,-1.1544 -4.68,-1.6328 l -7.3752,5.2656 v 3.30468 l 2.936,3.3124 -4.036,8.086 -2.948,-1.4688 -3.304,-5.5156 c -4.936,-1.5568 -9.684,-3.3624 -14.344,-5.5156 l 0.3672,2.20312 -2.20312,1.47656 -4.0468,-2.94532 1.84376,-2.20312 2.93752,1.46876 0.3672,-0.367188 -3.6172,-9.8516 z M 48.9828,31.2924 c -1.24928,0.90752 -2.51812,1.78884 -3.71096,2.76564 l 1.46096,1.64844 4.0468,-4.414 h -1.79688 z m 30.4688,4.0468 h 2.21096 v 2.20312 l -1.46876,1.83592 v 3.31248 l 0.73436,4.7812 -3.684,-0.736 -2.936,-2.576 2.572,-2.5704 c 0.80588,-2.19076 1.56112,-4.1488 2.57032,-6.25 z m 5.5156,4.7812 2.21092,0.73436 -0.3672,4.4064 -3.312,-1.8348 1.468,-3.3044 z m -57.352,37.5 -3.3124,3.672 -3.672,-0.368 c -1.2924,1.2 -2.5772,2.228 -3.7812,3.424 -0.5508,3.804 -0.8516,7.696 -0.8516,11.656 0,26.2688 12.5924,49.424 32.0312,63.992 l -4.976,-5.908 0.744,-2.568 -4.4152,-3.68 3.3032,-3.312 -3.6704,-2.94 -3.6796,-2.2 -1.4688,-1.844 1.10156,-4.0392 v -10.2968 l -2.93752,-6.25 -3.31248,-3.67968 -4.0468,-9.5548 v -2.57812 c 1.89232,0.24328 3.664,0.60808 5.5156,0.7422 l -3.6736,-4.044 -5.1484,-3.68 -2.9452,-3.304 v -3.31248 c 0.6306,-1.21284 1.20916,-2.82628 1.84376,-4.0392 l 2.57032,3.30468 1.83592,-2.57032 2.94532,-2.21092 v -4.4064 z m 14.336,1.83592 -3.30468,4.0392 -4.414,9.1952 -2.57032,2.93752 1.46876,3.31248 -2.57032,2.93752 c 1.07412,0.0706 2.20088,0 3.30468,0 2.00512,-4.2992 3.62148,-8.7368 5.1484,-13.2344 l 2.57032,-2.93748 1.47656,-5.5156 -1.10936,-0.73436 z m 133.992,14.4452 c -0.14664,0.25632 -0.53124,0.9922 -0.53124,0.9922 l -6.25,3.67968 -6.6172,1.83592 -2.57812,3.67968 -4.4064,3.30468 -2.21092,-0.73436 -1.83592,1.10156 v 0.3672 l 2.20312,6.9844 1.84376,2.57812 -0.3672,1.46876 1.46876,5.5156 -5.5156,9.9296 -5.5156,5.1408 -2.57032,3.31248 0.3672,7.7188 -1.84376,4.0468 1.35156,5.9376 c 20.0272,-14.512 33.0624,-38.026 33.0624,-64.756 0,-0.70432 -0.0368,-1.40172 -0.0547,-2.10156 z"
     style="opacity:0.4;stroke-width:4" />
  <path
     style="opacity:0.2;stroke-width:4;fill:#000000;filter:url(#filter861)"
     d="M 85.763672 16.667969 C 75.360872 17.986369 65.608834 21.303619 56.865234 26.199219 L 59.429688 26.841797 C 67.50336 22.696348 76.363294 19.859327 85.763672 18.667969 L 85.773438 18.666016 L 88.740234 26.744141 L 89.023438 26.886719 L 89.390625 26.519531 L 85.773438 16.667969 L 85.763672 16.667969 z M 119.19531 19.417969 L 111.82031 24.683594 L 111.82031 26.681641 L 119.19531 21.416016 C 119.7302 21.576751 120.25387 21.761619 120.7793 21.941406 L 121.00781 21.371094 L 123.875 21.050781 C 122.327 20.477981 120.78731 19.896369 119.19531 19.417969 z M 129.46875 23.941406 L 125.78711 25.050781 C 123.50311 26.634781 121.45988 28.242619 119.17188 29.824219 L 117.07812 27.943359 L 115.49219 28.519531 L 119.17188 31.822266 C 121.45988 30.240666 123.50311 28.632828 125.78711 27.048828 L 129.46875 25.939453 C 129.76589 26.141934 130.05622 26.35761 130.34766 26.572266 L 131.30469 26.144531 L 134.24219 27.988281 L 133.875 27.253906 C 132.395 26.186706 130.97675 24.969006 129.46875 23.941406 z M 134.24219 27.988281 L 133.23828 28.769531 C 133.45087 28.929623 133.66034 29.099118 133.875 29.253906 L 134.24219 29.988281 L 135.34375 32.933594 L 139.02344 32.933594 L 138.18945 30.933594 L 135.34375 30.933594 L 134.24219 27.988281 z M 134.24219 29.988281 L 132.82031 29.095703 L 130.93945 30.558594 L 127.99219 30.558594 L 127.99219 32.558594 L 130.93945 32.558594 L 134.24219 29.988281 z M 90.125 26.886719 L 90.484375 29.042969 C 95.029741 31.123898 99.658883 32.883373 104.46875 34.400391 L 107.77344 39.916016 L 110.7207 41.384766 L 114.75586 33.298828 L 114.11719 32.578125 L 110.7207 39.386719 L 107.77344 37.917969 L 104.46875 32.402344 C 99.53275 30.845544 94.785 29.039919 90.125 26.886719 z M 137.69531 27.746094 L 138.80273 30.402344 C 139.30603 30.699496 139.80623 31.001814 140.29102 31.324219 L 140.12109 29.457031 L 140.31641 29.339844 C 139.46841 28.773844 138.56731 28.279694 137.69531 27.746094 z M 85.28125 28.376953 L 84.242188 29.619141 L 88.289062 32.564453 L 90.492188 31.087891 L 90.193359 29.291016 L 88.289062 30.566406 L 85.28125 28.376953 z M 48.982422 31.292969 C 47.733142 32.200489 46.464324 33.081794 45.271484 34.058594 L 46.326172 35.248047 C 47.16593 34.611066 48.01846 33.990402 48.873047 33.371094 L 50.779297 31.292969 L 48.982422 31.292969 z M 140.29297 31.353516 L 140.12109 31.457031 L 140.48828 35.503906 L 143.80078 38.808594 L 150.96094 42.902344 L 151.51953 41.222656 L 143.80078 36.808594 L 140.48828 33.503906 L 140.29297 31.353516 z M 56.298828 31.660156 L 57.097656 33.660156 L 57.767578 33.660156 L 61.447266 36.972656 L 61.849609 37.974609 L 62.183594 36.808594 L 61.447266 34.972656 L 57.767578 31.660156 L 56.298828 31.660156 z M 81.662109 37.542969 L 80.193359 39.378906 L 80.193359 41.376953 L 81.662109 39.542969 L 81.662109 37.542969 z M 53.355469 37.910156 L 56.796875 40.414062 C 57.122264 40.481416 57.44598 40.554822 57.767578 40.644531 L 57.767578 38.644531 C 56.323578 38.241731 54.835469 38.098556 53.355469 37.910156 z M 72.039062 38.164062 L 71.003906 42.324219 L 67.699219 39.753906 L 65.486328 42.324219 L 62.916016 43.792969 L 61.755859 40.304688 L 61.447266 41.378906 L 62.916016 45.792969 L 65.486328 44.324219 L 67.699219 41.753906 L 71.003906 44.324219 L 72.466797 38.441406 L 72.039062 38.164062 z M 131.36914 41.130859 L 130.93359 41.386719 L 131.11328 42.101562 L 131.66797 42.324219 L 131.36914 41.130859 z M 87.015625 42.798828 L 86.810547 45.261719 L 84.210938 43.820312 L 83.498047 45.425781 L 86.810547 47.261719 L 87.177734 42.853516 L 87.015625 42.798828 z M 138.36328 44.511719 L 138.28516 44.902344 L 138.65039 45.064453 L 138.65234 45.058594 L 138.36328 44.511719 z M 75.375 45.095703 L 74.308594 46.160156 L 77.244141 48.736328 L 80.927734 49.470703 L 80.611328 47.410156 L 77.244141 46.736328 L 75.375 45.095703 z M 126.56836 45.416016 L 126.15234 46.167969 L 126.25586 46.476562 L 126.88672 46.371094 L 126.56836 45.416016 z M 68.869141 45.71875 L 68.433594 46.738281 L 69.289062 46.738281 L 69.535156 46.160156 L 68.869141 45.71875 z M 123.41016 50.005859 L 122.83984 50.574219 L 122.95312 50.861328 L 123.57422 50.417969 L 123.41016 50.005859 z M 123.94922 50.785156 L 123.20703 55.558594 L 121.90625 53.609375 L 121.00391 54.253906 L 123.20703 57.558594 L 123.94922 52.785156 L 128.72266 54.621094 L 132.40234 54.621094 L 132.87695 54.824219 L 137.55078 54.824219 L 132.40234 52.621094 L 128.72266 52.621094 L 123.94922 50.785156 z M 78.847656 55.068359 L 77.988281 55.925781 L 77.253906 58.503906 L 77.822266 58.503906 L 77.988281 57.923828 L 80.566406 55.353516 L 78.847656 55.068359 z M 129.45703 56.824219 L 132.03516 61.238281 L 137.55078 62.339844 L 140.12109 65.652344 L 144.53516 67.488281 L 146.37109 73.003906 L 152.25391 77.785156 L 152.98828 84.769531 L 156.30078 80.722656 L 160.70703 79.621094 L 161.44922 81.824219 L 165.12109 81.824219 L 169.90234 85.136719 L 170.17773 88.458984 L 170.26953 87.550781 L 169.90234 83.136719 L 165.12109 79.824219 L 161.44922 79.824219 L 160.70703 77.621094 L 156.30078 78.722656 L 152.98828 82.769531 L 152.25391 75.785156 L 146.37109 71.003906 L 144.53516 65.488281 L 140.12109 63.652344 L 137.55078 60.339844 L 132.03516 59.238281 L 130.625 56.824219 L 129.45703 56.824219 z M 61.449219 58.871094 L 58.503906 61.441406 L 57.769531 65.121094 L 55.199219 68.425781 L 54.464844 63.652344 L 52.988281 62.910156 C 51.431441 64.559196 50.260659 66.569941 48.949219 68.425781 L 43.800781 68.792969 L 41.222656 70.636719 L 42.066406 72.03125 L 43.800781 70.791016 L 48.949219 70.423828 C 50.260659 68.567988 51.431441 66.557243 52.988281 64.908203 L 54.464844 65.650391 L 55.199219 70.425781 L 57.769531 67.121094 L 58.503906 63.441406 L 59.873047 62.248047 L 62.917969 58.871094 L 61.449219 58.871094 z M 67.332031 58.871094 L 64.753906 61.808594 L 61.816406 63.277344 L 62.683594 64.84375 L 64.753906 63.808594 L 67.332031 60.871094 L 72.105469 61.972656 L 72.472656 63.441406 L 75.417969 65.277344 L 76.886719 69.322266 L 80.103516 70.78125 L 80.933594 71.003906 C 80.957377 71.031417 80.980127 71.060367 81.003906 71.087891 L 82.769531 69.322266 L 84.605469 69.322266 L 84.605469 67.324219 L 82.769531 67.324219 L 80.933594 69.160156 L 76.886719 67.324219 L 75.417969 63.277344 L 72.472656 61.441406 L 72.105469 59.972656 L 67.332031 58.871094 z M 60.203125 63.880859 L 59.605469 64.542969 L 61.082031 67.855469 L 63.652344 68.589844 L 62.335938 66.212891 L 61.082031 65.855469 L 60.203125 63.880859 z M 27.615234 77.621094 L 24.302734 81.292969 L 20.630859 80.923828 C 19.338459 82.123828 18.053609 83.151656 16.849609 84.347656 C 16.298809 88.151656 15.998047 92.043906 15.998047 96.003906 C 15.998047 96.371878 16.010699 96.736781 16.015625 97.103516 C 16.057663 93.45464 16.340739 89.862079 16.849609 86.347656 C 18.053609 85.151656 19.338459 84.123828 20.630859 82.923828 L 24.302734 83.292969 L 27.615234 79.619141 L 27.615234 77.625 L 27.615234 77.621094 z M 41.951172 79.457031 L 38.646484 83.496094 L 34.232422 92.691406 L 31.662109 95.628906 L 32.25 96.955078 L 34.232422 94.689453 L 38.646484 85.496094 L 41.951172 81.457031 L 42.605469 81.890625 L 43.060547 80.191406 L 41.951172 79.457031 z M 92.503906 90.681641 L 91.589844 91.589844 L 92.390625 92.791016 L 93.066406 92.119141 L 92.503906 90.681641 z M 18.419922 90.859375 L 18.419922 92.859375 L 21.365234 96.164062 L 26.513672 99.84375 L 28.164062 101.66016 C 28.834159 101.7545 29.505745 101.83929 30.1875 101.88867 L 26.513672 97.84375 L 21.365234 94.164062 L 18.419922 90.859375 z M 160.33984 91.019531 C 160.56616 92.841065 160.87461 94.800226 161.15234 96.708984 L 161.44141 96.738281 C 161.21478 94.907143 160.90408 92.937174 160.625 91.019531 L 160.33984 91.019531 z M 175.94336 93.904297 C 175.79622 94.161687 175.41211 94.894531 175.41211 94.894531 L 169.16211 98.574219 L 162.54492 100.41016 L 159.9668 104.08984 L 155.56055 107.39453 L 153.57812 106.73633 C 153.4018 106.7704 153.22626 106.80598 153.05078 106.83984 L 151.51367 107.76172 L 151.51367 108.12891 L 151.94531 109.5 L 153.34961 108.6582 L 155.56055 109.39258 L 159.9668 106.08789 L 162.54492 102.4082 L 169.16211 100.57227 L 175.41211 96.892578 C 175.41211 96.892578 175.79622 96.159734 175.94336 95.902344 C 175.95487 96.352427 175.96619 96.803352 175.97852 97.253906 C 175.98486 96.837842 175.99805 96.423516 175.99805 96.005859 C 175.99805 95.301539 175.96126 94.604137 175.94336 93.904297 z M 94.013672 97.220703 L 91.222656 103.72266 C 88.545096 106.81302 85.810319 109.81776 83.136719 112.91016 L 79.089844 109.60547 L 77.621094 111.44141 L 73.207031 108.87109 L 71.738281 110.33984 L 67.699219 110.33984 L 65.121094 113.27734 L 65.550781 114.78711 L 67.699219 112.33984 L 71.738281 112.33984 L 73.207031 110.87109 L 77.621094 113.44141 L 79.089844 111.60547 L 83.136719 114.91016 C 85.810319 111.81776 88.545096 108.81106 91.222656 105.7207 L 94.535156 98.001953 L 94.013672 97.220703 z M 32.542969 99.613281 L 30.560547 101.87891 C 31.125346 101.91603 31.704193 101.91251 32.287109 101.90234 L 33.130859 100.93945 L 32.542969 99.613281 z M 24.671875 103.72461 L 24.671875 105.72266 L 28.71875 115.2793 L 32.03125 118.95898 L 34.96875 125.20898 L 34.96875 123.20898 L 32.03125 116.95898 L 28.71875 113.2793 L 24.671875 103.72461 z M 66.158203 118.91211 L 63.652344 121.73828 L 63.769531 123.60742 L 66.589844 120.42578 L 66.158203 118.91211 z M 155.19922 119.18555 L 155.45117 120.12695 L 155.56055 119.68945 L 155.19922 119.18555 z M 110.47656 125.13477 C 110.42991 125.1584 110.38654 125.1834 110.33984 125.20703 L 110.70703 130.35547 L 114.29297 135.37305 L 114.38672 133.50391 L 110.70703 128.35547 L 110.47656 125.13477 z M 156.30273 125.32422 L 151.14648 134.60547 L 145.63086 139.74609 L 143.06055 143.05859 L 143.15039 144.94141 L 145.63086 141.74414 L 151.14648 136.60352 L 156.66211 126.67383 L 156.30273 125.32422 z M 63.90625 127.81445 L 61.449219 132.02734 L 61.986328 133.10547 L 64.019531 129.62109 L 63.90625 127.81445 z M 34.273438 138.05469 L 33.867188 139.54492 L 35.335938 141.38867 L 39.015625 143.58789 L 41.578125 145.64062 L 42.685547 144.5293 L 39.015625 141.58789 L 35.335938 139.38867 L 34.273438 138.05469 z M 114.10742 141.07812 L 114.01953 142.85547 L 116.22266 148.37109 L 121.00391 149.47266 L 122.375 151.94727 L 122.83984 150.78516 L 121.00391 147.47266 L 116.22266 146.37109 L 114.10742 141.07812 z M 63.619141 143.88086 C 62.335297 147.4728 60.813996 150.83538 59.605469 154.45703 L 58.871094 160.33984 L 58.871094 162.33984 L 59.605469 156.45703 C 60.823989 152.80543 62.361904 149.41849 63.652344 145.79297 C 63.652344 145.15885 63.639257 144.5199 63.619141 143.88086 z M 40.472656 148.74805 L 39.382812 149.83984 L 43.330078 153.13086 L 43.796875 151.51953 L 40.472656 148.74805 z M 143.3418 150.9668 L 141.58398 154.82422 L 141.88672 156.15625 L 143.42773 152.77539 L 143.3418 150.9668 z M 122.48633 153.66797 L 122.10547 154.62109 L 125.05078 162.70703 L 129.08984 163.80859 L 129.82422 166.38672 L 131.24414 167.80273 C 131.57015 167.64293 131.89912 167.48819 132.22266 167.32422 L 132.40234 166.95703 L 129.82422 164.38672 L 129.08984 161.80859 L 125.05078 160.70703 L 122.48633 153.66797 z M 43.484375 154.59961 L 43.085938 155.9707 C 44.67989 157.37503 46.326399 158.71989 48.029297 159.99609 L 43.484375 154.59961 z M 49.480469 161.07422 C 50.445585 161.76402 51.431532 162.42634 52.427734 163.07422 L 52.988281 163.07422 L 56.667969 165.27734 L 58.871094 165.27734 L 58.871094 163.27734 L 56.667969 163.27734 L 52.988281 161.07422 L 49.480469 161.07422 z "
     id="path852" />
  <path
     style="fill:#ffffff;stroke-width:4;opacity:0.1"
     d="M 96 16 C 51.68 16 16 51.68 16 96 C 16 96.167244 16.004845 96.333003 16.005859 96.5 C 16.273741 52.412589 51.847244 17 96 17 C 140.15276 17 175.72626 52.412589 175.99414 96.5 C 175.99516 96.333003 176 96.167244 176 96 C 176 51.68 140.32 16 96 16 z "
     id="rect867" />
</svg>
