<?xml version="1.0" encoding="UTF-8" standalone="no"?>
<svg
   xmlns:dc="http://purl.org/dc/elements/1.1/"
   xmlns:cc="http://creativecommons.org/ns#"
   xmlns:rdf="http://www.w3.org/1999/02/22-rdf-syntax-ns#"
   xmlns:svg="http://www.w3.org/2000/svg"
   xmlns="http://www.w3.org/2000/svg"
   xmlns:sodipodi="http://sodipodi.sourceforge.net/DTD/sodipodi-0.dtd"
   xmlns:inkscape="http://www.inkscape.org/namespaces/inkscape"
   width="192"
   height="192"
   version="1"
   id="svg14"
   sodipodi:docname="apps_butterfly_browser.svg"
   inkscape:version="0.92.3 (2405546, 2018-03-11)">
  <metadata
     id="metadata20">
    <rdf:RDF>
      <cc:Work
         rdf:about="">
        <dc:format>image/svg+xml</dc:format>
        <dc:type
           rdf:resource="http://purl.org/dc/dcmitype/StillImage" />
      </cc:Work>
    </rdf:RDF>
  </metadata>
  <defs
     id="defs18">
    <filter
       inkscape:collect="always"
       style="color-interpolation-filters:sRGB"
       id="filter848"
       x="-0.045538053"
       width="1.0910761"
       y="-0.050743364"
       height="1.1014867">
      <feGaussianBlur
         inkscape:collect="always"
         stdDeviation="2.9600934"
         id="feGaussianBlur850" />
    </filter>
    <filter
       inkscape:collect="always"
       style="color-interpolation-filters:sRGB"
       id="filter864"
       x="-0.044903226"
       width="1.0898065"
       y="-0.051555556"
       height="1.1031111">
      <feGaussianBlur
         inkscape:collect="always"
         stdDeviation="2.32"
         id="feGaussianBlur866" />
    </filter>
  </defs>
  <sodipodi:namedview
     pagecolor="#ffffff"
     bordercolor="#666666"
     borderopacity="1"
     objecttolerance="10"
     gridtolerance="10"
     guidetolerance="10"
     inkscape:pageopacity="0"
     inkscape:pageshadow="2"
     inkscape:window-width="1920"
     inkscape:window-height="1018"
     id="namedview16"
     showgrid="false"
     inkscape:zoom="1"
     inkscape:cx="96"
     inkscape:cy="96"
     inkscape:window-x="0"
     inkscape:window-y="32"
     inkscape:window-maximized="1"
     inkscape:current-layer="svg14" />
  <path
     inkscape:connector-curvature="0"
     id="path2"
     d="m 155.69531,32 c -0.27372,0.006 -0.54725,0.01904 -0.82031,0.03908 l -5.65625,0.398436 h -0.0156 C 126.80845,34.035304 106.65255,46.907796 94,65.476564 81.347448,46.907792 61.191548,34.035304 38.796876,32.4375 h -0.01564 L 33.125001,32.039062 C 23.151302,31.337987 14.984496,39.853353 16.101563,49.789064 l 0.414063,3.671872 c 0.744044,6.64456 1.52316,10.7466 2.976562,15.453128 5.665074,18.345164 18.148168,32.771296 33.820312,42.484376 -11.110776,9.95744 -18.59929,23.66404 -20.703124,39.0625 l -0.460938,3.375 C 30.838168,163.44261 38.304386,171.99803 48,172 h 3.039064 c 4.796644,0 7.436164,-0.62322 11.171872,-1.58594 12.75908,-3.2881 23.65984,-10.88991 31.789064,-20.94531 8.12922,10.0554 19.02999,17.65721 31.78906,20.94531 3.73571,0.96272 6.37523,1.58594 11.17188,1.58594 H 140 c 9.69562,-0.002 17.16184,-8.55739 15.85156,-18.16406 l -0.46094,-3.375 c -2.10383,-15.39846 -9.59234,-29.10506 -20.70312,-39.0625 15.67214,-9.71308 28.15524,-24.139212 33.82031,-42.484376 1.44875,-4.691464 2.23858,-8.797936 2.98438,-15.46094 l 0.008,-0.0236 0.40625,-3.671876 C 172.96796,40.159456 165.35025,31.815034 155.69531,32 Z"
     style="opacity:0.2;stroke-width:4;filter:url(#filter848)" />
  <path
     inkscape:connector-curvature="0"
     id="path4"
     d="m 155.69059,28.003018 c -0.27371,0.006 -0.54723,0.01904 -0.82028,0.03908 l -5.65602,0.398427 h -0.0156 C 126.8049,30.038278 106.64982,42.910492 93.997774,61.47886 81.345735,42.910488 61.190652,30.038278 38.796887,28.440508 h -0.01564 l -5.656006,-0.398429 c -9.973295,-0.70106 -18.13977,7.814122 -17.022748,17.749619 l 0.414046,3.671793 c 0.744014,6.644417 1.523098,10.746368 2.976441,15.452795 5.664845,18.344769 18.147433,32.770594 33.818942,42.483464 -11.110326,9.95722 -18.598536,23.66353 -20.702285,39.06165 l -0.460919,3.37493 c -1.310216,9.60646 6.155699,18.1617 15.85092,18.16367 h 3.038941 c 4.79645,0 7.435863,-0.62321 11.171419,-1.58591 12.758563,-3.28802 23.658882,-10.88967 31.787776,-20.94485 8.128896,10.05518 19.029226,17.65683 31.787776,20.94485 3.73556,0.9627 6.37497,1.58591 11.17143,1.58591 h 3.03894 c 9.69522,-0.002 17.16114,-8.55721 15.85091,-18.16367 l -0.46092,-3.37493 c -2.10374,-15.39812 -9.59195,-29.10443 -20.70228,-39.06165 15.67151,-9.71287 28.1541,-24.138695 33.81894,-42.483464 1.44869,-4.691363 2.23849,-8.797746 2.98426,-15.460607 l 0.008,-0.0236 0.40623,-3.671797 c 1.06148,-9.597984 -6.55592,-17.942226 -16.21047,-17.757264 z"
     style="fill:#ff703a;stroke-width:3.99987578" />
  <path
     inkscape:connector-curvature="0"
     id="path6"
     d="m 32,48 0.414062,3.671876 c 0.718463,6.418808 1.075474,8.3405 2.367188,12.523436 7.475206,24.2069 28.217958,40.962348 53.812502,43.460938 1.31086,0.128 2.60972,0.28384 2.890624,0.34376 C 91.765284,108.0599 92,106.74614 92,105.08594 92,98.6773 89.185372,88.651288 85.132812,80.656248 76.281996,63.19502 56.478324,49.741344 37.656254,48.398436 Z m 124,0 -5.65625,0.39844 C 131.52167,49.741348 111.718,63.195028 102.86719,80.656252 98.814628,88.651288 96,98.6773 96,105.08594 c 0,1.6602 0.23472,2.97396 0.515624,2.91406 0.28092,-0.0599 1.579764,-0.21576 2.890624,-0.34376 25.594542,-2.49859 46.337302,-19.254036 53.812502,-43.460936 1.29172,-4.182936 1.65653,-6.104628 2.375,-12.523436 z m -65.960936,64 c -4.053372,0 -10.400184,1.62604 -15.27344,3.91406 C 60.073032,122.81232 50.75868,135.80727 48.460936,152.625 L 48,156 h 3.039064 c 1.66816,0 4.894692,-0.48926 7.179688,-1.07812 12.947236,-3.3366 25.214996,-14.18091 30.47656,-26.95313 C 90.261164,124.16771 92,116.92699 92,114.20312 92,112.25928 91.77048,112 90.039064,112 Z m 7.921872,0 C 96.22952,112 96,112.25928 96,114.20312 c 0,2.72387 1.738836,9.96459 3.304688,13.76563 5.261562,12.77222 17.529332,23.61653 30.476562,26.95313 2.28499,0.58886 5.51153,1.07812 7.17969,1.07812 H 140 l -0.46094,-3.375 C 137.24132,135.80727 127.92697,122.81232 113.23438,115.91406 108.36112,113.62604 102.01431,112 97.960936,112 Z"
     style="opacity:0.2;stroke-width:4;filter:url(#filter864)" />
  <path
     inkscape:connector-curvature="0"
     id="path8"
     d="m 32,44 0.414062,3.671876 c 0.718463,6.418808 1.075474,8.3405 2.367188,12.523436 7.475206,24.2069 28.217958,40.962348 53.812502,43.460938 1.31086,0.128 2.60972,0.28384 2.890624,0.34376 C 91.765284,104.0599 92,102.74614 92,101.08594 92,94.6773 89.185372,84.651288 85.132812,76.656248 76.281996,59.19502 56.478324,45.741344 37.656254,44.398436 Z m 124,0 -5.65625,0.39844 C 131.52167,45.741348 111.718,59.195028 102.86719,76.656252 98.814628,84.651288 96,94.6773 96,101.08594 c 0,1.6602 0.23472,2.97396 0.515624,2.91406 0.28092,-0.0599 1.579764,-0.21576 2.890624,-0.34376 25.594542,-2.49859 46.337302,-19.254036 53.812502,-43.460936 1.29172,-4.182936 1.65653,-6.104628 2.375,-12.523436 z m -65.960936,64 c -4.053372,0 -10.400184,1.62604 -15.27344,3.91406 C 60.073032,118.81232 50.75868,131.80727 48.460936,148.625 L 48,152 h 3.039064 c 1.66816,0 4.894692,-0.48926 7.179688,-1.07812 12.947236,-3.3366 25.214996,-14.18091 30.47656,-26.95313 C 90.261164,120.16771 92,112.92699 92,110.20312 92,108.25928 91.77048,108 90.039064,108 Z m 7.921872,0 C 96.22952,108 96,108.25928 96,110.20312 c 0,2.72387 1.738836,9.96459 3.304688,13.76563 5.261562,12.77222 17.529332,23.61653 30.476562,26.95313 2.28499,0.58886 5.51153,1.07812 7.17969,1.07812 H 140 l -0.46094,-3.375 C 137.24132,131.80727 127.92697,118.81232 113.23438,111.91406 108.36112,109.62604 102.01431,108 97.960936,108 Z"
     style="fill:#ffffff;stroke-width:4" />
  <path
     style="fill:#ffffff;stroke-width:3.99987578;opacity:0.2"
     d="M 32.195312 28.003906 C 23.091059 27.88133 15.735403 35.420208 16.013672 44.46875 C 16.292831 35.569646 23.939593 28.397292 33.125 29.042969 L 38.78125 29.441406 L 38.796875 29.441406 C 61.19064 31.039176 81.346008 43.910144 93.998047 62.478516 C 106.65009 43.910148 126.80543 31.039159 149.19922 29.441406 L 149.21484 29.441406 L 154.87109 29.042969 C 155.14414 29.022929 155.4177 29.009906 155.69141 29.003906 C 164.56802 28.833848 171.70232 35.877241 171.97266 44.472656 C 172.25142 35.429822 164.91041 27.827288 155.69141 28.003906 C 155.4177 28.009906 155.14414 28.022929 154.87109 28.042969 L 149.21484 28.441406 L 149.19922 28.441406 C 126.80543 30.039159 106.65009 42.910148 93.998047 61.478516 C 81.346008 42.910144 61.19064 30.039176 38.796875 28.441406 L 38.78125 28.441406 L 33.125 28.042969 C 32.813335 28.021061 32.503221 28.008052 32.195312 28.003906 z M 52.681641 107.99219 C 41.924217 117.89829 34.672439 131.36061 32.609375 146.46094 L 32.148438 149.83594 C 32.032498 150.686 32.008427 151.52316 32.025391 152.35156 C 32.046499 151.84938 32.078987 151.34515 32.148438 150.83594 L 32.609375 147.46094 C 34.713124 132.06282 42.202174 118.35761 53.3125 108.40039 C 53.099465 108.26836 52.893488 108.12596 52.681641 107.99219 z M 135.31445 107.99219 C 135.10261 108.12596 134.89663 108.26836 134.68359 108.40039 C 145.79392 118.35761 153.28298 132.06282 155.38672 147.46094 L 155.84766 150.83594 C 155.91711 151.34515 155.94959 151.84938 155.9707 152.35156 C 155.98767 151.52316 155.9636 150.686 155.84766 149.83594 L 155.38672 146.46094 C 153.32366 131.36061 146.07188 117.89829 135.31445 107.99219 z "
     id="path868" />
</svg>
