<?xml version="1.0" encoding="UTF-8" standalone="no"?>
<svg
   xmlns:dc="http://purl.org/dc/elements/1.1/"
   xmlns:cc="http://creativecommons.org/ns#"
   xmlns:rdf="http://www.w3.org/1999/02/22-rdf-syntax-ns#"
   xmlns:svg="http://www.w3.org/2000/svg"
   xmlns="http://www.w3.org/2000/svg"
   xmlns:sodipodi="http://sodipodi.sourceforge.net/DTD/sodipodi-0.dtd"
   xmlns:inkscape="http://www.inkscape.org/namespaces/inkscape"
   width="192"
   height="192"
   x="0"
   y="0"
   version="1.1"
   xml:space="preserve"
   id="svg36"
   sodipodi:docname="apps_open_keychain.svg"
   inkscape:version="0.92.3 (2405546, 2018-03-11)"><metadata
   id="metadata42"><rdf:RDF><cc:Work
       rdf:about=""><dc:format>image/svg+xml</dc:format><dc:type
         rdf:resource="http://purl.org/dc/dcmitype/StillImage" /></cc:Work></rdf:RDF></metadata><defs
   id="defs40">
  
  
  
  
  
  
  
  
  
  
  
  
  
  
  
  
 <filter
   inkscape:collect="always"
   style="color-interpolation-filters:sRGB"
   id="filter881"
   x="-0.048"
   width="1.096"
   y="-0.048"
   height="1.096"><feGaussianBlur
     inkscape:collect="always"
     stdDeviation="2.88"
     id="feGaussianBlur883" /></filter><filter
   inkscape:collect="always"
   style="color-interpolation-filters:sRGB"
   id="filter889"
   x="-0.024916619"
   width="1.0498332"
   y="-0.023148428"
   height="1.0462969"><feGaussianBlur
     inkscape:collect="always"
     stdDeviation="0.77779042"
     id="feGaussianBlur891" /></filter><filter
   inkscape:collect="always"
   style="color-interpolation-filters:sRGB"
   id="filter897"
   x="-0.024"
   width="1.048"
   y="-0.024"
   height="1.048"><feGaussianBlur
     inkscape:collect="always"
     stdDeviation="0.88000001"
     id="feGaussianBlur899" /></filter><filter
   inkscape:collect="always"
   style="color-interpolation-filters:sRGB"
   id="filter923"
   x="-0.048"
   width="1.096"
   y="-0.048"
   height="1.096"><feGaussianBlur
     inkscape:collect="always"
     stdDeviation="1.44"
     id="feGaussianBlur925" /></filter></defs><sodipodi:namedview
   pagecolor="#ffffff"
   bordercolor="#666666"
   borderopacity="1"
   objecttolerance="10"
   gridtolerance="10"
   guidetolerance="10"
   inkscape:pageopacity="0"
   inkscape:pageshadow="2"
   inkscape:window-width="1920"
   inkscape:window-height="1018"
   id="namedview38"
   showgrid="false"
   inkscape:zoom="1"
   inkscape:cx="96"
   inkscape:cy="105.23788"
   inkscape:window-x="0"
   inkscape:window-y="32"
   inkscape:window-maximized="1"
   inkscape:current-layer="svg36" />
 <path
   inkscape:connector-curvature="0"
   id="path2"
   d="m 88,28 c -39.7645,0 -72,32.2355 -72,72 0,39.7645 32.2355,72 72,72 39.7645,0 72,-32.2355 72,-72 C 160,60.2355 127.7645,28 88,28 Z M 56.530856,49.629728 c 4.41828,0 10.919708,9.155708 10.919708,13.573988 0,4.418276 -7.297716,13.043132 -11.715992,13.043132 -4.418276,0 -12.777704,-7.828572 -12.777704,-12.246848 0,-4.418276 9.155712,-14.370272 13.573988,-14.370272 z"
   style="opacity:0.2;stroke-width:4;filter:url(#filter881)" /><path
   inkscape:connector-curvature="0"
   id="path4"
   d="M 88,24 A 72,72 0 0 0 16,96 72,72 0 0 0 88,168 72,72 0 0 0 160,96 72,72 0 0 0 88,24 Z M 56,52 a 8,8 0 0 1 8,8 8,8 0 0 1 -8,8 8,8 0 0 1 -8,-8 8,8 0 0 1 8,-8 z"
   style="fill:#75af34;stroke-width:4" /><path
   style="opacity:0.2;fill:#ffffff;stroke-width:4"
   d="M 88 24 A 72 72 0 0 0 16 96 A 72 72 0 0 0 16.019531 96.427734 A 72 72 0 0 1 88 25 A 72 72 0 0 1 159.98047 96.599609 A 72 72 0 0 0 160 96 A 72 72 0 0 0 88 24 z M 48.070312 60.976562 A 8 8 0 0 0 48 62 A 8 8 0 0 0 48.025391 62.517578 A 8 8 0 0 1 48.070312 61.976562 A 8 8 0 0 0 56 69 A 8 8 0 0 0 63.929688 62.023438 A 8 8 0 0 1 63.976562 62.603516 A 8 8 0 0 0 64 62 A 8 8 0 0 0 63.929688 61.023438 A 8 8 0 0 1 56 68 A 8 8 0 0 1 48.070312 60.976562 z "
   id="path6" /><path
   inkscape:connector-curvature="0"
   id="path8"
   d="m 138.46875,97.359756 -25,24.992184 -16.374998,16.35938 c 0.7355,-0.0439 1.431456,-0.096 2.085936,-0.15624 2.459712,-0.22476 4.967252,-0.56488 7.523432,-1.03126 l 0.67188,0.67188 0.28908,0.28908 16.59375,16.61719 7.35156,7.35156 h -0.0236 l 9.69531,9.69531 c 0.56526,0.79579 1.20114,1.51374 1.90626,2.14844 2.93188,2.62804 7.08167,3.85582 12.44531,3.6875 5.6752,-0.1934 9.94321,-0.53332 12.80469,-1.01562 -0.18788,-0.18872 -0.11224,-0.1114 -0.29688,-0.29688 0.44096,-0.0669 0.84784,-0.2164 1.22656,-0.46876 0.1452,-0.0964 0.30032,-0.20796 0.46094,-0.32032 l 0.0703,-0.14064 c 0.40175,-0.4823 0.66108,-1.00747 0.77344,-1.57031 0.65944,-2.81324 1.10302,-7.53285 1.32826,-14.15625 0.14276,-4.9339 -1.04134,-8.794 -3.54688,-11.59374 -0.60672,-0.67136 -1.28677,-1.28516 -2.04687,-1.83594 l -11.25781,3.375 -0.0469,0.0469 v -0.0469 c -0.0212,0.003 -0.0437,0.0108 -0.0625,0.0156 -0.1722,0.0192 -0.33448,0.004 -0.49219,-0.0392 -0.1606,-0.0964 -0.2942,-0.2222 -0.39064,-0.3828 -0.0324,-0.032 -0.0469,-0.0768 -0.0469,-0.125 -0.0648,-0.16108 -0.0717,-0.31596 -0.0236,-0.47657 l 0.0236,-0.0236 3.25781,-12.08593 c 0.0476,-0.20884 0.0412,-0.40865 -0.0236,-0.60157 -0.12832,-0.17652 -0.27692,-0.30224 -0.4375,-0.3828 -0.177,-0.12868 -0.3688,-0.1436 -0.57813,-0.0312 l -12.21093,3.21094 h -0.0156 v 0.0236 c -0.177,0.032 -0.36176,0.0176 -0.55469,-0.0469 -0.0926,-0.0458 -0.1742,-0.11332 -0.2422,-0.19532 -0.0554,-0.0632 -0.10012,-0.13724 -0.14064,-0.21876 v -0.0703 c -0.0646,-0.1606 -0.0646,-0.3308 0,-0.50781 l -0.0236,0.0469 3.35156,-12.32031 c 0.0487,-0.19244 0.026,-0.39224 -0.0703,-0.60157 -0.0805,-0.17652 -0.2066,-0.33216 -0.3672,-0.46093 -0.0646,-0.0164 -3.94006,-4.23244 -11.625,-12.65625 0.94869,-1.84913 1.95505,-4.88185 3.01563,-9.09375 0.15432,-0.62458 0.29504,-1.23847 0.42187,-1.84375 0.26384,-1.283396 0.46364,-2.52622 0.60157,-3.734376 z"
   style="opacity:0.1;fill-rule:evenodd;stroke-width:4;filter:url(#filter889)" /><path
   inkscape:connector-curvature="0"
   id="path10"
   d="m 118.63812,128.11621 -1.49513,1.18115 c -0.0965,0.0646 -0.17652,0.12056 -0.24116,0.16928 -0.12876,0.0964 -0.24936,0.17652 -0.36172,0.24116 -0.54692,0.35352 -1.09337,0.70753 -1.63981,1.06106 -0.0482,0.016 -0.0882,0.04 -0.12056,0.0719 l 31.63922,31.71108 c 0.0642,0.0646 0.1524,0.1524 0.26528,0.26528 l 0.53052,0.53101 c 0.67522,0.65882 1.47921,0.98871 2.4115,0.98871 0.78807,-0.032 1.47148,-0.26528 2.04976,-0.69933 0.14516,-0.0801 0.26576,-0.18472 0.36172,-0.313 0.11236,-0.0806 0.60287,0.19244 1.47148,0.81942 0.85223,0.64339 2.46744,2.32323 4.8471,5.04001 2.34686,2.66856 5.70703,4.59775 10.07954,5.78758 -2.86148,0.4823 -7.12981,0.8199 -12.80501,1.0133 -5.36363,0.16832 -9.51139,-1.06153 -12.44328,-3.68957 -0.70512,-0.63471 -1.33982,-1.35044 -1.90508,-2.14623 l -9.69418,-9.69418 h 0.024 l -7.35552,-7.35553 -16.59105,-16.61516 -0.28936,-0.28936 -0.67521,-0.67521 c -2.55618,0.46638 -5.06413,0.81218 -7.523846,1.03694 -0.65448,0.0603 -1.350436,0.11236 -2.08594,0.15628 L 113.4654,120.35082 c 0.2614,0.25464 0.51846,0.50401 0.77167,0.74756 2.36423,2.31407 4.32139,4.26738 5.87246,5.85992 -0.0806,0.032 -0.13696,0.0805 -0.16928,0.14468 -0.43359,0.35352 -0.85223,0.69934 -1.25398,1.03694 z"
   style="fill:#d3d3d3;fill-rule:evenodd;stroke-width:4" /><path
   inkscape:connector-curvature="0"
   id="path12"
   d="m 113.46547,120.35122 25.00714,-24.995084 c -0.13792,1.208156 -0.33904,2.454416 -0.60287,3.737808 -0.12684,0.605284 -0.26768,1.220216 -0.42201,1.844786 -1.06057,4.21191 -2.06568,7.24267 -3.01437,9.0918 7.68494,8.42381 11.55924,12.64391 11.62386,12.66031 0.1606,0.12876 0.2812,0.2812 0.36172,0.45771 0.0965,0.20932 0.12056,0.41043 0.0719,0.60287 l -3.35196,12.3227 0.024,-0.0487 c -0.0646,0.177 -0.0646,0.3458 0,0.50641 v 0.0728 c 0.0405,0.0815 0.0892,0.15384 0.14468,0.21704 0.068,0.082 0.14856,0.1466 0.24116,0.19244 0.19292,0.0646 0.37764,0.0806 0.55464,0.0487 v -0.024 h 0.0116 l 12.21419,-3.20728 c 0.20932,-0.11236 0.40176,-0.10468 0.57876,0.024 0.1606,0.0806 0.30528,0.20932 0.43359,0.38584 0.0646,0.19292 0.0724,0.39404 0.0248,0.60287 l -3.25503,12.08156 -0.0248,0.024 c -0.0482,0.1606 -0.04,0.3212 0.0248,0.4823 0,0.0482 0.016,0.0888 0.0482,0.12056 0.0964,0.1606 0.22524,0.2894 0.38584,0.38584 0.15772,0.0429 0.32216,0.055 0.49435,0.036 0.0188,-0.005 0.0392,-0.009 0.0603,-0.012 v 0.0487 l 0.0482,-0.0487 11.25447,-3.37608 c 0.7601,0.55078 1.44304,1.16137 2.04977,1.83273 2.50554,2.79974 3.68764,6.66584 3.54488,11.59974 -0.22524,6.6234 -0.66701,11.3422 -1.32632,14.15544 -0.11236,0.56284 -0.36992,1.08517 -0.77167,1.56747 l -0.0724,0.14468 c -0.1606,0.11236 -0.313,0.21704 -0.45818,0.31348 -0.38584,0.25708 -0.80351,0.41767 -1.25397,0.4823 -0.38584,0.0965 -0.8122,0.19244 -1.27809,0.2894 -10.36941,-10.41759 -14.22833,-15.88396 -14.77477,-16.39808 L 123.0753,129.46642 c -0.0964,-0.0487 -0.17652,-0.11236 -0.24116,-0.19292 l -2.50795,-2.53206 -0.0719,0.0724 c -0.0487,0.032 -0.0964,0.08 -0.14468,0.14468 -1.55107,-1.59302 -3.50775,-3.54633 -5.87246,-5.85991 -0.2532,-0.24356 -0.51027,-0.49291 -0.77167,-0.74757 z m 5.17265,7.76499 0.0487,0.024 h -0.0487 z"
   style="fill:#e4e4e4;fill-rule:evenodd;stroke-width:4" /><path
   inkscape:connector-curvature="0"
   id="path14"
   d="m 118.63812,128.11621 v 0.024 h 0.0487 c 0.40175,-0.3376 0.8199,-0.68342 1.25397,-1.03694 0.032,-0.0642 0.0888,-0.11236 0.16928,-0.14468 0.0482,-0.0646 0.096,-0.11236 0.14468,-0.14468 l 0.0719,-0.0724 2.50795,2.53206 c 0.0646,0.0806 0.14468,0.14468 0.24116,0.19292 l 28.98658,29.10665 c 0.54644,0.51414 6.00412,5.9805 16.37352,16.39813 -4.37251,-1.18983 -7.73268,-3.11902 -10.07954,-5.78757 -2.37966,-2.71679 -3.99487,-4.39663 -4.84709,-5.04002 -0.86862,-0.62698 -1.35863,-0.89996 -1.47149,-0.81942 -0.096,0.12876 -0.21656,0.23296 -0.36172,0.313 -0.57827,0.43407 -1.26169,0.6675 -2.04976,0.69933 -0.93228,0 -1.73627,-0.32988 -2.41149,-0.98871 l -0.53053,-0.53101 c -0.11236,-0.11236 -0.20112,-0.20064 -0.26528,-0.26528 l -31.63922,-31.71108 c 0.0324,-0.032 0.0724,-0.056 0.12056,-0.0719 0.54693,-0.35352 1.09337,-0.70753 1.63982,-1.06106 0.11236,-0.0646 0.23296,-0.14468 0.36172,-0.24116 0.0646,-0.0487 0.14468,-0.10464 0.24116,-0.16928 z"
   style="fill:#c8c8c8;fill-rule:evenodd;stroke-width:4" /><path
   inkscape:connector-curvature="0"
   id="path16"
   d="m 96,53.999948 a 44,44 0 0 0 -44,44 44,44 0 0 0 44,44.000002 44,44 0 0 0 44,-44.000002 44,44 0 0 0 -44,-44 z m -12,16 a 12,12 0 0 1 12,12 12,12 0 0 1 -12,12 12,12 0 0 1 -12,-12 12,12 0 0 1 12,-12 z"
   style="opacity:0.1;stroke-width:4;filter:url(#filter897)" /><path
   inkscape:connector-curvature="0"
   id="path18"
   d="m 96,51.999948 a 44,44 0 0 0 -44,44 44,44 0 0 0 44,44.000002 44,44 0 0 0 44,-44.000002 44,44 0 0 0 -44,-44 z m -12,16 a 12,12 0 0 1 12,12 12,12 0 0 1 -12,12 12,12 0 0 1 -12,-12 12,12 0 0 1 12,-12 z"
   style="fill:#424242;stroke-width:4" /><path
   inkscape:connector-curvature="0"
   id="path20"
   d="M 88,14 A 36,36 0 0 0 52,50 36,36 0 0 0 88,86 36,36 0 0 0 124,50 36,36 0 0 0 88,14 Z m 0,7.765625 a 28,28 0 0 1 28,27.999999 28,28 0 0 1 -28,28 28,28 0 0 1 -28,-28 28,28 0 0 1 28,-27.999999 z"
   style="opacity:0.2;stroke-width:4;filter:url(#filter923)" /><path
   inkscape:connector-curvature="0"
   id="path22"
   d="M 88,12 A 36,36 0 0 0 52,48 36,36 0 0 0 88,84 36,36 0 0 0 124,48 36,36 0 0 0 88,12 Z m 0,7.765625 a 28,28 0 0 1 28,27.999999 28,28 0 0 1 -28,28 28,28 0 0 1 -28,-28 28,28 0 0 1 28,-27.999999 z"
   style="fill:#e4e4e4;stroke-width:4" /><path
   style="opacity:0.2;fill:#ffffff;stroke-width:4"
   d="M 88 12 A 36 36 0 0 0 52 48 A 36 36 0 0 0 52.019531 48.435547 A 36 36 0 0 1 88 13 A 36 36 0 0 1 123.98047 48.595703 A 36 36 0 0 0 124 48 A 36 36 0 0 0 88 12 z M 115.96094 48.59375 A 28 28 0 0 1 88 75.765625 A 28 28 0 0 1 60.039062 48.9375 A 28 28 0 0 0 60 49.765625 A 28 28 0 0 0 60.023438 50.25 A 28 28 0 0 1 60.039062 49.9375 A 28 28 0 0 0 88 76.765625 A 28 28 0 0 0 115.96094 49.59375 A 28 28 0 0 1 115.98242 50.25 A 28 28 0 0 0 116 49.765625 A 28 28 0 0 0 115.96094 48.59375 z "
   id="path24" /><path
   inkscape:connector-curvature="0"
   id="path26"
   d="m 96,52 c -24.300528,0 -44,19.699472 -44,44 0.0188,3.721476 0.509736,7.42553 1.460936,11.02344 L 73.945312,86.539064 C 72.67788,84.593492 72.002128,82.321988 72,80 c 0,-6.627416 5.372584,-12 12,-12 2.321988,0.0021 4.593492,0.67788 6.539064,1.945312 L 107.04688,53.4375 C 103.44036,52.49224 99.728324,52.009204 96,52 Z"
   style="fill:#424242;stroke-width:4" /><path
   inkscape:connector-curvature="0"
   id="path28"
   d="M 80,24.484375 C 57.313292,27.054202 37.190036,40.232008 25.765625,60 H 48 c 0,-4.418276 3.581724,-8 8,-8 4.418276,0 8,3.581724 8,8 h 2.84636 L 76,56 80,47.309972 Z"
   style="fill:#75af34;stroke-width:4" /><path
   style="opacity:0.2;fill:#ffffff;stroke-width:4"
   d="M 80 24.484375 C 57.313292 27.054202 37.190036 40.232008 25.765625 60 L 26.363281 60 C 37.882679 40.7908 57.699896 28.01041 80 25.484375 L 80 24.484375 z "
   id="path30" /><path
   inkscape:connector-curvature="0"
   id="path32"
   d="m 56,52 a 8,8 0 0 0 -8,8 8,8 0 0 0 0.07032,0.976564 A 8,8 0 0 1 56,54 8,8 0 0 1 63.929688,61.023436 8,8 0 0 0 64,60 8,8 0 0 0 56,52 Z"
   style="opacity:0.2;stroke-width:4" />
</svg>