<?xml version="1.0" encoding="UTF-8" standalone="no"?>
<svg
   xmlns:dc="http://purl.org/dc/elements/1.1/"
   xmlns:cc="http://creativecommons.org/ns#"
   xmlns:rdf="http://www.w3.org/1999/02/22-rdf-syntax-ns#"
   xmlns:svg="http://www.w3.org/2000/svg"
   xmlns="http://www.w3.org/2000/svg"
   xmlns:sodipodi="http://sodipodi.sourceforge.net/DTD/sodipodi-0.dtd"
   xmlns:inkscape="http://www.inkscape.org/namespaces/inkscape"
   width="192"
   height="192"
   version="1"
   id="svg18"
   sodipodi:docname="apps_habit_browser.svg"
   inkscape:version="0.92.3 (2405546, 2018-03-11)">
  <metadata
     id="metadata24">
    <rdf:RDF>
      <cc:Work
         rdf:about="">
        <dc:format>image/svg+xml</dc:format>
        <dc:type
           rdf:resource="http://purl.org/dc/dcmitype/StillImage" />
      </cc:Work>
    </rdf:RDF>
  </metadata>
  <defs
     id="defs22">
    <filter
       inkscape:collect="always"
       style="color-interpolation-filters:sRGB"
       id="filter857"
       x="-0.048"
       width="1.096"
       y="-0.048"
       height="1.096">
      <feGaussianBlur
         inkscape:collect="always"
         stdDeviation="3.2"
         id="feGaussianBlur859" />
    </filter>
    <filter
       inkscape:collect="always"
       style="color-interpolation-filters:sRGB"
       id="filter880"
       x="-0.0479992"
       width="1.0959984"
       y="-0.0480008"
       height="1.0960016">
      <feGaussianBlur
         inkscape:collect="always"
         stdDeviation="2.39996"
         id="feGaussianBlur882" />
    </filter>
  </defs>
  <sodipodi:namedview
     pagecolor="#ffffff"
     bordercolor="#666666"
     borderopacity="1"
     objecttolerance="10"
     gridtolerance="10"
     guidetolerance="10"
     inkscape:pageopacity="0"
     inkscape:pageshadow="2"
     inkscape:window-width="1920"
     inkscape:window-height="1018"
     id="namedview20"
     showgrid="false"
     inkscape:zoom="2.86"
     inkscape:cx="96"
     inkscape:cy="96"
     inkscape:window-x="0"
     inkscape:window-y="32"
     inkscape:window-maximized="1"
     inkscape:current-layer="svg18" />
  <circle
     id="circle2"
     r="80"
     cy="100"
     cx="96"
     style="opacity:0.2;stroke-width:4;filter:url(#filter857)" />
  <circle
     id="circle4"
     r="80"
     cy="96"
     cx="96"
     style="fill:#00695c;stroke-width:4;fill-opacity:1" />
  <rect
     id="rect6"
     transform="matrix(0,-1,-1,0,0,0)"
     ry="60"
     rx="60"
     y="-156"
     x="-160"
     height="120"
     width="119.996"
     style="opacity:0.2;stroke-width:4;filter:url(#filter880)" />
  <rect
     id="rect8"
     transform="matrix(0,-1,-1,0,0,0)"
     ry="60"
     rx="60"
     y="-156"
     x="-156"
     height="120"
     width="119.996"
     style="fill:#2f9df9;stroke-width:4;fill-opacity:1" />
  <path
     inkscape:connector-curvature="0"
     id="path10"
     d="m 88.320312,40.5 c -7.802,0.988768 -15.114256,3.476856 -21.671876,7.148436 l 4.257812,1.070316 2.757816,1.921872 v 1.656252 l 4.6875,3.031248 L 77.25,59.742188 74.773436,57.8125 73.117188,59.742188 71.1875,60.843752 70.085936,57.531248 70.640624,55.609376 70.085936,54.226564 67.328124,51.75 h -1.10156 l 1.10156,2.757812 v 2.476564 c -1.082988,-0.30208 -2.202516,-0.413392 -3.3125,-0.554688 l 3.039064,2.210936 0.27344,1.375 3.58594,3.039064 3.578124,-0.828124 v -2.21094 l 1.656248,1.101564 -0.820312,1.9375 h 2.75 l 1.382812,2.47656 1.656252,1.937504 3.304688,0.546872 -1.929688,1.929688 -0.554688,1.929688 h 2.484376 l 3.031248,1.656248 v 4.96094 h -1.375 l -1.375,1.375 -3.03906,-1.375 -1.101564,-3.031252 -2.203124,-1.382812 -0.28124,-1.10156 -3.578124,-0.820316 -1.929688,2.203128 -2.203124,1.10156 1.375,2.484376 -1.929688,-0.554688 -1.109376,-2.484376 2.484376,-2.75 h -1.101564 l -2.203124,1.921876 -0.554688,2.765628 -1.929688,2.47656 -0.546872,-3.578124 -1.109376,-0.5625 c -1.167616,1.23674 -2.047684,2.748788 -3.031252,4.140624 l -3.859372,0.27344 -1.929688,1.382812 0.828124,1.375 2.203124,1.929684 h 3.039064 l 4.132812,-1.375 1.929688,0.27344 1.648436,1.656248 4.414064,-4.41406 3.031248,-0.828124 4.414064,0.554684 L 84.70314,81.25 c 2.2527,2.60574 4.477004,5.28598 6.609376,7.992188 l 2.484376,6.351564 -1.101564,1.10156 2.203108,3.304688 -2.484372,5.78906 c -2.008144,2.3177 -4.057324,4.5714 -6.0625,6.89063 l -3.031252,-2.47657 -1.10156,1.375 -3.312504,-1.92968 -1.10156,1.10156 h -3.031252 l -1.929684,2.20312 1.10156,3.86719 -2.203124,2.48438 0.27344,4.40625 -1.929688,3.30468 1.375,2.76563 c 0.11752,2.00672 0.28124,4.05527 0.28124,6.0625 -0.96782,2.71905 -2.125184,5.26139 -3.039064,8 L 68.156248,148.25 v 0.90625 C 76.473928,153.50565 85.928312,156 96,156 c 8.99656,0 17.48773,-2.02063 25.13281,-5.53906 l -0.31252,-1.10938 -3.03125,-0.82031 -2.21094,-6.07031 0.55469,-1.375 -1.38281,-2.48438 -3.58594,-0.82812 -1.64844,-4.13282 0.27344,-5.51562 -2.75781,-3.85938 -0.27344,-3.85937 c 3.76255,-1.90359 7.2969,-3.82893 11.03125,-5.78906 l 1.92969,-3.86719 3.30468,-0.82031 1.92969,-4.96875 4.41406,0.55468 4.13282,-3.03124 4.14062,3.85937 v 0.54687 c 1.24852,-0.36796 2.74771,-0.4045 3.85938,-1.10156 l 0.82812,-2.75 v -2.75781 l 2.75,0.27344 c -0.2294,-1.853582 -0.59004,-3.93573 -0.82031,-5.789066 h 1.65625 l 1.64844,2.203128 1.65625,0.828124 2.21093,-1.382812 0.27344,-2.75 -0.27344,-3.3125 -3.58593,-2.484376 h -2.75782 l -0.55469,-1.648436 -3.30468,0.820312 -2.48438,3.03906 -0.55468,-5.242188 -4.40626,-3.585936 -1.38281,-4.132812 -3.30468,-1.375 -1.92969,-2.484376 -4.14063,-0.828124 -1.92968,-3.3125 h 6.07031 l -3.85938,-1.648436 h -2.76562 l -3.57813,-1.382816 -0.55469,3.58594 -1.65624,-2.484376 1.92968,-1.375 -0.54687,-1.382812 1.38281,-1.375 1.64844,-0.27344 -0.54688,-1.656248 1.375,-2.484376 2.75782,1.101564 -0.54688,-2.203124 3.30469,-1.929688 2.48437,4.6875 -0.28124,1.382812 2.48438,1.10156 1.65625,3.58594 0.54687,-3.3125 4.41407,-1.656252 0.82812,-2.484372 -5.78906,-3.304688 -2.48437,-2.476564 -0.27344,-3.03906 0.14064,-0.08596 c -0.636,-0.424488 -1.30695,-0.795128 -1.96094,-1.195312 l 0.99218,2.390624 h -2.75781 l -0.82812,-2.210936 -2.47657,1.929688 h -2.21093 v -2.203124 l 2.48437,-1.109376 2.20313,1.382812 -0.27344,-0.554688 c -1.10998,-0.800356 -2.1737,-1.71368 -3.30469,-2.484356 l -2.75781,0.83594 c -1.71297,1.18796 -3.24496,2.39196 -4.96094,3.578124 l -2.76562,-2.476564 3.03906,-1.10156 1.10156,-2.757816 2.14844,-0.2422 c -1.16098,-0.429568 -2.31383,-0.86776 -3.50781,-1.226548 l -5.53125,3.953124 v 2.476564 l 2.20312,2.484376 -3.03125,6.0625 -2.21094,-1.101564 -2.47656,-4.132812 c -3.701948,-1.16756 -7.262852,-2.525776 -10.757808,-4.140624 l 0.27344,1.656248 -1.648436,1.101564 -3.039064,-2.203124 1.382812,-1.656252 2.203124,1.101564 0.28124,-0.27344 L 88.328124,40.5 Z M 60.734376,51.468752 c -0.935312,0.67932 -1.888244,1.346872 -2.781252,2.078124 l 1.101564,1.234372 3.031248,-3.312496 h -1.343748 z m 22.85156,3.03906 H 85.25 v 1.648436 l -1.101564,1.375 v 2.484376 l 0.546876,3.58594 -2.757812,-0.546876 -2.203124,-1.9375 1.929688,-1.921876 c 0.604404,-1.643016 1.164984,-3.111652 1.921872,-4.6875 z m 4.140628,3.58594 1.656248,0.546872 -0.27344,3.304688 -2.484376,-1.375 z m -43.015628,28.125 -2.484372,2.75 -2.750002,-0.27344 c -0.969288,0.899968 -1.932948,1.665532 -2.835937,2.5625 -0.304884,2.1056 -0.469387,4.25822 -0.554687,6.429688 0.44331,16.04434 7.078462,30.47862 17.671874,40.96875 l 2.257812,-2.25781 -2.75,-2.21094 L 50.5,132.53906 49.398436,131.15625 50.226564,128.125 v -7.71875 l -2.203128,-4.6875 -2.484372,-2.75781 -3.031252,-7.17188 v -1.92968 c 1.419224,0.18244 2.744132,0.4541 4.132812,0.55468 L 43.882812,101.38281 40.023436,98.625 37.8125,96.148436 v -2.484372 c 0.472944,-0.909596 0.906868,-2.121592 1.382812,-3.031252 L 41.125,93.109376 42.5,91.179688 44.710936,89.523436 Z m 10.75,1.375 -2.47656,3.031248 -3.3125,6.890624 -1.921876,2.203128 1.101564,2.484368 -1.929688,2.20313 c 0.80558,0.053 1.64872,0 2.47656,0 1.50382,-3.22429 2.7142,-6.548786 3.859376,-9.921874 L 55.1875,92.281248 56.296876,88.140624 Z M 155.86719,98.601564 c -0.12836,0.23752 -0.30468,0.570312 -0.30468,0.570312 l -4.6875,2.757814 -4.96875,1.375 -1.92969,2.75781 -3.30469,2.48438 -1.65625,-0.55469 -1.38281,0.82812 v 0.27344 l 1.65625,5.24219 1.38281,1.92968 -0.27344,1.10157 1.10157,4.14062 -4.14063,7.44531 -4.13281,3.85157 -1.92969,2.48437 0.27344,5.78906 -1.38281,3.03907 0.23436,1.03906 c 14.80686,-10.36334 24.62234,-27.24147 25.44532,-46.554686 z"
     style="opacity:0.2;stroke-width:4" />
  <path
     inkscape:connector-curvature="0"
     id="path12"
     d="m 88.323844,36.501434 c -7.802,0.988767 -15.115908,3.476584 -21.673528,7.148162 l 4.259648,1.066376 2.753876,1.927676 v 1.652284 l 4.68744,3.035 -1.097984,4.411952 -2.477972,-1.927436 -1.65898,1.927436 -1.928972,1.101564 -1.100988,-3.310392 0.551992,-1.927736 -0.551992,-1.376652 -2.759724,-2.48428 h -1.101556 l 1.101556,2.759668 v 2.478428 C 66.243672,52.681404 65.127684,52.5737 64.0177,52.432404 l 3.03506,2.208916 0.2754,1.376896 3.585852,3.034996 3.580156,-0.82614 v -2.208916 l 1.658172,1.101532 -0.82616,1.933524 h 2.753872 l 1.382804,2.478428 1.65232,1.933528 3.31046,0.550752 -1.933568,1.927676 -0.550764,1.933524 h 2.484332 l 3.02936,1.652284 v 4.962736 h -1.37692 l -1.376924,1.376896 -3.035064,-1.376896 -1.101556,-3.035 -2.20896,-1.376892 -0.2754,-1.101536 -3.580152,-0.82614 -1.933568,2.203064 -2.203112,1.101536 1.376924,2.484276 -1.927716,-0.550752 -1.107408,-2.484276 2.484332,-2.75382 h -1.10156 l -2.20896,1.927676 -0.550764,2.759668 -1.927716,2.478428 -0.550764,-3.58008 -1.107404,-0.556632 c -1.167616,1.23674 -2.045796,2.744728 -3.029364,4.136564 l -3.861252,0.2754 -1.933564,1.382776 0.832008,1.376892 2.203112,1.927676 h 3.035064 l 4.136648,-1.376892 1.927716,0.2754 1.65232,1.652284 4.412044,-4.411952 3.035064,-0.826144 4.412044,0.550752 4.136648,1.107384 c 2.2527,2.60574 4.482844,5.285824 6.615216,7.992032 l 2.484328,6.345388 -1.107404,1.101536 2.20896,3.310388 -2.484328,5.788906 c -2.008144,2.31769 -4.059248,4.57125 -6.064424,6.89047 l -3.03506,-2.47842 -1.101556,1.37689 -3.31046,-1.92768 -1.101556,1.10154 h -3.029364 l -1.933564,2.20307 1.101556,3.86116 -2.203112,2.48428 0.2754,4.41196 -1.927716,3.30469 1.376924,2.75967 c 0.11752,2.00672 0.2754,4.05706 0.2754,6.06429 -0.96782,2.71905 -2.121184,5.25913 -3.035064,7.99774 l -0.550764,4.41195 v 2.20307 H 66.50188 l -2.759728,-1.65229 h -2.630816 c 9.825476,7.02247 21.841528,11.19683 34.892564,11.19683 9.80028,0 19.00986,-2.37706 27.16376,-6.50948 l 0.13476,-0.2754 -1.93357,-1.92768 -0.55076,-1.93353 -3.02936,-0.82614 -2.20897,-6.0643 0.55077,-1.37689 -1.37693,-2.48428 -3.58585,-0.82614 -1.65232,-4.13656 0.2754,-5.51352 -2.75972,-3.86117 -0.2754,-3.86117 c 3.76255,-1.90359 7.29861,-3.82877 11.03296,-5.78891 l 1.92772,-3.86117 3.31046,-0.82614 1.92771,-4.96274 4.41205,0.55075 4.13665,-3.029296 4.13664,3.855476 v 0.55075 c 1.24853,-0.36796 2.74959,-0.40448 3.86126,-1.10153 l 0.82616,-2.753824 v -2.759668 l 2.75387,0.2754 c -0.2294,-1.85358 -0.59588,-3.935572 -0.82616,-5.788908 h 1.6582 l 1.65232,2.203064 1.65232,0.826144 2.20896,-1.376892 0.2754,-2.75382 -0.2754,-3.310392 -3.58585,-2.484276 h -2.75388 l -0.55664,-1.652284 -3.30476,0.82614 -2.48433,3.035 -0.55077,-5.238144 -4.41204,-3.58578 -1.37692,-4.136564 -3.31046,-1.376896 -1.92772,-2.484276 -4.13665,-0.826144 -1.93356,-3.310388 h 6.07012 l -3.86125,-1.652284 h -2.75973 l -3.58015,-1.376896 -0.55664,3.58008 -1.65232,-2.478428 1.92771,-1.376892 -0.55076,-1.382776 1.3828,-1.376892 1.65232,-0.2754 -0.55076,-1.652284 1.37692,-2.484308 2.75973,1.101532 -0.55077,-2.203064 3.30476,-1.933528 2.48433,4.687344 -0.2754,1.382776 2.47848,1.101532 1.6582,3.58578 0.55076,-3.310388 4.41205,-1.652284 0.82615,-2.484308 -5.78902,-3.310392 -2.48433,-2.478428 -0.2754,-3.034996 0.14648,-0.08788 c -0.63599,-0.424488 -1.31099,-0.795576 -1.96498,-1.19576 l 0.99608,2.39056 h -2.75971 l -0.82616,-2.208916 -2.47848,1.927676 h -2.20896 V 44.7158 l 2.48433,-1.107384 2.20311,1.382776 -0.2754,-0.550752 c -1.10998,-0.800376 -2.17497,-1.713844 -3.30596,-2.48452 l -2.75996,0.832172 c -1.71298,1.18796 -3.24596,2.39362 -4.96194,3.579784 l -2.75997,-2.47822 3.03597,-1.101564 1.10098,-2.759608 2.15098,-0.240292 c -1.16099,-0.429584 -2.31597,-0.86577 -3.50996,-1.224558 l -5.53133,3.94907 v 2.478428 l 2.20197,2.484216 -3.02696,6.064296 -2.21097,-1.10156 -2.47797,-4.136564 C 98.650288,47.13396 95.089332,45.779804 91.594376,44.164956 l 0.2754,1.652288 -1.65232,1.10738 -3.03506,-2.208916 1.3828,-1.652284 2.203112,1.101532 0.2754,-0.27536 -2.712868,-7.388454 z M 60.738292,47.469668 c -0.936948,0.68062 -1.888568,1.341588 -2.783188,2.07416 l 1.095708,1.236292 3.03506,-3.310392 h -1.34764 z m 22.851312,3.035 h 1.6582 v 1.652284 l -1.101556,1.376896 v 2.484276 l 0.550764,3.58578 -2.762968,-0.55198 -2.201972,-1.931936 1.928976,-1.927736 c 0.604404,-1.643016 1.170828,-3.111496 1.927716,-4.687344 z m 4.136648,3.58578 1.658172,0.550752 -0.2754,3.304692 -2.483972,-1.376056 1.100988,-2.478216 z m -43.01346,28.124064 -2.484272,2.753908 -2.753964,-0.276 C 38.505268,85.592388 37.54168,86.363364 36.638692,87.260332 36.225597,90.11324 36,93.03214 36,96.002044 c 0,19.700946 9.44418,37.066766 24.0231,47.992406 l -3.731952,-4.43085 0.557992,-1.92594 -3.31136,-2.75991 2.477368,-2.48392 -2.752764,-2.20493 -2.759664,-1.64994 -1.101588,-1.38295 0.82616,-3.0293 v -7.72235 l -2.203112,-4.68734 -2.484328,-2.75967 -3.035064,-7.16586 v -1.933526 c 1.419224,0.182436 2.747968,0.456046 4.136648,0.556636 L 43.886272,97.381708 40.02502,94.6218 37.816147,92.143884 v -2.48428 c 0.472944,-0.909596 0.906859,-2.119636 1.382803,-3.029296 l 1.927714,2.478428 1.376924,-1.927676 2.208964,-1.658136 v -3.304692 z m 10.751864,1.376896 -2.47848,3.0293 -3.310456,6.896168 -1.927716,2.203068 1.101556,2.484276 -1.927716,2.20307 c 0.80558,0.053 1.65064,0 2.47848,0 1.50382,-3.224294 2.716076,-6.552382 3.861252,-9.92547 l 1.927712,-2.20304 1.107408,-4.13656 -0.832008,-0.550752 z M 155.9574,94.424948 c -0.10996,0.19224 -0.39844,0.744124 -0.39844,0.744124 l -4.68744,2.759668 -4.96284,1.376896 -1.93356,2.759664 -3.30476,2.47843 -1.65817,-0.55075 -1.37693,0.82614 v 0.2754 l 1.65232,5.23813 1.38281,1.93352 -0.2754,1.10153 1.10155,4.13657 -4.13664,7.44695 -4.13665,3.85547 -1.92772,2.48428 0.2754,5.78891 -1.3828,3.035 1.01366,4.45305 c 15.02021,-10.88364 24.79649,-28.51855 24.79649,-48.565386 0,-0.528224 -0.0276,-1.051256 -0.041,-1.57612 z"
     style="fill:#ffffff;stroke-width:4" />
  <path
     style="opacity:0.1;fill:#ffffff;stroke-width:4"
     d="M 96 16 A 80 80 0 0 0 16 96 A 80 80 0 0 0 16.017578 96.490234 A 80 80 0 0 1 96 17 A 80 80 0 0 1 175.97461 96.494141 A 80 80 0 0 0 176 96 A 80 80 0 0 0 96 16 z "
     id="path14" />
</svg>
