<?xml version="1.0" encoding="UTF-8" standalone="no"?>
<svg
   xmlns:dc="http://purl.org/dc/elements/1.1/"
   xmlns:cc="http://creativecommons.org/ns#"
   xmlns:rdf="http://www.w3.org/1999/02/22-rdf-syntax-ns#"
   xmlns:svg="http://www.w3.org/2000/svg"
   xmlns="http://www.w3.org/2000/svg"
   xmlns:sodipodi="http://sodipodi.sourceforge.net/DTD/sodipodi-0.dtd"
   xmlns:inkscape="http://www.inkscape.org/namespaces/inkscape"
   width="192"
   height="192"
   version="1"
   id="svg22"
   sodipodi:docname="apps_superuser.svg"
   inkscape:version="0.92.3 (2405546, 2018-03-11)">
  <metadata
     id="metadata28">
    <rdf:RDF>
      <cc:Work
         rdf:about="">
        <dc:format>image/svg+xml</dc:format>
        <dc:type
           rdf:resource="http://purl.org/dc/dcmitype/StillImage" />
      </cc:Work>
    </rdf:RDF>
  </metadata>
  <defs
     id="defs26">
    <filter
       inkscape:collect="always"
       style="color-interpolation-filters:sRGB"
       id="filter862"
       x="-0.048"
       width="1.096"
       y="-0.048"
       height="1.096">
      <feGaussianBlur
         inkscape:collect="always"
         stdDeviation="3.2"
         id="feGaussianBlur864" />
    </filter>
    <filter
       inkscape:collect="always"
       style="color-interpolation-filters:sRGB"
       id="filter885"
       x="-0.046290053"
       width="1.0925801"
       y="-0.049841123"
       height="1.0996822">
      <feGaussianBlur
         inkscape:collect="always"
         stdDeviation="2.1645977"
         id="feGaussianBlur887" />
    </filter>
  </defs>
  <sodipodi:namedview
     pagecolor="#ffffff"
     bordercolor="#666666"
     borderopacity="1"
     objecttolerance="10"
     gridtolerance="10"
     guidetolerance="10"
     inkscape:pageopacity="0"
     inkscape:pageshadow="2"
     inkscape:window-width="1920"
     inkscape:window-height="1018"
     id="namedview24"
     showgrid="false"
     inkscape:zoom="1"
     inkscape:cx="96"
     inkscape:cy="113.59976"
     inkscape:window-x="0"
     inkscape:window-y="32"
     inkscape:window-maximized="1"
     inkscape:current-layer="svg22" />
  <rect
     style="opacity:0.2;fill:#000000;stroke-width:4;filter:url(#filter862)"
     width="160"
     height="160"
     x="-180"
     y="-176"
     rx="8"
     ry="8"
     transform="matrix(0,-1,-1,0,0,0)"
     id="rect844" />
  <rect
     id="rect4"
     transform="matrix(0,-1,-1,0,0,0)"
     ry="8"
     rx="8"
     y="-176"
     x="-176"
     height="160"
     width="160"
     style="fill:#4f4f4f;stroke-width:4" />
  <path
     style="opacity:0.1;fill:#ffffff;stroke-width:4"
     d="M 24 16 C 19.568 16 16 19.568 16 24 L 16 25 C 16 20.568 19.568 17 24 17 L 168 17 C 172.432 17 176 20.568 176 25 L 176 24 C 176 19.568 172.432 16 168 16 L 24 16 z "
     id="path6" />
  <path
     inkscape:connector-curvature="0"
     id="path8"
     d="m 88.093752,45.892324 a 8.0008,8.0008 0 0 0 -7.89844,6.33594 L 76.156248,70.0017 H 56 a 8.0008,8.0008 0 1 0 0,16 h 16.515624 l -5.453124,24 H 48 a 8.0008,8.0008 0 1 0 0,16 h 15.429688 l -3.234376,14.22656 a 8.0036394,8.0036394 0 0 0 15.609376,3.54688 L 79.843752,126.0017 H 99.4375 l -3.234376,14.22656 a 8.0008,8.0008 0 1 0 15.601566,3.54688 l 4.03906,-17.77344 H 136 a 8.0008,8.0008 0 1 0 0,-16 h -16.51562 l 5.45312,-24 H 144 a 8.0008,8.0008 0 1 0 0,-16 h -15.42969 l 3.23438,-14.226564 a 8.0008,8.0008 0 0 0 -7.71094,-9.882812 8.0008,8.0008 0 0 0 -7.89063,6.33594 L 112.16406,70.0017 H 92.570312 L 95.804688,55.775136 A 8.0008,8.0008 0 0 0 88.093752,45.892324 Z M 88.9375,86.0017 h 19.59375 l -5.45313,24 H 83.484376 Z"
     style="opacity:0.2;stroke-width:4;filter:url(#filter885)" />
  <g
     id="g18"
     transform="scale(4)">
    <path
       inkscape:connector-curvature="0"
       id="path10"
       d="M 22,13 17,35"
       style="fill:none;stroke:#ffffff;stroke-width:4;stroke-linecap:round" />
    <path
       inkscape:connector-curvature="0"
       id="path12"
       d="m 31.000469,13 -5,22"
       style="fill:none;stroke:#ffffff;stroke-width:4;stroke-linecap:round" />
    <path
       inkscape:connector-curvature="0"
       id="path14"
       d="m 14,19 22,-1e-6"
       style="fill:none;stroke:#ffffff;stroke-width:4;stroke-linecap:round" />
    <path
       inkscape:connector-curvature="0"
       id="path16"
       d="m 12.000485,28.9998 22,-1e-6"
       style="fill:none;stroke:#ffffff;stroke-width:4;stroke-linecap:round" />
  </g>
</svg>
