<?xml version="1.0" encoding="UTF-8" standalone="no"?>
<svg
   xmlns:dc="http://purl.org/dc/elements/1.1/"
   xmlns:cc="http://creativecommons.org/ns#"
   xmlns:rdf="http://www.w3.org/1999/02/22-rdf-syntax-ns#"
   xmlns:svg="http://www.w3.org/2000/svg"
   xmlns="http://www.w3.org/2000/svg"
   xmlns:sodipodi="http://sodipodi.sourceforge.net/DTD/sodipodi-0.dtd"
   xmlns:inkscape="http://www.inkscape.org/namespaces/inkscape"
   width="192"
   height="192"
   version="1"
   id="svg14"
   sodipodi:docname="apps_whatsapp.svg"
   inkscape:version="0.92.3 (2405546, 2018-03-11)">
  <metadata
     id="metadata20">
    <rdf:RDF>
      <cc:Work
         rdf:about="">
        <dc:format>image/svg+xml</dc:format>
        <dc:type
           rdf:resource="http://purl.org/dc/dcmitype/StillImage" />
      </cc:Work>
    </rdf:RDF>
  </metadata>
  <defs
     id="defs18">
    <filter
       inkscape:collect="always"
       style="color-interpolation-filters:sRGB"
       id="filter862"
       x="-0.04800018"
       width="1.0960004"
       y="-0.04799982"
       height="1.0959996">
      <feGaussianBlur
         inkscape:collect="always"
         stdDeviation="3.200012"
         id="feGaussianBlur864" />
    </filter>
    <filter
       inkscape:collect="always"
       style="color-interpolation-filters:sRGB"
       id="filter881"
       x="-0.045599994"
       width="1.0912"
       y="-0.050666674"
       height="1.1013333">
      <feGaussianBlur
         inkscape:collect="always"
         stdDeviation="1.5200003"
         id="feGaussianBlur883" />
    </filter>
  </defs>
  <sodipodi:namedview
     pagecolor="#ffffff"
     bordercolor="#666666"
     borderopacity="1"
     objecttolerance="10"
     gridtolerance="10"
     guidetolerance="10"
     inkscape:pageopacity="0"
     inkscape:pageshadow="2"
     inkscape:window-width="1920"
     inkscape:window-height="1018"
     id="namedview16"
     showgrid="false"
     inkscape:zoom="1"
     inkscape:cx="96"
     inkscape:cy="96"
     inkscape:window-x="0"
     inkscape:window-y="32"
     inkscape:window-maximized="1"
     inkscape:current-layer="svg14" />
  <path
     d="m 96,19.9988 c -1.928,0 -3.828,0.094 -5.72,0.2264 -0.236,0.0176 -0.472,0.0352 -0.708,0.0548 -28.58,2.2552 -52.784,19.4132 -65.008,43.736 -0.0044,0.004 -0.0068,0.012 -0.0092,0.016 -0.7912,1.572 -1.6008,3.14 -2.2892,4.772 -3.7452,8.456 -5.7788,17.432 -6.1484,26.828 -0.0164,0.304 -0.0184,0.612 -0.0312,0.916 -0.0248,0.896 -0.0764,1.788 -0.0704,2.696 C 16.0132,99.496 16,99.744 16,100 c 0,9.304 1.6532,18.184 4.5468,26.476 1.1648,3.716 2.5064,7.472 4.1252,11.276 4.032,9.472 4.5328,12.056 3.8984,19.968 -0.442,5.512 -1.9364,11.14 -3.8048,14.312 -1.6936,2.872 -3.078,5.84 -3.078,6.592 0,2.336 13.5088,1.52 25.4444,-1.54 13.984,-3.58 15.208,-3.572 26.672,0.024 5.244,1.648 11.232,2.536 17.984,2.784 0.284,0.012 0.568,0.012 0.852,0.024 0.924,0.024 1.812,0.084 2.768,0.084 0.076,0 0.148,-0.008 0.224,-0.008 0.124,0 0.244,0.008 0.368,0.008 2.232,0 4.44,-0.112 6.624,-0.288 19.78,-1.408 35.664,-8.728 49.96,-23 11.78,-11.76 19.08,-26.28 21.964,-41.468 0.264,-1.392 0.484,-2.792 0.68,-4.204 0.116,-0.868 0.24,-1.732 0.328,-2.604 0.192,-1.864 0.308,-3.76 0.372,-5.664 0.016,-0.48 0.036,-0.956 0.04,-1.436 C 175.976,100.888 176,100.448 176,100 176,56.42 141.492,21.22 98.204,20.056 97.868,20.0448 97.532,20.0364 97.196,20.0312 96.796,20.0256 96.4,20 96,20 Z"
     id="path832"
     inkscape:connector-curvature="0"
     style="opacity:0.2;fill:#000000;stroke-width:4;filter:url(#filter862)" />
  <path
     style="fill:#47ad5d;stroke-width:4"
     inkscape:connector-curvature="0"
     id="path2"
     d="m 96,16 c -1.928,0 -3.828,0.094 -5.72,0.2264 -0.236,0.0176 -0.472,0.0352 -0.708,0.0548 -28.58,2.2552 -52.784,19.4132 -65.008,43.736 -0.0044,0.004 -0.0068,0.012 -0.0092,0.016 -0.7912,1.572 -1.6008,3.14 -2.2892,4.772 -3.7452,8.456 -5.7788,17.432 -6.1484,26.828 -0.0164,0.304 -0.0184,0.612 -0.0312,0.916 -0.0248,0.896 -0.0764,1.788 -0.0704,2.696 -0.0024,0.252 -0.0156,0.5 -0.0156,0.756 0,9.304 1.6532,18.184 4.5468,26.476 1.1648,3.716 2.5064,7.472 4.1252,11.276 4.032,9.472 4.5328,12.056 3.8984,19.968 -0.442,5.512 -1.9364,11.14 -3.8048,14.312 -1.6936,2.872 -3.078,5.84 -3.078,6.592 0,2.336 13.5088,1.52 25.4444,-1.54 13.984,-3.58 15.208,-3.572 26.672,0.024 5.244,1.648 11.232,2.536 17.984,2.784 0.284,0.012 0.568,0.012 0.852,0.024 0.924,0.024 1.812,0.084 2.768,0.084 0.076,0 0.148,-0.008 0.224,-0.008 0.124,0 0.244,0.008 0.368,0.008 2.232,0 4.44,-0.112 6.624,-0.288 19.78,-1.408 35.664,-8.728 49.96,-23 11.78,-11.76 19.08,-26.28 21.964,-41.468 0.264,-1.392 0.484,-2.792 0.68,-4.204 0.116,-0.868 0.24,-1.732 0.328,-2.604 0.192,-1.864 0.308,-3.76 0.372,-5.664 0.016,-0.48 0.036,-0.956 0.04,-1.436 0.008,-0.448 0.032,-0.888 0.032,-1.336 0,-43.58 -34.508,-78.78 -77.796,-79.944 C 97.868,16.046 97.532,16.0376 97.196,16.0324 96.796,16.0268 96.4,16.0012 96,16.0012 Z" />
  <path
     style="opacity:0.2;fill:#ffffff;stroke-width:4"
     d="M 95.998047 16 C 94.070721 16.000064 92.170654 16.094207 90.279297 16.226562 C 90.043297 16.244163 89.808266 16.26165 89.572266 16.28125 C 60.992266 18.53645 36.788453 35.694778 24.564453 60.017578 C 24.560053 60.021578 24.557087 60.029203 24.554688 60.033203 C 23.763488 61.605203 22.954025 63.172688 22.265625 64.804688 C 18.520425 73.260688 16.486788 82.236812 16.117188 91.632812 C 16.100787 91.936813 16.098737 92.244828 16.085938 92.548828 C 16.061138 93.444828 16.009625 94.338094 16.015625 95.246094 C 16.013225 95.498094 16 95.745953 16 96.001953 C 16 96.109636 16.009388 96.215252 16.013672 96.322266 C 16.014109 96.296937 16.015383 96.271492 16.015625 96.246094 C 16.009625 95.338094 16.061138 94.444828 16.085938 93.548828 C 16.098737 93.244828 16.100787 92.936813 16.117188 92.632812 C 16.486788 83.236812 18.520425 74.260688 22.265625 65.804688 C 22.954025 64.172688 23.763488 62.605203 24.554688 61.033203 C 24.557087 61.029203 24.560053 61.021578 24.564453 61.017578 C 36.788453 36.694778 60.992266 19.53645 89.572266 17.28125 C 89.808266 17.26165 90.043297 17.244163 90.279297 17.226562 C 92.170654 17.094207 94.070721 17.000064 95.998047 17 L 96 17 C 96.399335 17.000083 96.795965 17.025659 97.195312 17.03125 C 97.531312 17.03645 97.867125 17.045441 98.203125 17.056641 C 141.27453 18.214816 175.64728 53.069791 175.99023 96.347656 C 175.99278 96.231876 175.99805 96.116582 175.99805 96 C 175.99805 52.42 141.49113 17.220641 98.203125 16.056641 C 97.867125 16.045441 97.531312 16.03645 97.195312 16.03125 C 96.795965 16.025659 96.399335 16.000083 96 16 L 95.998047 16 z M 28.703125 150.78711 C 28.665925 151.73511 28.660713 152.5887 28.570312 153.7207 C 28.128312 159.2327 26.634025 164.85925 24.765625 168.03125 C 23.072025 170.90325 21.6875 173.87105 21.6875 174.62305 C 21.6875 174.74774 21.751742 174.85686 21.841797 174.95898 C 22.233461 173.73829 23.390242 171.36362 24.765625 169.03125 C 26.634025 165.85925 28.128312 160.2327 28.570312 154.7207 C 28.660713 153.5887 28.665925 152.73511 28.703125 151.78711 C 28.744044 152.28208 28.770145 152.78528 28.783203 153.30273 C 28.787914 152.42702 28.769495 151.58995 28.703125 150.78711 z "
     id="path6" />
  <path
     inkscape:connector-curvature="0"
     id="path8"
     d="m 126.00365,134.14914 c 5.99724,-2.77592 8.78548,-6.25878 9.74692,-12.17504 0.73272,-4.5088 0.3948,-5.66232 -8.72832,-9.91958 -11.6,-5.41328 -10.88492,-5.43912 -15.88216,0.5743 -3.11004,3.74242 -4.44644,4.95665 -5.45572,4.95665 -11.821574,-3.09785 -23.850118,-12.04629 -27.67585,-23.797278 0,-0.503168 1.25824,-2.344108 2.79616,-4.090964 4.522,-5.136292 4.52696,-5.26216 0.5788,-14.6898 -4.5452,-10.853456 -6.082632,-10.77976 -11.034232,-10.978276 -5.06728,-0.20312 -6.6686,0.577528 -9.87472,4.813932 -3.31708,4.383092 -4.5014,7.9091 -4.47408,13.320556 0.036,6.868324 2.35832,12.383084 9.08428,21.56022 11.5464,15.75424 22.81176,24.30498 39.041282,29.6334 9.92592,3.2589 16.06772,3.48119 21.87764,0.79188 z"
     style="opacity:0.1;stroke-width:4;filter:url(#filter881)" />
  <path
     inkscape:connector-curvature="0"
     id="path10"
     d="m 126.00365,130.14914 c 5.99724,-2.77592 8.78548,-6.25877 9.74692,-12.17503 0.73272,-4.50881 0.3948,-5.66232 -8.72832,-9.91959 -11.6,-5.41328 -10.88492,-5.43912 -15.88216,0.5743 -3.11004,3.74242 -4.44644,4.95665 -5.45572,4.95665 -11.821574,-3.09784 -23.850118,-12.04628 -27.67585,-23.797274 0,-0.503168 1.25824,-2.344108 2.79616,-4.090964 4.522,-5.136292 4.52696,-5.26216 0.5788,-14.6898 -4.5452,-10.853456 -6.082632,-10.77976 -11.034232,-10.978276 -5.06728,-0.20312 -6.6686,0.577528 -9.87472,4.813932 -3.31708,4.383092 -4.5014,7.9091 -4.47408,13.320556 0.036,6.868324 2.35832,12.383084 9.08428,21.560224 11.5464,15.754232 22.81176,24.304972 39.041282,29.633402 9.92592,3.2589 16.06772,3.48118 21.87764,0.79187 z"
     style="fill:#ffffff;stroke-width:4" />
</svg>
