<?xml version="1.0" encoding="UTF-8" standalone="no"?>
<svg
   xmlns:dc="http://purl.org/dc/elements/1.1/"
   xmlns:cc="http://creativecommons.org/ns#"
   xmlns:rdf="http://www.w3.org/1999/02/22-rdf-syntax-ns#"
   xmlns:svg="http://www.w3.org/2000/svg"
   xmlns="http://www.w3.org/2000/svg"
   xmlns:sodipodi="http://sodipodi.sourceforge.net/DTD/sodipodi-0.dtd"
   xmlns:inkscape="http://www.inkscape.org/namespaces/inkscape"
   width="192"
   height="192"
   version="1"
   id="svg14"
   sodipodi:docname="apps_musicolet_music_player.svg"
   inkscape:version="0.92.3 (2405546, 2018-03-11)">
  <metadata
     id="metadata20">
    <rdf:RDF>
      <cc:Work
         rdf:about="">
        <dc:format>image/svg+xml</dc:format>
        <dc:type
           rdf:resource="http://purl.org/dc/dcmitype/StillImage" />
      </cc:Work>
    </rdf:RDF>
  </metadata>
  <defs
     id="defs18">
    <filter
       inkscape:collect="always"
       style="color-interpolation-filters:sRGB"
       id="filter846"
       x="-0.049263159"
       width="1.0985263"
       y="-0.046799999"
       height="1.0936">
      <feGaussianBlur
         inkscape:collect="always"
         stdDeviation="3.1200001"
         id="feGaussianBlur848" />
    </filter>
    <filter
       inkscape:collect="always"
       style="color-interpolation-filters:sRGB"
       id="filter867"
       x="-0.066"
       width="1.132"
       y="-0.037714286"
       height="1.0754286">
      <feGaussianBlur
         inkscape:collect="always"
         stdDeviation="1.32"
         id="feGaussianBlur869" />
    </filter>
  </defs>
  <sodipodi:namedview
     pagecolor="#ffffff"
     bordercolor="#666666"
     borderopacity="1"
     objecttolerance="10"
     gridtolerance="10"
     guidetolerance="10"
     inkscape:pageopacity="0"
     inkscape:pageshadow="2"
     inkscape:window-width="1920"
     inkscape:window-height="1018"
     id="namedview16"
     showgrid="false"
     inkscape:zoom="1"
     inkscape:cx="96"
     inkscape:cy="96"
     inkscape:window-x="0"
     inkscape:window-y="32"
     inkscape:window-maximized="1"
     inkscape:current-layer="svg14" />
  <path
     style="opacity:0.2;fill:#000000;stroke-width:3.9999845;filter:url(#filter846)"
     d="M 33.757417,20.003377 A 13.445412,12.554906 0 0 0 20,32.553482 V 167.45432 a 13.445412,12.554906 0 0 0 20.167918,10.86375 l 62.556982,-33.71921 62.55299,-33.72321 a 13.445412,12.554906 0 0 0 0,-21.745095 L 102.7249,55.403346 40.167918,21.680937 a 13.445412,12.554906 0 0 0 -6.410901,-1.67756 z"
     id="path832"
     inkscape:connector-curvature="0" />
  <path
     inkscape:connector-curvature="0"
     id="path2"
     d="M 33.757417,16.00338 A 13.445412,12.554906 0 0 0 20,28.553485 V 163.45432 a 13.445412,12.554906 0 0 0 20.167918,10.86375 l 62.556982,-33.71921 62.55299,-33.72321 a 13.445412,12.554906 0 0 0 0,-21.745092 L 102.7249,51.403349 40.167918,17.68094 a 13.445412,12.554906 0 0 0 -6.410901,-1.67756 z"
     style="fill:#21a758;stroke-width:3.9999845" />
  <path
     inkscape:connector-curvature="0"
     id="path8"
     d="m 76,60 v 57.89062 A 16,14 0 0 0 68,116 16,14 0 0 0 52,130 16,14 0 0 0 68,144 16,14 0 0 0 84,130 16,14 0 0 0 83.9844,129.67188 H 84 V 76.656248 c 1.500664,1.281488 3.864336,2.903184 4.789064,4.08594 C 90.95194,83.508584 92,86.305224 92,92 h 8 C 100,85.139608 98.302856,79.917056 95.093752,75.8125 92.28592,72.221196 88.350464,69.452736 84,66.1875 V 60 Z"
     style="opacity:0.2;stroke-width:4;filter:url(#filter867)" />
  <path
     inkscape:connector-curvature="0"
     id="path10"
     d="m 76,56 v 9.992188 47.898432 A 16,14 0 0 0 68,112 16,14 0 0 0 52,126 16,14 0 0 0 68,140 16,14 0 0 0 84,126 16,14 0 0 0 83.9844,125.67188 H 84 V 72.656248 c 1.500664,1.281488 3.864336,2.903184 4.789064,4.08594 C 90.95194,79.508584 92,82.305224 92,88 h 8 C 100,81.139608 98.302856,75.917056 95.093752,71.8125 92.28592,68.221196 88.350464,65.452736 84,62.1875 V 56 Z"
     style="fill:#ffffff;stroke-width:4" />
  <path
     style="fill:#ffffff;stroke-width:3.9999845;opacity:0.2"
     d="M 33.757812 16.003906 A 13.445412 12.554906 0 0 0 20 28.552734 L 20 29.552734 A 13.445412 12.554906 0 0 1 33.757812 17.003906 A 13.445412 12.554906 0 0 1 40.167969 18.681641 L 102.72461 52.404297 L 165.27734 86.130859 A 13.445412 12.554906 0 0 1 171.98047 96.625 A 13.445412 12.554906 0 0 0 165.27734 85.130859 L 102.72461 51.404297 L 40.167969 17.681641 A 13.445412 12.554906 0 0 0 33.757812 16.003906 z "
     id="path850" />
</svg>
