<?xml version="1.0" encoding="UTF-8" standalone="no"?>
<svg
   xmlns:dc="http://purl.org/dc/elements/1.1/"
   xmlns:cc="http://creativecommons.org/ns#"
   xmlns:rdf="http://www.w3.org/1999/02/22-rdf-syntax-ns#"
   xmlns:svg="http://www.w3.org/2000/svg"
   xmlns="http://www.w3.org/2000/svg"
   xmlns:sodipodi="http://sodipodi.sourceforge.net/DTD/sodipodi-0.dtd"
   xmlns:inkscape="http://www.inkscape.org/namespaces/inkscape"
   width="192"
   height="192"
   version="1"
   id="svg18"
   sodipodi:docname="apps_freeciv.svg"
   inkscape:version="0.92.3 (2405546, 2018-03-11)">
  <metadata
     id="metadata24">
    <rdf:RDF>
      <cc:Work
         rdf:about="">
        <dc:format>image/svg+xml</dc:format>
        <dc:type
           rdf:resource="http://purl.org/dc/dcmitype/StillImage" />
        <dc:title></dc:title>
      </cc:Work>
    </rdf:RDF>
  </metadata>
  <defs
     id="defs22">
    <filter
       inkscape:collect="always"
       style="color-interpolation-filters:sRGB"
       id="filter870"
       x="-0.048"
       width="1.096"
       y="-0.048"
       height="1.096">
      <feGaussianBlur
         inkscape:collect="always"
         stdDeviation="3.2"
         id="feGaussianBlur872" />
    </filter>
    <filter
       inkscape:collect="always"
       style="color-interpolation-filters:sRGB"
       id="filter886"
       x="-0.029811328"
       width="1.0596227"
       y="-0.12311676"
       height="1.2462335">
      <feGaussianBlur
         inkscape:collect="always"
         stdDeviation="1.9874219"
         id="feGaussianBlur888" />
    </filter>
    <filter
       inkscape:collect="always"
       style="color-interpolation-filters:sRGB"
       id="filter902"
       x="-0.048"
       width="1.096"
       y="-0.048"
       height="1.096">
      <feGaussianBlur
         inkscape:collect="always"
         stdDeviation="2.72"
         id="feGaussianBlur904" />
    </filter>
  </defs>
  <sodipodi:namedview
     pagecolor="#ffffff"
     bordercolor="#666666"
     borderopacity="1"
     objecttolerance="10"
     gridtolerance="10"
     guidetolerance="10"
     inkscape:pageopacity="0"
     inkscape:pageshadow="2"
     inkscape:window-width="1920"
     inkscape:window-height="1018"
     id="namedview20"
     showgrid="false"
     inkscape:zoom="3.24"
     inkscape:cx="24"
     inkscape:cy="85.728395"
     inkscape:window-x="0"
     inkscape:window-y="32"
     inkscape:window-maximized="1"
     inkscape:current-layer="svg18" />
  <circle
     id="circle852"
     r="80"
     cy="100"
     cx="96"
     style="opacity:0.2;fill:#000000;stroke-width:4;filter:url(#filter870)" />
  <circle
     style="fill:#cba606;stroke-width:4"
     cx="96"
     cy="96"
     r="80"
     id="circle4" />
  <circle
     style="opacity:0.2;stroke-width:4;filter:url(#filter902)"
     cx="96"
     cy="100"
     r="68"
     id="circle6" />
  <circle
     style="fill:#e4d487;stroke-width:4"
     cx="96"
     cy="96"
     r="68"
     id="circle8" />
  <path
     style="opacity:0.2;fill:#ffffff;stroke-width:4"
     d="M 96 16 C 51.684 16 16.007812 51.68 16.007812 96 C 16.007812 96.33544 16.009812 96.667215 16.007812 97 C 16.007812 52.68 51.684 17 96 17 C 140.316 17 175.99219 52.68 175.99219 97 C 175.99019 96.667215 175.99219 96.33544 175.99219 96 C 175.99219 51.68 140.316 16 96 16 z "
     id="path10" />
  <path
     inkscape:connector-curvature="0"
     style="opacity:0.4;stroke-width:4"
     d="M 89.5774,28.36516 A 68,68 0 0 0 64.9682,35.5038 c 0.3434,1.08834 -0.0578,2.31608 -1.309,3.4 -0.8466,0.73372 -1.5402,1.87646 -1.5402,2.54354 0,2.03898 1.8428,5.1697 3.315,5.62462 1.955,0.6052 1.2988,2.69144 -1.2172,3.84404 -1.1628,0.5338 -2.5942,2.0706 -3.179,3.4136 -0.5882,1.3464 -1.4518,2.6724 -1.921,2.9478 -0.4658,0.2788 -0.85,1.3294 -0.85,2.3392 0,1.411 0.646,2.0944 2.7642,2.941 1.5164,0.6086 3.332,1.0506 4.0358,0.9826 4.0494,-0.3808 4.3316,1.9788 0.7922,6.5892 -1.8802,2.448 -2.7846,3.0634 -4.0664,2.754 -1.1934,-0.2856 -1.8462,0.051 -2.3902,1.2342 -0.5712,1.2546 -1.5096,1.6796 -4.029,1.853 -2.4786,0.1734 -3.587,0.6766 -4.5152,2.0332 -0.68,0.9894 -1.6592,1.7918 -2.1794,1.7918 -0.52156,0 -1.74624,0.6664 -2.72272,1.4756 -1.98696,1.649 -2.76284,1.8156 -3.4595,0.7378 -0.92072,-1.428 -2.90734,-0.7072 -5.86364,2.125 -2.6146,2.5024 -2.93114,3.1722 -2.53674,5.3448 0.70176,3.8658 2.79854,7.2964 5.19282,8.4932 2.0893,1.0438 2.1301,1.156 0.86326,2.4956 -0.72862,0.7718 -1.9788,1.598 -2.77576,1.8394 -2.3018,0.7004 -1.00606,1.5776 3.10114,2.1012 4.20376,0.5338 5.51004,2.057 3.5462,4.1344 -1.09514,1.1594 -1.0336,1.377 0.72386,2.4786 3.434,2.1556 6.16488,0.8364 2.94168,-1.4212 -2.07162,-1.4518 -0.62288,-2.0434 2.4174,-0.9894 2.4242,0.8398 2.9036,0.7922 4.335,-0.4522 2.941,-2.5466 6.137,1.2206 3.4476,4.063 -1.7102,1.8122 -1.1934,3.995 1.0234,4.2976 0.9792,0.1326 3.0124,1.0438 4.522,2.0264 1.5096,0.9792 3.1552,1.785 3.6516,1.785 0.4964,0 1.8972,0.9962 3.1144,2.2134 2.4684,2.465 3.8386,2.7778 4.5356,1.0404 0.8364,-2.0876 0.4998,-3.1654 -1.7544,-5.6236 -1.7918,-1.9584 -4.7056,-7.1604 -4.7056,-8.4082 0,-0.7684 2.9614,-0.1156 4.6206,1.0166 1.037,0.7106 2.7166,1.6252 3.7332,2.04 1.0812,0.442 2.2032,1.8156 2.7166,3.3184 0.799,2.3596 1.1152,2.5636 3.944,2.5636 h 3.0736 l 0.4658,5.525 c 0.5576,6.647 1.0914,7.9934 3.3728,8.5408 1.6796,0.4046 3.4714,3.0056 3.4714,5.0388 0,0.5406 -1.207,1.8666 -2.6826,2.9444 -1.8292,1.3362 -2.618,2.4718 -2.4956,3.5836 0.153,1.3906 -0.1632,1.6082 -2.1318,1.462 -1.2682,-0.0952 -3.4714,0.3502 -4.8858,0.9894 -1.6762,0.7548 -3.4918,0.9962 -5.1952,0.6902 -1.9584,-0.3502 -2.6214,-0.2142 -2.6214,0.5508 0,0.5644 -0.6868,1.6184 -1.5232,2.346 -2.0672,1.7918 -1.2138,2.7404 1.9618,2.1692 1.972,-0.3536 2.7404,-0.1972 3.0804,0.6528 0.7242,1.8054 -1.1118,4.3894 -2.8152,3.9644 -1.0812,-0.272 -1.598,0.0986 -1.9346,1.3736 -0.1156,0.4522 -0.3298,0.8364 -0.5848,1.1628 a 68,68 0 0 0 10.761,3.179 c -0.34,-0.6494 -0.7276,-1.241 -1.105,-1.5062 -1.751,-1.2376 -0.578,-4.454 1.8326,-5.032 2.4582,-0.5916 2.0706,-2.1862 -0.6018,-2.4922 -2.3426,-0.2652 -4.8348,-2.6384 -4.0528,-3.8522 0.527,-0.8126 2.7676,-0.6936 7.2998,0.3808 2.0468,0.4828 3.4442,-0.4896 8.1872,-5.678 2.7438,-3.0056 4.8552,-4.2568 7.1706,-4.2568 0.884,0 4.0358,-0.8126 7.0074,-1.8054 5.61,-1.8802 7.803,-1.8122 7.5956,0.238 -0.4284,4.2636 2.3154,4.1208 6.7864,-0.3468 1.8632,-1.8598 3.5666,-3.2062 3.7876,-2.9954 0.8534,0.8194 -0.6834,4.8076 -2.4786,6.4226 -2.2746,2.0468 -2.3868,3.3388 -0.3842,4.3622 1.0948,0.5644 1.5606,1.7034 1.734,4.2636 l 0.2312,3.4952 h 2.8424 c 0.9962,0 1.8224,0.136 2.4888,0.391 a 68,68 0 0 0 32.946,-56.1204 c -1.0404,-2.2236 -0.9656,-3.5666 0,-5.0796 a 68,68 0 0 0 -0.306,-3.8114 c -0.6188,-0.0304 -1.2512,-0.0578 -1.9788,-0.0272 -3.4272,0.1428 -6.3614,-1.207 -6.3614,-2.9274 0,-0.3638 -1.2172,-1.8632 -2.703,-3.3286 -1.6864,-1.6592 -2.55,-3.128 -2.2984,-3.8896 0.2312,-0.6936 -0.2652,-1.8122 -1.1424,-2.5704 -0.8534,-0.7412 -1.5538,-1.9312 -1.5538,-2.6452 0,-1.139 -0.7242,-1.2818 -5.9636,-1.156 l -5.9636,0.1462 0.102,5.8786 c 0.1768,10.2952 1.7102,12.9676 6.4396,11.2438 2.1658,-0.7922 7.4868,-0.1938 8.9998,1.0064 0.5474,0.4352 1.3396,2.0128 1.7578,3.5088 0.4216,1.4926 1.9788,4.08 3.468,5.7426 3.0124,3.3728 3.247,4.6886 1.5198,8.6462 -1.5062,3.4544 -3.1314,3.0566 -2.8084,-0.6902 l 0.238,-2.788 -2.55,0.476 c -1.411,0.2686 -3.179,1.309 -3.9712,2.3392 -1.1288,1.4654 -1.6558,1.6796 -2.5024,1.0098 -0.5916,-0.4692 -1.071,-1.4586 -1.071,-2.193 0,-0.7344 -0.7276,-1.5504 -1.6116,-1.819 -0.8874,-0.2686 -2.1012,-1.6048 -2.6962,-2.975 -0.9554,-2.1896 -0.9316,-2.8594 0.1802,-5.5182 1.1254,-2.6962 1.1356,-3.1416 0.0986,-4.1378 -0.952,-0.9112 -1.445,-0.9418 -2.6962,-0.1904 -1.258,0.7514 -1.853,0.697 -3.349,-0.306 -0.9962,-0.6698 -2.7404,-1.224 -3.8692,-1.224 -2.295,0 -2.9886,-1.1152 -2.9886,-4.8076 0,-3.4102 -2.0332,-4.6478 -6.8748,-4.2024 -3.3592,0.3094 -4.1004,0.0884 -6.8102,-1.9992 -1.6762,-1.2886 -4.3214,-4.3894 -5.8854,-6.8986 -1.564,-2.5092 -3.247,-5.1306 -3.74,-5.8242 -0.7072,-1.003 -0.5338,-1.9652 0.85,-4.6954 l 1.7476,-3.434 -3.6924,0.4998 c -6.5688,0.8874 -7.8982,1.7374 -5.0728,3.2538 1.1016,0.5882 1.1492,0.8908 0.2992,1.8734 -0.5576,0.6392 -0.8194,1.6558 -0.578,2.2576 0.2414,0.5984 -0.0646,2.0128 -0.6766,3.1382 -0.6154,1.1288 -1.1288,2.7098 -1.1492,3.5224 -0.0646,2.533 -4.403,4.5492 -9.2378,4.2806 -7.3236,-0.4046 -7.9186,-0.289 -10.5196,2.125 -3.2504,3.0192 -3.6686,4.4234 -2.1556,7.225 1.4654,2.72 4.0698,3.8046 8.5782,3.5802 4.0324,-0.2006 4.488,0.1564 3.5666,2.822 -0.7854,2.2644 -3.417,3.1348 -5.202,1.7204 -1.3736,-1.0914 -6.1098,-0.2482 -7.5616,1.3498 -0.6086,0.6664 -1.513,2.4208 -2.006,3.8896 -0.85,2.5364 -1.0982,2.6928 -4.9062,3.06 -3.8012,0.3706 -4.1684,0.2482 -6.902,-2.2712 -3.0498,-2.8084 -3.5666,-4.9572 -2.0978,-8.6564 0.6528,-1.6388 1.1356,-1.9074 2.8764,-1.5878 3.4476,0.629 4.8076,-0.5678 4.8076,-4.25 0,-1.785 -0.3468,-3.4544 -0.7718,-3.706 -0.4216,-0.2516 -0.7684,-1.1968 -0.7684,-2.1046 0,-0.9078 -0.4352,-2.0774 -0.9622,-2.5908 -0.7718,-0.748 -0.6596,-1.1492 0.5712,-2.0196 0.8432,-0.595 2.2304,-0.9962 3.0804,-0.8942 0.8466,0.102 3.1892,-0.2652 5.2054,-0.8126 2.9138,-0.7854 3.7706,-1.3804 4.165,-2.9138 0.748,-2.9104 2.5738,-5.2462 4.1038,-5.2462 2.4174,0 2.4684,-5.6848 0.119,-13.9536 -0.3468,-1.2206 -1.3022,-1.9958 -2.9886,-2.414 -1.3668,-0.34 -2.8526,-1.2716 -3.3014,-2.07332 -0.4454,-0.80172 -1.2648,-1.45452 -1.819,-1.45452 -0.5542,0 -1.6388,-0.66368 -2.4038,-1.47424 -0.7718,-0.816 -2.3664,-1.47424 -3.5802,-1.47424 -2.873,0 -2.9206,-1.97812 -0.0714,-3.02124 3.009,-1.10296 7.6942,0.34272 8.8264,2.72238 1.5334,3.22694 3.2368,1.88054 3.7842,-2.99472 0.6766,-6.0299 2.7574,-7.76288 9.316,-7.76288 h 4.7158 l -2.0672,-2.06516 c -0.6426,-0.64464 -1.1764,-1.43242 -1.547,-2.2049 z m 24.446,2.13826 c -0.1326,0.11968 -0.2618,0.2176 -0.391,0.3519 -1.5776,1.61024 -2.3188,1.83974 -4.7566,1.46778 -4.2568,-0.64906 -3.7094,1.06488 1.003,3.13446 2.5466,1.11894 4.1854,2.39462 4.743,3.68526 2.686,6.22744 4.5356,9.58018 5.4638,9.92018 1.8768,0.6902 2.9954,-0.69496 3.4136,-4.23572 0.4794,-4.06232 1.853,-4.92354 4.3214,-2.70266 0.9588,0.8619 2.2984,1.56706 2.975,1.56706 2.1114,0 3.672,0.84762 3.672,1.9924 0,0.60316 0.714,2.05666 1.5878,3.23272 1.2886,1.7306 2.1624,2.1454 4.5696,2.1454 2.9546,0 4.7668,0.5542 8.466,2.5976 0.0578,0.0304 0.1156,0.0408 0.1734,0.0714 a 68,68 0 0 0 -35.241,-23.22778 z m -86.0098,65.2052 a 68,68 0 0 0 -0.01324,0.2924 68,68 0 0 0 1.32804,13.0628 c 2.46364,1.003 3.14432,0.6052 3.4,-1.6864 0.13226,-1.1866 0.75174,-2.5296 1.38142,-2.9954 0.97274,-0.7174 0.7973,-1.0846 -1.19544,-2.4446 -1.28996,-0.8806 -2.56122,-2.4174 -2.82234,-3.4136 -0.25296,-0.9656 -1.1084,-2.0196 -2.07842,-2.8152 z m 21.40334,22.4774 c -0.6358,-0.0646 -1.40182,0.2754 -2.25182,1.0914 -1.79826,1.7204 -1.5266,5.1782 0.51136,6.545 2.33546,1.5674 3.23646,1.1118 3.53226,-1.7782 0.3638,-3.5632 -0.3978,-5.712 -1.7918,-5.8582 z m 11.5396,10.2816 c -0.6936,0.0236 -1.4586,0.5202 -2.2236,1.5674 -0.8126,1.1084 -1.0336,2.5398 -0.7242,4.7124 0.3842,2.6724 0.2176,3.2436 -1.1798,3.961 -1.7986,0.918 -2.1828,3.6516 -0.7106,5.0592 1.462,1.4008 2.856,1.0336 3.3592,-0.884 0.714,-2.7336 4.7158,-3.0532 7.4494,-0.5984 1.1662,1.0472 2.1182,1.5776 2.1182,1.1764 0,-0.4012 -1.2138,-1.8598 -2.6962,-3.2334 -2.2678,-2.108 -2.6894,-3.0056 -2.6894,-5.7188 0,-3.8284 -1.173,-6.0894 -2.703,-6.0418 z m -18.95126,8.7788 a 68,68 0 0 0 1.57386,1.9856 c -0.46342,-0.7174 -0.99246,-1.4042 -1.57386,-1.9856 z m 22.91566,10.438 c -0.3434,0.119 -0.4896,0.5508 -0.4896,1.309 0,0.7684 -0.4896,1.5742 -1.088,1.7918 -0.7956,0.2924 -0.9792,1.2138 -0.6732,3.4136 0.0578,0.4114 0.0748,0.7412 0.0952,1.0846 a 68,68 0 0 0 2.8288,1.4518 c -0.0476,-1.1764 0.1666,-2.5602 0.782,-4.2942 1.0438,-2.9444 1.0812,-3.6822 0.2312,-4.199 -0.7956,-0.4828 -1.3396,-0.6766 -1.6864,-0.5576 z"
     id="path12" />
  <path
     inkscape:connector-curvature="0"
     style="opacity:0.2;stroke-width:4;filter:url(#filter886)"
     d="M 16.335938,91.257812 A 80,80 0 0 0 16,98 80,80 0 0 0 16.9375,109.69531 C 31.503429,116.9831 62.140884,130 96,130 c 33.84146,0 64.46372,-12.99902 79.03906,-20.28906 A 80,80 0 0 0 176,98 80,80 0 0 0 175.66406,91.257812 C 175.03788,91.625208 136.75524,114 96,114 55.24476,114 16.962122,91.625208 16.335938,91.257812 Z"
     id="path14" />
  <path
     inkscape:connector-curvature="0"
     style="fill:#cba606;stroke-width:4"
     d="M 16.335938,89.257812 A 80,80 0 0 0 16,96 80,80 0 0 0 16.9375,107.69531 C 31.503429,114.9831 62.140884,128 96,128 c 33.84146,0 64.46372,-12.99902 79.03906,-20.28906 A 80,80 0 0 0 176,96 80,80 0 0 0 175.66406,89.257812 C 175.03788,89.625208 136.75524,112 96,112 55.24476,112 16.962122,89.625208 16.335938,89.257812 Z"
     id="path16" />
</svg>
