<?xml version="1.0" encoding="UTF-8" standalone="no"?>
<svg
   xmlns:dc="http://purl.org/dc/elements/1.1/"
   xmlns:cc="http://creativecommons.org/ns#"
   xmlns:rdf="http://www.w3.org/1999/02/22-rdf-syntax-ns#"
   xmlns:svg="http://www.w3.org/2000/svg"
   xmlns="http://www.w3.org/2000/svg"
   xmlns:sodipodi="http://sodipodi.sourceforge.net/DTD/sodipodi-0.dtd"
   xmlns:inkscape="http://www.inkscape.org/namespaces/inkscape"
   width="192"
   height="192"
   version="1.1"
   id="svg30"
   sodipodi:docname="apps_localcast_for_chromecast.svg"
   inkscape:version="0.92.3 (2405546, 2018-03-11)">
  <metadata
     id="metadata36">
    <rdf:RDF>
      <cc:Work
         rdf:about="">
        <dc:format>image/svg+xml</dc:format>
        <dc:type
           rdf:resource="http://purl.org/dc/dcmitype/StillImage" />
      </cc:Work>
    </rdf:RDF>
  </metadata>
  <defs
     id="defs34">
    <filter
       inkscape:collect="always"
       style="color-interpolation-filters:sRGB"
       id="filter870"
       x="-0.056"
       width="1.112"
       y="-0.042"
       height="1.084">
      <feGaussianBlur
         inkscape:collect="always"
         stdDeviation="2.24"
         id="feGaussianBlur872" />
    </filter>
    <filter
       inkscape:collect="always"
       style="color-interpolation-filters:sRGB"
       id="filter904"
       x="-0.0216"
       width="1.0432"
       y="-0.027"
       height="1.054">
      <feGaussianBlur
         inkscape:collect="always"
         stdDeviation="1.44"
         id="feGaussianBlur906" />
    </filter>
    <filter
       inkscape:collect="always"
       style="color-interpolation-filters:sRGB"
       id="filter920"
       x="-0.048"
       width="1.096"
       y="-0.048"
       height="1.096">
      <feGaussianBlur
         inkscape:collect="always"
         stdDeviation="1.76"
         id="feGaussianBlur922" />
    </filter>
    <filter
       inkscape:collect="always"
       style="color-interpolation-filters:sRGB"
       id="filter939"
       x="-0.048"
       width="1.096"
       y="-0.048"
       height="1.096">
      <feGaussianBlur
         inkscape:collect="always"
         stdDeviation="0.64"
         id="feGaussianBlur941" />
    </filter>
  </defs>
  <sodipodi:namedview
     pagecolor="#ffffff"
     bordercolor="#666666"
     borderopacity="1"
     objecttolerance="10"
     gridtolerance="10"
     guidetolerance="10"
     inkscape:pageopacity="0"
     inkscape:pageshadow="2"
     inkscape:window-width="1920"
     inkscape:window-height="1018"
     id="namedview32"
     showgrid="false"
     inkscape:zoom="1"
     inkscape:cx="96"
     inkscape:cy="96"
     inkscape:window-x="0"
     inkscape:window-y="32"
     inkscape:window-maximized="1"
     inkscape:current-layer="svg30" />
  <rect
     style="opacity:0.2;fill:#000000;stroke-width:4;filter:url(#filter870)"
     width="128"
     height="96"
     x="-172"
     y="-144"
     rx="8"
     ry="8"
     transform="matrix(0,-1,-1,0,0,0)"
     id="rect856" />
  <rect
     id="rect2"
     transform="matrix(0,-1,-1,0,0,0)"
     ry="8"
     rx="8"
     y="-144"
     x="-168"
     height="96"
     width="128"
     style="fill:#8e8e8e;stroke-width:4" />
  <rect
     style="opacity:0.1;fill:#000000;stroke-width:4;filter:url(#filter904)"
     width="128"
     height="160"
     x="-156"
     y="-176"
     rx="8"
     ry="8"
     transform="matrix(0,-1,-1,0,0,0)"
     id="rect874" />
  <rect
     id="rect4"
     transform="matrix(0,-1,-1,0,0,0)"
     ry="8"
     rx="8"
     y="-176"
     x="-152"
     height="160"
     width="128"
     style="fill:#4f4f4f;stroke-width:4" />
  <rect
     id="rect6"
     transform="matrix(0,-1,-1,0,0,0)"
     ry="0"
     rx="0"
     y="-164"
     x="-140"
     height="136"
     width="104"
     style="fill:#62c3d5;stroke-width:4" />
  <path
     inkscape:connector-curvature="0"
     id="path8"
     d="M 71.000003,99.999998 88.499999,120 106,140 H 71.000003 36.000001 l 17.500002,-20 z"
     style="fill:#00645b;stroke-width:2.52778029" />
  <path
     inkscape:connector-curvature="0"
     id="path10"
     d="m 108,75.999953 27.99999,31.999997 28.00001,32 H 108 51.999999 l 28.000003,-32 z"
     style="fill:#3b9649;stroke-width:4.04444838" />
  <path
     style="opacity:0.1;fill:#ffffff;stroke-width:4"
     d="M 24 24 C 19.568 24 16 27.568 16 32 L 16 33 C 16 28.568 19.568 25 24 25 L 168 25 C 172.432 25 176 28.568 176 33 L 176 32 C 176 27.568 172.432 24 168 24 L 24 24 z "
     id="path12" />
  <circle
     id="circle18"
     r="44"
     cy="140"
     cx="144"
     style="opacity:0.2;stroke-width:4;filter:url(#filter920)" />
  <circle
     id="circle20"
     r="44"
     cy="136"
     cx="144"
     style="fill:#f59335;stroke-width:4" />
  <circle
     id="circle22"
     r="16"
     cy="62"
     cx="52"
     style="opacity:0.1;stroke-width:4;filter:url(#filter939)" />
  <circle
     id="circle24"
     r="16"
     cy="60"
     cx="52"
     style="fill:#ffec44;stroke-width:4" />
  <path
     inkscape:connector-curvature="0"
     id="path26"
     d="m 124,112 c 0,2 2,4 4,4 19.8824,-2e-5 36,16.1176 36,36 0,2 1.81388,4 4,4 2,0 4,-2 4,-4 0,-24.3 -19.7,-44 -44,-44 -2,0 -4,2 -4,4 z m 0,16 c 0,2 2,4 4,4 11.0456,-1e-5 20,8.9544 20,20 0,2 2,4 4,4 2,0 4,-2 4,-4 0,-15.464 -12.536,-28 -28,-28 -2,0 -4,2 -4,4 z m 8,12 c -4.4184,0 -8,3.5818 -8,8 0,4.418 3.582,8 8,8 4.4184,0 8,-3.5818 8,-8 0,-4.4182 -3.5818,-8 -8,-8 z"
     style="fill:#ffffff;stroke-width:4" />
</svg>
