<?xml version="1.0" encoding="UTF-8" standalone="no"?>
<svg
   xmlns:dc="http://purl.org/dc/elements/1.1/"
   xmlns:cc="http://creativecommons.org/ns#"
   xmlns:rdf="http://www.w3.org/1999/02/22-rdf-syntax-ns#"
   xmlns:svg="http://www.w3.org/2000/svg"
   xmlns="http://www.w3.org/2000/svg"
   xmlns:sodipodi="http://sodipodi.sourceforge.net/DTD/sodipodi-0.dtd"
   xmlns:inkscape="http://www.inkscape.org/namespaces/inkscape"
   width="192"
   height="192"
   version="1"
   id="svg22"
   sodipodi:docname="apps_bluejeans.svg"
   inkscape:version="0.92.3 (2405546, 2018-03-11)">
  <metadata
     id="metadata28">
    <rdf:RDF>
      <cc:Work
         rdf:about="">
        <dc:format>image/svg+xml</dc:format>
        <dc:type
           rdf:resource="http://purl.org/dc/dcmitype/StillImage" />
        <dc:title></dc:title>
      </cc:Work>
    </rdf:RDF>
  </metadata>
  <defs
     id="defs26">
    <filter
       inkscape:collect="always"
       style="color-interpolation-filters:sRGB"
       id="filter869"
       x="-0.048"
       width="1.096"
       y="-0.048"
       height="1.096">
      <feGaussianBlur
         inkscape:collect="always"
         stdDeviation="2.72"
         id="feGaussianBlur871" />
    </filter>
    <filter
       inkscape:collect="always"
       style="color-interpolation-filters:sRGB"
       id="filter885"
       x="-0.136"
       width="1.272"
       y="-0.029142857"
       height="1.0582857">
      <feGaussianBlur
         inkscape:collect="always"
         stdDeviation="1.36"
         id="feGaussianBlur887" />
    </filter>
    <filter
       inkscape:collect="always"
       style="color-interpolation-filters:sRGB"
       id="filter911"
       x="-0.053333333"
       width="1.1066667"
       y="-0.043636364"
       height="1.0872727">
      <feGaussianBlur
         inkscape:collect="always"
         stdDeviation="1.6"
         id="feGaussianBlur913" />
    </filter>
  </defs>
  <sodipodi:namedview
     pagecolor="#ffffff"
     bordercolor="#666666"
     borderopacity="1"
     objecttolerance="10"
     gridtolerance="10"
     guidetolerance="10"
     inkscape:pageopacity="0"
     inkscape:pageshadow="2"
     inkscape:window-width="1920"
     inkscape:window-height="1018"
     id="namedview24"
     showgrid="false"
     inkscape:zoom="2.82"
     inkscape:cx="53.490448"
     inkscape:cy="66.553191"
     inkscape:window-x="0"
     inkscape:window-y="32"
     inkscape:window-maximized="1"
     inkscape:current-layer="svg22" />
  <path
     inkscape:connector-curvature="0"
     style="opacity:0.2;stroke-width:4;filter:url(#filter885)"
     d="M 152,64 176,44 V 156 L 152,136 Z"
     id="path2" />
  <path
     inkscape:connector-curvature="0"
     style="fill:#1f56a8;stroke-width:4"
     d="M 152,60 176,40 V 152 L 152,132 Z"
     id="path14" />
  <rect
     style="opacity:0.2;stroke-width:4;filter:url(#filter869)"
     width="136"
     height="136"
     x="16"
     y="32"
     rx="16"
     ry="16"
     id="rect4" />
  <rect
     style="fill:#1c6bdd;stroke-width:4"
     width="136"
     height="136"
     x="16"
     y="28"
     rx="16"
     ry="16"
     id="rect6" />
  <path
     inkscape:connector-curvature="0"
     style="opacity:0.2;stroke-width:4;filter:url(#filter911)"
     d="m 48,54 v 36 16 36 h 48 c 13.25483,0 24,-12.74517 24,-26 0,-6.64248 -2.70194,-13.1534 -7.0625,-18 C 117.29806,93.153404 120,86.642476 120,80 120,66.745168 109.25483,54 96,54 Z m 16,16 h 32 c 4.60779,0 8,5.392208 8,10 0,4.607792 -3.39221,10 -8,10 H 64 Z m 0,36 h 32 c 4.60779,0 8,5.39221 8,10 0,4.60779 -3.39221,10 -8,10 H 64 Z"
     id="path8" />
  <path
     inkscape:connector-curvature="0"
     style="fill:#ffffff;stroke-width:4"
     d="m 48,52 v 52 h 48 c 13.25483,0 24,-12.745168 24,-26 0,-13.254832 -10.74517,-26 -24,-26 z m 16,16 h 32 c 4.60779,0 8,5.392208 8,10 0,4.607792 -3.39221,10 -8,10 H 64 Z"
     id="path10" />
  <rect
     style="fill:none;stroke-width:4"
     width="128"
     height="128"
     x="32"
     y="31.959999"
     id="rect12" />
  <path
     inkscape:connector-curvature="0"
     style="fill:#ffffff;stroke-width:4"
     d="m 48,88 v 52 h 48 c 13.25483,0 24,-12.74517 24,-26 0,-13.25483 -10.74517,-26 -24,-26 z m 16,16 h 32 c 4.60779,0 8,5.39221 8,10 0,4.60779 -3.39221,10 -8,10 H 64 Z"
     id="path16" />
  <path
     inkscape:connector-curvature="0"
     style="opacity:0.1;fill:#ffffff;stroke-width:4"
     d="m 32,28 c -8.864,0 -16,7.136 -16,16 v 1 c 0,-8.864 7.136,-16 16,-16 h 104 c 8.864,0 16,7.136 16,16 v -1 c 0,-8.864 -7.136,-16 -16,-16 z"
     id="path18" />
  <path
     inkscape:connector-curvature="0"
     style="opacity:0.1;fill:#ffffff;stroke-width:4"
     d="m 176,40 -24,20 v 1 l 24,-20 z"
     id="path20" />
</svg>
