<?xml version="1.0" encoding="UTF-8" standalone="no"?>
<svg
   xmlns:dc="http://purl.org/dc/elements/1.1/"
   xmlns:cc="http://creativecommons.org/ns#"
   xmlns:rdf="http://www.w3.org/1999/02/22-rdf-syntax-ns#"
   xmlns:svg="http://www.w3.org/2000/svg"
   xmlns="http://www.w3.org/2000/svg"
   xmlns:sodipodi="http://sodipodi.sourceforge.net/DTD/sodipodi-0.dtd"
   xmlns:inkscape="http://www.inkscape.org/namespaces/inkscape"
   width="192"
   height="192"
   version="1"
   id="svg34"
   sodipodi:docname="apps_motp.svg"
   inkscape:version="0.92.3 (2405546, 2018-03-11)">
  <metadata
     id="metadata40">
    <rdf:RDF>
      <cc:Work
         rdf:about="">
        <dc:format>image/svg+xml</dc:format>
        <dc:type
           rdf:resource="http://purl.org/dc/dcmitype/StillImage" />
      </cc:Work>
    </rdf:RDF>
  </metadata>
  <defs
     id="defs38">
    <filter
       inkscape:collect="always"
       style="color-interpolation-filters:sRGB"
       id="filter878"
       x="-0.076733865"
       width="1.1534677"
       y="-0.034922772"
       height="1.0698455">
      <feGaussianBlur
         inkscape:collect="always"
         stdDeviation="1.8629849"
         id="feGaussianBlur880" />
    </filter>
    <filter
       inkscape:collect="always"
       style="color-interpolation-filters:sRGB"
       id="filter898"
       x="-0.048527911"
       width="1.0970558"
       y="-0.047483451"
       height="1.0949669">
      <feGaussianBlur
         inkscape:collect="always"
         stdDeviation="2.0799999"
         id="feGaussianBlur900" />
    </filter>
    <filter
       inkscape:collect="always"
       style="color-interpolation-filters:sRGB"
       id="filter914"
       x="-0.048000909"
       width="1.0960018"
       y="-0.047999091"
       height="1.0959982">
      <feGaussianBlur
         inkscape:collect="always"
         stdDeviation="1.4399185"
         id="feGaussianBlur916" />
    </filter>
    <filter
       inkscape:collect="always"
       style="color-interpolation-filters:sRGB"
       id="filter930"
       x="-0.048000002"
       width="1.096"
       y="-0.047999998"
       height="1.096">
      <feGaussianBlur
         inkscape:collect="always"
         stdDeviation="1.4398461"
         id="feGaussianBlur932" />
    </filter>
    <filter
       inkscape:collect="always"
       style="color-interpolation-filters:sRGB"
       id="filter946"
       x="-0.045857151"
       width="1.0917143"
       y="-0.050352932"
       height="1.1007059">
      <feGaussianBlur
         inkscape:collect="always"
         stdDeviation="1.0699998"
         id="feGaussianBlur948" />
    </filter>
  </defs>
  <sodipodi:namedview
     pagecolor="#ffffff"
     bordercolor="#666666"
     borderopacity="1"
     objecttolerance="10"
     gridtolerance="10"
     guidetolerance="10"
     inkscape:pageopacity="0"
     inkscape:pageshadow="2"
     inkscape:window-width="1920"
     inkscape:window-height="1018"
     id="namedview36"
     showgrid="false"
     inkscape:zoom="1"
     inkscape:cx="96"
     inkscape:cy="96"
     inkscape:window-x="0"
     inkscape:window-y="32"
     inkscape:window-maximized="1"
     inkscape:current-layer="svg34" />
  <path
     inkscape:connector-curvature="0"
     id="path2"
     d="m 138.19713,52.720776 c 10.93468,10.93468 14.93461,28.6633 3.99993,39.59798 -2.86428,2.849008 -6.4061,5.044548 -10.19892,6.435776 V 170.3049 l -0.46292,0.55795 L 119.99814,180 108.8615,170.86285 108.08651,170.3049 v -6.99504 l -0.17676,-2.89472 -7.96133,-10.326 8.13811,-9.70502 v -8.07648 l -8.03867,-10.40334 8.03867,-7.46216 0.21704,-15.687608 c -3.79281,-1.391228 -6.84015,-3.586728 -9.704394,-6.435776 -10.93468,-10.93468 -10.93468,-28.6633 0,-39.59798 5.180444,-5.176748 1.525474,20.712468 8.848734,20.637736 v 0 l 6.60546,-2.713912 c 7.31245,0.0746 18.96522,-23.087148 24.14379,-17.923824 z m -17.13831,9.08638 c -4.68629,-4.686292 -5.06176,0.20636 -9.74806,4.892672 -4.68628,4.686288 -6.08419,-1.69478 -1.3979,2.991512 4.68629,4.686292 12.28427,4.686292 16.97056,0 4.68629,-4.686292 -1.13831,-3.197892 -5.8246,-7.884184 z"
     style="opacity:0.2;stroke-width:4;filter:url(#filter878)" />
  <path
     inkscape:connector-curvature="0"
     id="path4"
     d="m 130.68063,63.17262 c 0,15.463972 -9.70765,30.828376 -25.17162,30.82838 -4.03991,-0.0108 -8.029642,-0.895572 -11.695314,-2.593752 L 43.219944,140.001 h -0.78906 l -14.618884,0.303 0.186144,-14.33574 -2e-6,-0.78906 6.079055,-6.07812 1.921888,-2.17186 -0.08232,-13.08457 12.770451,0.24436 7.310924,-6.909794 -0.0814,-13.193936 11.114208,0.15972 9.960936,-9.559536 c -1.698176,-3.665672 -2.30052,-7.37292 -2.31126,-11.412824 0,-15.463972 12.536028,-28 27.999996,-28 7.32364,0.0026 -13.567248,15.7246 -8.33608,20.850084 v 0 l 6.58979,2.751736 c 5.11793,5.223436 29.73551,-2.91464 29.74629,4.39818 z m -18.54365,-5.693576 c 0,-6.627416 -3.72513,-3.433284 -10.35256,-3.433272 -6.627416,0 -3.103788,-5.500568 -3.103788,1.126848 0,6.62742 5.372578,12.000004 11.999998,12.000004 6.62742,-4e-6 1.45635,-3.06616 1.45635,-9.69358 z"
     style="opacity:0.2;stroke-width:4;filter:url(#filter898)" />
  <path
     inkscape:connector-curvature="0"
     id="path6"
     d="m 138.19713,48.720776 c 10.93468,10.93468 14.93461,28.6633 3.99993,39.59798 -2.86428,2.849008 -6.4061,5.044548 -10.19892,6.435776 V 166.3049 l -0.46292,0.55795 L 119.99814,176 108.8615,166.86285 108.08651,166.3049 v -6.99504 l -0.17676,-2.89472 -7.96133,-10.326 8.13811,-9.70502 v -8.07648 l -8.03867,-10.40334 8.03867,-7.46216 0.21704,-15.687608 c -3.79281,-1.391228 -6.84015,-3.586728 -9.704394,-6.435776 -10.93468,-10.93468 -10.93468,-28.6633 0,-39.59798 5.180444,-5.176748 1.525474,20.712468 8.848734,20.637736 v 0 l 6.60546,-2.713912 c 7.31245,0.0746 18.96522,-23.087148 24.14379,-17.923824 z m -17.13831,9.08638 c -4.68629,-4.686292 -5.06176,0.20636 -9.74806,4.892672 -4.68628,4.686288 -6.08419,-1.69478 -1.3979,2.991512 4.68629,4.686292 12.28427,4.686292 16.97056,0 4.68629,-4.686292 -1.13831,-3.197892 -5.8246,-7.884184 z"
     style="fill:#ffcc72;stroke-width:4" />
  <path
     inkscape:connector-curvature="0"
     id="path8"
     d="m 96,68 v 17.273436 c 0.792352,1.05722 1.640152,2.085464 2.601564,3.046876 2.864236,2.849048 5.910316,5.046272 9.703126,6.4375 l -0.21876,15.687498 -8.03906,7.46094 8.03906,10.39844 v 8.07812 l -8.140626,9.70313 7.960936,10.32812 0.17968,2.89844 v 6.99219 l 0.77344,0.55469 L 120,176 V 69.046876 C 117.71414,69.354224 115.38005,69.009824 113.25781,68 h -2.5 l -3.3125,1.359376 C 106.42598,69.369776 105.63956,68.841872 104.99219,68 Z"
     style="opacity:0.2;stroke-width:4" />
  <path
     inkscape:connector-curvature="0"
     id="path10"
     d="m 119.99814,35.998714 c -9.2132,0 -18.42369,3.517438 -25.453124,10.546881 -14.058876,14.058876 -14.058876,36.847372 0,50.906248 14.058874,14.058877 36.847374,14.058877 50.906244,0 14.05888,-14.058876 14.05888,-36.847372 0,-50.906248 -7.02943,-7.029443 -16.23992,-10.546881 -25.45312,-10.546881 z m 0,8.203129 c 2.04738,0 4.09415,0.781652 5.65625,2.343752 3.12419,3.124196 3.12419,8.188304 0,11.3125 -3.1242,3.124196 -8.18831,3.124196 -11.3125,0 -3.12419,-3.124196 -3.12419,-8.188304 0,-11.3125 1.5621,-1.5621 3.60887,-2.343752 5.65625,-2.343752 z"
     style="opacity:0.1;stroke-width:4;filter:url(#filter914)" />
  <path
     inkscape:connector-curvature="0"
     id="path12"
     d="m 119.99814,32 c -9.2132,0 -18.42369,3.517437 -25.453124,10.546876 -14.058876,14.058876 -14.058876,36.847372 0,50.906248 14.058874,14.058876 36.847374,14.058876 50.906244,0 14.05888,-14.058876 14.05888,-36.847372 0,-50.906248 C 138.42183,35.517437 129.21134,32 119.99814,32 Z m 0,8.203124 c 2.04738,0 4.09415,0.781652 5.65625,2.343752 3.12419,3.124196 3.12419,8.188304 0,11.3125 -3.1242,3.124196 -8.18831,3.124196 -11.3125,0 -3.12419,-3.124196 -3.12419,-8.188304 0,-11.3125 1.5621,-1.5621 3.60887,-2.343752 5.65625,-2.343752 z"
     style="fill:#4f4f4f;stroke-width:4" />
  <path
     inkscape:connector-curvature="0"
     id="path16"
     d="m 130.68063,59.17162 c 0,15.463972 -9.70765,30.828376 -25.17162,30.82838 -4.03991,-0.0108 -8.029642,-0.895572 -11.695314,-2.593752 L 43.219944,136 h -0.78906 l -14.618884,0.303 0.186144,-14.33574 -2e-6,-0.78906 6.079055,-6.07812 1.921888,-2.17186 -0.08232,-13.084568 12.770451,0.244358 7.310924,-6.909782 -0.0814,-13.193936 11.114208,0.15972 9.960936,-9.559536 c -1.698176,-3.665672 -2.30052,-7.37292 -2.31126,-11.412824 0,-15.463972 12.536028,-28 27.999996,-28 7.32364,0.0026 -13.567248,15.7246 -8.33608,20.850084 v 0 l 6.58979,2.751736 c 5.11793,5.223436 29.73551,-2.91464 29.74629,4.39818 z m -18.54365,-5.693576 c 0,-6.627416 -3.72513,-3.433284 -10.35256,-3.433272 -6.627416,0 -3.103788,-5.500568 -3.103788,1.126848 0,6.62742 5.372578,12.000004 11.999998,12.000004 6.62742,-4e-6 1.45635,-3.06616 1.45635,-9.69358 z"
     style="fill:#e4e4e4;stroke-width:4" />
  <path
     inkscape:connector-curvature="0"
     id="path18"
     d="m 102.67969,31.171875 c -1.30043,0 -2.56701,0.117472 -3.820314,0.289064 L 74.976564,55.351564 c -0.17164,1.253428 -0.29688,2.519744 -0.29688,3.820312 0.0108,4.039904 0.614324,7.748388 2.3125,11.41406 L 67.031248,80.140624 55.914064,79.984376 56,93.179688 48.6875,100.08594 35.914062,99.843752 36,112.92969 34.078125,115.10156 28,121.17969 v 0.78906 L 27.820312,135.82031 28,136 103.36719,60.632812 c -2.12087,-1.642248 -3.67139,-3.957748 -4.320314,-6.648436 l -4.703124,-1.96094 C 89.112584,46.897952 110.00333,31.174489 102.67969,31.171875 Z m -3.632814,22.812501 1.890624,0.78906 c 1.22751,1.25282 3.5907,1.722852 6.45312,1.83594 l 4.61719,-4.617188 c -0.60807,-4.50442 -4.19998,-1.945324 -10.22656,-1.945312 -1.62681,0 -2.628594,-0.34004 -3.234374,-0.742188 0.07728,0.475664 0.1328,1.07526 0.1328,1.867188 0,0.972556 0.1488,1.907 0.3672,2.8125 z m -0.5,-4.679688 c -0.410772,-2.527916 -1.5672,-1.04034 0,0 z"
     style="opacity:0.2;stroke-width:4" />
  <path
     inkscape:connector-curvature="0"
     id="path20"
     d="m 129.63538,38.47833 c -6.51472,-6.514719 -15.51472,-10.540311 -25.45585,-10.540309 -19.882254,0 -35.996154,16.113906 -35.996154,35.996158 0,19.882252 16.1139,35.996152 35.996154,35.996152 19.88225,0 35.99615,-16.1139 35.99615,-35.996152 1e-5,-9.941124 -4.02558,-18.941124 -10.5403,-25.455849 z m -5.80049,5.800489 c 1.44771,1.447716 2.34229,3.447716 2.34229,5.656856 0,4.418276 -3.58087,7.99914 -7.99915,7.999144 -4.41828,0 -7.99914,-3.580864 -7.99914,-7.999144 0,-4.41828 3.58087,-7.999145 7.99915,-7.999145 2.20914,-4e-6 4.20914,0.894577 5.65685,2.342289 z"
     style="opacity:0.2;stroke-width:4;filter:url(#filter930)" />
  <path
     inkscape:connector-curvature="0"
     id="path22"
     d="m 129.63538,34.479616 c -6.51472,-6.514719 -15.51472,-10.540311 -25.45585,-10.540309 -19.882254,0 -35.996154,16.113901 -35.996154,35.996153 0,19.882252 16.1139,35.996152 35.996154,35.996152 19.88225,0 35.99615,-16.1139 35.99615,-35.996152 1e-5,-9.941124 -4.02558,-18.941124 -10.5403,-25.455844 z m -5.80049,5.800484 c 1.44771,1.447716 2.34229,3.447716 2.34229,5.656856 0,4.418276 -3.58087,7.99914 -7.99915,7.999144 -4.41828,0 -7.99914,-3.580864 -7.99914,-7.999144 0,-4.41828 3.58087,-7.999144 7.99915,-7.999144 2.20914,-2e-6 4.20914,0.894575 5.65685,2.342288 z"
     style="fill:#9b55da;stroke-width:4" />
  <path
     inkscape:connector-curvature="0"
     id="path26"
     d="m 139.99814,18.000001 c -15.46397,0 -28,12.536027 -28,28 0.003,2.758764 3.19493,-2.638684 4,0 1.36689,1.099836 -1.22684,3.308712 0.66454,3.308712 1.42873,0 2.1745,1.347528 3.33546,0.691288 -1.372,-2.757644 0.005,-0.919912 0,-4 0,-11.045695 8.9543,-20 20,-20 11.0457,0 20,8.954305 20,20 -0.0104,5.109068 -0.48322,8.293932 -4,12 0.89754,3.024388 -0.13332,7.87184 -0.0469,11 7.54236,-5.22902 12.04333,-13.822324 12.04688,-23 0,-15.463973 -12.53603,-28 -28,-28 z"
     style="opacity:0.1;stroke-width:4;filter:url(#filter946)" />
  <path
     inkscape:connector-curvature="0"
     id="path28"
     d="m 139.99814,16 a 28,28 0 0 0 -28,28 28,28 0 0 0 1.21875,8.140624 c 1.36689,1.099836 3.06956,1.796876 4.96094,1.796876 1.42873,0 2.7531,-0.40626 3.91406,-1.0625 A 20,20 0 0 1 119.99814,44 a 20,20 0 0 1 20,-20 20,20 0 0 1 20,20 20,20 0 0 1 -5.49219,13.726564 c 0.89754,3.024388 1.35888,6.145276 1.44531,9.273436 a 28,28 0 0 0 12.04688,-23 28,28 0 0 0 -28,-28 z"
     style="fill:#e4e4e4;stroke-width:4" />
  <path
     style="fill:#ffffff;stroke-width:4;opacity:0.2"
     d="M 139.99805 16 A 28 28 0 0 0 111.99805 44 A 28 28 0 0 0 112.01953 44.410156 A 28 28 0 0 1 139.99805 17 A 28 28 0 0 1 167.97852 44.607422 A 28 28 0 0 0 167.99805 44 A 28 28 0 0 0 139.99805 16 z M 159.97656 44.408203 A 20 20 0 0 1 154.50586 57.726562 C 154.58201 57.983148 154.63713 58.244033 154.70703 58.501953 A 20 20 0 0 0 159.99805 45 A 20 20 0 0 0 159.97656 44.408203 z M 120.01758 44.617188 A 20 20 0 0 0 119.99805 45 A 20 20 0 0 0 121.73242 53.052734 C 121.85157 52.992339 121.97585 52.940538 122.0918 52.875 A 20 20 0 0 1 120.01758 44.617188 z "
     id="path950" />
</svg>
