<?xml version="1.0" encoding="UTF-8" standalone="no"?>
<svg
   xmlns:dc="http://purl.org/dc/elements/1.1/"
   xmlns:cc="http://creativecommons.org/ns#"
   xmlns:rdf="http://www.w3.org/1999/02/22-rdf-syntax-ns#"
   xmlns:svg="http://www.w3.org/2000/svg"
   xmlns="http://www.w3.org/2000/svg"
   xmlns:sodipodi="http://sodipodi.sourceforge.net/DTD/sodipodi-0.dtd"
   xmlns:inkscape="http://www.inkscape.org/namespaces/inkscape"
   width="192"
   height="192"
   version="1"
   id="svg12"
   sodipodi:docname="apps_dukto.svg"
   inkscape:version="0.92.3 (2405546, 2018-03-11)">
  <metadata
     id="metadata18">
    <rdf:RDF>
      <cc:Work
         rdf:about="">
        <dc:format>image/svg+xml</dc:format>
        <dc:type
           rdf:resource="http://purl.org/dc/dcmitype/StillImage" />
        <dc:title></dc:title>
      </cc:Work>
    </rdf:RDF>
  </metadata>
  <defs
     id="defs16">
    <filter
       inkscape:collect="always"
       style="color-interpolation-filters:sRGB"
       id="filter854"
       x="-0.0348"
       width="1.0696"
       y="-0.077333333"
       height="1.1546667">
      <feGaussianBlur
         inkscape:collect="always"
         stdDeviation="2.32"
         id="feGaussianBlur856" />
    </filter>
    <filter
       inkscape:collect="always"
       style="color-interpolation-filters:sRGB"
       id="filter870"
       x="-0.042857143"
       width="1.0857143"
       y="-0.054545455"
       height="1.1090909">
      <feGaussianBlur
         inkscape:collect="always"
         stdDeviation="2"
         id="feGaussianBlur872" />
    </filter>
  </defs>
  <sodipodi:namedview
     pagecolor="#ffffff"
     bordercolor="#666666"
     borderopacity="1"
     objecttolerance="10"
     gridtolerance="10"
     guidetolerance="10"
     inkscape:pageopacity="0"
     inkscape:pageshadow="2"
     inkscape:window-width="1920"
     inkscape:window-height="1018"
     id="namedview14"
     showgrid="false"
     inkscape:zoom="2.63"
     inkscape:cx="24"
     inkscape:cy="84.836502"
     inkscape:window-x="0"
     inkscape:window-y="32"
     inkscape:window-maximized="1"
     inkscape:current-layer="svg12" />
  <path
     inkscape:connector-curvature="0"
     style="opacity:0.2;stroke-width:4;filter:url(#filter870)"
     d="m 40,92 v 80 c 0,4.432 3.568,8 8,8 h 96 c 4.432,0 8,-3.568 8,-8 V 92 Z"
     id="path2" />
  <path
     inkscape:connector-curvature="0"
     style="fill:#599124;stroke-width:4"
     d="M 40,87.6 V 168 c 0,4.432 3.568,8 8,8 h 96 c 4.432,0 8,-3.568 8,-8 V 87.6 Z"
     id="path4" />
  <path
     id="path840"
     d="m 24,20 c -4.432,0 -8,3.568 -8,8 v 64 h 24 112 24 V 28 c 0,-4.432 -3.568,-8 -8,-8 z"
     style="opacity:0.2;fill:#000000;stroke-width:4;filter:url(#filter854)"
     inkscape:connector-curvature="0" />
  <path
     inkscape:connector-curvature="0"
     style="fill:#7ec242;stroke-width:4"
     d="m 24,16 c -4.432,0 -8,3.568 -8,8 v 64 h 24 112 24 V 24 c 0,-4.432 -3.568,-8 -8,-8 z"
     id="path6" />
  <path
     style="opacity:0.2;fill:#ffffff;stroke-width:4"
     d="M 24 16 C 19.568 16 16 19.568 16 24 L 16 25 C 16 20.568 19.568 17 24 17 L 168 17 C 172.432 17 176 20.568 176 25 L 176 24 C 176 19.568 172.432 16 168 16 L 24 16 z "
     id="path10" />
</svg>
