<?xml version="1.0" encoding="UTF-8" standalone="no"?>
<svg
   xmlns:dc="http://purl.org/dc/elements/1.1/"
   xmlns:cc="http://creativecommons.org/ns#"
   xmlns:rdf="http://www.w3.org/1999/02/22-rdf-syntax-ns#"
   xmlns:svg="http://www.w3.org/2000/svg"
   xmlns="http://www.w3.org/2000/svg"
   xmlns:sodipodi="http://sodipodi.sourceforge.net/DTD/sodipodi-0.dtd"
   xmlns:inkscape="http://www.inkscape.org/namespaces/inkscape"
   width="192"
   height="192"
   version="1"
   id="svg12"
   sodipodi:docname="apps_rutaxi.svg"
   inkscape:version="0.92.3 (2405546, 2018-03-11)">
  <metadata
     id="metadata18">
    <rdf:RDF>
      <cc:Work
         rdf:about="">
        <dc:format>image/svg+xml</dc:format>
        <dc:type
           rdf:resource="http://purl.org/dc/dcmitype/StillImage" />
        <dc:title></dc:title>
      </cc:Work>
    </rdf:RDF>
  </metadata>
  <defs
     id="defs16">
    <filter
       inkscape:collect="always"
       style="color-interpolation-filters:sRGB"
       id="filter860"
       x="-0.048"
       width="1.096"
       y="-0.048"
       height="1.096">
      <feGaussianBlur
         inkscape:collect="always"
         stdDeviation="3.2"
         id="feGaussianBlur862" />
    </filter>
    <filter
       inkscape:collect="always"
       style="color-interpolation-filters:sRGB"
       id="filter885"
       x="-0.05417481"
       width="1.1083496"
       y="-0.04308877"
       height="1.0861775">
      <feGaussianBlur
         inkscape:collect="always"
         stdDeviation="2.0468096"
         id="feGaussianBlur887" />
    </filter>
  </defs>
  <sodipodi:namedview
     pagecolor="#ffffff"
     bordercolor="#666666"
     borderopacity="1"
     objecttolerance="10"
     gridtolerance="10"
     guidetolerance="10"
     inkscape:pageopacity="0"
     inkscape:pageshadow="2"
     inkscape:window-width="1920"
     inkscape:window-height="1018"
     id="namedview14"
     showgrid="false"
     inkscape:zoom="1"
     inkscape:cx="152.9812"
     inkscape:cy="64.907265"
     inkscape:window-x="0"
     inkscape:window-y="32"
     inkscape:window-maximized="1"
     inkscape:current-layer="svg12"
     showguides="false"
     inkscape:guide-bbox="true">
    <inkscape:grid
       type="xygrid"
       id="grid852" />
    <sodipodi:guide
       position="-90,175"
       orientation="1,0"
       id="guide861"
       inkscape:locked="false" />
  </sodipodi:namedview>
  <rect
     style="opacity:0.2;stroke-width:4;filter:url(#filter860)"
     width="160"
     height="160"
     x="16"
     y="20"
     rx="8"
     ry="8"
     id="rect2" />
  <rect
     style="fill:#ffc800;fill-opacity:1;stroke-width:4"
     width="160"
     height="160"
     x="16"
     y="16"
     rx="8"
     ry="8"
     id="rect4" />
  <path
     style="opacity:0.2;fill:#000000;fill-opacity:1;stroke:none;stroke-width:7.90625715;stroke-linecap:round;stroke-linejoin:round;stroke-miterlimit:4;stroke-dasharray:none;stroke-opacity:1;filter:url(#filter885)"
     d="m 66,42 v 16 h 36 a 8.0008,8.0008 0 0 0 0.23047,-0.0039 c 0,0 4.9353,-0.01722 9.50391,2.02539 C 116.30298,62.064093 120,64.42579 120,74 c 0,9.57421 -3.977,12.71361 -8.71289,15.195312 -4.68753,2.456362 -9.51015,2.79779 -9.60938,2.804688 H 82 v 16 h 20 a 8.0008,8.0008 0 0 0 0.38477,-0.01 c 0,0 0.52634,-0.0319 1.20507,-0.0977 1.60344,0.38321 3.30571,0.9254 4.59961,1.68945 7.80843,3.82742 8.95074,11.11936 9.44727,17.97266 0.44942,6.4013 0.55517,14.02429 1.68359,21.37304 0.45296,2.94982 1.39154,4.62005 2.13477,6.0918 0.1963,0.38873 0.35206,0.65337 0.53125,0.98047 h 18.68945 l -4.15234,-6.77539 c -0.009,-0.0144 -0.0182,-0.0287 -0.0273,-0.043 0,0 -0.35073,-0.5689 -0.75781,-1.375 -0.40707,-0.8061 -0.70718,-1.98369 -0.60351,-1.30859 -1.40801,-9.16952 1.48775,-25.00275 -5.79493,-38.6836 -1.66271,-3.12349 -3.81385,-5.47418 -6.0957,-7.36718 C 129.96378,95.264015 136,86.412507 136,74 c 0,-15.176698 -9.30298,-24.814326 -17.73438,-28.583984 -8.43139,-3.769659 -16.49609,-3.41211 -16.49609,-3.41211 L 102,42 Z m 16,66 H 66 v 16 H 82 Z M 66,124 H 50 v 16 h 16 z m 0,16 v 16 h 16 v -16 z m 0,-32 V 92 H 50 v 16 z M 66,92 H 82 V 76 H 66 Z M 66,76 V 60 H 50 v 16 z"
     id="path864"
     inkscape:connector-curvature="0" />
  <path
     inkscape:connector-curvature="0"
     style="opacity:0.2;fill:#ffffff;stroke-width:4"
     d="m 24,16 c -4.432,0 -8,3.568 -8,8 v 1 c 0,-4.432 3.568,-8 8,-8 h 144 c 4.432,0 8,3.568 8,8 v -1 c 0,-4.432 -3.568,-8 -8,-8 z"
     id="path6" />
  <path
     inkscape:connector-curvature="0"
     style="opacity:1;fill:#ffffff;fill-opacity:1;stroke:none;stroke-width:7.90625715;stroke-linecap:round;stroke-linejoin:round;stroke-miterlimit:4;stroke-dasharray:none;stroke-opacity:1"
     d="M 50,58 V 74 H 66 V 58 Z M 66,74 V 90 H 82 V 74 Z m 0,16 H 50 v 16 h 16 z m 0,16 v 16 h 16 v -16 z m 0,16 H 50 v 16 h 16 z m 0,16 v 16 h 16 v -16 z"
     id="rect838" />
  <path
     style="fill:none;stroke:#ffffff;stroke-width:16;stroke-linecap:butt;stroke-linejoin:round;stroke-miterlimit:4;stroke-dasharray:none;stroke-opacity:1"
     d="m 66,48 h 36 c 0,0 26,-0.750908 26,24 0,24.750908 -26,26 -26,26 H 82"
     id="path850"
     inkscape:connector-curvature="0"
     sodipodi:nodetypes="cczcc" />
  <path
     style="color:#000000;font-style:normal;font-variant:normal;font-weight:normal;font-stretch:normal;font-size:medium;line-height:normal;font-family:sans-serif;font-variant-ligatures:normal;font-variant-position:normal;font-variant-caps:normal;font-variant-numeric:normal;font-variant-alternates:normal;font-feature-settings:normal;text-indent:0;text-align:start;text-decoration:none;text-decoration-line:none;text-decoration-style:solid;text-decoration-color:#000000;letter-spacing:normal;word-spacing:normal;text-transform:none;writing-mode:lr-tb;direction:ltr;text-orientation:mixed;dominant-baseline:auto;baseline-shift:baseline;text-anchor:start;white-space:normal;shape-padding:0;clip-rule:nonzero;display:inline;overflow:visible;visibility:visible;opacity:1;isolation:auto;mix-blend-mode:normal;color-interpolation:sRGB;color-interpolation-filters:linearRGB;solid-color:#000000;solid-opacity:1;vector-effect:none;fill:#ffffff;fill-opacity:1;fill-rule:nonzero;stroke:none;stroke-width:16;stroke-linecap:square;stroke-linejoin:round;stroke-miterlimit:4;stroke-dasharray:none;stroke-dashoffset:0;stroke-opacity:1;color-rendering:auto;image-rendering:auto;shape-rendering:auto;text-rendering:auto;enable-background:accumulate"
     d="m 100,92 -5.458984,9.31445 4.239861,3.77157 c 0,0 6.072943,0.52632 9.408573,2.49601 7.80843,3.82742 8.95137,11.12023 9.4479,17.97353 0.44942,6.4013 0.55454,14.02342 1.68296,21.37217 0.45296,2.94982 1.39154,4.62005 2.13477,6.0918 0.1963,0.38873 0.35206,0.65337 0.53125,0.98047 h 18.68945 l -4.15234,-6.77539 c -0.009,-0.0144 -0.0182,-0.0287 -0.0273,-0.043 0,0 -0.35073,-0.5689 -0.75781,-1.375 -0.40707,-0.8061 -0.70718,-1.98369 -0.60351,-1.30859 -1.40801,-9.16952 1.48775,-25.00275 -5.79493,-38.6836 -3.33509,-6.265136 -8.63344,-9.422084 -13.01562,-12.009762 -4.38219,-2.587681 -8.25195,-4.191407 -8.25195,-4.191407 z"
     id="path852"
     inkscape:connector-curvature="0"
     sodipodi:nodetypes="ccccccccccccccscc" />
</svg>
