<?xml version="1.0" encoding="UTF-8" standalone="no"?>
<svg
   xmlns:dc="http://purl.org/dc/elements/1.1/"
   xmlns:cc="http://creativecommons.org/ns#"
   xmlns:rdf="http://www.w3.org/1999/02/22-rdf-syntax-ns#"
   xmlns:svg="http://www.w3.org/2000/svg"
   xmlns="http://www.w3.org/2000/svg"
   xmlns:sodipodi="http://sodipodi.sourceforge.net/DTD/sodipodi-0.dtd"
   xmlns:inkscape="http://www.inkscape.org/namespaces/inkscape"
   width="192"
   height="192"
   version="1"
   id="svg28"
   sodipodi:docname="apps_alarm_clock.svg"
   inkscape:version="0.92.3 (2405546, 2018-03-11)">
  <metadata
     id="metadata34">
    <rdf:RDF>
      <cc:Work
         rdf:about="">
        <dc:format>image/svg+xml</dc:format>
        <dc:type
           rdf:resource="http://purl.org/dc/dcmitype/StillImage" />
      </cc:Work>
    </rdf:RDF>
  </metadata>
  <defs
     id="defs32">
    <filter
       inkscape:collect="always"
       style="color-interpolation-filters:sRGB"
       id="filter871"
       x="-0.048"
       width="1.096"
       y="-0.048"
       height="1.096">
      <feGaussianBlur
         inkscape:collect="always"
         stdDeviation="3.2"
         id="feGaussianBlur873" />
    </filter>
    <filter
       inkscape:collect="always"
       style="color-interpolation-filters:sRGB"
       id="filter887"
       x="-0.048"
       width="1.096"
       y="-0.048"
       height="1.096">
      <feGaussianBlur
         inkscape:collect="always"
         stdDeviation="2.72"
         id="feGaussianBlur889" />
    </filter>
    <filter
       inkscape:collect="always"
       style="color-interpolation-filters:sRGB"
       id="filter908"
       x="-0.061946675"
       width="1.1238934"
       y="-0.039179195"
       height="1.0783584">
      <feGaussianBlur
         inkscape:collect="always"
         stdDeviation="0.83817179"
         id="feGaussianBlur910" />
    </filter>
  </defs>
  <sodipodi:namedview
     pagecolor="#ffffff"
     bordercolor="#666666"
     borderopacity="1"
     objecttolerance="10"
     gridtolerance="10"
     guidetolerance="10"
     inkscape:pageopacity="0"
     inkscape:pageshadow="2"
     inkscape:window-width="1920"
     inkscape:window-height="1018"
     id="namedview30"
     showgrid="false"
     inkscape:zoom="4.64"
     inkscape:cx="126.18102"
     inkscape:cy="89.873391"
     inkscape:window-x="0"
     inkscape:window-y="32"
     inkscape:window-maximized="1"
     inkscape:current-layer="svg28">
    <inkscape:grid
       type="xygrid"
       id="grid841" />
  </sodipodi:namedview>
  <rect
     id="rect2"
     transform="matrix(0,-1,-1,0,0,0)"
     ry="8"
     rx="8"
     y="-176"
     x="-180"
     height="160"
     width="160"
     style="opacity:0.2;stroke-width:4;filter:url(#filter871)" />
  <rect
     id="rect4"
     transform="matrix(0,-1,-1,0,0,0)"
     ry="8"
     rx="8"
     y="-176"
     x="-176"
     height="160"
     width="160"
     style="fill:#2c64af;stroke-width:4" />
  <path
     style="opacity:0.1;fill:#ffffff;stroke-width:4"
     d="M 24 16 C 19.568 16 16 19.568 16 24 L 16 25 C 16 20.568 19.568 17 24 17 L 168 17 C 172.432 17 176 20.568 176 25 L 176 24 C 176 19.568 172.432 16 168 16 L 24 16 z "
     id="path6" />
  <circle
     id="circle8"
     r="68"
     cy="100"
     cx="96"
     style="opacity:0.2;stroke-width:4;filter:url(#filter887)" />
  <circle
     id="circle10"
     r="68"
     cy="96"
     cx="96"
     style="fill:#ffd201;stroke-width:4" />
  <circle
     id="circle12"
     r="56"
     cy="96"
     cx="100"
     style="fill:#f98a15;stroke-width:4" />
  <circle
     id="circle14"
     r="44"
     cy="91.148003"
     cx="102.544"
     style="fill:#c5370d;stroke-width:4" />
  <path
     style="opacity:0.1;stroke-width:4;filter:url(#filter908)"
     d="m 96,66.000497 c -2.216,0 -4,1.784 -4,4 v 20 c 0,2.216 1.784,4 4,4 2.216,0 4,-1.784 4,-4 v -20 c 0,-2.216 -1.784,-4 -4,-4 z m 6.86914,33.3457 c -1.27988,0.0895 -2.49109,0.794703 -3.183593,1.994143 -1.108,1.91912 -0.454269,4.35685 1.464843,5.46485 l 17.32031,10 c 1.91912,1.108 4.35489,0.45427 5.46289,-1.46485 1.108,-1.91911 0.45623,-4.35684 -1.46289,-5.46484 L 105.15039,99.875497 c -0.71967,-0.4155 -1.51332,-0.58298 -2.28125,-0.5293 z"
     id="rect16"
     inkscape:connector-curvature="0" />
  <rect
     id="rect18"
     ry="4"
     y="64"
     x="92"
     height="28"
     width="8"
     style="fill:#ffffff;stroke-width:4" />
  <rect
     id="rect22"
     transform="rotate(120)"
     ry="4"
     y="-164"
     x="32.200001"
     height="28"
     width="8"
     style="fill:#ffffff;stroke-width:4" />
  <path
     style="opacity:0.2;fill:#ffffff;stroke-width:4"
     d="M 96 28 A 68 68 0 0 0 28 96 A 68 68 0 0 0 28.017578 96.513672 A 68 68 0 0 1 96 29 A 68 68 0 0 1 163.97656 96.517578 A 68 68 0 0 0 164 96 A 68 68 0 0 0 96 28 z "
     id="path24" />
</svg>
