<?xml version="1.0" encoding="UTF-8" standalone="no"?>
<svg
   xmlns:dc="http://purl.org/dc/elements/1.1/"
   xmlns:cc="http://creativecommons.org/ns#"
   xmlns:rdf="http://www.w3.org/1999/02/22-rdf-syntax-ns#"
   xmlns:svg="http://www.w3.org/2000/svg"
   xmlns="http://www.w3.org/2000/svg"
   xmlns:sodipodi="http://sodipodi.sourceforge.net/DTD/sodipodi-0.dtd"
   xmlns:inkscape="http://www.inkscape.org/namespaces/inkscape"
   width="192"
   height="192"
   version="1.1"
   id="svg24"
   sodipodi:docname="apps_gitter.svg"
   inkscape:version="0.92.3 (2405546, 2018-03-11)">
  <metadata
     id="metadata30">
    <rdf:RDF>
      <cc:Work
         rdf:about="">
        <dc:format>image/svg+xml</dc:format>
        <dc:type
           rdf:resource="http://purl.org/dc/dcmitype/StillImage" />
        <dc:title></dc:title>
      </cc:Work>
    </rdf:RDF>
  </metadata>
  <defs
     id="defs28">
    <filter
       inkscape:collect="always"
       style="color-interpolation-filters:sRGB"
       id="filter882"
       x="-0.048"
       width="1.096"
       y="-0.048"
       height="1.096">
      <feGaussianBlur
         inkscape:collect="always"
         stdDeviation="3.2"
         id="feGaussianBlur884" />
    </filter>
    <filter
       inkscape:collect="always"
       style="color-interpolation-filters:sRGB"
       id="filter899"
       x="-0.056727273"
       width="1.1134545"
       y="-0.0416"
       height="1.0832">
      <feGaussianBlur
         inkscape:collect="always"
         stdDeviation="2.08"
         id="feGaussianBlur901" />
    </filter>
  </defs>
  <sodipodi:namedview
     pagecolor="#ffffff"
     bordercolor="#666666"
     borderopacity="1"
     objecttolerance="10"
     gridtolerance="10"
     guidetolerance="10"
     inkscape:pageopacity="0"
     inkscape:pageshadow="2"
     inkscape:window-width="1920"
     inkscape:window-height="1018"
     id="namedview26"
     showgrid="false"
     inkscape:zoom="2.63"
     inkscape:cx="24"
     inkscape:cy="69.627376"
     inkscape:window-x="0"
     inkscape:window-y="32"
     inkscape:window-maximized="1"
     inkscape:current-layer="svg24" />
  <rect
     id="rect864"
     ry="8"
     rx="8"
     y="20"
     x="16"
     height="160"
     width="160"
     style="opacity:0.2;fill:#000000;stroke-width:4;filter:url(#filter882)" />
  <rect
     style="fill:#e11966;stroke-width:4"
     width="160"
     height="160"
     x="16"
     y="16"
     rx="8"
     ry="8"
     id="rect2" />
  <path
     style="opacity:0.2;fill:#ffffff;stroke-width:4"
     d="M 24 16 C 19.568 16 16 19.568 16 24 L 16 25 C 16 20.568 19.568 17 24 17 L 168 17 C 172.432 17 176 20.568 176 25 L 176 24 C 176 19.568 172.432 16 168 16 L 24 16 z "
     id="path4" />
  <path
     style="opacity:0.2;stroke-width:4;filter:url(#filter899)"
     d="m 52,38 v 76 H 68 V 38 Z m 24,24 v 96 H 92 V 62 Z m 24,0 v 96 h 16 V 62 Z m 24,0 v 56 h 16 V 62 Z"
     id="rect8"
     inkscape:connector-curvature="0" />
  <rect
     style="fill:#ffffff;stroke-width:4"
     width="16"
     height="76"
     x="52"
     y="36"
     id="rect16" />
  <rect
     style="fill:#ffffff;stroke-width:4"
     width="16"
     height="96"
     x="76"
     y="60"
     id="rect18" />
  <rect
     style="fill:#ffffff;stroke-width:4"
     width="16"
     height="96"
     x="100"
     y="60"
     id="rect20" />
  <rect
     style="fill:#ffffff;stroke-width:4"
     width="16"
     height="56"
     x="124"
     y="60"
     id="rect22" />
</svg>
