<?xml version="1.0" encoding="UTF-8" standalone="no"?>
<svg
   xmlns:dc="http://purl.org/dc/elements/1.1/"
   xmlns:cc="http://creativecommons.org/ns#"
   xmlns:rdf="http://www.w3.org/1999/02/22-rdf-syntax-ns#"
   xmlns:svg="http://www.w3.org/2000/svg"
   xmlns="http://www.w3.org/2000/svg"
   xmlns:sodipodi="http://sodipodi.sourceforge.net/DTD/sodipodi-0.dtd"
   xmlns:inkscape="http://www.inkscape.org/namespaces/inkscape"
   width="192"
   height="192"
   version="1"
   id="svg22"
   sodipodi:docname="apps_pgpclipper.svg"
   inkscape:version="0.92.3 (2405546, 2018-03-11)">
  <metadata
     id="metadata28">
    <rdf:RDF>
      <cc:Work
         rdf:about="">
        <dc:format>image/svg+xml</dc:format>
        <dc:type
           rdf:resource="http://purl.org/dc/dcmitype/StillImage" />
      </cc:Work>
    </rdf:RDF>
  </metadata>
  <defs
     id="defs26">
    <filter
       inkscape:collect="always"
       style="color-interpolation-filters:sRGB"
       id="filter862"
       x="-0.048"
       width="1.096"
       y="-0.048"
       height="1.096">
      <feGaussianBlur
         inkscape:collect="always"
         stdDeviation="3.2"
         id="feGaussianBlur864" />
    </filter>
    <filter
       inkscape:collect="always"
       style="color-interpolation-filters:sRGB"
       id="filter878"
       x="-0.048"
       width="1.096"
       y="-0.048"
       height="1.096">
      <feGaussianBlur
         inkscape:collect="always"
         stdDeviation="1.76"
         id="feGaussianBlur880" />
    </filter>
    <filter
       inkscape:collect="always"
       style="color-interpolation-filters:sRGB"
       id="filter906"
       x="-0.045"
       width="1.09"
       y="-0.051428571"
       height="1.1028571">
      <feGaussianBlur
         inkscape:collect="always"
         stdDeviation="2.4"
         id="feGaussianBlur908" />
    </filter>
  </defs>
  <sodipodi:namedview
     pagecolor="#ffffff"
     bordercolor="#666666"
     borderopacity="1"
     objecttolerance="10"
     gridtolerance="10"
     guidetolerance="10"
     inkscape:pageopacity="0"
     inkscape:pageshadow="2"
     inkscape:window-width="1920"
     inkscape:window-height="1018"
     id="namedview24"
     showgrid="false"
     inkscape:zoom="1"
     inkscape:cx="38.135141"
     inkscape:cy="144.98779"
     inkscape:window-x="0"
     inkscape:window-y="32"
     inkscape:window-maximized="1"
     inkscape:current-layer="svg22">
    <inkscape:grid
       type="xygrid"
       id="grid919" />
  </sodipodi:namedview>
  <rect
     style="opacity:0.2;fill:#000000;stroke-width:4;filter:url(#filter862)"
     width="160"
     height="160"
     x="-180"
     y="-176"
     rx="8"
     ry="8"
     transform="matrix(0,-1,-1,0,0,0)"
     id="rect844" />
  <rect
     id="rect4"
     transform="matrix(0,-1,-1,0,0,0)"
     ry="8"
     rx="8"
     y="-176"
     x="-176"
     height="160"
     width="160"
     style="fill:#4f4f4f;stroke-width:4" />
  <path
     inkscape:connector-curvature="0"
     id="path6"
     d="m 108,42 -76,76 h 76 z m 8,21.343752 V 118 h 44 A 56,56 0 0 0 116,63.343752 Z M 44,126 l 8,28 h 88 l 8,-28 z"
     style="opacity:0.2;stroke-width:4;filter:url(#filter906)" />
  <path
     style="opacity:0.1;fill:#ffffff;stroke-width:4"
     d="M 24 16 C 19.568 16 16 19.568 16 24 L 16 25 C 16 20.568 19.568 17 24 17 L 168 17 C 172.432 17 176 20.568 176 25 L 176 24 C 176 19.568 172.432 16 168 16 L 24 16 z "
     id="path8" />
  <path
     inkscape:connector-curvature="0"
     id="path10"
     d="m 108,40 -76,76 h 76 z m 8,21.343752 V 116 h 44 A 56,56 0 0 0 116,61.343752 Z M 44,124 l 8,28 h 88 l 8,-28 z"
     style="fill:#ffffff;stroke-width:4" />
  <circle
     id="circle12"
     r="44"
     cy="48"
     cx="44"
     style="opacity:0.2;stroke-width:4;filter:url(#filter878)" />
  <circle
     id="circle14"
     r="44"
     cy="44"
     cx="44"
     style="fill:#d65050;stroke-width:4" />
  <path
     inkscape:connector-curvature="0"
     style="fill:#ffffff;stroke-width:3.4640398"
     d="M 45.000001,16 C 37.244,16 31,22.245263 31,29.928074 v 6.072783 h -3.5 c -1.939,0 -3.5,1.600864 -3.5,3.500224 V 60.571552 C 24,62.470912 25.561,64 27.5,64 h 35 C 64.439,64 66,62.470912 66,60.571552 V 39.501081 c 0,-1.89936 -1.561,-3.500224 -3.5,-3.500224 H 59 V 29.929788 C 59,22.250063 52.756,16.003429 45.000001,16.003429 Z m 0,6.8569 C 48.878,22.8569 52,25.915076 52,29.713796 v 6.285347 H 38 v -6.285347 c 0,-3.79872 3.122,-6.856896 7.000001,-6.856896 z"
     id="path18-3"
     sodipodi:nodetypes="cscsssssssscsccssccss" />
</svg>
