<?xml version="1.0" encoding="UTF-8" standalone="no"?>
<svg
   xmlns:dc="http://purl.org/dc/elements/1.1/"
   xmlns:cc="http://creativecommons.org/ns#"
   xmlns:rdf="http://www.w3.org/1999/02/22-rdf-syntax-ns#"
   xmlns:svg="http://www.w3.org/2000/svg"
   xmlns="http://www.w3.org/2000/svg"
   xmlns:sodipodi="http://sodipodi.sourceforge.net/DTD/sodipodi-0.dtd"
   xmlns:inkscape="http://www.inkscape.org/namespaces/inkscape"
   width="192"
   height="192"
   version="1"
   id="svg26"
   sodipodi:docname="apps_bbc_player.svg"
   inkscape:version="0.92.3 (2405546, 2018-03-11)">
  <metadata
     id="metadata32">
    <rdf:RDF>
      <cc:Work
         rdf:about="">
        <dc:format>image/svg+xml</dc:format>
        <dc:type
           rdf:resource="http://purl.org/dc/dcmitype/StillImage" />
      </cc:Work>
    </rdf:RDF>
  </metadata>
  <defs
     id="defs30">
    <filter
       inkscape:collect="always"
       style="color-interpolation-filters:sRGB"
       id="filter868"
       x="-0.048"
       width="1.096"
       y="-0.048"
       height="1.096">
      <feGaussianBlur
         inkscape:collect="always"
         stdDeviation="3.2"
         id="feGaussianBlur870" />
    </filter>
    <filter
       inkscape:collect="always"
       style="color-interpolation-filters:sRGB"
       id="filter884"
       x="-0.031058824"
       width="1.0621176"
       y="-0.1056"
       height="1.2112">
      <feGaussianBlur
         inkscape:collect="always"
         stdDeviation="0.44"
         id="feGaussianBlur886" />
    </filter>
  </defs>
  <sodipodi:namedview
     pagecolor="#ffffff"
     bordercolor="#666666"
     borderopacity="1"
     objecttolerance="10"
     gridtolerance="10"
     guidetolerance="10"
     inkscape:pageopacity="0"
     inkscape:pageshadow="2"
     inkscape:window-width="1920"
     inkscape:window-height="1018"
     id="namedview28"
     showgrid="false"
     inkscape:zoom="1"
     inkscape:cx="96"
     inkscape:cy="108.19651"
     inkscape:window-x="0"
     inkscape:window-y="32"
     inkscape:window-maximized="1"
     inkscape:current-layer="svg26" />
  <rect
     style="opacity:0.2;fill:#000000;stroke-width:4;filter:url(#filter868)"
     width="160"
     height="160"
     x="-180"
     y="-176"
     rx="8"
     ry="8"
     transform="matrix(0,-1,-1,0,0,0)"
     id="rect850" />
  <rect
     id="rect2"
     transform="matrix(0,-1,-1,0,0,0)"
     ry="8"
     rx="8"
     y="-176"
     x="-176"
     height="160"
     width="160"
     style="fill:#4f4f4f;stroke-width:4" />
  <g
     style="opacity:0.2;filter:url(#filter884)"
     id="g10"
     transform="matrix(4,0,0,4,0,4)">
    <path
       inkscape:connector-curvature="0"
       id="path4"
       d="M 19,19 V 29 H 29 V 19 Z m 1,1 h 7 v 3 h 1 v 5 h -8 v -6 z m 2,2 v 1 h 3 v -1 z m 0,3 v 1 h 4 v -1 z" />
    <path
       inkscape:connector-curvature="0"
       id="path6"
       d="M 7,19 V 29 H 17 V 19 Z m 1,1 h 7 v 3 h 1 v 5 H 8 v -6 z m 2,2 v 1 h 3 v -1 z m 0,3 v 1 h 4 v -1 z" />
    <path
       inkscape:connector-curvature="0"
       id="path8"
       d="M 31,19 V 29 H 41 V 19 Z m 1,1 h 8 v 2 h -6 v 4 h 6 v 2 h -8 z" />
  </g>
  <path
     style="opacity:0.1;fill:#ffffff;stroke-width:4"
     d="M 24 16 C 19.568 16 16 19.568 16 24 L 16 25 C 16 20.568 19.568 17 24 17 L 168 17 C 172.432 17 176 20.568 176 25 L 176 24 C 176 19.568 172.432 16 168 16 L 24 16 z "
     id="path12" />
  <g
     style="fill:#ffffff"
     id="g22"
     transform="scale(4)">
    <path
       inkscape:connector-curvature="0"
       id="path16"
       d="M 19,19 V 29 H 29 V 19 Z m 1,1 h 7 v 3 h 1 v 5 h -8 v -6 z m 2,2 v 1 h 3 v -1 z m 0,3 v 1 h 4 v -1 z" />
    <path
       inkscape:connector-curvature="0"
       id="path18"
       d="M 7,19 V 29 H 17 V 19 Z m 1,1 h 7 v 3 h 1 v 5 H 8 v -6 z m 2,2 v 1 h 3 v -1 z m 0,3 v 1 h 4 v -1 z" />
    <path
       inkscape:connector-curvature="0"
       id="path20"
       d="M 31,19 V 29 H 41 V 19 Z m 1,1 h 8 v 2 h -6 v 4 h 6 v 2 h -8 z" />
  </g>
</svg>
