<?xml version="1.0" encoding="UTF-8" standalone="no"?>
<svg
   xmlns:dc="http://purl.org/dc/elements/1.1/"
   xmlns:cc="http://creativecommons.org/ns#"
   xmlns:rdf="http://www.w3.org/1999/02/22-rdf-syntax-ns#"
   xmlns:svg="http://www.w3.org/2000/svg"
   xmlns="http://www.w3.org/2000/svg"
   xmlns:sodipodi="http://sodipodi.sourceforge.net/DTD/sodipodi-0.dtd"
   xmlns:inkscape="http://www.inkscape.org/namespaces/inkscape"
   width="192"
   height="192"
   version="1"
   id="svg14"
   sodipodi:docname="apps_soundcloud.svg"
   inkscape:version="0.92.3 (2405546, 2018-03-11)">
  <metadata
     id="metadata20">
    <rdf:RDF>
      <cc:Work
         rdf:about="">
        <dc:format>image/svg+xml</dc:format>
        <dc:type
           rdf:resource="http://purl.org/dc/dcmitype/StillImage" />
      </cc:Work>
    </rdf:RDF>
  </metadata>
  <defs
     id="defs18">
    <filter
       inkscape:collect="always"
       style="color-interpolation-filters:sRGB"
       id="filter850"
       x="-0.048"
       width="1.096"
       y="-0.048"
       height="1.096">
      <feGaussianBlur
         inkscape:collect="always"
         stdDeviation="3.2"
         id="feGaussianBlur852" />
    </filter>
    <filter
       inkscape:collect="always"
       style="color-interpolation-filters:sRGB"
       id="filter869"
       x="-0.034491623"
       width="1.0689832"
       y="-0.078900944"
       height="1.1578019">
      <feGaussianBlur
         inkscape:collect="always"
         stdDeviation="1.8395308"
         id="feGaussianBlur871" />
    </filter>
  </defs>
  <sodipodi:namedview
     pagecolor="#ffffff"
     bordercolor="#666666"
     borderopacity="1"
     objecttolerance="10"
     gridtolerance="10"
     guidetolerance="10"
     inkscape:pageopacity="0"
     inkscape:pageshadow="2"
     inkscape:window-width="1920"
     inkscape:window-height="1018"
     id="namedview16"
     showgrid="false"
     inkscape:zoom="1"
     inkscape:cx="96"
     inkscape:cy="96"
     inkscape:window-x="0"
     inkscape:window-y="32"
     inkscape:window-maximized="1"
     inkscape:current-layer="svg14" />
  <rect
     width="160"
     height="160"
     x="-180"
     y="-176"
     rx="8"
     ry="8"
     transform="matrix(0,-1,-1,0,0,0)"
     id="rect832"
     style="opacity:0.2;fill:#000000;stroke-width:4;filter:url(#filter850)" />
  <rect
     style="fill:#ff8833;stroke-width:4"
     id="rect2"
     transform="matrix(0,-1,-1,0,0,0)"
     ry="8"
     rx="8"
     y="-176"
     x="-176"
     height="160"
     width="160" />
  <path
     style="opacity:0.2;fill:#ffffff;stroke-width:4"
     d="M 24 16 C 19.568 16 16 19.568 16 24 L 16 25 C 16 20.568 19.568 17 24 17 L 168 17 C 172.432 17 176 20.568 176 25 L 176 24 C 176 19.568 172.432 16 168 16 L 24 16 z "
     id="path4" />
  <path
     style="opacity:0.2;stroke-width:4;filter:url(#filter869)"
     inkscape:connector-curvature="0"
     id="path8"
     d="m 33.4496,105.508 c -0.2672,0 -0.47908,0.2076 -0.51352,0.50432 l -0.93604,7.1564 0.93604,7.0332 c 0.036,0.2964 0.2464,0.50296 0.51352,0.50296 0.2588,0 0.46936,-0.2052 0.51064,-0.5002 l 1.10956,-7.036 -1.10956,-7.1576 c -0.04,-0.2952 -0.2532,-0.503 -0.51064,-0.503 z m 5.264,-3.90992 c -0.044,-0.3076 -0.2628,-0.5196 -0.53272,-0.5196 -0.2712,0 -0.49552,0.2188 -0.53272,0.5196 0,0.002 -1.25816,11.5704 -1.25816,11.5704 l 1.25816,11.3144 c 0.036,0.3036 0.26,0.52224 0.53272,0.52224 0.2684,0 0.48736,-0.2132 0.53136,-0.51944 l 1.432,-11.32 z m 19.828,-10.6728 c -0.51624,0 -0.94296,0.42536 -0.96776,0.96568 l -1.00212,21.2872 1.00212,13.7568 c 0.028,0.53764 0.45152,0.96156 0.96776,0.96156 0.51344,0 0.9388,-0.4252 0.96912,-0.96424 v 0.012 l 1.13288,-13.7584 -1.13288,-21.2872 C 59.47872,91.35832 59.05504,90.933 58.5416,90.933 Z m -10.2624,7.3988 c -0.3964,0 -0.71996,0.3188 -0.75164,0.74404 l -1.1288,14.1048 1.1288,13.6464 c 0.032,0.42264 0.3552,0.74128 0.75164,0.74128 0.3924,0 0.7158,-0.3188 0.7502,-0.74128 l 1.28296,-13.6464 -1.28296,-14.1076 c -0.036,-0.4226 -0.358,-0.74128 -0.7502,-0.74128 z m 20.6912,29.5716 c 0.64008,0 1.16044,-0.51952 1.1866,-1.18456 l 0.98284,-13.5256 -0.98144,-28.3412 c -0.028,-0.66504 -0.54656,-1.1846 -1.18664,-1.1846 -0.6456,0 -1.16732,0.52092 -1.18796,1.18604 0,0.0018 -0.87136,28.3384 -0.87136,28.3384 l 0.87136,13.5312 c 0.02,0.6596 0.54236,1.1806 1.1866,1.1806 z m 21.3504,0.0628 c 0.881,0 1.60784,-0.73024 1.62436,-1.62804 v 0.012 -0.012 l 0.68552,-13.1376 -0.68552,-32.732 c -0.012,-0.8964 -0.74336,-1.62792 -1.62436,-1.62792 -0.88236,0 -1.61056,0.73016 -1.62432,1.62936 l -0.6126,32.7192 c 0,0.02 0.6126,13.1572 0.6126,13.1572 0.012,0.88948 0.74332,1.61972 1.62432,1.61972 z m -10.7564,-0.0508 c 0.76676,0 1.38484,-0.61936 1.40548,-1.4092 v 0.012 l 0.8342,-13.3204 -0.83556,-28.546 c -0.02,-0.78976 -0.63872,-1.40772 -1.40548,-1.40772 -0.77224,0 -1.39036,0.61796 -1.40684,1.40772 l -0.742,28.5476 0.74336,13.318 c 0.016,0.78132 0.63464,1.40072 1.40684,1.40072 z m -26.174,-0.1244 c 0.45568,0 0.82456,-0.3672 0.859,-0.8506 l 1.2086,-13.7596 -1.2086,-13.0892 c -0.032,-0.48352 -0.40196,-0.84792 -0.859,-0.84792 -0.46248,0 -0.83144,0.3672 -0.86032,0.85348 l -1.06408,13.0836 1.06408,13.7584 c 0.032,0.48488 0.398,0.85196 0.86032,0.85196 z m -10.1812,-0.75364 c 0.3332,0 0.60296,-0.2648 0.64148,-0.63036 l 1.35732,-13.2292 -1.35596,-13.728 c -0.04,-0.3672 -0.3096,-0.6318 -0.64284,-0.6318 -0.3372,0 -0.60708,0.266 -0.64148,0.6318 0,0.0018 -1.19484,13.728 -1.19484,13.728 l 1.19484,13.2264 c 0.032,0.3672 0.3028,0.63316 0.64148,0.63316 z m 41.712,-42.868 c -0.83284,0 -1.50048,0.66648 -1.517,1.51996 l -0.67728,27.5044 0.67728,13.2348 c 0.016,0.84248 0.6828,1.5088 1.517,1.5088 0.83148,0 1.49492,-0.66504 1.51424,-1.51848 v 0.012 l 0.75984,-13.2348 -0.75984,-27.5072 C 86.41544,84.8304 85.75268,84.164 84.9212,84.164 Z m -21.1852,43.756 c 0.5754,0 1.05032,-0.47244 1.07788,-1.07516 l 1.0572,-13.6656 -1.0572,-26.156 c -0.028,-0.60412 -0.50248,-1.07516 -1.07788,-1.07516 -0.58092,0 -1.05444,0.47244 -1.07924,1.07516 0,0.0018 -0.93604,26.156 -0.93604,26.156 l 0.93748,13.6712 c 0.024,0.59716 0.49688,1.0696 1.0778,1.0696 z m 11.8056,-1.2898 v -0.012 l 0.90852,-13.4396 -0.90852,-29.2956 c -0.024,-0.7274 -0.59192,-1.29824 -1.29536,-1.29824 -0.70756,0 -1.27744,0.56952 -1.29672,1.29824 l -0.80668,29.2944 0.80808,13.4468 c 0.02,0.72052 0.58912,1.28992 1.29532,1.28992 0.70484,0 1.27196,-0.5694 1.29536,-1.2942 v 0.012 z m 68.712,-30.336 c -2.15708,0 -4.2152,0.43924 -6.09,1.23032 -1.25264,-14.282 -13.1516,-25.4856 -27.6664,-25.4856 -3.55156,0 -7.0136,0.7038 -10.0712,1.894 -1.18792,0.46276 -1.50456,0.93944 -1.5156,1.8636 v 50.296 c 0.012,0.96984 0.75992,1.77756 1.70008,1.87304 0.044,0.012 43.364,0.028 43.644,0.028 8.696,0 15.744,-7.096 15.744,-15.848 0,-8.752 -7.048,-15.848 -15.744,-15.848 z m -48.56,-20.54 c -0.94572,0 -1.72212,0.78144 -1.73588,1.7416 l -0.71032,35.6984 0.71168,12.956 c 0.012,0.94632 0.7888,1.7264 1.73452,1.7264 0.94292,0 1.71932,-0.78012 1.73308,-1.74028 v 0.012 l 0.77224,-12.9576 -0.77224,-35.7012 c -0.012,-0.95736 -0.79016,-1.7388 -1.73308,-1.7388 z" />
  <path
     style="fill:#ffffff;stroke-width:4"
     inkscape:connector-curvature="0"
     id="path10"
     d="m 33.4496,101.488 c -0.2672,0 -0.47908,0.2076 -0.51352,0.50432 l -0.93604,7.1564 0.93604,7.0332 c 0.036,0.2964 0.2464,0.50296 0.51352,0.50296 0.2588,0 0.46936,-0.2052 0.51064,-0.5002 l 1.10956,-7.036 -1.10956,-7.1576 c -0.04,-0.2952 -0.2532,-0.503 -0.51064,-0.503 z m 5.264,-3.90992 c -0.044,-0.3076 -0.2628,-0.5196 -0.53272,-0.5196 -0.2712,0 -0.49552,0.2188 -0.53272,0.5196 0,0.0023 -1.25816,11.5704 -1.25816,11.5704 l 1.25816,11.3144 c 0.036,0.3036 0.26,0.52224 0.53272,0.52224 0.2684,0 0.48736,-0.2132 0.53136,-0.51944 l 1.43164,-11.3172 z m 19.828,-10.6728 c -0.51624,0 -0.94296,0.42536 -0.96776,0.96568 l -1.00212,21.2872 1.00212,13.7568 c 0.028,0.53764 0.45152,0.96156 0.96776,0.96156 0.51344,0 0.9388,-0.4252 0.96912,-0.96424 v 0.012 l 1.13288,-13.7584 -1.13288,-21.2872 C 59.47872,87.33832 59.05504,86.913 58.5416,86.913 Z m -10.2624,7.3988 c -0.3964,0 -0.71996,0.3188 -0.75164,0.74404 l -1.1288,14.1048 1.1288,13.6464 c 0.032,0.42264 0.3552,0.74128 0.75164,0.74128 0.3924,0 0.7158,-0.3188 0.7502,-0.74128 l 1.28296,-13.6464 -1.28296,-14.1076 c -0.036,-0.4226 -0.358,-0.74128 -0.7502,-0.74128 z m 20.6912,29.5716 c 0.64008,0 1.16044,-0.51952 1.1866,-1.18456 l 0.98284,-13.5256 -0.98144,-28.3412 c -0.028,-0.66504 -0.54656,-1.1846 -1.18664,-1.1846 -0.6456,0 -1.16732,0.52092 -1.18796,1.18604 0,0.0018 -0.87136,28.3384 -0.87136,28.3384 l 0.87136,13.5312 c 0.02,0.6596 0.54236,1.1806 1.1866,1.1806 z m 21.3504,0.0628 c 0.881,0 1.60784,-0.73024 1.62436,-1.62804 v 0.012 -0.012 l 0.68552,-13.1376 -0.68552,-32.732 c -0.012,-0.8964 -0.74336,-1.62792 -1.62436,-1.62792 -0.88236,0 -1.61056,0.73016 -1.62432,1.62936 l -0.6126,32.7192 c 0,0.02 0.6126,13.1572 0.6126,13.1572 0.012,0.88948 0.74332,1.61972 1.62432,1.61972 z m -10.7564,-0.0508 c 0.76676,0 1.38484,-0.61936 1.40548,-1.4092 v 0.012 l 0.8342,-13.3204 -0.83556,-28.546 c -0.02,-0.78976 -0.63872,-1.40772 -1.40548,-1.40772 -0.77224,0 -1.39036,0.61796 -1.40684,1.40772 l -0.742,28.5476 0.74336,13.318 c 0.016,0.78132 0.63464,1.40072 1.40684,1.40072 z m -26.174,-0.1244 c 0.45568,0 0.82456,-0.3672 0.859,-0.8506 l 1.2086,-13.7596 -1.2086,-13.0892 c -0.032,-0.48352 -0.40196,-0.84792 -0.859,-0.84792 -0.46248,0 -0.83144,0.3672 -0.86032,0.85348 l -1.06408,13.0836 1.06408,13.7584 c 0.032,0.48488 0.398,0.85196 0.86032,0.85196 z m -10.1812,-0.75364 c 0.3332,0 0.60296,-0.2648 0.64148,-0.63036 l 1.35732,-13.2292 -1.35596,-13.728 c -0.04,-0.3672 -0.3096,-0.6318 -0.64284,-0.6318 -0.3372,0 -0.60708,0.266 -0.64148,0.6318 0,0.0018 -1.19484,13.728 -1.19484,13.728 l 1.19484,13.2264 c 0.032,0.3672 0.3028,0.63316 0.64148,0.63316 z m 41.712,-42.864 c -0.83284,0 -1.50048,0.66648 -1.517,1.51996 l -0.67728,27.5044 0.67728,13.2348 c 0.016,0.84248 0.6828,1.5088 1.517,1.5088 0.83148,0 1.49492,-0.66504 1.51424,-1.51848 v 0.012 l 0.75984,-13.2348 -0.75984,-27.5072 C 86.41544,80.8144 85.75268,80.148 84.9212,80.148 Z m -21.1852,43.756 c 0.5754,0 1.05032,-0.47244 1.07788,-1.07516 l 1.0572,-13.6656 -1.0572,-26.156 c -0.028,-0.60412 -0.50248,-1.07516 -1.07788,-1.07516 -0.58092,0 -1.05444,0.47244 -1.07924,1.07516 0,0.0018 -0.93604,26.156 -0.93604,26.156 l 0.93748,13.6712 c 0.024,0.59716 0.49688,1.0696 1.0778,1.0696 z m 11.8056,-1.2898 v -0.012 l 0.90852,-13.4396 -0.90852,-29.2956 c -0.024,-0.7274 -0.59192,-1.29824 -1.29536,-1.29824 -0.70756,0 -1.27744,0.56952 -1.29672,1.29824 l -0.80668,29.2944 0.80808,13.4468 c 0.02,0.72052 0.58912,1.28992 1.29532,1.28992 0.70484,0 1.27196,-0.5694 1.29536,-1.2942 v 0.012 z m 68.716,-30.3336 c -2.15708,0 -4.2152,0.43924 -6.09,1.23032 -1.25264,-14.282 -13.1516,-25.4856 -27.6664,-25.4856 -3.55156,0 -7.0136,0.7038 -10.0712,1.894 -1.18792,0.46276 -1.50456,0.93944 -1.5156,1.8636 v 50.296 c 0.012,0.96984 0.75992,1.77756 1.70008,1.87304 0.04,0.012 43.36,0.028 43.64,0.028 8.6944,0 15.744,-7.0952 15.744,-15.848 0,-8.7524 -7.048,-15.8492 -15.7424,-15.8492 z m -48.56,-20.5408 c -0.94572,0 -1.72212,0.78144 -1.73588,1.7416 l -0.71032,35.6984 0.71168,12.956 c 0.012,0.94632 0.7888,1.7264 1.73452,1.7264 0.94292,0 1.71932,-0.78012 1.73308,-1.74028 v 0.012 l 0.77224,-12.9576 -0.77224,-35.7012 c -0.012,-0.95736 -0.79016,-1.7388 -1.73308,-1.7388 z" />
</svg>
