<?xml version="1.0" encoding="UTF-8" standalone="no"?>
<svg
   xmlns:dc="http://purl.org/dc/elements/1.1/"
   xmlns:cc="http://creativecommons.org/ns#"
   xmlns:rdf="http://www.w3.org/1999/02/22-rdf-syntax-ns#"
   xmlns:svg="http://www.w3.org/2000/svg"
   xmlns="http://www.w3.org/2000/svg"
   xmlns:sodipodi="http://sodipodi.sourceforge.net/DTD/sodipodi-0.dtd"
   xmlns:inkscape="http://www.inkscape.org/namespaces/inkscape"
   width="192"
   height="192"
   version="1"
   id="svg24"
   sodipodi:docname="apps_armorfly_browser.svg"
   inkscape:version="0.92.3 (2405546, 2018-03-11)">
  <metadata
     id="metadata30">
    <rdf:RDF>
      <cc:Work
         rdf:about="">
        <dc:format>image/svg+xml</dc:format>
        <dc:type
           rdf:resource="http://purl.org/dc/dcmitype/StillImage" />
      </cc:Work>
    </rdf:RDF>
  </metadata>
  <defs
     id="defs28">
    <filter
       inkscape:collect="always"
       style="color-interpolation-filters:sRGB"
       id="filter870"
       x="-0.048770297"
       width="1.0975406"
       y="-0.047253657"
       height="1.0945073">
      <feGaussianBlur
         inkscape:collect="always"
         stdDeviation="2.5198164"
         id="feGaussianBlur872" />
    </filter>
    <filter
       inkscape:collect="always"
       style="color-interpolation-filters:sRGB"
       id="filter886"
       x="-0.050666666"
       width="1.1013333"
       y="-0.0456"
       height="1.0912">
      <feGaussianBlur
         inkscape:collect="always"
         stdDeviation="3.04"
         id="feGaussianBlur888" />
    </filter>
  </defs>
  <sodipodi:namedview
     pagecolor="#ffffff"
     bordercolor="#666666"
     borderopacity="1"
     objecttolerance="10"
     gridtolerance="10"
     guidetolerance="10"
     inkscape:pageopacity="0"
     inkscape:pageshadow="2"
     inkscape:window-width="1920"
     inkscape:window-height="1018"
     id="namedview26"
     showgrid="false"
     inkscape:zoom="1"
     inkscape:cx="96"
     inkscape:cy="105.23795"
     inkscape:window-x="0"
     inkscape:window-y="32"
     inkscape:window-maximized="1"
     inkscape:current-layer="svg24" />
  <path
     inkscape:connector-curvature="0"
     id="path2"
     d="m 96.351476,20.004132 a 14.997838,14.846019 0 0 0 -7.849648,1.983136 L 31.498168,54.56986 a 14.997838,14.846019 0 0 0 -7.49817,12.855596 v 65.153594 a 14.997838,14.846019 0 0 0 7.49817,12.85559 l 57.00366,32.5768 a 14.997838,14.846019 0 0 0 14.996342,0 l 57.00366,-32.5768 A 14.997838,14.846019 0 0 0 168,132.57905 V 67.425456 A 14.997838,14.846019 0 0 0 160.50183,54.56986 L 103.49817,21.987268 a 14.997838,14.846019 0 0 0 -7.146694,-1.983136 z"
     style="opacity:0.2;stroke-width:4;filter:url(#filter886)" />
  <path
     inkscape:connector-curvature="0"
     id="path4"
     d="m 96.351476,16.00413 a 14.997838,14.846019 0 0 0 -7.849648,1.983136 L 31.498168,50.56986 a 14.997838,14.846019 0 0 0 -7.49817,12.855596 v 65.153594 a 14.997838,14.846019 0 0 0 7.49817,12.85559 l 57.00366,32.5768 a 14.997838,14.846019 0 0 0 14.996342,0 l 57.00366,-32.5768 A 14.997838,14.846019 0 0 0 168,128.57905 V 63.425456 A 14.997838,14.846019 0 0 0 160.50183,50.56986 L 103.49817,17.987266 A 14.997838,14.846019 0 0 0 96.351476,16.00413 Z"
     style="fill:#31424d;stroke-width:4" />
  <path
     inkscape:connector-curvature="0"
     id="path6"
     d="m 92.289064,67.015624 0.0236,0.0156 c -0.0076,-0.004 -0.016,-0.0034 -0.0236,-0.008 z"
     style="stroke-width:4" />
  <path
     inkscape:connector-curvature="0"
     id="path8"
     d="m 99.710936,67.015624 v 0.008 c -0.0076,0.004 -0.016,0.0035 -0.0236,0.008 z"
     style="stroke-width:4" />
  <path
     inkscape:connector-curvature="0"
     id="path10"
     d="m 92.289064,124.97656 c 0.0048,-0.003 0.0108,0.003 0.0156,0 l -0.0156,0.008 z"
     style="stroke-width:4" />
  <path
     inkscape:connector-curvature="0"
     id="path12"
     d="m 99.695312,124.97656 c 0.0048,0.003 0.0108,-0.003 0.0156,0 v 0.008 z"
     style="stroke-width:4" />
  <path
     style="opacity:0.1;fill:#ffffff;stroke-width:4"
     d="M 96.351562 16.007812 A 14.997838 14.846019 0 0 0 88.5 17.984375 L 31.5 50.570312 A 14.997838 14.846019 0 0 0 24 63.421875 L 24 64.421875 A 14.997838 14.846019 0 0 1 31.5 51.570312 L 88.5 18.984375 A 14.997838 14.846019 0 0 1 96.351562 17.007812 A 14.997838 14.846019 0 0 1 103.5 18.984375 L 160.5 51.570312 A 14.997838 14.846019 0 0 1 168 64.421875 L 168 63.421875 A 14.997838 14.846019 0 0 0 160.5 50.570312 L 103.5 17.984375 A 14.997838 14.846019 0 0 0 96.351562 16.007812 z "
     id="path14" />
  <path
     inkscape:connector-curvature="0"
     id="path16"
     d="m 119.09375,40.311252 c -5.0922,0.184 -6.96875,0.729424 -6.96875,2.023436 0,1.216424 3.30964,7.71094 3.92969,7.71094 0.443,0 0.49283,-0.29088 0.30468,-1.77344 -0.12388,-0.976172 -0.29852,-3.244912 -0.39064,-3.570312 -0.2608,-0.921948 0.84137,-0.744104 3.46875,0.570312 4.02845,2.015352 5.66792,8.402228 6.85937,12.976564 0.58108,2.230876 0.6969,4.53626 0.20312,4.031248 -0.17268,-0.17664 -1.16631,-2.423956 -2.20312,-4.5 -3.41348,-6.834932 -4.39415,-7.021568 -13.14063,-2.53906 C 87.6632,67.280968 71.5001,81.161448 67.374972,92.155 c -1.427024,3.803096 -1.07198,8.06918 0.859376,10.27344 0.716412,0.81765 0.34436,1.47106 -1.320312,2.32031 -7.039412,3.59125 -21.380768,13.88327 -22.429688,16.09375 -1.11768,2.35534 -0.65286,3.20558 5.156248,9.58594 1.264192,1.3885 2.361476,2.54056 3.304688,3.5 2.642548,-8.29575 10.348228,-13.92889 19.054688,-13.92969 11.045696,0 20,8.95431 20,20 8.68e-4,9.73512 -7.00802,18.05673 -16.601564,19.71094 1.481876,1.57393 3.464292,3.70199 4.89844,5.27344 1.654476,1.81286 3.13474,3.29687 3.28906,3.29687 0.15432,0 0.8014,-1.02618 1.4375,-2.28125 5.605124,-11.05915 16.838192,-19.14535 30.671872,-22.07812 12.39936,-2.7795 20.19287,-9.96163 23.4375,-21.13281 1.03221,-3.59194 1.11081,-10.91114 0.15624,-14.51563 -1.28175,-4.01821 -3.15472,-8.57615 -4.52344,-12.28125 0.42834,-0.33052 2.32397,1.075028 4.04688,3.492188 4.30281,6.036882 5.66406,15.072742 5.66406,22.140622 v 2.61719 l 4.73438,0.23436 c 7.38754,0.55888 13.77272,2.64136 18.7891,5.9922 V 67.420628 A 14.997838,14.846019 0 0 0 160.5,54.569064 L 139.85938,42.772188 c -0.52025,0.16448 -1.10357,0.30824 -1.60938,0.476564 l -4.27344,1.421876 -3.5,-1.0625 c -5.08889,-1.546976 -6.33113,-3.479396 -11.38281,-3.296876 z M 99.968752,84.006564 c 0.284638,0.262 -1.576188,3.117668 -6.296876,9.625 -2.50658,3.455256 -4.805192,6.315248 -5.101564,6.359376 -0.29636,0.04408 -0.935764,-0.2174 -1.429688,-0.58594 -0.493924,-0.36852 -1.493732,-0.958756 -2.218748,-1.312496 -1.311336,-0.640024 -1.333484,-0.63994 -3,0.0392 -0.921356,0.3752 -1.774492,0.570108 -1.906252,0.445312 -0.31568,-0.29896 4.239244,-4.223164 8.742188,-7.53906 3.843736,-2.830468 10.937388,-7.283044 11.21094,-7.031252 z"
     style="opacity:0.2;stroke-width:4;filter:url(#filter870)" />
  <path
     inkscape:connector-curvature="0"
     id="path18"
     d="m 119.09375,36.3125 c -5.0922,0.183988 -6.96875,0.729426 -6.96875,2.023438 0,1.216424 3.30964,7.710938 3.92969,7.710938 0.443,0 0.49283,-0.29088 0.30468,-1.77344 -0.12388,-0.976172 -0.29852,-3.244912 -0.39064,-3.570312 -0.2608,-0.921949 0.84137,-0.744104 3.46875,0.570312 4.02845,2.015352 5.66792,8.402228 6.85937,12.976564 0.58108,2.230876 0.6969,4.53626 0.20312,4.031248 -0.17268,-0.17664 -1.16631,-2.423956 -2.20312,-4.5 -3.41348,-6.834932 -4.39415,-7.021568 -13.14063,-2.53906 -23.49302,12.040028 -39.65612,25.920508 -43.781248,36.91406 -1.427024,3.803096 -1.07198,8.069176 0.859376,10.27344 0.716412,0.817652 0.34436,1.471064 -1.320312,2.320312 -7.039412,3.59124 -21.380768,13.88326 -22.429688,16.09375 -1.11768,2.35533 -0.65286,3.20558 5.156248,9.58594 1.264192,1.3885 2.361476,2.54055 3.304688,3.5 C 55.58786,121.63394 63.29354,116.0008 72,116 c 11.045696,0 20,8.9543 20,20 8.68e-4,9.73512 -7.00802,18.05673 -16.601564,19.71094 1.481876,1.57393 3.464292,3.70198 4.89844,5.27344 1.654476,1.81286 3.13474,3.29687 3.28906,3.29687 0.15432,0 0.8014,-1.02618 1.4375,-2.28125 5.605124,-11.05916 16.838194,-19.14535 30.671874,-22.07812 12.39936,-2.7795 20.19287,-9.96163 23.4375,-21.13282 1.03221,-3.59193 1.11081,-10.91114 0.15624,-14.51562 -1.28175,-4.01821 -3.15472,-8.576152 -4.52344,-12.281252 0.42834,-0.33052 2.32397,1.075028 4.04688,3.492188 4.30281,6.036884 5.66406,15.072744 5.66406,22.140624 v 2.61719 l 4.73437,0.23436 c 7.38752,0.55888 13.7727,2.64135 18.78908,5.9922 V 63.421876 A 14.997838,14.846019 0 0 0 160.5,50.570312 L 139.85938,38.773438 C 139.33913,38.937902 138.75581,39.08168 138.25,39.25 l -4.27344,1.421876 -3.5,-1.062501 C 125.38767,38.062399 124.14543,36.12998 119.09375,36.3125 Z M 99.968752,80.007812 c 0.284638,0.262 -1.576188,3.117668 -6.296876,9.625 -2.50658,3.455256 -4.805192,6.315248 -5.101564,6.359376 -0.29636,0.04408 -0.935764,-0.2174 -1.429688,-0.58594 -0.493924,-0.36852 -1.493732,-0.958756 -2.218748,-1.312496 -1.311336,-0.640024 -1.333484,-0.63994 -3,0.0392 -0.921356,0.3752 -1.774492,0.570108 -1.906252,0.445312 -0.31568,-0.29896 4.239244,-4.223164 8.742188,-7.53906 3.843736,-2.830468 10.937388,-7.283044 11.21094,-7.031252 z"
     style="fill:#838e94;stroke-width:4" />
  <path
     style="fill:#ffffff;stroke-width:4;opacity:0.2"
     d="M 119.09375 36.3125 C 114.00155 36.496488 112.125 37.041925 112.125 38.335938 C 112.125 38.451761 112.17954 38.652151 112.23438 38.853516 C 112.69341 37.902664 114.68843 37.47167 119.09375 37.3125 C 124.14543 37.12998 125.38767 39.062399 130.47656 40.609375 L 133.97656 41.671875 L 138.25 40.25 C 138.75581 40.08168 139.33912 39.937902 139.85938 39.773438 L 160.5 51.570312 A 14.997838 14.846019 0 0 1 168 64.421875 L 168 63.421875 A 14.997838 14.846019 0 0 0 160.5 50.570312 L 139.85938 38.773438 C 139.33913 38.937902 138.75581 39.08168 138.25 39.25 L 133.97656 40.671875 L 130.47656 39.609375 C 125.38767 38.062399 124.14543 36.12998 119.09375 36.3125 z M 116.03125 41.220703 C 115.9247 41.313329 115.90382 41.473584 115.96875 41.703125 C 116.06087 42.028525 116.2355 44.297266 116.35938 45.273438 C 116.38728 45.493298 116.39909 45.638211 116.41602 45.808594 C 116.49291 45.571605 116.4669 45.12073 116.35938 44.273438 C 116.2563 43.461229 116.12783 41.958665 116.03125 41.220703 z M 119.03125 48.205078 C 117.32348 48.213034 114.98283 49.28109 111.15625 51.242188 C 87.66323 63.282215 71.500128 77.162698 67.375 88.15625 C 66.740823 89.846367 66.477629 91.62009 66.529297 93.271484 C 66.595417 91.915912 66.8677 90.508232 67.375 89.15625 C 71.500128 78.162698 87.66323 64.282215 111.15625 52.242188 C 119.90273 47.759679 120.88339 47.946318 124.29688 54.78125 C 125.33369 56.857294 126.32732 59.10461 126.5 59.28125 C 126.76759 59.554924 126.84093 58.97452 126.77344 58.056641 C 126.72959 58.316313 126.64411 58.428642 126.5 58.28125 C 126.32732 58.10461 125.33369 55.857294 124.29688 53.78125 C 122.37679 49.936601 121.22696 48.194849 119.03125 48.205078 z M 99.96875 81.007812 C 99.932032 80.974015 99.756168 81.03583 99.498047 81.15625 C 98.722044 82.523639 96.913244 85.164679 93.671875 89.632812 C 91.165295 93.088069 88.866684 95.94806 88.570312 95.992188 C 88.273952 96.036267 87.634549 95.77479 87.140625 95.40625 C 86.646701 95.03773 85.646891 94.44749 84.921875 94.09375 C 83.610539 93.453726 83.588391 93.453673 81.921875 94.132812 C 81.544788 94.286372 81.192268 94.398819 80.882812 94.482422 C 80.275458 95.075402 79.924099 95.491447 80.015625 95.578125 C 80.147385 95.702921 81.000519 95.508013 81.921875 95.132812 C 83.588391 94.453673 83.610539 94.453726 84.921875 95.09375 C 85.646891 95.44749 86.646701 96.03773 87.140625 96.40625 C 87.634549 96.77479 88.273952 97.036267 88.570312 96.992188 C 88.866684 96.94806 91.165295 94.088069 93.671875 90.632812 C 98.392563 84.12548 100.25339 81.269813 99.96875 81.007812 z M 134.99219 92.947266 C 134.896 92.935743 134.81917 92.950873 134.76562 92.992188 C 136.13435 96.697288 138.00731 101.25523 139.28906 105.27344 C 139.72264 106.91062 139.93253 109.31846 139.94727 111.79102 C 139.99365 108.97686 139.78136 106.13237 139.28906 104.27344 C 138.11432 100.59068 136.47306 96.515445 135.14844 92.998047 C 135.09684 92.982309 135.03593 92.952505 134.99219 92.947266 z M 68.402344 99.662109 C 68.165202 100.00669 67.683882 100.35727 66.914062 100.75 C 59.874651 104.34124 45.533295 114.63326 44.484375 116.84375 C 44.100335 117.65305 43.912449 118.28803 44.054688 119.02734 C 44.130279 118.65449 44.280114 118.2742 44.484375 117.84375 C 45.533295 115.63326 59.874651 105.34124 66.914062 101.75 C 68.417107 100.98321 68.856618 100.37464 68.402344 99.662109 z M 91.984375 136.35742 C 91.814699 145.93686 84.873362 154.07718 75.398438 155.71094 C 75.632051 155.95906 75.915538 156.27165 76.169922 156.54297 C 85.361483 154.58391 92.000844 146.46961 92 137 C 92 136.78451 91.99114 136.57127 91.984375 136.35742 z "
     id="path853" />
</svg>
