<?xml version="1.0" encoding="UTF-8" standalone="no"?>
<svg
   xmlns:dc="http://purl.org/dc/elements/1.1/"
   xmlns:cc="http://creativecommons.org/ns#"
   xmlns:rdf="http://www.w3.org/1999/02/22-rdf-syntax-ns#"
   xmlns:svg="http://www.w3.org/2000/svg"
   xmlns="http://www.w3.org/2000/svg"
   xmlns:sodipodi="http://sodipodi.sourceforge.net/DTD/sodipodi-0.dtd"
   xmlns:inkscape="http://www.inkscape.org/namespaces/inkscape"
   width="192"
   height="192"
   version="1"
   id="svg14"
   sodipodi:docname="apps_skype.svg"
   inkscape:version="0.92.3 (2405546, 2018-03-11)">
  <metadata
     id="metadata20">
    <rdf:RDF>
      <cc:Work
         rdf:about="">
        <dc:format>image/svg+xml</dc:format>
        <dc:type
           rdf:resource="http://purl.org/dc/dcmitype/StillImage" />
      </cc:Work>
    </rdf:RDF>
  </metadata>
  <defs
     id="defs18">
    <filter
       inkscape:collect="always"
       style="color-interpolation-filters:sRGB"
       id="filter860"
       x="-0.048"
       width="1.096"
       y="-0.048"
       height="1.096">
      <feGaussianBlur
         inkscape:collect="always"
         stdDeviation="3.2"
         id="feGaussianBlur862" />
    </filter>
    <filter
       inkscape:collect="always"
       style="color-interpolation-filters:sRGB"
       id="filter835"
       x="-0.053052632"
       width="1.1061053"
       y="-0.043826087"
       height="1.0876522">
      <feGaussianBlur
         inkscape:collect="always"
         stdDeviation="1.68"
         id="feGaussianBlur837" />
    </filter>
  </defs>
  <sodipodi:namedview
     pagecolor="#ffffff"
     bordercolor="#666666"
     borderopacity="1"
     objecttolerance="10"
     gridtolerance="10"
     guidetolerance="10"
     inkscape:pageopacity="0"
     inkscape:pageshadow="2"
     inkscape:window-width="1920"
     inkscape:window-height="1018"
     id="namedview16"
     showgrid="false"
     inkscape:zoom="2.67"
     inkscape:cx="19.343135"
     inkscape:cy="111.55665"
     inkscape:window-x="0"
     inkscape:window-y="32"
     inkscape:window-maximized="1"
     inkscape:current-layer="svg14">
    <inkscape:grid
       type="xygrid"
       id="grid838" />
  </sodipodi:namedview>
  <path
     d="m 59.407093,20.001264 c -23.999166,0 -43.407092,19.425207 -43.407092,43.393557 0,7.40461 1.877844,14.5688 5.14704,20.674887 -1.083599,5.170091 -1.680788,10.432812 -1.680788,15.917006 0,42.239876 34.268823,76.505036 76.578211,76.505036 5.461146,0 10.749666,-0.57856 15.896706,-1.66184 C 118.07349,178.14746 125.1473,180 132.59712,180 156.59334,180.00421 176,160.5769 176,136.61065 c 0,-7.45387 -1.87785,-14.5688 -5.17188,-20.69931 1.0836,-5.14567 1.66234,-10.43281 1.66234,-15.89216 0,-42.218826 -34.26882,-76.505042 -76.527682,-76.505042 -5.485571,0 -10.774508,0.553935 -15.921548,1.661848 C 73.927437,21.90189 66.760993,20.000001 59.354545,20.000001"
     id="path840"
     inkscape:connector-curvature="0"
     style="opacity:0.2;fill:#000000;stroke-width:4.21055794;filter:url(#filter860)" />
  <path
     style="fill:#2d9cf2;stroke-width:4.21055794"
     inkscape:connector-curvature="0"
     id="path2"
     d="m 59.407093,16.001265 c -23.999166,0 -43.407092,19.425207 -43.407092,43.393557 0,7.40461 1.877844,14.5688 5.14704,20.674887 -1.083599,5.170091 -1.680788,10.432812 -1.680788,15.917006 0,42.239875 34.268823,76.505035 76.578211,76.505035 5.461146,0 10.749666,-0.57856 15.896706,-1.66184 C 118.07349,174.14746 125.1473,176 132.59712,176 156.59334,176.00421 176,156.5769 176,132.61065 c 0,-7.45387 -1.87785,-14.5688 -5.17188,-20.69931 1.0836,-5.14567 1.66234,-10.43281 1.66234,-15.892161 0,-42.218824 -34.26882,-76.50504 -76.527682,-76.50504 -5.485571,0 -10.774508,0.553935 -15.921548,1.661848 -6.113793,-3.274096 -13.280237,-5.175985 -20.686685,-5.175985" />
  <path
     d="m 94.56213,52 c 23.07516,0 34.98387,11.990164 34.98387,19.026942 0,7.060196 -3.4348,8.116528 -9.098,8.116528 -11.00558,0 -6.50133,-13.046496 -27.115798,-13.046496 -6.822228,0 -15.343891,3.069427 -15.343891,10.910414 0,6.303283 7.54718,8.621276 20.870329,11.85509 C 118.9352,94.156685 134,99.429982 134,117.56661 134,135.17215 119.42497,144 96.346431,144 73.27127,144 58.533685,130.42534 58.533685,123.38856 c 0,-7.03677 2.715762,-8.80318 8.378955,-8.80318 11.023315,0 9.537946,14.80705 30.152409,14.80705 6.845871,0 16.948341,-3.06943 16.948341,-10.93383 0,-6.27987 -0.53484,-8.45693 -15.159395,-12.33643 C 83.231859,104.03963 58,99.038144 58,79.872783 58,62.267247 71.506813,52.017564 94.581129,52.017564"
     id="path821"
     inkscape:connector-curvature="0"
     style="opacity:0.2;fill:#000000;stroke-width:4.20196962;filter:url(#filter835)" />
  <path
     style="fill:#ffffff;stroke-width:4.20196962"
     inkscape:connector-curvature="0"
     id="path6"
     d="m 94.56213,50 c 23.07516,0 34.98387,11.990164 34.98387,19.026942 0,7.060196 -3.4348,8.116528 -9.098,8.116528 -11.00558,0 -6.50133,-13.046496 -27.115798,-13.046496 -6.822228,0 -15.343891,3.069427 -15.343891,10.910414 0,6.303283 7.54718,8.621276 20.870329,11.85509 C 118.9352,92.156685 134,97.429982 134,115.56661 134,133.17215 119.42497,142 96.346431,142 73.27127,142 58.533685,128.42534 58.533685,121.38856 c 0,-7.03677 2.715762,-8.80318 8.378955,-8.80318 11.023315,0 9.537946,14.80705 30.152409,14.80705 6.845871,0 16.948341,-3.06943 16.948341,-10.93383 0,-6.27987 -0.53484,-8.45693 -15.159395,-12.33643 C 83.231859,102.03963 58,97.038144 58,77.872783 58,60.267247 71.506813,50.017564 94.581129,50.017564" />
  <path
     style="fill:#ffffff;stroke-width:4.21055794;opacity:0.2"
     d="M 59.40625 16.001953 C 35.407084 16.001953 16 35.426181 16 59.394531 C 16 59.543011 16.012166 59.68961 16.013672 59.837891 C 16.312869 36.127442 35.594082 17.001953 59.40625 17.001953 C 66.794579 17.010669 73.941268 18.909207 80.041016 22.175781 C 85.188056 21.067868 90.47732 20.513672 95.962891 20.513672 C 138.05113 20.513672 172.20919 54.525635 172.48438 96.509766 C 172.48542 96.346011 172.49023 96.183596 172.49023 96.019531 C 172.49023 53.800707 138.22175 19.513672 95.962891 19.513672 C 90.47732 19.513672 85.188056 20.067868 80.041016 21.175781 C 73.941268 17.909207 66.794579 16.010669 59.40625 16.001953 z M 21.011719 80.798828 C 20.022355 85.735761 19.466797 90.7585 19.466797 95.986328 C 19.466797 96.15671 19.471543 96.325973 19.472656 96.496094 C 19.507246 91.188834 20.095326 86.085624 21.146484 81.070312 C 21.099027 80.981674 21.058588 80.88791 21.011719 80.798828 z M 170.96875 112.19531 C 170.92082 112.43382 170.87822 112.67421 170.82812 112.91211 C 174.05618 118.91984 175.9128 125.87499 175.98633 133.16602 C 175.98866 132.98048 176 132.79741 176 132.61133 C 176 125.26996 174.17085 118.26242 170.96875 112.19531 z "
     id="path884" />
</svg>
