<?xml version="1.0" encoding="UTF-8" standalone="no"?>
<svg
   xmlns:dc="http://purl.org/dc/elements/1.1/"
   xmlns:cc="http://creativecommons.org/ns#"
   xmlns:rdf="http://www.w3.org/1999/02/22-rdf-syntax-ns#"
   xmlns:svg="http://www.w3.org/2000/svg"
   xmlns="http://www.w3.org/2000/svg"
   xmlns:sodipodi="http://sodipodi.sourceforge.net/DTD/sodipodi-0.dtd"
   xmlns:inkscape="http://www.inkscape.org/namespaces/inkscape"
   width="192"
   height="192"
   version="1"
   id="svg14"
   sodipodi:docname="apps_green_banana_music.svg"
   inkscape:version="0.92.3 (2405546, 2018-03-11)">
  <metadata
     id="metadata20">
    <rdf:RDF>
      <cc:Work
         rdf:about="">
        <dc:format>image/svg+xml</dc:format>
        <dc:type
           rdf:resource="http://purl.org/dc/dcmitype/StillImage" />
      </cc:Work>
    </rdf:RDF>
  </metadata>
  <defs
     id="defs18">
    <filter
       inkscape:collect="always"
       style="color-interpolation-filters:sRGB"
       id="filter850"
       x="-0.048"
       width="1.096"
       y="-0.048"
       height="1.096">
      <feGaussianBlur
         inkscape:collect="always"
         stdDeviation="3.2"
         id="feGaussianBlur852" />
    </filter>
    <filter
       inkscape:collect="always"
       style="color-interpolation-filters:sRGB"
       id="filter866"
       x="-0.08640029"
       width="1.1728006"
       y="-0.033230726"
       height="1.0664615">
      <feGaussianBlur
         inkscape:collect="always"
         stdDeviation="1.4399981"
         id="feGaussianBlur868" />
    </filter>
  </defs>
  <sodipodi:namedview
     pagecolor="#ffffff"
     bordercolor="#666666"
     borderopacity="1"
     objecttolerance="10"
     gridtolerance="10"
     guidetolerance="10"
     inkscape:pageopacity="0"
     inkscape:pageshadow="2"
     inkscape:window-width="1920"
     inkscape:window-height="1018"
     id="namedview16"
     showgrid="false"
     inkscape:zoom="1"
     inkscape:cx="96"
     inkscape:cy="96"
     inkscape:window-x="0"
     inkscape:window-y="32"
     inkscape:window-maximized="1"
     inkscape:current-layer="svg14" />
  <circle
     style="opacity:0.2;fill:#000000;stroke-width:4;filter:url(#filter850)"
     cx="96"
     cy="100"
     r="80"
     id="circle832" />
  <circle
     id="circle2"
     r="80"
     cy="96"
     cx="96"
     style="fill:#3f3f3f;stroke-width:4" />
  <path
     style="opacity:0.1;fill:#ffffff;stroke-width:4"
     d="M 95.998047 16 A 80 80 0 0 0 16 96 A 80 80 0 0 0 16.017578 96.490234 A 80 80 0 0 1 95.998047 17 L 96 17 A 80 80 0 0 1 175.97266 96.5 A 80 80 0 0 0 175.99805 96 A 80 80 0 0 0 96 16 L 95.998047 16 z "
     id="path4" />
  <path
     inkscape:connector-curvature="0"
     id="path8"
     d="m 99.718752,47.000005 c -2.535844,0 -6.646864,2.018896 -7.914784,4.4375 -4.226404,6.852712 -4.222576,19.748972 -2.109376,28.617188 0,0 -2.113364,2.018896 -4.22656,4.4375 -4.226412,4.434108 -6.879032,9.269136 -8.569596,15.718757 -2.1132,7.25581 -0.42248,14.10344 4.226564,19.34375 5.071684,6.04651 12.67848,8.8687 21.97656,8.0625 1.69056,7.65891 2.95772,12.49558 0.42188,16.92969 -3.52344,4.0133 -7.52344,2.45312 -7.914064,1.59374 2.693212,-1.36155 4.391044,-4.1228 4.390624,-7.14062 -0.0022,-0.51686 -0.05456,-1.0323 -0.15624,-1.53906 -0.0108,-0.0556 -0.0272,-0.10892 -0.0392,-0.16408 -0.09416,-0.43726 -0.22484,-0.86584 -0.39064,-1.28126 -0.04164,-0.1034 -0.08704,-0.20348 -0.1328,-0.30468 -0.17528,-0.39092 -0.38168,-0.76713 -0.617184,-1.125 -0.0332,-0.0504 -0.06708,-0.0989 -0.10156,-0.14844 -0.26272,-0.38168 -0.5581,-0.73978 -0.882812,-1.07031 -0.026,-0.0236 -0.05192,-0.047 -0.07812,-0.0703 -0.33484,-0.33084 -0.698232,-0.63149 -1.08594,-0.89844 h -0.008 c -0.04188,-0.0288 -0.08256,-0.0581 -0.125,-0.0859 -0.36512,-0.23932 -0.749212,-0.44835 -1.148436,-0.625 -0.08232,-0.0364 -0.16624,-0.0678 -0.25,-0.10156 -0.444736,-0.18164 -0.904928,-0.3228 -1.375,-0.42187 -0.528612,-0.10896 -1.068444,-0.16393 -1.609068,-0.1641 -0.516864,0.002 -1.032296,0.0546 -1.539064,0.15624 -0.05556,0.0108 -0.10892,0.0272 -0.16408,0.0392 -0.437252,0.0942 -0.86584,0.22484 -1.281252,0.39064 -0.1034,0.0416 -0.20348,0.087 -0.30468,0.1328 -0.39092,0.17528 -0.767132,0.38168 -1.125,0.61718 -0.05036,0.0332 -0.09888,0.0671 -0.14844,0.10156 -0.38168,0.26272 -0.73978,0.5581 -1.070312,0.88282 -0.0248,0.0248 -0.04572,0.0531 -0.07032,0.0781 -0.33084,0.33484 -0.631492,0.69823 -0.89844,1.08594 v 0.008 c -0.0288,0.0419 -0.05808,0.0826 -0.08592,0.125 -0.23932,0.36512 -0.448352,0.74921 -0.625,1.14843 -0.0364,0.0823 -0.0678,0.16624 -0.10156,0.25 -0.18164,0.44474 -0.3228,0.90493 -0.421872,1.375 -0.108916,0.52863 -0.163892,1.06847 -0.16406,1.60909 0.0038,0.53566 0.06136,1.06959 0.17188,1.59375 0.83166,6.89123 6.82912,10.30838 13.015624,10.40625 4.649046,0 9.293816,-1.61289 10.984376,-8.0625 1.69056,-5.24031 -1.26486,-13.70173 -1.6875,-16.52344 4.64904,-2.0155 8.87424,-8.06274 9.29687,-12.09375 0.84529,-4.43411 -0.8462,-9.67678 -3.80468,-13.30469 -2.95849,-3.224805 -7.18615,-5.239037 -12.257814,-4.835937 -0.422648,-0.806204 -2.640232,-11.521468 -2.640232,-11.521468 0,0 4.448996,-5.81144 5.716916,-7.423844 6.3396,-9.67442 6.75688,-17.333276 2.95312,-24.992188 -1.26793,-2.821704 -2.64869,-5.242188 -6.029808,-5.242188 z m 0.914058,8 c 3.02683,0.04392 3.28008,3.160112 3.35938,5.281248 0.21048,5.630888 -5.225158,12.454928 -7.835942,14.718752 -0.596232,-8.089496 0.443384,-20.0585 4.476562,-20 z m -6.980134,33.744252 c 0.42264,2.015508 1.84656,7.033968 2.2692,8.646372 C 90.850192,99.406135 87.57736,105.85345 88,111.09376 c 0.1526,3.24365 0.487488,8.24123 2.890624,7.90625 1.35972,-0.18952 1.234096,-3.56047 0.843752,-5.49219 -0.42264,-3.62791 2.916516,-6.44695 5.875,-7.65625 0.42264,2.41861 3.382044,14.91267 3.804684,17.73438 -5.49432,1.6124 -11.414984,-2.4e-4 -15.218748,-4.03125 -2.95848,-2.82171 -4.227328,-6.85181 -3.804688,-10.88281 1.561296,-8.952385 5.692452,-13.847925 11.262052,-19.927633 z m 7.761384,15.896373 c 5.49432,0 7.18674,4.43448 7.60938,6.04688 1.26792,4.43411 -9.3e-4,8.87046 -3.80469,11.28906 -0.84529,-2.8217 -1.27191,-6.04396 -2.11719,-9.67187 -0.42264,-2.41861 -0.84222,-5.24546 -1.6875,-7.66407 z"
     style="opacity:0.2;stroke-width:4;filter:url(#filter866)" />
  <path
     inkscape:connector-curvature="0"
     id="path10"
     d="m 99.718752,43.000005 c -2.535844,0 -6.646864,2.018896 -7.914784,4.4375 -4.226404,6.852712 -4.222576,19.748972 -2.109376,28.617188 0,0 -2.113364,2.018896 -4.22656,4.4375 -4.226412,4.434108 -6.879032,9.269136 -8.569596,15.718748 -2.1132,7.255819 -0.42248,14.103449 4.226564,19.343759 5.071684,6.04651 12.67848,8.8687 21.97656,8.0625 1.69056,7.65891 2.95772,12.49558 0.42188,16.92969 -3.52344,4.0133 -7.52344,2.45312 -7.914064,1.59374 2.693212,-1.36155 4.391044,-4.1228 4.390624,-7.14062 -0.0022,-0.51686 -0.05456,-1.0323 -0.15624,-1.53906 -0.0108,-0.0556 -0.0272,-0.10892 -0.0392,-0.16408 -0.09416,-0.43726 -0.22484,-0.86584 -0.39064,-1.28126 -0.04164,-0.1034 -0.08704,-0.20348 -0.1328,-0.30468 -0.17528,-0.39092 -0.38168,-0.76713 -0.617184,-1.125 -0.0332,-0.0504 -0.06708,-0.0989 -0.10156,-0.14844 -0.26272,-0.38168 -0.5581,-0.73978 -0.882812,-1.07031 -0.026,-0.0236 -0.05192,-0.047 -0.07812,-0.0703 -0.33484,-0.33084 -0.698232,-0.63149 -1.08594,-0.89844 h -0.008 c -0.04188,-0.0288 -0.08256,-0.0581 -0.125,-0.0859 -0.36512,-0.23932 -0.749212,-0.44835 -1.148436,-0.625 -0.08232,-0.0364 -0.16624,-0.0678 -0.25,-0.10156 -0.444736,-0.18164 -0.904928,-0.3228 -1.375,-0.42187 -0.528612,-0.10896 -1.068444,-0.16393 -1.609068,-0.1641 -0.516864,0.002 -1.032296,0.0546 -1.539064,0.15624 -0.05556,0.0108 -0.10892,0.0272 -0.16408,0.0392 -0.437252,0.0942 -0.86584,0.22484 -1.281252,0.39064 -0.1034,0.0416 -0.20348,0.087 -0.30468,0.1328 -0.39092,0.17528 -0.767132,0.38168 -1.125,0.61718 -0.05036,0.0332 -0.09888,0.0671 -0.14844,0.10156 -0.38168,0.26272 -0.73978,0.5581 -1.070312,0.88282 -0.0248,0.0248 -0.04572,0.0531 -0.07032,0.0781 -0.33084,0.33484 -0.631492,0.69823 -0.89844,1.08594 v 0.008 c -0.0288,0.0419 -0.05808,0.0826 -0.08592,0.125 -0.23932,0.36512 -0.448352,0.74921 -0.625,1.14843 -0.0364,0.0823 -0.0678,0.16624 -0.10156,0.25 -0.18164,0.44474 -0.3228,0.90493 -0.421872,1.375 -0.108916,0.52863 -0.163892,1.06847 -0.16406,1.60909 0.0038,0.53566 0.06136,1.06959 0.17188,1.59375 0.83166,6.89123 6.82912,10.30838 13.015624,10.40625 4.649046,0 9.293816,-1.61289 10.984376,-8.0625 1.69056,-5.24031 -1.26486,-13.70173 -1.6875,-16.52344 4.64904,-2.0155 8.87424,-8.06274 9.29687,-12.09375 0.84529,-4.43411 -0.8462,-9.67678 -3.80468,-13.304691 -2.95849,-3.224804 -7.18615,-5.239036 -12.257814,-4.835936 -0.422648,-0.806204 -2.640232,-11.521468 -2.640232,-11.521468 0,0 4.448996,-5.81144 5.716916,-7.423844 6.3396,-9.67442 6.75688,-17.333276 2.95312,-24.992188 -1.26793,-2.821704 -2.64869,-5.242188 -6.029808,-5.242188 z m 0.914058,8 c 3.02683,0.04392 3.28008,3.160112 3.35938,5.281248 0.21048,5.630888 -5.225158,12.454928 -7.835942,14.718752 -0.596232,-8.089496 0.443384,-20.0585 4.476562,-20 z m -6.980134,33.744252 c 0.42264,2.015508 1.84656,7.033968 2.2692,8.646372 C 90.850192,95.406133 87.57736,101.85345 88,107.09376 c 0.1526,3.24365 0.487488,8.24123 2.890624,7.90625 1.35972,-0.18952 1.234096,-3.56047 0.843752,-5.49219 -0.42264,-3.62791 2.916516,-6.44695 5.875,-7.65625 0.42264,2.41861 3.382044,14.91267 3.804684,17.73438 -5.49432,1.6124 -11.414984,-2.4e-4 -15.218748,-4.03125 -2.95848,-2.82171 -4.227328,-6.85181 -3.804688,-10.88281 1.561296,-8.952385 5.692452,-13.847925 11.262052,-19.927633 z m 7.761384,15.896373 c 5.49432,0 7.18674,4.43448 7.60938,6.04688 1.26792,4.43411 -9.3e-4,8.87046 -3.80469,11.28906 -0.84529,-2.8217 -1.27191,-6.04396 -2.11719,-9.67187 -0.42264,-2.41861 -0.84222,-5.24546 -1.6875,-7.66407 z"
     style="fill:#43fa62;stroke-width:4" />
  <path
     style="opacity:0.2;fill:#ffffff;stroke-width:4"
     d="m 99.71875,43.000005 c -2.535844,0 -6.646142,2.018896 -7.914062,4.4375 -2.496562,4.047937 -3.508666,10.204929 -3.490235,16.394531 0.08969,-5.847049 1.128189,-11.564699 3.490235,-15.394531 1.26792,-2.418604 5.378218,-4.4375 7.914062,-4.4375 3.38112,0 4.76137,2.420484 6.0293,5.242188 1.52745,3.075544 2.36004,6.153329 2.41601,9.359374 0.12056,-3.569932 -0.73016,-6.964899 -2.41601,-10.359374 -1.26793,-2.821704 -2.64818,-5.242188 -6.0293,-5.242188 z m 4.25781,13.964844 c -0.21845,5.488488 -5.313931,11.861862 -7.82031,14.035156 -0.07119,-0.96591 -0.116436,-1.991564 -0.138672,-3.041016 0.0078,1.3985 0.04514,2.772042 0.138672,4.041016 2.610784,-2.263824 8.04642,-9.087862 7.83594,-14.71875 -0.004,-0.100581 -0.0108,-0.211784 -0.0156,-0.316406 z M 89.515625,76.232427 c -0.258182,0.248356 -2.077014,2.005212 -4.046875,4.259766 -4.226412,4.434107 -6.879748,9.269137 -8.570312,15.71875 -0.669841,2.299941 -0.954351,4.558557 -0.886719,6.738287 0.03465,-1.8685 0.318558,-3.787475 0.886719,-5.738287 1.690564,-6.449613 4.3439,-11.284643 8.570312,-15.71875 2.113196,-2.418605 4.226562,-4.4375 4.226562,-4.4375 -0.06363,-0.267049 -0.119936,-0.548188 -0.179687,-0.822266 z m 7.728516,5.208984 c -0.0074,0.0096 -0.166016,0.216797 -0.166016,0.216797 0,0 2.217977,10.715281 2.640625,11.521485 5.07166,-0.4031 9.29932,1.611133 12.25781,4.835937 2.34309,2.87327 3.88496,6.758 4.00782,10.45313 0.15345,-3.98147 -1.45239,-8.31947 -4.00782,-11.45313 -2.95849,-3.224804 -7.18615,-5.239037 -12.25781,-4.835937 -0.392335,-0.748382 -2.198485,-9.409965 -2.474609,-10.738282 z m -1.564453,12.060547 c -4.795262,2.064714 -7.909473,8.088492 -7.695313,13.160162 0.202747,-4.92749 3.319002,-10.436083 7.9375,-12.27149 -0.04502,-0.171756 -0.176865,-0.647366 -0.242187,-0.888672 z m 5.734372,8.138672 c 0.84528,2.41862 1.26486,5.24546 1.6875,7.66407 0.84528,3.62791 1.2719,6.85017 2.11719,9.67187 2.9999,-1.90747 4.41614,-5.07141 4.26172,-8.49804 -0.13994,3.03505 -1.55617,5.77774 -4.26172,7.49804 -0.84529,-2.8217 -1.27191,-6.04396 -2.11719,-9.67187 -0.36547,-2.09148 -0.74661,-4.47438 -1.38476,-6.64844 -0.10262,-0.003 -0.19734,-0.0156 -0.30274,-0.0156 z m -19.076169,5.03907 c -0.128671,3.68682 1.145791,7.28873 3.857421,9.875 3.803765,4.03101 9.72443,5.64365 15.218748,4.03125 -0.0278,-0.18531 -0.1393,-0.68803 -0.1875,-0.95117 -5.44129,1.52197 -11.270585,-0.0948 -15.031248,-4.08008 -2.465391,-2.35142 -3.739799,-5.54405 -3.857421,-8.875 z m 9.390625,2.72265 c -0.03312,0.36006 -0.03825,0.72689 0.0059,1.10547 0.122516,0.60631 0.211523,1.35457 0.244141,2.10157 0.04846,-1.0425 -0.06586,-2.21929 -0.244141,-3.10157 -0.0042,-0.0357 -0.0024,-0.0699 -0.0059,-0.10547 z m 14.939454,13.92188 c -0.0615,0.0281 -0.12195,0.0631 -0.18359,0.0898 0.31632,2.11194 2.05121,7.38226 2.19531,12.09766 0.0942,-4.40905 -1.43295,-9.51588 -2.01172,-12.1875 z M 92,127.00001 c -0.516864,0.002 -1.032294,0.0546 -1.539062,0.15625 -0.05556,0.0108 -0.108903,0.0271 -0.164063,0.0391 -0.437252,0.0942 -0.865838,0.22483 -1.28125,0.39063 -0.1034,0.0416 -0.203488,0.087 -0.304687,0.13281 -0.39092,0.17528 -0.767133,0.38169 -1.125,0.61719 -0.05036,0.0332 -0.09888,0.0671 -0.148438,0.10156 -0.38168,0.26272 -0.739781,0.55809 -1.070312,0.88281 -0.0248,0.0248 -0.04571,0.0531 -0.07031,0.0781 -0.33084,0.33484 -0.631489,0.69823 -0.898437,1.08594 v 0.008 c -0.0288,0.0419 -0.0581,0.0826 -0.08594,0.125 -0.23932,0.36512 -0.448352,0.74921 -0.625,1.14843 -0.0364,0.0823 -0.0678,0.16625 -0.101562,0.25 -0.181641,0.44474 -0.322804,0.90494 -0.421876,1.375 -0.108916,0.52864 -0.163894,1.06876 -0.164062,1.60938 0.0011,0.15547 0.0172,0.30986 0.02734,0.46484 0.02432,-0.3606 0.06385,-0.72052 0.136718,-1.07422 0.09907,-0.47006 0.240235,-0.93026 0.421876,-1.375 0.03376,-0.0837 0.06516,-0.16769 0.101562,-0.25 0.176648,-0.39922 0.38568,-0.78331 0.625,-1.14843 0.02784,-0.0424 0.05714,-0.0831 0.08594,-0.125 v -0.008 c 0.266948,-0.38771 0.567597,-0.7511 0.898437,-1.08594 0.0246,-0.025 0.04551,-0.0533 0.07031,-0.0781 0.330531,-0.32472 0.688632,-0.62009 1.070312,-0.88281 0.04956,-0.0345 0.09808,-0.0684 0.148438,-0.10156 0.357867,-0.2355 0.73408,-0.44191 1.125,-0.61719 0.101199,-0.0458 0.201287,-0.0912 0.304687,-0.13281 0.415412,-0.1658 0.843998,-0.29643 1.28125,-0.39063 0.05516,-0.012 0.108503,-0.0283 0.164063,-0.0391 0.506768,-0.10164 1.022198,-0.15425 1.539062,-0.15625 0.540624,1.7e-4 1.080763,0.0551 1.609375,0.16406 0.470072,0.0991 0.930264,0.24024 1.375,0.42188 0.08376,0.0338 0.16768,0.0652 0.25,0.10156 0.399224,0.17665 0.783317,0.38568 1.148437,0.625 0.04244,0.0278 0.08312,0.0571 0.125,0.0859 h 0.0078 c 0.387708,0.26695 0.751098,0.5676 1.085937,0.89844 0.0262,0.0233 0.05213,0.0467 0.07813,0.0703 0.324712,0.33053 0.620092,0.68863 0.882812,1.07031 0.03448,0.0495 0.06836,0.098 0.101562,0.14844 0.235505,0.35787 0.441908,0.73408 0.617188,1.125 0.04576,0.1012 0.09117,0.20129 0.132812,0.30468 0.1658,0.41543 0.296465,0.84399 0.390626,1.28126 0.012,0.0552 0.02826,0.10846 0.03906,0.16406 0.06432,0.32058 0.102317,0.64501 0.126953,0.9707 0.0078,-0.1444 0.02932,-0.28591 0.0293,-0.43164 -0.0022,-0.51686 -0.05457,-1.0323 -0.15625,-1.53906 -0.0108,-0.0556 -0.02706,-0.1089 -0.03906,-0.16406 -0.09416,-0.43727 -0.224826,-0.86583 -0.390626,-1.28126 -0.04164,-0.10339 -0.08705,-0.20348 -0.132812,-0.30468 -0.17528,-0.39092 -0.381683,-0.76713 -0.617188,-1.125 -0.0332,-0.0504 -0.06708,-0.0989 -0.101562,-0.14844 -0.26272,-0.38168 -0.5581,-0.73978 -0.882812,-1.07031 -0.026,-0.0236 -0.05192,-0.047 -0.07813,-0.0703 -0.334839,-0.33084 -0.698229,-0.63149 -1.085937,-0.89844 h -0.0078 c -0.04188,-0.0288 -0.08256,-0.0581 -0.125,-0.0859 -0.36512,-0.23932 -0.749213,-0.44835 -1.148437,-0.625 -0.08232,-0.0364 -0.16624,-0.0678 -0.25,-0.10156 -0.444736,-0.18164 -0.904928,-0.32281 -1.375,-0.42188 C 93.080763,127.05511 92.540624,127.00018 92,127.00001 Z m 12.94922,8.26172 c -0.0596,1.90361 -0.47484,3.62236 -1.42578,5.28516 -2.78207,3.16885 -5.832357,2.85809 -7.197268,2.16601 -0.232843,0.15004 -0.466144,0.30102 -0.716797,0.42773 0.390624,0.85939 4.390623,2.41955 7.914065,-1.59374 1.11437,-1.94858 1.49344,-3.97576 1.42578,-6.28516 z"
     id="path873"
     inkscape:connector-curvature="0" />
</svg>
