<?xml version="1.0" encoding="UTF-8" standalone="no"?>
<svg
   xmlns:dc="http://purl.org/dc/elements/1.1/"
   xmlns:cc="http://creativecommons.org/ns#"
   xmlns:rdf="http://www.w3.org/1999/02/22-rdf-syntax-ns#"
   xmlns:svg="http://www.w3.org/2000/svg"
   xmlns="http://www.w3.org/2000/svg"
   xmlns:sodipodi="http://sodipodi.sourceforge.net/DTD/sodipodi-0.dtd"
   xmlns:inkscape="http://www.inkscape.org/namespaces/inkscape"
   width="192"
   height="192"
   version="1"
   id="svg12"
   sodipodi:docname="apps_foursquare.svg"
   inkscape:version="0.92.3 (2405546, 2018-03-11)">
  <metadata
     id="metadata18">
    <rdf:RDF>
      <cc:Work
         rdf:about="">
        <dc:format>image/svg+xml</dc:format>
        <dc:type
           rdf:resource="http://purl.org/dc/dcmitype/StillImage" />
        <dc:title></dc:title>
      </cc:Work>
    </rdf:RDF>
  </metadata>
  <defs
     id="defs16">
    <filter
       inkscape:collect="always"
       style="color-interpolation-filters:sRGB"
       id="filter856"
       x="-0.048"
       width="1.096"
       y="-0.048"
       height="1.096">
      <feGaussianBlur
         inkscape:collect="always"
         stdDeviation="3.2"
         id="feGaussianBlur858" />
    </filter>
    <filter
       inkscape:collect="always"
       style="color-interpolation-filters:sRGB"
       id="filter893"
       x="-0.055999531"
       width="1.1119991"
       y="-0.042000264"
       height="1.0840005">
      <feGaussianBlur
         inkscape:collect="always"
         stdDeviation="1.959962"
         id="feGaussianBlur895" />
    </filter>
  </defs>
  <sodipodi:namedview
     pagecolor="#ffffff"
     bordercolor="#666666"
     borderopacity="1"
     objecttolerance="10"
     gridtolerance="10"
     guidetolerance="10"
     inkscape:pageopacity="0"
     inkscape:pageshadow="2"
     inkscape:window-width="1920"
     inkscape:window-height="1018"
     id="namedview14"
     showgrid="false"
     inkscape:zoom="3.02"
     inkscape:cx="24"
     inkscape:cy="103.4702"
     inkscape:window-x="0"
     inkscape:window-y="32"
     inkscape:window-maximized="1"
     inkscape:current-layer="svg12" />
  <rect
     style="opacity:0.2;stroke-width:4;filter:url(#filter856)"
     width="160"
     height="160"
     x="16"
     y="20"
     rx="8"
     ry="8"
     id="rect2" />
  <rect
     style="fill:#fa4778;stroke-width:4"
     width="160"
     height="160"
     x="16"
     y="16"
     rx="8"
     ry="8"
     id="rect4" />
  <path
     style="opacity:0.2;fill:#ffffff;stroke-width:4"
     d="M 24 16 C 19.568 16 16 19.568 16 24 L 16 25 C 16 20.568 19.568 17 24 17 L 168 17 C 172.432 17 176 20.568 176 25 L 176 24 C 176 19.568 172.432 16 168 16 L 24 16 z "
     id="path6" />
  <path
     style="color:#000000;font-style:normal;font-variant:normal;font-weight:normal;font-stretch:normal;font-size:medium;line-height:normal;font-family:sans-serif;font-variant-ligatures:normal;font-variant-position:normal;font-variant-caps:normal;font-variant-numeric:normal;font-variant-alternates:normal;font-feature-settings:normal;text-indent:0;text-align:start;text-decoration:none;text-decoration-line:none;text-decoration-style:solid;text-decoration-color:#000000;letter-spacing:normal;word-spacing:normal;text-transform:none;writing-mode:lr-tb;direction:ltr;text-orientation:mixed;dominant-baseline:auto;baseline-shift:baseline;text-anchor:start;white-space:normal;shape-padding:0;clip-rule:nonzero;display:inline;overflow:visible;visibility:visible;opacity:0.2;isolation:auto;mix-blend-mode:normal;color-interpolation:sRGB;color-interpolation-filters:linearRGB;solid-color:#000000;solid-opacity:1;vector-effect:none;fill:#000000;fill-opacity:1;fill-rule:nonzero;stroke:none;stroke-width:12;stroke-linecap:butt;stroke-linejoin:round;stroke-miterlimit:4;stroke-dasharray:none;stroke-dashoffset:0;stroke-opacity:1;color-rendering:auto;image-rendering:auto;shape-rendering:auto;text-rendering:auto;enable-background:accumulate;filter:url(#filter893)"
     d="m 58,42.001953 a 6.0006,6.0006 0 0 0 -6,6 v 99.999997 a 6.0006,6.0006 0 0 0 10.484375,3.98438 L 92.695312,118.00195 H 118 a 6.0006,6.0006 0 0 0 5.89648,-4.89453 l 6,-31.999998 6,-32 A 6.0006,6.0006 0 0 0 130,42.001953 Z m 6,12 h 58.77148 l -3.75195,20 H 90 a 6.0006,6.0006 0 0 0 -1.189453,0.134766 6.0006,6.0006 0 0 0 -0.580078,0.158203 6.0006,6.0006 0 0 0 -1.095703,0.480469 6.0006,6.0006 0 0 0 -1.414063,1.105468 6.0006,6.0006 0 0 0 -0.730469,0.949219 6.0006,6.0006 0 0 0 -0.291015,0.525391 6.0006,6.0006 0 0 0 -0.238281,0.550781 6.0006,6.0006 0 0 0 -0.367188,1.755859 6.0006,6.0006 0 0 0 -0.0039,0.59961 6.0006,6.0006 0 0 0 0.171875,1.185547 6.0006,6.0006 0 0 0 0.171875,0.574218 6.0006,6.0006 0 0 0 0.230468,0.552735 6.0006,6.0006 0 0 0 0.285157,0.529297 6.0006,6.0006 0 0 0 0.333984,0.498046 6.0006,6.0006 0 0 0 0.810547,0.88086 6.0006,6.0006 0 0 0 0.46875,0.376953 6.0006,6.0006 0 0 0 1.035156,0.601563 6.0006,6.0006 0 0 0 1.134766,0.386718 6.0006,6.0006 0 0 0 0.589844,0.105469 A 6.0006,6.0006 0 0 0 90,86.001953 h 26.77148 l -3.75195,19.999997 H 90 a 6.0006,6.0006 0 0 0 -4.484375,2.01367 L 64,132.2207 Z"
     id="path8"
     inkscape:connector-curvature="0" />
  <path
     inkscape:connector-curvature="0"
     style="fill:none;stroke:#ffffff;stroke-width:12;stroke-linejoin:round"
     d="M 130,46 H 58 v 100 l 32,-36 h 28 l 6,-32 h -34 34 z"
     id="path10" />
</svg>
