<?xml version="1.0" encoding="UTF-8" standalone="no"?>
<svg
   xmlns:dc="http://purl.org/dc/elements/1.1/"
   xmlns:cc="http://creativecommons.org/ns#"
   xmlns:rdf="http://www.w3.org/1999/02/22-rdf-syntax-ns#"
   xmlns:svg="http://www.w3.org/2000/svg"
   xmlns="http://www.w3.org/2000/svg"
   xmlns:sodipodi="http://sodipodi.sourceforge.net/DTD/sodipodi-0.dtd"
   xmlns:inkscape="http://www.inkscape.org/namespaces/inkscape"
   width="192"
   height="192"
   version="1"
   id="svg12"
   sodipodi:docname="apps_guitartuna.svg"
   inkscape:version="0.92.3 (2405546, 2018-03-11)">
  <metadata
     id="metadata18">
    <rdf:RDF>
      <cc:Work
         rdf:about="">
        <dc:format>image/svg+xml</dc:format>
        <dc:type
           rdf:resource="http://purl.org/dc/dcmitype/StillImage" />
        <dc:title></dc:title>
      </cc:Work>
    </rdf:RDF>
  </metadata>
  <defs
     id="defs16">
    <filter
       inkscape:collect="always"
       style="color-interpolation-filters:sRGB"
       id="filter883"
       x="-0.05142858"
       width="1.1028572"
       y="-0.044999993"
       height="1.09">
      <feGaussianBlur
         inkscape:collect="always"
         stdDeviation="2.9999994"
         id="feGaussianBlur885" />
    </filter>
    <filter
       inkscape:collect="always"
       style="color-interpolation-filters:sRGB"
       id="filter912"
       x="-0.045592703"
       width="1.0911854"
       y="-0.050675678"
       height="1.1013514">
      <feGaussianBlur
         inkscape:collect="always"
         stdDeviation="2.6595605"
         id="feGaussianBlur914" />
    </filter>
  </defs>
  <sodipodi:namedview
     pagecolor="#ffffff"
     bordercolor="#666666"
     borderopacity="1"
     objecttolerance="10"
     gridtolerance="10"
     guidetolerance="10"
     inkscape:pageopacity="0"
     inkscape:pageshadow="2"
     inkscape:window-width="1920"
     inkscape:window-height="1018"
     id="namedview14"
     showgrid="false"
     inkscape:zoom="1"
     inkscape:cx="99.419373"
     inkscape:cy="75.870153"
     inkscape:window-x="0"
     inkscape:window-y="32"
     inkscape:window-maximized="1"
     inkscape:current-layer="svg12"
     showguides="false">
    <inkscape:grid
       type="xygrid"
       id="grid852" />
  </sodipodi:namedview>
  <path
     inkscape:connector-curvature="0"
     style="opacity:0.2;fill:#000000;fill-opacity:1;stroke-width:0.38787696;filter:url(#filter883)"
     d="m 95.973127,20.000024 c -7.29439,0.0027 -14.57475,0.245198 -18.35094,0.727002 -24.9735,3.186386 -39.72781,11.334975 -46.94273,25.925503 -3.22371,6.519211 -4.67943,13.305367 -4.67943,21.816127 0,8.154261 1.84284,17.130667 5.67559,27.647237 10.75783,29.518077 37.14237,68.194607 54.51856,79.917537 5.84396,3.94265 9.35578,4.7738 13.74455,3.25266 7.111363,-2.46478 18.286593,-13.1488 30.087963,-28.76564 18.14206,-24.00754 31.50918,-51.415507 35.30997,-72.398641 0.88516,-4.886677 0.88435,-14.352006 -0.002,-19.204495 C 163.58625,49.342678 160.11787,42.548237 153.8465,36.412646 145.1187,27.87383 132.95684,23.032577 114.40882,20.714207 110.57548,20.235071 103.26704,19.997468 95.972647,20.000024 Z"
     id="path869" />
  <path
     id="path866"
     d="m 95.972647,20.000024 c -7.29439,0.0027 -14.57427,-1.31578 -18.35046,-0.833976 -24.9735,3.186386 -37.66402,10.021655 -44.87894,24.612183 -3.22371,6.519211 -4.304196,12.36728 -4.304196,20.87804 0,8.154261 4.469481,17.130668 8.302232,27.647237 2.169813,5.953682 -0.09033,12.092322 3.14878,18.494852 12.820231,25.34091 32.432634,51.87661 46.304114,61.23507 5.843957,3.94265 9.35578,4.7738 13.74455,3.25266 7.111363,-2.46478 18.286603,-13.1488 30.087963,-28.76564 1.66326,-2.201 3.28638,-4.43058 4.86567,-6.68117 15.64697,-22.29787 24.17771,-46.658062 27.63004,-65.717473 0.88516,-4.886677 1.82244,-13.41392 0.93609,-18.266409 -1.74841,-9.574636 -4.46632,-15.618608 -10.73769,-21.754199 -8.7278,-8.538816 -20.51443,-12.6296 -39.06245,-14.94797 -3.83334,-0.479136 -10.39131,0.844239 -17.685703,0.846795 z"
     style="fill:#76b200;fill-opacity:1;stroke-width:0.38787696"
     inkscape:connector-curvature="0"
     sodipodi:nodetypes="csssssssssccccc" />
  <path
     sodipodi:nodetypes="cssssccscccccccccccccc"
     inkscape:connector-curvature="0"
     id="path898"
     d="m 95.972656,18.000235 c -7.29439,0.0027 -14.573423,0.244759 -18.349609,0.726562 C 52.649539,21.913184 37.894608,30.062051 30.679688,44.652579 27.455977,51.17179 26,57.958225 26,66.468985 c 0,8.154261 1.843032,17.129918 5.675781,27.646484 2.27803,6.250621 5.2615,12.913511 8.707031,19.642571 4.40074,-5.24528 8.804592,-10.84308 13.035157,-15.240227 C 57.371042,93.78749 65.212094,85.942411 70.066406,81.861563 84.860848,69.424399 103.6711,59.098608 125.54688,51.794376 c 4.056,-1.35429 5.44761,-1.714827 7.01953,-1.691407 0.22456,0.0034 0.45319,0.01403 0.69336,0.03125 3.0547,0.218968 4.58046,1.635256 4.85937,4.511719 0.33609,3.602564 -4.87077,7.765527 -7.46875,10.851563 -12.22376,12.978941 -18.99283,23.35637 -22.59961,34.178515 -2.38878,7.167504 -2.76605,9.701434 -2.75195,18.533194 0.0171,8.80262 1.66716,19.92833 15.3789,25.24902 4.24506,1.45388 13.57422,-0.73339 13.57422,-0.73339 15.97123,-22.53814 27.58562,-47.289951 31.08399,-66.603511 0.88516,-4.886677 0.88439,-14.350636 -0.002,-19.203125 -1.74837,-9.574636 -5.21687,-16.370269 -11.48824,-22.50586 -8.7278,-8.538816 -20.88948,-13.378895 -39.4375,-15.697265 -3.83334,-0.479136 -11.14116,-0.7174 -18.435544,-0.714844 z"
     style="opacity:0.2;fill:#000000;fill-opacity:1;stroke-width:0.38787696;filter:url(#filter912)" />
  <path
     style="fill:#eaf500;fill-opacity:1;stroke-width:0.38787696"
     d="M 95.972656,16 C 88.678266,16.0027 81.399233,16.244759 77.623047,16.726562 52.649539,19.912949 37.894608,28.061816 30.679688,42.652344 27.455977,49.171555 26,55.95799 26,64.46875 c 0,8.154261 1.843032,17.129918 5.675781,27.646484 2.27803,6.250618 5.2615,12.913516 8.707031,19.642576 4.40074,-5.24528 8.804592,-10.84308 13.035157,-15.240232 3.953073,-4.730323 11.794125,-12.575402 16.648437,-16.65625 14.794442,-12.437164 33.604694,-22.762955 55.480474,-30.067187 4.056,-1.35429 5.44761,-1.714827 7.01953,-1.691407 0.22456,0.0034 0.45319,0.01403 0.69336,0.03125 3.0547,0.218968 4.58046,1.635256 4.85937,4.511719 0.33609,3.602564 -4.87077,7.765527 -7.46875,10.851563 -12.22376,12.978941 -18.99283,23.35637 -22.59961,34.178515 -2.38878,7.167509 -2.76605,9.701439 -2.75195,18.533199 0.0171,8.80262 1.66716,19.92833 15.3789,25.24902 4.24506,1.45388 13.57422,-0.73339 13.57422,-0.73339 15.97123,-22.53814 27.58562,-47.289956 31.08399,-66.603516 0.88516,-4.886677 0.88439,-14.350636 -0.002,-19.203125 C 163.58557,45.343333 160.11707,38.5477 153.8457,32.412109 145.1179,23.873293 132.95622,19.033214 114.4082,16.714844 110.57486,16.235708 103.26704,15.997444 95.972656,16 Z"
     id="path840"
     inkscape:connector-curvature="0"
     sodipodi:nodetypes="cssssccscccccccccccccc" />
  <path
     inkscape:connector-curvature="0"
     style="opacity:0.2;fill:#ffffff;fill-opacity:1;stroke-width:0.38787696"
     d="M 95.972656,16 C 88.678266,16.0027 81.399233,16.244759 77.623047,16.726562 52.649539,19.912949 37.894608,28.061816 30.679688,42.652344 27.455977,49.171555 26,55.95799 26,64.46875 c 0,0.14524 0.01055,0.295641 0.01172,0.441406 0.064,-8.244993 1.516557,-14.88481 4.667969,-21.257812 C 37.894608,29.061816 52.649539,20.912949 77.623047,17.726562 81.399233,17.24476 88.678266,17.0027 95.972656,17 c 7.294384,-0.0026 14.602204,0.235708 18.435544,0.714844 18.54802,2.31837 30.7097,7.158449 39.4375,15.697265 6.27137,6.135591 9.73991,12.931224 11.48828,22.50586 0.42294,2.315315 0.63855,5.684675 0.65821,9.101562 0.0219,-3.753262 -0.19371,-7.558706 -0.65821,-10.101562 C 163.58561,45.343333 160.11707,38.5477 153.8457,32.412109 145.1179,23.873293 132.95622,19.033214 114.4082,16.714844 110.57486,16.235708 103.26704,15.997444 95.972656,16 Z M 138.0918,53.484375 c -0.42994,3.396906 -5.04253,7.164141 -7.44141,10.013672 -12.22376,12.978941 -18.99283,23.355589 -22.59961,34.177734 -2.38878,7.167509 -2.76605,9.701439 -2.75195,18.533199 1.6e-4,0.0834 0.003,0.17014 0.004,0.25391 0.0111,-8.19565 0.43262,-10.8397 2.74805,-17.787109 3.60678,-10.822145 10.37585,-21.198793 22.59961,-34.177734 2.59798,-3.086036 7.80484,-7.248999 7.46875,-10.851563 -0.006,-0.05767 -0.0207,-0.105609 -0.0273,-0.162109 z"
     id="path893" />
</svg>
