<?xml version="1.0" encoding="UTF-8" standalone="no"?>
<svg
   xmlns:dc="http://purl.org/dc/elements/1.1/"
   xmlns:cc="http://creativecommons.org/ns#"
   xmlns:rdf="http://www.w3.org/1999/02/22-rdf-syntax-ns#"
   xmlns:svg="http://www.w3.org/2000/svg"
   xmlns="http://www.w3.org/2000/svg"
   xmlns:sodipodi="http://sodipodi.sourceforge.net/DTD/sodipodi-0.dtd"
   xmlns:inkscape="http://www.inkscape.org/namespaces/inkscape"
   width="192"
   height="192"
   version="1"
   id="svg20"
   sodipodi:docname="apps_cloud_player_doubletwist.svg"
   inkscape:version="0.92.3 (2405546, 2018-03-11)">
  <metadata
     id="metadata26">
    <rdf:RDF>
      <cc:Work
         rdf:about="">
        <dc:format>image/svg+xml</dc:format>
        <dc:type
           rdf:resource="http://purl.org/dc/dcmitype/StillImage" />
      </cc:Work>
    </rdf:RDF>
  </metadata>
  <defs
     id="defs24">
    <filter
       inkscape:collect="always"
       style="color-interpolation-filters:sRGB"
       id="filter882"
       x="-0.047999989"
       width="1.096"
       y="-0.048000011"
       height="1.096">
      <feGaussianBlur
         inkscape:collect="always"
         stdDeviation="3.1999993"
         id="feGaussianBlur884" />
    </filter>
    <filter
       inkscape:collect="always"
       style="color-interpolation-filters:sRGB"
       id="filter902"
       x="-0.050400002"
       width="1.1008"
       y="-0.04581818"
       height="1.0916364">
      <feGaussianBlur
         inkscape:collect="always"
         stdDeviation="1.6799999"
         id="feGaussianBlur904" />
    </filter>
  </defs>
  <sodipodi:namedview
     pagecolor="#ffffff"
     bordercolor="#666666"
     borderopacity="1"
     objecttolerance="10"
     gridtolerance="10"
     guidetolerance="10"
     inkscape:pageopacity="0"
     inkscape:pageshadow="2"
     inkscape:window-width="1920"
     inkscape:window-height="1018"
     id="namedview22"
     showgrid="false"
     inkscape:zoom="1"
     inkscape:cx="96"
     inkscape:cy="105.54511"
     inkscape:window-x="0"
     inkscape:window-y="32"
     inkscape:window-maximized="1"
     inkscape:current-layer="svg20">
    <inkscape:grid
       type="xygrid"
       id="grid841" />
  </sodipodi:namedview>
  <path
     inkscape:connector-curvature="0"
     id="path2"
     d="m 35.938888,179.83556 c -0.918815,-0.1636 -1.096364,-0.38 -2.45949,-2.99896 -7.641222,-14.6808 -13.793735,-34.30264 -16.196608,-51.65496 -1.159315,-8.37216 -1.291955,-10.57656 -1.282332,-21.3112 0.008,-9.930724 0.05814,-10.951444 0.795318,-16.512644 1.149772,-8.67328 2.868355,-16.90208 5.437469,-26.0354 3.041413,-10.81248 12.299132,-33.0054 16.434943,-39.39856 l 1.24452,-1.92376 3.035476,0.18 c 14.813476,0.8788 28.941216,3.62424 43.497228,8.4528 22.100448,7.33124 39.685118,17.765 56.194998,33.34292 8.60515,8.11948 14.96288,15.42952 23.79373,27.3578 4.79772,6.48052 6.3629,8.81664 8.29279,12.377324 L 176,104.0598 l -2.4987,3.78644 c -4.98206,7.54968 -10.41423,14.33184 -17.50216,21.8516 -4.39456,4.66232 -4.98161,5.23444 -9.9981,9.7442 -4.21649,3.79052 -6.30296,5.49824 -12.41522,10.16152 -2.77128,2.11432 -8.18004,5.69044 -11.34727,7.50248 -1.01156,0.57872 -1.90283,1.13488 -1.98066,1.23592 -0.82832,1.07556 -17.29822,8.97892 -21.21623,10.18096 -0.39176,0.1204 -1.794644,0.62364 -3.117436,1.11876 -1.322788,0.49508 -3.423692,1.2184 -4.668656,1.6074 -1.245,0.3892 -3.727868,1.19064 -5.51754,1.78148 -3.354448,1.1074 -5.5655,1.60996 -13.581584,3.08692 -14.248432,2.62532 -32.075492,4.4554 -36.217556,3.718 z"
     style="opacity:0.2;stroke-width:4;filter:url(#filter882)" />
  <path
     inkscape:connector-curvature="0"
     id="path4"
     d="m 35.938888,175.83552 c -0.918815,-0.1636 -1.096364,-0.38 -2.45949,-2.99896 -7.641222,-14.6808 -13.793735,-34.30264 -16.196608,-51.65496 -1.159315,-8.37216 -1.291955,-10.57656 -1.282332,-21.3112 0.008,-9.93072 0.05814,-10.95144 0.795318,-16.51264 1.149772,-8.67328 2.868355,-16.90208 5.437469,-26.0354 3.041413,-10.81248 12.299132,-33.005402 16.434943,-39.398562 l 0.869286,1.828585 3.035474,0.18 c 14.813476,0.8788 28.941216,3.62424 43.497228,8.4528 22.100444,7.33124 39.685114,17.765001 56.195004,33.342921 8.60514,8.11948 14.96287,15.42952 23.79372,27.3578 4.79773,6.48052 1.48485,5.064296 3.41475,8.624976 l 1.27307,2.34888 -2.49871,3.78644 c -4.98205,7.54968 -10.41423,14.33184 -17.50215,21.8516 -4.39456,4.66232 -4.98162,5.23444 -9.99811,9.7442 -4.21649,3.79052 -6.30295,5.49824 -12.41521,10.16152 -2.77128,2.11432 -8.18004,5.69044 -11.34728,7.50248 -1.01156,0.57872 -1.90282,1.13488 -1.98065,1.23592 -0.82832,1.07556 -17.298226,8.57876 -21.216234,9.7808 -0.39176,0.1204 -1.794644,0.62364 -3.117436,1.11876 -1.322788,0.49508 -3.423692,1.2184 -4.668656,1.6074 -1.245,0.3892 -3.727868,1.19064 -5.51754,1.78148 -3.354448,1.1074 -5.5655,1.60996 -13.581584,3.08692 -14.248432,2.62532 -26.822208,4.85556 -30.964272,4.11816 z"
     style="fill:#4fa6e7;stroke-width:4" />
  <path
     inkscape:connector-curvature="0"
     id="path6"
     d="M 39.914062,16 C 29.123128,33.525966 26.741626,52.11746 28.117188,71.265624 31.183641,97.49 45.227648,116.0874 56,140 V 52 c 1.365936,0.08052 2.802576,0.15068 4.1875,0.22656 L 59.789064,52 c 2.823836,0.28428 5.599856,0.484528 8.359372,0.664064 1.293276,0.07016 2.571356,0.15196 3.875,0.22656 21.233356,1.139796 40.849894,0.536268 61.234374,9.328128 7.52259,3.65132 14.55492,7.923372 20.95313,13.015624 4.89217,3.651156 16.75933,19.812206 21.00894,24.834794 -2.86,-4.705911 -5.79001,-10.681753 -8.78257,-14.733234 C 157.60646,73.407656 151.24558,66.096044 142.64044,57.976564 126.13055,42.398644 108.54557,31.964052 86.445124,24.632812 71.889112,19.804252 57.7586,17.058488 42.945124,16.179688 Z"
     style="fill:#26d5ea;stroke-width:4"
     sodipodi:nodetypes="cccccccccccccscc" />
  <path
     inkscape:connector-curvature="0"
     id="path8"
     d="M 136,100 96.000004,122 56.000008,144 V 99.999998 56.000001 l 40,21.999999 z"
     style="opacity:0.2;stroke-width:3.90410662;filter:url(#filter902)" />
  <path
     inkscape:connector-curvature="0"
     id="path10"
     d="M 136,96.000001 96.000004,118 56.000008,140 V 95.999998 52.000001 l 40,21.999999 z"
     style="fill:#ffffff;stroke-width:3.90410662" />
  <path
     inkscape:connector-curvature="0"
     id="path12"
     d="M 175.21988,100.06917 C 165.43742,81.960964 150.52746,70.602776 133.25688,62.219968 109.01268,51.763404 82.0951,54.627172 56,52 l 80,44 C 115.20502,127.56951 79.876692,167.90243 35.938888,175.83544 L 49.253332,175.234 c 0.984276,-0.10548 1.46396,-0.12408 2.658244,-0.26048 14.745616,-1.6836 24.2581,-3.53648 35.592348,-6.92901 21.745816,-6.50902 39.574926,-16.52077 56.974196,-31.9947 11.45966,-10.19159 20.90282,-21.05609 29.07062,-33.44553 z"
     style="fill:#2479e2;stroke-width:4"
     sodipodi:nodetypes="ccccccccscc" />
  <path
     style="fill:#ffffff;stroke-width:4;opacity:0.2"
     d="M 39.914062 16 C 39.49709 16.67722 39.114784 17.35869 38.722656 18.039062 L 38.667969 17.923828 C 34.532158 24.316988 25.273835 46.509786 22.232422 57.322266 C 19.663308 66.455586 17.944694 74.684142 16.794922 83.357422 C 16.057744 88.918622 16.008 89.940374 16 99.871094 C 15.999841 100.04838 16.00203 100.1398 16.001953 100.3125 C 16.012011 91.012055 16.074938 89.788933 16.794922 84.357422 C 17.944694 75.684142 19.663308 67.455586 22.232422 58.322266 C 25.273835 47.509786 34.532158 25.316988 38.667969 18.923828 L 38.722656 19.039062 C 39.114784 18.358691 39.49709 17.67722 39.914062 17 L 42.945312 17.179688 C 57.758789 18.058487 71.889301 20.804253 86.445312 25.632812 C 108.54576 32.964054 126.13073 43.398643 142.64062 58.976562 C 151.24576 67.096044 157.60665 74.407656 166.4375 86.335938 C 168.65789 89.342014 170.84372 93.406459 172.99219 97.226562 C 173.65217 98.302634 174.29562 99.401651 174.91797 100.52734 L 175.2207 100.06836 C 174.50775 98.748624 173.75854 97.476053 172.99219 96.226562 C 170.84372 92.406459 168.65789 88.342013 166.4375 85.335938 C 157.60665 73.407657 151.24576 66.096043 142.64062 57.976562 C 126.13073 42.398643 108.54576 31.964054 86.445312 24.632812 C 71.889301 19.804253 57.758789 17.058487 42.945312 16.179688 L 39.914062 16 z "
     id="path906" />
</svg>
