<?xml version="1.0" encoding="UTF-8" standalone="no"?>
<svg
   xmlns:dc="http://purl.org/dc/elements/1.1/"
   xmlns:cc="http://creativecommons.org/ns#"
   xmlns:rdf="http://www.w3.org/1999/02/22-rdf-syntax-ns#"
   xmlns:svg="http://www.w3.org/2000/svg"
   xmlns="http://www.w3.org/2000/svg"
   xmlns:sodipodi="http://sodipodi.sourceforge.net/DTD/sodipodi-0.dtd"
   xmlns:inkscape="http://www.inkscape.org/namespaces/inkscape"
   width="192"
   height="192"
   version="1"
   id="svg14"
   sodipodi:docname="apps_spotify_client.svg"
   inkscape:version="0.92.3 (2405546, 2018-03-11)">
  <metadata
     id="metadata20">
    <rdf:RDF>
      <cc:Work
         rdf:about="">
        <dc:format>image/svg+xml</dc:format>
        <dc:type
           rdf:resource="http://purl.org/dc/dcmitype/StillImage" />
      </cc:Work>
    </rdf:RDF>
  </metadata>
  <defs
     id="defs18">
    <filter
       inkscape:collect="always"
       style="color-interpolation-filters:sRGB"
       id="filter850"
       x="-0.048"
       width="1.096"
       y="-0.048"
       height="1.096">
      <feGaussianBlur
         inkscape:collect="always"
         stdDeviation="3.2"
         id="feGaussianBlur852" />
    </filter>
    <filter
       inkscape:collect="always"
       style="color-interpolation-filters:sRGB"
       id="filter866"
       x="-0.042000687"
       width="1.0840014"
       y="-0.055998779"
       height="1.1119976">
      <feGaussianBlur
         inkscape:collect="always"
         stdDeviation="1.6800035"
         id="feGaussianBlur868" />
    </filter>
  </defs>
  <sodipodi:namedview
     pagecolor="#ffffff"
     bordercolor="#666666"
     borderopacity="1"
     objecttolerance="10"
     gridtolerance="10"
     guidetolerance="10"
     inkscape:pageopacity="0"
     inkscape:pageshadow="2"
     inkscape:window-width="1920"
     inkscape:window-height="1018"
     id="namedview16"
     showgrid="false"
     inkscape:zoom="1"
     inkscape:cx="96"
     inkscape:cy="96"
     inkscape:window-x="0"
     inkscape:window-y="32"
     inkscape:window-maximized="1"
     inkscape:current-layer="svg14" />
  <rect
     width="160"
     height="160"
     x="-180"
     y="-176"
     rx="80"
     ry="80"
     transform="matrix(0,-1,-1,0,0,0)"
     id="rect832"
     style="opacity:0.2;fill:#000000;stroke-width:4;filter:url(#filter850)" />
  <rect
     style="fill:#64a53a;stroke-width:4"
     id="rect2"
     transform="matrix(0,-1,-1,0,0,0)"
     ry="80"
     rx="80"
     y="-176"
     x="-176"
     height="160"
     width="160" />
  <path
     style="opacity:0.2;fill:#ffffff;stroke-width:4"
     d="M 96 16 C 51.68 16 16 51.68 16 96 C 16 96.336 16.002 96.6675 16 97 C 16 52.68 51.68 17 96 17 C 140.32 17 176 52.68 176 97 C 175.998 96.6675 176 96.336 176 96 C 176 51.68 140.32 16 96 16 z "
     id="path4" />
  <path
     style="opacity:0.2;stroke-width:4;filter:url(#filter866)"
     inkscape:connector-curvature="0"
     id="path6"
     d="m 84.344,68 c -10.1764,-0.0013 -20.0164,1.04204 -28.4064,3.125 -4.3096,1.06996 -4.6296,1.19472 -5.828,2.20312 -1.47464,1.24096 -2.10844,2.60292 -2.10936,4.5624 -0.0012,2.42664 1.15832,4.298 3.34376,5.3752 1.78916,0.88164 2.94848,0.8506 6.8592,-0.14064 3.95496,-1.00232 9.5604,-1.96396 14.4688,-2.48436 4.9912,-0.52872 20.7436,-0.44096 25.7812,0.14064 13.6552,1.5776 23.388,4.1724 32.8124,8.75 2.4114,1.17112 4.8012,2.2276 5.3124,2.34376 2.69784,0.61732 5.9104,-1.03464 7.0312,-3.60936 0.55808,-1.2818 0.50784,-3.64112 -0.0938,-4.9064 -0.74312,-1.56348 -2.2612,-2.6828 -6.2968,-4.6408 -6.856,-3.328 -14.236,-5.828 -22.472,-7.596 -9.716,-2.084 -20.228,-3.124 -30.404,-3.124 z m -2.27344,24.0236 c -1.81172,0.0268 -3.37356,0.0886 -4.4296,0.19532 -6.8432,0.69016 -15.726,2.57336 -18.5468,3.93748 -2.96752,1.435 -4.0156,5.4504 -2.18752,8.4064 0.70072,1.13288 2.79368,2.39064 3.98436,2.39064 0.44868,0 2.60472,-0.50208 4.7968,-1.10936 6.3948,-1.77184 10.6772,-2.3508 18.4844,-2.5 5.0608,-0.0953 7.7044,-0.0132 10.6564,0.32812 12.5336,1.44768 21.7484,4.5104 32.3752,10.7656 1.46116,0.85976 2.9702,1.5634 3.35936,1.56248 3.1632,-0.007 5.9156,-3.31572 5.3752,-6.4688 -0.47252,-2.7538 -1.65772,-3.90468 -7.0936,-6.9376 -9.002,-5.0224 -18.8816,-8.2392 -30.6248,-9.9688 -2.01184,-0.29596 -6.106,-0.4958 -10.2188,-0.57812 -2.05632,-0.042 -4.118,-0.05012 -5.9296,-0.0236 z m 2.78908,24 c -1.45172,0.0268 -2.70188,0.0886 -3.54688,0.19532 -5.4744,0.69016 -12.5868,2.57336 -14.8436,3.93748 -2.37412,1.435 -3.21252,5.4508 -1.75,8.4064 0.56064,1.13288 2.235,2.39064 3.18748,2.39064 0.35892,0 2.09,-0.50208 3.84376,-1.10936 5.116,-1.77184 8.5356,-2.35084 14.7812,-2.5 4.0484,-0.0952 6.1696,-0.0132 8.5312,0.32812 10.0268,1.44768 17.3892,4.5104 25.8908,10.7656 1.1688,0.85976 2.39212,1.5634 2.70312,1.56248 2.53076,-0.007 4.7148,-3.31572 4.2812,-6.4688 -0.37796,-2.7538 -1.30736,-3.90468 -5.6564,-6.9376 -7.2016,-5.0224 -15.1056,-8.2392 -24.5,-9.9688 -1.60972,-0.29596 -4.8816,-0.49584 -8.172,-0.57812 -1.645,-0.042 -3.29828,-0.0501 -4.75,-0.0236 z" />
  <path
     style="fill:#ffffff;stroke-width:4"
     inkscape:connector-curvature="0"
     id="path8"
     d="m 84.344,64 c -10.1764,-0.0013 -20.0164,1.04204 -28.4064,3.125 -4.3096,1.06996 -4.6296,1.19472 -5.828,2.20312 -1.47464,1.24096 -2.10844,2.60292 -2.10936,4.5624 -0.0012,2.42664 1.15832,4.298 3.34376,5.3752 1.78916,0.88164 2.94848,0.8506 6.8592,-0.14064 3.95496,-1.00232 9.5604,-1.96396 14.4688,-2.48436 4.9912,-0.52872 20.7436,-0.44096 25.7812,0.14064 13.6552,1.5776 23.388,4.1724 32.8124,8.75 2.4114,1.17112 4.8012,2.2276 5.3124,2.34376 2.69784,0.61732 5.9104,-1.03464 7.0312,-3.60936 0.55808,-1.2818 0.50784,-3.64112 -0.0938,-4.9064 -0.74312,-1.56348 -2.2612,-2.6828 -6.2968,-4.6408 -6.856,-3.328 -14.236,-5.828 -22.468,-7.596 -9.72,-2.084 -20.232,-3.124 -30.408,-3.124 z m -2.27344,24.0236 c -1.81172,0.0268 -3.37356,0.0886 -4.4296,0.19532 -6.8432,0.69016 -15.726,2.57336 -18.5468,3.93748 -2.96752,1.435 -4.0156,5.4504 -2.18752,8.4064 0.70072,1.13288 2.79368,2.39064 3.98436,2.39064 0.44868,0 2.60472,-0.50208 4.7968,-1.10936 6.3948,-1.77184 10.6772,-2.3508 18.4844,-2.5 5.0608,-0.09528 7.7044,-0.0132 10.6564,0.32812 12.5336,1.44768 21.7484,4.5104 32.3752,10.7656 1.46116,0.85976 2.9702,1.5634 3.35936,1.56248 3.1632,-0.007 5.9156,-3.31572 5.3752,-6.4688 -0.476,-2.756 -1.66,-3.904 -7.096,-6.94 -9.004,-5.02 -18.88,-8.236 -30.624,-9.968 -2.012,-0.296 -6.108,-0.496 -10.22,-0.576 -2.05632,-0.042 -4.118,-0.05012 -5.9296,-0.0236 z m 2.78908,24 c -1.45172,0.0268 -2.70188,0.0886 -3.54688,0.19532 -5.4744,0.69016 -12.5868,2.57336 -14.8436,3.93748 -2.37412,1.435 -3.21252,5.4508 -1.75,8.4064 0.56064,1.13288 2.235,2.39064 3.18748,2.39064 0.35892,0 2.09,-0.50208 3.84376,-1.10936 5.116,-1.77184 8.5356,-2.35084 14.7812,-2.5 4.0484,-0.0952 6.1696,-0.0132 8.5312,0.32812 10.0268,1.44768 17.3892,4.5104 25.8908,10.7656 1.1688,0.85976 2.39212,1.5634 2.70312,1.56248 2.53076,-0.007 4.7148,-3.31572 4.2812,-6.4688 -0.37796,-2.7538 -1.30736,-3.90468 -5.6564,-6.9376 -7.2016,-5.0224 -15.1056,-8.2392 -24.5,-9.9688 -1.60972,-0.29596 -4.8816,-0.49584 -8.172,-0.57812 -1.645,-0.042 -3.29828,-0.0501 -4.75,-0.0236 z" />
</svg>
