<?xml version="1.0" encoding="UTF-8" standalone="no"?>
<svg
   xmlns:dc="http://purl.org/dc/elements/1.1/"
   xmlns:cc="http://creativecommons.org/ns#"
   xmlns:rdf="http://www.w3.org/1999/02/22-rdf-syntax-ns#"
   xmlns:svg="http://www.w3.org/2000/svg"
   xmlns="http://www.w3.org/2000/svg"
   xmlns:sodipodi="http://sodipodi.sourceforge.net/DTD/sodipodi-0.dtd"
   xmlns:inkscape="http://www.inkscape.org/namespaces/inkscape"
   width="192"
   height="192"
   version="1"
   id="svg20"
   sodipodi:docname="apps_next_browser.svg"
   inkscape:version="0.92.3 (2405546, 2018-03-11)">
  <metadata
     id="metadata26">
    <rdf:RDF>
      <cc:Work
         rdf:about="">
        <dc:format>image/svg+xml</dc:format>
        <dc:type
           rdf:resource="http://purl.org/dc/dcmitype/StillImage" />
      </cc:Work>
    </rdf:RDF>
  </metadata>
  <defs
     id="defs24">
    <filter
       inkscape:collect="always"
       style="color-interpolation-filters:sRGB"
       id="filter883"
       x="-0.052235294"
       width="1.1044706"
       y="-0.0444"
       height="1.0888">
      <feGaussianBlur
         inkscape:collect="always"
         stdDeviation="2.96"
         id="feGaussianBlur885" />
    </filter>
    <filter
       inkscape:collect="always"
       style="color-interpolation-filters:sRGB"
       id="filter908"
       x="-0.048"
       width="1.096"
       y="-0.048"
       height="1.096">
      <feGaussianBlur
         inkscape:collect="always"
         stdDeviation="0.8"
         id="feGaussianBlur910" />
    </filter>
  </defs>
  <sodipodi:namedview
     pagecolor="#ffffff"
     bordercolor="#666666"
     borderopacity="1"
     objecttolerance="10"
     gridtolerance="10"
     guidetolerance="10"
     inkscape:pageopacity="0"
     inkscape:pageshadow="2"
     inkscape:window-width="1920"
     inkscape:window-height="1018"
     id="namedview22"
     showgrid="false"
     inkscape:zoom="1"
     inkscape:cx="96"
     inkscape:cy="96"
     inkscape:window-x="0"
     inkscape:window-y="32"
     inkscape:window-maximized="1"
     inkscape:current-layer="svg20" />
  <rect
     id="rect6"
     transform="matrix(0,-1,-1,0,0,0)"
     ry="47"
     rx="47"
     y="-143"
     x="-155"
     height="94"
     width="94"
     style="opacity:1;fill:#ca5029;fill-opacity:1;stroke-width:4.27272749" />
  <path
     style="opacity:0.2;fill:#000000;stroke-width:4;filter:url(#filter883)"
     d="m 28,20 v 92 c 0,2.23289 0.131005,4.36129 0.328125,6.4375 0.024,0.25288 0.06687,0.49157 0.09375,0.74219 0.04904,0.39532 0.09239,0.79171 0.140625,1.1875 0.0072,0.0577 0.01624,0.11419 0.02344,0.17187 0.141439,1.08705 0.296399,2.16713 0.492187,3.21094 0.0536,0.31564 0.08167,0.63923 0.140625,0.95312 0.1414,0.75339 0.302842,1.49794 0.46875,2.24219 0.30072,1.34874 0.644345,2.68326 1.023438,4 0.192399,0.66813 0.373877,1.34061 0.585937,2 0.511776,1.59142 1.087877,3.15034 1.710937,4.6875 0.14212,0.35068 0.258479,0.71478 0.40625,1.0625 0.800168,1.88251 1.68821,3.71781 2.648438,5.50781 0.22656,0.42239 0.483574,0.82527 0.71875,1.24219 0.760304,1.34776 1.558622,2.67281 2.40625,3.96094 0.37,0.5623 0.754505,1.11366 1.140625,1.66406 0.786388,1.12092 1.602041,2.2196 2.453125,3.28907 0.436012,0.54784 0.875689,1.0912 1.328125,1.625 0.932032,1.09966 1.906934,2.15773 2.90625,3.19531 0.39196,0.40701 0.769891,0.82947 1.171875,1.22656 1.429008,1.41145 2.903417,2.77404 4.453125,4.05469 0.1632,0.13488 0.343321,0.24945 0.507813,0.38281 1.389288,1.12638 2.827271,2.1954 4.304687,3.21094 0.520692,0.35792 1.062634,0.68763 1.59375,1.03125 1.198164,0.77512 2.415122,1.52644 3.664063,2.22656 0.5801,0.3252 1.167252,0.63679 1.757812,0.94531 1.245432,0.6506 2.514911,1.26168 3.804688,1.83594 0.610268,0.27172 1.216229,0.55057 1.835937,0.80469 1.53178,0.62812 3.093536,1.19352 4.679687,1.71094 0.373041,0.12167 0.733499,0.26741 1.109376,0.38281 C 82.247306,178.9415 88.995392,180 96,180 c 9.418,0 18.37475,-1.89625 26.51562,-5.32812 0.37541,-0.15825 0.74219,-0.33378 1.10547,-0.51368 0.004,-0.002 0.009,-0.004 0.0137,-0.006 0.26317,-0.10685 0.53679,-0.20182 0.79101,-0.31836 0.14794,-0.0678 0.29209,-0.14209 0.43945,-0.21093 0.25262,0.0441 0.59702,0.11914 0.72071,0.11914 0,0 -0.27275,-0.194 -0.39063,-0.27735 C 148.17597,162.57726 164,139.20799 164,112 164,74.328 133.672,44 96,44 90.908256,44 85.952264,44.559999 81.185547,45.611328 68.746987,30.001335 49.601232,20 28,20 Z m 68,48 c 24.376,0 44,19.624 44,44 0,21.78285 -15.67534,39.75721 -36.4043,43.33789 -2.71012,-3.04192 -5.11529,-6.33455 -7.025388,-9.97851 C 93.76786,138.78988 91.887964,131.63563 92,124.3125 92.187896,112.03066 96,99.273244 96,88 c 0,-2.193292 -0.125925,-4.354028 -0.328125,-6.492188 -0.06888,-0.732451 -0.18953,-1.446503 -0.28125,-2.171874 -0.17532,-1.378496 -0.360839,-2.750803 -0.617187,-4.101563 -0.173481,-0.919272 -0.391723,-1.820994 -0.601563,-2.726563 -0.25212,-1.082375 -0.517285,-2.157281 -0.820313,-3.21875 C 93.239037,68.892915 93.107409,68.50598 92.988281,68.113281 93.984249,68.046506 94.986534,68 96,68 Z"
     id="path866"
     inkscape:connector-curvature="0" />
  <path
     style="fill:#fe6e3f;stroke-width:4"
     d="M 96 40 C 90.716128 40 85.576027 40.596707 80.644531 41.726562 C 73.143327 43.445166 68.51857 48.814143 64.392578 52.742188 C 51.89173 64.643299 51.650391 83.274066 51.650391 107.625 C 51.650391 145.297 54.011594 172.05859 91.683594 172.05859 C 101.84302 172.05859 115.78537 173.79457 124.42578 169.83398 C 147.82471 159.10837 164 135.51256 164 108 C 164 70.328 133.672 40 96 40 z M 96 64 C 120.376 64 140 83.624 140 108 C 140 132.376 120.376 152 96 152 C 71.624 152 52 132.376 52 108 C 52 83.624 71.624 64 96 64 z "
     id="path4" />
  <rect
     id="rect8"
     transform="matrix(0,-1,-1,0,0,0)"
     ry="20"
     rx="20"
     y="-116"
     x="-132"
     height="40"
     width="40"
     style="opacity:0.1;stroke-width:4;filter:url(#filter908)" />
  <path
     style="fill:#ffffff;stroke-width:4;opacity:0.2"
     d="M 96 40 C 90.716128 40 85.576027 40.596708 80.644531 41.726562 C 73.143327 43.445166 68.51857 48.814143 64.392578 52.742188 C 51.89173 64.643299 51.650391 83.274066 51.650391 107.625 C 51.650391 107.77427 51.652268 107.91553 51.652344 108.06445 C 51.656876 83.995878 51.990577 65.549194 64.392578 53.742188 C 68.51857 49.814143 73.143327 44.445166 80.644531 42.726562 C 85.576027 41.596708 90.716128 41 96 41 C 133.5305 41 163.76358 71.102912 163.99023 108.57812 C 163.99183 108.38499 164 108.19352 164 108 C 164 70.328 133.672 40 96 40 z M 52.011719 108.5 C 52.009867 108.66722 52 108.83233 52 109 C 52 133.376 71.624 153 96 153 C 120.376 153 140 133.376 140 109 C 140 108.83233 139.99013 108.66722 139.98828 108.5 C 139.72087 132.64271 120.20833 152 96 152 C 71.79167 152 52.279131 132.64271 52.011719 108.5 z "
     id="path887" />
  <rect
     id="rect10"
     transform="matrix(0,-1,-1,0,0,0)"
     ry="20"
     rx="20"
     y="-116"
     x="-128"
     height="40"
     width="40"
     style="fill:#ffffff;stroke-width:4" />
  <path
     inkscape:connector-curvature="0"
     id="path14"
     d="m 28,16 v 92 c 0,2.23289 0.131,4.36129 0.32812,6.4375 0.024,0.25288 0.06688,0.49157 0.09376,0.74219 0.04904,0.39532 0.0924,0.79171 0.14064,1.1875 0.0072,0.0577 0.0164,0.1142 0.0236,0.17188 0.14144,1.08705 0.2964,2.16712 0.492188,3.21093 0.0536,0.31564 0.08168,0.63924 0.14064,0.95313 0.1414,0.75338 0.30284,1.49794 0.468748,2.24219 0.30072,1.34874 0.644344,2.68326 1.023436,4 0.1924,0.66813 0.37388,1.34061 0.58594,2 0.511776,1.59142 1.087876,3.15034 1.710936,4.6875 0.14212,0.35068 0.25848,0.71478 0.406252,1.0625 0.800168,1.88251 1.688208,3.7178 2.648436,5.50781 0.22656,0.42238 0.483572,0.82527 0.718748,1.24219 0.760304,1.34776 1.558624,2.6728 2.406252,3.96093 0.37,0.5623 0.754504,1.11367 1.140624,1.66407 0.786388,1.12092 1.60204,2.21959 2.453124,3.28906 0.436012,0.54784 0.875692,1.09121 1.328128,1.625 0.932032,1.09966 1.906932,2.15773 2.906248,3.19531 0.39196,0.40701 0.769892,0.82947 1.171876,1.22656 1.429008,1.41145 2.903416,2.77404 4.453124,4.05469 0.1632,0.13488 0.34332,0.24944 0.507812,0.3828 1.389288,1.12638 2.827272,2.1954 4.304688,3.21094 0.520692,0.35792 1.062636,0.68762 1.593752,1.03124 1.198164,0.77512 2.41512,1.52645 3.66406,2.22657 0.5801,0.3252 1.167256,0.63679 1.757816,0.94531 1.245432,0.6506 2.514908,1.26168 3.804684,1.83594 0.610268,0.27172 1.216232,0.55056 1.83594,0.80468 1.53178,0.62812 3.093536,1.19352 4.679688,1.71094 0.37304,0.12168 0.733496,0.2674 1.109372,0.3828 C 82.2475,174.94147 88.995392,176 96,176 c 9.418,0 18.37475,-1.89625 26.51562,-5.32812 0.75997,-0.32036 1.48232,-0.70776 2.21876,-1.07032 0.24452,0.034 0.70542,0.14064 0.85156,0.14064 0,0 -0.41817,-0.29912 -0.46094,-0.32812 C 114.56353,161.68419 102.88924,153.41407 96.570312,141.35921 93.76786,134.78972 91.887964,127.63568 92,120.31255 92.187896,108.03071 96,95.273244 96,84 96,81.806708 95.87408,79.645972 95.67188,77.507812 95.603,76.77536 95.48236,76.061308 95.39064,75.335936 95.21532,73.95744 95.0298,72.585136 94.773452,71.234376 94.599972,70.315104 94.381732,69.41338 94.171892,68.507812 93.919772,67.425436 93.654608,66.350532 93.35158,65.289064 93.05694,64.251776 92.740248,63.227088 92.398452,62.210936 92.107292,61.3494 91.79302,60.501732 91.468752,59.656248 91.048176,58.554908 90.615816,57.46328 90.140624,56.390624 89.837416,55.708684 89.504404,55.0448 89.179688,54.375 88.613604,53.203456 88.051964,52.030968 87.421876,50.898436 85.685032,47.776604 83.69,44.823508 81.5,42.031248 c -0.09896,-0.12616 -0.18144,-0.2652 -0.28124,-0.39064 -0.0025,5.48e-4 -0.0052,-5.44e-4 -0.008,0 C 68.77284,26.013248 49.615212,16 28,16 Z"
     style="fill:#b4d946;stroke-width:4" />
  <path
     style="opacity:0.2;fill:#ffffff;stroke-width:4"
     d="M 28 16 L 28 17 C 49.615212 17 68.773193 27.013283 81.210938 42.640625 L 81.21875 42.640625 C 81.31855 42.766065 81.40104 42.90509 81.5 43.03125 C 83.69 45.82351 85.685031 48.776606 87.421875 51.898438 C 88.051963 53.03097 88.613603 54.203456 89.179688 55.375 C 89.504403 56.0448 89.837417 56.708685 90.140625 57.390625 C 90.615817 58.463281 91.048174 59.55491 91.46875 60.65625 C 91.793014 61.501734 92.107261 62.349401 92.398438 63.210938 C 92.740234 64.22709 93.056922 65.251774 93.351562 66.289062 C 93.65459 67.35053 93.919755 68.425436 94.171875 69.507812 C 94.381715 70.413381 94.599957 71.315103 94.773438 72.234375 C 95.029786 73.585135 95.215305 74.957441 95.390625 76.335938 C 95.482345 77.061309 95.602995 77.77536 95.671875 78.507812 C 95.855996 80.454792 95.964232 82.424062 95.984375 84.416016 C 95.98753 84.278184 96 84.136429 96 84 C 96 81.806708 95.874075 79.645972 95.671875 77.507812 C 95.602995 76.775361 95.482345 76.061309 95.390625 75.335938 C 95.215305 73.957442 95.029786 72.585135 94.773438 71.234375 C 94.599957 70.315103 94.381715 69.413381 94.171875 68.507812 C 93.919755 67.425437 93.65459 66.350531 93.351562 65.289062 C 93.056922 64.251775 92.740234 63.22709 92.398438 62.210938 C 92.107261 61.349402 91.793014 60.501734 91.46875 59.65625 C 91.048174 58.55491 90.615817 57.463281 90.140625 56.390625 C 89.837417 55.708685 89.504403 55.0448 89.179688 54.375 C 88.613603 53.203456 88.051963 52.030969 87.421875 50.898438 C 85.685031 47.776606 83.69 44.82351 81.5 42.03125 C 81.40104 41.90509 81.31855 41.766065 81.21875 41.640625 L 81.210938 41.640625 C 68.773193 26.013283 49.615212 16 28 16 z M 92.101562 122.28906 C 92.070763 122.96329 92.01028 123.6408 92 124.3125 C 91.996224 124.55931 92.012964 124.80437 92.013672 125.05078 C 92.032766 124.46479 92.074747 123.87608 92.101562 123.28906 C 92.319999 129.91759 94.021824 136.38522 96.570312 142.35938 C 102.72762 154.10591 113.96396 162.25327 124.30664 169.81445 C 124.44901 169.74283 124.59132 169.67199 124.73438 169.60156 C 124.97889 169.63556 125.4398 169.74219 125.58594 169.74219 C 125.58594 169.74219 125.16778 169.44306 125.125 169.41406 C 114.56353 161.68416 102.88924 153.41423 96.570312 141.35938 C 94.021824 135.38522 92.319999 128.91759 92.101562 122.28906 z "
     id="path16" />
</svg>
