<?xml version="1.0" encoding="UTF-8" standalone="no"?>
<svg
   xmlns:dc="http://purl.org/dc/elements/1.1/"
   xmlns:cc="http://creativecommons.org/ns#"
   xmlns:rdf="http://www.w3.org/1999/02/22-rdf-syntax-ns#"
   xmlns:svg="http://www.w3.org/2000/svg"
   xmlns="http://www.w3.org/2000/svg"
   xmlns:sodipodi="http://sodipodi.sourceforge.net/DTD/sodipodi-0.dtd"
   xmlns:inkscape="http://www.inkscape.org/namespaces/inkscape"
   width="192"
   height="192"
   version="1"
   id="svg30"
   sodipodi:docname="apps_kdeconnect.svg"
   inkscape:version="0.92.3 (2405546, 2018-03-11)">
  <metadata
     id="metadata36">
    <rdf:RDF>
      <cc:Work
         rdf:about="">
        <dc:format>image/svg+xml</dc:format>
        <dc:type
           rdf:resource="http://purl.org/dc/dcmitype/StillImage" />
      </cc:Work>
    </rdf:RDF>
  </metadata>
  <defs
     id="defs34">
    <filter
       inkscape:collect="always"
       style="color-interpolation-filters:sRGB"
       id="filter868"
       x="-0.060923077"
       width="1.1218462"
       y="-0.0396"
       height="1.0792">
      <feGaussianBlur
         inkscape:collect="always"
         stdDeviation="2.64"
         id="feGaussianBlur870" />
    </filter>
    <filter
       inkscape:collect="always"
       style="color-interpolation-filters:sRGB"
       id="filter884"
       x="-0.012230769"
       width="1.0244615"
       y="-0.636"
       height="2.272">
      <feGaussianBlur
         inkscape:collect="always"
         stdDeviation="0.53"
         id="feGaussianBlur886" />
    </filter>
    <filter
       inkscape:collect="always"
       style="color-interpolation-filters:sRGB"
       id="filter900"
       x="-0.04919748"
       width="1.098395"
       y="-0.046859429"
       height="1.0937189">
      <feGaussianBlur
         inkscape:collect="always"
         stdDeviation="1.64008"
         id="feGaussianBlur902" />
    </filter>
  </defs>
  <sodipodi:namedview
     pagecolor="#ffffff"
     bordercolor="#666666"
     borderopacity="1"
     objecttolerance="10"
     gridtolerance="10"
     guidetolerance="10"
     inkscape:pageopacity="0"
     inkscape:pageshadow="2"
     inkscape:window-width="1920"
     inkscape:window-height="1018"
     id="namedview32"
     showgrid="false"
     inkscape:zoom="1"
     inkscape:cx="96"
     inkscape:cy="96"
     inkscape:window-x="0"
     inkscape:window-y="32"
     inkscape:window-maximized="1"
     inkscape:current-layer="svg30" />
  <rect
     id="rect2"
     ry="8"
     rx="8"
     y="20"
     x="44"
     height="160"
     width="104"
     style="opacity:0.2;stroke-width:4;filter:url(#filter868)" />
  <path
     inkscape:connector-curvature="0"
     id="path4"
     d="m 52,16 c -4.432,0 -8,3.568 -8,8 v 8 h 104 v -8 c 0,-4.432 -3.568,-8 -8,-8 z m -8,136 v 16 c 0,4.432 3.568,8 8,8 h 88 c 4.432,0 8,-3.568 8,-8 v -16 z"
     style="fill:#e4e4e4;stroke-width:4" />
  <rect
     id="rect6"
     ry="2"
     rx="2"
     y="24"
     x="84"
     height="4"
     width="24"
     style="fill:#333333;stroke-width:4" />
  <rect
     id="rect8"
     y="32"
     x="44"
     height="120"
     width="104"
     style="fill:#3f3f3f;stroke-width:4" />
  <path
     style="opacity:0.2;fill:#ffffff;stroke-width:4"
     d="M 52 16 C 47.568 16 44 19.568 44 24 L 44 25 C 44 20.568 47.568 17 52 17 L 140 17 C 144.432 17 148 20.568 148 25 L 148 24 C 148 19.568 144.432 16 140 16 L 52 16 z "
     id="path10" />
  <rect
     id="rect12"
     ry="4"
     rx="4"
     y="156"
     x="88"
     height="16"
     width="16"
     style="fill:#4d4d4d;stroke-width:4" />
  <rect
     id="rect14"
     ry="4"
     rx="4"
     y="160"
     x="116"
     height="8"
     width="16"
     style="fill:#4d4d4d;stroke-width:4" />
  <rect
     id="rect16"
     ry="4"
     rx="4"
     y="160"
     x="60"
     height="8"
     width="16"
     style="fill:#4d4d4d;stroke-width:4" />
  <circle
     id="circle18"
     r="2"
     cy="26"
     cx="114"
     style="fill:#333333;stroke-width:4" />
  <path
     inkscape:connector-curvature="0"
     id="path20"
     d="m 104,56 -16,2.42 v 57.876 L 104,112 V 89.64 L 120,116 136,110 116,86 136.008,60.008 120.484,56 104,82.236 Z M 71.42,71.696 c -0.376,0 -0.756,0.148 -1.044,0.436 l -6.292,6.288 c -0.58,0.584 -0.44,1.412 0,2.104 l 6.508,10.22 c -0.48,1 -0.896,2.028 -1.248,3.084 -0.016,0.044 -0.04,0.088 -0.056,0.132 L 57.484,96.584 C 56.684,96.764 56,97.248 56,98.072 v 3.928 3.928 c 0,0.824 0.684,1.308 1.484,1.488 l 11.804,2.624 c 0.028,0.076 0.068,0.148 0.096,0.224 0.34,1.024 0.744,2.028 1.208,3 l -6.508,10.212 c -0.44,0.692 -0.58,1.52 0,2.104 l 6.292,6.288 c 0.58,0.58 1.512,0.58 2.092,0 l 10.204,-6.5 c 1.004,0.488 2.036,0.908 3.092,1.264 0.072,0.024 0.136,0.064 0.204,0.088 l 2.616,11.796 c 0,0.82 0.664,1.484 1.488,1.484 h 8.88 c 0.82,0 1.308,-0.684 1.484,-1.484 l 2.62,-12.156 c 1.2,-0.452 2.368,-0.992 3.492,-1.616 l 9.96,7.124 c 0.58,0.58 1.512,0.58 2.092,0 l 6.292,-6.288 c 0.58,-0.584 0.44,-1.412 0,-2.104 l -3.792,-5.748 -0.396,0.148 c -0.9,0.336 -1.916,-0.012 -2.416,-0.836 l -3.984,-6.564 C 110.984,118.416 103.144,124 94,124 81.848,124 72,114.152 72,102 72,92.676 77.812,84.728 86,81.524 V 77.14 l -0.032,0.14 c -0.088,0.032 -0.168,0.08 -0.256,0.112 -1.044,0.344 -2.064,0.756 -3.056,1.232 L 72.468,72.132 C 72.18,71.844 71.8,71.696 71.42,71.696 Z"
     style="opacity:0.2;stroke-width:4;filter:url(#filter900)" />
  <path
     inkscape:connector-curvature="0"
     id="path22"
     d="m 104,52 -16,2.42 v 57.876 L 104,108 V 85.64 L 120,112 136,106 116,82 136.008,56.008 120.484,52 104,78.236 Z M 71.42,67.696 c -0.376,0 -0.756,0.148 -1.044,0.436 l -6.292,6.288 c -0.58,0.584 -0.44,1.412 0,2.104 l 6.508,10.22 c -0.48,1 -0.896,2.028 -1.248,3.084 -0.016,0.044 -0.04,0.088 -0.056,0.132 L 57.484,92.584 C 56.684,92.764 56,93.248 56,94.072 V 98 v 3.928 c 0,0.824 0.684,1.308 1.484,1.488 l 11.804,2.624 c 0.028,0.076 0.068,0.148 0.096,0.224 0.34,1.024 0.744,2.028 1.208,3 l -6.508,10.212 c -0.44,0.692 -0.58,1.52 0,2.104 l 6.292,6.288 c 0.58,0.58 1.512,0.58 2.092,0 l 10.204,-6.5 c 1.004,0.488 2.036,0.908 3.092,1.264 0.072,0.024 0.136,0.064 0.204,0.088 l 2.616,11.796 c 0,0.82 0.664,1.484 1.488,1.484 h 8.88 c 0.82,0 1.308,-0.684 1.484,-1.484 l 2.62,-12.156 c 1.2,-0.452 2.368,-0.992 3.492,-1.616 l 9.96,7.124 c 0.58,0.58 1.512,0.58 2.092,0 l 6.292,-6.288 c 0.58,-0.584 0.44,-1.412 0,-2.104 l -3.792,-5.748 -0.396,0.148 c -0.9,0.336 -1.916,-0.012 -2.416,-0.836 l -3.984,-6.564 C 110.984,114.416 103.144,120 94,120 81.848,120 72,110.152 72,98 72,88.676 77.812,80.728 86,77.524 V 73.14 l -0.032,0.14 c -0.088,0.032 -0.168,0.08 -0.256,0.112 -1.044,0.344 -2.064,0.756 -3.056,1.232 L 72.468,68.132 C 72.18,67.844 71.8,67.696 71.42,67.696 Z"
     style="fill:#ffffff;stroke-width:4" />
  <rect
     id="rect24"
     y="32"
     x="44"
     height="2"
     width="104"
     style="opacity:0.2;stroke-width:2.82842708;filter:url(#filter884)" />
  <rect
     id="rect26"
     y="152"
     x="44"
     height="1"
     width="104"
     style="opacity:0.2;fill:#ffffff;stroke-width:2" />
</svg>
