<?xml version="1.0" encoding="UTF-8" standalone="no"?>
<svg
   xmlns:dc="http://purl.org/dc/elements/1.1/"
   xmlns:cc="http://creativecommons.org/ns#"
   xmlns:rdf="http://www.w3.org/1999/02/22-rdf-syntax-ns#"
   xmlns:svg="http://www.w3.org/2000/svg"
   xmlns="http://www.w3.org/2000/svg"
   xmlns:sodipodi="http://sodipodi.sourceforge.net/DTD/sodipodi-0.dtd"
   xmlns:inkscape="http://www.inkscape.org/namespaces/inkscape"
   width="192"
   height="192"
   version="1"
   id="svg41"
   sodipodi:docname="apps_rocket_browser.svg"
   inkscape:version="0.92.3 (2405546, 2018-03-11)">
  <metadata
     id="metadata45">
    <rdf:RDF>
      <cc:Work
         rdf:about="">
        <dc:format>image/svg+xml</dc:format>
        <dc:type
           rdf:resource="http://purl.org/dc/dcmitype/StillImage" />
      </cc:Work>
    </rdf:RDF>
  </metadata>
  <sodipodi:namedview
     pagecolor="#ffffff"
     bordercolor="#666666"
     borderopacity="1"
     objecttolerance="10"
     gridtolerance="10"
     guidetolerance="10"
     inkscape:pageopacity="0"
     inkscape:pageshadow="2"
     inkscape:window-width="1920"
     inkscape:window-height="1018"
     id="namedview43"
     showgrid="false"
     inkscape:zoom="1"
     inkscape:cx="96"
     inkscape:cy="122.14379"
     inkscape:window-x="0"
     inkscape:window-y="32"
     inkscape:window-maximized="1"
     inkscape:current-layer="svg41" />
  <defs
     id="defs7">
    <linearGradient
       id="linearGradient4602"
       x1="26.989"
       x2="17.772"
       y1="21.699"
       y2="30.607"
       gradientUnits="userSpaceOnUse"
       gradientTransform="scale(4)">
      <stop
         style="stop-color:#ffb381"
         offset="0"
         id="stop2" />
      <stop
         style="stop-color:#ffb381;stop-opacity:0"
         offset="1"
         id="stop4" />
    </linearGradient>
    <filter
       inkscape:collect="always"
       style="color-interpolation-filters:sRGB"
       id="filter883"
       x="-0.048"
       width="1.096"
       y="-0.048"
       height="1.096">
      <feGaussianBlur
         inkscape:collect="always"
         stdDeviation="3.2"
         id="feGaussianBlur885" />
    </filter>
    <filter
       inkscape:collect="always"
       style="color-interpolation-filters:sRGB"
       id="filter899"
       x="-0.048"
       width="1.096"
       y="-0.048"
       height="1.096">
      <feGaussianBlur
         inkscape:collect="always"
         stdDeviation="0.24"
         id="feGaussianBlur901" />
    </filter>
    <filter
       inkscape:collect="always"
       style="color-interpolation-filters:sRGB"
       id="filter915"
       x="-0.048"
       width="1.096"
       y="-0.048"
       height="1.096">
      <feGaussianBlur
         inkscape:collect="always"
         stdDeviation="0.32"
         id="feGaussianBlur917" />
    </filter>
    <filter
       inkscape:collect="always"
       style="color-interpolation-filters:sRGB"
       id="filter931"
       x="-0.049410014"
       width="1.09882"
       y="-0.046668228"
       height="1.0933365">
      <feGaussianBlur
         inkscape:collect="always"
         stdDeviation="2.4408526"
         id="feGaussianBlur933" />
    </filter>
    <filter
       inkscape:collect="always"
       style="color-interpolation-filters:sRGB"
       id="filter947"
       x="-0.049240863"
       width="1.0984817"
       y="-0.046820138"
       height="1.0936403">
      <feGaussianBlur
         inkscape:collect="always"
         stdDeviation="2.3158594"
         id="feGaussianBlur949" />
    </filter>
  </defs>
  <rect
     id="rect9"
     transform="matrix(0,-1,-1,0,0,0)"
     ry="80"
     rx="80"
     y="-176"
     x="-180"
     height="160"
     width="160"
     style="opacity:0.2;stroke-width:4;filter:url(#filter883)" />
  <path
     inkscape:connector-curvature="0"
     id="path11"
     d="M 176,96 C 176,51.68 140.32,16 96,16 68.858824,16 44.957848,29.380817 30.507096,49.932424 c -9.146508,13.008004 -5.368254,28.185764 -5.368254,45.364588 0,44.319998 28.41579,73.907438 72.73579,73.907438 15.371908,0 27.829818,2.50334 39.994778,-4.95287 C 160.77823,150.21019 176,124.94809 176,96 Z"
     style="fill:#ff8a40;stroke-width:4" />
  <path
     style="opacity:0.2;fill:#ffffff;stroke-width:4"
     d="M 96 16 C 51.68 16 16 51.68 16 96 C 16 96.115411 16.006233 96.228869 16.007812 96.34375 C 16.358834 52.329079 51.899508 17 96 17 C 140.10049 17 175.64117 52.329079 175.99219 96.34375 C 175.99377 96.228869 176 96.115411 176 96 C 176 51.68 140.32 16 96 16 z "
     id="path13" />
  <rect
     id="rect15"
     transform="rotate(-45)"
     y="130.28"
     x="16.799999"
     height="16.591999"
     width="45.632"
     style="fill:#4d4944;stroke-width:4" />
  <path
     inkscape:connector-curvature="0"
     id="path17"
     d="m 123.98034,103.38236 c -0.15148,-0.39432 -0.0224,-1.3824 0.28732,-2.19563 1.16672,-3.065754 -0.19832,-7.287378 -2.6624,-9.907718 L 103.89795,73.677244 c -2.94928,-2.479256 -6.259326,-2.988488 -10.775966,-1.657824 -1.236232,0.3642 -1.282832,0.29228 -0.935228,-1.444072 0.640724,-3.20052 4.675848,-9.261908 8.964484,-13.466064 5.45485,-5.347376 9.48796,-7.404168 15.73804,-8.026044 l 4.62516,-0.460188 4.00422,-3.945176 c 9.18844,-9.052939 23.3872,-15.738924 35.16613,-16.559212 5.59765,-0.389832 6.7632,0.08114 7.23439,2.923004 0.421,2.539089 -0.85075,9.851648 -2.70178,15.535364 -2.99503,9.196424 -7.31226,16.433696 -13.89958,23.300724 l -4.21757,4.396676 -0.53571,4.709988 c -0.75591,6.646084 -2.37283,9.687144 -8.34797,15.700632 -3.77256,3.796776 -5.85905,5.406668 -9.27519,7.156538 -4.93017,2.52541 -4.57738,2.5395 -4.96101,1.54073 z"
     style="fill:#6d6861;stroke-width:4" />
  <path
     inkscape:connector-curvature="0"
     id="path19"
     d="m 34.423206,45.470632 c -3.393797,4.446724 -6.338339,9.256684 -8.759786,14.365 -4.903648,10.3448 0.773763,22.381812 0.773763,34.634908 0,44.32 24.197869,72.97012 68.517869,72.97012 8.318618,0 19.375178,5.29897 26.902338,2.95862 7.29731,-2.26888 14.14056,-5.55103 20.37051,-9.67865 -2.31385,-1.69076 -5.14133,-2.71875 -8.22657,-2.71875 -2.15516,0.002 -4.28067,0.50239 -6.21093,1.46094 -1.24626,-7.75383 -7.93573,-13.45692 -15.78907,-13.46094 -4.15931,-5e-5 -8.15518,1.61959 -11.14062,4.51562 -2.195534,-5.15662 -7.254818,-8.50694 -12.859378,-8.51562 -2.146628,0.004 -4.26368,0.50079 -6.1875,1.45312 -1.280008,-9.96983 -9.76084,-17.44072 -19.8125,-17.45312 -0.24752,0.003 -0.49496,0.0112 -0.742188,0.0236 0.492268,-1.55973 0.742572,-3.18522 0.742188,-4.82048 -0.0064,-7.35989 -5.032668,-13.76612 -12.179688,-15.52343 0.119,-0.55199 0.17924,-1.11502 0.17968,-1.67969 -7.28e-4,-2.9883 -1.666888,-5.727064 -4.320312,-7.101564 2.767096,-2.955376 4.310932,-6.849864 4.32032,-10.898436 -0.0076,-5.457556 -2.796608,-10.534784 -7.398436,-13.468752 2.126828,-1.495488 3.394248,-3.931272 3.398436,-6.531248 0,-4.418276 -3.581724,-8 -8.000002,-8 -0.240048,0.0022 -0.479874,0.0152 -0.71875,0.0392 0.469657,-1.295388 0.712792,-2.661568 0.71875,-4.0392 0,-3.341784 -1.374036,-6.355472 -3.578124,-8.531248 z"
     style="opacity:0.2;fill:#000000;stroke-width:4;filter:url(#filter931)" />
  <path
     inkscape:connector-curvature="0"
     id="path21"
     d="m 32.421875,47.468752 c -3.393797,4.446724 -6.338339,9.256684 -8.759786,14.365 -4.903648,10.3448 0.773763,22.381812 0.773763,34.634908 0,44.32 24.197868,72.97012 68.517868,72.97012 8.31862,0 19.37518,5.29897 26.90234,2.95862 7.29731,-2.26888 14.14056,-5.55103 20.3705,-9.67865 C 137.91272,161.02799 135.08524,160 132,160 c -2.15516,0.002 -4.28067,0.50239 -6.21094,1.46094 C 124.54281,153.70711 117.85334,148.00402 110,148 c -4.15932,-5e-5 -8.15518,1.61959 -11.140624,4.51562 C 96.663844,147.359 91.60456,144.00868 86,144 c -2.146628,0.004 -4.26368,0.50079 -6.1875,1.45312 C 78.532492,135.48329 70.05166,128.0124 60,128 c -0.24752,0.003 -0.49496,0.0112 -0.742188,0.0236 C 59.75008,126.46387 60.000384,124.83838 60,123.20312 59.99366,115.84323 54.967332,109.437 47.820312,107.67969 47.93932,107.1277 47.999552,106.56467 48,106 47.999272,103.0117 46.333112,100.27294 43.679688,98.898436 46.446776,95.94306 47.990612,92.048572 48,88 47.992332,82.542444 45.203392,77.465216 40.601564,74.531248 42.728392,73.03576 43.995812,70.599976 44,68 44,63.581724 40.418276,60 36,60 35.759952,60.0022 35.520126,60.0152 35.28125,60.0392 35.750907,58.743812 35.994042,57.377632 36,56 36,52.658216 34.625964,49.644528 32.421875,47.468752 Z"
     style="fill:#ffba83;stroke-width:4" />
  <path
     inkscape:connector-curvature="0"
     id="path23"
     d="M 27.9375,55.289064 C 21.613634,66.750424 18,79.933444 18,94 c 0,44.32 35.68,80 80,80 11.74446,0 22.84712,-2.56251 32.875,-7.07031 C 129.35625,166.35113 127.72449,166 126,166 c -2.15516,0.002 -4.28067,0.50239 -6.21094,1.46094 C 118.54281,159.70711 111.85334,154.00402 104,154 c -4.159316,-5e-5 -8.15518,1.61959 -11.140624,4.51562 C 90.663844,153.359 85.60456,150.00868 80,150 c -2.146628,0.004 -4.26368,0.50079 -6.1875,1.45312 C 72.532492,141.48329 64.05166,134.0124 54,134 c -0.24752,0.003 -0.49496,0.0112 -0.742188,0.0236 C 53.75008,132.4637 54.000384,130.83838 54,129.20312 53.99366,121.84323 48.967332,115.437 41.820312,113.67969 41.93932,113.1277 41.999552,112.56467 42,112 41.999272,109.0117 40.333112,106.27294 37.679688,104.89844 40.446776,101.94306 41.990612,98.048572 42,94 41.992332,88.542444 39.20339,83.465216 34.601562,80.531248 36.72839,79.03576 37.995812,76.599976 38,74 38,69.581724 34.418276,66 30,66 29.759952,66.0022 29.520126,66.0152 29.28125,66.0392 29.750907,64.743676 29.994042,63.377632 30,62 30,59.509944 29.238222,57.203876 27.9375,55.289064 Z"
     style="opacity:0.2;stroke-width:4;filter:url(#filter947)" />
  <path
     inkscape:connector-curvature="0"
     id="path25"
     d="M 25.9375,57.289064 C 19.613634,68.750424 16,81.933444 16,96 c 0,44.32 35.68,80 80,80 11.74446,0 22.84712,-2.56251 32.875,-7.07031 C 127.35625,168.35113 125.72449,168 124,168 c -2.15516,0.002 -4.28067,0.50239 -6.21094,1.46094 C 116.54281,161.70711 109.85334,156.00402 102,156 c -4.159316,-5e-5 -8.15518,1.61959 -11.140624,4.51562 C 88.663844,155.359 83.60456,152.00868 78,152 c -2.146628,0.004 -4.26368,0.50079 -6.1875,1.45312 C 70.532492,143.48329 62.05166,136.0124 52,136 c -0.24752,0.003 -0.49496,0.0112 -0.742188,0.0236 C 51.75008,134.4637 52.000384,132.83838 52,131.20312 51.99366,123.84323 46.967332,117.437 39.820312,115.67969 39.93932,115.1277 39.999552,114.56467 40,114 39.999272,111.0117 38.333112,108.27294 35.679688,106.89844 38.446776,103.94306 39.990612,100.04857 40,96 39.992332,90.542444 37.20339,85.465216 32.601562,82.531248 34.72839,81.03576 35.995812,78.599976 36,76 36,71.581724 32.418276,68 28,68 27.759952,68.0022 27.520126,68.0152 27.28125,68.0392 27.750907,66.743676 27.994042,65.377632 28,64 28,61.509944 27.238222,59.203876 25.9375,57.289064 Z"
     style="fill:#ffeee3;stroke-width:4" />
  <circle
     id="circle27"
     r="8"
     cy="54"
     cx="144"
     style="opacity:0.1;stroke-width:4;filter:url(#filter915)" />
  <circle
     id="circle29"
     r="8"
     cy="52"
     cx="144"
     style="fill:#ffffff;stroke-width:4" />
  <circle
     id="circle31"
     r="6"
     cy="72"
     cx="126"
     style="opacity:0.1;stroke-width:4;filter:url(#filter899)" />
  <circle
     id="circle33"
     r="6"
     cy="70"
     cx="126"
     style="fill:#ffffff;stroke-width:4" />
  <path
     inkscape:connector-curvature="0"
     id="path35"
     d="m 164.10938,28.007812 c -0.90381,-0.03372 -2.02247,0.01192 -3.42188,0.109376 -4.02609,0.280376 -8.33802,1.285634 -12.63281,2.796875 0.28076,9.258446 7.42156,17.616674 16.61719,17.101562 0.1722,-0.492348 0.3828,-0.933648 0.54687,-1.4375 1.85103,-5.683716 3.12413,-12.999973 2.70313,-15.539062 -0.3534,-2.131401 -1.1011,-2.930038 -3.8125,-3.031251 z"
     style="opacity:0.3;stroke-width:4" />
  <path
     inkscape:connector-curvature="0"
     id="path37"
     d="M 105.76562,82.031248 49.23546,138.56787 58.008924,146.76451 114.25,90.523436 Z"
     style="fill:url(#linearGradient4602);stroke-width:4" />
</svg>
