<?xml version="1.0" encoding="UTF-8" standalone="no"?>
<svg
   xmlns:dc="http://purl.org/dc/elements/1.1/"
   xmlns:cc="http://creativecommons.org/ns#"
   xmlns:rdf="http://www.w3.org/1999/02/22-rdf-syntax-ns#"
   xmlns:svg="http://www.w3.org/2000/svg"
   xmlns="http://www.w3.org/2000/svg"
   xmlns:sodipodi="http://sodipodi.sourceforge.net/DTD/sodipodi-0.dtd"
   xmlns:inkscape="http://www.inkscape.org/namespaces/inkscape"
   width="192"
   height="192"
   version="1"
   id="svg18"
   sodipodi:docname="apps_bipolalarm.svg"
   inkscape:version="0.92.3 (2405546, 2018-03-11)">
  <metadata
     id="metadata24">
    <rdf:RDF>
      <cc:Work
         rdf:about="">
        <dc:format>image/svg+xml</dc:format>
        <dc:type
           rdf:resource="http://purl.org/dc/dcmitype/StillImage" />
      </cc:Work>
    </rdf:RDF>
  </metadata>
  <defs
     id="defs22">
    <filter
       inkscape:collect="always"
       style="color-interpolation-filters:sRGB"
       id="filter867"
       x="-0.048"
       width="1.096"
       y="-0.048"
       height="1.096">
      <feGaussianBlur
         inkscape:collect="always"
         stdDeviation="3.2"
         id="feGaussianBlur869" />
    </filter>
    <filter
       inkscape:collect="always"
       style="color-interpolation-filters:sRGB"
       id="filter895"
       x="-0.040069634"
       width="1.0801393"
       y="-0.059844003"
       height="1.119688">
      <feGaussianBlur
         inkscape:collect="always"
         stdDeviation="2.0034817"
         id="feGaussianBlur897" />
    </filter>
  </defs>
  <sodipodi:namedview
     pagecolor="#ffffff"
     bordercolor="#666666"
     borderopacity="1"
     objecttolerance="10"
     gridtolerance="10"
     guidetolerance="10"
     inkscape:pageopacity="0"
     inkscape:pageshadow="2"
     inkscape:window-width="1920"
     inkscape:window-height="1018"
     id="namedview20"
     showgrid="false"
     inkscape:zoom="1"
     inkscape:cx="96"
     inkscape:cy="96"
     inkscape:window-x="0"
     inkscape:window-y="32"
     inkscape:window-maximized="1"
     inkscape:current-layer="svg18" />
  <rect
     style="opacity:0.2;fill:#000000;stroke-width:4;filter:url(#filter867)"
     width="160"
     height="160"
     x="-180"
     y="-176"
     rx="80"
     ry="80"
     transform="matrix(0,-1,-1,0,0,0)"
     id="rect841" />
  <rect
     id="rect4"
     transform="matrix(0,-1,-1,0,0,0)"
     ry="80"
     rx="80"
     y="-176"
     x="-176"
     height="160"
     width="160"
     style="fill:#4f4f4f;stroke-width:4" />
  <path
     style="opacity:0.1;fill:#ffffff;stroke-width:4"
     d="M 96 16 C 51.68 16 16 51.68 16 96 C 16 96.116813 16.005391 96.231684 16.007812 96.347656 C 16.356433 52.330881 51.897996 17 96 17 C 140.10527 17 175.64875 52.336104 175.99219 96.357422 C 175.99453 96.238196 176 96.119996 176 96 C 176 51.68 140.32 16 96 16 z "
     id="path6" />
  <path
     inkscape:connector-curvature="0"
     id="path8"
     d="m 48,48 80,44 -24,12 36,40 L 92,116 60,100 84,88 Z"
     style="fill:#ff7317;stroke-width:4" />
  <path
     inkscape:connector-curvature="0"
     id="path10"
     d="m 79.009688,137.15597 c 3.847944,-1.40649 3.522344,-0.78692 16.10486,-30.64543 6.307392,-14.967536 11.657972,-27.289072 11.890182,-27.381188 0.2322,-0.09212 1.50417,0.594096 2.82657,1.524928 2.99058,2.105044 7.88577,4.584844 10.13032,5.131808 0.93277,0.22732 4.1354,0.6944 7.11697,1.037992 5.31534,0.612532 10.62631,1.885456 12.98698,3.112696 3.84289,1.9978 10.63347,7.946584 13.81487,12.102304 1.52702,1.9947 2.39815,2.29515 2.03907,0.70329 -1.71735,-7.613286 -5.11242,-14.734002 -8.50245,-17.83277 -2.11883,-1.936776 -6.13592,-3.74822 -11.90824,-5.369836 -8.81262,-2.47572 -11.17534,-3.271596 -14.03124,-4.726408 -5.23252,-2.665468 -11.15436,-7.611404 -16.29203,-13.607152 -1.67513,-1.954908 -3.16497,-3.554376 -3.31074,-3.554376 -0.14576,0 -5.91451,13.384168 -12.81941,29.7426 -6.904896,16.358432 -12.674524,29.742602 -12.821396,29.742602 -0.14688,0 -1.432384,-1.58947 -2.856696,-2.55583 -10.566108,-7.16882 -24.998804,-10.26776 -32.537724,-6.9864 -3.333192,1.45079 -5.257384,5.35572 -4.762549,8.48671 1.327186,8.39755 14.494233,18.16735 28.672293,21.27453 4.272904,0.93642 11.425648,0.83607 14.26036,-0.20008 z"
     style="opacity:0.2;stroke-width:4;filter:url(#filter895)" />
  <path
     inkscape:connector-curvature="0"
     id="path12"
     d="m 79.009688,135.15597 c 3.847944,-1.40649 3.522344,-0.78692 16.10486,-30.64543 6.307392,-14.967536 11.657972,-27.289072 11.890182,-27.381188 0.2322,-0.09212 1.50417,0.594096 2.82657,1.524928 2.99058,2.105044 7.88577,4.584844 10.13032,5.131808 0.93277,0.22732 4.1354,0.6944 7.11697,1.037992 5.31534,0.612532 10.62631,1.885456 12.98698,3.112696 3.84289,1.9978 10.63347,7.946584 13.81487,12.102304 1.52702,1.9947 2.39815,2.29515 2.03907,0.70329 -1.71735,-7.613286 -5.11242,-14.734002 -8.50245,-17.83277 -2.11883,-1.936776 -6.13592,-3.74822 -11.90824,-5.369836 -8.81262,-2.47572 -11.17534,-3.271596 -14.03124,-4.726408 -5.23252,-2.665468 -11.15436,-7.611404 -16.29203,-13.607152 -1.67513,-1.954908 -3.16497,-3.554376 -3.31074,-3.554376 -0.14576,0 -5.91451,13.384168 -12.81941,29.7426 -6.904896,16.358432 -12.674524,29.742602 -12.821396,29.742602 -0.14688,0 -1.432384,-1.58947 -2.856696,-2.55583 -10.566108,-7.16882 -24.998804,-10.26776 -32.537724,-6.9864 -3.333192,1.45079 -5.257384,5.35572 -4.762549,8.48671 1.327186,8.39755 14.494233,18.16735 28.672293,21.27453 4.272904,0.93642 11.425648,0.83607 14.26036,-0.20008 z"
     style="fill:#ffd733;stroke-width:4" />
  <path
     style="fill:#ffffff;stroke-width:4;opacity:0.2"
     d="M 101.875 55.652344 C 101.72924 55.652344 95.959587 69.036099 89.054688 85.394531 C 82.149792 101.75296 76.381247 115.13672 76.234375 115.13672 C 76.087495 115.13672 74.801265 113.54839 73.376953 112.58203 C 62.810845 105.41321 48.378764 102.31434 40.839844 105.5957 C 37.678756 106.97158 35.788506 110.55288 36.023438 113.58984 C 36.215147 110.80435 38.020226 107.82296 40.839844 106.5957 C 48.378764 103.31434 62.810845 106.41321 73.376953 113.58203 C 74.801265 114.54839 76.087495 116.13672 76.234375 116.13672 C 76.381247 116.13672 82.149792 102.75296 89.054688 86.394531 C 95.959587 70.036099 101.72924 56.652344 101.875 56.652344 C 102.02077 56.652344 103.51042 58.252123 105.18555 60.207031 C 110.32322 66.202779 116.246 71.147032 121.47852 73.8125 C 124.33442 75.267312 126.69715 76.063343 135.50977 78.539062 C 141.28209 80.160678 145.29914 81.97338 147.41797 83.910156 C 150.79657 86.998474 154.17757 94.081757 155.90039 101.66602 C 156.01138 101.53243 156.0323 101.24036 155.91992 100.74219 C 154.20257 93.128901 150.808 86.008924 147.41797 82.910156 C 145.29914 80.97338 141.28209 79.160678 135.50977 77.539062 C 126.69715 75.063343 124.33442 74.267312 121.47852 72.8125 C 116.246 70.147032 110.32322 65.202779 105.18555 59.207031 C 103.51042 57.252123 102.02077 55.652344 101.875 55.652344 z "
     id="path899" />
</svg>
