<?xml version="1.0" encoding="UTF-8" standalone="no"?>
<svg
   xmlns:dc="http://purl.org/dc/elements/1.1/"
   xmlns:cc="http://creativecommons.org/ns#"
   xmlns:rdf="http://www.w3.org/1999/02/22-rdf-syntax-ns#"
   xmlns:svg="http://www.w3.org/2000/svg"
   xmlns="http://www.w3.org/2000/svg"
   xmlns:sodipodi="http://sodipodi.sourceforge.net/DTD/sodipodi-0.dtd"
   xmlns:inkscape="http://www.inkscape.org/namespaces/inkscape"
   width="192"
   height="192"
   version="1"
   id="svg30"
   sodipodi:docname="apps_castbox.svg"
   inkscape:version="0.92.3 (2405546, 2018-03-11)">
  <metadata
     id="metadata36">
    <rdf:RDF>
      <cc:Work
         rdf:about="">
        <dc:format>image/svg+xml</dc:format>
        <dc:type
           rdf:resource="http://purl.org/dc/dcmitype/StillImage" />
      </cc:Work>
    </rdf:RDF>
  </metadata>
  <defs
     id="defs34">
    <filter
       inkscape:collect="always"
       style="color-interpolation-filters:sRGB"
       id="filter874"
       x="-0.048"
       width="1.096"
       y="-0.048"
       height="1.096">
      <feGaussianBlur
         inkscape:collect="always"
         stdDeviation="3.2"
         id="feGaussianBlur876" />
    </filter>
    <filter
       inkscape:collect="always"
       style="color-interpolation-filters:sRGB"
       id="filter890"
       x="-0.052"
       width="1.104"
       y="-0.044571429"
       height="1.0891429">
      <feGaussianBlur
         inkscape:collect="always"
         stdDeviation="0.52"
         id="feGaussianBlur892" />
    </filter>
  </defs>
  <sodipodi:namedview
     pagecolor="#ffffff"
     bordercolor="#666666"
     borderopacity="1"
     objecttolerance="10"
     gridtolerance="10"
     guidetolerance="10"
     inkscape:pageopacity="0"
     inkscape:pageshadow="2"
     inkscape:window-width="1920"
     inkscape:window-height="1018"
     id="namedview32"
     showgrid="false"
     inkscape:zoom="1"
     inkscape:cx="96"
     inkscape:cy="96"
     inkscape:window-x="0"
     inkscape:window-y="32"
     inkscape:window-maximized="1"
     inkscape:current-layer="svg30" />
  <rect
     style="opacity:0.2;fill:#000000;stroke-width:4;filter:url(#filter874)"
     width="160"
     height="160"
     x="-180"
     y="-176"
     rx="80"
     ry="80"
     transform="matrix(0,-1,-1,0,0,0)"
     id="rect856" />
  <rect
     id="rect2"
     transform="matrix(0,-1,-1,0,0,0)"
     ry="80"
     rx="80"
     y="-176"
     x="-176"
     height="160"
     width="160"
     style="fill:#7c4c9c;stroke-width:4" />
  <path
     style="opacity:0.1;fill:#ffffff;stroke-width:4"
     d="M 95.998047 16 C 51.678955 16.001052 16 51.680653 16 96 C 16 96.115498 16.006172 96.228859 16.007812 96.34375 C 16.358829 52.329731 51.898462 17.001046 95.998047 17 L 96 17 C 140.10547 17.001047 175.64856 52.339122 175.99023 96.361328 C 175.99198 96.240601 175.99805 96.121307 175.99805 96 C 175.99805 51.680653 140.31909 16.001052 96 16 L 95.998047 16 z "
     id="path4" />
  <g
     id="g16"
     transform="matrix(4,0,0,4,0,12)"
     style="opacity:0.2;filter:url(#filter890)">
    <path
       inkscape:connector-curvature="0"
       id="path8"
       d="m 24,8 c -6.627417,0 -12,5.372583 -12,12 0.01054,3.838017 1.85269,7.411143 4.908203,9.648438 0.02455,0.01797 0.05106,0.02525 0.07617,0.03711 a 1,1 0 0 0 0.615234,0.214844 1,1 0 0 0 1,-1 A 1,1 0 0 0 18,27.982422 v -0.002 C 15.487432,26.096053 14.006139,23.140698 14,20 c 0,-5.522847 4.477153,-10 10,-10 5.522847,0 10,4.477153 10,10 -0.008,3.138635 -1.489077,6.091432 -4,7.974609 l -0.002,0.0098 a 1,1 0 0 0 -0.597656,0.916016 1,1 0 0 0 1,1 1,1 0 0 0 0.630859,-0.226563 c 0.03086,-0.01144 0.06345,-0.01816 0.0918,-0.03906 C 34.162116,27.393986 35.992607,23.82807 36,20 36,13.372583 30.627417,8 24,8 Z" />
    <path
       inkscape:connector-curvature="0"
       id="path10"
       d="m 24,12 c -4.418278,0 -8,3.581722 -8,8 0.0036,2.407547 1.088815,4.659929 2.912109,6.162109 0.03917,0.03227 0.07929,0.05073 0.119141,0.06055 a 1,1 0 0 0 0.568359,0.177735 1,1 0 0 0 1,-1 A 1,1 0 0 0 20,24.482422 v -0.01758 C 18.729291,23.32829 18.002073,21.704832 18,20 c 0,-3.313708 2.686292,-6 6,-6 3.313708,0 6,2.686292 6,6 -0.0026,1.704151 -0.729797,3.326791 -2,4.462891 v 0.01953 a 1,1 0 0 0 -0.599609,0.917969 1,1 0 0 0 1,1 1,1 0 0 0 0.478515,-0.123047 c 0.04639,-0.0034 0.09317,-0.01806 0.138672,-0.05469 C 30.884369,24.71995 31.997474,22.439792 32,20 32,15.581722 28.418278,12 24,12 Z" />
    <path
       inkscape:connector-curvature="0"
       id="path12"
       d="m 24,17 a 3,3 0 0 0 -3,3 3,3 0 0 0 3,3 3,3 0 0 0 3,-3 3,3 0 0 0 -3,-3 z" />
    <rect
       id="rect14"
       ry="3"
       rx="3"
       y="25"
       x="21"
       height="11"
       width="6" />
  </g>
  <g
     id="g26"
     transform="matrix(4,0,0,4,0,8)">
    <path
       inkscape:connector-curvature="0"
       id="path18"
       d="m 24,8 c -6.627417,0 -12,5.372583 -12,12 0.01054,3.838017 1.85269,7.411143 4.908203,9.648438 0.02455,0.01797 0.05106,0.02525 0.07617,0.03711 a 1,1 0 0 0 0.615234,0.214844 1,1 0 0 0 1,-1 A 1,1 0 0 0 18,27.982422 v -0.002 C 15.487432,26.096053 14.006139,23.140698 14,20 c 0,-5.522847 4.477153,-10 10,-10 5.522847,0 10,4.477153 10,10 -0.008,3.138635 -1.489077,6.091432 -4,7.974609 l -0.002,0.0098 a 1,1 0 0 0 -0.597656,0.916016 1,1 0 0 0 1,1 1,1 0 0 0 0.630859,-0.226563 c 0.03086,-0.01144 0.06345,-0.01816 0.0918,-0.03906 C 34.162116,27.393986 35.992607,23.82807 36,20 36,13.372583 30.627417,8 24,8 Z"
       style="fill:#ffffff" />
    <path
       inkscape:connector-curvature="0"
       id="path20"
       d="m 24,12 c -4.418278,0 -8,3.581722 -8,8 0.0036,2.407547 1.088815,4.659929 2.912109,6.162109 0.03917,0.03227 0.07929,0.05073 0.119141,0.06055 a 1,1 0 0 0 0.568359,0.177735 1,1 0 0 0 1,-1 A 1,1 0 0 0 20,24.482422 v -0.01758 C 18.729291,23.32829 18.002073,21.704832 18,20 c 0,-3.313708 2.686292,-6 6,-6 3.313708,0 6,2.686292 6,6 -0.0026,1.704151 -0.729797,3.326791 -2,4.462891 v 0.01953 a 1,1 0 0 0 -0.599609,0.917969 1,1 0 0 0 1,1 1,1 0 0 0 0.478515,-0.123047 c 0.04639,-0.0034 0.09317,-0.01806 0.138672,-0.05469 C 30.884369,24.71995 31.997474,22.439792 32,20 32,15.581722 28.418278,12 24,12 Z"
       style="fill:#ffffff" />
    <path
       inkscape:connector-curvature="0"
       id="path22"
       d="m 24,17 a 3,3 0 0 0 -3,3 3,3 0 0 0 3,3 3,3 0 0 0 3,-3 3,3 0 0 0 -3,-3 z"
       style="fill:#ffffff" />
    <rect
       id="rect24"
       ry="3"
       rx="3"
       y="25"
       x="21"
       height="11"
       width="6"
       style="fill:#ffffff" />
  </g>
</svg>
