<?xml version="1.0" encoding="UTF-8" standalone="no"?>
<svg
   xmlns:dc="http://purl.org/dc/elements/1.1/"
   xmlns:cc="http://creativecommons.org/ns#"
   xmlns:rdf="http://www.w3.org/1999/02/22-rdf-syntax-ns#"
   xmlns:svg="http://www.w3.org/2000/svg"
   xmlns="http://www.w3.org/2000/svg"
   xmlns:sodipodi="http://sodipodi.sourceforge.net/DTD/sodipodi-0.dtd"
   xmlns:inkscape="http://www.inkscape.org/namespaces/inkscape"
   width="192"
   height="192"
   version="1.1"
   id="svg20"
   sodipodi:docname="apps_olx.svg"
   inkscape:version="0.92.3 (2405546, 2018-03-11)">
  <metadata
     id="metadata26">
    <rdf:RDF>
      <cc:Work
         rdf:about="">
        <dc:format>image/svg+xml</dc:format>
        <dc:type
           rdf:resource="http://purl.org/dc/dcmitype/StillImage" />
        <dc:title></dc:title>
      </cc:Work>
    </rdf:RDF>
  </metadata>
  <defs
     id="defs24">
    <filter
       inkscape:collect="always"
       style="color-interpolation-filters:sRGB"
       id="filter857"
       x="-0.048"
       width="1.096"
       y="-0.048"
       height="1.096">
      <feGaussianBlur
         inkscape:collect="always"
         stdDeviation="3.2"
         id="feGaussianBlur859" />
    </filter>
    <filter
       inkscape:collect="always"
       style="color-interpolation-filters:sRGB"
       id="filter875"
       x="-0.036562327"
       width="1.0731247"
       y="-0.069851378"
       height="1.1397028">
      <feGaussianBlur
         inkscape:collect="always"
         stdDeviation="1.9499923"
         id="feGaussianBlur877" />
    </filter>
  </defs>
  <sodipodi:namedview
     pagecolor="#ffffff"
     bordercolor="#666666"
     borderopacity="1"
     objecttolerance="10"
     gridtolerance="10"
     guidetolerance="10"
     inkscape:pageopacity="0"
     inkscape:pageshadow="2"
     inkscape:window-width="1920"
     inkscape:window-height="1018"
     id="namedview22"
     showgrid="false"
     inkscape:zoom="1"
     inkscape:cx="126.78643"
     inkscape:cy="108.75012"
     inkscape:window-x="0"
     inkscape:window-y="32"
     inkscape:window-maximized="1"
     inkscape:current-layer="svg20">
    <inkscape:grid
       type="xygrid"
       id="grid849" />
  </sodipodi:namedview>
  <circle
     id="circle2"
     r="80"
     cy="100"
     cx="96"
     style="opacity:0.2;stroke-width:4;filter:url(#filter857)" />
  <circle
     id="circle4"
     r="80"
     cy="96"
     cx="96"
     style="fill:#e4e4e4;fill-opacity:1;stroke-width:4" />
  <path
     inkscape:connector-curvature="0"
     style="opacity:0.2;fill:#ffffff;stroke-width:4"
     d="M 96,16 A 80,80 0 0 0 16,96 80,80 0 0 0 16.019531,96.472656 80,80 0 0 1 96,17 80,80 0 0 1 175.97461,96.513672 80,80 0 0 0 176,96 80,80 0 0 0 96,16 Z"
     id="path8" />
  <path
     style="opacity:0.2;fill:#000000;fill-rule:evenodd;stroke:none;stroke-width:0.15889534;filter:url(#filter875)"
     d="M 85.710938,65.000876 C 84.188451,65.000876 82,66.248842 82,68.739157 v 37.130863 c 0,3.69217 3.711185,6.13086 6.589844,6.13086 h 19.304686 c 2.94818,0 4.13986,-0.79286 4.52735,-2.46094 0.3873,-1.66792 0.57812,-4.53707 0.57812,-7.03711 0,-2.50004 -1.37896,-3.416016 -2.82617,-3.416016 H 99.539062 C 96.582587,99.086814 95,97.50556 95,96.061423 V 69.580954 C 95,65.461 92.610316,65.000876 91.289062,65.000876 Z m 67.046872,6.007812 c -2.10364,0.111291 -4.72375,1.517223 -5.75195,2.945313 -0.91398,1.269573 -4.92363,5.830329 -12.02734,13.683594 -4.31624,-6.357238 -7.45658,-10.396661 -8.6211,-12.119141 -1.74655,-2.583483 -4.30111,-3.458984 -6.85547,-3.458984 -2.55433,0 -5.41949,3.263226 -4.17773,6.042968 0.82778,1.853269 4.59959,8.610615 10.51367,20.271485 -7.16335,7.972617 -11.63403,12.921657 -13.41016,14.849617 -2.66435,2.89178 -2.98189,6.18796 -1.69921,8.68945 1.28269,2.5018 2.0655,3.79915 3.74218,6.38867 1.67667,2.58952 4.35575,2.06393 6.16992,-0.54101 1.2093,-1.73679 5.00902,-7.39625 11.4004,-16.97852 4.56551,8.44983 7.66128,14.10931 9.2871,16.97852 2.43874,4.30374 4.65391,4.57186 6.9668,4.03711 2.31291,-0.53475 4.99109,-1.16271 8.48242,-2.15626 3.49101,-0.99336 3.79814,-3.6379 2.56055,-5.73828 -0.82506,-1.40019 -6.82869,-10.24262 -18.00977,-26.525391 7.02121,-10.223802 11.33677,-16.516428 12.94532,-18.876953 2.41284,-3.540945 2.37224,-5.933454 0.33789,-7.125 -0.50855,-0.297886 -1.1523,-0.404284 -1.85352,-0.367188 z M 55.5,72.000876 c -12.978646,0 -23.5,12.536021 -23.5,28.000004 0,15.46398 10.521354,28 23.5,28 12.978646,0 23.5,-12.53602 23.5,-28 C 79,84.536897 68.478646,72.000876 55.5,72.000876 Z m 0,9 c 5.799021,0 10.5,8.506569 10.5,19.000004 0,10.49343 -4.700979,19 -10.5,19 -5.799021,0 -10.5,-8.50657 -10.5,-19 0,-10.493435 4.700979,-19.000004 10.5,-19.000004 z"
     id="path856"
     inkscape:connector-curvature="0" />
  <path
     inkscape:connector-curvature="0"
     style="fill:#642286;fill-rule:evenodd;stroke:none;stroke-width:0.15889534"
     d="M 55.5,70 C 42.521354,70 32,82.536021 32,98 32,113.46398 42.521354,126 55.5,126 68.478646,126 79,113.46398 79,98 79,82.536021 68.478646,70 55.5,70 Z m 0,9 C 61.299021,79 66,87.506569 66,98 66,108.49343 61.299021,117 55.5,117 49.700979,117 45,108.49343 45,98 45,87.506569 49.700979,79 55.5,79 Z"
     id="path853" />
  <path
     style="fill:#96a300;fill-opacity:1;fill-rule:evenodd;stroke:none;stroke-width:0.15947932"
     inkscape:connector-curvature="0"
     id="path6"
     d="M 82,103.86856 C 82,100.17624 82,69.228099 82,66.737785 82,64.24747 84.187737,63 85.710223,63 h 5.578409 C 92.609885,63 95,63.460803 95,67.580757 v 26.480627 c 0,1.444137 1.581616,3.024489 4.538091,3.024489 h 10.635559 c 1.44721,0 2.82635,0.915545 2.82635,3.415587 0,2.50004 -0.19166,5.36982 -0.57897,7.03774 -0.38749,1.66808 -1.57862,2.4608 -4.5268,2.4608 H 88.588882 C 85.710223,110 82,107.56073 82,103.86856 Z"
     sodipodi:nodetypes="ssssssssscsss" />
  <path
     style="fill:#fe7701;fill-rule:evenodd;stroke:none;stroke-width:0.15940492"
     inkscape:connector-curvature="0"
     id="path8-3"
     d="m 112.42863,111.22305 c 1.77613,-1.92796 6.24572,-6.87816 13.40907,-14.850774 -5.91408,-11.66087 -9.68542,-18.417779 -10.5132,-20.271047 -1.24176,-2.779743 1.62231,-6.042428 4.17664,-6.042428 2.55436,0 5.10981,0.875304 6.85636,3.458787 1.16452,1.72248 4.30523,5.76226 8.62147,12.119498 7.10371,-7.853265 11.11263,-12.414604 12.02661,-13.684177 1.37094,-1.90412 5.57078,-3.769783 7.60498,-2.578238 2.03435,1.191546 2.07593,3.585125 -0.33691,7.12607 -1.60855,2.360525 -5.92351,8.652925 -12.94472,18.876727 11.18107,16.282762 17.18406,25.124322 18.00912,26.524512 1.23759,2.10038 0.92947,4.74553 -2.56154,5.7389 -3.49133,0.99355 -6.16831,1.62221 -8.48122,2.15696 -2.31289,0.53475 -4.52762,0.26603 -6.96636,-4.03771 -1.62582,-2.86921 -4.72158,-8.52866 -9.28709,-16.97849 -6.39138,9.58227 -10.19179,15.2417 -11.40109,16.97849 -1.81418,2.60494 -4.49373,3.1311 -6.1704,0.54158 -1.67668,-2.58952 -2.45921,-3.88817 -3.7419,-6.38997 -1.28268,-2.50149 -0.96417,-5.79691 1.70018,-8.68869 z"
     sodipodi:nodetypes="cccsccccccccccccccc" />
</svg>
