<?xml version="1.0" encoding="UTF-8" standalone="no"?>
<svg
   xmlns:dc="http://purl.org/dc/elements/1.1/"
   xmlns:cc="http://creativecommons.org/ns#"
   xmlns:rdf="http://www.w3.org/1999/02/22-rdf-syntax-ns#"
   xmlns:svg="http://www.w3.org/2000/svg"
   xmlns="http://www.w3.org/2000/svg"
   xmlns:sodipodi="http://sodipodi.sourceforge.net/DTD/sodipodi-0.dtd"
   xmlns:inkscape="http://www.inkscape.org/namespaces/inkscape"
   width="192"
   height="192"
   version="1"
   id="svg36"
   sodipodi:docname="apps_pgpauth.svg"
   inkscape:version="0.92.3 (2405546, 2018-03-11)">
  <metadata
     id="metadata42">
    <rdf:RDF>
      <cc:Work
         rdf:about="">
        <dc:format>image/svg+xml</dc:format>
        <dc:type
           rdf:resource="http://purl.org/dc/dcmitype/StillImage" />
      </cc:Work>
    </rdf:RDF>
  </metadata>
  <defs
     id="defs40">
    <filter
       inkscape:collect="always"
       style="color-interpolation-filters:sRGB"
       id="filter901"
       x="-0.050352941"
       width="1.1007059"
       y="-0.045857143"
       height="1.0917143">
      <feGaussianBlur
         inkscape:collect="always"
         stdDeviation="1.07"
         id="feGaussianBlur903" />
    </filter>
    <filter
       inkscape:collect="always"
       style="color-interpolation-filters:sRGB"
       id="filter928"
       x="-0.048"
       width="1.096"
       y="-0.048"
       height="1.096">
      <feGaussianBlur
         inkscape:collect="always"
         stdDeviation="1.44"
         id="feGaussianBlur930" />
    </filter>
    <filter
       inkscape:collect="always"
       style="color-interpolation-filters:sRGB"
       id="filter958"
       x="-0.048000004"
       width="1.096"
       y="-0.047999997"
       height="1.096">
      <feGaussianBlur
         inkscape:collect="always"
         stdDeviation="1.4400001"
         id="feGaussianBlur960" />
    </filter>
    <filter
       inkscape:collect="always"
       style="color-interpolation-filters:sRGB"
       id="filter979"
       x="-0.044027234"
       width="1.0880545"
       y="-0.052760836"
       height="1.1055217">
      <feGaussianBlur
         inkscape:collect="always"
         stdDeviation="2.6568257"
         id="feGaussianBlur981" />
    </filter>
  </defs>
  <sodipodi:namedview
     pagecolor="#ffffff"
     bordercolor="#666666"
     borderopacity="1"
     objecttolerance="10"
     gridtolerance="10"
     guidetolerance="10"
     inkscape:pageopacity="0"
     inkscape:pageshadow="2"
     inkscape:window-width="1920"
     inkscape:window-height="1018"
     id="namedview38"
     showgrid="false"
     inkscape:zoom="1"
     inkscape:cx="57.840302"
     inkscape:cy="117.18781"
     inkscape:window-x="0"
     inkscape:window-y="32"
     inkscape:window-maximized="1"
     inkscape:current-layer="svg36">
    <inkscape:grid
       type="xygrid"
       id="grid865" />
  </sodipodi:namedview>
  <path
     style="opacity:0.2;fill:#000000;stroke-width:4;filter:url(#filter979)"
     d="m 72.539062,48.154487 c -8.438508,-0.07161 -17.325893,3.976284 -23.818359,10.46875 -2.639355,2.647147 2.124152,6.988158 7.400391,11.574219 -0.280722,2.057071 -0.191135,4.727432 -0.01367,7.572265 -0.309308,0.769848 -0.222935,1.415917 0.128906,2.027344 0.166308,2.361875 0.347815,4.77187 0.398438,7.013672 2.097544,-0.557551 3.589622,-1.810599 4.615234,-2.628906 0.47877,0.407954 0.964012,0.84292 1.449219,1.328125 0.182103,0.182103 0.320724,0.349476 0.470703,0.521484 1.6e-4,0.0401 0.002,0.06623 0.002,0.107422 0,3.126733 -1.206734,5.965854 -3.166016,8.101562 -1.510914,0.208258 -2.986763,0.378287 -4.445312,0.539063 0.940575,-1.824522 1.147758,-4.712131 1.074219,-7.96875 -0.658124,0.174937 -1.369573,0.287109 -2.150391,0.287109 -6.627416,0 -4.439465,1.310064 -4.439453,7.9375 0,0.217505 -0.02002,0.395676 -0.03125,0.591797 -1.85774,0.500616 -2.640896,1.244861 -1.292969,2.59375 0.04779,0.04779 0.09844,0.0913 0.146485,0.138672 -1.741797,0.42752 -0.723316,1.231768 0.21289,0.203125 1.075709,1.038866 2.213731,1.97394 3.402344,2.80664 l -0.460938,1.10547 C 46.896,107.70597 31.174475,86.815222 31.171875,94.138862 c 0,15.463968 12.536028,27.999998 28,27.999998 4.039904,-0.0107 7.746437,-0.61237 11.412109,-2.31055 l 9.560547,9.96094 -0.160156,11.11328 13.193359,-0.0801 6.910156,7.31054 -0.24414,12.76953 13.08398,-0.082 2.17188,1.92188 6.07812,6.08008 h 0.78907 L 136.30273,169.008 136,154.38886 V 153.5998 L 87.40625,103.00605 c 0.874895,-1.88854 1.530031,-3.863604 1.964844,-5.886719 2.340205,-2.549019 4.16826,-5.292364 5.382812,-8.603516 l 15.687504,0.484375 7.55859,8 10.30859,-8 h 8.07618 l 9.61523,8 10.41602,-8 h 9.88867 l 9.69531,-13 -9.13672,-10.539062 -0.55859,-0.462891 H 94.753906 c -1.391228,-3.792816 -3.586539,-7.510716 -6.435547,-10.375 -4.442213,-4.442212 -10.00558,-6.419757 -15.779297,-6.46875 z"
     id="path962"
     inkscape:connector-curvature="0" />
  <path
     inkscape:connector-curvature="0"
     id="path6"
     d="m 48.720776,54.622868 c 10.93468,-10.93468 28.6633,-14.934608 39.59798,-3.999932 2.849008,2.864284 5.044548,6.582788 6.435776,10.375604 H 166.3049 l 0.55795,0.46292 L 176,72 166.3049,85.000244 156.41514,84.999756 146,93 136.38412,84.999756 128.30764,85.000228 118,93 110.44214,85.000228 94.754532,84.516432 c -1.391228,3.792812 -3.586728,6.840152 -6.435776,9.704392 -10.93468,10.934676 -28.6633,10.934676 -39.59798,0 -5.176748,-5.180444 20.712468,-1.525476 20.637736,-8.848736 v 0 L 66.6446,78.766632 C 66.7192,71.45418 43.557452,59.801412 48.720776,54.622844 Z m 9.08638,16.846792 c -4.686292,4.686292 0.20636,5.35328 4.892672,10.039576 4.686288,4.686288 -1.69478,6.084196 2.991512,1.397904 4.686292,-4.686292 4.686292,-12.284272 0,-16.970564 -4.686292,-4.686288 -3.197892,0.846792 -7.884184,5.533084 z"
     style="fill:#e4e4e4;stroke-width:4"
     sodipodi:nodetypes="cccccccccccccccccccccscsss" />
  <path
     style="fill:#000000;stroke-width:4;opacity:0.2"
     d="M 57.318359 72 C 53.53557 76.204942 58.199364 77.009927 62.699219 81.509766 C 63.844304 82.654851 64.322315 83.598922 64.46875 84.310547 C 64.749923 83.922272 65.138105 83.459551 65.691406 82.90625 C 66.375539 82.222117 66.947255 81.471763 67.431641 80.681641 L 66.644531 78.767578 C 66.664961 76.765002 64.917649 74.431491 62.511719 72 L 57.318359 72 z M 67.431641 80.681641 L 69.359375 85.373047 C 69.434107 92.696307 43.543955 89.040259 48.720703 94.220703 C 59.655383 105.15538 77.383679 105.15538 88.318359 94.220703 C 91.167407 91.356463 93.362678 88.308437 94.753906 84.515625 L 110.44141 85 L 118 93 L 128.30859 85 L 136.38477 85 L 146 93 L 156.41602 85 L 166.30469 85 L 176 72 L 68.955078 72 C 69.557872 74.937226 69.04511 78.049772 67.431641 80.681641 z M 64.46875 84.310547 C 62.950377 86.407284 64.850846 86.167409 64.46875 84.310547 z "
     id="path867" />
  <path
     inkscape:connector-curvature="0"
     id="path16"
     d="m 59.17162,62.139368 c 15.463972,0 30.828376,9.707652 30.82838,25.17162 -0.0108,4.039908 -0.895572,8.029644 -2.593752,11.695316 L 136,149.60006 v 0.78906 l 0.303,14.61888 -14.33574,-0.18616 h -0.78906 l -6.07812,-6.07905 -2.17186,-1.92189 -13.084568,0.0823 0.244358,-12.77045 -6.909782,-7.31093 -13.193936,0.0814 0.15972,-11.1142 -9.559536,-9.96094 c -3.665672,1.69818 -7.37292,2.30052 -11.412824,2.31126 -15.463972,0 -28,-12.53603 -28,-28 0.0026,-7.32364 15.7246,13.56725 20.850084,8.336084 v 0 l 2.751736,-6.589788 C 59.996908,86.76772 51.858832,62.15014 59.171652,62.13936 Z m -4.68754,20.958143 c -6.627416,0 -4.43932,1.310637 -4.439308,7.938073 0,6.627412 -5.500568,3.103784 1.126848,3.103784 6.62742,0 12.000004,-5.37258 12.000004,-12 -4e-6,-6.627416 -2.060124,0.958143 -8.687544,0.958143 z"
     style="fill:#e4e4e4;stroke-width:4"
     sodipodi:nodetypes="cccccccccccccccccccccccscsss" />
  <path
     inkscape:connector-curvature="0"
     id="path18"
     d="m 31.171875,90.140312 c 0,1.300428 0.117472,2.567012 0.289064,3.820312 l 23.890625,23.882816 c 1.253428,0.17164 2.519744,0.29688 3.820312,0.29688 4.039904,-0.0108 7.748388,-0.61433 11.41406,-2.3125 l 9.554688,9.96093 -0.15624,11.11719 13.195312,-0.0859 6.906244,7.3125 -0.242196,12.77343 13.085936,-0.0859 2.17188,1.92188 6.07812,6.07812 h 0.78906 L 135.8203,164.99971 136,164.82 60.632812,89.452812 c -1.642248,2.120868 -3.957748,3.671388 -6.648436,4.320312 l -1.96094,4.703124 C 46.897952,103.70742 31.174489,82.816672 31.171875,90.140312 Z m 22.812501,3.632812 0.78906,-1.890624 c 1.25282,-1.227512 1.722852,-3.590696 1.83594,-6.453124 l -4.617188,-4.617188 c -4.50442,0.608068 -1.945324,4.199984 -1.945312,10.226564 0,1.626812 -0.34004,2.628592 -0.742188,3.234372 0.475664,-0.07728 1.07526,-0.1328 1.867188,-0.1328 0.972556,0 1.907,-0.1488 2.8125,-0.3672 z m -4.679688,0.5 c -2.527916,0.410772 -1.04034,1.5672 0,0 z"
     style="opacity:0.2;stroke-width:4" />
  <path
     inkscape:connector-curvature="0"
     id="path20"
     d="m 59.171876,62.139248 c -2.920452,0.0044 -3.352564,3.979408 -3.179688,9.02344 0.034,-4.021 0.668488,-7.019736 3.179688,-7.02344 15.140864,0 30.143504,9.322916 30.765624,24.226564 0.0144,-0.35232 0.06156,-0.701412 0.06252,-1.054688 -4e-6,-15.463968 -15.364152,-25.171876 -30.828124,-25.171876 z m -2.765628,18.179688 c -0.894408,0.20188 -1.847532,0.3672 -2.929684,0.3672 -3.927168,0 -4.324508,1.445808 -4.0625,3.890628 0.2994,-1.220864 1.316092,-1.890628 4.0625,-1.890628 1.13412,0 2.12666,-0.1806 3.054684,-0.39844 -0.0356,-0.650804 -0.08068,-1.308832 -0.125,-1.968752 z m 0.125,1.968752 c 0.06236,1.1439 0.06256,2.207324 0.07032,3.281248 0.04524,-1.023356 0.0028,-2.158556 -0.0312,-3.28906 -0.0132,0.0031 -0.026,0.0048 -0.0392,0.008 z m 6.554688,0.710936 c -0.34992,4.860932 -3.559508,8.888484 -7.984372,10.429688 -0.11248,0.1484 -0.19996,0.33536 -0.32812,0.460936 l -0.78906,1.882816 c 5.264956,-1.269772 9.1875,-5.977952 9.1875,-11.632816 0,-0.479956 -0.0536,-0.777976 -0.08596,-1.140624 z m -9.10156,12.77344 c -0.29852,0.072 -0.599508,0.13048 -0.906252,0.17968 l -1.054688,2.523436 c -5.125484,5.23117 -20.848947,-15.659576 -20.851561,-8.33594 0,0.525532 0.04955,1.0363 0.07812,1.554688 0.793073,-5.716128 15.783325,13.874262 20.773437,8.781252 z m -4.007812,-4.08594 c -0.08444,1.200432 -0.33508,2.0786 -0.671876,2.58594 0.15532,-0.0252 0.42252,-0.0284 0.609376,-0.04688 0.05188,-0.38124 0.1328,-0.703172 0.1328,-1.1875 0,-0.476112 -0.04216,-0.905712 -0.07032,-1.351564 z m -0.671876,2.58594 c -2.527916,0.410768 -1.04034,1.567196 0,0 z m 38.664064,5.320312 c -0.18804,0.471694 -0.34848,0.952104 -0.562504,1.414064 L 136,151.60019 v 0.78906 l 0.26564,12.61719 h 0.0392 L 136,150.38925 v -0.78906 z m -7.859376,28.164064 -0.125,9.14844 h 0.0312 l 0.125,-9.11719 z m 19.937504,18.33594 -0.203124,10.8125 h 0.0392 l 0.203124,-10.77344 z"
     style="opacity:0.2;fill:#ffffff;stroke-width:4" />
  <path
     style="opacity:0.2;fill:#000000;stroke-width:4.0002265;filter:url(#filter958)"
     d="m 32,76.999994 c 0,9.213899 3.51757,18.425079 10.547274,25.455046 14.059407,14.05995 36.848764,14.05995 50.908171,0 14.059405,-14.059938 14.059405,-36.850156 0,-50.910094 -14.059407,-14.059937 -36.848764,-14.059937 -50.908171,0 C 35.51757,58.574914 32,67.786094 32,76.999994 Z m 8.203434,0 c 0,-2.047532 0.781681,-4.094461 2.34384,-5.656675 3.124314,-3.124428 8.188614,-3.124428 11.312928,0 3.124314,3.124432 3.124314,8.188922 0,11.31335 -3.124314,3.124432 -8.188614,3.124432 -11.312928,0 -1.562159,-1.562214 -2.34384,-3.609144 -2.34384,-5.656675 z"
     id="path932"
     inkscape:connector-curvature="0" />
  <path
     inkscape:connector-curvature="0"
     id="path14"
     d="m 32,72.999997 c 0,9.2139 3.51757,18.42508 10.547274,25.455047 14.059407,14.059946 36.848764,14.059946 50.908171,0 14.059405,-14.059938 14.059405,-36.850156 0,-50.910094 -14.059407,-14.059937 -36.848764,-14.059937 -50.908171,0 C 35.51757,54.574917 32,63.786097 32,72.999997 Z m 8.203434,0 c 0,-2.047531 0.781681,-4.094461 2.34384,-5.656675 3.124314,-3.124428 8.188614,-3.124428 11.312928,0 3.124314,3.124432 3.124314,8.188922 0,11.31335 -3.124314,3.124432 -8.188614,3.124432 -11.312928,0 -1.562159,-1.562214 -2.34384,-3.609144 -2.34384,-5.656675 z"
     style="fill:#6b6b6b;stroke-width:4.0002265" />
  <path
     style="opacity:0.1;fill:#000000;stroke-width:4.00042772;filter:url(#filter928)"
     d="M 34.541436,67.541436 C 28.02602,74.056852 23.999998,83.057814 24,93.000001 24,112.88438 40.115623,129 60.000001,129 79.884378,129 96,112.88438 96,93.000001 c 0,-19.884378 -16.115622,-36 -35.999999,-36 -9.942187,-4e-6 -18.943149,4.026018 -25.458565,10.541435 z M 40.34254,73.34254 C 41.79041,71.894673 43.790624,71.000001 46,71.000001 c 4.418749,4e-6 7.999995,3.581251 7.999999,8.000003 0,4.418753 -3.581246,7.999999 -7.999999,7.999995 -4.418752,0 -7.999999,-3.581246 -7.999999,-7.999999 -2e-6,-2.209376 0.894671,-4.20959 2.342539,-5.65746 z"
     id="path910"
     inkscape:connector-curvature="0" />
  <path
     inkscape:connector-curvature="0"
     id="path24"
     d="M 34.541436,63.541436 C 28.02602,70.056852 23.999998,79.057814 24,89.000001 24,108.88438 40.115623,125 60.000001,125 79.884378,125 96,108.88438 96,89.000001 c 0,-19.884378 -16.115622,-36 -35.999999,-36 -9.942187,-4e-6 -18.943149,4.026018 -25.458565,10.541435 z M 40.34254,69.34254 C 41.79041,67.894673 43.790624,67.000001 46,67.000001 c 4.418749,4e-6 7.999995,3.581251 7.999999,8.000003 0,4.418753 -3.581246,7.999999 -7.999999,7.999995 -4.418752,0 -7.999999,-3.581246 -7.999999,-7.999999 -2e-6,-2.209376 0.894671,-4.20959 2.342539,-5.65746 z"
     style="fill:#8e8e8e;stroke-width:4.00042772" />
  <path
     sodipodi:nodetypes="sccsccsccccs"
     style="opacity:0.2;fill:#000000;stroke-width:4;filter:url(#filter901)"
     d="m 16,55 c 0,15.463973 12.536027,28 28,28 2.758764,-0.003 5.702316,-0.413683 8.341,-1.218752 1.099836,-1.366888 1.5965,-3.06956 1.5965,-4.960936 0,-1.428736 -0.40626,-2.753104 -1.0625,-3.914064 C 50.117358,74.27825 47.08009,74.99479 44,75 32.954305,75 24,66.045695 24,55 24,43.954305 32.954305,35 44,35 49.109069,35.01028 54.020496,36.975407 57.726564,40.492188 60.750952,39.594652 63.87184,39.133308 67,39.046876 61.770978,31.504523 53.177677,27.003547 44,27 28.536027,27 16,39.536027 16,55 Z"
     id="path875"
     inkscape:connector-curvature="0" />
  <path
     inkscape:connector-curvature="0"
     id="path28"
     d="m 16,53 c 0,15.463973 12.536027,28 28,28 2.758764,-0.003 5.702316,-0.413683 8.341,-1.218752 1.099836,-1.366888 1.5965,-3.06956 1.5965,-4.960936 0,-1.428736 -0.40626,-2.753104 -1.0625,-3.914064 C 50.117358,72.27825 47.08009,72.99479 44,73 32.954305,73 24,64.045695 24,53 24,41.954305 32.954305,33 44,33 49.109069,33.01028 54.020496,34.975407 57.726564,38.492188 60.750952,37.594652 63.87184,37.133308 67,37.046876 61.770978,29.504523 53.177677,25.003547 44,25 28.536027,25 16,37.536027 16,53 Z"
     style="fill:#e4e4e4;stroke-width:4"
     sodipodi:nodetypes="sccsccsccccs" />
  <path
     style="opacity:0.2;fill:#ffffff;stroke-width:4"
     d="M 44 24.818359 A 28 28 0 0 0 16 52.818359 A 28 28 0 0 0 16.019531 53.248047 A 28 28 0 0 1 44 25.818359 A 28 28 0 0 1 66.28125 36.931641 C 66.52039 36.904224 66.759327 36.871885 67 36.865234 A 28 28 0 0 0 44 24.818359 z M 24.039062 54.029297 A 20 20 0 0 0 24 54.818359 A 20 20 0 0 0 24.025391 55.316406 A 20 20 0 0 1 24.039062 55.029297 A 20 20 0 0 0 44 73.818359 A 20 20 0 0 0 52.875 71.724609 C 53.465984 72.770125 53.836833 73.953257 53.908203 75.220703 C 53.925504 75.029008 53.9375 74.83516 53.9375 74.638672 C 53.9375 73.209936 53.53124 71.885569 52.875 70.724609 A 20 20 0 0 1 44 72.818359 A 20 20 0 0 1 24.039062 54.029297 z "
     id="path30" />
  <path
     style="fill:#6b6b6b;stroke-width:4.0002265"
     d="m 67.330078,37.005859 c -5.222039,0.09669 -10.426501,1.323417 -15.216797,3.679688 -3.454107,1.699022 1.830931,3.07228 -1.042814,5.946133 -7.029703,7.029968 14.011299,-6.951205 17.154142,1.710117 0.913242,2.516792 2.9375,0.646484 2.9375,0.646484 0,0 -0.608301,0.895085 -1.661113,3.187188 1.005673,0.241498 2.146226,0.832049 3.117051,1.155977 0.985876,-0.859406 0.932545,-0.41909 2.421015,-1.907618 1.579696,-1.579755 3.043109,-2.632097 4.390626,-3.3125 -4.036387,-5.34613 0.206187,-9.928813 -6.886719,-10.826172 -1.729732,-0.218837 -3.472211,-0.311525 -5.212891,-0.279297 z m 12.09961,11.105469 c 0.314342,0.416342 0.663653,0.835512 1.08789,1.259766 12.47971,12.480181 9.557585,-6.635002 -1.08789,-1.259766 z"
     id="path905"
     inkscape:connector-curvature="0"
     sodipodi:nodetypes="sssscccscssccc" />
</svg>
