<?xml version="1.0" encoding="UTF-8" standalone="no"?>
<svg
   xmlns:dc="http://purl.org/dc/elements/1.1/"
   xmlns:cc="http://creativecommons.org/ns#"
   xmlns:rdf="http://www.w3.org/1999/02/22-rdf-syntax-ns#"
   xmlns:svg="http://www.w3.org/2000/svg"
   xmlns="http://www.w3.org/2000/svg"
   xmlns:sodipodi="http://sodipodi.sourceforge.net/DTD/sodipodi-0.dtd"
   xmlns:inkscape="http://www.inkscape.org/namespaces/inkscape"
   width="192"
   height="192"
   version="1"
   id="svg14"
   sodipodi:docname="apps_firefox_focus.svg"
   inkscape:version="0.92.3 (2405546, 2018-03-11)">
  <metadata
     id="metadata20">
    <rdf:RDF>
      <cc:Work
         rdf:about="">
        <dc:format>image/svg+xml</dc:format>
        <dc:type
           rdf:resource="http://purl.org/dc/dcmitype/StillImage" />
        <dc:title></dc:title>
      </cc:Work>
    </rdf:RDF>
  </metadata>
  <defs
     id="defs18">
    <filter
       inkscape:collect="always"
       style="color-interpolation-filters:sRGB"
       id="filter846"
       x="-0.048"
       width="1.096"
       y="-0.048"
       height="1.096">
      <feGaussianBlur
         inkscape:collect="always"
         stdDeviation="3.2"
         id="feGaussianBlur848" />
    </filter>
    <filter
       inkscape:collect="always"
       style="color-interpolation-filters:sRGB"
       id="filter879"
       x="-0.0492"
       width="1.0984"
       y="-0.046857143"
       height="1.0937143">
      <feGaussianBlur
         inkscape:collect="always"
         stdDeviation="2.214"
         id="feGaussianBlur881" />
    </filter>
  </defs>
  <sodipodi:namedview
     pagecolor="#ffffff"
     bordercolor="#666666"
     borderopacity="1"
     objecttolerance="10"
     gridtolerance="10"
     guidetolerance="10"
     inkscape:pageopacity="0"
     inkscape:pageshadow="2"
     inkscape:window-width="1920"
     inkscape:window-height="1018"
     id="namedview16"
     showgrid="false"
     inkscape:zoom="1.07"
     inkscape:cx="46.681034"
     inkscape:cy="114.4759"
     inkscape:window-x="0"
     inkscape:window-y="32"
     inkscape:window-maximized="1"
     inkscape:current-layer="svg14">
    <inkscape:grid
       type="xygrid"
       id="grid826" />
  </sodipodi:namedview>
  <circle
     r="80"
     cy="100"
     cx="96"
     id="circle828"
     style="opacity:0.2;fill:#000000;fill-opacity:1;stroke:none;stroke-width:2.27843237;stroke-linecap:round;stroke-linejoin:round;stroke-miterlimit:4;stroke-dasharray:none;stroke-opacity:1;filter:url(#filter846)" />
  <circle
     style="opacity:1;fill:#a11491;fill-opacity:1;stroke:none;stroke-width:2.27843237;stroke-linecap:round;stroke-linejoin:round;stroke-miterlimit:4;stroke-dasharray:none;stroke-opacity:1"
     id="path818"
     cx="96"
     cy="96"
     r="80" />
  <path
     inkscape:connector-curvature="0"
     id="path2"
     d="M 121.79837,48.508457 C 114.14152,44.355585 105.35597,42 96,42 79.726519,42 65.178766,49.126601 55.29466,60.441875 c -1.290973,42.066425 46.05766,88.319905 66.46489,73.496995 11.57536,-8.40784 3.98615,-58.352622 0.0388,-85.430415 z"
     style="fill:#f22581;fill-opacity:1;stroke-width:2.70000005" />
  <path
     inkscape:connector-curvature="0"
     style="opacity:0.1;fill:#ffffff;stroke-width:2.70000005"
     d="m 96,42 c -16.273481,0 -30.820972,7.126132 -40.705078,18.441406 -0.02385,0.777205 -0.02646,1.556286 -0.01758,2.335938 0.0029,-0.445554 0.0039,-0.891243 0.01758,-1.335938 C 65.179028,50.126132 79.726519,43 96,43 c 9.35597,0 18.14198,2.35494 25.79883,6.507812 2.33811,16.038854 5.95337,40.098464 6.10742,58.798828 -0.028,-18.836473 -3.72709,-43.470373 -6.10742,-59.798828 C 114.14198,44.35494 105.35597,42 96,42 Z"
     id="path855" />
  <path
     sodipodi:nodetypes="ccccccccsccccccccccccccccccccccccccccccccccccccccccccccccssscccscccc"
     style="opacity:0.2;fill:#000000;stroke-width:2.70000005;filter:url(#filter879)"
     d="m 114.97383,38.6 -0.64336,0.801562 c -0.1107,0.13743 -0.21911,0.277047 -0.33223,0.421875 -2.49858,3.314142 -3.9189,7.057761 -5.412,11.079492 -0.56916,1.542996 -1.1726,3.869993 -1.50821,5.806055 -0.33642,1.941382 -0.36593,6.254936 -0.0527,7.952345 0.82782,4.496472 2.72135,8.733501 5.50019,12.31875 3.2211,3.507273 6.72272,7.373133 8.02763,10.193553 1.79415,3.880521 2.55234,7.334931 2.55234,11.627931 0,1.294027 -0.0739,2.624197 -0.18457,3.417187 C 120.20121,114.93567 111.19637,124.93185 98.558358,125 90.558185,125.03 79.8,121.90038 78.349817,113.63669 c 3.853502,0.58685 6.742466,0.37686 9.494857,0.35735 2.543457,-0.0181 4.970287,-0.56434 7.933853,-2.13678 4.415583,-2.35769 6.601423,-2.79253 7.809673,-2.65254 1.78038,0.20628 2.00481,0.20215 2.39415,-0.0422 0.82566,-0.51808 1.06243,-0.72601 0.58534,-1.71159 -0.60237,-1.24429 -2.71568,-2.98193 -4.48769,-3.6914 -1.48419,-0.5943 -2.292602,-0.74248 -4.071095,-0.74356 -1.81116,-10e-4 -3.347225,0.086 -6.612605,1.07578 -3.25971,0.98823 -5.066534,1.13668 -7.076954,0.57481 C 75.957973,102.6653 71.71242,95.639559 75.7824,90.21318 c 2.44782,-0.11286 7.419587,1.533573 8.9694,2.592243 1.48284,-1.457217 -1.735573,-3.699205 -2.2518,-5.748046 0,-2.557397 5.210887,-4.046128 7.351182,-5.009766 1.40994,-0.632772 2.784672,-1.282266 3.053322,-1.439649 0.58374,-0.342198 1.709192,-1.434637 2.167382,-2.104101 0.69903,-1.022005 1.158081,-2.914572 0.875391,-3.596484 -0.35478,-0.857007 -2.741302,-1.39036 -8.516602,-1.903711 -2.17971,-0.19386 -3.670801,-1.190368 -4.819921,-3.216799 -2.013133,-4.654807 5.116346,-9.082569 7.667576,-11.427518 -4.05783,-2.214757 -11.600296,1.970006 -14.016796,4.238843 -0.77409,0.766017 -0.537459,0.754275 -2.884569,0.137106 -0.1566,-0.04131 -0.318838,-0.07768 -0.485158,-0.116019 -0.0594,-0.0135 -0.119907,-0.02924 -0.179307,-0.0422 -0.108,-0.0243 -0.221535,-0.04614 -0.332227,-0.06855 -0.0783,-0.0162 -0.156303,-0.03208 -0.237303,-0.04747 -0.0918,-0.0162 -0.181872,-0.03626 -0.274217,-0.05273 -0.0972,-0.0162 -0.192294,-0.03127 -0.29004,-0.04747 -0.0702,-0.0108 -0.140751,-0.01998 -0.210951,-0.03164 -0.62154,-0.09801 -1.270865,-0.182088 -1.924805,-0.242568 -0.71523,-0.06588 -1.432375,-0.109836 -2.125195,-0.126549 -0.2079,-0.0054 -0.415033,-0.0054 -0.61699,-0.0054 -0.2187,-4.59e-4 -0.429109,-2.86e-4 -0.638089,0.0054 -0.0405,0.0011 -0.08078,0.0026 -0.121283,0.0054 -0.1755,0.0054 -0.348589,0.01296 -0.516799,0.02106 -0.027,0.0014 -0.04695,0.0026 -0.06855,0.0054 -0.1863,0.0108 -0.364282,0.02538 -0.537892,0.0422 -0.027,0.0013 -0.02867,0.0026 -0.0422,0.0054 -0.1782,0.0162 -0.34371,0.04061 -0.50625,0.06329 h -0.0054 c -0.0729,0.0108 -0.151281,0.01944 -0.221481,0.03164 -0.77355,-0.0027 -1.48294,0.216594 -2.08828,0.495702 C 59.923064,59.199497 59.430501,52.835588 57.85181,49.4 c -3.69252,1.935117 -6.221905,11.445451 -6.850195,14.686666 -0.2403,1.288899 -0.515448,3.791751 -0.516797,4.67754 -2.46e-4,0.127494 -0.03207,0.177174 -0.03692,0.268947 C 45.112833,77.405912 42,87.335959 42,98 c 0,29.82338 24.176624,54 54,54 29.82338,0 54,-24.17662 54,-54 0,-18.9 -8.46376,-28.610588 -16.84336,-41.876368 0,-0.0081 6.3e-4,-0.01299 -0.0265,-0.02109 -1.23498,-1.846968 -2.30376,-3.874543 -3.16934,-5.885148 -0.135,-0.443232 -0.29527,-0.806837 -0.35332,-0.806837 -0.027,0 -0.052,0.0175 -0.0844,0.04746 -1.08883,1.316191 -1.61528,6.441912 -2.19902,8.041979 -4.21469,-5.837924 -9.43975,-11.64113 -12.1921,-18.108985 z"
     id="path865"
     inkscape:connector-curvature="0" />
  <path
     inkscape:connector-curvature="0"
     id="path8"
     d="m 114.97383,36.6 -0.64336,0.801562 c -0.1107,0.13743 -0.21911,0.277047 -0.33223,0.421875 -2.49858,3.314142 -3.9189,7.057761 -5.412,11.079492 -0.56916,1.542996 -1.1726,3.869993 -1.50821,5.806055 -0.33642,1.941382 -0.36593,6.254936 -0.0527,7.952345 0.82782,4.496472 2.72135,8.733501 5.50019,12.31875 3.2211,3.507273 6.72272,7.373133 8.02763,10.193553 1.79415,3.880521 2.55234,7.334931 2.55234,11.627931 0,1.294029 -0.0739,2.624197 -0.18457,3.417187 C 120.20121,112.93567 111.19637,122.93185 98.558358,123 90.558185,123.03 79.8,119.90038 78.349817,111.63669 c 3.853502,0.58685 6.742466,0.37686 9.494857,0.35735 2.543457,-0.0181 4.970287,-0.56434 7.933853,-2.13678 4.415583,-2.35769 6.601423,-2.79253 7.809673,-2.65254 1.78038,0.20628 2.00481,0.20215 2.39415,-0.0422 0.82566,-0.51808 1.06243,-0.72601 0.58534,-1.71159 -0.60237,-1.24429 -2.71568,-2.98193 -4.48769,-3.6914 -1.48419,-0.5943 -2.292602,-0.74248 -4.071095,-0.74356 -1.81116,-10e-4 -3.347225,0.086 -6.612605,1.07578 -3.25971,0.98823 -5.066534,1.13668 -7.076954,0.57481 C 75.957973,100.6653 71.71242,93.639559 75.7824,88.21318 c 2.44782,-0.11286 7.419587,1.533573 8.9694,2.592243 1.48284,-1.457217 -1.735573,-3.699205 -2.2518,-5.748046 0,-2.557397 5.210887,-4.046128 7.351182,-5.009766 1.40994,-0.632772 2.784672,-1.282266 3.053322,-1.439649 0.58374,-0.342198 1.709192,-1.434637 2.167382,-2.104101 0.69903,-1.022005 1.158081,-2.914572 0.875391,-3.596484 -0.35478,-0.857007 -2.741302,-1.39036 -8.516602,-1.903711 -2.17971,-0.19386 -3.670801,-1.190368 -4.819921,-3.216799 -2.013133,-4.654807 5.116346,-9.082569 7.667576,-11.427518 -4.05783,-2.214757 -11.600296,1.970006 -14.016796,4.238843 -0.77409,0.766017 -0.537459,0.754275 -2.884569,0.137106 -0.1566,-0.04131 -0.318838,-0.07768 -0.485158,-0.116019 -0.0594,-0.0135 -0.119907,-0.02924 -0.179307,-0.0422 -0.108,-0.0243 -0.221535,-0.04614 -0.332227,-0.06855 -0.0783,-0.0162 -0.156303,-0.03208 -0.237303,-0.04747 -0.0918,-0.0162 -0.181872,-0.03626 -0.274217,-0.05273 -0.0972,-0.0162 -0.192294,-0.03127 -0.29004,-0.04747 -0.0702,-0.0108 -0.140751,-0.01998 -0.210951,-0.03164 -0.62154,-0.09801 -1.270865,-0.182088 -1.924805,-0.242568 -0.71523,-0.06588 -1.432375,-0.109836 -2.125195,-0.126549 -0.2079,-0.0054 -0.415033,-0.0054 -0.61699,-0.0054 -0.2187,-4.59e-4 -0.429109,-2.86e-4 -0.638089,0.0054 -0.0405,0.0011 -0.08078,0.0026 -0.121283,0.0054 -0.1755,0.0054 -0.348589,0.01296 -0.516799,0.02106 -0.027,0.0014 -0.04695,0.0026 -0.06855,0.0054 -0.1863,0.0108 -0.364282,0.02538 -0.537892,0.0422 -0.027,0.0013 -0.02867,0.0026 -0.0422,0.0054 -0.1782,0.0162 -0.34371,0.04061 -0.50625,0.06329 h -0.0054 c -0.0729,0.0108 -0.151281,0.01944 -0.221481,0.03164 -0.77355,-0.0027 -1.48294,0.216594 -2.08828,0.495702 C 59.923064,57.199497 59.430501,50.835588 57.85181,47.4 c -3.69252,1.935117 -6.221905,11.445451 -6.850195,14.686666 -0.2403,1.288899 -0.515448,3.791751 -0.516797,4.67754 -2.46e-4,0.127494 -0.03207,0.177174 -0.03692,0.268947 C 45.112833,75.405912 42,85.335959 42,96 c 0,29.82338 24.176624,54 54,54 29.82338,0 54,-24.17662 54,-54 0,-18.9 -8.46376,-28.610588 -16.84336,-41.876368 0,-0.0081 6.3e-4,-0.01299 -0.0265,-0.02109 -1.23498,-1.846968 -2.30376,-3.874543 -3.16934,-5.885148 -0.135,-0.443232 -0.29527,-0.806837 -0.35332,-0.806837 -0.027,0 -0.052,0.0175 -0.0844,0.04746 -1.08883,1.316191 -1.61528,6.441912 -2.19902,8.041979 -4.21469,-5.837924 -9.43975,-11.64113 -12.1921,-18.108985 z"
     style="fill:#ffffff;stroke-width:2.70000005"
     sodipodi:nodetypes="ccccccccsccccccccccccccccccccccccccccccccccccccccccccccccssscccscccc" />
  <path
     inkscape:connector-curvature="0"
     style="opacity:0.1;fill:#ffffff;fill-opacity:1;stroke:none;stroke-width:2.27843237;stroke-linecap:round;stroke-linejoin:round;stroke-miterlimit:4;stroke-dasharray:none;stroke-opacity:1"
     d="M 96,16 A 80,80 0 0 0 16,96 80,80 0 0 0 16.021484,96.585938 80,80 0 0 1 96,17 80,80 0 0 1 175.97852,96.414062 80,80 0 0 0 176,96 80,80 0 0 0 96,16 Z"
     id="circle850" />
  <path
     inkscape:connector-curvature="0"
     style="opacity:0.2;fill:#ffffff;stroke-width:2.70000005"
     d="m 114.97461,36.599609 -0.64453,0.802735 c -0.1107,0.13743 -0.21891,0.277047 -0.33203,0.421875 -2.49858,3.314142 -3.91901,7.056394 -5.41211,11.078125 -0.56916,1.542996 -1.1722,3.870578 -1.50782,5.80664 -0.19211,1.108627 -0.27058,2.966528 -0.25585,4.69336 0.0218,-1.405918 0.10169,-2.803707 0.25585,-3.69336 0.33562,-1.936062 0.93866,-4.263644 1.50782,-5.80664 1.4931,-4.021731 2.91353,-7.763983 5.41211,-11.078125 0.11312,-0.144828 0.22133,-0.284445 0.33203,-0.421875 l 0.64453,-0.802735 0.1582,0.791016 c 2.75235,6.467855 7.97672,12.271451 12.19141,18.109375 0.58374,-1.600067 1.11039,-6.724825 2.19922,-8.041016 0.0324,-0.02996 0.057,-0.04883 0.084,-0.04883 0.0581,0 0.21852,0.363409 0.35352,0.806641 0.86558,2.010605 1.93494,4.039751 3.16992,5.886719 0.0271,0.0081 0.0254,0.01143 0.0254,0.01953 8.2844,13.115073 16.64495,22.761699 16.83398,41.242187 C 149.99105,96.242948 150,96.122478 150,96 c 0,-18.9 -8.46415,-28.611173 -16.84375,-41.876953 0,-0.0081 0.002,-0.01143 -0.0254,-0.01953 -1.23498,-1.846968 -2.30434,-3.876114 -3.16992,-5.886719 -0.135,-0.443232 -0.29547,-0.806641 -0.35352,-0.806641 -0.027,0 -0.0516,0.01887 -0.084,0.04883 -1.08883,1.316191 -1.61548,6.440949 -2.19922,8.041016 -4.21469,-5.837924 -9.43906,-11.64152 -12.19141,-18.109375 z M 57.851562,47.400391 c -3.69252,1.935117 -6.221319,11.444331 -6.849609,14.685547 -0.2403,1.288899 -0.516229,3.791945 -0.517578,4.677734 -2.46e-4,0.127494 -0.03226,0.177758 -0.03711,0.269531 C 45.112201,75.405962 42,85.335959 42,96 c 0,0.142114 0.0087,0.281973 0.0098,0.423828 0.110317,-10.44475 3.198963,-20.169355 8.4375,-28.390625 0.0048,-0.09177 0.03686,-0.142037 0.03711,-0.269531 0.0013,-0.885789 0.277278,-3.388836 0.517578,-4.677734 0.62829,-3.241216 3.157089,-12.75043 6.849609,-14.685547 1.578692,3.435588 2.072032,9.799771 4.103516,13.230468 0.60534,-0.279108 1.314341,-0.498793 2.087891,-0.496093 0.0702,-0.0122 0.147803,-0.02045 0.220703,-0.03125 h 0.0059 c 0.16254,-0.02268 0.32766,-0.04825 0.50586,-0.06445 0.01353,-0.0028 0.01597,-0.0046 0.04297,-0.0059 0.17361,-0.01682 0.35081,-0.03021 0.53711,-0.04102 0.0216,-0.0028 0.04136,-0.0045 0.06836,-0.0059 0.16821,-0.0081 0.342078,-0.01608 0.517578,-0.02148 0.0405,-0.0028 0.08059,-0.0028 0.121094,-0.0039 0.20898,-0.0057 0.419972,-0.0063 0.638672,-0.0059 0.201957,0 0.409287,4.59e-4 0.617187,0.0059 0.69282,0.01671 1.40977,0.05912 2.125,0.125 0.65394,0.06048 1.302289,0.14613 1.923829,0.24414 0.0702,0.01166 0.140737,0.02045 0.210937,0.03125 0.09775,0.0162 0.193816,0.03068 0.291016,0.04687 0.09234,0.01647 0.181637,0.03654 0.273437,0.05273 0.081,0.01539 0.159981,0.03068 0.238281,0.04687 0.110692,0.02241 0.224032,0.04406 0.332032,0.06836 0.0594,0.01296 0.120287,0.02947 0.179687,0.04297 0.16632,0.03834 0.327775,0.07392 0.484375,0.115234 2.34711,0.617169 2.110676,0.629298 2.884766,-0.136719 2.268805,-2.130167 9.054833,-5.946365 13.234375,-4.572265 0.276721,-0.229968 0.564918,-0.465381 0.783203,-0.666016 -4.05783,-2.214757 -11.601078,1.969444 -14.017578,4.238281 -0.77409,0.766017 -0.537656,0.753888 -2.884766,0.136719 -0.1566,-0.04131 -0.318055,-0.0769 -0.484375,-0.115234 -0.0594,-0.0135 -0.120287,-0.03001 -0.179687,-0.04297 -0.108,-0.0243 -0.22134,-0.04595 -0.332032,-0.06836 -0.0783,-0.0162 -0.157281,-0.03149 -0.238281,-0.04687 -0.0918,-0.0162 -0.181092,-0.03627 -0.273437,-0.05273 -0.0972,-0.0162 -0.19327,-0.03068 -0.291016,-0.04687 -0.0702,-0.0108 -0.140738,-0.01959 -0.210937,-0.03125 -0.62154,-0.09801 -1.269889,-0.183661 -1.923829,-0.24414 -0.71523,-0.06588 -1.43218,-0.108287 -2.125,-0.125 -0.2079,-0.0054 -0.41523,-0.0059 -0.617187,-0.0059 -0.2187,-4.59e-4 -0.429692,1.74e-4 -0.638672,0.0059 -0.0405,0.0011 -0.08059,0.0011 -0.121094,0.0039 -0.1755,0.0054 -0.349368,0.01338 -0.517578,0.02148 -0.027,0.0014 -0.04676,0.0031 -0.06836,0.0059 -0.1863,0.0108 -0.3635,0.02419 -0.53711,0.04102 -0.027,0.0013 -0.02944,0.0031 -0.04297,0.0059 -0.1782,0.0162 -0.34332,0.04177 -0.50586,0.06445 h -0.0059 c -0.0729,0.0108 -0.150503,0.01905 -0.220703,0.03125 -0.77355,-0.0027 -1.482551,0.216985 -2.087891,0.496093 -2.031484,-3.430697 -2.524824,-9.79488 -4.103516,-13.230468 z m 24.457032,19.197265 c -0.08599,0.71953 -0.0166,1.451092 0.302734,2.189453 1.14912,2.026431 2.640603,3.022937 4.820313,3.216797 5.7753,0.513351 8.160845,1.04729 8.515625,1.904297 0.01015,0.02448 0.01322,0.06039 0.02148,0.08789 0.06079,-0.444674 0.07722,-0.849803 -0.02148,-1.087891 -0.35478,-0.857007 -2.740325,-1.390946 -8.515625,-1.904297 -2.17971,-0.19386 -3.671193,-1.190366 -4.820313,-3.216797 -0.1725,-0.398857 -0.255858,-0.795097 -0.302734,-1.189452 z m 0.3125,18.828125 C 82.549908,85.629396 82.5,85.837702 82.5,86.056641 c 0.368536,1.462672 2.105951,3.022432 2.535156,4.326171 0.578066,-1.351744 -1.724885,-3.202091 -2.414062,-4.957031 z m -8.365235,7.746094 c -0.331575,4.461381 3.646144,8.957945 10.064453,10.494145 2.01042,0.56187 3.816462,0.41401 7.076172,-0.57422 3.26538,-0.98978 4.802122,-1.07718 6.613282,-1.07618 1.778493,0.001 2.586124,0.14985 4.070314,0.74415 1.77201,0.70947 3.88591,2.44711 4.48828,3.6914 0.0413,0.0853 0.0474,0.13655 0.0781,0.21094 0.23767,-0.27639 0.22359,-0.58766 -0.0781,-1.21094 -0.60237,-1.24429 -2.71627,-2.98193 -4.48828,-3.6914 -1.48419,-0.5943 -2.291821,-0.74306 -4.070314,-0.74415 -1.81116,-0.001 -3.347902,0.0864 -6.613282,1.07618 -3.25971,0.98823 -5.065752,1.13609 -7.076172,0.57422 -5.937972,-1.42123 -9.78219,-5.377269 -10.064453,-9.494145 z m 48.837891,4.083984 c -0.0151,1.139146 -0.0745,2.265041 -0.17187,2.962891 -2.71972,12.71692 -11.72527,22.7131 -24.363286,22.78125 -7.657298,0.0287 -17.836321,-2.84026 -19.966797,-10.33203 -0.08226,-0.0119 -0.159035,-0.0186 -0.242188,-0.0312 1.450183,8.26369 12.208812,11.39328 20.208985,11.36328 12.638016,-0.0682 21.643566,-10.06433 24.363286,-22.78125 0.11066,-0.79299 0.18359,-2.12394 0.18359,-3.417969 0,-0.185982 -0.009,-0.361985 -0.0117,-0.544922 z"
     id="path857" />
</svg>
