<?xml version="1.0" encoding="UTF-8" standalone="no"?>
<svg
   xmlns:dc="http://purl.org/dc/elements/1.1/"
   xmlns:cc="http://creativecommons.org/ns#"
   xmlns:rdf="http://www.w3.org/1999/02/22-rdf-syntax-ns#"
   xmlns:svg="http://www.w3.org/2000/svg"
   xmlns="http://www.w3.org/2000/svg"
   xmlns:sodipodi="http://sodipodi.sourceforge.net/DTD/sodipodi-0.dtd"
   xmlns:inkscape="http://www.inkscape.org/namespaces/inkscape"
   width="192"
   height="192"
   version="1"
   id="svg16"
   sodipodi:docname="apps_mpv.svg"
   inkscape:version="0.92.3 (2405546, 2018-03-11)">
  <metadata
     id="metadata22">
    <rdf:RDF>
      <cc:Work
         rdf:about="">
        <dc:format>image/svg+xml</dc:format>
        <dc:type
           rdf:resource="http://purl.org/dc/dcmitype/StillImage" />
        <dc:title></dc:title>
      </cc:Work>
    </rdf:RDF>
  </metadata>
  <defs
     id="defs20">
    <filter
       inkscape:collect="always"
       style="color-interpolation-filters:sRGB"
       id="filter861"
       x="-0.048"
       width="1.096"
       y="-0.048"
       height="1.096">
      <feGaussianBlur
         inkscape:collect="always"
         stdDeviation="3.2"
         id="feGaussianBlur863" />
    </filter>
    <filter
       inkscape:collect="always"
       style="color-interpolation-filters:sRGB"
       id="filter900"
       x="-0.048"
       width="1.096"
       y="-0.048"
       height="1.096">
      <feGaussianBlur
         inkscape:collect="always"
         stdDeviation="1.6"
         id="feGaussianBlur902" />
    </filter>
  </defs>
  <sodipodi:namedview
     pagecolor="#ffffff"
     bordercolor="#666666"
     borderopacity="1"
     objecttolerance="10"
     gridtolerance="10"
     guidetolerance="10"
     inkscape:pageopacity="0"
     inkscape:pageshadow="2"
     inkscape:window-width="1920"
     inkscape:window-height="1018"
     id="namedview18"
     showgrid="false"
     inkscape:zoom="2.14"
     inkscape:cx="24"
     inkscape:cy="115.54528"
     inkscape:window-x="0"
     inkscape:window-y="32"
     inkscape:window-maximized="1"
     inkscape:current-layer="svg16" />
  <circle
     style="opacity:0.2;stroke-width:4;filter:url(#filter861)"
     cx="96"
     cy="100"
     r="80"
     id="circle2" />
  <circle
     style="fill:#8d348e;stroke-width:4"
     cx="96"
     cy="96"
     r="80"
     id="circle4" />
  <circle
     style="opacity:0.3;stroke-width:4"
     cx="102"
     cy="90"
     r="58"
     id="circle6" />
  <path
     id="path882"
     d="M 96,58 A 40,40 0 0 0 56,98 40,40 0 0 0 96,138 40,40 0 0 0 136,98 40,40 0 0 0 96,58 Z m -12,24 14,8 14,8 -14,8 -14,8 V 98 Z"
     style="opacity:0.2;fill:#000000;stroke-width:4;filter:url(#filter900)"
     inkscape:connector-curvature="0" />
  <path
     style="fill:#ffffff;stroke-width:4"
     d="M 96 56 A 40 40 0 0 0 56 96 A 40 40 0 0 0 96 136 A 40 40 0 0 0 136 96 A 40 40 0 0 0 96 56 z M 84 80 L 98 88 L 112 96 L 98 104 L 84 112 L 84 96 L 84 80 z "
     id="circle10" />
  <path
     style="opacity:0.1;fill:#ffffff;stroke-width:4"
     d="M 96 16 A 80 80 0 0 0 16 96 A 80 80 0 0 0 16.017578 96.490234 A 80 80 0 0 1 96 17 A 80 80 0 0 1 175.97461 96.494141 A 80 80 0 0 0 176 96 A 80 80 0 0 0 96 16 z "
     id="path14" />
</svg>
