<?xml version="1.0" encoding="UTF-8" standalone="no"?>
<svg
   xmlns:dc="http://purl.org/dc/elements/1.1/"
   xmlns:cc="http://creativecommons.org/ns#"
   xmlns:rdf="http://www.w3.org/1999/02/22-rdf-syntax-ns#"
   xmlns:svg="http://www.w3.org/2000/svg"
   xmlns="http://www.w3.org/2000/svg"
   xmlns:sodipodi="http://sodipodi.sourceforge.net/DTD/sodipodi-0.dtd"
   xmlns:inkscape="http://www.inkscape.org/namespaces/inkscape"
   width="192"
   height="192"
   version="1"
   id="svg28"
   sodipodi:docname="apps_player_pro_music.svg"
   inkscape:version="0.92.3 (2405546, 2018-03-11)">
  <metadata
     id="metadata34">
    <rdf:RDF>
      <cc:Work
         rdf:about="">
        <dc:format>image/svg+xml</dc:format>
        <dc:type
           rdf:resource="http://purl.org/dc/dcmitype/StillImage" />
      </cc:Work>
    </rdf:RDF>
  </metadata>
  <defs
     id="defs32">
    <filter
       inkscape:collect="always"
       style="color-interpolation-filters:sRGB"
       id="filter871"
       x="-0.048"
       width="1.096"
       y="-0.048"
       height="1.096">
      <feGaussianBlur
         inkscape:collect="always"
         stdDeviation="3.2"
         id="feGaussianBlur873" />
    </filter>
    <filter
       inkscape:collect="always"
       style="color-interpolation-filters:sRGB"
       id="filter890"
       x="-0.048"
       width="1.096"
       y="-0.048"
       height="1.096">
      <feGaussianBlur
         inkscape:collect="always"
         stdDeviation="2.56"
         id="feGaussianBlur892" />
    </filter>
    <filter
       inkscape:collect="always"
       style="color-interpolation-filters:sRGB"
       id="filter906"
       x="-0.052"
       width="1.104"
       y="-0.044571429"
       height="1.0891429">
      <feGaussianBlur
         inkscape:collect="always"
         stdDeviation="1.04"
         id="feGaussianBlur908" />
    </filter>
  </defs>
  <sodipodi:namedview
     pagecolor="#ffffff"
     bordercolor="#666666"
     borderopacity="1"
     objecttolerance="10"
     gridtolerance="10"
     guidetolerance="10"
     inkscape:pageopacity="0"
     inkscape:pageshadow="2"
     inkscape:window-width="1920"
     inkscape:window-height="1018"
     id="namedview30"
     showgrid="false"
     inkscape:zoom="1"
     inkscape:cx="96"
     inkscape:cy="96"
     inkscape:window-x="0"
     inkscape:window-y="32"
     inkscape:window-maximized="1"
     inkscape:current-layer="svg28" />
  <rect
     width="160"
     height="160"
     x="-180"
     y="-176"
     rx="8"
     ry="8"
     transform="matrix(0,-1,-1,0,0,0)"
     id="rect853"
     style="opacity:0.2;fill:#000000;stroke-width:4;filter:url(#filter871)" />
  <rect
     style="fill:#4f4f4f;stroke-width:4"
     id="rect2"
     transform="matrix(0,-1,-1,0,0,0)"
     ry="8"
     rx="8"
     y="-176"
     x="-176"
     height="160"
     width="160" />
  <path
     style="opacity:0.1;fill:#ffffff;stroke-width:4"
     d="M 24 16 C 19.568 16 16 19.568 16 24 L 16 25 C 16 20.568 19.568 17 24 17 L 168 17 C 172.432 17 176 20.568 176 25 L 176 24 C 176 19.568 172.432 16 168 16 L 24 16 z "
     id="path4" />
  <circle
     id="circle8"
     r="64"
     cy="100"
     cx="96"
     style="opacity:0.2;fill:#000000;stroke-width:4;filter:url(#filter890)" />
  <circle
     id="circle10"
     r="64"
     cy="96"
     cx="96"
     style="fill:#a4cd45;stroke-width:4" />
  <circle
     id="circle12"
     r="52"
     cy="96"
     cx="96"
     style="fill:#3c3c3c;stroke-width:4" />
  <path
     inkscape:connector-curvature="0"
     id="path14"
     d="m 128,100 -24,14 -23.999999,14 V 99.999997 72.000002 l 23.999999,14 z"
     style="opacity:0.1;fill:#000000;stroke-width:4.13558388;filter:url(#filter906)" />
  <path
     inkscape:connector-curvature="0"
     id="path16"
     d="M 128,96.000002 104,110 80.000001,124 V 95.999997 68.000002 l 23.999999,14 z"
     style="fill:#a4cd45;stroke-width:4.13558388" />
  <circle
     id="circle18"
     r="8"
     cy="32"
     cx="32"
     style="fill:#3c3c3c;stroke-width:4" />
  <circle
     id="circle20"
     r="8"
     cy="32"
     cx="160"
     style="fill:#3c3c3c;stroke-width:4" />
  <circle
     id="circle22"
     r="8"
     cy="160"
     cx="32"
     style="fill:#3c3c3c;stroke-width:4" />
  <circle
     id="circle24"
     r="8"
     cy="160"
     cx="160"
     style="fill:#3c3c3c;stroke-width:4" />
</svg>
