<?xml version="1.0" encoding="UTF-8" standalone="no"?>
<svg
   xmlns:dc="http://purl.org/dc/elements/1.1/"
   xmlns:cc="http://creativecommons.org/ns#"
   xmlns:rdf="http://www.w3.org/1999/02/22-rdf-syntax-ns#"
   xmlns:svg="http://www.w3.org/2000/svg"
   xmlns="http://www.w3.org/2000/svg"
   xmlns:sodipodi="http://sodipodi.sourceforge.net/DTD/sodipodi-0.dtd"
   xmlns:inkscape="http://www.inkscape.org/namespaces/inkscape"
   width="192"
   height="192"
   version="1"
   id="svg16"
   sodipodi:docname="apps_exsoul_web_browser.svg"
   inkscape:version="0.92.3 (2405546, 2018-03-11)">
  <metadata
     id="metadata22">
    <rdf:RDF>
      <cc:Work
         rdf:about="">
        <dc:format>image/svg+xml</dc:format>
        <dc:type
           rdf:resource="http://purl.org/dc/dcmitype/StillImage" />
      </cc:Work>
    </rdf:RDF>
  </metadata>
  <defs
     id="defs20">
    <filter
       inkscape:collect="always"
       style="color-interpolation-filters:sRGB"
       id="filter853"
       x="-0.048"
       width="1.096"
       y="-0.048"
       height="1.096">
      <feGaussianBlur
         inkscape:collect="always"
         stdDeviation="3.2"
         id="feGaussianBlur855" />
    </filter>
    <filter
       inkscape:collect="always"
       style="color-interpolation-filters:sRGB"
       id="filter869"
       x="-0.045224991"
       width="1.09045"
       y="-0.05113782"
       height="1.1022756">
      <feGaussianBlur
         inkscape:collect="always"
         stdDeviation="3.0132075"
         id="feGaussianBlur871" />
    </filter>
  </defs>
  <sodipodi:namedview
     pagecolor="#ffffff"
     bordercolor="#666666"
     borderopacity="1"
     objecttolerance="10"
     gridtolerance="10"
     guidetolerance="10"
     inkscape:pageopacity="0"
     inkscape:pageshadow="2"
     inkscape:window-width="1920"
     inkscape:window-height="1018"
     id="namedview18"
     showgrid="false"
     inkscape:zoom="1"
     inkscape:cx="96"
     inkscape:cy="96"
     inkscape:window-x="0"
     inkscape:window-y="32"
     inkscape:window-maximized="1"
     inkscape:current-layer="svg16" />
  <rect
     style="opacity:0.2;fill:#000000;stroke-width:4;filter:url(#filter853)"
     width="160"
     height="160"
     x="-180"
     y="-176"
     rx="80"
     ry="80"
     transform="matrix(0,-1,-1,0,0,0)"
     id="rect835" />
  <rect
     id="rect2"
     transform="matrix(0,-1,-1,0,0,0)"
     ry="80"
     rx="80"
     y="-176"
     x="-176"
     height="160"
     width="160"
     style="fill:#3f3f3f;stroke-width:4" />
  <path
     style="opacity:0.1;fill:#ffffff;stroke-width:4"
     d="M 96 16 C 51.684 16 16.007812 51.68 16.007812 96 C 16.007812 96.33544 16.009812 96.667215 16.007812 97 C 16.007812 52.68 51.684 17 96 17 C 140.316 17 175.99219 52.68 175.99219 97 C 175.99019 96.667215 175.99219 96.33544 175.99219 96 C 175.99219 51.68 140.316 16 96 16 z "
     id="path8" />
  <path
     inkscape:connector-curvature="0"
     id="path4"
     d="m 135.78125,30.584154 -1.64063,1.742187 C 127.96616,38.89994 122.62109,41.293088 88.226564,52.88884 46.572636,66.932012 31.61388,74.1048 18.367188,86.381028 c -0.618369,0.573064 -1.054002,0.989828 -1.445312,1.398436 -3.87e-4,0.0025 3.85e-4,0.0052 0,0.008 -0.578195,3.807508 -0.880535,7.712008 -0.906251,11.679688 0.02312,0.01 0.0308,0.0212 0.05469,0.0312 2.415355,1.028008 33.594519,0.34644 41.453123,-0.906248 14.471296,-2.30676 31.171204,-7.702252 41.531252,-13.414064 13.07159,-7.206756 24.46365,-17.131344 31.32812,-27.304688 3.374,-5.000348 10.97735,-20.761378 11.39063,-23.515625 -1.93406,-1.348408 -3.93748,-2.59729 -5.99219,-3.773573 z m 22.64844,19.499998 c -1.40243,-0.467484 -12.64479,9.536224 -27.27344,24.265628 -29.62107,29.82508 -38.667686,36.76234 -58.71875,45.0625 -8.252832,3.41628 -16.077912,5.20213 -24.984376,5.6875 -7.546271,0.41126 -9.663232,0.24308 -25.335936,-1.94532 -1.493468,-0.20852 -2.343752,-0.28624 -2.671876,0.125 1.139479,3.77552 2.599921,7.39208 4.257813,10.90626 0.623068,0.73096 1.326964,1.21107 2.476563,1.79687 5.404306,2.75388 22.14174,6.65036 32.914064,7.65625 8.028144,0.74962 21.53992,0.28672 28.117184,-0.96094 2.807748,-0.53263 8.034264,-1.92787 11.617188,-3.10156 18.446806,-6.04272 35.305236,-18.86338 46.289066,-35.21094 8.26165,-12.296056 16.30133,-31.033436 18.28906,-42.624996 l 0.64063,-3.773436 c -1.58632,-2.569992 -3.29763,-5.049664 -5.15626,-7.414064 -0.1408,-0.1326 -0.39288,-0.44606 -0.46093,-0.468752 z m 16.78906,44.851564 c -0.34268,0 -1.8929,2.526144 -3.44531,5.617184 -10.76221,21.42884 -28.73605,40.03713 -48.00782,49.69532 -15.2893,7.49006 -31.421064,11.0289 -47.679684,10.57031 -11.85484,-0.342 -19.778204,-1.45896 -31.578124,-4.46094 -4.575122,-1.16395 -6.092655,-1.54062 -6.679687,-1.45313 2.233239,2.36615 4.555987,4.64021 7.062499,6.71876 15.28808,6.07114 35.225388,10.614 52.421876,10.36718 21.99893,-0.61996 37.23874,-7.36811 52.77344,-23.35156 8.92892,-9.21393 17.3301,-22.64167 23.22656,-37.3125 1.4834,-3.74293 3.77523,-10.81496 1.90625,-16.390624 z"
     style="opacity:0.2;stroke-width:4;filter:url(#filter869)" />
  <path
     inkscape:connector-curvature="0"
     id="path6"
     d="m 135.78125,26.585938 -1.64063,1.742187 c -6.17446,6.573599 -11.51953,8.966746 -45.914056,20.562499 -41.653928,14.043172 -56.612684,21.21596 -69.859376,33.492188 -0.618369,0.573064 -1.054002,0.989828 -1.445312,1.398436 -3.87e-4,0.0025 3.85e-4,0.0052 0,0.008 -0.578195,3.807508 -0.880535,7.712008 -0.906251,11.679688 0.02312,0.01 0.0308,0.0212 0.05469,0.0312 2.415355,1.028004 33.594519,0.34644 41.453123,-0.906248 14.471296,-2.30676 31.171204,-7.702252 41.531252,-13.414064 13.07159,-7.206756 24.46365,-17.131344 31.32812,-27.304688 3.374,-5.000348 10.97735,-20.761378 11.39063,-23.515625 -1.93406,-1.348408 -3.93748,-2.59729 -5.99219,-3.773573 z m 22.64844,19.499998 C 157.02726,45.618452 145.7849,55.62216 131.15625,70.351564 101.53518,100.17664 92.488564,107.1139 72.4375,115.41406 c -8.252832,3.41628 -16.077912,5.20214 -24.984376,5.6875 -7.546271,0.41127 -9.663232,0.24308 -25.335936,-1.94531 -1.493468,-0.20852 -2.343752,-0.28624 -2.671876,0.125 1.139479,3.77552 2.599921,7.39208 4.257813,10.90625 0.623068,0.73096 1.326964,1.21108 2.476563,1.79688 5.404306,2.75388 22.14174,6.65035 32.914064,7.65624 8.028144,0.74963 21.53992,0.28672 28.117184,-0.96093 2.807748,-0.53264 8.034264,-1.92787 11.617188,-3.10157 18.446806,-6.04272 35.305236,-18.86338 46.289066,-35.21093 8.26165,-12.296062 16.30133,-31.033442 18.28906,-42.625002 l 0.64063,-3.773436 c -1.58632,-2.569992 -3.29763,-5.049664 -5.15626,-7.414064 -0.1408,-0.1326 -0.39288,-0.44606 -0.46093,-0.468752 z M 175.21875,90.9375 c -0.34268,0 -1.8929,2.526144 -3.44531,5.617188 -10.76221,21.428842 -28.73605,40.037132 -48.00782,49.695312 -15.2893,7.49007 -31.421064,11.02891 -47.679684,10.57031 -11.85484,-0.342 -19.778204,-1.45896 -31.578124,-4.46093 -4.575122,-1.16396 -6.092655,-1.54062 -6.679687,-1.45313 2.233239,2.36614 4.555987,4.6402 7.062499,6.71875 15.28808,6.07114 35.225388,10.61401 52.421876,10.36719 21.99893,-0.61997 37.23874,-7.36811 52.77344,-23.35157 8.92892,-9.21392 17.3301,-22.64167 23.22656,-37.3125 1.4834,-3.74292 3.77523,-10.814956 1.90625,-16.39062 z"
     style="fill:#0cc1c1;stroke-width:4" />
  <path
     style="fill:#ffffff;stroke-width:4;opacity:0.2"
     d="M 135.78125 26.585938 L 134.14062 28.328125 C 127.96617 34.901724 122.62109 37.294872 88.226562 48.890625 C 46.572634 62.933797 31.613879 70.106584 18.367188 82.382812 C 17.748818 82.955877 17.313185 83.372642 16.921875 83.78125 C 16.921488 83.78375 16.92226 83.786263 16.921875 83.789062 C 16.34368 87.59657 16.041341 91.50107 16.015625 95.46875 C 16.025584 95.473058 16.032303 95.477861 16.039062 95.482422 C 16.104845 91.854802 16.391799 88.279696 16.921875 84.789062 C 16.92226 84.786263 16.921488 84.78375 16.921875 84.78125 C 17.313185 84.372642 17.748818 83.955877 18.367188 83.382812 C 31.613879 71.106584 46.572634 63.933797 88.226562 49.890625 C 122.62109 38.294872 127.96617 35.901724 134.14062 29.328125 L 135.78125 27.585938 C 137.75904 28.718184 139.6861 29.922099 141.55273 31.212891 C 141.66027 30.868792 141.74236 30.566485 141.77344 30.359375 C 139.83938 29.010967 137.83596 27.76222 135.78125 26.585938 z M 158.26953 46.072266 C 156.32126 46.247953 145.32775 56.082452 131.15625 70.351562 C 101.53518 100.17664 92.488564 107.1139 72.4375 115.41406 C 64.184668 118.83034 56.359589 120.6162 47.453125 121.10156 C 39.906854 121.51283 37.789891 121.34464 22.117188 119.15625 C 20.623719 118.94773 19.773437 118.87001 19.445312 119.28125 C 19.528111 119.55559 19.624797 119.82302 19.710938 120.0957 C 20.144166 119.91108 20.92136 119.98929 22.117188 120.15625 C 37.789891 122.34464 39.906854 122.51283 47.453125 122.10156 C 56.359589 121.6162 64.184668 119.83034 72.4375 116.41406 C 92.488564 108.1139 101.53518 101.17663 131.15625 71.351562 C 145.7849 56.622159 157.02726 46.618454 158.42969 47.085938 C 158.49774 47.108629 158.74982 47.422088 158.89062 47.554688 C 160.69785 49.853697 162.36292 52.263773 163.91211 54.757812 L 164.04688 53.96875 C 162.46055 51.398758 160.74926 48.919087 158.89062 46.554688 C 158.74982 46.422088 158.49774 46.108629 158.42969 46.085938 C 158.38586 46.071329 158.33238 46.066598 158.26953 46.072266 z M 175.21875 90.9375 C 174.87607 90.9375 173.32585 93.463644 171.77344 96.554688 C 161.01123 117.98353 143.0374 136.59182 123.76562 146.25 C 108.47633 153.74007 92.344558 157.27891 76.085938 156.82031 C 64.231098 156.47831 56.307733 155.36135 44.507812 152.35938 C 39.93269 151.19541 38.415157 150.81876 37.828125 150.90625 C 38.18063 151.27973 38.539149 151.64714 38.896484 152.01562 C 39.862285 152.18979 41.478479 152.58868 44.507812 153.35938 C 56.307733 156.36135 64.231098 157.47831 76.085938 157.82031 C 92.344558 158.27891 108.47633 154.74007 123.76562 147.25 C 143.0374 137.59182 161.01123 118.98353 171.77344 97.554688 C 173.32585 94.463643 174.87607 91.9375 175.21875 91.9375 C 175.66531 93.269705 175.86893 94.687765 175.9082 96.125 C 175.95218 94.348134 175.76871 92.57818 175.21875 90.9375 z "
     id="path873" />
</svg>
