<?xml version="1.0" encoding="UTF-8" standalone="no"?>
<svg
   xmlns:dc="http://purl.org/dc/elements/1.1/"
   xmlns:cc="http://creativecommons.org/ns#"
   xmlns:rdf="http://www.w3.org/1999/02/22-rdf-syntax-ns#"
   xmlns:svg="http://www.w3.org/2000/svg"
   xmlns="http://www.w3.org/2000/svg"
   xmlns:sodipodi="http://sodipodi.sourceforge.net/DTD/sodipodi-0.dtd"
   xmlns:inkscape="http://www.inkscape.org/namespaces/inkscape"
   width="192"
   height="192"
   version="1"
   id="svg14"
   sodipodi:docname="apps_fm_player.svg"
   inkscape:version="0.92.3 (2405546, 2018-03-11)">
  <metadata
     id="metadata20">
    <rdf:RDF>
      <cc:Work
         rdf:about="">
        <dc:format>image/svg+xml</dc:format>
        <dc:type
           rdf:resource="http://purl.org/dc/dcmitype/StillImage" />
      </cc:Work>
    </rdf:RDF>
  </metadata>
  <defs
     id="defs18">
    <filter
       inkscape:collect="always"
       style="color-interpolation-filters:sRGB"
       id="filter856"
       x="-0.048"
       width="1.096"
       y="-0.048"
       height="1.096">
      <feGaussianBlur
         inkscape:collect="always"
         stdDeviation="3.1999999"
         id="feGaussianBlur858" />
    </filter>
    <filter
       inkscape:collect="always"
       style="color-interpolation-filters:sRGB"
       id="filter877"
       x="-0.047987232"
       width="1.0959745"
       y="-0.048012775"
       height="1.0960255">
      <feGaussianBlur
         inkscape:collect="always"
         stdDeviation="2.2924753"
         id="feGaussianBlur879" />
    </filter>
  </defs>
  <sodipodi:namedview
     pagecolor="#ffffff"
     bordercolor="#666666"
     borderopacity="1"
     objecttolerance="10"
     gridtolerance="10"
     guidetolerance="10"
     inkscape:pageopacity="0"
     inkscape:pageshadow="2"
     inkscape:window-width="1920"
     inkscape:window-height="1018"
     id="namedview16"
     showgrid="false"
     inkscape:zoom="1"
     inkscape:cx="96"
     inkscape:cy="96"
     inkscape:window-x="0"
     inkscape:window-y="32"
     inkscape:window-maximized="1"
     inkscape:current-layer="svg14" />
  <rect
     style="opacity:0.2;fill:#000000;stroke-width:3.99636483;filter:url(#filter856)"
     width="159.85458"
     height="159.85458"
     x="-82.755722"
     y="-218.52022"
     rx="79.927292"
     ry="79.927292"
     transform="matrix(0.70710679,-0.70710678,-0.70710679,-0.70710678,0,0)"
     id="rect834" />
  <rect
     id="rect4"
     transform="matrix(0.70710679,-0.70710678,-0.70710679,-0.70710678,0,0)"
     ry="79.927292"
     rx="79.927292"
     y="-215.69179"
     x="-79.927292"
     height="159.85458"
     width="159.85458"
     style="fill:#d6223a;stroke-width:3.99636483" />
  <path
     inkscape:connector-curvature="0"
     id="path8"
     d="M 142.658,53.31442 C 129.47777,40.19594 113.99808,37.515004 113.99808,37.515004 a 6.0006,6.0006 0 1 0 -2.05503,11.82194 c 0,0 11.76599,2.048208 22.25177,12.484852 5.23594,5.211628 8.54862,11.046352 10.43534,15.440344 0.94337,2.196996 1.52849,4.042164 1.81749,5.154144 0.0496,0.19088 0.04,0.17044 0.0718,0.31488 a 6.0006,6.0006 0 0 0 2.12132,4.828216 c 0.28572,0.24784 0.65868,0.53728 1.22086,0.823124 0.28108,0.14288 0.9925,0.3972 0.99437,0.39776 0.002,5.64e-4 1.31854,0.23744 1.3203,0.23756 0.004,2.48e-4 3.04631,-0.584068 3.0494,-0.585572 0.003,-0.0015 2.01922,-1.598808 2.02188,-1.602036 0.003,-0.0031 0.68255,-0.993672 0.85073,-1.370028 0.1682,-0.37632 0.25936,-0.671736 0.32592,-0.922552 0.13316,-0.50164 0.16576,-0.824364 0.18784,-1.08276 0.0883,-1.033576 -0.004,-1.30194 -0.0552,-1.690432 -0.10256,-0.776988 -0.26096,-1.482308 -0.49166,-2.369912 -0.46138,-1.775216 -1.21998,-4.111404 -2.40306,-6.866672 -2.36616,-5.510536 -6.40719,-12.647372 -13.00413,-19.213416 z M 128.43299,67.373684 C 119.54126,58.873236 109.59522,54.844632 109.59522,54.844632 a 6.0024068,6.0024068 0 1 0 -4.56304,11.103788 c 0,0 8.07541,3.379692 15.10336,10.098368 6.79171,6.492864 9.81662,14.655896 9.81662,14.655896 a 6.0006,6.0006 0 1 0 11.29162,-4.043768 c 0,0 -3.68284,-10.55896 -12.81079,-19.285232 z m -37.239114,-14.6117 c -2.175344,-2.694132 -4.373064,-3.464588 -9.104,-2.883668 C 60.125428,55.961388 43.9945,76.093708 43.9945,99.994508 43.9945,128.71332 67.281184,152 95.999992,152 c 23.709698,0 43.710348,-15.87503 49.967038,-37.57057 0.62203,-3.80002 -0.20148,-7.25376 -2.73451,-9.62881 -3.90525,-3.90524 -10.2369,-3.90524 -14.14214,0 -1.46012,1.46691 -2.42903,3.35078 -2.77318,5.39169 -4.26086,12.66765 -16.21346,21.79878 -30.317208,21.79878 -17.673112,0 -31.996584,-14.32347 -31.996584,-31.996582 0,-14.095392 9.120732,-26.038708 21.77668,-30.306152 2.050104,-0.34288 3.942412,-1.316064 5.413788,-2.784236 3.90524,-3.905244 3.90524,-10.236892 0,-14.142136 z m 24.439374,27.278852 c -5.48619,-5.085344 -11.22532,-8.010188 -11.22531,-8.010192 a 6.0006,6.0006 0 1 0 -5.496656,10.667368 c 0,0 4.466586,2.335596 8.568146,6.137468 3.69344,3.423552 5.61266,7.81132 5.61266,7.81132 a 6.0012732,6.0012732 0 1 0 11.07616,-4.62382 c 0,0 -2.64067,-6.518492 -8.535,-11.982144 z"
     style="opacity:0.2;stroke-width:4;filter:url(#filter877)" />
  <path
     inkscape:connector-curvature="0"
     id="path10"
     d="M 142.658,49.319904 C 129.47777,36.201422 113.99808,33.520488 113.99808,33.520488 a 6.0006,6.0006 0 1 0 -2.05503,11.82194 c 0,0 11.76599,2.048208 22.25177,12.484852 5.23594,5.211628 8.54862,11.046352 10.43534,15.440344 0.94337,2.196996 1.52849,4.042164 1.81749,5.154144 0.0496,0.19088 0.04,0.17044 0.0718,0.31488 a 6.0006,6.0006 0 0 0 2.12132,4.828216 c 0.28572,0.24784 0.65868,0.53728 1.22086,0.823124 0.28108,0.14288 0.9925,0.3972 0.99437,0.39776 0.002,5.64e-4 1.31854,0.23744 1.3203,0.23756 0.004,2.48e-4 3.04631,-0.584068 3.0494,-0.585572 0.003,-0.0015 2.01922,-1.598808 2.02188,-1.602036 0.003,-0.0031 0.68255,-0.993672 0.85073,-1.370028 0.1682,-0.37632 0.25936,-0.671736 0.32592,-0.922552 0.13316,-0.50164 0.16576,-0.824364 0.18784,-1.08276 0.0883,-1.033576 -0.004,-1.30194 -0.0552,-1.690432 -0.10256,-0.776988 -0.26096,-1.482308 -0.49166,-2.369912 -0.46138,-1.775216 -1.21998,-4.111404 -2.40306,-6.866672 -2.36616,-5.510536 -6.40719,-12.647372 -13.00413,-19.213416 z M 128.43299,63.379168 C 119.54126,54.87872 109.59522,50.850116 109.59522,50.850116 a 6.0024068,6.0024068 0 1 0 -4.56304,11.103788 c 0,0 8.07541,3.379692 15.10336,10.098368 6.79171,6.492864 9.81662,14.655896 9.81662,14.655896 A 6.0006,6.0006 0 1 0 141.24378,82.6644 c 0,0 -3.68284,-10.55896 -12.81079,-19.285232 z M 91.193876,48.767468 C 89.018532,46.073336 86.820812,45.30288 82.089876,45.8838 60.125428,51.966872 43.9945,72.099192 43.9945,95.999992 c 0,28.718808 23.286684,52.005488 52.005492,52.005488 23.709698,0 43.710348,-15.87503 49.967038,-37.57056 0.62203,-3.80002 -0.20148,-7.25377 -2.73451,-9.62881 -3.90525,-3.905246 -10.2369,-3.905246 -14.14214,0 -1.46012,1.4669 -2.42903,3.35078 -2.77318,5.39169 -4.26086,12.66764 -16.21346,21.79877 -30.317208,21.79877 -17.673112,0 -31.996584,-14.32347 -31.996584,-31.996578 0,-14.095392 9.120732,-26.038708 21.77668,-30.306152 2.050104,-0.34288 3.942412,-1.316064 5.413788,-2.784236 3.90524,-3.905244 3.90524,-10.236892 0,-14.142136 z M 115.63325,76.04632 c -5.48619,-5.085344 -11.22532,-8.010188 -11.22531,-8.010192 a 6.0006,6.0006 0 1 0 -5.496656,10.667368 c 0,0 4.466586,2.335596 8.568146,6.137468 3.69344,3.423552 5.61266,7.81132 5.61266,7.81132 a 6.0012732,6.0012732 0 1 0 11.07616,-4.62382 c 0,0 -2.64067,-6.518492 -8.535,-11.982144 z"
     style="fill:#ffffff;stroke-width:4" />
  <path
     style="fill:#ffffff;stroke-width:3.99636483;opacity:0.1"
     d="M 96 16 C 75.569057 16 55.137667 23.827177 39.482422 39.482422 C 23.699446 55.265398 15.882945 75.902682 16.011719 96.5 C 16.138408 76.236069 23.954908 56.009936 39.482422 40.482422 C 70.792912 9.171932 121.20709 9.171932 152.51758 40.482422 C 168.04509 56.009936 175.86159 76.236069 175.98828 96.5 C 176.11705 75.902682 168.30055 55.265398 152.51758 39.482422 C 136.86233 23.827177 116.43094 16 96 16 z "
     id="rect860" />
</svg>
