<?xml version="1.0" encoding="UTF-8" standalone="no"?>
<svg
   xmlns:dc="http://purl.org/dc/elements/1.1/"
   xmlns:cc="http://creativecommons.org/ns#"
   xmlns:rdf="http://www.w3.org/1999/02/22-rdf-syntax-ns#"
   xmlns:svg="http://www.w3.org/2000/svg"
   xmlns="http://www.w3.org/2000/svg"
   xmlns:sodipodi="http://sodipodi.sourceforge.net/DTD/sodipodi-0.dtd"
   xmlns:inkscape="http://www.inkscape.org/namespaces/inkscape"
   width="192"
   height="192"
   version="1"
   id="svg30"
   sodipodi:docname="apps_derandom.svg"
   inkscape:version="0.92.3 (2405546, 2018-03-11)">
  <metadata
     id="metadata36">
    <rdf:RDF>
      <cc:Work
         rdf:about="">
        <dc:format>image/svg+xml</dc:format>
        <dc:type
           rdf:resource="http://purl.org/dc/dcmitype/StillImage" />
      </cc:Work>
    </rdf:RDF>
  </metadata>
  <defs
     id="defs34">
    <filter
       inkscape:collect="always"
       style="color-interpolation-filters:sRGB"
       id="filter872"
       x="-0.051999999"
       width="1.104"
       y="-0.044571429"
       height="1.0891429">
      <feGaussianBlur
         inkscape:collect="always"
         stdDeviation="3.1199999"
         id="feGaussianBlur874" />
    </filter>
    <filter
       inkscape:collect="always"
       style="color-interpolation-filters:sRGB"
       id="filter888"
       x="-0.048"
       width="1.096"
       y="-0.048"
       height="1.096">
      <feGaussianBlur
         inkscape:collect="always"
         stdDeviation="1.76"
         id="feGaussianBlur890" />
    </filter>
    <filter
       inkscape:collect="always"
       style="color-interpolation-filters:sRGB"
       id="filter908"
       x="-0.038280133"
       width="1.0765603"
       y="-0.06433576"
       height="1.1286715">
      <feGaussianBlur
         inkscape:collect="always"
         stdDeviation="1.148404"
         id="feGaussianBlur910" />
    </filter>
  </defs>
  <sodipodi:namedview
     pagecolor="#ffffff"
     bordercolor="#666666"
     borderopacity="1"
     objecttolerance="10"
     gridtolerance="10"
     guidetolerance="10"
     inkscape:pageopacity="0"
     inkscape:pageshadow="2"
     inkscape:window-width="1920"
     inkscape:window-height="1018"
     id="namedview32"
     showgrid="false"
     showguides="false"
     inkscape:zoom="1"
     inkscape:cx="96"
     inkscape:cy="112.09658"
     inkscape:window-x="0"
     inkscape:window-y="32"
     inkscape:window-maximized="1"
     inkscape:current-layer="svg30">
    <sodipodi:guide
       position="-45.674044,181.08652"
       orientation="1,0"
       id="guide918"
       inkscape:locked="false" />
  </sodipodi:namedview>
  <path
     inkscape:connector-curvature="0"
     id="path2"
     d="M 96.307116,14.003694 A 13.037635,13.499789 0 0 0 89.48654,15.80691 L 30.513464,51.05813 a 13.037635,13.499789 0 0 0 -6.513463,11.691392 v 70.502438 a 13.037635,13.499789 0 0 0 6.513463,11.69139 l 58.973076,35.25122 a 13.037635,13.499789 0 0 0 13.02692,0 l 58.97307,-35.25122 A 13.037635,13.499789 0 0 0 168,133.25196 V 62.749522 A 13.037635,13.499789 0 0 0 161.48653,51.05813 L 102.51346,15.80691 a 13.037635,13.499789 0 0 0 -6.206344,-1.803216 z"
     style="opacity:0.2;stroke-width:4;filter:url(#filter872)" />
  <path
     inkscape:connector-curvature="0"
     id="path4"
     d="M 96.304688,10.000004 C 96.196352,9.9973839 96.103628,10.109562 96,10.148442 v -0.140626 c -2.286468,-0.003 -4.533492,0.616689 -6.515624,1.796876 l -58.968751,35.25 c -1.884013,1.127028 -3.385569,2.726992 -4.492187,4.578124 -0.07529,0.09216 -0.159072,0.15452 -0.226564,0.27344 -0.138428,0.24392 -0.243776,0.505312 -0.367188,0.757816 -0.0026,0.0052 -0.0052,0.0104 -0.0078,0.0156 C 24.5178,54.535476 23.999472,56.600232 24,58.750004 V 129.25 c -0.0012,4.82195 2.483758,9.28236 6.515625,11.69531 l 58.968751,35.25 c 4.031136,2.40724 9.000112,2.40724 13.031244,0 l 58.96876,-35.25 C 165.51624,138.53236 168.00118,134.07195 168,129.25 V 58.750004 c 0.001,-4.821952 -2.48376,-9.28236 -6.51562,-11.695312 l -58.96876,-35.25 c -1.8904,-1.129495 -4.028996,-1.750989 -6.210932,-1.804688 z"
     style="fill:#cccccc;stroke-width:4" />
  <path
     inkscape:connector-curvature="0"
     id="path12"
     d="M 25.414062,52.67188 C 24.48987,54.555436 24.0056,56.637304 24,58.750004 v 2 c 0.0056,-2.1127 0.48987,-4.194568 1.414062,-6.078124 L 96,95.429692 c 0,0.570312 0,-2 0,-2 z"
     style="opacity:0.1;stroke-width:4;filter:url(#filter908)" />
  <path
     inkscape:connector-curvature="0"
     id="path6"
     d="M 25.414062,52.67188 C 24.48987,54.555436 24.0056,56.637304 24,58.750004 V 129.25 c 0.0042,1.77582 0.346624,3.53333 1.007812,5.17188 a 13.037635,13.499789 0 0 0 0.07031,0.17188 13.037635,13.499789 0 0 0 0.390624,0.85937 13.037635,13.499789 0 0 1 0.0078,0.008 13.037635,13.499789 0 0 0 0.1875,0.3672 13.037635,13.499789 0 0 0 0.01564,0.0312 13.037635,13.499789 0 0 0 0.421875,0.72656 13.037635,13.499789 0 0 0 0.01564,0.0312 13.037635,13.499789 0 0 0 0.281248,0.41406 13.037635,13.499789 0 0 0 0.476563,0.65625 13.037635,13.499789 0 0 0 0.289064,0.35936 13.037635,13.499789 0 0 0 0.601562,0.67969 13.037635,13.499789 0 0 0 0.320312,0.32032 13.037635,13.499789 0 0 0 0.609375,0.5625 13.037635,13.499789 0 0 0 0.02344,0.0156 13.037635,13.499789 0 0 0 0.3125,0.26564 13.037635,13.499789 0 0 0 0.03908,0.0312 13.037635,13.499789 0 0 0 0.664063,0.5 13.037635,13.499789 0 0 0 0.01564,0.008 13.037635,13.499789 0 0 0 0.765624,0.51562 l 58.96875,35.25 a 13.037635,13.499789 0 0 0 0.75,0.39064 13.037635,13.499789 0 0 0 0.5625,0.28124 13.037635,13.499789 0 0 0 0.531248,0.21876 13.037635,13.499789 0 0 0 0.1172,0.0469 13.037635,13.499789 0 0 0 0.570312,0.21092 13.037635,13.499789 0 0 0 0.0236,0.008 13.037635,13.499789 0 0 0 0.23436,0.0703 13.037635,13.499789 0 0 0 0.20312,0.0547 13.037635,13.499789 0 0 0 0.78906,0.21876 13.037635,13.499789 0 0 0 0.0392,0.008 13.037635,13.499789 0 0 0 0.375,0.0625 13.037635,13.499789 0 0 0 0.07812,0.0156 13.037635,13.499789 0 0 0 0.828124,0.1328 13.037635,13.499789 0 0 1 0.008,0 13.037635,13.499789 0 0 0 0.3672,0.0312 13.037635,13.499789 0 0 0 0.08592,0.008 13.037635,13.499789 0 0 0 0.929688,0.0392 13.037635,13.499789 0 0 0 0.0236,0 V 93.429692 Z"
     style="opacity:0.1;stroke-width:4" />
  <path
     inkscape:connector-curvature="0"
     id="path8"
     d="M 166.58594,52.67188 96,93.429692 v 84.562498 a 13.037635,13.499789 0 0 0 0.0236,0 13.037635,13.499789 0 0 0 0.929688,-0.0392 13.037635,13.499789 0 0 0 0.08592,-0.008 13.037635,13.499789 0 0 0 0.3672,-0.0312 13.037635,13.499789 0 0 0 0.008,0 13.037635,13.499789 0 0 0 0.828124,-0.1328 13.037635,13.499789 0 0 0 0.07812,-0.0156 13.037635,13.499789 0 0 0 0.375,-0.0625 13.037635,13.499789 0 0 0 0.0392,-0.008 13.037635,13.499789 0 0 0 0.78906,-0.21876 13.037635,13.499789 0 0 0 0.20312,-0.0547 13.037635,13.499789 0 0 0 0.23436,-0.0703 13.037635,13.499789 0 0 0 0.0236,-0.008 13.037635,13.499789 0 0 0 0.570308,-0.21092 13.037635,13.499789 0 0 0 0.1172,-0.0469 13.037635,13.499789 0 0 0 0.53125,-0.21876 13.037635,13.499789 0 0 0 0.5625,-0.28124 13.037635,13.499789 0 0 0 0.75,-0.39064 l 58.96875,-35.25 a 13.037635,13.499789 0 0 0 0.76563,-0.51563 13.037635,13.499789 0 0 0 0.0156,-0.008 13.037635,13.499789 0 0 0 0.66406,-0.5 13.037635,13.499789 0 0 0 0.0392,-0.0312 13.037635,13.499789 0 0 0 0.31248,-0.26564 13.037635,13.499789 0 0 0 0.0236,-0.0156 13.037635,13.499789 0 0 0 0.60938,-0.5625 13.037635,13.499789 0 0 0 0.32032,-0.32032 13.037635,13.499789 0 0 0 0.60156,-0.67968 13.037635,13.499789 0 0 0 0.28908,-0.35936 13.037635,13.499789 0 0 0 0.47656,-0.65626 13.037635,13.499789 0 0 0 0.28124,-0.41406 13.037635,13.499789 0 0 0 0.0156,-0.0312 13.037635,13.499789 0 0 0 0.42188,-0.72656 13.037635,13.499789 0 0 0 0.0156,-0.0312 13.037635,13.499789 0 0 0 0.18748,-0.3672 13.037635,13.499789 0 0 0 0.008,-0.008 13.037635,13.499789 0 0 0 0.39064,-0.85937 13.037635,13.499789 0 0 0 0.0703,-0.17188 c 0.66015,-1.63768 1.00262,-3.39519 1.00677,-5.17101 V 58.750004 c -0.006,-2.1127 -0.48987,-4.194568 -1.41406,-6.078124 z"
     style="opacity:0.2;fill:#ffffff;stroke-width:4" />
  <path
     style="opacity:0.2;fill:#ffffff;stroke-width:4"
     d="M 96.304688 10 A 13.037635 13.499789 0 0 0 89.484375 11.804688 L 30.515625 47.054688 A 13.037635 13.499789 0 0 0 24 58.75 L 24 59.75 A 13.037635 13.499789 0 0 1 30.515625 48.054688 L 89.484375 12.804688 A 13.037635 13.499789 0 0 1 96.304688 11 A 13.037635 13.499789 0 0 1 102.51562 12.804688 L 161.48438 48.054688 A 13.037635 13.499789 0 0 1 168 59.75 L 168 58.75 A 13.037635 13.499789 0 0 0 161.48438 47.054688 L 102.51562 11.804688 A 13.037635 13.499789 0 0 0 96.304688 10 z "
     id="path10" />
  <path
     style="opacity:0.2;fill:#ffffff;stroke-width:4"
     d="M 166.58594,52.671875 96,93.429688 v 1 l 70.58594,-40.757813 z"
     id="path14"
     inkscape:connector-curvature="0"
     sodipodi:nodetypes="ccccc" />
  <path
     inkscape:connector-curvature="0"
     id="path16"
     d="m 82.877444,110.27628 c 0,-2.42432 -0.820688,-5.22508 -2.280012,-7.78337 -1.4574,-2.554906 -3.43088,-4.655998 -5.484688,-5.841898 -2.049848,-1.183612 -4.01186,-1.358564 -5.455912,-0.489108 -1.442016,0.868228 -2.25094,2.70779 -2.2504,5.114826 5.36e-4,2.40688 0.81038,5.18761 2.252852,7.73321 1.444368,2.54894 3.406192,4.65602 5.4555,5.8569 2.053272,1.20319 4.026128,1.39817 5.483072,0.53927 1.459012,-0.86012 2.279588,-2.70567 2.279588,-5.12983 0,0 0,0 0,0 m 0,36.54314 c 0,-5.04326 -3.481548,-11.20216 -7.760616,-13.74634 -4.261896,-2.53396 -7.703408,-0.52091 -7.702288,4.48643 5.36e-4,2.40435 0.80996,5.19629 2.25168,7.76436 1.443612,2.57145 3.404412,4.71053 5.452648,5.94588 2.052192,1.23774 4.024012,1.46692 5.480192,0.63433 1.458244,-0.83377 2.278384,-2.66306 2.278384,-5.08466 0,0 0,0 0,0 M 52.158368,92.40688 c -0.0011,-2.390004 -0.799284,-5.144236 -2.217628,-7.65412 -1.4165,-2.506616 -3.334044,-4.561576 -5.32926,-5.713644 -1.99142,-1.14988 -3.897148,-1.30606 -5.299373,-0.43684 -1.400275,0.868008 -2.185207,2.688448 -2.183639,5.061652 0.0016,2.373044 0.789403,5.107908 2.191607,7.605596 1.404021,2.500924 3.310413,4.5618 5.301325,5.728456 1.994708,1.168884 3.910824,1.344434 5.325392,0.485364 1.416552,-0.860272 2.212636,-2.686624 2.211576,-5.076464 0,0 0,0 0,0 m 0.016,36.02609 c -0.0022,-4.97193 -3.38604,-11.01384 -7.543032,-13.48544 -4.140548,-2.46181 -7.482481,-0.44761 -7.479219,4.48942 0.0033,4.93632 3.349635,10.95418 7.489131,13.45083 1.993692,1.20246 3.908828,1.41125 5.322676,0.57776 1.415824,-0.83466 2.2115,-2.64521 2.210444,-5.03257 0,0 0,0 0,0"
     style="fill:#3f3f3f;stroke-width:4" />
  <path
     inkscape:connector-curvature="0"
     id="path18"
     d="m 104.28924,25.200598 c -2.1962,-1.333438 -5.18246,-2.093863 -8.299904,-2.113216 -3.11658,-0.01936 -6.105816,0.70358 -8.308832,2.008591 -2.200536,1.303541 -3.435176,3.080415 -3.434244,4.938964 9.28e-4,1.856104 1.234164,3.642128 3.427156,4.966312 2.19138,1.323211 5.163604,2.078054 8.264744,2.099233 3.101996,0.0212 6.08201,-0.693403 8.28575,-1.987702 2.20621,-1.295756 3.45489,-3.067047 3.46939,-4.92498 0.0144,-1.860384 -1.20949,-3.654747 -3.40406,-4.987202 0,0 0,0 0,0 m 32.92761,19.992286 c -2.17195,-1.31872 -5.13743,-2.072352 -8.24215,-2.094352 -3.10387,-0.022 -6.08952,0.689088 -8.29886,1.975668 -2.20687,1.28514 -3.45721,3.038576 -3.47786,4.87382 -0.0208,1.832844 1.18695,3.597636 3.35584,4.907264 2.1673,1.308672 5.11894,2.056812 8.20749,2.080588 3.0894,0.0236 6.06581,-0.679112 8.27575,-1.955176 2.2124,-1.277488 3.47658,-3.025432 3.51252,-4.860056 0.036,-1.837028 -1.16237,-3.61 -3.33273,-4.927756 0,0 0,0 0,0 m -33.05782,-0.2372 c -2.18089,-1.31688 -5.146282,-2.06944 -8.241922,-2.091372 -3.094788,-0.022 -6.063116,0.6882 -8.250732,1.973036 -2.185168,1.283392 -3.411196,3.034432 -3.41028,4.867152 9.16e-4,1.830328 1.225564,3.592688 3.403292,4.9005 2.17614,1.30686 5.127696,2.05394 8.207256,2.077648 3.0804,0.0236 6.039636,-0.67826 8.227966,-1.9526 2.19077,-1.275764 3.43064,-3.021324 3.44495,-4.853432 0.0144,-1.834504 -1.20124,-3.60502 -3.38053,-4.920932 0,0 0,0 0,0 m -32.96121,-0.23652 c -2.189764,-1.315036 -5.155064,-2.066528 -8.241656,-2.088396 -3.085748,-0.022 -6.036848,0.68732 -8.202856,1.970404 -2.163588,1.281656 -3.36544,3.0303 -3.343072,4.860512 0.0224,1.82782 1.26394,3.587752 3.450448,4.893752 2.18492,1.305048 5.13638,2.051076 8.206988,2.074712 3.071444,0.0236 6.013588,-0.6774 8.180424,-1.950028 2.169256,-1.274048 3.384948,-3.017228 3.377748,-4.846824 -0.0072,-1.831984 -1.239864,-3.600052 -3.428024,-4.914132 0,0 0,0 0,0 m 32.83282,19.7174 c -2.1658,-1.300648 -5.11062,-2.045488 -8.184752,-2.069928 -3.073296,-0.0244 -6.021008,0.67318 -8.19344,1.938264 -2.170016,1.26368 -3.387552,2.989428 -3.386648,4.796856 9.04e-4,1.805088 1.217076,3.544264 3.379756,4.836028 2.161112,1.290828 5.092284,2.030292 8.150564,2.056452 3.059108,0.026 5.99785,-0.66346 8.17098,-1.918272 2.17554,-1.256204 3.40673,-2.976572 3.42084,-4.783384 0.014,-1.80916 -1.19308,-3.55632 -3.3573,-4.856016 0,0 0,0 0,0"
     style="fill:#3f3f3f;stroke-width:4" />
  <path
     inkscape:connector-curvature="0"
     id="path20"
     d="m 132.09464,126.01237 c 4.97038,-2.99777 8.95958,-10.15695 8.96347,-16.02489 0.002,-2.81877 -0.93146,-4.97692 -2.60005,-6.00256 -1.6756,-1.02994 -3.96013,-0.83667 -6.35624,0.54689 -2.40994,1.39154 -4.73447,3.87235 -6.45662,6.89973 -1.72898,3.03936 -2.70331,6.37008 -2.70331,9.24954 0,5.99423 4.12251,8.36518 9.15275,5.33129 0,0 0,0 0,0"
     style="fill:#3f3f3f;stroke-width:4" />
  <circle
     id="circle22"
     r="44"
     cy="144"
     cx="144"
     style="opacity:0.2;stroke-width:4;filter:url(#filter888)" />
  <circle
     id="circle24"
     r="44"
     cy="142"
     cx="144"
     style="fill:#f05d5d;stroke-width:4" />
  <path
     inkscape:connector-curvature="0"
     id="path26"
     d="m 144,110 a 32,32 0 0 0 -32,32 32,32 0 0 0 32,32 32,32 0 0 0 32,-32 32,32 0 0 0 -32,-32 z m 0,8 a 24,24 0 0 1 13.89062,4.45312 l -33.42968,33.42969 A 24,24 0 0 1 120,142 24,24 0 0 1 144,118 Z m 19.53906,10.11719 A 24,24 0 0 1 168,142 a 24,24 0 0 1 -24,24 24,24 0 0 1 -13.89062,-4.45312 z"
     style="fill:#ffffff;stroke-width:4" />
</svg>
