<?xml version="1.0" encoding="UTF-8" standalone="no"?>
<svg
   xmlns:dc="http://purl.org/dc/elements/1.1/"
   xmlns:cc="http://creativecommons.org/ns#"
   xmlns:rdf="http://www.w3.org/1999/02/22-rdf-syntax-ns#"
   xmlns:svg="http://www.w3.org/2000/svg"
   xmlns="http://www.w3.org/2000/svg"
   xmlns:sodipodi="http://sodipodi.sourceforge.net/DTD/sodipodi-0.dtd"
   xmlns:inkscape="http://www.inkscape.org/namespaces/inkscape"
   width="192"
   height="192"
   version="1"
   id="svg92"
   sodipodi:docname="apps_kx_music_player.svg"
   inkscape:version="0.92.3 (2405546, 2018-03-11)">
  <metadata
     id="metadata98">
    <rdf:RDF>
      <cc:Work
         rdf:about="">
        <dc:format>image/svg+xml</dc:format>
        <dc:type
           rdf:resource="http://purl.org/dc/dcmitype/StillImage" />
      </cc:Work>
    </rdf:RDF>
  </metadata>
  <defs
     id="defs96">
    <filter
       inkscape:collect="always"
       style="color-interpolation-filters:sRGB"
       id="filter967"
       x="-0.048"
       width="1.096"
       y="-0.048"
       height="1.096">
      <feGaussianBlur
         inkscape:collect="always"
         stdDeviation="3.2"
         id="feGaussianBlur969" />
    </filter>
    <filter
       inkscape:collect="always"
       style="color-interpolation-filters:sRGB"
       id="filter975"
       x="-0.02"
       width="1.04"
       y="-0.03"
       height="1.06">
      <feGaussianBlur
         inkscape:collect="always"
         stdDeviation="0.1"
         id="feGaussianBlur977" />
    </filter>
    <filter
       inkscape:collect="always"
       style="color-interpolation-filters:sRGB"
       id="filter983"
       x="-0.02"
       width="1.04"
       y="-0.03"
       height="1.06">
      <feGaussianBlur
         inkscape:collect="always"
         stdDeviation="0.1"
         id="feGaussianBlur985" />
    </filter>
    <filter
       inkscape:collect="always"
       style="color-interpolation-filters:sRGB"
       id="filter1011"
       x="-0.048"
       width="1.096"
       y="-0.048"
       height="1.096">
      <feGaussianBlur
         inkscape:collect="always"
         stdDeviation="1.12"
         id="feGaussianBlur1013" />
    </filter>
  </defs>
  <sodipodi:namedview
     pagecolor="#ffffff"
     bordercolor="#666666"
     borderopacity="1"
     objecttolerance="10"
     gridtolerance="10"
     guidetolerance="10"
     inkscape:pageopacity="0"
     inkscape:pageshadow="2"
     inkscape:window-width="1920"
     inkscape:window-height="1018"
     id="namedview94"
     showgrid="false"
     inkscape:zoom="1"
     inkscape:cx="96"
     inkscape:cy="96"
     inkscape:window-x="0"
     inkscape:window-y="32"
     inkscape:window-maximized="1"
     inkscape:current-layer="svg92" />
  <rect
     style="opacity:0.2;fill:#000000;stroke-width:4;filter:url(#filter967)"
     width="160"
     height="160"
     x="-180"
     y="-176"
     rx="8"
     ry="8"
     transform="matrix(0,-1,-1,0,0,0)"
     id="rect949" />
  <rect
     id="rect2"
     transform="matrix(0,-1,-1,0,0,0)"
     ry="8"
     rx="8"
     y="-176"
     x="-176"
     height="160"
     width="160"
     style="fill:#4f4f4f;stroke-width:4" />
  <path
     style="opacity:0.1;fill:#ffffff;stroke-width:4"
     d="M 24 16 C 19.568 16 16 19.568 16 24 L 16 25 C 16 20.568 19.568 17 24 17 L 168 17 C 172.432 17 176 20.568 176 25 L 176 24 C 176 19.568 172.432 16 168 16 L 24 16 z "
     id="path4" />
  <path
     inkscape:connector-curvature="0"
     id="path8"
     d="m 164,132 a 36,36 0 0 1 -36,36 36,36 0 0 1 -36,-36 36,36 0 0 1 36,-36 36,36 0 0 1 36,36 z"
     style="opacity:0.3;stroke-width:4" />
  <path
     inkscape:connector-curvature="0"
     id="path10"
     d="m 156,136 a 28,28 0 0 1 -28,28 28,28 0 0 1 -28,-28 28,28 0 0 1 28,-28 28,28 0 0 1 28,28 z"
     style="opacity:0.2;stroke-width:4;filter:url(#filter1011)" />
  <path
     inkscape:connector-curvature="0"
     id="path12"
     d="M 152.24872,146 A 28,28 30 0 1 114,156.24871 28,28 30 0 1 103.75129,118 28,28 30 0 1 142,107.75129 28,28 30 0 1 152.24872,146 Z"
     style="fill:#979797;stroke-width:4" />
  <path
     style="opacity:0.2;fill:#ffffff;stroke-width:4"
     d="M 128.66016 104.00781 A 28 28 0 0 0 126.67969 104.03125 A 28 28 0 0 0 103.75 118 A 28 28 0 0 0 100.04688 132.08594 A 28 28 0 0 1 103.75 119 A 28 28 0 0 1 126.67969 105.03125 A 28 28 0 0 1 142 108.75 A 28 28 0 0 1 155.95312 131.99609 A 28 28 0 0 0 142 107.75 A 28 28 0 0 0 128.66016 104.00781 z "
     id="path14" />
  <rect
     id="rect16"
     transform="rotate(30)"
     ry="4"
     rx="4"
     y="18.32"
     x="172.84"
     height="24"
     width="8"
     style="fill:#0bd5d5;stroke-width:4" />
  <path
     inkscape:connector-curvature="0"
     id="path18"
     d="m 68,136 v 18.49338 C 68,155.32804 67.289968,156 66.408,156 H 65.592 C 64.710032,156 64,155.32804 64,154.49338 V 136 Z"
     style="fill:#0bd5d5;stroke-width:4" />
  <path
     inkscape:connector-curvature="0"
     id="path20"
     d="M 65.593748,108 C 64.71178,108 64,108.67314 64,109.50781 V 136 h 4 V 109.50781 C 68,108.67314 67.288216,108 66.406248,108 Z"
     style="opacity:0.3;stroke-width:4" />
  <rect
     id="rect22"
     ry="2.668"
     rx="3"
     y="134"
     x="60"
     height="8"
     width="12"
     style="opacity:0.1;stroke-width:4;filter:url(#filter975)" />
  <rect
     id="rect24"
     ry="2.668"
     rx="3"
     y="132"
     x="60"
     height="8"
     width="12"
     style="fill:#979797;stroke-width:4" />
  <path
     inkscape:connector-curvature="0"
     id="path26"
     d="m 40,128 v 26.49338 C 40,155.32804 39.289968,156 38.408,156 H 37.592 C 36.710032,156 36,155.32804 36,154.49338 V 128 Z"
     style="fill:#0bd5d5;stroke-width:4" />
  <path
     inkscape:connector-curvature="0"
     id="path28"
     d="M 37.593748,108 C 36.71178,108 36,108.67314 36,109.50781 V 128 h 4 V 109.50781 C 40,108.67314 39.288216,108 38.406248,108 Z"
     style="opacity:0.3;stroke-width:4" />
  <rect
     id="rect30"
     ry="2.668"
     rx="3"
     y="122"
     x="32"
     height="8"
     width="12"
     style="opacity:0.1;stroke-width:4;filter:url(#filter983)" />
  <rect
     id="rect32"
     ry="2.668"
     rx="3"
     y="120"
     x="32"
     height="8"
     width="12"
     style="fill:#979797;stroke-width:4" />
  <path
     style="opacity:0.2;fill:#ffffff;stroke-width:4"
     d="M 63 132 C 61.338 132 60 133.18673 60 134.66406 L 60 135.66406 C 60 134.18673 61.338 133 63 133 L 69 133 C 70.662 133 72 134.18673 72 135.66406 L 72 134.66406 C 72 133.18673 70.662 132 69 132 L 63 132 z "
     id="path34" />
  <path
     style="opacity:0.2;fill:#ffffff;stroke-width:4"
     d="M 35 120 C 33.338 120 32 121.18673 32 122.66406 L 32 123.66406 C 32 122.18673 33.338 121 35 121 L 41 121 C 42.662 121 44 122.18673 44 123.66406 L 44 122.66406 C 44 121.18673 42.662 120 41 120 L 35 120 z "
     id="path36" />
  <rect
     id="rect38"
     transform="scale(-1,1)"
     y="52"
     x="-52"
     height="8"
     width="24"
     style="opacity:0.3;stroke-width:4" />
  <rect
     id="rect40"
     transform="scale(-1,1)"
     y="40"
     x="-52"
     height="8"
     width="24"
     style="opacity:0.3;stroke-width:4" />
  <rect
     id="rect42"
     transform="scale(-1,1)"
     y="28"
     x="-52"
     height="8"
     width="24"
     style="opacity:0.3;stroke-width:4" />
  <rect
     id="rect44"
     transform="scale(-1,1)"
     y="28"
     x="-80"
     height="8"
     width="24"
     style="opacity:0.3;stroke-width:4" />
  <rect
     id="rect46"
     transform="scale(-1,1)"
     y="52"
     x="-108"
     height="8"
     width="24"
     style="opacity:0.3;stroke-width:4" />
  <rect
     id="rect48"
     transform="scale(-1,1)"
     y="40"
     x="-108"
     height="8"
     width="24"
     style="opacity:0.3;stroke-width:4" />
  <rect
     id="rect50"
     transform="scale(-1,1)"
     y="40"
     x="-136"
     height="8"
     width="24"
     style="opacity:0.3;stroke-width:4" />
  <rect
     id="rect52"
     transform="scale(-1,1)"
     y="28"
     x="-108"
     height="8"
     width="24"
     style="opacity:0.3;stroke-width:4" />
  <rect
     id="rect54"
     transform="scale(-1,1)"
     y="28"
     x="-136"
     height="8"
     width="24"
     style="opacity:0.3;stroke-width:4" />
  <g
     id="g88"
     transform="matrix(4,0,0,4,4,0)"
     style="fill:#0bd5d5">
    <rect
       id="rect56"
       transform="scale(-1,1)"
       y="19"
       x="-12"
       height="2"
       width="6"
       style="fill:#0bd5d5" />
    <rect
       id="rect58"
       transform="scale(-1,1)"
       y="19"
       x="-19"
       height="2"
       width="6"
       style="fill:#0bd5d5" />
    <rect
       id="rect60"
       transform="scale(-1,1)"
       y="16"
       x="-12"
       height="2"
       width="6"
       style="fill:#0bd5d5" />
    <rect
       id="rect62"
       transform="scale(-1,1)"
       y="16"
       x="-19"
       height="2"
       width="6"
       style="fill:#0bd5d5" />
    <rect
       id="rect64"
       transform="scale(-1,1)"
       y="13"
       x="-19"
       height="2"
       width="6"
       style="fill:#0bd5d5" />
    <rect
       id="rect66"
       transform="scale(-1,1)"
       y="10"
       x="-19"
       height="2"
       width="6"
       style="fill:#0bd5d5" />
    <rect
       id="rect68"
       transform="scale(-1,1)"
       y="19"
       x="-26"
       height="2"
       width="6"
       style="fill:#0bd5d5" />
    <rect
       id="rect70"
       transform="scale(-1,1)"
       y="19"
       x="-33"
       height="2"
       width="6"
       style="fill:#0bd5d5" />
    <rect
       id="rect72"
       transform="scale(-1,1)"
       y="16"
       x="-26"
       height="2"
       width="6"
       style="fill:#0bd5d5" />
    <rect
       id="rect74"
       transform="scale(-1,1)"
       y="16"
       x="-33"
       height="2"
       width="6"
       style="fill:#0bd5d5" />
    <rect
       id="rect76"
       transform="scale(-1,1)"
       y="13"
       x="-33"
       height="2"
       width="6"
       style="fill:#0bd5d5" />
    <rect
       id="rect78"
       transform="scale(-1,1)"
       y="19"
       x="-40"
       height="2"
       width="6"
       style="fill:#0bd5d5" />
    <rect
       id="rect80"
       transform="scale(-1,1)"
       y="16"
       x="-40"
       height="2"
       width="6"
       style="fill:#0bd5d5" />
    <rect
       id="rect82"
       transform="scale(-1,1)"
       y="13"
       x="-40"
       height="2"
       width="6"
       style="fill:#0bd5d5" />
    <rect
       id="rect84"
       transform="scale(-1,1)"
       y="10"
       x="-40"
       height="2"
       width="6"
       style="fill:#0bd5d5" />
    <rect
       id="rect86"
       transform="scale(-1,1)"
       y="7"
       x="-40"
       height="2"
       width="6"
       style="fill:#0bd5d5" />
  </g>
</svg>
