<?xml version="1.0" encoding="UTF-8" standalone="no"?>
<svg
   xmlns:dc="http://purl.org/dc/elements/1.1/"
   xmlns:cc="http://creativecommons.org/ns#"
   xmlns:rdf="http://www.w3.org/1999/02/22-rdf-syntax-ns#"
   xmlns:svg="http://www.w3.org/2000/svg"
   xmlns="http://www.w3.org/2000/svg"
   xmlns:sodipodi="http://sodipodi.sourceforge.net/DTD/sodipodi-0.dtd"
   xmlns:inkscape="http://www.inkscape.org/namespaces/inkscape"
   width="192"
   height="192"
   version="1"
   id="svg14"
   sodipodi:docname="apps_portknocker.svg"
   inkscape:version="0.92.3 (2405546, 2018-03-11)">
  <metadata
     id="metadata20">
    <rdf:RDF>
      <cc:Work
         rdf:about="">
        <dc:format>image/svg+xml</dc:format>
        <dc:type
           rdf:resource="http://purl.org/dc/dcmitype/StillImage" />
      </cc:Work>
    </rdf:RDF>
  </metadata>
  <defs
     id="defs18">
    <filter
       inkscape:collect="always"
       style="color-interpolation-filters:sRGB"
       id="filter848"
       x="-0.048"
       width="1.096"
       y="-0.048"
       height="1.096">
      <feGaussianBlur
         inkscape:collect="always"
         stdDeviation="3.2"
         id="feGaussianBlur850" />
    </filter>
    <filter
       inkscape:collect="always"
       style="color-interpolation-filters:sRGB"
       id="filter859"
       x="-0.0225"
       width="1.045"
       y="-0.025714286"
       height="1.0514286">
      <feGaussianBlur
         inkscape:collect="always"
         stdDeviation="0.9"
         id="feGaussianBlur861" />
    </filter>
  </defs>
  <sodipodi:namedview
     pagecolor="#ffffff"
     bordercolor="#666666"
     borderopacity="1"
     objecttolerance="10"
     gridtolerance="10"
     guidetolerance="10"
     inkscape:pageopacity="0"
     inkscape:pageshadow="2"
     inkscape:window-width="1920"
     inkscape:window-height="1018"
     id="namedview16"
     showgrid="false"
     inkscape:zoom="1"
     inkscape:cx="96"
     inkscape:cy="96"
     inkscape:window-x="0"
     inkscape:window-y="32"
     inkscape:window-maximized="1"
     inkscape:current-layer="svg14" />
  <rect
     id="rect2"
     transform="matrix(0,-1,-1,0,0,0)"
     ry="8"
     rx="8"
     y="-176"
     x="-180"
     height="160"
     width="160"
     style="opacity:0.2;stroke-width:4;filter:url(#filter848)" />
  <rect
     id="rect4"
     transform="matrix(0,-1,-1,0,0,0)"
     ry="8"
     rx="8"
     y="-176"
     x="-176"
     height="160"
     width="160"
     style="fill:#546e7a;stroke-width:4" />
  <path
     style="opacity:0.1;fill:#ffffff;stroke-width:4"
     d="M 24 16 C 19.568 16 16 19.568 16 24 L 16 25 C 16 20.568 19.568 17 24 17 L 168 17 C 172.432 17 176 20.568 176 25 L 176 24 C 176 19.568 172.432 16 168 16 L 24 16 z "
     id="path6" />
  <path
     inkscape:connector-curvature="0"
     id="path8"
     d="m 84,54 c -4.432,0 -8,3.568 -8,8 v 8 H 56 c -4.432,0 -8,3.568 -8,8 v 52 c 0,4.432 3.568,8 8,8 h 12 v -20 c 0,-2.216 1.784,-4 4,-4 2.216,0 4,1.784 4,4 v 20 h 8 v -20 c 0,-2.216 1.784,-4 4,-4 2.216,0 4,1.784 4,4 v 20 h 8 v -20 c 0,-2.216 1.784,-4 4,-4 2.216,0 4,1.784 4,4 v 20 h 8 v -20 c 0,-2.216 1.784,-4 4,-4 2.216,0 4,1.784 4,4 v 20 h 12 c 4.432,0 8,-3.568 8,-8 V 78 c 0,-4.432 -3.568,-8 -8,-8 h -20 v -8 c 0,-4.432 -3.568,-8 -8,-8 z"
     style="opacity:0.1;stroke-width:4;filter:url(#filter859)" />
  <path
     inkscape:connector-curvature="0"
     id="path10"
     d="m 84,52 c -4.432,0 -8,3.568 -8,8 v 8 H 56 c -4.432,0 -8,3.568 -8,8 v 52 c 0,4.432 3.568,8 8,8 h 12 v -20 c 0,-2.216 1.784,-4 4,-4 2.216,0 4,1.784 4,4 v 20 h 8 v -20 c 0,-2.216 1.784,-4 4,-4 2.216,0 4,1.784 4,4 v 20 h 8 v -20 c 0,-2.216 1.784,-4 4,-4 2.216,0 4,1.784 4,4 v 20 h 8 v -20 c 0,-2.216 1.784,-4 4,-4 2.216,0 4,1.784 4,4 v 20 h 12 c 4.432,0 8,-3.568 8,-8 V 76 c 0,-4.432 -3.568,-8 -8,-8 h -20 v -8 c 0,-4.432 -3.568,-8 -8,-8 z"
     style="fill:#324249;stroke-width:4" />
</svg>
