<?xml version="1.0" encoding="UTF-8" standalone="no"?>
<svg
   xmlns:dc="http://purl.org/dc/elements/1.1/"
   xmlns:cc="http://creativecommons.org/ns#"
   xmlns:rdf="http://www.w3.org/1999/02/22-rdf-syntax-ns#"
   xmlns:svg="http://www.w3.org/2000/svg"
   xmlns="http://www.w3.org/2000/svg"
   xmlns:sodipodi="http://sodipodi.sourceforge.net/DTD/sodipodi-0.dtd"
   xmlns:inkscape="http://www.inkscape.org/namespaces/inkscape"
   width="192"
   height="192"
   version="1"
   id="svg12"
   sodipodi:docname="apps_opera_touch.svg"
   inkscape:version="0.92.3 (2405546, 2018-03-11)">
  <metadata
     id="metadata18">
    <rdf:RDF>
      <cc:Work
         rdf:about="">
        <dc:format>image/svg+xml</dc:format>
        <dc:type
           rdf:resource="http://purl.org/dc/dcmitype/StillImage" />
        <dc:title></dc:title>
      </cc:Work>
    </rdf:RDF>
  </metadata>
  <defs
     id="defs16">
    <filter
       inkscape:collect="always"
       style="color-interpolation-filters:sRGB"
       id="filter853"
       x="-0.048"
       width="1.096"
       y="-0.048"
       height="1.096">
      <feGaussianBlur
         inkscape:collect="always"
         stdDeviation="3.2"
         id="feGaussianBlur855" />
    </filter>
  </defs>
  <sodipodi:namedview
     pagecolor="#ffffff"
     bordercolor="#666666"
     borderopacity="1"
     objecttolerance="10"
     gridtolerance="10"
     guidetolerance="10"
     inkscape:pageopacity="0"
     inkscape:pageshadow="2"
     inkscape:window-width="1920"
     inkscape:window-height="1018"
     id="namedview14"
     showgrid="false"
     inkscape:zoom="0.93"
     inkscape:cx="-24.704552"
     inkscape:cy="96"
     inkscape:window-x="0"
     inkscape:window-y="32"
     inkscape:window-maximized="1"
     inkscape:current-layer="svg12" />
  <path
     inkscape:connector-curvature="0"
     style="opacity:0.2;fill:#000000;stroke-width:4;filter:url(#filter853)"
     d="M 96,20 A 16,16 0 0 0 94.625,20.070312 80,80 0 0 0 16,100 80,80 0 0 0 94.869141,179.95898 80,80 0 0 0 96,180 a 80,80 0 0 0 1.132812,-0.0391 16,16 0 0 0 0.01563,0 A 80,80 0 0 0 176,100 80,80 0 0 0 97.130859,20.041016 16,16 0 0 0 96,20 Z m 0,32 a 36,48 0 0 1 36,48 36,48 0 0 1 -36,48 16,16 0 0 0 -1.353516,0.0684 A 16,16 0 0 1 96,148 36,48 0 0 1 60,100 36,48 0 0 1 96,52 Z m -2.166016,96.16602 a 16,16 0 0 0 -0.777343,0.11718 16,16 0 0 1 0.777343,-0.11718 z m -1.585937,0.29882 a 16,16 0 0 0 -0.736328,0.18946 16,16 0 0 1 0.736328,-0.18946 z m -1.525391,0.45118 a 16,16 0 0 0 -0.732422,0.26757 16,16 0 0 1 0.732422,-0.26757 z M 89.28125,149.5 A 16,16 0 0 0 88.527344,149.86328 16,16 0 0 1 89.28125,149.5 Z m -1.431641,0.75195 a 16,16 0 0 0 -0.675781,0.41602 16,16 0 0 1 0.675781,-0.41602 z m -1.353515,0.89844 a 16,16 0 0 0 -0.613282,0.4668 16,16 0 0 1 0.613282,-0.4668 z m -1.21875,1 a 16,16 0 0 0 -0.583985,0.54297 16,16 0 0 1 0.583985,-0.54297 z m -1.126953,1.12695 a 16,16 0 0 0 -0.533203,0.60547 16,16 0 0 1 0.533203,-0.60547 z m -1,1.21875 a 16,16 0 0 0 -0.482422,0.67774 16,16 0 0 1 0.482422,-0.67774 z m -0.898438,1.35352 a 16,16 0 0 0 -0.388672,0.67773 16,16 0 0 1 0.388672,-0.67773 z M 81.5,157.28125 A 16,16 0 0 0 81.183594,157.99023 16,16 0 0 1 81.5,157.28125 Z m -0.583984,1.44141 a 16,16 0 0 0 -0.261719,0.78906 16,16 0 0 1 0.261719,-0.78906 z m -0.451172,1.52539 a 16,16 0 0 0 -0.181641,0.80859 16,16 0 0 1 0.181641,-0.80859 z m -0.298828,1.58593 a 16,16 0 0 0 -0.09766,0.8125 16,16 0 0 1 0.09766,-0.8125 z M 80,164 a 16,16 0 0 0 0.06836,1.35352 A 16,16 0 0 1 80,164 Z m 0.166016,2.16602 a 16,16 0 0 0 0.117187,0.77734 16,16 0 0 1 -0.117187,-0.77734 z m 0.298828,1.58593 a 16,16 0 0 0 0.189453,0.73633 16,16 0 0 1 -0.189453,-0.73633 z m 0.451172,1.52539 a 16,16 0 0 0 0.267578,0.73243 16,16 0 0 1 -0.267578,-0.73243 z M 81.5,170.71875 a 16,16 0 0 0 0.363281,0.75391 A 16,16 0 0 1 81.5,170.71875 Z m 0.751953,1.43164 a 16,16 0 0 0 0.416016,0.67578 16,16 0 0 1 -0.416016,-0.67578 z m 0.898438,1.35352 a 16,16 0 0 0 0.466797,0.61328 16,16 0 0 1 -0.466797,-0.61328 z m 1,1.21875 a 16,16 0 0 0 0.542968,0.58398 16,16 0 0 1 -0.542968,-0.58398 z m 1.126953,1.12695 a 16,16 0 0 0 0.605468,0.5332 16,16 0 0 1 -0.605468,-0.5332 z m 1.21875,1 a 16,16 0 0 0 0.677734,0.48242 16,16 0 0 1 -0.677734,-0.48242 z m 1.353515,0.89844 a 16,16 0 0 0 0.677735,0.38867 16,16 0 0 1 -0.677735,-0.38867 z M 89.28125,178.5 a 16,16 0 0 0 0.708984,0.31641 A 16,16 0 0 1 89.28125,178.5 Z m 1.441406,0.58398 a 16,16 0 0 0 0.789063,0.26172 16,16 0 0 1 -0.789063,-0.26172 z m 1.525391,0.45118 a 16,16 0 0 0 0.808594,0.18164 16,16 0 0 1 -0.808594,-0.18164 z m 1.585937,0.29882 a 16,16 0 0 0 0.8125,0.0977 16,16 0 0 1 -0.8125,-0.0977 z"
     id="path834" />
  <path
     inkscape:connector-curvature="0"
     id="path2"
     d="m 96,16 v 32 a 36,48 0 0 1 36,48 36,48 0 0 1 -36,48 16,16 0 0 0 -16,16 16,16 0 0 0 16,16 80,80 0 0 0 1.132812,-0.0392 16,16 0 0 0 0.0156,0 A 80,80 0 0 0 176,96 80,80 0 0 0 96,16 Z"
     style="fill:#923eb2;fill-opacity:1;stroke-width:4" />
  <path
     inkscape:connector-curvature="0"
     id="path4"
     d="M 96,16 A 16,16 0 0 0 94.625,16.070312 80,80 0 0 0 16,96 80,80 0 0 0 96,176 16,16 0 0 1 80,160 16,16 0 0 1 96,144 36,48 0 0 1 60,96 36,48 0 0 1 96,48 16,16 0 0 0 112,32 16,16 0 0 0 96,16 Z"
     style="fill:#5587ff;fill-opacity:1;stroke-width:4" />
  <path
     inkscape:connector-curvature="0"
     style="opacity:0.2;fill:#ffffff;stroke-width:4"
     d="M 95.998047,16 A 80,80 0 0 0 16,96 80,80 0 0 0 16.021484,96.408203 80,80 0 0 1 95.998047,17 H 96 A 80,80 0 0 1 175.97656,96.582031 80,80 0 0 0 175.99805,96 80,80 0 0 0 96,16 Z M 131.93555,97.695312 A 36,48 0 0 1 96,144 36,48 0 0 1 60.064453,98.304688 36,48 0 0 0 60,100 36,48 0 0 0 60.01953,100.50391 36,48 0 0 1 60.06445,99.304688 36,48 0 0 0 96,145 36,48 0 0 0 131.93555,98.695312 36,48 0 0 1 131.98633,100.51367 36,48 0 0 0 132,100 36,48 0 0 0 131.9356,97.695312 Z"
     id="path6" />
</svg>
