<?xml version="1.0" encoding="UTF-8" standalone="no"?>
<svg
   xmlns:dc="http://purl.org/dc/elements/1.1/"
   xmlns:cc="http://creativecommons.org/ns#"
   xmlns:rdf="http://www.w3.org/1999/02/22-rdf-syntax-ns#"
   xmlns:svg="http://www.w3.org/2000/svg"
   xmlns="http://www.w3.org/2000/svg"
   xmlns:sodipodi="http://sodipodi.sourceforge.net/DTD/sodipodi-0.dtd"
   xmlns:inkscape="http://www.inkscape.org/namespaces/inkscape"
   width="192"
   height="192"
   version="1"
   id="svg22"
   sodipodi:docname="apps_yolo_browser.svg"
   inkscape:version="0.92.3 (2405546, 2018-03-11)">
  <metadata
     id="metadata28">
    <rdf:RDF>
      <cc:Work
         rdf:about="">
        <dc:format>image/svg+xml</dc:format>
        <dc:type
           rdf:resource="http://purl.org/dc/dcmitype/StillImage" />
      </cc:Work>
    </rdf:RDF>
  </metadata>
  <defs
     id="defs26">
    <filter
       inkscape:collect="always"
       style="color-interpolation-filters:sRGB"
       id="filter870"
       x="-0.047948789"
       width="1.0958976"
       y="-0.048051321"
       height="1.0961026">
      <feGaussianBlur
         inkscape:collect="always"
         stdDeviation="3.1768269"
         id="feGaussianBlur872" />
    </filter>
    <filter
       inkscape:collect="always"
       style="color-interpolation-filters:sRGB"
       id="filter898"
       x="-0.048000001"
       width="1.096"
       y="-0.047999999"
       height="1.096">
      <feGaussianBlur
         inkscape:collect="always"
         stdDeviation="2.72"
         id="feGaussianBlur900" />
    </filter>
    <filter
       inkscape:collect="always"
       style="color-interpolation-filters:sRGB"
       id="filter902"
       x="-0.136"
       width="1.272"
       y="-0.27200004"
       height="1.5440001">
      <feGaussianBlur
         inkscape:collect="always"
         stdDeviation="2.72"
         id="feGaussianBlur904" />
    </filter>
  </defs>
  <sodipodi:namedview
     pagecolor="#ffffff"
     bordercolor="#666666"
     borderopacity="1"
     objecttolerance="10"
     gridtolerance="10"
     guidetolerance="10"
     inkscape:pageopacity="0"
     inkscape:pageshadow="2"
     inkscape:window-width="1920"
     inkscape:window-height="1018"
     id="namedview24"
     showgrid="false"
     inkscape:zoom="1"
     inkscape:cx="96"
     inkscape:cy="96"
     inkscape:window-x="0"
     inkscape:window-y="32"
     inkscape:window-maximized="1"
     inkscape:current-layer="svg22" />
  <path
     style="opacity:0.2;fill:#000000;stroke-width:4;filter:url(#filter870)"
     d="m 170.16499,168.98189 1.20724,-139.37223 c 0.0384,-4.431834 0.25404,-2.478615 -4.17706,-2.567404 L 26.615692,24.225354 c -1.736528,-0.0348 -5.956754,-3.677374 -7.265495,-2.744164 -2.030781,1.448067 -3.350199,3.823689 -3.350199,6.518812 V 172 c 0,4.432 3.568,8 8,8 H 168 c 2.98624,0 5.58023,-1.61985 6.95482,-4.03241 0.6655,-1.16801 -4.80236,-5.53999 -4.78983,-6.9857 z"
     id="path844"
     inkscape:connector-curvature="0" />
  <path
     inkscape:connector-curvature="0"
     id="path2"
     d="m 170.16499,164.98189 1.20724,-139.37223 c 0.0384,-4.431834 0.25404,-2.478615 -4.17706,-2.567404 L 26.615692,20.225354 c -1.736528,-0.0348 -5.956754,-3.677374 -7.265495,-2.744164 -2.030781,1.448067 -3.350199,3.823689 -3.350199,6.518812 V 168 c 0,4.432 3.568,8 8,8 H 168 c 2.98624,0 5.58023,-1.61985 6.95482,-4.03241 0.6655,-1.16801 -4.80236,-5.53999 -4.78983,-6.9857 z"
     style="fill:#f26522;stroke-width:4" />
  <path
     inkscape:connector-curvature="0"
     id="path4"
     d="M 176,168 V 24 c 0,-4.432 -3.568,-8 -8,-8 H 24 c -2.300604,0 -4.3684,0.961411 -5.825178,2.506022 L 173.49398,173.82518 C 175.03859,172.3684 176,170.3006 176,168 Z"
     style="fill:#f7941e;stroke-width:4" />
  <path
     style="opacity:0.2;fill:#ffffff;stroke-width:4"
     d="M 24 16 C 19.568 16 16 19.568 16 24 L 16 25 C 16 20.568 19.568 17 24 17 L 168 17 C 172.432 17 176 20.568 176 25 L 176 24 C 176 19.568 172.432 16 168 16 L 24 16 z "
     id="path6" />
  <path
     inkscape:connector-curvature="0"
     id="path10"
     d="m 28.13125,32.000018 c -0.915983,-0.0092 2.153862,3.186269 35.601126,37.061154 35.297948,35.749228 99.793874,99.395498 100.257114,98.936358 0.14676,-0.14548 -1.26131,-2.3533 -3.12948,-4.90673 -13.96645,-19.08958 -21.1749,-34.30685 -24.35569,-49.52076 -1.78962,-12.87252 0.53835,-25.755496 -2.55264,-38.396264 C 132.60772,69.938704 129.17493,63.09012 126.06446,58.270744 123.69098,54.59326 118.11742,48 117.09286,48 c -1.365,4.862204 -1.3244,11.0515 -3.34276,15.121616 C 109.71458,70.5145 103.37648,75.762084 96.078052,80 70.996472,64.390216 56.066388,50.825704 28.13125,32.000018 Z"
     style="opacity:0.2;stroke-width:4;filter:url(#filter898)" />
  <path
     inkscape:connector-curvature="0"
     id="path12"
     d="m 28.13125,28.000017 c -0.915983,-0.0092 2.153862,3.186269 35.601126,37.061155 35.297948,35.749228 99.793874,99.395498 100.257114,98.936358 0.14676,-0.14548 -1.26131,-2.3533 -3.12948,-4.90673 -13.96645,-19.08958 -21.1749,-34.30685 -24.35569,-49.52076 C 134.7147,96.697516 137.04267,83.814544 133.95168,71.173776 132.60772,65.938704 129.17493,59.09012 126.06446,54.270744 123.69098,50.59326 118.11742,44 117.09286,44 c -1.365,4.862204 -1.3244,11.0515 -3.34276,15.121616 C 109.71458,66.5145 103.37648,71.762084 96.078052,76 70.996472,60.390216 56.066388,46.825704 28.13125,28.000017 Z"
     style="fill:#ffffff;stroke-width:4" />
  <path
     inkscape:connector-curvature="0"
     id="path14"
     d="m 69.315288,96.000072 c -2.446668,-0.0084 -4.896976,0.7513 -7.26676,2.26326 -1.54086,0.983092 -5.36746,3.110558 -8.503788,4.728388 -4.949976,2.55336 -5.679228,3.11635 -5.526712,4.2635 0.423944,3.18861 13.878476,7.21912 37.75756,11.31168 C 95.266356,120.19348 96,120.26873 96,119.61662 c 0,-0.26216 -4.66316,-5.39998 -10.36258,-11.4178 -9.128272,-9.638224 -10.675856,-11.033784 -12.995316,-11.7108 -1.103216,-0.32204 -2.2147,-0.484188 -3.326816,-0.487948 z"
     style="opacity:0.2;stroke-width:4;filter:url(#filter902)" />
  <path
     inkscape:connector-curvature="0"
     id="path16"
     d="m 69.315288,92.000072 c -2.446668,-0.0084 -4.896976,0.7513 -7.26676,2.26326 -1.54086,0.983092 -5.36746,3.110556 -8.503788,4.728384 -4.949976,2.553364 -5.679228,3.116354 -5.526712,4.263504 0.423944,3.18861 13.878476,7.21912 37.75756,11.31168 C 95.266356,116.19348 96,116.26873 96,115.61662 c 0,-0.26216 -4.66316,-5.39998 -10.36258,-11.4178 -9.128272,-9.638224 -10.675856,-11.033784 -12.995316,-11.7108 -1.103216,-0.32204 -2.2147,-0.484188 -3.326816,-0.487948 z"
     style="fill:#f9b291;stroke-width:4" />
  <path
     style="opacity:0.2;fill:#ffffff;stroke-width:4"
     d="M 69.3125 92 C 66.865832 91.9916 64.416659 92.753665 62.046875 94.265625 C 60.506015 95.248717 56.683203 97.37436 53.546875 98.992188 C 48.596899 101.54556 47.863109 102.11066 48.015625 103.25781 C 48.026474 103.33943 48.074531 103.42303 48.107422 103.50586 C 48.454789 102.73116 49.771185 101.93982 53.546875 99.992188 C 56.683203 98.37436 60.506015 96.248717 62.046875 95.265625 C 64.416659 93.753665 66.865832 92.9916 69.3125 93 C 70.424616 93.00376 71.537409 93.162287 72.640625 93.484375 C 74.960085 94.161391 76.512353 95.557086 85.640625 105.19531 C 90.214132 110.02432 94.073457 114.24291 95.4375 115.875 C 95.781361 115.84446 96 115.77264 96 115.61719 C 96 115.35503 91.340045 110.21313 85.640625 104.19531 C 76.512353 94.557089 74.960085 93.161391 72.640625 92.484375 C 71.537409 92.162287 70.424616 92.00376 69.3125 92 z "
     id="path18" />
</svg>
