<?xml version="1.0" encoding="UTF-8" standalone="no"?>
<svg
   xmlns:dc="http://purl.org/dc/elements/1.1/"
   xmlns:cc="http://creativecommons.org/ns#"
   xmlns:rdf="http://www.w3.org/1999/02/22-rdf-syntax-ns#"
   xmlns:svg="http://www.w3.org/2000/svg"
   xmlns="http://www.w3.org/2000/svg"
   xmlns:sodipodi="http://sodipodi.sourceforge.net/DTD/sodipodi-0.dtd"
   xmlns:inkscape="http://www.inkscape.org/namespaces/inkscape"
   width="192"
   height="192"
   version="1"
   id="svg26"
   sodipodi:docname="apps_wlanscanner.svg"
   inkscape:version="0.92.3 (2405546, 2018-03-11)">
  <metadata
     id="metadata32">
    <rdf:RDF>
      <cc:Work
         rdf:about="">
        <dc:format>image/svg+xml</dc:format>
        <dc:type
           rdf:resource="http://purl.org/dc/dcmitype/StillImage" />
      </cc:Work>
    </rdf:RDF>
  </metadata>
  <defs
     id="defs30">
    <filter
       inkscape:collect="always"
       style="color-interpolation-filters:sRGB"
       id="filter868"
       x="-0.048"
       width="1.096"
       y="-0.048"
       height="1.096">
      <feGaussianBlur
         inkscape:collect="always"
         stdDeviation="3.2"
         id="feGaussianBlur870" />
    </filter>
    <filter
       inkscape:collect="always"
       style="color-interpolation-filters:sRGB"
       id="filter891"
       x="-0.041513044"
       width="1.0830261"
       y="-0.05688977"
       height="1.1137795">
      <feGaussianBlur
         inkscape:collect="always"
         stdDeviation="2.0756649"
         id="feGaussianBlur893" />
    </filter>
  </defs>
  <sodipodi:namedview
     pagecolor="#ffffff"
     bordercolor="#666666"
     borderopacity="1"
     objecttolerance="10"
     gridtolerance="10"
     guidetolerance="10"
     inkscape:pageopacity="0"
     inkscape:pageshadow="2"
     inkscape:window-width="1920"
     inkscape:window-height="1018"
     id="namedview28"
     showgrid="false"
     inkscape:zoom="1"
     inkscape:cx="96"
     inkscape:cy="74.779841"
     inkscape:window-x="0"
     inkscape:window-y="32"
     inkscape:window-maximized="1"
     inkscape:current-layer="svg26" />
  <rect
     style="opacity:0.2;fill:#000000;stroke-width:4;filter:url(#filter868)"
     width="160"
     height="160"
     x="-180"
     y="-176"
     rx="8"
     ry="8"
     transform="matrix(0,-1,-1,0,0,0)"
     id="rect850" />
  <rect
     id="rect4"
     transform="matrix(0,-1,-1,0,0,0)"
     ry="8"
     rx="8"
     y="-176"
     x="-176"
     height="160"
     width="160"
     style="fill:#4f4f4f;stroke-width:4" />
  <path
     inkscape:connector-curvature="0"
     id="path6"
     d="m 56.4375,54.3582 a 4.0004,4.0004 0 0 0 -2.867188,1.210936 C 42.267912,66.871536 35.944206,82.225852 36,98.20976 c 0.0558,15.98391 6.48616,31.2846 17.867188,42.50782 a 4.0004,4.0004 0 1 0 5.617188,-5.69532 C 49.618728,125.29341 44.04836,112.03416 44,98.178512 43.95164,84.322856 49.429076,71.022872 59.226564,61.225388 a 4.0004,4.0004 0 0 0 -2.781252,-6.867188 4.0004,4.0004 0 0 1 -0.008,0 z m 79.11719,0 a 4.0004,4.0004 0 0 0 -2.78125,6.867188 c 9.79748,9.797484 15.27492,23.097468 15.22656,36.953124 -0.0484,13.855648 -5.61873,27.114898 -15.48438,36.843748 a 4.0004,4.0004 0 1 0 5.61719,5.69532 C 149.51384,129.49436 155.9442,114.19367 156,98.20976 156.0558,82.225852 149.73209,66.871536 138.42969,55.569136 a 4.0004,4.0004 0 0 0 -2.875,-1.210936 z M 75.125,69.662888 a 4.0004,4.0004 0 0 0 -2.554688,1 C 64.634152,77.465 60.0456,87.390328 60,97.842576 59.9544,108.29481 64.459436,118.25272 72.335936,125.12382 a 4.0004,4.0004 0 1 0 5.257816,-6.02343 C 71.464392,113.7534 67.9644,106.00758 68,97.873824 68.0356,89.740068 71.605464,82.0343 77.781248,76.741012 A 4.0004,4.0004 0 0 0 75.125,69.662888 Z m 41.75,0 a 4.0004,4.0004 0 0 0 -2.65625,7.078124 c 6.17578,5.293288 9.74576,12.999056 9.78125,21.132812 0.0356,8.133756 -3.46439,15.879576 -9.59375,21.226566 a 4.0004,4.0004 0 1 0 5.25781,6.02343 C 127.54056,118.25272 132.04561,108.29481 132,97.842576 131.9544,87.390328 127.36585,77.465 119.42969,70.662888 a 4.0004,4.0004 0 0 0 -2.55469,-1 z M 96,89.998824 a 8,8 0 0 0 -8,8 8,8 0 0 0 8,7.999996 8,8 0 0 0 8,-7.999996 8,8 0 0 0 -8,-8 z"
     style="opacity:0.2;stroke-width:4;filter:url(#filter891)" />
  <path
     style="opacity:0.1;fill:#ffffff;stroke-width:4"
     d="M 24 16 C 19.568 16 16 19.568 16 24 L 16 25 C 16 20.568 19.568 17 24 17 L 168 17 C 172.432 17 176 20.568 176 25 L 176 24 C 176 19.568 172.432 16 168 16 L 24 16 z "
     id="path8" />
  <g
     id="g20"
     transform="scale(4)">
    <circle
       id="circle10"
       r="2"
       cy="24"
       cx="24"
       style="fill:#44c2ff" />
    <path
       inkscape:connector-curvature="0"
       id="path12"
       d="m 29.206194,17.92583 a 8,8 0 0 1 2.79373,6.039264 8,8 0 0 1 -2.740922,6.063413"
       style="fill:none;stroke:#44c2ff;stroke-width:2;stroke-linecap:round;stroke-linejoin:round" />
    <path
       inkscape:connector-curvature="0"
       id="path14"
       d="m -18.793806,17.92583 a 8,8 0 0 1 2.79373,6.039264 8,8 0 0 1 -2.740922,6.063413"
       transform="scale(-1,1)"
       style="fill:none;stroke:#44c2ff;stroke-width:2;stroke-linecap:round;stroke-linejoin:round" />
    <path
       inkscape:connector-curvature="0"
       id="path16"
       d="m 33.899495,14.100505 a 14,14 0 0 1 4.10042,9.948364 14,14 0 0 1 -4.169772,9.919496"
       style="fill:none;stroke:#44c2ff;stroke-width:2;stroke-linecap:round;stroke-linejoin:round" />
    <path
       inkscape:connector-curvature="0"
       id="path18"
       d="m -14.100505,14.100505 a 14,14 0 0 1 4.10042,9.948364 14,14 0 0 1 -4.169772,9.919496"
       transform="scale(-1,1)"
       style="fill:none;stroke:#44c2ff;stroke-width:2;stroke-linecap:round;stroke-linejoin:round" />
  </g>
  <path
     style="opacity:0.2;fill:#ffffff;stroke-width:4"
     d="M 56.4375 52.359375 A 4.0004 4.0004 0 0 0 53.570312 53.570312 C 42.267913 64.872713 35.944206 80.22703 36 96.210938 C 36.000354 96.310571 36.009651 96.408993 36.015625 96.507812 C 36.145229 80.77794 42.434127 65.706498 53.570312 54.570312 A 4.0004 4.0004 0 0 1 56.4375 53.359375 A 4.0004 4.0004 0 0 0 56.445312 53.359375 A 4.0004 4.0004 0 0 1 60.396484 56.851562 A 4.0004 4.0004 0 0 0 56.445312 52.359375 A 4.0004 4.0004 0 0 1 56.4375 52.359375 z M 135.55469 52.359375 A 4.0004 4.0004 0 0 0 131.60547 56.878906 A 4.0004 4.0004 0 0 1 135.55469 53.359375 A 4.0004 4.0004 0 0 1 138.42969 54.570312 C 149.56587 65.706498 155.85478 80.77794 155.98438 96.507812 C 155.99034 96.408992 155.99965 96.310568 156 96.210938 C 156.0558 80.22703 149.73209 64.872713 138.42969 53.570312 A 4.0004 4.0004 0 0 0 135.55469 52.359375 z M 75.125 67.664062 A 4.0004 4.0004 0 0 0 72.570312 68.664062 C 64.634152 75.466175 60.0456 85.391502 60 95.84375 C 59.999436 95.970346 60.01179 96.095246 60.019531 96.220703 C 60.241297 85.998453 64.792381 76.330556 72.570312 69.664062 A 4.0004 4.0004 0 0 1 75.125 68.664062 A 4.0004 4.0004 0 0 1 79.183594 72.164062 A 4.0004 4.0004 0 0 0 75.125 67.664062 z M 116.875 67.664062 A 4.0004 4.0004 0 0 0 112.81445 72.167969 A 4.0004 4.0004 0 0 1 116.875 68.664062 A 4.0004 4.0004 0 0 1 119.42969 69.664062 C 127.20762 76.330556 131.7587 85.998453 131.98047 96.220703 C 131.98823 96.095245 132.00053 95.970346 132 95.84375 C 131.9544 85.391502 127.36585 75.466175 119.42969 68.664062 A 4.0004 4.0004 0 0 0 116.875 67.664062 z M 96 88 A 8 8 0 0 0 88 96 A 8 8 0 0 0 88.021484 96.412109 A 8 8 0 0 1 96 89 A 8 8 0 0 1 103.97266 96.453125 A 8 8 0 0 0 104 96 A 8 8 0 0 0 96 88 z M 68.054688 96.96875 C 68.043487 97.27143 68.00132 97.571012 68 97.875 C 67.998942 98.116772 68.012412 98.356623 68.017578 98.597656 C 68.031175 98.3881 68.046916 98.178783 68.054688 97.96875 C 68.323495 105.69831 71.740854 112.99576 77.59375 118.10156 A 4.0004 4.0004 0 0 1 79.037109 120.70508 A 4.0004 4.0004 0 0 0 77.59375 117.10156 C 71.740854 111.99576 68.323495 104.69831 68.054688 96.96875 z M 123.94531 96.96875 C 123.67651 104.69831 120.25915 111.99576 114.40625 117.10156 A 4.0004 4.0004 0 0 0 112.96289 120.71484 A 4.0004 4.0004 0 0 1 114.40625 118.10156 C 120.25915 112.99576 123.67651 105.69831 123.94531 97.96875 C 123.95308 98.178785 123.96883 98.388101 123.98242 98.597656 C 123.98759 98.356623 124.00106 98.116772 124 97.875 C 123.999 97.571 123.95651 97.271434 123.94531 96.96875 z M 44.046875 97.117188 C 44.040875 97.472707 43.99876 97.823384 44 98.179688 C 44.000707 98.382143 44.014517 98.582965 44.017578 98.785156 C 44.030153 98.562879 44.043103 98.340692 44.046875 98.117188 C 44.338415 111.63054 49.842571 124.51534 59.484375 134.02344 A 4.0004 4.0004 0 0 1 60.693359 136.41406 A 4.0004 4.0004 0 0 0 59.484375 133.02344 C 49.842571 123.51534 44.338415 110.63054 44.046875 97.117188 z M 147.95312 97.117188 C 147.66161 110.63054 142.15743 123.51534 132.51562 133.02344 A 4.0004 4.0004 0 0 0 131.3125 136.4082 A 4.0004 4.0004 0 0 1 132.51562 134.02344 C 142.15743 124.51534 147.66161 111.63054 147.95312 98.117188 C 147.95696 98.34069 147.96987 98.562879 147.98242 98.785156 C 147.98548 98.582964 147.99929 98.382143 148 98.179688 C 148.001 97.823368 147.95923 97.472703 147.95312 97.117188 z "
     id="path22" />
</svg>
