<?xml version="1.0" encoding="UTF-8" standalone="no"?>
<svg
   xmlns:dc="http://purl.org/dc/elements/1.1/"
   xmlns:cc="http://creativecommons.org/ns#"
   xmlns:rdf="http://www.w3.org/1999/02/22-rdf-syntax-ns#"
   xmlns:svg="http://www.w3.org/2000/svg"
   xmlns="http://www.w3.org/2000/svg"
   xmlns:sodipodi="http://sodipodi.sourceforge.net/DTD/sodipodi-0.dtd"
   xmlns:inkscape="http://www.inkscape.org/namespaces/inkscape"
   width="192"
   height="192"
   version="1"
   id="svg22"
   sodipodi:docname="games_badland.svg"
   inkscape:version="0.92.3 (2405546, 2018-03-11)">
  <metadata
     id="metadata28">
    <rdf:RDF>
      <cc:Work
         rdf:about="">
        <dc:format>image/svg+xml</dc:format>
        <dc:type
           rdf:resource="http://purl.org/dc/dcmitype/StillImage" />
      </cc:Work>
    </rdf:RDF>
  </metadata>
  <defs
     id="defs26">
    <filter
       inkscape:collect="always"
       style="color-interpolation-filters:sRGB"
       id="filter860"
       x="-0.056013206"
       width="1.1120264"
       y="-0.041992575"
       height="1.0839851">
      <feGaussianBlur
         inkscape:collect="always"
         stdDeviation="2.7993875"
         id="feGaussianBlur862" />
    </filter>
    <filter
       inkscape:collect="always"
       style="color-interpolation-filters:sRGB"
       id="filter888"
       x="-0.22645077"
       width="1.4529015"
       y="-0.085947687"
       height="1.1718954">
      <feGaussianBlur
         inkscape:collect="always"
         stdDeviation="0.86508904"
         id="feGaussianBlur890" />
    </filter>
    <filter
       inkscape:collect="always"
       style="color-interpolation-filters:sRGB"
       id="filter892"
       x="-0.065461366"
       width="1.1309227"
       y="-0.066707244"
       height="1.1334145">
      <feGaussianBlur
         inkscape:collect="always"
         stdDeviation="0.86508904"
         id="feGaussianBlur894" />
    </filter>
  </defs>
  <sodipodi:namedview
     pagecolor="#ffffff"
     bordercolor="#666666"
     borderopacity="1"
     objecttolerance="10"
     gridtolerance="10"
     guidetolerance="10"
     inkscape:pageopacity="0"
     inkscape:pageshadow="2"
     inkscape:window-width="1920"
     inkscape:window-height="1018"
     id="namedview24"
     showgrid="false"
     inkscape:zoom="1"
     inkscape:cx="96"
     inkscape:cy="96"
     inkscape:window-x="0"
     inkscape:window-y="32"
     inkscape:window-maximized="1"
     inkscape:current-layer="svg22" />
  <path
     style="fill:#4f4f4f;stroke-width:4"
     inkscape:connector-curvature="0"
     id="path2"
     d="m 90.836,175.1 c -0.52024,-0.49456 -0.94592,-1.22436 -0.94592,-1.62176 0,-0.52244 -0.2292,-0.62508 -0.82768,-0.37056 -0.4552,0.19356 -2.67384,0.43712 -4.9304,0.5412 l -4.1024,0.18924 -0.75032,-1.37936 c -0.66768,-1.22744 -0.88336,-1.33124 -1.9584,-0.94268 -2.94508,1.06444 -5.876,0.2342 -5.876,-1.66452 0,-1.16928 -0.0028,-1.17004 -3.02268,-0.87592 -1.72668,0.16816 -3.56472,0.0985 -4.2868,-0.16252 -1.06568,-0.38516 -1.24088,-0.68644 -1.11568,-1.91836 l 0.14852,-1.46144 -2.88432,-0.2248 c -3.38136,-0.26356 -4.5616,-0.9808 -4.154,-2.52432 0.25588,-0.96916 0.13,-1.07396 -1.3052,-1.08688 -1.96968,-0.0176 -3.1918,-0.8612 -3.66324,-2.5282 -0.29648,-1.0484 -0.58448,-1.2538 -1.596,-1.1384 -1.92376,0.21944 -2.95968,-1.65572 -2.85692,-5.1716 0.08236,-2.81776 -0.1422,-3.28604 -1.12688,-2.34992 -0.28216,0.26824 -1.0164,0.41996 -1.63168,0.3372 -1.42436,-0.1916 -1.74344,-2.39456 -0.70432,-4.8632 0.832,-1.976 0.652,-2.3 -1.092,-1.968 -2.2856,0.436 -2.8388,-1.144 -1.66,-4.744 0.312,-0.948 0.244,-1.044 -0.5452,-0.736 -1.8896,0.732 -2.3176,0.528 -2.4672,-1.18 -0.0896,-1.024 0.2292,-2.352 0.8372,-3.484 1.0152,-1.892 0.9744,-1.984 -0.8124,-1.848 -1.7244,0.132 -1.7868,-1.164 -0.1748,-3.628 0.8124,-1.244 1.4772,-2.416 1.4772,-2.608 0,-0.19116 -0.53208,-0.57804 -1.1824,-0.85972 -1.5064,-0.648 -1.4944,-1.624 0.0448,-3.736 1.30372,-1.78844 1.19948,-2.63584 -0.324312,-2.63584 -1.98084,0 -1.74812,-2.46248 0.4852,-5.134 1.1212,-1.34 1.3548,-1.976 1.1412,-3.108 -0.1476,-0.78 -0.6704,-1.756 -1.1624,-2.168 -0.492,-0.412 -0.8944,-1.132 -0.8944,-1.6 0,-0.90976 1.90092,-2.8194 3.6654,-3.68224 1.259,-0.61564 1.3444,-1.4626 0.30032,-2.97744 -0.70472,-1.02248 -0.70296,-1.19656 0.0232,-2.25004 0.43284,-0.628 1.49,-1.46052 2.34924,-1.85004 0.85924,-0.38952 1.93328,-1.30532 2.38676,-2.03508 0.787,-1.26652 0.78552,-1.3678 -0.0328,-2.22724 -1.35232,-1.42056 -0.12344,-3.02048 3.12332,-4.0664 3.37524,-1.08732 4.2224,-1.85908 3.40552,-3.10248 -1.18648,-1.80612 0.0152,-2.96332 3.93096,-3.78592 2.06768,-0.43436 2.60272,-1.0176 2.29132,-2.49784 -0.23012,-1.09372 -0.0728,-1.38148 1.01212,-1.8514 1.14264,-0.49492 1.2534,-0.73252 1.00228,-2.15032 -0.69804,-3.94128 -0.842,-6.2112 -0.40992,-6.4652 0.25372,-0.14908 1.12284,-0.0336 1.93144,0.25648 0.80856,0.29016 1.58812,0.41536 1.73236,0.27824 0.14424,-0.13712 0.0212,-1.791 -0.27376,-3.67528 -0.2948,-1.88428 -0.39504,-4.1404 -0.22276,-5.0132 0.28672,-1.45296 0.4516,-1.5874 1.94716,-1.5874 1.89272,0 1.83604,0.23228 0.93268,-3.82188 -0.90752,-4.0732 -0.89288,-4.5544 0.16968,-5.5644 1.72608,-1.64092 2.00008,-5.7468 0.7856,-11.772 -0.99476,-4.9348 -0.75568,-7.6172 0.67896,-7.6172 0.4896,0 1.30868,0.5058 1.82024,1.12404 1.07152,1.295 1.75356,1.4252 2.1622,0.41284 0.53388,-1.32256 0.2916,-2.4532 -1.0786,-5.0344 -1.51576,-2.85516 -2.89092,-6.898 -2.89092,-8.4992 0,-1.59652 1.08212,-1.2688 3.90288,1.18196 2.668,2.31804 4.8732,5.7792 6.246,9.8028 1.29668,3.801 2.10536,3.14972 2.39748,-1.93072 0.19912,-3.46272 0.419,-4.2516 1.18524,-4.2516 0.8856,0 1.87972,2.7586 2.85964,7.9352 0.878,4.6384 0.96576,6.2404 0.67776,12.3728 -0.18196,3.87448 -0.17648,7.5068 0.0124,8.072 l 0.34308,1.0276 2.17816,-2.59688 0.33568,1.2714 c 0.1846,0.69928 0.22684,4.4292 0.09384,8.2884 -0.133,3.85936 -0.146,7.27 -0.0288,7.5792 0.53612,1.41488 3.14196,0.0336 3.51424,-1.86268 0.3356,-1.7096 1.58924,-1.88804 3.7434,-0.5328 1.10164,0.69304 2.66208,1.4398 3.46768,1.65944 1.243,0.33888 1.585882,0.24664 2.265042,-0.60932 0.74332,-0.9368 0.91192,-0.9654 2.367,-0.4012 2.95264,1.14488 3.47376,0.97016 3.3384,-1.11936 -0.0788,-1.21676 0.12444,-2.04728 0.5912,-2.41552 0.40992,-0.3234 0.7254,-1.3476 0.74456,-2.41704 0.0184,-1.02068 0.1944,-2.24708 0.3914,-2.72528 0.232,-0.56316 -0.19628,-2.38308 -1.21564,-5.166 -2.5892,-7.0684 -1.90904,-11.5632 1.26392,-8.3524 1.56224,1.58084 2.3648,1.44248 2.3648,-0.40768 0,-0.98856 -1.00632,-3.39504 -2.83776,-6.786 -3.84536,-7.12 -3.81832,-8.918 0.0987,-6.5564 2.69184,1.62284 5.2884,4.5408 7.7052,8.658 2.635,4.4896 3.29332,4.5568 2.9548,0.301308 -0.44016,-5.5328 1.1212,-6.5264 3.42848,-2.18124 2.25628,4.2492 2.8474,7.1804 3.35448,16.6348 0.25852,4.82 0.66264,8.9468 0.898,9.1704 0.25532,0.24272 0.76144,-0.25784 1.25456,-1.24096 1.59204,-3.1738 2.38908,-1.34012 2.80884,6.462 0.35168,6.5372 0.3162,6.4292 1.89392,5.746 1.11204,-0.48168 1.35464,-0.42488 2.14424,0.50216 0.48968,0.57492 0.89036,1.60508 0.89036,2.28924 0,1.91228 1.16204,2.59144 2.83072,1.65436 1.21584,-0.68276 1.42216,-0.68924 2.07872,-0.06508 0.40088,0.38112 0.85724,1.44516 1.01408,2.36452 0.4378,2.56624 1.0636,3.69488 2.04872,3.69488 1.23568,0 1.86404,0.84564 2.22564,2.9952 0.45716,2.7178 0.89464,3.21152 2.00176,2.25904 2.06048,-1.77268 3.4356,0.48092 2.24676,3.68216 -0.40184,1.08208 -0.7306,2.05552 -0.7306,2.1632 0,0.10772 0.95776,0.05928 2.12832,-0.10756 1.99456,-0.28436 2.12832,-0.23884 2.12832,0.72388 0,0.565 -0.32084,1.36432 -0.71304,1.77628 -1.10844,1.16436 -0.43792,3.59316 0.99196,3.59316 0.63088,0 1.32928,0.39548 1.62452,0.919922 0.41804,0.74256 0.28448,1.31688 -0.6928,2.97912 -1.50172,2.55428 -1.5,2.66204 0.055,3.38268 1.73304,0.80312 1.81168,1.37088 0.4092,2.95532 -1.4492,1.63728 -1.50436,2.17212 -0.25604,2.48244 1.06472,0.26468 1.30292,2.04816 0.38956,2.91648 -0.42652,0.40548 -0.35384,0.74168 0.31152,1.4406 0.72036,0.75672 0.77592,1.10356 0.32684,2.04052 -0.29756,0.62088 -1.07624,1.36064 -1.7304,1.644 -1.35644,0.58752 -1.5178,1.35044 -0.46188,2.18352 0.55672,0.43924 0.65372,1.059 0.41328,2.64032 -0.36136,2.37664 -0.90128,3.1904 -2.11668,3.1904 -1.31824,0 -1.47164,0.67792 -0.43652,1.92892 1.62132,1.95944 0.80184,3.6774 -1.27012,2.6626 -1.08544,-0.53164 -2.04704,-0.22684 -2.04704,0.64884 0,0.36812 0.54788,1.55804 1.21748,2.64424 1.48936,2.416 1.38848,3.96936 -0.27156,4.1808 -1.848,0.2352 -2.09528,0.78796 -1.00408,2.24476 1.29204,1.72496 1.3188,3.519 0.0582,3.89936 -1.21092,0.36536 -1.19992,1.32052 0.034,2.96808 1.19224,1.59172 1.0312,2.82732 -0.39372,3.02056 -1.31952,0.17896 -1.33692,0.60216 -0.0696,1.69248 1.85232,1.5936 2.0818,2.48848 0.86236,3.36292 -0.9742,0.69856 -1.03384,0.92112 -0.52912,1.97424 1.2428,2.59304 0.37396,5.1552 -1.43592,4.2344 -1.0836,-0.55132 -0.99168,-0.64336 -1.69928,1.70144 -0.43152,1.42992 -0.88692,1.9758 -1.93928,2.32456 -0.86676,0.28724 -1.43304,0.82616 -1.5314,1.4574 -0.23864,1.53136 -1.56004,2.12356 -2.64864,1.187 -1.25712,-1.08152 -1.40404,-0.99504 -1.7656,1.03944 -0.30708,1.728 -1.2626,3.1384 -2.12616,3.1384 -0.22268,0 -0.84236,-0.52876 -1.37712,-1.17504 -1.10292,-1.33292 -2.25432,-1.18728 -2.48864,0.3148 -0.0852,0.54628 -0.52984,1.2162 -0.98804,1.48872 -0.68632,0.40824 -1.03364,0.25788 -1.97128,-0.85332 l -1.13816,-1.34884 -1.36528,1.23644 c -1.50908,1.36668 -2.8528,1.59756 -3.2708,0.562 -0.38348,-0.95 -1.00576,-0.84332 -2.62208,0.4496 -0.77284,0.61824 -1.71336,1.12404 -2.09004,1.12404 -0.37668,0 -0.88716,-0.5058 -1.1344,-1.12404 -0.24724,-0.61824 -0.53476,-1.12404 -0.63888,-1.12404 -0.10412,0 -1.4176,0.5164 -2.91884,1.14752 -3.19992,1.34532 -4.996,1.30024 -5.6616,-0.14208 -0.30924,-0.6702 -0.71308,-0.91744 -1.1824,-0.724 -3.59232,1.48096 -4.756,1.71952 -5.688,1.16616 -0.780282,-0.46324 -1.469202,-0.4418 -3.734442,0.1162 -3.64928,0.89896 -4.5804,0.86392 -5.7152,-0.215 z" />
  <path
     style="opacity:0.2;stroke-width:4;filter:url(#filter892)"
     inkscape:connector-curvature="0"
     id="path4"
     d="m 109.42,130.08418 c -0.62052,-0.006 -1.24752,0.0509 -1.875,0.17188 -5.2444,1.01132 -11.4732,4.7232 -14.8048,8.828 -2.45996,3.0312 -3.81204,6.5656 -4.1408,10.828 l -0.2422,3.17188 2.48436,2.57812 c 4.1908,4.3592 8.5808,5.7444 17.492,5.5236 3.9734,-0.0985 5.3572,-0.31576 6.9296,-1.08592 2.63676,-1.29144 3.78392,-2.7916 4.4452,-5.8204 0.699,-3.20088 0.33592,-13.4452 -0.58592,-16.5548 -1.3502,-4.5544 -5.3596,-7.5984 -9.7032,-7.6408 z m 4.7968,10.5936 c 1.03664,0 1.21092,0.1984 1.21092,1.39064 0,0.99096 -0.26264,1.4572 -0.90624,1.6172 -0.83608,0.20784 -0.8516,0.33788 -0.23436,1.7422 0.81428,1.85264 0.8722,6.4704 0.10156,8.078 -1.04748,2.18548 -4.9068,3.2748 -8.1796,2.31248 -2.27524,-0.66896 -3.06076,-1.9488 -3.07032,-4.992 -0.0172,-5.444 5.1156,-10.1484 11.078,-10.1484 z" />
  <path
     style="fill:#787878;stroke-width:4"
     inkscape:connector-curvature="0"
     id="path6"
     d="m 109.42,128.084 c -0.62052,-0.006 -1.24752,0.0509 -1.875,0.17188 -5.2444,1.01132 -11.4732,4.7232 -14.8048,8.828 -2.45996,3.0312 -3.81204,6.5656 -4.1408,10.828 l -0.2422,3.17188 2.48436,2.57812 c 4.1908,4.3592 8.5808,5.7444 17.492,5.5236 3.9734,-0.0985 5.3572,-0.31576 6.9296,-1.08592 2.63676,-1.29144 3.78392,-2.7916 4.4452,-5.8204 0.699,-3.20088 0.33592,-13.4452 -0.58592,-16.5548 -1.3502,-4.5544 -5.3596,-7.5984 -9.7032,-7.6408 z m 4.7968,10.5936 c 1.03664,0 1.21092,0.1984 1.21092,1.39064 0,0.99096 -0.26264,1.4572 -0.90624,1.6172 -0.83608,0.20784 -0.8516,0.33788 -0.23436,1.7422 0.81428,1.85264 0.8722,6.4704 0.10156,8.078 -1.04748,2.18548 -4.9068,3.2748 -8.1796,2.31248 -2.27524,-0.66896 -3.06076,-1.9488 -3.07032,-4.992 -0.0172,-5.444 5.1156,-10.1484 11.078,-10.1484 z" />
  <path
     style="fill:#ffffff;stroke-width:4"
     inkscape:connector-curvature="0"
     id="path8"
     d="m 110.864,151.22 c 3.27864,-1.42012 2.72392,-7.594 -0.68232,-7.594 -1.63284,0 -4.2104,2.79948 -4.202,4.5636 0.008,1.7188 0.31332,2.27264 1.64812,2.9922 1.20464,0.6494 1.80852,0.65648 3.23628,0.038 z" />
  <path
     style="opacity:0.2;stroke-width:4;filter:url(#filter888)"
     inkscape:connector-curvature="0"
     id="path10"
     d="m 142.04,157.58818 c 1.34464,-0.97016 1.89784,-5.2308 1.64048,-12.6348 -0.24452,-7.0344 -0.87632,-9.88 -2.38616,-10.7468 -0.71004,-0.40768 -1.05088,-0.26796 -1.96028,0.8034 -1.6536,1.94812 -4.4436,9.2776 -4.4996,11.8196 -0.006,0.29008 0.61056,-0.064 1.37092,-0.78684 0.97492,-0.9268 1.84716,-1.31424 2.95876,-1.31424 1.43728,0 1.6746,0.20376 2.69148,2.31096 1.28036,2.6532 1.22448,6.218 -0.11744,7.494 -1.60692,1.5276 -6.5256,0.42068 -7.0576,-1.58832 -0.11624,-0.43884 -0.14204,-0.12228 -0.0573,0.70348 0.1948,1.89876 0.90232,2.70496 3.274,3.73056 2.2476,0.97196 3.03048,1.0114 4.1428,0.20888 z" />
  <path
     style="fill:#787878;stroke-width:4"
     inkscape:connector-curvature="0"
     id="path12"
     d="m 142.04,155.588 c 1.34464,-0.97016 1.89784,-5.2308 1.64048,-12.6348 -0.24452,-7.0344 -0.87632,-9.88 -2.38616,-10.7468 -0.71004,-0.40768 -1.05088,-0.26796 -1.96028,0.8034 -1.6536,1.94812 -4.4436,9.2776 -4.4996,11.8196 -0.006,0.29008 0.61056,-0.064 1.37092,-0.78684 0.97492,-0.9268 1.84716,-1.31424 2.95876,-1.31424 1.43728,0 1.6746,0.20376 2.69148,2.31096 1.28036,2.6532 1.22448,6.218 -0.11744,7.494 -1.60692,1.5276 -6.5256,0.42068 -7.0576,-1.58832 -0.11624,-0.43884 -0.14204,-0.12228 -0.0573,0.70348 0.1948,1.89876 0.90232,2.70496 3.274,3.73056 2.2476,0.97196 3.03048,1.0114 4.1428,0.20888 z" />
  <path
     style="fill:#ffffff;stroke-width:4"
     inkscape:connector-curvature="0"
     id="path14"
     d="m 140.228,150.564 c 1.05996,-1.00764 0.9188,-2.6462 -0.34864,-4.0468 -1.41624,-1.56524 -2.98328,-1.19144 -3.55468,0.84792 -0.61656,2.20048 0.1786,3.90556 1.82128,3.90556 0.73636,0 1.67328,-0.31796 2.08204,-0.70656 z" />
  <path
     style="opacity:0.2;stroke-width:4;filter:url(#filter860)"
     inkscape:connector-curvature="0"
     id="path18"
     d="m 68.148,20.008 c -0.34,0.0468 -0.484,0.37 -0.484,0.9684 0,1.6012 1.376,5.6452 2.892,8.5 0.308,0.5856 0.544,1.084 0.74,1.5392 0.128,-0.1116 0.24,-0.2648 0.336,-0.5 0.536,-1.3224 0.292,-2.458 -1.076,-5.0392 -0.884,-1.6652 -1.684,-3.692 -2.228,-5.4452 -0.06,-0.0052 -0.128,-0.0304 -0.18,-0.0232 z m 37.604,11.0624 c -1.48,-0.1568 -0.776,2.1832 2.108,7.5232 0.9,1.6708 1.596,3.0936 2.076,4.2344 0.488,0.0304 0.768,-0.4172 0.768,-1.4452 0,-0.9884 -1.012,-3.398 -2.844,-6.7892 -0.748,-1.3848 -1.224,-2.3996 -1.68,-3.3904 -0.14,-0.0424 -0.316,-0.1208 -0.428,-0.1328 z m -39.16,3.1484 c -0.324,1.2228 -0.244,3.3036 0.376,6.3748 0.296,1.4668 0.5,2.808 0.616,4.0384 0.228,-2.06 0.052,-4.7264 -0.616,-8.0384 -0.18,-0.8952 -0.276,-1.6304 -0.376,-2.3748 z m 52.056,3.8436 c -0.044,0.3848 -0.016,0.9608 -0.016,1.4612 0.052,-0.308 0.032,-0.9024 0.016,-1.4612 z M 84.976,38.828 c -0.02,1.0604 0.024,1.7824 -0.048,3.2656 -0.132,2.8304 -0.128,5.0904 -0.06,6.5624 0.02,-0.872 0.016,-1.62 0.06,-2.564 0.16,-3.3684 0.188,-5.3744 0.048,-7.264 z m 20.776,6.648 c -0.56,1.356 -0.192,4.544 1.32,8.664 0.448,1.228 0.736,2.188 0.952,3.016 0.072,-0.716 0.132,-1.528 0.264,-1.852 0.232,-0.564 -0.2,-2.38 -1.216,-5.164 -0.64,-1.74 -1.068,-3.312 -1.32,-4.664 z m -39.964,7.36 c -0.592,0.772 -0.524,1.684 0.188,4.9 0.892,-0.08 0.756,-0.596 0.04,-3.808 -0.1,-0.452 -0.148,-0.72 -0.228,-1.092 z m 22.132,3.18 c -0.012,0.74 -0.004,1.368 -0.028,2.14 -0.136,3.86 -0.144,7.268 -0.024,7.58 0.004,0.008 0.012,0.008 0.016,0.016 0.008,-1.348 -0.056,-1.764 0.008,-3.596 0.084,-2.456 0.08,-4.536 0.028,-6.14 z m -24.7,6.968 c -0.028,0.124 -0.056,0.204 -0.088,0.352 -0.164,0.824 -0.064,2.888 0.196,4.704 0.104,-0.004 0.268,0.024 0.304,-0.008 0.144,-0.136 0.024,-1.796 -0.272,-3.68 -0.072,-0.448 -0.096,-0.904 -0.14,-1.368 z m -3.252,8.508 c -0.328,0.192 -0.224,1.88 0.104,4.244 0.464,-0.34 0.488,-0.74 0.304,-1.776 -0.188,-1.052 -0.228,-1.66 -0.336,-2.468 -0.016,0.004 -0.06,-0.008 -0.072,0 z m 89.728,19.616 c -0.368,0.996 -0.688,1.924 -0.688,2.024 0,0.056 0.7,-0.032 1.116,-0.052 0.056,-0.864 -0.088,-1.56 -0.428,-1.972 z M 46.064,92.736 c -0.592,0.484 -0.992,0.996 -0.984,1.52 0.196,-0.208 0.436,-0.416 0.56,-0.616 0.284,-0.452 0.344,-0.664 0.424,-0.904 z m 106.888,4.18 c -0.14,-0.048 -0.608,0.032 -0.896,0.052 -0.02,0.808 0.284,1.604 0.864,1.952 0.196,-0.388 0.344,-0.812 0.344,-1.168 0,-0.484 -0.028,-0.74 -0.312,-0.836 z m -111.468,4.028 c -0.204,0.2 -0.456,0.4 -0.576,0.58 -0.42,0.608 -0.524,0.956 -0.464,1.312 0.048,-0.024 0.096,-0.064 0.14,-0.084 0.884,-0.436 1.156,-0.996 0.9,-1.808 z m 112.812,2.384 c -1.272,2.188 -1.24,2.388 0.236,3.072 0.08,0.036 0.112,0.072 0.188,0.108 0.644,-1.192 0.812,-1.828 0.452,-2.468 -0.176,-0.316 -0.508,-0.548 -0.876,-0.712 z m -116.124,5.188 c -0.7328,0.72 -1.25,1.452 -1.25,1.92 0,0.472 0.3988,1.192 0.8904,1.604 0.1588,0.132 0.3092,0.384 0.4612,0.608 0.6192,-0.88 0.8728,-1.544 0.7028,-2.444 -0.11,-0.588 -0.4444,-1.204 -0.8044,-1.688 z m 116.064,1.728 c -0.676,0.944 -0.528,1.348 0.452,1.592 0.392,0.096 0.628,0.432 0.78,0.82 0.74,-1.056 0.5,-1.592 -0.936,-2.256 -0.132,-0.064 -0.188,-0.104 -0.296,-0.156 z M 37.1,118.408 c -1.27,1.96 -1.4296,3.62 -0.2344,3.96 0.1928,-0.38 0.448,-0.792 0.8048,-1.284 1.3036,-1.788 1.2032,-2.632 -0.3204,-2.632 -0.0968,0 -0.164,-0.036 -0.25,-0.044 z m 117.76,0.856 c -0.284,0.252 -0.588,0.488 -0.876,0.612 -1.356,0.588 -1.516,1.352 -0.46,2.188 0.424,0.332 0.508,0.916 0.452,1.812 0.004,-0.004 0.004,0 0.008,0 0.656,-0.284 1.428,-1.02 1.728,-1.64 0.448,-0.94 0.392,-1.284 -0.328,-2.04 -0.384,-0.404 -0.516,-0.684 -0.524,-0.932 z m -117.08,5.652 c -0.0444,0.064 -0.0608,0.104 -0.1092,0.168 -1.3428,1.844 -1.4524,2.804 -0.4768,3.456 0.0572,-0.092 0.0784,-0.156 0.1408,-0.252 0.8124,-1.24 1.4764,-2.408 1.4764,-2.6 0,-0.172 -0.4648,-0.504 -1.0312,-0.772 z m 115.852,1.264 c -0.36,1.248 -0.896,1.712 -1.812,1.712 -1.316,0 -1.472,0.676 -0.436,1.928 0.64,0.776 0.804,1.456 0.756,2 0.972,-0.156 1.472,-0.98 1.796,-3.116 0.224,-1.456 0.14,-2.088 -0.304,-2.524 z m -115.1,5.704 c -0.23,-0.02 -0.5628,0.004 -0.9844,0.036 -0.1076,0.172 -0.096,0.192 -0.2108,0.368 -1.6124,2.468 -1.5528,3.768 0.172,3.632 0.044,0 0.0592,0.004 0.1012,0 0.1292,-0.72 0.3412,-1.464 0.7112,-2.156 0.7612,-1.416 0.9284,-1.824 0.2108,-1.88 z m 110.804,0.352 c -0.728,-0.1 -1.272,0.24 -1.272,0.896 0,0.368 0.548,1.556 1.216,2.64 0.12,0.196 0.168,0.348 0.268,0.532 0.184,0.044 0.364,0.084 0.56,0.18 2.072,1.016 2.896,-0.704 1.276,-2.664 -0.372,-0.448 -0.536,-0.796 -0.604,-1.092 -0.204,-0.048 -0.428,-0.124 -0.672,-0.244 -0.268,-0.132 -0.528,-0.216 -0.772,-0.248 z m -108.704,6.092 c -0.076,-0.104 -0.284,-0.052 -0.6788,0.1 -1.0396,0.404 -1.6168,0.488 -1.9688,0.228 -0.3432,0.9 -0.5672,1.824 -0.5,2.592 0.1496,1.708 0.5792,1.916 2.4688,1.18 0.0228,-0.008 0.0172,0.004 0.0388,-0.008 -0.0804,-0.792 0.036,-1.812 0.508,-3.248 0.156,-0.472 0.208,-0.74 0.132,-0.844 z m 108.672,1.5 c -0.108,0.032 -0.168,0.108 -0.296,0.124 -1.848,0.236 -2.092,0.796 -1,2.252 0.464,0.616 0.7,1.22 0.836,1.788 0.064,-0.008 0.092,-0.028 0.164,-0.04 1.648,-0.208 1.748,-1.74 0.296,-4.124 z m -108.912,3.78 c -0.9704,3.248 -0.4148,4.72 1.764,4.308 0.236,-0.048 0.376,-0.048 0.556,-0.064 0.08,-0.616 0.236,-1.272 0.532,-1.968 0.832,-1.98 0.656,-2.3 -1.088,-1.968 -0.808,0.152 -1.392,0.044 -1.764,-0.308 z m 107.584,2.54 c -1.1,0.392 -1.068,1.328 0.124,2.924 0.188,0.244 0.28,0.464 0.4,0.692 0.724,-0.66 0.596,-2.104 -0.492,-3.56 -0.016,-0.02 -0.016,-0.036 -0.032,-0.056 z m -101.788,3.836 c -0.16,0.044 -0.364,0.188 -0.608,0.424 -0.284,0.268 -1.012,0.424 -1.628,0.344 -0.34,-0.048 -0.616,-0.22 -0.828,-0.472 -0.836,2.3 -0.516,4.288 0.828,4.472 0.616,0.08 1.344,-0.076 1.628,-0.344 0.984,-0.936 1.212,-0.468 1.132,2.348 -0.104,3.516 0.928,5.392 2.852,5.172 1.012,-0.112 1.304,0.092 1.6,1.144 0.472,1.664 1.696,2.512 3.664,2.528 1.436,0.016 1.56,0.12 1.304,1.088 -0.408,1.544 0.768,2.26 4.148,2.524 l 2.892,0.224 -0.148,1.464 c -0.124,1.232 0.044,1.528 1.108,1.912 0.724,0.26 2.564,0.332 4.288,0.164 3.02,-0.292 3.024,-0.292 3.024,0.876 0,1.9 2.932,2.728 5.876,1.664 1.076,-0.388 1.292,-0.284 1.96,0.944 l 0.752,1.376 4.1,-0.188 c 2.256,-0.104 4.476,-0.344 4.932,-0.54 0.596,-0.252 0.828,-0.152 0.828,0.368 0,0.396 0.424,1.132 0.944,1.624 1.136,1.08 2.068,1.112 5.72,0.212 2.264,-0.556 2.952,-0.572 3.732,-0.108 0.932,0.552 2.096,0.308 5.688,-1.172 0.468,-0.196 0.872,0.056 1.18,0.724 0.664,1.444 2.464,1.488 5.664,0.144 1.5,-0.632 2.812,-1.148 2.916,-1.148 0.104,0 0.392,0.504 0.64,1.124 0.248,0.616 0.756,1.124 1.132,1.124 0.376,0 1.32,-0.508 2.092,-1.124 1.616,-1.292 2.236,-1.396 2.62,-0.448 0.416,1.036 1.764,0.804 3.272,-0.56 l 1.368,-1.244 1.14,1.352 c 0.936,1.112 1.284,1.26 1.968,0.852 0.46,-0.272 0.9,-0.936 0.984,-1.484 0.236,-1.504 1.392,-1.652 2.492,-0.32 0.536,0.644 1.152,1.18 1.376,1.18 0.864,0 1.82,-1.412 2.124,-3.14 0.364,-2.036 0.508,-2.124 1.768,-1.04 1.088,0.936 2.408,0.344 2.648,-1.188 0.096,-0.632 0.664,-1.164 1.532,-1.452 1.052,-0.348 1.512,-0.9 1.944,-2.328 0.708,-2.348 0.612,-2.256 1.696,-1.704 1.792,0.912 2.648,-1.592 1.46,-4.156 -0.352,0.356 -0.844,0.468 -1.46,0.156 -1.084,-0.552 -0.988,-0.644 -1.696,1.704 -0.432,1.428 -0.892,1.98 -1.944,2.328 -0.868,0.288 -1.436,0.82 -1.532,1.452 -0.24,1.532 -1.56,2.124 -2.648,1.188 -1.26,-1.084 -1.404,-0.996 -1.768,1.04 -0.304,1.728 -1.26,3.14 -2.124,3.14 -0.224,0 -0.84,-0.536 -1.376,-1.18 -1.1,-1.332 -2.256,-1.184 -2.492,0.32 -0.084,0.548 -0.524,1.212 -0.984,1.484 -0.684,0.408 -1.032,0.26 -1.968,-0.852 l -1.14,-1.352 -1.368,1.244 c -1.508,1.364 -2.856,1.596 -3.272,0.56 -0.384,-0.948 -1.004,-0.844 -2.62,0.448 -0.772,0.616 -1.716,1.124 -2.092,1.124 -0.376,0 -0.884,-0.508 -1.132,-1.124 -0.248,-0.62 -0.536,-1.124 -0.64,-1.124 -0.104,0 -1.416,0.516 -2.916,1.148 -3.2,1.344 -5,1.3 -5.664,-0.144 -0.308,-0.668 -0.712,-0.92 -1.18,-0.724 -3.592,1.48 -4.756,1.724 -5.688,1.172 -0.78,-0.464 -1.468,-0.448 -3.732,0.108 -3.652,0.9 -4.584,0.868 -5.72,-0.212 -0.52,-0.492 -0.944,-1.228 -0.944,-1.624 0,-0.52 -0.232,-0.62 -0.828,-0.368 -0.456,0.196 -2.676,0.436 -4.932,0.54 l -4.1,0.188 -0.752,-1.376 c -0.668,-1.228 -0.884,-1.332 -1.96,-0.944 -2.944,1.064 -5.876,0.236 -5.876,-1.664 0,-1.168 -0.004,-1.168 -3.024,-0.876 -1.724,0.168 -3.564,0.096 -4.288,-0.164 -1.064,-0.384 -1.232,-0.68 -1.108,-1.912 l 0.148,-1.464 -2.892,-0.224 c -3.38,-0.264 -4.556,-0.98 -4.148,-2.524 0.256,-0.968 0.132,-1.072 -1.304,-1.088 -1.968,-0.016 -3.192,-0.864 -3.664,-2.528 -0.296,-1.052 -0.588,-1.256 -1.6,-1.144 -1.924,0.22 -2.956,-1.656 -2.852,-5.172 0.06,-2.112 -0.048,-2.904 -0.524,-2.772 z m 101.32,2.148 c -1.072,0.2 -1.06,0.632 0.124,1.648 0.604,0.52 0.972,0.952 1.236,1.344 0.084,-0.536 -0.16,-1.244 -0.768,-2.052 -0.26,-0.348 -0.44,-0.652 -0.592,-0.94 z m 0.244,5.76 c -0.144,0.3 -0.072,0.624 0.216,1.224 0.336,0.7 0.496,1.388 0.548,2.016 1.164,-0.844 0.944,-1.732 -0.764,-3.24 z" />
  <path
     style="fill:#ffffff;stroke-width:4;opacity:0.1"
     d="M 68.148438 16.017578 C 67.80947 16.064597 67.658203 16.391539 67.658203 16.990234 C 67.658203 17.142946 67.681132 17.337269 67.705078 17.53125 C 67.929367 16.502945 69.058422 16.997955 71.560547 19.171875 C 74.228547 21.489915 76.433841 24.951009 77.806641 28.974609 C 79.103321 32.775609 79.912958 32.125362 80.205078 27.044922 C 80.404198 23.582202 80.624385 22.792969 81.390625 22.792969 C 82.276225 22.792969 83.27008 25.551916 84.25 30.728516 C 84.792925 33.596743 85.031769 35.307287 85.068359 37.642578 C 85.087056 34.765661 84.865843 32.981962 84.25 29.728516 C 83.27008 24.551916 82.276225 21.792969 81.390625 21.792969 C 80.624385 21.792969 80.404198 22.582202 80.205078 26.044922 C 79.912958 31.125362 79.103321 31.775609 77.806641 27.974609 C 76.433841 23.951009 74.228547 20.489915 71.560547 18.171875 C 69.797572 16.64015 68.713383 15.939213 68.148438 16.017578 z M 105.75 27.078125 C 105.09604 27.008806 104.87713 27.439947 105.07617 28.390625 C 105.3364 27.801226 106.29338 28.046575 107.95898 29.050781 C 110.65082 30.673621 113.24726 33.591784 115.66406 37.708984 C 118.04775 41.770383 118.80584 42.175142 118.67969 39.072266 C 118.58241 40.997315 117.74598 40.256229 115.66406 36.708984 C 113.24726 32.591784 110.65082 29.673621 107.95898 28.050781 C 106.97973 27.460381 106.24328 27.130412 105.75 27.078125 z M 67.644531 28.988281 C 66.70767 28.988281 66.291282 30.150307 66.384766 32.318359 C 66.452421 30.804458 66.865274 29.986328 67.644531 29.986328 C 68.134131 29.986328 68.953284 30.493088 69.464844 31.111328 C 70.536364 32.406328 71.218313 32.535798 71.626953 31.523438 C 71.861469 30.942479 71.936625 30.392203 71.841797 29.746094 C 71.799704 30.005971 71.732782 30.261271 71.626953 30.523438 C 71.218313 31.535797 70.536364 31.406328 69.464844 30.111328 C 68.953284 29.493088 68.134131 28.988281 67.644531 28.988281 z M 119.55273 32.125 C 118.87352 32.208188 118.51295 33.489139 118.57031 35.785156 C 118.70254 32.337355 120.10149 32.164501 122.04688 35.828125 C 124.30316 40.077325 124.89526 43.008491 125.40234 52.462891 C 125.66086 57.282891 126.06347 61.409212 126.29883 61.632812 C 126.55415 61.875532 127.06157 61.375698 127.55469 60.392578 C 129.14673 57.218778 129.94352 59.051396 130.36328 66.853516 C 130.71496 73.390716 130.67814 73.282809 132.25586 72.599609 C 133.3679 72.117929 133.61079 72.176476 134.40039 73.103516 C 134.89007 73.678436 135.29102 74.708418 135.29102 75.392578 C 135.29102 77.304858 136.45241 77.983955 138.12109 77.046875 C 139.33693 76.364115 139.54461 76.356309 140.20117 76.980469 C 140.60205 77.361589 141.058 78.426343 141.21484 79.345703 C 141.65264 81.911943 142.27855 83.041016 143.26367 83.041016 C 144.49935 83.041016 145.12668 83.885596 145.48828 86.035156 C 145.94544 88.752956 146.38311 89.247402 147.49023 88.294922 C 148.86084 87.115761 149.92359 87.723427 150.13477 89.201172 C 150.32014 87.049389 149.13567 85.879317 147.49023 87.294922 C 146.38311 88.247402 145.94544 87.754909 145.48828 85.037109 C 145.12668 82.887549 144.49935 82.041016 143.26367 82.041016 C 142.27855 82.041016 141.65264 80.911943 141.21484 78.345703 C 141.058 77.426343 140.60205 76.363542 140.20117 75.982422 C 139.54461 75.358262 139.33693 75.364115 138.12109 76.046875 C 136.45241 76.983955 135.29102 76.304858 135.29102 74.392578 C 135.29102 73.708418 134.89007 72.678436 134.40039 72.103516 C 133.61079 71.176476 133.3679 71.119883 132.25586 71.601562 C 130.67814 72.284763 130.71496 72.392669 130.36328 65.855469 C 129.94352 58.053349 129.14673 56.218778 127.55469 59.392578 C 127.06157 60.375698 126.55415 60.877486 126.29883 60.634766 C 126.06347 60.411166 125.66086 56.282891 125.40234 51.462891 C 124.89526 42.008491 124.30316 39.077325 122.04688 34.828125 C 121.03744 32.927118 120.17148 32.049219 119.55273 32.125 z M 106.43164 40.757812 C 105.72166 40.87926 105.39804 41.919606 105.49805 43.599609 C 105.62025 41.60121 106.60223 41.050349 108.33203 42.800781 C 109.89427 44.381621 110.69727 44.242738 110.69727 42.392578 C 110.69727 42.286166 110.67934 42.156309 110.65625 42.017578 C 110.47735 43.247381 109.69384 43.178806 108.33203 41.800781 C 107.53879 40.998081 106.90115 40.6775 106.43164 40.757812 z M 67.691406 43.300781 C 67.650724 45.707057 67.15786 47.448898 66.181641 48.376953 C 65.50764 49.017614 65.257348 49.451897 65.394531 50.71875 C 65.475389 50.157646 65.727099 49.80901 66.181641 49.376953 C 67.289857 48.323413 67.789971 46.242115 67.691406 43.300781 z M 84.802734 47.763672 C 84.792248 49.518777 84.833246 50.854062 84.939453 51.171875 L 85.283203 52.201172 L 87.460938 49.603516 L 87.796875 50.875 C 87.887337 51.217676 87.942718 52.301004 87.960938 53.757812 C 87.958305 51.820385 87.906202 50.289141 87.796875 49.875 L 87.460938 48.603516 L 85.283203 51.201172 L 84.939453 50.173828 C 84.854888 49.920778 84.813411 48.992809 84.802734 47.763672 z M 108.2793 55.337891 C 108.08472 55.826122 107.91079 57.034547 107.89258 58.044922 C 107.87342 59.114362 107.55836 60.137538 107.14844 60.460938 C 106.68168 60.829177 106.47784 61.660193 106.55664 62.876953 C 106.55911 62.915099 106.55657 62.941643 106.55859 62.978516 C 106.61169 62.248627 106.8083 61.729281 107.14844 61.460938 C 107.55836 61.137538 107.87342 60.112409 107.89258 59.042969 C 107.91098 58.022289 108.08816 56.796559 108.28516 56.318359 C 108.36049 56.135483 108.34084 55.775763 108.2793 55.337891 z M 66.546875 57.488281 C 66.38431 57.806314 65.930124 57.763672 65.078125 57.763672 C 63.582565 57.763672 63.417579 57.896649 63.130859 59.349609 C 63.057403 59.721754 63.044865 60.372262 63.064453 61.111328 C 63.077087 60.813704 63.093864 60.537035 63.130859 60.349609 C 63.417579 58.896649 63.582565 58.761719 65.078125 58.761719 C 66.414513 58.761719 66.766007 58.847258 66.546875 57.488281 z M 92.566406 62.464844 C 91.941776 62.553749 91.5428 63.026059 91.375 63.880859 C 91.00272 65.777139 88.397448 67.157067 87.861328 65.742188 C 87.814374 65.618311 87.794876 64.903989 87.789062 63.955078 C 87.779242 65.475955 87.798972 66.577677 87.861328 66.742188 C 88.397448 68.157067 91.00272 66.775186 91.375 64.878906 C 91.7106 63.169306 92.964981 62.992416 95.119141 64.347656 C 96.220781 65.040696 97.780338 65.786219 98.585938 66.005859 C 99.828937 66.344739 100.1724 66.252444 100.85156 65.396484 C 101.59488 64.459684 101.76367 64.431894 103.21875 64.996094 C 106.17139 66.140974 106.692 65.966473 106.55664 63.876953 C 106.55293 63.81965 106.55715 63.774332 106.55469 63.71875 C 106.45356 64.971417 105.69856 64.957634 103.21875 63.996094 C 101.76367 63.431894 101.59488 63.459684 100.85156 64.396484 C 100.1724 65.252444 99.828937 65.344739 98.585938 65.005859 C 97.780338 64.786219 96.220781 64.040696 95.119141 63.347656 C 94.042061 62.670036 93.191036 62.375939 92.566406 62.464844 z M 60.259766 67.439453 C 60.129972 67.445059 60.028274 67.466636 59.964844 67.503906 C 59.758308 67.625319 59.685933 68.219605 59.740234 69.224609 C 59.770166 68.831116 59.841422 68.57646 59.964844 68.503906 C 60.218564 68.354826 61.085931 68.469686 61.894531 68.759766 C 62.703091 69.049926 63.482713 69.176183 63.626953 69.039062 C 63.698901 68.970666 63.70547 68.522887 63.65625 67.859375 C 63.646431 67.919168 63.644594 68.022292 63.626953 68.039062 C 63.482713 68.176183 62.703091 68.049926 61.894531 67.759766 C 61.288081 67.542206 60.649147 67.422636 60.259766 67.439453 z M 60.417969 75.314453 C 60.296474 75.656178 59.986377 75.852638 59.371094 76.119141 C 58.321803 76.573628 58.150269 76.873225 58.347656 77.880859 C 58.4774 77.577339 58.784769 77.3731 59.371094 77.119141 C 60.39958 76.673665 60.5729 76.391271 60.417969 75.314453 z M 58.376953 79.087891 C 58.190234 79.784856 57.505519 80.166844 56.068359 80.46875 C 52.672059 81.182225 51.320379 82.148322 51.794922 83.570312 C 52.145936 82.674002 53.537072 82.000508 56.068359 81.46875 C 58.07706 81.04678 58.632018 80.476787 58.376953 79.087891 z M 52.279297 85.533203 C 51.910497 86.143451 50.80017 86.691305 48.732422 87.357422 C 45.992968 88.239917 44.695935 89.517264 45.167969 90.748047 C 45.505063 89.854847 46.732633 89.001639 48.732422 88.357422 C 51.842862 87.355406 52.786573 86.615321 52.279297 85.533203 z M 152.68555 92.882812 C 152.36986 92.865697 151.88273 92.926568 151.13477 93.033203 C 150.33939 93.146568 149.66986 93.199217 149.30469 93.191406 C 149.13328 93.688908 149.00781 94.078148 149.00781 94.140625 C 149.00781 94.248345 149.96421 94.200043 151.13477 94.033203 C 152.62724 93.820424 153.07671 93.792615 153.20898 94.195312 C 153.24232 94.041758 153.26367 93.893044 153.26367 93.757812 C 153.26367 93.156112 153.21169 92.911339 152.68555 92.882812 z M 46.054688 92.939453 C 45.957269 93.132545 45.824288 93.354822 45.640625 93.650391 C 45.187145 94.380151 44.113146 95.296027 43.253906 95.685547 C 42.394666 96.075067 41.337137 96.907156 40.904297 97.535156 C 40.352044 98.33634 40.224134 98.633806 40.501953 99.177734 C 40.593185 98.999141 40.725443 98.794629 40.904297 98.535156 C 41.337137 97.907156 42.394666 97.075067 43.253906 96.685547 C 44.113146 96.296027 45.187145 95.380151 45.640625 94.650391 C 46.236683 93.691154 46.375533 93.397494 46.054688 92.939453 z M 152.05664 97.525391 C 151.80945 98.713225 152.45136 100.125 153.54297 100.125 C 154.17385 100.125 154.87273 100.52048 155.16797 101.04492 C 155.22022 101.13774 155.26243 101.22834 155.29688 101.31836 C 155.43992 100.81612 155.39416 100.44865 155.16797 100.04688 C 154.87273 99.522433 154.17385 99.126953 153.54297 99.126953 C 152.75452 99.126953 152.21237 98.38316 152.05664 97.525391 z M 41.498047 101.95898 C 41.351639 102.27302 41.048749 102.53545 40.582031 102.76367 C 38.817551 103.62651 36.916016 105.53555 36.916016 106.44531 C 36.916016 106.5993 36.970887 106.78405 37.046875 106.97266 C 37.490669 105.98355 39.080632 104.49786 40.582031 103.76367 C 41.468866 103.33002 41.760411 102.77477 41.498047 101.95898 z M 153.52148 105.79102 C 153.1467 106.69068 153.46513 106.91503 154.5293 107.4082 C 155.15137 107.69648 155.55209 107.9547 155.75586 108.24023 C 156.1511 107.44437 155.77232 106.98424 154.5293 106.4082 C 154.02359 106.17384 153.70034 106.00097 153.52148 105.79102 z M 38.988281 111.38867 C 38.863904 111.95273 38.513859 112.50738 37.832031 113.32227 C 36.394362 115.04202 35.791135 116.66986 36.068359 117.61523 C 36.235528 116.69817 36.815025 115.53687 37.832031 114.32031 C 38.889697 113.05624 39.140633 112.40713 38.988281 111.38867 z M 154.01562 111.57031 C 153.59444 112.29684 153.81449 112.63014 154.68164 112.8457 C 155.14804 112.96164 155.44452 113.37492 155.56641 113.86914 C 155.77831 113.01223 155.44838 112.03631 154.68164 111.8457 C 154.38257 111.77136 154.16382 111.6825 154.01562 111.57031 z M 155.04297 115.79883 C 154.66058 116.18767 154.73848 116.5263 155.38281 117.20312 C 155.61458 117.44659 155.77163 117.64598 155.87109 117.83789 C 156.10144 117.19786 155.98311 116.83373 155.38281 116.20312 C 155.23746 116.05044 155.13273 115.92139 155.04297 115.79883 z M 38.431641 119.79102 C 38.289698 120.1515 38.044115 120.57848 37.669922 121.0918 C 36.67691 122.45435 36.329553 123.34073 36.605469 123.97461 C 36.762588 123.4692 37.112208 122.85706 37.669922 122.0918 C 38.506254 120.94452 38.75717 120.1885 38.431641 119.79102 z M 153.01953 121.54883 C 152.66629 122.00633 152.82264 122.52203 153.51758 123.07031 C 153.79114 123.28615 153.95347 123.54767 154.01953 123.94336 C 154.10781 122.93205 153.9693 122.42671 153.51758 122.07031 C 153.29192 121.89228 153.13422 121.71943 153.01953 121.54883 z M 38.513672 126.33594 C 38.245284 126.83507 37.827187 127.53671 37.332031 128.29492 C 36.341188 129.80946 35.98826 130.87764 36.259766 131.44922 C 36.411854 130.88176 36.762559 130.16538 37.332031 129.29492 C 38.144431 128.05092 38.808594 126.8795 38.808594 126.6875 C 38.808594 126.60176 38.690411 126.47327 38.513672 126.33594 z M 150.89844 129.13086 C 150.53891 129.42436 150.68875 129.99598 151.37891 130.83008 C 151.78251 131.31785 152.03291 131.78957 152.15234 132.20898 C 152.36922 131.65543 152.15845 130.77219 151.37891 129.83008 C 151.16335 129.56957 151.01113 129.34072 150.89844 129.13086 z M 38.738281 132.93359 C 38.626428 133.1736 38.510817 133.41281 38.318359 133.77148 C 37.710359 134.90348 37.390869 136.23186 37.480469 137.25586 C 37.484756 137.3048 37.491322 137.34023 37.496094 137.38672 C 37.582877 136.54084 37.87106 135.60428 38.318359 134.77148 C 38.987314 133.52477 39.183775 133.06695 38.738281 132.93359 z M 148.19727 133.6582 C 148.11451 133.79211 148.06055 133.94968 148.06055 134.14062 C 148.06055 134.50875 148.6097 135.69896 149.2793 136.78516 C 149.80872 137.64397 150.12692 138.38853 150.25586 139.00781 C 150.45286 138.28034 150.14105 137.18502 149.2793 135.78711 C 148.80329 135.01495 148.39715 134.2027 148.19727 133.6582 z M 40.550781 139.2832 C 40.527124 139.27857 40.492333 139.28272 40.460938 139.28516 C 40.009621 140.69274 39.839665 141.77263 39.931641 142.54688 C 40.005312 141.88724 40.190253 141.09798 40.494141 140.16992 C 40.689141 139.57742 40.735957 139.31945 40.550781 139.2832 z M 147.5332 141.4668 C 147.19737 141.81753 147.36294 142.35522 148.00391 143.21094 C 148.51086 143.88776 148.81561 144.57312 148.93164 145.18164 C 149.12681 144.41089 148.81739 143.297 148.00391 142.21094 C 147.79073 141.92634 147.64226 141.68676 147.5332 141.4668 z M 43.587891 144.96484 C 43.506727 145.22396 43.40033 145.5165 43.246094 145.88281 C 42.736517 147.09342 42.558026 148.23633 42.671875 149.11328 C 42.733582 148.43254 42.912015 147.67649 43.246094 146.88281 C 43.706437 145.7895 43.84067 145.21539 43.587891 144.96484 z M 147.28125 147.66602 C 147.00198 148.1788 147.26395 148.96755 148.0957 150.07812 C 148.45454 150.5572 148.67492 150.99869 148.79102 151.39453 C 149.02355 150.84414 148.80666 150.02925 148.0957 149.08008 C 147.68459 148.53115 147.42089 148.06502 147.28125 147.66602 z M 147.07422 153.24414 C 146.44143 153.47954 146.62192 153.92131 147.63281 154.79102 C 148.42858 155.47564 148.90666 156.02733 149.11719 156.50781 C 149.50405 155.80696 149.03809 155.00196 147.63281 153.79297 C 147.384 153.57891 147.22386 153.40997 147.07422 153.24414 z M 147.81055 158.75391 C 147.55235 159.1006 147.63209 159.43461 147.96484 160.12891 C 148.26793 160.76129 148.44088 161.39011 148.50977 161.96875 C 148.60652 161.16637 148.45644 160.15461 147.96484 159.12891 C 147.89246 158.97788 147.85868 158.87462 147.81055 158.75391 z M 56.115234 162.78711 C 56.040693 163.12562 56.036087 163.42949 56.130859 163.68945 C 56.131394 163.68741 56.130319 163.68564 56.130859 163.68359 C 56.25745 163.20412 56.287834 162.937 56.115234 162.78711 z M 63.066406 166.42578 L 63.019531 166.89453 C 62.977363 167.30945 62.974905 167.61293 63.023438 167.85547 L 63.167969 166.43359 L 63.066406 166.42578 z "
     id="path896" />
</svg>
