<?xml version="1.0" encoding="UTF-8" standalone="no"?>
<svg
   xmlns:dc="http://purl.org/dc/elements/1.1/"
   xmlns:cc="http://creativecommons.org/ns#"
   xmlns:rdf="http://www.w3.org/1999/02/22-rdf-syntax-ns#"
   xmlns:svg="http://www.w3.org/2000/svg"
   xmlns="http://www.w3.org/2000/svg"
   xmlns:sodipodi="http://sodipodi.sourceforge.net/DTD/sodipodi-0.dtd"
   xmlns:inkscape="http://www.inkscape.org/namespaces/inkscape"
   width="192"
   height="192"
   version="1.1"
   id="svg26"
   sodipodi:docname="games_dont_starve.svg"
   inkscape:version="0.92.3 (2405546, 2018-03-11)">
  <metadata
     id="metadata32">
    <rdf:RDF>
      <cc:Work
         rdf:about="">
        <dc:format>image/svg+xml</dc:format>
        <dc:type
           rdf:resource="http://purl.org/dc/dcmitype/StillImage" />
        <dc:title></dc:title>
      </cc:Work>
    </rdf:RDF>
  </metadata>
  <defs
     id="defs30">
    <filter
       inkscape:collect="always"
       style="color-interpolation-filters:sRGB"
       id="filter870"
       x="-0.053653617"
       width="1.1073072"
       y="-0.043424274"
       height="1.0868485">
      <feGaussianBlur
         inkscape:collect="always"
         stdDeviation="1.8879009"
         id="feGaussianBlur872" />
    </filter>
    <filter
       inkscape:collect="always"
       style="color-interpolation-filters:sRGB"
       id="filter902"
       x="-0.04272614"
       width="1.0854523"
       y="-0.054759142"
       height="1.1095183">
      <feGaussianBlur
         inkscape:collect="always"
         stdDeviation="2.5635572"
         id="feGaussianBlur904" />
    </filter>
  </defs>
  <sodipodi:namedview
     pagecolor="#ffffff"
     bordercolor="#666666"
     borderopacity="1"
     objecttolerance="10"
     gridtolerance="10"
     guidetolerance="10"
     inkscape:pageopacity="0"
     inkscape:pageshadow="2"
     inkscape:window-width="1920"
     inkscape:window-height="1018"
     id="namedview28"
     showgrid="false"
     inkscape:zoom="2.82"
     inkscape:cx="24"
     inkscape:cy="66.553191"
     inkscape:window-x="0"
     inkscape:window-y="32"
     inkscape:window-maximized="1"
     inkscape:current-layer="svg26" />
  <path
     inkscape:connector-curvature="0"
     id="path2"
     d="m 139.71818,114.15402 c 4.06217,28.38548 -16.22653,67.62491 -22.94964,65.65452 -2.28308,2.67639 -44.353182,-23.1235 -49.250065,-51.01178 -0.456758,-2.60159 -12.140691,-20.82151 -6.786246,-15.13113 7.613867,8.09116 -7.869098,-15.994334 -4.420821,-23.408301 5.08427,-10.931552 33.306599,-12.533945 46.523412,-12.533945 12.0622,0 26.20347,-5.479976 32.26062,1.413993 5.08115,5.783175 2.86445,22.729903 4.62274,35.016643 z"
     style="opacity:0.2;stroke-width:3.9999826;filter:url(#filter870)" />
  <path
     inkscape:connector-curvature="0"
     id="path4"
     d="m 139.71818,110.15404 c 4.06217,28.38548 -16.22653,67.62491 -22.94964,65.65451 -2.28308,2.67639 -44.353182,-23.12349 -49.250065,-51.01177 -0.456758,-2.60159 -12.140691,-20.82151 -6.786246,-15.13114 7.613867,8.09117 -7.869098,-15.994326 -4.420821,-23.408294 5.08427,-10.931552 33.306599,-12.533945 46.523412,-12.533945 12.0622,0 26.20347,-5.479976 32.26062,1.413994 5.08115,5.783175 2.86445,22.7299 4.62274,35.016645 z"
     style="fill:#8bc1d6;stroke-width:3.9999826" />
  <path
     inkscape:connector-curvature="0"
     id="path6"
     d="m 104.00132,151.46426 c 0,-0.5564 1.8016,-1.24599 7.41694,-2.83719 2.58413,-0.73199 3.47178,-0.80199 4.06977,-0.32 0.42064,0.34 0.62408,0.7296 0.45209,0.8684 -0.2914,0.236 -10.95615,2.82479 -11.63206,2.82479 -0.16868,0 -0.30672,-0.24 -0.30672,-0.5364 z"
     style="fill:#4f4f4f;stroke-width:3.9999826" />
  <path
     inkscape:connector-curvature="0"
     id="path8"
     d="m 110.65494,142.8715 c -2.90486,-1.1596 -3.71405,-2.89959 -0.96194,-2.06879 4.41793,1.33359 4.56525,1.11159 4.23229,-6.37157 -0.208,-4.67438 0.008,-6.83557 0.63782,-6.36838 0.52393,0.392 1.11442,4.13079 1.31213,8.31437 0.39471,8.35236 0.16191,8.64236 -5.2203,6.49437 z"
     style="fill:#4f4f4f;stroke-width:3.9999826" />
  <path
     inkscape:connector-curvature="0"
     id="path10"
     d="m 44.787507,117.41481 c -2.748748,-1.82999 -4.993606,-3.47238 -4.988576,-3.64958 0.0052,-0.176 1.430515,-1.4568 3.167728,-2.84239 3.006695,-2.39879 4.565768,-4.50998 4.557996,-6.17197 -0.004,-0.8972 -11.152992,-15.914335 -18.112518,-24.397098 -2.692944,-3.282386 -5.087783,-6.489171 -5.321859,-7.126369 -0.264623,-0.719997 0.07243,-1.792392 0.891104,-2.834787 2.750513,-3.501985 7.40531,-10.764753 9.974192,-15.561932 2.547781,-4.757979 5.606007,-8.666362 6.131381,-7.835966 0.760453,1.201995 1.526609,0.449198 7.578795,-7.447167 6.083501,-7.936766 11.066855,-15.353133 12.286126,-15.353133 1.375602,0 0.8056,1.334794 -1.809272,4.236781 -4.671616,4.861979 -6.124869,11.57715 -6.133029,15.96793 -0.412522,8.283164 6.497915,18.744318 14.020638,22.117504 6.119522,2.571988 12.465102,1.679992 17.884862,-2.513189 4.272469,-3.305586 3.969247,-7.795166 -1.002763,-14.847135 -3.266206,-4.63278 -5.816955,-5.039578 -7.696279,-4.202782 -1.337134,0.594797 -5.214261,6.83757 -6.44826,10.646753 -0.430498,1.329195 -1.668892,0.837197 -1.668892,-0.662797 0,-3.121986 3.610636,-15.013134 5.525844,-18.409919 2.686932,-4.765979 5.621215,-4.997578 8.030092,-4.52678 1.344431,0.263999 2.366546,-0.555998 3.587909,-1.501194 l 1.707904,-1.312394 9.146636,4.47278 c 5.030644,2.45959 10.485454,5.400777 12.121794,6.535172 7.12344,4.939578 12.83021,9.414359 12.90529,10.119956 0.0446,0.419198 0.0156,3.242785 -0.0647,6.274372 -0.13912,5.256777 -0.082,5.512376 1.23425,5.512376 2.67294,0 6.51441,-2.584789 10.07914,-6.78197 6.24218,-7.349568 7.04887,-9.096761 7.04887,-15.266334 0.4509,-4.721579 -3.62673,-13.71314 -7.62576,-9.921556 -1.67649,1.637993 -3.62055,7.403967 -3.01549,8.944361 0.40819,1.039195 2.97147,1.754392 4.38625,1.223994 1.48422,-0.556397 1.24553,0.591998 -0.4324,2.080391 -2.19888,1.950392 -4.59721,2.28599 -6.36172,0.890396 -2.18136,-1.725592 -2.76938,-8.581962 -1.11332,-12.981943 1.57251,-4.177582 4.88485,-9.739157 6.06381,-10.181155 1.32695,-0.497598 2.8171,0.538797 8.12694,7.345168 8.55089,12.547545 17.88108,23.782696 26.22303,35.768643 1.03808,1.482394 2.04662,3.653584 2.24122,4.824779 0.32404,1.950391 -0.0657,2.598389 -4.63078,7.699166 -7.517,8.398764 -12.57659,15.210734 -12.57659,16.932726 0,1.855992 2.16419,3.359185 5.57439,3.871583 2.47112,0.371999 4.09863,1.193995 4.09863,2.071591 -4.05441,5.394778 -18.3313,27.434678 -20.25714,25.933888 -0.18828,-0.296 -0.50287,-3.84158 -0.69906,-7.87517 -1.47749,-10.92715 -2.0116,-25.787484 -3.31808,-36.448637 -0.39156,-2.080391 -0.45175,-2.114791 -3.05576,-1.761593 -6.38636,0.867197 -20.59843,3.443585 -24.69794,5.954374 -4.41997,2.707188 -5.3381,2.938387 -7.40393,1.858392 C 98.83105,85.176151 87.680511,81.531367 81.06136,80.722571 61.526149,78.336981 63.005051,78.740179 63.005051,81.082569 l 4.279789,42.201411 c 0,0 2.051843,9.07316 0.337279,9.07316 -9.317235,-3.46518 -15.580668,-10.07115 -22.834608,-14.94993 z"
     style="opacity:0.2;stroke-width:3.9999826;filter:url(#filter902)" />
  <path
     inkscape:connector-curvature="0"
     id="path12"
     d="m 44.787507,113.41483 c -2.748748,-1.82999 -4.993606,-3.47239 -4.988576,-3.64959 0.0052,-0.176 1.430515,-1.45679 3.167728,-2.84238 3.006695,-2.39879 4.565768,-4.50998 4.557996,-6.17198 -0.004,-0.897193 -11.152992,-15.914327 -18.112518,-24.39709 -2.692944,-3.282386 -5.087783,-6.489172 -5.321859,-7.126369 -0.264623,-0.719997 0.07243,-1.792392 0.891104,-2.834788 2.750513,-3.501984 7.40531,-10.764753 9.974192,-15.561932 2.547781,-4.757979 5.606007,-8.666362 6.131381,-7.835965 0.760453,1.201994 1.526609,0.449198 7.578795,-7.447168 6.083501,-7.936765 11.066855,-15.353133 12.286126,-15.353133 1.375602,0 0.8056,1.334794 -1.809272,4.236782 -4.671616,4.861979 -6.124869,11.577149 -6.133029,15.96793 -0.412522,8.283164 6.497915,18.744318 14.020638,22.117503 6.119522,2.571989 12.465102,1.679993 17.884862,-2.513189 4.272469,-3.305585 3.969247,-7.795166 -1.002763,-14.847135 -3.266206,-4.63278 -5.816955,-5.039578 -7.696279,-4.202782 -1.337134,0.594798 -5.214261,6.837571 -6.44826,10.646754 -0.430498,1.329194 -1.668892,0.837196 -1.668892,-0.662797 0,-3.121987 3.610636,-15.013135 5.525844,-18.40992 2.686932,-4.765979 5.621215,-4.997578 8.030092,-4.52678 1.344431,0.263999 2.366546,-0.555997 3.587909,-1.501193 l 1.707904,-1.312395 9.146636,4.472781 c 5.030644,2.459589 10.485454,5.400776 12.121794,6.535171 7.12344,4.939579 12.83021,9.414359 12.90529,10.119956 0.0446,0.419198 0.0156,3.242786 -0.0647,6.274373 -0.13912,5.256777 -0.082,5.512375 1.23425,5.512375 2.67294,0 6.51441,-2.584788 10.07914,-6.78197 6.24218,-7.349568 7.04887,-9.09676 7.04887,-15.266333 0.4509,-4.721579 -3.62673,-13.71314 -7.62576,-9.921557 -1.67649,1.637993 -3.62055,7.403968 -3.01549,8.944361 0.40819,1.039196 2.97147,1.754393 4.38625,1.223995 1.48422,-0.556398 1.24553,0.591997 -0.4324,2.080391 -2.19888,1.950391 -4.59721,2.28599 -6.36172,0.890396 -2.18136,-1.725593 -2.76938,-8.581963 -1.11332,-12.981943 1.57251,-4.177582 4.88485,-9.739158 6.06381,-10.181156 1.32695,-0.497598 2.8171,0.538798 8.12694,7.345168 8.55089,12.547545 17.88108,23.782696 26.22303,35.768644 1.03808,1.482393 2.04662,3.653584 2.24122,4.824778 0.32404,1.950392 -0.0657,2.598389 -4.63078,7.699167 -7.517,8.398763 -12.57659,15.210733 -12.57659,16.932726 0,1.855992 2.16419,3.359185 5.57439,3.871583 2.47112,0.371998 4.09863,1.193995 4.09863,2.071591 -4.05441,5.39478 -18.3313,27.43468 -20.25714,25.93389 -0.18828,-0.296 -0.50287,-3.84159 -0.69906,-7.87517 -1.47749,-10.92715 -2.0116,-20.185911 -3.31808,-30.847064 -0.39156,-2.079991 -0.45175,-2.114391 -3.05576,-1.761193 -6.38636,0.866797 -20.59843,3.443585 -24.69794,5.954374 -4.41997,2.707188 -5.3381,2.937987 -7.40393,1.857992 C 98.83105,86.777744 87.680511,83.13296 81.06136,82.324563 61.526149,79.938974 63.005051,80.342172 63.005051,82.684562 L 67.28484,119.284 c 0,0 2.051843,9.07316 0.337279,9.07316 -9.317235,-3.46518 -15.580668,-10.07115 -22.834608,-14.94993 z"
     style="fill:#4f4f4f;stroke-width:3.9999826" />
  <circle
     id="circle14"
     r="5.9999738"
     cy="121.99983"
     cx="94.001366"
     style="fill:#4f4f4f;stroke-width:3.9999826" />
  <path
     inkscape:connector-curvature="0"
     id="path16"
     d="m 77.651895,108.00365 c -0.43271,0 -0.705017,0.056 -0.798617,0.14 -0.327078,0.28 -0.650905,1.92839 -0.722556,3.66478 l -0.12928,3.15479 8.275188,0.5368 c 4.659572,0.5288 9.836893,0.6692 14.215378,0.272 1.539322,0 1.713542,-0.16 1.346238,-1.206 -0.981672,-2.79639 -2.541121,-4.41358 -4.403797,-4.55958 -1.019003,-0.08 -5.482604,-0.64719 -9.918056,-1.25919 -3.807664,-0.5264 -6.566332,-0.7812 -7.864478,-0.7424 z"
     style="fill:#4f4f4f;stroke-width:3.9999826" />
  <path
     inkscape:connector-curvature="0"
     id="path18"
     d="m 113.44091,104.00327 c -0.58752,0 -0.94782,0.06 -1.03335,0.168 -0.3202,0.392 -0.48323,2.29879 -0.37076,4.23038 0.18588,3.19119 0.35104,3.49918 1.83006,3.36678 4.12089,0.28 8.2769,0.228 12.47126,0.228 3.28949,-0.18 7.34538,-2.96278 9.66306,-4.46918 0,-0.44719 -0.30931,-0.81439 -0.69416,-0.81439 -0.38484,0 -5.5658,-0.7348 -11.5089,-1.6288 -4.76267,-0.72039 -8.59463,-1.11079 -10.35722,-1.08239 z"
     style="fill:#4f4f4f;stroke-width:3.9999826" />
  <circle
     id="circle20"
     r="5.9999738"
     cy="117.99985"
     cx="118.00126"
     style="fill:#4f4f4f;stroke-width:3.9999826" />
  <path
     inkscape:connector-curvature="0"
     style="opacity:0.1;fill:#ffffff;stroke-width:3.9999826"
     d="m 131.83594,16.001953 c -0.17811,0.006 -0.34585,0.04327 -0.51172,0.105469 -1.17896,0.441998 -4.49194,6.004058 -6.06445,10.18164 -0.68947,1.831833 -0.96924,4.080941 -0.92774,6.216797 0.0562,-1.822833 0.34604,-3.67129 0.92774,-5.216797 1.57251,-4.177582 4.88549,-9.739642 6.06445,-10.18164 1.32695,-0.497598 2.81711,0.539333 8.12695,7.345703 8.55089,12.547545 17.88071,23.783583 26.22266,35.769531 1.03808,1.482393 2.04563,3.653025 2.24023,4.824219 0.021,0.126458 0.0289,0.236439 0.043,0.353516 0.0717,-0.43 0.0409,-0.848819 -0.043,-1.353516 -0.1946,-1.171194 -1.20215,-3.341826 -2.24023,-4.824219 -8.34195,-11.985948 -17.67177,-23.221986 -26.22266,-35.769531 -4.64611,-5.955574 -6.36846,-7.493095 -7.61523,-7.451172 z m -70.884768,4.193359 c -1.219271,0 -6.201655,7.414798 -12.285156,15.351563 -6.052186,7.896366 -6.817672,8.64926 -7.578125,7.447266 -0.525374,-0.830397 -3.585032,3.077958 -6.132813,7.835937 -2.568882,4.797179 -7.224096,12.060516 -9.974609,15.5625 -0.806129,1.026423 -1.140876,2.079318 -0.898438,2.798828 0.121552,-0.559757 0.412666,-1.180308 0.898438,-1.798828 2.750513,-3.501984 7.405727,-10.765321 9.974609,-15.5625 2.547781,-4.757979 5.607439,-8.666334 6.132813,-7.835937 0.760453,1.201994 1.525939,0.4491 7.578125,-7.447266 6.083501,-7.936765 11.065885,-15.353516 12.285156,-15.353516 0.241274,0 0.419984,0.04357 0.541016,0.126953 0.351466,-0.755222 0.174617,-1.125 -0.541016,-1.125 z m 26,4.992188 -1.708984,1.3125 c -1.221363,0.945196 -2.24346,1.763999 -3.587891,1.5 -2.408877,-0.470798 -5.342365,-0.238635 -8.029297,4.527344 -1.915208,3.396785 -5.525391,15.288169 -5.525391,18.410156 0,0.134714 0.01861,0.251277 0.03711,0.369141 C 68.51255,47.46565 71.820251,36.728221 73.625,33.527344 76.311932,28.761365 79.24542,28.529202 81.654297,29 c 1.344431,0.263999 2.366528,-0.554804 3.587891,-1.5 l 1.708984,-1.3125 9.146484,4.472656 c 5.030644,2.459589 10.484754,5.400762 12.121094,6.535156 7.12344,4.93958 12.83117,9.413544 12.90625,10.119141 0.0145,0.136762 0.0101,0.835882 0.01,1.408203 0.0144,-1.247284 0.0139,-2.185878 -0.01,-2.408203 -0.0751,-0.705597 -5.78281,-5.179561 -12.90625,-10.119141 -1.63634,-1.134394 -7.09045,-4.075567 -12.121094,-6.535156 z m 41.761718,9.617188 c -0.0452,0.523346 -0.0439,0.985693 0.0684,1.271484 0.40819,1.039196 2.96999,1.755007 4.38477,1.224609 0.29592,-0.110935 0.50482,-0.138788 0.66601,-0.125 0.55026,-0.811629 0.37196,-1.26411 -0.66601,-0.875 -1.41478,0.530398 -3.97658,-0.185413 -4.38477,-1.224609 -0.0306,-0.07784 -0.0504,-0.173148 -0.0684,-0.271484 z m 10.71875,0.966796 c -0.005,0.09221 -10e-4,0.19198 -0.01,0.28125 0,6.169573 -0.80665,7.918011 -7.04883,15.267578 -3.56473,4.197182 -7.40714,6.78125 -10.08008,6.78125 -0.93059,0 -1.22598,-0.165089 -1.27344,-2.097656 -0.0171,2.796155 0.21526,3.097656 1.27344,3.097656 2.67294,0 6.51535,-2.584068 10.08008,-6.78125 6.24218,-7.349567 7.04883,-9.098005 7.04883,-15.267578 0.038,-0.398045 0.0334,-0.832728 0.01,-1.28125 z m -86.417968,5.546875 c -1.42e-4,0.02533 -0.0039,0.0549 -0.0039,0.08008 -0.412522,8.283163 6.496808,18.744002 14.019531,22.117187 6.119522,2.571989 12.466959,1.681463 17.886719,-2.511719 2.14523,-1.659752 3.134646,-3.61955 2.960937,-6.050781 -0.132982,1.97666 -1.118306,3.625148 -2.960937,5.050781 -5.41976,4.193182 -11.767197,5.085661 -17.886719,2.513672 C 59.780986,59.267439 53.122356,49.440593 53.013672,41.318359 Z M 63.001953,82.5625 c -0.04834,0.299707 0.0039,0.674557 0.0039,1.121094 L 67.28515,120.2832 c 0,0 0.913542,4.0961 0.994141,6.78321 0.198028,-2.50102 -0.994141,-7.78321 -0.994141,-7.78321 L 63.005859,82.683594 c 0,-0.04516 -0.003,-0.07738 -0.0039,-0.121094 z m 87.781247,6.685547 c -0.0469,0.165119 -0.0762,0.311438 -0.0762,0.429687 0,1.855992 2.16402,3.360649 5.57422,3.873047 1.87831,0.282758 3.26497,0.82554 3.82422,1.455078 0.0777,-0.105243 0.20391,-0.28965 0.27539,-0.384765 0,-0.877596 -1.62849,-1.698315 -4.09961,-2.070313 -3.05322,-0.45876 -5.10139,-1.713416 -5.49805,-3.302734 z M 47.423828,101.49219 c -0.375002,1.53173 -1.879908,3.37557 -4.457031,5.43164 -1.737213,1.38559 -3.162769,2.66579 -3.167969,2.84179 -0.0014,0.0482 0.188495,0.21813 0.484375,0.45704 0.553376,-0.53461 1.528012,-1.3791 2.683594,-2.30078 3.006695,-2.3988 4.566366,-4.50988 4.558594,-6.17188 -1.97e-4,-0.0441 -0.04939,-0.14804 -0.101563,-0.25781 z"
     id="path906" />
</svg>
