<?xml version="1.0" encoding="UTF-8" standalone="no"?>
<svg
   xmlns:dc="http://purl.org/dc/elements/1.1/"
   xmlns:cc="http://creativecommons.org/ns#"
   xmlns:rdf="http://www.w3.org/1999/02/22-rdf-syntax-ns#"
   xmlns:svg="http://www.w3.org/2000/svg"
   xmlns="http://www.w3.org/2000/svg"
   xmlns:sodipodi="http://sodipodi.sourceforge.net/DTD/sodipodi-0.dtd"
   xmlns:inkscape="http://www.inkscape.org/namespaces/inkscape"
   width="192"
   height="192"
   version="1"
   id="svg16"
   sodipodi:docname="games_life_is_strange.svg"
   inkscape:version="0.92.3 (2405546, 2018-03-11)">
  <metadata
     id="metadata22">
    <rdf:RDF>
      <cc:Work
         rdf:about="">
        <dc:format>image/svg+xml</dc:format>
        <dc:type
           rdf:resource="http://purl.org/dc/dcmitype/StillImage" />
        <dc:title></dc:title>
      </cc:Work>
    </rdf:RDF>
  </metadata>
  <defs
     id="defs20">
    <filter
       inkscape:collect="always"
       style="color-interpolation-filters:sRGB"
       id="filter857"
       x="-0.050666667"
       width="1.1013333"
       y="-0.0456"
       height="1.0912">
      <feGaussianBlur
         inkscape:collect="always"
         stdDeviation="3.04"
         id="feGaussianBlur859" />
    </filter>
    <filter
       inkscape:collect="always"
       style="color-interpolation-filters:sRGB"
       id="filter885"
       x="-0.061718064"
       width="1.1234361"
       y="-0.039271197"
       height="1.0785424">
      <feGaussianBlur
         inkscape:collect="always"
         stdDeviation="1.4400754"
         id="feGaussianBlur887" />
    </filter>
  </defs>
  <sodipodi:namedview
     pagecolor="#ffffff"
     bordercolor="#666666"
     borderopacity="1"
     objecttolerance="10"
     gridtolerance="10"
     guidetolerance="10"
     inkscape:pageopacity="0"
     inkscape:pageshadow="2"
     inkscape:window-width="1920"
     inkscape:window-height="1018"
     id="namedview18"
     showgrid="false"
     inkscape:zoom="3.24"
     inkscape:cx="24"
     inkscape:cy="67.572985"
     inkscape:window-x="0"
     inkscape:window-y="32"
     inkscape:window-maximized="1"
     inkscape:current-layer="svg16" />
  <rect
     style="opacity:0.2;stroke-width:4;filter:url(#filter857)"
     width="144"
     height="160"
     x="-168"
     y="20"
     rx="8"
     ry="8"
     transform="scale(-1,1)"
     id="rect2" />
  <rect
     style="fill:#e4e4e4;stroke-width:4"
     width="144"
     height="160"
     x="-168"
     y="16"
     rx="8"
     ry="8"
     transform="scale(-1,1)"
     id="rect4" />
  <rect
     style="fill:#65424f;stroke-width:4"
     width="112"
     height="112"
     x="-152"
     y="32"
     rx="0"
     ry="0"
     transform="scale(-1,1)"
     id="rect6" />
  <path
     style="opacity:0.2;fill:#ffffff;stroke-width:4"
     d="M 32 16 C 27.568 16 24 19.568 24 24 L 24 25 C 24 20.568 27.568 17 32 17 L 160 17 C 164.432 17 168 20.568 168 25 L 168 24 C 168 19.568 164.432 16 160 16 L 32 16 z "
     id="path8" />
  <path
     style="color:#000000;font-style:normal;font-variant:normal;font-weight:normal;font-stretch:normal;font-size:medium;line-height:normal;font-family:sans-serif;font-variant-ligatures:normal;font-variant-position:normal;font-variant-caps:normal;font-variant-numeric:normal;font-variant-alternates:normal;font-feature-settings:normal;text-indent:0;text-align:start;text-decoration:none;text-decoration-line:none;text-decoration-style:solid;text-decoration-color:#000000;letter-spacing:normal;word-spacing:normal;text-transform:none;writing-mode:lr-tb;direction:ltr;text-orientation:mixed;dominant-baseline:auto;baseline-shift:baseline;text-anchor:start;white-space:normal;shape-padding:0;clip-rule:nonzero;display:inline;overflow:visible;visibility:visible;opacity:0.2;isolation:auto;mix-blend-mode:normal;color-interpolation:sRGB;color-interpolation-filters:linearRGB;solid-color:#000000;solid-opacity:1;vector-effect:none;fill:#000000;fill-opacity:1;fill-rule:nonzero;stroke:none;stroke-width:7.9760561;stroke-linecap:butt;stroke-linejoin:miter;stroke-miterlimit:4;stroke-dasharray:none;stroke-dashoffset:0;stroke-opacity:1;color-rendering:auto;image-rendering:auto;shape-rendering:auto;text-rendering:auto;enable-background:accumulate;filter:url(#filter885)"
     d="m 68,45.99201 v 88 h 8 v -88 z m 38.64648,0.002 c -0.88271,-0.01186 -1.71192,0.03322 -2.45117,0.08398 -8.250888,0.566585 -16.176107,8.591415 -16.193357,20.810546 -0.07805,10.682995 6.671497,17.05098 11.466797,23.640625 l 0.06836,0.0957 0.07422,0.08984 c 4.691262,5.709648 9.312122,10.019814 12.318362,14.310544 2.96495,4.23183 4.55194,8.21263 3.97851,14.54883 -0.91593,4.08246 -3.19839,5.21696 -5.99218,5.94922 -2.84046,0.7445 -5.59375,0.41406 -5.59375,0.41406 l -0.26758,-0.0371 h -0.27149 c -2.61161,0 -4.122059,-1.00063 -5.513669,-3.08203 -1.391609,-2.0814 -2.292967,-5.35859 -2.292969,-8.89648 H 88 c 0,4.80545 1.087332,9.5141 3.638672,13.33008 2.538338,3.79653 6.898594,6.58678 12.068358,6.61523 0.63565,0.0805 4.03581,0.47104 8.23242,-0.62891 4.60497,-1.20698 10.32336,-4.91989 11.83985,-12.21484 l 0.043,-0.20703 0.0195,-0.21094 c 0.82381,-8.31539 -1.67004,-14.86266 -5.37891,-20.15625 -3.69975,-5.280571 -8.3886,-9.574608 -12.65625,-14.761718 -5.28425,-7.228896 -9.887666,-11.51688 -9.830078,-18.751953 v -0.01367 -0.01367 c 0.0086,-8.830782 5.535578,-12.651241 8.765628,-12.873047 2.58327,-0.177386 3.88632,-0.06657 4.77539,0.773437 0.88907,0.840007 2.38476,3.721243 2.38476,11.214844 h 7.97657 c 0,-8.472834 -1.44649,-13.765009 -4.88282,-17.011719 -2.57724,-2.435032 -5.70145,-2.982006 -8.34961,-3.017578 z"
     id="path861"
     inkscape:connector-curvature="0" />
  <path
     inkscape:connector-curvature="0"
     style="fill:none;stroke:#ffffff;stroke-width:7.9760561"
     d="m 115.89023,64.031154 c 0,-15.966435 -5.88067,-16.346867 -11.42092,-15.966435 -5.741858,0.394291 -12.470344,6.319415 -12.480613,16.847842 -0.07158,8.992742 5.637308,14.314603 10.704753,21.278227 8.96734,10.913976 18.64736,17.221922 17.18037,32.029342 -2.40053,11.5476 -16.09112,9.67675 -16.09112,9.67675 -7.81621,0 -11.794003,-7.62308 -11.794003,-15.96642"
     id="path12" />
  <rect
     style="fill:#ffffff;stroke-width:4"
     width="8"
     height="88"
     x="68"
     y="44"
     id="rect14" />
</svg>
