<?xml version="1.0" encoding="UTF-8" standalone="no"?>
<svg
   xmlns:dc="http://purl.org/dc/elements/1.1/"
   xmlns:cc="http://creativecommons.org/ns#"
   xmlns:rdf="http://www.w3.org/1999/02/22-rdf-syntax-ns#"
   xmlns:svg="http://www.w3.org/2000/svg"
   xmlns="http://www.w3.org/2000/svg"
   xmlns:sodipodi="http://sodipodi.sourceforge.net/DTD/sodipodi-0.dtd"
   xmlns:inkscape="http://www.inkscape.org/namespaces/inkscape"
   width="192"
   height="192"
   version="1"
   id="svg18"
   sodipodi:docname="games_limbo.svg"
   inkscape:version="0.92.3 (2405546, 2018-03-11)">
  <metadata
     id="metadata24">
    <rdf:RDF>
      <cc:Work
         rdf:about="">
        <dc:format>image/svg+xml</dc:format>
        <dc:type
           rdf:resource="http://purl.org/dc/dcmitype/StillImage" />
      </cc:Work>
    </rdf:RDF>
  </metadata>
  <defs
     id="defs22">
    <filter
       inkscape:collect="always"
       style="color-interpolation-filters:sRGB"
       id="filter853"
       x="-0.051154095"
       width="1.1023082"
       y="-0.04521227"
       height="1.0904245">
      <feGaussianBlur
         inkscape:collect="always"
         stdDeviation="2.5572437"
         id="feGaussianBlur855" />
    </filter>
    <filter
       inkscape:collect="always"
       style="color-interpolation-filters:sRGB"
       id="filter882"
       x="-0.036"
       width="1.072"
       y="-0.072"
       height="1.144">
      <feGaussianBlur
         inkscape:collect="always"
         stdDeviation="0.6"
         id="feGaussianBlur884" />
    </filter>
  </defs>
  <sodipodi:namedview
     pagecolor="#ffffff"
     bordercolor="#666666"
     borderopacity="1"
     objecttolerance="10"
     gridtolerance="10"
     guidetolerance="10"
     inkscape:pageopacity="0"
     inkscape:pageshadow="2"
     inkscape:window-width="1920"
     inkscape:window-height="1018"
     id="namedview20"
     showgrid="false"
     inkscape:zoom="3.2796268"
     inkscape:cx="96"
     inkscape:cy="96"
     inkscape:window-x="0"
     inkscape:window-y="32"
     inkscape:window-maximized="1"
     inkscape:current-layer="svg18" />
  <path
     style="fill:#4f4f4f;stroke-width:4"
     inkscape:connector-curvature="0"
     id="path2"
     d="m 80.092,170.54 c 1.15656,-3.82772 6.8596,-13.386 9.9284,-16.64 1.88496,-1.99864 3.42716,-3.82088 3.42716,-4.0496 0,-1.58152 -4.6716,-5.0588 -25.4588,-18.9496 -11.1252,-7.4344 -17.1624,-12.7496 -22.722,-20.0056 l -4.704,-6.136 -1.9512,-9.32 c -1.4752,-7.044 -1.8088,-9.84 -1.3636,-11.444 0.4428,-1.592 0.3608,-2.312 -0.3288,-2.88 -1.2628,-1.04 -1.21,-5.72 0.07,-6.208 0.7048,-0.268 0.9648,-1.24 0.906,-3.384 -0.11148,-4.0408 0.5196,-5.4128 6.3312,-13.7664 3.39992,-4.8872 5.842,-7.6956 7.682,-8.8344 1.4836,-0.91812 4.3968,-3.26636 6.474,-5.2184 3.41716,-3.21104 3.98232,-3.51056 5.9368,-3.14612 1.5576,0.2904 2.59816,0.0724 3.7304,-0.78156 2.50676,-1.89072 6.4612,-4.0272 7.454,-4.0272 1.07352,0 7.248,-3.50352 9.1304,-5.1808 2.16176,-1.92608 10.5396,-5.9884 11.8412,-5.7416 0.66812,0.1268 1.3086,0.8842 1.42336,1.68344 0.1148,0.79928 0.40588,1.4532 0.647,1.4532 0.2412,0 2.49728,-0.99188 5.0136,-2.2042 2.51648,-1.21232 7.8496,-3.1144 11.8512,-4.2268 7.83,-2.17668 9.8928,-2.07444 11.312,0.56072 0.63984,1.1882 1.33772,1.32868 6.6,1.32868 6.0572,0 9.1964,0.90936 9.9592,2.88492 0.2092,0.54256 2.30136,1.88832 4.6488,2.9906 3.47968,1.63404 4.268,2.28684 4.268,3.53504 0,0.96664 0.7352,2.0512 1.9946,2.94252 2.89936,2.05192 2.36424,3.7362 -1.9946,6.2776 -1.97468,1.15124 -4.0312,2.3602 -4.5696,2.68656 -0.79848,0.48388 -0.64788,0.74612 0.81604,1.42096 0.98732,0.45512 1.79516,1.25452 1.79516,1.7764 0,1.42196 -5.5976,8.9392 -7.836,10.5232 -2.3566,1.66784 -2.39352,2.38216 -0.42124,8.1568 0.844,2.47124 2.19796,7.4128 3.00888,10.9812 0.81088,3.56848 2.02956,8.386 2.70824,10.7056 0.67864,2.31952 1.70672,6.9908 2.2846,10.3808 1.83128,10.7432 0.29,17.6108 -5.5944,24.9328 -3.95176,4.9168 -13.3772,13.9624 -18.8764,18.116 l -4.1632,3.14444 0.386,3.23764 c 0.2976,2.49884 0.92384,3.82956 2.74356,5.8316 2.84872,3.13396 8.1348,13.6756 8.1348,16.2224 v 1.83132 h -52.964 l 0.44108,-1.45984 z" />
  <path
     style="opacity:0.1;stroke-width:4;filter:url(#filter882)"
     d="m 138,82 a 6,6 0 0 0 -6,6 6,6 0 0 0 6,6 6,6 0 0 0 6,-6 6,6 0 0 0 -6,-6 z m -28,8 a 6,6 0 0 0 -6,6 6,6 0 0 0 6,6 6,6 0 0 0 6,-6 6,6 0 0 0 -6,-6 z"
     id="circle4"
     inkscape:connector-curvature="0" />
  <circle
     style="fill:#ffffff;stroke-width:4"
     id="circle6"
     r="6"
     cy="94"
     cx="110" />
  <circle
     style="fill:#ffffff;stroke-width:4"
     id="circle10"
     r="6"
     cy="86"
     cx="138" />
  <path
     style="opacity:0.2;stroke-width:4;filter:url(#filter853)"
     inkscape:connector-curvature="0"
     id="path14"
     d="m 154.788,40.256 c -0.62,0.5568 -1.48,1.1484 -2.592,1.7968 -1.976,1.1512 -4.032,2.3612 -4.572,2.6892 -0.796,0.484 -0.644,0.736 0.82,1.412 0.692,0.32 1.18,0.792 1.476,1.236 0.828,-0.488 1.292,-0.764 2.276,-1.336 4.008,-2.3384 4.752,-3.958 2.592,-5.798 z m -5.836,10.25 c -1.776,2.8 -4.964,6.832 -6.544,7.952 -1.856,1.312 -2.228,2.132 -1.36,5.196 0.304,-0.404 0.756,-0.768 1.36,-1.196 2.236,-1.584 7.836,-9.1 7.836,-10.524 0,-0.416 -0.58,-0.976 -1.292,-1.428 z M 36.264,79.918 c -0.5064,1.564 -0.2964,4.416 0.6564,5.2 0.0696,0.06 0.1064,0.128 0.164,0.188 0.018,-0.508 0.0652,-0.956 0.164,-1.312 0.4424,-1.592 0.3612,-2.308 -0.328,-2.876 -0.2884,-0.236 -0.504,-0.68 -0.6564,-1.2 z m 0.992,8.02 c -0.0064,0.024 -0.0012,0.032 -0.008,0.056 -0.4452,1.604 -0.1156,4.404 1.3592,11.444 l 1.9548,9.32 4.7,6.144 c 5.56,7.256 11.596,12.564 22.72,20 14.952,9.992 21.396,14.504 23.932,16.888 0.868,-0.996 1.528,-1.796 1.528,-1.936 0,-1.58 -4.672,-5.064 -25.46,-18.952 -11.124,-7.436 -17.16,-12.744 -22.72,-20 l -4.7,-6.144 -1.9548,-9.32 c -0.7168,-3.404 -1.1348,-5.732 -1.3552,-7.5 z m 113.348,20.44 c -0.364,5.712 -2.316,10.388 -6.216,15.24 -3.952,4.92 -13.376,13.964 -18.876,18.12 l -4.164,3.14 0.384,3.24 c 0.016,0.156 0.048,0.268 0.068,0.416 l 3.712,-2.796 c 5.5,-4.156 14.924,-13.2 18.876,-18.12 4.768,-5.932 6.636,-11.6 6.216,-19.24 z m -69.428,63.624 c -0.42,0.916 -0.892,1.892 -1.088,2.54 l -0.444,1.46 h 52.968 v -1.828 c 0,-0.468 -0.224,-1.264 -0.532,-2.172 z" />
  <path
     style="fill:#ffffff;stroke-width:4;opacity:0.1"
     d="M 122.80469 20.005859 C 121.15777 20.064488 118.83578 20.580906 115.41016 21.533203 C 111.40856 22.645603 106.07507 24.547446 103.55859 25.759766 C 101.04227 26.972086 98.786122 27.962891 98.544922 27.962891 C 98.303802 27.962891 98.013238 27.309046 97.898438 26.509766 C 97.783678 25.710526 97.142729 24.952972 96.474609 24.826172 C 95.173009 24.579372 86.796526 28.642279 84.634766 30.568359 C 82.752366 32.245639 76.577426 35.75 75.503906 35.75 C 74.511106 35.75 70.555588 37.884671 68.048828 39.775391 C 66.916588 40.629351 65.875959 40.848994 64.318359 40.558594 C 62.363879 40.194154 61.799973 40.492085 58.382812 43.703125 C 56.305612 45.655165 53.391803 48.003755 51.908203 48.921875 C 50.068203 50.060675 47.626483 52.868659 44.226562 57.755859 C 38.414962 66.109459 37.783051 67.482637 37.894531 71.523438 C 37.953331 73.667437 37.693081 74.63825 36.988281 74.90625 C 36.253384 75.186429 35.938408 76.846618 36.029297 78.408203 C 36.100181 77.204385 36.412223 76.125872 36.988281 75.90625 C 37.693081 75.63825 37.953331 74.667437 37.894531 72.523438 C 37.783051 68.482637 38.414962 67.109459 44.226562 58.755859 C 47.626483 53.868659 50.068203 51.060675 51.908203 49.921875 C 53.391803 49.003755 56.305612 46.655165 58.382812 44.703125 C 61.799973 41.492085 62.363879 41.194154 64.318359 41.558594 C 65.875959 41.848994 66.916588 41.629351 68.048828 40.775391 C 70.555588 38.884671 74.511106 36.748047 75.503906 36.748047 C 76.577426 36.748047 82.752366 33.245639 84.634766 31.568359 C 86.796526 29.642279 95.173009 25.579372 96.474609 25.826172 C 97.142729 25.952972 97.783678 26.710526 97.898438 27.509766 C 98.013238 28.309046 98.303802 28.962891 98.544922 28.962891 C 98.786122 28.962891 101.04227 27.972086 103.55859 26.759766 C 106.07507 25.547446 111.40856 23.64365 115.41016 22.53125 C 123.24016 20.35457 125.30346 20.45859 126.72266 23.09375 C 127.3625 24.28195 128.05999 24.421875 133.32227 24.421875 C 139.37947 24.421875 142.51845 25.331081 143.28125 27.306641 C 143.49045 27.849201 145.58225 29.194595 147.92969 30.296875 C 151.40937 31.930915 152.19922 32.583831 152.19922 33.832031 C 152.19922 34.798671 152.93396 35.884071 154.19336 36.775391 C 155.15004 37.452446 155.72313 38.089468 155.91797 38.730469 C 156.23418 37.735234 155.64304 36.801351 154.19336 35.775391 C 152.93396 34.884071 152.19922 33.798671 152.19922 32.832031 C 152.19922 31.583831 151.40937 30.930915 147.92969 29.296875 C 145.58225 28.194595 143.49045 26.849201 143.28125 26.306641 C 142.51845 24.331081 139.37947 23.421875 133.32227 23.421875 C 128.05999 23.421875 127.3625 23.28195 126.72266 22.09375 C 125.92436 20.611473 124.92216 19.93048 122.80469 20.005859 z M 147.62695 45.740234 C 146.83145 46.223093 146.98301 46.486061 148.44531 47.160156 C 149.18078 47.499179 149.81329 48.028106 150.08984 48.492188 C 150.17832 48.266282 150.24023 48.066905 150.24023 47.935547 C 150.24023 47.413667 149.43263 46.615276 148.44531 46.160156 C 148.09592 45.999093 147.83168 45.862914 147.62695 45.740234 z M 140.61133 61.662109 C 140.41925 62.777566 140.89077 64.418974 141.98242 67.615234 C 142.82642 70.086474 144.18127 75.029256 144.99219 78.597656 C 145.80307 82.166136 147.02054 86.983134 147.69922 89.302734 C 148.37786 91.622254 149.4065 96.293594 149.98438 99.683594 C 150.42069 102.24325 150.65893 104.57765 150.69922 106.75586 C 150.72636 104.29597 150.48838 101.64033 149.98438 98.683594 C 149.4065 95.293594 148.37786 90.622254 147.69922 88.302734 C 147.02054 85.983134 145.80307 81.166136 144.99219 77.597656 C 144.18127 74.029256 142.82642 69.088427 141.98242 66.617188 C 141.17056 64.240146 140.72064 62.743736 140.61133 61.662109 z M 37.470703 82.994141 C 37.426043 83.28584 37.354379 83.613796 37.248047 83.996094 C 37.098263 84.535746 37.045596 85.230366 37.085938 86.15625 C 37.109363 85.71032 37.158199 85.317852 37.248047 84.994141 C 37.500569 84.086245 37.574895 83.468381 37.470703 82.994141 z M 121.45898 145.79492 L 121.34961 145.87695 L 121.73633 149.11523 C 122.03393 151.61407 122.66075 152.94327 124.48047 154.94531 C 127.32919 158.07927 132.61523 168.62117 132.61523 171.16797 L 132.61523 170.16797 C 132.61523 167.62117 127.32919 157.08123 124.48047 153.94727 C 122.66075 151.94523 122.03393 150.61407 121.73633 148.11523 L 121.45898 145.79492 z M 93.232422 150.20703 C 92.778805 150.85331 91.529367 152.2995 90.019531 153.90039 C 86.950731 157.15439 81.248357 166.71134 80.091797 170.53906 L 80.091797 170.54102 L 79.650391 172 L 79.953125 172 L 80.091797 171.54102 L 80.091797 171.53906 C 81.248357 167.71134 86.950731 158.15439 90.019531 154.90039 C 91.904491 152.90175 93.447266 151.07833 93.447266 150.84961 C 93.447266 150.66613 93.376043 150.45484 93.232422 150.20703 z "
     id="path886" />
</svg>
