<?xml version="1.0" encoding="UTF-8" standalone="no"?>
<svg
   xmlns:dc="http://purl.org/dc/elements/1.1/"
   xmlns:cc="http://creativecommons.org/ns#"
   xmlns:rdf="http://www.w3.org/1999/02/22-rdf-syntax-ns#"
   xmlns:svg="http://www.w3.org/2000/svg"
   xmlns="http://www.w3.org/2000/svg"
   xmlns:sodipodi="http://sodipodi.sourceforge.net/DTD/sodipodi-0.dtd"
   xmlns:inkscape="http://www.inkscape.org/namespaces/inkscape"
   width="192"
   height="192"
   version="1.1"
   id="svg18"
   sodipodi:docname="games_eternal_lands.svg"
   inkscape:version="0.92.3 (2405546, 2018-03-11)">
  <metadata
     id="metadata24">
    <rdf:RDF>
      <cc:Work
         rdf:about="">
        <dc:format>image/svg+xml</dc:format>
        <dc:type
           rdf:resource="http://purl.org/dc/dcmitype/StillImage" />
        <dc:title></dc:title>
      </cc:Work>
    </rdf:RDF>
  </metadata>
  <defs
     id="defs22">
    <filter
       inkscape:collect="always"
       style="color-interpolation-filters:sRGB"
       id="filter880"
       x="-0.049944878"
       width="1.0998898"
       y="-0.046200914"
       height="1.0924018">
      <feGaussianBlur
         inkscape:collect="always"
         stdDeviation="3.0799919"
         id="feGaussianBlur882" />
    </filter>
    <filter
       inkscape:collect="always"
       style="color-interpolation-filters:sRGB"
       id="filter908"
       x="-0.054253139"
       width="1.1085063"
       y="-0.049367926"
       height="1.0987359">
      <feGaussianBlur
         inkscape:collect="always"
         stdDeviation="1.9747369"
         id="feGaussianBlur910" />
    </filter>
    <filter
       inkscape:collect="always"
       style="color-interpolation-filters:sRGB"
       id="filter912"
       x="-0.19894028"
       width="1.3978806"
       y="-0.14941698"
       height="1.298834">
      <feGaussianBlur
         inkscape:collect="always"
         stdDeviation="1.9747369"
         id="feGaussianBlur914" />
    </filter>
  </defs>
  <sodipodi:namedview
     pagecolor="#ffffff"
     bordercolor="#666666"
     borderopacity="1"
     objecttolerance="10"
     gridtolerance="10"
     guidetolerance="10"
     inkscape:pageopacity="0"
     inkscape:pageshadow="2"
     inkscape:window-width="1920"
     inkscape:window-height="1018"
     id="namedview20"
     showgrid="false"
     inkscape:zoom="2.82"
     inkscape:cx="24"
     inkscape:cy="80.737589"
     inkscape:window-x="0"
     inkscape:window-y="32"
     inkscape:window-maximized="1"
     inkscape:current-layer="svg18" />
  <path
     inkscape:connector-curvature="0"
     style="opacity:0.2;stroke-width:4.00004005;filter:url(#filter880)"
     d="m 80.912652,20.007856 c -1.007078,-0.02364 -2.040761,0.05079 -3.132848,0.226567 -7.316533,1.17764 -12.176557,5.838845 -16.515788,15.843907 -1.250369,2.83731 -2.373716,5.503633 -3.601596,8.328205 3.008706,-0.134081 7.136247,-0.213162 12.796999,-0.304683 3.708825,-0.05996 6.828109,-0.09356 9.429782,-0.101561 7.80503,-0.024 10.965198,0.193322 11.562616,0.718759 1.252764,1.101859 2.63525,7.595356 1.976584,9.296965 -0.700647,1.810062 -2.318888,1.415866 -6.203186,-1.523451 -5.451115,-4.124945 -12.930601,-4.719411 -16.382976,-1.296889 -1.612896,1.598912 -2.723299,8.285211 -1.78127,10.718859 0.453737,1.1722 0.76516,1.085283 2.656279,-0.703135 2.540429,-2.402476 5.665692,-3.679725 8.984462,-3.679725 3.733185,0 7.718829,4.567202 7.718829,8.851653 0,3.809914 -1.490071,6.26517 -4.843801,7.984455 -2.875392,1.474059 -4.937801,0.908429 -4.382855,-1.195324 0.665134,-2.521497 -1.588532,-4.8438 -4.429733,-4.570357 -2.051856,0.197482 -2.786259,0.848932 -4.250042,3.726597 -1.486479,2.922301 -1.773454,2.337343 -1.773454,8.929777 0,10.061992 0.737772,12.523561 6.586002,12.523561 5.114255,4e-6 9.700937,-3.853727 14.656398,-9.679781 l 3.406282,-4.00004 h 9.734474 c 6.91666,-0.284082 9.57754,-0.05608 9.92197,1.257825 0.63484,-1.906095 7.07033,0.244842 9.98448,0.867197 -0.50261,-0.942614 -7.84339,-5.21342 -8.34384,-5.500055 -0.44325,-0.253883 -0.80828,-0.651195 6.336,-0.554694 0,0 -4.46042,-2.492933 -8.25789,-2.281275 -2.35261,0.131122 -4.26607,-0.108481 -4.36723,-0.546877 -0.50682,-2.196462 9.03518,-6.209966 17.00017,-7.148511 6.2884,-0.740984 9.26801,0.100721 10.45323,2.968781 1.67752,4.059389 4.47543,6.738275 8.42977,8.054769 2.06955,0.689002 4.49985,2.03342 5.39849,2.992213 5.65825,4.33898 5.90892,12.829904 4.05473,13.015758 0,0 2.63823,0.704419 6.0235,0 8.23807,-1.714213 12.70975,-8.870628 8.82821,-14.132953 -1.29911,-1.761257 -1.78663,-3.828974 -2.14065,-9.09385 -0.48998,-7.287141 -1.24733,-9.389298 -5.48443,-15.226716 -1.48528,-2.046261 -3.14063,-5.385454 -3.67972,-7.421946 -1.68133,-6.351428 -5.8495,-13.549425 -10.59386,-18.304872 -2.89235,-2.899113 -4.71466,-4.44816 -5.50786,-4.507857 0,0 4.62127,8.715148 4.75004,14.695459 0,5.569548 -3.50385,6.137726 -6.53131,2.414085 -2.71039,-3.900743 -2.90508,-8.671051 -8.73446,-9.437593 0,0 1.8332,3.917353 1.3047,4.429732 -4.98525,4.833019 -10.37972,2.594714 -14.00014,-2.375024 -1.52397,-2.091935 -4.06254,-2.640651 -4.06255,-2.640651 0.73104,2.041346 -1.20758,5.648481 -5.78911,5.382866 -2.09929,0 -5.96203,-2.798014 -13.71108,-9.929787 -5.320869,-4.897026 -9.128299,-6.967978 -13.492318,-7.070383 z M 53.865506,53.195687 C 48.531137,65.606863 43.492378,77.491257 39.677864,86.492895 33.547519,98.5998 27.206375,111.67219 25.583973,115.54006 c -4.476913,10.67314 -4.897929,20.85735 -0.48438,11.71887 2.143048,-4.4373 8.817565,-10.44598 15.062651,-13.55483 5.720974,-2.84795 8.06495,-3.36744 7.632889,-1.68751 -0.478716,1.86133 -1.46263,5.60302 -1.460954,6.26568 2.334323,-1.99626 6.441484,-3.23224 7.671952,-0.57813 0.730316,1.60661 0.514717,3.42731 -1.148447,9.89854 -1.856219,7.22238 -2.234274,14.88296 -1.351578,14.88296 1.253649,-2.62587 4.15397,-6.20503 7.015694,-4.73442 1.936248,1.03866 2.202578,1.984 2.851593,10.21104 0.554865,7.03361 5.646376,16.77559 6.976633,17.24236 -0.61243,-4.08957 0.314883,-6.31299 5.328178,-3.85941 0.936525,0.48399 4.896492,3.99894 8.804775,7.81257 3.908283,3.81365 10.689951,8.48446 11.289173,8.48446 0,0 -1.657625,-2.33775 -1.234384,-3.30472 1.052746,-2.40516 3.654552,-2.58408 8.546952,-0.59375 2.27036,0.92361 7.06065,2.50902 10.64855,3.52347 5.91581,1.74828 10.08572,3.01136 11.3048,2.67971 -7.06018,-4.02514 1.40735,-5.8891 7.95321,-8.03133 4.98414,-1.70117 11.54169,-4.01448 16.99235,-9.82041 -3.63346,0.78856 -2.72032,-2.80501 -2.17189,-4.67192 1.37923,-4.61424 1.11335,-12.76499 -0.56251,-17.04705 -1.00217,-4.21873 -4.16889,-7.33011 -7.3282,-10.09385 0.0151,0.28372 0.0781,0.53349 0.0781,0.82814 0,1.315 -0.28569,2.52407 -0.76563,3.60941 -0.0932,1.49916 -0.46318,2.89615 -1.17189,4.04691 1.02929,6.27041 2.84064,9.3608 -0.62501,17.2658 -2.72891,4.64076 -7.88359,8.17284 -11.96105,9.40634 -5.45796,1.535 -8.52393,1.54834 -14.0939,0.0469 -13.521715,-3.64495 -25.03895,-14.37912 -27.758085,-28.95342 -1.451807,-7.78153 -3.18308,-12.2603 1.429702,-7.5782 0.64223,-0.60658 0.280603,-4.7734 0.851569,-5.43756 5.864182,-6.8214 8.161945,-16.39352 10.671982,-24.289298 -0.326203,-3.825702 -0.703247,-6.509749 -1.132823,-6.156313 -0.600686,0.494213 -1.093759,1.405018 -1.093759,2.015644 0,0.610622 -0.867261,1.970199 -1.929707,3.02347 -2.017825,2.000397 -3.079787,2.251447 -6.125062,1.914077 h -14.24233 c -21.454754,0 -20.980157,-0.09792 -17.750177,-5.687555 1.869663,-3.23604 1.898455,-2.369639 1.898455,-22.375223 0,-11.101443 -0.0192,-16.050104 -0.335923,-18.765811 z m 59.172464,28.273722 c 0.1304,0.764504 -0.41099,1.858967 -1.37501,3.414094 -0.24076,0.388364 -0.43467,0.832196 -0.60938,1.328137 2.34723,0.695871 4.14437,1.75613 6.26568,2.992218 0.045,-2.351215 -3.50537,-5.111671 -4.14847,-6.718815 -0.17137,-0.42828 -0.19197,-0.745879 -0.13281,-1.015634 z m 7.50789,44.281691 c -2.42289,0.99094 -4.94125,2.65014 -7.50789,4.92192 1.61681,1.01329 3.29161,1.61474 5.00005,1.96096 3.70291,0.55405 5.32602,-1.2345 4.64848,-4.23442 -0.209,-0.24816 -0.37852,-0.47741 -0.61719,-0.74219 -0.64546,-0.71612 -1.14973,-1.34759 -1.52345,-1.90627 z"
     id="path2" />
  <path
     inkscape:connector-curvature="0"
     style="fill:#5c3d2b;stroke-width:4.00004005"
     d="m 80.913492,16.004007 c -1.007078,-0.02364 -2.042925,0.05772 -3.135008,0.233503 C 70.461947,17.41515 65.606767,22.072328 61.267536,32.07739 53.088178,50.637777 45.240672,69.366912 39.67876,82.492127 33.548415,94.599032 27.20504,107.66837 25.582639,111.53624 c -4.476914,10.67313 -4.897732,20.86082 -0.484183,11.72233 2.143047,-4.43729 8.819402,-10.44334 15.064487,-13.55218 5.720975,-2.84796 8.063271,-3.36632 7.63121,-1.6864 -0.478716,1.86133 -1.463218,5.59756 -1.461542,6.26022 2.334323,-1.99627 6.441712,-3.22943 7.67218,-0.57532 0.730316,1.60661 0.519701,3.42278 -1.143463,9.89401 -1.856219,7.22238 -2.241619,14.88519 -1.358922,14.88519 1.253649,-2.62587 4.159702,-6.20081 7.021426,-4.7302 1.936248,1.03866 2.196706,1.98288 2.845721,10.20992 0.554865,7.03361 5.647316,16.77292 6.977573,17.23969 -0.61243,-4.08957 0.317723,-6.31049 5.331026,-3.85691 0.936525,0.484 4.899892,4.00024 8.808175,7.81387 3.908283,3.81365 10.684255,8.48059 11.283477,8.48059 0,0 -1.651545,-2.33845 -1.228304,-3.30542 1.052746,-2.40517 3.647792,-2.58552 8.5402,-0.5952 2.27035,0.92362 7.06412,2.50943 10.65202,3.52388 5.91581,1.74828 10.08501,3.01604 11.3041,2.6844 -7.06019,-4.02515 1.40427,-5.89027 7.95012,-8.03249 4.98414,-1.70118 11.54819,-4.01531 16.99886,-9.82124 -3.63346,0.78857 -2.71989,-2.80673 -2.17146,-4.67364 1.37923,-4.61424 1.10793,-12.765 -0.56793,-17.04706 -1.17958,-4.96555 -5.3631,-8.4182 -8.99665,-11.54683 0.17961,0.3904 0.33597,0.79248 0.46896,1.20718 0.13217,0.41214 0.24317,0.83596 0.33041,1.27434 5.2e-4,0.003 7.8e-4,0.005 0.002,0.008 7.8e-4,0.006 0.002,0.0112 0.003,0.0168 0.0836,0.4246 0.14768,0.86277 0.19032,1.31401 0.0458,0.48052 0.0701,0.97617 0.0701,1.48952 0,1.73796 -0.45228,3.32508 -1.25614,4.63033 1.0293,6.27041 2.84103,9.35967 -0.62462,17.26467 -2.72891,4.64076 -7.87939,8.1743 -11.95685,9.4078 -5.45795,1.535 -8.52768,1.54418 -14.09764,0.0427 -13.521723,-3.64495 -25.03765,-14.3767 -27.756785,-28.95101 -1.451807,-7.78153 -3.185716,-12.26228 1.427066,-7.58018 0.64223,-0.60658 0.284403,-4.7681 0.855349,-5.43225 11.050002,-12.85373 9.407337,-35.703204 20.4649,-38.066207 1.03784,0 1.90232,0.0096 2.76046,0.02 4.69865,0.362284 7.03354,1.891627 10.18888,3.730241 0.045,-2.351215 -3.50625,-5.108251 -4.14936,-6.715395 -1.48645,-3.714693 6.51332,-0.97817 9.85991,-0.263482 -0.50261,-0.942614 -7.84201,-5.208604 -8.34246,-5.495239 -0.44325,-0.253883 -0.8135,-0.651723 6.33078,-0.555222 0,0 -4.45367,-2.496009 -8.25113,-2.284351 -2.35261,0.131122 -4.27171,-0.109481 -4.37288,-0.547885 -0.50681,-2.196458 9.04081,-6.208402 17.00579,-7.146947 6.2884,-0.740984 9.26278,0.104881 10.448,2.972933 1.67752,4.059389 4.4808,6.735464 8.43514,8.051953 2.06956,0.689007 4.49741,2.037032 5.39605,2.995826 5.65825,4.338979 5.90736,12.828648 4.05317,13.014501 0,0 2.63806,0.704899 6.02332,4.8e-4 8.23807,-1.714213 12.70798,-8.872844 8.82645,-14.135173 -1.29912,-1.761249 -1.78675,-3.830958 -2.14077,-9.095834 -0.48998,-7.287141 -1.24574,-9.385898 -5.48283,-15.223316 -1.48529,-2.046261 -3.14101,-5.38669 -3.6801,-7.423182 -1.68133,-6.351426 -5.84829,-13.552214 -10.59264,-18.30766 -2.89236,-2.899113 -4.71801,-4.446766 -5.51121,-4.506463 0,0 4.62723,8.717762 4.756,14.698073 0,5.569548 -3.50519,6.136326 -6.53265,2.412686 -2.71039,-3.900745 -2.90338,-8.674472 -8.73276,-9.441014 0,0 1.83118,3.918935 1.30267,4.431315 -4.98524,4.83302 -10.3807,2.594444 -14.00112,-2.375293 -1.52397,-2.091935 -4.06144,-2.638788 -4.06144,-2.638788 0.73103,2.041346 -1.20512,5.646889 -5.78666,5.381275 -2.09929,0 -5.96644,-2.798866 -13.715478,-9.930639 -5.320873,-4.897026 -9.126111,-6.969762 -13.49013,-7.072166 z M 120.54341,121.75379 c -3.78206,1.54682 -7.77675,4.53091 -11.86705,9.33697 -3.24286,4.18536 -4.0562,9.50366 -2.07528,14.25573 2.42588,5.81953 6.67171,8.77698 12.5918,8.7723 6.24678,-0.005 11.29388,-4.43494 9.93641,-8.72194 -0.43535,-1.37486 -0.66698,-1.31417 -3.08628,0.81497 -3.52365,3.10104 -5.29781,3.54278 -8.19914,2.03893 -3.16083,-1.63836 -4.85462,-5.55069 -3.87956,-8.95848 1.01869,-3.56024 2.17812,-4.7109 6.82577,-6.77457 5.11315,-2.27036 5.40413,-4.28407 1.27897,-8.86081 -0.64546,-0.71612 -1.15191,-1.34443 -1.52564,-1.9031 z"
     id="path4" />
  <path
     inkscape:connector-curvature="0"
     style="opacity:0.2;stroke-width:4.00004005;filter:url(#filter912)"
     d="m 119.24897,124.39856 c -3.39678,1.66434 -6.94139,4.42352 -10.57042,8.68759 -3.24287,4.18536 -4.05905,9.50588 -2.07814,14.25795 2.42588,5.81953 6.67378,8.77822 12.59387,8.77353 6.24678,-0.005 11.29507,-4.43184 9.9376,-8.71884 -0.43535,-1.37487 -0.66666,-1.31663 -3.08597,0.81251 -3.52364,3.10104 -5.30187,3.54293 -8.2032,2.03908 -3.16083,-1.63836 -4.85011,-5.55323 -3.87504,-8.96102 1.01868,-3.56025 2.17273,-4.70984 6.82038,-6.77351 0.37144,-0.16492 0.66367,-0.32889 0.98438,-0.49219 1.62205,-1.22565 1.44964,-3.96014 -0.78125,-7.3907 -0.79398,-0.87124 -1.35634,-1.59183 -1.74221,-2.2344 z"
     id="path6" />
  <path
     inkscape:connector-curvature="0"
     style="opacity:0.2;stroke-width:4.00004005;filter:url(#filter908)"
     d="m 79.885365,46.002273 c -2.601674,0.008 -5.718313,0.04212 -9.427138,0.102081 -22.013059,0.355964 -21.415465,0.410352 -18.104824,5.011858 1.82073,2.530657 1.844542,2.821672 1.844542,22.848216 0,20.005584 -0.0256,19.132947 -1.895263,22.368987 -3.22998,5.589645 -3.701937,5.689965 17.752817,5.689965 h 14.238582 c 3.045275,0.33736 4.108865,0.0865 6.12669,-1.91392 1.062446,-1.053274 1.932151,-2.415703 1.932151,-3.026325 0,-0.610626 0.492209,-1.514187 1.092895,-2.0084 1.558707,-1.282433 2.748739,34.277085 1.308085,38.964925 -0.527494,1.71644 -1.017806,3.99852 -1.089815,5.07129 -0.120241,1.79114 0.190842,2.44863 3.804362,2.80686 7.851781,-0.1094 16.499151,0.23428 24.845331,0 3.28695,-0.0923 6.52719,-0.22412 9.65372,-0.82284 3.6136,-0.78838 6.03165,-3.9909 6.03165,-7.98788 0,-4.26053 -1.56071,-7.35471 -5.03406,-9.98104 -2.7975,-2.11532 -5.44721,-3.12514 -8.15901,-3.08118 -0.90394,0.0148 -1.81539,0.14616 -2.74069,0.39317 -4.18086,1.11606 -4.42392,2.5218 -1.0729,6.19891 3.34451,5.14302 2.11634,8.75618 -2.9563,7.99719 -2.00541,-0.4064 -3.97163,-1.11817 -5.84247,-2.49731 -1.74019,-1.0853 -2.04123,-1.94457 -2.04737,-3.93264 l -0.0522,-16.88473 c -0.0573,-18.327614 0.0292,-21.954442 1.5694,-24.439083 2.72903,-4.40238 2.4139,-5.231596 -8.53854,-4.781764 h -9.739178 l -3.403178,4.001564 c -4.955461,5.826054 -8.347011,9.681625 -13.461266,9.681625 -5.84823,0 -6.580402,-2.458517 -6.580402,-12.520509 0,-6.592434 0.284283,-6.013408 1.770762,-8.935709 1.463782,-2.877665 2.201346,-3.522175 4.253202,-3.719649 2.841201,-0.273443 5.088959,2.048448 4.423824,4.569945 -0.554945,2.103753 1.51154,2.664167 4.386932,1.190108 3.35373,-1.719285 4.84038,-5.37191 4.84038,-9.181824 0,-4.28445 -3.981603,-8.85494 -7.714788,-8.85494 -3.31877,0 -6.445557,1.282129 -8.985986,3.684605 -1.891119,1.788418 -2.200866,1.870111 -2.654603,0.697911 -0.942029,-2.433648 0.170162,-9.512243 1.783054,-11.111155 3.452375,-3.422522 9.731729,-1.234036 15.182844,2.890909 3.884298,2.939317 5.498546,3.336933 6.199193,1.526871 0.658667,-1.701609 -0.717819,-8.19347 -1.970583,-9.295329 -0.597418,-0.525445 -3.764854,-0.744663 -11.569884,-0.720763 z"
     id="path10" />
  <path
     inkscape:connector-curvature="0"
     style="fill:#ffb144;stroke-width:4.00004005"
     d="m 79.885365,44.002027 c -2.601674,0.008 -5.718313,0.04212 -9.427138,0.102081 -22.013059,0.355964 -21.415465,0.410352 -18.104824,5.011858 1.82073,2.530658 1.844542,2.821672 1.844542,22.848216 0,20.005584 -0.0256,19.132947 -1.895263,22.368987 -3.22998,5.589644 -3.701937,5.689961 17.752817,5.689961 h 14.238582 c 3.045275,0.33736 4.108865,0.0865 6.12669,-1.913923 1.062446,-1.053271 1.932151,-2.415696 1.932151,-3.026318 0,-0.610626 0.492209,-1.514187 1.092895,-2.0084 1.558707,-1.282433 2.748739,34.277081 1.308085,38.964921 -0.527494,1.71644 -1.017806,3.99852 -1.089815,5.07129 -0.120241,1.79114 0.190842,2.44863 3.804362,2.80686 7.851781,-0.1094 16.499151,0.23428 24.845331,0 3.28695,-0.0923 6.52719,-0.22412 9.65372,-0.82284 3.6136,-0.78838 6.03165,-3.9909 6.03165,-7.98788 0,-4.26053 -1.56071,-7.35471 -5.03406,-9.98104 -2.7975,-2.11532 -5.44721,-3.12514 -8.15901,-3.08118 -0.90394,0.0148 -1.81539,0.14616 -2.74069,0.39317 -4.18086,1.11606 -4.42392,2.5218 -1.0729,6.19891 3.34451,5.14302 2.11634,8.75618 -2.9563,7.99719 -2.00541,-0.4064 -3.97163,-1.11817 -5.84247,-2.49731 -1.74019,-1.0853 -2.04123,-1.94457 -2.04737,-3.93264 l -0.0522,-16.88473 c -0.0573,-18.32761 0.0292,-21.954438 1.5694,-24.439079 2.72903,-4.40238 2.4139,-5.231596 -8.53854,-4.781764 h -9.739178 l -3.403178,4.001564 c -4.955461,5.826054 -8.347011,9.681625 -13.461266,9.681625 -5.84823,0 -6.580402,-2.458517 -6.580402,-12.520509 0,-6.592434 0.284283,-6.013408 1.770762,-8.935709 1.463782,-2.877665 2.201346,-3.522175 4.253202,-3.719649 2.841201,-0.273443 5.088959,2.048448 4.423824,4.569945 -0.554945,2.103753 1.51154,2.664167 4.386932,1.190108 3.35373,-1.719285 4.84038,-5.371909 4.84038,-9.181823 0,-4.284451 -3.981603,-8.854941 -7.714788,-8.854941 -3.31877,0 -6.445557,1.282129 -8.985986,3.684605 -1.891119,1.788418 -2.200866,1.870111 -2.654603,0.697911 -0.942029,-2.433648 0.170162,-9.512243 1.783054,-11.111155 3.452375,-3.422522 9.731729,-1.234036 15.182844,2.890909 3.884298,2.939317 5.498546,3.336933 6.199193,1.526871 0.658667,-1.701609 -0.717819,-8.19347 -1.970583,-9.295329 -0.597418,-0.525445 -3.764854,-0.744663 -11.569884,-0.720763 z"
     id="path12" />
  <path
     inkscape:connector-curvature="0"
     style="fill:#5c3d2b;stroke-width:4.00004005"
     d="m 119.24897,122.3995 c -3.39678,1.66434 -6.94139,4.42352 -10.57042,8.68759 -3.24287,4.18536 -4.05905,9.50588 -2.07814,14.25796 2.42588,5.81952 6.67378,8.77821 12.59387,8.77352 6.24678,-0.005 11.29507,-4.43184 9.9376,-8.71884 -0.43535,-1.37487 -0.66666,-1.31663 -3.08597,0.81251 -3.52364,3.10104 -5.30187,3.54293 -8.2032,2.03908 -3.16083,-1.63835 -4.85011,-5.55323 -3.87504,-8.96102 1.01868,-3.56025 2.17273,-4.70984 6.82038,-6.77351 0.37144,-0.16492 0.66367,-0.32888 0.98438,-0.49219 1.62205,-1.22565 1.44964,-3.96014 -0.78125,-7.3907 -0.79398,-0.87124 -1.35634,-1.59182 -1.74221,-2.2344 z"
     id="path14" />
  <path
     style="opacity:0.2;fill:#ffffff;stroke-width:4.00004005"
     d="M 79.888672 44 C 77.286999 44.008 74.167809 44.041601 70.458984 44.101562 C 53.378354 44.377765 49.939583 44.495638 50.792969 46.679688 C 51.617042 45.443469 56.45909 45.327948 70.458984 45.101562 C 74.167809 45.041602 77.286999 45.008 79.888672 45 C 87.693702 44.976101 90.853754 45.193301 91.451172 45.71875 C 92.422847 46.573379 93.461366 50.650259 93.576172 53.240234 C 93.765142 50.873939 92.558434 45.692634 91.451172 44.71875 C 90.853754 44.193301 87.693702 43.976101 79.888672 44 z M 81.904297 56.328125 C 78.585527 56.328125 75.452538 57.613149 72.912109 60.015625 C 71.02099 61.804043 70.717409 61.883138 70.263672 60.710938 C 70.188952 60.517936 70.141437 60.254227 70.091797 60.007812 C 69.983205 61.017724 69.937066 62.000731 69.970703 62.861328 C 69.987519 62.264835 70.023152 61.646217 70.091797 61.007812 C 70.141437 61.254227 70.188952 61.517936 70.263672 61.710938 C 70.717409 62.883138 71.02099 62.804043 72.912109 61.015625 C 75.452538 58.613149 78.585527 57.328125 81.904297 57.328125 C 85.489094 57.328125 89.288689 61.539591 89.585938 65.667969 C 89.594709 65.504942 89.615234 65.344103 89.615234 65.179688 C 89.615234 60.895237 85.637482 56.328125 81.904297 56.328125 z M 54.193359 73.945312 C 54.188159 91.40547 54.091616 91.239687 52.302734 94.335938 C 51.179087 96.28047 50.405173 97.554444 50.761719 98.394531 C 50.970379 97.623586 51.553529 96.632477 52.302734 95.335938 C 54.091616 92.239687 54.188159 92.40547 54.193359 74.945312 C 54.193674 75.570635 54.197203 75.98796 54.199219 76.533203 C 54.199231 76.290373 54.201172 76.210199 54.201172 75.960938 C 54.201172 75.095176 54.193759 74.739081 54.193359 73.945312 z M 106.74609 79.998047 C 105.69524 80.010027 104.4921 80.045322 103.12305 80.101562 L 93.388672 80.101562 L 89.982422 84.101562 C 85.026961 89.927616 81.635739 93.781254 76.521484 93.78125 C 70.989997 93.78125 70.077411 91.353871 69.990234 82.601562 C 69.967434 83.376619 69.943359 84.095225 69.943359 85.257812 C 69.943359 85.472098 69.950467 85.634356 69.951172 85.841797 C 69.957009 84.968228 69.971005 84.255229 69.990234 83.601562 C 70.077411 92.353871 70.989997 94.78125 76.521484 94.78125 C 81.635739 94.781254 85.026961 90.927616 89.982422 85.101562 L 93.388672 81.101562 L 103.12305 81.101562 C 105.86116 80.989082 107.93189 80.955782 109.45898 81.039062 C 111.64544 81.158283 112.70621 81.523202 112.99414 82.230469 C 113.35982 80.850673 112.50326 80.205057 109.45898 80.039062 C 108.69544 79.997422 107.79694 79.986067 106.74609 79.998047 z M 124.80273 118.04883 C 123.8988 118.06363 122.98585 118.19245 122.06055 118.43945 C 119.49541 119.12421 118.50629 119.96673 118.875 121.35352 C 119.14856 120.5292 120.17848 119.93991 122.06055 119.4375 C 122.98585 119.1905 123.8988 119.06167 124.80273 119.04688 C 127.51453 119.0029 130.17125 120.00969 132.96875 122.125 C 136.28216 124.63041 137.83507 127.57741 137.97266 131.54102 C 137.98088 131.39739 138 131.2584 138 131.11133 C 138 126.85079 136.44209 123.75329 132.96875 121.12695 C 130.17125 119.01164 127.51453 118.00486 124.80273 118.04883 z M 95.341797 124.69727 C 95.260117 128.17615 95.084522 130.97156 94.755859 132.04102 C 94.228365 133.75745 93.734118 136.03855 93.662109 137.11133 C 93.640994 137.42596 93.650947 137.69106 93.683594 137.93359 C 93.787127 136.8098 94.251488 134.68025 94.755859 133.03906 C 95.072347 132.00922 95.244645 129.36042 95.330078 126.06055 C 95.333159 125.59866 95.34078 125.17236 95.341797 124.69727 z "
     id="path16" />
  <path
     style="fill:#ffffff;stroke-width:4.00004005;opacity:0.1"
     d="M 80.914062 16.003906 C 79.906985 15.980266 78.87138 16.062498 77.779297 16.238281 C 70.46276 17.415921 65.606809 22.073063 61.267578 32.078125 C 53.08822 50.638512 45.2416 69.366972 39.679688 82.492188 C 33.549343 94.599092 27.204432 107.66924 25.582031 111.53711 C 23.0704 117.52493 21.836587 123.35551 22.015625 125.71094 C 22.154673 122.94573 23.371464 117.80523 25.582031 112.53516 C 27.204432 108.66729 33.549343 95.597139 39.679688 83.490234 C 45.2416 70.365019 53.08822 51.636559 61.267578 33.076172 C 65.606809 23.07111 70.46276 18.413968 77.779297 17.236328 C 78.87138 17.060545 79.906985 16.978313 80.914062 17.001953 C 85.278082 17.104357 89.083424 19.177193 94.404297 24.074219 C 102.15333 31.205992 106.01985 34.005859 108.11914 34.005859 C 112.40518 34.254342 114.37578 31.114401 114.01367 29.037109 C 113.72355 30.98704 111.75832 33.218793 108.11914 33.007812 C 106.01985 33.007812 102.15333 30.207945 94.404297 23.076172 C 89.083424 18.179146 85.278082 16.10631 80.914062 16.003906 z M 141.17578 20.539062 C 141.17578 20.539062 141.4607 21.098693 141.78711 21.767578 C 142.75313 22.287044 144.37349 23.723558 146.6875 26.042969 C 151.43185 30.798415 155.59797 38.000136 157.2793 44.351562 C 157.81839 46.388054 159.47369 49.72913 160.95898 51.775391 C 165.19607 57.612809 165.95143 59.710906 166.44141 66.998047 C 166.79543 72.262923 167.28291 74.332501 168.58203 76.09375 C 169.44014 77.257116 169.86964 78.513792 169.96094 79.783203 C 170.07856 78.179296 169.66492 76.563819 168.58203 75.095703 C 167.28291 73.334454 166.79543 71.264876 166.44141 66 C 165.95143 58.712859 165.19607 56.612809 160.95898 50.775391 C 159.47369 48.72913 157.81839 45.390008 157.2793 43.353516 C 155.59797 37.00209 151.43185 29.800368 146.6875 25.044922 C 143.79514 22.145809 141.96898 20.59876 141.17578 20.539062 z M 113.90625 27.625 C 114.01898 27.939777 114.06091 28.294828 114.04688 28.664062 C 114.41327 28.754344 116.57037 29.346817 117.9668 31.263672 C 121.58722 36.233409 126.98351 38.471692 131.96875 33.638672 C 132.10877 33.502928 132.07814 33.122254 131.96484 32.644531 C 126.98075 37.472321 121.58622 35.233992 117.9668 30.265625 C 116.44283 28.17369 113.90625 27.625 113.90625 27.625 z M 130.66602 28.208984 C 130.66602 28.208984 130.8817 28.695017 131.13281 29.292969 C 136.49286 30.254699 136.76487 34.858258 139.39844 38.648438 C 142.4259 42.372077 145.93164 41.805876 145.93164 36.236328 C 145.9289 36.108991 145.91298 35.973459 145.90625 35.84375 C 145.65248 40.829644 142.30937 41.230706 139.39844 37.650391 C 136.68805 33.749646 136.4954 28.975526 130.66602 28.208984 z M 108.60352 69.539062 C 108.42475 69.823451 108.33782 70.094068 108.39453 70.339844 C 108.4957 70.778248 110.41497 71.019794 112.76758 70.888672 C 114.91015 70.769252 117.23632 71.50984 118.87891 72.179688 C 119.57579 72.176719 120.07931 72.161128 121.01953 72.173828 C 121.01953 72.173828 116.56504 69.678967 112.76758 69.890625 C 110.80288 70.000127 109.15722 69.846757 108.60352 69.539062 z M 115.58789 73.255859 C 114.22139 73.374275 114.42313 73.577089 114.6875 73.728516 C 115.04679 73.934299 118.88767 76.173695 121.23633 77.779297 C 121.85831 77.937953 122.55629 78.123179 123.03125 78.224609 C 122.60689 77.42875 117.5285 74.394587 115.58789 73.255859 z M 113.09766 78.224609 C 112.94179 78.520064 112.9471 78.929493 113.16992 79.486328 C 113.71219 80.841462 116.31557 83.014676 117.09375 85.072266 C 117.17179 85.117906 117.2413 85.157083 117.32031 85.203125 C 117.36531 82.85191 113.81303 80.095425 113.16992 78.488281 C 113.13059 78.389995 113.12397 78.31402 113.09766 78.224609 z M 154.74805 87.058594 C 154.67224 88.325908 154.30311 89.173267 153.73242 89.230469 C 153.73242 89.230469 154.05937 89.298062 154.51562 89.371094 C 154.71228 88.809457 154.79647 88.00646 154.74805 87.058594 z M 47.724609 108.29297 C 47.229105 110.21403 46.330419 113.64196 46.332031 114.2793 C 46.39199 114.22802 46.465124 114.18498 46.527344 114.13477 C 46.836341 112.70162 47.446436 110.37255 47.794922 109.01758 C 47.87869 108.69188 47.853818 108.45245 47.724609 108.29297 z M 54.375 116.20703 C 54.285734 117.69551 53.823045 119.85765 52.861328 123.59961 C 51.586692 128.5591 51.02155 133.66496 51.068359 136.41602 C 51.155017 133.52047 51.732662 128.9892 52.861328 124.59766 C 54.060461 119.93193 54.494282 117.6992 54.375 116.20703 z M 120.54297 121.75391 C 116.76091 123.30073 112.76608 126.28378 108.67578 131.08984 C 106.49849 133.89995 105.42139 137.2218 105.54492 140.53906 C 105.65061 137.55892 106.71712 134.61777 108.67578 132.08984 C 112.76608 127.28378 116.76091 124.29877 120.54297 122.75195 C 120.9167 123.31062 121.4229 123.94013 122.06836 124.65625 C 123.71509 126.48325 124.64594 127.89643 124.85938 129.08594 C 125.14223 127.70064 124.20004 126.02129 122.06836 123.65625 C 121.4229 122.94013 120.9167 122.31258 120.54297 121.75391 z M 80.111328 124.49609 C 79.861857 125.66005 80.784837 129.03658 81.623047 133.5293 C 84.342182 148.10361 95.859136 158.83552 109.38086 162.48047 C 114.95082 163.98195 118.02057 163.97445 123.47852 162.43945 C 127.55598 161.20595 132.70664 157.67201 135.43555 153.03125 C 137.07298 149.29633 137.52491 146.63924 137.44531 144.21094 C 137.37836 146.37907 136.85215 148.80198 135.43555 152.0332 C 132.70664 156.67396 127.55598 160.20595 123.47852 161.43945 C 118.02057 162.97445 114.95082 162.9839 109.38086 161.48242 C 95.859136 157.83747 84.342182 147.10556 81.623047 132.53125 C 80.952201 128.93559 80.248643 126.10387 80.111328 124.49609 z M 136.25 124.82812 C 136.42961 125.21852 136.58576 125.62046 136.71875 126.03516 C 136.74573 126.11928 136.76192 126.2098 136.78711 126.29492 C 140.28762 129.3047 144.12552 132.64768 145.24805 137.37305 C 146.21017 139.83141 146.69195 143.56061 146.68164 147.16797 C 146.79614 143.26594 146.29904 139.06043 145.24805 136.375 C 144.06847 131.40945 139.88355 127.95676 136.25 124.82812 z M 137.28906 130.55273 C 137.22184 132.12533 136.7968 133.56893 136.05859 134.76758 C 136.10129 135.02769 136.15035 135.25417 136.19531 135.50391 C 136.90581 134.24858 137.31641 132.76222 137.31641 131.13477 C 137.31641 130.93401 137.29633 130.74823 137.28906 130.55273 z M 113.71094 141.79492 C 113.51696 144.78406 115.14093 147.84904 117.84375 149.25 C 120.74508 150.75385 122.51932 150.31198 126.04297 147.21094 C 128.46227 145.0818 128.69356 145.01967 129.12891 146.39453 C 129.22223 146.68927 129.27998 146.9847 129.31445 147.2793 C 129.37498 146.65781 129.32833 146.02629 129.12891 145.39648 C 128.69356 144.02162 128.46227 144.0818 126.04297 146.21094 C 122.51932 149.31198 120.74508 149.75385 117.84375 148.25 C 115.44187 147.00503 113.89126 144.44685 113.71094 141.79492 z M 145.33008 156.70508 C 145.21128 157.9644 145.47307 159.1127 146.89648 159.19531 C 147.26442 158.84235 147.62729 158.47815 147.98633 158.0957 C 146.14275 158.49581 145.4741 157.76376 145.33008 156.70508 z M 68.210938 159.9043 C 68.192436 160.28122 68.198346 160.68709 68.234375 161.12891 C 68.27071 161.15078 68.31558 161.19187 68.347656 161.20312 C 68.278585 160.7419 68.237121 160.31396 68.210938 159.9043 z M 92.564453 171.28711 C 92.557091 171.30339 92.548232 171.3175 92.541016 171.33398 C 92.340407 171.79231 92.608524 172.55682 92.943359 173.23633 C 93.347692 173.47218 93.669181 173.64062 93.769531 173.64062 C 93.769531 173.64062 92.858559 172.34786 92.564453 171.28711 z M 120.47461 173.64258 C 120.20897 174.31041 120.50798 175.05508 121.51953 175.90039 C 122.20597 176.00849 122.72263 176.03477 123.03711 175.94922 C 121.52964 175.08978 120.73635 174.32879 120.47461 173.64258 z "
     id="path916" />
</svg>
