<?xml version="1.0" encoding="UTF-8" standalone="no"?>
<svg
   xmlns:dc="http://purl.org/dc/elements/1.1/"
   xmlns:cc="http://creativecommons.org/ns#"
   xmlns:rdf="http://www.w3.org/1999/02/22-rdf-syntax-ns#"
   xmlns:svg="http://www.w3.org/2000/svg"
   xmlns="http://www.w3.org/2000/svg"
   xmlns:sodipodi="http://sodipodi.sourceforge.net/DTD/sodipodi-0.dtd"
   xmlns:inkscape="http://www.inkscape.org/namespaces/inkscape"
   width="192"
   height="192"
   version="1.1"
   id="svg20"
   sodipodi:docname="games_manaplus.svg"
   inkscape:version="0.92.3 (2405546, 2018-03-11)">
  <metadata
     id="metadata26">
    <rdf:RDF>
      <cc:Work
         rdf:about="">
        <dc:format>image/svg+xml</dc:format>
        <dc:type
           rdf:resource="http://purl.org/dc/dcmitype/StillImage" />
        <dc:title></dc:title>
      </cc:Work>
    </rdf:RDF>
  </metadata>
  <defs
     id="defs24">
    <filter
       inkscape:collect="always"
       style="color-interpolation-filters:sRGB"
       id="filter871"
       x="-0.048"
       width="1.096"
       y="-0.048"
       height="1.096">
      <feGaussianBlur
         inkscape:collect="always"
         stdDeviation="3.2"
         id="feGaussianBlur873" />
    </filter>
    <filter
       inkscape:collect="always"
       style="color-interpolation-filters:sRGB"
       id="filter909"
       x="-0.043714297"
       width="1.0874286"
       y="-0.053217375"
       height="1.1064348">
      <feGaussianBlur
         inkscape:collect="always"
         stdDeviation="2.0400151"
         id="feGaussianBlur911" />
    </filter>
  </defs>
  <sodipodi:namedview
     pagecolor="#ffffff"
     bordercolor="#666666"
     borderopacity="1"
     objecttolerance="10"
     gridtolerance="10"
     guidetolerance="10"
     inkscape:pageopacity="0"
     inkscape:pageshadow="2"
     inkscape:window-width="1920"
     inkscape:window-height="1018"
     id="namedview22"
     showgrid="false"
     inkscape:zoom="1"
     inkscape:cx="24"
     inkscape:cy="93.164265"
     inkscape:window-x="0"
     inkscape:window-y="32"
     inkscape:window-maximized="1"
     inkscape:current-layer="svg20" />
  <path
     id="path853"
     d="M 96,20 A 80,80 0 0 0 16,100 80,80 0 0 0 96,180 80,80 0 0 0 176,100 80,80 0 0 0 96,20 Z"
     style="opacity:0.2;fill:#000000;stroke-width:4;filter:url(#filter871)"
     inkscape:connector-curvature="0" />
  <path
     inkscape:connector-curvature="0"
     style="fill:#d66829;stroke-width:4"
     d="M 96,16 A 80,80 0 0 0 16,96 80,80 0 0 0 96,176 80,80 0 0 0 176,96 80,80 0 0 0 96,16 Z"
     id="path2" />
  <path
     style="opacity:0.2;fill:#ffffff;stroke-width:4"
     d="M 95.998047 16 A 80 80 0 0 0 16 96 A 80 80 0 0 0 16.021484 96.408203 A 80 80 0 0 1 95.998047 17 L 96 17 A 80 80 0 0 1 175.97656 96.582031 A 80 80 0 0 0 175.99805 96 A 80 80 0 0 0 96 16 L 95.998047 16 z "
     id="path6" />
  <path
     style="color:#000000;font-style:normal;font-variant:normal;font-weight:normal;font-stretch:normal;font-size:medium;line-height:normal;font-family:sans-serif;font-variant-ligatures:normal;font-variant-position:normal;font-variant-caps:normal;font-variant-numeric:normal;font-variant-alternates:normal;font-feature-settings:normal;text-indent:0;text-align:start;text-decoration:none;text-decoration-line:none;text-decoration-style:solid;text-decoration-color:#000000;letter-spacing:normal;word-spacing:normal;text-transform:none;writing-mode:lr-tb;direction:ltr;text-orientation:mixed;dominant-baseline:auto;baseline-shift:baseline;text-anchor:start;white-space:normal;shape-padding:0;clip-rule:nonzero;display:inline;overflow:visible;visibility:visible;opacity:0.2;isolation:auto;mix-blend-mode:normal;color-interpolation:sRGB;color-interpolation-filters:linearRGB;solid-color:#000000;solid-opacity:1;vector-effect:none;fill:#000000;fill-opacity:1;fill-rule:nonzero;stroke:none;stroke-width:16;stroke-linecap:round;stroke-linejoin:round;stroke-miterlimit:4;stroke-dasharray:none;stroke-dashoffset:0;stroke-opacity:1;color-rendering:auto;image-rendering:auto;shape-rendering:auto;text-rendering:auto;enable-background:accumulate;filter:url(#filter909)"
     d="m 136,49.999291 c -2.216,0 -4,1.784 -4,4 v 12 h -12 c -2.216,0 -4,1.784 -4,4 0,2.216 1.784,4 4,4 h 12 v 12 c 0,2.216 1.784,4 4,4 2.216,0 4,-1.784 4,-4 v -12 h 12 c 2.216,0 4,-1.784 4,-4 0,-2.216 -1.784,-4 -4,-4 h -12 v -12 c 0,-2.216 -1.784,-4 -4,-4 z M 68,77.88601 c -9.333333,0 -15.770632,2.456179 -19.65625,6.341797 -1.942809,1.942809 -3.096284,4.115024 -3.683594,5.876953 C 44.072847,91.866689 44,93.88601 44,93.88601 v 40 a 8.0008,8.0008 0 1 0 16,0 V 95.368432 c 0.396826,-0.33349 2.000901,-1.482422 8,-1.482422 5.999099,0 7.603174,1.148932 8,1.482422 v 38.517578 a 8.0008,8.0008 0 0 0 0.0293,0.79883 8.0008,8.0008 0 0 0 0.294922,1.57031 8.0008,8.0008 0 0 0 0.601562,1.47852 8.0008,8.0008 0 0 0 0.882813,1.33203 8.0008,8.0008 0 0 0 1.773437,1.60351 8.0008,8.0008 0 0 0 0.002,0 8.0008,8.0008 0 0 0 2.167969,1.00781 8.0008,8.0008 0 0 0 0.777344,0.18555 8.0008,8.0008 0 0 0 0.792969,0.10742 8.0008,8.0008 0 0 0 0.798828,0.0293 8.0008,8.0008 0 0 0 3.105468,-0.67969 8.0008,8.0008 0 0 0 0.714844,-0.35742 8.0008,8.0008 0 0 0 0.675782,-0.42969 8.0008,8.0008 0 0 0 0.628906,-0.49218 8.0008,8.0008 0 0 0 0.576172,-0.55469 8.0008,8.0008 0 0 0 0.519531,-0.60938 8.0008,8.0008 0 0 0 0.455078,-0.65625 8.0008,8.0008 0 0 0 0.703125,-1.43554 8.0008,8.0008 0 0 0 0.404297,-1.54493 8.0008,8.0008 0 0 0 0.09766,-1.35351 V 95.368432 c 0.396826,-0.33349 2.000904,-1.482422 7.999997,-1.482422 6.00212,0 7.60446,1.149686 8,1.482422 v 38.517578 a 8.0008,8.0008 0 1 0 16,0 v -40 c 0,0 -0.0748,-2.019321 -0.66211,-3.78125 -0.58731,-1.761929 -1.73883,-3.934144 -3.68164,-5.876953 -3.88561,-3.885618 -10.32291,-6.341797 -19.65625,-6.341797 -6.862932,0 -12.133634,1.347471 -16.00195,3.595703 -3.868197,-2.24775 -9.137871,-3.595703 -16,-3.595703 z"
     id="path8"
     inkscape:connector-curvature="0" />
  <path
     inkscape:connector-curvature="0"
     style="fill:none;stroke:#f8bf94;stroke-width:16;stroke-linecap:round;stroke-linejoin:round"
     d="m 84.001,131.88606 v -40 c 0,0 0,-8 16,-8 16,0 16,8 16,8 v 40 m -64.0008,0 v -40 c 0,0 0,-8 16,-8 16,0 16,8 16,8 v 40"
     id="path10" />
  <rect
     style="fill:#ffffff;stroke-width:4"
     width="8"
     height="40"
     x="132"
     y="48"
     rx="4"
     ry="4"
     id="rect14" />
  <rect
     style="fill:#ffffff;stroke-width:4"
     width="8"
     height="40"
     x="64"
     y="-156"
     rx="4"
     ry="4"
     transform="rotate(90)"
     id="rect16" />
  <path
     style="opacity:0.2;fill:#ffffff;stroke-width:4"
     d="M 68 75.882812 C 58.666668 75.882812 52.229366 78.340943 48.34375 82.226562 C 46.400934 84.16937 45.251371 86.347447 44.664062 88.109375 C 44.076751 89.871303 44 91.882813 44 91.882812 L 44 92.882812 C 44 92.882812 44.076751 90.871303 44.664062 89.109375 C 45.251371 87.347447 46.400934 85.16937 48.34375 83.226562 C 52.229366 79.340943 58.666668 76.882812 68 76.882812 C 75.140908 76.882812 80.095228 78.638592 84 81.054688 C 87.90496 78.6376 92.857464 76.882812 100 76.882812 C 109.33333 76.882812 115.77064 79.340943 119.65625 83.226562 C 121.59906 85.16937 122.75644 87.347447 123.34375 89.109375 C 123.9311 90.871303 124 92.882812 124 92.882812 L 124 91.882812 C 124 91.882812 123.9311 89.871303 123.34375 88.109375 C 122.75644 86.347447 121.59906 84.169371 119.65625 82.226562 C 115.77064 78.340942 109.33333 75.882812 100 75.882812 C 92.857464 75.882812 87.90496 77.6376 84 80.054688 C 80.095228 77.638592 75.140908 75.882812 68 75.882812 z "
     id="path18" />
</svg>
