<?xml version="1.0" encoding="UTF-8" standalone="no"?>
<svg
   xmlns:dc="http://purl.org/dc/elements/1.1/"
   xmlns:cc="http://creativecommons.org/ns#"
   xmlns:rdf="http://www.w3.org/1999/02/22-rdf-syntax-ns#"
   xmlns:svg="http://www.w3.org/2000/svg"
   xmlns="http://www.w3.org/2000/svg"
   xmlns:sodipodi="http://sodipodi.sourceforge.net/DTD/sodipodi-0.dtd"
   xmlns:inkscape="http://www.inkscape.org/namespaces/inkscape"
   width="192"
   height="192"
   version="1"
   id="svg14"
   sodipodi:docname="games_door_kickers.svg"
   inkscape:version="0.92.3 (2405546, 2018-03-11)">
  <metadata
     id="metadata20">
    <rdf:RDF>
      <cc:Work
         rdf:about="">
        <dc:format>image/svg+xml</dc:format>
        <dc:type
           rdf:resource="http://purl.org/dc/dcmitype/StillImage" />
        <dc:title></dc:title>
      </cc:Work>
    </rdf:RDF>
  </metadata>
  <defs
     id="defs18">
    <filter
       inkscape:collect="always"
       style="color-interpolation-filters:sRGB"
       id="filter857"
       x="-0.048"
       width="1.096"
       y="-0.048"
       height="1.096">
      <feGaussianBlur
         inkscape:collect="always"
         stdDeviation="3.2"
         id="feGaussianBlur859" />
    </filter>
    <filter
       inkscape:collect="always"
       style="color-interpolation-filters:sRGB"
       id="filter888"
       x="-0.043714314"
       width="1.0874286"
       y="-0.053217349"
       height="1.1064347">
      <feGaussianBlur
         inkscape:collect="always"
         stdDeviation="2.0399976"
         id="feGaussianBlur890" />
    </filter>
  </defs>
  <sodipodi:namedview
     pagecolor="#ffffff"
     bordercolor="#666666"
     borderopacity="1"
     objecttolerance="10"
     gridtolerance="10"
     guidetolerance="10"
     inkscape:pageopacity="0"
     inkscape:pageshadow="2"
     inkscape:window-width="1920"
     inkscape:window-height="1018"
     id="namedview16"
     showgrid="false"
     inkscape:zoom="3.47"
     inkscape:cx="24"
     inkscape:cy="81.636888"
     inkscape:window-x="0"
     inkscape:window-y="32"
     inkscape:window-maximized="1"
     inkscape:current-layer="svg14" />
  <rect
     style="opacity:0.2;stroke-width:4;filter:url(#filter857)"
     width="160"
     height="160"
     x="16"
     y="20"
     rx="8"
     ry="8"
     id="rect2" />
  <rect
     style="fill:#4f4f4f;stroke-width:4"
     width="160"
     height="160"
     x="16"
     y="16"
     rx="8"
     ry="8"
     id="rect4" />
  <path
     style="opacity:0.1;fill:#ffffff;stroke-width:4"
     d="M 24 16 C 19.568 16 16 19.568 16 24 L 16 25 C 16 20.568 19.568 17 24 17 L 168 17 C 172.432 17 176 20.568 176 25 L 176 24 C 176 19.568 172.432 16 168 16 L 24 16 z "
     id="path6" />
  <path
     inkscape:connector-curvature="0"
     style="opacity:0.2;stroke-width:4;filter:url(#filter888)"
     d="m 94.023776,54.000242 c -0.64224,0.0108 -1.26372,0.21896 -2.34908,0.632212 -1.2778,0.48648 -2.81704,1.529992 -3.42048,2.318844 -0.60344,0.788852 -1.68228,2.153808 -2.39744,3.033772 -2.0842,2.564524 -2.55184,3.708508 -1.96384,4.803832 0.79032,1.472176 0.63664,5.200312 -0.264,5.544868 -0.42956,0.16432 -1.33984,0.04488 -2.023,-0.26536 -0.92576,-0.420508 -1.81616,-0.420304 -3.4962,0.0015 -1.78696,0.448568 -2.51376,0.427492 -3.5078,-0.10284 -1.11436,-0.59456 -1.51388,-0.533668 -3.58928,0.550944 -1.2844,0.671228 -3.485,0.81064 -4.89008,2.266976 -2.33388,2.419 -2.7228,1.4355 -4.49548,1.294432 l -1.94,-0.15392 -2.10236,4.232036 c -1.35024,2.718064 -2.5786,6.103452 -3.43348,6.58692 -0.73208,0.41404 -1.89284,1.82218 -2.57924,3.128712 -1.2172,2.316928 -1.22816,2.427572 -0.4336,4.501748 0.55428,1.446812 0.71588,2.844612 0.50576,4.373008 -0.2624,1.907096 -0.1296,2.454306 0.87804,3.622104 0.6528,0.75662 1.96988,1.53881 2.92696,1.7377 1.54188,0.3204 1.7304,0.52893 1.65,1.82832 -0.1716,2.77556 -1.10492,10.92928 -1.42776,12.47745 -0.44316,2.12479 1.6858,6.50387 4.54884,9.35809 3.72444,3.71298 2.74592,5.01774 -2.49628,3.32938 -1.7822,-0.574 -3.8462,-1.04363 -4.58636,-1.04363 -0.74016,0 -2.56092,-0.57305 -4.04672,-1.27378 -5.23216,-2.46759 -7.5602,-0.7639 -7.61,5.56983 -0.012,1.67815 -0.3612,3.85592 -0.77344,4.83907 -1.018798,2.43091 -0.941198,4.47168 0.2596,6.81844 1.00564,1.96518 1.01968,1.97217 3.9962,1.97217 C 48,146 48,146 47.949376,144.01446 c 0,-2.53698 0.89268,-4.45895 2.225,-4.79232 12.15564,4.21785 17.96104,6.76712 26.25776,6.64798 4.99964,-0.0738 10.37752,-1.99614 7.22108,-9.47434 -0.60524,-1.42481 -1.40916,-3.228 -2.4796,-5.59958 -0.72352,-1.60301 -1.33552,-4.55926 -1.4422,-6.96229 -0.0636,-1.43069 0.0612,-1.51847 3.42984,-2.41378 1.92292,-0.51107 5.46212,-1.84904 7.86472,-2.97336 5.5314,-2.58849 5.65916,-2.49505 5.51272,4.03352 -0.2244,10.01013 -0.55764,14.90875 -1.27628,18.77228 -0.60412,4.16907 2.09008,4.64341 2.09008,4.64341 5.948284,0.24728 18.395044,0.038 18.704764,-0.46173 0.6826,-1.10106 -1.50012,-4.80875 -4.74652,-5.25135 C 106.5152,139.77962 108,138 108.70254,131.50896 c 0.54264,-2.46735 0.67056,-5.89146 0.52232,-13.94182 -0.108,-5.86914 -0.3696,-11.41843 -0.58148,-12.33145 -0.3484,-1.50056 -0.1904,-1.85923 1.64276,-3.73431 1.11544,-1.1409 2.66084,-3.306258 3.4342,-4.812466 1.14648,-2.232884 1.84468,-2.947524 3.77904,-3.868812 2.22816,-1.06122 2.37216,-1.247172 2.37216,-3.062544 0,-1.675952 0.2292,-2.067764 1.7236,-2.94674 1.6414,-0.96548 1.73052,-1.16356 1.87292,-4.157236 0.1472,-3.092808 1.77442,-3.1457 3.25482,-3.29054 0.51872,-0.05076 1.01184,0.012 1.47036,0.17908 v 10.193844 c 0,0.22444 0.1812,0.404936 0.40616,0.404936 h 3.09148 c 0.2252,0 0.40692,-0.18052 0.40692,-0.404936 v -9.80404 c 0.81932,-0.415644 2.11636,-0.67192 4.22276,-0.849428 1.52364,-0.1284 2.65884,-0.720152 3.40456,-0.976028 h 11.86858 c 0.2252,0 0.4062,-0.18052 0.4062,-0.404936 v -1.156532 c 0,-0.22444 -0.1812,-0.404936 -0.4062,-0.404936 h -29.81964 c -0.004,0 -0.008,0.0022 -0.012,0.0022 l -0.3948,-0.0022 -0.97976,-1.581616 c -0.46472,-0.74964 -0.8198,-0.2704 -0.87152,-1.081332 h 3.96492 c 0.2252,0 0.4062,-0.18052 0.4062,-0.404936 v -2.782756 c 0,-0.22444 -0.1812,-0.404936 -0.4062,-0.404936 h -14.80144 c -0.2252,0 -0.40692,0.18052 -0.40692,0.404936 v 2.782756 c 0,0.22444 0.182,0.404936 0.40692,0.404936 h 4.00568 c 0.032,0.0096 0.0656,0.0216 0.0996,0.0304 4.26398,0.21968 -1.98706,1.52114 -2.75096,1.521504 -2.6074,0 -4.32064,0.22636 -4.71984,0.622864 -0.75908,0.753944 -3.73692,0.827164 -4.18596,0.10284 -0.1772,-0.28584 -0.1044,-0.79026 0.1624,-1.120584 0.2668,-0.33036 0.63108,-1.285252 0.8102,-2.121768 0.1792,-0.836516 1.10404,-2.612424 2.05544,-3.946492 0.95144,-1.334076 1.73008,-2.949888 1.73008,-3.590468 0,-1.783796 -2.85804,-6.433304 -4.9882,-8.115236 -1.047484,-0.827044 -3.028364,-1.865656 -4.402404,-2.308052 -1.16712,-0.3758 -1.83024,-0.56234 -2.47244,-0.55166 z m 8.957724,24.40252 c 0.29,0.0144 0.60888,0.20572 1.13848,0.551656 1.67048,1.09118 1.60184,2.100892 -0.2064,3.033052 -1.7768,0.915996 -2.14456,0.936096 -2.9212,0.1618 -0.89096,-0.888204 -0.73696,-1.58974 0.63056,-2.8705 0.66096,-0.619012 0.98564,-0.894264 1.35852,-0.876036 z m 9.39348,2.930916 c 2.07268,-0.04752 2.76652,0.6444 2.18316,2.159888 -0.3496,0.908172 -1.98848,0.954256 -3.6766,0.10284 -2.06156,-1.039768 -1.57316,-2.073176 1.06056,-2.243324 0.1504,-0.0096 0.2948,-0.0164 0.43288,-0.0196 z m -1.77624,3.815592 c 0.772,3.04e-4 2.28056,0.865688 2.28056,1.479488 0,1.154412 -2.6016,3.959508 -4.25232,4.58518 -3.05788,1.159024 -3.29536,0.06388 -0.6782,-3.125836 1.17444,-1.431324 2.19196,-2.68572 2.26108,-2.787072 0.072,-0.10576 0.2108,-0.15184 0.3888,-0.15176 z M 95.907536,97.25199 c 0.62812,0.0076 1.26076,0.40756 2.00928,1.201862 0.94128,0.99887 1.08072,1.44679 0.65796,2.116008 -0.59136,0.9362 -1.13248,1.04779 -3.57992,0.7401 -2.12076,-0.2666 -2.52484,-1.361898 -1.07136,-2.904298 0.73184,-0.776612 1.35588,-1.161176 1.98404,-1.153672 z"
     id="path8" />
  <path
     inkscape:connector-curvature="0"
     style="fill:#51a7de;stroke-width:4"
     d="m 94.023776,52.00024 c -0.64224,0.0108 -1.26372,0.21896 -2.34908,0.632212 -1.2778,0.48648 -2.81704,1.529992 -3.42048,2.318844 -0.60344,0.788852 -1.68228,2.153808 -2.39744,3.033772 -2.0842,2.564524 -2.55184,3.708508 -1.96384,4.803832 0.79032,1.472176 0.63664,5.200312 -0.264,5.544868 -0.42956,0.16432 -1.33984,0.04488 -2.023,-0.26536 -0.92576,-0.420508 -1.81616,-0.420304 -3.4962,0.0015 -1.78696,0.448568 -2.51376,0.427492 -3.5078,-0.10284 -1.11436,-0.59456 -1.51388,-0.533668 -3.58928,0.550944 -1.2844,0.671228 -3.485,0.81064 -4.89008,2.266976 -2.33388,2.419 -2.7228,1.4355 -4.49548,1.294432 l -1.94,-0.15392 -2.10236,4.232036 c -1.35024,2.718064 -2.5786,6.103452 -3.43348,6.58692 -0.73208,0.41404 -1.89284,1.82218 -2.57924,3.128712 -1.2172,2.316928 -1.22816,2.427572 -0.4336,4.501748 0.55428,1.446812 0.71588,2.844612 0.50576,4.373008 -0.2624,1.907092 -0.1296,2.454308 0.87804,3.622108 0.6528,0.756612 1.96988,1.538808 2.92696,1.737698 1.54188,0.3204 1.7304,0.52893 1.65,1.82832 -0.1716,2.77556 -1.10492,10.92928 -1.42776,12.47745 -0.44316,2.12479 1.6858,6.50387 4.54884,9.35809 3.72444,3.71298 2.74592,5.01774 -2.49628,3.32938 -1.7822,-0.574 -3.8462,-1.04363 -4.58636,-1.04363 -0.74016,0 -2.56092,-0.57305 -4.04672,-1.27378 -5.23216,-2.46759 -7.5602,-0.7639 -7.61,5.56983 -0.012,1.67815 -0.3612,3.85592 -0.77344,4.83907 -1.018798,2.43091 -0.941198,4.47168 0.2596,6.81844 1.00564,1.96518 1.01968,1.97217 3.9962,1.97217 C 48,144 48,144 47.949376,142.01446 c 0,-2.53698 0.89268,-4.45895 2.225,-4.79232 12.15564,4.21785 17.96104,6.76712 26.25776,6.64798 4.99964,-0.0738 10.37752,-1.99614 7.22108,-9.47434 -0.60524,-1.42481 -1.40916,-3.228 -2.4796,-5.59958 -0.72352,-1.60301 -1.33552,-4.55926 -1.4422,-6.96229 -0.0636,-1.43069 0.0612,-1.51847 3.42984,-2.41378 1.92292,-0.51107 5.46212,-1.84904 7.86472,-2.97336 5.5314,-2.58849 5.65916,-2.49505 5.51272,4.03352 -0.2244,10.01013 -0.55764,14.90875 -1.27628,18.77228 -0.60412,4.16907 2.09008,4.64341 2.09008,4.64341 5.948284,0.24728 18.395044,0.038 18.704764,-0.46173 0.6826,-1.10106 -1.50012,-4.80875 -4.74652,-5.25135 C 106.5152,137.77962 108,136 108.70254,129.50896 c 0.54264,-2.46735 0.67056,-5.89146 0.52232,-13.94182 -0.108,-5.86914 -0.3696,-11.41843 -0.58148,-12.33145 -0.3484,-1.50056 -0.1904,-1.85923 1.64276,-3.734314 1.11544,-1.140892 2.66084,-3.306256 3.4342,-4.812464 1.14648,-2.232884 1.84468,-2.947524 3.77904,-3.868812 2.22816,-1.06122 2.37216,-1.247172 2.37216,-3.062544 0,-1.675952 0.2292,-2.067764 1.7236,-2.94674 1.6414,-0.96548 1.73052,-1.16356 1.87292,-4.157236 0.1472,-3.092808 1.77442,-3.1457 3.25482,-3.29054 0.51872,-0.05076 1.01184,0.012 1.47036,0.17908 v 10.193844 c 0,0.22444 0.1812,0.404936 0.40616,0.404936 h 3.09148 c 0.2252,0 0.40692,-0.18052 0.40692,-0.404936 v -9.80404 c 0.81932,-0.415644 2.11636,-0.67192 4.22276,-0.849428 1.52364,-0.1284 2.65884,-0.720152 3.40456,-0.976028 h 11.86858 c 0.2252,0 0.4062,-0.18052 0.4062,-0.404936 V 74.545 c 0,-0.22444 -0.1812,-0.404936 -0.4062,-0.404936 h -29.81964 c -0.004,0 -0.008,0.0022 -0.012,0.0022 l -0.3948,-0.0022 -0.97976,-1.581616 c -0.46472,-0.74964 -0.8198,-0.2704 -0.87152,-1.081332 h 3.96492 c 0.2252,0 0.4062,-0.18052 0.4062,-0.404936 v -2.782756 c 0,-0.22444 -0.1812,-0.404936 -0.4062,-0.404936 h -14.80144 c -0.2252,0 -0.40692,0.18052 -0.40692,0.404936 v 2.782756 c 0,0.22444 0.182,0.404936 0.40692,0.404936 h 4.00568 c 0.032,0.0096 0.0656,0.0216 0.0996,0.0304 4.26398,0.21968 -1.98706,1.52114 -2.75096,1.521504 -2.6074,0 -4.32064,0.22636 -4.71984,0.622864 -0.75908,0.753944 -3.73692,0.827164 -4.18596,0.10284 -0.1772,-0.28584 -0.1044,-0.79026 0.1624,-1.120584 0.2668,-0.33036 0.63108,-1.285252 0.8102,-2.121768 0.1792,-0.836516 1.10404,-2.612424 2.05544,-3.946492 0.95144,-1.334076 1.73008,-2.949888 1.73008,-3.590468 0,-1.783796 -2.85804,-6.433304 -4.9882,-8.115236 -1.047484,-0.827044 -3.028364,-1.865656 -4.402404,-2.308052 -1.16712,-0.3758 -1.83024,-0.56234 -2.47244,-0.55166 z m 8.957724,24.40252 c 0.29,0.0144 0.60888,0.20572 1.13848,0.551656 1.67048,1.09118 1.60184,2.100892 -0.2064,3.033052 -1.7768,0.915996 -2.14456,0.936096 -2.9212,0.1618 -0.89096,-0.888204 -0.73696,-1.58974 0.63056,-2.8705 0.66096,-0.619012 0.98564,-0.894264 1.35852,-0.876036 z m 9.39348,2.930916 c 2.07268,-0.04752 2.76652,0.6444 2.18316,2.159888 -0.3496,0.908172 -1.98848,0.954256 -3.6766,0.10284 -2.06156,-1.039768 -1.57316,-2.073176 1.06056,-2.243324 0.1504,-0.0096 0.2948,-0.0164 0.43288,-0.0196 z m -1.77624,3.815592 c 0.772,3.04e-4 2.28056,0.865688 2.28056,1.479488 0,1.154412 -2.6016,3.959508 -4.25232,4.58518 -3.05788,1.159024 -3.29536,0.06388 -0.6782,-3.125836 1.17444,-1.431324 2.19196,-2.68572 2.26108,-2.787072 0.072,-0.10576 0.2108,-0.15184 0.3888,-0.15176 z m -14.691204,12.10272 c 0.62812,0.0076 1.26076,0.40756 2.00928,1.20186 0.94128,0.998872 1.08072,1.446796 0.65796,2.116016 -0.59136,0.936196 -1.13248,1.047788 -3.57992,0.7401 -2.12076,-0.2666 -2.52484,-1.361904 -1.07136,-2.904308 0.73184,-0.776608 1.35588,-1.161172 1.98404,-1.153668 z"
     id="path10" />
  <path
     style="fill:#ffffff;stroke-width:4;opacity:0.2"
     d="M 94.023438 52 C 93.381197 52.0108 92.759188 52.219561 91.673828 52.632812 C 90.396028 53.119293 88.857346 54.16232 88.253906 54.951172 C 87.650466 55.740024 86.572582 57.104411 85.857422 57.984375 C 84.0226 60.242049 83.442286 61.398817 83.730469 62.390625 C 83.928851 61.57345 84.590717 60.543004 85.857422 58.984375 C 86.572582 58.104411 87.650466 56.740024 88.253906 55.951172 C 88.857346 55.16232 90.396028 54.119293 91.673828 53.632812 C 92.759188 53.21956 93.381197 53.0108 94.023438 53 C 94.665638 52.98932 95.328974 53.176934 96.496094 53.552734 C 97.870134 53.99513 99.850954 55.032331 100.89844 55.859375 C 102.82223 57.378364 105.33301 61.312 105.80273 63.375 C 105.83799 63.233267 105.88672 63.074046 105.88672 62.974609 C 105.88672 61.190813 103.0286 56.541307 100.89844 54.859375 C 99.850954 54.032331 97.870134 52.99513 96.496094 52.552734 C 95.328974 52.176934 94.665638 51.98932 94.023438 52 z M 84.388672 66.042969 C 84.330073 67.176582 84.071294 68.164741 83.628906 68.333984 C 83.199346 68.498304 82.288629 68.378599 81.605469 68.068359 C 80.679709 67.647851 79.789415 67.648509 78.109375 68.070312 C 76.322415 68.51888 75.595603 68.497129 74.601562 67.966797 C 73.487202 67.372237 73.087119 67.432966 71.011719 68.517578 C 69.727319 69.188806 67.528127 69.32882 66.123047 70.785156 C 63.789167 73.204156 63.399633 72.221146 61.626953 72.080078 L 59.6875 71.925781 L 57.583984 76.158203 C 56.233744 78.876267 55.005271 82.260673 54.150391 82.744141 C 53.418311 83.158181 52.258666 84.566515 51.572266 85.873047 C 50.724072 87.487575 50.472478 88.039064 50.660156 88.921875 C 50.776858 88.420066 51.063814 87.840879 51.572266 86.873047 C 52.258666 85.566515 53.418311 84.158181 54.150391 83.744141 C 55.005271 83.260673 56.233744 79.876267 57.583984 77.158203 L 59.6875 72.925781 L 61.626953 73.080078 C 63.399633 73.221146 63.789167 74.204156 66.123047 71.785156 C 67.528127 70.32882 69.727319 70.188806 71.011719 69.517578 C 73.087119 68.432966 73.487202 68.372237 74.601562 68.966797 C 75.595603 69.497129 76.322415 69.51888 78.109375 69.070312 C 79.789415 68.648509 80.679709 68.647851 81.605469 69.068359 C 82.288629 69.378599 83.199346 69.498304 83.628906 69.333984 C 84.199133 69.115834 84.467306 67.542496 84.388672 66.042969 z M 108.67969 67.884766 C 108.45449 67.884766 108.27344 68.064646 108.27344 68.289062 L 108.27344 69.289062 C 108.27344 69.064646 108.45449 68.884766 108.67969 68.884766 L 123.48047 68.884766 C 123.70547 68.884766 123.88672 69.064622 123.88672 69.289062 L 123.88672 68.289062 C 123.88672 68.064622 123.70547 67.884766 123.48047 67.884766 L 108.67969 67.884766 z M 119.51562 72.476562 C 119.56735 73.287495 119.922 72.808954 120.38672 73.558594 L 121.36719 75.140625 L 121.76172 75.142578 C 121.76572 75.142578 121.76944 75.140625 121.77344 75.140625 L 151.59375 75.140625 C 151.81875 75.140625 152 75.320482 152 75.544922 L 152 74.544922 C 152 74.320482 151.81875 74.140625 151.59375 74.140625 L 121.77344 74.140625 C 121.76944 74.140625 121.76572 74.142578 121.76172 74.142578 L 121.36719 74.140625 L 120.38672 72.558594 C 120.36584 72.524907 120.34659 72.505515 120.32617 72.476562 L 119.51562 72.476562 z M 112.75391 72.498047 C 111.67206 72.787522 110.35971 73.029141 110.0332 73.029297 C 107.4258 73.029297 105.71365 73.25584 105.31445 73.652344 C 104.57602 74.385778 101.7567 74.467181 101.18945 73.804688 C 101.01607 74.121407 100.97921 74.512428 101.12891 74.753906 C 101.57795 75.47823 104.55537 75.406288 105.31445 74.652344 C 105.71365 74.25584 107.4258 74.029297 110.0332 74.029297 C 110.7971 74.028933 117.04914 72.727492 112.78516 72.507812 C 112.77449 72.505053 112.76445 72.501263 112.75391 72.498047 z M 105.16602 78.970703 C 104.96114 79.319117 104.55213 79.659352 103.91406 79.988281 C 102.13726 80.904277 101.76883 80.922734 100.99219 80.148438 C 100.79463 79.951489 100.65742 79.765067 100.56445 79.578125 C 100.30602 80.145056 100.45552 80.613433 100.99219 81.148438 C 101.76883 81.922734 102.13726 81.904277 103.91406 80.988281 C 105.14708 80.352655 105.55057 79.67969 105.16602 78.970703 z M 109.87695 80.894531 C 109.32486 81.329624 109.62119 81.960376 110.88086 82.595703 C 112.56898 83.447119 114.20899 83.402313 114.55859 82.494141 C 114.77821 81.923598 114.81582 81.468531 114.66797 81.126953 C 114.6367 81.245648 114.609 81.363204 114.55859 81.494141 C 114.20899 82.402313 112.56898 82.447119 110.88086 81.595703 C 110.40843 81.357429 110.08643 81.121825 109.87695 80.894531 z M 112.70703 85.242188 C 112.11829 86.570449 110.03399 88.681537 108.62695 89.214844 C 107.40385 89.678436 106.64072 89.774818 106.32227 89.527344 C 105.82385 90.731457 106.57499 90.992597 108.62695 90.214844 C 110.27767 89.589172 112.87891 86.783318 112.87891 85.628906 C 112.87891 85.507365 112.8079 85.374787 112.70703 85.242188 z M 51.701172 94.013672 C 51.686772 94.256904 51.678819 94.49864 51.644531 94.748047 C 51.533996 95.551407 51.500832 96.107392 51.566406 96.576172 C 51.585741 96.319107 51.599529 96.075118 51.644531 95.748047 C 51.726382 95.152671 51.733373 94.580031 51.701172 94.013672 z M 98.640625 98.417969 C 98.61403 98.46931 98.608205 98.516512 98.574219 98.570312 C 97.982859 99.506508 97.441581 99.618235 94.994141 99.310547 C 94.020958 99.188208 93.427998 98.883691 93.191406 98.449219 C 92.772859 99.43231 93.391691 100.1091 94.994141 100.31055 C 97.441581 100.61823 97.982859 100.50651 98.574219 99.570312 C 98.829432 99.166315 98.847903 98.830567 98.640625 98.417969 z M 57.083984 102.11719 C 56.89195 105.01202 55.989667 112.8901 55.671875 114.41406 C 55.605173 114.73387 55.614632 115.11633 55.658203 115.52539 C 55.664097 115.48934 55.664605 115.44892 55.671875 115.41406 C 55.994715 113.86589 56.928009 105.71111 57.099609 102.93555 C 57.12078 102.5934 57.119902 102.33002 57.083984 102.11719 z M 108.55469 102.80078 C 108.4531 103.20951 108.50184 103.63015 108.64258 104.23633 C 108.85446 105.14935 109.11661 110.69727 109.22461 116.56641 C 109.25752 118.35346 109.27122 119.83773 109.27539 121.20898 C 109.27965 119.61103 109.26567 117.79624 109.22461 115.56641 C 109.11661 109.69727 108.85446 104.14935 108.64258 103.23633 C 108.60578 103.07786 108.57881 102.93691 108.55469 102.80078 z M 96.560547 119.02148 C 96.555192 119.48421 96.551459 119.92779 96.539062 120.48047 C 96.314662 130.4906 95.980359 135.38842 95.261719 139.25195 C 95.172089 139.87049 95.163214 140.39883 95.199219 140.86523 C 95.213645 140.66874 95.23044 140.46781 95.261719 140.25195 C 95.980359 136.38842 96.314662 131.4906 96.539062 121.48047 C 96.560867 120.50839 96.567833 119.72062 96.560547 119.02148 z M 79.753906 122.09375 C 79.721449 122.29671 79.716999 122.53098 79.730469 122.83398 C 79.837149 125.23701 80.450308 128.19386 81.173828 129.79688 C 82.244268 132.16845 83.047104 133.97167 83.652344 135.39648 C 84.210343 136.71849 84.490637 137.85829 84.564453 138.85352 C 84.664392 137.6495 84.407662 136.18597 83.652344 134.39648 C 83.047104 132.97167 82.244268 131.16845 81.173828 128.79688 C 80.475341 127.24933 79.890197 124.44839 79.753906 122.09375 z M 45.017578 123.70703 C 42.626311 123.83371 41.514706 125.99908 41.480469 130.35352 C 41.468469 132.03167 41.119271 134.21021 40.707031 135.19336 C 40.168258 136.4789 39.946955 137.65394 40.025391 138.82422 C 40.095209 137.97751 40.321107 137.1142 40.707031 136.19336 C 41.119271 135.21021 41.468469 133.03167 41.480469 131.35352 C 41.530269 125.01979 43.859637 123.31561 49.091797 125.7832 C 50.577597 126.48393 52.396559 127.05664 53.136719 127.05664 C 53.876879 127.05664 55.942409 127.52756 57.724609 128.10156 C 61.371434 129.2761 62.948216 128.99826 62.320312 127.47266 C 61.871777 128.0367 60.324927 127.93905 57.724609 127.10156 C 55.942409 126.52756 53.876879 126.05664 53.136719 126.05664 C 52.396559 126.05664 50.577597 125.48393 49.091797 124.7832 C 47.456747 124.01208 46.104518 123.64945 45.017578 123.70703 z M 107.94727 136.14062 C 107.80076 138.17081 108.3834 138.93744 111.31055 139.18359 C 113.81883 139.52556 115.68641 141.81174 116.09375 143.34375 C 116.62676 142.15031 114.47904 138.61557 111.31055 138.18359 C 108.92046 137.9826 108.09164 137.43827 107.94727 136.14062 z "
     id="path892" />
</svg>
