<?xml version="1.0" encoding="UTF-8" standalone="no"?>
<svg
   xmlns:dc="http://purl.org/dc/elements/1.1/"
   xmlns:cc="http://creativecommons.org/ns#"
   xmlns:rdf="http://www.w3.org/1999/02/22-rdf-syntax-ns#"
   xmlns:svg="http://www.w3.org/2000/svg"
   xmlns="http://www.w3.org/2000/svg"
   xmlns:sodipodi="http://sodipodi.sourceforge.net/DTD/sodipodi-0.dtd"
   xmlns:inkscape="http://www.inkscape.org/namespaces/inkscape"
   width="192"
   height="192"
   version="1"
   id="svg14"
   sodipodi:docname="apps_borderlands_2.svg"
   inkscape:version="0.92.3 (2405546, 2018-03-11)">
  <metadata
     id="metadata20">
    <rdf:RDF>
      <cc:Work
         rdf:about="">
        <dc:format>image/svg+xml</dc:format>
        <dc:type
           rdf:resource="http://purl.org/dc/dcmitype/StillImage" />
        <dc:title></dc:title>
      </cc:Work>
    </rdf:RDF>
  </metadata>
  <defs
     id="defs18">
    <filter
       inkscape:collect="always"
       style="color-interpolation-filters:sRGB"
       id="filter859"
       x="-0.048"
       width="1.096"
       y="-0.048"
       height="1.096">
      <feGaussianBlur
         inkscape:collect="always"
         stdDeviation="3.2"
         id="feGaussianBlur861" />
    </filter>
    <filter
       inkscape:collect="always"
       style="color-interpolation-filters:sRGB"
       id="filter875"
       x="-0.047999998"
       width="1.096"
       y="-0.048000002"
       height="1.096">
      <feGaussianBlur
         inkscape:collect="always"
         stdDeviation="2.56"
         id="feGaussianBlur877" />
    </filter>
  </defs>
  <sodipodi:namedview
     pagecolor="#ffffff"
     bordercolor="#666666"
     borderopacity="1"
     objecttolerance="10"
     gridtolerance="10"
     guidetolerance="10"
     inkscape:pageopacity="0"
     inkscape:pageshadow="2"
     inkscape:window-width="1920"
     inkscape:window-height="1018"
     id="namedview16"
     showgrid="false"
     inkscape:zoom="2.45"
     inkscape:cx="44.677763"
     inkscape:cy="89.306122"
     inkscape:window-x="0"
     inkscape:window-y="32"
     inkscape:window-maximized="1"
     inkscape:current-layer="svg14" />
  <rect
     id="rect841"
     ry="80"
     rx="80"
     y="20"
     x="16"
     height="160"
     width="160"
     style="opacity:0.2;fill:#000000;stroke-width:4;filter:url(#filter859)" />
  <rect
     style="fill:#aa3131;stroke-width:4"
     width="160"
     height="160"
     x="16"
     y="16"
     rx="80"
     ry="80"
     id="rect2" />
  <path
     inkscape:connector-curvature="0"
     style="opacity:0.1;fill:#ffffff;stroke-width:4"
     d="M 95.998047,16 C 51.678955,16.001052 16,51.680653 16,96 c 0,0.115498 0.0062,0.228859 0.0078,0.34375 C 16.358829,52.329731 51.898462,17.001046 95.998047,17 H 96 c 44.10547,0.001 79.64856,35.339122 79.99023,79.361328 0.002,-0.120727 0.008,-0.240021 0.008,-0.361328 0,-44.319347 -35.67896,-79.998948 -79.99805,-80 z"
     id="path4" />
  <path
     inkscape:connector-curvature="0"
     style="opacity:0.2;stroke-width:4;filter:url(#filter875)"
     d="M 109.27812,37.407555 C 102.52184,35.959495 95.462512,35.621323 88.56644,36.427431 78.5594,37.597052 68.869944,41.169408 60.459728,46.78846 52.145936,52.342608 45.319016,59.664892 40.39908,68.295724 c -1.885041,3.306668 -3.492394,6.834712 -4.77585,10.492096 -0.897168,2.55914 -1.716304,5.520004 -2.277616,8.212724 -2.918074,14.028506 -1.063582,28.495246 5.305196,41.356886 0.460009,0.92855 0.473804,0.95464 0.514248,0.93219 0.04418,-0.0196 0.252716,-0.3186 3.215938,-4.50099 11.159992,-15.75153 26.232876,-37.23627 43.911032,-62.570694 5.38758,-7.720532 6.880916,-9.85622 7.151276,-10.260636 1.676728,-2.509028 3.392024,-4.352592 5.322096,-5.71664 0.463076,-0.32652 1.5982,-0.975648 2.10234,-1.201404 2.32261,-1.040584 4.78086,-1.346772 7.53851,-0.929204 0.76207,0.11536 1.24948,0.22012 2.11747,0.452656 0.86799,0.23248 1.34269,0.38616 2.06018,0.666428 2.59705,1.016768 4.58029,2.512776 6.07093,4.574836 0.32364,0.447676 0.98281,1.577288 1.21981,2.091324 0.98928,2.146072 1.55232,4.598688 1.74996,7.611064 0.0779,1.16904 1.16604,13.636084 1.99182,22.816 1.28562,14.290968 2.52651,27.51345 4.64326,49.41422 1.07048,11.07237 1.70855,17.7355 1.99378,20.7846 0.066,0.71702 0.12824,1.32201 0.13676,1.34286 0.0256,0.0507 0.0413,0.0458 0.54897,-0.28072 3.07964,-1.98065 6.16464,-4.38378 8.89447,-6.92911 7.03779,-6.56182 12.45312,-14.631 15.90092,-23.69099 0.84781,-2.22905 1.41226,-3.98622 2.06296,-6.41399 0.39476,-1.47288 0.55822,-2.24894 0.83762,-3.49573 2.55962,-12.18319 1.50589,-24.7709 -3.05049,-36.398772 -1.8561,-4.735948 -4.33646,-9.34466 -7.27401,-13.5137 -7.95718,-11.292284 -19.23096,-19.64158 -32.31168,-23.925486 -2.08925,-0.684027 -4.54952,-1.344061 -6.72084,-1.807957 z M 107.5305,54.44758 c -4.83979,-0.502904 -7.940308,2.915596 -10.586488,6.514052 -12.528624,21.692812 -25.88384,45.186268 -39.436864,69.368468 -3.897284,6.95366 -7.716692,13.79565 -7.730836,13.84841 -0.0116,0.0427 0.15548,0.22976 0.820932,0.89977 7.638112,7.69955 17.0863,13.30038 27.525176,16.326 1.304644,0.37676 1.280136,0.36896 2.509436,0.67221 2.840652,0.69758 5.325436,1.15969 8.045748,1.48304 8.086636,0.96117 16.201276,0.3472 24.083426,-1.82149 0.31256,-0.086 0.57515,-0.17364 0.585,-0.18708 0.007,-0.0256 0.053,-2.10712 0.14564,-8.86786 0.36156,-26.395 0.56395,-53.721408 0.5938,-79.931984 -0.42633,-7.896156 -0.0452,-16.118756 -6.55501,-18.303576 z"
     id="path8" />
  <path
     inkscape:connector-curvature="0"
     style="fill:#f7b400;stroke-width:4"
     d="M 109.27812,33.40755 C 102.52184,31.95949 95.462512,31.621318 88.56644,32.427426 78.5594,33.597048 68.869944,37.169404 60.459728,42.788456 52.145936,48.342604 45.319016,55.664888 40.39908,64.29572 c -1.885041,3.306668 -3.492394,6.834712 -4.77585,10.492096 -0.897168,2.55914 -1.716304,5.520004 -2.277616,8.212724 -2.918074,14.028504 -1.063582,28.49525 5.305196,41.35688 0.460009,0.92856 0.473804,0.95465 0.514248,0.9322 0.04418,-0.0196 0.252716,-0.3186 3.215938,-4.50099 11.159992,-15.75153 26.232876,-37.236274 43.911032,-62.570698 5.38758,-7.720532 6.880916,-9.85622 7.151276,-10.260636 1.676728,-2.509028 3.392024,-4.352592 5.322096,-5.71664 0.463076,-0.32652 1.5982,-0.975648 2.10234,-1.201404 2.32261,-1.040583 4.78086,-1.346774 7.53851,-0.929204 0.76207,0.11536 1.24948,0.22012 2.11747,0.452656 0.86799,0.23248 1.34269,0.38616 2.06018,0.666428 2.59705,1.016768 4.58029,2.512776 6.07093,4.574836 0.32364,0.447676 0.98281,1.577288 1.21981,2.091324 0.98928,2.146072 1.55232,4.598688 1.74996,7.611064 0.0779,1.16904 1.16604,13.636084 1.99182,22.816 1.28562,14.290968 2.52651,27.513444 4.64326,49.414214 1.07048,11.07237 1.70855,17.73551 1.99378,20.7846 0.066,0.71703 0.12824,1.32202 0.13676,1.34287 0.0256,0.0507 0.0413,0.0458 0.54897,-0.28072 3.07964,-1.98065 6.16464,-4.38378 8.89447,-6.92912 7.03779,-6.56181 12.45312,-14.63099 15.90092,-23.69098 0.84781,-2.22905 1.41226,-3.98622 2.06296,-6.414 0.39476,-1.47288 0.55822,-2.24894 0.83762,-3.49572 2.55962,-12.183196 1.50589,-24.770904 -3.05049,-36.398776 -1.8561,-4.735948 -4.33646,-9.34466 -7.27401,-13.5137 C 140.35348,47.84874 129.0797,39.499444 115.99898,35.215537 113.90973,34.53151 111.44946,33.871476 109.27814,33.40758 Z M 107.5305,50.447576 C 102.69071,49.944672 99.590192,53.363172 96.944012,56.961628 84.415388,78.65444 71.060172,102.1479 57.507148,126.3301 c -3.897284,6.95366 -7.716692,13.79564 -7.730836,13.84841 -0.0116,0.0427 0.15548,0.22976 0.820932,0.89976 7.638112,7.69956 17.0863,13.30039 27.525176,16.326 1.304644,0.37676 1.280136,0.36896 2.509436,0.67221 2.840652,0.69758 5.325436,1.1597 8.045748,1.48305 8.086636,0.96116 16.201276,0.3472 24.083426,-1.8215 0.31256,-0.086 0.57515,-0.17364 0.585,-0.18708 0.007,-0.0256 0.053,-2.10711 0.14564,-8.86785 0.36156,-26.395 0.56395,-53.721412 0.5938,-79.931988 -0.42633,-7.896156 -0.0452,-16.118756 -6.55501,-18.303576 z"
     id="path10" />
  <path
     inkscape:connector-curvature="0"
     style="opacity:0.2;fill:#ffffff;stroke-width:4"
     d="m 95.720703,32.001953 c -0.651845,0.0023 -1.303651,0.01497 -1.955078,0.03711 -1.73714,0.05903 -3.471293,0.189102 -5.195313,0.390626 -10.00704,1.169621 -19.699159,4.740319 -28.109374,10.359374 -8.313792,5.554148 -15.142565,12.876981 -20.0625,21.507813 -1.88504,3.306668 -3.489981,6.834804 -4.773438,10.492187 -0.897168,2.55914 -1.719937,5.518218 -2.28125,8.210938 -0.995679,4.78668 -1.394415,9.622135 -1.289062,14.429688 0.0012,-0.02865 0.0046,-0.05729 0.0059,-0.08594 C 32.033732,92.894325 32.422963,88.426642 33.34375,84 c 0.561313,-2.69272 1.384082,-5.651798 2.28125,-8.210938 1.283457,-3.657383 2.888399,-7.185519 4.773438,-10.492187 4.919935,-8.630832 11.748708,-15.953665 20.0625,-21.507813 8.410215,-5.619055 18.102334,-9.189753 28.109374,-10.359374 1.72402,-0.201525 3.458173,-0.331596 5.195313,-0.390626 5.21142,-0.177087 10.448415,0.281143 15.515625,1.367188 2.17132,0.463896 4.62951,1.128473 6.71875,1.8125 13.08073,4.283907 24.35532,12.629591 32.3125,23.921875 2.93755,4.16904 5.41734,8.779677 7.27344,13.515625 2.76034,7.044418 4.20741,14.439527 4.36523,21.884766 -0.0443,-7.782404 -1.48138,-15.525161 -4.36523,-22.884766 -1.8561,-4.735948 -4.33589,-9.346585 -7.27344,-13.515625 C 140.35532,47.848341 129.08073,39.502657 116,35.21875 c -2.08924,-0.684027 -4.54743,-1.348604 -6.71875,-1.8125 -4.43381,-0.950289 -8.99763,-1.420375 -13.560547,-1.404297 z m 10.923827,18.396485 c -0.28883,-6.65e-4 -0.57109,0.01296 -0.84765,0.03906 -3.87193,0.3666 -6.536159,3.374789 -8.851568,6.523438 -12.528624,21.692812 -25.884476,45.184984 -39.4375,69.367184 -3.897283,6.95367 -7.720231,13.7988 -7.734374,13.85157 -0.0074,0.0271 0.117717,0.16878 0.335937,0.39843 0.323259,-0.60278 3.670414,-6.59834 7.398437,-13.25 13.553024,-24.1822 26.908876,-47.674372 39.4375,-69.367184 2.315409,-3.148648 4.979638,-6.156838 8.851568,-6.523438 0.55313,-0.0522 1.1294,-0.05507 1.73437,0.0078 6.48764,2.177386 6.13129,10.353176 6.55078,18.22461 10e-4,-0.306845 0.004,-0.617759 0.004,-0.919922 -0.42633,-7.896156 -0.0449,-16.119868 -6.55469,-18.304688 -0.30248,-0.03144 -0.59789,-0.04621 -0.88672,-0.04687 z"
     id="path12" />
</svg>
