<?xml version="1.0" encoding="UTF-8" standalone="no"?>
<svg
   xmlns:dc="http://purl.org/dc/elements/1.1/"
   xmlns:cc="http://creativecommons.org/ns#"
   xmlns:rdf="http://www.w3.org/1999/02/22-rdf-syntax-ns#"
   xmlns:svg="http://www.w3.org/2000/svg"
   xmlns="http://www.w3.org/2000/svg"
   xmlns:sodipodi="http://sodipodi.sourceforge.net/DTD/sodipodi-0.dtd"
   xmlns:inkscape="http://www.inkscape.org/namespaces/inkscape"
   width="192"
   height="192"
   version="1.1"
   id="svg12"
   sodipodi:docname="games_hook.svg"
   inkscape:version="0.92.3 (2405546, 2018-03-11)">
  <metadata
     id="metadata18">
    <rdf:RDF>
      <cc:Work
         rdf:about="">
        <dc:format>image/svg+xml</dc:format>
        <dc:type
           rdf:resource="http://purl.org/dc/dcmitype/StillImage" />
        <dc:title></dc:title>
      </cc:Work>
    </rdf:RDF>
  </metadata>
  <defs
     id="defs16">
    <filter
       inkscape:collect="always"
       style="color-interpolation-filters:sRGB"
       id="filter856"
       x="-0.048"
       width="1.096"
       y="-0.048"
       height="1.096">
      <feGaussianBlur
         inkscape:collect="always"
         stdDeviation="3.2"
         id="feGaussianBlur858" />
    </filter>
    <filter
       inkscape:collect="always"
       style="color-interpolation-filters:sRGB"
       id="filter876"
       x="-0.03125241"
       width="1.0625048"
       y="-0.10342187"
       height="1.2068437">
      <feGaussianBlur
         inkscape:collect="always"
         stdDeviation="2.0684375"
         id="feGaussianBlur878" />
    </filter>
  </defs>
  <sodipodi:namedview
     pagecolor="#ffffff"
     bordercolor="#666666"
     borderopacity="1"
     objecttolerance="10"
     gridtolerance="10"
     guidetolerance="10"
     inkscape:pageopacity="0"
     inkscape:pageshadow="2"
     inkscape:window-width="1920"
     inkscape:window-height="1018"
     id="namedview14"
     showgrid="false"
     inkscape:zoom="3.02"
     inkscape:cx="24"
     inkscape:cy="90.225166"
     inkscape:window-x="0"
     inkscape:window-y="32"
     inkscape:window-maximized="1"
     inkscape:current-layer="svg12" />
  <circle
     style="opacity:0.2;stroke-width:4;filter:url(#filter856)"
     cx="96"
     cy="100"
     r="80"
     id="circle2" />
  <circle
     style="fill:#595552;stroke-width:4"
     cx="96"
     cy="96"
     r="80"
     id="circle4" />
  <path
     inkscape:connector-curvature="0"
     style="opacity:0.2;stroke-width:4;filter:url(#filter876)"
     d="M 32,74 V 94 H 16.203125 C 16.102046,95.331428 16.034316,96.66518 16,98 c 0.01352,1.3343 0.0604,2.66805 0.140624,4 H 32 v 20 h 8 V 74 Z m 36,0 c -13.254832,0 -24,10.745168 -24,24 0,13.25483 10.745168,24 24,24 13.254832,0 24,-10.74517 24,-24 C 92,84.745168 81.254832,74 68,74 Z m 52,0 c -13.25483,0 -24,10.745168 -24,24 0,13.25483 10.74517,24 24,24 13.25483,0 24,-10.74517 24,-24 0,-13.254832 -10.74517,-24 -24,-24 z m 28,0 v 48 h 8 v -16.67969 l 16.57812,15.74219 a 80,80 0 0 0 2.10938,-9.03125 L 160.00781,98.08594 174.84375,84.484376 A 80,80 0 0 0 172.74219,75.5625 L 156,90.906248 V 74 Z m -80,8 c 8.836556,0 16,7.163444 16,16 0,8.83656 -7.163444,16 -16,16 -8.836556,0 -16,-7.16344 -16,-16 0,-8.836556 7.163444,-16 16,-16 z m 52,0 c 8.83656,0 16,7.163444 16,16 0,8.83656 -7.16344,16 -16,16 -8.83656,0 -16,-7.16344 -16,-16 0,-8.836556 7.16344,-16 16,-16 z"
     id="path8" />
  <path
     inkscape:connector-curvature="0"
     style="fill:#ffffff;stroke-width:4"
     d="M 32,72 V 92 H 16.203125 C 16.102046,93.331428 16.034316,94.66518 16,96 c 0.01352,1.334296 0.0604,2.668048 0.140624,4 H 32 v 20 h 8 V 72 Z m 36,0 c -13.254832,0 -24,10.745168 -24,24 0,13.25483 10.745168,24 24,24 13.254832,0 24,-10.74517 24,-24 C 92,82.745168 81.254832,72 68,72 Z m 52,0 c -13.25483,0 -24,10.745168 -24,24 0,13.25483 10.74517,24 24,24 13.25483,0 24,-10.74517 24,-24 0,-13.254832 -10.74517,-24 -24,-24 z m 28,0 v 48 h 8 v -16.67969 l 16.57812,15.74219 a 80,80 0 0 0 2.10938,-9.03125 L 160.00781,96.085936 174.84375,82.484376 A 80,80 0 0 0 172.74219,73.5625 L 156,88.906248 V 72 Z m -80,8 c 8.836556,0 16,7.163444 16,16 0,8.83656 -7.163444,16 -16,16 -8.836556,0 -16,-7.16344 -16,-16 0,-8.836556 7.163444,-16 16,-16 z m 52,0 c 8.83656,0 16,7.163444 16,16 0,8.83656 -7.16344,16 -16,16 -8.83656,0 -16,-7.16344 -16,-16 0,-8.836556 7.16344,-16 16,-16 z"
     id="path10" />
  <path
     style="opacity:0.1;fill:#ffffff;stroke-width:4"
     d="M 96 16 A 80 80 0 0 0 16 96 A 80 80 0 0 0 16.017578 96.490234 A 80 80 0 0 1 96 17 A 80 80 0 0 1 175.97461 96.5 A 80 80 0 0 0 176 96 A 80 80 0 0 0 96 16 z "
     id="path6" />
</svg>
