<?xml version="1.0" encoding="UTF-8" standalone="no"?>
<svg
   xmlns:dc="http://purl.org/dc/elements/1.1/"
   xmlns:cc="http://creativecommons.org/ns#"
   xmlns:rdf="http://www.w3.org/1999/02/22-rdf-syntax-ns#"
   xmlns:svg="http://www.w3.org/2000/svg"
   xmlns="http://www.w3.org/2000/svg"
   xmlns:sodipodi="http://sodipodi.sourceforge.net/DTD/sodipodi-0.dtd"
   xmlns:inkscape="http://www.inkscape.org/namespaces/inkscape"
   width="192"
   height="192"
   version="1"
   id="svg12"
   sodipodi:docname="games_freedoom.svg"
   inkscape:version="0.92.3 (2405546, 2018-03-11)">
  <metadata
     id="metadata18">
    <rdf:RDF>
      <cc:Work
         rdf:about="">
        <dc:format>image/svg+xml</dc:format>
        <dc:type
           rdf:resource="http://purl.org/dc/dcmitype/StillImage" />
        <dc:title></dc:title>
      </cc:Work>
    </rdf:RDF>
  </metadata>
  <defs
     id="defs16">
    <filter
       inkscape:collect="always"
       style="color-interpolation-filters:sRGB"
       id="filter858"
       x="-0.048"
       width="1.096"
       y="-0.048"
       height="1.096">
      <feGaussianBlur
         inkscape:collect="always"
         stdDeviation="3.2"
         id="feGaussianBlur860" />
    </filter>
    <filter
       inkscape:collect="always"
       style="color-interpolation-filters:sRGB"
       id="filter874"
       x="-0.0360001"
       width="1.0720002"
       y="-0.071999601"
       height="1.1439992">
      <feGaussianBlur
         inkscape:collect="always"
         stdDeviation="2.040011"
         id="feGaussianBlur876" />
    </filter>
  </defs>
  <sodipodi:namedview
     pagecolor="#ffffff"
     bordercolor="#666666"
     borderopacity="1"
     objecttolerance="10"
     gridtolerance="10"
     guidetolerance="10"
     inkscape:pageopacity="0"
     inkscape:pageshadow="2"
     inkscape:window-width="1920"
     inkscape:window-height="1018"
     id="namedview14"
     showgrid="false"
     inkscape:zoom="2.45"
     inkscape:cx="24"
     inkscape:cy="72.979592"
     inkscape:window-x="0"
     inkscape:window-y="32"
     inkscape:window-maximized="1"
     inkscape:current-layer="svg12" />
  <rect
     id="rect840"
     ry="8"
     rx="8"
     y="20"
     x="16"
     height="160"
     width="160"
     style="opacity:0.2;fill:#000000;stroke-width:4;filter:url(#filter858)" />
  <rect
     style="fill:#4454ba;stroke-width:4"
     width="160"
     height="160"
     x="16"
     y="16"
     rx="8"
     ry="8"
     id="rect2" />
  <path
     style="opacity:0.1;fill:#ffffff;stroke-width:4"
     d="M 24 16 C 19.568 16 16 19.568 16 24 L 16 25 C 16 20.568 19.568 17 24 17 L 168 17 C 172.432 17 176 20.568 176 25 L 176 24 C 176 19.568 172.432 16 168 16 L 24 16 z "
     id="path4" />
  <path
     inkscape:connector-curvature="0"
     style="opacity:0.2;stroke-width:4;filter:url(#filter874)"
     d="m 67.554688,65.999261 -1.77344,1.359376 -1.773436,1.359376 V 88.452385 L 64,108.19458 82.101564,121.99927 92,114.42114 91.9844,91.577385 91.9608,68.725825 90.218616,67.358637 88.4608,65.999261 H 78.007676 Z m 31.984376,0 -1.757816,1.359376 -1.742184,1.367188 -0.0236,22.85156 L 96,114.42114 105.89844,121.99927 124,108.19458 123.992,88.452385 V 68.718013 l -1.77344,-1.359376 -1.77344,-1.359376 H 109.992 Z m 64.460936,0 -6.07031,0.18748 c -4.4398,-0.0304 -10.00116,-0.04688 -10.04688,-0.0312 L 144,77.639885 c 0,0 -3.99906,-11.643596 -4.92188,-11.421872 l -0.73437,-0.04688 c -0.40218,-0.0264 -2.88244,-0.04688 -5.51563,-0.04688 H 128 v 20.523436 21.726571 l -0.3828,0.29688 c -0.33632,0.24172 -0.39848,0.32228 -0.32032,0.39844 l 12.60937,8.64844 0.0312,-8.41407 c 0.0352,-7.73696 0.0474,-8.37443 0.15624,-8.02344 L 144,113.06958 l 4.03906,-12.25 0.0392,11.13281 0.0392,11.13281 11.85157,7.99219 0.0312,-31.03125 0.0392,-29.843755 z m -136,0.0236 4.09375,4.054688 v 28.710936 c 0,15.793605 0.02716,29.803915 0.05469,31.132825 v 0.008 c 0.03556,1.71012 0.07398,4.10556 0.132812,4.07031 0.196896,-0.11748 28.479302,-23.73919 28.515626,-23.79688 0.0216,-0.0352 -0.1636,-0.20652 -0.414064,-0.3828 l -0.460936,-0.32812 V 89.109005 68.726193 l -1.726566,-1.328128 -1.734376,-1.343748 -14.468748,-0.0236 C 32.541125,66.015469 27.953011,65.978657 28,66.022697 Z m 22.578124,7.890628 0.6875,0.31252 0.679688,0.30468 v 11.171876 20.000005 l -11.828124,8.66406 c -0.14072,0.0484 -0.15548,-14.707455 -0.125,-26.390625 l 0.02344,-14.02344 5.27344,-0.0156 z m 31.265628,0.14064 c 0.525052,-0.04272 0.617512,-0.0268 1.359372,0.32032 l 0.781252,0.3672 L 84,92.772697 c 0.003,7.934893 -0.04072,18.026453 -0.09376,18.023443 L 72.015624,102.28833 V 90.116449 L 72,74.733637 l 0.734376,-0.32032 0.72656,-0.32032 H 77.375 c 2.151856,0 4.160492,-0.014 4.468752,-0.0392 z m 24.312498,0 c 0.30828,0.0252 2.31689,0.0392 4.46875,0.0392 h 3.91406 l 0.72656,0.32032 0.73438,0.32032 -0.0156,15.382812 v 12.171879 l -11.89062,8.50781 c -0.0531,0.003 -0.0968,-10.08888 -0.0938,-18.023773 l 0.0156,-18.031248 0.78125,-0.3672 c 0.74186,-0.34712 0.83432,-0.36304 1.35937,-0.32032 z"
     id="path8" />
  <path
     inkscape:connector-curvature="0"
     style="fill:#ffffff;stroke-width:4"
     d="m 67.554688,64 -1.77344,1.359376 -1.773436,1.359376 V 86.453124 L 64,106.19531 82.101564,120 92,112.42188 91.9844,89.578124 91.9608,66.726564 90.218752,65.359376 88.460936,64 H 78.007812 Z m 31.984376,0 -1.757816,1.359376 -1.742184,1.367188 -0.0236,22.85156 L 96,112.42188 105.89844,120 124,106.19531 123.992,86.453124 V 66.718752 L 122.21875,65.359376 120.44531,64 H 109.99219 Z M 164,64 l -6.07031,0.18748 c -4.4398,-0.0304 -10.00116,-0.04688 -10.04688,-0.0312 L 144,75.640624 c 0,0 -3.99906,-11.643596 -4.92188,-11.421872 l -0.73437,-0.04688 c -0.40218,-0.0264 -2.88244,-0.04688 -5.51563,-0.04688 H 128 v 20.523436 21.726562 l -0.3828,0.29688 c -0.33632,0.24172 -0.39848,0.32228 -0.32032,0.39844 l 12.60937,8.64844 0.0312,-8.41406 c 0.0352,-7.736962 0.0474,-8.374434 0.15624,-8.023442 L 144,111.07031 l 4.03906,-12.249998 0.0392,11.132808 0.0392,11.13282 11.85157,7.99218 0.0312,-31.031244 0.0392,-29.843752 z m -136,0.0236 4.09375,4.054688 v 28.71094 c 0,15.793602 0.02716,29.803902 0.05469,31.132812 v 0.008 c 0.03556,1.71013 0.07398,4.10556 0.132812,4.07031 0.196896,-0.11748 28.479302,-23.73919 28.515626,-23.79687 0.0216,-0.0352 -0.1636,-0.20652 -0.414064,-0.3828 l -0.460936,-0.32812 V 87.109744 66.726932 L 58.195314,65.398804 56.460938,64.055056 41.99219,64.031456 C 32.541125,64.016208 27.953011,63.979396 28,64.023436 Z m 22.578124,7.890628 0.6875,0.31252 0.679688,0.30468 V 83.703304 103.7033 l -11.828124,8.66407 c -0.14072,0.0484 -0.15548,-14.707454 -0.125,-26.390626 l 0.02344,-14.02344 5.27344,-0.0156 z m 31.265628,0.14064 c 0.525052,-0.04272 0.617512,-0.0268 1.359372,0.32032 l 0.781252,0.3672 L 84,90.773436 c 0.003,7.934888 -0.04072,18.026454 -0.09376,18.023444 L 72.015624,100.28906 V 88.117188 L 72,72.734376 l 0.734376,-0.32032 0.72656,-0.32032 H 77.375 c 2.151856,0 4.160492,-0.014 4.468752,-0.0392 z m 24.312498,0 c 0.30828,0.0252 2.31689,0.0392 4.46875,0.0392 h 3.91406 l 0.72656,0.32032 0.73438,0.32032 -0.0156,15.382812 v 12.17188 l -11.89062,8.50781 c -0.0531,0.003 -0.0968,-10.088886 -0.0938,-18.023774 l 0.0156,-18.031248 0.78125,-0.3672 c 0.74186,-0.34712 0.83432,-0.36304 1.35937,-0.32032 z"
     id="path10" />
</svg>
