<?xml version="1.0" encoding="UTF-8" standalone="no"?>
<svg
   xmlns:dc="http://purl.org/dc/elements/1.1/"
   xmlns:cc="http://creativecommons.org/ns#"
   xmlns:rdf="http://www.w3.org/1999/02/22-rdf-syntax-ns#"
   xmlns:svg="http://www.w3.org/2000/svg"
   xmlns="http://www.w3.org/2000/svg"
   xmlns:sodipodi="http://sodipodi.sourceforge.net/DTD/sodipodi-0.dtd"
   xmlns:inkscape="http://www.inkscape.org/namespaces/inkscape"
   width="192"
   height="192"
   version="1"
   id="svg28"
   sodipodi:docname="google_fit.svg"
   inkscape:version="0.92.3 (2405546, 2018-03-11)">
  <metadata
     id="metadata34">
    <rdf:RDF>
      <cc:Work
         rdf:about="">
        <dc:format>image/svg+xml</dc:format>
        <dc:type
           rdf:resource="http://purl.org/dc/dcmitype/StillImage" />
      </cc:Work>
    </rdf:RDF>
  </metadata>
  <defs
     id="defs32">
    <filter
       inkscape:collect="always"
       style="color-interpolation-filters:sRGB"
       id="filter865"
       x="-0.064"
       width="1.128"
       y="-0.0384"
       height="1.0768">
      <feGaussianBlur
         inkscape:collect="always"
         stdDeviation="2.24"
         id="feGaussianBlur867" />
    </filter>
    <filter
       inkscape:collect="always"
       style="color-interpolation-filters:sRGB"
       id="filter881"
       x="-0.063999999"
       width="1.128"
       y="-0.0384"
       height="1.0768">
      <feGaussianBlur
         inkscape:collect="always"
         stdDeviation="2.24"
         id="feGaussianBlur883" />
    </filter>
    <filter
       inkscape:collect="always"
       style="color-interpolation-filters:sRGB"
       id="filter889"
       x="-0.038249999"
       width="1.0765"
       y="-0.017485715"
       height="1.0349714">
      <feGaussianBlur
         inkscape:collect="always"
         stdDeviation="1.02"
         id="feGaussianBlur891" />
    </filter>
    <filter
       inkscape:collect="always"
       style="color-interpolation-filters:sRGB"
       id="filter905"
       x="-0.050181824"
       width="1.1003636"
       y="-0.015771428"
       height="1.0315429">
      <feGaussianBlur
         inkscape:collect="always"
         stdDeviation="0.91999997"
         id="feGaussianBlur907" />
    </filter>
  </defs>
  <sodipodi:namedview
     pagecolor="#ffffff"
     bordercolor="#666666"
     borderopacity="1"
     objecttolerance="10"
     gridtolerance="10"
     guidetolerance="10"
     inkscape:pageopacity="0"
     inkscape:pageshadow="2"
     inkscape:window-width="1920"
     inkscape:window-height="1018"
     id="namedview30"
     showgrid="false"
     inkscape:zoom="1"
     inkscape:cx="96"
     inkscape:cy="112.95892"
     inkscape:window-x="0"
     inkscape:window-y="32"
     inkscape:window-maximized="1"
     inkscape:current-layer="svg28" />
  <path
     inkscape:connector-curvature="0"
     id="path2"
     d="m 138.41778,32.001031 c 20.55297,0.144356 38.79228,15.396433 41.54027,37.484781 0.60597,18.944692 -5.38657,26.699172 -15.77152,37.500418 -19.06203,19.81108 -61.41037,62.41726 -63.90088,63.98143 C 99.203544,171.64728 97.600236,171.97976 96,172 V 56 c 0.19588,0.05268 4.26569,-3.925188 9.00224,-8.34968 9.21499,-8.608187 12.743,-11.067588 18.97594,-13.232682 4.8269,-1.676682 9.6966,-2.44992 14.4396,-2.416607 z"
     style="opacity:0.2;stroke-width:4;filter:url(#filter881)" />
  <path
     inkscape:connector-curvature="0"
     id="path4"
     d="m 53.582224,32.001031 c -20.552977,0.144356 -38.792282,15.396433 -41.540272,37.484781 -0.60597,18.944692 5.386564,26.699172 15.771514,37.500418 19.062038,19.81108 61.41037,62.41726 63.900882,63.98143 C 92.796456,171.64728 94.399764,171.97976 96,172 V 56 C 95.80412,56.05268 91.734312,52.074812 86.997756,47.65032 77.782772,39.042133 74.254764,36.582732 68.02182,34.417638 c -4.8269,-1.676682 -9.6966,-2.44992 -14.439596,-2.416607 z"
     style="opacity:0.2;stroke-width:4;filter:url(#filter865)" />
  <path
     inkscape:connector-curvature="0"
     id="path6"
     d="m 138.41778,28.001031 c 20.55297,0.144356 38.79228,15.396433 41.54027,37.484781 0.60597,18.944692 -5.38657,26.699172 -15.77152,37.500418 -19.06203,19.81108 -61.41037,62.41726 -63.90088,63.98143 C 99.203544,167.64728 97.600236,167.97976 96,168 V 52 c 0.19588,0.05268 4.26569,-3.925188 9.00224,-8.34968 9.21499,-8.608187 12.743,-11.067588 18.97594,-13.232682 4.8269,-1.676682 9.6966,-2.44992 14.4396,-2.416607 z"
     style="fill:#8a134f;stroke-width:4" />
  <path
     style="opacity:0.1;fill:#ffffff;stroke-width:4"
     d="M 138.41406 28 C 133.67107 27.96669 128.80346 28.737381 123.97656 30.414062 C 117.74362 32.579158 114.21498 35.040254 105 43.648438 C 100.26344 48.07293 96.19588 52.05268 96 52 L 96 53 C 96.19588 53.05268 100.26344 49.07293 105 44.648438 C 114.21498 36.040254 117.74362 33.579158 123.97656 31.414062 C 128.80346 29.737381 133.67107 28.96669 138.41406 29 C 158.94257 29.144184 177.16749 44.360482 179.94922 66.40625 C 179.95577 66.103312 179.9714 65.814679 179.96094 65.484375 C 177.21279 43.396027 158.96704 28.144356 138.41406 28 z "
     id="path8" />
  <path
     inkscape:connector-curvature="0"
     id="path10"
     d="m 128.3183,30.001031 c 15.65942,0.144356 29.55603,15.396433 31.64974,37.484781 0.46168,18.944692 -4.10405,26.699172 -12.0164,37.500418 -14.52345,19.81108 -46.78885,62.41726 -48.686384,63.98143 C 98.440792,169.64728 97.219228,169.97976 96,170 V 54 c 0.14924,0.05268 3.250048,-3.925188 6.85885,-8.34968 7.02094,-8.608187 9.70895,-11.067588 14.45786,-13.232682 3.67763,-1.676682 7.38789,-2.44992 11.00159,-2.416607 z"
     style="opacity:0.2;stroke-width:4;filter:url(#filter889)" />
  <path
     inkscape:connector-curvature="0"
     id="path12"
     d="m 128.3183,28.001031 c 15.65942,0.144356 29.55603,15.396433 31.64974,37.484781 0.46168,18.944692 -4.10405,26.699172 -12.0164,37.500418 -14.52345,19.81108 -46.78885,62.41726 -48.686384,63.98143 C 98.440792,167.64728 97.219228,167.97976 96,168 V 52 c 0.14924,0.05268 3.250048,-3.925188 6.85885,-8.34968 7.02094,-8.608187 9.70895,-11.067588 14.45786,-13.232682 3.67763,-1.676682 7.38789,-2.44992 11.00159,-2.416607 z"
     style="fill:#ca186c;stroke-width:4" />
  <path
     style="opacity:0.1;fill:#ffffff;stroke-width:4"
     d="M 128.32031 28 C 124.7066 27.96668 120.99795 28.737381 117.32031 30.414062 C 112.5714 32.579158 109.88031 35.040254 102.85938 43.648438 C 99.250567 48.072929 96.14924 52.05268 96 52 L 96 53 C 96.14924 53.05268 99.250567 49.072929 102.85938 44.648438 C 109.88031 36.040254 112.5714 33.579158 117.32031 31.414062 C 120.99795 29.737381 124.7066 28.96668 128.32031 29 C 143.96295 29.144201 157.84425 44.364019 159.96094 66.414062 C 159.96544 66.108811 159.97678 65.81747 159.96875 65.484375 C 157.87507 43.396027 143.97972 28.144356 128.32031 28 z "
     id="path14" />
  <path
     inkscape:connector-curvature="0"
     id="path16"
     d="m 118.21884,30.001031 c 10.76584,0.144356 20.31976,15.396433 21.75918,37.484781 0.3174,18.944692 -2.82153,26.699172 -8.26127,37.500418 -9.98487,19.81108 -32.16733,62.41726 -33.471882,63.98143 C 97.678044,169.64728 96.838216,169.97976 96,170 V 54 c 0.1026,0.05268 2.234408,-3.925188 4.71546,-8.34968 4.8269,-8.608187 6.6749,-11.067588 9.93978,-13.232682 2.52837,-1.676682 5.07917,-2.44992 7.5636,-2.416607 z"
     style="opacity:0.2;stroke-width:4;filter:url(#filter905)" />
  <path
     inkscape:connector-curvature="0"
     id="path18"
     d="m 118.21884,28.001031 c 10.76584,0.144356 20.31976,15.396433 21.75918,37.484781 0.3174,18.944692 -2.82153,26.699172 -8.26127,37.500418 -9.98487,19.81108 -32.16733,62.41726 -33.471882,63.98143 C 97.678044,167.64728 96.838216,167.97976 96,168 V 52 c 0.1026,0.05268 2.234408,-3.925188 4.71546,-8.34968 4.8269,-8.608187 6.6749,-11.067588 9.93978,-13.232682 2.52837,-1.676682 5.07917,-2.44992 7.5636,-2.416607 z"
     style="fill:#ff9717;stroke-width:4" />
  <path
     inkscape:connector-curvature="0"
     id="path20"
     d="m 53.582224,28.001031 c -20.552977,0.144356 -38.792282,15.396433 -41.540272,37.484781 -0.60597,18.944692 5.386564,26.699172 15.771514,37.500418 19.062038,19.81108 61.41037,62.41726 63.900882,63.98143 C 92.796456,167.64728 94.399764,167.97976 96,168 V 52 C 95.80412,52.05268 91.734312,48.074812 86.997756,43.65032 77.782772,35.042133 74.254764,32.582732 68.02182,30.417638 c -4.8269,-1.676682 -9.6966,-2.44992 -14.439596,-2.416607 z"
     style="fill:#dc4f43;stroke-width:4" />
  <path
     style="opacity:0.2;fill:#ffffff;stroke-width:4"
     d="M 53.585938 28 C 33.032964 28.144356 14.78705 43.396027 12.039062 65.484375 C 12.028497 65.814679 12.044223 66.103312 12.050781 66.40625 C 14.832347 44.360482 33.05744 29.144184 53.585938 29 C 58.328938 28.966687 63.196537 29.737381 68.023438 31.414062 C 74.256382 33.579157 77.785016 36.040253 87 44.648438 C 91.736556 49.072929 95.80412 53.05268 96 53 L 96 52 C 95.80412 52.05268 91.736556 48.07293 87 43.648438 C 77.785016 35.040254 74.256382 32.579157 68.023438 30.414062 C 63.196537 28.737381 58.328937 27.966687 53.585938 28 z "
     id="path22" />
  <path
     style="opacity:0.2;fill:#ffffff;stroke-width:4"
     d="M 118.21875 28 C 115.73432 27.96669 113.18463 28.737381 110.65625 30.414062 C 107.39138 32.579158 105.54564 35.040254 100.71875 43.648438 C 98.237696 48.072929 96.1026 52.05268 96 52 L 96 53 C 96.1026 53.05268 98.237696 49.072929 100.71875 44.648438 C 105.54564 36.040254 107.39138 33.579158 110.65625 31.414062 C 113.18463 29.737381 115.73432 28.96669 118.21875 29 C 128.97626 29.144244 138.52162 44.372915 139.97266 66.433594 C 139.9753 66.122097 139.98226 65.824467 139.97656 65.484375 C 138.53695 43.396027 128.98459 28.144356 118.21875 28 z "
     id="path24" />
</svg>
