<?xml version="1.0" encoding="UTF-8" standalone="no"?>
<svg
   xmlns:dc="http://purl.org/dc/elements/1.1/"
   xmlns:cc="http://creativecommons.org/ns#"
   xmlns:rdf="http://www.w3.org/1999/02/22-rdf-syntax-ns#"
   xmlns:svg="http://www.w3.org/2000/svg"
   xmlns="http://www.w3.org/2000/svg"
   xmlns:sodipodi="http://sodipodi.sourceforge.net/DTD/sodipodi-0.dtd"
   xmlns:inkscape="http://www.inkscape.org/namespaces/inkscape"
   width="192"
   height="192"
   version="1.1"
   id="svg14"
   sodipodi:docname="google_cloud_search.svg"
   inkscape:version="0.92.3 (2405546, 2018-03-11)">
  <metadata
     id="metadata20">
    <rdf:RDF>
      <cc:Work
         rdf:about="">
        <dc:format>image/svg+xml</dc:format>
        <dc:type
           rdf:resource="http://purl.org/dc/dcmitype/StillImage" />
      </cc:Work>
    </rdf:RDF>
  </metadata>
  <defs
     id="defs18">
    <filter
       inkscape:collect="always"
       style="color-interpolation-filters:sRGB"
       id="filter848"
       x="-0.041142857"
       width="1.0822857"
       y="-0.0576"
       height="1.1152">
      <feGaussianBlur
         inkscape:collect="always"
         stdDeviation="2.88"
         id="feGaussianBlur850" />
    </filter>
    <filter
       inkscape:collect="always"
       style="color-interpolation-filters:sRGB"
       id="filter868"
       x="-0.047999986"
       width="1.096"
       y="-0.048000014"
       height="1.096">
      <feGaussianBlur
         inkscape:collect="always"
         stdDeviation="1.5200502"
         id="feGaussianBlur870" />
    </filter>
  </defs>
  <sodipodi:namedview
     pagecolor="#ffffff"
     bordercolor="#666666"
     borderopacity="1"
     objecttolerance="10"
     gridtolerance="10"
     guidetolerance="10"
     inkscape:pageopacity="0"
     inkscape:pageshadow="2"
     inkscape:window-width="1920"
     inkscape:window-height="1018"
     id="namedview16"
     showgrid="false"
     inkscape:zoom="4.04"
     inkscape:cx="96"
     inkscape:cy="96"
     inkscape:window-x="0"
     inkscape:window-y="32"
     inkscape:window-maximized="1"
     inkscape:current-layer="svg14" />
  <path
     inkscape:connector-curvature="0"
     id="path2"
     d="m 72,40 a 60,60 0 0 0 -60,60 60,60 0 0 0 60,60 h 68 c 22.09139,0 40,-17.90861 40,-40 0,-22.091388 -17.90861,-40 -40,-40 H 128.5 A 60,60 0 0 0 72,40 Z"
     style="opacity:0.2;stroke-width:4;filter:url(#filter848)" />
  <path
     inkscape:connector-curvature="0"
     id="path4"
     d="m 72,36 a 60,60 0 0 0 -60,60 60,60 0 0 0 60,60 h 68 c 22.09139,0 40,-17.90861 40,-40 0,-22.091388 -17.90861,-40 -40,-40 H 128.5 A 60,60 0 0 0 72,36 Z"
     style="fill:#4989f4;stroke-width:4" />
  <path
     inkscape:connector-curvature="0"
     id="path6"
     d="m 72,66.0019 a 32,32 0 0 0 -32,32 32,32 0 0 0 32,32 32,32 0 0 0 16.929688,-4.89062 l 17.054692,15.35156 a 6.0020988,6.0020988 0 1 0 8.03124,-8.92188 l -16.249996,-14.625 A 32,32 0 0 0 104,98.0019 a 32,32 0 0 0 -32,-32 z m 0,12 a 20,20 0 0 1 20,20 20,20 0 0 1 -20,20 20,20 0 0 1 -20,-20 20,20 0 0 1 20,-20 z"
     style="opacity:0.2;stroke-width:4;filter:url(#filter868)" />
  <path
     inkscape:connector-curvature="0"
     id="path8"
     d="m 72,64.0019 a 32,32 0 0 0 -32,32 32,32 0 0 0 32,32 32,32 0 0 0 16.929688,-4.89062 l 17.054692,15.35156 a 6.0020988,6.0020988 0 1 0 8.03124,-8.92188 l -16.249996,-14.625 A 32,32 0 0 0 104,96.0019 a 32,32 0 0 0 -32,-32 z m 0,12 a 20,20 0 0 1 20,20 20,20 0 0 1 -20,20 20,20 0 0 1 -20,-20 20,20 0 0 1 20,-20 z"
     style="fill:#ffffff;stroke-width:4" />
  <path
     style="opacity:0.2;fill:#ffffff;stroke-width:4"
     d="M 72 36 A 60 60 0 0 0 12 96 A 60 60 0 0 0 12.019531 96.429688 A 60 60 0 0 1 72 37 A 60 60 0 0 1 128.5 77 L 140 77 C 161.8746 77 179.63764 94.561518 179.98438 116.35352 C 179.99101 116.23605 180 116.11943 180 116 C 180 93.908612 162.09139 76 140 76 L 128.5 76 A 60 60 0 0 0 72 36 z "
     id="path10" />
</svg>
