<?xml version="1.0" encoding="UTF-8" standalone="no"?>
<svg
   xmlns:dc="http://purl.org/dc/elements/1.1/"
   xmlns:cc="http://creativecommons.org/ns#"
   xmlns:rdf="http://www.w3.org/1999/02/22-rdf-syntax-ns#"
   xmlns:svg="http://www.w3.org/2000/svg"
   xmlns="http://www.w3.org/2000/svg"
   xmlns:sodipodi="http://sodipodi.sourceforge.net/DTD/sodipodi-0.dtd"
   xmlns:inkscape="http://www.inkscape.org/namespaces/inkscape"
   width="192"
   height="192"
   version="1"
   id="svg18"
   sodipodi:docname="google_pdfviewer.svg"
   inkscape:version="0.92.3 (2405546, 2018-03-11)">
  <metadata
     id="metadata24">
    <rdf:RDF>
      <cc:Work
         rdf:about="">
        <dc:format>image/svg+xml</dc:format>
        <dc:type
           rdf:resource="http://purl.org/dc/dcmitype/StillImage" />
      </cc:Work>
    </rdf:RDF>
  </metadata>
  <defs
     id="defs22">
    <filter
       inkscape:collect="always"
       style="color-interpolation-filters:sRGB"
       id="filter889"
       x="-0.037098877"
       width="1.0741978"
       y="-0.067973236"
       height="1.1359465">
      <feGaussianBlur
         inkscape:collect="always"
         stdDeviation="1.392014"
         id="feGaussianBlur891" />
    </filter>
    <filter
       inkscape:collect="always"
       style="color-interpolation-filters:sRGB"
       id="filter905"
       x="-0.048"
       width="1.096"
       y="-0.048"
       height="1.096">
      <feGaussianBlur
         inkscape:collect="always"
         stdDeviation="0.96"
         id="feGaussianBlur907" />
    </filter>
    <filter
       inkscape:collect="always"
       style="color-interpolation-filters:sRGB"
       id="filter925"
       x="-0.054"
       width="1.108"
       y="-0.0432"
       height="1.0864">
      <feGaussianBlur
         inkscape:collect="always"
         stdDeviation="2.88"
         id="feGaussianBlur927" />
    </filter>
  </defs>
  <sodipodi:namedview
     pagecolor="#ffffff"
     bordercolor="#666666"
     borderopacity="1"
     objecttolerance="10"
     gridtolerance="10"
     guidetolerance="10"
     inkscape:pageopacity="0"
     inkscape:pageshadow="2"
     inkscape:window-width="1920"
     inkscape:window-height="1018"
     id="namedview20"
     showgrid="false"
     inkscape:zoom="1"
     inkscape:cx="96"
     inkscape:cy="107.33131"
     inkscape:window-x="0"
     inkscape:window-y="32"
     inkscape:window-maximized="1"
     inkscape:current-layer="svg18" />
  <path
     inkscape:connector-curvature="0"
     id="path2"
     d="m 40,20 c -4.432,0 -8,3.568 -8,8 v 144 c 0,4.432 3.568,8 8,8 h 112 c 4.432,0 8,-3.568 8,-8 V 68 l -44,-4 -4,-44 z"
     style="opacity:0.2;stroke-width:4;filter:url(#filter925)" />
  <path
     inkscape:connector-curvature="0"
     id="path4"
     d="m 40,16 c -4.432,0 -8,3.568 -8,8 v 144 c 0,4.432 3.568,8 8,8 h 112 c 4.432,0 8,-3.568 8,-8 V 64 l -44,-4 -4,-44 z"
     style="fill:#c03630;stroke-width:4" />
  <path
     style="opacity:0.1;fill:#ffffff;stroke-width:4"
     d="M 40 16 C 35.568 16 32 19.568 32 24 L 32 25 C 32 20.568 35.568 17 40 17 L 112 17 L 159 64 L 160 64 L 112 16 L 40 16 z "
     id="path6" />
  <path
     inkscape:connector-curvature="0"
     id="path8"
     d="m 112,18 v 40 c 0,4.4184 3.58172,8 8,8 h 40 z"
     style="opacity:0.2;stroke-width:4;filter:url(#filter905)" />
  <path
     inkscape:connector-curvature="0"
     id="path10"
     d="m 112,16 v 40 c 0,4.4184 3.58172,8 8,8 h 40 z"
     style="fill:#f36961;stroke-width:4" />
  <path
     style="color:#000000;font-style:normal;font-variant:normal;font-weight:normal;font-stretch:normal;font-size:medium;line-height:normal;font-family:sans-serif;font-variant-ligatures:normal;font-variant-position:normal;font-variant-caps:normal;font-variant-numeric:normal;font-variant-alternates:normal;font-feature-settings:normal;text-indent:0;text-align:start;text-decoration:none;text-decoration-line:none;text-decoration-style:solid;text-decoration-color:#000000;letter-spacing:normal;word-spacing:normal;text-transform:none;writing-mode:lr-tb;direction:ltr;text-orientation:mixed;dominant-baseline:auto;baseline-shift:baseline;text-anchor:start;white-space:normal;shape-padding:0;clip-rule:nonzero;display:inline;overflow:visible;visibility:visible;opacity:0.2;isolation:auto;mix-blend-mode:normal;color-interpolation:sRGB;color-interpolation-filters:linearRGB;solid-color:#000000;solid-opacity:1;vector-effect:none;fill:#000000;fill-opacity:1;fill-rule:nonzero;stroke:none;stroke-width:8;stroke-linecap:round;stroke-linejoin:bevel;stroke-miterlimit:4;stroke-dasharray:none;stroke-dashoffset:0;stroke-opacity:1;color-rendering:auto;image-rendering:auto;shape-rendering:auto;text-rendering:auto;enable-background:accumulate;filter:url(#filter889)"
     d="m 58.068359,96.851232 c -1.527257,0.0073 -2.024586,0.08024 -2.523437,0.126954 a 4.0004,4.0004 0 0 0 -3.484375,1.322265 4.0004,4.0004 0 0 0 -1.003906,3.349609 v 19.69922 a 4.0004,4.0004 0 0 0 0,1.28125 v 19.3125 a 4.0004,4.0004 0 1 0 8,0 v -15.88867 c 1.969451,-0.0292 4.268359,-0.11506 6.791015,-0.64258 2.889781,-0.60429 5.989968,-1.65767 8.615235,-3.87305 C 77.088157,119.32336 79,115.71473 79,111.49967 79,107.28461 77.088141,103.676 74.462891,101.46061 71.83764,99.245212 68.737433,98.191892 65.847656,97.587561 62.957879,96.983229 60.15116,96.841259 58.068359,96.851232 Z m 27.871094,0.07617 A 4.0004,4.0004 0 0 0 82,100.98405 v 40.9414 a 4.0004,4.0004 0 0 0 4.619141,4.00391 c 1.190156,0.0768 5.812769,0.27839 11.197265,-2.24024 6.120054,-2.86268 12.308124,-9.94249 12.183594,-22.3164 -0.12428,-12.34936 -6.29054,-19.33904 -12.359375,-22.164066 -5.03175,-2.342262 -9.164018,-2.248882 -10.695313,-2.164062 a 4.0004,4.0004 0 0 0 -1.005859,-0.117188 z m 31.058597,0.01563 a 4.0004,4.0004 0 0 0 -2.74414,1.152344 4.0004,4.0004 0 0 0 -0.10743,0.103516 4.0004,4.0004 0 0 0 -1.08984,3.439451 v 18.70899 a 4.0004,4.0004 0 0 0 0,1.29101 v 20.30469 a 4.0004,4.0004 0 1 0 8,0 V 124.99967 H 137 a 4.0004,4.0004 0 1 0 0,-8 h -15.94336 v -12 H 137 a 4.0004,4.0004 0 1 0 0,-8 h -19.29297 a 4.0004,4.0004 0 0 0 -0.70898,-0.05664 z m -57.941409,7.998051 c 1.549134,0.029 3.33225,0.0959 5.152343,0.47656 2.096075,0.43835 3.981565,1.218 5.095704,2.1582 1.114137,0.9402 1.695312,1.80933 1.695312,3.92383 0,2.1145 -0.581191,2.98366 -1.695312,3.92383 -1.114124,0.94017 -2.999633,1.71988 -5.095704,2.1582 -1.82009,0.38061 -3.60321,0.44756 -5.152343,0.47656 z M 90,105.23795 c 1.29724,0.19845 2.756701,0.52117 4.263672,1.22266 3.838533,1.78682 7.635728,4.99605 7.736328,14.99218 0.10036,9.97155 -3.674466,13.16611 -7.574219,14.99024 -1.556656,0.72813 -3.079255,1.06443 -4.425781,1.27148 z"
     id="path864"
     inkscape:connector-curvature="0" />
  <path
     style="fill:none;stroke:#ffffff;stroke-width:8;stroke-linecap:round;stroke-linejoin:bevel;stroke-miterlimit:4;stroke-dasharray:none;stroke-opacity:1"
     d="m 86.07283,139.95927 c 0,0 20.15206,1.79909 19.92717,-20.54636 C 105.77512,97.06741 86.07283,99.01647 86.07283,99.01647 m -0.07243,40.90986 v -40.9428"
     id="path22"
     inkscape:connector-curvature="0"
     sodipodi:nodetypes="csccc" />
  <path
     style="fill:none;stroke:#ffffff;stroke-width:8;stroke-linecap:round;stroke-linejoin:bevel;stroke-miterlimit:4;stroke-dasharray:none;stroke-opacity:1"
     d="M 117.05697,119 H 137 M 117.05697,98.99973 H 137 m -19.94252,40.9433 v -40.9428"
     id="path26"
     inkscape:connector-curvature="0"
     sodipodi:nodetypes="cccccc" />
  <path
     style="fill:none;stroke:#ffffff;stroke-width:8;stroke-linecap:round;stroke-linejoin:bevel;stroke-miterlimit:4;stroke-dasharray:none;stroke-opacity:1"
     d="M 55.056592,120 C 55.056592,120 75,122.15913 75,109.5 75,96.84089 55.056592,98.99973 55.056592,98.99973 m 5.03e-4,40.9433 v -40.9428"
     id="path30"
     inkscape:connector-curvature="0"
     sodipodi:nodetypes="csccc" />
</svg>
