<?xml version="1.0" encoding="UTF-8" standalone="no"?>
<svg
   xmlns:dc="http://purl.org/dc/elements/1.1/"
   xmlns:cc="http://creativecommons.org/ns#"
   xmlns:rdf="http://www.w3.org/1999/02/22-rdf-syntax-ns#"
   xmlns:svg="http://www.w3.org/2000/svg"
   xmlns="http://www.w3.org/2000/svg"
   xmlns:sodipodi="http://sodipodi.sourceforge.net/DTD/sodipodi-0.dtd"
   xmlns:inkscape="http://www.inkscape.org/namespaces/inkscape"
   width="192"
   height="192"
   version="1"
   id="svg28"
   sodipodi:docname="google_android_tv_remote.svg"
   inkscape:version="0.92.3 (2405546, 2018-03-11)">
  <metadata
     id="metadata34">
    <rdf:RDF>
      <cc:Work
         rdf:about="">
        <dc:format>image/svg+xml</dc:format>
        <dc:type
           rdf:resource="http://purl.org/dc/dcmitype/StillImage" />
      </cc:Work>
    </rdf:RDF>
  </metadata>
  <defs
     id="defs32">
    <filter
       inkscape:collect="always"
       style="color-interpolation-filters:sRGB"
       id="filter879"
       x="-0.0432"
       width="1.0864"
       y="-0.054"
       height="1.108">
      <feGaussianBlur
         inkscape:collect="always"
         stdDeviation="2.88"
         id="feGaussianBlur881" />
    </filter>
    <filter
       inkscape:collect="always"
       style="color-interpolation-filters:sRGB"
       id="filter895"
       x="-0.048"
       width="1.096"
       y="-0.048"
       height="1.096">
      <feGaussianBlur
         inkscape:collect="always"
         stdDeviation="2.24"
         id="feGaussianBlur897" />
    </filter>
    <filter
       inkscape:collect="always"
       style="color-interpolation-filters:sRGB"
       id="filter911"
       x="-0.048"
       width="1.096"
       y="-0.048"
       height="1.096">
      <feGaussianBlur
         inkscape:collect="always"
         stdDeviation="0.96"
         id="feGaussianBlur913" />
    </filter>
    <filter
       inkscape:collect="always"
       style="color-interpolation-filters:sRGB"
       id="filter931"
       x="-0.02225"
       width="1.0445"
       y="-0.02604878"
       height="1.0520976">
      <feGaussianBlur
         inkscape:collect="always"
         stdDeviation="0.89"
         id="feGaussianBlur933" />
    </filter>
  </defs>
  <sodipodi:namedview
     pagecolor="#ffffff"
     bordercolor="#666666"
     borderopacity="1"
     objecttolerance="10"
     gridtolerance="10"
     guidetolerance="10"
     inkscape:pageopacity="0"
     inkscape:pageshadow="2"
     inkscape:window-width="1920"
     inkscape:window-height="1018"
     id="namedview30"
     showgrid="false"
     inkscape:zoom="1"
     inkscape:cx="96"
     inkscape:cy="73.272727"
     inkscape:window-x="0"
     inkscape:window-y="32"
     inkscape:window-maximized="1"
     inkscape:current-layer="svg28" />
  <rect
     style="opacity:0.2;fill:#000000;stroke-width:4;filter:url(#filter879)"
     width="128"
     height="160"
     x="-148"
     y="-176"
     rx="8"
     ry="8"
     transform="matrix(0,-1,-1,0,0,0)"
     id="rect853" />
  <rect
     id="rect4"
     transform="matrix(0,-1,-1,0,0,0)"
     ry="8"
     rx="8"
     y="-176"
     x="-144"
     height="160"
     width="128"
     style="fill:#0fa0e6;stroke-width:4" />
  <path
     style="opacity:0.2;fill:#ffffff;stroke-width:4"
     d="M 24 16 C 19.568 16 16 19.568 16 24 L 16 25 C 16 20.568 19.568 17 24 17 L 168 17 C 172.432 17 176 20.568 176 25 L 176 24 C 176 19.568 172.432 16 168 16 L 24 16 z "
     id="path6" />
  <path
     inkscape:connector-curvature="0"
     id="path8"
     d="M 96,68 A 56,56 0 0 0 40,124 56,56 0 0 0 96,180 56,56 0 0 0 152,124 56,56 0 0 0 96,68 Z"
     style="opacity:0.2;fill-rule:evenodd;stroke-width:4;filter:url(#filter895)" />
  <path
     inkscape:connector-curvature="0"
     id="path10"
     d="M 96,64 A 56,56 0 0 0 40,120 56,56 0 0 0 96,176 56,56 0 0 0 152,120 56,56 0 0 0 96,64 Z"
     style="fill:#e4e4e4;fill-rule:evenodd;stroke-width:4" />
  <path
     inkscape:connector-curvature="0"
     id="path12"
     d="M 96,98 A 24,24 0 0 1 120,122 24,24 0 0 1 96,146 24,24 0 0 1 72,122 24,24 0 0 1 96,98 Z"
     style="opacity:0.1;fill-rule:evenodd;stroke-width:4;filter:url(#filter911)" />
  <path
     inkscape:connector-curvature="0"
     id="path14"
     d="M 96,96 A 24,24 0 0 1 120,120 24,24 0 0 1 96,144 24,24 0 0 1 72,120 24,24 0 0 1 96,96 Z"
     style="fill:#4f4f4f;fill-rule:evenodd;stroke-width:4" />
  <path
     style="opacity:0.3;fill-rule:evenodd;stroke-width:3.39619279"
     d="M 96 72 L 90 80 L 84 88 L 96 88 L 108 88 L 102 80 L 96 72 z M 64 108 L 56 114 L 48 120 L 56 126 L 64 132 L 64 120 L 64 108 z M 128 108 L 128 120 L 128 132 L 136 126 L 144 120 L 136 114 L 128 108 z M 84 152 L 90 160 L 96 168 L 102 160 L 108 152 L 96 152 L 84 152 z "
     id="path16" />
  <path
     style="opacity:0.2;fill:#ffffff;fill-rule:evenodd;stroke-width:4"
     d="M 96 64 A 56 56 0 0 0 40 120 A 56 56 0 0 0 40.019531 120.42383 A 56 56 0 0 1 96 65 A 56 56 0 0 1 151.98047 120.5957 A 56 56 0 0 0 152 120 A 56 56 0 0 0 96 64 z "
     id="path24" />
  <path
     style="opacity:0.2;fill-rule:evenodd;stroke-width:3.39619279;fill:#000000;filter:url(#filter931)"
     d="M 96 72 L 90 80 L 84 88 L 85.5 88 L 90 82 L 96 74 L 102 82 L 106.5 88 L 108 88 L 102 80 L 96 72 z M 64 108 L 56 114 L 48 120 L 49.333984 121 L 56 116 L 64 110 L 64 108 z M 128 108 L 128 110 L 136 116 L 142.66602 121 L 144 120 L 136 114 L 128 108 z M 84 152 L 85.5 154 L 96 154 L 106.5 154 L 108 152 L 96 152 L 84 152 z "
     id="path922" />
</svg>
