<?xml version="1.0" encoding="UTF-8" standalone="no"?>
<svg
   xmlns:dc="http://purl.org/dc/elements/1.1/"
   xmlns:cc="http://creativecommons.org/ns#"
   xmlns:rdf="http://www.w3.org/1999/02/22-rdf-syntax-ns#"
   xmlns:svg="http://www.w3.org/2000/svg"
   xmlns="http://www.w3.org/2000/svg"
   xmlns:sodipodi="http://sodipodi.sourceforge.net/DTD/sodipodi-0.dtd"
   xmlns:inkscape="http://www.inkscape.org/namespaces/inkscape"
   width="192"
   height="192"
   version="1"
   id="svg14"
   sodipodi:docname="google_duo.svg"
   inkscape:version="0.92.3 (2405546, 2018-03-11)">
  <metadata
     id="metadata20">
    <rdf:RDF>
      <cc:Work
         rdf:about="">
        <dc:format>image/svg+xml</dc:format>
        <dc:type
           rdf:resource="http://purl.org/dc/dcmitype/StillImage" />
      </cc:Work>
    </rdf:RDF>
  </metadata>
  <defs
     id="defs18">
    <filter
       inkscape:collect="always"
       style="color-interpolation-filters:sRGB"
       id="filter848"
       x="-0.048"
       width="1.096"
       y="-0.048"
       height="1.096">
      <feGaussianBlur
         inkscape:collect="always"
         stdDeviation="3.2"
         id="feGaussianBlur850" />
    </filter>
    <filter
       inkscape:collect="always"
       style="color-interpolation-filters:sRGB"
       id="filter864"
       x="-0.0408"
       width="1.0816"
       y="-0.058285714"
       height="1.1165714">
      <feGaussianBlur
         inkscape:collect="always"
         stdDeviation="1.36"
         id="feGaussianBlur866" />
    </filter>
  </defs>
  <sodipodi:namedview
     pagecolor="#ffffff"
     bordercolor="#666666"
     borderopacity="1"
     objecttolerance="10"
     gridtolerance="10"
     guidetolerance="10"
     inkscape:pageopacity="0"
     inkscape:pageshadow="2"
     inkscape:window-width="1920"
     inkscape:window-height="1018"
     id="namedview16"
     showgrid="false"
     inkscape:zoom="3.2796268"
     inkscape:cx="96"
     inkscape:cy="96"
     inkscape:window-x="0"
     inkscape:window-y="32"
     inkscape:window-maximized="1"
     inkscape:current-layer="svg14" />
  <path
     inkscape:connector-curvature="0"
     id="path2"
     d="m 96,20 c -44.32,0 -80,35.68 -80,80 0,44.32 35.68,80 80,80 44.32,0 80,-35.68 80,-80 V 28 c 0,-4.432 -3.568,-8 -8,-8 z"
     style="opacity:0.2;stroke-width:4;filter:url(#filter848)" />
  <path
     inkscape:connector-curvature="0"
     id="path4"
     d="m 96,16 c -44.32,0 -80,35.68 -80,80 0,44.32 35.68,80 80,80 44.32,0 80,-35.68 80,-80 V 24 c 0,-4.432 -3.568,-8 -8,-8 z"
     style="fill:#548fef;stroke-width:4" />
  <path
     style="opacity:0.2;fill:#ffffff;stroke-width:4"
     d="M 96 16 C 51.68 16 16 51.68 16 96 C 16 96.116718 16.005372 96.231698 16.007812 96.347656 C 16.356433 52.330881 51.897996 17 96 17 L 168 17 C 172.432 17 176 20.568 176 25 L 176 24 C 176 19.568 172.432 16 168 16 L 96 16 z "
     id="path6" />
  <path
     inkscape:connector-curvature="0"
     id="path8"
     d="m 68,70 c -4.432,0 -8,3.568 -8,8 v 40 c 0,4.432 3.568,8 8,8 h 48 c 4.432,0 8,-3.568 8,-8 v -12 l 16,16 V 74 L 124,90 V 78 c 0,-4.432 -3.568,-8 -8,-8 z"
     style="opacity:0.2;fill-rule:evenodd;stroke-width:4;filter:url(#filter864)" />
  <path
     inkscape:connector-curvature="0"
     id="path10"
     d="m 68,68 c -4.432,0 -8,3.568 -8,8 v 40 c 0,4.432 3.568,8 8,8 h 48 c 4.432,0 8,-3.568 8,-8 v -12 l 16,16 V 72 L 124,88 V 76 c 0,-4.432 -3.568,-8 -8,-8 z"
     style="fill:#ffffff;fill-rule:evenodd;stroke-width:4" />
</svg>
