<?xml version="1.0" encoding="UTF-8" standalone="no"?>
<svg
   xmlns:dc="http://purl.org/dc/elements/1.1/"
   xmlns:cc="http://creativecommons.org/ns#"
   xmlns:rdf="http://www.w3.org/1999/02/22-rdf-syntax-ns#"
   xmlns:svg="http://www.w3.org/2000/svg"
   xmlns="http://www.w3.org/2000/svg"
   xmlns:sodipodi="http://sodipodi.sourceforge.net/DTD/sodipodi-0.dtd"
   xmlns:inkscape="http://www.inkscape.org/namespaces/inkscape"
   width="192"
   height="192"
   version="1.1"
   id="svg28"
   sodipodi:docname="google_street.svg"
   inkscape:version="0.92.3 (2405546, 2018-03-11)">
  <metadata
     id="metadata34">
    <rdf:RDF>
      <cc:Work
         rdf:about="">
        <dc:format>image/svg+xml</dc:format>
        <dc:type
           rdf:resource="http://purl.org/dc/dcmitype/StillImage" />
      </cc:Work>
    </rdf:RDF>
  </metadata>
  <defs
     id="defs32">
    <filter
       inkscape:collect="always"
       style="color-interpolation-filters:sRGB"
       id="filter880"
       x="-0.048001172"
       width="1.0960023"
       y="-0.047998828"
       height="1.0959977">
      <feGaussianBlur
         inkscape:collect="always"
         stdDeviation="3.2000781"
         id="feGaussianBlur882" />
    </filter>
    <filter
       inkscape:collect="always"
       style="color-interpolation-filters:sRGB"
       id="filter888"
       x="-0.024"
       width="1.048"
       y="-0.024"
       height="1.048">
      <feGaussianBlur
         inkscape:collect="always"
         stdDeviation="0.88"
         id="feGaussianBlur890" />
    </filter>
    <filter
       inkscape:collect="always"
       style="color-interpolation-filters:sRGB"
       id="filter904"
       x="-0.048000001"
       width="1.096"
       y="-0.047999999"
       height="1.096">
      <feGaussianBlur
         inkscape:collect="always"
         stdDeviation="0.96000002"
         id="feGaussianBlur906" />
    </filter>
  </defs>
  <sodipodi:namedview
     pagecolor="#ffffff"
     bordercolor="#666666"
     borderopacity="1"
     objecttolerance="10"
     gridtolerance="10"
     guidetolerance="10"
     inkscape:pageopacity="0"
     inkscape:pageshadow="2"
     inkscape:window-width="1920"
     inkscape:window-height="1018"
     id="namedview30"
     showgrid="false"
     inkscape:zoom="1"
     inkscape:cx="96"
     inkscape:cy="96"
     inkscape:window-x="0"
     inkscape:window-y="32"
     inkscape:window-maximized="1"
     inkscape:current-layer="svg28" />
  <path
     style="opacity:0.2;fill:#000000;stroke-width:4;filter:url(#filter880)"
     d="m 161.85938,19.992188 -0.006,0.01367 0.006,-0.0059 z m -0.006,0.01367 -5.44727,5.4375 L 149.05859,20 H 24 c -4.432,0 -8,3.568 -8,8 v 137.61133 6.1289 c 0,4.432 3.568,8 8,8 h 0.259766 L 24,180 H 160.60156 168 c 4.432,0 8,-3.568 8,-8 V 116.67188 47.945312 l -0.18555,-0.318359 -1.40429,-13.089844 -5.50196,0.689453 -0.0937,0.0957 c -0.66779,-0.922532 -1.51734,-1.808498 -2.82226,-2.775391 l -7.39649,-5.480469 z"
     id="path853"
     inkscape:connector-curvature="0" />
  <path
     inkscape:connector-curvature="0"
     id="path4"
     d="M 173.17314,168.17668 176,112.67138 V 43.944792 l -4.01506,-6.895858 c -2.23003,-3.830087 -2.43148,-5.863329 -5.99247,-8.501882 L 149.05897,16 H 24 c -4.432,0 -8,3.568 -8,8 V 161.61131 L 18.120141,168 c 1.395937,4.20642 3.085551,5.37128 7.293287,6.76325 L 29.151944,176 H 160.60071 l 5.63251,-1.23675 c 4.32887,-0.95051 6.7145,-2.16031 6.93992,-6.58657 z"
     style="fill:#1ea362;stroke-width:4" />
  <path
     style="opacity:0.1;fill:#ffffff;stroke-width:4"
     d="M 24 16 C 19.568 16 16 19.568 16 24 L 16 25 C 16 20.568 19.568 17 24 17 L 149.5625 17 L 150.0625 16 L 24 16 z "
     id="path6" />
  <path
     inkscape:connector-curvature="0"
     id="path8"
     d="m 174.40989,30.537102 -5.50103,0.689703 -67.63542,68.929445 H 82.281248 c -4.432,0 -8,3.568 -8,8 v 17.5625 L 24,176 h 144 l -26.9375,-26.9375 c 1.21248,-1.4016 1.97656,-3.20373 1.97656,-5.21094 v -2.32812 L 176,168 V 45.356892 Z"
     style="fill:#e4e4e4;fill-rule:evenodd;stroke-width:4" />
  <path
     inkscape:connector-curvature="0"
     id="path10"
     d="M 161.86,16 144.23111,33.597466 16,161.6 v 6.14 c 0,4.432 3.568,8 8,8 h 6.1484 l 126.96863,-126.74926 4.32879,-9.816861 -1.50564,-7.654046 c -0.85544,-4.348661 -4.33574,-1.968011 -2.4793,-5.992472 l 4.39872,-9.535759 z"
     style="fill:#ffffff;fill-rule:evenodd;stroke-width:4" />
  <circle
     id="circle12"
     r="44"
     cy="54"
     cx="140"
     style="opacity:0.1;stroke-width:4;filter:url(#filter888)" />
  <circle
     id="circle14"
     r="44"
     cy="52"
     cx="140"
     style="fill:#ffb505;stroke-width:4" />
  <path
     inkscape:connector-curvature="0"
     id="path16"
     d="M 142.25781,104 C 116,104 91.999988,116 92,135.97656 V 176 h 76 c 4.432,0 8,-3.568 8,-8 V 111.11719 C 167.10214,106.62937 155.28181,104 142.25781,104 Z"
     style="fill:#ffb505;fill-rule:evenodd;stroke-width:4" />
  <path
     inkscape:connector-curvature="0"
     id="path18"
     d="m 142.25781,104 c -11.83296,0 -23.18324,2.4552 -32.10937,6.96094 l 9.42968,9.4375 23.57813,23.60156 22.42187,-24 8.9375,-9.5625 C 165.80232,106.37976 154.58556,104 142.25781,104 Z"
     style="fill:#fa7102;fill-rule:evenodd;stroke-width:4" />
  <path
     style="opacity:0.2;fill:#ffffff;fill-rule:evenodd;stroke-width:4"
     d="M 140 8 A 44 44 0 0 0 96 52 A 44 44 0 0 0 96.019531 52.466797 A 44 44 0 0 1 140 9 A 44 44 0 0 1 183.97266 52.472656 A 44 44 0 0 0 184 52 A 44 44 0 0 0 140 8 z "
     id="path20" />
  <path
     inkscape:connector-curvature="0"
     id="path22"
     d="m 52.492188,29.999998 c -9.4024,0 -17.792326,5.40125 -21.875,13.28125 C 28.947374,46.521248 28,50.159996 28,54 c 0,3.96 1.009722,7.72 2.773438,11 4.135748,7.719992 12.430666,13 21.71875,13 6.16892,0 11.68048,-2.31626 15.820312,-6.156252 C 73.064732,67.443736 76,61.08 76,54 76,52.635088 75.87224,51.304144 75.66408,50 H 72.000016 67.460952 52.000016 v 8 h 15.468748 c -0.89478,3.464072 -2.924764,6.528304 -5.76564,8.703124 A 16,16 0 0 1 52,70 16,16 0 0 1 37.179688,60.007812 16,16 0 0 1 36,54 16,16 0 0 1 37.125,48.140624 16,16 0 0 1 52,37.999998 16,16 0 0 1 62.765624,42.195312 l 5.828124,-5.796876 c -4.164332,-3.96 -9.789748,-6.398438 -16.10156,-6.398438 z"
     style="opacity:0.2;stroke-width:4;filter:url(#filter904)" />
  <path
     inkscape:connector-curvature="0"
     id="path24"
     d="m 52.492188,27.999998 c -9.4024,0 -17.792326,5.40125 -21.875,13.28125 C 28.947374,44.521248 28,48.159996 28,52 c 0,3.96 1.009722,7.72 2.773438,11 4.135748,7.719992 12.430666,13 21.71875,13 6.16892,0 11.68048,-2.31626 15.820312,-6.156252 C 73.064732,65.443736 76,59.08 76,52 76,50.635088 75.87224,49.304144 75.66408,48 H 72.000016 67.460952 52.000016 v 8 h 15.468748 c -0.89478,3.464072 -2.924764,6.528304 -5.76564,8.703124 A 16,16 0 0 1 52,68 16,16 0 0 1 37.179688,58.007812 16,16 0 0 1 36,52 16,16 0 0 1 37.125,46.140624 16,16 0 0 1 52,35.999998 16,16 0 0 1 62.765624,40.195312 l 5.828124,-5.796876 c -4.164332,-3.96 -9.789748,-6.398438 -16.10156,-6.398438 z"
     style="fill:#ffffff;stroke-width:4" />
</svg>
