<?xml version="1.0" encoding="UTF-8" standalone="no"?>
<svg
   xmlns:dc="http://purl.org/dc/elements/1.1/"
   xmlns:cc="http://creativecommons.org/ns#"
   xmlns:rdf="http://www.w3.org/1999/02/22-rdf-syntax-ns#"
   xmlns:svg="http://www.w3.org/2000/svg"
   xmlns="http://www.w3.org/2000/svg"
   xmlns:sodipodi="http://sodipodi.sourceforge.net/DTD/sodipodi-0.dtd"
   xmlns:inkscape="http://www.inkscape.org/namespaces/inkscape"
   width="192"
   height="192"
   version="1"
   id="svg22"
   sodipodi:docname="google_cloudprint.svg"
   inkscape:version="0.92.3 (2405546, 2018-03-11)">
  <metadata
     id="metadata28">
    <rdf:RDF>
      <cc:Work
         rdf:about="">
        <dc:format>image/svg+xml</dc:format>
        <dc:type
           rdf:resource="http://purl.org/dc/dcmitype/StillImage" />
      </cc:Work>
    </rdf:RDF>
  </metadata>
  <defs
     id="defs26">
    <filter
       inkscape:collect="always"
       style="color-interpolation-filters:sRGB"
       id="filter860"
       x="-0.046666667"
       width="1.0933333"
       y="-0.049411765"
       height="1.0988235">
      <feGaussianBlur
         inkscape:collect="always"
         stdDeviation="1.4"
         id="feGaussianBlur862" />
    </filter>
    <filter
       inkscape:collect="always"
       style="color-interpolation-filters:sRGB"
       id="filter878"
       x="-0.040363636"
       width="1.0807273"
       y="-0.0592"
       height="1.1184">
      <feGaussianBlur
         inkscape:collect="always"
         stdDeviation="2.96"
         id="feGaussianBlur880" />
    </filter>
    <filter
       inkscape:collect="always"
       style="color-interpolation-filters:sRGB"
       id="filter898"
       x="-0.04"
       width="1.08"
       y="-0.06"
       height="1.12">
      <feGaussianBlur
         inkscape:collect="always"
         stdDeviation="0.8"
         id="feGaussianBlur900" />
    </filter>
    <filter
       inkscape:collect="always"
       style="color-interpolation-filters:sRGB"
       id="filter914"
       x="-0.012778846"
       width="1.0255577"
       y="-0.19688889"
       height="1.3937778">
      <feGaussianBlur
         inkscape:collect="always"
         stdDeviation="0.55375"
         id="feGaussianBlur916" />
    </filter>
  </defs>
  <sodipodi:namedview
     pagecolor="#ffffff"
     bordercolor="#666666"
     borderopacity="1"
     objecttolerance="10"
     gridtolerance="10"
     guidetolerance="10"
     inkscape:pageopacity="0"
     inkscape:pageshadow="2"
     inkscape:window-width="1920"
     inkscape:window-height="1018"
     id="namedview24"
     showgrid="false"
     inkscape:zoom="1"
     inkscape:cx="96"
     inkscape:cy="96"
     inkscape:window-x="0"
     inkscape:window-y="32"
     inkscape:window-maximized="1"
     inkscape:current-layer="svg22" />
  <path
     style="opacity:0.2;fill:#000000;stroke-width:4;filter:url(#filter878)"
     d="M 96,28 C 73.22,28 53.82,41.832 45.468,61.408 24.2628,64.536 8,82.464 8,104.364 8,128.464 27.6996,148 52,148 h 93.5 C 166.764,148 184,130.904 184,109.82 184,90.22 169.14,74.16 149.968,71.976 144.968,46.96 122.696,28 96,28 Z"
     id="path864"
     inkscape:connector-curvature="0" />
  <path
     inkscape:connector-curvature="0"
     id="path4"
     d="M 96,24 C 73.22,24 53.82,37.832 45.468,57.408 24.2628,60.536 8,78.464 8,100.364 8,124.464 27.6996,144 52,144 h 93.5 C 166.764,144 184,126.904 184,105.82 184,86.22 169.14,70.16 149.968,67.976 144.968,42.96 122.696,24 96,24 Z"
     style="fill:#e4e4e4;stroke-width:4" />
  <rect
     id="rect6"
     ry="6"
     rx="6"
     y="100"
     x="44"
     height="12"
     width="104"
     style="fill:#4f4f4f;stroke-width:4" />
  <path
     inkscape:connector-curvature="0"
     id="path8"
     d="m 60,104 v 60 c 0,4.432 3.568,8 8,8 h 56 c 4.432,0 8,-3.568 8,-8 v -60 z"
     style="opacity:0.1;fill-rule:evenodd;stroke-width:4;filter:url(#filter860)" />
  <path
     inkscape:connector-curvature="0"
     id="path10"
     d="m 60,100 v 60 c 0,4.432 3.568,8 8,8 h 56 c 4.432,0 8,-3.568 8,-8 v -60 z"
     style="fill:#4c7dce;fill-rule:evenodd;stroke-width:4" />
  <path
     inkscape:connector-curvature="0"
     id="path12"
     d="m 72,122 v 8 h 48 v -8 z m 0,12 v 8 h 48 v -8 z m 0,12 v 8 h 48 v -8 z"
     style="opacity:0.2;fill-rule:evenodd;stroke-width:4;filter:url(#filter898)" />
  <path
     inkscape:connector-curvature="0"
     id="path14"
     d="m 72,120 v 8 h 48 v -8 z m 0,12 v 8 h 48 v -8 z m 0,12 v 8 h 48 v -8 z"
     style="fill:#ffffff;fill-rule:evenodd;stroke-width:4" />
  <path
     inkscape:connector-curvature="0"
     id="path16"
     d="m 50,100 c -3.324,0 -6,2.676 -6,6 0,0.26532 0.10344,0.49636 0.14064,0.75 C 44.714188,104.03195 47.106308,102 50,102 h 92 c 2.89369,0 5.28581,2.03195 5.85938,4.75 C 147.89658,106.49636 148,106.26532 148,106 c 0,-3.324 -2.676,-6 -6,-6 z"
     style="opacity:0.1;fill-rule:evenodd;stroke-width:4;filter:url(#filter914)" />
  <path
     style="opacity:0.2;fill:#ffffff;stroke-width:4"
     d="M 96 24 C 73.22 24 53.82075 37.830252 45.46875 57.40625 C 24.263548 60.534254 8 78.467185 8 100.36719 C 8 100.47467 8.009438 100.5797 8.015625 100.68555 C 8.3503338 79.097216 24.484858 61.501608 45.46875 58.40625 C 53.82075 38.830252 73.22 25 96 25 C 122.696 25 144.96875 43.960562 149.96875 68.976562 C 168.92032 71.135453 183.64798 86.855606 183.98438 106.14844 C 183.99059 106.03929 184 105.93099 184 105.82031 C 183.99998 86.220315 169.14075 70.160562 149.96875 67.976562 C 144.96875 42.960562 122.696 24 96 24 z "
     id="path18" />
</svg>
