<?xml version="1.0" encoding="UTF-8" standalone="no"?>
<svg
   xmlns:dc="http://purl.org/dc/elements/1.1/"
   xmlns:cc="http://creativecommons.org/ns#"
   xmlns:rdf="http://www.w3.org/1999/02/22-rdf-syntax-ns#"
   xmlns:svg="http://www.w3.org/2000/svg"
   xmlns="http://www.w3.org/2000/svg"
   xmlns:sodipodi="http://sodipodi.sourceforge.net/DTD/sodipodi-0.dtd"
   xmlns:inkscape="http://www.inkscape.org/namespaces/inkscape"
   width="192"
   height="192"
   version="1"
   id="svg26"
   sodipodi:docname="google_blogger.svg"
   inkscape:version="0.92.3 (2405546, 2018-03-11)">
  <metadata
     id="metadata32">
    <rdf:RDF>
      <cc:Work
         rdf:about="">
        <dc:format>image/svg+xml</dc:format>
        <dc:type
           rdf:resource="http://purl.org/dc/dcmitype/StillImage" />
      </cc:Work>
    </rdf:RDF>
  </metadata>
  <defs
     id="defs30">
    <filter
       inkscape:collect="always"
       style="color-interpolation-filters:sRGB"
       id="filter868"
       x="-0.054"
       width="1.108"
       y="-0.0432"
       height="1.0864">
      <feGaussianBlur
         inkscape:collect="always"
         stdDeviation="2.88"
         id="feGaussianBlur870" />
    </filter>
    <filter
       inkscape:collect="always"
       style="color-interpolation-filters:sRGB"
       id="filter891"
       x="-0.048"
       width="1.096"
       y="-0.048"
       height="1.096">
      <feGaussianBlur
         inkscape:collect="always"
         stdDeviation="1.955"
         id="feGaussianBlur893" />
    </filter>
  </defs>
  <sodipodi:namedview
     pagecolor="#ffffff"
     bordercolor="#666666"
     borderopacity="1"
     objecttolerance="10"
     gridtolerance="10"
     guidetolerance="10"
     inkscape:pageopacity="0"
     inkscape:pageshadow="2"
     inkscape:window-width="1920"
     inkscape:window-height="1018"
     id="namedview28"
     showgrid="false"
     inkscape:zoom="1"
     inkscape:cx="96"
     inkscape:cy="94.048469"
     inkscape:window-x="0"
     inkscape:window-y="32"
     inkscape:window-maximized="1"
     inkscape:current-layer="svg26" />
  <path
     style="opacity:0.2;fill:#000000;stroke-width:4;filter:url(#filter868)"
     d="M 160,172 V 28 c 0,-4.432 -3.568,-8 -8,-8 H 40 c -4.432,0 -8,3.568 -8,8 v 144 c 0,4.432 3.568,8 8,8 h 112 c 4.432,0 8,-3.568 8,-8 z"
     id="path850"
     inkscape:connector-curvature="0" />
  <path
     inkscape:connector-curvature="0"
     id="path4"
     d="M 160,168 V 24 c 0,-4.432 -3.568,-8 -8,-8 H 40 c -4.432,0 -8,3.568 -8,8 v 144 c 0,4.432 3.568,8 8,8 h 112 c 4.432,0 8,-3.568 8,-8 z"
     style="fill:#f79138;stroke-width:4" />
  <g
     id="g12"
     transform="matrix(0.8184,0,0,0.8184,56,58)"
     style="opacity:0.2;filter:url(#filter891)">
    <path
       inkscape:connector-curvature="0"
       id="path6"
       d="m 36.491,40.31 c 0,0 13.827,-0.006 13.858,-0.006 3.201,0 5.82,-2.344 5.873,-5.556 0.051,-3.244 -2.537,-6.15 -5.781,-6.201 l -13.766,0.016 c -3.249,-0.031 -5.914,2.537 -5.966,5.78 -0.051,3.243 2.538,5.915 5.782,5.967 z" />
    <path
       inkscape:connector-curvature="0"
       id="path8"
       d="M 62.55,55.48 H 35.021 c -3.244,0 -5.875,2.631 -5.875,5.875 0,3.244 2.631,5.873 5.875,5.873 H 62.55 c 3.244,0 5.875,-2.629 5.875,-5.873 0,-3.244 -2.631,-5.875 -5.875,-5.875 z" />
    <path
       inkscape:connector-curvature="0"
       id="path10"
       d="M 48.875,0 C 21.883,0 0,21.882 0,48.875 0,75.868 21.883,97.75 48.875,97.75 75.867,97.75 97.75,75.868 97.75,48.875 97.75,21.882 75.867,0 48.875,0 Z m 27.902,77.021 c -3.776,3.889 -9.108,5.972 -15.42,6.024 H 36.688 c -0.155,0.002 -0.31,0.003 -0.463,0.003 -7.074,0 -12.534,-1.994 -16.227,-5.927 -3.694,-3.935 -4.878,-9.256 -4.878,-16.649 0.007,-0.51 -0.042,-1.006 -0.011,-1.496 l 0.013,-25.991 c 0.305,-6.445 3.185,-10.431 5.353,-12.713 3.503,-3.689 8.455,-5.56 14.721,-5.56 h 0.174 l 16.11,-0.012 0.15,0.004 c 10.533,0.292 18.123,7.623 18.197,17.822 0.275,3.063 0.104,5.896 -0.493,8.452 3.541,0.105 7.91,0.725 10.741,4.383 2.5,3.23 2.516,6.903 2.537,11.985 0.006,1.04 0.035,3.688 0.035,3.688 -0.068,6.579 -2.098,12.109 -5.87,15.987 z" />
  </g>
  <g
     id="g20"
     transform="matrix(0.8184,0,0,0.8184,56,56)"
     style="fill:#ffffff">
    <path
       inkscape:connector-curvature="0"
       id="path14"
       d="m 36.491,40.31 c 0,0 13.827,-0.006 13.858,-0.006 3.201,0 5.82,-2.344 5.873,-5.556 0.051,-3.244 -2.537,-6.15 -5.781,-6.201 l -13.766,0.016 c -3.249,-0.031 -5.914,2.537 -5.966,5.78 -0.051,3.243 2.538,5.915 5.782,5.967 z" />
    <path
       inkscape:connector-curvature="0"
       id="path16"
       d="M 62.55,55.48 H 35.021 c -3.244,0 -5.875,2.631 -5.875,5.875 0,3.244 2.631,5.873 5.875,5.873 H 62.55 c 3.244,0 5.875,-2.629 5.875,-5.873 0,-3.244 -2.631,-5.875 -5.875,-5.875 z" />
    <path
       inkscape:connector-curvature="0"
       id="path18"
       d="M 48.875,0 C 21.883,0 0,21.882 0,48.875 0,75.868 21.883,97.75 48.875,97.75 75.867,97.75 97.75,75.868 97.75,48.875 97.75,21.882 75.867,0 48.875,0 Z m 27.902,77.021 c -3.776,3.889 -9.108,5.972 -15.42,6.024 H 36.688 c -0.155,0.002 -0.31,0.003 -0.463,0.003 -7.074,0 -12.534,-1.994 -16.227,-5.927 -3.694,-3.935 -4.878,-9.256 -4.878,-16.649 0.007,-0.51 -0.042,-1.006 -0.011,-1.496 l 0.013,-25.991 c 0.305,-6.445 3.185,-10.431 5.353,-12.713 3.503,-3.689 8.455,-5.56 14.721,-5.56 h 0.174 l 16.11,-0.012 0.15,0.004 c 10.533,0.292 18.123,7.623 18.197,17.822 0.275,3.063 0.104,5.896 -0.493,8.452 3.541,0.105 7.91,0.725 10.741,4.383 2.5,3.23 2.516,6.903 2.537,11.985 0.006,1.04 0.035,3.688 0.035,3.688 -0.068,6.579 -2.098,12.109 -5.87,15.987 z" />
  </g>
  <path
     style="opacity:0.2;fill:#ffffff;stroke-width:4"
     d="M 40 16 C 35.568 16 32 19.568 32 24 L 32 25 C 32 20.568 35.568 17 40 17 L 152 17 C 156.432 17 160 20.568 160 25 L 160 24 C 160 19.568 156.432 16 152 16 L 40 16 z "
     id="path22" />
</svg>
