<?xml version="1.0" encoding="UTF-8" standalone="no"?>
<svg
   xmlns:dc="http://purl.org/dc/elements/1.1/"
   xmlns:cc="http://creativecommons.org/ns#"
   xmlns:rdf="http://www.w3.org/1999/02/22-rdf-syntax-ns#"
   xmlns:svg="http://www.w3.org/2000/svg"
   xmlns="http://www.w3.org/2000/svg"
   xmlns:sodipodi="http://sodipodi.sourceforge.net/DTD/sodipodi-0.dtd"
   xmlns:inkscape="http://www.inkscape.org/namespaces/inkscape"
   width="192"
   height="192"
   version="1"
   id="svg18"
   sodipodi:docname="google_cardboard_design.svg"
   inkscape:version="0.92.3 (2405546, 2018-03-11)">
  <metadata
     id="metadata24">
    <rdf:RDF>
      <cc:Work
         rdf:about="">
        <dc:format>image/svg+xml</dc:format>
        <dc:type
           rdf:resource="http://purl.org/dc/dcmitype/StillImage" />
      </cc:Work>
    </rdf:RDF>
  </metadata>
  <defs
     id="defs22">
    <filter
       inkscape:collect="always"
       style="color-interpolation-filters:sRGB"
       id="filter859"
       x="-0.048"
       width="1.096"
       y="-0.048"
       height="1.096">
      <feGaussianBlur
         inkscape:collect="always"
         stdDeviation="3.2"
         id="feGaussianBlur861" />
    </filter>
    <filter
       inkscape:collect="always"
       style="color-interpolation-filters:sRGB"
       id="filter878"
       x="-0.038571429"
       width="1.0771429"
       y="-0.063529412"
       height="1.1270588">
      <feGaussianBlur
         inkscape:collect="always"
         stdDeviation="1.8"
         id="feGaussianBlur880" />
    </filter>
  </defs>
  <sodipodi:namedview
     pagecolor="#ffffff"
     bordercolor="#666666"
     borderopacity="1"
     objecttolerance="10"
     gridtolerance="10"
     guidetolerance="10"
     inkscape:pageopacity="0"
     inkscape:pageshadow="2"
     inkscape:window-width="1920"
     inkscape:window-height="1018"
     id="namedview20"
     showgrid="false"
     inkscape:zoom="1"
     inkscape:cx="96"
     inkscape:cy="96"
     inkscape:window-x="0"
     inkscape:window-y="32"
     inkscape:window-maximized="1"
     inkscape:current-layer="svg18" />
  <rect
     style="opacity:0.2;fill:#000000;stroke-width:4;filter:url(#filter859)"
     width="160"
     height="160"
     x="-180"
     y="-176"
     rx="8"
     ry="8"
     transform="matrix(0,-1,-1,0,0,0)"
     id="rect841" />
  <rect
     id="rect4"
     transform="matrix(0,-1,-1,0,0,0)"
     ry="8"
     rx="8"
     y="-176"
     x="-176"
     height="160"
     width="160"
     style="fill:#069de6;stroke-width:4" />
  <path
     inkscape:connector-curvature="0"
     id="path6"
     d="M 32,16 V 32 H 16 v 4 H 32 V 52 H 16 v 4 H 32 V 72 H 16 v 4 H 32 V 96 H 16 v 4 h 16 v 16 H 16 v 4 h 16 v 16 H 16 v 4 h 16 v 16 H 16 v 4 h 16 v 16 h 4 v -16 h 16 v 16 h 4 v -16 h 16 v 16 h 4 v -16 h 16 v 16 h 4 v -16 h 20 v 16 h 4 v -16 h 16 v 16 h 4 v -16 h 16 v 16 h 4 v -16 h 16 v -4 h -16 v -16 h 16 v -4 h -16 v -16 h 16 v -4 h -16 v -16 h 16 V 96 H 160 V 76 h 16 V 72 H 160 V 56 h 16 V 52 H 160 V 36 h 16 V 32 H 160 V 16 h -4 V 32 H 140 V 16 h -4 V 32 H 120 V 16 h -4 V 32 H 96 V 16 H 92 V 32 H 76 V 16 H 72 V 32 H 56 V 16 H 52 V 32 H 36 V 16 Z m 4,20 H 52 V 52 H 36 Z m 20,0 H 72 V 52 H 56 Z m 20,0 H 92 V 52 H 76 Z m 20,0 h 20 V 52 H 96 Z m 24,0 h 16 v 16 h -16 z m 20,0 h 16 V 52 H 140 Z M 36,56 H 52 V 72 H 36 Z m 20,0 H 72 V 72 H 56 Z m 20,0 H 92 V 72 H 76 Z m 20,0 h 20 V 72 H 96 Z m 24,0 h 16 v 16 h -16 z m 20,0 h 16 V 72 H 140 Z M 36,76 H 52 V 96 H 36 Z m 20,0 H 72 V 96 H 56 Z m 20,0 H 92 V 96 H 76 Z m 20,0 h 20 V 96 H 96 Z m 24,0 h 16 v 20 h -16 z m 20,0 h 16 V 96 H 140 Z M 36,100 h 16 v 16 H 36 Z m 20,0 h 16 v 16 H 56 Z m 20,0 h 16 v 16 H 76 Z m 20,0 h 20 v 16 H 96 Z m 24,0 h 16 v 16 h -16 z m 20,0 h 16 v 16 H 140 Z M 36,120 h 16 v 16 H 36 Z m 20,0 h 16 v 16 H 56 Z m 20,0 h 16 v 16 H 76 Z m 20,0 h 20 v 16 H 96 Z m 24,0 h 16 v 16 h -16 z m 20,0 h 16 v 16 H 140 Z M 36,140 h 16 v 16 H 36 Z m 20,0 h 16 v 16 H 56 Z m 20,0 h 16 v 16 H 76 Z m 20,0 h 20 v 16 H 96 Z m 24,0 h 16 v 16 h -16 z m 20,0 h 16 v 16 h -16 z"
     style="opacity:0.1;stroke-width:4" />
  <path
     style="opacity:0.2;fill:#ffffff;stroke-width:4"
     d="M 24 16 C 19.568 16 16 19.568 16 24 L 16 25 C 16 20.568 19.568 17 24 17 L 168 17 C 172.432 17 176 20.568 176 25 L 176 24 C 176 19.568 172.432 16 168 16 L 24 16 z "
     id="path8" />
  <path
     inkscape:connector-curvature="0"
     id="path10"
     d="M 53.335936,56 C 50.381272,56 48,58.381272 48,61.335936 V 68 h 8 v -4 h 80 v 4 h 8 V 61.335936 C 144,58.381272 141.61873,56 138.66406,56 Z m 29.5625,64 -5.91406,8 h 37.414064 l -5.66406,-8 z"
     style="opacity:0.6;fill:#ffffff;fill-rule:evenodd;stroke-width:4" />
  <path
     inkscape:connector-curvature="0"
     id="path12"
     d="M 45.335936,70 C 42.381272,70 40,72.336528 40,75.234376 V 132.76562 C 40,135.66347 42.381272,138 45.335936,138 h 29.328128 c 8,0 10.669268,-28 21.335936,-28 10.66667,0 13.33594,28 21.33594,28 h 29.32812 C 149.61873,138 152,135.66347 152,132.76562 V 75.234376 C 152,72.336528 149.61873,70 146.66406,70 Z M 48,78 h 96 v 52 h -24.67969 c -0.14288,-0.19992 -0.11564,-0.12108 -0.29688,-0.42969 -1.05289,-1.79276 -2.45774,-5.12014 -4,-8.71875 -1.54225,-3.5986 -3.21288,-7.49648 -5.80468,-11.125 C 106.62695,106.09804 102.16667,102 96,102 c -6.166668,0 -10.626944,4.09804 -13.218752,7.72656 -2.5918,3.62852 -4.262428,7.5264 -5.804684,11.125 -1.54226,3.59861 -2.947112,6.92599 -4,8.71875 -0.18124,0.30864 -0.154,0.22976 -0.29688,0.42969 H 48 Z M 68,90 A 12,12 0 0 0 56,102 12,12 0 0 0 68,114 12,12 0 0 0 80,102 12,12 0 0 0 68,90 Z m 56,0 a 12,12 0 0 0 -12,12 12,12 0 0 0 12,12 12,12 0 0 0 12,-12 12,12 0 0 0 -12,-12 z"
     style="opacity:0.2;fill-rule:evenodd;stroke-width:4;filter:url(#filter878)" />
  <path
     inkscape:connector-curvature="0"
     id="path14"
     d="M 45.335936,68 C 42.381272,68 40,70.336528 40,73.234376 V 130.76562 C 40,133.66347 42.381272,136 45.335936,136 h 29.328128 c 8,0 10.669268,-28 21.335936,-28 10.66667,0 13.33594,28 21.33594,28 h 29.32812 C 149.61873,136 152,133.66347 152,130.76562 V 73.234376 C 152,70.336528 149.61873,68 146.66406,68 Z M 48,76 h 96 v 52 h -24.67969 c -0.14288,-0.19992 -0.11564,-0.12108 -0.29688,-0.42969 -1.05289,-1.79276 -2.45774,-5.12014 -4,-8.71875 -1.54225,-3.5986 -3.21288,-7.49648 -5.80468,-11.125 C 106.62695,104.09804 102.16667,100 96,100 c -6.166668,0 -10.626944,4.09804 -13.218752,7.72656 -2.5918,3.62852 -4.262428,7.5264 -5.804684,11.125 -1.54226,3.59861 -2.947112,6.92599 -4,8.71875 -0.18124,0.30864 -0.154,0.22976 -0.29688,0.42969 H 48 Z M 68,88 A 12,12 0 0 0 56,100 12,12 0 0 0 68,112 12,12 0 0 0 80,100 12,12 0 0 0 68,88 Z m 56,0 a 12,12 0 0 0 -12,12 12,12 0 0 0 12,12 12,12 0 0 0 12,-12 12,12 0 0 0 -12,-12 z"
     style="fill:#ffffff;fill-rule:evenodd;stroke-width:4" />
</svg>
