<?xml version="1.0" encoding="UTF-8" standalone="no"?>
<svg
   xmlns:dc="http://purl.org/dc/elements/1.1/"
   xmlns:cc="http://creativecommons.org/ns#"
   xmlns:rdf="http://www.w3.org/1999/02/22-rdf-syntax-ns#"
   xmlns:svg="http://www.w3.org/2000/svg"
   xmlns="http://www.w3.org/2000/svg"
   xmlns:sodipodi="http://sodipodi.sourceforge.net/DTD/sodipodi-0.dtd"
   xmlns:inkscape="http://www.inkscape.org/namespaces/inkscape"
   width="192"
   height="192"
   version="1"
   id="svg16"
   sodipodi:docname="google_ar_stickers.svg"
   inkscape:version="0.92.3 (2405546, 2018-03-11)">
  <metadata
     id="metadata22">
    <rdf:RDF>
      <cc:Work
         rdf:about="">
        <dc:format>image/svg+xml</dc:format>
        <dc:type
           rdf:resource="http://purl.org/dc/dcmitype/StillImage" />
      </cc:Work>
    </rdf:RDF>
  </metadata>
  <defs
     id="defs20">
    <filter
       inkscape:collect="always"
       style="color-interpolation-filters:sRGB"
       id="filter851"
       x="-0.047999898"
       width="1.0959998"
       y="-0.048000102"
       height="1.0960002">
      <feGaussianBlur
         inkscape:collect="always"
         stdDeviation="2.8799938"
         id="feGaussianBlur853" />
    </filter>
    <filter
       inkscape:collect="always"
       style="color-interpolation-filters:sRGB"
       id="filter859"
       x="-0.024000406"
       width="1.0480008"
       y="-0.023999594"
       height="1.0479992">
      <feGaussianBlur
         inkscape:collect="always"
         stdDeviation="0.88770103"
         id="feGaussianBlur861" />
    </filter>
  </defs>
  <sodipodi:namedview
     pagecolor="#ffffff"
     bordercolor="#666666"
     borderopacity="1"
     objecttolerance="10"
     gridtolerance="10"
     guidetolerance="10"
     inkscape:pageopacity="0"
     inkscape:pageshadow="2"
     inkscape:window-width="1920"
     inkscape:window-height="1018"
     id="namedview18"
     showgrid="false"
     inkscape:zoom="3.52"
     inkscape:cx="96"
     inkscape:cy="96"
     inkscape:window-x="0"
     inkscape:window-y="32"
     inkscape:window-maximized="1"
     inkscape:current-layer="svg16" />
  <path
     inkscape:connector-curvature="0"
     id="path2"
     d="m 96,36.000611 c -5.002176,0 -10.003012,1.917075 -13.835936,5.750002 l -50.25,50.250001 h -7.914062 v 15.999996 c 0,5.00218 1.917074,10.00301 5.75,13.83594 l 52.414062,52.41406 c 7.665848,7.66585 20.006026,7.66585 27.671876,0 L 162.25,121.83655 c 3.83292,-3.83293 5.75,-8.83376 5.75,-13.83594 V 92.000614 h -7.91406 l -50.25,-50.250001 C 106.00301,37.917686 101.00218,36.000611 96,36.000611 Z"
     style="opacity:0.2;stroke-width:4;filter:url(#filter851)" />
  <path
     inkscape:connector-curvature="0"
     id="path4"
     d="m 96,32 c -5.002176,0 -10.003012,1.917075 -13.835936,5.75 l -50.25,50.25 h -7.914062 v 16 c 0,5.00218 1.917074,10.00301 5.75,13.83594 L 82.164064,170.25 c 7.665848,7.66585 20.006026,7.66585 27.671876,0 L 162.25,117.83594 C 166.08292,114.00301 168,109.00218 168,104 V 88 h -7.91406 l -50.25,-50.25 C 106.00301,33.917075 101.00218,32 96,32 Z"
     style="fill:#cccccc;stroke-width:4" />
  <rect
     id="rect6"
     transform="matrix(-0.70710678,-0.70710678,-0.70710678,0.70710678,0,0)"
     ry="19.568001"
     rx="19.568001"
     y="-62.279999"
     x="-186.75999"
     height="113.26"
     width="113.26"
     style="fill:#e4e4e4;stroke-width:4" />
  <path
     style="opacity:0.2;fill:#ffffff;stroke-width:4"
     d="M 96 16 C 90.997824 16 85.996986 17.917075 82.164062 21.75 L 29.75 74.164062 C 25.934461 77.979596 24.137657 82.946062 24.140625 87.923828 C 24.366565 83.285605 26.189995 78.724063 29.75 75.164062 L 82.164062 22.75 C 85.996986 18.917075 90.997824 17 96 17 C 101.00218 17 106.00301 18.917075 109.83594 22.75 L 162.25 75.164062 C 165.81001 78.724063 167.63344 83.285605 167.85938 87.923828 C 167.86235 82.946062 166.06554 77.979596 162.25 74.164062 L 109.83594 21.75 C 106.00301 17.917075 101.00218 16 96 16 z "
     id="path8" />
  <path
     inkscape:connector-curvature="0"
     id="path10"
     d="m 99,41.320312 a 12,12 0 0 0 -8.656248,3.515624 12,12 0 0 0 0,16.968752 12,12 0 0 0 16.968748,0 12,12 0 0 0 0,-16.968752 A 12,12 0 0 0 99,41.320312 Z M 124.28125,61.804688 67.718752,118.375 c 15.620968,15.62097 40.941528,15.62097 56.562498,0 15.62097,-15.62097 15.62097,-40.949344 0,-56.570312 z M 59.406248,80.914064 a 12,12 0 0 0 -8.66406,3.515624 12,12 0 0 0 0,16.968752 12,12 0 0 0 16.976564,0 12,12 0 0 0 0,-16.968752 12,12 0 0 0 -8.312504,-3.515624 z"
     style="opacity:0.1;stroke-width:4;filter:url(#filter859)" />
  <path
     inkscape:connector-curvature="0"
     id="path12"
     d="m 99,39.320312 a 12,12 0 0 0 -8.656248,3.515624 12,12 0 0 0 0,16.968752 12,12 0 0 0 16.968748,0 12,12 0 0 0 0,-16.968752 A 12,12 0 0 0 99,39.320312 Z M 124.28125,59.804688 67.718752,116.375 c 15.620968,15.62097 40.941528,15.62097 56.562498,0 15.62097,-15.62097 15.62097,-40.949344 0,-56.570312 z M 59.406248,78.914064 a 12,12 0 0 0 -8.66406,3.515624 12,12 0 0 0 0,16.968748 12,12 0 0 0 16.976564,0 12,12 0 0 0 0,-16.968748 12,12 0 0 0 -8.312504,-3.515624 z"
     style="fill:#3f575e;stroke-width:4" />
</svg>
