<?xml version="1.0" encoding="UTF-8" standalone="no"?>
<svg
   xmlns:dc="http://purl.org/dc/elements/1.1/"
   xmlns:cc="http://creativecommons.org/ns#"
   xmlns:rdf="http://www.w3.org/1999/02/22-rdf-syntax-ns#"
   xmlns:svg="http://www.w3.org/2000/svg"
   xmlns="http://www.w3.org/2000/svg"
   xmlns:sodipodi="http://sodipodi.sourceforge.net/DTD/sodipodi-0.dtd"
   xmlns:inkscape="http://www.inkscape.org/namespaces/inkscape"
   width="192"
   height="192"
   version="1"
   id="svg22"
   sodipodi:docname="google_files_go.svg"
   inkscape:version="0.92.3 (2405546, 2018-03-11)">
  <metadata
     id="metadata28">
    <rdf:RDF>
      <cc:Work
         rdf:about="">
        <dc:format>image/svg+xml</dc:format>
        <dc:type
           rdf:resource="http://purl.org/dc/dcmitype/StillImage" />
      </cc:Work>
    </rdf:RDF>
  </metadata>
  <defs
     id="defs26">
    <filter
       inkscape:collect="always"
       style="color-interpolation-filters:sRGB"
       id="filter860"
       x="-0.0432"
       width="1.0864"
       y="-0.054"
       height="1.108">
      <feGaussianBlur
         inkscape:collect="always"
         stdDeviation="2.88"
         id="feGaussianBlur862" />
    </filter>
    <filter
       inkscape:collect="always"
       style="color-interpolation-filters:sRGB"
       id="filter880"
       x="-0.048"
       width="1.096"
       y="-0.048"
       height="1.096">
      <feGaussianBlur
         inkscape:collect="always"
         stdDeviation="1.6"
         id="feGaussianBlur882" />
    </filter>
    <filter
       inkscape:collect="always"
       style="color-interpolation-filters:sRGB"
       id="filter900"
       x="-0.048"
       width="1.096"
       y="-0.048"
       height="1.096">
      <feGaussianBlur
         inkscape:collect="always"
         stdDeviation="1.6"
         id="feGaussianBlur902" />
    </filter>
  </defs>
  <sodipodi:namedview
     pagecolor="#ffffff"
     bordercolor="#666666"
     borderopacity="1"
     objecttolerance="10"
     gridtolerance="10"
     guidetolerance="10"
     inkscape:pageopacity="0"
     inkscape:pageshadow="2"
     inkscape:window-width="1920"
     inkscape:window-height="1018"
     id="namedview24"
     showgrid="false"
     inkscape:zoom="1"
     inkscape:cx="96"
     inkscape:cy="96"
     inkscape:window-x="0"
     inkscape:window-y="32"
     inkscape:window-maximized="1"
     inkscape:current-layer="svg22" />
  <path
     inkscape:connector-curvature="0"
     id="path2"
     d="m 96,36 -80,80 v 40 c 0,4.432 3.568,8 8,8 h 144 c 4.432,0 8,-3.568 8,-8 V 44 c 0,-4.432 -3.568,-8 -8,-8 z"
     style="opacity:0.2;stroke-width:4;filter:url(#filter860)" />
  <rect
     id="rect4"
     ry="10"
     rx="8"
     y="48"
     x="16"
     height="80"
     width="120"
     style="fill:#1fa363;stroke-width:4" />
  <path
     style="opacity:0.1;fill:#ffffff;fill-rule:evenodd;stroke-width:4"
     d="M 24 48 C 19.568 48 16 52.46 16 58 L 16 59 C 16 53.46 19.568 49 24 49 L 128 49 C 132.432 49 136 53.46 136 59 L 136 58 C 136 52.46 132.432 48 128 48 L 24 48 z "
     id="path6" />
  <path
     inkscape:connector-curvature="0"
     id="path8"
     d="m 96,32 -80,80 v 40 c 0,4.432 3.568,8 8,8 h 144 c 4.432,0 8,-3.568 8,-8 V 40 c 0,-4.432 -3.568,-8 -8,-8 z"
     style="fill:#4587f3;stroke-width:4" />
  <path
     inkscape:connector-curvature="0"
     id="path10"
     d="m 96,34 -80,80 h 72 c 4.432,0 8,-3.568 8,-8 V 42 Z"
     style="opacity:0.2;fill-rule:evenodd;stroke-width:4;filter:url(#filter880)" />
  <path
     inkscape:connector-curvature="0"
     id="path12"
     d="m 96,32 -80,80 h 72 c 4.432,0 8,-3.568 8,-8 V 40 Z"
     style="fill:#dd4d3e;fill-rule:evenodd;stroke-width:4" />
  <path
     inkscape:connector-curvature="0"
     id="path14"
     d="M 96,34 16,114 C 35.556379,107.8977 54.174684,102.32728 63.453124,99.234376 76.290336,94.955168 78.656796,91.060288 81.789064,79.554688 82.53396,76.818488 89.438256,54.010892 96,34 Z"
     style="opacity:0.2;fill-rule:evenodd;stroke-width:4;filter:url(#filter900)" />
  <path
     inkscape:connector-curvature="0"
     id="path16"
     d="M 96,32 16,112 C 35.556379,105.8977 54.174684,100.32728 63.453124,97.234376 76.290336,92.955168 78.656796,89.060288 81.789064,77.554688 82.53396,74.818488 89.438256,52.010892 96,32 Z"
     style="fill:#f9bc14;fill-rule:evenodd;stroke-width:4" />
  <path
     style="opacity:0.2;fill:#ffffff;stroke-width:4"
     d="M 96 32 L 16 112 L 16 113 L 96 33 L 168 33 C 172.432 33 176 36.568 176 41 L 176 40 C 176 35.568 172.432 32 168 32 L 96 32 z "
     id="path18" />
</svg>
