<?xml version="1.0" encoding="UTF-8" standalone="no"?>
<svg
   xmlns:dc="http://purl.org/dc/elements/1.1/"
   xmlns:cc="http://creativecommons.org/ns#"
   xmlns:rdf="http://www.w3.org/1999/02/22-rdf-syntax-ns#"
   xmlns:svg="http://www.w3.org/2000/svg"
   xmlns="http://www.w3.org/2000/svg"
   xmlns:sodipodi="http://sodipodi.sourceforge.net/DTD/sodipodi-0.dtd"
   xmlns:inkscape="http://www.inkscape.org/namespaces/inkscape"
   width="192"
   height="192"
   version="1"
   id="svg14"
   sodipodi:docname="google_keep.svg"
   inkscape:version="0.92.3 (2405546, 2018-03-11)">
  <metadata
     id="metadata20">
    <rdf:RDF>
      <cc:Work
         rdf:about="">
        <dc:format>image/svg+xml</dc:format>
        <dc:type
           rdf:resource="http://purl.org/dc/dcmitype/StillImage" />
      </cc:Work>
    </rdf:RDF>
  </metadata>
  <defs
     id="defs18">
    <filter
       inkscape:collect="always"
       style="color-interpolation-filters:sRGB"
       id="filter850"
       x="-0.048"
       width="1.096"
       y="-0.048"
       height="1.096">
      <feGaussianBlur
         inkscape:collect="always"
         stdDeviation="3.2"
         id="feGaussianBlur852" />
    </filter>
    <filter
       inkscape:collect="always"
       style="color-interpolation-filters:sRGB"
       id="filter870"
       x="-0.06000154"
       width="1.1200031"
       y="-0.039999316"
       height="1.0799986">
      <feGaussianBlur
         inkscape:collect="always"
         stdDeviation="1.7999692"
         id="feGaussianBlur872" />
    </filter>
  </defs>
  <sodipodi:namedview
     pagecolor="#ffffff"
     bordercolor="#666666"
     borderopacity="1"
     objecttolerance="10"
     gridtolerance="10"
     guidetolerance="10"
     inkscape:pageopacity="0"
     inkscape:pageshadow="2"
     inkscape:window-width="1920"
     inkscape:window-height="1018"
     id="namedview16"
     showgrid="false"
     inkscape:zoom="3.77"
     inkscape:cx="96"
     inkscape:cy="96"
     inkscape:window-x="0"
     inkscape:window-y="32"
     inkscape:window-maximized="1"
     inkscape:current-layer="svg14" />
  <rect
     width="160"
     height="160"
     x="-180"
     y="-176"
     rx="8"
     ry="8"
     transform="matrix(0,-1,-1,0,0,0)"
     id="rect832"
     style="opacity:0.2;fill:#000000;stroke-width:4;filter:url(#filter850)" />
  <rect
     style="fill:#f4b400;stroke-width:4"
     id="rect4"
     transform="matrix(0,-1,-1,0,0,0)"
     ry="8"
     rx="8"
     y="-176"
     x="-176"
     height="160"
     width="160" />
  <path
     style="opacity:0.2;fill:#ffffff;stroke-width:4"
     d="M 24 16 C 19.568 16 16 19.568 16 24 L 16 25 C 16 20.568 19.568 17 24 17 L 168 17 C 172.432 17 176 20.568 176 25 L 176 24 C 176 19.568 172.432 16 168 16 L 24 16 z "
     id="path6" />
  <path
     inkscape:connector-curvature="0"
     id="path8"
     d="m 96,42 a 36,36 0 0 0 -36,36 36,36 0 0 0 13.3908,28 h -1.392 v 40 h 8 v 4 h 32 v -4 h 8 v -40 h -1.42188 a 36,36 0 0 0 13.42,-28 36,36 0 0 0 -36,-36 z m 0,8 A 28,28 0 0 1 124,78 28,28 0 0 1 96,106 28,28 0 0 1 68,78 28,28 0 0 1 96,50 Z m -16,64 h 32 v 8 H 80 Z m 0,16 h 32 v 8 H 80 Z"
     style="opacity:0.2;stroke-width:4;filter:url(#filter870)" />
  <path
     inkscape:connector-curvature="0"
     id="path10"
     d="M 96,40 A 36,36 0 0 0 60,76 36,36 0 0 0 72,102.76562 V 108 144 h 8 v 4 h 32 v -4 h 8 v -36 -4 -1.26562 A 36,36 0 0 0 132,76 36,36 0 0 0 96,40 Z m 0,8 A 28,28 0 0 1 124,76 28,28 0 0 1 96,104 28,28 0 0 1 68,76 28,28 0 0 1 96,48 Z m -16,64 h 32 v 8 H 80 Z m 0,16 h 32 v 8 H 80 Z"
     style="fill:#ffffff;stroke-width:4" />
</svg>
