<?xml version="1.0" encoding="UTF-8" standalone="no"?>
<svg
   xmlns:dc="http://purl.org/dc/elements/1.1/"
   xmlns:cc="http://creativecommons.org/ns#"
   xmlns:rdf="http://www.w3.org/1999/02/22-rdf-syntax-ns#"
   xmlns:svg="http://www.w3.org/2000/svg"
   xmlns="http://www.w3.org/2000/svg"
   xmlns:sodipodi="http://sodipodi.sourceforge.net/DTD/sodipodi-0.dtd"
   xmlns:inkscape="http://www.inkscape.org/namespaces/inkscape"
   width="192"
   height="192"
   version="1"
   id="svg16"
   sodipodi:docname="google_daydream_elements.svg"
   inkscape:version="0.92.3 (2405546, 2018-03-11)">
  <metadata
     id="metadata22">
    <rdf:RDF>
      <cc:Work
         rdf:about="">
        <dc:format>image/svg+xml</dc:format>
        <dc:type
           rdf:resource="http://purl.org/dc/dcmitype/StillImage" />
      </cc:Work>
    </rdf:RDF>
  </metadata>
  <defs
     id="defs20">
    <filter
       inkscape:collect="always"
       style="color-interpolation-filters:sRGB"
       id="filter851"
       x="-0.048"
       width="1.096"
       y="-0.048"
       height="1.096">
      <feGaussianBlur
         inkscape:collect="always"
         stdDeviation="3.2"
         id="feGaussianBlur853" />
    </filter>
    <filter
       inkscape:collect="always"
       style="color-interpolation-filters:sRGB"
       id="filter871"
       x="-0.049847725"
       width="1.0996955"
       y="-0.046284359"
       height="1.0925687">
      <feGaussianBlur
         inkscape:collect="always"
         stdDeviation="2.1599375"
         id="feGaussianBlur873" />
    </filter>
  </defs>
  <sodipodi:namedview
     pagecolor="#ffffff"
     bordercolor="#666666"
     borderopacity="1"
     objecttolerance="10"
     gridtolerance="10"
     guidetolerance="10"
     inkscape:pageopacity="0"
     inkscape:pageshadow="2"
     inkscape:window-width="1920"
     inkscape:window-height="1018"
     id="namedview18"
     showgrid="false"
     inkscape:zoom="3.52"
     inkscape:cx="96"
     inkscape:cy="96"
     inkscape:window-x="0"
     inkscape:window-y="32"
     inkscape:window-maximized="1"
     inkscape:current-layer="svg16" />
  <circle
     id="circle2"
     r="80"
     cy="100"
     cx="96"
     style="opacity:0.2;stroke-width:4;filter:url(#filter851)" />
  <circle
     id="circle4"
     r="80"
     cy="96"
     cx="96"
     style="fill:#1c77dd;stroke-width:4" />
  <path
     inkscape:connector-curvature="0"
     id="path6"
     d="M 68.234376,56.085936 A 28.17459,25.248439 28.150932 0 0 47.101564,68 28.17459,25.248439 28.150932 0 0 58.843752,103.82031 28.17459,25.248439 28.150932 0 0 96,96 25.405871,28 0 0 1 70.593752,68 25.405871,28 0 0 1 72.929688,56.351564 28.17459,25.248439 28.150932 0 0 68.234376,56.085936 Z M 96,96 c 4.1935,-7.203984 12.09685,-11.660704 21.125,-11.914064 5.51087,-0.15548 11.09691,1.265672 16.02344,4.08594 3.63255,2.080144 6.63932,4.77698 9,7.820312 A 25.248439,28.174589 61.849071 0 0 144.89062,68 a 25.248439,28.174589 61.849071 0 0 -21.125,-11.914064 25.248439,28.174589 61.849071 0 0 -16.02343,4.093752 25.248439,28.174589 61.849071 0 0 -14.164066,29.773436 25.248439,28.174589 61.849071 0 1 0,0.008 25.248439,28.174589 61.849071 0 0 0.0156,0.05468 25.248439,28.174589 61.849071 0 0 0.14844,0.515624 25.248439,28.174589 61.849071 0 0 0.679688,2.101564 25.248439,28.174589 61.849071 0 0 0.17968,0.445312 A 25.248439,28.174589 61.849071 0 0 96,96 Z m 0,0 A 25.248439,28.174589 61.849071 0 1 84.25,131.82031 25.248439,28.174589 61.849071 0 1 72.921876,135.63281 25.405872,28 0 0 0 96,152 25.405872,28 0 0 0 119.07031,135.64062 c 0.369,-0.88245 0.69375,-1.77934 0.97657,-2.69531 a 25.405872,28 0 0 0 0.0312,-0.0938 c 0.004,-0.0128 0.004,-0.0264 0.008,-0.0392 0.28436,-0.93633 0.52586,-1.88871 0.71875,-2.85156 0.17748,-0.88585 0.30756,-1.7858 0.40625,-2.6875 A 25.405872,28 0 0 0 121.25,127 c 0.002,-0.0156 -0.002,-0.0312 0,-0.0469 0.0968,-0.97944 0.15388,-1.96366 0.15624,-2.95312 0,-0.78695 -0.0516,-1.55761 -0.10936,-2.32813 a 25.405872,28 0 0 0 -0.17968,-1.63281 c -0.0512,-0.39696 -0.0979,-0.7961 -0.16408,-1.1875 a 25.405872,28 0 0 0 -0.31252,-1.52344 c -0.0877,-0.3944 -0.1708,-0.79205 -0.27344,-1.17969 a 25.405872,28 0 0 0 -0.44531,-1.5 c -0.12148,-0.3774 -0.23944,-0.75525 -0.375,-1.125 a 25.405872,28 0 0 0 -0.58594,-1.44531 c -0.15368,-0.3588 -0.30184,-0.72007 -0.46875,-1.07031 A 25.405872,28 0 0 0 117.75,109.58594 c -0.16712,-0.3056 -0.33056,-0.61621 -0.50781,-0.91406 a 25.405872,28 0 0 0 -0.50781,-0.78907 25.248439,28.174589 61.849071 0 0 0.0156,0 c -0.0405,-0.0632 -0.089,-0.1194 -0.1328,-0.17968 a 25.405872,28 0 0 0 -0.0236,-0.0392 l -0.008,-0.008 a 25.405872,28 0 0 0 -0.22656,-0.35156 c -0.2008,-0.29696 -0.39052,-0.60289 -0.60157,-0.89062 a 25.405872,28 0 0 0 -0.70312,-0.875 25.405872,28 0 0 0 -0.28908,-0.35936 c -0.22536,-0.27284 -0.43702,-0.55751 -0.67187,-0.82031 a 25.405872,28 0 0 0 -1.06994,-1.10127 c -0.25252,-0.25196 -0.49622,-0.51707 -0.75782,-0.75781 a 25.405872,28 0 0 0 -1.45312,-1.21875 c -0.1594,-0.12648 -0.3066,-0.26812 -0.46875,-0.39064 a 25.405872,28 0 0 0 -0.0469,-0.0312 25.405872,28 0 0 0 -2.10156,-1.421878 c -0.005,-0.003 -0.0108,-0.0048 -0.0156,-0.008 a 25.405872,28 0 0 0 -2.28907,-1.218752 25.405872,28 0 0 0 -0.008,-0.008 25.405872,28 0 0 0 -0.46093,-0.18748 25.405872,28 0 0 0 -0.89063,-0.35936 25.405872,28 0 0 0 -1.78125,-0.625 25.405872,28 0 0 0 -0.10936,-0.0312 25.405872,28 0 0 0 -1.52343,-0.429688 c -0.0232,-0.0052 -0.047,-0.0104 -0.0703,-0.0156 a 25.405872,28 0 0 0 -1.265632,-0.21092 25.405872,28 0 0 0 -0.39064,-0.06252 c -0.15836,-0.0272 -0.31588,-0.0578 -0.47656,-0.07812 a 25.405872,28 0 0 0 -0.32032,-0.05468 c -0.0076,-8.6e-4 -0.0156,8.56e-4 -0.0236,0 C 97.723712,96.054556 96.869056,96 96,96 Z"
     style="opacity:0.4;fill:#ffffff;stroke-width:4" />
  <path
     inkscape:connector-curvature="0"
     id="path8"
     d="m 96,42 c -2.753536,-4.4e-5 -5.402376,0.45882 -7.890624,1.3125 -1.659124,0.569136 -3.25156,1.312816 -4.75,2.210936 -0.747048,0.448136 -1.47124,0.938496 -2.171876,1.46094 -0.7026,0.52374 -1.38738,1.086312 -2.039064,1.679688 -1.952636,1.779308 -3.668192,3.865212 -5.085936,6.179688 -0.546204,0.891224 -1.037196,1.824616 -1.492188,2.781248 -1.058392,-0.08612 -2.124712,-0.1342 -3.171876,-0.10936 -0.04672,9e-4 -0.09392,-0.0088 -0.14064,-0.008 h -0.008 c -0.3702,0.0104 -0.726964,0.06964 -1.093752,0.09376 -0.591444,0.0392 -1.181648,0.08188 -1.765624,0.15624 -0.535932,0.06832 -1.059848,0.16016 -1.585936,0.2578 -0.475208,0.08772 -0.946244,0.18556 -1.414064,0.29688 -0.48946,0.11724 -0.974508,0.24024 -1.453124,0.3828 -0.566008,0.1674 -1.120512,0.3598 -1.671876,0.5625 -0.37804,0.13988 -0.76336,0.26592 -1.132812,0.421876 -0.921532,0.38672 -1.812316,0.82516 -2.679688,1.3125 -0.06648,0.0376 -0.1292,0.07916 -0.19532,0.1172 -0.797008,0.45718 -1.562444,0.966296 -2.304688,1.507812 -0.21364,0.15596 -0.41666,0.32192 -0.625,0.484376 -0.59094,0.460844 -1.162408,0.945152 -1.710936,1.460936 -0.22212,0.2084 -0.442048,0.416156 -0.656252,0.632812 -0.486448,0.493244 -0.944584,1.016056 -1.390624,1.554688 -0.21076,0.25372 -0.432248,0.494968 -0.632812,0.757812 -0.530332,0.697124 -1.02456,1.4292 -1.484376,2.195312 -0.0602,0.10024 -0.13648,0.18776 -0.19532,0.28908 V 70 c -0.457776,0.7895 -0.867908,1.59646 -1.226564,2.414064 v 0.008 c -0.35832,0.817516 -0.668212,1.64496 -0.929684,2.484372 v 0.008 c -0.26116,0.83936 -0.48184,1.684 -0.64844,2.53906 v 0.008 c -0.16632,0.855036 -0.2854,1.721396 -0.35936,2.58594 v 0.008 c -0.07372,0.864524 -0.10228,1.725912 -0.08596,2.593748 v 0.008 c 0.0164,0.86786 0.07528,1.73658 0.17968,2.601564 v 0.008 c 0.10464,0.865012 0.25508,1.729992 0.445312,2.58594 v 0.008 c 0.19048,0.855976 0.421496,1.706156 0.695312,2.546872 0.864652,2.656168 2.153872,5.218204 3.804688,7.593752 -1.650816,2.375548 -2.9398,4.938898 -3.804688,7.593748 -0.2738,0.84072 -0.504832,1.6909 -0.695312,2.54688 v 0.008 c -0.19024,0.85594 -0.34068,1.72092 -0.445312,2.58594 v 0.008 c -0.1044,0.86498 -0.16328,1.7337 -0.17968,2.60156 v 0.008 c -0.0164,0.86784 0.0124,1.72922 0.08596,2.59375 v 0.008 c 0.07396,0.86454 0.19304,1.7309 0.35936,2.58594 v 0.008 c 0.1666,0.85506 0.38728,1.6997 0.64844,2.53906 v 0.008 c 0.26148,0.83941 0.571368,1.66685 0.929684,2.48437 v 0.008 c 0.35868,0.8176 0.768788,1.62456 1.226564,2.41406 v 0.008 c 0.05884,0.10132 0.13512,0.18884 0.19532,0.28908 0.459816,0.76612 0.954044,1.49819 1.484376,2.19532 0.20056,0.26284 0.422052,0.50409 0.632812,0.75781 0.44604,0.53863 0.904176,1.06144 1.390624,1.55469 0.2142,0.21664 0.434132,0.42441 0.656252,0.63281 0.548528,0.51578 1.119996,1.00009 1.710936,1.46093 0.20832,0.16244 0.41136,0.3284 0.625,0.48438 0.742244,0.54152 1.50768,1.05063 2.304688,1.50781 0.06612,0.038 0.12884,0.0796 0.19532,0.1172 0.867372,0.48734 1.758156,0.92578 2.679688,1.3125 0.36944,0.15596 0.754772,0.282 1.132812,0.42188 0.551364,0.20268 1.105868,0.39512 1.671876,0.5625 0.478616,0.14256 0.963664,0.26556 1.453124,0.3828 0.46782,0.11132 0.938856,0.20916 1.414064,0.29688 0.526088,0.0976 1.050004,0.18948 1.585936,0.2578 0.583976,0.0744 1.174184,0.11704 1.765624,0.15624 0.3668,0.024 0.723552,0.0834 1.093752,0.0938 h 0.008 c 0.04672,8e-4 0.09392,-0.009 0.14064,-0.008 1.047164,0.0248 2.113484,-0.0232 3.171876,-0.10936 0.454992,0.95663 0.945984,1.89003 1.492188,2.78125 1.417744,2.31447 3.1333,4.40038 5.085936,6.17968 0.651684,0.59338 1.336464,1.15595 2.039064,1.67969 0.700636,0.52245 1.424828,1.01281 2.171876,1.46094 1.49844,0.89812 3.090876,1.6418 4.75,2.21094 2.488248,0.85103 5.137088,1.30989 7.890624,1.30985 2.753536,4e-5 5.4026,-0.45882 7.89062,-1.3125 1.65913,-0.56914 3.25156,-1.31282 4.75,-2.21094 0.74705,-0.44813 1.47124,-0.93849 2.17188,-1.46094 0.7026,-0.52374 1.38738,-1.08631 2.03906,-1.67968 1.95264,-1.77931 3.6682,-3.86521 5.08594,-6.17969 0.5462,-0.89123 1.0372,-1.82462 1.49219,-2.78125 1.05839,0.0862 2.12471,0.13416 3.17187,0.10936 0.0467,-8e-4 0.0939,0.009 0.14064,0.008 h 0.008 c 0.3702,-0.0104 0.72696,-0.0698 1.09376,-0.0938 0.59144,-0.0392 1.18164,-0.0819 1.76562,-0.15624 0.53593,-0.0683 1.05985,-0.16016 1.58594,-0.2578 0.4752,-0.0877 0.94624,-0.18556 1.41406,-0.29688 0.48946,-0.11724 0.97451,-0.24024 1.45312,-0.3828 0.56601,-0.1674 1.12052,-0.3598 1.67188,-0.5625 0.37804,-0.13988 0.76337,-0.26592 1.13281,-0.42188 0.92153,-0.38672 1.81232,-0.82516 2.67969,-1.3125 0.0665,-0.0376 0.1292,-0.0792 0.19532,-0.1172 0.79701,-0.45718 1.56244,-0.96629 2.30469,-1.50781 0.21364,-0.15596 0.41668,-0.32192 0.625,-0.48437 0.59094,-0.46085 1.16241,-0.94516 1.71093,-1.46094 0.22212,-0.2084 0.44206,-0.41617 0.65626,-0.63281 0.48644,-0.49325 0.94458,-1.01606 1.39062,-1.55469 0.21076,-0.25372 0.43225,-0.49497 0.63281,-0.75781 0.53033,-0.69713 1.02456,-1.4292 1.48438,-2.19531 0.0602,-0.10024 0.13648,-0.18776 0.19532,-0.28908 V 126 c 0.45777,-0.7895 0.86784,-1.59782 1.22656,-2.41406 v -0.008 c 0.35832,-0.81752 0.66821,-1.64497 0.92969,-2.48438 v -0.008 c 0.26116,-0.83936 0.48184,-1.684 0.64844,-2.53906 v -0.008 c 0.16632,-0.85503 0.28536,-1.72139 0.35936,-2.58594 v -0.008 c 0.0735,-0.86452 0.10232,-1.72591 0.0859,-2.59374 v -0.008 c -0.0164,-0.86787 -0.0753,-1.73658 -0.17968,-2.60157 v -0.008 c -0.10464,-0.86501 -0.25508,-1.72999 -0.44532,-2.58594 v -0.008 c -0.19067,-0.85466 -0.4217,-1.70484 -0.6955,-2.54556 -0.86466,-2.65617 -2.15388,-5.2182 -3.80469,-7.59375 1.65081,-2.375548 2.94003,-4.93758 3.80469,-7.593752 0.2738,-0.840716 0.50483,-1.690896 0.69531,-2.546872 v -0.008 c 0.19024,-0.855948 0.34068,-1.720928 0.44531,-2.58594 v -0.008 c 0.1044,-0.864984 0.16328,-1.733704 0.17968,-2.601564 v -0.008 c 0.0164,-0.867836 -0.0124,-1.729224 -0.0859,-2.593748 v -0.008 c -0.074,-0.864544 -0.19304,-1.730904 -0.35936,-2.58594 v -0.008 c -0.1666,-0.85506 -0.38728,-1.6997 -0.64844,-2.53906 v -0.008 c -0.26148,-0.839408 -0.57137,-1.666856 -0.92968,-2.484372 v -0.008 C 145.6101,71.59646 145.19996,70.7895 144.74219,70 v -0.008 c -0.0588,-0.10132 -0.13512,-0.18884 -0.19532,-0.28908 -0.45982,-0.766112 -0.95405,-1.498188 -1.48438,-2.195312 -0.20056,-0.26284 -0.42205,-0.504092 -0.63281,-0.757812 -0.44604,-0.538632 -0.90418,-1.061444 -1.39062,-1.554688 -0.2142,-0.21664 -0.43414,-0.424412 -0.65626,-0.632812 -0.54852,-0.515784 -1.11999,-1.000092 -1.71093,-1.460936 -0.20832,-0.16244 -0.41136,-0.3284 -0.625,-0.484376 -0.74225,-0.541516 -1.50768,-1.050632 -2.30469,-1.507812 -0.0661,-0.038 -0.12884,-0.0796 -0.19532,-0.1172 -0.86737,-0.48734 -1.75816,-0.92578 -2.67969,-1.3125 -0.36944,-0.15596 -0.75477,-0.282 -1.13281,-0.421876 -0.55136,-0.20272 -1.10587,-0.39508 -1.67188,-0.5625 -0.47861,-0.14256 -0.96366,-0.26556 -1.45312,-0.3828 -0.46782,-0.11132 -0.93886,-0.20916 -1.41406,-0.29688 -0.52609,-0.09764 -1.05001,-0.18948 -1.58594,-0.2578 -0.58398,-0.07436 -1.17418,-0.11704 -1.76562,-0.15624 -0.3668,-0.024 -0.72356,-0.08336 -1.09376,-0.09376 h -0.008 c -0.0467,-8e-4 -0.0939,0.0088 -0.14064,0.008 -1.04716,-0.0248 -2.11348,0.0232 -3.17187,0.10936 -0.45499,-0.956632 -0.94599,-1.890016 -1.49219,-2.781248 -1.41774,-2.314488 -3.1333,-4.40038 -5.08594,-6.179688 -0.65168,-0.593376 -1.33646,-1.155948 -2.03906,-1.679688 -0.70064,-0.522444 -1.42483,-1.012804 -2.17188,-1.46094 -1.49844,-0.89812 -3.09087,-1.6418 -4.75,-2.210936 C 101.40238,42.45882 98.753536,41.999956 96,42 Z m 0,4 c 2.305492,-3.6e-5 4.53234,0.38536 6.63281,1.109376 0.70031,0.24136 1.39271,0.522136 2.0625,0.835936 2.00644,0.941016 3.86903,2.19904 5.53125,3.718752 2.01413,1.841436 3.71572,4.085392 5.05469,6.60156 -3.06544,0.677428 -6.10617,1.8033 -8.99219,3.46094 -4.26734,2.451028 -7.734272,5.736628 -10.28906,9.47656 -2.554788,-3.739932 -6.021716,-7.025532 -10.289064,-9.47656 -2.886012,-1.65764 -5.926736,-2.783512 -8.992184,-3.46094 1.338964,-2.516168 3.04056,-4.760124 5.054684,-6.60156 1.662224,-1.519712 3.524812,-2.777736 5.531252,-3.718752 0.669788,-0.3138 1.362196,-0.594596 2.0625,-0.835936 C 91.467656,46.385372 93.694508,45.999964 96,46 Z M 69.351564,61.507812 h 0.008 c 0.551332,-0.0132 1.1082,0.0558 1.66406,0.10156 -0.925304,2.954968 -1.453124,6.107088 -1.453124,9.390624 0,0.976144 0.05276,1.93394 0.14064,2.882812 0.0252,0.27728 0.06936,0.545268 0.10156,0.820312 0.07604,0.63454 0.15176,1.270692 0.26564,1.890628 0.1132,0.632328 0.27172,1.249784 0.421876,1.867184 0.014,0.05692 0.0248,0.11508 0.0392,0.17188 0.0072,0.028 0.0084,0.05796 0.0156,0.08592 0.0068,0.0252 0.0088,0.05276 0.0156,0.07812 0.0172,0.06532 0.0372,0.1302 0.05468,0.19532 0.512448,1.957124 1.196988,3.833752 2.054688,5.601564 -4.53368,0.32932 -9.130148,1.673424 -13.39844,4.125 C 56.393292,90.377656 53.88958,92.4369 51.76592,94.742172 47.732576,88.344828 46.800948,80.643696 49.695608,74.02342 l 0.008,-0.008 C 50.002728,73.33136 50.3371,72.658412 50.718752,72 l 0.008,-0.008 c 0.0268,-0.04604 0.05892,-0.08708 0.08592,-0.1328 0.408412,-0.689884 0.859904,-1.345756 1.343748,-1.976564 0.12432,-0.16256 0.26184,-0.3106 0.39064,-0.468748 0.411436,-0.503828 0.839212,-0.9996 1.296876,-1.46094 0.1674,-0.16904 0.34268,-0.32944 0.515624,-0.492188 0.460788,-0.433048 0.93696,-0.844068 1.4375,-1.234372 0.17716,-0.13832 0.35752,-0.27376 0.53906,-0.406252 0.563908,-0.411076 1.150856,-0.799736 1.757816,-1.156248 0.12748,-0.07492 0.24588,-0.16204 0.375,-0.23436 1.53188,-0.85804 3.192392,-1.532796 4.945312,-2.02344 0.12632,-0.0356 0.25568,-0.06028 0.3828,-0.09376 0.77054,-0.20184 1.555504,-0.37368 2.359372,-0.5 0.1274,-0.0204 0.25484,-0.04424 0.3828,-0.06252 0.920372,-0.12972 1.856608,-0.2152 2.8125,-0.2422 z m 53.289056,0 h 0.008 c 0.9559,0.0272 1.89213,0.11248 2.8125,0.2422 0.12796,0.0184 0.2554,0.04208 0.3828,0.06252 0.80387,0.12632 1.58884,0.29816 2.35938,0.5 0.12712,0.0336 0.25648,0.05816 0.3828,0.09376 1.75292,0.490656 3.41343,1.1654 4.94531,2.02344 0.12912,0.07232 0.24752,0.15944 0.375,0.23436 0.60695,0.35652 1.19391,0.745172 1.75781,1.156248 0.18156,0.13248 0.36188,0.26792 0.53906,0.406252 0.50054,0.39032 0.97672,0.801324 1.4375,1.234372 0.17296,0.16276 0.34824,0.32316 0.51563,0.492188 0.45765,0.46134 0.88544,0.957112 1.29687,1.46094 0.1288,0.15816 0.26632,0.3062 0.39064,0.468748 0.48385,0.630808 0.93534,1.28668 1.34375,1.976564 0.0268,0.04572 0.0591,0.08676 0.0859,0.1328 l 0.008,0.008 c 0.38164,0.658412 0.71651,1.331564 1.01563,2.015624 l 0.008,0.008 c 2.89466,6.620276 1.96303,14.321408 -2.07031,20.718752 -2.12366,-2.305272 -4.62738,-4.364524 -7.51563,-6.023436 -4.26829,-2.451576 -8.86476,-3.795684 -13.39844,-4.125 0.8577,-1.767812 1.54224,-3.64444 2.05469,-5.601564 0.0176,-0.06512 0.0376,-0.13 0.0547,-0.19532 0.007,-0.0252 0.009,-0.05292 0.0156,-0.07812 0.007,-0.028 0.008,-0.05792 0.0156,-0.08592 0.0144,-0.0568 0.0252,-0.11496 0.0392,-0.17188 0.15016,-0.6174 0.30868,-1.234856 0.42188,-1.867184 0.11388,-0.61994 0.1896,-1.256088 0.26564,-1.890628 0.0324,-0.27504 0.0764,-0.543032 0.10156,-0.820312 0.0879,-0.948872 0.14064,-1.906668 0.14064,-2.882812 0,-3.283536 -0.52782,-6.435656 -1.45313,-9.390624 0.55586,-0.04576 1.11273,-0.11476 1.66406,-0.10156 z M 75.140624,62 c 2.898284,0.565672 5.79788,1.599588 8.5625,3.1875 4.396344,2.525124 7.785728,6.005644 10.046876,9.921876 -0.06084,0.12688 -0.113,0.25524 -0.17188,0.3828 -0.57052,1.236624 -1.047,2.495128 -1.429688,3.781248 -0.0462,0.15568 -0.0816,0.31244 -0.125,0.468752 -0.777392,2.791144 -1.109212,5.658148 -0.945312,8.507812 6.2e-4,0.0104 -6.32e-4,0.0208 0,0.0312 0.0288,0.490356 0.07472,0.980504 0.1328,1.468752 -3.946124,-2.932476 -8.72444,-4.670704 -13.781248,-5.109376 -0.1998,-0.32256 -0.447028,-0.603724 -0.632812,-0.9375 C 76.52032,83.20432 76.33002,82.64758 76.085936,82.125 75.73654,81.379696 75.357156,80.657784 75.078124,79.867188 74.815576,79.120744 74.664736,78.31432 74.468752,77.531248 73.947356,75.45364 73.578124,73.29478 73.578124,71 c 0.0088,-3.089832 0.559768,-6.13428 1.5625,-9 z m 41.718756,0 c 1.00273,2.86572 1.55361,5.910168 1.5625,9 0,2.29478 -0.36924,4.4537 -0.89063,6.531248 -0.196,0.783076 -0.3468,1.589496 -0.60937,2.33594 -0.27904,0.790596 -0.65842,1.512508 -1.00782,2.257812 -0.24408,0.52258 -0.43438,1.07932 -0.71094,1.578124 -0.1858,0.33376 -0.43301,0.61494 -0.63281,0.9375 -5.05681,0.438672 -9.83512,2.1769 -13.78125,5.109376 0.0581,-0.488248 0.104,-0.978392 0.1328,-1.468752 6.4e-4,-0.0104 -6.2e-4,-0.0208 0,-0.0312 0.16388,-2.849664 -0.16792,-5.716668 -0.945308,-8.507812 -0.0434,-0.15632 -0.0788,-0.31308 -0.125,-0.468752 -0.38268,-1.28612 -0.859168,-2.544624 -1.429688,-3.781248 -0.05888,-0.12756 -0.11104,-0.25592 -0.17188,-0.3828 2.261146,-3.916232 5.650536,-7.396752 10.046876,-9.921876 2.76464,-1.587972 5.66423,-2.621888 8.56252,-3.18756 z M 96,81.585936 c 0.725168,3.25348 0.762492,6.577996 0,9.789064 -0.762492,-3.211068 -0.725168,-6.535584 0,-9.789064 z m -21.031248,6.906252 c 2.916724,4.219336 6.858052,7.543768 11.437496,9.507812 -4.579444,1.964044 -8.520824,5.28852 -11.437496,9.50781 -4.544384,0.0148 -9.277924,-1.15926 -13.679688,-3.6875 -2.765388,-1.58835 -5.112588,-3.57327 -7.054688,-5.789062 0.0096,-0.0112 0.0216,-0.02 0.0312,-0.0312 -0.0096,-0.0112 -0.0216,-0.02 -0.0312,-0.0312 1.9421,-2.215796 4.2893,-4.200712 7.054688,-5.789064 4.401764,-2.52824 9.135308,-3.70228 13.679688,-3.6875 z m 42.062498,0 c 4.54438,-0.0148 9.27792,1.15926 13.67969,3.6875 2.76538,1.588352 5.11258,3.573268 7.05468,5.789064 -0.01,0.0112 -0.0216,0.02 -0.0312,0.0312 0.01,0.0112 0.0216,0.02 0.0312,0.0312 -1.9421,2.215798 -4.2893,4.200708 -7.05468,5.789068 -4.40177,2.52824 -9.13531,3.7023 -13.67969,3.6875 -2.91673,-4.21924 -6.85806,-7.543676 -11.4375,-9.50772 4.57945,-1.964044 8.52077,-5.288476 11.4375,-9.507812 z M 81.195312,89.3125 c 3.716852,0.979972 7.08364,2.83576 9.765624,5.476564 -0.76866,-0.20028 -1.55118,-0.36672 -2.28906,-0.64844 -0.0044,-0.0017 -0.0112,0.0017 -0.0156,0 -0.038,-0.0148 -0.07128,-0.04 -0.10936,-0.05468 h -0.008 C 86.10044,93.13636 83.846552,91.758992 81.86704,90.015632 81.62548,89.802872 81.428392,89.535824 81.195164,89.312508 Z m 29.609378,0 c -0.23324,0.22332 -0.43032,0.490364 -0.67188,0.703124 -1.97951,1.74336 -4.2334,3.120728 -6.67187,4.070312 h -0.008 c -0.038,0.0148 -0.0714,0.04 -0.10936,0.05468 -0.004,0.0017 -0.0112,-0.0017 -0.0156,0 -0.73788,0.28172 -1.5204,0.44816 -2.28906,0.64844 2.68198,-2.640804 6.04877,-4.496592 9.76562,-5.476564 z m -19.843754,11.89844 c -2.681984,2.6408 -6.048772,4.49659 -9.765624,5.47656 0.23324,-0.22332 0.430316,-0.49036 0.671876,-0.70312 1.979512,-1.74336 4.2334,-3.12073 6.671876,-4.07032 h 0.008 c 0.038,-0.0148 0.07136,-0.04 0.10936,-0.0547 0.0044,-0.002 0.0112,0.002 0.0156,0 0.73788,-0.28172 1.5204,-0.44816 2.28906,-0.64844 z m 10.078124,0 c 0.76866,0.20028 1.55118,0.36672 2.28906,0.64844 0.004,0.002 0.0112,-0.002 0.0156,0 0.038,0.0148 0.0714,0.04 0.10936,0.0547 h 0.008 c 2.43848,0.94958 4.69237,2.32695 6.67188,4.07031 0.24156,0.21276 0.43864,0.4798 0.67188,0.70312 -3.71686,-0.97997 -7.08364,-2.83576 -9.76563,-5.47656 z m -49.273436,0.0469 c 2.12366,2.30527 4.627372,4.36452 7.515624,6.02343 4.268292,2.45158 8.86476,3.79569 13.39844,4.125 -0.8577,1.76781 -1.54224,3.64444 -2.054688,5.60157 -0.0176,0.0651 -0.0376,0.13 -0.05468,0.19532 -0.0068,0.0252 -0.0088,0.0529 -0.0156,0.0781 -0.0072,0.028 -0.0084,0.0579 -0.0156,0.0859 -0.0144,0.0568 -0.0252,0.11496 -0.0392,0.17188 -0.15016,0.6174 -0.30868,1.23485 -0.421876,1.86718 -0.11388,0.61994 -0.1896,1.25609 -0.26564,1.89063 -0.0324,0.27504 -0.07636,0.54303 -0.10156,0.82031 -0.08788,0.94887 -0.14064,1.90667 -0.14064,2.88281 0,3.28354 0.52782,6.43566 1.453124,9.39063 -0.55586,0.0458 -1.112728,0.11476 -1.66406,0.10156 h -0.008 c -0.955892,-0.0268 -1.892128,-0.11248 -2.8125,-0.2422 -0.12796,-0.0184 -0.2554,-0.0421 -0.3828,-0.0625 -0.803868,-0.12632 -1.588832,-0.29816 -2.359372,-0.5 -0.12712,-0.0336 -0.25648,-0.0582 -0.3828,-0.0938 -1.75292,-0.49065 -3.413432,-1.1654 -4.945312,-2.02344 -0.12912,-0.0723 -0.24752,-0.15944 -0.375,-0.23436 -0.60696,-0.35652 -1.193908,-0.74518 -1.757816,-1.15625 -0.18152,-0.13248 -0.36188,-0.26792 -0.53906,-0.40625 -0.50054,-0.39032 -0.976712,-0.80133 -1.4375,-1.23438 -0.17296,-0.16276 -0.34824,-0.32316 -0.515624,-0.49218 -0.457664,-0.46134 -0.88544,-0.95712 -1.296876,-1.46094 -0.1288,-0.15816 -0.26632,-0.3062 -0.39064,-0.46875 -0.483844,-0.63081 -0.935336,-1.28668 -1.343748,-1.97657 -0.0272,-0.0457 -0.05912,-0.0868 -0.08592,-0.1328 l -0.008,-0.008 c -0.38164,-0.65841 -0.716028,-1.33136 -1.015628,-2.01562 l -0.008,-0.008 c -2.89466,-6.62028 -1.963032,-14.32141 2.070312,-20.71875 z m 88.468756,0 c 4.03334,6.39734 4.96497,14.09847 2.07031,20.71875 l -0.008,0.008 c -0.29892,0.68387 -0.6338,1.35702 -1.01544,2.01543 l -0.008,0.008 c -0.0268,0.046 -0.0591,0.0871 -0.0859,0.1328 -0.40841,0.68988 -0.85991,1.34576 -1.34375,1.97656 -0.12432,0.16256 -0.26184,0.3106 -0.39064,0.46875 -0.41144,0.50383 -0.83922,0.9996 -1.29688,1.46094 -0.1674,0.16904 -0.34268,0.32944 -0.51562,0.49219 -0.46079,0.43305 -0.93696,0.84405 -1.4375,1.23437 -0.17716,0.13832 -0.35752,0.27376 -0.53906,0.40625 -0.56391,0.41108 -1.15087,0.79973 -1.75782,1.15625 -0.12748,0.0749 -0.24588,0.16204 -0.375,0.23436 -1.53188,0.85804 -3.19239,1.53279 -4.94531,2.02344 -0.12632,0.0356 -0.25568,0.0602 -0.3828,0.0938 -0.77054,0.20184 -1.55551,0.37368 -2.35937,0.5 -0.1274,0.0204 -0.25484,0.0441 -0.3828,0.0625 -0.92037,0.12972 -1.85661,0.215 -2.8125,0.2422 h -0.008 c -0.55133,0.0132 -1.1082,-0.0558 -1.66406,-0.10156 0.9253,-2.95497 1.45312,-6.10709 1.45312,-9.39062 0,-0.97615 -0.0528,-1.93394 -0.14064,-2.88281 -0.0252,-0.27728 -0.0692,-0.54528 -0.10156,-0.82032 -0.076,-0.63454 -0.15176,-1.27068 -0.26564,-1.89062 -0.1132,-0.63233 -0.27172,-1.24979 -0.42187,-1.86719 -0.014,-0.0569 -0.0248,-0.11508 -0.0392,-0.17188 -0.007,-0.028 -0.008,-0.0579 -0.0156,-0.0859 -0.007,-0.0252 -0.009,-0.0529 -0.0156,-0.0781 -0.0172,-0.0653 -0.0372,-0.1302 -0.0547,-0.19532 -0.51245,-1.95712 -1.19699,-3.83375 -2.05469,-5.60156 4.53368,-0.32932 9.13014,-1.67342 13.39844,-4.125 2.88824,-1.65891 5.39196,-3.71817 7.51562,-6.02344 z M 96,104.625 c 0.762492,3.21107 0.725168,6.53558 0,9.78906 -0.725168,-3.25348 -0.762492,-6.57799 0,-9.78906 z m -4.789064,1.625 c -0.05808,0.48825 -0.104,0.97839 -0.1328,1.46875 -6.32e-4,0.0104 6.2e-4,0.0208 0,0.0312 -0.16388,2.84967 0.16792,5.71667 0.945312,8.50781 0.0434,0.15632 0.0788,0.31308 0.125,0.46876 0.38268,1.28612 0.859168,2.54462 1.429688,3.78124 0.05888,0.12756 0.11104,0.25592 0.17188,0.3828 -2.261148,3.91624 -5.650532,7.39676 -10.046876,9.92188 -2.76462,1.58791 -5.664216,2.62183 -8.5625,3.1875 -1.002732,-2.86572 -1.5537,-5.91017 -1.5625,-9 0,-2.29478 0.36924,-4.45364 0.890628,-6.53125 0.196,-0.78307 0.3468,-1.58949 0.609372,-2.33594 0.27904,-0.79059 0.658412,-1.51251 1.007812,-2.25781 0.24408,-0.52258 0.43438,-1.07932 0.71094,-1.57812 0.1858,-0.33376 0.433012,-0.61494 0.632812,-0.9375 5.056808,-0.43868 9.835124,-2.1769 13.781248,-5.10938 z m 9.578124,0 c 3.94613,2.93248 8.72444,4.6707 13.78125,5.10938 0.1998,0.32256 0.44701,0.60374 0.63281,0.9375 0.27656,0.4988 0.46686,1.05554 0.71094,1.57812 0.3494,0.7453 0.72878,1.46722 1.00782,2.25781 0.26256,0.74645 0.41337,1.55287 0.60937,2.33594 0.52139,2.07755 0.89063,4.23647 0.89063,6.53125 -0.009,3.08983 -0.55977,6.13428 -1.5625,9 -2.89829,-0.56567 -5.79788,-1.59959 -8.5625,-3.1875 -4.39635,-2.52512 -7.78573,-6.00564 -10.04688,-9.92188 0.06084,-0.12688 0.113,-0.25524 0.17188,-0.3828 0.57052,-1.23662 1.047008,-2.49512 1.429688,-3.78124 0.0462,-0.15568 0.0816,-0.31244 0.125,-0.46876 0.777392,-2.79114 1.109192,-5.65814 0.945312,-8.50781 -6.2e-4,-0.0104 6.3e-4,-0.0208 0,-0.0312 -0.0288,-0.49036 -0.0747,-0.9805 -0.1328,-1.46875 z M 96,124.79688 c 2.554788,3.73993 6.02172,7.02553 10.28906,9.47656 2.88602,1.65764 5.92675,2.78351 8.99219,3.46094 -1.33896,2.51616 -3.04056,4.76012 -5.05469,6.60156 -1.66222,1.51971 -3.52481,2.77773 -5.53125,3.71875 -0.66979,0.3138 -1.36219,0.59457 -2.0625,0.83593 C 100.53234,149.61464 98.305492,150.00004 96,150 c -2.305492,4e-5 -4.532344,-0.38536 -6.632812,-1.10938 -0.700304,-0.24136 -1.392712,-0.52213 -2.0625,-0.83593 -2.00644,-0.94102 -3.869028,-2.19904 -5.531252,-3.71875 -2.014124,-1.84144 -3.71572,-4.0854 -5.054684,-6.60156 3.065448,-0.67743 6.106172,-1.8033 8.992184,-3.46094 4.267348,-2.45103 7.734276,-5.73663 10.289064,-9.47656 z"
     style="opacity:0.2;stroke-width:4;filter:url(#filter871)" />
  <path
     inkscape:connector-curvature="0"
     id="path10"
     d="m 96,40 c -2.753536,-4.4e-5 -5.402376,0.45882 -7.890624,1.3125 -1.659124,0.569136 -3.25156,1.312816 -4.75,2.210936 -0.747048,0.448136 -1.47124,0.938496 -2.171876,1.46094 -0.7026,0.52374 -1.38738,1.086312 -2.039064,1.679688 -1.952636,1.779308 -3.668192,3.865212 -5.085936,6.179688 -0.546204,0.891224 -1.037196,1.824616 -1.492188,2.781248 -1.058392,-0.08612 -2.124712,-0.1342 -3.171876,-0.10936 -0.04672,9e-4 -0.09392,-0.0088 -0.14064,-0.008 h -0.008 c -0.3702,0.0104 -0.726964,0.06964 -1.093752,0.09376 -0.591444,0.0392 -1.181648,0.08188 -1.765624,0.15624 -0.535932,0.06832 -1.059848,0.16016 -1.585936,0.2578 -0.475208,0.08772 -0.946244,0.18556 -1.414064,0.29688 -0.48946,0.11724 -0.974508,0.24024 -1.453124,0.3828 -0.566008,0.1674 -1.120512,0.3598 -1.671876,0.5625 -0.37804,0.13988 -0.76336,0.26592 -1.132812,0.421876 -0.921532,0.38672 -1.812316,0.82516 -2.679688,1.3125 -0.06648,0.0376 -0.1292,0.07916 -0.19532,0.1172 -0.797008,0.45718 -1.562444,0.966296 -2.304688,1.507812 -0.21364,0.15596 -0.41666,0.32192 -0.625,0.484376 -0.59094,0.460844 -1.162408,0.945152 -1.710936,1.460936 -0.22212,0.2084 -0.442048,0.416156 -0.656252,0.632812 -0.486448,0.493244 -0.944584,1.016056 -1.390624,1.554688 -0.21076,0.25372 -0.432248,0.494968 -0.632812,0.757812 -0.530332,0.697124 -1.02456,1.4292 -1.484376,2.195312 -0.0602,0.10024 -0.13648,0.18776 -0.19532,0.28908 V 68 c -0.457776,0.7895 -0.867908,1.59646 -1.226564,2.414064 v 0.008 c -0.35832,0.817516 -0.668212,1.64496 -0.929684,2.484372 v 0.008 c -0.26116,0.83936 -0.48184,1.684 -0.64844,2.53906 v 0.008 c -0.16632,0.855036 -0.2854,1.721396 -0.35936,2.58594 v 0.008 c -0.07372,0.864524 -0.10228,1.725912 -0.08596,2.593748 v 0.008 c 0.0164,0.86786 0.07528,1.73658 0.17968,2.601564 v 0.008 c 0.10464,0.865012 0.25508,1.729992 0.445312,2.58594 v 0.008 c 0.19048,0.855976 0.421496,1.706156 0.695312,2.546872 0.864652,2.656168 2.153872,5.218204 3.804688,7.593752 -1.650816,2.375548 -2.9398,4.938898 -3.804688,7.593748 -0.2738,0.84072 -0.504832,1.6909 -0.695312,2.54688 v 0.008 c -0.19024,0.85594 -0.34068,1.72092 -0.445312,2.58594 v 0.008 c -0.1044,0.86498 -0.16328,1.7337 -0.17968,2.60156 v 0.008 c -0.0164,0.86784 0.0124,1.72922 0.08596,2.59375 v 0.008 c 0.07396,0.86454 0.19304,1.7309 0.35936,2.58594 v 0.008 c 0.1666,0.85506 0.38728,1.6997 0.64844,2.53906 v 0.008 c 0.26148,0.83941 0.571368,1.66685 0.929684,2.48437 v 0.008 c 0.35868,0.8176 0.768788,1.62456 1.226564,2.41406 v 0.008 c 0.05884,0.10132 0.13512,0.18884 0.19532,0.28908 0.459816,0.76612 0.954044,1.49819 1.484376,2.19532 0.20056,0.26284 0.422052,0.50409 0.632812,0.75781 0.44604,0.53863 0.904176,1.06144 1.390624,1.55469 0.2142,0.21664 0.434132,0.42441 0.656252,0.63281 0.548528,0.51578 1.119996,1.00009 1.710936,1.46093 0.20832,0.16244 0.41136,0.3284 0.625,0.48438 0.742244,0.54152 1.50768,1.05063 2.304688,1.50781 0.06612,0.038 0.12884,0.0796 0.19532,0.1172 0.867372,0.48734 1.758156,0.92578 2.679688,1.3125 0.36944,0.15596 0.754772,0.282 1.132812,0.42188 0.551364,0.20268 1.105868,0.39512 1.671876,0.5625 0.478616,0.14256 0.963664,0.26556 1.453124,0.3828 0.46782,0.11132 0.938856,0.20916 1.414064,0.29688 0.526088,0.0976 1.050004,0.18948 1.585936,0.2578 0.583976,0.0744 1.174184,0.11704 1.765624,0.15624 0.3668,0.024 0.723552,0.0834 1.093752,0.0938 h 0.008 c 0.04672,8e-4 0.09392,-0.009 0.14064,-0.008 1.047164,0.0248 2.113484,-0.0232 3.171876,-0.10936 0.454992,0.95663 0.945984,1.89003 1.492188,2.78125 1.417744,2.31447 3.1333,4.40038 5.085936,6.17968 0.651684,0.59338 1.336464,1.15595 2.039064,1.67969 0.700636,0.52245 1.424828,1.01281 2.171876,1.46094 1.49844,0.89812 3.090876,1.6418 4.75,2.21094 2.488248,0.85103 5.137088,1.30989 7.890624,1.30985 2.753536,4e-5 5.4026,-0.45882 7.89062,-1.3125 1.65913,-0.56914 3.25156,-1.31282 4.75,-2.21094 0.74705,-0.44813 1.47124,-0.93849 2.17188,-1.46094 0.7026,-0.52374 1.38738,-1.08631 2.03906,-1.67968 1.95264,-1.77931 3.6682,-3.86521 5.08594,-6.17969 0.5462,-0.89123 1.0372,-1.82462 1.49219,-2.78125 1.05839,0.0862 2.12471,0.13416 3.17187,0.10936 0.0467,-8e-4 0.0939,0.009 0.14064,0.008 h 0.008 c 0.3702,-0.0104 0.72696,-0.0698 1.09376,-0.0938 0.59144,-0.0392 1.18164,-0.0819 1.76562,-0.15624 0.53593,-0.0683 1.05985,-0.16016 1.58594,-0.2578 0.4752,-0.0877 0.94624,-0.18556 1.41406,-0.29688 0.48946,-0.11724 0.97451,-0.24024 1.45312,-0.3828 0.56601,-0.1674 1.12052,-0.3598 1.67188,-0.5625 0.37804,-0.13988 0.76337,-0.26592 1.13281,-0.42188 0.92153,-0.38672 1.81232,-0.82516 2.67969,-1.3125 0.0665,-0.0376 0.1292,-0.0792 0.19532,-0.1172 0.79701,-0.45718 1.56244,-0.96629 2.30469,-1.50781 0.21364,-0.15596 0.41668,-0.32192 0.625,-0.48437 0.59094,-0.46085 1.16241,-0.94516 1.71093,-1.46094 0.22212,-0.2084 0.44206,-0.41617 0.65626,-0.63281 0.48644,-0.49325 0.94458,-1.01606 1.39062,-1.55469 0.21076,-0.25372 0.43225,-0.49497 0.63281,-0.75781 0.53033,-0.69713 1.02456,-1.4292 1.48438,-2.19531 0.0602,-0.10024 0.13648,-0.18776 0.19532,-0.28908 V 124 c 0.45777,-0.7895 0.86784,-1.59782 1.22656,-2.41406 v -0.008 c 0.35832,-0.81752 0.66821,-1.64497 0.92969,-2.48438 v -0.008 c 0.26116,-0.83936 0.48184,-1.684 0.64844,-2.53906 v -0.008 c 0.16632,-0.85503 0.28536,-1.72139 0.35936,-2.58594 v -0.008 c 0.0735,-0.86452 0.10232,-1.72591 0.0859,-2.59374 v -0.008 c -0.0164,-0.86787 -0.0753,-1.73658 -0.17968,-2.60157 v -0.008 c -0.10464,-0.86501 -0.25508,-1.72999 -0.44532,-2.58594 v -0.008 c -0.19067,-0.85466 -0.4217,-1.70484 -0.6955,-2.54556 -0.86466,-2.65617 -2.15388,-5.218202 -3.80469,-7.59375 1.65081,-2.375548 2.94003,-4.93758 3.80469,-7.593752 0.2738,-0.840716 0.50483,-1.690896 0.69531,-2.546872 v -0.008 c 0.19024,-0.855948 0.34068,-1.720928 0.44531,-2.58594 v -0.008 c 0.1044,-0.864984 0.16328,-1.733704 0.17968,-2.601564 v -0.008 c 0.0164,-0.867836 -0.0124,-1.729224 -0.0859,-2.593748 v -0.008 c -0.074,-0.864544 -0.19304,-1.730904 -0.35936,-2.58594 v -0.008 c -0.1666,-0.85506 -0.38728,-1.6997 -0.64844,-2.53906 v -0.008 c -0.26148,-0.839408 -0.57137,-1.666856 -0.92968,-2.484372 v -0.008 C 145.6101,69.59646 145.19996,68.7895 144.74219,68 v -0.008 c -0.0588,-0.10132 -0.13512,-0.18884 -0.19532,-0.28908 -0.45982,-0.766112 -0.95405,-1.498188 -1.48438,-2.195312 -0.20056,-0.26284 -0.42205,-0.504092 -0.63281,-0.757812 -0.44604,-0.538632 -0.90418,-1.061444 -1.39062,-1.554688 -0.2142,-0.21664 -0.43414,-0.424412 -0.65626,-0.632812 -0.54852,-0.515784 -1.11999,-1.000092 -1.71093,-1.460936 -0.20832,-0.16244 -0.41136,-0.3284 -0.625,-0.484376 -0.74225,-0.541516 -1.50768,-1.050632 -2.30469,-1.507812 -0.0661,-0.038 -0.12884,-0.0796 -0.19532,-0.1172 -0.86737,-0.48734 -1.75816,-0.92578 -2.67969,-1.3125 -0.36944,-0.15596 -0.75477,-0.282 -1.13281,-0.421876 -0.55136,-0.20272 -1.10587,-0.39508 -1.67188,-0.5625 -0.47861,-0.14256 -0.96366,-0.26556 -1.45312,-0.3828 -0.46782,-0.11132 -0.93886,-0.20916 -1.41406,-0.29688 -0.52609,-0.09764 -1.05001,-0.18948 -1.58594,-0.2578 -0.58398,-0.07436 -1.17418,-0.11704 -1.76562,-0.15624 -0.3668,-0.024 -0.72356,-0.08336 -1.09376,-0.09376 h -0.008 c -0.0467,-8e-4 -0.0939,0.0088 -0.14064,0.008 -1.04716,-0.0248 -2.11348,0.0232 -3.17187,0.10936 -0.45499,-0.956632 -0.94599,-1.890016 -1.49219,-2.781248 -1.41774,-2.314488 -3.1333,-4.40038 -5.08594,-6.179688 -0.65168,-0.593376 -1.33646,-1.155948 -2.03906,-1.679688 -0.70064,-0.522444 -1.42483,-1.012804 -2.17188,-1.46094 -1.49844,-0.89812 -3.09087,-1.6418 -4.75,-2.210936 C 101.40238,40.45882 98.753536,39.999956 96,40 Z m 0,4 c 2.305492,-3.6e-5 4.53234,0.38536 6.63281,1.109376 0.70031,0.24136 1.39271,0.522136 2.0625,0.835936 2.00644,0.941016 3.86903,2.19904 5.53125,3.718752 2.01413,1.841436 3.71572,4.085392 5.05469,6.60156 -3.06544,0.677428 -6.10617,1.8033 -8.99219,3.46094 -4.26734,2.451028 -7.734272,5.736628 -10.28906,9.47656 -2.554788,-3.739932 -6.021716,-7.025532 -10.289064,-9.47656 -2.886012,-1.65764 -5.926736,-2.783512 -8.992184,-3.46094 1.338964,-2.516168 3.04056,-4.760124 5.054684,-6.60156 1.662224,-1.519712 3.524812,-2.777736 5.531252,-3.718752 0.669788,-0.3138 1.362196,-0.594596 2.0625,-0.835936 C 91.467656,44.385372 93.694508,43.999964 96,44 Z M 69.351564,59.507812 h 0.008 c 0.551332,-0.0132 1.1082,0.0558 1.66406,0.10156 -0.925304,2.954968 -1.453124,6.107088 -1.453124,9.390624 0,0.976144 0.05276,1.93394 0.14064,2.882812 0.0252,0.27728 0.06936,0.545268 0.10156,0.820312 0.07604,0.63454 0.15176,1.270692 0.26564,1.890628 0.1132,0.632328 0.27172,1.249784 0.421876,1.867184 0.014,0.05692 0.0248,0.11508 0.0392,0.17188 0.0072,0.028 0.0084,0.05796 0.0156,0.08592 0.0068,0.0252 0.0088,0.05276 0.0156,0.07812 0.0172,0.06532 0.0372,0.1302 0.05468,0.19532 0.512448,1.957124 1.196988,3.833752 2.054688,5.601564 -4.53368,0.32932 -9.130148,1.673424 -13.39844,4.125 C 56.393292,88.377656 53.88958,90.4369 51.76592,92.742172 47.732576,86.344828 46.800948,78.643696 49.695608,72.02342 l 0.008,-0.008 C 50.002728,71.33136 50.3371,70.658412 50.718752,70 l 0.008,-0.008 c 0.0268,-0.04604 0.05892,-0.08708 0.08592,-0.1328 0.408412,-0.689884 0.859904,-1.345756 1.343748,-1.976564 0.12432,-0.16256 0.26184,-0.3106 0.39064,-0.468748 0.411436,-0.503828 0.839212,-0.9996 1.296876,-1.46094 0.1674,-0.16904 0.34268,-0.32944 0.515624,-0.492188 0.460788,-0.433048 0.93696,-0.844068 1.4375,-1.234372 0.17716,-0.13832 0.35752,-0.27376 0.53906,-0.406252 0.563908,-0.411076 1.150856,-0.799736 1.757816,-1.156248 0.12748,-0.07492 0.24588,-0.16204 0.375,-0.23436 1.53188,-0.85804 3.192392,-1.532796 4.945312,-2.02344 0.12632,-0.0356 0.25568,-0.06028 0.3828,-0.09376 0.77054,-0.20184 1.555504,-0.37368 2.359372,-0.5 0.1274,-0.0204 0.25484,-0.04424 0.3828,-0.06252 0.920372,-0.12972 1.856608,-0.2152 2.8125,-0.2422 z m 53.289056,0 h 0.008 c 0.9559,0.0272 1.89213,0.11248 2.8125,0.2422 0.12796,0.0184 0.2554,0.04208 0.3828,0.06252 0.80387,0.12632 1.58884,0.29816 2.35938,0.5 0.12712,0.0336 0.25648,0.05816 0.3828,0.09376 1.75292,0.490656 3.41343,1.1654 4.94531,2.02344 0.12912,0.07232 0.24752,0.15944 0.375,0.23436 0.60695,0.35652 1.19391,0.745172 1.75781,1.156248 0.18156,0.13248 0.36188,0.26792 0.53906,0.406252 0.50054,0.39032 0.97672,0.801324 1.4375,1.234372 0.17296,0.16276 0.34824,0.32316 0.51563,0.492188 0.45765,0.46134 0.88544,0.957112 1.29687,1.46094 0.1288,0.15816 0.26632,0.3062 0.39064,0.468748 0.48385,0.630808 0.93534,1.28668 1.34375,1.976564 0.0268,0.04572 0.0591,0.08676 0.0859,0.1328 l 0.008,0.008 c 0.38164,0.658412 0.71651,1.331564 1.01563,2.015624 l 0.008,0.008 c 2.89466,6.620276 1.96303,14.321408 -2.07031,20.718752 -2.12366,-2.305272 -4.62738,-4.364524 -7.51563,-6.023436 -4.26829,-2.451576 -8.86476,-3.795684 -13.39844,-4.125 0.8577,-1.767812 1.54224,-3.64444 2.05469,-5.601564 0.0176,-0.06512 0.0376,-0.13 0.0547,-0.19532 0.007,-0.0252 0.009,-0.05292 0.0156,-0.07812 0.007,-0.028 0.008,-0.05792 0.0156,-0.08592 0.0144,-0.0568 0.0252,-0.11496 0.0392,-0.17188 0.15016,-0.6174 0.30868,-1.234856 0.42188,-1.867184 0.11388,-0.61994 0.1896,-1.256088 0.26564,-1.890628 0.0324,-0.27504 0.0764,-0.543032 0.10156,-0.820312 0.0879,-0.948872 0.14064,-1.906668 0.14064,-2.882812 0,-3.283536 -0.52782,-6.435656 -1.45313,-9.390624 0.55586,-0.04576 1.11273,-0.11476 1.66406,-0.10156 z M 75.140624,60 c 2.898284,0.565672 5.79788,1.599588 8.5625,3.1875 4.396344,2.525124 7.785728,6.005644 10.046876,9.921876 -0.06084,0.12688 -0.113,0.25524 -0.17188,0.3828 -0.57052,1.236624 -1.047,2.495128 -1.429688,3.781248 -0.0462,0.15568 -0.0816,0.31244 -0.125,0.468752 -0.777392,2.791144 -1.109212,5.658148 -0.945312,8.507812 6.2e-4,0.0104 -6.32e-4,0.0208 0,0.0312 0.0288,0.490356 0.07472,0.980504 0.1328,1.468752 -3.946124,-2.932476 -8.72444,-4.670704 -13.781248,-5.109376 -0.1998,-0.32256 -0.447028,-0.603724 -0.632812,-0.9375 C 76.52032,81.20432 76.33002,80.64758 76.085936,80.125 75.73654,79.379696 75.357156,78.657784 75.078124,77.867188 74.815576,77.120744 74.664736,76.31432 74.468752,75.531248 73.947356,73.45364 73.578124,71.29478 73.578124,69 c 0.0088,-3.089832 0.559768,-6.13428 1.5625,-9 z m 41.718756,0 c 1.00273,2.86572 1.55361,5.910168 1.5625,9 0,2.29478 -0.36924,4.4537 -0.89063,6.531248 -0.196,0.783076 -0.3468,1.589496 -0.60937,2.33594 -0.27904,0.790596 -0.65842,1.512508 -1.00782,2.257812 -0.24408,0.52258 -0.43438,1.07932 -0.71094,1.578124 -0.1858,0.33376 -0.43301,0.61494 -0.63281,0.9375 -5.05681,0.438672 -9.83512,2.1769 -13.78125,5.109376 0.0581,-0.488248 0.104,-0.978392 0.1328,-1.468752 6.4e-4,-0.0104 -6.2e-4,-0.0208 0,-0.0312 0.16388,-2.849664 -0.16792,-5.716668 -0.945308,-8.507812 -0.0434,-0.15632 -0.0788,-0.31308 -0.125,-0.468752 -0.38268,-1.28612 -0.859168,-2.544624 -1.429688,-3.781248 -0.05888,-0.12756 -0.11104,-0.25592 -0.17188,-0.3828 2.261146,-3.916232 5.650536,-7.396752 10.046876,-9.921876 2.76464,-1.587972 5.66423,-2.621888 8.56252,-3.18756 z M 96,79.585936 c 0.725168,3.25348 0.762492,6.577996 0,9.789064 -0.762492,-3.211068 -0.725168,-6.535584 0,-9.789064 z m -21.031248,6.906252 c 2.916724,4.219336 6.858052,7.543768 11.437496,9.507812 -4.579444,1.964044 -8.520824,5.28852 -11.437496,9.50781 -4.544384,0.0148 -9.277924,-1.15926 -13.679688,-3.6875 -2.765388,-1.58835 -5.112588,-3.573266 -7.054688,-5.789062 0.0096,-0.0112 0.0216,-0.02 0.0312,-0.0312 -0.0096,-0.0112 -0.0216,-0.02 -0.0312,-0.0312 1.9421,-2.215796 4.2893,-4.200712 7.054688,-5.789064 4.401764,-2.52824 9.135308,-3.70228 13.679688,-3.6875 z m 42.062498,0 c 4.54438,-0.0148 9.27792,1.15926 13.67969,3.6875 2.76538,1.588352 5.11258,3.573268 7.05468,5.789064 -0.01,0.0112 -0.0216,0.02 -0.0312,0.0312 0.01,0.0112 0.0216,0.02 0.0312,0.0312 -1.9421,2.215796 -4.2893,4.200708 -7.05468,5.789068 -4.40177,2.52824 -9.13531,3.7023 -13.67969,3.6875 -2.91673,-4.21924 -6.85806,-7.543676 -11.4375,-9.50772 4.57945,-1.964044 8.52077,-5.288476 11.4375,-9.507812 z M 81.195312,87.3125 c 3.716852,0.979972 7.08364,2.83576 9.765624,5.476564 -0.76866,-0.20028 -1.55118,-0.36672 -2.28906,-0.64844 -0.0044,-0.0017 -0.0112,0.0017 -0.0156,0 -0.038,-0.0148 -0.07128,-0.04 -0.10936,-0.05468 h -0.008 C 86.10044,91.13636 83.846552,89.758992 81.86704,88.015632 81.62548,87.802872 81.428392,87.535824 81.195164,87.312508 Z m 29.609378,0 c -0.23324,0.22332 -0.43032,0.490364 -0.67188,0.703124 -1.97951,1.74336 -4.2334,3.120728 -6.67187,4.070312 h -0.008 c -0.038,0.0148 -0.0714,0.04 -0.10936,0.05468 -0.004,0.0017 -0.0112,-0.0017 -0.0156,0 -0.73788,0.28172 -1.5204,0.44816 -2.28906,0.64844 2.68198,-2.640804 6.04877,-4.496592 9.76562,-5.476564 z M 90.960936,99.210936 c -2.681984,2.640804 -6.048772,4.496594 -9.765624,5.476564 0.23324,-0.22332 0.430316,-0.49036 0.671876,-0.70312 1.979512,-1.74336 4.2334,-3.12073 6.671876,-4.070316 h 0.008 c 0.038,-0.0148 0.07136,-0.04 0.10936,-0.05468 0.0044,-0.0017 0.0112,0.0017 0.0156,0 0.73788,-0.28172 1.5204,-0.44816 2.28906,-0.64844 z m 10.078124,0 c 0.76866,0.20028 1.55118,0.36672 2.28906,0.64844 0.004,0.0017 0.0112,-0.0017 0.0156,0 0.038,0.0148 0.0714,0.04 0.10936,0.05468 h 0.008 c 2.43848,0.949584 4.69237,2.326954 6.67188,4.070314 0.24156,0.21276 0.43864,0.4798 0.67188,0.70312 -3.71686,-0.97997 -7.08364,-2.83576 -9.76563,-5.476562 z m -49.273436,0.04688 c 2.12366,2.305274 4.627372,4.364524 7.515624,6.023434 4.268292,2.45158 8.86476,3.79569 13.39844,4.125 -0.8577,1.76781 -1.54224,3.64444 -2.054688,5.60157 -0.0176,0.0651 -0.0376,0.13 -0.05468,0.19532 -0.0068,0.0252 -0.0088,0.0529 -0.0156,0.0781 -0.0072,0.028 -0.0084,0.0579 -0.0156,0.0859 -0.0144,0.0568 -0.0252,0.11496 -0.0392,0.17188 -0.15016,0.6174 -0.30868,1.23485 -0.421876,1.86718 -0.11388,0.61994 -0.1896,1.25609 -0.26564,1.89063 -0.0324,0.27504 -0.07636,0.54303 -0.10156,0.82031 -0.08788,0.94887 -0.14064,1.90667 -0.14064,2.88281 0,3.28354 0.52782,6.43566 1.453124,9.39063 -0.55586,0.0458 -1.112728,0.11476 -1.66406,0.10156 h -0.008 c -0.955892,-0.0268 -1.892128,-0.11248 -2.8125,-0.2422 -0.12796,-0.0184 -0.2554,-0.0421 -0.3828,-0.0625 -0.803868,-0.12632 -1.588832,-0.29816 -2.359372,-0.5 -0.12712,-0.0336 -0.25648,-0.0582 -0.3828,-0.0938 -1.75292,-0.49065 -3.413432,-1.1654 -4.945312,-2.02344 -0.12912,-0.0723 -0.24752,-0.15944 -0.375,-0.23436 -0.60696,-0.35652 -1.193908,-0.74518 -1.757816,-1.15625 -0.18152,-0.13248 -0.36188,-0.26792 -0.53906,-0.40625 -0.50054,-0.39032 -0.976712,-0.80133 -1.4375,-1.23438 -0.17296,-0.16276 -0.34824,-0.32316 -0.515624,-0.49218 -0.457664,-0.46134 -0.88544,-0.95712 -1.296876,-1.46094 -0.1288,-0.15816 -0.26632,-0.3062 -0.39064,-0.46875 -0.483844,-0.63081 -0.935336,-1.28668 -1.343748,-1.97657 -0.0272,-0.0457 -0.05912,-0.0868 -0.08592,-0.1328 l -0.008,-0.008 c -0.38164,-0.65841 -0.716028,-1.33136 -1.015628,-2.01562 l -0.008,-0.008 c -2.89466,-6.62028 -1.963032,-14.32141 2.070312,-20.718752 z m 88.468756,0 c 4.03334,6.397344 4.96497,14.098474 2.07031,20.718754 l -0.008,0.008 c -0.29892,0.68387 -0.6338,1.35702 -1.01544,2.01543 l -0.008,0.008 c -0.0268,0.046 -0.0591,0.0871 -0.0859,0.1328 -0.40841,0.68988 -0.85991,1.34576 -1.34375,1.97656 -0.12432,0.16256 -0.26184,0.3106 -0.39064,0.46875 -0.41144,0.50383 -0.83922,0.9996 -1.29688,1.46094 -0.1674,0.16904 -0.34268,0.32944 -0.51562,0.49219 -0.46079,0.43305 -0.93696,0.84405 -1.4375,1.23437 -0.17716,0.13832 -0.35752,0.27376 -0.53906,0.40625 -0.56391,0.41108 -1.15087,0.79973 -1.75782,1.15625 -0.12748,0.0749 -0.24588,0.16204 -0.375,0.23436 -1.53188,0.85804 -3.19239,1.53279 -4.94531,2.02344 -0.12632,0.0356 -0.25568,0.0602 -0.3828,0.0938 -0.77054,0.20184 -1.55551,0.37368 -2.35937,0.5 -0.1274,0.0204 -0.25484,0.0441 -0.3828,0.0625 -0.92037,0.12972 -1.85661,0.215 -2.8125,0.2422 h -0.008 c -0.55133,0.0132 -1.1082,-0.0558 -1.66406,-0.10156 0.9253,-2.95497 1.45312,-6.10709 1.45312,-9.39062 0,-0.97615 -0.0528,-1.93394 -0.14064,-2.88281 -0.0252,-0.27728 -0.0692,-0.54528 -0.10156,-0.82032 -0.076,-0.63454 -0.15176,-1.27068 -0.26564,-1.89062 -0.1132,-0.63233 -0.27172,-1.24979 -0.42187,-1.86719 -0.014,-0.0569 -0.0248,-0.11508 -0.0392,-0.17188 -0.007,-0.028 -0.008,-0.0579 -0.0156,-0.0859 -0.007,-0.0252 -0.009,-0.0529 -0.0156,-0.0781 -0.0172,-0.0653 -0.0372,-0.1302 -0.0547,-0.19532 -0.51245,-1.95712 -1.19699,-3.83375 -2.05469,-5.60156 4.53368,-0.32932 9.13014,-1.67342 13.39844,-4.125 2.88824,-1.65891 5.39196,-3.71817 7.51562,-6.023438 z M 96,102.625 c 0.762492,3.21107 0.725168,6.53558 0,9.78906 -0.725168,-3.25348 -0.762492,-6.57799 0,-9.78906 z m -4.789064,1.625 c -0.05808,0.48825 -0.104,0.97839 -0.1328,1.46875 -6.32e-4,0.0104 6.2e-4,0.0208 0,0.0312 -0.16388,2.84967 0.16792,5.71667 0.945312,8.50781 0.0434,0.15632 0.0788,0.31308 0.125,0.46876 0.38268,1.28612 0.859168,2.54462 1.429688,3.78124 0.05888,0.12756 0.11104,0.25592 0.17188,0.3828 -2.261148,3.91624 -5.650532,7.39676 -10.046876,9.92188 -2.76462,1.58791 -5.664216,2.62183 -8.5625,3.1875 -1.002732,-2.86572 -1.5537,-5.91017 -1.5625,-9 0,-2.29478 0.36924,-4.45364 0.890628,-6.53125 0.196,-0.78307 0.3468,-1.58949 0.609372,-2.33594 0.27904,-0.79059 0.658412,-1.51251 1.007812,-2.25781 0.24408,-0.52258 0.43438,-1.07932 0.71094,-1.57812 0.1858,-0.33376 0.433012,-0.61494 0.632812,-0.9375 5.056808,-0.43868 9.835124,-2.1769 13.781248,-5.10938 z m 9.578124,0 c 3.94613,2.93248 8.72444,4.6707 13.78125,5.10938 0.1998,0.32256 0.44701,0.60374 0.63281,0.9375 0.27656,0.4988 0.46686,1.05554 0.71094,1.57812 0.3494,0.7453 0.72878,1.46722 1.00782,2.25781 0.26256,0.74645 0.41337,1.55287 0.60937,2.33594 0.52139,2.07755 0.89063,4.23647 0.89063,6.53125 -0.009,3.08983 -0.55977,6.13428 -1.5625,9 -2.89829,-0.56567 -5.79788,-1.59959 -8.5625,-3.1875 -4.39635,-2.52512 -7.78573,-6.00564 -10.04688,-9.92188 0.06084,-0.12688 0.113,-0.25524 0.17188,-0.3828 0.57052,-1.23662 1.047008,-2.49512 1.429688,-3.78124 0.0462,-0.15568 0.0816,-0.31244 0.125,-0.46876 0.777392,-2.79114 1.109192,-5.65814 0.945312,-8.50781 -6.2e-4,-0.0104 6.3e-4,-0.0208 0,-0.0312 -0.0288,-0.49036 -0.0747,-0.9805 -0.1328,-1.46875 z M 96,122.79688 c 2.554788,3.73993 6.02172,7.02553 10.28906,9.47656 2.88602,1.65764 5.92675,2.78351 8.99219,3.46094 -1.33896,2.51616 -3.04056,4.76012 -5.05469,6.60156 -1.66222,1.51971 -3.52481,2.77773 -5.53125,3.71875 -0.66979,0.3138 -1.36219,0.59457 -2.0625,0.83593 C 100.53234,147.61464 98.305492,148.00004 96,148 c -2.305492,4e-5 -4.532344,-0.38536 -6.632812,-1.10938 -0.700304,-0.24136 -1.392712,-0.52213 -2.0625,-0.83593 -2.00644,-0.94102 -3.869028,-2.19904 -5.531252,-3.71875 -2.014124,-1.84144 -3.71572,-4.0854 -5.054684,-6.60156 3.065448,-0.67743 6.106172,-1.8033 8.992184,-3.46094 4.267348,-2.45103 7.734276,-5.73663 10.289064,-9.47656 z"
     style="fill:#ffffff;stroke-width:4" />
  <path
     style="opacity:0.1;fill:#ffffff;stroke-width:4"
     d="M 96 16 A 80 80 0 0 0 16 96 A 80 80 0 0 0 16.019531 96.472656 A 80 80 0 0 1 96 17 A 80 80 0 0 1 175.97461 96.513672 A 80 80 0 0 0 176 96 A 80 80 0 0 0 96 16 z "
     id="path12" />
</svg>
