<?xml version="1.0" encoding="UTF-8" standalone="no"?>
<svg
   xmlns:dc="http://purl.org/dc/elements/1.1/"
   xmlns:cc="http://creativecommons.org/ns#"
   xmlns:rdf="http://www.w3.org/1999/02/22-rdf-syntax-ns#"
   xmlns:svg="http://www.w3.org/2000/svg"
   xmlns="http://www.w3.org/2000/svg"
   xmlns:sodipodi="http://sodipodi.sourceforge.net/DTD/sodipodi-0.dtd"
   xmlns:inkscape="http://www.inkscape.org/namespaces/inkscape"
   width="192"
   height="192"
   version="1.1"
   id="svg16"
   sodipodi:docname="google_hangouts.svg"
   inkscape:version="0.92.3 (2405546, 2018-03-11)">
  <metadata
     id="metadata22">
    <rdf:RDF>
      <cc:Work
         rdf:about="">
        <dc:format>image/svg+xml</dc:format>
        <dc:type
           rdf:resource="http://purl.org/dc/dcmitype/StillImage" />
      </cc:Work>
    </rdf:RDF>
  </metadata>
  <defs
     id="defs20">
    <filter
       inkscape:collect="always"
       style="color-interpolation-filters:sRGB"
       id="filter847"
       x="-0.050666667"
       width="1.1013333"
       y="-0.0456"
       height="1.0912">
      <feGaussianBlur
         inkscape:collect="always"
         stdDeviation="3.04"
         id="feGaussianBlur849" />
    </filter>
    <filter
       inkscape:collect="always"
       style="color-interpolation-filters:sRGB"
       id="filter875"
       x="-0.040799756"
       width="1.0815995"
       y="-0.058286212"
       height="1.1165724">
      <feGaussianBlur
         inkscape:collect="always"
         stdDeviation="1.3599819"
         id="feGaussianBlur877" />
    </filter>
  </defs>
  <sodipodi:namedview
     pagecolor="#ffffff"
     bordercolor="#666666"
     borderopacity="1"
     objecttolerance="10"
     gridtolerance="10"
     guidetolerance="10"
     inkscape:pageopacity="0"
     inkscape:pageshadow="2"
     inkscape:window-width="1920"
     inkscape:window-height="1018"
     id="namedview18"
     showgrid="false"
     inkscape:zoom="1"
     inkscape:cx="96"
     inkscape:cy="96"
     inkscape:window-x="0"
     inkscape:window-y="32"
     inkscape:window-maximized="1"
     inkscape:current-layer="svg16" />
  <path
     inkscape:connector-curvature="0"
     id="path2"
     d="m 96,20 a 72,68 0 0 0 -72,68 72,68 0 0 0 71.0625,67.95312 c 0.71592,0.0344 0.958256,0.2332 0.953124,1 -0.0384,6.9884 -0.0176,15.18228 -0.0156,22.17188 9.12e-4,0.27128 0.0228,0.53764 0.0392,0.875 0.2372,-0.0922 0.388,-0.1466 0.531248,-0.21092 13.772398,-6.1668 26.413498,-13.95856 37.687498,-23.72656 2.24328,-1.94316 4.38873,-3.98093 6.45313,-6.10157 0.884,-0.9068 1.76264,-1.82845 2.64844,-2.73437 1.3684,-1.39456 2.55378,-2.95324 3.84374,-4.42188 1.48972,-1.69364 2.82916,-3.49288 4.14844,-5.30468 2.91652,-4.0044 5.52174,-8.18056 7.71094,-12.59376 1.10748,-2.23095 2.16051,-4.47964 3.09375,-6.78124 0.0312,-0.0435 0.0737,-0.078 0.0938,-0.125 2.5434,-6.3016 4.17146,-12.82563 5.03906,-19.515628 0.14604,-1.123604 0.2044,-2.254192 0.30468,-3.382812 a 72,68 0 0 0 0.0781,-0.929688 c 0.0712,-0.902408 0.19436,-1.800248 0.2422,-2.703124 0.0566,-1.07886 0.0693,-2.158352 0.0703,-3.234376 A 72,68 0 0 0 168,88 72,68 0 0 0 167.992,87.8828 c -0.006,-1.32258 -0.0503,-2.643508 -0.14064,-3.960936 -0.001,-0.0208 -0.006,-0.04156 -0.008,-0.06252 a 72,68 0 0 0 -0.19532,-1.992188 c -0.11244,-1.100964 -0.2502,-2.200408 -0.42187,-3.296876 A 72,68 0 0 0 96,20 Z"
     style="opacity:0.2;stroke-width:4;filter:url(#filter847)" />
  <path
     inkscape:connector-curvature="0"
     id="path4"
     d="m 96,16 a 72,68 0 0 0 -72,68 72,68 0 0 0 71.0625,67.95312 c 0.71592,0.0344 0.958256,0.2332 0.953124,1 -0.0384,6.9884 -0.0176,15.18228 -0.0156,22.17188 9.12e-4,0.27128 0.0228,0.53764 0.0392,0.875 0.2372,-0.0922 0.388,-0.1466 0.531248,-0.21092 13.772398,-6.1668 26.413498,-13.95856 37.687498,-23.72656 2.24328,-1.94316 4.38873,-3.98093 6.45313,-6.10157 0.884,-0.9068 1.76264,-1.82845 2.64844,-2.73437 1.3684,-1.39456 2.55378,-2.95324 3.84374,-4.42188 1.48972,-1.69364 2.82916,-3.49288 4.14844,-5.30468 2.91652,-4.0044 5.52174,-8.18056 7.71094,-12.59376 1.10748,-2.23095 2.16051,-4.47964 3.09375,-6.78124 0.0312,-0.0435 0.0737,-0.078 0.0938,-0.125 2.5434,-6.3016 4.17146,-12.82563 5.03906,-19.515628 0.14604,-1.123604 0.2044,-2.254192 0.30468,-3.382812 a 72,68 0 0 0 0.0781,-0.929688 c 0.0712,-0.902408 0.19436,-1.800248 0.2422,-2.703124 0.0566,-1.07886 0.0693,-2.158352 0.0703,-3.234376 A 72,68 0 0 0 168,84 72,68 0 0 0 167.992,83.8828 c -0.006,-1.32258 -0.0503,-2.643508 -0.14064,-3.960936 -0.001,-0.0208 -0.006,-0.04156 -0.008,-0.06252 a 72,68 0 0 0 -0.19532,-1.992188 c -0.11244,-1.100964 -0.2502,-2.200408 -0.42187,-3.296876 A 72,68 0 0 0 96,16 Z"
     style="fill:#16a05d;stroke-width:4" />
  <path
     style="opacity:0.2;fill:#ffffff;stroke-width:4"
     d="M 96 16 A 72 68 0 0 0 24 84 A 72 68 0 0 0 24.023438 84.394531 A 72 68 0 0 1 96 17 A 72 68 0 0 1 167.22656 75.570312 C 167.39823 76.666781 167.536 77.766223 167.64844 78.867188 A 72 68 0 0 1 167.84375 80.859375 C 167.84575 80.880335 167.85056 80.901075 167.85156 80.921875 C 167.93015 82.067975 167.96842 83.217006 167.98242 84.367188 C 167.98294 84.322956 167.98431 84.278553 167.98438 84.234375 A 72 68 0 0 0 168 84 A 72 68 0 0 0 167.99219 83.882812 C 167.98619 82.560232 167.9419 81.239303 167.85156 79.921875 C 167.85056 79.901075 167.84575 79.880335 167.84375 79.859375 A 72 68 0 0 0 167.64844 77.867188 C 167.536 76.766223 167.39823 75.66678 167.22656 74.570312 A 72 68 0 0 0 96 16 z "
     id="path6" />
  <path
     inkscape:connector-curvature="0"
     id="path8"
     d="m 84.5,62 c -8.3276,0.01 -16.649764,0.003 -24.976564,0.008 -0.63276,0 -1.231368,0.14012 -1.781248,0.492188 -1.41572,0.9006 -1.87666,2.230084 -1.71094,3.851564 0.0052,0.08344 0.0156,0.1666 0.0156,0.25 -0.0056,8.6648 -0.0208,14.734436 -0.0236,23.398436 0,2.20056 1.47456,3.947976 3.625,3.984376 0.57356,0.01 1.146112,-9.28e-4 1.718752,0 5.2676,0.0104 10.530876,0.02 15.796876,0.0312 -0.4188,2.4316 -1.340464,6.948476 -3.164064,8.671876 -1.51952,1.4352 -2.04804,2.07633 -4,2.53125 -1.53956,0.35764 -1.99818,0.88832 -2,2.14844 -8e-4,0.3604 0.0164,0.72365 0.0236,1.08593 -0.0152,1.64016 -0.0312,3.28096 -0.04688,4.92188 0.0072,0.91636 0.0108,1.82675 0.0236,2.74219 0.0156,1.30644 -0.33892,2.04244 0.9375,1.85156 1.67348,-0.24832 3.307288,-0.6346 4.929688,-1.10156 0.06012,-0.0344 0.1196,-0.0664 0.17968,-0.10156 0.10836,-0.0316 0.2156,-0.0654 0.32032,-0.0938 0.19116,-0.0982 0.3824,-0.21164 0.578124,-0.29688 7.764,-3.2864 13.031864,-11.28895 13.039064,-19.843754 0.0084,-9.5768 0,-19.15056 0,-28.72656 0,-0.43916 0.0288,-0.884048 -0.14064,-1.304688 C 88.552952,64.27456 86.7178,61.99722 84.5,62 Z m 48,0 c -8.3276,0.01 -16.64976,0.003 -24.97656,0.008 -0.63276,0 -1.23137,0.14012 -1.78125,0.492188 -1.41572,0.9006 -1.87666,2.230084 -1.71094,3.851564 0.005,0.08344 0.0156,0.1666 0.0156,0.25 -0.006,8.6648 -0.0208,14.734436 -0.0236,23.398436 0,2.20056 1.47456,3.947976 3.625,3.984376 0.57356,0.01 1.14611,-9.28e-4 1.71875,0 5.2676,0.0104 10.53088,0.02 15.79688,0.0312 -0.4188,2.4316 -1.34047,6.948476 -3.16407,8.671876 -1.51952,1.4352 -2.04804,2.07633 -4,2.53125 -1.53956,0.35764 -1.99818,0.88832 -2,2.14844 -8e-4,0.3604 0.0164,0.72365 0.0236,1.08593 -0.0152,1.64016 -0.0312,3.28096 -0.0469,4.92188 0.007,0.91636 0.0108,1.82675 0.0236,2.74219 0.0156,1.30644 -0.33892,2.04244 0.9375,1.85156 1.67348,-0.24832 3.30729,-0.6346 4.92969,-1.10156 0.0601,-0.0344 0.1196,-0.0664 0.17968,-0.10156 0.10836,-0.0316 0.2156,-0.0654 0.32032,-0.0938 0.19116,-0.0982 0.3824,-0.21164 0.57812,-0.29688 7.764,-3.2864 13.03187,-11.28895 13.03907,-19.843754 0.008,-9.5768 0,-19.15056 0,-28.72656 0,-0.43916 0.0288,-0.884048 -0.14064,-1.304688 C 136.55295,64.27456 134.7178,61.99722 132.5,62 Z"
     style="opacity:0.2;stroke-width:4;filter:url(#filter875)" />
  <path
     inkscape:connector-curvature="0"
     id="path10"
     d="m 122.36816,114.67197 c -0.10472,0.0284 -0.2112,0.0593 -0.31956,0.0908 -0.0601,0.0352 -0.12108,0.0704 -0.1812,0.10468 -1.6224,0.46696 -3.25932,0.85428 -4.9328,1.1026 -1.27644,0.19088 -0.91612,-0.54296 -0.9316,-1.8494 -0.0128,-0.91544 -0.0192,-1.83272 -0.0264,-2.74908 0.0156,-1.64092 0.0312,-3.28184 0.0464,-4.922 -0.007,-0.36228 -0.02,-0.7218 -0.0192,-1.0822 0.002,-1.26012 0.45644,-1.79196 1.996,-2.1496 1.95196,-0.45492 2.48448,-1.09612 4.004,-2.53132 1.8236,-1.723398 2.74404,-6.238398 3.16284,-8.669998 -5.266,-0.0112 -10.53,-0.0204 -15.7976,-0.0308 -0.57264,-9.28e-4 -1.14624,0.0072 -1.7198,-0.0028 -2.15044,-0.0364 -3.6226,-1.78264 -3.6226,-3.9832 0.003,-8.664 0.0144,-14.7304 0.02,-23.3952 0,-0.0834 -0.009,-0.16676 -0.0144,-0.2502 -0.16572,-1.62148 0.29224,-2.95012 1.70796,-3.85072 0.54988,-0.35208 1.14804,-0.49664 1.7808,-0.49664 8.3268,-0.0048 16.6528,0.0028 24.9804,-0.0072 3.70692,-0.03879 3.37844,3.19613 3.4824,5.80284 0,9.576 0.006,19.1516 -0.003,28.7284 -0.007,8.554798 -5.2752,16.560398 -13.0392,19.846798 -0.19572,0.0852 -0.3824,0.19548 -0.57356,0.29372 0.1384,0.1742 0.30408,0.22236 0.47616,0.22888 -0.17204,-0.006 -0.33868,-0.0546 -0.47616,-0.22888 z"
     style="fill:#ffffff;stroke-width:4"
     sodipodi:nodetypes="cccccccccccccccccccccccccc" />
  <path
     inkscape:connector-curvature="0"
     id="path12"
     d="m 74.36816,114.67197 c -0.10472,0.0284 -0.2112,0.0593 -0.31956,0.0908 -0.06008,0.0352 -0.12108,0.0704 -0.1812,0.10468 -1.6224,0.46696 -3.25932,0.85428 -4.9328,1.1026 -1.27644,0.19088 -0.91612,-0.54296 -0.9316,-1.8494 -0.0128,-0.91544 -0.0192,-1.83272 -0.0264,-2.74908 0.0156,-1.64092 0.0312,-3.28184 0.04644,-4.922 -0.0072,-0.36228 -0.02,-0.7218 -0.0192,-1.0822 0.0018,-1.26012 0.45644,-1.79196 1.996,-2.1496 1.95196,-0.45492 2.48448,-1.09612 4.004,-2.53132 1.8236,-1.723398 2.74404,-6.238398 3.16284,-8.669998 -5.266,-0.0112 -10.53,-0.0204 -15.7976,-0.0308 -0.57264,-9.28e-4 -1.14624,0.0072 -1.7198,-0.0028 -2.15044,-0.0364 -3.6226,-1.78264 -3.6226,-3.9832 0.0027,-8.664 0.0144,-14.7304 0.02,-23.3952 0,-0.0834 -0.0092,-0.16676 -0.0144,-0.2502 -0.16572,-1.62148 0.29224,-2.95012 1.70796,-3.85072 0.54988,-0.35208 1.14804,-0.49664 1.7808,-0.49664 8.3268,-0.0048 16.6528,0.0028 24.9804,-0.0072 3.459402,0.08497 3.378442,3.19613 3.4824,5.80284 0,9.576 0.0056,19.1516 -0.0027,28.7284 -0.0072,8.554798 -5.2752,16.560398 -13.0392,19.846798 -0.19572,0.0852 -0.3824,0.19548 -0.57356,0.29372 0.1384,0.1742 0.30408,0.22236 0.47616,0.22888 -0.17204,-0.006 -0.33868,-0.0546 -0.47616,-0.22888 z"
     style="fill:#ffffff;stroke-width:4"
     sodipodi:nodetypes="cccccccccccccccccccccccccc" />
</svg>
