<?xml version="1.0" encoding="UTF-8" standalone="no"?>
<svg
   xmlns:dc="http://purl.org/dc/elements/1.1/"
   xmlns:cc="http://creativecommons.org/ns#"
   xmlns:rdf="http://www.w3.org/1999/02/22-rdf-syntax-ns#"
   xmlns:svg="http://www.w3.org/2000/svg"
   xmlns="http://www.w3.org/2000/svg"
   xmlns:sodipodi="http://sodipodi.sourceforge.net/DTD/sodipodi-0.dtd"
   xmlns:inkscape="http://www.inkscape.org/namespaces/inkscape"
   width="192"
   height="192"
   version="1"
   id="svg16"
   sodipodi:docname="google_adm.svg"
   inkscape:version="0.92.3 (2405546, 2018-03-11)">
  <metadata
     id="metadata22">
    <rdf:RDF>
      <cc:Work
         rdf:about="">
        <dc:format>image/svg+xml</dc:format>
        <dc:type
           rdf:resource="http://purl.org/dc/dcmitype/StillImage" />
      </cc:Work>
    </rdf:RDF>
  </metadata>
  <defs
     id="defs20">
    <filter
       inkscape:collect="always"
       style="color-interpolation-filters:sRGB"
       id="filter853"
       x="-0.048"
       width="1.096"
       y="-0.048"
       height="1.096">
      <feGaussianBlur
         inkscape:collect="always"
         stdDeviation="3.2"
         id="feGaussianBlur855" />
    </filter>
    <filter
       inkscape:collect="always"
       style="color-interpolation-filters:sRGB"
       id="filter869"
       x="-0.050157925"
       width="1.1003159"
       y="-0.046020095"
       height="1.0920402">
      <feGaussianBlur
         inkscape:collect="always"
         stdDeviation="2.3407032"
         id="feGaussianBlur871" />
    </filter>
  </defs>
  <sodipodi:namedview
     pagecolor="#ffffff"
     bordercolor="#666666"
     borderopacity="1"
     objecttolerance="10"
     gridtolerance="10"
     guidetolerance="10"
     inkscape:pageopacity="0"
     inkscape:pageshadow="2"
     inkscape:window-width="1920"
     inkscape:window-height="1018"
     id="namedview18"
     showgrid="false"
     inkscape:zoom="3.52"
     inkscape:cx="96"
     inkscape:cy="73.272727"
     inkscape:window-x="0"
     inkscape:window-y="32"
     inkscape:window-maximized="1"
     inkscape:current-layer="svg16" />
  <rect
     style="opacity:0.2;fill:#000000;stroke-width:4;filter:url(#filter853)"
     width="160"
     height="160"
     x="-180"
     y="-176"
     rx="80"
     ry="80"
     transform="matrix(0,-1,-1,0,0,0)"
     id="rect835" />
  <rect
     id="rect4"
     transform="matrix(0,-1,-1,0,0,0)"
     ry="80"
     rx="80"
     y="-176"
     x="-176"
     height="160"
     width="160"
     style="fill:#1a9f5e;stroke-width:4" />
  <path
     style="opacity:0.2;fill:#ffffff;stroke-width:4"
     d="M 96 16 C 51.68 16 16 51.68 16 96 C 16 96.336 16.002 96.6675 16 97 C 16 52.68 51.68 17 96 17 C 140.32 17 176 52.68 176 97 C 175.998 96.6675 176 96.336 176 96 C 176 51.68 140.32 16 96 16 z "
     id="path6" />
  <path
     inkscape:connector-curvature="0"
     id="path8"
     d="m 96,44.001677 c -30.927944,0 -56,25.072056 -56,56.000003 0.0336,25.70987 17.883292,46.94215 42.523436,54.28124 4.06188,1.20984 6.30636,4.55024 9,7.375 2.31,2.42245 4.35716,4.40782 4.554688,4.41406 0.19752,0.006 2.090648,-1.77702 4.203126,-3.96093 2.67479,-2.76526 5.36795,-6.48835 10.11719,-8.01563 C 134.554,146.32739 151.98932,125.37555 152,100.00168 152,69.073733 126.92794,44.001677 96,44.001677 Z"
     style="opacity:0.2;stroke-width:4;filter:url(#filter869)" />
  <path
     inkscape:connector-curvature="0"
     id="path10"
     d="m 96,40 c -30.927944,0 -56,25.072056 -56,56 0.0336,25.70988 17.883292,46.94216 42.523436,54.28125 4.06188,1.20983 6.30636,4.55024 9,7.375 2.31,2.42245 4.35716,4.40782 4.554688,4.41406 0.19752,0.006 2.090648,-1.77702 4.203126,-3.96093 2.67479,-2.76526 5.36795,-6.48835 10.11719,-8.01563 C 134.554,142.32572 151.98932,121.37388 152,96 152,65.072056 126.92794,40 96,40 Z"
     style="fill:#ffffff;stroke-width:4" />
  <path
     inkscape:connector-curvature="0"
     id="path12"
     d="m 80,60 c -4.432,0 -8,3.568 -8,8 v 56 c 0,4.432 3.568,8 8,8 h 32 c 4.432,0 8,-3.568 8,-8 V 68 c 0,-4.432 -3.568,-8 -8,-8 z m 0,12 h 32 v 48 H 80 Z"
     style="fill:#4f4f4f;fill-rule:evenodd;stroke-width:4" />
</svg>
