<?xml version="1.0" encoding="UTF-8" standalone="no"?>
<svg
   xmlns:dc="http://purl.org/dc/elements/1.1/"
   xmlns:cc="http://creativecommons.org/ns#"
   xmlns:rdf="http://www.w3.org/1999/02/22-rdf-syntax-ns#"
   xmlns:svg="http://www.w3.org/2000/svg"
   xmlns="http://www.w3.org/2000/svg"
   xmlns:sodipodi="http://sodipodi.sourceforge.net/DTD/sodipodi-0.dtd"
   xmlns:inkscape="http://www.inkscape.org/namespaces/inkscape"
   width="192"
   height="192"
   preserveAspectRatio="xMidYMid"
   version="1.1"
   id="svg18"
   sodipodi:docname="google_gmail_go.svg"
   inkscape:version="0.92.3 (2405546, 2018-03-11)">
  <metadata
     id="metadata24">
    <rdf:RDF>
      <cc:Work
         rdf:about="">
        <dc:format>image/svg+xml</dc:format>
        <dc:type
           rdf:resource="http://purl.org/dc/dcmitype/StillImage" />
        <dc:title></dc:title>
      </cc:Work>
    </rdf:RDF>
  </metadata>
  <defs
     id="defs22">
    <filter
       inkscape:collect="always"
       style="color-interpolation-filters:sRGB"
       id="filter864"
       x="-0.042"
       width="1.084"
       y="-0.056"
       height="1.112">
      <feGaussianBlur
         inkscape:collect="always"
         stdDeviation="2.8"
         id="feGaussianBlur866" />
    </filter>
    <filter
       inkscape:collect="always"
       style="color-interpolation-filters:sRGB"
       id="filter884"
       x="-0.034199619"
       width="1.0683992"
       y="-0.0804727"
       height="1.1609454">
      <feGaussianBlur
         inkscape:collect="always"
         stdDeviation="2.2800595"
         id="feGaussianBlur886" />
    </filter>
    <filter
       inkscape:collect="always"
       style="color-interpolation-filters:sRGB"
       id="filter866"
       x="-0.036444444"
       width="1.0728889"
       y="-0.070285714"
       height="1.1405714">
      <feGaussianBlur
         inkscape:collect="always"
         stdDeviation="0.82"
         id="feGaussianBlur868" />
    </filter>
  </defs>
  <sodipodi:namedview
     pagecolor="#ffffff"
     bordercolor="#666666"
     borderopacity="1"
     objecttolerance="10"
     gridtolerance="10"
     guidetolerance="10"
     inkscape:pageopacity="0"
     inkscape:pageshadow="2"
     inkscape:window-width="1920"
     inkscape:window-height="1018"
     id="namedview20"
     showgrid="false"
     inkscape:zoom="1"
     inkscape:cx="103.91728"
     inkscape:cy="60.796302"
     inkscape:window-x="0"
     inkscape:window-y="32"
     inkscape:window-maximized="1"
     inkscape:current-layer="svg18">
    <inkscape:grid
       type="xygrid"
       id="grid847" />
  </sodipodi:namedview>
  <path
     style="opacity:0.2;fill:#000000;stroke-width:4;filter:url(#filter864)"
     d="m 28.275391,40 -0.970703,2.609375 c -0.205634,0.552655 -0.426195,1.005377 -0.65625,1.40625 C 26.430518,44.012277 26.221793,44 26,44 21.11,44 17.103713,44.760344 16.195312,48.652344 16.068513,49.196344 16,49.800656 16,50.472656 v 5.451172 78.496092 15.74024 C 16,155.64416 20.428,160 26,160 h 10 120 10 c 5.572,0 10,-4.34812 10,-9.82812 v -15.2168 -79.466799 -5.3125 c 0,-5.194792 -3.99898,-6.081528 -9.16406,-6.160156 -0.1812,-0.239746 -0.19217,-0.261746 -0.40039,-0.535156 L 163.78516,40 Z"
     id="path841"
     inkscape:connector-curvature="0" />
  <path
     inkscape:connector-curvature="0"
     id="path4"
     d="M 166,156 H 35.341364 l -5.593039,-4.01606 c -4.409413,-3.16617 -7.911998,-1.66588 -9.464525,-6.95889 l -4.283802,-14.6047 V 51.923872 l 3.480153,-5.798364 c 2.768651,-4.612912 5.881944,-2.293552 7.824905,-7.515394 L 28.276236,36 H 163.78466 l 2.65036,3.480152 c 3.28891,4.318636 2.97049,4.157016 6.51985,8.383032 L 176,51.488852 v 79.466968 l -2.94511,13.53136 c -1.17395,5.39372 -4.96348,8.03383 -10.53548,8.03383 z"
     style="fill:#e4e4e4;stroke-width:4" />
  <path
     inkscape:connector-curvature="0"
     id="path6"
     d="m 26,40 c -4.89,0 -8.896,0.76 -9.8044,4.652 C 16.0688,45.196 16,45.8 16,46.472 v 99.688 c 0,5.484 4.428,9.84 10,9.84 H 36 V 46.472 C 36,45.804 35.9284,45.196 35.7964,44.652 34.8884,40.76 30.89,40 26,40 Z"
     style="fill:#b63728;stroke-width:4" />
  <path
     inkscape:connector-curvature="0"
     id="path8"
     d="m 166,40 c -5.572,0 -10,0.7 -10,6.176 V 156 h 10 c 5.572,0 10,-4.348 10,-9.828 V 46.176 c 0,-5.4768 -4.428,-6.1768 -10,-6.1768 z"
     style="fill:#b63728;stroke-width:4" />
  <path
     inkscape:connector-curvature="0"
     style="opacity:0.2;fill:#ffffff;stroke-width:4"
     d="m 26,36 c -2.51975,0 -3.046408,1.209651 -2.873047,3.019531 C 23.253643,37.782615 23.982674,37 26,37 h 140 c 2.17575,0 2.8961,1.199365 2.99805,2.974609 C 169.1115,37.660084 168.56333,36 166,36 Z m -2.78125,5.71875 c -0.08937,0.419757 -0.08943,0.909078 -0.04297,1.4375 0.01501,-0.145055 0.0143,-0.302851 0.04297,-0.4375 0.02779,0.165493 0.08166,0.363891 0.126953,0.552734 0.04021,-0.116458 0.08647,-0.22855 0.154297,-0.326172 -0.09188,-0.4016 -0.219594,-0.85935 -0.28125,-1.226562 z M 23.5,42.945312 c 0.05964,0.260653 0.124769,0.556635 0.189453,0.826172 0.0651,-0.04585 0.132985,-0.08941 0.193359,-0.138672 0.358576,1.482817 0.6875,3.03597 0.6875,4.59375 v -1 c 0,-1.55778 -0.328924,-3.110933 -0.6875,-4.59375 -0.127891,0.10436 -0.29278,0.1829 -0.382812,0.3125 z M 168.96875,42.53125 c -0.0356,0.406856 -0.13303,0.892073 -0.19531,1.328125 0.0316,0.102778 0.0694,0.200436 0.10351,0.300781 0.0343,-0.214225 0.075,-0.436278 0.0918,-0.628906 0.0194,0.148402 0.0187,0.316198 0.0273,0.474609 0.0271,-0.525844 0.0307,-1.029468 -0.0273,-1.474609 z m -0.19531,1.328125 c -0.0663,-0.21572 -0.0906,-0.466406 -0.19532,-0.648437 -0.31631,1.887599 -0.65624,3.846402 -0.65624,5.664062 v 1 c 0,-1.81766 0.33993,-3.776463 0.65624,-5.664062 0.0458,0.07966 0.0724,0.176163 0.0977,0.273437 0.0315,-0.20436 0.069,-0.424293 0.0977,-0.625 z"
     id="path10" />
  <path
     inkscape:connector-curvature="0"
     id="path12"
     d="m 26.151527,38.001256 a 9.9933144,9.9888756 0 0 0 -5.690935,18.3059 L 90.4068,104.24896 a 9.9933144,9.9888756 0 0 0 11.3038,0 L 171.6568,56.307156 A 9.9950944,9.9906552 0 1 0 160.353,39.827164 L 96.0587,83.898668 31.764396,39.827164 a 9.9933144,9.9888756 0 0 0 -5.612869,-1.825908 z"
     style="opacity:0.2;fill-rule:evenodd;stroke-width:4;filter:url(#filter884)" />
  <path
     inkscape:connector-curvature="0"
     id="path14"
     d="M 26.151527,36.001253 A 9.9933144,9.9888756 0 0 0 20.460592,54.307156 L 90.4068,102.24896 a 9.9933144,9.9888756 0 0 0 11.3038,0 L 171.6568,54.307156 A 9.9950944,9.9906552 0 1 0 160.353,37.827162 L 96.0587,81.898664 31.764396,37.827162 a 9.9933144,9.9888756 0 0 0 -5.612869,-1.825909 z"
     style="fill:#d54b3d;fill-rule:evenodd;stroke-width:4" />
  <path
     style="font-style:normal;font-variant:normal;font-weight:normal;font-stretch:normal;font-size:medium;line-height:1.25;font-family:'Noto Sans';-inkscape-font-specification:'Noto Sans';letter-spacing:0px;word-spacing:0px;opacity:0.2;fill:#000000;fill-opacity:1;stroke:none;stroke-width:0.94049186;filter:url(#filter866)"
     d="m 83.726562,118 c -2.893761,0 -5.367082,0.58406 -7.419921,1.75391 -2.052839,1.14441 -3.622687,2.772 -4.710938,4.88281 C 70.532184,126.7221 70,129.17711 70,132 c 0,2.87375 0.482679,5.36575 1.447266,7.47656 0.98932,2.08538 2.423027,3.7013 4.302734,4.84571 1.879709,1.11898 4.192139,1.67773 6.9375,1.67773 1.854975,0 3.513409,-0.11486 4.972656,-0.34375 1.459247,-0.22887 2.90533,-0.58516 4.339844,-1.06836 V 131 h -9 v 3 h 6 v 8.37695 c -0.667791,0.17802 -1.748264,0.32987 -2.564453,0.45703 -0.816189,0.12713 -1.806299,0.19141 -2.96875,0.19141 -2.374368,0 -4.290754,-0.45947 -5.75,-1.375 -1.459247,-0.94096 -2.535992,-2.23758 -3.228516,-3.89062 -0.667791,-1.67848 -1,-3.5981 -1,-5.75977 0,-3.38238 0.87677,-6.0535 2.632813,-8.01172 1.780775,-1.98365 4.254099,-2.97461 7.419922,-2.97461 1.261383,0 2.474266,0.16549 3.636718,0.4961 1.187183,0.30517 2.2496,0.66145 3.189454,1.06835 l 1.261718,-2.97656 c -1.137719,-0.50863 -2.373403,-0.90189 -3.708984,-1.18164 C 86.609073,118.14018 85.210542,118 83.726562,118 Z m 27.332028,0 c -2.94587,0 -5.39151,0.5837 -7.33789,1.75195 -1.92008,1.16826 -3.35389,2.80613 -4.300778,4.91407 C 98.473033,126.74856 98,129.17511 98,131.94336 c 0,2.81905 0.473033,5.28269 1.419922,7.39062 0.946888,2.10795 2.380698,3.74582 4.300778,4.91407 1.94638,1.16825 4.37925,1.75195 7.29883,1.75195 2.81436,0 5.18148,-0.5837 7.10156,-1.75195 1.94639,-1.16825 3.40572,-2.7944 4.37891,-4.87696 0.9995,-2.10792 1.5,-4.57156 1.5,-7.39062 0,-2.81905 -0.5005,-5.26902 -1.5,-7.35156 -0.97319,-2.10793 -2.41975,-3.73409 -4.33984,-4.87696 C 116.24008,118.5837 113.87296,118 111.05859,118 Z m 0,3.00977 c 3.1826,0 5.51144,0.97804 6.98438,2.93359 1.47294,1.93015 2.20898,4.60854 2.20898,8.03711 0,3.42857 -0.7488,6.13428 -2.24804,8.11523 -1.47294,1.95556 -3.80179,2.9336 -6.98438,2.9336 -3.18261,0 -5.5242,-0.97804 -7.02344,-2.9336 -1.49924,-1.98095 -2.24804,-4.68666 -2.24804,-8.11523 0,-3.42857 0.7488,-6.10696 2.24804,-8.03711 1.49924,-1.95555 3.8536,-2.93359 7.0625,-2.93359 z"
     id="path849"
     inkscape:connector-curvature="0" />
  <path
     inkscape:connector-curvature="0"
     id="path840"
     style="font-style:normal;font-variant:normal;font-weight:normal;font-stretch:normal;font-size:medium;line-height:1.25;font-family:'Noto Sans';-inkscape-font-specification:'Noto Sans';letter-spacing:0px;word-spacing:0px;fill:#b63728;fill-opacity:1;stroke:none;stroke-width:0.94049186"
     d="m 83,129 h 9 v 13.58856 c -1.434514,0.4832 -2.881394,0.83924 -4.340641,1.06811 C 86.200112,143.88556 84.543001,144 82.688026,144 79.942665,144 77.63013,143.44051 75.750421,142.32153 73.870714,141.17712 72.4362,139.56222 71.44688,137.47684 70.482293,135.36603 70,132.87375 70,130 c 0,-2.82289 0.531759,-5.27702 1.595278,-7.3624 1.088251,-2.11081 2.658796,-3.73842 4.711635,-4.88283 2.052839,-1.16985 4.526139,-1.75477 7.4199,-1.75477 1.483979,0 2.881393,0.13987 4.192242,0.41961 1.335581,0.27975 2.572231,0.67394 3.70995,1.18257 l -1.261383,2.97548 c -0.939854,-0.40691 -2.003373,-0.76295 -3.190556,-1.06812 -1.162452,-0.33061 -2.374369,-0.49592 -3.635752,-0.49592 -3.165823,0 -5.639122,0.99183 -7.419897,2.97548 -1.756043,1.95822 -2.634065,4.62852 -2.634065,8.0109 0,2.16167 0.333895,4.08174 1.001686,5.76022 0.692524,1.65304 1.76841,2.95004 3.227657,3.891 1.459246,0.91553 3.376053,1.3733 5.750421,1.3733 1.162451,0 2.151771,-0.0636 2.96796,-0.19073 0.816189,-0.12716 1.897133,-0.27975 2.564924,-0.45777 V 132 h -6 z"
     sodipodi:nodetypes="ccccsccsccsccccscsccsccccc" />
  <path
     inkscape:connector-curvature="0"
     id="path842"
     style="font-style:normal;font-variant:normal;font-weight:normal;font-stretch:normal;font-size:medium;line-height:1.25;font-family:'Noto Sans';-inkscape-font-specification:'Noto Sans';letter-spacing:0px;word-spacing:0px;fill:#b63728;fill-opacity:1;stroke:none;stroke-width:0.96921307"
     d="m 124,129.98095 q 0,4.22859 -1.49925,7.39047 -1.45978,3.12383 -4.37936,4.8762 Q 115.24127,144 111.01973,144 q -4.37937,0 -7.29894,-1.75238 -2.88013,-1.75237 -4.300456,-4.91429 Q 98,134.17143 98,129.94286 q 0,-4.15238 1.420334,-7.27619 1.420326,-3.16191 4.300456,-4.91429 Q 106.64036,116 111.05917,116 q 4.22155,0 7.10166,1.75238 2.88014,1.7143 4.33992,4.87619 Q 124,125.75238 124,129.98095 Z m -22.2519,0 q 0,5.14286 2.24886,8.11429 2.24886,2.93333 7.02277,2.93333 4.77389,0 6.98329,-2.93333 2.24887,-2.97143 2.24887,-8.11429 0,-5.14286 -2.20941,-8.03808 -2.20941,-2.93333 -6.98331,-2.93333 -4.81335,0 -7.06221,2.93333 -2.24886,2.89522 -2.24886,8.03808 z" />
</svg>
