<?xml version="1.0" encoding="UTF-8" standalone="no"?>
<svg
   xmlns:dc="http://purl.org/dc/elements/1.1/"
   xmlns:cc="http://creativecommons.org/ns#"
   xmlns:rdf="http://www.w3.org/1999/02/22-rdf-syntax-ns#"
   xmlns:svg="http://www.w3.org/2000/svg"
   xmlns="http://www.w3.org/2000/svg"
   xmlns:sodipodi="http://sodipodi.sourceforge.net/DTD/sodipodi-0.dtd"
   xmlns:inkscape="http://www.inkscape.org/namespaces/inkscape"
   width="192"
   height="192"
   version="1"
   id="svg20"
   sodipodi:docname="google_pixel_ambient_services.svg"
   inkscape:version="0.92.3 (2405546, 2018-03-11)">
  <metadata
     id="metadata26">
    <rdf:RDF>
      <cc:Work
         rdf:about="">
        <dc:format>image/svg+xml</dc:format>
        <dc:type
           rdf:resource="http://purl.org/dc/dcmitype/StillImage" />
      </cc:Work>
    </rdf:RDF>
  </metadata>
  <defs
     id="defs24">
    <filter
       inkscape:collect="always"
       style="color-interpolation-filters:sRGB"
       id="filter865"
       x="-0.047999998"
       width="1.096"
       y="-0.048000002"
       height="1.096">
      <feGaussianBlur
         inkscape:collect="always"
         stdDeviation="2.7328263"
         id="feGaussianBlur867" />
    </filter>
    <filter
       inkscape:collect="always"
       style="color-interpolation-filters:sRGB"
       id="filter893"
       x="-0.048303508"
       width="1.096607"
       y="-0.047700282"
       height="1.0954006">
      <feGaussianBlur
         inkscape:collect="always"
         stdDeviation="3.0829014"
         id="feGaussianBlur895" />
    </filter>
    <filter
       inkscape:collect="always"
       style="color-interpolation-filters:sRGB"
       id="filter909"
       x="-0.048"
       width="1.096"
       y="-0.048"
       height="1.096">
      <feGaussianBlur
         inkscape:collect="always"
         stdDeviation="1.28"
         id="feGaussianBlur911" />
    </filter>
  </defs>
  <sodipodi:namedview
     pagecolor="#ffffff"
     bordercolor="#666666"
     borderopacity="1"
     objecttolerance="10"
     gridtolerance="10"
     guidetolerance="10"
     inkscape:pageopacity="0"
     inkscape:pageshadow="2"
     inkscape:window-width="1920"
     inkscape:window-height="1018"
     id="namedview22"
     showgrid="false"
     inkscape:zoom="1"
     inkscape:cx="96"
     inkscape:cy="107.43235"
     inkscape:window-x="0"
     inkscape:window-y="32"
     inkscape:window-maximized="1"
     inkscape:current-layer="svg20" />
  <path
     inkscape:connector-curvature="0"
     id="path2"
     d="m 79.596,20.003179 c -1.7,0.1848 -3.196,1.5724 -3.508,3.25 l -3.38,17.124801 c -6.068,2.369204 -11.772,5.624804 -16.78,9.624804 l -15.094392,-5.098052 -1.749002,1.177796 c -1.7304,-0.5956 -1.177285,2.827916 -2.106885,4.401116 L 24.168618,76.719692 c -0.9028,1.596 -3.545903,2.478244 -2.153503,3.674244 L 32.6372,90.502784 c -0.46744,3.11696 -0.75132,6.2528 -0.75132,9.499996 0,3.24696 0.284108,6.3828 0.75132,9.5 l -11.569054,12.00279 c -1.3924,1.196 3.712824,1.69945 4.615624,3.29545 l 15.460218,24.7193 c 0.9296,1.57368 0.944908,5.37582 2.675068,4.78026 L 55.9284,150.00154 c 5.0056,3.9998 10.7104,7.2552 16.78,9.6248 l 3.570432,12.76874 c 0.3426,1.79256 4.515964,2.08876 6.344044,2.11356 l 25.428414,0.56818 c 1.82804,-0.024 3.16037,0.43658 3.50313,-1.35598 l 7.7371,-14.0945 c 6.0696,-2.36944 11.7744,-5.6252 16.78,-9.6248 l 16.6548,5.6248 c 1.73024,0.59556 3.82888,-0.1764 4.7584,-1.74996 l 16.0284,-27.7496 c 0.90284,-1.596 0.5156,-3.80476 -0.87656,-5 l -13.268,-11.624 c 0.46744,-3.11696 0.75136,-6.2528 0.75136,-9.5 0,-3.246956 -0.28412,-6.382796 -0.75136,-9.499996 l 13.2736,-11.6248 c 1.39216,-1.19512 1.7794,-3.40388 0.87656,-5 l -16.028,-27.7512 c -0.928,-1.5736 -3.028,-2.3452 -4.756,-1.7496 l -16.6548,5.6248 c -5.008,-4 -10.712,-7.2556 -16.78,-9.624804 l -3.38,-17.124801 c -0.344,-1.7924 -2.056,-3.2252 -3.884,-3.25 h -32.0572 c -0.12504,-0.004 -0.25044,-0.004 -0.37548,0 z"
     style="opacity:0.2;stroke-width:4;filter:url(#filter893)" />
  <path
     inkscape:connector-curvature="0"
     id="path4"
     d="m 79.596,16.0036 c -1.7,0.1848 -3.196,1.5724 -3.508,3.25 l -3.38,17.1248 c -6.068,2.3692 -11.772,5.6248 -16.78,9.6248 l -15.094392,-5.098052 -1.749002,1.177796 c -1.7304,-0.5956 -1.177285,2.827916 -2.106885,4.401116 L 24.168618,72.720108 c -0.9028,1.596 -3.545903,2.478244 -2.153503,3.674244 L 32.6372,86.5032 c -0.46744,3.11696 -0.75132,6.2528 -0.75132,9.5 0,3.24696 0.284108,6.3828 0.75132,9.5 l -11.569054,12.00279 c -1.3924,1.196 3.712824,1.69945 4.615624,3.29545 l 15.460218,24.7193 c 0.9296,1.57368 0.944908,5.37582 2.675068,4.78026 L 55.9284,146.00196 c 5.0056,3.9998 10.7104,7.2552 16.78,9.6248 l 3.570432,12.76874 c 0.3426,1.79256 4.515964,2.08876 6.344044,2.11356 l 25.428414,0.56818 c 1.82804,-0.024 3.16037,0.43658 3.50313,-1.35598 l 7.7371,-14.0945 c 6.0696,-2.36944 11.7744,-5.6252 16.78,-9.6248 l 16.6548,5.6248 c 1.73024,0.59556 3.82888,-0.1764 4.7584,-1.74996 l 16.0284,-27.7496 c 0.90284,-1.596 0.5156,-3.80476 -0.87656,-5 l -13.268,-11.624 c 0.46744,-3.11696 0.75136,-6.2528 0.75136,-9.5 0,-3.24696 -0.28412,-6.3828 -0.75136,-9.5 l 13.2736,-11.6248 c 1.39216,-1.19512 1.7794,-3.40388 0.87656,-5 l -16.028,-27.7512 c -0.928,-1.5736 -3.028,-2.3452 -4.756,-1.7496 l -16.6548,5.6248 c -5.008,-4 -10.712,-7.2556 -16.78,-9.6248 l -3.38,-17.1248 c -0.344,-1.7924 -2.056,-3.2252 -3.884,-3.25 h -32.0572 c -0.12504,-0.004 -0.25044,-0.004 -0.37548,0 z"
     style="fill:#3b89f0;stroke-width:4" />
  <path
     style="opacity:0.2;fill:#ffffff;stroke-width:4"
     d="M 79.59375 16 C 77.893746 16.1848 76.397938 17.5724 76.085938 19.25 L 72.710938 36.375 C 66.642938 38.7442 60.937687 42 55.929688 46 L 40.835938 40.90625 L 39.085938 42.085938 C 37.355537 41.490338 37.906163 44.911175 36.976562 46.484375 L 24.171875 72.71875 C 23.321452 74.222156 20.927844 75.090215 21.816406 76.185547 C 22.299795 75.4762 23.590623 74.746306 24.171875 73.71875 L 36.976562 47.484375 C 37.906163 45.911175 37.355537 42.490338 39.085938 43.085938 L 40.835938 41.90625 L 55.929688 47 C 60.937688 43 66.642938 39.7442 72.710938 37.375 L 76.085938 20.25 C 76.397938 18.5724 77.893746 17.1848 79.59375 17 L 79.601562 17 C 79.726602 16.996 79.851523 16.996 79.976562 17 L 112.03906 17 C 113.86706 17.0248 115.57788 18.4576 115.92188 20.25 L 119.29688 37.375 C 125.36487 39.7442 131.07012 43 136.07812 47 L 152.73438 41.375 C 154.46237 40.7794 156.56419 41.5514 157.49219 43.125 L 173.51562 70.875 C 173.75001 71.289368 173.88353 71.74548 173.94141 72.212891 C 174.03198 71.407025 173.91605 70.582913 173.51562 69.875 L 157.49219 42.125 C 156.56419 40.5514 154.46237 39.7794 152.73438 40.375 L 136.07812 46 C 131.07012 42 125.36487 38.7442 119.29688 36.375 L 115.92188 19.25 C 115.57788 17.4576 113.86706 16.0248 112.03906 16 L 79.976562 16 C 79.851523 15.996 79.726602 15.996 79.601562 16 L 79.59375 16 z M 32.429688 88.296875 C 32.111229 90.827003 31.882812 93.373072 31.882812 96 C 31.882812 96.118112 31.890973 96.23338 31.896484 96.349609 C 31.930411 93.952846 32.137687 91.61679 32.429688 89.296875 L 32.521484 89.386719 C 32.56186 89.091258 32.596413 88.794811 32.640625 88.5 L 32.429688 88.296875 z M 159.57812 88.3125 L 159.36719 88.5 C 159.41176 88.797382 159.44581 89.096491 159.48633 89.394531 L 159.57812 89.3125 C 159.86846 91.623708 160.06993 93.950715 160.10352 96.337891 C 160.10877 96.225524 160.11719 96.114179 160.11719 96 C 160.11719 93.378588 159.89535 90.837724 159.57812 88.3125 z M 159.57812 105.6875 C 159.50242 106.29006 159.45723 106.8995 159.36719 107.5 L 159.47266 107.5918 C 159.50459 107.2897 159.54036 106.98814 159.57812 106.6875 L 172.63281 118.125 C 173.3828 118.76888 173.81586 119.70281 173.92578 120.67773 C 174.08357 119.37164 173.6383 117.98823 172.63281 117.125 L 159.57812 105.6875 z M 32.429688 105.71875 L 21.070312 117.50781 C 20.703548 117.82285 20.859855 118.08694 21.232422 118.33789 L 32.429688 106.71875 C 32.467017 107.0149 32.502815 107.31189 32.535156 107.60938 L 32.640625 107.5 C 32.552145 106.90967 32.504347 106.31105 32.429688 105.71875 z "
     id="path6" />
  <path
     inkscape:connector-curvature="0"
     id="path8"
     d="m 96,66 c 17.6732,0 32,14.3268 32,32 0,17.6732 -14.3268,32 -32,32 C 78.3268,130 64,115.6732 64,98 64,80.3268 78.3268,66 96,66 Z"
     style="opacity:0.2;stroke-width:4;filter:url(#filter909)" />
  <path
     style="fill:#ffffff;stroke-width:4"
     inkscape:connector-curvature="0"
     id="path10"
     d="m 96,64 c 17.6732,0 32,14.3268 32,32 0,17.6732 -14.3268,32 -32,32 C 78.3268,128 64,113.6732 64,96 64,78.3268 78.3268,64 96,64 Z" />
  <path
     inkscape:connector-curvature="0"
     id="path12"
     d="M 152.64132,156.49577 39.504228,43.358687 c -31.3389724,31.338972 -31.3389724,81.798113 0,113.137083 31.338976,31.33897 81.798112,31.33897 113.137092,0 z"
     style="opacity:0.2;stroke-width:4;filter:url(#filter865)" />
  <path
     inkscape:connector-curvature="0"
     id="path14"
     d="M 152.64132,152.49577 39.504228,39.358684 c -31.3389724,31.338972 -31.3389724,81.798116 0,113.137086 31.338976,31.33897 81.798112,31.33897 113.137092,0 z"
     style="fill:#e4e4e4;stroke-width:4" />
  <path
     style="opacity:0.2;fill:#ffffff;stroke-width:4"
     d="M 39.507812 39.359375 C 23.582512 55.284676 15.786884 76.147599 16.046875 96.929688 C 16.048861 96.770743 16.061525 96.612058 16.064453 96.453125 C 16.183206 76.162256 23.959691 55.907496 39.507812 40.359375 L 152.12891 152.98047 C 152.30043 152.81922 152.47304 152.65977 152.64062 152.49219 L 39.507812 39.359375 z "
     id="path16" />
</svg>
