<?xml version="1.0" encoding="UTF-8" standalone="no"?>
<svg
   xmlns:dc="http://purl.org/dc/elements/1.1/"
   xmlns:cc="http://creativecommons.org/ns#"
   xmlns:rdf="http://www.w3.org/1999/02/22-rdf-syntax-ns#"
   xmlns:svg="http://www.w3.org/2000/svg"
   xmlns="http://www.w3.org/2000/svg"
   xmlns:sodipodi="http://sodipodi.sourceforge.net/DTD/sodipodi-0.dtd"
   xmlns:inkscape="http://www.inkscape.org/namespaces/inkscape"
   width="192"
   height="192"
   version="1"
   id="svg18"
   sodipodi:docname="google_cast_receiver.svg"
   inkscape:version="0.92.3 (2405546, 2018-03-11)">
  <metadata
     id="metadata24">
    <rdf:RDF>
      <cc:Work
         rdf:about="">
        <dc:format>image/svg+xml</dc:format>
        <dc:type
           rdf:resource="http://purl.org/dc/dcmitype/StillImage" />
      </cc:Work>
    </rdf:RDF>
  </metadata>
  <defs
     id="defs22">
    <filter
       inkscape:collect="always"
       style="color-interpolation-filters:sRGB"
       id="filter859"
       x="-0.0432"
       width="1.0864"
       y="-0.054"
       height="1.108">
      <feGaussianBlur
         inkscape:collect="always"
         stdDeviation="2.88"
         id="feGaussianBlur861" />
    </filter>
    <filter
       inkscape:collect="always"
       style="color-interpolation-filters:sRGB"
       id="filter875"
       x="-0.048"
       width="1.096"
       y="-0.048"
       height="1.096">
      <feGaussianBlur
         inkscape:collect="always"
         stdDeviation="0.88"
         id="feGaussianBlur877" />
    </filter>
    <filter
       inkscape:collect="always"
       style="color-interpolation-filters:sRGB"
       id="filter891"
       x="-0.041142857"
       width="1.0822857"
       y="-0.0576"
       height="1.1152">
      <feGaussianBlur
         inkscape:collect="always"
         stdDeviation="1.92"
         id="feGaussianBlur893" />
    </filter>
  </defs>
  <sodipodi:namedview
     pagecolor="#ffffff"
     bordercolor="#666666"
     borderopacity="1"
     objecttolerance="10"
     gridtolerance="10"
     guidetolerance="10"
     inkscape:pageopacity="0"
     inkscape:pageshadow="2"
     inkscape:window-width="1920"
     inkscape:window-height="1018"
     id="namedview20"
     showgrid="false"
     inkscape:zoom="1"
     inkscape:cx="96"
     inkscape:cy="96"
     inkscape:window-x="0"
     inkscape:window-y="32"
     inkscape:window-maximized="1"
     inkscape:current-layer="svg18" />
  <rect
     style="opacity:0.2;fill:#000000;stroke-width:4;filter:url(#filter859)"
     width="128"
     height="160"
     x="-164"
     y="-176"
     rx="8"
     ry="8"
     transform="matrix(0,-1,-1,0,0,0)"
     id="rect841" />
  <rect
     id="rect4"
     transform="matrix(0,-1,-1,0,0,0)"
     ry="8"
     rx="8"
     y="-176"
     x="-160"
     height="160"
     width="128"
     style="fill:#0dacf3;stroke-width:4" />
  <path
     style="opacity:0.2;fill:#ffffff;stroke-width:4"
     d="M 24 32 C 19.568 32 16 35.568 16 40 L 16 41 C 16 36.568 19.568 33 24 33 L 168 33 C 172.432 33 176 36.568 176 41 L 176 40 C 176 35.568 172.432 32 168 32 L 24 32 z "
     id="path6" />
  <path
     inkscape:connector-curvature="0"
     id="path8"
     d="m 48,58 c -4.432,0 -8,3.568 -8,8 v 20 h 8 V 66 h 96 v 64 H 92 v 8 h 52 c 4.432,0 8,-3.568 8,-8 V 66 c 0,-4.432 -3.568,-8 -8,-8 z"
     style="opacity:0.2;stroke-width:4;filter:url(#filter891)" />
  <path
     inkscape:connector-curvature="0"
     id="path10"
     d="m 48,56 c -4.432,0 -8,3.568 -8,8 v 20 h 8 V 64 h 96 v 64 H 92 v 8 h 52 c 4.432,0 8,-3.568 8,-8 V 64 c 0,-4.432 -3.568,-8 -8,-8 z"
     style="fill:#ffffff;stroke-width:4" />
  <path
     inkscape:connector-curvature="0"
     id="path12"
     d="M 40,94.000002 V 102 a 36,36 0 0 1 36,36 h 8 A 44,44 0 0 0 40,94.000002 Z M 40,110 v 8 a 20,20 0 0 1 20,20 h 8 A 28,28 0 0 0 40,110 Z m 0,16 v 12 h 12 c 0,-6.62742 -5.372584,-12 -12,-12 z"
     style="opacity:0.2;stroke-width:4;filter:url(#filter875)" />
  <path
     inkscape:connector-curvature="0"
     id="path14"
     d="m 40,92 v 8 a 36,36 0 0 1 36,36 h 8 A 44,44 0 0 0 40,92 Z m 0,16 v 8 a 20,20 0 0 1 20,20 h 8 A 28,28 0 0 0 40,108 Z m 0,16 v 12 h 12 c 0,-6.62742 -5.372584,-12 -12,-12 z"
     style="fill:#ffffff;stroke-width:4" />
</svg>
