<?xml version="1.0" encoding="UTF-8" standalone="no"?>
<svg
   xmlns:dc="http://purl.org/dc/elements/1.1/"
   xmlns:cc="http://creativecommons.org/ns#"
   xmlns:rdf="http://www.w3.org/1999/02/22-rdf-syntax-ns#"
   xmlns:svg="http://www.w3.org/2000/svg"
   xmlns="http://www.w3.org/2000/svg"
   xmlns:sodipodi="http://sodipodi.sourceforge.net/DTD/sodipodi-0.dtd"
   xmlns:inkscape="http://www.inkscape.org/namespaces/inkscape"
   width="192"
   height="192"
   version="1"
   id="svg22"
   sodipodi:docname="google_agenda.svg"
   inkscape:version="0.92.3 (2405546, 2018-03-11)">
  <metadata
     id="metadata28">
    <rdf:RDF>
      <cc:Work
         rdf:about="">
        <dc:format>image/svg+xml</dc:format>
        <dc:type
           rdf:resource="http://purl.org/dc/dcmitype/StillImage" />
      </cc:Work>
    </rdf:RDF>
  </metadata>
  <defs
     id="defs26">
    <filter
       inkscape:collect="always"
       style="color-interpolation-filters:sRGB"
       id="filter862"
       x="-0.048"
       width="1.096"
       y="-0.048"
       height="1.096">
      <feGaussianBlur
         inkscape:collect="always"
         stdDeviation="3.2"
         id="feGaussianBlur864" />
    </filter>
    <filter
       inkscape:collect="always"
       style="color-interpolation-filters:sRGB"
       id="filter878"
       x="-0.04128"
       width="1.08256"
       y="-0.057333333"
       height="1.1146667">
      <feGaussianBlur
         inkscape:collect="always"
         stdDeviation="1.72"
         id="feGaussianBlur880" />
    </filter>
  </defs>
  <sodipodi:namedview
     pagecolor="#ffffff"
     bordercolor="#666666"
     borderopacity="1"
     objecttolerance="10"
     gridtolerance="10"
     guidetolerance="10"
     inkscape:pageopacity="0"
     inkscape:pageshadow="2"
     inkscape:window-width="1920"
     inkscape:window-height="1018"
     id="namedview24"
     showgrid="false"
     inkscape:zoom="1"
     inkscape:cx="96"
     inkscape:cy="66.562111"
     inkscape:window-x="0"
     inkscape:window-y="32"
     inkscape:window-maximized="1"
     inkscape:current-layer="svg22" />
  <path
     style="opacity:0.2;fill:#000000;stroke-width:4;filter:url(#filter862)"
     d="m 24,20 c -4.432,0 -8,3.568 -8,8 v 144 c 0,4.432 3.568,8 8,8 h 88 l 64,-64 V 28 c 0,-4.432 -3.568,-8 -8,-8 z"
     id="path844"
     inkscape:connector-curvature="0" />
  <path
     inkscape:connector-curvature="0"
     id="path4"
     d="m 24,16 c -4.432,0 -8,3.568 -8,8 v 144 c 0,4.432 3.568,8 8,8 h 88 l 64,-64 V 24 c 0,-4.432 -3.568,-8 -8,-8 z"
     style="fill:#4384f1;stroke-width:4" />
  <path
     inkscape:connector-curvature="0"
     id="path6"
     d="m 52,68 v 8 c 4.666668,0 12.130736,-0.592752 18.164064,0.6875 3.016664,0.640128 5.466904,1.752872 7.093748,3.406252 C 78.884656,81.747128 80,83.9972 80,88.156248 c 0,4.423132 -0.888296,7.058952 -1.953124,8.640628 -1.064832,1.581672 -2.35144,2.374104 -4.195312,2.921876 -2.926472,0.869378 -7.106308,0.818768 -10.992188,0.656248 -0.450824,-0.012 -0.974604,-0.0748 -1.52344,-0.14064 C 60.907212,100.0808 60.455408,100.00152 60,100 c -2.20914,0 -4,1.79086 -4,4 0,2.20914 1.79086,4 4,4 0.13052,-0.001 0.26088,-0.009 0.39064,-0.0236 1.727368,0.0272 4.116304,0.27144 6.929688,0.32032 0.33708,0.0596 0.502964,0.006 0.843752,0.0781 3.09298,0.65632 6.242692,1.87386 8.375,3.66406 2.132292,1.79043 3.46092,3.90986 3.46092,7.80485 0,4.02703 -1.198252,6.15642 -3.156248,7.875 -1.958,1.71858 -5.00342,2.92221 -8.578128,3.58594 C 61.116212,132.63214 52.666668,132 48,132 v 8 c 0,0 16,0 21.734376,-0.91406 4.444812,-0.70851 8.879872,-2.33642 12.421872,-5.44532 C 85.698252,130.53172 88,125.71924 88,119.84375 c -0.757108,-6.79111 -3.047692,-12.26661 -7.710936,-15.69531 1.657064,-1.0459 3.203392,-1.95951 4.41406,-3.75782 C 86.888296,97.144828 88,93.635636 88,88.156248 88,82.412796 86.115344,77.744408 82.992188,74.570312 79.869032,71.39622 75.819272,69.782748 71.835936,68.9375 67.8526,68.092248 60.179688,68 60.179688,68 Z M 123.84375,68 108,72 v 8 l 15.94531,-4 v 56 H 104 v 8 h 44 v -8 H 132 V 68 Z"
     style="opacity:0.2;stroke-width:4;filter:url(#filter878)" />
  <path
     inkscape:connector-curvature="0"
     id="path8"
     d="m 52,64 v 8 c 4.666668,0 12.130736,-0.592752 18.164064,0.6875 3.016664,0.640128 5.466904,1.752872 7.093748,3.406252 C 78.884656,77.747128 80,79.9972 80,84.156248 c 0,4.423132 -0.888296,7.058952 -1.953124,8.640628 -1.064832,1.581672 -2.35144,2.374104 -4.195312,2.921876 -2.926472,0.86938 -7.106308,0.818772 -10.992188,0.656248 -0.450824,-0.012 -0.974604,-0.07476 -1.52344,-0.14064 C 60.907212,96.0808 60.455408,96.00152 60,96 c -2.20914,0 -4,1.79086 -4,4 0,2.20914 1.79086,4 4,4 0.13052,-0.001 0.26088,-0.009 0.39064,-0.0236 1.727368,0.0272 4.116304,0.27144 6.929688,0.32032 0.33708,0.0596 0.502964,0.006 0.843752,0.0781 3.09298,0.65632 6.242692,1.87386 8.375,3.66406 2.132292,1.79043 3.46092,3.90986 3.46092,7.80485 0,4.02703 -1.198252,6.15642 -3.156248,7.875 -1.958,1.71858 -5.00342,2.92221 -8.578128,3.58594 C 61.116212,128.63214 52.666668,128 48,128 v 8 c 0,0 16,0 21.734376,-0.91406 4.444812,-0.70851 8.879872,-2.33642 12.421872,-5.44532 C 85.698252,126.53172 88,121.71924 88,115.84375 c -0.757108,-6.79111 -3.047692,-12.26661 -7.710936,-15.69531 1.657064,-1.045896 3.203392,-1.959512 4.41406,-3.757816 C 86.888296,93.144828 88,89.635636 88,84.156248 88,78.412796 86.115344,73.744408 82.992188,70.570312 79.869032,67.39622 75.819272,65.782748 71.835936,64.9375 67.8526,64.092248 60.179688,64 60.179688,64 Z M 123.84375,64 108,68 v 8 l 15.94531,-4 v 56 H 104 v 8 h 44 v -8 H 132 V 64 Z"
     style="fill:#ffffff;stroke-width:4" />
  <path
     inkscape:connector-curvature="0"
     id="path10"
     d="m 176,112 h -56 c -4.4184,0 -8,3.58176 -8,8 v 56 z"
     style="fill:#9bcdff;stroke-width:4" />
  <path
     style="opacity:0.2;fill:#ffffff;stroke-width:4"
     d="M 24 16 C 19.568 16 16 19.568 16 24 L 16 25 C 16 20.568 19.568 17 24 17 L 168 17 C 172.432 17 176 20.568 176 25 L 176 24 C 176 19.568 172.432 16 168 16 L 24 16 z "
     id="path12" />
  <path
     inkscape:connector-curvature="0"
     id="path14"
     d="m 120,112 c -4.4184,0 -8,3.58176 -8,8 v 2 c 0,-4.41824 3.5816,-8 8,-8 h 54 l 2,-2 z"
     style="opacity:0.2;fill:#ffffff;stroke-width:4" />
  <circle
     id="circle16"
     r="8"
     cy="36"
     cx="48"
     style="opacity:0.4;stroke-width:4" />
  <circle
     id="circle18"
     r="8"
     cy="36"
     cx="144"
     style="opacity:0.4;stroke-width:4" />
</svg>
