<?xml version="1.0" encoding="UTF-8" standalone="no"?>
<svg
   xmlns:dc="http://purl.org/dc/elements/1.1/"
   xmlns:cc="http://creativecommons.org/ns#"
   xmlns:rdf="http://www.w3.org/1999/02/22-rdf-syntax-ns#"
   xmlns:svg="http://www.w3.org/2000/svg"
   xmlns="http://www.w3.org/2000/svg"
   xmlns:sodipodi="http://sodipodi.sourceforge.net/DTD/sodipodi-0.dtd"
   xmlns:inkscape="http://www.inkscape.org/namespaces/inkscape"
   width="192"
   height="192"
   version="1"
   id="svg26"
   sodipodi:docname="google_expeditions.svg"
   inkscape:version="0.92.3 (2405546, 2018-03-11)">
  <metadata
     id="metadata32">
    <rdf:RDF>
      <cc:Work
         rdf:about="">
        <dc:format>image/svg+xml</dc:format>
        <dc:type
           rdf:resource="http://purl.org/dc/dcmitype/StillImage" />
      </cc:Work>
    </rdf:RDF>
  </metadata>
  <defs
     id="defs30">
    <filter
       inkscape:collect="always"
       style="color-interpolation-filters:sRGB"
       id="filter866"
       x="-0.048000001"
       width="1.096"
       y="-0.047999999"
       height="1.096">
      <feGaussianBlur
         inkscape:collect="always"
         stdDeviation="3.5200002"
         id="feGaussianBlur868" />
    </filter>
    <filter
       inkscape:collect="always"
       style="color-interpolation-filters:sRGB"
       id="filter882"
       x="-0.048"
       width="1.096"
       y="-0.048"
       height="1.096">
      <feGaussianBlur
         inkscape:collect="always"
         stdDeviation="2.72"
         id="feGaussianBlur884" />
    </filter>
    <filter
       inkscape:collect="always"
       style="color-interpolation-filters:sRGB"
       id="filter898"
       x="-0.048"
       width="1.096"
       y="-0.048"
       height="1.096">
      <feGaussianBlur
         inkscape:collect="always"
         stdDeviation="2.08"
         id="feGaussianBlur900" />
    </filter>
    <filter
       inkscape:collect="always"
       style="color-interpolation-filters:sRGB"
       id="filter914"
       x="-0.042526378"
       width="1.0850528"
       y="-0.055090804"
       height="1.1101816">
      <feGaussianBlur
         inkscape:collect="always"
         stdDeviation="1.0099981"
         id="feGaussianBlur916" />
    </filter>
  </defs>
  <sodipodi:namedview
     pagecolor="#ffffff"
     bordercolor="#666666"
     borderopacity="1"
     objecttolerance="10"
     gridtolerance="10"
     guidetolerance="10"
     inkscape:pageopacity="0"
     inkscape:pageshadow="2"
     inkscape:window-width="1920"
     inkscape:window-height="1018"
     id="namedview28"
     showgrid="false"
     inkscape:zoom="1"
     inkscape:cx="96"
     inkscape:cy="96"
     inkscape:window-x="0"
     inkscape:window-y="32"
     inkscape:window-maximized="1"
     inkscape:current-layer="svg26" />
  <path
     inkscape:connector-curvature="0"
     id="path2"
     d="m 95.716404,12.007305 a 5.4147328,5.2222224 0 0 0 -4.40866,2.603944 L 85.22328,24.786397 79.121628,34.970139 a 5.4147328,5.2222224 0 0 0 4.692256,7.829025 h 24.372226 a 5.4147328,5.2222224 0 0 0 4.69226,-7.829025 L 106.78531,24.786397 100.69226,14.611249 A 5.4147328,5.2222224 0 0 0 95.716404,12.007305 Z M 33.453776,82.39974 a 5.2222224,5.4147328 0 0 0 -2.48363,0.721884 L 20.786404,89.223276 10.611256,95.30774 a 5.2222224,5.4147328 0 0 0 -2.603944,4.40866 5.2222224,5.4147328 0 0 0 2.603944,4.97586 l 10.175148,6.09305 10.183742,6.09306 a 5.2222224,5.4147328 0 0 0 7.82902,-4.69226 V 87.81388 a 5.2222224,5.4147328 0 0 0 -5.34539,-5.41414 z m 125.092444,0 a 5.2222224,5.4147328 0 0 0 -5.34539,5.41414 v 24.37223 a 5.2222224,5.4147328 0 0 0 7.82902,4.69226 l 10.18374,-6.09306 10.17515,-6.09305 a 5.2222224,5.4147328 0 0 0 2.60395,-4.97586 5.2222224,5.4147328 0 0 0 -2.60395,-4.40866 l -10.17515,-6.084464 -10.18374,-6.101652 a 5.2222224,5.4147328 0 0 0 -2.48363,-0.721884 z m -74.732336,74.80109 a 5.4147328,5.2222224 0 0 0 -4.692256,7.82902 l 6.101652,10.18374 6.084464,10.17515 a 5.4147328,5.2222224 0 0 0 4.40866,2.60395 5.4147328,5.2222224 0 0 0 4.975856,-2.60395 l 6.09305,-10.17515 6.09306,-10.18374 a 5.4147328,5.2222224 0 0 0 -4.69226,-7.82902 H 96 Z"
     style="opacity:0.2;stroke-width:4;filter:url(#filter866)" />
  <path
     inkscape:connector-curvature="0"
     id="path4"
     d="m 95.716404,8.0073132 a 5.4147328,5.2222224 0 0 0 -4.40866,2.6039448 L 85.22328,20.786406 79.121628,30.970147 a 5.4147328,5.2222224 0 0 0 4.692256,7.829021 h 24.372226 a 5.4147328,5.2222224 0 0 0 4.69226,-7.829021 L 106.78531,20.786406 100.69226,10.611258 A 5.4147328,5.2222224 0 0 0 95.716404,8.0073132 Z M 33.453776,78.399744 a 5.2222224,5.4147328 0 0 0 -2.48363,0.721884 L 20.786404,85.22328 10.611256,91.307744 a 5.2222224,5.4147328 0 0 0 -2.603944,4.40866 5.2222224,5.4147328 0 0 0 2.603944,4.975856 l 10.175148,6.09305 10.183742,6.09306 a 5.2222224,5.4147328 0 0 0 7.82902,-4.69226 V 83.813884 a 5.2222224,5.4147328 0 0 0 -5.34539,-5.41414 z m 125.092444,0 a 5.2222224,5.4147328 0 0 0 -5.34539,5.41414 v 24.372226 a 5.2222224,5.4147328 0 0 0 7.82902,4.69226 l 10.18374,-6.09306 10.17515,-6.09305 a 5.2222224,5.4147328 0 0 0 2.60395,-4.975856 5.2222224,5.4147328 0 0 0 -2.60395,-4.40866 L 171.21359,85.22328 161.02985,79.121628 a 5.2222224,5.4147328 0 0 0 -2.48363,-0.721884 z M 83.813884,153.20083 a 5.4147328,5.2222224 0 0 0 -4.692256,7.82902 l 6.101652,10.18374 6.084464,10.17515 a 5.4147328,5.2222224 0 0 0 4.40866,2.60395 5.4147328,5.2222224 0 0 0 4.975856,-2.60395 l 6.09305,-10.17515 6.09306,-10.18374 a 5.4147328,5.2222224 0 0 0 -4.69226,-7.82902 H 96 Z"
     style="fill:#c74527;stroke-width:4" />
  <path
     style="opacity:0.1;fill:#ffffff;stroke-width:4"
     d="M 96.259766 8.0058594 A 5.4147328 5.2222224 0 0 0 95.71875 8.0078125 A 5.4147328 5.2222224 0 0 0 91.304688 10.609375 L 85.226562 20.789062 L 79.125 30.96875 A 5.4147328 5.2222224 0 0 0 78.429688 34.085938 A 5.4147328 5.2222224 0 0 1 79.125 31.96875 L 85.226562 21.789062 L 91.304688 11.609375 A 5.4147328 5.2222224 0 0 1 95.71875 9.0078125 A 5.4147328 5.2222224 0 0 1 100.69531 11.609375 L 106.78906 21.789062 L 112.875 31.96875 A 5.4147328 5.2222224 0 0 1 113.57422 34.09375 A 5.4147328 5.2222224 0 0 0 112.875 30.96875 L 106.78906 20.789062 L 100.69531 10.609375 A 5.4147328 5.2222224 0 0 0 96.259766 8.0058594 z M 33.453125 78.398438 A 5.2222224 5.4147328 0 0 0 30.96875 79.125 L 20.789062 85.226562 L 10.609375 91.304688 A 5.2222224 5.4147328 0 0 0 8.0078125 95.71875 A 5.2222224 5.4147328 0 0 0 8.0292969 96.484375 A 5.2222224 5.4147328 0 0 1 10.609375 92.304688 L 20.789062 86.226562 L 30.96875 80.125 A 5.2222224 5.4147328 0 0 1 33.453125 79.398438 A 5.2222224 5.4147328 0 0 1 38.796875 84.8125 L 38.796875 83.8125 A 5.2222224 5.4147328 0 0 0 33.453125 78.398438 z M 158.54688 78.398438 A 5.2222224 5.4147328 0 0 0 153.20312 83.8125 L 153.20312 84.8125 A 5.2222224 5.4147328 0 0 1 158.54688 79.398438 A 5.2222224 5.4147328 0 0 1 161.03125 80.125 L 171.21094 86.226562 L 181.39062 92.304688 A 5.2222224 5.4147328 0 0 1 183.97266 96.517578 A 5.2222224 5.4147328 0 0 0 183.99219 95.71875 A 5.2222224 5.4147328 0 0 0 181.39062 91.304688 L 171.21094 85.226562 L 161.03125 79.125 A 5.2222224 5.4147328 0 0 0 158.54688 78.398438 z M 83.8125 153.20312 A 5.4147328 5.2222224 0 0 0 78.433594 158.92578 A 5.4147328 5.2222224 0 0 1 83.8125 154.20312 L 96 154.20312 L 108.1875 154.20312 A 5.4147328 5.2222224 0 0 1 113.57227 158.92969 A 5.4147328 5.2222224 0 0 0 108.1875 153.20312 L 96 153.20312 L 83.8125 153.20312 z "
     id="path6" />
  <circle
     id="circle8"
     r="68"
     cy="100"
     cx="96"
     style="opacity:0.2;stroke-width:4;filter:url(#filter882)" />
  <circle
     id="circle10"
     r="68"
     cy="96"
     cx="96"
     style="fill:#ff613d;stroke-width:4" />
  <circle
     id="circle12"
     r="52"
     cy="100"
     cx="96"
     style="opacity:0.2;stroke-width:4;filter:url(#filter898)" />
  <circle
     id="circle14"
     r="52"
     cy="96"
     cx="96"
     style="fill:#ffffff;stroke-width:4" />
  <rect
     id="rect16"
     ry="8"
     rx="8"
     y="60"
     x="76"
     height="76"
     width="16"
     style="fill:#ffa639;stroke-width:4" />
  <path
     style="opacity:0.2;fill:#ffffff;stroke-width:4"
     d="M 96 28 A 68 68 0 0 0 28 96 A 68 68 0 0 0 28.019531 96.470703 A 68 68 0 0 1 96 29 A 68 68 0 0 1 163.97656 96.511719 A 68 68 0 0 0 164 96 A 68 68 0 0 0 96 28 z "
     id="path18" />
  <path
     inkscape:connector-curvature="0"
     id="path20"
     d="m 84.53,70 h 38.94 c 4.72562,0 8.53,3.892852 8.53,8.728372 L 116,92 132,105.27163 C 135.7218,108.35877 128.19562,114 123.47,114 H 76 V 70 Z"
     style="opacity:0.1;stroke-width:4;filter:url(#filter914)" />
  <path
     inkscape:connector-curvature="0"
     id="path22"
     d="m 84.53,68 h 38.94 c 4.72562,0 8.53,3.892852 8.53,8.728372 L 116,90 132,103.27163 C 135.7218,106.35877 128.19562,112 123.47,112 H 76 V 68 Z"
     style="fill:#ff613d;stroke-width:4" />
</svg>
