<?xml version="1.0" encoding="UTF-8" standalone="no"?>
<svg
   xmlns:dc="http://purl.org/dc/elements/1.1/"
   xmlns:cc="http://creativecommons.org/ns#"
   xmlns:rdf="http://www.w3.org/1999/02/22-rdf-syntax-ns#"
   xmlns:svg="http://www.w3.org/2000/svg"
   xmlns="http://www.w3.org/2000/svg"
   xmlns:sodipodi="http://sodipodi.sourceforge.net/DTD/sodipodi-0.dtd"
   xmlns:inkscape="http://www.inkscape.org/namespaces/inkscape"
   width="192"
   height="192"
   version="1"
   id="svg20"
   sodipodi:docname="google_datally.svg"
   inkscape:version="0.92.3 (2405546, 2018-03-11)">
  <metadata
     id="metadata26">
    <rdf:RDF>
      <cc:Work
         rdf:about="">
        <dc:format>image/svg+xml</dc:format>
        <dc:type
           rdf:resource="http://purl.org/dc/dcmitype/StillImage" />
      </cc:Work>
    </rdf:RDF>
  </metadata>
  <defs
     id="defs24">
    <filter
       inkscape:collect="always"
       style="color-interpolation-filters:sRGB"
       id="filter857"
       x="-0.056"
       width="1.112"
       y="-0.042"
       height="1.084">
      <feGaussianBlur
         inkscape:collect="always"
         stdDeviation="2.8"
         id="feGaussianBlur859" />
    </filter>
    <filter
       inkscape:collect="always"
       style="color-interpolation-filters:sRGB"
       id="filter873"
       x="-0.048"
       width="1.096"
       y="-0.048"
       height="1.096">
      <feGaussianBlur
         inkscape:collect="always"
         stdDeviation="1.12"
         id="feGaussianBlur875" />
    </filter>
  </defs>
  <sodipodi:namedview
     pagecolor="#ffffff"
     bordercolor="#666666"
     borderopacity="1"
     objecttolerance="10"
     gridtolerance="10"
     guidetolerance="10"
     inkscape:pageopacity="0"
     inkscape:pageshadow="2"
     inkscape:window-width="1920"
     inkscape:window-height="1018"
     id="namedview22"
     showgrid="false"
     inkscape:zoom="2.67"
     inkscape:cx="96"
     inkscape:cy="127.83024"
     inkscape:window-x="0"
     inkscape:window-y="32"
     inkscape:window-maximized="1"
     inkscape:current-layer="svg20" />
  <path
     inkscape:connector-curvature="0"
     id="path2"
     d="m 132,20 c -4.432,0 -8,3.568 -8,8 V 66.976564 A 60,60 0 0 0 96,60 a 60,60 0 0 0 -60,60 60,60 0 0 0 60,60 60,60 0 0 0 60,-60 60,60 0 0 0 -0.0156,-0.39844 H 156 V 28 c 0,-4.432 -3.568,-8 -8,-8 z"
     style="opacity:0.2;fill-rule:evenodd;stroke-width:4;filter:url(#filter857)" />
  <path
     inkscape:connector-curvature="0"
     id="path4"
     d="m 132,16 c -4.432,0 -8,3.568 -8,8 V 62.976564 A 60,60 0 0 0 96,56 a 60,60 0 0 0 -60,60 60,60 0 0 0 60,60 60,60 0 0 0 60,-60 60,60 0 0 0 -0.0156,-0.39844 H 156 V 24 c 0,-4.432 -3.568,-8 -8,-8 z"
     style="fill:#2a8dce;fill-rule:evenodd;stroke-width:4" />
  <path
     style="opacity:0.1;fill:#ffffff;fill-rule:evenodd;stroke-width:4"
     d="M 132 16 C 127.568 16 124 19.568 124 24 L 124 25 C 124 20.568 127.568 17 132 17 L 148 17 C 152.432 17 156 20.568 156 25 L 156 24 C 156 19.568 152.432 16 148 16 L 132 16 z M 96 56 A 60 60 0 0 0 36 116 A 60 60 0 0 0 36.019531 116.43555 A 60 60 0 0 1 96 57 A 60 60 0 0 1 124 63.976562 L 124 62.976562 A 60 60 0 0 0 96 56 z "
     id="path6" />
  <path
     inkscape:connector-curvature="0"
     id="path8"
     d="m 103,32 c -3.878,0 -7,3.568 -7,8 v 76 h 28 V 40 c 0,-4.432 -3.122,-8 -7,-8 z"
     style="fill:#20d6ba;stroke-width:4" />
  <path
     inkscape:connector-curvature="0"
     id="path10"
     d="m 75,48 c -3.878,0 -7,3.568 -7,8 v 60 H 96 V 56 c 0,-4.432 -3.122,-8 -7,-8 z"
     style="fill:#f8ca4b;stroke-width:4" />
  <circle
     id="circle12"
     r="28"
     cy="118"
     cx="96"
     style="opacity:0.2;stroke-width:4;filter:url(#filter873)" />
  <circle
     id="circle14"
     r="28"
     cy="116"
     cx="96"
     style="fill:#ffffff;stroke-width:4" />
  <path
     style="opacity:0.2;fill:#ffffff;stroke-width:4"
     d="M 103 32 C 99.122 32 96 35.568 96 40 L 96 41 C 96 36.568 99.122 33 103 33 L 117 33 C 120.878 33 124 36.568 124 41 L 124 40 C 124 35.568 120.878 32 117 32 L 103 32 z M 75 48 C 71.122 48 68 51.568 68 56 L 68 57 C 68 52.568 71.122 49 75 49 L 89 49 C 92.878 49 96 52.568 96 57 L 96 56 C 96 51.568 92.878 48 89 48 L 75 48 z "
     id="path16" />
</svg>
