<?xml version="1.0" encoding="UTF-8" standalone="no"?>
<svg
   xmlns:dc="http://purl.org/dc/elements/1.1/"
   xmlns:cc="http://creativecommons.org/ns#"
   xmlns:rdf="http://www.w3.org/1999/02/22-rdf-syntax-ns#"
   xmlns:svg="http://www.w3.org/2000/svg"
   xmlns="http://www.w3.org/2000/svg"
   xmlns:sodipodi="http://sodipodi.sourceforge.net/DTD/sodipodi-0.dtd"
   xmlns:inkscape="http://www.inkscape.org/namespaces/inkscape"
   width="192"
   height="192"
   version="1.1"
   id="svg22"
   sodipodi:docname="google_play.svg"
   inkscape:version="0.92.3 (2405546, 2018-03-11)">
  <metadata
     id="metadata28">
    <rdf:RDF>
      <cc:Work
         rdf:about="">
        <dc:format>image/svg+xml</dc:format>
        <dc:type
           rdf:resource="http://purl.org/dc/dcmitype/StillImage" />
      </cc:Work>
    </rdf:RDF>
  </metadata>
  <defs
     id="defs26">
    <filter
       inkscape:collect="always"
       style="color-interpolation-filters:sRGB"
       id="filter860"
       x="-0.050664898"
       width="1.1013298"
       y="-0.045601433"
       height="1.0912029">
      <feGaussianBlur
         inkscape:collect="always"
         stdDeviation="3.040064"
         id="feGaussianBlur862" />
    </filter>
    <filter
       inkscape:collect="always"
       style="color-interpolation-filters:sRGB"
       id="filter876"
       x="-0.02091304"
       width="1.0418261"
       y="-0.028156104"
       height="1.0563122">
      <feGaussianBlur
         inkscape:collect="always"
         stdDeviation="0.91828122"
         id="feGaussianBlur878" />
    </filter>
  </defs>
  <sodipodi:namedview
     pagecolor="#ffffff"
     bordercolor="#666666"
     borderopacity="1"
     objecttolerance="10"
     gridtolerance="10"
     guidetolerance="10"
     inkscape:pageopacity="0"
     inkscape:pageshadow="2"
     inkscape:window-width="1920"
     inkscape:window-height="1018"
     id="namedview24"
     showgrid="false"
     inkscape:zoom="1"
     inkscape:cx="16.203747"
     inkscape:cy="154.11607"
     inkscape:window-x="0"
     inkscape:window-y="32"
     inkscape:window-maximized="1"
     inkscape:current-layer="svg22" />
  <path
     inkscape:connector-curvature="0"
     id="path2"
     d="M 35.789062,20.004292 A 11.519334,11.32693 0 0 0 28.25,22.559092 h -0.0078 a 11.519334,11.32693 0 0 0 -0.296876,0.264 11.519334,11.32693 0 0 0 -0.05469,0.048 A 11.519334,11.32693 0 0 0 24,31.332692 V 168.6919 a 11.519334,11.32693 0 0 0 4.15625,8.672 h -0.0078 a 11.519334,11.32693 0 0 0 0.117188,0.088 11.519334,11.32693 0 0 0 0.617188,0.4688 h 0.0078 a 11.519334,11.32693 0 0 0 12.38281,0.578 l 60.484374,-34.344 31.77344,-18.0312 h -0.008 l 28.72656,-16.2968 a 11.519334,11.32693 0 0 0 0,-19.617208 l -28.8125,-16.3516 -0.41406,-0.236 -31.26563,-17.75 -60.484372,-34.344 a 11.519334,11.32693 0 0 0 -5.484373,-1.5156 z"
     style="opacity:0.2;stroke-width:4;filter:url(#filter860)" />
  <path
     inkscape:connector-curvature="0"
     id="path4"
     d="m 28.242346,18.5504 a 11.519334,11.32693 0 0 0 -4.242344,8.774 V 164.684 a 11.519334,11.32693 0 0 0 4.884438,9.2368 L 107.549,96.5692 v -1.2748 z"
     style="fill:#4ac0ed;stroke-width:4" />
  <path
     inkscape:connector-curvature="0"
     id="path8"
     d="m 133.02426,69.6072 -26.12351,25.6872 v 1.9124 l 25.80554,25.3744 29.54049,-16.7712 a 11.519334,11.32693 0 0 0 0,-19.6116 z"
     style="fill:#ffd530;stroke-width:4" />
  <path
     inkscape:connector-curvature="0"
     id="path10"
     d="m 106.90075,95.932 -78.75277,77.4372 a 11.519334,11.32693 0 0 0 13.12706,1.1208 l 60.48621,-34.34 31.76697,-18.0352 z"
     style="fill:#e54257;stroke-width:4" />
  <path
     inkscape:connector-curvature="0"
     id="path12"
     d="m 35.791584,16.0028 a 11.519334,11.32693 0 0 0 -7.904133,2.8576 L 106.90075,95.932 133.43522,69.8408 101.76125,51.8584 41.27504,17.5184 a 11.519334,11.32693 0 0 0 -5.483456,-1.5156 z"
     style="fill:#4c9946;stroke-width:4" />
  <path
     style="opacity:0.2;fill:#ffffff;stroke-width:4"
     d="M 35.789062 16.007812 A 11.519334 11.32693 0 0 0 28.25 18.5625 L 28.242188 18.5625 A 11.519334 11.32693 0 0 0 27.945312 18.828125 A 11.519334 11.32693 0 0 0 27.890625 18.875 A 11.519334 11.32693 0 0 0 24 27.335938 L 24 28.335938 A 11.519334 11.32693 0 0 1 27.890625 19.875 A 11.519334 11.32693 0 0 1 27.945312 19.828125 A 11.519334 11.32693 0 0 1 28.242188 19.5625 L 28.25 19.5625 A 11.519334 11.32693 0 0 1 35.789062 17.007812 L 35.789062 17.015625 A 11.519334 11.32693 0 0 1 41.273438 18.53125 L 101.75781 52.875 L 133.02344 70.625 L 133.4375 70.851562 L 162.25 87.203125 A 11.519334 11.32693 0 0 1 167.96094 96.492188 A 11.519334 11.32693 0 0 0 162.25 86.203125 L 133.4375 69.851562 L 133.02344 69.625 L 101.75781 51.875 L 41.273438 17.53125 A 11.519334 11.32693 0 0 0 35.789062 16.015625 L 35.789062 16.007812 z "
     id="path14" />
  <path
     inkscape:connector-curvature="0"
     id="path16"
     d="M 106.89844,95.929688 28.148438,173.36719 a 11.519334,11.32693 0 0 0 1.179687,0.83593 l 77.570315,-76.273432 25.34375,24.921872 1.28906,-0.73437 z"
     style="opacity:0.2;stroke-width:4;filter:url(#filter876)" />
  <path
     style="opacity:0.2;fill:#ffffff;stroke-width:4"
     d="M 133.4375 69.84375 L 133.4375 69.851562 L 162.25 86.203125 A 11.519334 11.32693 0 0 1 162.57031 86.390625 A 11.519334 11.32693 0 0 0 162.25 86.195312 L 133.4375 69.84375 z M 132.14062 71.125 L 106.89844 95.929688 L 107.40625 96.429688 L 132.14062 72.125 L 132.78125 72.488281 L 133.42969 71.851562 L 133.02344 71.625 L 132.14062 71.125 z M 162.625 86.429688 A 11.519334 11.32693 0 0 1 163.57031 87.078125 A 11.519334 11.32693 0 0 0 162.625 86.429688 z M 162.625 87.429688 A 11.519334 11.32693 0 0 1 163.57031 88.078125 A 11.519334 11.32693 0 0 0 162.625 87.429688 z M 167.5625 93 A 11.519334 11.32693 0 0 1 167.74219 93.671875 A 11.519334 11.32693 0 0 0 167.5625 93 z M 167.5625 94 A 11.519334 11.32693 0 0 1 167.74219 94.671875 A 11.519334 11.32693 0 0 0 167.5625 94 z M 167.9375 95.007812 A 11.519334 11.32693 0 0 1 167.97656 95.972656 A 11.519334 11.32693 0 0 0 167.9375 95.007812 z M 167.97656 95.972656 A 11.519334 11.32693 0 0 1 167.96094 96.443359 A 11.519334 11.32693 0 0 1 167.9668 96.523438 A 11.519334 11.32693 0 0 0 167.97656 95.972656 z M 167.95898 96.53125 A 11.519334 11.32693 0 0 1 167.94531 96.953125 A 11.519334 11.32693 0 0 0 167.96094 96.609375 A 11.519334 11.32693 0 0 0 167.95898 96.53125 z "
     id="path18" />
  <path
     style="opacity:0.2;fill:#ffffff;stroke-width:4"
     d="M 28.244141 18.548828 A 11.519334 11.32693 0 0 0 27.947266 18.814453 A 11.519334 11.32693 0 0 1 28.251953 18.556641 L 28.244141 18.548828 z M 27.892578 18.861328 A 11.519334 11.32693 0 0 0 24.001953 27.330078 L 24.001953 28.330078 A 11.519334 11.32693 0 0 1 27.892578 19.861328 L 106.90039 96.931641 L 106.90039 95.931641 L 27.892578 18.861328 z M 28.244141 19.548828 L 28.251953 19.556641 A 11.519334 11.32693 0 0 0 27.947266 19.814453 A 11.519334 11.32693 0 0 1 28.244141 19.548828 z "
     id="path6" />
</svg>
