<?xml version="1.0" encoding="UTF-8" standalone="no"?>
<svg
   xmlns:dc="http://purl.org/dc/elements/1.1/"
   xmlns:cc="http://creativecommons.org/ns#"
   xmlns:rdf="http://www.w3.org/1999/02/22-rdf-syntax-ns#"
   xmlns:svg="http://www.w3.org/2000/svg"
   xmlns="http://www.w3.org/2000/svg"
   xmlns:sodipodi="http://sodipodi.sourceforge.net/DTD/sodipodi-0.dtd"
   xmlns:inkscape="http://www.inkscape.org/namespaces/inkscape"
   width="192"
   height="192"
   version="1"
   id="svg14"
   sodipodi:docname="google_youtube_gaming.svg"
   inkscape:version="0.92.3 (2405546, 2018-03-11)">
  <metadata
     id="metadata20">
    <rdf:RDF>
      <cc:Work
         rdf:about="">
        <dc:format>image/svg+xml</dc:format>
        <dc:type
           rdf:resource="http://purl.org/dc/dcmitype/StillImage" />
      </cc:Work>
    </rdf:RDF>
  </metadata>
  <defs
     id="defs18">
    <filter
       inkscape:collect="always"
       style="color-interpolation-filters:sRGB"
       id="filter856"
       x="-0.042285714"
       width="1.0845714"
       y="-0.0555"
       height="1.111">
      <feGaussianBlur
         inkscape:collect="always"
         stdDeviation="2.9600001"
         id="feGaussianBlur858" />
    </filter>
    <filter
       inkscape:collect="always"
       style="color-interpolation-filters:sRGB"
       id="filter872"
       x="-0.052799995"
       width="1.1056"
       y="-0.044000004"
       height="1.088">
      <feGaussianBlur
         inkscape:collect="always"
         stdDeviation="0.88000012"
         id="feGaussianBlur874" />
    </filter>
  </defs>
  <sodipodi:namedview
     pagecolor="#ffffff"
     bordercolor="#666666"
     borderopacity="1"
     objecttolerance="10"
     gridtolerance="10"
     guidetolerance="10"
     inkscape:pageopacity="0"
     inkscape:pageshadow="2"
     inkscape:window-width="1920"
     inkscape:window-height="1018"
     id="namedview16"
     showgrid="false"
     inkscape:zoom="3.77"
     inkscape:cx="96"
     inkscape:cy="96"
     inkscape:window-x="0"
     inkscape:window-y="32"
     inkscape:window-maximized="1"
     inkscape:current-layer="svg14" />
  <path
     inkscape:connector-curvature="0"
     id="path2"
     d="M 57.95612,142.50178 C 11.31368,114.60093 14.17128,116.42456 12.99076,113.80613 12.12852,111.89372 11.9992,108.44087 12,87.357717 c 6.4e-4,-21.80256 0.1084,-24.475048 1.06524,-26.4912 0.92512,-1.9491 3.49232,-3.69984 19.629721,-13.386744 C 46.13276,39.413398 51.93288,36.263599 53.6952,36.075441 55.92468,35.837401 57.67008,35.548219 74.39108,45.663653 91.9686,56.297237 92.77748,56.037521 96,56.037521 c 3.22256,0 4.03144,0.25972 21.60896,-10.373868 16.721,-10.115434 18.4664,-9.826247 20.69588,-9.588212 1.76232,0.188152 7.56244,3.337957 21.00024,11.404332 16.1374,9.686904 18.7046,11.437644 19.62972,13.386744 0.95688,2.016152 1.06436,4.68864 1.0652,26.4912 6.4e-4,21.127963 -0.1272,24.533223 -0.9952,26.458393 -1.17184,2.5991 0.99296,1.22148 -46.54252,29.61837 -26.81328,16.01779 -34.91064,20.57738 -36.52216,20.5655 -1.585,-0.0116 -10.4928,-5.05335 -37.984,-21.4982 z"
     style="opacity:0.2;stroke-width:4;filter:url(#filter856)" />
  <path
     inkscape:connector-curvature="0"
     id="path4"
     d="M 57.95612,138.50178 C 11.31368,110.60093 14.17128,112.42456 12.99076,109.80613 12.12852,107.89372 11.9992,104.44087 12,83.35772 12.00064,61.55516 12.1084,58.882672 13.06524,56.86652 13.99036,54.91742 16.55756,53.16668 32.694961,43.479776 46.13276,35.413398 51.93288,32.2636 53.6952,32.075442 55.92468,31.837402 57.67008,31.54822 74.39108,41.663656 91.9686,52.29724 92.77748,52.037524 96,52.037524 c 3.22256,0 4.03144,0.25972 21.60896,-10.373868 16.721,-10.115436 18.4664,-9.826249 20.69588,-9.588214 1.76232,0.188152 7.56244,3.337956 21.00024,11.404334 16.1374,9.686904 18.7046,11.437644 19.62972,13.386744 0.95688,2.016152 1.06436,4.68864 1.0652,26.4912 6.4e-4,21.12796 -0.1272,24.53322 -0.9952,26.45839 -1.17184,2.5991 0.99296,1.22148 -46.54252,29.61837 -26.81328,16.01779 -34.91064,20.57738 -36.52216,20.5655 -1.585,-0.0116 -10.4928,-5.05335 -37.984,-21.4982 z"
     style="fill:#c2352a;stroke-width:4" />
  <path
     inkscape:connector-curvature="0"
     id="path6"
     d="m 133.72335,42.00036 c -1.55604,-0.032 -1.82369,2.069112 -1.69508,3.585904 0.0112,14.19578 -0.02,28.393484 0.0144,42.58862 0.13684,1.69728 1.87319,2.37542 2.8604,1.322848 10.55083,-7.267812 25.89771,-14.485696 36.43279,-21.784872 1.14954,-1.004668 0.70927,-3.344304 -0.57382,-3.830704 -10.55111,-7.239008 -25.85877,-14.5177 -36.41846,-21.732068 -0.19724,-0.09852 -0.40922,-0.1494 -0.62132,-0.14976 z"
     style="opacity:0.2;stroke-width:4;filter:url(#filter872)" />
  <path
     inkscape:connector-curvature="0"
     id="path8"
     d="m 133.72335,40.00036 c -1.55604,-0.032 -1.82369,2.069112 -1.69508,3.585904 0.0112,14.19578 -0.02,28.393484 0.0144,42.58862 0.13684,1.69728 1.87319,2.37542 2.8604,1.322848 10.55083,-7.267812 25.89771,-14.485696 36.43279,-21.784872 1.14954,-1.004668 0.70927,-3.344304 -0.57382,-3.830704 -10.55111,-7.239008 -25.85877,-14.5177 -36.41846,-21.732068 -0.19724,-0.09852 -0.40922,-0.1494 -0.62132,-0.14976 z"
     style="fill:#ffffff;stroke-width:4" />
  <path
     style="opacity:0.2;fill:#ffffff;stroke-width:4"
     d="M 54.537109 32.003906 C 54.244005 32.01646 53.973998 32.048365 53.695312 32.078125 C 51.932992 32.266285 46.133113 35.410183 32.695312 43.476562 C 16.557911 53.163477 13.98762 54.918088 13.0625 56.867188 C 12.10566 58.883339 12.00064 61.556815 12 83.359375 C 11.999995 83.483428 12.001587 83.503425 12.001953 83.599609 C 12.005733 62.659088 12.119584 59.854001 13.0625 57.867188 C 13.98762 55.918087 16.557911 54.163477 32.695312 44.476562 C 46.133113 36.410183 51.932992 33.266285 53.695312 33.078125 C 54.252684 33.018605 54.777209 32.949405 55.515625 33.046875 C 57.730877 33.33928 61.849877 35.077483 74.390625 42.664062 C 91.968145 53.297663 92.77748 53.039062 96 53.039062 C 99.22256 53.039063 100.03186 53.297651 117.60938 42.664062 C 134.33038 32.548623 136.07521 32.840089 138.30469 33.078125 C 140.06701 33.266278 145.86689 36.410182 159.30469 44.476562 C 175.44209 54.163467 178.01238 55.918087 178.9375 57.867188 C 179.88048 59.854001 179.99408 62.659088 179.99805 83.599609 C 179.99843 83.503367 180 83.483597 180 83.359375 C 179.99916 61.556815 179.8944 58.883339 178.9375 56.867188 C 178.01238 54.918087 175.44209 53.163467 159.30469 43.476562 C 145.86689 35.410182 140.06701 32.266278 138.30469 32.078125 C 136.07521 31.840089 134.33038 31.548622 117.60938 41.664062 C 100.03186 52.297651 99.22256 52.039062 96 52.039062 C 92.77748 52.039062 91.968145 52.297663 74.390625 41.664062 C 61.849877 34.077483 57.730877 32.33928 55.515625 32.046875 C 55.146417 31.99814 54.830214 31.991353 54.537109 32.003906 z "
     id="path10" />
</svg>
