<?xml version="1.0" encoding="UTF-8" standalone="no"?>
<svg
   xmlns:dc="http://purl.org/dc/elements/1.1/"
   xmlns:cc="http://creativecommons.org/ns#"
   xmlns:rdf="http://www.w3.org/1999/02/22-rdf-syntax-ns#"
   xmlns:svg="http://www.w3.org/2000/svg"
   xmlns="http://www.w3.org/2000/svg"
   xmlns:sodipodi="http://sodipodi.sourceforge.net/DTD/sodipodi-0.dtd"
   xmlns:inkscape="http://www.inkscape.org/namespaces/inkscape"
   width="192"
   height="192"
   version="1"
   id="svg26"
   sodipodi:docname="google_wifi.svg"
   inkscape:version="0.92.3 (2405546, 2018-03-11)">
  <metadata
     id="metadata32">
    <rdf:RDF>
      <cc:Work
         rdf:about="">
        <dc:format>image/svg+xml</dc:format>
        <dc:type
           rdf:resource="http://purl.org/dc/dcmitype/StillImage" />
      </cc:Work>
    </rdf:RDF>
  </metadata>
  <defs
     id="defs30">
    <filter
       inkscape:collect="always"
       style="color-interpolation-filters:sRGB"
       id="filter862"
       x="-0.043999276"
       width="1.0879986"
       y="-0.052801042"
       height="1.1056021">
      <feGaussianBlur
         inkscape:collect="always"
         stdDeviation="3.0799944"
         id="feGaussianBlur864" />
    </filter>
    <filter
       inkscape:collect="always"
       style="color-interpolation-filters:sRGB"
       id="filter896"
       x="-0.042977113"
       width="1.0859542"
       y="-0.054352351"
       height="1.1087047">
      <feGaussianBlur
         inkscape:collect="always"
         stdDeviation="1.5399844"
         id="feGaussianBlur898" />
    </filter>
    <filter
       inkscape:collect="always"
       style="color-interpolation-filters:sRGB"
       id="filter912"
       x="-0.039042702"
       width="1.0780854"
       y="-0.062290993"
       height="1.124582">
      <feGaussianBlur
         inkscape:collect="always"
         stdDeviation="0.68922066"
         id="feGaussianBlur914" />
    </filter>
  </defs>
  <sodipodi:namedview
     pagecolor="#ffffff"
     bordercolor="#666666"
     borderopacity="1"
     objecttolerance="10"
     gridtolerance="10"
     guidetolerance="10"
     inkscape:pageopacity="0"
     inkscape:pageshadow="2"
     inkscape:window-width="1920"
     inkscape:window-height="1018"
     id="namedview28"
     showgrid="false"
     inkscape:zoom="1"
     inkscape:cx="96"
     inkscape:cy="96"
     inkscape:window-x="0"
     inkscape:window-y="32"
     inkscape:window-maximized="1"
     inkscape:current-layer="svg26" />
  <path
     inkscape:connector-curvature="0"
     id="path2"
     d="m 96,28.003018 c -25.85804,0 -46.02798,10.519328 -59.726564,19.96093 -13.69857,9.441612 -21.921875,18.953128 -21.921875,18.953128 a 15.694804,11.152648 0 0 0 -0.25,11.445312 L 48.25,120.39364 l 8.679688,10.67968 25.468748,31.35157 c 2.937396,3.61421 8.4691,5.76051 14.33594,5.5625 5.339764,-0.17708 10.185764,-2.27321 12.859374,-5.5625 l 7.92969,-9.76563 26.21094,-32.26562 17.54687,-21.58594 16.61719,-20.445312 c 2.89075,-3.555836 2.79773,-7.952844 -0.2422,-11.445312 0,0 -8.24674,-9.511524 -21.94532,-18.953128 C 142.01258,38.522349 121.85802,28.003018 96,28.003018 Z m 0,31.999994 c 2.160544,0 4.2493,0.1112 6.27344,0.31252 2.00762,0.19968 3.95529,0.487268 5.85156,0.859376 0.0292,0.0056 0.0569,0.0176 0.0859,0.0236 0.005,9.76e-4 0.0108,-9.76e-4 0.0156,0 1.83952,0.36424 3.65902,0.809628 5.47656,1.335936 h 0.008 c 1.82826,0.530088 3.60161,1.129956 5.32813,1.789064 0.75998,0.29012 1.47807,0.625832 2.21875,0.9375 0.94374,0.39416 1.90837,0.763884 2.82031,1.1875 1.59714,0.741948 3.19055,1.550976 4.78906,2.421876 3.10944,1.694008 6.02395,3.520336 8.71094,5.359376 0.92304,0.63234 0.57569,0.578492 1.42187,1.195312 l -0.0547,0.07032 -42.95312,52.507808 -16.3125,-19.67968 0.125,-0.125 L 73.078276,99.971956 53,75.417076 c 0.679908,-0.492676 0.698544,-0.697512 1.414064,-1.1875 C 65.17746,66.858772 78.812492,60.003012 96,60.003012 Z"
     style="opacity:0.2;stroke-width:4;filter:url(#filter862)" />
  <path
     inkscape:connector-curvature="0"
     id="path4"
     d="M 96.000064,24.000001 C 70.142024,24.000001 49.96998,34.518147 36.2714,43.95976 22.572829,53.401372 14.34802,62.914632 14.34802,62.914632 A 15.694804,11.152648 0 0 0 14.100264,74.355856 L 48.252712,116.39022 82.3988,158.4246 a 15.694804,11.152648 0 0 0 14.331832,5.56298 15.694804,11.152648 0 0 0 12.857988,-5.56298 l 34.1461,-42.03438 34.15879,-42.034364 a 15.694804,11.152648 0 0 0 -0.2414,-11.441224 c 0,0 -8.24387,-9.513268 -21.94244,-18.954872 C 142.0111,34.518147 121.8581,24.000001 96.000072,24.000001 Z"
     style="opacity:0.58699999;fill:#41a010;stroke-width:4" />
  <path
     inkscape:connector-curvature="0"
     id="path6"
     d="m 79.678416,104.32031 -22.749572,22.75 25.468268,31.35157 c 2.937396,3.61421 8.468832,5.7605 14.335672,5.5625 5.339756,-0.17708 10.185526,-2.27321 12.859136,-5.5625 l 7.92954,-9.76563 L 95.990612,124 Z"
     style="fill:#f4b70a;stroke-width:4" />
  <path
     inkscape:connector-curvature="0"
     id="path8"
     d="M 95.998424,24 C 70.140384,24 49.971564,34.519326 36.27298,43.960936 22.57441,53.402548 14.351517,62.914064 14.351517,62.914064 a 15.694804,11.152648 0 0 0 -0.249996,11.445312 l 34.147795,42.031244 8.679524,10.67969 22.874572,-22.875 -6.726436,-8.226558 -20.077744,-24.554688 c 0.679908,-0.492676 0.698516,-0.697512 1.414036,-1.1875 C 65.176664,62.85576 78.810916,56 95.99842,56 Z"
     style="fill:#518ff5;stroke-width:4" />
  <path
     inkscape:connector-curvature="0"
     id="path10"
     d="m 95.998424,24 v 32 c 2.160544,0 4.249176,0.1112 6.273316,0.31252 2.00763,0.19968 3.95519,0.487268 5.85146,0.859376 0.0292,0.0056 0.0569,0.0176 0.0859,0.0236 0.005,9.76e-4 0.0108,-9.76e-4 0.0156,0 1.83952,0.36424 3.65892,0.809624 5.47646,1.335936 0.002,6.96e-4 0.006,-6.92e-4 0.008,0 1.82826,0.530084 3.60151,1.129956 5.32802,1.789064 0.75999,0.29012 1.47804,0.625832 2.21871,0.9375 0.94374,0.39416 1.90832,0.763884 2.82026,1.1875 1.59714,0.741948 3.19047,1.550976 4.78897,2.421876 3.10944,1.694008 6.02378,3.520336 8.71078,5.359376 0.92304,0.63234 0.57566,0.578492 1.42185,1.195312 l -0.0547,0.07032 c 0.0144,0.0108 0.0232,0.0232 0,0 L 95.990612,124 117.52146,148.65625 143.7319,116.39062 177.89532,74.359376 c 2.89075,-3.555836 2.79772,-7.952844 -0.2422,-11.445312 0,0 -8.24633,-9.511524 -21.9449,-18.953128 C 142.00987,34.51933 121.85645,24 95.998424,24 Z"
     style="fill:#dc4b3f;stroke-width:4" />
  <path
     inkscape:connector-curvature="0"
     id="path12"
     d="m 138.99762,71.421876 -0.0545,0.07052 L 95.990612,124 117.52146,148.65625 143.7319,116.39062 161.27844,94.804688 C 156.60437,86.106612 140.73815,72.556212 138.99762,71.421876 Z"
     style="fill:#3aab58;stroke-width:4" />
  <path
     inkscape:connector-curvature="0"
     id="path14"
     d="m 95.998424,57.999952 c 4.303456,0 8.313226,0.425272 12.121366,1.172544 1.87423,0.3678 3.72891,0.822868 5.58005,1.358912 3.65425,1.058088 7.11907,2.399548 10.37857,3.913656 1.59714,0.741948 3.18439,1.551844 4.7829,2.422744 3.10944,1.694008 6.02695,3.51894 8.71394,5.35798 0.92304,0.63234 0.57618,0.57902 1.42237,1.19584 l -20.08506,24.545784 a 32.014231,31.809421 0 0 0 0,0.008 L 95.990612,126 73.07646,97.96764 52.999232,73.414096 C 53.67914,72.92142 53.69826,72.715824 54.41378,72.225836 65.177176,64.855032 78.810916,57.999952 95.998424,57.999952 Z"
     style="opacity:0.2;stroke-width:4;filter:url(#filter896)" />
  <path
     inkscape:connector-curvature="0"
     id="path16"
     d="m 95.998424,55.999952 c 4.303456,0 8.313226,0.425272 12.121366,1.172544 1.87423,0.3678 3.72891,0.822868 5.58005,1.358912 3.65425,1.058088 7.11907,2.399548 10.37857,3.913656 1.59714,0.741948 3.18439,1.551844 4.7829,2.422744 3.10944,1.694008 6.02695,3.51894 8.71394,5.35798 0.92304,0.63234 0.57618,0.57902 1.42237,1.19584 l -20.08506,24.545784 a 32.014231,31.809421 0 0 0 0,0.008 L 95.990612,124 73.07646,95.96764 52.999232,71.414096 C 53.67914,70.92142 53.69826,70.715824 54.41378,70.225836 65.177176,62.855032 78.810916,55.999952 95.998424,55.999952 Z"
     style="fill:#ffffff;stroke-width:4" />
  <path
     style="opacity:0.2;fill:#ffffff;stroke-width:4"
     d="M 96 24 C 70.14196 24 49.97202 34.519335 36.273438 43.960938 C 22.574867 53.40255 14.351562 62.914062 14.351562 62.914062 A 15.694804 11.152648 0 0 0 12.048828 69.316406 A 15.694804 11.152648 0 0 1 14.351562 63.914062 C 14.351563 63.914063 22.574866 54.402549 36.273438 44.960938 C 49.97202 35.519334 70.14196 25 96 25 C 121.85802 25 142.0126 35.519337 155.71094 44.960938 C 169.40951 54.402541 177.65625 63.914062 177.65625 63.914062 C 179.06246 65.529614 179.77913 67.335637 179.89453 69.164062 C 180.01734 66.999996 179.31849 64.82376 177.65625 62.914062 C 177.65625 62.914062 169.40951 53.402542 155.71094 43.960938 C 142.0126 34.519338 121.85802 24 96 24 z "
     id="path18" />
  <path
     inkscape:connector-curvature="0"
     id="path20"
     d="m 139,71.421876 -0.0547,0.07032 -0.91406,1.117188 c 0.2472,0.22644 0.3928,0.39264 0.96875,0.8125 1.67026,1.08854 16.2495,13.56974 21.5625,22.265624 l 0.71875,-0.882812 C 156.60717,86.106612 140.74054,72.556212 139,71.421876 Z m -0.0547,2.070312 -20.03125,24.476564 a 32.014231,31.809421 0 0 0 0,0.008 z"
     style="opacity:0.2;stroke-width:4;filter:url(#filter912)" />
  <path
     style="opacity:0.2;fill:#ffffff;stroke-width:4"
     d="M 78.90625 105.09375 L 56.929688 127.07031 L 57.378906 127.62109 L 78.90625 106.09375 L 79.355469 106.64453 L 79.679688 106.32031 L 95.992188 126 L 78.90625 105.09375 z M 95.992188 126 L 96.414062 126.48438 L 96.835938 125.96875 L 117.10352 149.17383 L 117.52344 148.65625 L 96.835938 124.96875 L 95.992188 126 z "
     id="path22" />
</svg>
