<?xml version="1.0" encoding="UTF-8" standalone="no"?>
<svg
   xmlns:dc="http://purl.org/dc/elements/1.1/"
   xmlns:cc="http://creativecommons.org/ns#"
   xmlns:rdf="http://www.w3.org/1999/02/22-rdf-syntax-ns#"
   xmlns:svg="http://www.w3.org/2000/svg"
   xmlns="http://www.w3.org/2000/svg"
   xmlns:sodipodi="http://sodipodi.sourceforge.net/DTD/sodipodi-0.dtd"
   xmlns:inkscape="http://www.inkscape.org/namespaces/inkscape"
   width="192"
   height="192"
   version="1.1"
   id="svg26"
   sodipodi:docname="google_snapseed.svg"
   inkscape:version="0.92.3 (2405546, 2018-03-11)">
  <metadata
     id="metadata32">
    <rdf:RDF>
      <cc:Work
         rdf:about="">
        <dc:format>image/svg+xml</dc:format>
        <dc:type
           rdf:resource="http://purl.org/dc/dcmitype/StillImage" />
      </cc:Work>
    </rdf:RDF>
  </metadata>
  <defs
     id="defs30">
    <filter
       inkscape:collect="always"
       style="color-interpolation-filters:sRGB"
       id="filter862"
       x="-0.044444444"
       width="1.0888889"
       y="-0.052173913"
       height="1.1043478">
      <feGaussianBlur
         inkscape:collect="always"
         stdDeviation="2"
         id="feGaussianBlur864" />
    </filter>
    <filter
       inkscape:collect="always"
       style="color-interpolation-filters:sRGB"
       id="filter878"
       x="-0.0312"
       width="1.0624"
       y="-0.0195"
       height="1.039">
      <feGaussianBlur
         inkscape:collect="always"
         stdDeviation="1.3"
         id="feGaussianBlur880" />
    </filter>
    <filter
       inkscape:collect="always"
       style="color-interpolation-filters:sRGB"
       id="filter886"
       x="-0.022874522"
       width="1.045749"
       y="-0.025241961"
       height="1.0504839">
      <feGaussianBlur
         inkscape:collect="always"
         stdDeviation="0.93523438"
         id="feGaussianBlur888" />
    </filter>
    <filter
       inkscape:collect="always"
       style="color-interpolation-filters:sRGB"
       id="filter894"
       x="-0.023283351"
       width="1.0465667"
       y="-0.024762167"
       height="1.0495243">
      <feGaussianBlur
         inkscape:collect="always"
         stdDeviation="0.6396893"
         id="feGaussianBlur896" />
    </filter>
  </defs>
  <sodipodi:namedview
     pagecolor="#ffffff"
     bordercolor="#666666"
     borderopacity="1"
     objecttolerance="10"
     gridtolerance="10"
     guidetolerance="10"
     inkscape:pageopacity="0"
     inkscape:pageshadow="2"
     inkscape:window-width="1920"
     inkscape:window-height="1018"
     id="namedview28"
     showgrid="false"
     inkscape:zoom="1"
     inkscape:cx="96"
     inkscape:cy="114.4759"
     inkscape:window-x="0"
     inkscape:window-y="32"
     inkscape:window-maximized="1"
     inkscape:current-layer="svg26" />
  <rect
     id="rect2"
     ry="8"
     rx="8"
     y="88"
     x="60"
     height="92"
     width="108"
     style="opacity:0.2;stroke-width:4;filter:url(#filter862)" />
  <rect
     id="rect4"
     ry="8"
     rx="8"
     y="84"
     x="60"
     height="92"
     width="108"
     style="fill:#e4e4e4;stroke-width:4" />
  <path
     style="opacity:0.2;fill:#ffffff;fill-rule:evenodd;stroke-width:4"
     d="M 68 84 C 63.568 84 60 87.568 60 92 L 60 93 C 60 88.568 63.568 85 68 85 L 160 85 C 164.432 85 168 88.568 168 93 L 168 92 C 168 87.568 164.432 84 160 84 L 68 84 z "
     id="path6" />
  <path
     inkscape:connector-curvature="0"
     id="path8"
     d="m 70,18 c 0.62172,0 1.3166,0.14242 2.023436,0.304688 C 71.309864,18.127779 70.62192,18 70,18 Z m 2.023436,0.304688 c 0.530236,0.131456 1.069704,0.28 1.632812,0.476562 -0.2904,-0.11092 -0.587104,-0.239468 -0.867184,-0.328124 -0.14668,-0.04216 -0.28596,-0.06544 -0.429688,-0.101564 -0.11868,-0.02988 -0.21876,-0.01996 -0.33592,-0.04688 z M 74.125,18.96875 c 1.010112,0.384212 2.065972,0.876316 3.179688,1.5 -0.34256,-0.192552 -0.684516,-0.380364 -1.02344,-0.5625 -0.749416,-0.382848 -1.45912,-0.673376 -2.156248,-0.9375 z m 3.554688,1.71875 c 1.10678,0.639326 2.239016,1.379593 3.421876,2.234376 C 80.751432,22.668103 80.40846,22.43884 80.0625,22.195312 79.246512,21.636956 78.456324,21.1381 77.679688,20.6875 Z m 3.953124,2.632813 c 1.099944,0.816907 2.215292,1.701431 3.359376,2.6875 -0.215348,-0.186215 -0.426184,-0.349803 -0.640624,-0.531251 -0.92182,-0.776952 -1.82698,-1.491387 -2.718752,-2.156249 z m 4.132812,3.375 c 1.13816,1.013765 2.284392,2.084941 3.445312,3.25 -1.162408,-1.163283 -2.30568,-2.23827 -3.445312,-3.25 z m 4.25,4.078125 c 1.247992,1.285236 2.50756,2.644282 3.757812,4.085938 -1.254156,-1.444112 -2.505644,-2.800047 -3.757812,-4.085938 z m 3.992188,4.359375 c 1.273092,1.476135 2.531528,3.067651 3.781252,4.687499 1.404,1.821076 2.786426,3.733088 4.132816,5.718752 0.0728,0.10732 0.1462,0.20472 0.21876,0.31252 -0.47263,-0.703264 -0.95664,-1.363136 -1.4375,-2.046876 -0.0132,-0.0184 -0.026,-0.036 -0.0392,-0.05468 -0.32268,-0.457908 -0.6422,-0.926208 -0.968756,-1.375 -0.11464,-0.158 -0.22912,-0.31108 -0.34376,-0.468752 0.3696,0.502204 0.727916,1.032684 1.093746,1.546876 -0.85541,-1.206712 -1.711118,-2.406104 -2.585934,-3.546876 0.04376,0.05688 0.08908,0.10704 0.1328,0.16408 -0.0292,-0.038 -0.05688,-0.0792 -0.08592,-0.1172 -0.04492,-0.05852 -0.08784,-0.11356 -0.1328,-0.17188 -0.0208,-0.0268 -0.04176,-0.05132 -0.06252,-0.07812 -0.8783,-1.136436 -1.7663,-2.238701 -2.656108,-3.304718 -0.3494,-0.416492 -0.697276,-0.851456 -1.046876,-1.265625 z m 3.984376,4.937499 c 0.456416,0.598996 0.908876,1.21632 1.359376,1.835936 -0.453148,-0.615688 -0.901336,-1.238688 -1.359376,-1.835936 z m 4.148432,5.781252 c 0.45034,0.67008 0.87083,1.391128 1.3125,2.078124 1.36122,2.116804 2.6717,4.318308 3.92969,6.578124 2.10536,3.792488 4.06603,7.735572 5.75,11.851564 0.38516,0.935388 0.73654,1.886828 1.09375,2.835936 0.012,0.0316 0.0272,0.06204 0.0392,0.09376 0.35952,0.958544 0.70878,1.920184 1.03907,2.890624 0.77621,2.271868 1.45801,4.581416 2.0625,6.906248 -0.53568,-2.102188 -1.13953,-4.184096 -1.82031,-6.242184 0.0918,0.27628 0.20764,0.543236 0.29688,0.820312 -0.12764,-0.3972 -0.27308,-0.787616 -0.41407,-1.179688 -0.005,-0.0132 -0.0108,-0.026 -0.0156,-0.0392 -0.29712,-0.885396 -0.6003,-1.765172 -0.92187,-2.640624 -0.23508,-0.639232 -0.47912,-1.27276 -0.72657,-1.906252 -0.0264,-0.06768 -0.0516,-0.13552 -0.0781,-0.20312 -0.0596,-0.15148 -0.10376,-0.30984 -0.16408,-0.460936 -0.0264,-0.06644 -0.0593,-0.12896 -0.0859,-0.19532 -0.005,-0.0132 -0.0104,-0.026 -0.0156,-0.0392 -0.2904,-0.724252 -0.59279,-1.440348 -0.89844,-2.156248 -0.30492,-0.713772 -0.61833,-1.42012 -0.9375,-2.125 -0.41099,-0.907888 -0.82451,-1.811028 -1.25781,-2.703128 -0.307,-0.632248 -0.62796,-1.251236 -0.94531,-1.875 -0.47459,-0.931676 -0.94947,-1.861276 -1.44551,-2.773168 -0.27727,-0.510216 -0.56811,-1.004268 -0.85156,-1.507812 -0.5653,-1.003044 -1.12285,-2.009124 -1.71094,-2.984376 -0.26424,-0.438936 -0.54416,-0.8561 -0.8125,-1.289064 -0.53037,-0.854144 -1.04852,-1.724628 -1.59375,-2.554688 l -0.008,0.008 c -0.268,-0.40888 -0.54918,-0.784784 -0.82031,-1.1875 z m 15.22657,33.234372 c 0.065,0.25508 0.1326,0.510012 0.19532,0.765628 -0.0641,-0.25592 -0.12892,-0.510256 -0.19532,-0.765628 z m 0.19532,0.765628 c 0.58926,2.353596 1.09757,4.723588 1.46875,7.117188 -0.3712,-2.393604 -0.89061,-4.760852 -1.46875,-7.117188 z m 1.46874,7.117188 L 70,136 20.906248,86.906248 C 20.328598,90.581564 19.999998,94.288792 19.999998,98 19.999998,138 56,178 70,178 c 14,0 50,-40 50,-80 0,-3.691072 -0.40124,-7.371604 -0.96875,-11.031248 z M 30.656248,58 C 29.621874,60.018432 28.66307,62.094532 27.742186,64.195312 28.662087,62.093712 29.621532,60.0191 30.656248,58 Z m 79.265622,1.203124 c 0.0743,0.14972 0.15288,0.29512 0.22656,0.445312 -0.0735,-0.14992 -0.15244,-0.29584 -0.22656,-0.445312 z m 3.35156,7.468752 c 0.10888,0.2686 0.2214,0.534988 0.32812,0.804688 0.0172,0.0436 0.0296,0.08916 0.0469,0.1328 -0.1242,-0.31316 -0.24852,-0.625432 -0.375,-0.9375 z M 22.335932,79.945312 c -0.563664,2.27962 -1.048226,4.576912 -1.414062,6.890624 0.365808,-2.31364 0.851712,-4.610968 1.414062,-6.890624 z"
     style="opacity:0.1;fill-rule:evenodd;stroke-width:4;filter:url(#filter878)" />
  <path
     inkscape:connector-curvature="0"
     id="path10"
     d="m 70,16 c 0.62172,0 1.3166,0.14242 2.023436,0.304688 C 71.309864,16.127779 70.62192,16 70,16 Z m 2.023436,0.304688 c 0.530236,0.131456 1.069704,0.280004 1.632812,0.476562 -0.2904,-0.110924 -0.587104,-0.239468 -0.867184,-0.328124 -0.14668,-0.04215 -0.28596,-0.06543 -0.429688,-0.101564 -0.11868,-0.02988 -0.21876,-0.01996 -0.33592,-0.04688 z M 74.125,16.96875 c 1.010112,0.384212 2.065972,0.876316 3.179688,1.5 -0.34256,-0.192552 -0.684516,-0.380364 -1.02344,-0.5625 -0.749416,-0.382848 -1.45912,-0.673377 -2.156248,-0.9375 z m 3.554688,1.71875 c 1.10678,0.639326 2.239016,1.379593 3.421876,2.234376 C 80.751432,20.668103 80.408472,20.43884 80.0625,20.195312 79.246512,19.636956 78.456324,19.1381 77.679688,18.6875 Z m 3.953124,2.632813 c 1.099944,0.816907 2.215292,1.701431 3.359376,2.6875 -0.215348,-0.186213 -0.426192,-0.349804 -0.640624,-0.531251 -0.92182,-0.776952 -1.82698,-1.491387 -2.718752,-2.156249 z m 4.132812,3.375 c 1.13816,1.013765 2.284392,2.084941 3.445312,3.25 -1.162408,-1.163283 -2.30568,-2.23827 -3.445312,-3.25 z m 4.25,4.078125 c 1.247992,1.285236 2.50756,2.644282 3.757812,4.085938 -1.254156,-1.444112 -2.505644,-2.800047 -3.757812,-4.085938 z m 3.992188,4.359375 c 1.273092,1.476136 2.531528,3.067653 3.781252,4.6875 1.404,1.821077 2.786426,3.733087 4.132816,5.718751 0.0728,0.10732 0.1462,0.20472 0.21876,0.31252 -0.47263,-0.703264 -0.95664,-1.363136 -1.4375,-2.046876 -0.0132,-0.0184 -0.026,-0.036 -0.0392,-0.05468 -0.32268,-0.457908 -0.64218,-0.926208 -0.968756,-1.375 -0.11464,-0.158 -0.22912,-0.31108 -0.34376,-0.46875 0.3696,0.502202 0.727916,1.032682 1.093746,1.546874 -0.85541,-1.206712 -1.711118,-2.406105 -2.585934,-3.546874 0.04376,0.05686 0.08908,0.107028 0.1328,0.164064 -0.0292,-0.03812 -0.05688,-0.07922 -0.08592,-0.117188 -0.04492,-0.05852 -0.08784,-0.113568 -0.1328,-0.171876 -0.0208,-0.02688 -0.04176,-0.05131 -0.06252,-0.07812 -0.8783,-1.136438 -1.7663,-2.238699 -2.656108,-3.304716 -0.3494,-0.416492 -0.697284,-0.851456 -1.046876,-1.265625 z m 3.984376,4.9375 c 0.456416,0.598994 0.908876,1.216322 1.359376,1.835937 -0.453148,-0.615689 -0.901336,-1.238688 -1.359376,-1.835937 z m 4.148432,5.781251 c 0.45034,0.67008 0.87083,1.391128 1.3125,2.078124 1.36122,2.116804 2.6717,4.318308 3.92969,6.578124 2.10536,3.792488 4.06603,7.735572 5.75,11.851564 0.38516,0.935388 0.73654,1.886828 1.09375,2.835936 0.012,0.0316 0.0272,0.06204 0.0392,0.09376 0.35952,0.958544 0.70878,1.920184 1.03907,2.890624 0.77887,2.279652 1.46441,4.596728 2.07031,6.929688 -0.53736,-2.111624 -1.14434,-4.198464 -1.82812,-6.265624 0.10324,0.2718 0.20764,0.543236 0.29688,0.820312 -0.12764,-0.3972 -0.27308,-0.787616 -0.41407,-1.179688 -0.005,-0.0132 -0.0108,-0.026 -0.0156,-0.0392 -0.29712,-0.885396 -0.6003,-1.765172 -0.92187,-2.640624 -0.23508,-0.639232 -0.47912,-1.27276 -0.72657,-1.906252 -0.0264,-0.06768 -0.0516,-0.13552 -0.0781,-0.20312 -0.0596,-0.15148 -0.10376,-0.30984 -0.16408,-0.460936 -0.0264,-0.06644 -0.0563,-0.13076 -0.0859,-0.19532 -0.005,-0.0132 -0.0104,-0.026 -0.0156,-0.0392 -0.2904,-0.724252 -0.59279,-1.440348 -0.89844,-2.156248 -0.30492,-0.713772 -0.61833,-1.42012 -0.9375,-2.125 -0.41099,-0.907888 -0.82451,-1.811028 -1.25781,-2.703128 -0.307,-0.632248 -0.62796,-1.251236 -0.94531,-1.875 -0.47459,-0.931676 -0.94947,-1.861276 -1.44551,-2.773168 -0.27727,-0.510216 -0.56811,-1.004268 -0.85156,-1.507812 -0.5653,-1.003044 -1.12285,-2.009124 -1.71094,-2.984376 -0.26424,-0.438936 -0.54416,-0.8561 -0.8125,-1.289064 -0.53037,-0.854144 -1.04852,-1.724628 -1.59375,-2.554688 l -0.008,0.008 c -0.268,-0.40888 -0.54918,-0.784784 -0.82031,-1.1875 z M 117.375,77.109376 c 0.0603,0.23704 0.12132,0.473404 0.17968,0.710936 -0.0596,-0.23748 -0.11812,-0.473916 -0.17968,-0.710936 z m 0.17968,0.710936 c 0.59276,2.363816 1.10374,4.74424 1.47656,7.14844 -0.37256,-2.402524 -0.89554,-4.783496 -1.47656,-7.14844 z m 1.47656,7.14844 L 70,134 20.906248,84.906248 C 20.328598,88.581564 19.999998,92.288792 19.999998,96 19.999998,136 56,176 70,176 c 14,0 50,-40 50,-80 0,-3.691072 -0.40124,-7.371604 -0.96875,-11.031248 z M 30.656248,56 C 29.621874,58.018432 28.66307,60.094532 27.742186,62.195312 28.662087,60.093712 29.621532,58.0191 30.656248,56 Z m 79.265622,1.203124 c 0.0743,0.14972 0.15288,0.29512 0.22656,0.445312 -0.0735,-0.14992 -0.15244,-0.29584 -0.22656,-0.445312 z m 3.35156,7.468752 c 0.10888,0.2686 0.2214,0.534988 0.32812,0.804688 0.0172,0.0436 0.0296,0.08916 0.0469,0.1328 -0.1242,-0.31316 -0.24852,-0.625432 -0.375,-0.9375 z M 22.335932,77.945312 c -0.563664,2.27962 -1.048226,4.576912 -1.414062,6.890624 0.365808,-2.31364 0.851712,-4.610968 1.414062,-6.890624 z"
     style="fill:#118227;fill-rule:evenodd;stroke-width:4" />
  <path
     inkscape:connector-curvature="0"
     id="path12"
     d="M 102.92188,47.078124 70,80 48,58 H 30.65625 c -4.593093,8.962768 -8.163152,18.809884 -9.75,28.906248 L 70,136 119.03125,86.968752 C 116.79113,72.523004 110.47324,58.613436 102.92188,47.078124 Z"
     style="opacity:0.1;fill-rule:evenodd;stroke-width:4;filter:url(#filter886)" />
  <path
     inkscape:connector-curvature="0"
     id="path14"
     d="M 70,16 C 64.52746,16 56.49708,22.165184 47.765624,32 H 48 V 56 H 30.65625 c -4.593093,8.962768 -8.163152,18.80988 -9.75,28.906248 L 70,134 119.03125,84.968752 C 113.4487,48.968996 82.708124,16 70,16 Z"
     style="opacity:0.2;fill-rule:evenodd;stroke-width:4" />
  <path
     inkscape:connector-curvature="0"
     id="path16"
     d="M 37.015625,45.078124 C 34.764645,48.51668 32.643936,52.188192 30.6875,56 h -0.03124 c -0.14366,0.28032 -0.26462,0.577332 -0.40625,0.859376 -0.86902,1.728708 -1.691856,3.484748 -2.476562,5.273436 -0.153024,0.349 -0.31924,0.688032 -0.46875,1.039064 -0.909597,2.134796 -1.749718,4.304744 -2.515626,6.507812 -0.141416,0.406364 -0.262356,0.81822 -0.398436,1.22656 -0.596684,1.792624 -1.138954,3.60294 -1.625,5.429688 -0.165272,0.61942 -0.3249,1.236744 -0.476562,1.859376 -0.479714,1.9763 -0.894463,3.965524 -1.226562,5.968752 -0.04162,0.24916 -0.117036,0.492692 -0.156252,0.742184 l 0.0078,0.008 c -0.0028,0.018 -0.005,0.0364 -0.0078,0.05468 L 69.9375,134 69.9687,133.9688 70,134 119.03125,84.968752 c -0.003,-0.018 -0.005,-0.0364 -0.008,-0.05468 l 0.008,-0.008 c -0.0392,-0.24948 -0.11464,-0.493008 -0.15624,-0.742184 -0.33208,-2.003228 -0.74685,-3.992452 -1.22657,-5.968752 -0.15168,-0.622632 -0.31128,-1.239956 -0.47656,-1.859376 -0.48604,-1.826748 -1.02832,-3.637064 -1.625,-5.429688 -0.13608,-0.40834 -0.25704,-0.820196 -0.39844,-1.22656 -0.76591,-2.203068 -1.60603,-4.373016 -2.51562,-6.507812 -0.14952,-0.35104 -0.31572,-0.69008 -0.46876,-1.039064 -0.7847,-1.788688 -1.60754,-3.544728 -2.47656,-5.273436 C 109.54587,56.577332 109.42491,56.280332 109.28125,56 H 109.25 c -1.95644,-3.811808 -4.07715,-7.48332 -6.32813,-10.921876 L 92,56 H 91.93748 L 69.968748,77.968752 48,56 h -0.06252 z"
     style="fill:#7abb2d;fill-rule:evenodd;stroke-width:4" />
  <path
     inkscape:connector-curvature="0"
     id="path18"
     d="m 70,18 c -0.738304,0 -1.532524,0.133268 -2.359376,0.351564 -0.012,0.0032 -0.0272,0.0046 -0.0392,0.0078 -0.13012,0.031 -0.25716,0.0554 -0.39064,0.09375 -0.32788,0.10378 -0.679184,0.261828 -1.015624,0.382812 -0.06848,0.0246 -0.14228,0.06106 -0.21092,0.08594 -0.0228,0.0085 -0.04752,0.02264 -0.07032,0.03124 -0.29944,0.121612 -0.598008,0.253516 -0.906252,0.398436 -0.425812,0.17876 -0.841776,0.326184 -1.28906,0.554688 -0.3724,0.200128 -0.74852,0.403979 -1.125,0.617187 -0.06456,0.03648 -0.13084,0.08063 -0.19532,0.117188 -0.800632,0.461717 -1.618592,0.978295 -2.460936,1.554688 -0.34596,0.243528 -0.688944,0.47279 -1.039064,0.726563 -0.17564,0.126936 -0.355,0.269336 -0.531248,0.398436 -0.891772,0.664862 -1.796932,1.379298 -2.718752,2.15625 -0.21444,0.181448 -0.425264,0.34504 -0.640624,0.53125 -0.25112,0.216424 -0.505812,0.448319 -0.757812,0.671875 -1.146052,1.020307 -2.299632,2.099793 -3.468752,3.273437 -0.26608,0.268024 -0.530192,0.544177 -0.796872,0.820313 -1.2741,1.312125 -2.559924,2.696321 -3.83594,4.171875 l -0.008,0.0078 c -0.40002,0.463418 -0.796312,0.969721 -1.195312,1.445312 -0.956384,1.145776 -1.90868,2.326782 -2.85156,3.554686 -0.6025,0.786664 -1.195312,1.603552 -1.789064,2.421876 -0.706584,0.971016 -1.403062,1.963752 -2.09375,2.976564 -0.0052,0.008 -0.01044,0.016 -0.01564,0.0236 -0.384136,0.563576 -0.785823,1.080428 -1.164063,1.656248 l 0.04688,0.04688 L 48,58 70,80 102.96876,47.031244 c -0.37824,-0.57582 -0.77993,-1.092672 -1.16407,-1.656248 -0.005,-0.0076 -0.0104,-0.0156 -0.0156,-0.0236 -0.69071,-1.012644 -1.38719,-2.00538 -2.093778,-2.976396 -0.593752,-0.818324 -1.186568,-1.635212 -1.789064,-2.421876 -0.94288,-1.227904 -1.895176,-2.40891 -2.85156,-3.554686 -0.39898,-0.475592 -0.795292,-0.981894 -1.195312,-1.445313 l -0.008,-0.0078 C 92.575548,33.469759 91.289724,32.085562 90.015624,30.773438 89.748952,30.497301 89.484824,30.22115 89.218752,29.953125 88.049636,28.77948 86.896052,27.699995 85.75,26.679688 85.497992,26.456132 85.243292,26.224238 84.992188,26.007812 84.77684,25.8216 84.565996,25.658009 84.351564,25.476562 83.429744,24.69961 82.524584,23.985175 81.632812,23.320312 81.456564,23.191211 81.27722,23.048813 81.101564,22.921875 80.751432,22.668103 80.408472,22.43884 80.0625,22.195312 c -0.842344,-0.576392 -1.660304,-1.09297 -2.460936,-1.554687 -0.06447,-0.03656 -0.130744,-0.08072 -0.195316,-0.117187 -0.376468,-0.213207 -0.752608,-0.417062 -1.125,-0.617188 -0.447284,-0.228502 -0.863248,-0.375928 -1.28906,-0.554688 -0.308244,-0.144922 -0.60682,-0.276825 -0.906252,-0.398437 -0.0228,-0.0086 -0.04756,-0.02272 -0.07032,-0.03124 -0.06864,-0.02488 -0.14244,-0.06134 -0.21092,-0.08594 -0.33644,-0.120984 -0.68776,-0.279032 -1.015624,-0.382812 -0.13348,-0.03836 -0.26052,-0.06275 -0.39064,-0.09375 -0.0128,-0.0031 -0.026,-0.0046 -0.0392,-0.0078 C 71.532524,18.133268 70.738304,18 70,18 Z"
     style="opacity:0.1;fill-rule:evenodd;stroke-width:4;filter:url(#filter894)" />
  <path
     inkscape:connector-curvature="0"
     id="path20"
     d="m 70,16 c -0.738304,0 -1.532524,0.133268 -2.359376,0.351564 -0.012,0.0032 -0.0272,0.0046 -0.0392,0.0078 -0.13012,0.031 -0.25716,0.0554 -0.39064,0.09375 -0.32788,0.10378 -0.679184,0.261828 -1.015624,0.382812 -0.06848,0.0246 -0.14228,0.06106 -0.21092,0.08594 -0.0228,0.0085 -0.04752,0.02264 -0.07032,0.03124 -0.29944,0.121612 -0.598008,0.253516 -0.906252,0.398436 -0.425812,0.17876 -0.841776,0.326184 -1.28906,0.554688 -0.3724,0.200128 -0.74852,0.403979 -1.125,0.617187 -0.06456,0.03648 -0.13084,0.08063 -0.19532,0.117188 -0.800632,0.461717 -1.618592,0.978295 -2.460936,1.554688 -0.34596,0.243528 -0.688944,0.47279 -1.039064,0.726563 -0.17564,0.126936 -0.355,0.269336 -0.531248,0.398436 -0.891772,0.664862 -1.796932,1.379298 -2.718752,2.15625 -0.21444,0.181448 -0.425264,0.34504 -0.640624,0.53125 -0.25112,0.216424 -0.505812,0.448319 -0.757812,0.671875 -1.146052,1.020307 -2.299632,2.099793 -3.468752,3.273437 -0.26608,0.268024 -0.530192,0.544177 -0.796872,0.820313 -1.2741,1.312125 -2.559924,2.696321 -3.83594,4.171875 l -0.008,0.0078 c -0.40002,0.463418 -0.796312,0.969721 -1.195312,1.445312 -0.956384,1.145776 -1.90868,2.326781 -2.85156,3.554688 -0.6025,0.786664 -1.195312,1.603552 -1.789064,2.421875 -0.706584,0.971016 -1.403062,1.963752 -2.09375,2.976564 -0.0052,0.008 -0.01044,0.016 -0.01564,0.0236 -0.384136,0.563576 -0.785823,1.080428 -1.164063,1.656248 l 0.04688,0.04688 L 48,56 70,78 102.96875,45.031248 c -0.37824,-0.57582 -0.77993,-1.092672 -1.16406,-1.656248 -0.005,-0.0076 -0.0104,-0.0156 -0.0156,-0.0236 -0.69071,-1.012648 -1.38719,-2.005384 -2.093778,-2.9764 -0.593752,-0.818322 -1.186568,-1.63521 -1.789064,-2.421875 -0.94288,-1.227907 -1.895176,-2.408911 -2.85156,-3.554687 -0.39898,-0.475592 -0.795292,-0.981894 -1.195312,-1.445313 l -0.008,-0.0078 C 92.575548,31.469759 91.289724,30.085562 90.015624,28.773438 89.748952,28.497301 89.484824,28.22115 89.218752,27.953125 88.049636,26.77948 86.896052,25.699995 85.75,24.679688 85.497992,24.456132 85.243292,24.224238 84.992188,24.007812 84.77684,23.8216 84.565996,23.658009 84.351564,23.476562 83.429744,22.69961 82.524584,21.985175 81.632812,21.320312 81.456564,21.191211 81.27722,21.048813 81.101564,20.921875 80.751432,20.668103 80.408472,20.43884 80.0625,20.195312 c -0.842344,-0.576392 -1.660304,-1.09297 -2.460936,-1.554687 -0.06447,-0.03656 -0.130744,-0.08072 -0.195316,-0.117187 -0.376468,-0.213207 -0.752608,-0.417062 -1.125,-0.617188 -0.447284,-0.228502 -0.863248,-0.375928 -1.28906,-0.554688 -0.308244,-0.144922 -0.60682,-0.276825 -0.906252,-0.398437 -0.0228,-0.0086 -0.04756,-0.02272 -0.07032,-0.03124 -0.06864,-0.02488 -0.14244,-0.06134 -0.21092,-0.08594 -0.33644,-0.120984 -0.68776,-0.279032 -1.015624,-0.382812 -0.13348,-0.03836 -0.26052,-0.06275 -0.39064,-0.09375 -0.0128,-0.0031 -0.026,-0.0046 -0.0392,-0.0078 C 71.532524,16.133268 70.738304,16 70,16 Z"
     style="fill:#a5f775;fill-rule:evenodd;stroke-width:4" />
  <path
     style="opacity:0.2;fill:#ffffff;fill-rule:evenodd;stroke-width:4"
     d="M 70 16 C 69.261696 16 68.467477 16.133267 67.640625 16.351562 C 67.628625 16.354762 67.613563 16.356175 67.601562 16.359375 C 67.471442 16.390375 67.344418 16.414775 67.210938 16.453125 C 66.883058 16.556905 66.531752 16.714954 66.195312 16.835938 C 66.126833 16.860537 66.053015 16.896995 65.984375 16.921875 C 65.961575 16.930375 65.936863 16.944525 65.914062 16.953125 C 65.614622 17.074737 65.316057 17.206642 65.007812 17.351562 C 64.582001 17.530323 64.16603 17.677746 63.71875 17.90625 C 63.34635 18.106378 62.970226 18.310229 62.59375 18.523438 C 62.52919 18.559918 62.462917 18.604067 62.398438 18.640625 C 61.597805 19.102342 60.779844 19.618919 59.9375 20.195312 C 59.59154 20.438841 59.248558 20.668101 58.898438 20.921875 C 58.722797 21.048811 58.543435 21.191212 58.367188 21.320312 C 57.475415 21.985174 56.570258 22.69961 55.648438 23.476562 C 55.433997 23.65801 55.223172 23.821603 55.007812 24.007812 C 54.756692 24.224236 54.502 24.456131 54.25 24.679688 C 53.103948 25.699994 51.95037 26.779481 50.78125 27.953125 C 50.51517 28.221149 50.251055 28.497302 49.984375 28.773438 C 48.710275 30.085562 47.424453 31.469759 46.148438 32.945312 L 46.140625 32.953125 C 45.740605 33.416543 45.344313 33.922846 44.945312 34.398438 C 43.988929 35.544213 43.03663 36.725218 42.09375 37.953125 C 41.49125 38.73979 40.89844 39.556677 40.304688 40.375 C 39.598103 41.346016 38.901626 42.338751 38.210938 43.351562 C 38.205737 43.359563 38.200513 43.3674 38.195312 43.375 C 37.811177 43.938576 37.40949 44.455434 37.03125 45.03125 L 37.078125 45.078125 L 37.443359 45.443359 C 37.694863 45.090165 37.947409 44.738706 38.195312 44.375 C 38.200513 44.3674 38.205737 44.359563 38.210938 44.351562 C 38.901626 43.338751 39.598103 42.346016 40.304688 41.375 C 40.89844 40.556677 41.49125 39.73979 42.09375 38.953125 C 43.03663 37.725218 43.988929 36.544213 44.945312 35.398438 C 45.344313 34.922846 45.740605 34.416543 46.140625 33.953125 L 46.148438 33.945312 C 47.424453 32.469759 48.710275 31.085562 49.984375 29.773438 C 50.251055 29.497302 50.51517 29.221149 50.78125 28.953125 C 51.95037 27.779481 53.103948 26.699994 54.25 25.679688 C 54.502 25.456131 54.756692 25.224236 55.007812 25.007812 C 55.223172 24.821603 55.433997 24.65801 55.648438 24.476562 C 56.570258 23.69961 57.475415 22.985174 58.367188 22.320312 C 58.543435 22.191212 58.722797 22.048811 58.898438 21.921875 C 59.248558 21.668101 59.59154 21.438841 59.9375 21.195312 C 60.779844 20.618919 61.597805 20.102342 62.398438 19.640625 C 62.462917 19.604067 62.52919 19.559918 62.59375 19.523438 C 62.970226 19.310229 63.34635 19.106378 63.71875 18.90625 C 64.16603 18.677746 64.582001 18.530323 65.007812 18.351562 C 65.316057 18.206642 65.614622 18.074737 65.914062 17.953125 C 65.936863 17.944525 65.961575 17.930375 65.984375 17.921875 C 66.053015 17.896995 66.126833 17.860537 66.195312 17.835938 C 66.531752 17.714954 66.883058 17.556905 67.210938 17.453125 C 67.344418 17.414775 67.471442 17.390375 67.601562 17.359375 C 67.613563 17.356175 67.628625 17.354762 67.640625 17.351562 C 68.467477 17.133267 69.261696 17 70 17 C 70.738304 17 71.532671 17.133247 72.359375 17.351562 C 72.372575 17.354763 72.385638 17.356275 72.398438 17.359375 C 72.528558 17.390375 72.655582 17.414765 72.789062 17.453125 C 73.116927 17.556905 73.468248 17.714954 73.804688 17.835938 C 73.873168 17.860537 73.946985 17.896995 74.015625 17.921875 C 74.038385 17.930395 74.063137 17.944525 74.085938 17.953125 C 74.385369 18.074737 74.683948 18.206639 74.992188 18.351562 C 75.418 18.530322 75.83397 18.677746 76.28125 18.90625 C 76.653642 19.106377 77.02977 19.310229 77.40625 19.523438 C 77.47081 19.559905 77.537082 19.604065 77.601562 19.640625 C 78.402195 20.102342 79.220156 20.618921 80.0625 21.195312 C 80.408472 21.43884 80.75143 21.668103 81.101562 21.921875 C 81.277219 22.048813 81.456564 22.191211 81.632812 22.320312 C 82.524585 22.985176 83.429743 23.69961 84.351562 24.476562 C 84.565995 24.658009 84.77684 24.8216 84.992188 25.007812 C 85.243291 25.224238 85.497992 25.456132 85.75 25.679688 C 86.896052 26.699995 88.04963 27.77948 89.21875 28.953125 C 89.484818 29.221151 89.748953 29.497301 90.015625 29.773438 C 91.289725 31.085562 92.575735 32.469741 93.851562 33.945312 L 93.859375 33.953125 C 94.259395 34.416544 94.655708 34.922846 95.054688 35.398438 C 96.011071 36.544213 96.96337 37.725218 97.90625 38.953125 C 98.50875 39.73979 99.101561 40.556678 99.695312 41.375 C 100.4019 42.346016 101.09806 43.338789 101.78906 44.351562 C 101.79426 44.359563 101.79969 44.3674 101.80469 44.375 C 102.05259 44.738706 102.30514 45.090165 102.55664 45.443359 L 102.96875 45.03125 C 102.59051 44.45543 102.18883 43.938576 101.80469 43.375 C 101.79969 43.3674 101.79426 43.359563 101.78906 43.351562 C 101.09806 42.338789 100.4019 41.346016 99.695312 40.375 C 99.101561 39.556678 98.50875 38.73979 97.90625 37.953125 C 96.96337 36.725218 96.011071 35.544213 95.054688 34.398438 C 94.655708 33.922846 94.259395 33.416544 93.859375 32.953125 L 93.851562 32.945312 C 92.575735 31.469741 91.289725 30.085562 90.015625 28.773438 C 89.748953 28.497301 89.484818 28.221151 89.21875 27.953125 C 88.04963 26.77948 86.896052 25.699995 85.75 24.679688 C 85.497992 24.456132 85.243291 24.224238 84.992188 24.007812 C 84.77684 23.8216 84.565995 23.658009 84.351562 23.476562 C 83.429743 22.69961 82.524585 21.985176 81.632812 21.320312 C 81.456564 21.191211 81.277219 21.048813 81.101562 20.921875 C 80.75143 20.668103 80.408472 20.43884 80.0625 20.195312 C 79.220156 19.618921 78.402195 19.102342 77.601562 18.640625 C 77.537082 18.604065 77.47081 18.559905 77.40625 18.523438 C 77.02977 18.310229 76.653642 18.106377 76.28125 17.90625 C 75.83397 17.677746 75.418 17.530322 74.992188 17.351562 C 74.683948 17.206639 74.385369 17.074737 74.085938 16.953125 C 74.063137 16.944525 74.038385 16.930395 74.015625 16.921875 C 73.946985 16.896995 73.873168 16.860537 73.804688 16.835938 C 73.468248 16.714954 73.116927 16.556905 72.789062 16.453125 C 72.655582 16.414765 72.528558 16.390375 72.398438 16.359375 C 72.385638 16.356275 72.372575 16.354763 72.359375 16.351562 C 71.532671 16.133247 70.738304 16 70 16 z "
     id="path22" />
</svg>
