<?xml version="1.0" encoding="UTF-8" standalone="no"?>
<svg
   xmlns:dc="http://purl.org/dc/elements/1.1/"
   xmlns:cc="http://creativecommons.org/ns#"
   xmlns:rdf="http://www.w3.org/1999/02/22-rdf-syntax-ns#"
   xmlns:svg="http://www.w3.org/2000/svg"
   xmlns="http://www.w3.org/2000/svg"
   xmlns:sodipodi="http://sodipodi.sourceforge.net/DTD/sodipodi-0.dtd"
   xmlns:inkscape="http://www.inkscape.org/namespaces/inkscape"
   width="192"
   height="192"
   version="1"
   id="svg24"
   sodipodi:docname="google_chrome_beta.svg"
   inkscape:version="0.92.3 (2405546, 2018-03-11)">
  <metadata
     id="metadata30">
    <rdf:RDF>
      <cc:Work
         rdf:about="">
        <dc:format>image/svg+xml</dc:format>
        <dc:type
           rdf:resource="http://purl.org/dc/dcmitype/StillImage" />
        <dc:title></dc:title>
      </cc:Work>
    </rdf:RDF>
  </metadata>
  <defs
     id="defs28">
    <filter
       inkscape:collect="always"
       style="color-interpolation-filters:sRGB"
       id="filter880"
       x="-0.048"
       width="1.096"
       y="-0.048"
       height="1.096">
      <feGaussianBlur
         inkscape:collect="always"
         stdDeviation="3.2"
         id="feGaussianBlur882" />
    </filter>
    <filter
       inkscape:collect="always"
       style="color-interpolation-filters:sRGB"
       id="filter899"
       x="-0.034285715"
       width="1.0685714"
       y="-0.079999996"
       height="1.16">
      <feGaussianBlur
         inkscape:collect="always"
         stdDeviation="1.2"
         id="feGaussianBlur901" />
    </filter>
  </defs>
  <sodipodi:namedview
     pagecolor="#ffffff"
     bordercolor="#666666"
     borderopacity="1"
     objecttolerance="10"
     gridtolerance="10"
     guidetolerance="10"
     inkscape:pageopacity="0"
     inkscape:pageshadow="2"
     inkscape:window-width="1920"
     inkscape:window-height="1018"
     id="namedview26"
     showgrid="false"
     inkscape:zoom="1"
     inkscape:cx="24"
     inkscape:cy="100.04563"
     inkscape:window-x="0"
     inkscape:window-y="32"
     inkscape:window-maximized="1"
     inkscape:current-layer="svg24" />
  <circle
     style="opacity:0.2;stroke-width:4;filter:url(#filter880)"
     cx="96"
     cy="100"
     r="80"
     id="circle2" />
  <path
     inkscape:connector-curvature="0"
     style="fill:#dd4d3e;stroke-width:4"
     d="M 95.875948,16 C 67.85242,16 43.350804,30.368528 29.100197,52.106024 c -0.503524,32.570664 20.193283,43.92116 35.197159,60.968296 -2.759856,-5.09735 -4.36944,-10.88634 -4.36944,-17.1151 0,-19.933632 16.155348,-25.769 35.946036,-27.985448 l 71.392818,-7.99584 C 154.16245,33.833926 127.19493,16.0008 95.873952,16.0008 Z"
     id="path4" />
  <path
     inkscape:connector-curvature="0"
     style="fill:#109f5b;stroke-width:4"
     d="m 35.96589,136.02079 c 14.011766,24.29297 29.983386,30.50094 55.916054,31.98337 27.651286,-15.25687 41.831996,-26.65574 34.673146,-52.99964 -3.03145,4.94263 -7.23474,9.2304 -12.62425,12.34478 -8.56394,4.94942 -16.493236,-0.25268 -25.319984,-2.57078 -8.948564,-2.34986 -18.77062,-1.90869 -23.783096,-10.59929 L 29.127356,52.287412 C 18.122359,69.025388 13.742849,89.449468 17.108857,109.38352 c 1.547932,9.1671 9.930098,10.08773 14.863029,18.64143 z"
     id="path6" />
  <path
     inkscape:connector-curvature="0"
     style="fill:#ffce41;stroke-width:4"
     d="m 155.78601,132.02287 c 4.92766,-8.54336 17.58989,-13.67163 19.1241,-22.83074 2.8283,-16.884734 0.089,-34.125882 -7.48521,-49.179818 l -70.346396,0.028 c 5.792106,0.15672 11.603376,1.656536 16.992886,4.77112 9.21657,5.326428 8.35027,15.851356 10.38881,25.470752 1.77609,8.380444 7.40408,15.643066 2.76824,23.680486 l -35.346496,50.04357 c 29.172206,1.71111 48.243576,-8.82741 63.904066,-35.98129 z"
     id="path8" />
  <rect
     style="opacity:0.2;stroke-width:4"
     width="72"
     height="72"
     x="-135.92"
     y="-132"
     rx="36"
     ry="36"
     transform="matrix(0,-1,-1,0,0,0)"
     id="rect10" />
  <rect
     style="fill:#ffffff;stroke-width:4"
     width="72"
     height="72"
     x="-132"
     y="-132"
     rx="36"
     ry="36"
     transform="matrix(0,-1,-1,0,0,0)"
     id="rect12" />
  <rect
     style="fill:#4587f3;stroke-width:4"
     width="56"
     height="56"
     x="-124"
     y="-124"
     rx="28"
     ry="28"
     transform="matrix(0,-1,-1,0,0,0)"
     id="rect14" />
  <path
     inkscape:connector-curvature="0"
     style="fill:#4f4f4f;stroke-width:4"
     d="M 16.963168,108.03534 A 79.88008,79.95842 0 0 0 95.875948,176 79.88008,79.95842 0 0 0 174.74973,108.03534 Z"
     id="path16" />
  <path
     inkscape:connector-curvature="0"
     style="opacity:0.2;stroke-width:4;filter:url(#filter899)"
     d="m 54,118 v 3.99969 11.99907 3.99969 11.99907 3.99969 h 16 c 4.432,0 8,-5.56757 8,-9.99923 0,-2.76638 -1.3927,-5.97831 -3.515624,-7.99938 C 76.6073,133.97754 78,130.7656 78,127.99922 78,123.56757 74.432,118 70,118 H 58 Z m 4,3.99969 h 12 c 2.285188,0 4,3.71452 4,5.99953 0,2.28502 -1.714812,5.99954 -4,5.99954 H 58 Z m 48,1.99985 c 0,2.59188 0.03,3.86831 0.0312,5.99953 H 102 v 3.99969 h 4.05469 c 0.0445,6.92884 0.1982,12.15767 1.02343,15.04571 0.59676,2.08848 1.89343,3.71955 3.57813,4.37466 1.6847,0.65511 3.34375,0.57808 5.34375,0.57808 v -3.99969 c -2,0 -3.33314,-0.0848 -3.89844,-0.30464 -0.5653,-0.2198 -0.76863,-0.3386 -1.17187,-1.74987 -0.55702,-1.94942 -0.73847,-7.04366 -0.82813,-13.94423 H 114 v -3.99971 h -3.9375 C 110.05043,127.8582 110,126.5977 110,123.99954 Z m -13.648436,5.99953 c -2.066956,0 -3.888888,0.49029 -5.46094,1.46864 -1.54294,0.97834 -2.75164,2.37436 -3.625,4.18717 C 82.421372,137.46769 82,139.63782 82,142.17 c 0,2.58973 0.466848,4.75986 1.398436,6.51512 0.9607,1.75526 2.288064,3.08424 3.976564,3.97626 1.6885,0.89202 3.648996,1.33583 5.890624,1.33583 1.601164,0 2.983956,-0.13164 4.14844,-0.3906 1.164476,-0.2302 2.345466,-0.59917 3.539056,-1.11711 v -3.32786 c -1.2227,0.51794 -2.41364,0.9231 -3.57812,1.21084 -1.135372,0.25896 -2.452784,0.3906 -3.9375,0.3906 -2.328964,0 -4.14308,-0.67868 -5.453124,-2.03109 -1.280944,-1.38119 -1.949612,-4.18566 -2.007812,-6.80416 H 86 v 0.0703 h 16 v -1.55457 c 0,-2.10056 -0.39364,-3.93012 -1.17969,-5.48395 -0.75691,-1.5826 -1.86471,-2.80054 -3.32031,-3.66378 -1.455604,-0.86324 -3.168812,-1.29677 -5.148436,-1.29677 z m 34.382816,0 c -1.60117,0 -2.98396,0.13164 -4.14844,0.3906 -1.16448,0.2302 -2.34547,0.59916 -3.53906,1.1171 v 3.32787 c 1.2227,-0.51795 2.41364,-0.92311 3.57812,-1.21085 1.13537,-0.259 2.45278,-0.3906 3.9375,-0.3906 2.32896,0 4.14308,0.67868 5.45312,2.03109 0.60927,0.65694 1.07529,1.64551 1.40626,2.77322 l -2.5,0.0781 c -4.39241,0.12836 -7.63763,0.90063 -9.75,2.31232 -2.11238,1.37962 -3.17188,3.34689 -3.17188,5.91361 0,2.63087 0.80463,4.5764 2.41406,5.82767 1.60943,1.2192 3.63826,1.82799 6.08594,1.82799 2.2465,0 4.02046,-0.33396 5.32812,-1.00774 0.74745,-0.38511 1.46693,-0.92714 2.17188,-1.55456 v 0.42965 2.13265 h 4 v -11.99907 h -0.0156 c 4.8e-4,-0.0612 0.0156,-0.11024 0.0156,-0.17188 0,-2.58973 -0.46685,-4.75986 -1.39844,-6.51512 -0.9607,-1.75526 -2.28806,-3.08424 -3.97656,-3.97626 -1.6885,-0.89201 -3.649,-1.33583 -5.89062,-1.33583 z m -34.429692,3.10913 c 1.950508,0 3.378772,0.6141 4.281248,1.85142 0.611816,0.8193 0.945828,1.8757 1.156252,3.03883 H 86.445312 c 0.3212,-1.2321 0.769248,-2.3308 1.492188,-3.12476 1.077148,-1.17977 2.533128,-1.76549 4.367188,-1.76549 z M 58,137.99845 h 12 c 2.285188,0 4,3.71452 4,5.99953 0,2.28502 -1.714812,5.99954 -4,5.99954 H 58 Z m 75.92969,2.96071 c 0.03,0.3478 0.0768,0.69344 0.0859,1.03898 H 134 v 0.0703 5.85111 c -0.25756,0.31632 -0.53242,0.6243 -0.85938,0.88275 -1.50884,1.1871 -3.38631,1.7811 -5.63281,1.7811 -1.44178,0 -2.63147,-0.34176 -3.57031,-1.01554 -0.9053,-0.67376 -1.35938,-1.72785 -1.35938,-3.17163 0,-1.63628 0.63212,-2.90605 1.90626,-3.80439 1.30766,-0.89836 3.6392,-1.41061 6.99218,-1.53894 z"
     id="path18" />
  <path
     inkscape:connector-curvature="0"
     style="fill:#ffffff;stroke-width:4"
     d="m 54,116 v 3.99969 11.99907 3.99969 11.99907 3.99969 h 16 c 4.432,0 8,-5.56757 8,-9.99923 0,-2.76638 -1.3927,-5.97831 -3.515624,-7.99938 C 76.6073,131.97754 78,128.7656 78,125.99922 78,121.56757 74.432,116 70,116 H 58 Z m 4,3.99969 h 12 c 2.285188,0 4,3.71452 4,5.99953 0,2.28502 -1.714812,5.99954 -4,5.99954 H 58 Z m 48,1.99985 c 0,2.59188 0.03,3.86831 0.0312,5.99953 H 102 v 3.99969 h 4.05469 c 0.0445,6.92884 0.1982,12.15767 1.02343,15.04571 0.59676,2.08848 1.89343,3.71955 3.57813,4.37466 1.6847,0.65511 3.34375,0.57808 5.34375,0.57808 v -3.99969 c -2,0 -3.33314,-0.0848 -3.89844,-0.30464 -0.5653,-0.2198 -0.76863,-0.3386 -1.17187,-1.74987 -0.55702,-1.94942 -0.73847,-7.04366 -0.82813,-13.94423 H 114 v -3.99971 h -3.9375 C 110.05043,125.8582 110,124.5977 110,121.99954 Z m -13.648436,5.99953 c -2.066956,0 -3.888888,0.49029 -5.46094,1.46864 -1.54294,0.97834 -2.75164,2.37436 -3.625,4.18717 C 82.421372,135.46769 82,137.63782 82,140.17 c 0,2.58973 0.466848,4.75986 1.398436,6.51512 0.9607,1.75526 2.288064,3.08424 3.976564,3.97626 1.6885,0.89202 3.648996,1.33583 5.890624,1.33583 1.601164,0 2.983956,-0.13164 4.14844,-0.3906 1.164476,-0.2302 2.345466,-0.59917 3.539056,-1.11711 v -3.32786 c -1.2227,0.51794 -2.41364,0.9231 -3.57812,1.21084 -1.135372,0.25896 -2.452784,0.3906 -3.9375,0.3906 -2.328964,0 -4.14308,-0.67868 -5.453124,-2.03109 -1.280944,-1.38119 -1.949612,-4.18566 -2.007812,-6.80416 H 86 v 0.0703 h 16 v -1.55457 c 0,-2.10056 -0.39364,-3.93012 -1.17969,-5.48395 -0.75691,-1.5826 -1.86471,-2.80054 -3.32031,-3.66378 -1.455604,-0.86324 -3.168812,-1.29677 -5.148436,-1.29677 z m 34.382816,0 c -1.60117,0 -2.98396,0.13164 -4.14844,0.3906 -1.16448,0.2302 -2.34547,0.59916 -3.53906,1.1171 v 3.32787 c 1.2227,-0.51795 2.41364,-0.92311 3.57812,-1.21085 1.13537,-0.259 2.45278,-0.3906 3.9375,-0.3906 2.32896,0 4.14308,0.67868 5.45312,2.03109 0.60927,0.65694 1.07529,1.64551 1.40626,2.77322 l -2.5,0.0781 c -4.39241,0.12836 -7.63763,0.90063 -9.75,2.31232 -2.11238,1.37962 -3.17188,3.34689 -3.17188,5.91361 0,2.63087 0.80463,4.5764 2.41406,5.82767 1.60943,1.2192 3.63826,1.82799 6.08594,1.82799 2.2465,0 4.02046,-0.33396 5.32812,-1.00774 0.74745,-0.38511 1.46693,-0.92714 2.17188,-1.55456 v 0.42965 2.13265 h 4 v -11.99907 h -0.0156 c 4.8e-4,-0.0612 0.0156,-0.11024 0.0156,-0.17188 0,-2.58973 -0.46685,-4.75986 -1.39844,-6.51512 -0.9607,-1.75526 -2.28806,-3.08424 -3.97656,-3.97626 -1.6885,-0.89201 -3.649,-1.33583 -5.89062,-1.33583 z m -34.429692,3.10913 c 1.950508,0 3.378772,0.6141 4.281248,1.85142 0.611816,0.8193 0.945828,1.8757 1.156252,3.03883 H 86.445312 c 0.3212,-1.2321 0.769248,-2.3308 1.492188,-3.12476 1.077148,-1.17977 2.533128,-1.76549 4.367188,-1.76549 z M 58,135.99845 h 12 c 2.285188,0 4,3.71452 4,5.99953 0,2.28502 -1.714812,5.99954 -4,5.99954 H 58 Z m 75.92969,2.96071 c 0.03,0.3478 0.0768,0.69344 0.0859,1.03898 H 134 v 0.0703 5.85111 c -0.25756,0.31632 -0.53242,0.6243 -0.85938,0.88275 -1.50884,1.1871 -3.38631,1.7811 -5.63281,1.7811 -1.44178,0 -2.63147,-0.34176 -3.57031,-1.01554 -0.9053,-0.67376 -1.35938,-1.72785 -1.35938,-3.17163 0,-1.63628 0.63212,-2.90605 1.90626,-3.80439 1.30766,-0.89836 3.6392,-1.41061 6.99218,-1.53894 z"
     id="path20" />
  <path
     style="opacity:0.2;fill:#ffffff;stroke-width:4"
     d="M 96 16 A 80 80 0 0 0 16 96 A 80 80 0 0 0 16.017578 96.490234 A 80 80 0 0 1 96 17 A 80 80 0 0 1 175.97461 96.494141 A 80 80 0 0 0 176 96 A 80 80 0 0 0 96 16 z "
     id="path22" />
</svg>
