<?xml version="1.0" encoding="UTF-8" standalone="no"?>
<svg
   xmlns:dc="http://purl.org/dc/elements/1.1/"
   xmlns:cc="http://creativecommons.org/ns#"
   xmlns:rdf="http://www.w3.org/1999/02/22-rdf-syntax-ns#"
   xmlns:svg="http://www.w3.org/2000/svg"
   xmlns="http://www.w3.org/2000/svg"
   xmlns:sodipodi="http://sodipodi.sourceforge.net/DTD/sodipodi-0.dtd"
   xmlns:inkscape="http://www.inkscape.org/namespaces/inkscape"
   width="192"
   height="192"
   version="1"
   id="svg36"
   sodipodi:docname="google_toontastic.svg"
   inkscape:version="0.92.3 (2405546, 2018-03-11)">
  <metadata
     id="metadata42">
    <rdf:RDF>
      <cc:Work
         rdf:about="">
        <dc:format>image/svg+xml</dc:format>
        <dc:type
           rdf:resource="http://purl.org/dc/dcmitype/StillImage" />
        <dc:title></dc:title>
      </cc:Work>
    </rdf:RDF>
  </metadata>
  <defs
     id="defs40">
    <filter
       inkscape:collect="always"
       style="color-interpolation-filters:sRGB"
       id="filter831"
       x="-0.0456"
       width="1.0912"
       y="-0.050666667"
       height="1.1013333">
      <feGaussianBlur
         inkscape:collect="always"
         stdDeviation="3.04"
         id="feGaussianBlur833" />
    </filter>
    <filter
       inkscape:collect="always"
       style="color-interpolation-filters:sRGB"
       id="filter879"
       x="-0.034285714"
       width="1.0685714"
       y="-0.08"
       height="1.16">
      <feGaussianBlur
         inkscape:collect="always"
         stdDeviation="2.4"
         id="feGaussianBlur881" />
    </filter>
  </defs>
  <sodipodi:namedview
     pagecolor="#ffffff"
     bordercolor="#666666"
     borderopacity="1"
     objecttolerance="10"
     gridtolerance="10"
     guidetolerance="10"
     inkscape:pageopacity="0"
     inkscape:pageshadow="2"
     inkscape:window-width="1920"
     inkscape:window-height="1018"
     id="namedview38"
     showgrid="false"
     inkscape:zoom="1"
     inkscape:cx="35.253681"
     inkscape:cy="96"
     inkscape:window-x="0"
     inkscape:window-y="32"
     inkscape:window-maximized="1"
     inkscape:current-layer="svg36" />
  <path
     style="opacity:0.2;fill:#000000;stroke-width:4;filter:url(#filter831)"
     d="M 176,164.00001 V 36.000011 c 0,-4.432 -3.568,-8 -8,-8 H 24 c -4.432,0 -8,3.568 -8,8 V 164.00001 c 0,4.432 3.568,8 8,8 h 144 c 4.432,0 8,-3.568 8,-8 z"
     id="path924"
     inkscape:connector-curvature="0" />
  <path
     inkscape:connector-curvature="0"
     id="path2"
     d="M 176,160 V 32 c 0,-4.432 -3.568,-8 -8,-8 H 24 c -4.432,0 -8,3.568 -8,8 v 128 c 0,4.432 3.568,8 8,8 h 144 c 4.432,0 8,-3.568 8,-8 z"
     style="fill:#989898;stroke-width:4;fill-opacity:1" />
  <path
     style="fill:#4f4f4f;stroke-width:4"
     d="m 39.663793,24 16,16 -16,16 L 60,56 76,40 60,24 Z M 80,24 96,40 80,56 h 20 L 116,40 100,24 Z m 40,0 16,16 -16,16 h 20 L 156,40 140,24 Z m 40,0 16,16 v -8 c 0,-4.432 -3.568,-8 -8,-8 z m 16,16 -16,16 h 16 z"
     id="path4"
     inkscape:connector-curvature="0"
     sodipodi:nodetypes="cccccccccccccccccccccccssccccc" />
  <path
     style="opacity:0.2;stroke-width:4"
     d="m 24,24 c -4.432,0 -8,3.568 -8,8 v 8 h 160 v -8 c 0,-4.432 -3.568,-8 -8,-8 z"
     id="path6"
     inkscape:connector-curvature="0" />
  <path
     style="fill:#989898;stroke-width:4;fill-opacity:1"
     d="m 24,24 c -4.432,0 -8,3.568 -8,8 v 24 l 23.663793,0 16,-16 -16,-16 z"
     id="path8"
     inkscape:connector-curvature="0"
     sodipodi:nodetypes="ssccccs" />
  <path
     style="fill:#989898;fill-rule:evenodd;stroke-width:4;fill-opacity:1"
     d="M 76,40 60,24 h 20 l 16,16 z"
     id="path10"
     inkscape:connector-curvature="0" />
  <path
     style="fill:#afafaf;fill-rule:evenodd;stroke-width:4;fill-opacity:1"
     d="M 76,40 60,56 H 80 L 96,40 Z"
     id="path12"
     inkscape:connector-curvature="0" />
  <path
     style="fill:#989898;fill-rule:evenodd;stroke-width:4;fill-opacity:1"
     d="M 116,40 100,24 h 20 l 16,16 z"
     id="path14"
     inkscape:connector-curvature="0" />
  <path
     style="fill:#afafaf;fill-rule:evenodd;stroke-width:4;fill-opacity:1"
     d="m 116,40 -16,16 h 20 l 16,-16 z"
     id="path16"
     inkscape:connector-curvature="0" />
  <path
     style="fill:#989898;fill-rule:evenodd;stroke-width:4;fill-opacity:1"
     d="M 156,40 140,24 h 20 l 16,16 z"
     id="path18"
     inkscape:connector-curvature="0" />
  <path
     style="fill:#afafaf;fill-rule:evenodd;stroke-width:4;fill-opacity:1"
     d="m 156,40 -16,16 h 20 l 16,-16 z"
     id="path20"
     inkscape:connector-curvature="0" />
  <path
     style="opacity:0.1;fill:#ffffff;stroke-width:4"
     d="M 24 24 C 19.568 24 16 27.568 16 32 L 16 33 C 16 28.568 19.568 25 24 25 L 168 25 C 172.432 25 176 28.568 176 33 L 176 32 C 176 27.568 172.432 24 168 24 L 24 24 z "
     id="path22" />
  <path
     inkscape:connector-curvature="0"
     id="path26"
     d="m 20,58 c -4.432,0 -8,3.568 -8,8 v 56 c 0,4.432 3.568,8 8,8 H 59.875 C 75.999224,130 80,110 96,110 c 16,0 20.00078,20 36.125,20 H 172 c 4.432,0 8,-3.568 8,-8 V 66 c 0,-4.432 -3.568,-8 -8,-8 H 96 Z"
     style="opacity:0.2;fill-rule:evenodd;stroke-width:4;filter:url(#filter879)" />
  <path
     inkscape:connector-curvature="0"
     id="path28"
     d="m 20,56 c -4.432,0 -8,3.568 -8,8 v 56 c 0,4.432 3.568,8 8,8 H 59.875 C 75.999224,128 80,108 96,108 c 16,0 20.00078,20 36.125,20 H 172 c 4.432,0 8,-3.568 8,-8 V 64 c 0,-4.432 -3.568,-8 -8,-8 H 96 Z"
     style="fill:#e4e4e4;fill-rule:evenodd;stroke-width:4" />
  <path
     inkscape:connector-curvature="0"
     id="path30"
     d="m 12,68 v 48 H 52 C 65.254832,116 76,105.25483 76,92 76,78.745168 65.254832,68 52,68 Z"
     style="fill:#16aef6;fill-rule:evenodd;stroke-width:4" />
  <path
     inkscape:connector-curvature="0"
     id="path32"
     d="m 180,68 v 48 h -40 c -13.25483,0 -24,-10.74517 -24,-24 0,-13.254832 10.74517,-24 24,-24 z"
     style="fill:#da4b38;fill-rule:evenodd;stroke-width:4" />
  <path
     inkscape:connector-curvature="0"
     id="path34"
     d="m 20,56 c -4.432,0 -8,3.568 -8,8 v 4 c 0,-4.432 3.568,-8 8,-8 h 152 c 4.432,0 8,3.568 8,8 v -4 c 0,-4.432 -3.568,-8 -8,-8 z"
     style="opacity:0.2;fill:#ffffff;fill-rule:evenodd;stroke-width:4" />
</svg>
