<?xml version="1.0" encoding="UTF-8" standalone="no"?>
<svg
   xmlns:dc="http://purl.org/dc/elements/1.1/"
   xmlns:cc="http://creativecommons.org/ns#"
   xmlns:rdf="http://www.w3.org/1999/02/22-rdf-syntax-ns#"
   xmlns:svg="http://www.w3.org/2000/svg"
   xmlns="http://www.w3.org/2000/svg"
   xmlns:sodipodi="http://sodipodi.sourceforge.net/DTD/sodipodi-0.dtd"
   xmlns:inkscape="http://www.inkscape.org/namespaces/inkscape"
   width="192"
   height="192"
   version="1.1"
   id="svg16"
   sodipodi:docname="google_adwords.svg"
   inkscape:version="0.92.3 (2405546, 2018-03-11)">
  <metadata
     id="metadata22">
    <rdf:RDF>
      <cc:Work
         rdf:about="">
        <dc:format>image/svg+xml</dc:format>
        <dc:type
           rdf:resource="http://purl.org/dc/dcmitype/StillImage" />
        <dc:title></dc:title>
      </cc:Work>
    </rdf:RDF>
  </metadata>
  <defs
     id="defs20">
    <filter
       inkscape:collect="always"
       style="color-interpolation-filters:sRGB"
       id="filter847"
       x="-0.053142857"
       width="1.1062857"
       y="-0.043764706"
       height="1.0875294">
      <feGaussianBlur
         inkscape:collect="always"
         stdDeviation="2.48"
         id="feGaussianBlur849" />
    </filter>
    <filter
       inkscape:collect="always"
       style="color-interpolation-filters:sRGB"
       id="filter863"
       x="-0.053139209"
       width="1.1062784"
       y="-0.04376718"
       height="1.0875344">
      <feGaussianBlur
         inkscape:collect="always"
         stdDeviation="2.4801402"
         id="feGaussianBlur865" />
    </filter>
  </defs>
  <sodipodi:namedview
     pagecolor="#ffffff"
     bordercolor="#666666"
     borderopacity="1"
     objecttolerance="10"
     gridtolerance="10"
     guidetolerance="10"
     inkscape:pageopacity="0"
     inkscape:pageshadow="2"
     inkscape:window-width="1920"
     inkscape:window-height="1018"
     id="namedview18"
     showgrid="false"
     inkscape:zoom="1"
     inkscape:cx="96"
     inkscape:cy="110.49843"
     inkscape:window-x="0"
     inkscape:window-y="32"
     inkscape:window-maximized="1"
     inkscape:current-layer="svg16" />
  <path
     inkscape:connector-curvature="0"
     id="path2"
     d="m 174.36137,168 c 4.1627,-0.002 6.8897,-4.85433 5.07318,-9.02698 L 123.71534,35.54084 C 122.77142,33.373808 120.79875,31.998472 118.63666,32 H 73.635956 c -4.158872,0.0042 -6.883964,4.849838 -5.073172,9.020848 L 122.28006,164.45916 c 0.94306,2.16504 2.91308,3.54002 5.07318,3.54084 z"
     style="opacity:0.2;stroke-width:4;filter:url(#filter863)" />
  <path
     inkscape:connector-curvature="0"
     id="path4"
     d="m 174.36137,164 c 4.1627,-0.002 6.8897,-4.85433 5.07318,-9.02698 L 123.71534,31.54084 C 122.77142,29.373808 120.79875,27.998472 118.63666,28 H 73.635956 c -4.158872,0.0042 -6.883964,4.849838 -5.073172,9.020848 L 122.28006,160.45916 c 0.94306,2.16504 2.91308,3.54002 5.07318,3.54084 z"
     style="fill:#1a8151;stroke-width:4;fill-opacity:1" />
  <path
     style="opacity:0.1;fill:#ffffff;stroke-width:4"
     d="M 73.632812 28 C 70.201673 28.003506 67.765155 31.30403 68.029297 34.800781 C 68.246547 31.700406 70.531675 29.003169 73.632812 29 L 118.63281 29 C 120.79491 28.998472 122.77483 30.372031 123.71875 32.539062 L 179.4375 155.97656 C 179.74567 156.68443 179.89364 157.40555 179.94336 158.12109 C 180.01587 157.08518 179.89041 156.01688 179.4375 154.97656 L 123.71875 31.539062 C 122.77483 29.37203 120.79491 27.998472 118.63281 28 L 73.632812 28 z "
     id="path6" />
  <path
     inkscape:connector-curvature="0"
     id="path8"
     d="M 17.638628,168 A 5.6410992,6.2845372 0 0 1 12.56545,158.97302 L 66.282736,35.54084 A 5.6410992,6.2845372 0 0 1 71.36142,32 h 47.00262 a 5.6410992,6.2845372 0 0 1 5.07318,9.020848 L 69.719936,164.45916 A 5.6410992,6.2845372 0 0 1 64.64676,168 Z"
     style="opacity:0.2;stroke-width:4;filter:url(#filter847)" />
  <path
     inkscape:connector-curvature="0"
     id="path10"
     d="M 17.638628,164 A 5.6410992,6.2845372 0 0 1 12.56545,154.97302 L 66.282736,31.54084 A 5.6410992,6.2845372 0 0 1 71.36142,28 h 47.00262 a 5.6410992,6.2845372 0 0 1 5.07318,9.020848 L 69.719936,160.45916 A 5.6410992,6.2845372 0 0 1 64.64676,164 Z"
     style="fill:#4c8cf6;stroke-width:4" />
  <path
     style="opacity:0.2;fill:#ffffff;stroke-width:4"
     d="M 71.25 28 A 5.6410992 6.2845372 0 0 0 66.28125 31.539062 L 12.5625 154.97656 A 5.6410992 6.2845372 0 0 0 12.019531 158.22266 A 5.6410992 6.2845372 0 0 1 12.5625 155.97656 L 66.28125 32.539062 A 5.6410992 6.2845372 0 0 1 71.25 29 A 5.6410992 6.2845372 0 0 1 71.359375 29 L 118.36719 29 A 5.6410992 6.2845372 0 0 1 123.97656 34.791016 A 5.6410992 6.2845372 0 0 0 118.36719 28 L 71.359375 28 A 5.6410992 6.2845372 0 0 0 71.25 28 z "
     id="path12" />
</svg>
