<?xml version="1.0" encoding="UTF-8" standalone="no"?>
<svg
   xmlns:dc="http://purl.org/dc/elements/1.1/"
   xmlns:cc="http://creativecommons.org/ns#"
   xmlns:rdf="http://www.w3.org/1999/02/22-rdf-syntax-ns#"
   xmlns:svg="http://www.w3.org/2000/svg"
   xmlns="http://www.w3.org/2000/svg"
   xmlns:sodipodi="http://sodipodi.sourceforge.net/DTD/sodipodi-0.dtd"
   xmlns:inkscape="http://www.inkscape.org/namespaces/inkscape"
   width="192"
   height="192"
   version="1"
   id="svg18"
   sodipodi:docname="google_android_tv_core_services.svg"
   inkscape:version="0.92.3 (2405546, 2018-03-11)">
  <metadata
     id="metadata24">
    <rdf:RDF>
      <cc:Work
         rdf:about="">
        <dc:format>image/svg+xml</dc:format>
        <dc:type
           rdf:resource="http://purl.org/dc/dcmitype/StillImage" />
      </cc:Work>
    </rdf:RDF>
  </metadata>
  <defs
     id="defs22">
    <filter
       inkscape:collect="always"
       style="color-interpolation-filters:sRGB"
       id="filter859"
       x="-0.0432"
       width="1.0864"
       y="-0.054"
       height="1.108">
      <feGaussianBlur
         inkscape:collect="always"
         stdDeviation="2.88"
         id="feGaussianBlur861" />
    </filter>
    <filter
       inkscape:collect="always"
       style="color-interpolation-filters:sRGB"
       id="filter887"
       x="-0.12"
       width="1.24"
       y="-0.03"
       height="1.06">
      <feGaussianBlur
         inkscape:collect="always"
         stdDeviation="1.2"
         id="feGaussianBlur889" />
    </filter>
  </defs>
  <sodipodi:namedview
     pagecolor="#ffffff"
     bordercolor="#666666"
     borderopacity="1"
     objecttolerance="10"
     gridtolerance="10"
     guidetolerance="10"
     inkscape:pageopacity="0"
     inkscape:pageshadow="2"
     inkscape:window-width="1920"
     inkscape:window-height="1018"
     id="namedview20"
     showgrid="false"
     inkscape:zoom="3.52"
     inkscape:cx="96"
     inkscape:cy="96"
     inkscape:window-x="0"
     inkscape:window-y="32"
     inkscape:window-maximized="1"
     inkscape:current-layer="svg18" />
  <rect
     style="opacity:0.2;fill:#000000;stroke-width:4;filter:url(#filter859)"
     width="128"
     height="160"
     x="-164"
     y="-176"
     rx="8"
     ry="8"
     transform="matrix(0,-1,-1,0,0,0)"
     id="rect841" />
  <rect
     id="rect4"
     transform="matrix(0,-1,-1,0,0,0)"
     ry="8"
     rx="8"
     y="-176"
     x="-160"
     height="160"
     width="128"
     style="fill:#0fa0e6;stroke-width:4" />
  <path
     inkscape:connector-curvature="0"
     id="path6"
     d="M 44,50 A 12,12 0 0 0 32,62 12,12 0 0 0 44,74 12,12 0 0 0 56,62 12,12 0 0 0 44,50 Z m 0,36 A 12,12 0 0 0 32,98 12,12 0 0 0 44,110 12,12 0 0 0 56,98 12,12 0 0 0 44,86 Z m 0,36 a 12,12 0 0 0 -12,12 12,12 0 0 0 12,12 12,12 0 0 0 12,-12 12,12 0 0 0 -12,-12 z"
     style="opacity:0.1;stroke-width:4;filter:url(#filter887)" />
  <path
     style="opacity:0.2;fill:#ffffff;stroke-width:4"
     d="M 24 32 C 19.568 32 16 35.568 16 40 L 16 41 C 16 36.568 19.568 33 24 33 L 168 33 C 172.432 33 176 36.568 176 41 L 176 40 C 176 35.568 172.432 32 168 32 L 24 32 z "
     id="path8" />
  <circle
     id="circle10"
     r="12"
     cy="96"
     cx="44"
     style="fill:#ffffff;stroke-width:4" />
  <circle
     id="circle12"
     r="12"
     cy="60"
     cx="44"
     style="fill:#ffffff;stroke-width:4" />
  <circle
     id="circle14"
     r="12"
     cy="132"
     cx="44"
     style="fill:#ffffff;stroke-width:4" />
</svg>
