<?xml version="1.0" encoding="UTF-8" standalone="no"?>
<svg
   xmlns:dc="http://purl.org/dc/elements/1.1/"
   xmlns:cc="http://creativecommons.org/ns#"
   xmlns:rdf="http://www.w3.org/1999/02/22-rdf-syntax-ns#"
   xmlns:svg="http://www.w3.org/2000/svg"
   xmlns="http://www.w3.org/2000/svg"
   xmlns:sodipodi="http://sodipodi.sourceforge.net/DTD/sodipodi-0.dtd"
   xmlns:inkscape="http://www.inkscape.org/namespaces/inkscape"
   width="192"
   height="192"
   version="1"
   id="svg14"
   sodipodi:docname="google_analytics.svg"
   inkscape:version="0.92.3 (2405546, 2018-03-11)">
  <metadata
     id="metadata20">
    <rdf:RDF>
      <cc:Work
         rdf:about="">
        <dc:format>image/svg+xml</dc:format>
        <dc:type
           rdf:resource="http://purl.org/dc/dcmitype/StillImage" />
      </cc:Work>
    </rdf:RDF>
  </metadata>
  <defs
     id="defs18">
    <filter
       inkscape:collect="always"
       style="color-interpolation-filters:sRGB"
       id="filter856"
       x="-0.049846154"
       width="1.0996923"
       y="-0.046285714"
       height="1.0925714">
      <feGaussianBlur
         inkscape:collect="always"
         stdDeviation="2.16"
         id="feGaussianBlur858" />
    </filter>
    <filter
       inkscape:collect="always"
       style="color-interpolation-filters:sRGB"
       id="filter884"
       x="-0.092571429"
       width="1.1851429"
       y="-0.0324"
       height="1.0648">
      <feGaussianBlur
         inkscape:collect="always"
         stdDeviation="2.16"
         id="feGaussianBlur886" />
    </filter>
  </defs>
  <sodipodi:namedview
     pagecolor="#ffffff"
     bordercolor="#666666"
     borderopacity="1"
     objecttolerance="10"
     gridtolerance="10"
     guidetolerance="10"
     inkscape:pageopacity="0"
     inkscape:pageshadow="2"
     inkscape:window-width="1920"
     inkscape:window-height="1018"
     id="namedview16"
     showgrid="false"
     inkscape:zoom="1"
     inkscape:cx="96"
     inkscape:cy="103.18304"
     inkscape:window-x="0"
     inkscape:window-y="32"
     inkscape:window-maximized="1"
     inkscape:current-layer="svg14" />
  <path
     inkscape:connector-curvature="0"
     id="path4"
     d="M 176,168 V 32 c 0,-6.648 -5.352,-12 -12,-12 h -32 c -6.648,0 -12,5.352 -12,12 v 148 h 44 c 6.648,0 12,-5.352 12,-12 z"
     style="opacity:0.2;stroke-width:4;filter:url(#filter884)" />
  <path
     inkscape:connector-curvature="0"
     id="path8"
     d="M 176,164 V 28 c 0,-6.648 -5.352,-12 -12,-12 h -32 c -6.648,0 -12,5.352 -12,12 v 148 h 44 c 6.648,0 12,-5.352 12,-12 z"
     style="fill:#f57e04;stroke-width:4" />
  <path
     inkscape:connector-curvature="0"
     id="path2"
     d="m 76,68 c -6.648,0 -12,5.352 -12,12 v 44 H 28 c -6.648,0 -12,5.352 -12,12 v 32 c 0,6.648 5.352,12 12,12 h 92 V 80 c 0,-6.648 -5.352,-12 -12,-12 z"
     style="opacity:0.2;stroke-width:4;filter:url(#filter856)" />
  <path
     inkscape:connector-curvature="0"
     id="path6"
     d="m 76,64 c -6.648,0 -12,5.352 -12,12 v 44 H 28 c -6.648,0 -12,5.352 -12,12 v 32 c 0,6.648 5.352,12 12,12 h 92 V 76 c 0,-6.648 -5.352,-12 -12,-12 z"
     style="fill:#ffc311;stroke-width:4" />
  <path
     style="opacity:0.2;fill:#ffffff;stroke-width:4"
     d="M 132 16 C 125.352 16 120 21.352 120 28 L 120 29 C 120 22.352 125.352 17 132 17 L 164 17 C 170.648 17 176 22.352 176 29 L 176 28 C 176 21.352 170.648 16 164 16 L 132 16 z M 76 64 C 69.352 64 64 69.352 64 76 L 64 77 C 64 70.352 69.352 65 76 65 L 108 65 C 114.648 65 120 70.352 120 77 L 120 76 C 120 69.352 114.648 64 108 64 L 76 64 z M 28 120 C 21.352 120 16 125.352 16 132 L 16 133 C 16 126.352 21.352 121 28 121 L 64 121 L 64 120 L 28 120 z "
     id="path10" />
</svg>
