<?xml version="1.0" encoding="UTF-8" standalone="no"?>
<svg
   xmlns:dc="http://purl.org/dc/elements/1.1/"
   xmlns:cc="http://creativecommons.org/ns#"
   xmlns:rdf="http://www.w3.org/1999/02/22-rdf-syntax-ns#"
   xmlns:svg="http://www.w3.org/2000/svg"
   xmlns="http://www.w3.org/2000/svg"
   xmlns:sodipodi="http://sodipodi.sourceforge.net/DTD/sodipodi-0.dtd"
   xmlns:inkscape="http://www.inkscape.org/namespaces/inkscape"
   width="192"
   height="192"
   version="1"
   id="svg28"
   sodipodi:docname="google_cloudconsole.svg"
   inkscape:version="0.92.3 (2405546, 2018-03-11)">
  <metadata
     id="metadata34">
    <rdf:RDF>
      <cc:Work
         rdf:about="">
        <dc:format>image/svg+xml</dc:format>
        <dc:type
           rdf:resource="http://purl.org/dc/dcmitype/StillImage" />
      </cc:Work>
    </rdf:RDF>
  </metadata>
  <defs
     id="defs32">
    <filter
       inkscape:collect="always"
       style="color-interpolation-filters:sRGB"
       id="filter923"
       x="-0.045714447"
       width="1.0914289"
       y="-0.050526119"
       height="1.1010522">
      <feGaussianBlur
         inkscape:collect="always"
         stdDeviation="3.1999876"
         id="feGaussianBlur925" />
    </filter>
    <filter
       inkscape:collect="always"
       style="color-interpolation-filters:sRGB"
       id="filter931"
       x="-0.022703833"
       width="1.0454077"
       y="-0.025453124"
       height="1.0509062">
      <feGaussianBlur
         inkscape:collect="always"
         stdDeviation="0.93328122"
         id="feGaussianBlur933" />
    </filter>
    <filter
       inkscape:collect="always"
       style="color-interpolation-filters:sRGB"
       id="filter951"
       x="-0.048"
       width="1.096"
       y="-0.048"
       height="1.096">
      <feGaussianBlur
         inkscape:collect="always"
         stdDeviation="0.8"
         id="feGaussianBlur953" />
    </filter>
  </defs>
  <sodipodi:namedview
     pagecolor="#ffffff"
     bordercolor="#666666"
     borderopacity="1"
     objecttolerance="10"
     gridtolerance="10"
     guidetolerance="10"
     inkscape:pageopacity="0"
     inkscape:pageshadow="2"
     inkscape:window-width="1920"
     inkscape:window-height="1018"
     id="namedview30"
     showgrid="false"
     inkscape:zoom="1"
     inkscape:cx="96"
     inkscape:cy="125.70297"
     inkscape:window-x="0"
     inkscape:window-y="32"
     inkscape:window-maximized="1"
     inkscape:current-layer="svg28" />
  <path
     style="opacity:0.2;fill:#000000;stroke-width:4;filter:url(#filter923)"
     d="m 60.816406,24 c -4.871408,-6.35e-4 -9.372646,2.647846 -11.808594,6.947266 L 27.060547,69.6875 l -0.01172,0.02734 -13.220703,23.332031 a 13.634303,13.895431 0 0 0 0,13.898435 L 34.820312,144 l 14.1875,25.05469 A 13.634303,13.895431 0 0 0 60.8125,176 h 40.64062 29.73438 c 0.45399,-3.6e-4 0.90768,-0.024 1.35938,-0.0703 0.45094,-0.0449 0.89943,-0.11273 1.34374,-0.20313 0.11761,-0.0296 0.23481,-0.0609 0.35157,-0.0937 0.32852,-0.0736 0.65427,-0.15965 0.97656,-0.25781 0.2712,-0.0904 0.53958,-0.18936 0.80469,-0.29688 1.00821,-0.38576 1.96802,-0.89188 2.85937,-1.50781 0.3754,-0.26004 0.73784,-0.53904 1.08594,-0.83593 0.3488,-0.30045 0.68254,-0.61855 1,-0.95313 0.63167,-0.6624 1.19698,-1.38733 1.6875,-2.16406 v -0.008 c 0.1162,-0.1822 0.22826,-0.36717 0.33594,-0.55469 l 21.14062,-37.32031 14.03907,-24.78907 c 2.43666,-4.30002 2.43667,-9.598411 0,-13.898435 L 157.1875,56 h -0.002 L 142.99219,30.947266 C 140.55624,26.647846 136.055,23.999365 131.18359,24 Z"
     id="path886"
     inkscape:connector-curvature="0" />
  <path
     inkscape:connector-curvature="0"
     id="path4"
     d="m 60.815964,20 c -4.871408,-6.35e-4 -9.373056,2.647601 -11.809004,6.947021 l -21.945976,38.740027 -9.939836,24.02152 c -2.435008,4.298908 0.200904,7.947684 2.635914,12.246592 l 33.20377,59.14395 c 2.435948,4.29942 3.972192,6.61817 8.8436,6.61753 h 68.391128 c 0,0 4.43072,-2.97709 6.86667,-7.27651 l 34.19224,-57.16701 c 2.43501,-4.298912 2.7645,-7.288708 0.32948,-11.587616 L 157.76945,53.031016 142.99304,26.947021 C 140.55709,22.647601 136.05544,19.999365 131.18403,20 Z"
     style="fill:#4587f3;stroke-width:4" />
  <path
     inkscape:connector-curvature="0"
     id="path6"
     d="M 120.40625,52 145.172,95.585936 145.32812,96 l -43.875,76 h 29.73438 c 0.45399,-3.6e-4 0.90768,-0.024 1.35938,-0.0703 0.45094,-0.0449 0.89942,-0.11272 1.34374,-0.20312 0.1176,-0.0296 0.2348,-0.0609 0.35156,-0.0938 0.32852,-0.0736 0.65428,-0.15964 0.97657,-0.2578 0.2712,-0.0904 0.53957,-0.18936 0.80468,-0.29688 1.00821,-0.38576 1.96803,-0.89188 2.85938,-1.50781 0.3754,-0.26004 0.73784,-0.53904 1.08594,-0.83594 0.3488,-0.30044 0.68254,-0.61855 1,-0.95313 0.63167,-0.6624 1.19697,-1.38733 1.68749,-2.16406 v -0.008 c 0.1162,-0.1822 0.22824,-0.36716 0.33592,-0.55468 l 21.14063,-37.32032 14.03906,-24.78906 c 2.43667,-4.300024 2.43667,-9.598412 0,-13.898436 L 157.1875,52 Z"
     style="fill:#dd4d3e;stroke-width:4" />
  <path
     inkscape:connector-curvature="0"
     id="path10"
     d="m 28.109375,63.843752 -14.28125,25.203124 a 13.634303,13.895431 0 0 0 0,13.898434 L 34.820312,140 l 14.1875,25.05469 A 13.634303,13.895431 0 0 0 60.8125,172 h 40.64062 l 18.47657,-32 H 72.070312 L 46.671876,96 Z M 138.20312,170 a 13.634303,13.895431 0 0 1 -0.90624,0.50781 A 13.634303,13.895431 0 0 0 138.20312,170 Z m -0.95312,0.53906 a 13.634303,13.895431 0 0 1 -1.22656,0.53906 13.634303,13.895431 0 0 0 1.22656,-0.53906 z"
     style="fill:#f9bc14;stroke-width:4" />
  <path
     inkscape:connector-curvature="0"
     id="path16"
     d="M 71.593752,54 H 120.40625 L 145.32812,98 120.008,142 H 71.593752 L 46.671876,98 Z"
     style="opacity:0.2;stroke-width:4;filter:url(#filter931)" />
  <path
     inkscape:connector-curvature="0"
     id="path18"
     d="M 71.593752,52 H 120.40625 L 145.32812,96 120.008,140 H 71.593752 L 46.671876,96 Z"
     style="fill:#d5d5d5;stroke-width:4" />
  <circle
     id="circle20"
     r="20"
     cy="98"
     cx="96"
     style="opacity:0.2;stroke-width:4;filter:url(#filter951)" />
  <circle
     id="circle22"
     r="20"
     cy="96"
     cx="96"
     style="fill:#ffffff;stroke-width:4" />
  <path
     style="opacity:0.2;fill:#ffffff;stroke-width:4"
     d="m 60.8125,20 c -4.86952,5.84e-4 -9.369084,2.647911 -11.804688,6.945312 L 13.828125,89.046875 c -0.197681,0.35041 -0.374801,0.709924 -0.539063,1.074219 -0.07496,0.169094 -0.146588,0.339701 -0.214843,0.511718 -0.0643,0.159833 -0.125494,0.320488 -0.183594,0.482422 -0.659824,1.787436 -0.95104,3.694302 -0.855469,5.601563 0.02764,-1.572135 0.316906,-3.128085 0.855469,-4.601563 0.0581,-0.161934 0.119294,-0.322588 0.183594,-0.482422 0.06826,-0.172017 0.139883,-0.342624 0.214843,-0.511718 0.164262,-0.364295 0.341382,-0.723809 0.539063,-1.074219 L 49.007812,27.945312 C 51.443416,23.647911 55.94298,21.000584 60.8125,21 h 70.375 c 4.86952,5.84e-4 9.36908,2.647911 11.80469,6.945312 L 157.1875,53 178.17188,90.046875 c 0.15525,0.27606 0.30117,0.55747 0.4375,0.84375 l 0.008,0.0078 c 0.19772,0.415222 0.37505,0.840229 0.53125,1.273437 v 0.0078 c 0.15662,0.43039 0.29217,0.868426 0.40625,1.3125 V 93.5 c 0.11304,0.445628 0.20434,0.896704 0.27343,1.351562 v 0.0078 c 0.0692,0.455672 0.11623,0.914572 0.14063,1.375 v 0.0078 c 0.008,0.149602 -0.001,0.299466 0.002,0.449218 0.002,-0.01957 0.005,-0.03897 0.006,-0.05859 V 96.625 c 0.02,-0.460784 0.0174,-0.922292 -0.008,-1.382812 v -0.0078 c -0.0244,-0.460428 -0.0714,-0.919328 -0.14063,-1.375 v -0.0078 C 179.75903,93.396704 179.66773,92.945628 179.55469,92.5 v -0.0078 c -0.11408,-0.444074 -0.24963,-0.882109 -0.40625,-1.3125 v -0.0078 c -0.1562,-0.433208 -0.33353,-0.858215 -0.53125,-1.273437 l -0.008,-0.0078 c -0.13633,-0.28628 -0.28225,-0.56769 -0.4375,-0.84375 L 157.1875,52 142.99219,26.945312 C 140.55658,22.647911 136.05702,20.000584 131.1875,20 Z M 71.59375,52 46.671875,96 28.964844,65.326172 28.679688,65.830078 46.671875,97 71.59375,53 h 48.8125 0.56641 l -0.56641,-1 z m 48.8125,0 0.57813,1 h 36.20312 v -1 z m 0,1 24.63672,43.496094 L 145.32812,96 122.10547,55 h -0.54297 z m 17.79687,117 c -0.29567,0.18089 -0.59797,0.35028 -0.90624,0.50781 0.30827,-0.15753 0.61057,-0.32692 0.90624,-0.50781 z m -0.95312,0.53906 c -0.39997,0.2 -0.80931,0.3799 -1.22656,0.53906 0.41725,-0.15916 0.82659,-0.33906 1.22656,-0.53906 z M 138.20312,171 c -0.29567,0.18089 -0.59797,0.35028 -0.90624,0.50781 0.30827,-0.15753 0.61057,-0.32692 0.90624,-0.50781 z m -0.95312,0.53906 c -0.39997,0.2 -0.80931,0.3799 -1.22656,0.53906 0.41725,-0.15916 0.82659,-0.33906 1.22656,-0.53906 z m 0,1 c -0.39997,0.2 -0.80931,0.3799 -1.22656,0.53906 0.41725,-0.15916 0.82659,-0.33906 1.22656,-0.53906 z M 138.20312,173 c -0.29567,0.18089 -0.59797,0.35028 -0.90624,0.50781 0.30827,-0.15753 0.61057,-0.32692 0.90624,-0.50781 z m -0.95312,0.53906 c -0.39997,0.2 -0.80931,0.3799 -1.22656,0.53906 0.41725,-0.15916 0.82659,-0.33906 1.22656,-0.53906 z m 0,1 c -0.39997,0.2 -0.80931,0.3799 -1.22656,0.53906 0.41725,-0.15916 0.82659,-0.33906 1.22656,-0.53906 z M 138.20312,175 c -0.29567,0.18089 -0.59797,0.35028 -0.90624,0.50781 0.30827,-0.15753 0.61057,-0.32692 0.90624,-0.50781 z m -0.95312,0.53906 c -0.39997,0.2 -0.80931,0.3799 -1.22656,0.53906 0.41725,-0.15916 0.82659,-0.33906 1.22656,-0.53906 z m 0,1 c -0.39997,0.2 -0.80931,0.3799 -1.22656,0.53906 0.41725,-0.15916 0.82659,-0.33906 1.22656,-0.53906 z M 138.20312,177 c -0.29567,0.18089 -0.59797,0.35028 -0.90624,0.50781 0.30827,-0.15753 0.61057,-0.32692 0.90624,-0.50781 z m -0.95312,0.53906 c -0.39997,0.2 -0.80931,0.3799 -1.22656,0.53906 0.41725,-0.15916 0.82659,-0.33906 1.22656,-0.53906 z"
     id="path12"
     inkscape:connector-curvature="0"
     sodipodi:nodetypes="ccccccccccccccccccccccccccccccccccccccccccccccccccccccccccccccccccccccccccccccccccccccccccccccccccccccccc" />
</svg>
