<?xml version="1.0" encoding="UTF-8" standalone="no"?>
<svg
   xmlns:dc="http://purl.org/dc/elements/1.1/"
   xmlns:cc="http://creativecommons.org/ns#"
   xmlns:rdf="http://www.w3.org/1999/02/22-rdf-syntax-ns#"
   xmlns:svg="http://www.w3.org/2000/svg"
   xmlns="http://www.w3.org/2000/svg"
   xmlns:sodipodi="http://sodipodi.sourceforge.net/DTD/sodipodi-0.dtd"
   xmlns:inkscape="http://www.inkscape.org/namespaces/inkscape"
   width="192"
   height="192"
   version="1.1"
   id="svg16"
   sodipodi:docname="google_play_book.svg"
   inkscape:version="0.92.3 (2405546, 2018-03-11)">
  <metadata
     id="metadata22">
    <rdf:RDF>
      <cc:Work
         rdf:about="">
        <dc:format>image/svg+xml</dc:format>
        <dc:type
           rdf:resource="http://purl.org/dc/dcmitype/StillImage" />
      </cc:Work>
    </rdf:RDF>
  </metadata>
  <defs
     id="defs20">
    <filter
       inkscape:collect="always"
       style="color-interpolation-filters:sRGB"
       id="filter853"
       x="-0.054"
       width="1.108"
       y="-0.0432"
       height="1.0864">
      <feGaussianBlur
         inkscape:collect="always"
         stdDeviation="2.88"
         id="feGaussianBlur855" />
    </filter>
    <filter
       inkscape:collect="always"
       style="color-interpolation-filters:sRGB"
       id="filter885"
       x="-0.10032"
       width="1.20064"
       y="-0.03154717"
       height="1.0630943">
      <feGaussianBlur
         inkscape:collect="always"
         stdDeviation="0.836"
         id="feGaussianBlur887" />
    </filter>
  </defs>
  <sodipodi:namedview
     pagecolor="#ffffff"
     bordercolor="#666666"
     borderopacity="1"
     objecttolerance="10"
     gridtolerance="10"
     guidetolerance="10"
     inkscape:pageopacity="0"
     inkscape:pageshadow="2"
     inkscape:window-width="1920"
     inkscape:window-height="1018"
     id="namedview18"
     showgrid="false"
     inkscape:zoom="1"
     inkscape:cx="96"
     inkscape:cy="96"
     inkscape:window-x="0"
     inkscape:window-y="32"
     inkscape:window-maximized="1"
     inkscape:current-layer="svg16" />
  <path
     d="m 40,20 c -4.432,0 -8,3.568 -8,8 v 144 c 0,4.432 3.568,8 8,8 h 112 c 4.432,0 8,-3.568 8,-8 V 28 c 0,-4.432 -3.568,-8 -8,-8 z"
     id="path835"
     inkscape:connector-curvature="0"
     style="opacity:0.2;fill:#000000;stroke-width:4;filter:url(#filter853)" />
  <path
     style="fill:#009587;stroke-width:4"
     inkscape:connector-curvature="0"
     id="path4"
     d="m 40,16 c -4.432,0 -8,3.568 -8,8 v 144 c 0,4.432 3.568,8 8,8 h 112 c 4.432,0 8,-3.568 8,-8 V 24 c 0,-4.432 -3.568,-8 -8,-8 z" />
  <path
     style="opacity:0.2;stroke-width:4"
     inkscape:connector-curvature="0"
     id="path6"
     d="m 40,16 c -4.432,0 -8,3.568 -8,8 v 144 c 0,4.432 3.568,8 8,8 H 55.914 V 16 H 40.002 Z" />
  <path
     style="opacity:0.2;fill:#ffffff;stroke-width:4"
     d="M 40 16 C 35.568 16 32 19.568 32 24 L 32 25 C 32 20.568 35.568 17 40 17 L 152 17 C 156.432 17 160 20.568 160 25 L 160 24 C 160 19.568 156.432 16 152 16 L 40 16 z "
     id="path8" />
  <path
     inkscape:connector-curvature="0"
     id="path10"
     d="m 128.0164,20.4 c -4,0 -4,4 -4,4 V 84 l 10,-6 10,6 V 24.4 c 0,-4 -4,-4 -4,-4 z"
     style="opacity:0.2;stroke-width:4;filter:url(#filter885)" />
  <path
     style="fill:#d8d8d8;stroke-width:4"
     inkscape:connector-curvature="0"
     id="path12"
     d="m 124,16 v 66 l 10,-6 10,6 V 16 Z" />
</svg>
