<?xml version="1.0" encoding="UTF-8" standalone="no"?>
<svg
   xmlns:dc="http://purl.org/dc/elements/1.1/"
   xmlns:cc="http://creativecommons.org/ns#"
   xmlns:rdf="http://www.w3.org/1999/02/22-rdf-syntax-ns#"
   xmlns:svg="http://www.w3.org/2000/svg"
   xmlns="http://www.w3.org/2000/svg"
   xmlns:sodipodi="http://sodipodi.sourceforge.net/DTD/sodipodi-0.dtd"
   xmlns:inkscape="http://www.inkscape.org/namespaces/inkscape"
   width="192"
   height="192"
   version="1"
   id="svg18"
   sodipodi:docname="google_android_tv_launcher.svg"
   inkscape:version="0.92.3 (2405546, 2018-03-11)">
  <metadata
     id="metadata24">
    <rdf:RDF>
      <cc:Work
         rdf:about="">
        <dc:format>image/svg+xml</dc:format>
        <dc:type
           rdf:resource="http://purl.org/dc/dcmitype/StillImage" />
      </cc:Work>
    </rdf:RDF>
  </metadata>
  <defs
     id="defs22">
    <filter
       inkscape:collect="always"
       style="color-interpolation-filters:sRGB"
       id="filter853"
       x="-0.042947368"
       width="1.0858947"
       y="-0.0544"
       height="1.1088">
      <feGaussianBlur
         inkscape:collect="always"
         stdDeviation="2.72"
         id="feGaussianBlur855" />
    </filter>
    <filter
       inkscape:collect="always"
       style="color-interpolation-filters:sRGB"
       id="filter869"
       x="-0.032571429"
       width="1.0651429"
       y="-0.0912"
       height="1.1824">
      <feGaussianBlur
         inkscape:collect="always"
         stdDeviation="2.28"
         id="feGaussianBlur871" />
    </filter>
  </defs>
  <sodipodi:namedview
     pagecolor="#ffffff"
     bordercolor="#666666"
     borderopacity="1"
     objecttolerance="10"
     gridtolerance="10"
     guidetolerance="10"
     inkscape:pageopacity="0"
     inkscape:pageshadow="2"
     inkscape:window-width="1920"
     inkscape:window-height="1018"
     id="namedview20"
     showgrid="false"
     inkscape:zoom="1"
     inkscape:cx="96"
     inkscape:cy="96"
     inkscape:window-x="0"
     inkscape:window-y="32"
     inkscape:window-maximized="1"
     inkscape:current-layer="svg18" />
  <rect
     id="rect2"
     transform="matrix(0,-1,-1,0,0,0)"
     ry="7.5999999"
     rx="7.5"
     y="-172"
     x="-160"
     height="152"
     width="120"
     style="opacity:0.2;stroke-width:4;filter:url(#filter853)" />
  <rect
     id="rect4"
     transform="matrix(0,-1,-1,0,0,0)"
     ry="7.5999999"
     rx="7.5"
     y="-172"
     x="-156"
     height="152"
     width="120"
     style="fill:#0fa0e6;stroke-width:4" />
  <path
     inkscape:connector-curvature="0"
     id="path6"
     d="m 18,78 c -3.324,0 -6,2.676 -6,6 v 48 c 0,3.324 2.676,6 6,6 h 20 c 3.324,0 6,-2.676 6,-6 V 84 c 0,-3.324 -2.676,-6 -6,-6 z m 40,0 c -3.324,0 -6,2.676 -6,6 v 48 c 0,3.324 2.676,6 6,6 h 76 c 3.324,0 6,-2.676 6,-6 V 84 c 0,-3.324 -2.676,-6 -6,-6 z m 96,0 c -3.324,0 -6,2.676 -6,6 v 48 c 0,3.324 2.676,6 6,6 h 20 c 3.324,0 6,-2.676 6,-6 V 84 c 0,-3.324 -2.676,-6 -6,-6 z"
     style="opacity:0.2;stroke-width:4;filter:url(#filter869)" />
  <rect
     id="rect8"
     ry="6"
     rx="6"
     y="76"
     x="12"
     height="60"
     width="32"
     style="fill:#e4e4e4;stroke-width:4" />
  <rect
     id="rect10"
     ry="6"
     rx="6"
     y="76"
     x="148"
     height="60"
     width="32"
     style="fill:#e4e4e4;stroke-width:4" />
  <rect
     id="rect12"
     ry="6"
     rx="6"
     y="76"
     x="52"
     height="60"
     width="88"
     style="fill:#e4e4e4;stroke-width:4" />
  <path
     style="opacity:0.2;fill:#ffffff;stroke-width:4"
     d="M 27.601562 36 C 23.391163 36 20 39.345 20 43.5 L 20 44.5 C 20 40.345 23.391163 37 27.601562 37 L 164.39844 37 C 168.60884 37 172 40.345 172 44.5 L 172 43.5 C 172 39.345 168.60884 36 164.39844 36 L 27.601562 36 z "
     id="path14" />
</svg>
