<?xml version="1.0" encoding="UTF-8" standalone="no"?>
<svg
   xmlns:dc="http://purl.org/dc/elements/1.1/"
   xmlns:cc="http://creativecommons.org/ns#"
   xmlns:rdf="http://www.w3.org/1999/02/22-rdf-syntax-ns#"
   xmlns:svg="http://www.w3.org/2000/svg"
   xmlns="http://www.w3.org/2000/svg"
   xmlns:sodipodi="http://sodipodi.sourceforge.net/DTD/sodipodi-0.dtd"
   xmlns:inkscape="http://www.inkscape.org/namespaces/inkscape"
   width="192"
   height="192"
   version="1"
   id="svg22"
   sodipodi:docname="google_measure.svg"
   inkscape:version="0.92.3 (2405546, 2018-03-11)">
  <metadata
     id="metadata28">
    <rdf:RDF>
      <cc:Work
         rdf:about="">
        <dc:format>image/svg+xml</dc:format>
        <dc:type
           rdf:resource="http://purl.org/dc/dcmitype/StillImage" />
      </cc:Work>
    </rdf:RDF>
  </metadata>
  <defs
     id="defs26">
    <filter
       inkscape:collect="always"
       style="color-interpolation-filters:sRGB"
       id="filter860"
       x="-0.039004066"
       width="1.0780081"
       y="-0.062389593"
       height="1.1247792">
      <feGaussianBlur
         inkscape:collect="always"
         stdDeviation="2.0796873"
         id="feGaussianBlur862" />
    </filter>
    <filter
       inkscape:collect="always"
       style="color-interpolation-filters:sRGB"
       id="filter876"
       x="-0.050970456"
       width="1.1019409"
       y="-0.045356702"
       height="1.0907134">
      <feGaussianBlur
         inkscape:collect="always"
         stdDeviation="1.2344408"
         id="feGaussianBlur878" />
    </filter>
    <filter
       inkscape:collect="always"
       style="color-interpolation-filters:sRGB"
       id="filter904"
       x="-0.045124271"
       width="1.0902485"
       y="-0.051267213"
       height="1.1025344">
      <feGaussianBlur
         inkscape:collect="always"
         stdDeviation="2.4066278"
         id="feGaussianBlur906" />
    </filter>
  </defs>
  <sodipodi:namedview
     pagecolor="#ffffff"
     bordercolor="#666666"
     borderopacity="1"
     objecttolerance="10"
     gridtolerance="10"
     guidetolerance="10"
     inkscape:pageopacity="0"
     inkscape:pageshadow="2"
     inkscape:window-width="1920"
     inkscape:window-height="1018"
     id="namedview24"
     showgrid="false"
     inkscape:zoom="1"
     inkscape:cx="96"
     inkscape:cy="104.62069"
     inkscape:window-x="0"
     inkscape:window-y="32"
     inkscape:window-maximized="1"
     inkscape:current-layer="svg22" />
  <path
     inkscape:connector-curvature="0"
     id="path2"
     d="M 101.875,99.998683 35.226562,144.5143 a 7.1117508,7.273498 0 0 0 0.6875,12.57813 l 42.882814,22.125 a 7.1117508,7.273498 0 0 0 7.093748,-0.39844 l 70.890626,-47.34375 a 7.1117508,7.273498 0 0 0 0.0781,-0.0625 7.1117508,7.273498 0 0 1 -7.85938,0.0625 z m 58.10156,25.945307 a 7.1117508,7.273498 0 0 1 -0.0312,0.28124 7.1117508,7.273498 0 0 0 0.0312,-0.28124 z m -0.0938,0.71094 a 7.1117508,7.273498 0 0 1 -0.0547,0.28124 7.1117508,7.273498 0 0 0 0.0547,-0.28124 z m -0.16408,0.71875 a 7.1117508,7.273498 0 0 1 -0.0859,0.28124 7.1117508,7.273498 0 0 0 0.0859,-0.28124 z M 159.5,128.05337 a 7.1117508,7.273498 0 0 1 -0.125,0.30468 7.1117508,7.273498 0 0 0 0.125,-0.30468 z m -0.28124,0.63281 a 7.1117508,7.273498 0 0 1 -0.16408,0.31252 7.1117508,7.273498 0 0 0 0.16408,-0.31252 z m -0.35936,0.64062 a 7.1117508,7.273498 0 0 1 -0.14844,0.22656 7.1117508,7.273498 0 0 0 0.14844,-0.22656 z m -0.42969,0.61719 a 7.1117508,7.273498 0 0 1 -0.20312,0.2422 7.1117508,7.273498 0 0 0 0.20312,-0.2422 z m -0.40625,0.46875 a 7.1117508,7.273498 0 0 1 -0.32032,0.32032 7.1117508,7.273498 0 0 0 0.32032,-0.32032 z m -0.58594,0.5625 a 7.1117508,7.273498 0 0 1 -0.23436,0.18748 7.1117508,7.273498 0 0 0 0.23436,-0.18748 z"
     style="opacity:0.2;stroke-width:4;filter:url(#filter860)" />
  <path
     inkscape:connector-curvature="0"
     id="path4"
     d="m 81.848004,20.002771 a 7.1117508,7.273498 0 0 0 -3.04858,0.781255 L 35.910968,42.907738 A 7.1117508,7.273498 0 0 0 35.223474,55.493042 L 149.00011,131.48071 A 7.1117508,7.273498 0 0 0 160,125.38692 V 74.619574 a 7.1117508,7.273498 0 0 0 -3.22219,-6.093788 L 85.889636,21.188858 a 7.1117508,7.273498 0 0 0 -4.041632,-1.186087 z"
     style="opacity:0.2;stroke-width:4;filter:url(#filter904)" />
  <path
     inkscape:connector-curvature="0"
     id="path6"
     d="m 81.848004,16.001553 c -1.060444,0.02464 -2.102068,0.291576 -3.04858,0.781255 L 35.910968,38.906519 c -4.89414,2.522753 -5.276414,9.520693 -0.687494,12.585305 L 149.00011,127.47949 c 4.73163,3.15976 8.35257,-1.47373 8.34979,-7.25321 l 1.12833,-50.10388 c 0.001,-2.45756 0.31128,-4.253744 -1.70042,-5.597832 L 85.889632,17.18764 c -1.199528,-0.802953 -2.608324,-1.216389 -4.041628,-1.186087 z"
     style="fill:#508ef5;stroke-width:4" />
  <path
     style="opacity:0.2;fill:#ffffff;stroke-width:4"
     d="M 81.851562 16 C 80.791118 16.02464 79.743387 16.291571 78.796875 16.78125 L 35.914062 38.90625 C 33.16952 40.320962 31.894163 43.138629 32.072266 45.884766 C 32.230577 43.476611 33.503658 41.148727 35.914062 39.90625 L 78.796875 17.78125 C 79.743387 17.291571 80.791118 17.02464 81.851562 17 C 83.284866 16.969698 84.691097 17.384547 85.890625 18.1875 L 156.78125 65.523438 C 158.20832 66.476909 158.45841 67.666109 158.48633 69.150391 C 158.51818 67.196682 158.50842 65.677418 156.78125 64.523438 L 85.890625 17.1875 C 84.691097 16.384547 83.284866 15.969698 81.851562 16 z "
     id="path8" />
  <path
     inkscape:connector-curvature="0"
     id="path10"
     d="m 152.68063,63.345584 c -1.30961,0.0388 -2.58329,0.446764 -3.68052,1.178984 L 35.223476,140.51224 c -4.58892,3.06461 -4.206645,10.06255 0.687493,12.5853 l 42.888455,22.12371 c 2.264884,1.16785 4.9665,1.0136 7.090208,-0.40483 l 70.888178,-47.33693 c 2.01168,-1.34409 0.57358,-4.79565 0.57209,-7.25321 l -0.66253,-46.95782 c 0.001,-4.101164 0.002,-10.042608 -4.00674,-9.922876 z"
     style="fill:#2e59c7;stroke-width:4" />
  <path
     style="opacity:0.1;fill:#ffffff;stroke-width:4"
     d="M 152.67969 63.34375 A 7.1117508 7.273498 0 0 0 149 64.523438 L 35.226562 140.51562 A 7.1117508 7.273498 0 0 0 32.041016 147.07422 A 7.1117508 7.273498 0 0 1 35.226562 141.51562 L 149 65.523438 A 7.1117508 7.273498 0 0 1 152.67969 64.34375 A 7.1117508 7.273498 0 0 1 160 71.617188 L 160 70.617188 A 7.1117508 7.273498 0 0 0 152.67969 63.34375 z "
     id="path12" />
  <path
     inkscape:connector-curvature="0"
     id="path14"
     d="M 152.67969,67.343754 A 7.1117508,7.273498 0 0 0 149,68.523438 L 101.875,100 149,131.47656 a 7.1117508,7.273498 0 0 0 7.89062,-0.0781 7.1117508,7.273498 0 0 0 0.31252,-0.23436 7.1117508,7.273498 0 0 0 0.27344,-0.21876 7.1117508,7.273498 0 0 0 0.22656,-0.21092 7.1117508,7.273498 0 0 0 0.32032,-0.32032 7.1117508,7.273498 0 0 0 0.0703,-0.0703 7.1117508,7.273498 0 0 0 0.0938,-0.10936 7.1117508,7.273498 0 0 0 0.28124,-0.33592 7.1117508,7.273498 0 0 0 0.19532,-0.26564 7.1117508,7.273498 0 0 0 0.21876,-0.33592 7.1117508,7.273498 0 0 0 0.15624,-0.26564 7.1117508,7.273498 0 0 0 0.17968,-0.34376 7.1117508,7.273498 0 0 0 0.14844,-0.31252 7.1117508,7.273498 0 0 0 0.15624,-0.375 7.1117508,7.273498 0 0 0 0.10936,-0.34376 7.1117508,7.273498 0 0 0 0.0859,-0.28124 7.1117508,7.273498 0 0 0 0.10936,-0.4375 7.1117508,7.273498 0 0 0 0.0547,-0.28124 7.1117508,7.273498 0 0 0 0.0625,-0.42968 7.1117508,7.273498 0 0 0 0.0312,-0.30468 A 7.1117508,7.273498 0 0 0 160,125.38281 V 74.61719 a 7.1117508,7.273498 0 0 0 -0.14064,-1.445312 7.1117508,7.273498 0 0 0 -0.42188,-1.382812 7.1117508,7.273498 0 0 0 -2.125,-2.867188 7.1117508,7.273498 0 0 0 -4.63281,-1.578124 z"
     style="opacity:0.1;stroke-width:4;filter:url(#filter876)" />
  <path
     inkscape:connector-curvature="0"
     id="path16"
     d="M 152.67969,63.343752 A 7.1117508,7.273498 0 0 0 149,64.523436 L 101.875,96 149,127.47656 a 7.1117508,7.273498 0 0 0 7.89062,-0.0781 7.1117508,7.273498 0 0 0 0.31252,-0.23436 7.1117508,7.273498 0 0 0 0.27344,-0.21876 7.1117508,7.273498 0 0 0 0.22656,-0.21092 7.1117508,7.273498 0 0 0 0.32032,-0.32032 7.1117508,7.273498 0 0 0 0.0703,-0.0703 7.1117508,7.273498 0 0 0 0.0938,-0.10936 7.1117508,7.273498 0 0 0 0.28124,-0.33592 7.1117508,7.273498 0 0 0 0.19532,-0.26564 7.1117508,7.273498 0 0 0 0.21876,-0.33592 7.1117508,7.273498 0 0 0 0.15624,-0.26564 7.1117508,7.273498 0 0 0 0.17968,-0.34376 7.1117508,7.273498 0 0 0 0.14844,-0.31252 7.1117508,7.273498 0 0 0 0.15624,-0.375 7.1117508,7.273498 0 0 0 0.10936,-0.34376 7.1117508,7.273498 0 0 0 0.0859,-0.28124 7.1117508,7.273498 0 0 0 0.10936,-0.4375 7.1117508,7.273498 0 0 0 0.0547,-0.28124 7.1117508,7.273498 0 0 0 0.0625,-0.42968 7.1117508,7.273498 0 0 0 0.0312,-0.30468 A 7.1117508,7.273498 0 0 0 160,121.38281 V 70.617188 a 7.1117508,7.273498 0 0 0 -0.14064,-1.445312 7.1117508,7.273498 0 0 0 -0.42188,-1.382812 7.1117508,7.273498 0 0 0 -2.125,-2.867188 7.1117508,7.273498 0 0 0 -4.63281,-1.578124 z"
     style="fill:#b5e6fc;stroke-width:4" />
  <path
     style="opacity:0.2;fill:#ffffff;stroke-width:4"
     d="M 152.67969 63.34375 A 7.1117508 7.273498 0 0 0 149 64.523438 L 101.875 96 L 102.625 96.5 L 149 65.523438 A 7.1117508 7.273498 0 0 1 152.67969 64.34375 A 7.1117508 7.273498 0 0 1 157.3125 65.921875 A 7.1117508 7.273498 0 0 1 159.4375 68.789062 A 7.1117508 7.273498 0 0 1 159.85938 70.171875 A 7.1117508 7.273498 0 0 1 160 71.617188 L 160 70.617188 A 7.1117508 7.273498 0 0 0 159.85938 69.171875 A 7.1117508 7.273498 0 0 0 159.4375 67.789062 A 7.1117508 7.273498 0 0 0 157.3125 64.921875 A 7.1117508 7.273498 0 0 0 152.67969 63.34375 z "
     id="path18" />
</svg>
