<?xml version="1.0" encoding="UTF-8" standalone="no"?>
<svg
   xmlns:dc="http://purl.org/dc/elements/1.1/"
   xmlns:cc="http://creativecommons.org/ns#"
   xmlns:rdf="http://www.w3.org/1999/02/22-rdf-syntax-ns#"
   xmlns:svg="http://www.w3.org/2000/svg"
   xmlns="http://www.w3.org/2000/svg"
   xmlns:sodipodi="http://sodipodi.sourceforge.net/DTD/sodipodi-0.dtd"
   xmlns:inkscape="http://www.inkscape.org/namespaces/inkscape"
   width="192"
   height="192"
   version="1"
   id="svg18"
   sodipodi:docname="google_creative_preview.svg"
   inkscape:version="0.92.3 (2405546, 2018-03-11)">
  <metadata
     id="metadata24">
    <rdf:RDF>
      <cc:Work
         rdf:about="">
        <dc:format>image/svg+xml</dc:format>
        <dc:type
           rdf:resource="http://purl.org/dc/dcmitype/StillImage" />
      </cc:Work>
    </rdf:RDF>
  </metadata>
  <defs
     id="defs22">
    <filter
       inkscape:collect="always"
       style="color-interpolation-filters:sRGB"
       id="filter853"
       x="-0.048"
       width="1.096"
       y="-0.048"
       height="1.096">
      <feGaussianBlur
         inkscape:collect="always"
         stdDeviation="2.56"
         id="feGaussianBlur855" />
    </filter>
    <filter
       inkscape:collect="always"
       style="color-interpolation-filters:sRGB"
       id="filter875"
       x="-0.048"
       width="1.096"
       y="-0.048"
       height="1.096">
      <feGaussianBlur
         inkscape:collect="always"
         stdDeviation="2.56"
         id="feGaussianBlur877" />
    </filter>
  </defs>
  <sodipodi:namedview
     pagecolor="#ffffff"
     bordercolor="#666666"
     borderopacity="1"
     objecttolerance="10"
     gridtolerance="10"
     guidetolerance="10"
     inkscape:pageopacity="0"
     inkscape:pageshadow="2"
     inkscape:window-width="1920"
     inkscape:window-height="1018"
     id="namedview20"
     showgrid="false"
     inkscape:zoom="1"
     inkscape:cx="96"
     inkscape:cy="87.37931"
     inkscape:window-x="0"
     inkscape:window-y="32"
     inkscape:window-maximized="1"
     inkscape:current-layer="svg18" />
  <path
     inkscape:connector-curvature="0"
     id="path2"
     d="M 50.398436,24 C 46.852836,24 44,26.852838 44,30.398438 V 145.60156 C 44,149.14716 46.852836,152 50.398436,152 H 165.60156 C 169.14716,152 172,149.14716 172,145.60156 V 30.398438 c 0,-3.545599 -2.85284,-6.398436 -6.39844,-6.398436 z M 68,72 h 56 v 56 H 68 Z"
     style="opacity:0.2;stroke-width:4;filter:url(#filter875)" />
  <path
     inkscape:connector-curvature="0"
     id="path4"
     d="M 50.398436,20 C 46.852836,20 44,22.852838 44,26.398438 V 141.60156 C 44,145.14716 46.852836,148 50.398436,148 H 165.60156 C 169.14716,148 172,145.14716 172,141.60156 V 26.398438 c 0,-3.545599 -2.85284,-6.398436 -6.39844,-6.398436 z M 68,68 h 56 v 56 H 68 Z"
     style="fill:#0ec0d6;stroke-width:4" />
  <path
     inkscape:connector-curvature="0"
     id="path6"
     d="m 44,68 v 80 h 80 V 124 H 68 V 68 Z"
     style="fill:#97c70d;stroke-width:4" />
  <path
     inkscape:connector-curvature="0"
     id="path8"
     d="M 26.398438,48 C 22.852838,48 20,50.852836 20,54.398436 V 169.60156 C 20,173.14716 22.852838,176 26.398438,176 H 141.60156 C 145.14716,176 148,173.14716 148,169.60156 V 54.398436 C 148,50.852836 145.14716,48 141.60156,48 Z M 44,72 h 80 v 80 H 44 Z"
     style="opacity:0.2;stroke-width:4;filter:url(#filter853)" />
  <path
     inkscape:connector-curvature="0"
     id="path10"
     d="M 26.398438,44 C 22.852838,44 20,46.852836 20,50.398436 V 165.60156 C 20,169.14716 22.852838,172 26.398438,172 H 141.60156 C 145.14716,172 148,169.14716 148,165.60156 V 50.398436 C 148,46.852836 145.14716,44 141.60156,44 Z M 44,68 h 80 v 80 H 44 Z"
     style="fill:#e4e4e4;stroke-width:4" />
  <path
     style="opacity:0.2;fill:#ffffff;stroke-width:4"
     d="M 50.398438 20 C 46.852838 20 44 22.852837 44 26.398438 L 44 27.398438 C 44 23.852837 46.852838 21 50.398438 21 L 165.60156 21 C 169.14716 21 172 23.852837 172 27.398438 L 172 26.398438 C 172 22.852837 169.14716 20 165.60156 20 L 50.398438 20 z M 68 124 L 68 125 L 124 125 L 124 124 L 68 124 z "
     id="path12" />
  <path
     style="opacity:0.2;fill:#ffffff;stroke-width:4"
     d="M 26.398438 44 C 22.852837 44 20 46.852837 20 50.398438 L 20 51.398438 C 20 47.852837 22.852837 45 26.398438 45 L 141.60156 45 C 145.14716 45 148 47.852838 148 51.398438 L 148 50.398438 C 148 46.852838 145.14716 44 141.60156 44 L 26.398438 44 z M 44 148 L 44 149 L 124 149 L 124 148 L 44 148 z "
     id="path14" />
</svg>
