<?xml version="1.0" encoding="UTF-8" standalone="no"?>
<svg
   xmlns:dc="http://purl.org/dc/elements/1.1/"
   xmlns:cc="http://creativecommons.org/ns#"
   xmlns:rdf="http://www.w3.org/1999/02/22-rdf-syntax-ns#"
   xmlns:svg="http://www.w3.org/2000/svg"
   xmlns="http://www.w3.org/2000/svg"
   xmlns:sodipodi="http://sodipodi.sourceforge.net/DTD/sodipodi-0.dtd"
   xmlns:inkscape="http://www.inkscape.org/namespaces/inkscape"
   width="192"
   height="192"
   version="1"
   id="svg14"
   sodipodi:docname="google_youtube.svg"
   inkscape:version="0.92.3 (2405546, 2018-03-11)">
  <metadata
     id="metadata20">
    <rdf:RDF>
      <cc:Work
         rdf:about="">
        <dc:format>image/svg+xml</dc:format>
        <dc:type
           rdf:resource="http://purl.org/dc/dcmitype/StillImage" />
      </cc:Work>
    </rdf:RDF>
  </metadata>
  <defs
     id="defs18">
    <filter
       inkscape:collect="always"
       style="color-interpolation-filters:sRGB"
       id="filter856"
       x="-0.040799998"
       width="1.0816"
       y="-0.058285718"
       height="1.1165714">
      <feGaussianBlur
         inkscape:collect="always"
         stdDeviation="2.7200001"
         id="feGaussianBlur858" />
    </filter>
    <filter
       inkscape:collect="always"
       style="color-interpolation-filters:sRGB"
       id="filter876"
       x="-0.052799957"
       width="1.1055999"
       y="-0.04400003"
       height="1.0880001">
      <feGaussianBlur
         inkscape:collect="always"
         stdDeviation="0.88000014"
         id="feGaussianBlur878" />
    </filter>
  </defs>
  <sodipodi:namedview
     pagecolor="#ffffff"
     bordercolor="#666666"
     borderopacity="1"
     objecttolerance="10"
     gridtolerance="10"
     guidetolerance="10"
     inkscape:pageopacity="0"
     inkscape:pageshadow="2"
     inkscape:window-width="1920"
     inkscape:window-height="1018"
     id="namedview16"
     showgrid="false"
     inkscape:zoom="2.67"
     inkscape:cx="96"
     inkscape:cy="96"
     inkscape:window-x="0"
     inkscape:window-y="32"
     inkscape:window-maximized="1"
     inkscape:current-layer="svg14" />
  <path
     inkscape:connector-curvature="0"
     id="path2"
     d="m 82.843832,155.89934 c -26.44548,-0.50264 -37.17932,-0.94645 -43.743,-1.80864 -4.8134,-0.63231 -7.17724,-1.24874 -9.84328,-2.56688 -4.40328,-2.17704 -7.14176,-5.2128 -9.11804,-10.10788 -1.80688,-4.47534 -2.5426,-8.0299 -3.2178,-15.54674 -0.76196,-8.48279 -0.82152,-10.01848 -0.90064,-23.23532 -0.0932,-15.543041 0.0944,-20.636361 1.1382,-30.952989 0.54736,-5.4085 1.34512,-9.002904 2.84412,-12.814536 1.36516,-3.47118 2.61152,-5.386884 4.8782,-7.497972 2.8488,-2.653244 5.97748,-4.266152 9.92716,-5.1176 5.89536,-1.2709 32.54148,-2.25078 61.205,-2.25078 28.663528,0 55.309648,0.97988 61.205008,2.25078 4.26348,0.919108 7.3926,2.616792 10.44564,5.667204 2.38952,2.387456 3.62024,4.556852 5.08484,8.96334 1.50912,4.540372 2.08788,8.558568 2.9454,20.4493 0.4072,5.64674 0.40712,31.640533 0,37.284493 -0.47644,6.60255 -1.06112,12.48228 -1.45044,14.58616 -1.00088,5.40898 -2.96664,10.47329 -5.18292,13.35268 -1.52056,1.97548 -4.52224,4.32931 -7.03228,5.51448 -2.54164,1.2001 -4.9632,1.79508 -8.867,2.17871 -12.09684,1.18876 -49.03669,2.05672 -70.318008,1.65219 z"
     style="opacity:0.2;stroke-width:4;filter:url(#filter856)" />
  <path
     inkscape:connector-curvature="0"
     id="path4"
     d="m 82.843832,151.89934 c -26.44548,-0.50264 -37.17932,-0.94645 -43.743,-1.80865 -4.8134,-0.6323 -7.17724,-1.24873 -9.84328,-2.56687 -4.40328,-2.17704 -7.14176,-5.21281 -9.11804,-10.10788 -1.80688,-4.47534 -2.5426,-8.0299 -3.2178,-15.54674 -0.76196,-8.4828 -0.82152,-10.01849 -0.90064,-23.235324 -0.0932,-15.54304 0.0944,-20.63636 1.1382,-30.952988 0.54736,-5.4085 1.34512,-9.002904 2.84412,-12.814536 1.36516,-3.47118 2.61152,-5.386884 4.8782,-7.497972 2.8488,-2.653244 5.97748,-4.266152 9.92716,-5.1176 C 40.704112,40.97988 67.350232,40 96.013752,40 c 28.663528,0 55.309648,0.97988 61.205008,2.25078 4.26348,0.919108 7.3926,2.616792 10.44564,5.667204 2.38952,2.387456 3.62024,4.556852 5.08484,8.96334 1.50912,4.540372 2.08788,8.558568 2.9454,20.4493 0.4072,5.64674 0.40712,31.640536 0,37.284496 -0.47644,6.60254 -1.06112,12.48228 -1.45044,14.58616 -1.00088,5.40898 -2.96664,10.47328 -5.18292,13.35268 -1.52056,1.97548 -4.52224,4.32931 -7.03228,5.51448 -2.54164,1.2001 -4.9632,1.79507 -8.867,2.17871 -12.09684,1.18875 -49.03669,2.05672 -70.318008,1.65219 z"
     style="fill:#c2352a;stroke-width:4" />
  <path
     inkscape:connector-curvature="0"
     id="path6"
     d="M 97.809052,111.59074 C 120.48681,98.043056 119.99921,98.340196 119.99921,98.068208 c 0,-0.25452 -39.694282,-24.205464 -39.887826,-24.067636 -0.13072,0.09316 -0.15504,47.805728 -0.0264,47.956288 0.04832,0.0557 0.18576,0.0578 0.3052,0.004 0.11948,-0.0531 7.95728,-4.71988 17.416904,-10.37104 z"
     style="opacity:0.2;stroke-width:4;filter:url(#filter876)" />
  <path
     inkscape:connector-curvature="0"
     id="path8"
     d="M 97.809052,109.59075 C 120.48681,96.043064 119.99921,96.340204 119.99921,96.068216 c 0,-0.25452 -39.694282,-24.205464 -39.887826,-24.067636 -0.13072,0.09316 -0.15504,47.80573 -0.0264,47.95629 0.04832,0.0557 0.18576,0.0578 0.3052,0.004 0.11948,-0.0531 7.95728,-4.71988 17.416904,-10.37104 z"
     style="fill:#ffffff;stroke-width:4" />
  <path
     style="opacity:0.2;fill:#ffffff;stroke-width:4"
     d="M 96.015625 40 C 67.352105 40 40.70786 40.9791 34.8125 42.25 C 30.86282 43.101448 27.731612 44.713944 24.882812 47.367188 C 22.616132 49.478276 21.36516 51.396008 20 54.867188 C 18.501 58.67882 17.70361 62.271187 17.15625 67.679688 C 16.34895 75.658812 16.061389 80.63981 16.013672 89.621094 C 16.075717 81.193132 16.375651 76.394906 17.15625 68.679688 C 17.70361 63.271188 18.501 59.67882 20 55.867188 C 21.36516 52.396008 22.616132 50.478276 24.882812 48.367188 C 27.731612 45.713943 30.86282 44.101448 34.8125 43.25 C 40.70786 41.9791 67.352105 41 96.015625 41 C 124.67915 41 151.32339 41.9791 157.21875 43.25 C 161.48222 44.169108 164.61102 45.871463 167.66406 48.921875 C 170.05358 51.309331 171.2854 53.476324 172.75 57.882812 C 174.25912 62.423185 174.83763 66.437393 175.69531 78.328125 C 175.89932 81.156651 175.97873 89.082206 175.97656 96.992188 C 175.98001 97.313199 175.98348 97.625357 175.98438 97.976562 C 176.00397 89.406234 175.91709 80.402989 175.69531 77.328125 C 174.83763 65.437393 174.25912 61.423184 172.75 56.882812 C 171.2854 52.476324 170.05358 50.309331 167.66406 47.921875 C 164.61102 44.871463 161.48222 43.169108 157.21875 42.25 C 151.32339 40.9791 124.67915 40 96.015625 40 z "
     id="path10" />
</svg>
