<?xml version="1.0" encoding="UTF-8" standalone="no"?>
<svg
   xmlns:dc="http://purl.org/dc/elements/1.1/"
   xmlns:cc="http://creativecommons.org/ns#"
   xmlns:rdf="http://www.w3.org/1999/02/22-rdf-syntax-ns#"
   xmlns:svg="http://www.w3.org/2000/svg"
   xmlns="http://www.w3.org/2000/svg"
   xmlns:sodipodi="http://sodipodi.sourceforge.net/DTD/sodipodi-0.dtd"
   xmlns:inkscape="http://www.inkscape.org/namespaces/inkscape"
   width="192"
   height="192"
   version="1.1"
   id="svg14"
   sodipodi:docname="google_hangouts_meet.svg"
   inkscape:version="0.92.3 (2405546, 2018-03-11)">
  <metadata
     id="metadata20">
    <rdf:RDF>
      <cc:Work
         rdf:about="">
        <dc:format>image/svg+xml</dc:format>
        <dc:type
           rdf:resource="http://purl.org/dc/dcmitype/StillImage" />
      </cc:Work>
    </rdf:RDF>
  </metadata>
  <defs
     id="defs18">
    <filter
       inkscape:collect="always"
       style="color-interpolation-filters:sRGB"
       id="filter844"
       x="-0.050666667"
       width="1.1013333"
       y="-0.0456"
       height="1.0912">
      <feGaussianBlur
         inkscape:collect="always"
         stdDeviation="3.04"
         id="feGaussianBlur846" />
    </filter>
    <filter
       inkscape:collect="always"
       style="color-interpolation-filters:sRGB"
       id="filter860"
       x="-0.0408"
       width="1.0816"
       y="-0.058285714"
       height="1.1165714">
      <feGaussianBlur
         inkscape:collect="always"
         stdDeviation="1.36"
         id="feGaussianBlur862" />
    </filter>
  </defs>
  <sodipodi:namedview
     pagecolor="#ffffff"
     bordercolor="#666666"
     borderopacity="1"
     objecttolerance="10"
     gridtolerance="10"
     guidetolerance="10"
     inkscape:pageopacity="0"
     inkscape:pageshadow="2"
     inkscape:window-width="1920"
     inkscape:window-height="1018"
     id="namedview16"
     showgrid="false"
     inkscape:zoom="1"
     inkscape:cx="96"
     inkscape:cy="89.753989"
     inkscape:window-x="0"
     inkscape:window-y="32"
     inkscape:window-maximized="1"
     inkscape:current-layer="svg14" />
  <path
     inkscape:connector-curvature="0"
     id="path2"
     d="m 96,20 a 72,68 0 0 0 -72,68 72,68 0 0 0 71.0625,67.95312 c 0.71592,0.0344 0.958256,0.2332 0.953124,1 -0.0384,6.9884 -0.0176,15.18228 -0.0156,22.17188 9.12e-4,0.27128 0.0228,0.53764 0.0392,0.875 0.2372,-0.0922 0.388,-0.1466 0.531248,-0.21092 13.772398,-6.1668 26.413498,-13.95856 37.687498,-23.72656 2.24328,-1.94316 4.38873,-3.98093 6.45313,-6.10157 0.884,-0.9068 1.76264,-1.82845 2.64844,-2.73437 1.3684,-1.39456 2.55378,-2.95324 3.84374,-4.42188 1.48972,-1.69364 2.82916,-3.49288 4.14844,-5.30468 2.91652,-4.0044 5.52174,-8.18056 7.71094,-12.59376 1.10748,-2.23095 2.16051,-4.47964 3.09375,-6.78124 0.0312,-0.0435 0.0737,-0.078 0.0938,-0.125 2.5434,-6.3016 4.17146,-12.82563 5.03906,-19.515628 0.14604,-1.123604 0.2044,-2.254192 0.30468,-3.382812 a 72,68 0 0 0 0.0781,-0.929688 c 0.0712,-0.902408 0.19436,-1.800248 0.2422,-2.703124 0.0566,-1.07886 0.0693,-2.158352 0.0703,-3.234376 A 72,68 0 0 0 168,88 72,68 0 0 0 167.992,87.8828 c -0.006,-1.32258 -0.0503,-2.643508 -0.14064,-3.960936 -0.001,-0.0208 -0.006,-0.04156 -0.008,-0.06252 a 72,68 0 0 0 -0.19532,-1.992188 c -0.11244,-1.100964 -0.2502,-2.200408 -0.42187,-3.296876 A 72,68 0 0 0 96,20 Z"
     style="opacity:0.2;stroke-width:4;filter:url(#filter844)" />
  <path
     inkscape:connector-curvature="0"
     id="path4"
     d="m 96,16 a 72,68 0 0 0 -72,68 72,68 0 0 0 71.0625,67.95312 c 0.71592,0.0344 0.958256,0.2332 0.953124,1 -0.0384,6.9884 -0.0176,15.18228 -0.0156,22.17188 9.12e-4,0.27128 0.0228,0.53764 0.0392,0.875 0.2372,-0.0922 0.388,-0.1466 0.531248,-0.21092 13.772398,-6.1668 26.413498,-13.95856 37.687498,-23.72656 2.24328,-1.94316 4.38873,-3.98093 6.45313,-6.10157 0.884,-0.9068 1.76264,-1.82845 2.64844,-2.73437 1.3684,-1.39456 2.55378,-2.95324 3.84374,-4.42188 1.48972,-1.69364 2.82916,-3.49288 4.14844,-5.30468 2.91652,-4.0044 5.52174,-8.18056 7.71094,-12.59376 1.10748,-2.23095 2.16051,-4.47964 3.09375,-6.78124 0.0312,-0.0435 0.0737,-0.078 0.0938,-0.125 2.5434,-6.3016 4.17146,-12.82563 5.03906,-19.515628 0.14604,-1.123604 0.2044,-2.254192 0.30468,-3.382812 a 72,68 0 0 0 0.0781,-0.929688 c 0.0712,-0.902408 0.19436,-1.800248 0.2422,-2.703124 0.0566,-1.07886 0.0693,-2.158352 0.0703,-3.234376 A 72,68 0 0 0 168,84 72,68 0 0 0 167.992,83.8828 c -0.006,-1.32258 -0.0503,-2.643508 -0.14064,-3.960936 -0.001,-0.0208 -0.006,-0.04156 -0.008,-0.06252 a 72,68 0 0 0 -0.19532,-1.992188 c -0.11244,-1.100964 -0.2502,-2.200408 -0.42187,-3.296876 A 72,68 0 0 0 96,16 Z"
     style="fill:#009b8e;stroke-width:4" />
  <path
     inkscape:connector-curvature="0"
     id="path6"
     d="m 68,57.99872 c -4.432,0 -8,3.568 -8,8 v 40 c 0,4.432 3.568,8 8,8 h 48 c 4.432,0 8,-3.568 8,-8 v -12 l 16,16 v -48 l -16,16 v -12 c 0,-4.432 -3.568,-8 -8,-8 z"
     style="opacity:0.2;fill-rule:evenodd;stroke-width:4;filter:url(#filter860)" />
  <path
     inkscape:connector-curvature="0"
     id="path8"
     d="m 68,56 c -4.432,0 -8,3.568 -8,8 v 40 c 0,4.432 3.568,8 8,8 h 48 c 4.432,0 8,-3.568 8,-8 V 92 l 16,16 V 60 L 124,76 V 64 c 0,-4.432 -3.568,-8 -8,-8 z"
     style="fill:#ffffff;fill-rule:evenodd;stroke-width:4" />
  <path
     style="opacity:0.2;fill:#ffffff;stroke-width:4"
     d="M 96 16 A 72 68 0 0 0 24 84 A 72 68 0 0 0 24.023438 84.394531 A 72 68 0 0 1 96 17 A 72 68 0 0 1 167.22656 75.570312 C 167.39823 76.666781 167.536 77.766223 167.64844 78.867188 A 72 68 0 0 1 167.84375 80.859375 C 167.84575 80.880335 167.85056 80.901075 167.85156 80.921875 C 167.93015 82.067975 167.96842 83.217006 167.98242 84.367188 C 167.98294 84.322956 167.98431 84.278553 167.98438 84.234375 A 72 68 0 0 0 168 84 A 72 68 0 0 0 167.99219 83.882812 C 167.98619 82.560232 167.9419 81.239303 167.85156 79.921875 C 167.85056 79.901075 167.84575 79.880335 167.84375 79.859375 A 72 68 0 0 0 167.64844 77.867188 C 167.536 76.766223 167.39823 75.66678 167.22656 74.570312 A 72 68 0 0 0 96 16 z "
     id="path10" />
</svg>
