<?xml version="1.0" encoding="UTF-8" standalone="no"?>
<svg
   xmlns:dc="http://purl.org/dc/elements/1.1/"
   xmlns:cc="http://creativecommons.org/ns#"
   xmlns:rdf="http://www.w3.org/1999/02/22-rdf-syntax-ns#"
   xmlns:svg="http://www.w3.org/2000/svg"
   xmlns="http://www.w3.org/2000/svg"
   xmlns:sodipodi="http://sodipodi.sourceforge.net/DTD/sodipodi-0.dtd"
   xmlns:inkscape="http://www.inkscape.org/namespaces/inkscape"
   width="192"
   height="192"
   version="1.1"
   id="svg34"
   sodipodi:docname="google_photos.svg"
   inkscape:version="0.92.3 (2405546, 2018-03-11)">
  <metadata
     id="metadata40">
    <rdf:RDF>
      <cc:Work
         rdf:about="">
        <dc:format>image/svg+xml</dc:format>
        <dc:type
           rdf:resource="http://purl.org/dc/dcmitype/StillImage" />
      </cc:Work>
    </rdf:RDF>
  </metadata>
  <defs
     id="defs38">
    <filter
       inkscape:collect="always"
       style="color-interpolation-filters:sRGB"
       id="filter878"
       x="-0.048"
       width="1.096"
       y="-0.048"
       height="1.096">
      <feGaussianBlur
         inkscape:collect="always"
         stdDeviation="3.2"
         id="feGaussianBlur880" />
    </filter>
    <filter
       inkscape:collect="always"
       style="color-interpolation-filters:sRGB"
       id="filter894"
       x="-0.048"
       width="1.096"
       y="-0.048"
       height="1.096">
      <feGaussianBlur
         inkscape:collect="always"
         stdDeviation="0.96"
         id="feGaussianBlur896" />
    </filter>
  </defs>
  <sodipodi:namedview
     pagecolor="#ffffff"
     bordercolor="#666666"
     borderopacity="1"
     objecttolerance="10"
     gridtolerance="10"
     guidetolerance="10"
     inkscape:pageopacity="0"
     inkscape:pageshadow="2"
     inkscape:window-width="1920"
     inkscape:window-height="1018"
     id="namedview36"
     showgrid="false"
     inkscape:zoom="1"
     inkscape:cx="96"
     inkscape:cy="96"
     inkscape:window-x="0"
     inkscape:window-y="32"
     inkscape:window-maximized="1"
     inkscape:current-layer="svg34" />
  <path
     inkscape:connector-curvature="0"
     id="path2"
     d="M 96,20 V 60 H 56 l -40,40 h 40 v 40 l 40,40 v -40 h 40 l 40,-40 H 136 V 60 Z"
     style="opacity:0.2;stroke-width:4;filter:url(#filter878)" />
  <path
     inkscape:connector-curvature="0"
     id="path4"
     d="M 56,56 16,96 H 96 V 56"
     style="fill:#fec006;stroke-width:4" />
  <path
     inkscape:connector-curvature="0"
     id="path6"
     d="M 136,56 96,16 v 80 h 40"
     style="fill:#f34235;stroke-width:4" />
  <path
     inkscape:connector-curvature="0"
     id="path8"
     d="m 56,136 40,40 V 96 H 56"
     style="fill:#4bae4f;stroke-width:4" />
  <path
     inkscape:connector-curvature="0"
     id="path10"
     d="M 136,136 176,96 H 96 v 40"
     style="fill:#2095f2;stroke-width:4" />
  <path
     style="opacity:0.2;fill:#ffffff;stroke-width:4"
     d="M 96 96 L 96 97 L 175 97 L 176 96 L 96 96 z "
     id="path12" />
  <path
     inkscape:connector-curvature="0"
     id="path14"
     d="M 136,56 96,96 h 40 z"
     style="fill:#9c27b0;stroke-width:4" />
  <path
     inkscape:connector-curvature="0"
     id="path16"
     d="m 56,96 v 40 L 96,96 Z"
     style="fill:#1ea362;stroke-width:4" />
  <path
     inkscape:connector-curvature="0"
     id="path18"
     d="m 96,96 v 40 h 40 z"
     style="fill:#3e50b4;stroke-width:4" />
  <path
     inkscape:connector-curvature="0"
     id="path20"
     d="M 56,56 96,96 V 56 Z"
     style="fill:#fe9700;stroke-width:4" />
  <path
     style="opacity:0.2;fill:#ffffff;stroke-width:4"
     d="M 96 16 L 96 17 L 136 57 L 136 56 L 96 16 z M 56 56 L 16 96 L 17 96 L 56 57 L 96 57 L 96 56 L 56 56 z "
     id="path22" />
  <path
     inkscape:connector-curvature="0"
     id="path24"
     d="m 96,74 -8,16 -16,8 16,8 8,16 8,-16 16,-8 -16,-8 z"
     style="opacity:0.2;stroke-width:4;filter:url(#filter894)" />
  <path
     inkscape:connector-curvature="0"
     id="path26"
     d="m 96,72 -8,16 -16,8 16,8 8,16 8,-16 16,-8 -16,-8 z"
     style="fill:#ffffff;stroke-width:4" />
  <path
     inkscape:connector-curvature="0"
     id="path28"
     d="m 72,96 16,8 8,16 V 96 Z"
     style="fill:#ebebeb;stroke-width:4" />
  <path
     inkscape:connector-curvature="0"
     id="path30"
     d="m 120,96 -16,8 -8,16 V 96 Z"
     style="fill:#dfdfdf;stroke-width:4" />
</svg>
