<?xml version="1.0" encoding="UTF-8" standalone="no"?>
<svg
   xmlns:dc="http://purl.org/dc/elements/1.1/"
   xmlns:cc="http://creativecommons.org/ns#"
   xmlns:rdf="http://www.w3.org/1999/02/22-rdf-syntax-ns#"
   xmlns:svg="http://www.w3.org/2000/svg"
   xmlns="http://www.w3.org/2000/svg"
   xmlns:sodipodi="http://sodipodi.sourceforge.net/DTD/sodipodi-0.dtd"
   xmlns:inkscape="http://www.inkscape.org/namespaces/inkscape"
   width="192"
   height="192"
   version="1.1"
   id="svg30"
   sodipodi:docname="google_android_pay.svg"
   inkscape:version="0.92.3 (2405546, 2018-03-11)">
  <metadata
     id="metadata36">
    <rdf:RDF>
      <cc:Work
         rdf:about="">
        <dc:format>image/svg+xml</dc:format>
        <dc:type
           rdf:resource="http://purl.org/dc/dcmitype/StillImage" />
      </cc:Work>
    </rdf:RDF>
  </metadata>
  <defs
     id="defs34">
    <filter
       inkscape:collect="always"
       style="color-interpolation-filters:sRGB"
       id="filter840"
       x="-0.048"
       width="1.096"
       y="-0.048"
       height="1.096">
      <feGaussianBlur
         inkscape:collect="always"
         stdDeviation="3.2"
         id="feGaussianBlur842" />
    </filter>
    <filter
       inkscape:collect="always"
       style="color-interpolation-filters:sRGB"
       id="filter881"
       x="-0.029762218"
       width="1.0595244"
       y="-0.020107096"
       height="1.0402142">
      <feGaussianBlur
         inkscape:collect="always"
         stdDeviation="1.0424571"
         id="feGaussianBlur883" />
    </filter>
  </defs>
  <sodipodi:namedview
     pagecolor="#ffffff"
     bordercolor="#666666"
     borderopacity="1"
     objecttolerance="10"
     gridtolerance="10"
     guidetolerance="10"
     inkscape:pageopacity="0"
     inkscape:pageshadow="2"
     inkscape:window-width="1920"
     inkscape:window-height="1018"
     id="namedview32"
     showgrid="false"
     inkscape:zoom="3.2796268"
     inkscape:cx="118.26959"
     inkscape:cy="96"
     inkscape:window-x="0"
     inkscape:window-y="32"
     inkscape:window-maximized="1"
     inkscape:current-layer="svg30" />
  <circle
     id="circle2"
     r="80"
     cy="100"
     cx="96"
     style="opacity:0.2;stroke-width:4;filter:url(#filter840)" />
  <circle
     id="circle4"
     r="80"
     cy="96"
     cx="96"
     style="fill:#e4e4e4;stroke-width:4;fill-opacity:1" />
  <path
     style="color:#000000;font-style:normal;font-variant:normal;font-weight:normal;font-stretch:normal;font-size:medium;line-height:normal;font-family:sans-serif;font-variant-ligatures:normal;font-variant-position:normal;font-variant-caps:normal;font-variant-numeric:normal;font-variant-alternates:normal;font-feature-settings:normal;text-indent:0;text-align:start;text-decoration:none;text-decoration-line:none;text-decoration-style:solid;text-decoration-color:#000000;letter-spacing:normal;word-spacing:normal;text-transform:none;writing-mode:lr-tb;direction:ltr;text-orientation:mixed;dominant-baseline:auto;baseline-shift:baseline;text-anchor:start;white-space:normal;shape-padding:0;clip-rule:nonzero;display:inline;overflow:visible;visibility:visible;opacity:0.1;isolation:auto;mix-blend-mode:normal;color-interpolation:sRGB;color-interpolation-filters:linearRGB;solid-color:#000000;solid-opacity:1;vector-effect:none;fill:#000000;fill-opacity:1;fill-rule:nonzero;stroke:none;stroke-width:7.99947977;stroke-linecap:round;stroke-linejoin:bevel;stroke-miterlimit:4;stroke-dasharray:none;stroke-dashoffset:0;stroke-opacity:1;color-rendering:auto;image-rendering:auto;shape-rendering:auto;text-rendering:auto;enable-background:accumulate;filter:url(#filter881)"
     d="M 83.460938 33.609375 L 80 35.609375 L 84.789062 43.90625 C 76.037063 48.13465 76 58 76 58 L 116 58 C 116 58 115.9628 48.13465 107.21094 43.90625 L 112 35.609375 L 108.53906 33.609375 L 103.35938 42.578125 C 102.09732 42.295905 98.558848 42.132484 96 42.0625 C 93.441152 42.1325 89.902685 42.295901 88.640625 42.578125 L 83.460938 33.609375 z M 86.007812 50 C 87.115813 50 88 50.892188 88 51.992188 C 88 53.092187 87.103813 54 86.007812 54 C 84.899812 54 84 53.104187 84 51.992188 C 84 50.892188 84.899812 50 86.007812 50 z M 105.99219 50 C 107.10019 50 108 50.892188 108 51.992188 C 108 53.104187 107.10019 54 105.99219 54 C 104.89619 54 104 53.092187 104 51.992188 C 104 50.892188 104.88419 50 105.99219 50 z M 68.179688 61.992188 L 68.179688 62 C 65.878488 61.999624 64 64.122375 64 66.734375 L 64 85.25 C 64 87.862 65.878488 90 68.179688 90 C 70.480887 90 72 87.862 72 85.25 L 72 66.734375 C 72 64.118375 70.483688 61.992188 68.179688 61.992188 z M 123.82031 61.992188 C 121.51631 61.992188 120 64.118375 120 66.734375 L 120 85.25 C 120 87.862 121.51911 90 123.82031 90 C 126.12151 90 128 87.862 128 85.25 L 128 66.734375 C 128 64.122375 126.12151 61.999624 123.82031 62 L 123.82031 61.992188 z M 76 62 L 76 96 C 75.999972 96.94292 77.05708 98 78 98 L 84 98 L 84 105.5 C 84 107.988 85.584 110 88 110 C 90.40076 110 92.0796 107.98524 92 105.5 L 92 98 L 100 98 L 100 105.5 C 99.9204 107.98524 101.59924 110 104 110 C 106.416 110 108 107.988 108 105.5 L 108 98 L 114 98 C 114.94292 98 116.00003 96.94292 116 96 L 116 62 L 76 62 z M 62.410156 117.80273 C 61.256702 117.82133 60.957427 117.87393 60.507812 117.91797 A 4.0001399 4.0001399 0 0 0 57.126953 119.16797 A 4.0001399 4.0001399 0 0 0 57.111328 119.1875 A 4.0001399 4.0001399 0 0 0 56.056641 122.59961 L 56.056641 137.29297 A 4.0001399 4.0001399 0 0 0 56.056641 138.57617 L 56.056641 153.94336 A 4.0001399 4.0001399 0 1 0 64.056641 153.94336 L 64.056641 141.95312 C 65.527193 141.91723 67.036173 141.90892 68.810547 141.56836 C 71.199451 141.10984 73.797346 140.30154 76.070312 138.46484 C 78.343283 136.62815 80.054688 133.49162 80.054688 129.94531 C 80.054688 126.39901 78.34328 123.26248 76.070312 121.42578 C 73.797347 119.58908 71.199451 118.77883 68.810547 118.32031 C 66.421643 117.86179 64.116632 117.77516 62.410156 117.80273 z M 136.17969 117.90234 A 4.0001399 4.0001399 0 0 0 132.83203 119.54492 L 124.0332 131.2793 L 115.23438 119.54492 A 4.000394 4.000394 0 1 0 108.83398 124.3457 L 120.0332 139.27539 L 120.0332 153.94336 A 4.0001399 4.0001399 0 1 0 128.0332 153.94336 L 128.0332 139.27539 L 139.23242 124.3457 A 4.0001399 4.0001399 0 0 0 136.17969 117.90234 z M 96.056641 117.94531 C 90.723645 117.94531 86.955449 121.20238 85.478516 124.15625 C 84.319575 126.47413 84.164212 128.31674 84.125 129.17578 A 4.0001399 4.0001399 0 0 0 84.056641 129.94531 L 84.056641 141.29297 A 4.0001399 4.0001399 0 0 0 84.056641 142.58203 L 84.056641 153.94336 A 4.0001399 4.0001399 0 1 0 92.056641 153.94336 L 92.056641 145.94336 L 100.05664 145.94336 L 100.05664 153.94336 A 4.0001399 4.0001399 0 1 0 108.05469 153.94336 L 108.05469 142.60547 A 4.0001399 4.0001399 0 0 0 108.05469 141.29883 L 108.05469 129.94531 A 4.0001399 4.0001399 0 0 0 107.98438 129.14062 C 107.94118 128.25827 107.77724 126.4451 106.63281 124.15625 C 105.15588 121.20238 101.38964 117.94531 96.056641 117.94531 z M 64.056641 125.91992 C 65.106521 125.95332 66.166363 125.95762 67.302734 126.17578 C 68.913581 126.48496 70.31417 127.05915 71.041016 127.64648 C 71.767861 128.23382 72.054686 128.56293 72.054688 129.94531 C 72.054688 131.32769 71.76786 131.65485 71.041016 132.24219 C 70.314171 132.82952 68.913582 133.40371 67.302734 133.71289 C 66.166363 133.931 65.106521 133.93537 64.056641 133.96875 L 64.056641 125.91992 z M 96.056641 125.94531 C 98.723143 125.94531 98.955575 126.68849 99.478516 127.73438 C 100.00146 128.78026 100.05664 129.94531 100.05664 129.94531 L 100.05664 137.94336 L 92.056641 137.94336 L 92.056641 129.94531 C 92.056641 129.94531 92.111821 128.78026 92.634766 127.73438 C 93.157706 126.68849 93.39014 125.94531 96.056641 125.94531 z "
     id="path6" />
  <path
     style="opacity:0.2;fill:#ffffff;stroke-width:4"
     d="M 96 16 A 80 80 0 0 0 16 96 A 80 80 0 0 0 16.019531 96.472656 A 80 80 0 0 1 96 17 A 80 80 0 0 1 175.97461 96.513672 A 80 80 0 0 0 176 96 A 80 80 0 0 0 96 16 z "
     id="path8" />
  <g
     id="g12"
     transform="matrix(4,0,0,4,32,9.9988)"
     style="opacity:0.1" />
  <g
     id="g16"
     transform="matrix(4,0,0,4,32,7.9988032)"
     style="fill:#4ba325">
    <path
       inkscape:connector-curvature="0"
       id="path14"
       d="m 20.865234,14.902344 -0.865234,0.5 1.197266,2.074218 C 19.009266,18.533662 19,21 19,21 h 10 c 0,0 -0.0093,-2.466338 -2.197266,-3.523438 L 28,15.402344 l -0.865234,-0.5 -1.294922,2.242187 C 25.524329,17.073976 24.639712,17.033121 24,17.015625 c -0.639712,0.0175 -1.524329,0.05835 -1.839844,0.128906 z M 21.501953,19 C 21.778953,19 22,19.223047 22,19.498047 22,19.773047 21.775953,20 21.501953,20 21.224953,20 21,19.776047 21,19.498047 21,19.223047 21.224953,19 21.501953,19 Z m 4.996094,0 C 26.775047,19 27,19.223047 27,19.498047 27,19.776047 26.775047,20 26.498047,20 26.224047,20 26,19.773047 26,19.498047 26,19.223047 26.221047,19 26.498047,19 Z m -9.453125,2.998047 v 0.002 C 16.469622,21.999953 16,22.530594 16,23.183594 V 27.8125 C 16,28.4655 16.469622,29 17.044922,29 17.620222,29 18,28.4655 18,27.8125 v -4.628906 c 0,-0.654 -0.379078,-1.185547 -0.955078,-1.185547 z m 13.910156,0 C 30.379078,21.998047 30,22.529594 30,23.183594 V 27.8125 C 30,28.4655 30.379778,29 30.955078,29 31.530378,29 32,28.4655 32,27.8125 V 23.183594 C 32,22.530594 31.530378,21.999906 30.955078,22 V 21.998 Z M 19,22 v 8.5 c -7e-6,0.23573 0.26427,0.5 0.5,0.5 H 21 v 1.875 c 0,0.622 0.396,1.125 1,1.125 0.60019,0 1.0199,-0.50369 1,-1.125 V 31 h 2 v 1.875 C 24.9801,33.49631 25.39981,34 26,34 c 0.604,0 1,-0.503 1,-1.125 V 31 h 1.5 c 0.23573,0 0.500007,-0.26427 0.5,-0.5 V 22 Z"
       transform="translate(-8,-8.9997)"
       style="fill:#4ba325" />
  </g>
  <path
     inkscape:connector-curvature="0"
     id="path18"
     d="m 60.056336,135.94388 c 0,0 15.999004,1.85789 15.999004,-7.99948 0,-9.85738 -15.999004,-7.9995 -15.999004,-7.9995 m 3.92e-4,31.99838 v -31.99799"
     style="fill:none;stroke:#4f4f4f;stroke-width:7.99947977;stroke-linecap:round;stroke-linejoin:bevel" />
  <path
     inkscape:connector-curvature="0"
     id="path22"
     d="m 88.056716,139.94404 h 15.998994 m -15.998594,11.99924 v -23.99849 m 15.998594,23.99849 v -23.99849 m -15.998994,0 c 0,0 0,-7.9995 7.999496,-7.9995 7.999498,0 7.999498,7.9995 7.999498,7.9995"
     style="fill:none;stroke:#4f4f4f;stroke-width:7.99947977;stroke-linecap:round;stroke-linejoin:bevel" />
  <path
     inkscape:connector-curvature="0"
     id="path26"
     d="m 124.03333,151.94328 v -15.999 m 11.99925,-15.99899 -11.99925,15.99899 m -11.99924,-15.99899 11.99924,15.99899"
     style="fill:none;stroke:#4f4f4f;stroke-width:7.99947977;stroke-linecap:round" />
</svg>
