<?xml version="1.0" encoding="UTF-8" standalone="no"?>
<svg
   xmlns:dc="http://purl.org/dc/elements/1.1/"
   xmlns:cc="http://creativecommons.org/ns#"
   xmlns:rdf="http://www.w3.org/1999/02/22-rdf-syntax-ns#"
   xmlns:svg="http://www.w3.org/2000/svg"
   xmlns="http://www.w3.org/2000/svg"
   xmlns:sodipodi="http://sodipodi.sourceforge.net/DTD/sodipodi-0.dtd"
   xmlns:inkscape="http://www.inkscape.org/namespaces/inkscape"
   width="192"
   height="192"
   version="1"
   id="svg36"
   sodipodi:docname="google_daydream.svg"
   inkscape:version="0.92.3 (2405546, 2018-03-11)">
  <metadata
     id="metadata42">
    <rdf:RDF>
      <cc:Work
         rdf:about="">
        <dc:format>image/svg+xml</dc:format>
        <dc:type
           rdf:resource="http://purl.org/dc/dcmitype/StillImage" />
      </cc:Work>
    </rdf:RDF>
  </metadata>
  <defs
     id="defs40">
    <filter
       inkscape:collect="always"
       style="color-interpolation-filters:sRGB"
       id="filter886"
       x="-0.053985502"
       width="1.107971"
       y="-0.043209283"
       height="1.0864186">
      <feGaussianBlur
         inkscape:collect="always"
         stdDeviation="2.4672457"
         id="feGaussianBlur888" />
    </filter>
    <filter
       inkscape:collect="always"
       style="color-interpolation-filters:sRGB"
       id="filter916"
       x="-0.046771719"
       width="1.0935434"
       y="-0.049294533"
       height="1.0985891">
      <feGaussianBlur
         inkscape:collect="always"
         stdDeviation="1.5215792"
         id="feGaussianBlur918" />
    </filter>
    <filter
       inkscape:collect="always"
       style="color-interpolation-filters:sRGB"
       id="filter946"
       x="-0.046771719"
       width="1.0935434"
       y="-0.049294533"
       height="1.0985891">
      <feGaussianBlur
         inkscape:collect="always"
         stdDeviation="1.5215792"
         id="feGaussianBlur948" />
    </filter>
    <filter
       inkscape:collect="always"
       style="color-interpolation-filters:sRGB"
       id="filter976"
       x="-0.052315811"
       width="1.1046316"
       y="-0.044341992"
       height="1.088684">
      <feGaussianBlur
         inkscape:collect="always"
         stdDeviation="1.4780664"
         id="feGaussianBlur978" />
    </filter>
  </defs>
  <sodipodi:namedview
     pagecolor="#ffffff"
     bordercolor="#666666"
     borderopacity="1"
     objecttolerance="10"
     gridtolerance="10"
     guidetolerance="10"
     inkscape:pageopacity="0"
     inkscape:pageshadow="2"
     inkscape:window-width="1920"
     inkscape:window-height="1018"
     id="namedview38"
     showgrid="false"
     inkscape:zoom="1"
     inkscape:cx="96"
     inkscape:cy="96"
     inkscape:window-x="0"
     inkscape:window-y="32"
     inkscape:window-maximized="1"
     inkscape:current-layer="svg36" />
  <path
     style="opacity:0.2;fill:#000000;stroke-width:4;filter:url(#filter886)"
     d="m 135.34766,42.976562 a 36,40 60 0 0 -22.70508,5.847657 36,40 60 0 0 -16.640627,51.173828 c -2.77e-4,4.8e-4 2.77e-4,0.0015 0,0.002 -1.73e-4,3e-4 -0.0018,-3e-4 -0.002,0 a 36,40 0 0 0 -36,40 36,40 0 0 0 36,40 36,40 0 0 0 32.69922,-23.36719 c 15.23992,2.04121 29.52997,-4.45563 36.58203,-16.63281 7.27038,-12.59036 5.23261,-28.22081 -3.86328,-40.035156 A 36,40 60 0 0 165.2832,60 36,40 60 0 0 135.34766,42.976562 Z m -9.95899,74.005858 a 36,40 60 0 0 0.0469,0.004 c 0.27369,0.4314 0.54031,0.86876 0.79883,1.3125 a 36,40 0 0 0 -0.84571,-1.31641 z m 0.95508,1.50391 c 0.61068,1.06115 1.17515,2.15689 1.69531,3.2832 a 36,40 0 0 0 -1.69531,-3.2832 z m 1.77344,3.45117 c 0.52874,1.15838 1.00837,2.34849 1.43554,3.56836 0.43183,1.23316 0.80913,2.49615 1.13086,3.78516 a 36,40 0 0 0 -1.13086,-3.78516 36,40 0 0 0 -1.43554,-3.56836 z m 2.57226,7.37109 c 0.3091,1.24063 0.56425,2.5051 0.76563,3.79102 a 36,40 0 0 0 -0.76563,-3.79102 z m 0.79688,3.97461 c 0.18264,1.19956 0.31419,2.41705 0.39844,3.65039 a 36,40 0 0 0 -0.39844,-3.65039 z m 0.43164,4.15235 c 0.0484,0.84873 0.082,1.70215 0.082,2.56445 -0.003,1.15464 -0.0641,2.30538 -0.15625,3.45117 A 36,40 0 0 0 132,140 a 36,40 0 0 0 -0.082,-2.56445 z m -0.13672,6.85351 c -0.0954,0.95812 -0.23151,1.9087 -0.38867,2.85547 a 36,40 0 0 0 0.38867,-2.85547 z m -0.62305,4.20117 c -0.15807,0.79786 -0.34307,1.58905 -0.54492,2.375 a 36,40 0 0 0 0.54492,-2.375 z"
     id="ellipse867"
     inkscape:connector-curvature="0" />
  <circle
     id="circle2"
     r="64"
     cy="96"
     cx="96"
     style="fill:#278df2;stroke-width:4" />
  <ellipse
     transform="rotate(60)"
     ry="40"
     rx="36"
     cy="-75.139999"
     cx="131.14"
     style="fill:#34e0c4;stroke-width:4"
     id="ellipse8" />
  <ellipse
     ry="40"
     rx="36"
     cy="136"
     cx="96"
     style="fill:#34e0c4;stroke-width:4"
     id="ellipse10" />
  <path
     inkscape:connector-curvature="0"
     id="path10"
     d="m 96,96 a 36,40 0 0 0 -36,40 36,40 0 0 0 0.0312,0.99219 A 36,40 0 0 1 96,98 36,40 0 0 1 131.95312,136.98438 36,40 0 0 0 132,136 36,40 0 0 0 96,96 Z"
     style="opacity:0.2;fill:#ffffff;stroke-width:4" />
  <ellipse
     id="ellipse890"
     style="opacity:0.2;fill:#000000;stroke-width:4;filter:url(#filter916)"
     cx="134.60402"
     cy="6.8599553"
     rx="36"
     ry="40"
     transform="rotate(60,1.7316762,-0.99978374)" />
  <ellipse
     transform="rotate(60)"
     ry="40"
     rx="36"
     cy="4.8600001"
     cx="131.14"
     style="fill:#278df2;stroke-width:4"
     id="ellipse14" />
  <path
     inkscape:connector-curvature="0"
     id="path15"
     d="M 66.0625,78.976564 A 36,40 60 0 0 43.359376,84.820312 36,40 60 0 0 22.390625,120.78906 36,40 60 0 1 43.359376,86.820312 36,40 60 0 1 66.0625,80.976564 36,40 60 0 1 96,98 36,40 60 0 1 100.3125,112.8125 36,40 60 0 0 96,96 36,40 60 0 0 66.0625,78.976564 Z"
     style="opacity:0.1;fill:#ffffff;stroke-width:4" />
  <ellipse
     id="ellipse920"
     style="opacity:0.1;fill:#000000;stroke-width:4;filter:url(#filter946)"
     cx="38.604404"
     cy="93.140175"
     rx="36"
     ry="40"
     transform="matrix(-0.5,0.8660254,0.8660254,0.5,0,-1.9995723)" />
  <ellipse
     transform="matrix(-0.5,0.8660254,0.8660254,0.5,0,0)"
     ry="40"
     rx="36"
     cy="91.139999"
     cx="35.139999"
     style="fill:#34e0c4;stroke-width:4"
     id="ellipse18" />
  <path
     style="opacity:0.2;fill:#000000;stroke-width:4;filter:url(#filter976)"
     d="M 96 18 A 36 40 0 0 0 60 58 A 36 40 0 0 0 96 98 A 36 40 60 0 1 91.638672 80.199219 A 36 40 60 0 1 112.64258 44.824219 A 36 40 60 0 1 127.80664 39.466797 A 36 40 0 0 0 96 18 z M 96 98 A 36 40 0 0 0 97.265625 97.927734 A 36 40 60 0 1 96.638672 96.970703 A 40 36 30 0 0 96 98 z "
     id="path950" />
  <path
     style="opacity:0.2;fill:#ffffff;stroke-width:4"
     d="M 56.65625 38.976562 A 40 36 30 0 0 26.71875 56 A 40 36 30 0 0 22.384766 73.855469 A 40 36 30 0 1 26.71875 57 A 40 36 30 0 1 56.65625 39.976562 A 40 36 30 0 1 79.359375 45.820312 A 40 36 30 0 1 95.722656 62.628906 A 36 40 60 0 1 95.992188 62.09375 A 40 36 30 0 0 79.359375 44.820312 A 40 36 30 0 0 56.65625 38.976562 z "
     id="path18" />
  <path
     inkscape:connector-curvature="0"
     id="path20"
     d="M 125.9375,78.976564 C 113.14466,79.338492 101.94216,85.708596 96,96 c 19.88225,0 36,17.90861 36,40 -0.014,5.74359 -1.14116,11.41646 -3.30469,16.63281 15.24138,2.04283 29.53328,-4.4546 36.58594,-16.63281 9.94319,-17.21894 2.49267,-40.133676 -16.64063,-51.179688 -6.98085,-4.028952 -14.89424,-6.065848 -22.70312,-5.843748 z m 2.75781,73.656246 z M 96,96 Z"
     style="fill:#278df2;stroke-width:4" />
  <path
     inkscape:connector-curvature="0"
     id="path26"
     d="M 96,16 A 36,40 0 0 0 60,56 36,40 0 0 0 96,96 36,40 60 0 1 112.64062,44.820312 36,40 60 0 1 128.69531,39.367188 36,40 0 0 0 96,16 Z m 0,80 A 36,40 0 0 0 130.21875,68.335936 36,40 0 0 1 125.38281,79.015624 40,36 30 0 0 96,96 Z m 34.21875,-27.664064 a 36,40 0 0 0 0.86719,-3.531248 36,40 0 0 1 -0.86719,3.531248 z m -1.10156,-27.906248 a 36,40 0 0 1 1.20312,3.648436 36,40 0 0 0 -1.20312,-3.648436 z m 1.25781,3.8125 a 36,40 0 0 1 0.73438,3.16406 36,40 0 0 0 -0.73438,-3.16406 z m 0.9375,4.140624 a 36,40 0 0 1 0.35156,2.554688 36,40 0 0 0 -0.35156,-2.554688 z m 0.52344,4.148436 A 36,40 0 0 1 132,56 36,40 0 0 0 131.83594,52.531248 Z m 0.0859,5.234376 a 36,40 0 0 1 -0.15624,2.625 36,40 0 0 0 0.15624,-2.625 z M 131.6406,61.3125 a 36,40 0 0 1 -0.46875,3.101564 36,40 0 0 0 0.46875,-3.101564 z"
     style="fill:#278df2;stroke-width:4" />
  <path
     style="fill:#34e0c4;stroke-width:4;opacity:1"
     d="M 135.34766 38.976562 A 36 40 60 0 0 112.64258 44.824219 A 36 40 60 0 0 96.001953 95.998047 C 101.94446 85.708017 113.14563 79.338463 125.9375 78.976562 C 133.74638 78.754463 141.65977 80.79136 148.64062 84.820312 C 153.7838 87.789565 158.07406 91.621544 161.41797 95.964844 A 36 40 60 0 0 165.2832 56 A 36 40 60 0 0 135.34766 38.976562 z M 96.001953 96 A 36 40 60 0 0 125.4375 112.98633 C 118.92176 102.71548 108.17085 96.000721 96.001953 96 z "
     id="ellipse980" />
  <path
     style="opacity:0.2;fill:#ffffff;stroke-width:4"
     d="M 135.34375 38.976562 A 36 40 60 0 0 112.64062 44.820312 A 36 40 60 0 0 91.658203 80.314453 A 36 40 60 0 1 112.64062 45.820312 A 36 40 60 0 1 135.34375 39.976562 A 36 40 60 0 1 165.28125 57 A 36 40 60 0 1 169.49414 71.535156 A 36 40 60 0 1 169.59375 72.835938 A 36 40 60 0 0 165.28125 56 A 36 40 60 0 0 135.34375 38.976562 z "
     id="path30" />
  <path
     style="opacity:0.1;fill:#ffffff;stroke-width:4"
     d="M 96 16 C 76.117748 16 60 33.90861 60 56 C 60.00287 56.108842 60.010653 56.217437 60.015625 56.326172 C 60.340709 34.546872 76.321123 17 96 17 C 109.75747 17.019016 122.25306 25.758185 128.27344 39.435547 C 128.41403 39.412322 128.55451 39.387437 128.69531 39.367188 C 122.84387 25.147416 110.07205 16.019451 96 16 z M 131.3125 54.382812 C 131.45442 55.229945 131.57166 56.081952 131.66406 56.9375 C 131.57166 56.081952 131.45442 55.229945 131.3125 54.382812 z M 131.3125 55.382812 C 131.45442 56.229944 131.57166 57.081952 131.66406 57.9375 C 131.57166 57.081952 131.45442 56.229945 131.3125 55.382812 z M 125.54688 78.726562 C 125.48477 78.823243 125.42226 78.919545 125.35938 79.015625 L 125.38281 79.015625 C 125.43781 78.919545 125.49256 78.823282 125.54688 78.726562 z M 125.38281 79.015625 L 125.35938 79.023438 L 125.35938 79.015625 C 125.22902 79.028025 125.09883 79.041088 124.96875 79.054688 C 123.83504 79.108648 122.70895 79.210295 121.59375 79.359375 C 121.45031 79.384575 121.30707 79.41066 121.16406 79.4375 C 120.04345 79.60074 118.93559 79.81186 117.84375 80.070312 C 117.70807 80.105913 117.57263 80.142528 117.4375 80.179688 C 116.3511 80.450887 115.28234 80.768904 114.23438 81.132812 C 114.06709 81.199332 113.90041 81.267057 113.73438 81.335938 C 112.74724 81.694018 111.78024 82.092806 110.83594 82.53125 C 110.58414 82.65601 110.33413 82.783622 110.08594 82.914062 C 109.22899 83.332138 108.39245 83.782997 107.57812 84.265625 C 107.31508 84.434145 107.05465 84.606026 106.79688 84.78125 C 106.03517 85.263854 105.29509 85.774612 104.57812 86.3125 C 104.26332 86.56242 103.95338 86.817669 103.64844 87.078125 C 103.02727 87.575893 102.42539 88.094401 101.84375 88.632812 C 101.50535 88.967093 101.17456 89.308322 100.85156 89.65625 C 100.33581 90.174162 99.838183 90.708261 99.359375 91.257812 C 99.062095 91.624093 98.772976 91.996572 98.492188 92.375 C 98.023228 92.961376 97.575093 93.563231 97.148438 94.179688 C 96.746065 94.773495 96.362484 95.380804 96 96 C 96.203456 96.002962 96.406339 96.021269 96.609375 96.035156 C 96.789827 95.750417 96.959405 95.458656 97.148438 95.179688 C 97.575093 94.563232 98.023228 93.961376 98.492188 93.375 C 98.772976 92.996572 99.062095 92.624093 99.359375 92.257812 C 99.838183 91.708261 100.33581 91.174162 100.85156 90.65625 C 101.17456 90.308322 101.50535 89.967093 101.84375 89.632812 C 102.42539 89.0944 103.02727 88.575893 103.64844 88.078125 C 103.95338 87.817669 104.26332 87.56242 104.57812 87.3125 C 105.29509 86.774612 106.03517 86.263854 106.79688 85.78125 C 107.05465 85.606026 107.31508 85.434145 107.57812 85.265625 C 108.39245 84.782997 109.22899 84.332138 110.08594 83.914062 C 110.33413 83.783622 110.58414 83.65601 110.83594 83.53125 C 111.78024 83.092806 112.74724 82.694018 113.73438 82.335938 C 113.90041 82.267057 114.06709 82.199332 114.23438 82.132812 C 115.28234 81.768904 116.3511 81.450887 117.4375 81.179688 C 117.57263 81.142528 117.70807 81.105913 117.84375 81.070312 C 118.93559 80.81186 120.04345 80.60074 121.16406 80.4375 C 121.30707 80.41066 121.45031 80.384575 121.59375 80.359375 C 122.70895 80.210295 123.83504 80.108648 124.96875 80.054688 C 125.09883 80.041088 125.22902 80.028025 125.35938 80.015625 C 125.42226 79.919545 125.48477 79.823243 125.54688 79.726562 C 125.49256 79.823282 125.43781 79.919545 125.38281 80.015625 C 125.5675 80.001225 125.75238 79.988163 125.9375 79.976562 C 133.74638 79.754463 141.65977 81.79136 148.64062 85.820312 C 161.46426 93.238537 169.43016 106.38196 169.5918 119.92383 C 169.59505 120.00409 169.60667 120.08377 169.60938 120.16406 C 169.93857 106.18848 161.85597 92.465129 148.64062 84.820312 C 141.65977 80.79136 133.74638 78.754463 125.9375 78.976562 C 125.75238 78.988163 125.5675 79.001225 125.38281 79.015625 z M 125.38281 80.015625 L 125.35938 80.015625 L 125.35938 80.023438 L 125.38281 80.015625 z M 96 96 C 96.10078 96.18118 96.189262 96.36887 96.28125 96.554688 C 96.282469 96.552682 96.283937 96.550834 96.285156 96.548828 C 96.19182 96.364986 96.101218 96.179622 96 96 z M 96.521484 97.029297 C 96.534918 97.056117 96.548935 97.082623 96.5625 97.109375 C 96.5644 97.106375 96.568312 97.104762 96.570312 97.101562 C 96.55818 97.078002 96.545254 97.054854 96.533203 97.03125 C 96.529274 97.030993 96.525414 97.029552 96.521484 97.029297 z M 97.046875 98.054688 C 97.072475 98.109607 97.09968 98.16367 97.125 98.21875 C 97.1282 98.21395 97.129213 98.207925 97.132812 98.203125 C 97.110812 98.155605 97.08494 98.10994 97.0625 98.0625 C 97.0573 98.062248 97.052075 98.055088 97.046875 98.054688 z "
     id="path32" />
</svg>
