<?xml version="1.0" encoding="UTF-8" standalone="no"?>
<svg
   xmlns:dc="http://purl.org/dc/elements/1.1/"
   xmlns:cc="http://creativecommons.org/ns#"
   xmlns:rdf="http://www.w3.org/1999/02/22-rdf-syntax-ns#"
   xmlns:svg="http://www.w3.org/2000/svg"
   xmlns="http://www.w3.org/2000/svg"
   xmlns:sodipodi="http://sodipodi.sourceforge.net/DTD/sodipodi-0.dtd"
   xmlns:inkscape="http://www.inkscape.org/namespaces/inkscape"
   width="192"
   height="192"
   version="1.1"
   id="svg20"
   sodipodi:docname="google_android_auto.svg"
   inkscape:version="0.92.3 (2405546, 2018-03-11)">
  <metadata
     id="metadata26">
    <rdf:RDF>
      <cc:Work
         rdf:about="">
        <dc:format>image/svg+xml</dc:format>
        <dc:type
           rdf:resource="http://purl.org/dc/dcmitype/StillImage" />
      </cc:Work>
    </rdf:RDF>
  </metadata>
  <defs
     id="defs24">
    <filter
       inkscape:collect="always"
       style="color-interpolation-filters:sRGB"
       id="filter853"
       x="-0.0464"
       width="1.0928"
       y="-0.049714286"
       height="1.0994286">
      <feGaussianBlur
         inkscape:collect="always"
         stdDeviation="2.32"
         id="feGaussianBlur855" />
    </filter>
    <filter
       inkscape:collect="always"
       style="color-interpolation-filters:sRGB"
       id="filter869"
       x="-0.045"
       width="1.09"
       y="-0.051428572"
       height="1.1028571">
      <feGaussianBlur
         inkscape:collect="always"
         stdDeviation="3.0000001"
         id="feGaussianBlur871" />
    </filter>
  </defs>
  <sodipodi:namedview
     pagecolor="#ffffff"
     bordercolor="#666666"
     borderopacity="1"
     objecttolerance="10"
     gridtolerance="10"
     guidetolerance="10"
     inkscape:pageopacity="0"
     inkscape:pageshadow="2"
     inkscape:window-width="1920"
     inkscape:window-height="1018"
     id="namedview22"
     showgrid="false"
     inkscape:zoom="1"
     inkscape:cx="96"
     inkscape:cy="96"
     inkscape:window-x="0"
     inkscape:window-y="32"
     inkscape:window-maximized="1"
     inkscape:current-layer="svg20" />
  <path
     inkscape:connector-curvature="0"
     id="path2"
     d="M 87.00646,26.384795 18.071984,144.66213 c -2.911132,5.05287 -2.63834,9.5745 0.09,12.32319 C 20.071944,158.93599 23.163876,160 27.165388,160 H 164.76634 c 4.00151,0 7.09344,-1.15264 9.0034,-3.01457 2.81926,-2.83727 3.09209,-7.27031 0.091,-12.32435 L 104.92222,26.383743 c -4.91109,-8.51166 -12.914108,-8.51166 -17.916,0 z"
     style="opacity:0.2;stroke-width:4;filter:url(#filter869)" />
  <path
     inkscape:connector-curvature="0"
     id="path4"
     d="M 87.00646,22.384795 18.071984,140.66213 c -2.911132,5.05287 -2.63834,9.5745 0.09,12.32319 C 20.071944,154.93599 23.163876,156 27.165388,156 H 164.76634 c 4.00151,0 7.09344,-1.15264 9.0034,-3.01457 2.81926,-2.83727 3.09209,-7.27031 0.091,-12.32435 L 104.92222,22.383743 c -4.91109,-8.51166 -12.914108,-8.51166 -17.916,0 z"
     style="fill:#008fd7;stroke-width:4" />
  <path
     inkscape:connector-curvature="0"
     id="path6"
     d="m 164.76634,156 c 4.00151,0 7.09344,-1.15264 9.0034,-3.01457 2.81926,-2.83727 3.09209,-7.27031 0.091,-12.32435 L 104.92222,22.383744 C 102.39838,18.009541 99.330036,15.883272 96,16.004938 V 156 Z"
     style="opacity:0.2;fill:#ffffff;stroke-width:4" />
  <path
     inkscape:connector-curvature="0"
     id="path8"
     d="M 96,68 36,176.19531 40.734376,180 96,160 151.26562,180 156,176.19531 Z"
     style="opacity:0.2;fill-rule:evenodd;stroke-width:4;filter:url(#filter853)" />
  <path
     inkscape:connector-curvature="0"
     id="path10"
     d="M 96,64 36,172.19531 40.734376,176 96,156 151.26562,176 156,172.19531 Z"
     style="fill:#e4e4e4;fill-rule:evenodd;stroke-width:4" />
  <path
     inkscape:connector-curvature="0"
     id="path12"
     d="m 96,64 v 92 L 151.26562,176 156,172.19531 Z"
     style="opacity:0.1;fill-rule:evenodd;stroke-width:4" />
  <path
     style="opacity:0.2;fill:#ffffff;stroke-width:4"
     d="M 96 16 C 92.760124 16 89.508761 18.126983 87.007812 22.382812 L 18.070312 140.66406 C 16.567299 143.27285 15.976523 145.71055 16.082031 147.85938 C 16.17829 145.9644 16.795858 143.87614 18.070312 141.66406 L 87.007812 23.382812 C 89.508761 19.126983 92.760124 17 96 17 C 99.239876 17 102.46632 19.126984 104.92188 23.382812 L 173.85938 141.66406 C 175.1734 143.87693 175.81203 145.94846 175.91211 147.83203 C 176.02182 145.69253 175.41036 143.27599 173.85938 140.66406 L 104.92188 22.382812 C 102.46632 18.126983 99.239876 16 96 16 z "
     id="path14" />
  <path
     style="opacity:0.2;fill:#ffffff;fill-rule:evenodd;stroke-width:4"
     d="M 96 64 L 36 172.19531 L 36.382812 172.50391 L 96 65 L 155.61719 172.50391 L 156 172.19531 L 96 64 z "
     id="path16" />
</svg>
