<?xml version="1.0" encoding="UTF-8" standalone="no"?>
<svg
   xmlns:dc="http://purl.org/dc/elements/1.1/"
   xmlns:cc="http://creativecommons.org/ns#"
   xmlns:rdf="http://www.w3.org/1999/02/22-rdf-syntax-ns#"
   xmlns:svg="http://www.w3.org/2000/svg"
   xmlns="http://www.w3.org/2000/svg"
   xmlns:sodipodi="http://sodipodi.sourceforge.net/DTD/sodipodi-0.dtd"
   xmlns:inkscape="http://www.inkscape.org/namespaces/inkscape"
   width="192"
   height="192"
   version="1"
   id="svg22"
   sodipodi:docname="logo48x48.svg"
   inkscape:version="0.92.3 (2405546, 2018-03-11)">
  <metadata
     id="metadata28">
    <rdf:RDF>
      <cc:Work
         rdf:about="">
        <dc:format>image/svg+xml</dc:format>
        <dc:type
           rdf:resource="http://purl.org/dc/dcmitype/StillImage" />
        <dc:title></dc:title>
      </cc:Work>
    </rdf:RDF>
  </metadata>
  <defs
     id="defs26">
    <filter
       inkscape:collect="always"
       style="color-interpolation-filters:sRGB"
       id="filter953"
       x="-0.024"
       width="1.048"
       y="-0.024"
       height="1.048">
      <feGaussianBlur
         inkscape:collect="always"
         stdDeviation="1.6"
         id="feGaussianBlur955" />
    </filter>
    <filter
       inkscape:collect="always"
       style="color-interpolation-filters:sRGB"
       id="filter961"
       x="-0.015356712"
       width="1.0307134"
       y="-0.054899127"
       height="1.1097983">
      <feGaussianBlur
         inkscape:collect="always"
         stdDeviation="0.91500623"
         id="feGaussianBlur963" />
    </filter>
  </defs>
  <sodipodi:namedview
     pagecolor="#ffffff"
     bordercolor="#666666"
     borderopacity="1"
     objecttolerance="10"
     gridtolerance="10"
     guidetolerance="10"
     inkscape:pageopacity="0"
     inkscape:pageshadow="2"
     inkscape:window-width="1920"
     inkscape:window-height="1018"
     id="namedview24"
     showgrid="true"
     inkscape:zoom="4.33"
     inkscape:cx="70.745039"
     inkscape:cy="93.934113"
     inkscape:window-x="0"
     inkscape:window-y="32"
     inkscape:window-maximized="1"
     inkscape:current-layer="svg22">
    <inkscape:grid
       type="xygrid"
       id="grid874" />
  </sodipodi:namedview>
  <rect
     style="opacity:0.2;fill:#000000;fill-opacity:1;stroke-width:4;filter:url(#filter953)"
     id="rect947"
     ry="8"
     rx="8"
     y="17"
     x="16"
     height="160"
     width="160" />
  <rect
     width="160"
     height="160"
     x="16"
     y="16"
     rx="8"
     ry="8"
     id="rect2"
     style="fill:#222d32;fill-opacity:1;stroke-width:4" />
  <path
     style="font-style:normal;font-variant:normal;font-weight:normal;font-stretch:normal;font-size:medium;line-height:1.25;font-family:'Life is goofy';-inkscape-font-specification:'Life is goofy';letter-spacing:0px;word-spacing:0px;fill:#000000;fill-opacity:1;stroke:none;stroke-width:1.79276061;opacity:0.2;filter:url(#filter961)"
     d="m 37.783203,76.999381 c -0.510364,0.003 -1.030996,0.02887 -1.5625,0.07617 -2.126015,0.141903 -4.181051,0.638821 -6.162109,1.490234 -0.33823,0.141903 -0.845026,0.400888 -1.521485,0.779297 -0.628141,0.331105 -1.280572,0.734023 -1.957031,1.207031 -0.62814,0.473009 -1.208731,0.969927 -1.740234,1.490235 -0.483184,0.473009 -0.748555,0.921951 -0.796875,1.347656 -0.144955,1.087919 0.07252,1.939776 0.652343,2.554687 0.193273,0.189204 0.386804,0.331182 0.580079,0.425782 0.193273,0.0473 0.41075,0.1413 0.652343,0.283203 0.24159,0.189203 0.387227,0.425179 0.435547,0.708984 0.09664,0.283805 0.168477,0.56776 0.216797,0.851563 0.144955,0.473009 0.290591,0.921948 0.435547,1.347656 0.144956,0.425709 0.264688,0.899614 0.361328,1.419922 0.193275,0.898714 0.338907,1.844566 0.435547,2.83789 0.04832,0.804114 0.04832,1.584983 0,2.341797 0,0.709513 0.04789,1.465421 0.144531,2.269532 0.09664,0.662214 0.168477,1.301107 0.216797,1.916018 0.09664,0.56761 0.122539,1.18349 0.07422,1.8457 0,0.66221 -0.0259,1.32412 -0.07422,1.98633 0,0.61491 0.0259,1.2538 0.07422,1.91601 0.04831,0.33111 0.09621,0.66109 0.144531,0.99219 0.04832,0.28381 0.120157,0.59077 0.216797,0.92188 0.09663,0.1419 0.218325,0.42585 0.363281,0.85156 0.144954,0.4257 0.312585,0.68665 0.50586,0.78125 2.174333,0.5203 3.770467,0.47233 4.785156,-0.14258 1.014689,-0.61491 1.66712,-1.53776 1.957031,-2.76758 0.289911,-1.22982 0.289911,-2.62462 0,-4.18554 -0.241593,-1.60823 -0.580759,-3.097029 -1.015625,-4.468754 0.579822,-0.425709 1.232253,-0.638672 1.957031,-0.638672 0.773097,-0.04729 1.497369,-0.143253 2.173829,-0.285156 1.401236,-0.283805 2.68215,-0.780723 3.841796,-1.490235 0.918052,-0.520308 1.740067,-1.157248 2.464844,-1.914062 0.773096,-0.804113 1.399626,-1.680936 1.882813,-2.626953 0.241579,-0.473008 0.411162,-0.92195 0.507812,-1.347656 0.144939,-0.473008 0.338471,-0.944961 0.580078,-1.417969 0.241607,-0.520309 0.363281,-1.065202 0.363281,-1.632813 0.04834,-0.614911 0.02438,-1.182817 -0.07227,-1.703125 -0.24159,-1.986633 -0.991764,-3.594396 -2.248047,-4.824218 -1.207961,-1.229819 -2.730303,-2.104689 -4.566406,-2.625 -1.34084,-0.390225 -2.775548,-0.581131 -4.306641,-0.572266 z m 62.138672,4.013672 c -0.484988,-0.04582 -1.062675,0.02374 -1.732422,0.207031 -0.969975,0.274941 -1.616126,0.756 -1.939453,1.443359 -0.277142,0.641534 -0.323425,1.304831 -0.138672,1.992188 0.184755,0.641535 0.57727,1.214686 1.177734,1.71875 0.600462,0.458227 1.292906,0.664954 2.078126,0.619141 0.785222,-0.04582 1.409202,-0.434786 1.871092,-1.167969 C 101.74637,85.046546 102,84.266668 102,83.487662 c 0,-0.824829 -0.29992,-1.490078 -0.90039,-1.99414 -0.30023,-0.27494 -0.69275,-0.434647 -1.177735,-0.480469 z M 37.474609,84.16149 c 0.66136,0.01773 1.281506,0.115584 1.861329,0.292969 0.773096,0.189203 1.425528,0.496167 1.957031,0.921875 0.57981,0.425705 0.918975,0.922624 1.015625,1.490235 0.193274,0.851413 0.04764,1.208881 -0.435547,1.871093 -0.483187,0.614911 -1.159562,1.111829 -2.029297,1.490235 -0.821412,0.378408 -1.763165,0.637394 -2.826172,0.779296 -1.014689,0.141903 -1.982338,0.141903 -2.90039,0 -0.09664,-0.425707 -0.192423,-0.945635 -0.289063,-1.560546 -0.04832,-0.662211 -0.07227,-0.900714 -0.07227,-1.515625 0.04832,-0.662211 0.120157,-1.278094 0.216797,-1.845703 0.09664,-0.567611 0.242272,-1.016552 0.435547,-1.347657 0.724777,-0.331113 1.520892,-0.521069 2.390625,-0.568359 0.229513,-0.01183 0.455328,-0.01372 0.675781,-0.0078 z m 35.488282,2.841797 c -0.21104,-0.006 -0.428222,-0.0041 -0.648438,0.0078 -0.831925,0 -1.638887,0.120112 -2.421875,0.359375 -0.734054,0.191402 -1.321291,0.502939 -1.761719,0.933594 -0.24469,1.100566 -0.147464,2.153338 0.292969,3.158203 0.489371,0.957014 0.833554,1.960954 1.029297,3.013671 0.244669,1.579072 0.341895,3.206086 0.292969,4.88086 0,1.674767 -0.07389,3.397487 -0.220703,5.167967 -0.09789,1.77047 -0.220374,3.54007 -0.367188,5.31055 -0.146813,1.81832 -0.21875,3.63675 -0.21875,5.45508 0.44043,0.43065 1.002383,0.76659 1.6875,1.00586 0.685115,0.28709 1.394858,0.4785 2.128906,0.57421 0.782991,0.14358 1.541342,0.16798 2.275391,0.0723 0.734055,-0.0478 1.3699,-0.2168 1.908203,-0.50391 0.48938,-0.81346 0.685775,-1.57911 0.587891,-2.29687 -0.04892,-0.71777 -0.196708,-1.43459 -0.441406,-2.15235 -0.244687,-0.66991 -0.464415,-1.33985 -0.660157,-2.00976 -0.195734,-0.66991 -0.147134,-1.36427 0.146485,-2.08203 3.523451,0.957 6.630741,0.9326 9.322265,-0.0723 2.69152,-1.00486 4.552405,-2.87017 5.580078,-5.59765 0.342556,-1.00487 0.513672,-2.12893 0.513672,-3.37305 0.04896,-1.291966 -0.05022,-2.560568 -0.294922,-3.804688 -0.244684,-1.291969 -0.635524,-2.464863 -1.173828,-3.517578 -0.48937,-1.100567 -1.076605,-1.961924 -1.761719,-2.583984 -0.734051,-0.66991 -1.614908,-1.148442 -2.642578,-1.435547 -1.027676,-0.287105 -2.104924,-0.429688 -3.230468,-0.429688 -1.125548,0 -2.249454,0.142583 -3.375,0.429688 C 78.384219,87.752308 77.38086,88.063842 76.5,88.446647 76.108505,87.920298 75.521269,87.537472 74.738281,87.298209 74.187743,87.118784 73.59601,87.021234 72.962891,87.003287 Z m -15.679688,0.0078 c -0.696088,-0.03505 -1.40491,0.0062 -2.125,0.123047 -1.39218,0.186954 -2.664257,0.794014 -3.816406,1.822265 -0.768097,0.701078 -1.295949,1.496732 -1.583985,2.384766 -0.240044,0.841294 -0.240045,1.634996 0,2.382812 0.288036,0.747818 0.815888,1.333258 1.583985,1.753907 0.816105,0.420653 1.896063,0.536555 3.240234,0.349609 0.384037,-0.32717 0.695502,-0.700449 0.935547,-1.121094 0.240015,-0.467387 0.480658,-0.887809 0.720703,-1.261719 0.288038,-0.420657 0.599503,-0.725163 0.935547,-0.912109 0.384047,-0.233699 0.889593,-0.280841 1.513672,-0.140625 0.432057,0.09347 0.792043,0.350836 1.080078,0.771484 0.288035,0.373908 0.502463,0.84148 0.646484,1.402344 0.144024,0.560862 0.192532,1.144351 0.144532,1.751953 -0.04801,0.607603 -0.215868,0.645896 -0.503906,1.113282 -2.016257,-0.373916 -4.00831,-0.421055 -5.976563,-0.140625 -1.920246,0.233694 -3.552313,0.819133 -4.896484,1.753906 -0.91212,1.261947 -1.296366,3.256997 -1.152344,4.986327 0.144016,1.72933 0.623349,3.22439 1.439453,4.48633 1.104142,0.93478 2.281136,1.42595 3.529297,1.47265 1.296167,0.0467 2.616766,-0.0711 3.960937,-0.35156 1.344171,-0.23369 2.687079,-0.46747 4.03125,-0.70117 1.392179,-0.28043 2.712779,-0.25686 3.960938,0.0703 1.200155,-0.74781 2.017165,-1.8696 2.449219,-3.36523 0.480076,-1.49563 0.672191,-3.08303 0.576171,-4.76563 -0.04801,-1.729327 -0.288652,-3.412974 -0.720703,-5.048824 -0.432057,-1.63585 -0.935645,-2.967846 -1.511718,-3.996094 -0.576075,-1.028251 -1.439652,-1.939819 -2.591797,-2.734375 -1.152149,-0.794556 -2.426183,-1.378045 -3.81836,-1.751953 -0.672087,-0.186959 -1.354692,-0.29893 -2.050781,-0.333984 z m 99.347657,0.992187 c -0.5916,0.01157 -1.18782,0.05163 -1.79102,0.121094 -1.15998,0.138933 -2.08916,0.371137 -2.78515,0.695312 -0.6496,0.277864 -1.2518,0.74032 -1.8086,1.388672 -0.55679,0.602042 -0.99746,1.320699 -1.32226,2.154297 -0.3248,0.833596 -0.51024,1.712453 -0.55664,2.638672 -0.0464,0.926219 0.11513,1.829078 0.48633,2.708985 0.4176,1.065151 1.1135,1.78381 2.08789,2.154296 0.97438,0.370495 2.04117,0.648745 3.20117,0.833985 1.15999,0.18523 2.32049,0.39344 3.48047,0.625 1.20639,0.23156 2.22731,0.76405 3.0625,1.59766 -0.6496,1.48194 -1.46116,2.2927 -2.43555,2.43164 -0.97439,0.13893 -1.97335,-0.001 -2.99414,-0.41797 -1.02079,-0.4168 -2.0178,-0.90325 -2.99219,-1.45899 -0.92798,-0.60205 -1.69368,-0.88032 -2.29687,-0.83398 -1.0672,0.0926 -1.94854,0.67313 -2.64453,1.73828 -0.64958,1.01885 -1.09026,2.19995 -1.32227,3.54297 0.232,0.2779 0.51114,0.44006 0.83594,0.48633 0.3248,0.0463 0.64981,0.0463 0.97461,0 0.3712,-0.0926 0.71817,-0.18667 1.04297,-0.2793 0.3712,-0.13893 0.74208,-0.20703 1.11328,-0.20703 1.06718,0.83359 2.31943,1.41215 3.75781,1.73633 1.43839,0.32416 2.87803,0.41627 4.31641,0.27734 1.48478,-0.13893 2.8766,-0.48724 4.17578,-1.04297 1.29919,-0.60205 2.36598,-1.3648 3.20117,-2.29101 0.83519,-0.92622 1.34566,-2.01524 1.53125,-3.26563 0.18561,-1.2967 -0.13941,-2.73206 -0.97461,-4.306639 -0.23199,-0.555722 -0.71854,-0.950077 -1.46094,-1.181641 -0.74239,-0.277858 -1.62374,-0.462056 -2.64453,-0.554687 -0.97439,-0.138933 -1.99531,-0.255026 -3.0625,-0.347656 -1.02079,-0.09263 -1.97191,-0.230781 -2.85352,-0.416016 -0.83518,-0.185243 -1.50914,-0.463498 -2.01953,-0.833984 -0.5104,-0.37049 -0.69584,-0.926996 -0.55664,-1.667969 0.0928,-0.787286 0.41782,-1.249739 0.97461,-1.388672 0.5568,-0.185233 1.18292,-0.209245 1.87891,-0.07031 0.74239,0.09261 1.46221,0.254765 2.1582,0.486329 0.7424,0.185232 1.34461,0.255284 1.8086,0.208984 0.3248,-0.04633 0.67372,-0.16242 1.04492,-0.347656 0.37119,-0.231556 0.69621,-0.485809 0.97461,-0.763672 0.32479,-0.324176 0.55611,-0.67248 0.69531,-1.042969 0.18562,-0.416797 0.23343,-0.833201 0.14062,-1.25 -0.1392,-0.555732 -0.67357,-0.972136 -1.60156,-1.25 -0.8816,-0.324189 -1.90252,-0.51034 -3.0625,-0.55664 -0.57999,-0.04632 -1.16622,-0.06236 -1.75781,-0.05078 z m -42.63477,1 c -0.95263,-0.01772 -1.90478,0.04374 -2.85742,0.185547 -1.22312,0.189085 -2.37504,0.542523 -3.45703,1.0625 -1.08199,0.519977 -1.97598,1.182726 -2.68164,1.986328 0.14114,1.229039 0.2827,2.600621 0.42383,4.113281 0.18818,1.465392 0.37628,3.000219 0.56445,4.607417 0.18817,1.55994 0.35301,3.11977 0.49414,4.67969 0.14114,1.51267 0.25747,2.93229 0.35156,4.25586 1.22313,0.14181 2.47006,0.14181 3.74024,0 1.27017,-0.14181 2.51711,-0.23789 3.74023,-0.28515 0.0471,-1.08723 -0.11779,-2.10343 -0.49414,-3.04883 -0.32931,-0.94542 -0.72879,-1.86749 -1.19922,-2.76563 -0.42338,-0.94541 -0.84613,-1.91356 -1.26953,-2.90625 -0.42338,-0.992681 -0.68325,-2.10299 -0.77734,-3.332028 0.23521,-0.425438 0.54162,-0.85191 0.91797,-1.277344 0.37635,-0.472699 0.7991,-0.826137 1.26953,-1.0625 0.47043,-0.283622 0.96494,-0.425781 1.48242,-0.425781 0.56452,0 1.12884,0.213238 1.69336,0.638672 -0.18817,1.654473 -0.11836,2.92998 0.21094,3.828124 0.32931,0.898147 0.77727,1.489817 1.34179,1.773437 0.61157,0.28363 1.27092,0.30668 1.97657,0.0703 0.7527,-0.28362 1.41009,-0.73313 1.97461,-1.347653 0.56452,-0.661788 0.98727,-1.441699 1.26953,-2.339844 0.32932,-0.945413 0.37781,-1.961604 0.14258,-3.048828 -0.23522,-1.087226 -0.75301,-2.009293 -1.55274,-2.765625 -0.75269,-0.756328 -1.66995,-1.346047 -2.75195,-1.771484 -1.082,-0.425427 -2.2824,-0.686699 -3.59961,-0.78125 -0.31754,-0.02363 -0.63558,-0.03706 -0.95313,-0.04297 z m 28.3086,0.0078 c -0.56699,0.03628 -1.14166,0.163168 -1.72071,0.380859 -1.1581,0.435385 -2.02642,0.990706 -2.60546,1.667969 -0.14477,1.015896 -0.0968,1.959309 0.14453,2.830078 0.28952,0.822392 0.5796,1.644405 0.86914,2.466797 0.28951,0.822392 0.50757,1.644405 0.65234,2.466797 0.14477,0.822392 0.0468,1.69414 -0.29101,2.61328 -0.14476,0.29026 -0.40889,0.62862 -0.79493,1.01562 -0.33778,0.38701 -0.77194,0.72538 -1.30273,1.01563 -0.48254,0.24187 -1.03871,0.41105 -1.66602,0.50781 -0.57904,0.0484 -1.15728,-0.0711 -1.73632,-0.36133 -0.86856,-0.38701 -1.42278,-1.06569 -1.66407,-2.0332 -0.19303,-1.0159 -0.26701,-1.959306 -0.21875,-2.830076 0,-0.48376 0.122,-1.039083 0.36328,-1.667969 0.28952,-0.628888 0.57767,-1.25783 0.86719,-1.886718 0.28952,-0.677264 0.50758,-1.330096 0.65235,-1.958985 0.19301,-0.677263 0.19301,-1.306205 0,-1.886719 -0.14477,-0.483748 -0.48288,-0.847953 -1.01368,-1.089843 -0.53079,-0.290246 -1.13304,-0.483317 -1.80859,-0.580078 -0.62729,-0.09676 -1.27952,-0.09676 -1.95508,0 -0.6273,0.09675 -1.1335,0.289821 -1.51953,0.580078 -0.48253,1.596408 -0.89268,3.266278 -1.23047,5.007812 -0.28952,1.69316 -0.38557,3.363029 -0.28906,5.007808 0.0482,1.59641 0.33639,3.09514 0.86719,4.49805 0.57904,1.40291 1.44737,2.58717 2.60547,3.55469 0.77206,0.67725 1.76239,1.13701 2.96875,1.3789 1.25459,0.29026 2.55709,0.36388 3.9082,0.21875 1.35111,-0.0967 2.62959,-0.36344 3.83594,-0.79882 1.20634,-0.48377 2.17071,-1.1366 2.89453,-1.95899 0.72379,-0.77401 1.20794,-1.64381 1.44922,-2.61133 0.28953,-1.0159 0.43359,-2.05682 0.43359,-3.12109 0,-1.11265 -0.072,-2.249131 -0.2168,-3.410155 -0.14474,-1.161024 -0.24079,-2.297511 -0.28906,-3.410156 -0.0482,-1.064274 -0.0242,-2.057421 0.0723,-2.976563 0.14476,-0.967521 -0.0493,-1.789534 -0.58008,-2.466797 -0.55492,-0.145127 -1.11466,-0.198391 -1.68164,-0.162109 z m -42.363284,1.99414 c -0.88991,-0.04833 -1.780014,0.192972 -2.669922,0.72461 -0.840468,0.483307 -1.581899,1.161296 -2.224609,2.03125 -0.642717,0.821618 -0.989628,1.667155 -1.039063,2.537109 -0.04944,0.676629 0.124018,1.376603 0.519532,2.101563 0.395504,0.676628 0.643297,1.378553 0.742187,2.103518 0.04943,0.72495 -0.0249,1.52067 -0.222656,2.39062 -0.197755,0.86995 -0.37121,1.74138 -0.519531,2.61133 -0.148324,0.82163 -0.197871,1.61928 -0.148438,2.39258 0.09888,0.72496 0.495351,1.37706 1.1875,1.95703 1.038226,0.19332 1.975939,0.19332 2.816406,0 0.889911,-0.14499 1.656118,-0.41218 2.298828,-0.79883 0.64271,-0.38665 1.16308,-0.84532 1.55859,-1.37695 0.39551,-0.57998 0.6433,-1.16027 0.74219,-1.74024 0.0494,-0.43498 -1.2e-4,-0.86971 -0.14844,-1.30468 -0.0989,-0.4833 -0.24755,-0.96591 -0.44531,-1.44922 -0.19776,-0.53164 -0.39599,-1.088 -0.59375,-1.66797 -0.19774,-0.57997 -0.32163,-1.23207 -0.37109,-1.957032 -0.0494,-0.676629 1.2e-4,-1.352668 0.14844,-2.029297 0.14831,-0.676629 0.29699,-1.328732 0.44531,-1.957031 0.19774,-0.6283 0.32163,-1.208597 0.37109,-1.740235 0.0495,-0.579968 -0.0497,-1.088462 -0.29687,-1.523437 -0.54383,-0.869955 -1.26049,-1.304688 -2.150394,-1.304688 z m -18.451172,2.179688 c 0.88086,-0.04785 1.810327,0.31056 2.789063,1.076172 0.440438,0.382804 0.759336,0.908215 0.955078,1.578125 0.244669,0.622059 0.341895,1.316419 0.292969,2.082031 0,0.71776 -0.145831,1.436538 -0.439453,2.154294 -0.244682,0.71777 -0.612196,1.33888 -1.101563,1.86524 -0.831925,0.0478 -1.493053,0.14355 -1.982422,0.28711 -0.440432,0.0957 -0.928493,0.0957 -1.466797,0 -1.125544,-0.28711 -1.957787,-0.79006 -2.496093,-1.50782 -0.48937,-0.71776 -0.759661,-1.483409 -0.808594,-2.296871 -0.04894,-0.861315 0.09885,-1.698257 0.441406,-2.511719 0.391493,-0.861312 0.904835,-1.531258 1.541016,-2.009765 0.636177,-0.478507 1.394528,-0.716797 2.27539,-0.716797 z m -24.5,7.917972 c 0.603077,-0.0175 1.19346,0.0434 1.769532,0.18359 0.816105,0.14022 1.414778,0.35043 1.798828,0.63086 -0.144019,0.56087 -0.528265,1.52843 -1.152344,1.90234 -0.576075,0.3739 -1.24753,0.63127 -2.015625,0.77149 -0.720094,0.14021 -1.464327,0.14021 -2.232422,0 -0.720095,-0.14022 -1.272203,-0.42115 -1.65625,-0.8418 0,-0.65434 0.289161,-1.64548 0.865235,-1.97266 0.576073,-0.37391 1.247523,-0.58416 2.015624,-0.63086 0.204026,-0.0234 0.406397,-0.0371 0.607422,-0.043 z"
     id="path924"
     inkscape:connector-curvature="0" />
  <path
     style="opacity:0.1;fill:#ffffff;stroke-width:4"
     d="M 24 16 C 19.568 16 16 19.568 16 24 L 16 25 C 16 20.568 19.568 17 24 17 L 168 17 C 172.432 17 176 20.568 176 25 L 176 24 C 176 19.568 172.432 16 168 16 L 24 16 z "
     id="path4" />
  <path
     inkscape:connector-curvature="0"
     id="path852"
     style="font-style:normal;font-variant:normal;font-weight:normal;font-stretch:normal;font-size:medium;line-height:1.25;font-family:'Life is goofy';-inkscape-font-specification:'Life is goofy';letter-spacing:0px;word-spacing:0px;fill:#d13838;fill-opacity:1;stroke:none;stroke-width:1.79276061"
     d="m 35.205065,97.077239 c 0.434866,1.371725 0.773096,2.861702 1.014689,4.469931 0.289911,1.56093 0.289911,2.9563 0,4.18612 -0.289911,1.22982 -0.942211,2.15219 -1.9569,2.7671 -1.014689,0.61491 -2.6092,0.66221 -4.783533,0.14191 -0.193275,-0.0946 -0.36239,-0.35476 -0.507344,-0.78046 -0.144956,-0.42571 -0.265752,-0.70952 -0.362387,-0.85142 -0.09664,-0.33111 -0.169115,-0.63856 -0.217434,-0.92237 -0.04832,-0.3311 -0.09664,-0.6622 -0.144955,-0.99331 -0.04832,-0.66221 -0.07248,-1.30077 -0.07248,-1.91568 0.04832,-0.66221 0.07248,-1.32443 0.07248,-1.98664 0.04832,-0.66221 0.02416,-1.277117 -0.07248,-1.844732 -0.04832,-0.614908 -0.120798,-1.253469 -0.217434,-1.915683 -0.09664,-0.804111 -0.144957,-1.560924 -0.144957,-2.270437 0.04832,-0.756814 0.04832,-1.537278 0,-2.341391 -0.09664,-0.993325 -0.241592,-1.939344 -0.434867,-2.838058 -0.09664,-0.520308 -0.217432,-0.993316 -0.362388,-1.419025 -0.144956,-0.425708 -0.289912,-0.875066 -0.434867,-1.348075 -0.04832,-0.283803 -0.120798,-0.567607 -0.217434,-0.851412 -0.04832,-0.283805 -0.193275,-0.520309 -0.434865,-0.709512 -0.241593,-0.141903 -0.459027,-0.236504 -0.6523,-0.283805 -0.193275,-0.0946 -0.386549,-0.236505 -0.579822,-0.425708 -0.579822,-0.614911 -0.797255,-1.466326 -0.6523,-2.554245 0.04832,-0.425705 0.314072,-0.875062 0.797256,-1.348071 0.531503,-0.520308 1.111325,-1.016966 1.739465,-1.489975 0.676459,-0.473008 1.32876,-0.875065 1.956901,-1.20617 0.676459,-0.378409 1.183803,-0.638564 1.522033,-0.780467 1.981058,-0.851413 4.034595,-1.348072 6.16061,-1.489975 2.126014,-0.189195 4.082915,-0.02364 5.870702,0.496659 1.836103,0.520311 3.358136,1.395376 4.566097,2.625195 1.256283,1.229822 2.00522,2.83805 2.24681,4.824683 0.09665,0.520308 0.120805,1.087918 0.07247,1.702829 0,0.567611 -0.120803,1.11157 -0.36241,1.631879 -0.241607,0.473008 -0.434881,0.946016 -0.57982,1.419024 -0.09665,0.425706 -0.265763,0.875063 -0.507342,1.348071 -0.483187,0.946017 -1.111328,1.821082 -1.884424,2.625195 -0.724777,0.756814 -1.546192,1.395375 -2.464244,1.915684 -1.159646,0.709511 -2.440087,1.206169 -3.841324,1.489974 -0.676459,0.141903 -1.401236,0.2365 -2.174333,0.283792 -0.724778,0 -1.377078,0.212854 -1.9569,0.638563 z m 7.102821,-11.21029 c -0.09665,-0.567611 -0.434878,-1.06427 -1.014688,-1.489975 -0.531503,-0.425708 -1.183803,-0.733164 -1.9569,-0.922367 -0.773097,-0.236513 -1.618671,-0.331111 -2.536722,-0.283792 -0.869733,0.04729 -1.666989,0.236496 -2.391766,0.567609 -0.193275,0.331105 -0.33823,0.780463 -0.434867,1.348074 -0.09664,0.567609 -0.169115,1.182518 -0.217434,1.844729 0,0.614911 0.02416,0.853854 0.07248,1.516065 0.09664,0.614911 0.193276,1.135221 0.289913,1.560929 0.918052,0.141902 1.884422,0.141902 2.899111,0 1.063007,-0.141903 2.005217,-0.402058 2.826629,-0.780466 0.869735,-0.378406 1.546195,-0.875064 2.029382,-1.489975 0.483184,-0.662212 0.628139,-1.019406 0.434865,-1.870819 z"
     sodipodi:nodetypes="ccscccccccccccccscccccccccccccccccccccccccccccccccccccc" />
  <path
     inkscape:connector-curvature="0"
     id="path854"
     style="font-style:normal;font-variant:normal;font-weight:normal;font-stretch:normal;font-size:medium;line-height:1.25;font-family:'Life is goofy';-inkscape-font-specification:'Life is goofy';letter-spacing:0px;word-spacing:0px;fill:#ff9249;fill-opacity:1;stroke:none;stroke-width:1.7763046"
     d="m 64.951622,108.00846 c -1.248159,-0.32717 -2.568328,-0.35053 -3.960507,-0.0701 -1.344171,0.2337 -2.688342,0.46739 -4.032513,0.70108 -1.344171,0.28043 -2.664339,0.39728 -3.960506,0.35055 -1.248161,-0.0467 -2.424313,-0.53749 -3.528455,-1.47227 -0.816104,-1.26194 -1.296164,-2.75757 -1.44018,-4.4869 -0.144022,-1.72933 0.240027,-3.724729 1.152147,-4.986672 1.344171,-0.934773 2.976379,-1.519006 4.896625,-1.7527 1.968253,-0.28043 3.960507,-0.233687 5.976763,0.140229 0.288038,-0.467386 0.45606,-0.505112 0.504066,-1.112715 0.048,-0.607602 -1.2e-5,-1.191834 -0.144035,-1.752696 -0.144021,-0.560864 -0.36005,-1.02825 -0.648085,-1.402158 -0.288035,-0.420649 -0.64808,-0.677711 -1.080137,-0.771186 -0.624079,-0.140216 -1.128143,-0.09347 -1.51219,0.140229 -0.336044,0.186946 -0.648085,0.490747 -0.936123,0.911404 -0.240045,0.37391 -0.480075,0.794558 -0.72009,1.261945 -0.240045,0.420645 -0.552086,0.794553 -0.936123,1.121723 -1.344171,0.186946 -2.424308,0.0701 -3.240413,-0.350553 -0.768097,-0.420649 -1.296164,-1.004882 -1.584199,-1.7527 -0.240045,-0.747816 -0.240045,-1.542371 0,-2.383665 0.288035,-0.888034 0.816102,-1.68259 1.584199,-2.383668 1.152149,-1.028251 2.424313,-1.635853 3.816493,-1.822807 1.44018,-0.233702 2.832357,-0.163594 4.176531,0.210324 1.392177,0.373908 2.664339,0.95814 3.816488,1.752696 1.152145,0.794556 2.016256,1.705959 2.592331,2.73421 0.576073,1.028248 1.080137,2.360297 1.512194,3.996147 0.432051,1.63585 0.672082,3.31844 0.720091,5.047771 0.09602,1.682592 -0.096,3.271712 -0.576076,4.767342 -0.432054,1.49563 -1.248158,2.61736 -2.448313,3.36517 z m -11.44946,-5.25809 c 0.384047,0.42065 0.936118,0.70108 1.656213,0.8413 0.768095,0.14021 1.51219,0.14021 2.232284,0 0.768095,-0.14022 1.440181,-0.39728 2.016256,-0.77118 0.624079,-0.37391 1.008128,-1.34107 1.152147,-1.90194 -0.38405,-0.28043 -0.984127,-0.49075 -1.800232,-0.63097 -0.768095,-0.18694 -1.560195,-0.23369 -2.376299,-0.14023 -0.768101,0.0467 -1.440187,0.25706 -2.01626,0.63097 -0.576073,0.32718 -0.864109,1.31771 -0.864109,1.97205 z"
     sodipodi:nodetypes="ccccccccccccccccccccccccscccccccccccccc" />
  <path
     inkscape:connector-curvature="0"
     id="path856"
     style="font-style:normal;font-variant:normal;font-weight:normal;font-stretch:normal;font-size:medium;line-height:1.25;font-family:'Life is goofy';-inkscape-font-specification:'Life is goofy';letter-spacing:0px;word-spacing:0px;fill:#61a52b;fill-opacity:1;stroke:none;stroke-width:1.81465101"
     d="m 76.572651,106.89879 q -0.440428,1.07664 -0.146826,2.08151 0.293613,1.00486 0.660643,2.00973 0.367048,1.07663 0.440433,2.15328 0.146827,1.07664 -0.587243,2.29683 -0.807455,0.43066 -1.908537,0.50243 -1.101073,0.14357 -2.275559,-0.0718 -1.101073,-0.14357 -2.128745,-0.57421 -1.027675,-0.35889 -1.68832,-1.00487 0,-2.72749 0.22022,-5.45498 0.220221,-2.65571 0.367048,-5.31142 0.22022,-2.65572 0.22022,-5.167878 0.07339,-2.512161 -0.293613,-4.880768 -0.293614,-1.579076 -1.027671,-3.014597 -0.660649,-1.507297 -0.293614,-3.158147 0.660641,-0.645982 1.761722,-0.933086 1.174482,-0.358894 2.42237,-0.358894 1.321293,-0.07176 2.42237,0.287091 1.174482,0.358895 1.761725,1.148418 1.32129,-0.574207 3.00961,-0.933089 1.68832,-0.430658 3.376641,-0.430658 1.688316,0 3.22983,0.430658 1.541505,0.430657 2.642582,1.435521 1.027671,0.93309 1.761726,2.58394 0.807455,1.579072 1.174482,3.517026 0.367048,1.866179 0.293614,3.804128 0,1.866179 -0.513834,3.373475 -1.54151,4.09123 -5.57879,5.59853 -4.037286,1.5073 -9.322463,0.0718 z m 7.707544,-13.637447 q -1.468104,-1.148418 -2.789394,-1.076643 -1.321293,0 -2.275559,0.71776 -0.954271,0.717761 -1.54151,2.009729 -0.513837,1.220193 -0.440432,2.512165 0.0734,1.220193 0.807455,2.296833 0.80746,1.076633 2.495776,1.507293 0.807456,0.14356 1.468105,0 0.734053,-0.21533 1.981941,-0.28709 0.734051,-0.78953 1.101073,-1.866177 0.440433,-1.076639 0.440433,-2.153279 0.07339,-1.148418 -0.293614,-2.081507 -0.293613,-1.004865 -0.95427,-1.579072 z" />
  <path
     style="font-style:normal;font-variant:normal;font-weight:normal;font-stretch:normal;font-size:medium;line-height:1.25;font-family:'Life is goofy';-inkscape-font-specification:'Life is goofy';letter-spacing:0px;word-spacing:0px;opacity:1;fill:#2d73e2;fill-opacity:1;stroke:none;stroke-width:1.72523546"
     d="M 99.921875 80.013672 C 99.436887 79.96785 98.8592 80.037407 98.189453 80.220703 C 97.219478 80.495644 96.573327 80.976703 96.25 81.664062 C 95.972858 82.305596 95.926575 82.968893 96.111328 83.65625 C 96.296083 84.297785 96.688598 84.870936 97.289062 85.375 C 97.889524 85.833227 98.581968 86.039954 99.367188 85.994141 C 100.15241 85.948318 100.77639 85.559355 101.23828 84.826172 C 101.74637 84.047165 102 83.267287 102 82.488281 C 102 81.663452 101.70008 80.998203 101.09961 80.494141 C 100.79938 80.219201 100.40686 80.059494 99.921875 80.013672 z M 99.941406 90.005859 C 99.051496 89.957529 98.161392 90.198831 97.271484 90.730469 C 96.431016 91.213776 95.689585 91.891765 95.046875 92.761719 C 94.404158 93.583337 94.057246 94.428874 94.007812 95.298828 C 93.958373 95.975457 94.13183 96.675431 94.527344 97.400391 C 94.922848 98.077019 95.170641 98.778944 95.269531 99.503906 C 95.318962 100.22886 95.244627 101.02458 95.046875 101.89453 C 94.84912 102.76448 94.675665 103.63591 94.527344 104.50586 C 94.37902 105.32749 94.329473 106.12514 94.378906 106.89844 C 94.477783 107.6234 94.874257 108.2755 95.566406 108.85547 C 96.604632 109.04879 97.542345 109.04879 98.382812 108.85547 C 99.272723 108.71048 100.03893 108.44329 100.68164 108.05664 C 101.32435 107.66999 101.84472 107.21132 102.24023 106.67969 C 102.63574 106.09971 102.88353 105.51942 102.98242 104.93945 C 103.03185 104.50447 102.9823 104.06974 102.83398 103.63477 C 102.7351 103.15147 102.58643 102.66886 102.38867 102.18555 C 102.19091 101.65391 101.99268 101.09755 101.79492 100.51758 C 101.59718 99.937613 101.47329 99.285506 101.42383 98.560547 C 101.3744 97.883918 101.42395 97.207879 101.57227 96.53125 C 101.72058 95.854621 101.86926 95.202518 102.01758 94.574219 C 102.21532 93.945919 102.33921 93.365622 102.38867 92.833984 C 102.43813 92.254016 102.33901 91.745522 102.0918 91.310547 C 101.54797 90.440592 100.83131 90.005859 99.941406 90.005859 z "
     id="path921" />
  <path
     inkscape:connector-curvature="0"
     id="path860"
     style="font-style:normal;font-variant:normal;font-weight:normal;font-stretch:normal;font-size:medium;line-height:1.25;font-family:'Life is goofy';-inkscape-font-specification:'Life is goofy';letter-spacing:0px;word-spacing:0px;fill:#a32ccb;fill-opacity:1;stroke:none;stroke-width:1.76838422"
     d="m 115.93761,94.428827 q -0.84678,-0.638151 -1.69356,-0.638151 -0.77622,0 -1.48187,0.425433 -0.70564,0.354544 -1.27017,1.063593 -0.56452,0.638151 -0.91734,1.276307 0.14113,1.843558 0.77621,3.332584 0.63509,1.489027 1.27017,2.907147 0.70564,1.34721 1.19961,2.76534 0.56452,1.41811 0.49395,3.04895 -1.83468,0.0709 -3.73994,0.28361 -1.90527,0.21272 -3.73996,0 -0.14114,-1.98536 -0.35284,-4.25436 -0.2117,-2.33989 -0.49395,-4.679794 -0.28225,-2.410805 -0.56452,-4.608892 -0.21169,-2.268991 -0.4234,-4.112549 1.05849,-1.205403 2.68148,-1.985368 1.62299,-0.779965 3.45768,-1.063593 1.90527,-0.283611 3.81053,-0.141826 1.97582,0.141826 3.59881,0.779966 1.62301,0.638156 2.75205,1.772649 1.1996,1.134498 1.55243,2.765338 0.35285,1.630835 -0.14114,3.048956 -0.42339,1.347217 -1.27018,2.3399 -0.84677,0.92178 -1.97583,1.347213 -1.05847,0.35455 -1.97582,-0.0709 -0.84678,-0.425429 -1.34075,-1.772645 -0.49394,-1.347217 -0.21168,-3.828927 z" />
  <path
     inkscape:connector-curvature="0"
     id="path862"
     style="font-style:normal;font-variant:normal;font-weight:normal;font-stretch:normal;font-size:medium;line-height:1.25;font-family:'Life is goofy';-inkscape-font-specification:'Life is goofy';letter-spacing:0px;word-spacing:0px;fill:#e54c8d;fill-opacity:1;stroke:none;stroke-width:1.81180954"
     d="m 143.98668,88.174141 q 0.79619,1.015895 0.57905,2.467176 -0.14478,1.378713 -0.0724,2.975123 0.0724,1.668969 0.28952,3.410504 Q 145,98.76848 145,100.43745 q 0,1.59641 -0.4343,3.12026 -0.36192,1.45128 -1.44761,2.6123 -1.08572,1.23358 -2.89524,1.95923 -1.80952,0.65308 -3.83619,0.7982 -2.02667,0.21769 -3.90856,-0.21769 -1.80953,-0.36284 -2.96762,-1.37872 -1.73715,-1.45127 -2.60572,-3.55563 -0.79619,-2.10436 -0.86857,-4.498973 -0.14477,-2.467175 0.28952,-5.006914 0.50668,-2.612301 1.23048,-5.006914 0.57905,-0.435385 1.52,-0.58051 1.01334,-0.145142 1.95428,0 1.01333,0.145142 1.80952,0.58051 0.79619,0.362835 1.01334,1.088458 0.28952,0.87077 0,1.886665 -0.21715,0.943333 -0.65143,1.959228 -0.43429,0.943333 -0.86857,1.886666 -0.36193,0.943328 -0.36193,1.668968 -0.0724,1.306155 0.21715,2.830006 0.36193,1.45127 1.66476,2.03179 0.86857,0.43538 1.73714,0.36283 0.94096,-0.14514 1.66477,-0.50795 0.79618,-0.43538 1.30285,-1.01589 0.57905,-0.58051 0.79619,-1.0159 0.50667,-1.378715 0.28952,-2.612303 -0.21715,-1.233587 -0.65142,-2.467175 -0.4343,-1.233588 -0.86858,-2.467176 -0.36193,-1.306154 -0.14478,-2.829998 0.86857,-1.015895 2.60572,-1.668972 1.73714,-0.653073 3.4019,-0.217693 z" />
  <path
     inkscape:connector-curvature="0"
     id="path864"
     style="font-style:normal;font-variant:normal;font-weight:normal;font-stretch:normal;font-size:medium;line-height:1.25;font-family:'Life is goofy';-inkscape-font-specification:'Life is goofy';letter-spacing:0px;word-spacing:0px;fill:#2de0d2;fill-opacity:1;stroke:none;stroke-width:1.73831987"
     d="m 165.97499,98.031255 q 1.2528,2.361865 0.97439,4.306915 -0.27839,1.87559 -1.53118,3.26492 -1.25278,1.38932 -3.20157,2.29239 -1.94877,0.8336 -4.17595,1.042 -2.15757,0.2084 -4.31516,-0.27785 -2.15757,-0.48627 -3.75835,-1.73666 -0.5568,0 -1.1136,0.2084 -0.48719,0.13894 -1.04399,0.27785 -0.48719,0.0695 -0.97439,0 -0.48719,-0.0694 -0.83519,-0.48626 0.34802,-2.01452 1.32239,-3.54279 1.04399,-1.59773 2.64478,-1.73665 0.90479,-0.0695 2.29677,0.83358 1.46158,0.8336 2.99277,1.4588 1.53118,0.6252 2.99277,0.4168 1.46158,-0.2084 2.43597,-2.43132 -1.25278,-1.2504 -3.06237,-1.59774 -1.73997,-0.347339 -3.47996,-0.625188 -1.73999,-0.277853 -3.20157,-0.833598 -1.46158,-0.55573 -2.08798,-2.153458 -0.55679,-1.319859 -0.48719,-2.709187 0.0696,-1.389328 0.55679,-2.639722 0.4872,-1.250398 1.32239,-2.153461 0.83519,-0.972529 1.80958,-1.389325 1.04399,-0.486264 2.78397,-0.694664 1.80958,-0.208399 3.54957,-0.06945 1.73997,0.06945 3.06237,0.555733 1.39198,0.416796 1.60078,1.250394 0.13921,0.625199 -0.13922,1.250394 -0.2088,0.555734 -0.69599,1.041998 -0.4176,0.416795 -0.97439,0.764129 -0.55679,0.277854 -1.04399,0.347346 -0.69598,0.06945 -1.80958,-0.208399 -1.04399,-0.347346 -2.15758,-0.486265 -1.04399,-0.208399 -1.87918,0.06945 -0.83519,0.208399 -0.97438,1.389328 -0.20881,1.111459 0.5568,1.667193 0.76558,0.55573 2.01836,0.833594 1.3224,0.277853 2.85358,0.4168 1.60078,0.138946 3.06237,0.347345 1.53118,0.138947 2.64477,0.555734 1.11359,0.347346 1.46158,1.180929 z" />
  <path
     style="font-style:normal;font-variant:normal;font-weight:normal;font-stretch:normal;font-size:medium;line-height:1.25;font-family:'Life is goofy';-inkscape-font-specification:'Life is goofy';letter-spacing:0px;word-spacing:0px;fill:#ffffff;fill-opacity:1;stroke:none;stroke-width:1.79276061;opacity:0.1"
     d="M 37.783203 76 C 37.272839 76.002955 36.752207 76.028873 36.220703 76.076172 C 34.094688 76.218075 32.039652 76.714993 30.058594 77.566406 C 29.720364 77.708309 29.213568 77.967294 28.537109 78.345703 C 27.908968 78.676808 27.256537 79.079726 26.580078 79.552734 C 25.951938 80.025743 25.371347 80.522661 24.839844 81.042969 C 24.35666 81.515978 24.091289 81.96492 24.042969 82.390625 C 23.992127 82.772201 24.002689 83.114042 24.041016 83.4375 C 24.043049 83.421094 24.040768 83.40714 24.042969 83.390625 C 24.091289 82.96492 24.35666 82.515978 24.839844 82.042969 C 25.371347 81.522661 25.951938 81.025743 26.580078 80.552734 C 27.256537 80.079726 27.908968 79.676808 28.537109 79.345703 C 29.213568 78.967294 29.720364 78.708309 30.058594 78.566406 C 32.039652 77.714993 34.094688 77.218075 36.220703 77.076172 C 36.752207 77.028872 37.272839 77.003 37.783203 77 C 39.314296 76.991135 40.749004 77.182041 42.089844 77.572266 C 43.925947 78.092577 45.448289 78.967447 46.65625 80.197266 C 47.912533 81.427088 48.662707 83.034851 48.904297 85.021484 C 48.943599 85.233065 48.961274 85.458265 48.976562 85.685547 C 49.020721 85.086199 48.998819 84.530336 48.904297 84.021484 C 48.662707 82.034851 47.912533 80.427088 46.65625 79.197266 C 45.448289 77.967447 43.925947 77.092577 42.089844 76.572266 C 40.749004 76.182041 39.314296 75.991135 37.783203 76 z M 99.921875 80.013672 C 99.436887 79.96785 98.8592 80.037407 98.189453 80.220703 C 97.219478 80.495644 96.573327 80.976703 96.25 81.664062 C 96.014359 82.209529 95.956429 82.771265 96.054688 83.349609 C 96.095038 83.118474 96.152519 82.889713 96.25 82.664062 C 96.573327 81.976704 97.219478 81.495644 98.189453 81.220703 C 98.8592 81.037412 99.436887 80.967852 99.921875 81.013672 C 100.40686 81.059494 100.79938 81.219201 101.09961 81.494141 C 101.58428 81.900994 101.86364 82.417172 101.95703 83.033203 C 101.98464 82.851426 102 82.669985 102 82.488281 C 102 81.663452 101.70008 80.998203 101.09961 80.494141 C 100.79938 80.219201 100.40686 80.059494 99.921875 80.013672 z M 72.962891 86.003906 C 72.751851 85.997924 72.534669 85.999759 72.314453 86.011719 C 71.482528 86.011719 70.675566 86.131831 69.892578 86.371094 C 69.158524 86.562496 68.571287 86.874032 68.130859 87.304688 C 68.003316 87.878353 67.972815 88.438649 68.03125 88.986328 C 68.052519 88.760764 68.079783 88.534417 68.130859 88.304688 C 68.571287 87.874032 69.158524 87.562496 69.892578 87.371094 C 70.675566 87.131831 71.482528 87.011719 72.314453 87.011719 C 72.534669 86.999819 72.751851 86.997906 72.962891 87.003906 C 73.59601 87.021853 74.187743 87.119403 74.738281 87.298828 C 75.521269 87.538091 76.108505 87.920917 76.5 88.447266 C 77.38086 88.064461 78.384219 87.75294 79.509766 87.513672 C 80.635312 87.226567 81.759218 87.083984 82.884766 87.083984 C 84.01031 87.083984 85.087558 87.226567 86.115234 87.513672 C 87.142904 87.800777 88.023762 88.279309 88.757812 88.949219 C 89.442926 89.571279 90.030161 90.432636 90.519531 91.533203 C 91.057835 92.585918 91.448675 93.758812 91.693359 95.050781 C 91.865901 95.928022 91.963312 96.817557 91.990234 97.71875 C 92.027335 96.474152 91.92939 95.250826 91.693359 94.050781 C 91.448675 92.758812 91.057835 91.585918 90.519531 90.533203 C 90.030161 89.432636 89.442926 88.571279 88.757812 87.949219 C 88.023761 87.279309 87.142904 86.800777 86.115234 86.513672 C 85.087558 86.226567 84.01031 86.083984 82.884766 86.083984 C 81.759218 86.083984 80.635312 86.226567 79.509766 86.513672 C 78.384219 86.752927 77.38086 87.064461 76.5 87.447266 C 76.108505 86.920917 75.521269 86.538091 74.738281 86.298828 C 74.187743 86.119403 73.59601 86.021853 72.962891 86.003906 z M 57.283203 86.011719 C 56.587115 85.976665 55.878293 86.017915 55.158203 86.134766 C 53.766023 86.32172 52.493946 86.92878 51.341797 87.957031 C 50.5737 88.658109 50.045849 89.453763 49.757812 90.341797 C 49.587386 90.939099 49.543662 91.510614 49.615234 92.060547 C 49.644459 91.824268 49.688118 91.586058 49.757812 91.341797 C 50.045849 90.453763 50.5737 89.658109 51.341797 88.957031 C 52.493946 87.92878 53.766023 87.32172 55.158203 87.134766 C 55.878293 87.017919 56.587115 86.976669 57.283203 87.011719 C 57.979292 87.046773 58.661897 87.158744 59.333984 87.345703 C 60.726161 87.719611 62.000195 88.3031 63.152344 89.097656 C 64.304489 89.892212 65.168066 90.80378 65.744141 91.832031 C 66.320214 92.860279 66.823802 94.192275 67.255859 95.828125 C 67.68791 97.463975 67.928552 99.147626 67.976562 100.87695 C 67.984363 101.01365 67.978424 101.14581 67.982422 101.28125 C 68.001424 100.82006 68.003747 100.35332 67.976562 99.876953 C 67.928553 98.147622 67.68791 96.463975 67.255859 94.828125 C 66.823802 93.192275 66.320214 91.860279 65.744141 90.832031 C 65.168066 89.80378 64.304489 88.892212 63.152344 88.097656 C 62.000195 87.3031 60.726161 86.719611 59.333984 86.345703 C 58.661897 86.158744 57.979292 86.046773 57.283203 86.011719 z M 42.318359 86.933594 C 42.239555 87.189052 42.096949 87.43142 41.873047 87.738281 C 41.38986 88.353192 40.713485 88.85011 39.84375 89.228516 C 39.022338 89.606924 38.080585 89.86591 37.017578 90.007812 C 36.002889 90.149715 35.03524 90.149716 34.117188 90.007812 C 34.02055 89.582105 33.924765 89.062177 33.828125 88.447266 C 33.80247 88.095665 33.80104 87.875046 33.789062 87.642578 C 33.780339 87.74398 33.763425 87.82796 33.755859 87.931641 C 33.755859 88.546552 33.779805 88.785055 33.828125 89.447266 C 33.924765 90.062177 34.020547 90.582105 34.117188 91.007812 C 35.03524 91.149715 36.002889 91.149715 37.017578 91.007812 C 38.080585 90.865911 39.022338 90.606924 39.84375 90.228516 C 40.713485 89.85011 41.38986 89.353192 41.873047 88.738281 C 42.341873 88.095751 42.486343 87.731898 42.318359 86.933594 z M 156.63086 87.003906 C 156.03926 87.015481 155.44304 87.055534 154.83984 87.125 C 153.67986 87.263933 152.75068 87.496137 152.05469 87.820312 C 151.40509 88.098176 150.80289 88.560632 150.24609 89.208984 C 149.6893 89.811026 149.24863 90.529683 148.92383 91.363281 C 148.59903 92.196877 148.41359 93.075734 148.36719 94.001953 C 148.35366 94.271991 148.3629 94.53861 148.38477 94.804688 C 148.4464 93.951417 148.62239 93.136906 148.92383 92.363281 C 149.24863 91.529683 149.6893 90.811026 150.24609 90.208984 C 150.80289 89.560632 151.40509 89.098176 152.05469 88.820312 C 152.75068 88.496137 153.67986 88.263933 154.83984 88.125 C 155.44304 88.055536 156.03926 88.015476 156.63086 88.003906 C 157.22245 87.992326 157.80868 88.008368 158.38867 88.054688 C 159.54865 88.100987 160.56957 88.287139 161.45117 88.611328 C 162.34229 88.878151 162.86157 89.27581 163.02539 89.798828 C 163.1128 89.486341 163.12234 89.173927 163.05273 88.861328 C 162.91353 88.305596 162.37916 87.889192 161.45117 87.611328 C 160.56957 87.287139 159.54865 87.100987 158.38867 87.054688 C 157.80868 87.00837 157.22245 86.992331 156.63086 87.003906 z M 113.99609 88.003906 C 113.04346 87.986188 112.09131 88.047648 111.13867 88.189453 C 109.91555 88.378538 108.76363 88.731976 107.68164 89.251953 C 106.59965 89.77193 105.70566 90.434679 105 91.238281 C 105.03103 91.508501 105.06269 91.858594 105.09375 92.142578 C 105.7851 91.38356 106.64458 90.750339 107.68164 90.251953 C 108.76363 89.731976 109.91555 89.378538 111.13867 89.189453 C 112.09131 89.047646 113.04346 88.986186 113.99609 89.003906 C 114.31364 89.009816 114.63168 89.023245 114.94922 89.046875 C 116.26643 89.141426 117.46683 89.402698 118.54883 89.828125 C 119.63083 90.253562 120.54809 90.843281 121.30078 91.599609 C 122.10051 92.355941 122.6183 93.278008 122.85352 94.365234 C 122.90988 94.625732 122.94688 94.880467 122.9707 95.132812 C 123.01775 94.565372 122.98603 93.977714 122.85352 93.365234 C 122.6183 92.278008 122.10051 91.355941 121.30078 90.599609 C 120.54809 89.843281 119.63083 89.253562 118.54883 88.828125 C 117.46683 88.402698 116.26643 88.141426 114.94922 88.046875 C 114.63168 88.023244 114.31364 88.009812 113.99609 88.003906 z M 142.30469 88.011719 C 141.7377 88.048001 141.16303 88.174887 140.58398 88.392578 C 139.42588 88.827963 138.55756 89.383284 137.97852 90.060547 C 137.89912 90.617708 137.88327 91.150533 137.91992 91.664062 C 137.93343 91.465049 137.94931 91.26546 137.97852 91.060547 C 138.55756 90.383284 139.42588 89.827963 140.58398 89.392578 C 141.16303 89.174887 141.7377 89.047999 142.30469 89.011719 C 142.87167 88.975437 143.43141 89.028701 143.98633 89.173828 C 144.31525 89.593519 144.49855 90.074426 144.56836 90.605469 C 144.7029 89.653713 144.51045 88.842583 143.98633 88.173828 C 143.43141 88.028701 142.87167 87.975437 142.30469 88.011719 z M 130.07227 88.609375 C 129.74635 88.609375 129.41395 88.63326 129.07617 88.681641 C 128.44887 88.778391 127.94267 88.971462 127.55664 89.261719 C 127.07411 90.858127 126.66396 92.527997 126.32617 94.269531 C 126.07992 95.709659 125.98251 97.131785 126.01562 98.537109 C 126.0407 97.45763 126.13814 96.369151 126.32617 95.269531 C 126.66396 93.527997 127.07411 91.858127 127.55664 90.261719 C 127.94267 89.971462 128.44887 89.778391 129.07617 89.681641 C 129.75173 89.584881 130.40396 89.584881 131.03125 89.681641 C 131.7068 89.778402 132.30905 89.971473 132.83984 90.261719 C 133.37064 90.503609 133.70875 90.867814 133.85352 91.351562 C 133.89902 91.48841 133.93298 91.627302 133.95703 91.769531 C 134.03515 91.269062 134.0011 90.79545 133.85352 90.351562 C 133.70875 89.867814 133.37064 89.503609 132.83984 89.261719 C 132.30905 88.971473 131.7068 88.778402 131.03125 88.681641 C 130.71761 88.63326 130.39818 88.609375 130.07227 88.609375 z M 99.941406 90.005859 C 99.051496 89.957529 98.161392 90.198831 97.271484 90.730469 C 96.431016 91.213776 95.689585 91.891765 95.046875 92.761719 C 94.404158 93.583337 94.057248 94.428874 94.007812 95.298828 C 93.99045 95.53645 94.011247 95.778033 94.048828 96.021484 C 94.149795 95.249256 94.472914 94.495442 95.046875 93.761719 C 95.689585 92.891765 96.431016 92.213776 97.271484 91.730469 C 98.161392 91.198831 99.051496 90.957529 99.941406 91.005859 C 100.83131 91.005859 101.54797 91.440592 102.0918 92.310547 C 102.21998 92.536123 102.30698 92.782039 102.35547 93.046875 C 102.3642 92.977446 102.38236 92.90183 102.38867 92.833984 C 102.43813 92.254016 102.33901 91.745522 102.0918 91.310547 C 101.54797 90.440592 100.83131 90.005859 99.941406 90.005859 z M 144.48633 92.919922 C 144.46868 93.465215 144.46745 94.027775 144.49414 94.617188 C 144.54241 95.729833 144.63846 96.86632 144.7832 98.027344 C 144.90588 99.010979 144.96377 99.973039 144.98242 100.92188 C 144.98915 100.76044 145 100.60003 145 100.4375 C 145 99.324853 144.92797 98.188368 144.7832 97.027344 C 144.63846 95.86632 144.54241 94.729833 144.49414 93.617188 C 144.48324 93.376716 144.48985 93.153098 144.48633 92.919922 z M 153.39844 93.925781 C 153.3928 93.962674 153.38148 93.990855 153.37695 94.029297 C 153.23775 94.77027 153.42319 95.326776 153.93359 95.697266 C 154.44398 96.067752 155.11794 96.346007 155.95312 96.53125 C 156.83473 96.716485 157.78585 96.854636 158.80664 96.947266 C 159.87383 97.039896 160.89475 97.155989 161.86914 97.294922 C 162.88993 97.387553 163.77128 97.571751 164.51367 97.849609 C 165.25607 98.081173 165.74262 98.475528 165.97461 99.03125 C 166.55473 100.12494 166.87129 101.14593 166.95898 102.10547 C 167.0778 100.86905 166.76119 99.514161 165.97461 98.03125 C 165.74262 97.475528 165.25607 97.081173 164.51367 96.849609 C 163.77128 96.571751 162.88993 96.387553 161.86914 96.294922 C 160.89475 96.155989 159.87383 96.039896 158.80664 95.947266 C 157.78585 95.854634 156.83473 95.716485 155.95312 95.53125 C 155.11794 95.346007 154.44398 95.067752 153.93359 94.697266 C 153.65683 94.496366 153.48415 94.235825 153.39844 93.925781 z M 27.833984 94.501953 C 27.828073 94.722666 27.826341 94.945325 27.8125 95.162109 C 27.8125 95.324045 27.823125 95.497271 27.828125 95.664062 C 27.841786 95.282587 27.84422 94.895139 27.833984 94.501953 z M 60.550781 95.373047 C 60.495952 95.918389 60.331973 95.981702 60.054688 96.431641 C 58.038431 96.057725 56.046378 96.010586 54.078125 96.291016 C 52.157879 96.52471 50.525812 97.110149 49.181641 98.044922 C 48.337728 99.212498 47.967188 101.0012 48.027344 102.63281 C 48.12554 101.30501 48.508802 99.975815 49.181641 99.044922 C 50.525812 98.110149 52.157879 97.52471 54.078125 97.291016 C 56.046378 97.010586 58.03843 97.057725 60.054688 97.431641 C 60.342725 96.964255 60.510584 96.925962 60.558594 96.318359 C 60.584012 95.996609 60.57934 95.681495 60.550781 95.373047 z M 115.86328 95.380859 C 115.84008 95.799032 115.83265 96.193344 115.84961 96.552734 C 115.86503 96.199322 115.89234 95.826727 115.9375 95.429688 C 115.9128 95.411072 115.88798 95.398662 115.86328 95.380859 z M 85.517578 97.128906 C 85.492251 97.777923 85.353326 98.427316 85.087891 99.076172 C 84.843209 99.793937 84.475695 100.41505 83.986328 100.94141 C 83.154403 100.98925 82.493275 101.08496 82.003906 101.22852 C 81.563474 101.32422 81.075413 101.32422 80.537109 101.22852 C 79.411565 100.94141 78.579322 100.43846 78.041016 99.720703 C 77.586188 99.053607 77.328418 98.34352 77.253906 97.59375 C 77.228515 97.867772 77.216563 98.144718 77.232422 98.423828 C 77.281355 99.23729 77.551646 100.00294 78.041016 100.7207 C 78.579322 101.43846 79.411565 101.94141 80.537109 102.22852 C 81.075413 102.32422 81.563474 102.32422 82.003906 102.22852 C 82.493275 102.08496 83.154403 101.98921 83.986328 101.94141 C 84.475695 101.41505 84.843209 100.79394 85.087891 100.07617 C 85.381513 99.358416 85.527344 98.639635 85.527344 97.921875 C 85.544886 97.64737 85.537672 97.385043 85.517578 97.128906 z M 110.66992 97.40625 C 110.64025 97.456371 110.60192 97.506545 110.57422 97.556641 C 110.66831 98.785679 110.92818 99.895991 111.35156 100.88867 C 111.77496 101.88136 112.19771 102.84951 112.62109 103.79492 C 113.09152 104.69306 113.491 105.61513 113.82031 106.56055 C 114.07887 107.21005 114.23029 107.89491 114.28906 108.61133 C 114.29746 108.611 114.30606 108.6097 114.31445 108.60938 C 114.3615 107.52214 114.19666 106.50595 113.82031 105.56055 C 113.491 104.61513 113.09152 103.69306 112.62109 102.79492 C 112.19771 101.84951 111.77496 100.88136 111.35156 99.888672 C 111.02806 99.130158 110.80148 98.302608 110.66992 97.40625 z M 35.435547 97.933594 C 35.358599 97.981293 35.279626 98.023391 35.205078 98.078125 C 35.639944 99.44985 35.97911 100.93864 36.220703 102.54688 C 36.330998 103.14072 36.385737 103.70223 36.412109 104.24805 C 36.454915 103.40861 36.400222 102.51343 36.220703 101.54688 C 36.027243 100.25905 35.75318 99.06946 35.435547 97.933594 z M 69.75 97.939453 C 69.747953 98.079005 69.75019 98.2172 69.746094 98.357422 C 69.746094 100.03219 69.672204 101.75491 69.525391 103.52539 C 69.427506 105.29586 69.305017 107.06546 69.158203 108.83594 C 69.01139 110.65426 68.939453 112.47269 68.939453 114.29102 C 68.945651 114.29708 68.952738 114.30257 68.958984 114.30859 C 68.980301 112.81759 69.037821 111.32691 69.158203 109.83594 C 69.305017 108.06546 69.427501 106.29586 69.525391 104.52539 C 69.672204 102.75491 69.746094 101.03219 69.746094 99.357422 C 69.760017 98.880825 69.759778 98.40831 69.75 97.939453 z M 101.42383 98.560547 C 101.40021 98.893511 101.39951 99.227437 101.42383 99.560547 C 101.47329 100.28551 101.59718 100.93761 101.79492 101.51758 C 101.99268 102.09755 102.19091 102.65391 102.38867 103.18555 C 102.58643 103.66886 102.73508 104.15147 102.83398 104.63477 C 102.88818 104.79371 102.91555 104.95242 102.94336 105.11133 C 102.95599 105.05418 102.97268 104.9966 102.98242 104.93945 C 103.03185 104.50447 102.9823 104.06974 102.83398 103.63477 C 102.7351 103.15147 102.58643 102.66886 102.38867 102.18555 C 102.19091 101.65391 101.99268 101.09755 101.79492 100.51758 C 101.59718 99.937609 101.47329 99.285506 101.42383 98.560547 z M 131.98438 98.642578 C 131.98317 98.677261 131.9707 98.717977 131.9707 98.751953 C 131.92244 99.622723 131.99642 100.56613 132.18945 101.58203 C 132.43074 102.54954 132.98496 103.22822 133.85352 103.61523 C 134.43256 103.90546 135.0108 104.02496 135.58984 103.97656 C 136.21715 103.8798 136.77332 103.71062 137.25586 103.46875 C 137.78665 103.1785 138.22081 102.84014 138.55859 102.45312 C 138.94463 102.06612 139.20876 101.72776 139.35352 101.4375 C 139.65095 100.6282 139.75025 99.857519 139.67383 99.123047 C 139.62367 99.549551 139.51867 99.988107 139.35352 100.4375 C 139.20876 100.72776 138.94463 101.06613 138.55859 101.45312 C 138.22081 101.84014 137.78665 102.1785 137.25586 102.46875 C 136.77332 102.71062 136.21715 102.8798 135.58984 102.97656 C 135.0108 103.02493 134.43256 102.90549 133.85352 102.61523 C 132.98496 102.22822 132.43074 101.54954 132.18945 100.58203 C 132.05957 99.898454 132.00549 99.260468 131.98438 98.642578 z M 95.253906 100.41992 C 95.224039 100.88812 95.165222 101.3739 95.046875 101.89453 C 94.84912 102.76448 94.675665 103.63591 94.527344 104.50586 C 94.390335 105.26481 94.347193 106.00101 94.378906 106.71875 C 94.403654 106.31997 94.453182 105.91667 94.527344 105.50586 C 94.675665 104.63591 94.84912 103.76448 95.046875 102.89453 C 95.244631 102.02458 95.318961 101.22886 95.269531 100.50391 C 95.265681 100.47568 95.258208 100.44808 95.253906 100.41992 z M 28.25 101.08398 C 28.247727 101.12145 28.250802 101.1556 28.248047 101.19336 C 28.248047 101.85557 28.222148 102.51748 28.173828 103.17969 C 28.173828 103.33703 28.190026 103.50945 28.193359 103.66992 C 28.220553 103.17775 28.248047 102.68562 28.248047 102.19336 C 28.276304 101.8061 28.271812 101.43917 28.25 101.08398 z M 149.9668 101.64258 C 148.8996 101.73519 148.01826 102.31571 147.32227 103.38086 C 146.67269 104.39971 146.23201 105.58081 146 106.92383 C 146.05562 106.99045 146.12258 107.02872 146.18359 107.08203 C 146.43617 106.0832 146.81267 105.18014 147.32227 104.38086 C 148.01826 103.31571 148.8996 102.73518 149.9668 102.64258 C 150.56999 102.59624 151.33569 102.87451 152.26367 103.47656 C 153.23806 104.0323 154.23507 104.51875 155.25586 104.93555 C 156.27665 105.35252 157.27561 105.49245 158.25 105.35352 C 159.22439 105.21458 160.03595 104.40381 160.68555 102.92188 C 160.57171 102.80825 160.44496 102.71376 160.32422 102.61133 C 159.74138 103.64081 159.05416 104.23885 158.25 104.35352 C 157.27561 104.49245 156.27665 104.35235 155.25586 103.93555 C 154.23507 103.51875 153.23806 103.0323 152.26367 102.47656 C 151.33569 101.87451 150.56999 101.59624 149.9668 101.64258 z M 60.253906 101.73438 C 60.052495 102.1662 59.77735 102.59797 59.40625 102.82031 C 58.830175 103.19421 58.15872 103.45158 57.390625 103.5918 C 56.670531 103.73201 55.926298 103.73201 55.158203 103.5918 C 54.521214 103.46776 54.024429 103.22638 53.650391 102.88281 C 53.560801 103.1839 53.501953 103.49226 53.501953 103.75 C 53.886 104.17065 54.438108 104.45158 55.158203 104.5918 C 55.926298 104.73201 56.670531 104.73201 57.390625 104.5918 C 58.15872 104.45158 58.830175 104.19421 59.40625 103.82031 C 60.030329 103.4464 60.414575 102.47884 60.558594 101.91797 C 60.469385 101.85283 60.36631 101.79194 60.253906 101.73438 z M 76.361328 108.66211 C 76.286151 109.11079 76.300462 109.55156 76.425781 109.98047 C 76.621523 110.65038 76.841251 111.32032 77.085938 111.99023 C 77.309321 112.64547 77.441584 113.29997 77.501953 113.95508 C 77.545317 113.67858 77.56329 113.40617 77.527344 113.14258 C 77.47842 112.42481 77.330635 111.70799 77.085938 110.99023 C 76.841251 110.32032 76.621523 109.65038 76.425781 108.98047 C 76.395089 108.87542 76.380002 108.76835 76.361328 108.66211 z "
     id="path939" />
</svg>
