<?xml version="1.0" encoding="UTF-8" standalone="no"?>
<svg
   xmlns:dc="http://purl.org/dc/elements/1.1/"
   xmlns:cc="http://creativecommons.org/ns#"
   xmlns:rdf="http://www.w3.org/1999/02/22-rdf-syntax-ns#"
   xmlns:svg="http://www.w3.org/2000/svg"
   xmlns="http://www.w3.org/2000/svg"
   xmlns:sodipodi="http://sodipodi.sourceforge.net/DTD/sodipodi-0.dtd"
   xmlns:inkscape="http://www.inkscape.org/namespaces/inkscape"
   width="192"
   height="192"
   version="1"
   id="svg14"
   sodipodi:docname="system_sim.svg"
   inkscape:version="0.92.3 (2405546, 2018-03-11)">
  <metadata
     id="metadata20">
    <rdf:RDF>
      <cc:Work
         rdf:about="">
        <dc:format>image/svg+xml</dc:format>
        <dc:type
           rdf:resource="http://purl.org/dc/dcmitype/StillImage" />
      </cc:Work>
    </rdf:RDF>
  </metadata>
  <defs
     id="defs18">
    <filter
       inkscape:collect="always"
       style="color-interpolation-filters:sRGB"
       id="filter848"
       x="-0.054"
       width="1.108"
       y="-0.0432"
       height="1.0864">
      <feGaussianBlur
         inkscape:collect="always"
         stdDeviation="2.88"
         id="feGaussianBlur850" />
    </filter>
  </defs>
  <sodipodi:namedview
     pagecolor="#ffffff"
     bordercolor="#666666"
     borderopacity="1"
     objecttolerance="10"
     gridtolerance="10"
     guidetolerance="10"
     inkscape:pageopacity="0"
     inkscape:pageshadow="2"
     inkscape:window-width="1920"
     inkscape:window-height="1018"
     id="namedview16"
     showgrid="false"
     inkscape:zoom="1"
     inkscape:cx="96"
     inkscape:cy="96"
     inkscape:window-x="0"
     inkscape:window-y="32"
     inkscape:window-maximized="1"
     inkscape:current-layer="svg14" />
  <path
     inkscape:connector-curvature="0"
     id="path2"
     d="m 136,20 24,24 v 128 c 0,4.432 -3.568,8 -8,8 H 40 c -4.432,0 -8,-3.568 -8,-8 V 28 c 0,-4.432 3.568,-8 8,-8 z"
     style="opacity:0.2;stroke-width:4;filter:url(#filter848)" />
  <path
     inkscape:connector-curvature="0"
     id="path4"
     d="m 136,16 24,24 v 128 c 0,4.432 -3.568,8 -8,8 H 40 c -4.432,0 -8,-3.568 -8,-8 V 24 c 0,-4.432 3.568,-8 8,-8 z"
     style="fill:#e4e4e4;stroke-width:4" />
  <path
     style="opacity:0.2;fill:#ffffff;stroke-width:4"
     d="M 40 16 C 35.568 16 32 19.568 32 24 L 32 25 C 32 20.568 35.568 17 40 17 L 136 17 L 160 41 L 160 40 L 136 16 L 40 16 z "
     id="path6" />
  <rect
     id="rect8"
     ry="8"
     rx="8"
     y="64"
     x="48"
     height="96"
     width="96"
     style="fill:#fca800;stroke-width:4" />
  <path
     inkscape:connector-curvature="0"
     id="path10"
     d="m 68,64 v 44 h 76 v -4 H 128 V 64 h -4 v 40 H 108 V 64 h -4 v 40 H 88 V 64 h -4 v 40 H 72 V 64 Z m -20,68 v 4 h 36 v 24 h 4 v -24 h 16 v 24 h 4 v -24 h 16 v 24 h 4 v -24 h 16 v -4 z"
     style="opacity:0.4;fill-rule:evenodd;stroke-width:4" />
</svg>
