<?xml version="1.0" encoding="UTF-8" standalone="no"?>
<svg
   xmlns:dc="http://purl.org/dc/elements/1.1/"
   xmlns:cc="http://creativecommons.org/ns#"
   xmlns:rdf="http://www.w3.org/1999/02/22-rdf-syntax-ns#"
   xmlns:svg="http://www.w3.org/2000/svg"
   xmlns="http://www.w3.org/2000/svg"
   xmlns:sodipodi="http://sodipodi.sourceforge.net/DTD/sodipodi-0.dtd"
   xmlns:inkscape="http://www.inkscape.org/namespaces/inkscape"
   width="192"
   height="192"
   version="1.1"
   id="svg14"
   sodipodi:docname="system_fingerprint.svg"
   inkscape:version="0.92.3 (2405546, 2018-03-11)">
  <metadata
     id="metadata20">
    <rdf:RDF>
      <cc:Work
         rdf:about="">
        <dc:format>image/svg+xml</dc:format>
        <dc:type
           rdf:resource="http://purl.org/dc/dcmitype/StillImage" />
      </cc:Work>
    </rdf:RDF>
  </metadata>
  <defs
     id="defs18">
    <filter
       inkscape:collect="always"
       style="color-interpolation-filters:sRGB"
       id="filter848"
       x="-0.048"
       width="1.096"
       y="-0.048"
       height="1.096">
      <feGaussianBlur
         inkscape:collect="always"
         stdDeviation="3.2"
         id="feGaussianBlur850" />
    </filter>
    <filter
       inkscape:collect="always"
       style="color-interpolation-filters:sRGB"
       id="filter864"
       x="-0.048"
       width="1.096"
       y="-0.048"
       height="1.096">
      <feGaussianBlur
         inkscape:collect="always"
         stdDeviation="2.24"
         id="feGaussianBlur866" />
    </filter>
  </defs>
  <sodipodi:namedview
     pagecolor="#ffffff"
     bordercolor="#666666"
     borderopacity="1"
     objecttolerance="10"
     gridtolerance="10"
     guidetolerance="10"
     inkscape:pageopacity="0"
     inkscape:pageshadow="2"
     inkscape:window-width="1920"
     inkscape:window-height="1018"
     id="namedview16"
     showgrid="false"
     inkscape:zoom="3.2796268"
     inkscape:cx="96"
     inkscape:cy="96"
     inkscape:window-x="0"
     inkscape:window-y="32"
     inkscape:window-maximized="1"
     inkscape:current-layer="svg14" />
  <circle
     id="circle2"
     r="80"
     cy="100"
     cx="96"
     style="opacity:0.2;stroke-width:4;filter:url(#filter848)" />
  <circle
     id="circle4"
     r="80"
     cy="96"
     cx="96"
     style="fill:#9d4abb;stroke-width:4" />
  <path
     style="opacity:0.1;fill:#ffffff;fill-rule:evenodd;stroke-width:4"
     d="M 96 16 A 80 80 0 0 0 16 96 A 80 80 0 0 0 16.019531 96.472656 A 80 80 0 0 1 96 17 A 80 80 0 0 1 175.97461 96.513672 A 80 80 0 0 0 176 96 A 80 80 0 0 0 96 16 z "
     id="path6" />
  <path
     inkscape:connector-curvature="0"
     id="path8"
     d="M 95.843752,42 C 84.77552,42 74.618456,45.114552 65.367188,51.335936 56.115916,57.55732 49.247384,65.849772 44.781248,76.218752 41.59116,83.131396 40,91.07606 40,100.0625 c 0,8.98645 1.705176,18.68571 5.117188,29.05469 0.638016,2.07379 2.026332,2.76157 4.148436,2.07031 2.122068,-0.69126 2.872388,-2.19298 2.234376,-4.49219 -2.982048,-8.52059 -4.468752,-17.40532 -4.468752,-26.61719 0,-8.054744 1.276056,-14.978836 3.828128,-20.734368 4.036164,-8.986452 10.101308,-16.199476 18.1875,-21.609376 8.07232,-5.424932 17.018544,-8.132812 26.796876,-8.132812 13.606438,0 25.256268,4.964052 34.937498,14.867188 9.68124,9.903116 14.52344,21.768444 14.52344,35.593748 0,3.92218 -1.38832,7.25838 -4.14844,10.02344 -2.76012,2.76505 -6.17478,4.14844 -10.21094,4.14844 -4.05003,0 -7.39165,-1.38339 -10.05469,-4.14844 -2.66303,-2.76506 -3.99218,-6.10126 -3.99218,-10.02344 0,-5.995972 -2.08726,-11.114996 -6.23438,-15.382812 -4.14712,-4.267812 -9.09377,-6.406252 -14.835936,-6.406252 -5.742164,0 -10.643528,2.13844 -14.679688,6.406252 -4.03616,4.267816 -6.054684,9.38684 -6.054684,15.382812 0,14.98243 4.8953,27.7734 14.687496,38.38281 7.018212,7.60393 15.424792,12.78963 25.203132,15.55469 h 0.95312 c 1.70601,0 2.76363,-0.91724 3.17969,-2.76562 0.42997,-2.76506 -0.32032,-4.26671 -2.23438,-4.49219 -8.93226,-2.53965 -16.38572,-7.02976 -22.335934,-13.47657 -8.502296,-9.21186 -12.757812,-20.27887 -12.757812,-33.1875 0,-3.922176 1.329152,-7.317844 3.992184,-10.20312 2.663036,-2.885288 6.02634,-4.328124 10.062504,-4.328124 4.03616,0 7.443008,1.442836 10.203128,4.328124 2.76013,2.885276 4.14843,6.280944 4.14843,10.20312 0,5.99598 2.02635,11.06336 6.0625,15.21094 4.03617,4.1476 8.92971,6.21875 14.67188,6.21875 5.74217,0 10.69663,-2.07115 14.84375,-6.21875 C 149.92056,111.14148 152,106.0741 152,100.07812 152,84.17902 146.51978,70.523064 135.5625,59.117188 124.60522,47.711308 111.37811,42 95.843752,42 Z m 0.31248,18.734376 c -10.638268,0 -19.735984,3.920672 -27.281248,11.75 -7.559132,7.829336 -11.328124,17.15736 -11.328124,27.992184 0,11.97693 2.439836,22.59284 7.335936,31.80469 3.398144,6.91265 7.976588,13.47392 13.718752,19.69531 0.638024,0.6913 1.388296,1.03906 2.234372,1.03906 1.067984,0 1.912372,-0.3478 2.578128,-1.03906 1.706004,-1.84838 1.706004,-3.57174 0,-5.17968 -5.742168,-6.68724 -9.997688,-12.67186 -12.757816,-17.97657 -4.036156,-7.82933 -6.062496,-17.2835 -6.062496,-28.34375 0,-8.986444 3.07786,-16.65058 9.25,-22.992184 6.158268,-6.341612 13.603908,-9.507812 22.328124,-9.507812 8.71034,0 16.1638,3.1662 22.33594,9.507812 6.17213,6.341604 9.25,14.00574 9.25,22.992184 0,2.29921 1.16379,3.46094 3.50781,3.46094 2.34403,0 3.50781,-1.16173 3.50781,-3.46094 0,-10.819804 -3.78286,-20.162848 -11.32812,-27.992184 -7.55913,-7.829328 -16.6508,-11.75 -27.289068,-11.75 z m -0.28908,35.546872 c -2.344024,4e-6 -3.507812,1.257228 -3.507812,3.796872 0,13.35946 5.419308,24.07868 16.26562,32.14844 5.52025,4.37301 12.5524,6.5625 21.05469,6.5625 2.98205,0 5.74481,-0.22168 8.29688,-0.6875 2.34402,-0.46585 3.30494,-1.95254 2.875,-4.49218 -0.22192,-1.15712 -0.80861,-1.89718 -1.76563,-2.25782 -0.95703,-0.36064 -1.91016,-0.52344 -2.86718,-0.52344 -0.95703,0 -2.1956,0.11828 -3.67969,0.34376 -1.48409,0.2254 -2.43725,0.34376 -2.86719,0.34376 -8.72421,0 -16.00625,-3.10673 -21.85938,-9.32812 -5.85312,-6.22139 -8.781248,-13.6044 -8.781248,-22.125 0,-2.524616 -1.069692,-3.796448 -3.16406,-3.781252 z"
     style="opacity:0.2;stroke-width:4;filter:url(#filter864)" />
  <path
     inkscape:connector-curvature="0"
     id="path10"
     d="M 95.843752,40 C 84.77552,40 74.618456,43.114552 65.367188,49.335936 56.115916,55.55732 49.247384,63.849772 44.781248,74.218752 41.59116,81.131396 40,89.07606 40,98.0625 c 0,8.98645 1.705176,18.68571 5.117188,29.05469 0.638016,2.07379 2.026332,2.76157 4.148436,2.07031 2.122068,-0.69126 2.872388,-2.19298 2.234376,-4.49219 -2.982048,-8.52059 -4.468752,-17.40532 -4.468752,-26.617186 0,-8.054748 1.276056,-14.97884 3.828128,-20.734372 4.036164,-8.986452 10.101308,-16.199476 18.1875,-21.609376 8.07232,-5.424932 17.018544,-8.132812 26.796876,-8.132812 13.606438,0 25.256268,4.964052 34.937498,14.867188 9.68124,9.903116 14.52344,21.768444 14.52344,35.593748 0,3.92218 -1.38832,7.25838 -4.14844,10.02344 -2.76012,2.76505 -6.17478,4.14844 -10.21094,4.14844 -4.05003,0 -7.39165,-1.38339 -10.05469,-4.14844 -2.66303,-2.76506 -3.99218,-6.10126 -3.99218,-10.02344 0,-5.995972 -2.08726,-11.114996 -6.23438,-15.382812 -4.14712,-4.267812 -9.09377,-6.406252 -14.835936,-6.406252 -5.742164,0 -10.643528,2.13844 -14.679688,6.406252 -4.03616,4.267816 -6.054684,9.38684 -6.054684,15.382812 0,14.98243 4.8953,27.7734 14.687496,38.38281 7.018212,7.60393 15.424792,12.78963 25.203132,15.55469 h 0.95312 c 1.70601,0 2.76363,-0.91724 3.17969,-2.76562 0.42997,-2.76506 -0.32032,-4.26671 -2.23438,-4.49219 -8.93226,-2.53965 -16.38572,-7.02976 -22.335934,-13.47657 -8.502296,-9.21186 -12.757812,-20.27887 -12.757812,-33.187496 0,-3.92218 1.329152,-7.317848 3.992184,-10.203124 2.663036,-2.885288 6.02634,-4.328124 10.062504,-4.328124 4.03616,0 7.443008,1.442836 10.203128,4.328124 2.76013,2.885276 4.14843,6.280944 4.14843,10.203124 0,5.995976 2.02635,11.063356 6.0625,15.210936 4.03617,4.1476 8.92971,6.21875 14.67188,6.21875 5.74217,0 10.69663,-2.07115 14.84375,-6.21875 C 149.92056,109.14148 152,104.0741 152,98.078124 152,82.17902 146.51978,68.523064 135.5625,57.117188 124.60522,45.711308 111.37811,40 95.843752,40 Z m 0.31248,18.734376 c -10.638268,0 -19.735984,3.920672 -27.281248,11.75 -7.559132,7.829336 -11.328124,17.15736 -11.328124,27.992188 0,11.976926 2.439836,22.592836 7.335936,31.804686 3.398144,6.91265 7.976588,13.47392 13.718752,19.69531 0.638024,0.6913 1.388296,1.03906 2.234372,1.03906 1.067984,0 1.912372,-0.3478 2.578128,-1.03906 1.706004,-1.84838 1.706004,-3.57174 0,-5.17968 -5.742168,-6.68724 -9.997688,-12.67186 -12.757816,-17.97657 -4.036156,-7.82933 -6.062496,-17.2835 -6.062496,-28.343746 0,-8.986448 3.07786,-16.650584 9.25,-22.992188 6.158268,-6.341612 13.603908,-9.507812 22.328124,-9.507812 8.71034,0 16.1638,3.1662 22.33594,9.507812 6.17213,6.341604 9.25,14.00574 9.25,22.992188 0,2.299206 1.16379,3.460936 3.50781,3.460936 2.34403,0 3.50781,-1.16173 3.50781,-3.460936 0,-10.819808 -3.78286,-20.162852 -11.32812,-27.992188 -7.55913,-7.829328 -16.6508,-11.75 -27.289068,-11.75 z m -0.28908,35.546872 c -2.344024,4e-6 -3.507812,1.257228 -3.507812,3.796876 0,13.359456 5.419308,24.078676 16.26562,32.148436 5.52025,4.37301 12.5524,6.5625 21.05469,6.5625 2.98205,0 5.74481,-0.22164 8.29688,-0.6875 2.34402,-0.46585 3.30494,-1.95254 2.875,-4.49218 -0.22192,-1.15712 -0.80861,-1.89718 -1.76563,-2.25782 -0.95703,-0.36064 -1.91016,-0.52344 -2.86718,-0.52344 -0.95703,0 -2.1956,0.11828 -3.67969,0.34376 -1.48409,0.2254 -2.43725,0.34376 -2.86719,0.34376 -8.72421,0 -16.00625,-3.10673 -21.85938,-9.32812 -5.85312,-6.22139 -8.781248,-13.6044 -8.781248,-22.125 0,-2.524616 -1.069692,-3.796448 -3.16406,-3.781252 z"
     style="fill:#ffffff;stroke-width:4" />
</svg>
