<?xml version="1.0" encoding="UTF-8" standalone="no"?>
<svg
   xmlns:dc="http://purl.org/dc/elements/1.1/"
   xmlns:cc="http://creativecommons.org/ns#"
   xmlns:rdf="http://www.w3.org/1999/02/22-rdf-syntax-ns#"
   xmlns:svg="http://www.w3.org/2000/svg"
   xmlns="http://www.w3.org/2000/svg"
   xmlns:sodipodi="http://sodipodi.sourceforge.net/DTD/sodipodi-0.dtd"
   xmlns:inkscape="http://www.inkscape.org/namespaces/inkscape"
   width="192"
   height="192"
   version="1"
   id="svg32"
   sodipodi:docname="system_weather.svg"
   inkscape:version="0.92.3 (2405546, 2018-03-11)">
  <metadata
     id="metadata38">
    <rdf:RDF>
      <cc:Work
         rdf:about="">
        <dc:format>image/svg+xml</dc:format>
        <dc:type
           rdf:resource="http://purl.org/dc/dcmitype/StillImage" />
      </cc:Work>
    </rdf:RDF>
  </metadata>
  <defs
     id="defs36">
    <filter
       inkscape:collect="always"
       style="color-interpolation-filters:sRGB"
       id="filter871"
       x="-0.039"
       width="1.078"
       y="-0.0624"
       height="1.1248">
      <feGaussianBlur
         inkscape:collect="always"
         stdDeviation="2.08"
         id="feGaussianBlur873" />
    </filter>
    <filter
       inkscape:collect="always"
       style="color-interpolation-filters:sRGB"
       id="filter887"
       x="-0.048"
       width="1.096"
       y="-0.048"
       height="1.096">
      <feGaussianBlur
         inkscape:collect="always"
         stdDeviation="2.24"
         id="feGaussianBlur889" />
    </filter>
    <filter
       inkscape:collect="always"
       style="color-interpolation-filters:sRGB"
       id="filter903"
       x="-0.048"
       width="1.096"
       y="-0.048"
       height="1.096">
      <feGaussianBlur
         inkscape:collect="always"
         stdDeviation="1.28"
         id="feGaussianBlur905" />
    </filter>
  </defs>
  <sodipodi:namedview
     pagecolor="#ffffff"
     bordercolor="#666666"
     borderopacity="1"
     objecttolerance="10"
     gridtolerance="10"
     guidetolerance="10"
     inkscape:pageopacity="0"
     inkscape:pageshadow="2"
     inkscape:window-width="1920"
     inkscape:window-height="1018"
     id="namedview34"
     showgrid="false"
     inkscape:zoom="1"
     inkscape:cx="96"
     inkscape:cy="87.77116"
     inkscape:window-x="0"
     inkscape:window-y="32"
     inkscape:window-maximized="1"
     inkscape:current-layer="svg32" />
  <path
     inkscape:connector-curvature="0"
     id="path2"
     d="m 172,108 c 0,21.39266 -8.39683,40.82412 -22.07444,55.17837 -14.57109,15.29193 -38.79397,0.0248 -61.584096,0.0248 -23.1397,0 -40.326276,14.97245 -54.933296,-0.73262 C 20.124646,148.18855 12.000001,129.04308 12.000001,108 12.000001,63.81722 47.81722,28 92,28 c 44.18278,0 80,35.81722 80,80 z"
     style="fill:#0091cf;stroke-width:4" />
  <path
     style="opacity:0.1;fill:#ffffff;stroke-width:4"
     d="M 92 28 A 80 80 0 0 0 12 108 A 80 80 0 0 0 12.019531 108.47266 A 80 80 0 0 1 92 29 A 80 80 0 0 1 171.97461 108.51367 A 80 80 0 0 0 172 108 A 80 80 0 0 0 92 28 z "
     id="path4" />
  <path
     inkscape:connector-curvature="0"
     id="path6"
     d="M 124,22 108,38 H 84 V 62 L 68,78 84,94 v 24 h 24 l 16,16 16,-16 h 24 V 94 L 180,78 164,62 V 38 h -24 z"
     style="opacity:0.2;stroke-width:4;filter:url(#filter887)" />
  <path
     inkscape:connector-curvature="0"
     id="path8"
     d="M 124,20 108,36 H 84 V 60 L 68,76 84,92 v 24 h 24 l 16,16 16,-16 h 24 V 92 L 180,76 164,60 V 36 h -24 z"
     style="fill:#ff8a47;stroke-width:4" />
  <circle
     id="circle10"
     r="32"
     cy="78"
     cx="124"
     style="opacity:0.2;stroke-width:4;filter:url(#filter903)" />
  <circle
     id="circle12"
     r="32"
     cy="76"
     cx="124"
     style="fill:#ffcc42;stroke-width:4" />
  <path
     style="opacity:0.2;fill:#ffffff;stroke-width:4"
     d="M 124 20 L 108 36 L 84 36 L 84 37 L 108 37 L 124 21 L 140 37 L 164 37 L 164 36 L 140 36 L 124 20 z M 84 60 L 68 76 L 68.5 76.5 L 84 61 L 84 60 z M 164 60 L 164 61 L 179.5 76.5 L 180 76 L 164 60 z "
     id="path14" />
  <path
     style="opacity:0.2;fill:#ffffff;stroke-width:4"
     d="M 124 44 A 32 32 0 0 0 92 76 A 32 32 0 0 0 92.019531 76.464844 A 32 32 0 0 1 124 45 A 32 32 0 0 1 155.97461 76.513672 A 32 32 0 0 0 156 76 A 32 32 0 0 0 124 44 z "
     id="path16" />
  <circle
     id="circle18"
     r="32"
     cy="132"
     cx="92"
     style="opacity:0.2;stroke-width:4" />
  <path
     inkscape:connector-curvature="0"
     id="path20"
     d="m 92,100 a 32,32 0 0 0 -32,32 32,32 0 0 0 0.04688,1.42188 A 24,24 0 0 0 52,132 24,24 0 0 0 28,156 24,24 0 0 0 52,180 h 80 a 24,24 0 0 0 24,-24 24,24 0 0 0 -24,-24 24,24 0 0 0 -8.07031,1.42188 A 32,32 0 0 0 124,132 32,32 0 0 0 92,100 Z"
     style="opacity:0.2;stroke-width:4;filter:url(#filter871)" />
  <circle
     id="circle22"
     r="24"
     cy="152"
     cx="52"
     style="fill:#ffffff;stroke-width:4" />
  <circle
     id="circle24"
     r="32"
     cy="128"
     cx="92"
     style="fill:#ffffff;stroke-width:4" />
  <circle
     id="circle26"
     r="24"
     cy="152"
     cx="132"
     style="fill:#ffffff;stroke-width:4" />
  <rect
     id="rect28"
     y="144"
     x="52"
     height="32"
     width="80"
     style="fill:#ffffff;stroke-width:4" />
</svg>
