<?xml version="1.0" encoding="UTF-8" standalone="no"?>
<svg
   xmlns:dc="http://purl.org/dc/elements/1.1/"
   xmlns:cc="http://creativecommons.org/ns#"
   xmlns:rdf="http://www.w3.org/1999/02/22-rdf-syntax-ns#"
   xmlns:svg="http://www.w3.org/2000/svg"
   xmlns="http://www.w3.org/2000/svg"
   xmlns:sodipodi="http://sodipodi.sourceforge.net/DTD/sodipodi-0.dtd"
   xmlns:inkscape="http://www.inkscape.org/namespaces/inkscape"
   width="192"
   height="192"
   version="1"
   id="svg18"
   sodipodi:docname="system_battery.svg"
   inkscape:version="0.92.3 (2405546, 2018-03-11)">
  <metadata
     id="metadata24">
    <rdf:RDF>
      <cc:Work
         rdf:about="">
        <dc:format>image/svg+xml</dc:format>
        <dc:type
           rdf:resource="http://purl.org/dc/dcmitype/StillImage" />
      </cc:Work>
    </rdf:RDF>
  </metadata>
  <defs
     id="defs22">
    <filter
       inkscape:collect="always"
       style="color-interpolation-filters:sRGB"
       id="filter853"
       x="-0.051"
       width="1.102"
       y="-0.045333333"
       height="1.0906667">
      <feGaussianBlur
         inkscape:collect="always"
         stdDeviation="2.72"
         id="feGaussianBlur855" />
    </filter>
    <filter
       inkscape:collect="always"
       style="color-interpolation-filters:sRGB"
       id="filter869"
       x="-0.024923077"
       width="1.0498462"
       y="-0.023142857"
       height="1.0462857">
      <feGaussianBlur
         inkscape:collect="always"
         stdDeviation="1.08"
         id="feGaussianBlur871" />
    </filter>
  </defs>
  <sodipodi:namedview
     pagecolor="#ffffff"
     bordercolor="#666666"
     borderopacity="1"
     objecttolerance="10"
     gridtolerance="10"
     guidetolerance="10"
     inkscape:pageopacity="0"
     inkscape:pageshadow="2"
     inkscape:window-width="1920"
     inkscape:window-height="1018"
     id="namedview20"
     showgrid="false"
     inkscape:zoom="1"
     inkscape:cx="96"
     inkscape:cy="96"
     inkscape:window-x="0"
     inkscape:window-y="32"
     inkscape:window-maximized="1"
     inkscape:current-layer="svg18" />
  <rect
     id="rect6"
     y="16"
     x="56"
     height="16"
     width="80"
     style="fill:#8e8e8e;stroke-width:4" />
  <path
     inkscape:connector-curvature="0"
     id="path12"
     d="m 56,16 v 1 h 80 v -1 z"
     style="opacity:0.2;fill:#ffffff;stroke-width:2" />
  <rect
     id="rect2"
     ry="8"
     rx="8"
     y="36"
     x="32"
     height="144"
     width="128"
     style="opacity:0.2;stroke-width:4;filter:url(#filter853)" />
  <rect
     id="rect4"
     ry="8"
     rx="8"
     y="32"
     x="32"
     height="144"
     width="128"
     style="fill:#4f4f4f;stroke-width:4" />
  <path
     inkscape:connector-curvature="0"
     id="path8"
     d="M 44,50 V 82 H 148 V 50 Z m 0,40 v 32 H 148 V 90 Z m 0,40 v 32 h 104 v -32 z"
     style="opacity:0.2;stroke-width:4;filter:url(#filter869)" />
  <path
     inkscape:connector-curvature="0"
     id="path10"
     d="M 44,48 V 80 H 148 V 48 Z m 0,40 v 32 H 148 V 88 Z m 0,40 v 32 h 104 v -32 z"
     style="fill:#c0f957;stroke-width:4" />
  <path
     style="opacity:0.2;fill:#ffffff;stroke-width:4"
     d="M 44 48 L 44 49 L 148 49 L 148 48 L 44 48 z M 44 88 L 44 89 L 148 89 L 148 88 L 44 88 z M 44 128 L 44 129 L 148 129 L 148 128 L 44 128 z "
     id="path14" />
</svg>
