<?xml version="1.0" encoding="UTF-8" standalone="no"?>
<svg
   xmlns:dc="http://purl.org/dc/elements/1.1/"
   xmlns:cc="http://creativecommons.org/ns#"
   xmlns:rdf="http://www.w3.org/1999/02/22-rdf-syntax-ns#"
   xmlns:svg="http://www.w3.org/2000/svg"
   xmlns="http://www.w3.org/2000/svg"
   xmlns:sodipodi="http://sodipodi.sourceforge.net/DTD/sodipodi-0.dtd"
   xmlns:inkscape="http://www.inkscape.org/namespaces/inkscape"
   width="192"
   height="192"
   version="1"
   id="svg30"
   sodipodi:docname="system_color.svg"
   inkscape:version="0.92.3 (2405546, 2018-03-11)">
  <metadata
     id="metadata36">
    <rdf:RDF>
      <cc:Work
         rdf:about="">
        <dc:format>image/svg+xml</dc:format>
        <dc:type
           rdf:resource="http://purl.org/dc/dcmitype/StillImage" />
      </cc:Work>
    </rdf:RDF>
  </metadata>
  <defs
     id="defs34">
    <filter
       inkscape:collect="always"
       style="color-interpolation-filters:sRGB"
       id="filter891"
       x="-0.048"
       width="1.096"
       y="-0.048"
       height="1.096">
      <feGaussianBlur
         inkscape:collect="always"
         stdDeviation="3.12"
         id="feGaussianBlur893" />
    </filter>
    <filter
       inkscape:collect="always"
       style="color-interpolation-filters:sRGB"
       id="filter899"
       x="-0.012153846"
       width="1.0243077"
       y="-0.948"
       height="2.896">
      <feGaussianBlur
         inkscape:collect="always"
         stdDeviation="0.79"
         id="feGaussianBlur901" />
    </filter>
    <filter
       inkscape:collect="always"
       style="color-interpolation-filters:sRGB"
       id="filter907"
       x="-0.012153846"
       width="1.0243077"
       y="-0.948"
       height="2.896">
      <feGaussianBlur
         inkscape:collect="always"
         stdDeviation="0.79"
         id="feGaussianBlur909" />
    </filter>
  </defs>
  <sodipodi:namedview
     pagecolor="#ffffff"
     bordercolor="#666666"
     borderopacity="1"
     objecttolerance="10"
     gridtolerance="10"
     guidetolerance="10"
     inkscape:pageopacity="0"
     inkscape:pageshadow="2"
     inkscape:window-width="1920"
     inkscape:window-height="1018"
     id="namedview32"
     showgrid="false"
     inkscape:zoom="1"
     inkscape:cx="96"
     inkscape:cy="85.38992"
     inkscape:window-x="0"
     inkscape:window-y="32"
     inkscape:window-maximized="1"
     inkscape:current-layer="svg30" />
  <path
     style="opacity:0.2;fill:#000000;stroke-width:4;filter:url(#filter891)"
     d="M 23.798828,24 C 19.478028,24 16,27.478028 16,31.798828 V 76 128 172.19922 C 16,176.51922 19.478028,180 23.798828,180 H 68 h 52 44.19922 c 4.32,0 7.80078,-3.48078 7.80078,-7.80078 V 128 76 31.800781 C 172,27.479581 168.51922,24 164.19922,24 H 120 68 23.800781 Z"
     id="path856"
     inkscape:connector-curvature="0" />
  <path
     inkscape:connector-curvature="0"
     id="path4"
     d="m 120,124 v 52 h 44.2 c 4.32,0 7.8,-3.48 7.8,-7.8 V 124 Z"
     style="fill:#9b26af;stroke-width:4" />
  <rect
     id="rect6"
     y="124"
     x="68"
     height="52"
     width="52"
     style="fill:#f34235;stroke-width:4" />
  <path
     inkscape:connector-curvature="0"
     id="path8"
     d="m 16,124 v 44.2 c 0,4.32 3.4788,7.8 7.7996,7.8 h 44.2 v -52 h -52 z"
     style="fill:#fe9700;stroke-width:4" />
  <path
     inkscape:connector-curvature="0"
     id="path10"
     d="m 16,124 v 2 h 52 52 52 v -2 H 120 68 Z"
     style="opacity:0.1;stroke-width:4;filter:url(#filter899)" />
  <rect
     id="rect12"
     y="72"
     x="16"
     height="52"
     width="52"
     style="fill:#feac33;stroke-width:4" />
  <rect
     id="rect14"
     y="72"
     x="68"
     height="52"
     width="52"
     style="fill:#f5685d;stroke-width:4" />
  <rect
     id="rect16"
     y="72"
     x="120"
     height="52"
     width="52"
     style="fill:#af51bf;stroke-width:4" />
  <path
     inkscape:connector-curvature="0"
     id="path26"
     d="m 16,72 v 2 h 52 52 52 V 72 H 120 68 Z"
     style="opacity:0.1;stroke-width:4;filter:url(#filter907)" />
  <path
     inkscape:connector-curvature="0"
     id="path18"
     d="m 120,20 v 52 h 52 V 27.8 c 0,-4.3212 -3.48,-7.8 -7.8,-7.8 z"
     style="fill:#c37dcf;stroke-width:4" />
  <rect
     id="rect20"
     y="20"
     x="68"
     height="52"
     width="52"
     style="fill:#f88e86;stroke-width:4" />
  <path
     inkscape:connector-curvature="0"
     id="path22"
     d="M 23.7996,20 C 19.4788,20 16,23.4788 16,27.7996 v 44.2 h 52 v -52 H 23.8 Z"
     style="fill:#fec166;stroke-width:4" />
  <path
     style="opacity:0.2;fill:#ffffff;stroke-width:4"
     d="M 23.796875 20 C 19.476075 20 16 23.476075 16 27.796875 L 16 28.796875 C 16 24.476075 19.476075 21 23.796875 21 L 164.20312 21 C 168.52312 21 172 24.476075 172 28.796875 L 172 27.796875 C 172 23.476075 168.52312 20 164.20312 20 L 23.796875 20 z "
     id="path24" />
</svg>
