<?xml version="1.0" encoding="UTF-8" standalone="no"?>
<svg
   xmlns:dc="http://purl.org/dc/elements/1.1/"
   xmlns:cc="http://creativecommons.org/ns#"
   xmlns:rdf="http://www.w3.org/1999/02/22-rdf-syntax-ns#"
   xmlns:svg="http://www.w3.org/2000/svg"
   xmlns="http://www.w3.org/2000/svg"
   xmlns:sodipodi="http://sodipodi.sourceforge.net/DTD/sodipodi-0.dtd"
   xmlns:inkscape="http://www.inkscape.org/namespaces/inkscape"
   width="192"
   height="192"
   version="1"
   id="svg8"
   sodipodi:docname="system_downloads_3.svg"
   inkscape:version="0.92.3 (2405546, 2018-03-11)">
  <metadata
     id="metadata14">
    <rdf:RDF>
      <cc:Work
         rdf:about="">
        <dc:format>image/svg+xml</dc:format>
        <dc:type
           rdf:resource="http://purl.org/dc/dcmitype/StillImage" />
        <dc:title></dc:title>
      </cc:Work>
    </rdf:RDF>
  </metadata>
  <defs
     id="defs12">
    <filter
       inkscape:collect="always"
       style="color-interpolation-filters:sRGB"
       id="filter849"
       x="-0.048"
       width="1.096"
       y="-0.048"
       height="1.096">
      <feGaussianBlur
         inkscape:collect="always"
         stdDeviation="3.2"
         id="feGaussianBlur851" />
    </filter>
  </defs>
  <sodipodi:namedview
     pagecolor="#ffffff"
     bordercolor="#666666"
     borderopacity="1"
     objecttolerance="10"
     gridtolerance="10"
     guidetolerance="10"
     inkscape:pageopacity="0"
     inkscape:pageshadow="2"
     inkscape:window-width="1920"
     inkscape:window-height="1018"
     id="namedview10"
     showgrid="false"
     inkscape:zoom="1"
     inkscape:cx="24"
     inkscape:cy="24"
     inkscape:window-x="0"
     inkscape:window-y="32"
     inkscape:window-maximized="1"
     inkscape:current-layer="svg8" />
  <path
     style="opacity:0.2;stroke-width:4;filter:url(#filter849)"
     inkscape:connector-curvature="0"
     d="m 68,20 c -3.324,0 -7.58,3.588 -8,8 V 88 H 24 l 72,68 72,-68 H 132 V 28 c 0,-4.432 -4.676,-8 -8,-8 z M 24,164 c -4.432,0 -8,3.568 -8,8 0,4.432 3.568,8 8,8 h 144 c 4.432,0 8,-3.568 8,-8 0,-4.432 -3.568,-8 -8,-8 z"
     id="path2" />
  <path
     style="fill:#358de7;stroke-width:4"
     inkscape:connector-curvature="0"
     d="m 68,16 c -3.324,0 -7.58,3.588 -8,8 V 84 H 24 l 72,68 72,-68 H 132 V 24 c 0,-4.432 -4.676,-8 -8,-8 z M 24,160 c -4.432,0 -8,3.568 -8,8 0,4.432 3.568,8 8,8 h 144 c 4.432,0 8,-3.568 8,-8 0,-4.432 -3.568,-8 -8,-8 z"
     id="path4" />
  <path
     style="opacity:0.2;fill:#ffffff;stroke-width:4"
     d="M 68 16 C 64.676 16 60.42 19.588 60 24 L 60 25 C 60.42 20.588 64.676 17 68 17 L 124 17 C 127.324 17 132 20.568 132 25 L 132 24 C 132 19.568 127.324 16 124 16 L 68 16 z M 24 84 L 25.058594 85 L 60 85 L 60 84 L 24 84 z M 132 84 L 132 85 L 166.94141 85 L 168 84 L 132 84 z M 24 160 C 19.568 160 16 163.568 16 168 C 16 168.13464 16.021098 168.26244 16.029297 168.39453 C 16.337789 164.24849 19.772436 161 24 161 L 168 161 C 172.22756 161 175.66221 164.24849 175.9707 168.39453 C 175.97889 168.26244 176 168.13464 176 168 C 176 163.568 172.432 160 168 160 L 24 160 z "
     id="path6" />
</svg>
