<?xml version="1.0" encoding="UTF-8" standalone="no"?>
<svg
   xmlns:dc="http://purl.org/dc/elements/1.1/"
   xmlns:cc="http://creativecommons.org/ns#"
   xmlns:rdf="http://www.w3.org/1999/02/22-rdf-syntax-ns#"
   xmlns:svg="http://www.w3.org/2000/svg"
   xmlns="http://www.w3.org/2000/svg"
   xmlns:sodipodi="http://sodipodi.sourceforge.net/DTD/sodipodi-0.dtd"
   xmlns:inkscape="http://www.inkscape.org/namespaces/inkscape"
   width="192"
   height="192"
   version="1"
   id="svg14"
   sodipodi:docname="system_settings.svg"
   inkscape:version="0.92.3 (2405546, 2018-03-11)">
  <metadata
     id="metadata20">
    <rdf:RDF>
      <cc:Work
         rdf:about="">
        <dc:format>image/svg+xml</dc:format>
        <dc:type
           rdf:resource="http://purl.org/dc/dcmitype/StillImage" />
      </cc:Work>
    </rdf:RDF>
  </metadata>
  <defs
     id="defs18">
    <filter
       inkscape:collect="always"
       style="color-interpolation-filters:sRGB"
       id="filter846"
       x="-0.048614756"
       width="1.0972295"
       y="-0.047400597"
       height="1.0948012">
      <feGaussianBlur
         inkscape:collect="always"
         stdDeviation="3.160073"
         id="feGaussianBlur848" />
    </filter>
    <filter
       inkscape:collect="always"
       style="color-interpolation-filters:sRGB"
       id="filter862"
       x="-0.048"
       width="1.096"
       y="-0.048"
       height="1.096">
      <feGaussianBlur
         inkscape:collect="always"
         stdDeviation="1.28"
         id="feGaussianBlur864" />
    </filter>
  </defs>
  <sodipodi:namedview
     pagecolor="#ffffff"
     bordercolor="#666666"
     borderopacity="1"
     objecttolerance="10"
     gridtolerance="10"
     guidetolerance="10"
     inkscape:pageopacity="0"
     inkscape:pageshadow="2"
     inkscape:window-width="1920"
     inkscape:window-height="1018"
     id="namedview16"
     showgrid="false"
     inkscape:zoom="1"
     inkscape:cx="96"
     inkscape:cy="96"
     inkscape:window-x="0"
     inkscape:window-y="32"
     inkscape:window-maximized="1"
     inkscape:current-layer="svg14" />
  <path
     d="m 79.596,20.00212 c -1.7,0.1848 -3.196,1.5724 -3.508,3.25 l -3.38,17.1248 c -6.068,2.3692 -11.772,5.6248 -16.78,9.6248 l -16.654,-5.6248 c -1.7304,-0.5956 -3.8288,0.1764 -4.7584,1.7496 l -16.0288,27.7512 c -0.9028,1.596 -0.5156,3.804 0.8768,5 l 13.2736,11.624 c -0.46744,3.11696 -0.75132,6.2528 -0.75132,9.5 0,3.24696 0.284108,6.3828 0.75132,9.5 l -13.2736,11.624 c -1.3924,1.196 -1.7796,3.404 -0.8768,5 l 16.0284,27.7496 c 0.9296,1.57368 3.02824,2.34552 4.7584,1.74996 l 16.6548,-5.6248 c 5.0056,3.9998 10.7104,7.2552 16.78,9.6248 l 3.38104,17.1248 c 0.3426,1.79256 2.05384,3.22512 3.88192,3.24992 h 32.0572 c 1.82804,-0.024 3.53916,-1.45736 3.88192,-3.24992 l 3.38104,-17.1248 c 6.0696,-2.36944 11.7744,-5.6252 16.78,-9.6248 l 16.6548,5.6248 c 1.73024,0.59556 3.82888,-0.1764 4.7584,-1.74996 l 16.0284,-27.7496 c 0.90284,-1.596 0.5156,-3.80476 -0.87656,-5 l -13.268,-11.624 c 0.46744,-3.11696 0.75136,-6.2528 0.75136,-9.5 0,-3.24696 -0.28412,-6.3828 -0.75136,-9.5 l 13.2736,-11.6248 c 1.39216,-1.19512 1.7794,-3.40388 0.87656,-5 l -16.028,-27.7512 c -0.928,-1.5736 -3.028,-2.3452 -4.756,-1.7496 l -16.6548,5.6248 c -5.008,-4 -10.712,-7.2556 -16.78,-9.6248 l -3.38,-17.1248 c -0.344,-1.7924 -2.056,-3.2252 -3.884,-3.25 h -32.0572 c -0.12504,-0.004 -0.25044,-0.004 -0.37548,0 z"
     id="path832"
     inkscape:connector-curvature="0"
     style="opacity:0.2;fill:#000000;stroke-width:4;filter:url(#filter846)" />
  <path
     style="fill:#ae56b8;stroke-width:4"
     inkscape:connector-curvature="0"
     id="path4"
     d="m 79.596,16.0036 c -1.7,0.1848 -3.196,1.5724 -3.508,3.25 l -3.38,17.1248 c -6.068,2.3692 -11.772,5.6248 -16.78,9.6248 L 39.274,40.3784 c -1.7304,-0.5956 -3.8288,0.1764 -4.7584,1.7496 L 18.4868,69.8792 c -0.9028,1.596 -0.5156,3.804 0.8768,5 l 13.2736,11.624 c -0.46744,3.11696 -0.75132,6.2528 -0.75132,9.5 0,3.24696 0.284108,6.3828 0.75132,9.5 l -13.2736,11.624 c -1.3924,1.196 -1.7796,3.404 -0.8768,5 l 16.0284,27.7496 c 0.9296,1.57368 3.02824,2.34552 4.7584,1.74996 l 16.6548,-5.6248 c 5.0056,3.9998 10.7104,7.2552 16.78,9.6248 l 3.38104,17.1248 c 0.3426,1.79256 2.05384,3.22512 3.88192,3.24992 h 32.0572 c 1.82804,-0.024 3.53916,-1.45736 3.88192,-3.24992 l 3.38104,-17.1248 c 6.0696,-2.36944 11.7744,-5.6252 16.78,-9.6248 l 16.6548,5.6248 c 1.73024,0.59556 3.82888,-0.1764 4.7584,-1.74996 l 16.0284,-27.7496 c 0.90284,-1.596 0.5156,-3.80476 -0.87656,-5 l -13.268,-11.624 c 0.46744,-3.11696 0.75136,-6.2528 0.75136,-9.5 0,-3.24696 -0.28412,-6.3828 -0.75136,-9.5 l 13.2736,-11.6248 c 1.39216,-1.19512 1.7794,-3.40388 0.87656,-5 l -16.028,-27.7512 c -0.928,-1.5736 -3.028,-2.3452 -4.756,-1.7496 l -16.6548,5.6248 c -5.008,-4 -10.712,-7.2556 -16.78,-9.6248 l -3.38,-17.1248 c -0.344,-1.7924 -2.056,-3.2252 -3.884,-3.25 h -32.0572 c -0.12504,-0.004 -0.25044,-0.004 -0.37548,0 z" />
  <path
     inkscape:connector-curvature="0"
     id="path6"
     d="m 96,66.0004 c 17.6732,0 32,14.3268 32,32 0,17.6732 -14.3268,32 -32,32 -17.6732,0 -32,-14.3268 -32,-32 0,-17.6732 14.3268,-32 32,-32 z"
     style="opacity:0.2;stroke-width:4;filter:url(#filter862)" />
  <path
     style="fill:#ffffff;stroke-width:4"
     inkscape:connector-curvature="0"
     id="path8"
     d="m 96,64 c 17.6732,0 32,14.3268 32,32 0,17.6732 -14.3268,32 -32,32 C 78.3268,128 64,113.6732 64,96 64,78.3268 78.3268,64 96,64 Z" />
  <path
     style="fill:#ffffff;stroke-width:4;opacity:0.1"
     d="M 79.603516 16.001953 L 79.595703 16.003906 C 77.895703 16.188706 76.399891 17.576306 76.087891 19.253906 L 72.707031 36.378906 C 66.639031 38.748106 60.935734 42.003906 55.927734 46.003906 L 39.273438 40.378906 C 37.543037 39.783306 35.445225 40.555706 34.515625 42.128906 L 18.486328 69.878906 C 18.078267 70.60029 17.94633 71.446096 18.039062 72.267578 C 18.100772 71.781312 18.243483 71.306264 18.486328 70.876953 L 34.515625 43.126953 C 35.445225 41.553753 37.543037 40.781353 39.273438 41.376953 L 55.927734 47.001953 C 60.935734 43.001953 66.639031 39.746153 72.707031 37.376953 L 76.087891 20.251953 C 76.399891 18.574353 77.895703 17.186753 79.595703 17.001953 L 79.603516 17.001953 C 79.728556 16.997953 79.853476 16.997953 79.978516 17.001953 L 112.03516 17.001953 C 113.86316 17.026753 115.57592 18.459553 115.91992 20.251953 L 119.30078 37.376953 C 125.36878 39.746153 131.07208 43 136.08008 47 L 152.73438 41.376953 C 154.46237 40.781353 156.56223 41.5514 157.49023 43.125 L 173.51953 70.876953 C 173.76239 71.306296 173.90508 71.781231 173.9668 72.267578 C 174.05951 71.445991 173.92761 70.600344 173.51953 69.878906 L 157.49023 42.126953 C 156.56223 40.553353 154.46237 39.781353 152.73438 40.376953 L 136.08008 46.001953 C 131.07208 42.001953 125.36878 38.746153 119.30078 36.376953 L 115.91992 19.251953 C 115.57592 17.459553 113.86316 16.026753 112.03516 16.001953 L 79.978516 16.001953 C 79.853476 15.997953 79.728556 15.997953 79.603516 16.001953 z M 32.517578 87.396484 C 32.127144 90.220482 31.886719 93.066092 31.886719 96.003906 C 31.886719 96.171892 31.894977 96.336502 31.896484 96.503906 C 31.923983 93.434702 32.193368 90.458282 32.636719 87.501953 L 32.517578 87.396484 z M 159.48828 87.396484 L 159.36914 87.501953 C 159.8123 90.45851 160.08185 93.434906 160.10938 96.503906 C 160.11088 96.336491 160.11914 96.171905 160.11914 96.003906 C 160.11914 93.066309 159.8786 90.220658 159.48828 87.396484 z M 32.517578 105.60938 L 19.363281 117.12695 C 18.34535 118.0013 17.871254 119.41673 18.039062 120.73828 C 18.151492 119.7423 18.600239 118.78041 19.363281 118.125 L 32.636719 106.50195 C 32.59224 106.2052 32.55865 105.90655 32.517578 105.60938 z M 159.48828 105.60938 C 159.44719 105.90653 159.41364 106.20522 159.36914 106.50195 L 172.63672 118.125 C 173.39944 118.77984 173.84839 119.74049 173.96094 120.73633 C 174.12865 119.41468 173.6544 118.00068 172.63672 117.12695 L 159.48828 105.60938 z "
     id="path868" />
</svg>
