<?xml version="1.0" encoding="UTF-8" standalone="no"?>
<svg
   xmlns:dc="http://purl.org/dc/elements/1.1/"
   xmlns:cc="http://creativecommons.org/ns#"
   xmlns:rdf="http://www.w3.org/1999/02/22-rdf-syntax-ns#"
   xmlns:svg="http://www.w3.org/2000/svg"
   xmlns="http://www.w3.org/2000/svg"
   xmlns:sodipodi="http://sodipodi.sourceforge.net/DTD/sodipodi-0.dtd"
   xmlns:inkscape="http://www.inkscape.org/namespaces/inkscape"
   width="192"
   height="192"
   version="1"
   id="svg20"
   sodipodi:docname="system_worldtime.svg"
   inkscape:version="0.92.3 (2405546, 2018-03-11)">
  <metadata
     id="metadata26">
    <rdf:RDF>
      <cc:Work
         rdf:about="">
        <dc:format>image/svg+xml</dc:format>
        <dc:type
           rdf:resource="http://purl.org/dc/dcmitype/StillImage" />
      </cc:Work>
    </rdf:RDF>
  </metadata>
  <defs
     id="defs24">
    <filter
       inkscape:collect="always"
       style="color-interpolation-filters:sRGB"
       id="filter859"
       x="-0.048"
       width="1.096"
       y="-0.048"
       height="1.096">
      <feGaussianBlur
         inkscape:collect="always"
         stdDeviation="3.2"
         id="feGaussianBlur861" />
    </filter>
    <filter
       inkscape:collect="always"
       style="color-interpolation-filters:sRGB"
       id="filter875"
       x="-0.048"
       width="1.096"
       y="-0.048"
       height="1.096">
      <feGaussianBlur
         inkscape:collect="always"
         stdDeviation="1.76"
         id="feGaussianBlur877" />
    </filter>
    <filter
       inkscape:collect="always"
       style="color-interpolation-filters:sRGB"
       id="filter891"
       x="-0.023858973"
       width="1.0477179"
       y="-0.024142704"
       height="1.0482854">
      <feGaussianBlur
         inkscape:collect="always"
         stdDeviation="1.589375"
         id="feGaussianBlur893" />
    </filter>
  </defs>
  <sodipodi:namedview
     pagecolor="#ffffff"
     bordercolor="#666666"
     borderopacity="1"
     objecttolerance="10"
     gridtolerance="10"
     guidetolerance="10"
     inkscape:pageopacity="0"
     inkscape:pageshadow="2"
     inkscape:window-width="1920"
     inkscape:window-height="1018"
     id="namedview22"
     showgrid="false"
     inkscape:zoom="1"
     inkscape:cx="96"
     inkscape:cy="96"
     inkscape:window-x="0"
     inkscape:window-y="32"
     inkscape:window-maximized="1"
     inkscape:current-layer="svg20" />
  <circle
     style="opacity:0.2;fill:#000000;stroke-width:4;filter:url(#filter859)"
     cx="96"
     cy="96.000008"
     r="80"
     id="circle841" />
  <circle
     id="circle4"
     r="80"
     cy="92.000008"
     cx="96"
     style="fill:#1d82d0;stroke-width:4" />
  <path
     inkscape:connector-curvature="0"
     id="path6"
     d="m 88.444,12.429604 a 80,80 0 0 0 -28.952,8.3984 c 0.404,1.2804 -0.068,2.7248 -1.54,4 -0.996,0.8632 -1.812,2.2076 -1.812,2.9924 0,2.3988 2.168,6.082 3.9,6.6172 2.3,0.712 1.528,3.1664 -1.432,4.5224 -1.368,0.628 -3.052,2.436 -3.74,4.016 -0.692,1.584 -1.708,3.144 -2.26,3.468 -0.548,0.328 -1,1.564 -1,2.752 0,1.66 0.76,2.464 3.252,3.46 1.784,0.716 3.92,1.236 4.748,1.156 4.764,-0.448 5.096,2.328 0.932,7.752 -2.212,2.88 -3.276,3.604 -4.784,3.24 -1.404,-0.336 -2.172,0.06 -2.812,1.452 -0.672,1.476 -1.776,1.976 -4.74,2.18 -2.916,0.204 -4.22,0.796 -5.312,2.392 -0.8,1.164 -1.952,2.108 -2.564,2.108 -0.6136,0 -2.0544,0.784 -3.2032,1.736 -2.3376,1.94 -3.2504,2.136 -4.07,0.868 -1.0832,-1.68 -3.4204,-0.832 -6.8984,2.5 -3.076,2.944 -3.4484,3.732 -2.9844,6.288 0.8256,4.548 3.2924,8.584 6.1092,9.992 2.458,1.228 2.506,1.36 1.0156,2.936 -0.8572,0.908 -2.328,1.88 -3.2656,2.164 -2.708,0.823996 -1.1836,1.855996 3.6484,2.471996 4.9456,0.628 6.4824,2.42 4.172,4.864 -1.2884,1.364 -1.216,1.62 0.8516,2.916 4.04,2.536 7.2528,0.984 3.4608,-1.672 -2.4372,-1.708 -0.7328,-2.404 2.844,-1.164 2.852,0.988 3.416,0.932 5.1,-0.532 3.46,-2.996 7.22,1.436 4.056,4.78 -2.012,2.132 -1.404,4.7 1.204,5.056 1.152,0.156 3.544,1.228 5.32,2.384 1.776,1.152 3.712,2.1 4.296,2.1 0.584,0 2.232,1.172 3.664,2.604 2.904,2.9 4.516,3.268 5.336,1.224 0.984,-2.456 0.588,-3.724 -2.064,-6.616 -2.108,-2.304 -5.536,-8.424 -5.536,-9.892 0,-0.904 3.484,-0.136 5.436,1.196 1.22,0.836 3.196,1.912 4.392,2.4 1.272,0.52 2.592,2.136 3.196,3.904 0.94,2.776 1.312,3.016 4.64,3.016 h 3.616 l 0.548,6.5 c 0.656,7.82 1.284,9.404 3.968,10.048 1.976,0.476 4.084,3.536 4.084,5.928 0,0.636 -1.42,2.196 -3.156,3.464 -2.152,1.572 -3.08,2.908 -2.936,4.216 0.18,1.636 -0.192,1.892 -2.508,1.72 -1.492,-0.112 -4.084,0.412 -5.748,1.164 -1.972,0.888 -4.108,1.172 -6.112,0.812 -2.304,-0.412 -3.084,-0.252 -3.084,0.648 0,0.664 -0.808,1.904 -1.792,2.76 -2.432,2.108 -1.428,3.224 2.308,2.552 2.32,-0.416 3.224,-0.232 3.624,0.768 0.852,2.124 -1.308,5.164 -3.312,4.664 -1.272,-0.32 -1.88,0.116 -2.276,1.616 -0.136,0.532 -0.388,0.984 -0.688,1.368 a 80,80 0 0 0 12.66,3.74 c -0.4,-0.764 -0.856,-1.46 -1.3,-1.772 -2.06,-1.456 -0.68,-5.24 2.156,-5.92 2.892,-0.696 2.436,-2.572 -0.708,-2.932 -2.756,-0.312 -5.688,-3.104 -4.768,-4.532 0.62,-0.956 3.256,-0.816 8.588,0.448 2.408,0.568 4.052,-0.576 9.632,-6.68 3.228,-3.536 5.712,-5.008 8.436,-5.008 1.04,0 4.748,-0.956 8.244,-2.124 6.6,-2.212 9.18,-2.132 8.936,0.28 -0.504,5.016 2.724,4.848 7.984,-0.408 2.192,-2.188 4.196,-3.772 4.456,-3.524 1.004,0.964 -0.804,5.656 -2.916,7.556 -2.676,2.408 -2.808,3.928 -0.452,5.132 1.288,0.664 1.836,2.004 2.04,5.016 l 0.272,4.112 h 3.344 c 1.172,0 2.144,0.16 2.928,0.46 a 80,80 0 0 0 38.76,-66.023996 c -1.224,-2.616 -1.136,-4.196 0,-5.976 a 80,80 0 0 0 -0.36,-4.484 c -0.728,-0.036 -1.472,-0.068 -2.328,-0.032 -4.032,0.168 -7.484,-1.42 -7.484,-3.444 0,-0.428 -1.432,-2.192 -3.18,-3.916 -1.984,-1.952 -3,-3.68 -2.704,-4.576 0.272,-0.816 -0.312,-2.132 -1.344,-3.024 -1.004,-0.872 -1.828,-2.272 -1.828,-3.112 0,-1.34 -0.852,-1.508 -7.016,-1.36 l -7.016,0.172 0.12,6.916 c 0.208,12.112 2.012,15.256 7.576,13.228 2.548,-0.932 8.808,-0.228 10.588,1.184 0.644,0.512 1.576,2.368 2.068,4.128 0.496,1.756 2.328,4.8 4.08,6.756 3.544,3.967996 3.82,5.515996 1.788,10.171996 -1.772,4.064 -3.684,3.596 -3.304,-0.812 l 0.28,-3.28 -3,0.56 c -1.66,0.316 -3.74,1.54 -4.672,2.752 -1.328,1.724 -1.948,1.976 -2.944,1.188 -0.696,-0.552 -1.26,-1.716 -1.26,-2.58 0,-0.864 -0.856,-1.824 -1.896,-2.14 -1.044,-0.316 -2.472,-1.888 -3.172,-3.499996 -1.124,-2.576 -1.096,-3.364 0.212,-6.492 1.324,-3.172 1.336,-3.696 0.116,-4.868 -1.12,-1.072 -1.7,-1.108 -3.172,-0.224 -1.48,0.884 -2.18,0.82 -3.94,-0.36 -1.172,-0.788 -3.224,-1.44 -4.552,-1.44 -2.7,0 -3.516,-1.312 -3.516,-5.656 0,-4.012 -2.392,-5.468 -8.088,-4.944 -3.952,0.364 -4.824,0.104 -8.012,-2.352 -1.972,-1.516 -5.084,-5.164 -6.924,-8.116 -1.84,-2.952 -3.82,-6.036 -4.4,-6.852 -0.832,-1.18 -0.628,-2.312 1,-5.524 l 2.056,-4.04 -4.344,0.588 c -7.728,1.044 -9.292,2.044 -5.968,3.828 1.296,0.692 1.352,1.048 0.352,2.204 -0.656,0.752 -0.964,1.948 -0.68,2.656 0.284,0.704 -0.076,2.368 -0.796,3.692 -0.724,1.328 -1.328,3.188 -1.352,4.144 -0.076,2.98 -5.18,5.352 -10.868,5.036 -8.616,-0.476 -9.316,-0.34 -12.376,2.5 -3.824,3.552 -4.316,5.204 -2.536,8.5 1.724,3.2 4.788,4.476 10.092,4.212 4.744,-0.236 5.28,0.184 4.196,3.32 -0.924,2.664 -4.02,3.688 -6.12,2.024 -1.616,-1.284 -7.188,-0.292 -8.896,1.588 -0.716,0.784 -1.78,2.848 -2.36,4.576 -1,2.983996 -1.292,3.167996 -5.772,3.599996 -4.472,0.436 -4.904,0.292 -8.12,-2.671996 -3.588,-3.304 -4.196,-5.832 -2.468,-10.184 0.768,-1.928 1.336,-2.244 3.384,-1.868 4.056,0.74 5.656,-0.668 5.656,-5 0,-2.1 -0.408,-4.064 -0.908,-4.36 -0.496,-0.296 -0.904,-1.408 -0.904,-2.476 0,-1.068 -0.512,-2.444 -1.132,-3.048 -0.908,-0.88 -0.776,-1.352 0.672,-2.376 0.992,-0.7 2.624,-1.172 3.624,-1.052 0.996,0.12 3.752,-0.312 6.124,-0.956 3.428,-0.924 4.436,-1.624 4.9,-3.428 0.88,-3.424 3.028,-6.172 4.828,-6.172 2.844,0 2.904,-6.688 0.14,-16.416 -0.408,-1.436 -1.532,-2.348 -3.516,-2.84 -1.608,-0.4 -3.356,-1.496 -3.884,-2.4392 -0.524,-0.9432 -1.488,-1.7112 -2.14,-1.7112 -0.652,0 -1.928,-0.7808 -2.828,-1.7344 -0.908,-0.96 -2.784,-1.7344 -4.212,-1.7344 -3.38,0 -3.436,-2.3272 -0.084,-3.5544 3.54,-1.2976 9.052,0.4032 10.384,3.2028 1.804,3.7964 3.808,2.2124 4.452,-3.5232 0.796,-7.094 3.244,-9.1328 10.96,-9.1328 h 5.548 l -2.432,-2.4296 c -0.756,-0.7584 -1.384,-1.6852 -1.82,-2.594 z m 28.76,2.5156 c -0.156,0.1408 -0.308,0.256 -0.46,0.414 -1.856,1.8944 -2.728,2.1644 -5.596,1.7268 -5.008,-0.7636 -4.364,1.2528 1.18,3.6876 2.996,1.3164 4.924,2.8172 5.58,4.3356 3.16,7.3264 5.336,11.2708 6.428,11.6708 2.208,0.812 3.524,-0.8176 4.016,-4.9832 0.564,-4.7792 2.18,-5.7924 5.084,-3.1796 1.128,1.014 2.704,1.8436 3.5,1.8436 2.484,0 4.32,0.9972 4.32,2.344 0,0.7096 0.84,2.4196 1.868,3.8032 1.516,2.036 2.544,2.524 5.376,2.524 3.476,0 5.608,0.652 9.96,3.056 0.068,0.036 0.136,0.048 0.204,0.084 a 80,80 0 0 0 -41.46,-27.3268 z m -101.188,76.712 a 80,80 0 0 0 -0.0156,0.344 80,80 0 0 0 1.5624,15.367996 c 2.8984,1.18 3.6992,0.712 4,-1.984 0.1556,-1.396 0.8844,-2.976 1.6252,-3.524 1.1444,-0.844 0.938,-1.276 -1.4064,-2.875996 -1.5176,-1.036 -3.0132,-2.844 -3.3204,-4.016 -0.2976,-1.136 -1.304,-2.376 -2.4452,-3.312 z M 41.1964,118.1012 c -0.748,-0.076 -1.6492,0.324 -2.6492,1.284 -2.1156,2.024 -1.796,6.092 0.6016,7.7 2.7476,1.844 3.8076,1.308 4.1556,-2.092 0.428,-4.192 -0.468,-6.72 -2.108,-6.892 z m 13.576,12.096 c -0.816,0.028 -1.716,0.612 -2.616,1.844 -0.956,1.304 -1.216,2.988 -0.852,5.544 0.452,3.144 0.256,3.816 -1.388,4.66 -2.116,1.08 -2.568,4.296 -0.836,5.952 1.72,1.648 3.36,1.216 3.952,-1.04 0.84,-3.216 5.548,-3.592 8.764,-0.704 1.372,1.232 2.492,1.856 2.492,1.384 0,-0.472 -1.428,-2.188 -3.172,-3.804 -2.668,-2.48 -3.164,-3.536 -3.164,-6.728 0,-4.504 -1.38,-7.164 -3.18,-7.108 z m -22.2956,10.328 a 80,80 0 0 0 1.8516,2.336 c -0.5452,-0.844 -1.1676,-1.652 -1.8516,-2.336 z m 26.9596,12.28 c -0.404,0.14 -0.576,0.648 -0.576,1.54 0,0.904 -0.576,1.852 -1.28,2.108 -0.936,0.344 -1.152,1.428 -0.792,4.016 0.068,0.484 0.088,0.872 0.112,1.276 a 80,80 0 0 0 3.328,1.708 c -0.056,-1.384 0.196,-3.012 0.92,-5.052 1.228,-3.464 1.272,-4.332 0.272,-4.94 -0.936,-0.568 -1.576,-0.796 -1.984,-0.656 z"
     style="opacity:0.3;stroke-width:4" />
  <path
     style="opacity:0.1;fill:#ffffff;stroke-width:4"
     d="M 96 12 C 51.684 12 16.007812 47.68 16.007812 92 C 16.007812 92.33544 16.009812 92.667215 16.007812 93 C 16.007812 48.68 51.684 13 96 13 C 140.316 13 175.99219 48.68 175.99219 93 C 175.99019 92.667215 175.99219 92.33544 175.99219 92 C 175.99219 47.68 140.316 12 96 12 z "
     id="path8" />
  <circle
     id="circle10"
     r="44"
     cy="144"
     cx="144"
     style="opacity:0.2;stroke-width:4;filter:url(#filter875)" />
  <circle
     id="circle12"
     r="44"
     cy="140"
     cx="144"
     style="fill:#63bd35;stroke-width:4" />
  <rect
     id="rect14"
     ry="4"
     rx="4"
     y="108.00001"
     x="140"
     height="40"
     width="8"
     style="fill:#ffffff;stroke-width:4" />
  <rect
     id="rect16"
     transform="rotate(90)"
     ry="4"
     rx="4"
     y="-176"
     x="140"
     height="36"
     width="8"
     style="fill:#ffffff;stroke-width:4" />
  <path
     style="opacity:0.2;stroke-width:4;fill:#000000;filter:url(#filter891)"
     d="M 88.443359 12.429688 A 80 80 0 0 0 59.492188 20.828125 C 59.896188 22.108525 59.423172 23.552925 57.951172 24.828125 C 56.955172 25.691325 56.140625 27.035512 56.140625 27.820312 C 56.140625 28.209202 56.213541 28.636701 56.316406 29.074219 C 56.605097 28.337079 57.225685 27.45688 57.951172 26.828125 C 59.423172 25.552925 59.896188 24.108525 59.492188 22.828125 A 80 80 0 0 1 88.443359 14.429688 C 88.879359 15.338487 89.507672 16.265037 90.263672 17.023438 L 90.693359 17.453125 L 92.695312 17.453125 L 90.263672 15.023438 C 89.507672 14.265038 88.879359 13.338488 88.443359 12.429688 z M 117.20312 14.945312 C 117.04712 15.086113 116.89614 15.201375 116.74414 15.359375 C 114.88814 17.253775 114.01644 17.523538 111.14844 17.085938 C 107.49928 16.529528 106.86397 17.451572 108.92578 18.933594 C 109.47199 18.897295 110.21144 18.943067 111.14844 19.085938 C 114.01644 19.523537 114.88814 19.253775 116.74414 17.359375 C 116.89614 17.201375 117.04712 17.086112 117.20312 16.945312 A 80 80 0 0 1 155.48633 40.667969 C 156.37213 41.073061 157.34233 41.56959 158.46094 42.1875 C 158.52894 42.2235 158.59606 42.235484 158.66406 42.271484 A 80 80 0 0 0 117.20312 14.945312 z M 59.441406 30.019531 C 58.256183 31.181761 58.928241 32.460938 61.435547 32.460938 C 62.863547 32.460938 64.740437 33.235312 65.648438 34.195312 C 66.548438 35.148913 67.824562 35.929688 68.476562 35.929688 C 69.128562 35.929687 70.091234 36.697425 70.615234 37.640625 C 71.143234 38.583825 72.892 39.680078 74.5 40.080078 C 76.484 40.572078 77.607625 41.483922 78.015625 42.919922 C 79.209467 47.121694 79.874202 50.751857 80.017578 53.525391 C 80.184719 50.620189 79.523978 46.228626 78.015625 40.919922 C 77.607625 39.483922 76.484 38.572078 74.5 38.080078 C 72.892 37.680078 71.143234 36.583825 70.615234 35.640625 C 70.091234 34.697425 69.128562 33.929687 68.476562 33.929688 C 67.824562 33.929688 66.548438 33.148913 65.648438 32.195312 C 64.740437 31.235312 62.863547 30.460938 61.435547 30.460938 C 60.52737 30.460938 59.868001 30.289075 59.441406 30.019531 z M 61.027344 37.019531 C 60.594475 37.721047 59.77363 38.426688 58.607422 38.960938 C 57.239422 39.588938 55.555187 41.396562 54.867188 42.976562 C 54.175187 44.560563 53.159422 46.119359 52.607422 46.443359 C 52.059422 46.771359 51.607422 48.007312 51.607422 49.195312 C 51.607422 49.549756 51.651709 49.859891 51.730469 50.146484 C 51.89799 49.355611 52.224068 48.672812 52.607422 48.443359 C 53.159422 48.119359 54.175187 46.560563 54.867188 44.976562 C 55.555187 43.396562 57.239422 41.588938 58.607422 40.960938 C 61.000859 39.864484 61.962391 38.050436 61.027344 37.019531 z M 109.64844 48.460938 L 105.30469 49.048828 C 98.236273 50.003723 96.373951 50.928514 98.642578 52.443359 C 99.783416 51.942129 101.96678 51.499756 105.30469 51.048828 L 108.55469 50.609375 L 109.64844 48.460938 z M 99.677734 55.09375 C 99.029184 55.846445 98.72538 57.032236 99.007812 57.736328 C 99.055331 57.85412 99.079006 58.006422 99.091797 58.171875 C 99.226889 57.777123 99.417635 57.389436 99.6875 57.080078 C 100.5725 56.057016 100.57445 55.651075 99.677734 55.09375 z M 63.242188 56.904297 C 62.877688 58.124946 61.98471 59.681362 60.539062 61.564453 C 58.327062 64.444453 57.263859 65.168687 55.755859 64.804688 C 54.351859 64.468688 53.583359 64.863859 52.943359 66.255859 C 52.271359 67.731859 51.167125 68.231547 48.203125 68.435547 C 45.287125 68.639547 43.984578 69.232125 42.892578 70.828125 C 42.092578 71.992125 40.940125 72.935547 40.328125 72.935547 C 39.714525 72.935547 38.2738 73.719875 37.125 74.671875 C 34.7874 76.611875 33.874288 76.807063 33.054688 75.539062 C 31.971487 73.859062 29.63425 74.707063 26.15625 78.039062 C 23.244476 80.825884 22.765587 81.699754 23.115234 83.951172 C 23.392793 82.853919 24.257414 81.856414 26.15625 80.039062 C 29.63425 76.707063 31.971487 75.859062 33.054688 77.539062 C 33.874288 78.807063 34.7874 78.611875 37.125 76.671875 C 38.2738 75.719875 39.714525 74.935547 40.328125 74.935547 C 40.940125 74.935547 42.092578 73.992125 42.892578 72.828125 C 43.984578 71.232125 45.287125 70.639547 48.203125 70.435547 C 51.167125 70.231547 52.271359 69.731859 52.943359 68.255859 C 53.583359 66.863859 54.351859 66.468688 55.755859 66.804688 C 57.263859 67.168687 58.327062 66.444453 60.539062 63.564453 C 62.963625 60.406233 63.853599 58.153276 63.242188 56.904297 z M 106.30273 57.498047 C 105.97796 58.621791 106.09492 59.318726 106.5918 60.023438 C 107.1718 60.839437 109.15219 63.924953 110.99219 66.876953 C 112.83219 69.828953 115.94402 73.476187 117.91602 74.992188 C 121.10402 77.448188 121.97573 77.70775 125.92773 77.34375 C 131.62373 76.81975 134.01562 78.275109 134.01562 82.287109 C 134.01563 86.631109 134.83125 87.943359 137.53125 87.943359 C 138.85925 87.943359 140.91198 88.596766 142.08398 89.384766 C 143.84398 90.564766 144.54344 90.628141 146.02344 89.744141 C 147.49544 88.860141 148.07531 88.89675 149.19531 89.96875 C 149.49418 90.25586 149.71737 90.503929 149.86719 90.761719 C 150.30725 89.339124 150.07929 88.817946 149.19531 87.96875 C 148.93503 87.71962 148.70626 87.531258 148.48633 87.392578 C 147.83693 87.495283 147.25378 87.489242 146.73242 87.367188 C 146.51703 87.465989 146.28822 87.585128 146.02344 87.744141 C 144.54344 88.628141 143.84398 88.564766 142.08398 87.384766 C 140.91198 86.596766 138.85925 85.943359 137.53125 85.943359 C 134.83125 85.943359 134.01563 84.631109 134.01562 80.287109 C 134.01562 76.275109 131.62373 74.81975 125.92773 75.34375 C 121.97573 75.70775 121.10402 75.448187 117.91602 72.992188 C 115.94402 71.476187 112.83219 67.828953 110.99219 64.876953 C 109.15219 61.924953 107.1718 58.839438 106.5918 58.023438 C 106.46953 57.850033 106.37902 57.676132 106.30273 57.498047 z M 98.943359 59.498047 C 98.792716 60.129366 98.54726 60.812866 98.212891 61.427734 C 97.488891 62.755734 96.883375 64.616266 96.859375 65.572266 C 96.783375 68.552266 91.680187 70.923422 85.992188 70.607422 C 77.376188 70.131422 76.675234 70.267422 73.615234 73.107422 C 70.686015 75.828286 69.725892 77.439373 70.230469 79.523438 C 70.589712 78.232118 71.668028 76.916124 73.615234 75.107422 C 76.675234 72.267422 77.376188 72.131422 85.992188 72.607422 C 91.680187 72.923422 96.783375 70.552266 96.859375 67.572266 C 96.883375 66.616266 97.488891 64.755734 98.212891 63.427734 C 98.932891 62.103734 99.291813 60.440328 99.007812 59.736328 C 98.978362 59.662909 98.96035 59.580922 98.943359 59.498047 z M 153.32812 64.544922 C 152.38144 64.529047 151.17381 64.546984 149.63281 64.583984 L 142.61523 64.755859 L 142.65039 66.755859 L 149.63281 66.583984 C 155.79681 66.435984 156.64844 66.603359 156.64844 67.943359 C 156.64844 68.783359 157.47256 70.184641 158.47656 71.056641 C 159.50856 71.948641 160.09231 73.264078 159.82031 74.080078 C 159.52431 74.976078 160.53944 76.70425 162.52344 78.65625 C 164.27144 80.38025 165.70312 82.144266 165.70312 82.572266 C 165.70313 84.596266 169.1555 86.183625 173.1875 86.015625 C 174.0435 85.979625 174.78762 86.012828 175.51562 86.048828 A 80 80 0 0 1 175.73633 88.779297 C 175.78486 88.696776 175.82381 88.61452 175.87695 88.53125 A 80 80 0 0 0 175.51562 84.048828 C 174.78762 84.012828 174.0435 83.979625 173.1875 84.015625 C 169.1555 84.183625 165.70313 82.596266 165.70312 80.572266 C 165.70312 80.144266 164.27144 78.38025 162.52344 76.65625 C 160.53944 74.70425 159.52431 72.976078 159.82031 72.080078 C 160.09231 71.264078 159.50856 69.948641 158.47656 69.056641 C 157.47256 68.184641 156.64844 66.783359 156.64844 65.943359 C 156.64844 64.938359 156.16819 64.592547 153.32812 64.544922 z M 57.804688 71.421875 C 56.987144 72.129588 56.980604 72.595464 57.728516 73.320312 C 58.348516 73.924312 58.859375 75.299188 58.859375 76.367188 C 58.859375 77.435187 59.267672 78.54775 59.763672 78.84375 C 60.178686 79.089438 60.515502 80.498068 60.623047 82.166016 C 60.644371 81.853879 60.671875 81.552999 60.671875 81.203125 C 60.671875 79.103125 60.263672 77.13975 59.763672 76.84375 C 59.267672 76.54775 58.859375 75.435187 58.859375 74.367188 C 58.859375 73.34584 58.387844 72.06202 57.804688 71.421875 z M 85.605469 88.371094 C 85.535448 88.613848 85.46623 88.854095 85.367188 89.140625 C 84.443187 91.804625 81.348047 92.828063 79.248047 91.164062 C 77.632047 89.880062 72.059563 90.871953 70.351562 92.751953 C 69.635563 93.535953 68.572187 95.600125 67.992188 97.328125 C 66.992188 100.31212 66.700703 100.49573 62.220703 100.92773 C 57.748703 101.36373 57.315609 101.21986 54.099609 98.255859 C 52.122192 96.43496 51.056221 94.849181 50.78125 93.064453 C 50.403159 95.751577 51.418499 97.786969 54.099609 100.25586 C 57.315609 103.21986 57.748703 103.36373 62.220703 102.92773 C 66.700703 102.49573 66.992188 102.31212 67.992188 99.328125 C 68.572187 97.600125 69.635563 95.535953 70.351562 94.751953 C 72.059563 92.871953 77.632047 91.880062 79.248047 93.164062 C 81.348047 94.828062 84.443187 93.804625 85.367188 91.140625 C 85.855191 89.728837 86.010238 88.869937 85.605469 88.371094 z M 16.015625 91.65625 A 80 80 0 0 0 16 92.001953 A 80 80 0 0 0 16.09375 93.728516 C 17.201138 94.656121 18.170435 95.859843 18.460938 96.96875 C 18.768138 98.14075 20.26365 99.948379 21.78125 100.98438 C 22.342826 101.36764 22.766707 101.67632 23.09375 101.94727 C 23.125214 101.92028 23.155949 101.88467 23.1875 101.86133 C 24.3319 101.01733 24.12565 100.58437 21.78125 98.984375 C 20.26365 97.948375 18.768138 96.14075 18.460938 94.96875 C 18.163338 93.83275 17.156825 92.59225 16.015625 91.65625 z M 175.11133 92.292969 C 174.85659 93.4061 175.04629 94.609133 175.74023 96.1875 A 80 80 0 0 0 175.87695 94.507812 C 175.48738 93.675192 175.2436 92.955543 175.11133 92.292969 z M 30.537109 96.994141 C 30.456719 97.081379 30.389307 97.158119 30.296875 97.255859 C 29.439675 98.163859 27.96885 99.135922 27.03125 99.419922 C 25.101897 100.00699 25.355703 100.69697 27.388672 101.26953 C 28.313951 100.8877 29.537242 100.06051 30.296875 99.255859 C 31.454103 98.032167 31.642832 97.66571 30.537109 96.994141 z M 148.1875 97.40625 C 147.90157 98.715787 148.13222 99.643718 148.86719 101.32812 C 149.56719 102.94012 150.99506 104.51212 152.03906 104.82812 C 153.07906 105.14413 153.93555 106.10475 153.93555 106.96875 C 153.93555 107.83275 154.49931 108.99683 155.19531 109.54883 C 156.19131 110.33683 156.81262 110.08338 158.14062 108.35938 C 159.07262 107.14738 161.1525 105.92342 162.8125 105.60742 L 165.63867 105.08203 L 165.8125 103.04883 L 162.8125 103.60742 C 161.1525 103.92342 159.07262 105.14737 158.14062 106.35938 C 156.81262 108.08338 156.19131 108.33683 155.19531 107.54883 C 154.49931 106.99683 153.93555 105.83275 153.93555 104.96875 C 153.93555 104.10475 153.07906 103.14412 152.03906 102.82812 C 150.99506 102.51212 149.56719 100.94012 148.86719 99.328125 C 148.53398 98.564475 148.31489 97.96318 148.1875 97.40625 z M 170.00391 103.67383 C 169.83264 104.65296 169.43926 105.7582 168.83594 107.14062 C 167.37615 110.48859 165.82527 110.7537 165.53516 108.28125 L 165.53125 108.32812 C 165.15125 112.73613 167.06394 113.20462 168.83594 109.14062 C 169.88053 106.74712 170.30959 105.17564 170.00391 103.67383 z M 35.583984 105.78125 C 35.410439 106.09324 35.171402 106.41753 34.851562 106.75586 C 33.844924 107.82156 33.708696 108.22545 34.666016 108.96289 C 34.729119 108.89354 34.779939 108.83169 34.851562 108.75586 C 35.944415 107.59981 36.1663 106.59135 35.583984 105.78125 z M 38.894531 108.20898 C 37.73616 108.26027 37.640813 108.9325 39.164062 110 C 39.591163 110.29915 39.917579 110.58078 40.175781 110.84766 C 41.145825 110.53307 41.169848 109.54028 39.478516 108.24023 C 39.271483 108.22161 39.059842 108.20166 38.894531 108.20898 z M 52.191406 109.34961 C 52.016247 109.93167 51.694892 110.52296 51.164062 111.08398 C 50.018614 112.29775 49.723613 113.65237 50.162109 114.66016 C 50.351542 114.13384 50.680202 113.5967 51.164062 113.08398 C 52.337954 111.84331 52.554784 110.45489 52.191406 109.34961 z M 63.873047 109.57812 C 63.571158 109.6237 63.384766 109.73758 63.384766 109.94336 C 63.384766 111.41136 66.811922 117.53194 68.919922 119.83594 C 70.275935 121.31467 71.036601 122.36758 71.330078 123.37305 C 71.773165 121.56191 71.153036 120.27114 68.919922 117.83594 C 67.288811 116.05317 64.885158 112.00734 63.873047 109.57812 z M 41.197266 118.10156 C 40.449266 118.02556 39.546875 118.42477 38.546875 119.38477 C 37.351511 120.52837 36.935382 122.32468 37.230469 123.96094 C 37.403508 122.98553 37.832983 122.06775 38.546875 121.38477 C 39.546875 120.42477 40.449266 120.02556 41.197266 120.10156 C 42.400244 120.22773 43.195703 121.63116 43.369141 124.01953 C 43.567489 120.42276 42.703551 118.25954 41.197266 118.10156 z M 54.771484 130.19727 C 53.955484 130.22527 53.05625 130.80902 52.15625 132.04102 C 51.316717 133.18615 51.01402 134.62501 51.199219 136.68945 C 51.310083 135.6315 51.619806 134.77273 52.15625 134.04102 C 53.05625 132.80902 53.955484 132.22527 54.771484 132.19727 C 56.571484 132.14127 57.953125 134.80069 57.953125 139.30469 C 57.953125 142.31608 58.418754 143.44026 60.708984 145.63867 C 61.083761 145.87472 61.450077 146.1417 61.796875 146.45312 C 63.168875 147.68512 64.289063 148.30989 64.289062 147.83789 C 64.289062 147.36589 62.861187 145.6492 61.117188 144.0332 C 58.449188 141.5532 57.953125 140.49669 57.953125 137.30469 C 57.953125 132.80069 56.571484 130.14127 54.771484 130.19727 z M 132.00586 140.40625 C 131.57068 142.20589 130.34794 144.58581 128.98438 145.8125 C 127.01404 147.58551 126.42766 148.87556 127.19336 149.91406 C 127.52488 149.29339 128.10339 148.60526 128.98438 147.8125 C 131.00724 145.99269 132.74442 141.61984 132.00586 140.40625 z M 32.476562 140.52539 A 80 80 0 0 0 34.328125 142.86133 C 33.782925 142.01733 33.160563 141.20939 32.476562 140.52539 z M 51.431641 140.58203 C 51.265299 141.36415 50.809846 141.78722 49.916016 142.24609 C 48.369703 143.03533 47.726295 144.96162 48.160156 146.58984 C 48.404761 145.60769 48.989108 144.71918 49.916016 144.24609 C 51.368429 143.50045 51.687936 142.88235 51.431641 140.58203 z M 93.035156 141.53125 C 92.56853 142.29857 91.431419 143.43332 90.107422 144.40039 C 87.955422 145.97239 87.027875 147.30723 87.171875 148.61523 C 87.351875 150.25123 86.980062 150.50794 84.664062 150.33594 C 83.172062 150.22394 80.580016 150.748 78.916016 151.5 C 76.944016 152.388 74.808687 152.6725 72.804688 152.3125 C 70.500687 151.9005 69.720703 152.06094 69.720703 152.96094 C 69.720703 153.62494 68.911734 154.8647 67.927734 155.7207 C 66.372188 157.06901 66.236962 158.00368 67.308594 158.33203 C 67.486893 158.13692 67.677382 157.9377 67.927734 157.7207 C 68.911734 156.8647 69.720703 155.62494 69.720703 154.96094 C 69.720703 154.06094 70.500687 153.9005 72.804688 154.3125 C 74.808687 154.6725 76.944016 154.388 78.916016 153.5 C 80.580016 152.748 83.172062 152.22394 84.664062 152.33594 C 86.980062 152.50794 87.351875 152.25123 87.171875 150.61523 C 87.027875 149.30723 87.955422 147.97239 90.107422 146.40039 C 91.843422 145.13239 93.263672 143.57155 93.263672 142.93555 C 93.263672 142.48402 93.170314 142.0085 93.035156 141.53125 z M 119.42578 143.46094 C 119.43393 143.63498 119.44549 143.80421 119.4668 143.95898 C 119.47097 143.77903 119.4587 143.61123 119.42578 143.46094 z M 59.787109 152.76953 C 59.655109 152.75897 59.537547 152.76969 59.435547 152.80469 C 59.031547 152.94469 58.861328 153.4537 58.861328 154.3457 C 58.861328 155.2497 58.284078 156.19713 57.580078 156.45312 C 56.766147 156.75226 56.524803 157.677 56.705078 159.59766 C 56.833514 158.97509 57.117949 158.62297 57.580078 158.45312 C 58.284078 158.19713 58.861328 157.2497 58.861328 156.3457 C 58.861328 155.4537 59.031547 154.94469 59.435547 154.80469 C 59.843547 154.66469 60.483922 154.89294 61.419922 155.46094 C 61.643773 155.59704 61.808129 155.75109 61.925781 155.93945 C 62.295693 154.46056 62.119345 153.88619 61.419922 153.46094 C 60.717922 153.03494 60.183109 152.80122 59.787109 152.76953 z M 75.859375 157.0332 C 75.764532 157.10382 75.681492 157.18137 75.623047 157.27148 C 74.703047 158.69948 77.636578 161.49269 80.392578 161.80469 C 81.17774 161.89459 81.794776 162.0794 82.234375 162.31641 C 83.766148 161.47216 83.028456 160.10651 80.392578 159.80469 C 78.565249 159.59782 76.667357 158.30011 75.859375 157.0332 z M 73.873047 161.08398 C 73.400307 162.66999 71.948281 164.05229 70.548828 163.70312 C 69.276828 163.38313 68.667484 163.82031 68.271484 165.32031 C 68.135484 165.85231 67.883984 166.3035 67.583984 166.6875 A 80 80 0 0 0 68.386719 166.95312 C 68.785123 165.75824 69.390552 165.41173 70.548828 165.70312 C 72.539052 166.19969 74.678212 163.20568 73.873047 161.08398 z M 78.126953 167.60156 C 77.871942 168.43099 77.901464 169.28634 78.300781 169.95898 A 80 80 0 0 0 80.244141 170.42773 C 79.844141 169.66373 79.387359 168.96825 78.943359 168.65625 C 78.549182 168.37765 78.283125 168.01258 78.126953 167.60156 z "
     id="path882" />
</svg>
