<?xml version="1.0" encoding="UTF-8" standalone="no"?>
<svg
   xmlns:dc="http://purl.org/dc/elements/1.1/"
   xmlns:cc="http://creativecommons.org/ns#"
   xmlns:rdf="http://www.w3.org/1999/02/22-rdf-syntax-ns#"
   xmlns:svg="http://www.w3.org/2000/svg"
   xmlns="http://www.w3.org/2000/svg"
   xmlns:sodipodi="http://sodipodi.sourceforge.net/DTD/sodipodi-0.dtd"
   xmlns:inkscape="http://www.inkscape.org/namespaces/inkscape"
   width="192"
   height="192"
   version="1"
   id="svg18"
   sodipodi:docname="system_notes.svg"
   inkscape:version="0.92.3 (2405546, 2018-03-11)">
  <metadata
     id="metadata24">
    <rdf:RDF>
      <cc:Work
         rdf:about="">
        <dc:format>image/svg+xml</dc:format>
        <dc:type
           rdf:resource="http://purl.org/dc/dcmitype/StillImage" />
      </cc:Work>
    </rdf:RDF>
  </metadata>
  <defs
     id="defs22">
    <filter
       inkscape:collect="always"
       style="color-interpolation-filters:sRGB"
       id="filter857"
       x="-0.048"
       width="1.096"
       y="-0.048"
       height="1.096">
      <feGaussianBlur
         inkscape:collect="always"
         stdDeviation="3.2"
         id="feGaussianBlur859" />
    </filter>
    <filter
       inkscape:collect="always"
       style="color-interpolation-filters:sRGB"
       id="filter865"
       x="-0.0195"
       width="1.039"
       y="-0.0312"
       height="1.0624">
      <feGaussianBlur
         inkscape:collect="always"
         stdDeviation="1.04"
         id="feGaussianBlur867" />
    </filter>
  </defs>
  <sodipodi:namedview
     pagecolor="#ffffff"
     bordercolor="#666666"
     borderopacity="1"
     objecttolerance="10"
     gridtolerance="10"
     guidetolerance="10"
     inkscape:pageopacity="0"
     inkscape:pageshadow="2"
     inkscape:window-width="1920"
     inkscape:window-height="1018"
     id="namedview20"
     showgrid="false"
     inkscape:zoom="1"
     inkscape:cx="96"
     inkscape:cy="85.38992"
     inkscape:window-x="0"
     inkscape:window-y="32"
     inkscape:window-maximized="1"
     inkscape:current-layer="svg18" />
  <path
     inkscape:connector-curvature="0"
     id="path2"
     d="m 24,20 c -4.432,0 -8,3.568 -8,8 v 144 c 0,4.432 3.568,8 8,8 h 88 l 64,-64 V 28 c 0,-4.432 -3.568,-8 -8,-8 z"
     style="opacity:0.2;stroke-width:4;filter:url(#filter857)" />
  <path
     style="fill:#fecd38;stroke-width:4"
     inkscape:connector-curvature="0"
     id="path4"
     d="m 24,16 c -4.432,0 -8,3.568 -8,8 v 144 c 0,4.432 3.568,8 8,8 h 88 l 64,-64 V 24 c 0,-4.432 -3.568,-8 -8,-8 z" />
  <path
     style="fill:#ffe69b;stroke-width:4"
     inkscape:connector-curvature="0"
     id="path6"
     d="m 176,112 h -56 c -4.4184,0 -8,3.58176 -8,8 v 56 z" />
  <path
     style="opacity:0.2;fill:#ffffff;stroke-width:4"
     d="M 24 16 C 19.568 16 16 19.568 16 24 L 16 25 C 16 20.568 19.568 17 24 17 L 168 17 C 172.432 17 176 20.568 176 25 L 176 24 C 176 19.568 172.432 16 168 16 L 24 16 z "
     id="path8" />
  <path
     style="opacity:0.2;fill:#ffffff;stroke-width:4"
     d="M 120 112 C 115.5816 112 112 115.58176 112 120 L 112 121 C 112 116.58176 115.5816 113 120 113 L 175 113 L 176 112 L 120 112 z "
     id="path10" />
  <path
     inkscape:connector-curvature="0"
     id="path12"
     d="m 40,62 c -4.432,0 -8,3.568 -8,8 0,4.432 3.568,8 8,8 h 112 c 4.432,0 8,-3.568 8,-8 0,-4.432 -3.568,-8 -8,-8 z m 0,32 c -4.432,0 -8,3.568 -8,8 0,4.432 3.568,8 8,8 h 72 c 4.432,0 8,-3.568 8,-8 0,-4.432 -3.568,-8 -8,-8 z m 0,32 c -4.432,0 -8,3.568 -8,8 0,4.432 3.568,8 8,8 h 40 c 4.432,0 8,-3.568 8,-8 0,-4.432 -3.568,-8 -8,-8 z"
     style="opacity:0.1;stroke-width:4;filter:url(#filter865)" />
  <path
     inkscape:connector-curvature="0"
     id="path14"
     d="m 40,60 c -4.432,0 -8,3.568 -8,8 0,4.432 3.568,8 8,8 h 112 c 4.432,0 8,-3.568 8,-8 0,-4.432 -3.568,-8 -8,-8 z m 0,32 c -4.432,0 -8,3.568 -8,8 0,4.432 3.568,8 8,8 h 72 c 4.432,0 8,-3.568 8,-8 0,-4.432 -3.568,-8 -8,-8 z m 0,32 c -4.432,0 -8,3.568 -8,8 0,4.432 3.568,8 8,8 h 40 c 4.432,0 8,-3.568 8,-8 0,-4.432 -3.568,-8 -8,-8 z"
     style="fill:#4f4f4f;stroke-width:4" />
</svg>
