<?xml version="1.0" encoding="UTF-8" standalone="no"?>
<svg
   xmlns:dc="http://purl.org/dc/elements/1.1/"
   xmlns:cc="http://creativecommons.org/ns#"
   xmlns:rdf="http://www.w3.org/1999/02/22-rdf-syntax-ns#"
   xmlns:svg="http://www.w3.org/2000/svg"
   xmlns="http://www.w3.org/2000/svg"
   xmlns:sodipodi="http://sodipodi.sourceforge.net/DTD/sodipodi-0.dtd"
   xmlns:inkscape="http://www.inkscape.org/namespaces/inkscape"
   width="192"
   height="192"
   version="1"
   id="svg50"
   sodipodi:docname="system_videocam.svg"
   inkscape:version="0.92.3 (2405546, 2018-03-11)">
  <metadata
     id="metadata56">
    <rdf:RDF>
      <cc:Work
         rdf:about="">
        <dc:format>image/svg+xml</dc:format>
        <dc:type
           rdf:resource="http://purl.org/dc/dcmitype/StillImage" />
      </cc:Work>
    </rdf:RDF>
  </metadata>
  <defs
     id="defs54">
    <filter
       inkscape:collect="always"
       style="color-interpolation-filters:sRGB"
       id="filter905"
       x="-0.054"
       width="1.108"
       y="-0.0432"
       height="1.0864">
      <feGaussianBlur
         inkscape:collect="always"
         stdDeviation="2.88"
         id="feGaussianBlur907" />
    </filter>
    <filter
       inkscape:collect="always"
       style="color-interpolation-filters:sRGB"
       id="filter933"
       x="-0.18"
       width="1.36"
       y="-0.027692308"
       height="1.0553846">
      <feGaussianBlur
         inkscape:collect="always"
         stdDeviation="1.2"
         id="feGaussianBlur935" />
    </filter>
    <filter
       inkscape:collect="always"
       style="color-interpolation-filters:sRGB"
       id="filter964"
       x="-0.048"
       width="1.096"
       y="-0.048"
       height="1.096">
      <feGaussianBlur
         inkscape:collect="always"
         stdDeviation="0.96"
         id="feGaussianBlur966" />
    </filter>
    <filter
       inkscape:collect="always"
       style="color-interpolation-filters:sRGB"
       id="filter980"
       x="-0.048"
       width="1.096"
       y="-0.048"
       height="1.096">
      <feGaussianBlur
         inkscape:collect="always"
         stdDeviation="0.48"
         id="feGaussianBlur982" />
    </filter>
    <filter
       inkscape:collect="always"
       style="color-interpolation-filters:sRGB"
       id="filter996"
       x="-0.048"
       width="1.096"
       y="-0.048"
       height="1.096">
      <feGaussianBlur
         inkscape:collect="always"
         stdDeviation="0.32"
         id="feGaussianBlur998" />
    </filter>
  </defs>
  <sodipodi:namedview
     pagecolor="#ffffff"
     bordercolor="#666666"
     borderopacity="1"
     objecttolerance="10"
     gridtolerance="10"
     guidetolerance="10"
     inkscape:pageopacity="0"
     inkscape:pageshadow="2"
     inkscape:window-width="1920"
     inkscape:window-height="1018"
     id="namedview52"
     showgrid="false"
     inkscape:zoom="1"
     inkscape:cx="96"
     inkscape:cy="96"
     inkscape:window-x="0"
     inkscape:window-y="32"
     inkscape:window-maximized="1"
     inkscape:current-layer="svg50" />
  <rect
     id="rect2"
     ry="24"
     rx="24"
     y="24"
     x="32"
     height="160"
     width="128"
     style="opacity:0.2;stroke-width:4;filter:url(#filter905)" />
  <rect
     id="rect6"
     ry="24"
     rx="24"
     y="20"
     x="32"
     height="160"
     width="128"
     style="fill:#4f4f4f;stroke-width:4" />
  <circle
     id="circle8"
     transform="matrix(0,-1,-1,0,0,0)"
     r="8"
     cy="-140"
     cx="-42"
     style="opacity:0.1;stroke-width:4;filter:url(#filter996)" />
  <circle
     id="circle10"
     transform="matrix(0,-1,-1,0,0,0)"
     r="8"
     cy="-140"
     cx="-40"
     style="fill:#ff4d4d;stroke-width:4" />
  <circle
     id="circle12"
     transform="matrix(0,-1,-1,0,0,0)"
     r="32"
     cy="-96"
     cx="-96"
     style="opacity:0.4;stroke-width:4" />
  <circle
     id="circle14"
     transform="rotate(-90)"
     r="24"
     cy="96"
     cx="-98"
     style="opacity:0.2;stroke-width:4;filter:url(#filter964)" />
  <circle
     id="circle16"
     transform="rotate(-90)"
     r="24"
     cy="96"
     cx="-96"
     style="fill:#007095;stroke-width:4" />
  <circle
     id="circle18"
     transform="matrix(0,-1,-1,0,0,0)"
     r="12"
     cy="-96"
     cx="-98"
     style="opacity:0.1;stroke-width:4;filter:url(#filter980)" />
  <circle
     id="circle20"
     transform="matrix(0,-1,-1,0,0,0)"
     r="12"
     cy="-96"
     cx="-96"
     style="fill:#49acdc;stroke-width:4" />
  <path
     style="opacity:0.1;fill:#ffffff;stroke-width:4"
     d="M 96 72 A 24 24 0 0 0 72 96 A 24 24 0 0 0 72.019531 96.433594 A 24 24 0 0 1 96 73 A 24 24 0 0 1 119.97656 96.511719 A 24 24 0 0 0 120 96 A 24 24 0 0 0 96 72 z "
     id="path22" />
  <path
     style="opacity:0.2;fill:#ffffff;stroke-width:4"
     d="M 96 84 A 12 12 0 0 0 84 96 A 12 12 0 0 0 84.021484 96.373047 A 12 12 0 0 1 96 85 A 12 12 0 0 1 107.97656 96.525391 A 12 12 0 0 0 108 96 A 12 12 0 0 0 96 84 z "
     id="path24" />
  <path
     style="opacity:0.2;fill:#ffffff;stroke-width:4"
     d="M 140 32 A 8 8 0 0 0 132 40 A 8 8 0 0 0 132.02148 40.412109 A 8 8 0 0 1 140 33 A 8 8 0 0 1 147.97266 40.453125 A 8 8 0 0 0 148 40 A 8 8 0 0 0 140 32 z "
     id="path26" />
  <circle
     id="circle30"
     r="4"
     cy="152"
     cx="48"
     style="opacity:0.5;stroke-width:4" />
  <circle
     id="circle32"
     r="4"
     cy="152"
     cx="64"
     style="opacity:0.5;stroke-width:4" />
  <circle
     id="circle34"
     r="4"
     cy="152"
     cx="80"
     style="opacity:0.5;stroke-width:4" />
  <circle
     id="circle36"
     r="4"
     cy="152"
     cx="96"
     style="opacity:0.5;stroke-width:4" />
  <circle
     id="circle38"
     r="4"
     cy="164"
     cx="56"
     style="opacity:0.5;stroke-width:4" />
  <circle
     id="circle40"
     r="4"
     cy="164"
     cx="72"
     style="opacity:0.5;stroke-width:4" />
  <circle
     id="circle42"
     r="4"
     cy="164"
     cx="88"
     style="opacity:0.5;stroke-width:4" />
  <path
     style="opacity:0.1;fill:#ffffff;stroke-width:4"
     d="M 56 20 C 42.704 20 32 30.704 32 44 L 32 45 C 32 31.704 42.704 21 56 21 L 136 21 C 149.296 21 160 31.704 160 45 L 160 44 C 160 30.704 149.296 20 136 20 L 56 20 z "
     id="path44" />
  <rect
     id="rect4"
     ry="4"
     rx="4"
     y="50"
     x="16"
     height="104"
     width="16"
     style="opacity:0.2;stroke-width:4;filter:url(#filter933)" />
  <rect
     id="rect28"
     ry="4"
     rx="4"
     y="48"
     x="16"
     height="104"
     width="16"
     style="fill:#3f3f3f;stroke-width:4" />
  <path
     style="opacity:0.1;fill:#ffffff;stroke-width:4"
     d="M 20 48 C 17.784 48 16 49.784 16 52 L 16 53 C 16 50.784 17.784 49 20 49 L 28 49 C 30.216 49 32 50.784 32 53 L 32 52 C 32 49.784 30.216 48 28 48 L 20 48 z "
     id="path46" />
</svg>
