<?xml version="1.0" encoding="UTF-8" standalone="no"?>
<svg
   xmlns:dc="http://purl.org/dc/elements/1.1/"
   xmlns:cc="http://creativecommons.org/ns#"
   xmlns:rdf="http://www.w3.org/1999/02/22-rdf-syntax-ns#"
   xmlns:svg="http://www.w3.org/2000/svg"
   xmlns="http://www.w3.org/2000/svg"
   xmlns:sodipodi="http://sodipodi.sourceforge.net/DTD/sodipodi-0.dtd"
   xmlns:inkscape="http://www.inkscape.org/namespaces/inkscape"
   width="192"
   height="192"
   version="1"
   id="svg14"
   sodipodi:docname="system_contacts.svg"
   inkscape:version="0.92.3 (2405546, 2018-03-11)">
  <metadata
     id="metadata20">
    <rdf:RDF>
      <cc:Work
         rdf:about="">
        <dc:format>image/svg+xml</dc:format>
        <dc:type
           rdf:resource="http://purl.org/dc/dcmitype/StillImage" />
      </cc:Work>
    </rdf:RDF>
  </metadata>
  <defs
     id="defs18">
    <filter
       inkscape:collect="always"
       style="color-interpolation-filters:sRGB"
       id="filter850"
       x="-0.048"
       width="1.096"
       y="-0.048"
       height="1.096">
      <feGaussianBlur
         inkscape:collect="always"
         stdDeviation="3.2"
         id="feGaussianBlur852" />
    </filter>
    <filter
       inkscape:collect="always"
       style="color-interpolation-filters:sRGB"
       id="filter866"
       x="-0.0552"
       width="1.1104"
       y="-0.042461538"
       height="1.0849231">
      <feGaussianBlur
         inkscape:collect="always"
         stdDeviation="1.84"
         id="feGaussianBlur868" />
    </filter>
  </defs>
  <sodipodi:namedview
     pagecolor="#ffffff"
     bordercolor="#666666"
     borderopacity="1"
     objecttolerance="10"
     gridtolerance="10"
     guidetolerance="10"
     inkscape:pageopacity="0"
     inkscape:pageshadow="2"
     inkscape:window-width="1920"
     inkscape:window-height="1018"
     id="namedview16"
     showgrid="false"
     inkscape:zoom="1"
     inkscape:cx="96"
     inkscape:cy="96"
     inkscape:window-x="0"
     inkscape:window-y="32"
     inkscape:window-maximized="1"
     inkscape:current-layer="svg14" />
  <circle
     cx="96"
     cy="100"
     r="80"
     id="circle832"
     style="opacity:0.2;fill:#000000;stroke-width:4;filter:url(#filter850)" />
  <circle
     style="fill:#009587;stroke-width:4"
     id="circle4"
     r="80"
     cy="96"
     cx="96" />
  <path
     style="opacity:0.2;fill:#ffffff;stroke-width:4"
     d="M 96 16 A 80 80 0 0 0 16 96 A 80 80 0 0 0 16.017578 96.484375 A 80 80 0 0 1 96 17 A 80 80 0 0 1 175.74023 91.822266 A 80 80 0 0 1 175.83398 93.699219 A 80 80 0 0 1 175.97461 96.513672 A 80 80 0 0 0 176 96 A 80 80 0 0 0 96 16 z "
     id="path6" />
  <path
     inkscape:connector-curvature="0"
     id="path8"
     d="m 96,46 c -11.048,0 -20,8.956 -20,20 0,11.044 8.952,20 20,20 11.048,0 20,-8.956 20,-20 0,-11.044 -8.952,-20 -20,-20 z m 0,52 C 56.004,98.024 56,123.6 56,123.6 V 134 c 0,0 7.384568,16 40,16 32.61543,0 40,-16 40,-16 v -10.4 c 0,0 0,-25.616 -39.992,-25.6 z"
     style="opacity:0.2;stroke-width:4;filter:url(#filter866)" />
  <path
     inkscape:connector-curvature="0"
     id="path10"
     d="m 96,44 c -11.048,0 -20,8.956 -20,20 0,11.044 8.952,20 20,20 11.048,0 20,-8.956 20,-20 0,-11.044 -8.952,-20 -20,-20 z m 0,52 C 56.004,96.024 56,121.6 56,121.6 V 132 c 0,0 7.384568,16 40,16 32.61543,0 40,-16 40,-16 v -10.4 c 0,0 0,-25.616 -39.992,-25.6 z"
     style="fill:#ffffff;stroke-width:4" />
</svg>
