<?xml version="1.0" encoding="UTF-8" standalone="no"?>
<svg
   xmlns:dc="http://purl.org/dc/elements/1.1/"
   xmlns:cc="http://creativecommons.org/ns#"
   xmlns:rdf="http://www.w3.org/1999/02/22-rdf-syntax-ns#"
   xmlns:svg="http://www.w3.org/2000/svg"
   xmlns="http://www.w3.org/2000/svg"
   xmlns:sodipodi="http://sodipodi.sourceforge.net/DTD/sodipodi-0.dtd"
   xmlns:inkscape="http://www.inkscape.org/namespaces/inkscape"
   width="192"
   height="192"
   version="1"
   id="svg22"
   sodipodi:docname="system_internet_chat.svg"
   inkscape:version="0.92.3 (2405546, 2018-03-11)">
  <metadata
     id="metadata28">
    <rdf:RDF>
      <cc:Work
         rdf:about="">
        <dc:format>image/svg+xml</dc:format>
        <dc:type
           rdf:resource="http://purl.org/dc/dcmitype/StillImage" />
        <dc:title></dc:title>
      </cc:Work>
    </rdf:RDF>
  </metadata>
  <defs
     id="defs26">
    <filter
       inkscape:collect="always"
       style="color-interpolation-filters:sRGB"
       id="filter893"
       x="-0.044571429"
       width="1.0891429"
       y="-0.052"
       height="1.104">
      <feGaussianBlur
         inkscape:collect="always"
         stdDeviation="2.08"
         id="feGaussianBlur895" />
    </filter>
    <filter
       inkscape:collect="always"
       style="color-interpolation-filters:sRGB"
       id="filter909"
       x="-0.044571429"
       width="1.0891429"
       y="-0.052"
       height="1.104">
      <feGaussianBlur
         inkscape:collect="always"
         stdDeviation="2.08"
         id="feGaussianBlur911" />
    </filter>
    <filter
       inkscape:collect="always"
       style="color-interpolation-filters:sRGB"
       id="filter925"
       x="-0.039"
       width="1.078"
       y="-0.0624"
       height="1.1248">
      <feGaussianBlur
         inkscape:collect="always"
         stdDeviation="1.04"
         id="feGaussianBlur927" />
    </filter>
  </defs>
  <sodipodi:namedview
     pagecolor="#ffffff"
     bordercolor="#666666"
     borderopacity="1"
     objecttolerance="10"
     gridtolerance="10"
     guidetolerance="10"
     inkscape:pageopacity="0"
     inkscape:pageshadow="2"
     inkscape:window-width="1920"
     inkscape:window-height="1018"
     id="namedview24"
     showgrid="false"
     inkscape:zoom="1"
     inkscape:cx="24"
     inkscape:cy="67.010753"
     inkscape:window-x="0"
     inkscape:window-y="32"
     inkscape:window-maximized="1"
     inkscape:current-layer="svg22" />
  <path
     id="path877"
     d="m 176,28.000003 -16,16 V 116 c 0,4.432 -3.568,8 -8,8 H 72 c -4.432,0 -8,-3.568 -8,-8 V 36.000003 c 0,-4.432 3.568,-8 8,-8 z"
     inkscape:connector-curvature="0"
     style="opacity:0.2;fill:#000000;stroke-width:4;filter:url(#filter893)" />
  <path
     style="fill:#0286c2;stroke-width:4"
     inkscape:connector-curvature="0"
     d="m 176,24 -16,16 v 72 c 0,4.432 -3.568,8 -8,8 H 72 c -4.432,0 -8,-3.568 -8,-8 V 32 c 0,-4.432 3.568,-8 8,-8 z"
     id="path2" />
  <path
     style="opacity:0.2;stroke-width:4"
     inkscape:connector-curvature="0"
     d="m 80,48 v 8 h 64 v -8 z m 0,16 v 8 h 64 v -8 z m 0,16 v 8 h 48 v -8 z"
     id="path4" />
  <path
     style="fill:#0286c2;stroke-width:4"
     inkscape:connector-curvature="0"
     d="m 176,24 -16,16 v 72 c 0,4.432 -3.568,8 -8,8 H 72 c -4.432,0 -8,-3.568 -8,-8 V 32 c 0,-4.432 3.568,-8 8,-8 z"
     id="path6" />
  <path
     id="path879"
     d="m 16,76.000003 16,16 V 164 c 0,4.432 3.568,8 8,8 h 80 c 4.432,0 8,-3.568 8,-8 V 84.000003 c 0,-4.432 -3.568,-8 -8,-8 z"
     inkscape:connector-curvature="0"
     style="opacity:0.2;fill:#000000;stroke-width:4;filter:url(#filter909)" />
  <path
     style="fill:#35b9f5;stroke-width:4"
     inkscape:connector-curvature="0"
     d="m 16,72 16,16 v 72 c 0,4.432 3.568,8 8,8 h 80 c 4.432,0 8,-3.568 8,-8 V 80 c 0,-4.432 -3.568,-8 -8,-8 z"
     id="path10" />
  <path
     style="opacity:0.2;stroke-width:4;filter:url(#filter925)"
     inkscape:connector-curvature="0"
     d="m 48,106 v 8 h 64 v -8 z m 0,16 v 8 h 64 v -8 z m 0,16 v 8 h 48 v -8 z"
     id="path12" />
  <path
     style="fill:#aee3fb;stroke-width:4"
     inkscape:connector-curvature="0"
     d="m 48,104 v 8 h 64 v -8 z m 0,16 v 8 h 64 v -8 z m 0,16 v 8 h 48 v -8 z"
     id="path14" />
  <path
     style="opacity:0.2;fill:#ffffff;stroke-width:4"
     d="M 72 24 C 67.568 24 64 27.568 64 32 L 64 33 C 64 28.568 67.568 25 72 25 L 175 25 L 176 24 L 72 24 z "
     id="path16" />
  <path
     style="opacity:0.2;fill:#ffffff;stroke-width:4"
     d="M 16 72 L 17 73 L 120 73 C 124.432 73 128 76.568 128 81 L 128 80 C 128 75.568 124.432 72 120 72 L 16 72 z "
     id="path18" />
</svg>
