<?xml version="1.0" encoding="UTF-8" standalone="no"?>
<svg
   xmlns:dc="http://purl.org/dc/elements/1.1/"
   xmlns:cc="http://creativecommons.org/ns#"
   xmlns:rdf="http://www.w3.org/1999/02/22-rdf-syntax-ns#"
   xmlns:svg="http://www.w3.org/2000/svg"
   xmlns="http://www.w3.org/2000/svg"
   xmlns:sodipodi="http://sodipodi.sourceforge.net/DTD/sodipodi-0.dtd"
   xmlns:inkscape="http://www.inkscape.org/namespaces/inkscape"
   width="192"
   height="192"
   version="1.1"
   id="svg20"
   sodipodi:docname="system_phone.svg"
   inkscape:version="0.92.3 (2405546, 2018-03-11)">
  <metadata
     id="metadata26">
    <rdf:RDF>
      <cc:Work
         rdf:about="">
        <dc:format>image/svg+xml</dc:format>
        <dc:type
           rdf:resource="http://purl.org/dc/dcmitype/StillImage" />
      </cc:Work>
    </rdf:RDF>
  </metadata>
  <defs
     id="defs24">
    <filter
       inkscape:collect="always"
       style="color-interpolation-filters:sRGB"
       id="filter869"
       x="-0.044"
       width="1.088"
       y="-0.0528"
       height="1.1056">
      <feGaussianBlur
         inkscape:collect="always"
         stdDeviation="1.32"
         id="feGaussianBlur871" />
    </filter>
    <filter
       inkscape:collect="always"
       style="color-interpolation-filters:sRGB"
       id="filter885"
       x="-0.0528"
       width="1.1056"
       y="-0.044"
       height="1.088">
      <feGaussianBlur
         inkscape:collect="always"
         stdDeviation="1.32"
         id="feGaussianBlur887" />
    </filter>
    <filter
       inkscape:collect="always"
       style="color-interpolation-filters:sRGB"
       id="filter998"
       x="-0.048289544"
       width="1.0965791"
       y="-0.047713907"
       height="1.0954278">
      <feGaussianBlur
         inkscape:collect="always"
         stdDeviation="2.4644031"
         id="feGaussianBlur1000" />
    </filter>
  </defs>
  <sodipodi:namedview
     pagecolor="#ffffff"
     bordercolor="#666666"
     borderopacity="1"
     objecttolerance="10"
     gridtolerance="10"
     guidetolerance="10"
     inkscape:pageopacity="0"
     inkscape:pageshadow="2"
     inkscape:window-width="1920"
     inkscape:window-height="1018"
     id="namedview22"
     showgrid="false"
     inkscape:zoom="1"
     inkscape:cx="96"
     inkscape:cy="96"
     inkscape:window-x="0"
     inkscape:window-y="32"
     inkscape:window-maximized="1"
     inkscape:current-layer="svg20" />
  <path
     style="opacity:0.2;fill:#000000;fill-rule:evenodd;stroke-width:4;filter:url(#filter998)"
     d="M 51.84375 52.041016 L 22.636719 53.556641 C 22.642219 54.626941 20.015044 54.336868 20.070312 55.701172 C 20.733458 72.070832 25.864724 108.53074 56.6875 139.35352 C 87.9946 170.66062 125.11854 175.46377 141.09766 176 C 141.6802 175.56773 142.15839 174.84645 142.55078 173.9043 C 141.7075 173.96056 140.8583 174 140 174 C 120.11775 174 104 158.65032 104 139.71484 C 104 137.99457 104.13578 136.37715 104.39258 134.85352 C 96.194157 130.78957 87.575958 124.99197 79.3125 116.72852 C 53.01326 90.429271 51.65983 60.53034 51.84375 52.041016 z "
     id="path939" />
  <path
     inkscape:connector-curvature="0"
     id="path4"
     d="m 22.63589,49.515152 c 0.0055,1.0703 -2.621821,0.779896 -2.566552,2.1442 0.663145,16.36966 5.795386,52.830368 36.618162,83.653148 31.3071,31.3071 68.43071,36.10996 84.40983,36.64619 1.06395,0.0356 1.27659,-2.40963 2.14509,-2.40519 L 144,140.15625 C 135.51068,140.34017 105.61174,138.98674 79.3125,112.6875 53.01326,86.38826 51.659832,56.489324 51.843752,48 Z"
     style="fill:#0a76b1;fill-rule:evenodd;stroke-width:4" />
  <path
     inkscape:connector-curvature="0"
     id="path6"
     d="M 80,54 C 80,73.882252 73.221192,90 54.285716,90 35.350237,90 20,73.882252 20,54 20,34.117749 35.350237,18 54.285716,18 73.221192,18 80,34.117749 80,54 Z"
     style="opacity:0.2;fill-rule:evenodd;stroke-width:4;filter:url(#filter885)" />
  <path
     inkscape:connector-curvature="0"
     id="path8"
     d="M 80,52 C 80,71.882252 73.221192,88 54.285716,88 35.350237,88 20,71.882252 20,52 20,32.117749 35.350237,16 54.285716,16 73.221192,16 80,32.117749 80,52 Z"
     style="fill:#3eafe3;fill-rule:evenodd;stroke-width:4" />
  <path
     inkscape:connector-curvature="0"
     id="path10"
     d="m 140,114 c 19.88225,0 36,6.77881 36,25.71428 C 176,158.64976 159.88225,174 140,174 120.11775,174 104,158.64976 104,139.71428 104,120.77881 120.11775,114 140,114 Z"
     style="opacity:0.2;fill-rule:evenodd;stroke-width:4;filter:url(#filter869)" />
  <path
     inkscape:connector-curvature="0"
     id="path12"
     d="m 140,112 c 19.88225,0 36,6.77881 36,25.71428 C 176,156.64976 159.88225,172 140,172 120.11775,172 104,156.64976 104,137.71428 104,118.77881 120.11775,112 140,112 Z"
     style="fill:#3eafe3;fill-rule:evenodd;stroke-width:4" />
  <path
     style="opacity:0.2;fill:#ffffff;fill-rule:evenodd;stroke-width:4"
     d="M 54.289062 16 C 35.35358 16 20 32.117749 20 52 C 20 52.113429 20.010676 52.22388 20.015625 52.335938 C 20.35446 32.76149 35.565802 17 54.289062 17 C 73.004047 17 79.827699 32.752024 79.984375 52.314453 C 79.988654 52.209195 80 52.1077 80 52 C 80 32.117749 73.224538 16 54.289062 16 z M 140 112 C 120.11775 112 104 118.77546 104 137.71094 C 104 137.82296 104.01202 137.9322 104.01758 138.04297 C 104.39784 119.62206 120.35623 113 140 113 C 159.64377 113 175.60216 119.62206 175.98242 138.04297 C 175.98798 137.9322 176 137.82295 176 137.71094 C 176 118.77546 159.88225 112 140 112 z "
     id="path14" />
</svg>
