<?xml version="1.0" encoding="UTF-8" standalone="no"?>
<svg
   xmlns:dc="http://purl.org/dc/elements/1.1/"
   xmlns:cc="http://creativecommons.org/ns#"
   xmlns:rdf="http://www.w3.org/1999/02/22-rdf-syntax-ns#"
   xmlns:svg="http://www.w3.org/2000/svg"
   xmlns="http://www.w3.org/2000/svg"
   xmlns:sodipodi="http://sodipodi.sourceforge.net/DTD/sodipodi-0.dtd"
   xmlns:inkscape="http://www.inkscape.org/namespaces/inkscape"
   width="192"
   height="192"
   version="1"
   id="svg12"
   sodipodi:docname="system_downloads_2.svg"
   inkscape:version="0.92.3 (2405546, 2018-03-11)">
  <metadata
     id="metadata18">
    <rdf:RDF>
      <cc:Work
         rdf:about="">
        <dc:format>image/svg+xml</dc:format>
        <dc:type
           rdf:resource="http://purl.org/dc/dcmitype/StillImage" />
        <dc:title></dc:title>
      </cc:Work>
    </rdf:RDF>
  </metadata>
  <defs
     id="defs16">
    <filter
       inkscape:collect="always"
       style="color-interpolation-filters:sRGB"
       id="filter882"
       x="-0.034800008"
       width="1.0696"
       y="-0.077333293"
       height="1.1546666">
      <feGaussianBlur
         inkscape:collect="always"
         stdDeviation="2.3200005"
         id="feGaussianBlur884" />
    </filter>
  </defs>
  <sodipodi:namedview
     pagecolor="#ffffff"
     bordercolor="#666666"
     borderopacity="1"
     objecttolerance="10"
     gridtolerance="10"
     guidetolerance="10"
     inkscape:pageopacity="0"
     inkscape:pageshadow="2"
     inkscape:window-width="1920"
     inkscape:window-height="1018"
     id="namedview14"
     showgrid="false"
     inkscape:zoom="2.45"
     inkscape:cx="24"
     inkscape:cy="89.306122"
     inkscape:window-x="0"
     inkscape:window-y="32"
     inkscape:window-maximized="1"
     inkscape:current-layer="svg12" />
  <path
     style="fill:#58992d;stroke-width:4"
     d="m 52,16 c -3.324,0 -8,3.568 -8,8 v 84 h 52 52 V 24 c 0,-4.432 -4.676,-8 -8,-8 z"
     id="path4"
     inkscape:connector-curvature="0" />
  <path
     style="opacity:0.1;fill:#ffffff;stroke-width:4"
     d="M 52 16 C 48.676 16 44 19.568 44 24 L 44 25 C 44 20.568 48.676 17 52 17 L 140 17 C 143.324 17 148 20.568 148 25 L 148 24 C 148 19.568 143.324 16 140 16 L 52 16 z "
     id="path8" />
  <path
     style="opacity:0.2;fill-rule:evenodd;stroke-width:4;filter:url(#filter882)"
     d="m 22.138334,108 c -0.653946,-0.002 -13.0742068,-0.004 -0.614503,11.13281 l 66.253145,57.60157 C 90.237316,178.87356 92.775372,179.9593 96,180 c 3.224628,-0.0407 5.76268,-1.12644 8.22302,-3.26562 l 66.25315,-57.60157 C 182.93587,107.99623 170.51561,107.99827 169.86166,108 H 96 Z"
     id="path2"
     inkscape:connector-curvature="0" />
  <path
     style="fill:#81d547;fill-rule:evenodd;stroke-width:4"
     d="m 22.138334,104 c -0.653946,-0.002 -13.0742068,-0.004 -0.614503,11.13281 l 66.253145,57.60157 C 90.237316,174.87356 92.775372,175.9593 96,176 c 3.224628,-0.0407 5.76268,-1.12644 8.22302,-3.26562 l 66.25315,-57.60157 C 182.93587,103.99623 170.51561,103.99827 169.86166,104 H 96 Z"
     id="path6"
     inkscape:connector-curvature="0" />
  <path
     style="opacity:0.2;fill:#ffffff;fill-rule:evenodd;stroke-width:4"
     d="M 22.140625 104 C 21.681712 103.99912 15.468346 104.02113 16.091797 107.87305 C 16.606888 105.02027 21.725535 104.9992 22.140625 105 L 96 105 L 169.85938 105 C 170.27446 104.9989 175.39311 105.02019 175.9082 107.87305 C 176.53166 104.02109 170.31828 103.99878 169.85938 104 L 96 104 L 22.140625 104 z "
     id="path10" />
</svg>
