<?xml version="1.0" encoding="UTF-8" standalone="no"?>
<svg
   xmlns:dc="http://purl.org/dc/elements/1.1/"
   xmlns:cc="http://creativecommons.org/ns#"
   xmlns:rdf="http://www.w3.org/1999/02/22-rdf-syntax-ns#"
   xmlns:svg="http://www.w3.org/2000/svg"
   xmlns="http://www.w3.org/2000/svg"
   xmlns:sodipodi="http://sodipodi.sourceforge.net/DTD/sodipodi-0.dtd"
   xmlns:inkscape="http://www.inkscape.org/namespaces/inkscape"
   width="192"
   height="192"
   version="1"
   id="svg16"
   sodipodi:docname="system_mic_2.svg"
   inkscape:version="0.92.3 (2405546, 2018-03-11)">
  <metadata
     id="metadata22">
    <rdf:RDF>
      <cc:Work
         rdf:about="">
        <dc:format>image/svg+xml</dc:format>
        <dc:type
           rdf:resource="http://purl.org/dc/dcmitype/StillImage" />
        <dc:title></dc:title>
      </cc:Work>
    </rdf:RDF>
  </metadata>
  <defs
     id="defs20">
    <filter
       inkscape:collect="always"
       style="color-interpolation-filters:sRGB"
       id="filter867"
       x="-0.048"
       width="1.096"
       y="-0.048"
       height="1.096">
      <feGaussianBlur
         inkscape:collect="always"
         stdDeviation="3.2"
         id="feGaussianBlur869" />
    </filter>
    <filter
       inkscape:collect="always"
       style="color-interpolation-filters:sRGB"
       id="filter887"
       x="-0.0585"
       width="1.117"
       y="-0.040695652"
       height="1.0813913">
      <feGaussianBlur
         inkscape:collect="always"
         stdDeviation="0.2600013"
         id="feGaussianBlur889" />
    </filter>
  </defs>
  <sodipodi:namedview
     pagecolor="#ffffff"
     bordercolor="#666666"
     borderopacity="1"
     objecttolerance="10"
     gridtolerance="10"
     guidetolerance="10"
     inkscape:pageopacity="0"
     inkscape:pageshadow="2"
     inkscape:window-width="1920"
     inkscape:window-height="1018"
     id="namedview18"
     showgrid="false"
     inkscape:zoom="1"
     inkscape:cx="24"
     inkscape:cy="95.760244"
     inkscape:window-x="0"
     inkscape:window-y="32"
     inkscape:window-maximized="1"
     inkscape:current-layer="svg16" />
  <rect
     id="rect849"
     ry="80"
     rx="80"
     height="160"
     width="160"
     y="-176"
     x="-180"
     transform="matrix(0,-1,-1,0,0,0)"
     style="opacity:0.2;fill:#000000;stroke-width:4;filter:url(#filter867)" />
  <rect
     style="fill:#e05048;stroke-width:4"
     transform="matrix(0,-1,-1,0,0,0)"
     x="-176"
     y="-176"
     width="160"
     height="160"
     rx="80"
     ry="80"
     id="rect2" />
  <path
     style="opacity:0.2;fill:#ffffff;stroke-width:4"
     d="M 96 16 C 51.68 16 16 51.68 16 96 C 16 96.336 16.002 96.6675 16 97 C 16 52.68 51.68 17 96 17 C 140.32 17 176 52.68 176 97 C 175.998 96.6675 176 96.336 176 96 C 176 51.68 140.32 16 96 16 z "
     id="path4" />
  <g
     transform="matrix(6,0,0,6,-2022,2546.0001)"
     style="opacity:0.2;filter:url(#filter887);enable-background:new"
     id="g8">
    <path
       inkscape:connector-curvature="0"
       transform="matrix(0.66667,0,0,0.66667,246.33,-530.67)"
       d="m 160,173 c -2.216,0 -4,1.784 -4,4 v 8 c 0,2.216 1.784,4 4,4 2.216,0 4,-1.784 4,-4 v -8 c 0,-2.216 -1.784,-4 -4,-4 z m -8,10 v 2 c 0,4.135 3.0527,7.5163 7,7.9512 V 196 h 2 v -3.0488 c 3.9473,-0.43487 7,-3.8162 7,-7.9512 v -2 h -2 v 2 c 0,3.324 -2.676,6 -6,6 -3.324,0 -6,-2.676 -6,-6 v -2 z"
       id="path6" />
  </g>
  <g
     transform="matrix(6,0,0,6,-2022,2544.0161)"
     style="fill:#ffffff;enable-background:new"
     id="g12">
    <path
       inkscape:connector-curvature="0"
       transform="matrix(0.66667,0,0,0.66667,246.33,-530.67)"
       d="m 160,173 c -2.216,0 -4,1.784 -4,4 v 8 c 0,2.216 1.784,4 4,4 2.216,0 4,-1.784 4,-4 v -8 c 0,-2.216 -1.784,-4 -4,-4 z m -8,10 v 2 c 0,4.135 3.0527,7.5163 7,7.9512 V 196 h 2 v -3.0488 c 3.9473,-0.43487 7,-3.8162 7,-7.9512 v -2 h -2 v 2 c 0,3.324 -2.676,6 -6,6 -3.324,0 -6,-2.676 -6,-6 v -2 z"
       id="path10" />
  </g>
</svg>
