<?xml version="1.0" encoding="UTF-8" standalone="no"?>
<svg
   xmlns:dc="http://purl.org/dc/elements/1.1/"
   xmlns:cc="http://creativecommons.org/ns#"
   xmlns:rdf="http://www.w3.org/1999/02/22-rdf-syntax-ns#"
   xmlns:svg="http://www.w3.org/2000/svg"
   xmlns="http://www.w3.org/2000/svg"
   xmlns:sodipodi="http://sodipodi.sourceforge.net/DTD/sodipodi-0.dtd"
   xmlns:inkscape="http://www.inkscape.org/namespaces/inkscape"
   width="192"
   height="192"
   version="1"
   id="svg18"
   sodipodi:docname="system_gallery.svg"
   inkscape:version="0.92.3 (2405546, 2018-03-11)">
  <metadata
     id="metadata24">
    <rdf:RDF>
      <cc:Work
         rdf:about="">
        <dc:format>image/svg+xml</dc:format>
        <dc:type
           rdf:resource="http://purl.org/dc/dcmitype/StillImage" />
      </cc:Work>
    </rdf:RDF>
  </metadata>
  <defs
     id="defs22">
    <filter
       inkscape:collect="always"
       style="color-interpolation-filters:sRGB"
       id="filter858"
       x="-0.0456"
       width="1.0912"
       y="-0.050666667"
       height="1.1013333">
      <feGaussianBlur
         inkscape:collect="always"
         stdDeviation="3.04"
         id="feGaussianBlur860" />
    </filter>
    <filter
       inkscape:collect="always"
       style="color-interpolation-filters:sRGB"
       id="filter874"
       x="-0.048"
       width="1.096"
       y="-0.048"
       height="1.096">
      <feGaussianBlur
         inkscape:collect="always"
         stdDeviation="0.96"
         id="feGaussianBlur876" />
    </filter>
  </defs>
  <sodipodi:namedview
     pagecolor="#ffffff"
     bordercolor="#666666"
     borderopacity="1"
     objecttolerance="10"
     gridtolerance="10"
     guidetolerance="10"
     inkscape:pageopacity="0"
     inkscape:pageshadow="2"
     inkscape:window-width="1920"
     inkscape:window-height="1018"
     id="namedview20"
     showgrid="false"
     inkscape:zoom="1"
     inkscape:cx="96"
     inkscape:cy="96"
     inkscape:window-x="0"
     inkscape:window-y="32"
     inkscape:window-maximized="1"
     inkscape:current-layer="svg18" />
  <path
     style="opacity:0.2;fill:#000000;stroke-width:4;filter:url(#filter858)"
     d="m 24,28 c -4.432,0 -8,3.568 -8,8 v 96 32 c 0,4.432 3.568,8 8,8 h 144 c 4.432,0 8,-3.568 8,-8 V 132 36 c 0,-4.432 -3.568,-8 -8,-8 z"
     id="path841"
     inkscape:connector-curvature="0" />
  <path
     style="fill:#ff766a;stroke-width:4"
     inkscape:connector-curvature="0"
     id="path4"
     d="M 176,160 V 32 c 0,-4.432 -3.568,-8 -8,-8 H 24 c -4.432,0 -8,3.568 -8,8 v 128 c 0,4.432 3.568,8 8,8 h 144 c 4.432,0 8,-3.568 8,-8 z" />
  <path
     inkscape:connector-curvature="0"
     id="path6"
     d="m 128,58 c 13.2548,0 24,10.7452 24,24 0,13.2548 -10.7452,24 -24,24 -13.2548,0 -24,-10.7452 -24,-24 0,-13.2548 10.7452,-24 24,-24 z"
     style="opacity:0.2;fill-rule:evenodd;stroke-width:4;filter:url(#filter874)" />
  <path
     style="fill:#fffee4;fill-rule:evenodd;stroke-width:4"
     inkscape:connector-curvature="0"
     id="path8"
     d="m 128,56 c 13.2548,0 24,10.7452 24,24 0,13.2548 -10.7452,24 -24,24 -13.2548,0 -24,-10.7452 -24,-24 0,-13.2548 10.7452,-24 24,-24 z" />
  <path
     style="opacity:0.2;fill:#ffffff;stroke-width:4"
     d="M 24 24 C 19.568 24 16 27.568 16 32 L 16 33 C 16 28.568 19.568 25 24 25 L 168 25 C 172.432 25 176 28.568 176 33 L 176 32 C 176 27.568 172.432 24 168 24 L 24 24 z "
     id="path10" />
  <path
     style="fill:#d22f7a;stroke-width:4"
     inkscape:connector-curvature="0"
     id="path12"
     d="m 16,128 v 32 c 0,4.432 3.568,8 8,8 h 144 c 4.432,0 8,-3.568 8,-8 v -32 z" />
  <path
     inkscape:connector-curvature="0"
     id="path14"
     d="m 16,129 v -4.86538 c 0,0 11.538,-8.10769 14.782,-8.81472 3.24388,-0.70737 7.0748,-0.13153 11.0116,0.65914 3.93708,0.78813 9.8148,1.854 11.6492,1.92062 1.83448,0.0681 5.154,-0.17027 9.0112,-0.41843 3.85712,-0.24306 10.2436,-0.46705 12.2356,-0.4427 1.992,0 6.9648,0.29201 12.266,0.63629 5.3008,0.34522 12.582,0.92238 14.2336,1.08388 1.65196,0.16047 3.59376,0.45729 5.7976,0.7808 2.2036,0.32096 6.0184,0.80609 7.3684,0.9394 1.34956,0.13111 4.4784,0.58913 8.1088,0.94473 3.63032,0.35501 9.44,0.47674 11.1176,0.34522 1.67776,-0.13154 5.1944,-1.45358 9.1136,-2.67221 3.919,-1.21814 8.2404,-2.33364 11.5272,-2.05781 3.287,0.27712 21.7776,7.09545 21.7776,7.09545 v 4.86496 H 35.432 Z"
     style="fill:#3f3f3f;stroke-width:4.12634182" />
</svg>
