<?xml version="1.0" encoding="UTF-8" standalone="no"?>
<svg
   xmlns:dc="http://purl.org/dc/elements/1.1/"
   xmlns:cc="http://creativecommons.org/ns#"
   xmlns:rdf="http://www.w3.org/1999/02/22-rdf-syntax-ns#"
   xmlns:svg="http://www.w3.org/2000/svg"
   xmlns="http://www.w3.org/2000/svg"
   xmlns:sodipodi="http://sodipodi.sourceforge.net/DTD/sodipodi-0.dtd"
   xmlns:inkscape="http://www.inkscape.org/namespaces/inkscape"
   width="192"
   height="192"
   version="1.1"
   id="svg26"
   sodipodi:docname="system_maps.svg"
   inkscape:version="0.92.3 (2405546, 2018-03-11)">
  <metadata
     id="metadata32">
    <rdf:RDF>
      <cc:Work
         rdf:about="">
        <dc:format>image/svg+xml</dc:format>
        <dc:type
           rdf:resource="http://purl.org/dc/dcmitype/StillImage" />
      </cc:Work>
    </rdf:RDF>
  </metadata>
  <defs
     id="defs30">
    <filter
       inkscape:collect="always"
       style="color-interpolation-filters:sRGB"
       id="filter892"
       x="-0.048"
       width="1.096"
       y="-0.048"
       height="1.096">
      <feGaussianBlur
         inkscape:collect="always"
         stdDeviation="3.2"
         id="feGaussianBlur894" />
    </filter>
    <filter
       inkscape:collect="always"
       style="color-interpolation-filters:sRGB"
       id="filter908"
       x="-0.05700083"
       width="1.1140017"
       y="-0.041454106"
       height="1.0829082">
      <feGaussianBlur
         inkscape:collect="always"
         stdDeviation="2.2800104"
         id="feGaussianBlur910" />
    </filter>
    <filter
       inkscape:collect="always"
       style="color-interpolation-filters:sRGB"
       id="filter931"
       x="-0.048"
       width="1.096"
       y="-0.048"
       height="1.096">
      <feGaussianBlur
         inkscape:collect="always"
         stdDeviation="0.8"
         id="feGaussianBlur933" />
    </filter>
  </defs>
  <sodipodi:namedview
     pagecolor="#ffffff"
     bordercolor="#666666"
     borderopacity="1"
     objecttolerance="10"
     gridtolerance="10"
     guidetolerance="10"
     inkscape:pageopacity="0"
     inkscape:pageshadow="2"
     inkscape:window-width="1920"
     inkscape:window-height="1018"
     id="namedview28"
     showgrid="false"
     inkscape:zoom="1"
     inkscape:cx="96"
     inkscape:cy="96"
     inkscape:window-x="0"
     inkscape:window-y="32"
     inkscape:window-maximized="1"
     inkscape:current-layer="svg26" />
  <rect
     width="160"
     height="160"
     x="-180"
     y="-176"
     rx="8"
     ry="8"
     transform="matrix(0,-1,-1,0,0,0)"
     id="rect832"
     style="opacity:0.2;fill:#000000;stroke-width:4;filter:url(#filter892)" />
  <rect
     id="rect4"
     transform="matrix(0,-1,-1,0,0,0)"
     ry="8"
     rx="8"
     y="-176"
     x="-176"
     height="160"
     width="160"
     style="fill:#e9e5dc;stroke-width:4" />
  <path
     style="opacity:0.2;fill:#ffffff;stroke-width:4"
     d="M 24 16 C 19.568 16 16 19.568 16 24 L 16 25 C 16 20.568 19.568 17 24 17 L 168 17 C 172.432 17 176 20.568 176 25 L 176 24 C 176 19.568 172.432 16 168 16 L 24 16 z "
     id="path6" />
  <path
     inkscape:connector-curvature="0"
     id="path8"
     d="m 24.0004,176 72,-72 72,72 z"
     style="fill:#2095f2;fill-rule:evenodd;stroke-width:4" />
  <path
     inkscape:connector-curvature="0"
     id="path10"
     d="M 176,168 104,96 176,24 Z"
     style="fill:#1ea362;fill-rule:evenodd;stroke-width:4" />
  <path
     inkscape:connector-curvature="0"
     id="path12"
     d="M 103.072,88.8 88.9312,102.9484 161.8512,176 h 6.1484 c 4.432,0 8,-3.6996 8,-8.1316 v -6.1408 l -72.928,-72.928 z"
     style="fill:#feea3a;fill-rule:evenodd;stroke-width:4" />
  <path
     inkscape:connector-curvature="0"
     id="path14"
     d="M 161.86,16 16,161.6 v 6.14 c 0,4.432 3.571958,8.44725 8,8.26 h 6.1484 l 145.852,-145.86 -5.22675,-4.918577 c -3.2276,-3.037302 1.50207,-2.11918 -2.15834,-4.617986 L 161.8596,15.9916 Z"
     style="fill:#ffffff;fill-rule:evenodd;stroke-width:4" />
  <path
     inkscape:connector-curvature="0"
     id="path16"
     d="m 140,5.998 c -26.51,0 -48,21.1012 -48,47.132 0,1.6268 0.13632,3.1284 0.29952,4.7128 0.13152,1.5768 0.34368,3.1688 0.6,4.7132 5.496,33.1284 27.9008,56.592 47.1,75.444 19.2,-18.8524 41.604,-42.312 47.1,-75.444 0.25632,-1.5444 0.46848,-3.1364 0.6,-4.7132 0.16416,-1.5844 0.29952,-3.086 0.29952,-4.7128 0,-26.0304 -21.4904,-47.132 -48,-47.132 z"
     style="opacity:0.2;stroke-width:4;filter:url(#filter908)" />
  <path
     inkscape:connector-curvature="0"
     id="path18"
     d="m 140,3.998 c -26.51,0 -48,21.1012 -48,47.132 0,1.6268 0.13632,3.1284 0.29952,4.7128 0.13152,1.5768 0.34368,3.1688 0.6,4.7132 5.496,33.1284 27.9008,56.592 47.1,75.444 19.2,-18.8524 41.604,-42.312 47.1,-75.444 0.25632,-1.5444 0.46848,-3.1364 0.6,-4.7132 0.16416,-1.5844 0.29952,-3.086 0.29952,-4.7128 0,-26.0304 -21.4904,-47.132 -48,-47.132 z"
     style="fill:#f34235;stroke-width:4" />
  <path
     inkscape:connector-curvature="0"
     id="path20"
     d="m 140,29.998 c 11.0456,0 20,8.9544 20,20 0,11.0456 -8.9544,20 -20,20 -11.0456,0 -20,-8.9544 -20,-20 0,-11.0456 8.9544,-20 20,-20 z"
     style="opacity:0.2;stroke-width:4;filter:url(#filter931)" />
  <path
     inkscape:connector-curvature="0"
     id="path22"
     d="m 140,27.998 c 11.0456,0 20,8.9544 20,20 0,11.0456 -8.9544,20 -20,20 -11.0456,0 -20,-8.9544 -20,-20 0,-11.0456 8.9544,-20 20,-20 z"
     style="fill:#ffffff;stroke-width:4" />
</svg>
