<?xml version="1.0" encoding="UTF-8" standalone="no"?>
<svg
   xmlns:dc="http://purl.org/dc/elements/1.1/"
   xmlns:cc="http://creativecommons.org/ns#"
   xmlns:rdf="http://www.w3.org/1999/02/22-rdf-syntax-ns#"
   xmlns:svg="http://www.w3.org/2000/svg"
   xmlns="http://www.w3.org/2000/svg"
   xmlns:sodipodi="http://sodipodi.sourceforge.net/DTD/sodipodi-0.dtd"
   xmlns:inkscape="http://www.inkscape.org/namespaces/inkscape"
   width="192"
   height="192"
   version="1"
   id="svg28"
   sodipodi:docname="system_file_manager.svg"
   inkscape:version="0.92.3 (2405546, 2018-03-11)">
  <metadata
     id="metadata34">
    <rdf:RDF>
      <cc:Work
         rdf:about="">
        <dc:format>image/svg+xml</dc:format>
        <dc:type
           rdf:resource="http://purl.org/dc/dcmitype/StillImage" />
      </cc:Work>
    </rdf:RDF>
  </metadata>
  <defs
     id="defs32">
    <filter
       inkscape:collect="always"
       style="color-interpolation-filters:sRGB"
       id="filter865"
       x="-0.0408"
       width="1.0816"
       y="-0.058285714"
       height="1.1165714">
      <feGaussianBlur
         inkscape:collect="always"
         stdDeviation="2.72"
         id="feGaussianBlur867" />
    </filter>
    <filter
       inkscape:collect="always"
       style="color-interpolation-filters:sRGB"
       id="filter885"
       x="-0.030857143"
       width="1.0617143"
       y="-0.108"
       height="1.216">
      <feGaussianBlur
         inkscape:collect="always"
         stdDeviation="0.72"
         id="feGaussianBlur887" />
    </filter>
    <filter
       inkscape:collect="always"
       style="color-interpolation-filters:sRGB"
       id="filter901"
       x="-0.02"
       width="1.04"
       y="-0.03"
       height="1.06">
      <feGaussianBlur
         inkscape:collect="always"
         stdDeviation="1.2"
         id="feGaussianBlur903" />
    </filter>
    <filter
       inkscape:collect="always"
       style="color-interpolation-filters:sRGB"
       id="filter917"
       x="-0.02"
       width="1.04"
       y="-0.03"
       height="1.06">
      <feGaussianBlur
         inkscape:collect="always"
         stdDeviation="1.2"
         id="feGaussianBlur919" />
    </filter>
  </defs>
  <sodipodi:namedview
     pagecolor="#ffffff"
     bordercolor="#666666"
     borderopacity="1"
     objecttolerance="10"
     gridtolerance="10"
     guidetolerance="10"
     inkscape:pageopacity="0"
     inkscape:pageshadow="2"
     inkscape:window-width="1920"
     inkscape:window-height="1018"
     id="namedview30"
     showgrid="false"
     inkscape:zoom="1"
     inkscape:cx="96"
     inkscape:cy="96"
     inkscape:window-x="0"
     inkscape:window-y="32"
     inkscape:window-maximized="1"
     inkscape:current-layer="svg28" />
  <rect
     id="rect2"
     ry="6"
     rx="6"
     y="16"
     x="24"
     height="96"
     width="144"
     style="fill:#5294e2;stroke-width:4" />
  <rect
     id="rect4"
     ry="6"
     rx="6"
     y="30"
     x="24"
     height="96"
     width="144"
     style="opacity:0.1;stroke-width:4;filter:url(#filter917)" />
  <rect
     id="rect6"
     ry="6"
     rx="6"
     y="32"
     x="24"
     height="96"
     width="144"
     style="fill:#89e058;stroke-width:4" />
  <rect
     id="rect8"
     ry="6"
     rx="6"
     y="46"
     x="24"
     height="96"
     width="144"
     style="opacity:0.1;stroke-width:4;filter:url(#filter901)" />
  <rect
     id="rect10"
     ry="6"
     rx="6"
     y="48"
     x="24"
     height="96"
     width="144"
     style="fill:#ffcd54;stroke-width:4" />
  <rect
     id="rect12"
     ry="8"
     rx="8"
     y="68"
     x="16"
     height="112"
     width="160"
     style="opacity:0.2;stroke-width:4;filter:url(#filter865)" />
  <rect
     id="rect14"
     ry="8"
     rx="8"
     y="64"
     x="16"
     height="112"
     width="160"
     style="fill:#8e8e8e;stroke-width:4" />
  <rect
     id="rect16"
     ry="4"
     rx="4"
     y="110"
     x="68"
     height="16"
     width="56"
     style="opacity:0.1;stroke-width:4;filter:url(#filter885)" />
  <rect
     id="rect18"
     ry="4"
     rx="4"
     y="108"
     x="68"
     height="16"
     width="56"
     style="fill:#ececec;stroke-width:4" />
  <path
     style="opacity:0.1;fill:#ffffff;stroke-width:4"
     d="M 30 16 C 26.676 16 24 18.676 24 22 L 24 23 C 24 19.676 26.676 17 30 17 L 162 17 C 165.324 17 168 19.676 168 23 L 168 22 C 168 18.676 165.324 16 162 16 L 30 16 z "
     id="path20" />
  <path
     style="opacity:0.1;fill:#ffffff;stroke-width:4"
     d="M 30 32 C 26.676 32 24 34.676 24 38 L 24 39 C 24 35.676 26.676 33 30 33 L 162 33 C 165.324 33 168 35.676 168 39 L 168 38 C 168 34.676 165.324 32 162 32 L 30 32 z "
     id="path22" />
  <path
     style="opacity:0.1;fill:#ffffff;stroke-width:4"
     d="M 30 48 C 26.676 48 24 50.676 24 54 L 24 55 C 24 51.676 26.676 49 30 49 L 162 49 C 165.324 49 168 51.676 168 55 L 168 54 C 168 50.676 165.324 48 162 48 L 30 48 z "
     id="path24" />
</svg>
