<?xml version="1.0" encoding="UTF-8" standalone="no"?>
<svg
   xmlns:dc="http://purl.org/dc/elements/1.1/"
   xmlns:cc="http://creativecommons.org/ns#"
   xmlns:rdf="http://www.w3.org/1999/02/22-rdf-syntax-ns#"
   xmlns:svg="http://www.w3.org/2000/svg"
   xmlns="http://www.w3.org/2000/svg"
   xmlns:sodipodi="http://sodipodi.sourceforge.net/DTD/sodipodi-0.dtd"
   xmlns:inkscape="http://www.inkscape.org/namespaces/inkscape"
   width="192"
   height="192"
   version="1"
   id="svg18"
   sodipodi:docname="system_messages.svg"
   inkscape:version="0.92.3 (2405546, 2018-03-11)">
  <metadata
     id="metadata24">
    <rdf:RDF>
      <cc:Work
         rdf:about="">
        <dc:format>image/svg+xml</dc:format>
        <dc:type
           rdf:resource="http://purl.org/dc/dcmitype/StillImage" />
      </cc:Work>
    </rdf:RDF>
  </metadata>
  <defs
     id="defs22">
    <filter
       inkscape:collect="always"
       style="color-interpolation-filters:sRGB"
       id="filter855"
       x="-0.0456"
       width="1.0912"
       y="-0.050666667"
       height="1.1013333">
      <feGaussianBlur
         inkscape:collect="always"
         stdDeviation="3.04"
         id="feGaussianBlur857" />
    </filter>
    <filter
       inkscape:collect="always"
       style="color-interpolation-filters:sRGB"
       id="filter883"
       x="-0.035988246"
       width="1.0719765"
       y="-0.07204706"
       height="1.1440941">
      <feGaussianBlur
         inkscape:collect="always"
         stdDeviation="1.4409412"
         id="feGaussianBlur885" />
    </filter>
  </defs>
  <sodipodi:namedview
     pagecolor="#ffffff"
     bordercolor="#666666"
     borderopacity="1"
     objecttolerance="10"
     gridtolerance="10"
     guidetolerance="10"
     inkscape:pageopacity="0"
     inkscape:pageshadow="2"
     inkscape:window-width="1920"
     inkscape:window-height="1018"
     id="namedview20"
     showgrid="false"
     inkscape:zoom="1"
     inkscape:cx="96"
     inkscape:cy="96"
     inkscape:window-x="0"
     inkscape:window-y="32"
     inkscape:window-maximized="1"
     inkscape:current-layer="svg18" />
  <path
     style="opacity:0.2;fill:#000000;stroke-width:4;filter:url(#filter855)"
     d="M 24.8888,28 C 19.9644,28 16,33.0756 16,38 v 104 c 0,4.924 3.9644,10 8.8888,10 h 75.112 l 20,20 20,-20 h 27.1112 c 4.924,0 8.888,-5.076 8.888,-10 V 38 c 0,-4.9244 -3.964,-10 -8.888,-10 z"
     id="path841"
     inkscape:connector-curvature="0" />
  <path
     inkscape:connector-curvature="0"
     id="path4"
     d="M 24.8888,24 C 19.9644,24 16,29.0756 16,34 v 104 c 0,4.924 3.9644,10 8.8888,10 h 75.112 l 20,20 20,-20 h 27.1112 c 4.924,0 8.888,-5.076 8.888,-10 V 34 c 0,-4.9244 -3.964,-10 -8.888,-10 z"
     style="fill:#86b42c;stroke-width:4" />
  <path
     style="opacity:0.2;fill:#ffffff;stroke-width:4"
     d="M 24.890625 24 C 19.965825 24 16 29.0756 16 34 L 16 35 C 16 30.0756 19.965825 25 24.890625 25 L 167.10938 25 C 172.03338 25 176 30.0756 176 35 L 176 34 C 176 29.0756 172.03338 24 167.10938 24 L 24.890625 24 z "
     id="path6" />
  <path
     inkscape:connector-curvature="0"
     id="path8"
     d="m 72,66 a 8,8 0 0 0 -8,8 8,8 0 0 0 8,8 8,8 0 0 0 8,-8 8,8 0 0 0 -8,-8 z m 48,0 a 8,8 0 0 0 -8,8 8,8 0 0 0 8,8 8,8 0 0 0 8,-8 8,8 0 0 0 -8,-8 z m 19.96094,23.945312 a 4.0004,4.0004 0 0 0 -2.78906,1.226564 C 137.17188,91.171876 122.47619,106 96,106 69.523808,106 54.828124,91.171876 54.828124,91.171876 a 4.0004,4.0004 0 0 0 -2.867188,-1.21094 4.0004,4.0004 0 0 0 -2.78906,6.867188 C 49.171876,96.828124 66.476192,114 96,114 c 29.52381,0 46.82812,-17.171876 46.82812,-17.171876 a 4.0004,4.0004 0 0 0 -2.86718,-6.882812 z"
     style="opacity:0.2;fill-rule:evenodd;stroke-width:4;filter:url(#filter883)" />
  <circle
     id="circle10"
     r="8"
     cy="72"
     cx="72"
     style="fill:#3f3f3f;stroke-width:4" />
  <circle
     id="circle12"
     r="8"
     cy="72"
     cx="120"
     style="fill:#3f3f3f;stroke-width:4" />
  <path
     inkscape:connector-curvature="0"
     id="path14"
     d="m 52,92 c 0,0 16,16 44,16 28,0 44,-16 44,-16"
     style="fill:none;stroke:#3f3f3f;stroke-width:8;stroke-linecap:round;stroke-linejoin:round" />
</svg>
