<svg xmlns="http://www.w3.org/2000/svg" viewBox="0 0 30.83 30.83"><title>iconsnew</title><g id="b6214183-abdd-44bf-9286-1adecd0281bb" data-name="Layer 1"><path d="M20.15,11.53,14.4,10.26a.39.39,0,0,0-.34.08l-3.67,3.13a.39.39,0,0,0,.17.68l5.75,1.27a.42.42,0,0,0,.34-.09l3.67-3.13A.38.38,0,0,0,20.15,11.53Z" style="fill:#7daca8"/><path d="M15.62,16.52,9.89,15.26a.46.46,0,0,0-.57.49L9.67,21a.46.46,0,0,0,.35.42l5.55,1.48a.47.47,0,0,0,.59-.48L16,17A.48.48,0,0,0,15.62,16.52Z" style="fill:#7daca8"/><path d="M20.78,13.46l-3.52,3a.44.44,0,0,0-.15.36l.16,5.2a.45.45,0,0,0,.76.31l3.34-3.15a.48.48,0,0,0,.15-.33V13.8A.45.45,0,0,0,20.78,13.46Z" style="fill:#7daca8"/><path d="M29,7.43,23.54.63a.92.92,0,0,0-.71-.34H2.57a.9.9,0,0,0-.9.9V29.64a.9.9,0,0,0,.9.9H28.26a.9.9,0,0,0,.9-.9V8A.87.87,0,0,0,29,7.43Zm-2.89-.68-3.32-.3.48-3.13Zm-22.6,22V2.09H21.59l-.77,5a.9.9,0,0,0,.81,1l5.73.52V28.74Z" style="fill:#7daca8"/></g></svg>