<svg xmlns="http://www.w3.org/2000/svg" viewBox="0 0 18 18"><title>iconsnew</title><g id="ab43155c-7317-49c0-98e7-eb279856025b" data-name="Layer 1"><path d="M11.52,10.08,10.08,13l2.37,4.75L14,17a.91.91,0,0,0,.4-1.21Z" style="fill:#7daca8"/><path d="M16.81,2.35A3.38,3.38,0,0,0,15,.43a3.07,3.07,0,0,0-2.58.1,3.6,3.6,0,0,0-1.76,2,2.41,2.41,0,0,0-.08.25L9.22,5.47,7.86,2.75a1.21,1.21,0,0,0-.05-.18,3.6,3.6,0,0,0-1.76-2A3.1,3.1,0,0,0,3.47.44,3.41,3.41,0,0,0,1.61,2.36a4,4,0,0,0-.05,2.78,3.55,3.55,0,0,0,1.76,2,3.19,3.19,0,0,0,1.37.34A3.18,3.18,0,0,0,5.9,7.27a3.3,3.3,0,0,0,1-.67l.88,1.76L4.11,15.78A.92.92,0,0,0,4.52,17l.62.31.87.43,3.21-6.49,1.44-2.9.86-1.76a3.09,3.09,0,0,0,1,.68l.32.11a2.7,2.7,0,0,0,.89.12,3.22,3.22,0,0,0,1.37-.34,3.56,3.56,0,0,0,1.75-2A3.92,3.92,0,0,0,16.81,2.35ZM5.3,5.59a1.52,1.52,0,0,1-1.25,0,1.86,1.86,0,0,1-.91-1,2.07,2.07,0,0,1,0-1.43,1.63,1.63,0,0,1,.9-.94A1.49,1.49,0,0,1,4.65,2a1.51,1.51,0,0,1,.68.16,1.88,1.88,0,0,1,.9,1.05A1.88,1.88,0,0,1,5.3,5.59Zm10-1.11a1.88,1.88,0,0,1-.9,1,1.5,1.5,0,0,1-1.26,0,1.86,1.86,0,0,1-.93-2.36,1.78,1.78,0,0,1,.9-1.05,1.48,1.48,0,0,1,1.25-.06,1.68,1.68,0,0,1,.91.94A2.07,2.07,0,0,1,15.29,4.48Z" style="fill:#7daca8"/></g></svg>