<svg xmlns="http://www.w3.org/2000/svg" viewBox="0 0 18 18"><title>iconsnew</title><g id="b5158dcb-ca8b-47d8-b4c8-5f33d48ba8cc" data-name="Layer 1"><path d="M9.81,4.92H8.9a.31.31,0,0,0-.31.31V8.9s0,0,0,0a1.79,1.79,0,1,0-1,3.26,1.51,1.51,0,0,0,.48-.08h0c.75-.18,2-.81,2-3V5.23A.31.31,0,0,0,9.81,4.92Z" style="fill:#7daca8"/><path d="M16.72.58H1.28a.71.71,0,0,0-.7.7V16.72a.71.71,0,0,0,.7.7H16.72a.71.71,0,0,0,.7-.7V1.28A.71.71,0,0,0,16.72.58ZM2,16V2H16V3.33H12.85v1H16v2H12.85v1H16v2H12.85v1H16v2H12.85v1H16V16Z" style="fill:#7daca8"/></g></svg>