<svg xmlns="http://www.w3.org/2000/svg" viewBox="0 0 18 18"><title>iconsnew</title><g id="a91274ee-cfc4-4884-b401-18ff1b9e284d" data-name="Layer 1"><rect x="5.82" y="9.42" width="6.37" height="1" style="fill:#7daca8"/><rect x="5.82" y="12.57" width="6.37" height="1" style="fill:#7daca8"/><path d="M14.49,3.78H13.32V3.21A.35.35,0,0,0,13,2.85H11.84a2.81,2.81,0,1,0-5.61,0H5a.38.38,0,0,0-.35.42v.51H3.51A1.24,1.24,0,0,0,2.28,5V16.26A1.24,1.24,0,0,0,3.51,17.5h11a1.24,1.24,0,0,0,1.23-1.24V5A1.24,1.24,0,0,0,14.49,3.78ZM9,1.64A1.21,1.21,0,1,1,7.82,2.85,1.22,1.22,0,0,1,9,1.64Zm5.68,14.62a.24.24,0,0,1-.23.24h-11a.24.24,0,0,1-.23-.24V5a.24.24,0,0,1,.23-.23H4.67V7A.39.39,0,0,0,5,7.43h8A.38.38,0,0,0,13.33,7V6.08h0V4.78h1.17a.24.24,0,0,1,.23.23Z" style="fill:#7daca8"/></g></svg>