<svg xmlns="http://www.w3.org/2000/svg" viewBox="0 0 18 18"><title>iconsnew</title><g id="f388caed-118e-4b7c-b682-c661ef068023" data-name="Layer 1"><path d="M7,2a.25.25,0,0,0,.25-.24V.87A.25.25,0,0,0,7,.62H.87A.25.25,0,0,0,.62.87V7a.25.25,0,0,0,.25.25h.9A.25.25,0,0,0,2,7V2.94L6.36,7.42l1-1L3.08,2Z" style="fill:#7daca8"/><path d="M17.13,10.75h-.9A.25.25,0,0,0,16,11v3.88l-4.2-4.33-1,1L15.09,16H11a.25.25,0,0,0-.25.24v.91a.25.25,0,0,0,.25.25h6.13a.25.25,0,0,0,.25-.25V11A.25.25,0,0,0,17.13,10.75Z" style="fill:#7daca8"/><path d="M17.13.62H11a.25.25,0,0,0-.25.25v.9A.25.25,0,0,0,11,2h4L10.61,6.55l1,1L16,3V7a.25.25,0,0,0,.24.25h.91A.25.25,0,0,0,17.38,7V.87A.25.25,0,0,0,17.13.62Z" style="fill:#7daca8"/><path d="M6.26,10.55,2,14.92V11a.25.25,0,0,0-.24-.25H.87A.25.25,0,0,0,.62,11v6.13a.25.25,0,0,0,.25.25H7a.25.25,0,0,0,.25-.25v-.9A.25.25,0,0,0,7,16H3l4.32-4.46Z" style="fill:#7daca8"/></g></svg>