<svg xmlns="http://www.w3.org/2000/svg" viewBox="0 0 18 18"><title>iconsnew</title><g id="aacc8ad0-53a6-4d31-84dc-d1d1eca9b7e6" data-name="Layer 1"><path d="M8.65,12.82a2.48,2.48,0,0,0-1.79.69,2.42,2.42,0,0,0-.71,1.81,2.52,2.52,0,0,0,.71,1.84,2.45,2.45,0,0,0,1.79.71,2.45,2.45,0,0,0,1.79-.71,2.52,2.52,0,0,0,.71-1.84,2.42,2.42,0,0,0-.71-1.81A2.48,2.48,0,0,0,8.65,12.82Z" style="fill:#7daca8"/><path d="M13.53,2.81a3.84,3.84,0,0,0-1.09-1.28A4.81,4.81,0,0,0,10.81.77a7.58,7.58,0,0,0-2-.25,5.9,5.9,0,0,0-2.73.63A7.17,7.17,0,0,0,4,2.77L6,4.65a6.63,6.63,0,0,1,1.17-.83A2.81,2.81,0,0,1,8.55,3.5a2.25,2.25,0,0,1,1.33.38,1.39,1.39,0,0,1,.52,1.19,1.44,1.44,0,0,1-.3.88,7.31,7.31,0,0,1-.72.8c-.29.26-.59.54-.92.82a5.55,5.55,0,0,0-.86.95A4.27,4.27,0,0,0,7,9.71,3.07,3.07,0,0,0,7,11.2h3.2a2.46,2.46,0,0,1,.17-1.27,4.32,4.32,0,0,1,.68-1,11,11,0,0,1,.92-.88,11.88,11.88,0,0,0,1-.92A5.08,5.08,0,0,0,13.63,6a3.32,3.32,0,0,0,.29-1.43A3.87,3.87,0,0,0,13.53,2.81Z" style="fill:#7daca8"/></g></svg>