<svg xmlns="http://www.w3.org/2000/svg" viewBox="0 0 18 18"><title>iconsnew</title><g id="b5ae19b1-2db5-4056-b442-1c99d7c36672" data-name="Layer 1"><path d="M17.65,14.74l.06-.13s0-.08,0-.13a.57.57,0,0,0,0-.13.5.5,0,0,0,0-.13s0-.09,0-.13l-4.74-8.6,0,0a.53.53,0,0,0-.12-.14s0,0-.06-.05a.56.56,0,0,0-.17-.09l0,0h0a1,1,0,0,0-.24,0h0a.57.57,0,0,0-.22.07h0l-.05,0a.69.69,0,0,0-.13.11l-.06.08,0,0-4.74,8.6a.93.93,0,0,0,0,.13s0,.08,0,.13,0,.09,0,.13a.53.53,0,0,0,0,.13.52.52,0,0,0,.06.13.39.39,0,0,0,.06.11.52.52,0,0,0,.11.1l.08.08,4.74,2.87h0l0,0a.68.68,0,0,0,.31.08h0a.61.61,0,0,0,.3-.08l0,0h0L17.39,15a.34.34,0,0,0,.09-.08.52.52,0,0,0,.11-.1A.39.39,0,0,0,17.65,14.74ZM13,8.55l3.1,5.63L13,16.06Zm-1.4,7.51-3.1-1.88,3.1-5.63Z" style="fill:#8cc6ff"/></g></svg>