<svg xmlns="http://www.w3.org/2000/svg" viewBox="0 0 18 18"><title>iconsnew</title><g id="ec284c9a-095a-4e91-8770-a9f531e16c7f" data-name="Layer 1"><path d="M16.69.26h-12A.7.7,0,0,0,4,1V4.37H1.31a.7.7,0,0,0-.7.7v7.49a.7.7,0,0,0,.7.7H4v3.79a.7.7,0,0,0,.7.7h12a.7.7,0,0,0,.7-.7V1A.7.7,0,0,0,16.69.26ZM4,11.86H2V5.77H8.09v6.09H4Zm12,4.49H5.38V13.26H8.79a.7.7,0,0,0,.7-.7V5.07a.7.7,0,0,0-.7-.7H5.38V1.66H16Z" style="fill:#7daca8"/><polygon points="5.38 11.01 5.75 11.01 5.75 9.51 7.28 9.51 7.28 8.11 5.75 8.11 5.75 6.61 5.38 6.61 4.35 6.61 4.35 8.11 3.98 8.11 2.82 8.11 2.82 9.51 3.98 9.51 4.35 9.51 4.35 11.01 5.38 11.01" style="fill:#7daca8"/></g></svg>