<svg xmlns="http://www.w3.org/2000/svg" viewBox="0 0 18 18"><title>iconsnew</title><g id="bc44c4c7-36d8-4b84-9168-92896b4581d2" data-name="Layer 1"><path d="M16.67.32H1.33a1,1,0,0,0-1,1V11a2.87,2.87,0,0,0,1.4,2.46l6.78,4a1.07,1.07,0,0,0,1.06,0l6.79-4A2.86,2.86,0,0,0,17.71,11V1.35A1,1,0,0,0,16.67.32ZM16.31,11a1.46,1.46,0,0,1-.71,1.25L9,16.22,2.4,12.29A1.46,1.46,0,0,1,1.69,11V1.72H16.31Z" style="fill:#7daca8"/><rect x="4.95" y="5.06" width="8.1" height="1" style="fill:#7daca8"/><rect x="4.95" y="9.22" width="8.1" height="1" style="fill:#7daca8"/></g></svg>