<svg xmlns="http://www.w3.org/2000/svg" viewBox="0 0 30.83 30.83"><title>iconsnew</title><g id="a876d4c0-d90c-41ab-8741-71c3778d919f" data-name="Layer 1"><path d="M28.65,15l-9.94,9a.36.36,0,0,1-.22.11l-2.23.47a.43.43,0,0,1-.54-.49l.51-2a.41.41,0,0,1,.12-.2l9.94-9Z" style="fill:#7daca8"/><path d="M29.11,14.58l-2.36-2.15,1.51-1.37a.79.79,0,0,1,1,0l1.34,1.22a.61.61,0,0,1,0,.92Z" style="fill:#7daca8"/><rect x="5.07" y="6.35" width="12.59" height="1.8" style="fill:#7daca8"/><rect x="5.07" y="10.56" width="12.59" height="1.8" style="fill:#7daca8"/><rect x="5.07" y="14.77" width="12.59" height="1.8" style="fill:#7daca8"/><path d="M22.6,13V2.17a.91.91,0,0,0-.9-.9H1a.9.9,0,0,0-.9.9V28.54a.9.9,0,0,0,.9.9H21.7a.9.9,0,0,0,.9-.9V23.3l-1.8,1.76v2.58H1.89V3.07H20.8V14.72Z" style="fill:#7daca8"/></g></svg>