<svg xmlns="http://www.w3.org/2000/svg" viewBox="0 0 18 18"><title>iconsnew</title><g id="ae4bda41-e89c-4a9c-8a4b-55c65ff04cd9" data-name="Layer 1"><path d="M17.08,11H15.84V.94a.7.7,0,0,0-.7-.7H2.86a.7.7,0,0,0-.7.7V11H.92a.7.7,0,0,0-.7.7v5.41a.7.7,0,0,0,.7.7H17.08a.7.7,0,0,0,.7-.7V11.65A.7.7,0,0,0,17.08,11ZM3.56,1.64H14.44v9.12H3.56ZM16.38,16.36H1.62v-4H16.38Z" style="fill:#7daca8"/><rect x="5.51" y="4.07" width="7.03" height="1" style="fill:#7daca8"/><rect x="5.8" y="7.61" width="7.03" height="1" style="fill:#7daca8"/><path d="M14.69,15.33a.82.82,0,0,0,.82-.82.82.82,0,0,0-.82-.81.81.81,0,0,0-.81.81A.82.82,0,0,0,14.69,15.33Z" style="fill:#7daca8"/></g></svg>