<svg xmlns="http://www.w3.org/2000/svg" viewBox="0 0 18 18"><title>iconsnew</title><g id="abcdac7b-0f6c-4a83-a5cd-a9d789451a1a" data-name="Layer 1"><path d="M17.7,11.54s0-.06,0-.09,0-.06,0-.09a.22.22,0,0,0,0-.08.38.38,0,0,0,0-.1s0-.06,0-.09a.06.06,0,0,1,0,0l0,0a.41.41,0,0,0-.05-.09s0,0,0,0L12.85,5l0,0-.14-.12-.08,0-.05,0-.11,0h-.07a.66.66,0,0,0-.47.13l0,0a.08.08,0,0,0,0,0L11.76,5,7,10.88l0,0a.41.41,0,0,0,0,.09s0,0,0,0,0,0,0,0a.29.29,0,0,0,0,.09.44.44,0,0,0,0,.1v.08a9077409062507.58,9077409062507.58,0,0,0,0,.18l0,.07a.26.26,0,0,0,0,.09l0,.06,4.74,5.89,0,0a.62.62,0,0,0,.18.14l.06,0a.05.05,0,0,1,0,0,1,1,0,0,0,.23,0h0a.6.6,0,0,0,.27-.07l.08,0,.09,0,.06-.06s0,0,0-.05l4.74-5.89,0-.06a.26.26,0,0,0,.05-.09Zm-6.1,2.21v1.48L9.83,13ZM13,12.24V7.41L15.91,11ZM11.6,9.35v2.89L8.69,11,11.6,7.41Zm1.4,4.4L14.78,13,13,15.23Z" style="fill:#f2e464"/></g></svg>