<svg xmlns="http://www.w3.org/2000/svg" viewBox="0 0 18 18"><title>iconsnew</title><g id="ba6ae813-0d39-4b30-b07b-2701e9d1311d" data-name="Layer 1"><path d="M17,5.62H3.74V4.41c0-.41.25-.78.54-.78h10.4a2.06,2.06,0,0,0,1.94-2.17V.35h-1.4V1.46c0,.41-.25.77-.54.77H4.28A2.07,2.07,0,0,0,2.34,4.41V5.62H1a.7.7,0,0,0-.7.7V16.88a.7.7,0,0,0,.7.7H17a.7.7,0,0,0,.7-.7V6.32A.7.7,0,0,0,17,5.62Zm-.7,10.56H1.7V7H16.31Z" style="fill:#7daca8"/><rect x="3.26" y="8.66" width="2" height="1.31" style="fill:#7daca8"/><rect x="3.26" y="11.31" width="2" height="1.31" style="fill:#7daca8"/><rect x="6.43" y="8.66" width="2" height="1.31" style="fill:#7daca8"/><rect x="6.43" y="11.31" width="2" height="1.31" style="fill:#7daca8"/><rect x="9.59" y="8.66" width="2" height="1.31" style="fill:#7daca8"/><rect x="9.59" y="11.31" width="2" height="1.31" style="fill:#7daca8"/><rect x="12.75" y="8.66" width="2" height="1.31" style="fill:#7daca8"/><rect x="12.75" y="11.31" width="2" height="1.31" style="fill:#7daca8"/><rect x="4.01" y="13.96" width="9.98" height="1" style="fill:#7daca8"/></g></svg>