<svg xmlns="http://www.w3.org/2000/svg" viewBox="0 0 18 18"><title>iconsnew</title><g id="fcc3826d-c240-4716-ab66-bfc5605da373" data-name="Layer 1"><path d="M16.78,10.55H14.4V9.06a.5.5,0,0,0-.5-.5H10.79V7.45h1.09a.7.7,0,0,0,.7-.7V1a.7.7,0,0,0-.7-.7H6.12a.7.7,0,0,0-.7.7V6.75a.7.7,0,0,0,.7.7H7.2V8.56H4.1a.5.5,0,0,0-.5.5v1.49H1.22a.7.7,0,0,0-.7.7V17a.7.7,0,0,0,.7.7H7a.7.7,0,0,0,.7-.7V11.25a.7.7,0,0,0-.7-.7H4.6v-1H7.7a.5.5,0,0,0,.5-.5V7.45H9.79V9.06a.5.5,0,0,0,.5.5H13.4v1H11a.7.7,0,0,0-.7.7V17a.7.7,0,0,0,.7.7h5.76a.7.7,0,0,0,.7-.7V11.25A.7.7,0,0,0,16.78,10.55ZM6.28,16.3H1.92V12H6.28ZM6.82,1.7h4.36V6.05H6.82Zm9.26,14.6H11.72V12h4.36Z" style="fill:#7daca8"/></g></svg>