<svg xmlns="http://www.w3.org/2000/svg" viewBox="0 0 18 18"><title>iconsnew</title><g id="ab0873b6-9f4f-4054-a818-7caaee88c4c3" data-name="Layer 1"><path d="M6.22,12.19,2.42,9.06A.24.24,0,0,0,2,9.24V12H0v1.4H2v2.76a.24.24,0,0,0,.41.17l3.8-3.8A.23.23,0,0,0,6.22,12.19Z" style="fill:#1a1a1a"/><path d="M17.7,11.54s0-.06,0-.09,0-.06,0-.09a.22.22,0,0,0,0-.08.38.38,0,0,0,0-.1s0-.06,0-.09a.06.06,0,0,1,0,0l0,0a.41.41,0,0,0-.05-.09s0,0,0,0L12.85,5l0,0-.14-.12-.08,0-.05,0-.11,0h-.07a.65.65,0,0,0-.47.13l0,0s0,0,0,0L11.76,5,7,10.88l0,0a.41.41,0,0,0,0,.09s0,0,0,0,0,0,0,0a.29.29,0,0,0,0,.09.44.44,0,0,0,0,.1v.08a9077409062507.58,9077409062507.58,0,0,0,0,.18l0,.07a.26.26,0,0,0,0,.09l0,.06,4.74,5.89,0,0a.62.62,0,0,0,.18.14l.06,0a.05.05,0,0,1,0,0,1,1,0,0,0,.23,0h0a.6.6,0,0,0,.27-.07l.08,0,.09,0,.06-.06s0,0,0-.05l4.74-5.89,0-.06a.26.26,0,0,0,.05-.09Zm-6.1,2.21v1.48L9.83,13ZM13,12.24V7.41L15.91,11ZM11.6,9.35v2.89L8.69,11,11.6,7.41Zm1.4,4.4L14.78,13,13,15.23Z" style="fill:#f2e464"/></g></svg>