<svg xmlns="http://www.w3.org/2000/svg" viewBox="0 0 30.83 30.83"><title>icons</title><g id="b5f35f9e-5fb4-4da6-8bbe-1e2147e393df" data-name="Layer 1"><path d="M29.8,5.76H17.1L14.62,1.37A.7.7,0,0,0,14,1H1.19a.71.71,0,0,0-.71.7V26.94a.71.71,0,0,0,.71.7H10.3a8.82,8.82,0,0,1-.67-.7c-.2-.22-.38-.46-.56-.7H1.89V7.16H29.1V26.24H25.71c-.18.24-.36.48-.56.7h-.09l-.69-.7L23.08,25a7.42,7.42,0,1,0-10,1.29,6.27,6.27,0,0,0,1.2.7,7.41,7.41,0,0,0,6.16,0,6.27,6.27,0,0,0,1.2-.7,4,4,0,0,0,.41-.31l.31.31.7.7.69.7.33.33,2.2,2.2,1-1-1.54-1.54h4a.7.7,0,0,0,.7-.7V6.46A.7.7,0,0,0,29.8,5.76ZM17.39,14.18a6,6,0,1,1-6,6A6,6,0,0,1,17.39,14.18ZM1.89,2.41H13.6l1.89,3.35H1.89Z" style="fill:#7daca8"/></g></svg>