<svg xmlns="http://www.w3.org/2000/svg" viewBox="0 0 18 18"><title>iconsnew</title><g id="f196a7dd-8b9f-4570-a7d0-dcb515680967" data-name="Layer 1"><path d="M7.79,2.33a.24.24,0,0,0-.4.18V5.28H1.51v1.4H7.39V9.45a.24.24,0,0,0,.41.17l3.8-3.8a.24.24,0,0,0,0-.36Z" style="fill:#7daca8"/><polygon points="5.26 10.03 3.86 10.03 3.86 12.32 1.51 12.32 1.51 13.72 3.86 13.72 3.86 16.01 5.26 16.01 5.26 13.72 7.61 13.72 7.61 12.32 5.26 12.32 5.26 10.03" style="fill:#7daca8"/><rect x="13.44" y="1.99" width="3.03" height="2.01" rx="0.27" style="fill:#7daca8"/><rect x="12.47" y="4.98" width="2.01" height="2.01" rx="0.27" style="fill:#7daca8"/><rect x="14.48" y="8.01" width="2.01" height="2.01" rx="0.27" style="fill:#7daca8"/><rect x="14.48" y="11.05" width="2.01" height="2.01" rx="0.27" style="fill:#7daca8"/><rect x="13.44" y="14" width="3.03" height="2.01" rx="0.27" style="fill:#7daca8"/></g></svg>