<svg xmlns="http://www.w3.org/2000/svg" viewBox="0 0 18 18"><title>iconsnew</title><g id="b83dd706-b9cd-4dca-9b64-2b8199170975" data-name="Layer 1"><path d="M11.38,15.29v1H1.4V10.78H5.47A6.18,6.18,0,0,1,5.21,9a6.25,6.25,0,0,1,.26-1.79H1.4V1.71h10v1h.13a5.88,5.88,0,0,1,1.27.13V1a.7.7,0,0,0-.7-.7H.7A.7.7,0,0,0,0,1V17a.7.7,0,0,0,.7.7H12.08a.7.7,0,0,0,.7-.7V15.17a5.88,5.88,0,0,1-1.27.13Z" style="fill:#7daca8"/><path d="M17.91,14.45l-2.59-2.59a4.77,4.77,0,1,0-3.81,1.91,4.67,4.67,0,0,0,2.81-.93l2.6,2.6Zm-6.4-8.82a3.37,3.37,0,0,1,2.81,5.23,3.39,3.39,0,0,1-2.81,1.51,3.37,3.37,0,1,1,0-6.74Z" style="fill:#7daca8"/></g></svg>