<svg xmlns="http://www.w3.org/2000/svg" viewBox="0 0 18 18"><title>iconsnew</title><g id="b11e7c41-3739-4ee0-a36f-9855eefee9b4" data-name="Layer 1"><path d="M17,5H13.54v-4a.7.7,0,0,0-.7-.7H1a.71.71,0,0,0-.7.7V12.28A.7.7,0,0,0,1,13H4.48v3.95a.7.7,0,0,0,.7.7H17a.7.7,0,0,0,.7-.7V5.73A.7.7,0,0,0,17,5ZM5.21,3.81v-2H8.67v2ZM9.35,6.43h3.46v2H9.35ZM12.14,5H9.84a.72.72,0,0,0,.23-.52V1.77h2.07ZM1.74,11.58V1.77H3.81V4.51a.7.7,0,0,0,.7.7h.2a.7.7,0,0,0-.23.52v5.85Zm11.07,4.65H9.35V15.16h3.46Zm3.47,0H14.21V14.46a.7.7,0,0,0-.7-.7H8.65a.7.7,0,0,0-.7.7v1.77H5.88V6.43H8V9.17a.7.7,0,0,0,.7.7h4.86a.7.7,0,0,0,.7-.7V6.43h2.07Z" style="fill:#7daca8"/></g></svg>