<svg xmlns="http://www.w3.org/2000/svg" viewBox="0 0 30.83 30.83"><title>icons</title><g id="ad6b0dc1-f159-4c5d-a1a1-0bfb7c891e2c" data-name="Layer 1"><path d="M28,8.21a.65.65,0,0,0,0-.13l-2.63-5.4a.7.7,0,0,0-.42-.37.73.73,0,0,0-.56.07L21.53,4.06h0L19.81,3h0l1.44-.84a.71.71,0,0,0,.33-.77A.72.72,0,0,0,21,.87L15.46.48a.66.66,0,0,0-.41.1L3.17,7.77l0,0a.69.69,0,0,0-.34.6V22.81a.71.71,0,0,0,.34.6l11.91,7.21a.68.68,0,0,0,.36.1.73.73,0,0,0,.35-.09h0l11.91-7.21a.71.71,0,0,0,.34-.6V8.39A.57.57,0,0,0,28,8.21ZM24.41,4l2,4.15L15.71,14.6l-2-4.26ZM15.59,1.89l3,.22L9.26,7.48l-3.09.11Zm-6.11,7a.75.75,0,0,0,.33-.1l8.6-5h0l1.75,1.05h0L12.42,9.46a.71.71,0,0,0-.28.9l1.63,3.43L5.87,9ZM4.2,9.63,14.71,16v4.23H8.6a.41.41,0,0,0-.41.42v4.19l-4-2.41ZM16.11,23h.26v.77H14.86v.95h1.85v.77H13.94V21.38h2.7v.79H14.86V23Zm-3,.43a2.77,2.77,0,0,1-.13.91,1.69,1.69,0,0,1-.39.65,1.67,1.67,0,0,1-.61.37,2.16,2.16,0,0,1-.78.13H10V21.38h1.13a2.49,2.49,0,0,1,.8.12,1.81,1.81,0,0,1,.63.37,1.84,1.84,0,0,1,.4.63A2.73,2.73,0,0,1,13.13,23.41Zm7.22-.6-.79,2.66H18.45l-1.23-4.09h1l.38,1.48.11.43a6.13,6.13,0,0,1,.16.65c.05.21.1.43.16.66h0c.06-.23.12-.45.17-.66s.1-.42.16-.65l.49-1.91h.93Zm-5.64,3.82v2.15l-3.55-2.15Zm1.4,2.15V26.63h3.56Zm10.52-6.36-4,2.41V20.64a.42.42,0,0,0-.42-.42H16.11V16L26.63,9.63Z" style="fill:#7daca8"/><path d="M11.89,22.4a.75.75,0,0,0-.34-.21,1.44,1.44,0,0,0-.43-.06H11v2.59h.15a1.44,1.44,0,0,0,.43-.06.79.79,0,0,0,.34-.23,1.16,1.16,0,0,0,.22-.4,2.25,2.25,0,0,0,.08-.63,2.08,2.08,0,0,0-.08-.6A1.16,1.16,0,0,0,11.89,22.4Z" style="fill:#7daca8"/></g></svg>