<svg xmlns="http://www.w3.org/2000/svg" viewBox="0 0 18 18"><title>icons</title><g id="a1676f58-39dc-4d41-92fd-de340dc904be" data-name="Layer 1"><path d="M16.57,6.52l-.08,0L15.9,4.43a.48.48,0,0,0-.2-.26L16,3.56a.66.66,0,0,0,0-.68.69.69,0,0,0-.6-.34H6.29a.68.68,0,0,0-.59.33L.66,11a.07.07,0,0,0,0,0A2.43,2.43,0,0,0,.13,12.5a2.31,2.31,0,0,0,2.21,2.39h10a.7.7,0,0,0,.61-.36l3.94-7.06A.7.7,0,0,0,16.57,6.52ZM11.12,12h0l.07.26H2.6V12ZM2.6,13.49v-.21h8.91l.06.21Zm12.59-7.9-3.12,6L12,11.24,15.11,5.3ZM6.68,3.94h7.56L10.7,10.63H2.52ZM1.6,12.13v.76a1.23,1.23,0,0,1-.07-.39A1.16,1.16,0,0,1,1.6,12.13Z" style="fill:#7daca8"/></g></svg>