<svg xmlns="http://www.w3.org/2000/svg" viewBox="0 0 18 18"><title>icons</title><g id="e12fbd8f-684e-4beb-a603-27f8d5fc27c7" data-name="Layer 1"><path d="M16.81,6.48H14.49V4.37a1.14,1.14,0,0,0-1.14-1.13H11V1.17A1.14,1.14,0,0,0,9.86,0H1.15A1.14,1.14,0,0,0,0,1.17v9.26a1.14,1.14,0,0,0,1.14,1.14H3.51v2.06a1.14,1.14,0,0,0,1.13,1.14H7v2.1A1.14,1.14,0,0,0,8.1,18h8.71A1.14,1.14,0,0,0,18,16.87V7.61A1.14,1.14,0,0,0,16.81,6.48ZM3.51,4.37v5.8H1.41V1.44H9.59v1.8H4.64A1.14,1.14,0,0,0,3.51,4.37ZM7,7.61v5.76H4.91V4.64h8.18V6.48h-5A1.14,1.14,0,0,0,7,7.61Zm9.58,9H8.37V7.88h8.18Z" style="fill:#7daca8"/></g></svg>