<svg xmlns="http://www.w3.org/2000/svg" viewBox="0 0 18 18"><title>iconsnew</title><g id="b76c757c-432a-4ad3-a8d0-e9b0a3ac4791" data-name="Layer 1"><path d="M17.05.92V16.58l-1.92-1.24V3.69A1.72,1.72,0,0,0,13.5,1.87H4.38V.92A.74.74,0,0,1,5,.1h11.4A.74.74,0,0,1,17.05.92Z" style="fill:#7daca8"/><path d="M13.14,4.54v13L8.21,14.35a1,1,0,0,0-.31-.13.83.83,0,0,0-.22,0,1,1,0,0,0-.55.17L4.38,16.2,2.45,17.48V4.54a.68.68,0,0,1,.68-.68h9.33A.67.67,0,0,1,13.14,4.54Z" style="fill:#7daca8"/><path d="M13.14,17.65l-.07,0L8.15,14.46a.79.79,0,0,0-.28-.12l-.19,0a.87.87,0,0,0-.48.14L2.52,17.59a.15.15,0,0,1-.13,0,.12.12,0,0,1-.07-.11V4.54a.8.8,0,0,1,.8-.81h9.33a.81.81,0,0,1,.8.81v13a.11.11,0,0,1-.06.11ZM7.68,14.07a1,1,0,0,1,.25,0,1,1,0,0,1,.36.15l4.72,3V4.54A.55.55,0,0,0,12.46,4H3.13a.56.56,0,0,0-.55.56V17.25l4.49-3A1,1,0,0,1,7.68,14.07Z" style="fill:#7daca8"/></g></svg>