<svg xmlns="http://www.w3.org/2000/svg" viewBox="0 0 18 18"><title>icons</title><g id="b82c209f-1741-47fa-bad2-3477ca30f4e3" data-name="Layer 1"><path d="M4.37.33l1,2a.26.26,0,0,0,.18.13l2.23.32a.24.24,0,0,1,.13.41L6.29,4.78A.23.23,0,0,0,6.22,5L6.6,7.2a.24.24,0,0,1-.35.25l-2-1a.24.24,0,0,0-.23,0l-2,1a.24.24,0,0,1-.35-.25L2.09,5A.23.23,0,0,0,2,4.78L.41,3.21A.24.24,0,0,1,.54,2.8l2.23-.32A.26.26,0,0,0,3,2.35l1-2A.25.25,0,0,1,4.37.33Z" style="fill:#7daca8"/><path d="M14.06.33l1,2a.26.26,0,0,0,.18.13l2.23.32a.24.24,0,0,1,.13.41L16,4.78a.23.23,0,0,0-.07.21l.38,2.21a.24.24,0,0,1-.35.25l-2-1a.24.24,0,0,0-.23,0l-2,1a.24.24,0,0,1-.35-.25L11.78,5a.23.23,0,0,0-.07-.21L10.1,3.21a.24.24,0,0,1,.13-.41l2.23-.32a.26.26,0,0,0,.18-.13l1-2A.25.25,0,0,1,14.06.33Z" style="fill:#7daca8"/><path d="M4.37,10.65l1,2a.29.29,0,0,0,.18.13l2.23.32a.24.24,0,0,1,.13.41L6.29,15.09a.26.26,0,0,0-.07.22l.38,2.21a.24.24,0,0,1-.35.25l-2-1a.24.24,0,0,0-.23,0l-2,1a.24.24,0,0,1-.35-.25l.38-2.21A.26.26,0,0,0,2,15.09L.41,13.53a.24.24,0,0,1,.13-.41l2.23-.32A.29.29,0,0,0,3,12.67l1-2A.24.24,0,0,1,4.37,10.65Z" style="fill:#7daca8"/><path d="M14.06,10.65l1,2a.29.29,0,0,0,.18.13l2.23.32a.24.24,0,0,1,.13.41L16,15.09a.26.26,0,0,0-.07.22l.38,2.21a.24.24,0,0,1-.35.25l-2-1a.24.24,0,0,0-.23,0l-2,1a.24.24,0,0,1-.35-.25l.38-2.21a.26.26,0,0,0-.07-.22L10.1,13.53a.24.24,0,0,1,.13-.41l2.23-.32a.29.29,0,0,0,.18-.13l1-2A.24.24,0,0,1,14.06,10.65Z" style="fill:#7daca8"/></g></svg>