<svg xmlns="http://www.w3.org/2000/svg" viewBox="0 0 18 18"><title>iconsnew</title><g id="a457e01c-1673-4360-b3cd-531be7a3033a" data-name="Layer 1"><path d="M15.55,3.42v-1a.67.67,0,0,0-.1-.34V.81a.7.7,0,0,0-.7-.7H3.49C1,.11.77,1.73.77,2.43V15.18a2.62,2.62,0,0,0,.64,2A3.7,3.7,0,0,0,4.1,18H15.5a.7.7,0,0,0,.7-.7V4.11A.7.7,0,0,0,15.55,3.42ZM4.1,3.41a3.38,3.38,0,0,1-1.24-.28H14.05v.28Zm10-1.9v.22H2.69a.74.74,0,0,0-.33.09,1.51,1.51,0,0,1,1.13-.31ZM2.17,15.18V4.36a5,5,0,0,0,1.23.39V16.53a1.72,1.72,0,0,1-1-.37A1.32,1.32,0,0,1,2.17,15.18ZM14.8,16.57H4.8V4.81h10Z" style="fill:#7daca8"/><path d="M7,11.82a26.91,26.91,0,0,1,4.92.38,2.86,2.86,0,0,1-.95.36.51.51,0,0,0-.39.59.5.5,0,0,0,.49.4h.1c.32-.06,1.9-.43,1.9-1.48,0-.36,0-.91-3.12-1.14,3.3-1.17,3.17-1.82,3.11-2.13-.16-.82-1.7-1.12-4.58-.9A.5.5,0,0,0,8,8.43a.5.5,0,0,0,.54.46A12.79,12.79,0,0,1,11.89,9a26.14,26.14,0,0,1-5,1.85.51.51,0,0,0-.36.55A.51.51,0,0,0,7,11.82Z" style="fill:#7daca8"/></g></svg>