<svg xmlns="http://www.w3.org/2000/svg" viewBox="0 0 18 18"><title>iconsnew</title><g id="b30efa91-edce-4cf2-b467-5b3166a3ccbc" data-name="Layer 1"><rect x="11.07" y="3.63" width="2.84" height="1.27" style="fill:#7daca8"/><path d="M17,8.62H17v-7a.7.7,0,0,0-.7-.7h-15a.7.7,0,0,0-.7.7V13.08a.7.7,0,0,0,.7.7H5.87v2.85a.7.7,0,0,0,.7.7H17a.7.7,0,0,0,.7-.7V9.32A.7.7,0,0,0,17,8.62Zm-1.48,0H8.82V7.19h6.73Zm0-2.43H8.82V2.3h6.73ZM7.82,2.3V6.19H1.91V2.3ZM1.91,12.38V7.19H7.82V8.62H6.57a.7.7,0,0,0-.7.7v3.06Zm14.42,3.55H7.27V10h9.06Z" style="fill:#7daca8"/><rect x="8.86" y="11.68" width="2.77" height="0.72" style="fill:#7daca8"/><rect x="11.89" y="13.56" width="2.77" height="0.72" style="fill:#7daca8"/><rect x="8.86" y="13.66" width="1.21" height="0.72" style="fill:#7daca8"/><rect x="13.44" y="11.58" width="1.21" height="0.72" style="fill:#7daca8"/></g></svg>