<svg xmlns="http://www.w3.org/2000/svg" viewBox="0 0 18 18"><title>iconsnew</title><g id="b8eca7f3-b9cb-4c23-849a-107b8c173cdb" data-name="Layer 1"><path d="M16.94.32H1.59a1,1,0,0,0-1,1V11A2.86,2.86,0,0,0,2,13.49l6.79,4a1,1,0,0,0,.53.14,1,1,0,0,0,.52-.14l6.79-4A2.86,2.86,0,0,0,18,11V1.36A1,1,0,0,0,16.94.32ZM16.57,11a1.47,1.47,0,0,1-.7,1.25l-1.35.8V4.78a.69.69,0,0,0-.7-.67H4.71a.69.69,0,0,0-.7.67v8.31l-1.34-.8A1.46,1.46,0,0,1,2,11V1.72H16.57ZM12.1,7.94H6.43v-1H12.1Zm0,2.33v1H6.43v-1Z" style="fill:#7daca8"/></g></svg>