<svg xmlns="http://www.w3.org/2000/svg" viewBox="0 0 18 18"><title>iconsnew</title><g id="bbed943b-f6ef-44f5-8ba6-622889689aa9" data-name="Layer 1"><path d="M17,.53H1a.71.71,0,0,0-.7.7V17a.71.71,0,0,0,.7.7H17a.71.71,0,0,0,.7-.7V1.23A.71.71,0,0,0,17,.53ZM1.66,16.31V6.57H16.34v9.74Z" style="fill:#7daca8"/><rect x="4.08" y="12.63" width="2.08" height="2.18" style="fill:#7daca8"/><rect x="4.08" y="8.1" width="2.08" height="2.14" style="fill:#7daca8"/><rect x="7.96" y="12.63" width="2.08" height="2.18" style="fill:#7daca8"/><rect x="7.96" y="8.1" width="2.08" height="2.14" style="fill:#7daca8"/><rect x="11.83" y="12.63" width="2.08" height="2.18" style="fill:#7daca8"/><rect x="11.83" y="8.1" width="2.08" height="2.14" style="fill:#7daca8"/></g></svg>