<svg xmlns="http://www.w3.org/2000/svg" viewBox="0 0 18 18"><title>iconsnew</title><g id="b7f7aa46-4887-45d1-9b81-be738a902753" data-name="Layer 1"><path d="M16.27.25h-1.6a.28.28,0,0,0-.29.3c0,.58,0,1.81-1.47,1.8-1.19,0-1.4-1.25-1.43-1.82a.3.3,0,0,0-.29-.29H7.3c-1.2,0-6.18,1-6.18,5.49l.75,0A2.74,2.74,0,0,1,4.73,3.59a1.88,1.88,0,0,1,2,1.13A5.35,5.35,0,0,1,7,6.29h4.13s.2-1.71,1.58-1.72a1.59,1.59,0,0,1,1.53,1.79.3.3,0,0,0,.3.31h1.7a.61.61,0,0,0,.6-.61V.85A.6.6,0,0,0,16.27.25Z" style="fill:#7daca8"/><path d="M7.07,17.19a.59.59,0,0,0,.59.57h2.95a.58.58,0,0,0,.58-.57V7.84H7.07Z" style="fill:#7daca8"/></g></svg>