<svg xmlns="http://www.w3.org/2000/svg" viewBox="0 0 18 18"><title>iconsnew</title><g id="ae326dd0-1c0f-4d5b-9780-827b1664c8ad" data-name="Layer 1"><polygon points="16.46 2.83 15.19 1.56 9.02 7.73 2.85 1.56 1.58 2.83 7.75 9 1.58 15.17 2.85 16.44 9.02 10.27 15.19 16.44 16.46 15.17 10.29 9 16.46 2.83" style="fill:#7daca8"/><path d="M16.11,3.82h-4V1.33a.7.7,0,0,0-.7-.7H6.64a.71.71,0,0,0-.7.7V7.72H1.89a.7.7,0,0,0-.7.7v8.25a.7.7,0,0,0,.7.7H16.11a.7.7,0,0,0,.7-.7V4.52A.7.7,0,0,0,16.11,3.82ZM2.59,9.12H5.94V16H2.59Zm4.75-.7V2H10.7V4.32a.65.65,0,0,0,0,.2V16H7.34ZM15.41,16H12.1V5.22h3.31Z" style="fill:#7daca8;opacity:0.54"/></g></svg>