<svg xmlns="http://www.w3.org/2000/svg" viewBox="0 0 18 18"><title>iconsnew</title><g id="e091439f-5fec-478a-a591-7e0ac28ee8df" data-name="Layer 1"><path d="M1.72,7.31H4.11l.5,1.42H5.76L3.41,2.5h-1L.07,8.73H1.23ZM2.91,3.85,3.8,6.42H2Z" style="fill:#7daca8"/><path d="M7.56,8.73H8.75a2.5,2.5,0,0,0,1.6-.46,1.65,1.65,0,0,0,.57-1.36,1.57,1.57,0,0,0-.16-.71,1.28,1.28,0,0,0-.49-.54,1.42,1.42,0,0,0-.42-.17L10,5.42a1.4,1.4,0,0,0,.74-1.23,1.45,1.45,0,0,0-.59-1.28A2.78,2.78,0,0,0,8.58,2.5H6.45V8.73H7.56Zm2-1.15a1.07,1.07,0,0,1-.8.27H7.56V5.93H8.8a1.26,1.26,0,0,1,.59.12.83.83,0,0,1,.33.34,1.18,1.18,0,0,1,.1.52A.89.89,0,0,1,9.55,7.58Zm-1-4.19a1.35,1.35,0,0,1,.83.21.8.8,0,0,1,.26.66.76.76,0,0,1-.28.64,1.25,1.25,0,0,1-.8.23h-1V3.39Z" style="fill:#7daca8"/><path d="M9.86,10.14H9.12L6.78,16.36H7.94l.49-1.42h2.39l.5,1.42h1.15l-2.35-6.22ZM8.74,14.05l.88-2.57.89,2.57Z" style="fill:#7daca8"/><path d="M16.64,15a1,1,0,0,1-.43.41,1.66,1.66,0,0,1-.73.14,1.2,1.2,0,0,1-.8-.25,1.44,1.44,0,0,1-.46-.71,3.9,3.9,0,0,1-.14-1.09V13a3.32,3.32,0,0,1,.16-1.12,1.43,1.43,0,0,1,.48-.69,1.29,1.29,0,0,1,.8-.24,1.21,1.21,0,0,1,1,.33,1.64,1.64,0,0,1,.35.92h1.1a2.63,2.63,0,0,0-.34-1.11,2,2,0,0,0-.8-.76,2.62,2.62,0,0,0-1.27-.28,2.47,2.47,0,0,0-1.35.36,2.42,2.42,0,0,0-.89,1A3.61,3.61,0,0,0,13,13v.49a3.74,3.74,0,0,0,.3,1.56,2.29,2.29,0,0,0,2.21,1.39,2.67,2.67,0,0,0,1.29-.28,2.05,2.05,0,0,0,.82-.75,2.49,2.49,0,0,0,.34-1.09h-1.1A1.82,1.82,0,0,1,16.64,15Z" style="fill:#7daca8"/><path d="M3.87,11.15a.16.16,0,0,0-.28.11V13L1.84,13V10.08H.45V13a1.34,1.34,0,0,0,.42,1,1.42,1.42,0,0,0,1,.42H3.59V16a.16.16,0,0,0,.27.12L6.43,14a.16.16,0,0,0,0-.24Z" style="fill:#7daca8"/></g></svg>