<svg xmlns="http://www.w3.org/2000/svg" viewBox="0 0 18 18"><title>iconsnew</title><g id="a6f4211f-6346-4737-a7ad-1b4a055a1aa7" data-name="Layer 1"><path d="M14.52,6.31H4.23a.68.68,0,0,0-.52.23.7.7,0,0,0-.18.54L4.5,17a.69.69,0,0,0,.69.63h8.36a.7.7,0,0,0,.7-.63l1-9.91a.69.69,0,0,0-.69-.77Zm-1.6,9.91H5.83L5,7.71h8.75Z" style="fill:#7daca8"/><path d="M12.22,3.1v-2a.7.7,0,0,0-.7-.7H7.1a.7.7,0,0,0-.7.7v2H2.76V4.5H16V3.1ZM7.8,1.78h3V2.84h-3Z" style="fill:#7daca8"/><polygon points="8.34 14.69 7.71 9.25 6.75 9.25 7.37 14.69 8.34 14.69" style="fill:#7daca8"/><polygon points="12.04 9.25 11.06 9.25 10.44 14.69 11.41 14.69 12.04 9.25" style="fill:#7daca8"/></g></svg>