<svg xmlns="http://www.w3.org/2000/svg" viewBox="0 0 30.83 30.83"><title>icons</title><g id="eb5678d2-7fed-4e5e-9d78-852fa71e8902" data-name="Layer 1"><path d="M15.41,21.54a6.13,6.13,0,1,1,6.13-6.12A6.13,6.13,0,0,1,15.41,21.54Zm0-11.25a5.13,5.13,0,1,0,5.13,5.13A5.13,5.13,0,0,0,15.41,10.29Z" style="fill:#7daca8"/><path d="M15.41,30.78A15.37,15.37,0,1,1,30.78,15.42,15.39,15.39,0,0,1,15.41,30.78Zm0-29.32a14,14,0,1,0,14,14A14,14,0,0,0,15.41,1.46Z" style="fill:#7daca8"/><path d="M15.41,18A2.62,2.62,0,1,1,18,15.42,2.61,2.61,0,0,1,15.41,18Zm0-4.23A1.62,1.62,0,1,0,17,15.42,1.62,1.62,0,0,0,15.41,13.8Z" style="fill:#7daca8"/></g></svg>