<svg xmlns="http://www.w3.org/2000/svg" viewBox="0 0 18 18"><title>iconsnew</title><g id="e83810c0-d5bd-4ba6-83e8-a186da728dc0" data-name="Layer 1"><path d="M6.22,12.19,2.42,9.06A.24.24,0,0,0,2,9.24V12H0v1.4H2v2.76a.24.24,0,0,0,.41.17l3.8-3.8A.23.23,0,0,0,6.22,12.19Z" style="fill:#1a1a1a"/><path d="M3.16.31a1.66,1.66,0,0,0-1-.31,1.82,1.82,0,0,0-1,.28A1.61,1.61,0,0,0,.78.61L.73.09H0V6.68H.81V4.38a1.81,1.81,0,0,0,.33.29,1.86,1.86,0,0,0,1,.27,1.62,1.62,0,0,0,1-.32,1.92,1.92,0,0,0,.62-.86A3.19,3.19,0,0,0,4,2.52V2.43a3.31,3.31,0,0,0-.22-1.27A1.78,1.78,0,0,0,3.16.31Zm0,2.21a2.75,2.75,0,0,1-.14.88A1.47,1.47,0,0,1,2.64,4a1,1,0,0,1-.72.25,1.26,1.26,0,0,1-.67-.17,1.24,1.24,0,0,1-.41-.44s0,0,0-.07V1.37A1.37,1.37,0,0,1,1,1.07,1.21,1.21,0,0,1,1.38.79a1.22,1.22,0,0,1,.53-.1,1.11,1.11,0,0,1,.72.23,1.38,1.38,0,0,1,.42.64,2.65,2.65,0,0,1,.14.87Z" style="fill:#1a1a1a"/><path d="M7.18,0a1.24,1.24,0,0,0-.84.29,1.58,1.58,0,0,0-.29.34V.09h-.8V4.85h.82V1.55a1.05,1.05,0,0,1,.05-.19,1.08,1.08,0,0,1,.4-.42A1.14,1.14,0,0,1,7.14.78h.21l.19,0V.07a.6.6,0,0,0-.16,0Z" style="fill:#1a1a1a"/><path d="M11.29.32A2.08,2.08,0,0,0,10.13,0,2,2,0,0,0,9,.32a2.12,2.12,0,0,0-.75.87A2.71,2.71,0,0,0,8,2.42v.1a2.78,2.78,0,0,0,.26,1.24A2.09,2.09,0,0,0,9,4.62a2.07,2.07,0,0,0,1.15.32,2.1,2.1,0,0,0,1.16-.32A2.07,2.07,0,0,0,12,3.76a2.78,2.78,0,0,0,.26-1.24v-.1A2.71,2.71,0,0,0,12,1.19,2,2,0,0,0,11.29.32Zm.19,2.2a2.41,2.41,0,0,1-.15.87,1.42,1.42,0,0,1-.44.64,1.25,1.25,0,0,1-1.5,0A1.5,1.5,0,0,1,9,3.39a2.41,2.41,0,0,1-.15-.87v-.1a2.74,2.74,0,0,1,.14-.87A1.43,1.43,0,0,1,9.39.91a1.11,1.11,0,0,1,.74-.25,1.12,1.12,0,0,1,.76.25,1.5,1.5,0,0,1,.44.64,2.49,2.49,0,0,1,.15.87Z" style="fill:#1a1a1a"/><polygon points="17.5 0 15.45 0 14.61 0 12.56 0 12.56 0.69 14.61 0.69 14.61 4.85 15.45 4.85 15.45 0.69 17.5 0.69 17.5 0" style="fill:#1a1a1a"/><path d="M17.7,11.54s0-.06,0-.09,0-.06,0-.09a.22.22,0,0,0,0-.08.38.38,0,0,0,0-.1s0-.06,0-.09a.06.06,0,0,1,0,0l0,0a.41.41,0,0,0-.05-.09s0,0,0,0L12.85,5l0,0-.14-.12-.08,0-.05,0-.11,0h-.07a.66.66,0,0,0-.47.13l0,0a.08.08,0,0,0,0,0L11.76,5,7,10.88l0,0a.41.41,0,0,0,0,.09s0,0,0,0a.06.06,0,0,0,0,0,.29.29,0,0,0,0,.09.44.44,0,0,0,0,.1v.08a9077409062507.58,9077409062507.58,0,0,0,0,.18l0,.07a.26.26,0,0,0,0,.09l0,.06,4.74,5.89,0,0a.62.62,0,0,0,.18.14l.06,0a.05.05,0,0,1,0,0,1,1,0,0,0,.23,0h0a.6.6,0,0,0,.27-.07l.08,0,.09,0,.06-.06s0,0,0-.05l4.74-5.89,0-.06a.26.26,0,0,0,.05-.09Zm-6.1,2.21v1.48L9.83,13ZM13,12.24V7.41L15.91,11ZM11.6,9.35v2.89L8.69,11,11.6,7.41Zm1.4,4.4L14.78,13,13,15.23Z" style="fill:#f2e464"/></g></svg>