<svg xmlns="http://www.w3.org/2000/svg" viewBox="0 0 18 18"><title>iconsnew</title><g id="b70d86bc-4002-4c7c-a3c4-bed765abdafd" data-name="Layer 1"><path d="M6.52.34H1.1A.7.7,0,0,0,.4,1V6.45a.7.7,0,0,0,.7.7H6.52a.7.7,0,0,0,.7-.7V1A.7.7,0,0,0,6.52.34Zm-.7,5.41h-4v-4h4Z" style="fill:#7daca8"/><path d="M16.9.34H11.48a.7.7,0,0,0-.7.7V6.45a.7.7,0,0,0,.7.7H16.9a.7.7,0,0,0,.7-.7V1A.7.7,0,0,0,16.9.34Zm-.7,5.41h-4v-4h4Z" style="fill:#7daca8"/><path d="M6.52,10.82H1.1a.7.7,0,0,0-.7.7v5.42a.7.7,0,0,0,.7.7H6.52a.7.7,0,0,0,.7-.7V11.52A.71.71,0,0,0,6.52,10.82Zm-.7,5.42h-4v-4h4Z" style="fill:#7daca8"/><path d="M16.9,10.82H11.48a.71.71,0,0,0-.7.7v5.42a.7.7,0,0,0,.7.7H16.9a.7.7,0,0,0,.7-.7V11.52A.7.7,0,0,0,16.9,10.82Zm-.7,5.42h-4v-4h4Z" style="fill:#7daca8"/></g></svg>