<svg xmlns="http://www.w3.org/2000/svg" viewBox="0 0 30.83 30.83"><title>iconsnew</title><g id="ea592742-21a5-466c-8de3-de69c50ed9f9" data-name="Layer 1"><path d="M30.81,6.08a2.53,2.53,0,1,0-5,0,2.76,2.76,0,0,0,1.62,2.58V20h-.88V10.2a.9.9,0,0,0-.9-.9H24.54V6.71a.9.9,0,0,0-.9-.9H3a.9.9,0,0,0-.9.9V9.3H1a.9.9,0,0,0-.9.9V25.26a.9.9,0,0,0,.9.9H25.61a.9.9,0,0,0,.9-.9v-.21h2.3a.38.38,0,0,0,.37-.38V22.76s0,0,0,0V8.66A2.78,2.78,0,0,0,30.81,6.08Zm-27,1.53H22.74V9.16H3.85ZM24.71,24.36H1.88V11.1H24.71Z" style="fill:#7daca8"/><path d="M4.34,22.46H22.25a.9.9,0,0,0,.9-.9V13.91a.9.9,0,0,0-.9-.9H4.34a.9.9,0,0,0-.9.9v7.65A.91.91,0,0,0,4.34,22.46Zm17-1.81h-4V14.81h4Zm-5.83-5.84v5.84H11.23V14.81Zm-10.28,0H9.43v5.84H5.24Z" style="fill:#7daca8"/><path d="M6.37,16.45v.48H7.6a3.12,3.12,0,0,0-.73,2h.58a2.76,2.76,0,0,1,.77-2.11v-.35Z" style="fill:#7daca8"/><path d="M13,18.91h.57a2.79,2.79,0,0,1,.77-2.11v-.35H12.45v.48h1.24A3.06,3.06,0,0,0,13,18.91Z" style="fill:#7daca8"/><path d="M19.77,16.93a3.12,3.12,0,0,0-.73,2h.58a2.75,2.75,0,0,1,.76-2.11v-.35H18.54v.48Z" style="fill:#7daca8"/></g></svg>