<svg xmlns="http://www.w3.org/2000/svg" viewBox="0 0 18 18"><title>icons</title><g id="e98fa646-478c-4664-9b1e-ba9a1cd9c4f3" data-name="Layer 1"><path d="M16.45,4.78a.88.88,0,0,0-.05-.15l0-.06-1.47-3a.69.69,0,0,0-1-.29l-1.46.86-.4-.24.39-.22a.71.71,0,0,0,.33-.77.68.68,0,0,0-.63-.54L9,.12a.69.69,0,0,0-.42.1L1.82,4.33h0a.64.64,0,0,0-.31.41.63.63,0,0,0,0,.19v8.23a.69.69,0,0,0,.34.6l6.8,4.12A.71.71,0,0,0,9,18a.69.69,0,0,0,.34-.09h0l1.79-1.08H16.2a.27.27,0,0,0,.27-.27V4.94A.47.47,0,0,0,16.45,4.78Zm-1.38,1.4v6.38H9.67V9.45ZM14,2.84l.89,1.83L9.27,8.06l-.9-1.89ZM9.14,1.53l.63.05L5.37,4.12l-.54,0Zm-3.55,4a.59.59,0,0,0,.32-.09l4.77-2.75.42.25-4,2.37a.69.69,0,0,0-.27.9l.51,1.06L4.52,5.55Zm1.29,7.32v2.38l-4-2.43V6.18L8.27,9.45v3.11H7.15A.27.27,0,0,0,6.88,12.83Zm3.19,2.45a1.14,1.14,0,0,1-.25.43l-.15.11a1.23,1.23,0,0,1-.25.14,1.48,1.48,0,0,1-.53.08H8.25L8.11,16V13.33h.75a1.53,1.53,0,0,1,.54.08,1,1,0,0,1,.27.14.71.71,0,0,1,.14.1,1.11,1.11,0,0,1,.26.42,1.88,1.88,0,0,1,0,1.21Zm2.47.67-.15.09H10.7V13.33h1.79v.52H11.31v.54h1v.51h-1v.63h1.23ZM15,14.28l-.08.25L14.43,16h-.74l-.2-.67L13.08,14l-.2-.66h.64l.09.34.16.64.07.28c.05.15.08.3.12.44s0,0,0,.05,0,.25.09.38h0c0-.15.08-.29.11-.43a.29.29,0,0,0,0-.09l.09-.35.32-1.26h.62Z" style="fill:#7daca8"/><path d="M9.34,14a.48.48,0,0,0-.23-.13.82.82,0,0,0-.28,0h-.1v1.72h.1a.82.82,0,0,0,.28-.05.51.51,0,0,0,.23-.15.81.81,0,0,0,.15-.26,1.67,1.67,0,0,0,0-.42,1.45,1.45,0,0,0,0-.4A.87.87,0,0,0,9.34,14Z" style="fill:#7daca8"/></g></svg>