<svg xmlns="http://www.w3.org/2000/svg" viewBox="0 0 18 18"><title>iconsnew</title><g id="ef626e0a-1868-4afd-8a9c-089b5d383202" data-name="Layer 1"><rect x="4.72" y="8.22" width="8.56" height="1" style="fill:#7daca8"/><rect x="4.72" y="12.07" width="8.56" height="1" style="fill:#7daca8"/><path d="M16.38.07H1.62A1.56,1.56,0,0,0,.07,1.62V16.38a1.56,1.56,0,0,0,1.55,1.55H16.38a1.56,1.56,0,0,0,1.55-1.55V1.62A1.56,1.56,0,0,0,16.38.07Zm.15,16.31a.15.15,0,0,1-.15.15H1.62a.15.15,0,0,1-.15-.15V1.62a.15.15,0,0,1,.15-.15H16.38a.15.15,0,0,1,.15.15Z" style="fill:#7daca8"/></g></svg>