<svg xmlns="http://www.w3.org/2000/svg" viewBox="0 0 40.91 37.06"><title>icons</title><g id="f63025f4-114f-4c5f-9eaf-081adaf5c8ea" data-name="Layer 1"><path d="M29.38,17.35a5.37,5.37,0,0,0-1.27-.63,5.54,5.54,0,0,0-2-.36A5.9,5.9,0,0,0,22.87,27.2a5.83,5.83,0,0,0,3.24,1,5.91,5.91,0,0,0,3.27-10.82ZM26.11,27.2a4.86,4.86,0,0,1-2.37-.61,5,5,0,0,1-1.13-.85,4.94,4.94,0,0,1,3.5-8.42,4.85,4.85,0,0,1,1.83.36,4.61,4.61,0,0,1,1.22.7,4.94,4.94,0,0,1-3.05,8.82Z" style="fill:#7daca8"/><path d="M27.69,7.55a14.79,14.79,0,1,0-14.47,22,14.79,14.79,0,1,0,14.47-22ZM1.35,14.8A13.44,13.44,0,0,1,26.06,7.46a14.65,14.65,0,0,0-8,2.41,5.79,5.79,0,0,0-3.23-1,5.91,5.91,0,0,0-3.27,10.82,14.12,14.12,0,0,0-.22,2.54,14.89,14.89,0,0,0,1.17,5.79A13.47,13.47,0,0,1,1.35,14.8Zm13.81-2.48-.36,0a2.51,2.51,0,0,0-2.15,3.81,14.85,14.85,0,0,0-.9,2.58A4.94,4.94,0,0,1,14.8,9.86a4.86,4.86,0,0,1,2.37.61A15.37,15.37,0,0,0,15.16,12.32Zm-1.9,2.61a.53.53,0,0,1,0-.13,1.54,1.54,0,0,1,1.06-1.46A13.64,13.64,0,0,0,13.26,14.93ZM26.11,35.71A13.44,13.44,0,0,1,14.84,29.6a12.38,12.38,0,0,1-.78-1.37,13.35,13.35,0,0,1-1.26-7.88c0-.33.1-.65.17-1a13.07,13.07,0,0,1,.74-2.32,8.59,8.59,0,0,1,.4-.87,12.9,12.9,0,0,1,1.69-2.56c.21-.25.42-.49.65-.72a12.22,12.22,0,0,1,1.85-1.59q.39-.29.81-.54a13.36,13.36,0,0,1,7-2l.73,0A13.63,13.63,0,0,1,28.42,9a13.45,13.45,0,0,1-2.31,26.7Z" style="fill:#7daca8"/><path d="M27.2,20a2.49,2.49,0,0,0-1.09-.25,2.52,2.52,0,0,0-2.52,2.52,2.48,2.48,0,0,0,.87,1.89,2.38,2.38,0,0,0,1.29.6,2.19,2.19,0,0,0,.36,0,2.52,2.52,0,0,0,2.15-3.84A2.56,2.56,0,0,0,27.2,20Zm-.6,3.73a1.33,1.33,0,0,1-.49.09,1.55,1.55,0,0,1-1-.37,1.57,1.57,0,0,1-.54-1.18,1.55,1.55,0,0,1,2.23-1.39,1.51,1.51,0,0,1,.86,1.26.53.53,0,0,1,0,.13A1.51,1.51,0,0,1,26.6,23.72Z" style="fill:#7daca8"/><path d="M33.49,1.39h0a.35.35,0,0,1,.23.09.35.35,0,0,1,.09.22V4.08H31.1a.22.22,0,0,0-.16.38L34.48,8a.22.22,0,0,0,.33,0l2.92-3.54a.23.23,0,0,0-.17-.37H35.21V1.7A1.72,1.72,0,0,0,33.49,0H29.72V1.41Z" style="fill:#7daca8"/></g></svg>