<svg xmlns="http://www.w3.org/2000/svg" viewBox="0 0 18 18"><title>iconsnew</title><g id="e44735cc-1b76-4fa3-a1ce-68d2caac4e34" data-name="Layer 1"><path d="M17.21,4.12H14.78a.7.7,0,0,0-.7.7V15.09a.7.7,0,0,0,.7.7h2.43a.7.7,0,0,0,.7-.7V4.82A.7.7,0,0,0,17.21,4.12ZM15.48,7.34h1v5.41h-1Zm1-1.82v.82h-1V5.52Zm-1,8.87v-.64h1v.64Z" style="fill:#7daca8"/><path d="M13,1.43H10.17a.7.7,0,0,0-.7.7v2H7.3a.68.68,0,0,0-.67.57L4.87,4A.69.69,0,0,0,4,4.36L.1,13.88a.7.7,0,0,0,.39.91l2.25.92a.75.75,0,0,0,.26,0,.66.66,0,0,0,.27-.06.71.71,0,0,0,.38-.38L6.6,8v7.06a.7.7,0,0,0,.7.7H13a.7.7,0,0,0,.7-.7v-13A.7.7,0,0,0,13,1.43ZM8,7.34H9.47v5.41H8Zm2.87-2.16h1.46v7.08H10.87Zm1.46-2.35V4.18H10.87V2.83ZM9.47,5.52v.82H8V5.52ZM5,5.54l1,.38-.31.76L4.69,6.3ZM3.23,12.62l-1-.38,2-5,1,.38Zm-.62,1.52-.95-.38.24-.6,1,.39ZM8,13.75H9.47v.64H8Zm2.87.64V13.26h1.46v1.13Z" style="fill:#7daca8"/></g></svg>