<svg xmlns="http://www.w3.org/2000/svg" viewBox="0 0 18 18"><title>icons</title><g id="ae692fef-d3a5-4b59-b3e6-039e62193ef4" data-name="Layer 1"><path d="M14.37.17h-1a.72.72,0,0,0-.68.47l-.56,1.5L11.89.79a.71.71,0,0,0-.71-.62H3.63A.73.73,0,0,0,2.9.89v7a.73.73,0,0,0,.73.73H14.37a.73.73,0,0,0,.73-.73v-7A.73.73,0,0,0,14.37.17Zm-.72,7H4.35V1.62h6.2l.5,3.52a.73.73,0,0,0,.64.62.74.74,0,0,0,.76-.47l1.2-3.2Z" style="fill:#7daca8"/><path d="M14.82,9.62H3.18A.16.16,0,0,0,3,9.78v.88c0,1.4,1.14,2.12,2.54,2.12h1a1.15,1.15,0,0,1,1.13,1.14v.4l-.31,1.77h0a.86.86,0,0,0,0,.16,1.58,1.58,0,1,0,3.16,0,1.79,1.79,0,0,0,0-.23h0v-.08h0l-.28-1.61v-.4a1.15,1.15,0,0,1,1.13-1.14h.89c1.49,0,2.69-.78,2.69-2.27V9.78A.16.16,0,0,0,14.82,9.62Z" style="fill:#7daca8"/></g></svg>