<svg xmlns="http://www.w3.org/2000/svg" viewBox="0 0 18 18"><title>iconsnew</title><g id="b6abe819-d331-4182-b7d9-62e8263ec69f" data-name="Layer 1"><path d="M3.16.31a1.66,1.66,0,0,0-1-.31,1.82,1.82,0,0,0-1,.28A1.61,1.61,0,0,0,.78.61L.73.09H0V6.68H.81V4.38a1.81,1.81,0,0,0,.33.29,1.86,1.86,0,0,0,1,.27,1.62,1.62,0,0,0,1-.32,1.92,1.92,0,0,0,.62-.86A3.19,3.19,0,0,0,4,2.52V2.43a3.31,3.31,0,0,0-.22-1.27A1.78,1.78,0,0,0,3.16.31Zm0,2.21a2.75,2.75,0,0,1-.14.88A1.47,1.47,0,0,1,2.64,4a1,1,0,0,1-.72.25,1.26,1.26,0,0,1-.67-.17,1.24,1.24,0,0,1-.41-.44s0,0,0-.07V1.37A1.37,1.37,0,0,1,1,1.07,1.21,1.21,0,0,1,1.38.79a1.22,1.22,0,0,1,.53-.1,1.11,1.11,0,0,1,.72.23,1.38,1.38,0,0,1,.42.64,2.65,2.65,0,0,1,.14.87Z" style="fill:#1a1a1a"/><path d="M7.18,0a1.24,1.24,0,0,0-.84.29,1.58,1.58,0,0,0-.29.34V.09h-.8V4.85h.82V1.55a1.05,1.05,0,0,1,.05-.19,1.08,1.08,0,0,1,.4-.42A1.14,1.14,0,0,1,7.14.78h.21l.19,0V.07a.6.6,0,0,0-.16,0Z" style="fill:#1a1a1a"/><path d="M11.29.32A2.08,2.08,0,0,0,10.13,0,2,2,0,0,0,9,.32a2.12,2.12,0,0,0-.75.87A2.71,2.71,0,0,0,8,2.42v.1a2.78,2.78,0,0,0,.26,1.24A2.16,2.16,0,0,0,9,4.62a2.07,2.07,0,0,0,1.15.32,2.1,2.1,0,0,0,1.16-.32A2.07,2.07,0,0,0,12,3.76a2.78,2.78,0,0,0,.26-1.24v-.1A2.71,2.71,0,0,0,12,1.19,2,2,0,0,0,11.29.32Zm.19,2.2a2.41,2.41,0,0,1-.15.87,1.42,1.42,0,0,1-.44.64,1.25,1.25,0,0,1-1.5,0A1.5,1.5,0,0,1,9,3.39a2.41,2.41,0,0,1-.15-.87v-.1a2.74,2.74,0,0,1,.14-.87A1.43,1.43,0,0,1,9.39.91a1.11,1.11,0,0,1,.74-.25,1.12,1.12,0,0,1,.76.25,1.5,1.5,0,0,1,.44.64,2.49,2.49,0,0,1,.15.87Z" style="fill:#1a1a1a"/><polygon points="15.45 0 14.61 0 12.56 0 12.56 0.69 14.61 0.69 14.61 4.85 15.45 4.85 15.45 0.69 17.5 0.69 17.5 0 15.45 0" style="fill:#1a1a1a"/><path d="M17.64,8.35s-.06-.06-.09-.09a.61.61,0,0,0-.16-.16L12.66,5.23a.73.73,0,0,0-.73,0L7.19,8.1A.81.81,0,0,0,7,8.26S7,8.31,7,8.35a.68.68,0,0,0-.1.35v5.73a.7.7,0,0,0,.34.6l4.74,2.87h0a.69.69,0,0,0,.34.09.73.73,0,0,0,.35-.09h0L17.39,15a.7.7,0,0,0,.34-.6V8.7A.68.68,0,0,0,17.64,8.35Zm-5.35-1.7,3.39,2-3.39,2.05L8.91,8.7Zm-4,3.29,3.34,2v4.1L8.25,14ZM16.33,14l-3.34,2V12l3.34-2Z" style="fill:#ff9452"/></g></svg>