<svg xmlns="http://www.w3.org/2000/svg" viewBox="0 0 18 18"><title>iconsnew</title><g id="afa249bb-caad-44ea-8e0f-ebb2d6baa7a8" data-name="Layer 1"><path d="M17.88,11.58a.69.69,0,0,0-.6-.38h-.62l.41-.78a.69.69,0,0,0-.62-1H14.13V8a.7.7,0,0,0-.7-.7H8L6.93,5.44a.68.68,0,0,0-.61-.35H.86a.7.7,0,0,0-.7.7V16.92s0,.06,0,.1a.53.53,0,0,0,0,.12,1.09,1.09,0,0,0,.08.15.3.3,0,0,0,0,.08h0a.65.65,0,0,0,.16.13l.07,0a.68.68,0,0,0,.28.07H14a.7.7,0,0,0,.59-.32l3.3-5A.7.7,0,0,0,17.88,11.58Zm-2.79-.41L4.93,11a.78.78,0,0,0-.56.28L2.79,13.37,4,10.79H15.3ZM5.91,6.49,7,8.35a.71.71,0,0,0,.61.36h5.16v.68H3.57a.69.69,0,0,0-.63.4L1.56,12.68V6.49Zm7.67,9.73H2.38l2.89-3.8L16,12.58Z" style="fill:#7daca8"/></g></svg>