<svg xmlns="http://www.w3.org/2000/svg" viewBox="0 0 30.83 30.83"><title>iconsnew</title><g id="a88ca264-dbf3-4230-8ddd-af26d84d6da1" data-name="Layer 1"><path d="M27.69,8.31a1.92,1.92,0,0,1,1.3.51A.91.91,0,0,0,30,9a.89.89,0,0,0,.54-.82V1.33a.9.9,0,0,0-.9-.9H21.75A.9.9,0,0,0,21,1.74a2.29,2.29,0,0,1,.25,1,2.2,2.2,0,1,1-4.39,0,2.29,2.29,0,0,1,.25-1,.9.9,0,0,0-.8-1.31H10.6a.9.9,0,0,0-.9.9V6.61a4,4,0,0,0-1.39-.25A3.86,3.86,0,0,0,5.59,13v4a3.88,3.88,0,1,0,0,7.23v5.3a.9.9,0,0,0,.9.9H12A.91.91,0,0,0,12.81,29a2.29,2.29,0,0,1-.32-1.17,2.41,2.41,0,1,1,4.81,0A2.29,2.29,0,0,1,17,29a.91.91,0,0,0,.78,1.36h7.73a.9.9,0,0,0,.9-.9V20H29.6a.9.9,0,0,0,.9-.9V12.32A.9.9,0,0,0,29,11.65a1.93,1.93,0,0,1-1.3.52,1.9,1.9,0,0,1-1.3-.52.88.88,0,0,0-.52-.77,2,2,0,0,1-.11-.64A1.93,1.93,0,0,1,27.69,8.31Zm1,9.93H23.15a4.49,4.49,0,0,0,.06-.73A4.22,4.22,0,0,0,19,13.3h-.12a4,4,0,0,0-1.91.52,4.22,4.22,0,0,0-1.5,1.41,4.07,4.07,0,0,0-.65,1.88c0,.13,0,.26,0,.39a3.61,3.61,0,0,0,.07.73H11.5V12.11a.9.9,0,0,0-1.6-.57,2,2,0,0,1-1.59.76,2.09,2.09,0,0,1-2-1.49,2.2,2.2,0,0,1-.08-.58A2.07,2.07,0,0,1,8.31,8.16a2,2,0,0,1,1.59.75.9.9,0,0,0,1.6-.56V2.23h3.55a3.08,3.08,0,0,0,0,.53,4,4,0,1,0,8,0,4.58,4.58,0,0,0,0-.53H28.7V6.65a3.38,3.38,0,0,0-1-.14A3.73,3.73,0,0,0,24,10.24a2.5,2.5,0,0,0,.05.55,3.71,3.71,0,0,0,2.38,2.94,3.49,3.49,0,0,0,1.3.24,3.73,3.73,0,0,0,1-.14ZM24.59,28.6H19a3.61,3.61,0,0,0,.07-.73,4.21,4.21,0,1,0-8.41,0,4.49,4.49,0,0,0,.06.73H7.39V22.47a.9.9,0,0,0-1.6-.57,2,2,0,0,1-1.59.76,2.07,2.07,0,1,1,0-4.14,2,2,0,0,1,1.59.75.9.9,0,0,0,1.6-.56V14a3.46,3.46,0,0,0,.92.12,3.81,3.81,0,0,0,1.39-.26v5.3a.9.9,0,0,0,.9.9h5.54a.91.91,0,0,0,.78-1.36,2.29,2.29,0,0,1-.32-1.17,2.49,2.49,0,0,1,.16-.87,2.42,2.42,0,0,1,1.53-1.43h0a2.33,2.33,0,0,1,.7-.11,2.41,2.41,0,0,1,2.41,2.41,2.29,2.29,0,0,1-.32,1.17A.91.91,0,0,0,21.87,20h2.72Z" style="fill:#7daca8"/></g></svg>