<svg xmlns="http://www.w3.org/2000/svg" viewBox="0 0 18 18"><title>iconsnew</title><g id="e2b33ac2-f8e3-4e96-afd8-1935341140a4" data-name="Layer 1"><path d="M5.72,1.46v.7h8v-.7a.7.7,0,0,0-.7-.7H5A.7.7,0,0,1,5.72,1.46ZM12.87.78a.78.78,0,0,0-.39.18A.74.74,0,0,1,12.87.78Z" style="fill:#7daca8"/><path d="M16.54.76H13a.7.7,0,0,1,.7.7v.7h2.16V15.85H13.68v.7a.71.71,0,0,1-.7.7h3.56a.7.7,0,0,0,.7-.7V1.46A.7.7,0,0,0,16.54.76Z" style="fill:#7daca8"/><path d="M12.28,7.16H5.72v-5H4.32v5.7a.7.7,0,0,0,.7.7h8a.7.7,0,0,0,.7-.7V2.16h-1.4Z" style="fill:#7daca8"/><path d="M13,17.24a.7.7,0,0,0,.7-.7v-.69h0V13a.7.7,0,0,0-.7-.7H5a.7.7,0,0,0-.7.7v2.89H2.15V2.16H5.72v-.7A.7.7,0,0,0,5,.76H1.45a.7.7,0,0,0-.7.7V16.55a.71.71,0,0,0,.7.7H5a.69.69,0,0,1-.44-.17.68.68,0,0,0,.44.16.72.72,0,0,0,.47-.18.73.73,0,0,1-.47.19h8a.66.66,0,0,1-.41-.15A.72.72,0,0,0,13,17.24ZM4.92.78A.64.64,0,0,0,4.48,1,.64.64,0,0,1,4.92.78Zm.8,15.77a.68.68,0,0,1-.17.43.69.69,0,0,0,.17-.44v-.69h0v-2.2h6.56v2.19H5.72Z" style="fill:#7daca8"/></g></svg>